<?xml version="1.0" encoding="UTF-8"?>
<svg width="798px" height="1025px" viewBox="0 0 798 1025" version="1.1" xmlns="http://www.w3.org/2000/svg" xmlns:xlink="http://www.w3.org/1999/xlink">
  <g id="500Px" transform="translate(0.3335, 0.8284)" fill="currentColor" fill-rule="nonzero">
    <path d="M139.393395,673.7922 C139.393395,674.81661 144.513515,689.1526 147.585775,696.3205 C163.969575,736.257 188.545775,772.0969 219.265475,802.8165 C249.985175,833.5361 285.825975,858.1124 325.761475,874.4962 C366.721475,891.9044 410.753675,901.1202 455.809475,901.1202 C500.866075,901.1202 544.897375,891.90438 585.857475,874.4962 C625.793975,858.1124 661.633875,833.5362 692.353475,802.8165 C723.074175,772.0968 747.649375,736.2569 764.034175,696.3205 C781.441375,655.3605 790.658175,611.3283 790.658175,566.2725 C790.658175,521.2167 781.441375,477.1846 764.034175,436.2245 C747.649375,396.288 723.074175,360.4481 692.353475,329.7285 C661.633775,299.0088 625.793875,274.4326 585.857475,258.0488 C544.897475,240.6406 500.866275,231.4248 455.809475,231.4248 C409.729375,231.4248 364.673775,240.64062 323.713475,258.0488 C290.945875,271.3603 235.648975,307.2002 203.905475,340.9922 L203.905475,340.9922 L203.905475,63.4882 L667.776475,63.4882 C684.161275,63.4882 684.161275,39.9364 684.161275,31.7441 C684.161275,23.55269 684.161275,0 666.753075,0 L167.041075,1.02441 C153.728575,1.02441 144.512775,12.28811 144.512775,22.52831 L144.512775,410.62431 C144.512775,422.91241 159.873175,432.12821 174.209075,435.20051 C202.880975,441.34504 209.024475,432.12824 216.192475,422.91241 L217.216885,421.88897 C227.457085,406.52857 261.249085,372.73667 261.249085,372.73667 C312.449285,321.53647 382.081085,292.86457 455.809085,292.86457 C529.537585,292.86457 598.145085,321.53647 649.345085,372.73667 C701.568685,424.96027 729.217185,493.56867 729.217185,566.27267 C729.217185,638.97667 700.545285,707.58467 649.345085,759.80867 C598.144885,811.00887 527.490085,839.68077 454.785085,839.68077 C405.632785,839.68077 357.504785,826.36827 316.545085,801.79207 L316.545085,565.24807 C316.545085,533.50487 329.856585,499.71287 353.409385,474.11237 C380.033385,444.41607 415.873285,428.03227 454.785385,428.03227 C492.673085,428.03227 528.512885,442.36817 555.137385,468.99227 C581.761385,494.59287 596.097385,529.40827 596.097385,566.27257 C596.097385,645.12027 533.633485,706.56057 454.785385,706.56057 C439.424985,706.56057 411.776585,699.3926 410.753185,699.3926 C394.369385,694.27248 388.224885,716.8008 386.176985,723.9688 C377.984605,751.6163 390.272685,757.7608 393.344955,758.7842 C418.945555,766.97658 435.329355,768.00002 457.856655,768.00002 C569.472655,768.00002 660.608655,676.86432 660.608655,565.24802 C660.608655,454.65602 569.472955,363.52002 457.856655,363.52002 C403.585155,363.52002 351.361655,383.99952 313.472655,422.91162 C276.608355,458.75142 255.104455,506.88042 255.104455,555.00862 L255.104455,556.03206 L255.104455,749.56806 L255.104455,749.56806 C233.600555,726.01626 213.121055,690.17646 199.808555,654.33566 C194.688435,639.99976 182.400355,643.07196 166.016555,648.19211 C156.800735,651.26438 134.272455,657.40793 139.392555,673.79171 L139.392555,673.79171 L139.393395,673.7922 Z M377.985355,618.4962 C377.985355,625.66417 384.129925,630.7843 388.225595,634.881 L388.225595,635.90444 C394.370125,642.04897 400.513695,645.12026 406.658195,645.12026 C411.777335,645.12026 413.826165,643.07241 414.849605,642.04897 L452.738305,604.16027 L488.578105,638.97667 C491.649395,643.07237 495.746075,644.09679 499.841805,645.12026 C505.985355,645.12026 512.129905,642.04893 518.273405,634.88092 C533.633805,619.52052 525.441375,611.32822 522.370085,607.23252 L486.530285,571.39272 L523.393585,533.50502 C531.585965,524.28822 524.417995,515.07242 517.250035,507.90442 C507.009835,497.66422 496.769535,494.59292 490.626035,500.73645 L453.761735,537.60075 L415.874035,499.71305 C413.826185,497.66422 411.777355,496.64078 408.706065,496.64078 C403.585945,496.64078 397.441465,499.71305 391.297865,506.88098 C380.034165,518.14468 376.961965,526.33608 383.105485,532.48058 L420.994185,570.36828 L384.129885,608.25698 C379.009765,611.32827 377.985355,615.42495 377.985355,618.49628 L377.985355,618.4962 Z M459.905395,110.5926 C399.489395,110.5926 336.001395,122.8807 288.896395,143.3602 C283.776275,145.40805 280.704985,149.50473 280.704985,154.6239 C279.680575,159.74402 281.728425,166.912 284.800685,176.1278 C287.872955,183.29675 295.040885,203.7762 310.400285,197.6327 C358.529185,179.2001 411.776285,168.9598 459.905285,168.9598 C515.201185,168.9598 567.425285,179.2 617.600285,200.7039 C657.536785,217.0887 694.400085,241.6639 735.361285,277.5047 C738.432575,280.57599 741.504835,281.6004 744.577105,281.6004 C752.768515,281.6004 759.936505,273.40802 767.104405,266.24 C778.369005,253.9519 785.537005,243.7127 774.272375,233.4724 C735.361275,196.6081 692.352475,168.9597 640.128375,146.4324 C582.784575,122.8806 522.368375,110.5926 459.904375,110.5926 L459.905395,110.5926 Z M782.465395,851.9682 L782.465395,851.9682 C775.297425,844.80023 769.153895,840.7036 764.033795,838.6557 C758.913695,836.6078 753.793595,838.6557 749.697895,841.72797 L746.625625,845.82367 C709.761325,882.68797 665.729125,912.38417 617.601625,932.86367 C567.425825,954.36757 514.177625,964.60777 459.906625,964.60777 C405.634125,964.60777 352.385625,954.36757 302.210625,932.86367 C254.082725,912.38417 211.074925,883.71227 173.186625,845.82367 C134.274525,806.91157 105.602625,763.90377 86.1466252,716.80067 C67.7150252,671.74407 61.5704252,636.92857 59.5226252,625.66397 L59.5226252,623.61612 C57.4747752,610.30462 45.1867252,609.28022 27.7785252,612.35242 C20.6105552,613.37586 -1.91677478,616.44812 0.13102522,632.83192 L0.13102522,632.83192 C6.27457522,669.69622 16.5148252,705.53602 30.8507252,740.35292 C54.4025252,795.64882 88.1945252,845.82492 130.178825,887.80892 C173.186625,930.81672 222.339025,964.60872 277.634825,987.13702 C334.978625,1011.71322 396.418825,1024.00032 458.882825,1024.00032 C521.346825,1024.00032 582.786825,1011.71322 640.130825,987.13702 C695.426725,963.58432 745.602825,929.79232 787.586825,887.80892 L791.682525,883.71322 C797.827055,879.61654 801.922725,870.40072 782.466705,851.96912 L782.465395,851.9682 Z"></path>
  </g>
</svg>