<?xml version="1.0" standalone="no"?>
<!DOCTYPE svg PUBLIC "-//W3C//DTD SVG 1.1//EN" "http://www.w3.org/Graphics/SVG/1.1/DTD/svg11.dtd" >
<svg xmlns="http://www.w3.org/2000/svg" xmlns:xlink="http://www.w3.org/1999/xlink" version="1.1" viewBox="-10 0 1034 1024">
   <path fill="currentColor"
d="M252.928 531.768c0 1.02441 5.12012 15.3604 8.19238 22.5283c16.3838 39.9365 40.96 75.7764 71.6797 106.496s66.5605 55.2959 106.496 71.6797c40.96 17.4082 84.9922 26.624 130.048 26.624c45.0566 0 89.0879 -9.21582 130.048 -26.624
c39.9365 -16.3838 75.7764 -40.96 106.496 -71.6797c30.7207 -30.7197 55.2959 -66.5596 71.6807 -106.496c17.4072 -40.96 26.624 -84.9922 26.624 -130.048s-9.2168 -89.0879 -26.624 -130.048c-16.3848 -39.9365 -40.96 -75.7764 -71.6807 -106.496
c-30.7197 -30.7197 -66.5596 -55.2959 -106.496 -71.6797c-40.96 -17.4082 -84.9912 -26.624 -130.048 -26.624c-46.0801 0 -91.1357 9.21582 -132.096 26.624c-32.7676 13.3115 -88.0645 49.1514 -119.808 82.9434v0v-277.504h463.871
c16.3848 0 16.3848 -23.5518 16.3848 -31.7441c0 -8.19141 0 -31.7441 -17.4082 -31.7441l-499.712 1.02441c-13.3125 0 -22.5283 11.2637 -22.5283 21.5039v388.096c0 12.2881 15.3604 21.5039 29.6963 24.5762c28.6719 6.14453 34.8154 -3.07227 41.9834 -12.2881
l1.02441 -1.02344c10.2402 -15.3604 44.0322 -49.1523 44.0322 -49.1523c51.2002 -51.2002 120.832 -79.8721 194.56 -79.8721c73.7285 0 142.336 28.6719 193.536 79.8721c52.2236 52.2236 79.8721 120.832 79.8721 193.536s-28.6719 141.312 -79.8721 193.536
c-51.2002 51.2002 -121.855 79.8721 -194.56 79.8721c-49.1523 0 -97.2803 -13.3125 -138.24 -37.8887v-236.544c0 -31.7432 13.3115 -65.5352 36.8643 -91.1357c26.624 -29.6963 62.4639 -46.0801 101.376 -46.0801c37.8877 0 73.7275 14.3359 100.352 40.96
c26.624 25.6006 40.96 60.416 40.96 97.2803c0 78.8477 -62.4639 140.288 -141.312 140.288c-15.3604 0 -43.0088 -7.16797 -44.0322 -7.16797c-16.3838 -5.12012 -22.5283 17.4082 -24.5762 24.5762c-8.19238 27.6475 4.0957 33.792 7.16797 34.8154
c25.6006 8.19238 41.9844 9.21582 64.5117 9.21582c111.616 0 202.752 -91.1357 202.752 -202.752c0 -110.592 -91.1357 -201.728 -202.752 -201.728c-54.2715 0 -106.495 20.4795 -144.384 59.3916c-36.8643 35.8398 -58.3682 83.9688 -58.3682 132.097v1.02344v193.536v0
c-21.5039 -23.5518 -41.9834 -59.3916 -55.2959 -95.2324c-5.12012 -14.3359 -17.4082 -11.2637 -33.792 -6.14355c-9.21582 3.07227 -31.7441 9.21582 -26.624 25.5996v0zM491.52 476.472c0 7.16797 6.14453 12.2881 10.2402 16.3848v1.02344
c6.14453 6.14453 12.2881 9.21582 18.4326 9.21582c5.11914 0 7.16797 -2.04785 8.19141 -3.07129l37.8887 -37.8887l35.8398 34.8164c3.07129 4.0957 7.16797 5.12012 11.2637 6.14355c6.14355 0 12.2881 -3.07129 18.4316 -10.2393
c15.3604 -15.3604 7.16797 -23.5527 4.09668 -27.6484l-35.8398 -35.8398l36.8633 -37.8877c8.19238 -9.2168 1.02441 -18.4326 -6.14355 -25.6006c-10.2402 -10.2402 -20.4805 -13.3115 -26.624 -7.16797l-36.8643 36.8643l-37.8877 -37.8877
c-2.04785 -2.04883 -4.09668 -3.07227 -7.16797 -3.07227c-5.12012 0 -11.2646 3.07227 -17.4082 10.2402c-11.2637 11.2637 -14.3359 19.4551 -8.19238 25.5996l37.8887 37.8877l-36.8643 37.8887c-5.12012 3.07129 -6.14453 7.16797 -6.14453 10.2393zM573.44 -31.4316
c-60.416 0 -123.904 12.2881 -171.009 32.7676c-5.12012 2.04785 -8.19141 6.14453 -8.19141 11.2637c-1.02441 5.12012 1.02344 12.2881 4.0957 21.5039c3.07227 7.16895 10.2402 27.6484 25.5996 21.5049c48.1289 -18.4326 101.376 -28.6729 149.505 -28.6729
c55.2959 0 107.52 10.2402 157.695 31.7441c39.9365 16.3848 76.7998 40.96 117.761 76.8008c3.07129 3.07129 6.14355 4.0957 9.21582 4.0957c8.19141 0 15.3594 -8.19238 22.5273 -15.3604c11.2646 -12.2881 18.4326 -22.5273 7.16797 -32.7676
c-38.9111 -36.8643 -81.9199 -64.5127 -134.144 -87.04c-57.3438 -23.5518 -117.76 -35.8398 -180.224 -35.8398zM896 709.944v0c-7.16797 -7.16797 -13.3115 -11.2646 -18.4316 -13.3125s-10.2402 0 -14.3359 3.07227l-3.07227 4.0957
c-36.8643 36.8643 -80.8965 66.5605 -129.024 87.04c-50.1758 21.5039 -103.424 31.7441 -157.695 31.7441c-54.2725 0 -107.521 -10.2402 -157.696 -31.7441c-48.1279 -20.4795 -91.1357 -49.1514 -129.024 -87.04c-38.9121 -38.9121 -67.584 -81.9199 -87.04 -129.023
c-18.4316 -45.0566 -24.5762 -79.8721 -26.624 -91.1367v-2.04785c-2.04785 -13.3115 -14.3359 -14.3359 -31.7441 -11.2637c-7.16797 1.02344 -29.6953 4.0957 -27.6475 20.4795v0c6.14355 36.8643 16.3838 72.7041 30.7197 107.521
c23.5518 55.2959 57.3438 105.472 99.3281 147.456c43.0078 43.0078 92.1602 76.7998 147.456 99.3281c57.3438 24.5762 118.784 36.8633 181.248 36.8633s123.904 -12.2871 181.248 -36.8633c55.2959 -23.5527 105.472 -57.3447 147.456 -99.3281l4.0957 -4.0957
c6.14453 -4.09668 10.2402 -13.3125 -9.21582 -31.7441z" />
</svg>
