<?xml version="1.0" encoding="UTF-8"?>
<svg width="894px" height="1025px" viewBox="0 0 894 1025" version="1.1" xmlns="http://www.w3.org/2000/svg" xmlns:xlink="http://www.w3.org/1999/xlink">
  <g id="9Gag" transform="translate(0.1986, 0.3376)" fill="currentColor" fill-rule="nonzero">
    <path d="M446.789252,0 C448.824412,0 550.185252,57.52331 672.034252,127.82581 L672.034252,127.82581 L893.579252,255.64881 L893.579252,768.53481 L672.034252,896.35881 C550.186252,966.66151 448.497252,1024.09981 446.063252,1023.99994 C440.078872,1023.75372 8.96225246,774.40281 7.63525246,770.41881 C6.55224246,767.17174 172.138252,670.18481 178.763252,670.18481 C180.806222,670.18481 241.502552,704.26001 313.645252,745.90751 L315.806382,747.15458 C386.995882,788.22388 446.508382,821.18678 448.535382,820.65948 C450.582262,820.1253 511.318582,785.66338 583.504382,744.07748 L583.504382,744.07748 L714.751382,668.46618 L714.807047,564.50218 L714.808023,561.08421 L714.808023,557.69359 L714.80607,552.66039 C714.767007,501.00219 714.286539,460.53829 713.68205,460.53829 C713.408612,460.53829 702.75915,466.54024 685.16155,476.58319 L682.601,478.0451 C658.2651,491.9435 621.8647,512.8615 581.525,536.1486 C509.4879,577.7345 448.871,611.759 446.82,611.759 C444.769,611.759 343.395,554.2385 221.545,483.935 L221.545,483.935 L0,356.112 L0,255.646 L221.545,127.824 C343.396,57.5203 444.755,0 446.79,0 L446.789252,0 Z M446.789252,204.494753 C444.164252,204.494753 401.224752,228.11111 358.111552,252.55451 L352.834212,255.5506 C309.773712,280.0252 268.177012,304.3973 268.186711,305.8817 C268.193548,306.827012 307.221912,330.2811 354.916212,358.0028 C402.611512,385.7245 443.988512,408.1503 446.864412,407.8378 C449.670072,407.533112 490.918112,384.6532 533.058712,360.6405 L540.960082,356.13073 C583.942482,331.55943 625.406382,307.20693 625.406382,305.88273 C625.406382,302.8466 452.139382,204.494753 446.789382,204.494753 L446.789382,204.494753 L446.789252,204.494753 Z"></path>
  </g>
</svg>