<?xml version="1.0" standalone="no"?>
<!DOCTYPE svg PUBLIC "-//W3C//DTD SVG 1.1//EN" "http://www.w3.org/Graphics/SVG/1.1/DTD/svg11.dtd" >
<svg xmlns="http://www.w3.org/2000/svg" xmlns:xlink="http://www.w3.org/1999/xlink" version="1.1" viewBox="-10 0 1034 1024">
   <path fill="currentColor"
d="M511.964 -140.999c2.03516 0 103.396 57.5215 225.245 127.824v0l221.545 127.823v512.886l-221.545 127.824c-121.848 70.3027 -223.537 127.741 -225.971 127.641c-5.98438 -0.246094 -437.101 -249.597 -438.428 -253.581
c-1.08301 -3.24707 164.503 -100.234 171.128 -100.234c2.04297 0 62.7393 34.0752 134.882 75.7227l2.16113 1.24707c71.1895 41.0693 130.702 74.0322 132.729 73.5049c2.04688 -0.53418 62.7832 -34.9961 134.969 -76.582v0l131.247 -75.6113l0.0556641 -103.964
l0.000976562 -3.41797v-3.39062l-0.00195312 -5.0332c-0.0390625 -51.6582 -0.519531 -92.1221 -1.12402 -92.1221c-0.273438 0 -10.9229 6.00195 -28.5205 16.0449l-2.56055 1.46191c-24.3359 13.8984 -60.7363 34.8164 -101.076 58.1035
c-72.0371 41.5859 -132.654 75.6104 -134.705 75.6104s-103.425 -57.5205 -225.275 -127.824v0l-221.545 -127.823v-100.466l221.545 -127.822c121.851 -70.3037 223.21 -127.824 225.245 -127.824zM511.964 63.4941c-2.625 0 -45.5645 23.6162 -88.6777 48.0596
l-5.27734 2.99609c-43.0605 24.4746 -84.6572 48.8467 -84.6475 50.3311c0.00683594 0.945312 39.0352 24.3994 86.7295 52.1211c47.6953 27.7217 89.0723 50.1475 91.9482 49.835c2.80566 -0.304688 44.0537 -23.1846 86.1943 -47.1973l7.90137 -4.50977
c42.9824 -24.5713 84.4463 -48.9238 84.4463 -50.248c0 -3.03613 -173.267 -101.387 -178.617 -101.387v-0.000976562z" />
</svg>
