<?xml version="1.0" encoding="UTF-8"?>
<svg width="1024px" height="963px" viewBox="0 0 1024 963" version="1.1" xmlns="http://www.w3.org/2000/svg" xmlns:xlink="http://www.w3.org/1999/xlink">
  <g id="AdobePortfolio" transform="translate(0, 0.0926)" fill="currentColor" fill-rule="nonzero">
    <path d="M0,25.60014 C0,20.48002 2.04785,15.35994 9.21582,15.35994 C64.51172,12.28767 146.43182,11.26424 231.42382,11.26424 C470.01582,11.26424 573.44082,142.33524 573.44082,310.27224 C573.44082,529.40824 414.71982,623.61624 220.16082,623.61624 C187.39222,623.61624 176.12862,621.56839 152.57682,621.56839 L152.57682,953.34439 C152.57682,960.51236 149.50455,962.56021 143.361,962.56021 L10.241,962.56021 C3.07303,962.56021 1.02518,959.48794 1.02518,953.34439 L0,25.60014 Z M153.6,483.32784 C174.0805,485.37569 189.4408,485.37569 223.2328,485.37569 C323.5848,485.37569 418.8168,449.53589 418.8168,313.34469 C418.8168,203.77669 351.2328,148.48069 236.5448,148.48069 C201.7284,148.48069 168.9608,150.52854 154.6249,151.55296 L153.6,483.32784 Z M666.624,422.91184 C661.50388,422.91184 659.45603,419.83957 659.45603,413.69602 L659.45603,294.91202 C659.45603,287.74405 661.50388,285.6962 666.624,285.6962 L746.4961,285.6962 L746.4961,241.664 C746.4961,188.416 755.71192,143.3603 775.168,104.448 C809.9844,32.7683 871.4239,0 956.416,0 C982.0156,0 1000.4482,2.04785 1014.7842,7.16797 C1021.95217,10.24024 1024.00042,12.28809 1024.00042,19.45607 L1024.00042,133.12007 C1024.00042,140.28804 1020.92775,142.33589 1014.7842,142.33589 C1003.5196,139.2646 987.1358,138.24019 976.8965,138.24019 C927.7442,138.24019 902.1436,174.07999 902.1436,242.68819 L902.1436,286.72039 L1014.7846,286.72039 C1021.95257,286.72039 1024.00042,288.76824 1024.00042,293.88836 L1024.00042,412.67136 C1024.00042,419.83933 1021.95257,421.88816 1014.7846,421.88816 L902.1436,421.88816 L902.1436,953.34416 C902.1436,958.4633 900.09575,962.55998 892.92778,962.55998 L756.73678,962.55998 C749.56881,962.55998 747.51998,958.4633 747.51998,953.34416 L747.51998,421.88816 L666.624,422.91184 Z"></path>
  </g>
</svg>