<?xml version="1.0" standalone="no"?>
<!DOCTYPE svg PUBLIC "-//W3C//DTD SVG 1.1//EN" "http://www.w3.org/Graphics/SVG/1.1/DTD/svg11.dtd" >
<svg xmlns="http://www.w3.org/2000/svg" xmlns:xlink="http://www.w3.org/1999/xlink" version="1.1" viewBox="-10 0 1044 1024">
   <path fill="currentColor"
d="M0 -84.6797c0 -5.12012 2.04785 -10.2402 9.21582 -10.2402c55.2959 -3.07227 137.216 -4.0957 222.208 -4.0957c238.592 0 342.017 131.071 342.017 299.008c0 219.136 -158.721 313.344 -353.28 313.344c-32.7686 0 -44.0322 -2.04785 -67.584 -2.04785v331.776
c0 7.16797 -3.07227 9.21582 -9.21582 9.21582h-133.12c-7.16797 0 -9.21582 -3.07227 -9.21582 -9.21582zM153.6 373.048c20.4805 2.04785 35.8408 2.04785 69.6328 2.04785c100.352 0 195.584 -35.8398 195.584 -172.031c0 -109.568 -67.584 -164.864 -182.272 -164.864
c-34.8164 0 -67.584 2.04785 -81.9199 3.07227zM666.624 312.632c-5.12012 0 -7.16797 -3.07227 -7.16797 -9.21582v-118.784c0 -7.16797 2.04785 -9.21582 7.16797 -9.21582h79.8721v-44.0322c0 -53.248 9.21582 -98.3037 28.6719 -137.216
c34.8164 -71.6797 96.2559 -104.448 181.248 -104.448c25.5996 0 44.0322 2.04785 58.3682 7.16797c7.16797 3.07227 9.21582 5.12012 9.21582 12.2881v113.664c0 7.16797 -3.07227 9.21582 -9.21582 9.21582c-11.2646 -3.07129 -27.6484 -4.0957 -37.8877 -4.0957
c-49.1523 0 -74.7529 35.8398 -74.7529 104.448v44.0322h112.641c7.16797 0 9.21582 2.04785 9.21582 7.16797v118.783c0 7.16797 -2.04785 9.2168 -9.21582 9.2168h-112.641v531.456c0 5.11914 -2.04785 9.21582 -9.21582 9.21582h-136.191
c-7.16797 0 -9.2168 -4.09668 -9.2168 -9.21582v-531.456z" />
</svg>
