<?xml version="1.0" encoding="UTF-8"?>
<svg width="512px" height="512px" viewBox="0 0 512 512" version="1.1" xmlns="http://www.w3.org/2000/svg" xmlns:xlink="http://www.w3.org/1999/xlink">
    <title>Afdian</title>
    <g id="Afdian" stroke="none" stroke-width="1" fill="none" fill-rule="evenodd">
        <path d="M137.993113,77.8919732 C140.695981,81.4812744 141.418345,85.9119859 140.243799,90.1350496 C139.410532,93.1310496 137.735572,95.7701814 135.431205,98.2151392 C132.06644,101.78519 127.10125,105.144503 120.971893,108.159052 L120.333687,108.469667 C113.056095,111.974905 105.498399,116.245681 97.6654683,121.283766 L98.8770325,121.351804 C107.772538,121.829933 118.801603,122.078786 132.68749,122.096689 L137.300284,122.094378 C155.864713,122.053269 179.23168,121.633978 208.914943,120.833004 L219.541098,120.540847 L222.393281,120.467913 L226.517412,120.371403 C270.529561,119.399899 300.47664,120.649151 322.066557,124.166763 C342.058958,127.424094 354.783664,132.296823 369.668855,141.313756 L370.368216,141.73947 C371.662323,142.530995 372.966597,143.345102 374.544179,144.343644 L381.584128,148.82374 L384.154344,150.455656 L386.785404,152.140134 L388.563186,153.287594 C400.554438,161.054966 409.37517,167.350063 417.879358,174.423947 C430.876237,185.234903 441.240987,196.571925 449.175562,209.320012 C468.115175,239.749346 472.221685,276.931726 459.348183,323.706183 C459.021911,324.891658 458.685817,326.067465 458.339965,327.233634 C462.777226,328.152042 466.917663,328.762464 470.756815,329.065832 C486.634974,330.320518 496.041962,345.490727 494.57303,361.239534 C492.98677,378.246246 479.348162,389.740928 460.308922,386.137123 C450.422241,384.265743 441.208983,381.662351 432.67933,378.320819 C418.645459,396.400203 400.652902,410.326886 379.305284,420.385402 C349.825435,434.275643 316.318922,439.912109 280.628906,439.912109 C223.486477,439.912109 174.442229,427.280142 143.507776,402.788937 C126.438033,389.274602 113.717014,370.484289 108.884161,350.891296 C103.405071,328.678377 108.294886,306.960853 124.17431,289.744409 C131.020397,282.321894 141.615805,273.011788 155.994879,261.779556 C152.143132,258.044809 149.404155,254.248097 147.802793,250.25784 C144.074959,240.968862 146.993084,231.882905 155.032987,225.191295 C162.437271,219.028711 171.269791,217.128644 180.319106,219.876244 C186.282337,221.686831 192.11445,225.422524 197.979675,230.978212 L200.860028,228.965955 L205.273827,225.899584 C209.743561,222.804445 214.381057,219.623047 219.185906,216.355787 L218.173956,216.01179 C206.364564,212.076977 188.625435,208.875587 165.279367,206.774125 C165.101998,206.75816 164.925065,206.737684 164.748737,206.712719 C106.996242,198.535811 68.3351803,186.638324 45.2506119,171.432145 C26.0745916,158.80059 17.9707031,144.213848 17.9707031,128.292969 C17.9707031,101.267916 44.3968579,80.7950177 90.9264894,72.8113865 L92.4356931,72.5564917 L93.8910804,72.3187161 L95.294731,72.0973645 C118.038445,68.5769438 131.844526,69.7268957 137.993113,77.8919732 Z M106.709703,91.794804 L106.177252,91.8499519 C103.138824,92.1723026 99.7806597,92.6316468 96.1149479,93.2339235 L94.4778075,93.508926 C74.1651267,96.9942094 59.1980022,102.779105 49.7929826,110.065372 C42.3445697,115.835814 38.9707031,122.04753 38.9707031,128.292969 C38.9707031,137.046714 43.44134,145.093718 56.8026107,153.895004 C76.4324363,166.825487 111.311702,177.696964 164.418436,185.449363 L167.429703,185.881804 L170.389457,186.158701 L172.337448,186.349312 L175.244701,186.647903 C205.327402,189.828092 226.581929,194.944411 239.572693,202.645641 L242.716645,200.555774 L247.7488,197.222813 L251.372777,194.831298 C259.886325,189.221416 268.803085,183.403754 278.123226,177.377791 C282.993008,174.22922 289.493168,175.624537 292.64174,180.494319 C295.790311,185.364102 294.394994,191.864262 289.525212,195.012834 L284.669776,198.157062 L279.984376,201.200819 L275.462758,204.147564 C202.176359,251.985421 156.662493,285.494788 139.610846,303.982153 C128.682227,315.830943 125.429231,330.278734 129.273065,345.862122 C132.946024,360.752756 142.997976,375.60057 156.543005,386.324345 C183.193676,407.424024 227.796744,418.912109 280.628906,418.912109 C313.487463,418.912109 344.088547,413.764394 370.354384,401.388524 C387.368698,393.371762 401.811902,382.622304 413.38677,368.795572 C411.67952,367.752344 410.009178,366.669684 408.375564,365.547633 C403.59551,362.264439 402.382064,355.727885 405.665258,350.94783 C408.948452,346.167775 415.485006,344.95433 420.265061,348.237523 C432.207212,356.440023 446.828377,362.212601 464.214516,365.503502 C470.53801,366.700432 473.180235,364.473552 473.663786,359.289275 C474.148978,354.087403 471.744191,350.209315 469.10256,350.000574 C454.647314,348.858326 437.597317,344.331039 417.826682,336.486351 C412.4365,334.347608 409.800688,328.244208 411.939431,322.854026 C414.078173,317.463844 420.181573,314.828032 425.571755,316.966774 C429.918631,318.691549 434.09762,320.233763 438.106941,321.594373 C438.449218,320.452743 438.780348,319.298845 439.101035,318.133661 C450.48241,276.780684 447.042515,245.634168 431.346899,220.416804 C419.397761,201.218719 402.828742,187.25124 372.247206,167.770472 L362.698743,161.699818 L360.980668,160.622889 L359.924861,159.969494 L359.410889,159.654184 C346.670465,151.861652 336.531579,147.877241 319.544683,145.034653 L318.689588,144.893463 C297.528109,141.445655 266.72237,140.300343 220.058868,141.534499 L206.947234,141.894558 C126.852184,144.043298 89.2235096,143.681066 69.7592892,138.793093 C67.562299,138.819355 65.372611,138.157023 63.5377708,136.850438 C59.2395227,135.186718 56.1191196,133.156065 53.6553069,130.715323 C49.5355591,126.634151 49.5042871,119.985992 53.5854587,115.866244 C57.5937523,111.820064 64.0781735,111.717645 68.2114464,115.581696 L68.4345369,115.796396 C68.477495,115.838952 68.523126,115.881738 68.5715195,115.924739 C81.6048921,106.248389 94.1195586,98.3019107 106.132771,92.0910914 L106.709703,91.794804 Z M301.5,335 C307.29899,335 312,339.70101 312,345.5 C312,351.29899 307.29899,356 301.5,356 C295.70101,356 291,351.29899 291,345.5 C291,339.70101 295.70101,335 301.5,335 Z M195.5,303 C201.29899,303 206,307.70101 206,313.5 C206,319.29899 201.29899,324 195.5,324 C189.70101,324 185,319.29899 185,313.5 C185,307.70101 189.70101,303 195.5,303 Z M168.467013,241.332143 C167.977681,241.739413 167.617265,242.100792 167.373406,242.403315 L167.310703,242.482638 L167.355144,242.586434 C168.041255,244.141011 169.927237,246.299617 173.049305,248.859987 C175.424128,247.109512 177.871793,245.320747 180.392619,243.494651 C178.073075,241.674963 175.998256,240.510965 174.218003,239.970436 C172.025131,239.304625 170.511948,239.630143 168.467013,241.332143 Z" id="Shape" fill="currentColor" fill-rule="nonzero"></path>
    </g>
</svg>