<?xml version="1.0" encoding="UTF-8"?>
<svg width="954px" height="1025px" viewBox="0 0 954 1025" version="1.1" xmlns="http://www.w3.org/2000/svg" xmlns:xlink="http://www.w3.org/1999/xlink">
  <g id="AirBnB" transform="translate(0.0816, 0.6614)" fill="currentColor" fill-rule="nonzero">
    <path d="M939.470129,726 C933.470129,714 929.470129,702 923.470129,690 C915.470129,672 907.470129,654 899.470129,638 L899.470129,636 C827.470129,482 751.470129,326 673.470129,172 L669.470129,166 L645.470129,118 C635.470129,100 623.470129,80 607.470129,62 C573.470129,22 527.470129,0 477.470129,0 C425.470129,0 379.470129,22 345.470129,62 C329.470129,80 319.470129,100 309.470129,118 C299.470129,134 291.470129,150 283.470129,166 L279.470129,172 C201.470129,326 125.470129,482 53.4701295,636 L53.4701295,638 C45.4701295,654 37.4701295,672 29.4701295,690 C25.4701295,702 19.4701295,714 15.4701295,726 C1.47012947,764 -2.52987053,800 1.47012947,838 C13.4701295,914 63.4701295,978 135.470129,1008 C161.470129,1018 191.470129,1024 219.470129,1024 C229.470129,1024 237.470129,1024 247.470129,1022 C281.470129,1018 315.470129,1006 349.470129,988 C391.470129,964 431.470129,930 477.470129,882 C521.470129,930 563.470129,964 603.470129,988 C637.470129,1006 673.470129,1018 707.470129,1022 C715.470129,1024 725.470129,1024 733.470129,1024 C763.470129,1024 791.470129,1018 817.470129,1008 C889.470129,978 939.470129,914 951.470129,838 C955.470129,800 951.470129,764 939.470129,726 Z M477.470129,780 C421.470129,710 385.470129,644 373.470129,590 C367.470129,566 367.470129,546 369.470129,526 C371.470129,510 377.470129,496 385.470129,484 C405.470129,456 439.470129,440 477.470129,440 C513.470129,440 547.470129,456 567.470129,484 C575.470129,496 581.470129,510 583.470129,526 C587.470129,546 585.470129,566 579.470129,590 C567.470129,644 531.470129,710 477.470129,780 Z M885.470129,828 C879.470129,882 843.470129,926 793.470129,948 C769.470129,958 741.470129,960 713.470129,958 C687.470129,954 663.470129,946 635.470129,930 C599.470129,910 561.470129,878 519.470129,832 C587.470129,748 629.470129,672 643.470129,604 C651.470129,572 653.470129,544 647.470129,516 C643.470129,490 635.470129,468 621.470129,446 C589.470129,400 535.470129,374 477.470129,374 C417.470129,374 363.470129,400 331.470129,446 C317.470129,468 309.470129,490 305.470129,516 C301.470129,544 301.470129,572 309.470129,604 C325.470129,672 367.470129,748 433.470129,832 C391.470129,878 353.470129,910 317.470129,930 C291.470129,946 265.470129,954 239.470129,958 C211.470129,960 185.470129,958 159.470129,948 C111.470129,926 75.4701295,882 67.4701295,828 C63.4701295,802 65.4701295,776 75.4701295,748 C79.4701295,738 83.4701295,728 89.4701295,716 C97.4701295,700 105.470129,682 113.470129,666 L113.470129,664 C183.470129,510 259.470129,356 337.470129,202 L341.470129,196 C349.470129,180 357.470129,164 365.470129,150 C375.470129,132 383.470129,118 395.470129,104 C417.470129,78 445.470129,66 477.470129,66 C509.470129,66 537.470129,78 557.470129,104 C569.470129,118 577.470129,132 587.470129,148 L611.470129,196 L615.470129,202 C693.470129,356 769.470129,510 839.470129,664 L839.470129,664 C847.470129,682 855.470129,698 863.470129,716 C869.470129,728 873.470129,738 877.470129,748 C887.470129,776 889.470129,802 885.470129,828 Z"></path>
  </g>
</svg>