<?xml version="1.0" standalone="no"?>
<!DOCTYPE svg PUBLIC "-//W3C//DTD SVG 1.1//EN" "http://www.w3.org/Graphics/SVG/1.1/DTD/svg11.dtd" >
<svg xmlns="http://www.w3.org/2000/svg" xmlns:xlink="http://www.w3.org/1999/xlink" version="1.1" viewBox="-10 0 1034 1024">
   <path fill="currentColor"
d="M976 585c-6 -12 -10 -24 -16 -36c-8 -18 -16 -36 -24 -52v-2c-72 -154 -148 -310 -226 -464l-4 -6l-24 -48c-10 -18 -22 -38 -38 -56c-34 -40 -80 -62 -130 -62c-52 0 -98 22 -132 62c-16 18 -26 38 -36 56c-10 16 -18 32 -26 48l-4 6c-78 154 -154 310 -226 464v2
c-8 16 -16 34 -24 52c-4 12 -10 24 -14 36c-14 38 -18 74 -14 112c12 76 62 140 134 170c26 10 56 16 84 16c10 0 18 0 28 -2c34 -4 68 -16 102 -34c42 -24 82 -58 128 -106c44 48 86 82 126 106c34 18 70 30 104 34c8 2 18 2 26 2c30 0 58 -6 84 -16
c72 -30 122 -94 134 -170c4 -38 0 -74 -12 -112zM514 639c-56 -70 -92 -136 -104 -190c-6 -24 -6 -44 -4 -64c2 -16 8 -30 16 -42c20 -28 54 -44 92 -44c36 0 70 16 90 44c8 12 14 26 16 42c4 20 2 40 -4 64c-12 54 -48 120 -102 190zM922 687c-6 54 -42 98 -92 120
c-24 10 -52 12 -80 10c-26 -4 -50 -12 -78 -28c-36 -20 -74 -52 -116 -98c68 -84 110 -160 124 -228c8 -32 10 -60 4 -88c-4 -26 -12 -48 -26 -70c-32 -46 -86 -72 -144 -72c-60 0 -114 26 -146 72c-14 22 -22 44 -26 70c-4 28 -4 56 4 88c16 68 58 144 124 228
c-42 46 -80 78 -116 98c-26 16 -52 24 -78 28c-28 2 -54 0 -80 -10c-48 -22 -84 -66 -92 -120c-4 -26 -2 -52 8 -80c4 -10 8 -20 14 -32c8 -16 16 -34 24 -50v-2c70 -154 146 -308 224 -462l4 -6c8 -16 16 -32 24 -46c10 -18 18 -32 30 -46c22 -26 50 -38 82 -38
s60 12 80 38c12 14 20 28 30 44l24 48l4 6c78 154 154 308 224 462v0c8 18 16 34 24 52c6 12 10 22 14 32c10 28 12 54 8 80z" />
</svg>
