<?xml version="1.0" encoding="UTF-8"?>
<svg width="1024px" height="516px" viewBox="0 0 1024 516" version="1.1" xmlns="http://www.w3.org/2000/svg" xmlns:xlink="http://www.w3.org/1999/xlink">
  <g id="Alibaba" transform="translate(0.5927, 0.6075)" fill="currentColor" fill-rule="nonzero">
    <path d="M665.371691,6.68558524 C682.779891,9.75785524 699.163691,15.9023852 714.523991,23.0703852 C769.819891,50.7178852 791.323791,103.965885 768.795491,162.334385 C756.507391,196.126385 736.027891,225.822685 714.523991,253.470085 C682.779891,293.406585 650.011291,333.342185 617.243691,373.279085 C609.051311,382.494905 601.883291,392.735185 595.739791,403.998785 C582.427291,426.527085 589.595261,437.790785 615.195891,437.790785 C651.035691,436.766375 685.851191,431.646255 721.691891,425.502685 C814.875491,408.094485 903.962891,376.350385 992.027891,340.510485 C996.123591,338.462635 999.195861,337.439195 1003.29159,336.414785 L1003.29159,336.414785 C1008.41171,333.342515 1013.53179,330.270255 1022.74769,329.246815 C1018.65199,335.390365 1013.53187,337.439195 1009.43619,339.487015 C888.604191,407.071015 763.675191,466.463015 627.484191,497.182015 C602.907991,502.302135 578.331891,504.349985 552.732191,501.278695 C513.820091,496.158575 495.387491,469.534595 506.652091,431.645895 C515.867911,398.878295 537.371791,373.278695 558.875691,348.702495 C599.835691,300.574595 642.843491,255.517895 679.707691,205.342495 C689.947891,191.006595 699.163791,176.670595 708.379591,162.334695 C715.547561,150.046595 720.667691,136.735095 720.667691,122.399195 L720.667691,122.399195 L720.667691,122.399195 C719.644251,119.326925 719.644251,117.279075 718.619841,114.206815 C713.499721,98.8464152 702.236041,89.6306152 688.923541,81.4392152 C657.179441,64.0310152 621.339541,54.8152152 586.524541,44.5749152 C579.356571,42.5270652 574.236441,47.6462052 569.116341,50.7184652 C563.996241,53.7907252 569.116341,55.8385852 571.164191,57.8864352 C579.356571,65.0544052 587.547991,71.1989352 596.763791,79.3903352 C566.044091,85.5348652 537.372191,90.6549352 508.700291,96.7985352 C426.780391,114.206735 347.931291,137.758535 269.084291,165.406935 C261.916321,168.478225 257.820591,170.527055 262.940741,178.718435 C276.252241,198.174535 271.132151,213.534835 252.700541,227.870735 C241.436841,236.062145 232.220041,247.326835 220.956441,258.590435 C291.612641,277.023035 355.100441,265.758405 413.468441,227.870735 C419.612971,223.775035 417.565121,221.726205 413.468441,217.630535 C410.397151,214.558265 407.324891,212.510415 404.252621,209.439125 C423.708721,205.342445 446.237021,228.894225 446.237021,253.470325 C446.237021,258.590445 443.164751,259.614855 439.069051,259.614855 C434.972371,259.614855 432.924521,259.614855 431.901081,254.494735 C427.804401,237.086535 427.804401,237.086535 413.468481,246.302355 C348.956781,286.238855 281.372481,296.478155 208.668481,275.998655 C199.452661,273.950805 194.332581,271.902955 195.356981,285.214475 C196.380421,301.598275 200.476121,319.006475 194.332571,332.318975 C188.189021,345.630475 168.732971,346.654875 155.420471,354.846275 C138.012271,366.110875 121.628471,377.374575 108.316971,394.782775 C99.1001713,407.070875 95.0044713,419.358975 98.0767713,434.718275 L98.0767713,434.718275 C101.149041,437.790545 103.196891,441.886245 103.196891,445.982875 C128.796491,465.438975 158.492791,469.534675 188.189091,470.558075 C259.868791,473.630345 329.501091,459.294375 398.109091,442.910575 C400.156941,441.886165 402.204791,441.886165 405.277061,441.886165 C406.300501,441.886165 406.300501,442.910575 409.372761,442.910575 C370.460661,462.366675 332.572961,479.774875 292.636761,491.038475 C240.413161,506.398875 187.164761,515.614675 132.892761,514.590275 C109.340961,514.590275 86.8136613,509.470155 64.2853613,501.278775 C14.1095613,480.798275 -8.4187387,438.814875 2.8449613,385.566775 C8.9894913,348.702475 26.3976613,319.006275 45.8527613,290.334375 C126.749261,170.526375 239.388761,92.7023752 373.533761,43.5503752 C426.781761,24.0942752 481.053761,9.75837524 536.348761,2.59037524 C536.348761,1.56693524 600.861461,-4.57759476 665.372761,6.68607524 L665.371691,6.68558524 Z"></path>
  </g>
</svg>