<?xml version="1.0" standalone="no"?>
<!DOCTYPE svg PUBLIC "-//W3C//DTD SVG 1.1//EN" "http://www.w3.org/Graphics/SVG/1.1/DTD/svg11.dtd" >
<svg xmlns="http://www.w3.org/2000/svg" xmlns:xlink="http://www.w3.org/1999/xlink" version="1.1" viewBox="-10 0 1044 1024">
   <path fill="currentColor"
d="M666.624 121.144c17.4082 3.07227 33.792 9.2168 49.1523 16.3848c55.2959 27.6475 76.7998 80.8955 54.2715 139.264c-12.2881 33.792 -32.7676 63.4883 -54.2715 91.1357c-31.7441 39.9365 -64.5127 79.8721 -97.2803 119.809
c-8.19238 9.21582 -15.3604 19.4561 -21.5039 30.7197c-13.3125 22.5283 -6.14453 33.792 19.4561 33.792c35.8398 -1.02441 70.6553 -6.14453 106.496 -12.2881c93.1836 -17.4082 182.271 -49.1523 270.336 -84.9922c4.0957 -2.04785 7.16797 -3.07129 11.2637 -4.0957v0
c5.12012 -3.07227 10.2402 -6.14453 19.4561 -7.16797c-4.0957 6.14355 -9.21582 8.19238 -13.3115 10.2402c-120.832 67.584 -245.761 126.976 -381.952 157.695c-24.5762 5.12012 -49.1523 7.16797 -74.752 4.09668
c-38.9121 -5.12012 -57.3447 -31.7441 -46.0801 -69.6328c9.21582 -32.7676 30.7197 -58.3672 52.2236 -82.9434c40.96 -48.1279 83.9678 -93.1846 120.832 -143.36c10.2402 -14.3359 19.4561 -28.6719 28.6719 -43.0078
c7.16797 -12.2881 12.2881 -25.5996 12.2881 -39.9355v0v0c-1.02344 -3.07227 -1.02344 -5.12012 -2.04785 -8.19238c-5.12012 -15.3604 -16.3838 -24.5762 -29.6963 -32.7676c-31.7441 -17.4082 -67.584 -26.624 -102.399 -36.8643
c-7.16797 -2.04785 -12.2881 3.07129 -17.4082 6.14355s0 5.12012 2.04785 7.16797c8.19238 7.16797 16.3838 13.3125 25.5996 21.5039c-30.7197 6.14453 -59.3916 11.2646 -88.0635 17.4082c-81.9199 17.4082 -160.769 40.96 -239.616 68.6084
c-7.16797 3.07129 -11.2637 5.12012 -6.14355 13.3115c13.3115 19.4561 8.19141 34.8164 -10.2402 49.1523c-11.2637 8.19141 -20.4805 19.4561 -31.7441 30.7197c70.6562 18.4326 134.144 7.16797 192.512 -30.7197c6.14453 -4.0957 4.09668 -6.14453 0 -10.2402
c-3.07129 -3.07227 -6.14355 -5.12012 -9.21582 -8.19141c19.4561 -4.09668 41.9844 19.4551 41.9844 44.0312c0 5.12012 -3.07227 6.14453 -7.16797 6.14453c-4.09668 0 -6.14453 0 -7.16797 -5.12012c-4.09668 -17.4082 -4.09668 -17.4082 -18.4326 -8.19238
c-64.5117 39.9365 -132.096 50.1758 -204.8 29.6963c-9.21582 -2.04785 -14.3359 -4.0957 -13.3115 9.21582c1.02344 16.3838 5.11914 33.792 -1.02441 47.1045c-6.14355 13.3115 -25.5996 14.3359 -38.9121 22.5273c-17.4082 11.2646 -33.792 22.5283 -47.1035 39.9365
c-9.2168 12.2881 -13.3125 24.5762 -10.2402 39.9355v0c3.07227 3.07227 5.12012 7.16797 5.12012 11.2646c25.5996 19.4561 55.2959 23.5518 84.9922 24.5752c71.6797 3.07227 141.312 -11.2637 209.92 -27.6475c2.04785 -1.02441 4.0957 -1.02441 7.16797 -1.02441
c1.02344 0 1.02344 1.02441 4.0957 1.02441c-38.9121 19.4561 -76.7998 36.8643 -116.736 48.1279c-52.2236 15.3604 -105.472 24.5762 -159.744 23.5518c-23.5518 0 -46.0791 -5.12012 -68.6074 -13.3115c-50.1758 -20.4805 -72.7041 -62.4639 -61.4404 -115.712
c6.14453 -36.8643 23.5527 -66.5605 43.0078 -95.2324c80.8965 -119.808 193.536 -197.632 327.681 -246.784c53.248 -19.4561 107.52 -33.792 162.815 -40.96c0 -1.02344 64.5127 -7.16797 129.024 4.0957z" />
</svg>
