<?xml version="1.0" standalone="no"?>
<!DOCTYPE svg PUBLIC "-//W3C//DTD SVG 1.1//EN" "http://www.w3.org/Graphics/SVG/1.1/DTD/svg11.dtd" >
<svg xmlns="http://www.w3.org/2000/svg" xmlns:xlink="http://www.w3.org/1999/xlink" version="1.1" viewBox="-11 0 1046 1024">
   <path fill="currentColor"
d="M523.264 547.128c20.4805 0 51.2002 -3.07227 80.8965 -8.19238c237.567 -38.9111 421.888 -259.071 419.84 -500.735c0 -28.6719 -19.4561 -49.1523 -45.0557 -50.1758c-25.6006 0 -45.0566 20.4795 -46.0801 49.1514c0 20.4805 -2.04785 41.9844 -5.12012 61.4404
c-32.7686 189.439 -176.128 328.704 -366.592 351.231c-155.648 18.4326 -282.624 -37.8877 -380.929 -159.744c-59.3916 -73.7275 -87.04 -159.743 -89.0879 -253.951c-1.02344 -29.6963 -20.4795 -49.1523 -46.0801 -49.1523
c-26.624 1.02441 -46.0801 21.5039 -45.0557 52.2236c1.02441 27.6484 3.07227 55.2959 7.16797 81.9199c44.0322 248.832 256 427.009 516.096 425.984z" />
</svg>
