<?xml version="1.0" encoding="UTF-8"?>
<svg width="1025px" height="561px" viewBox="0 0 1025 561" version="1.1" xmlns="http://www.w3.org/2000/svg" xmlns:xlink="http://www.w3.org/1999/xlink">
  <g id="AliExpress" transform="translate(0.454, 0.0684)" fill="currentColor" fill-rule="nonzero">
    <path d="M523.30276,560.1319 C543.78326,560.1319 574.50296,557.05541 604.19926,551.9353 C841.76626,513.0242 1026.08726,292.8643 1024.03926,51.2003 C1024.03926,22.5284 1004.58316,2.048 978.98356,1.0245 C953.38296,1.0245 933.92696,21.504 932.90346,50.1759 C932.90346,70.6564 930.85561,92.1603 927.78334,111.6163 C895.01474,301.0553 751.65534,440.3203 561.19134,462.8473 C405.54334,481.2799 278.56734,424.9596 180.26234,303.1033 C120.87074,229.3758 93.2223399,143.3603 91.1744399,49.1523 C90.1509999,19.456 70.6949399,0 45.0943399,0 C18.4703399,1.02441 -0.985760113,21.5039 0.0386398866,52.2236 C1.06304989,79.872 3.11090989,107.5195 7.20660989,134.1435 C51.2388099,382.9755 263.20661,561.1525 523.30261,560.1319 L523.30276,560.1319 Z"></path>
  </g>
</svg>