<?xml version="1.0" encoding="UTF-8"?>
<svg width="793px" height="1029px" viewBox="0 0 793 1029" version="1.1" xmlns="http://www.w3.org/2000/svg" xmlns:xlink="http://www.w3.org/1999/xlink">
  <g id="Alliance" transform="translate(0.752, 0.4253)" fill="currentColor" fill-rule="nonzero">
    <path d="M24.0810367,210 C24.0810367,210 24.0810367,208 26.0810367,208 C38.0810367,198 50.0810367,192 68.0810367,194 C80.0810367,196 90.0810367,200 104.081037,204 C118.081037,210 130.081037,216 146.081037,220 C154.081037,224 164.081037,226 172.081037,226 C200.081037,226 218.081037,206 216.081037,180 C216.081037,180 216.081037,178 218.081037,178 C222.081037,184 230.081037,188 238.081037,190 C250.081037,192 260.081037,190 270.081037,186 C286.081037,180 294.081037,168 290.081037,150 C290.081037,144 288.081037,138 286.081037,132 C286.081037,126 286.081037,124 290.081037,124 C300.081037,124 310.081037,124 320.081037,126 C340.081037,130 358.081037,140 376.081037,150 C380.081037,152 384.081037,154 390.081037,158 C390.081037,152 388.081037,148 388.081037,142 C386.081037,128 386.081037,116 392.081037,104 C392.081037,98 394.081037,94 398.081037,94 C400.081037,94 400.081037,98 402.081037,102 C406.081037,114 404.081037,128 404.081037,142 C404.081037,146 402.081037,150 402.081037,154 C406.081037,154 408.081037,152 408.081037,150 C420.081037,144 432.081037,136 446.081037,132 C464.081037,124 484.081037,120 502.081037,122 C508.081037,124 508.081037,124 506.081037,130 C504.081037,136 504.081037,142 502.081037,146 C500.081037,166 508.081037,180 526.081037,184 C544.081037,190 562.081037,188 578.081037,176 L578.081037,180 C576.081037,200 592.081037,220 612.081037,222 C622.081037,224 632.081037,222 640.081037,220 C656.081037,216 670.081037,210 684.081037,204 C698.081037,200 710.081037,196 722.081037,194 C740.081037,192 756.081037,192 768.081037,206 C768.081037,208 770.081037,210 774.081037,208 C768.081037,196 758.081037,190 744.081037,186 C730.081037,184 714.081037,186 700.081037,188 C682.081037,190 666.081037,194 648.081037,194 C636.081037,194 624.081037,194 612.081037,186 C608.081037,184 604.081037,182 604.081037,178 C606.081037,174 612.081037,172 616.081037,172 C624.081037,170 632.081037,172 640.081037,174 C646.081037,174 654.081037,176 662.081037,174 C632.081037,154 600.081037,150 568.081037,148 C584.081037,142 600.081037,136 618.081037,126 L608.081037,126 C590.081037,128 570.081037,128 550.081037,124 C544.081037,122 544.081037,122 548.081037,116 C554.081037,106 564.081037,102 576.081037,98 C584.081037,94 592.081037,94 600.081037,92 C594.081037,88 586.081037,86 578.081037,86 C556.081037,84 534.081037,86 512.081037,92 C494.081037,94 478.081037,98 460.081037,100 C456.081037,100 454.081037,98 454.081037,94 C454.081037,80 458.081037,70 468.081037,64 C476.081037,58 486.081037,54 496.081037,52 C498.081037,50 502.081037,50 506.081037,48 L500.081037,48 C478.081037,48 458.081037,54 440.081037,66 C436.081037,68 434.081037,68 430.081037,66 C416.081037,56 408.081037,42 404.081037,26 C402.081037,18 402.081037,12 402.081037,2 C398.081037,6 400.081037,10 396.081037,14 C394.081037,10 394.081037,6 390.081037,0 L390.081037,22 C386.081037,40 378.081037,56 362.081037,66 C358.081037,68 356.081037,68 352.081037,66 C340.081037,58 326.081037,52 312.081037,50 C304.081037,48 296.081037,48 288.081037,50 C290.081037,50 292.081037,52 294.081037,52 C306.081037,54 316.081037,58 326.081037,64 C334.081037,74 340.081037,84 338.081037,98 C338.081037,102 336.081037,104 332.081037,102 C318.081037,100 302.081037,98 288.081037,94 C262.081037,90 238.081037,86 214.081037,88 C206.081037,90 200.081037,90 192.081037,94 C192.081037,96 194.081037,94 196.081037,94 C206.081037,96 216.081037,98 228.081037,102 C234.081037,106 242.081037,110 246.081037,118 C248.081037,122 248.081037,124 242.081037,124 C222.081037,128 202.081037,128 182.081037,126 C180.081037,126 178.081037,126 176.081037,128 C194.081037,136 210.081037,142 228.081037,150 C194.081037,150 160.081037,154 132.081037,176 C134.081037,178 136.081037,176 138.081037,176 C150.081037,176 160.081037,172 172.081037,172 C176.081037,172 180.081037,174 186.081037,176 C190.081037,178 190.081037,180 186.081037,184 C178.081037,190 168.081037,194 158.081037,194 C144.081037,196 130.081037,194 114.081037,192 C96.0810367,188 80.0810367,186 62.0810367,186 C52.0810367,186 46.0810367,186 38.0810367,190 C30.0810367,192 26.0810367,198 22.0810367,206 C22.0810367,208 20.0810367,208 22.0810367,210 C22.0810367,212 22.0810367,210 24.0810367,210 Z M280.081037,466 C272.081037,474 264.081037,478 258.081037,484 C252.081037,492 246.081037,500 246.081037,510 C244.081037,558 264.081037,594 300.081037,622 C304.081037,626 308.081037,628 314.081037,630 C336.081037,640 362.081037,634 378.081037,614 C396.081037,596 398.081037,570 386.081037,548 C380.081037,540 374.081037,532 368.081037,526 C360.081037,516 352.081037,508 346.081037,498 C334.081037,480 332.081037,462 338.081037,442 C342.081037,432 346.081037,422 352.081037,414 C360.081037,398 366.081037,380 366.081037,364 C366.081037,358 366.081037,358 360.081037,358 C350.081037,360 344.081037,364 336.081037,368 C328.081037,370 322.081037,374 316.081037,376 C298.081037,378 288.081037,372 282.081037,358 C280.081037,352 278.081037,348 278.081037,342 C276.081037,328 274.081037,316 272.081037,304 C270.081037,300 272.081037,300 274.081037,298 C286.081037,296 296.081037,298 306.081037,306 C312.081037,310 316.081037,314 322.081037,318 C338.081037,330 358.081037,334 378.081037,336 C376.081037,336 376.081037,336 376.081037,334 C352.081037,320 334.081037,304 316.081037,282 C312.081037,276 306.081037,272 300.081037,266 C284.081037,254 268.081037,254 254.081037,270 C252.081037,272 250.081037,276 248.081037,278 C236.081037,294 230.081037,316 228.081037,336 C228.081037,358 236.081037,372 254.081037,380 C260.081037,382 264.081037,384 272.081037,388 C278.081037,390 282.081037,392 288.081037,396 C310.081037,408 314.081037,430 300.081037,450 C292.081037,456 286.081037,462 280.081037,466 Z M504.081037,394 C512.081037,390 520.081037,384 528.081037,382 C534.081037,378 542.081037,376 548.081037,372 C558.081037,366 562.081037,360 564.081037,350 C570.081037,314 556.081037,286 532.081037,262 C532.081037,260 530.081037,260 530.081037,260 C522.081037,254 514.081037,254 508.081037,256 C500.081037,262 492.081037,266 486.081037,272 C476.081037,280 468.081037,288 460.081037,296 C450.081037,310 436.081037,320 422.081037,328 C420.081037,330 416.081037,330 414.081037,334 C434.081037,332 454.081037,328 470.081037,316 C476.081037,312 482.081037,306 488.081037,302 C498.081037,296 508.081037,294 518.081037,294 C522.081037,296 524.081037,296 522.081037,300 C520.081037,306 518.081037,312 518.081037,318 C516.081037,328 514.081037,338 512.081037,350 C506.081037,370 492.081037,376 472.081037,372 C466.081037,370 460.081037,366 454.081037,364 C446.081037,360 440.081037,358 430.081037,356 C426.081037,354 424.081037,356 424.081037,360 C426.081037,378 430.081037,394 438.081037,410 C442.081037,414 444.081037,420 448.081037,426 C454.081037,442 458.081037,456 454.081037,474 C452.081037,490 444.081037,500 434.081037,512 C426.081037,522 416.081037,530 410.081037,540 C386.081037,574 398.081037,612 434.081037,628 C456.081037,636 474.081037,632 492.081037,620 C522.081037,596 540.081037,566 544.081037,526 C546.081037,504 540.081037,486 522.081037,474 C516.081037,468 510.081037,462 504.081037,458 C498.081037,452 494.081037,448 490.081037,440 C480.081037,424 486.081037,406 504.081037,394 Z M74.0810367,652 L86.0810367,634 C90.0810367,624 94.0810367,614 100.081037,606 C104.081037,594 110.081037,582 116.081037,572 C126.081037,554 140.081037,548 160.081037,554 C164.081037,554 170.081037,558 174.081037,560 C174.081037,560 176.081037,562 178.081037,560 C174.081037,548 168.081037,540 156.081037,536 C148.081037,532 138.081037,532 130.081037,532 C110.081037,532 92.0810367,538 74.0810367,548 C72.0810367,550 70.0810367,552 70.0810367,548 C66.0810367,516 64.0810367,484 70.0810367,452 C74.0810367,422 90.0810367,398 116.081037,382 C122.081037,380 128.081037,376 136.081037,372 C144.081037,366 152.081037,362 158.081037,356 C162.081037,352 168.081037,348 170.081037,342 L168.081037,340 L164.081037,340 C138.081037,338 114.081037,340 88.0810367,348 C84.0810367,350 84.0810367,348 82.0810367,346 C82.0810367,338 78.0810367,332 72.0810367,330 C68.0810367,328 66.0810367,326 62.0810367,326 C58.0810367,326 58.0810367,324 58.0810367,320 C58.0810367,318 58.0810367,318 60.0810367,316 C64.0810367,294 76.0810367,278 94.0810367,266 C106.081037,258 120.081037,252 134.081037,248 C136.081037,246 138.081037,246 136.081037,244 C122.081037,230 108.081037,220 90.0810367,214 C78.0810367,212 66.0810367,212 56.0810367,218 C52.0810367,218 50.0810367,220 50.0810367,224 C50.0810367,234 54.0810367,242 62.0810367,248 C68.0810367,254 68.0810367,254 62.0810367,260 C50.0810367,268 42.0810367,280 36.0810367,292 C16.0810367,324 4.08103671,358 4.08103671,394 C4.08103671,398 6.08103671,400 8.08103671,402 C14.0810367,406 20.0810367,408 26.0810367,410 C28.0810367,410 30.0810367,410 28.0810367,412 C26.0810367,424 32.0810367,432 38.0810367,440 C40.0810367,442 42.0810367,444 40.0810367,446 C32.0810367,498 36.0810367,550 44.0810367,602 C46.0810367,612 46.0810367,612 38.0810367,616 C22.0810367,624 14.0810367,638 18.0810367,656 C20.0810367,658 20.0810367,660 22.0810367,662 C42.0810367,670 60.0810367,670 74.0810367,652 Z M752.081037,614 C748.081037,612 746.081037,612 748.081037,608 C758.081037,554 762.081037,500 752.081037,448 C752.081037,444 752.081037,444 754.081037,442 C762.081037,434 766.081037,424 764.081037,414 C764.081037,412 764.081037,410 768.081037,410 C772.081037,410 778.081037,408 784.081037,404 C788.081037,402 790.081037,398 790.081037,394 C788.081037,352 774.081037,316 750.081037,284 C744.081037,276 736.081037,270 730.081037,262 C724.081037,254 724.081037,254 732.081037,248 C736.081037,244 740.081037,240 742.081037,236 C744.081037,222 742.081037,220 728.081037,218 C706.081037,212 672.081037,228 656.081037,250 C658.081037,250 660.081037,252 662.081037,252 C678.081037,258 692.081037,264 706.081037,274 C722.081037,288 732.081037,304 734.081037,324 C734.081037,328 734.081037,330 730.081037,330 C718.081037,330 710.081037,336 708.081037,350 C706.081037,354 706.081037,354 702.081037,352 C676.081037,344 650.081037,342 626.081037,344 C624.081037,344 622.081037,344 620.081037,346 C622.081037,348 624.081037,352 626.081037,354 C634.081037,362 642.081037,366 650.081037,372 C662.081037,378 670.081037,382 680.081037,390 C700.081037,402 712.081037,418 718.081037,440 C728.081037,478 726.081037,514 722.081037,550 C722.081037,552 720.081037,554 718.081037,552 C700.081037,538 676.081037,534 650.081037,536 C640.081037,536 632.081037,540 624.081037,546 C618.081037,550 616.081037,556 614.081037,564 C620.081037,562 624.081037,560 628.081037,560 C646.081037,552 660.081037,556 672.081037,570 C676.081037,574 678.081037,578 680.081037,582 C686.081037,592 690.081037,604 696.081037,614 C702.081037,626 706.081037,638 712.081037,650 C726.081037,670 748.081037,676 770.081037,666 C772.081037,664 774.081037,664 774.081037,660 C778.081037,648 776.081037,638 768.081037,628 C762.081037,620 758.081037,616 752.081037,614 Z M530.081037,790 C520.081037,792 516.081037,796 512.081037,804 C508.081037,814 508.081037,822 506.081037,830 C502.081037,850 494.081037,868 480.081037,884 C464.081037,904 446.081037,922 424.081037,938 C422.081037,942 418.081037,944 414.081037,946 C404.081037,952 392.081037,952 380.081037,948 C374.081037,944 366.081037,940 360.081037,934 C338.081037,918 320.081037,896 302.081037,874 C294.081037,862 288.081037,848 286.081037,832 C286.081037,824 284.081037,814 280.081037,804 C278.081037,798 272.081037,792 262.081037,792 C254.081037,790 248.081037,794 242.081037,802 C238.081037,808 236.081037,818 234.081037,826 C232.081037,840 234.081037,854 240.081037,868 C244.081037,874 250.081037,880 258.081037,880 C258.081037,878 258.081037,878 256.081037,876 C250.081037,866 246.081037,852 248.081037,838 C248.081037,834 250.081037,830 252.081037,826 C256.081037,824 258.081037,824 260.081037,828 C262.081037,830 262.081037,834 262.081037,838 C264.081037,858 274.081037,874 284.081037,888 C292.081037,902 302.081037,914 312.081037,926 C314.081037,930 316.081037,932 314.081037,936 C312.081037,952 314.081037,966 320.081037,980 C322.081037,984 326.081037,988 330.081037,992 C330.081037,988 328.081037,986 328.081037,982 C326.081037,974 324.081037,966 326.081037,958 C326.081037,954 330.081037,950 336.081037,950 C348.081037,950 360.081037,956 368.081037,964 C376.081037,970 374.081037,970 370.081037,976 C364.081037,982 358.081037,992 354.081037,1000 C350.081037,1008 348.081037,1016 352.081037,1028 C354.081037,1022 356.081037,1018 360.081037,1014 L368.081037,1006 C374.081037,1002 380.081037,998 384.081037,994 C394.081037,988 394.081037,988 406.081037,994 C418.081037,1002 430.081037,1010 436.081037,1024 L438.081037,1024 C440.081037,1012 436.081037,1002 430.081037,992 C426.081037,986 422.081037,978 418.081037,972 C416.081037,970 414.081037,968 416.081037,966 C424.081037,960 432.081037,952 446.081037,950 C462.081037,948 464.081037,950 464.081037,966 C464.081037,972 462.081037,978 462.081037,986 C462.081037,988 460.081037,988 460.081037,992 C464.081037,988 466.081037,984 470.081037,980 C478.081037,966 478.081037,950 476.081037,934 C474.081037,930 476.081037,928 478.081037,924 C490.081037,910 502.081037,896 510.081037,880 C518.081037,866 524.081037,852 526.081037,838 C526.081037,834 528.081037,832 530.081037,828 C530.081037,826 532.081037,824 534.081037,824 C536.081037,824 538.081037,826 538.081037,828 C546.081037,840 544.081037,860 536.081037,870 C534.081037,872 534.081037,874 532.081037,876 C530.081037,878 530.081037,878 530.081037,880 L534.081037,880 C540.081037,878 544.081037,874 548.081037,870 C558.081037,848 560.081037,826 548.081037,804 C546.081037,794 540.081037,790 530.081037,790 Z M730.081037,706 C724.081037,702 716.081037,698 708.081037,692 C702.081037,690 698.081037,686 694.081037,678 C692.081037,676 690.081037,674 692.081037,670 C696.081037,668 698.081037,666 702.081037,668 C706.081037,668 710.081037,670 714.081037,670 C716.081037,672 718.081037,672 722.081037,670 C716.081037,668 712.081037,664 708.081037,660 C704.081037,658 700.081037,656 694.081037,658 C690.081037,658 690.081037,656 690.081037,654 C692.081037,646 692.081037,636 692.081037,628 C690.081037,610 682.081037,594 668.081037,584 C650.081037,572 630.081037,574 616.081037,586 C628.081037,590 628.081037,590 640.081037,602 C644.081037,606 648.081037,610 656.081037,608 C660.081037,608 662.081037,610 662.081037,614 C660.081037,630 658.081037,648 654.081037,666 C644.081037,712 620.081037,754 592.081037,794 C590.081037,796 588.081037,796 588.081037,794 C580.081037,786 574.081037,778 566.081037,772 C558.081037,762 550.081037,756 540.081037,750 C530.081037,746 520.081037,746 510.081037,750 C504.081037,754 498.081037,756 490.081037,756 C488.081037,756 488.081037,756 488.081037,758 C490.081037,774 502.081037,782 516.081037,778 C522.081037,778 528.081037,774 532.081037,774 C550.081037,766 560.081037,772 566.081037,792 C566.081037,792 568.081037,794 568.081037,796 C570.081037,808 570.081037,820 570.081037,832 C572.081037,844 572.081037,860 578.081037,872 C578.081037,876 580.081037,878 584.081037,882 L584.081037,876 C582.081037,852 588.081037,830 598.081037,810 C608.081037,792 622.081037,778 638.081037,764 C644.081037,760 644.081037,760 648.081037,766 C654.081037,772 656.081037,778 660.081037,782 C662.081037,786 666.081037,790 672.081037,792 C664.081037,772 662.081037,750 664.081037,730 C664.081037,716 668.081037,702 676.081037,690 C678.081037,686 680.081037,686 684.081037,690 C688.081037,692 690.081037,696 690.081037,700 L690.081037,722 C690.081037,722 692.081037,734 696.081037,738 C696.081037,734 698.081037,730 698.081037,726 C698.081037,722 698.081037,718 700.081037,716 C702.081037,706 710.081037,704 718.081037,706 C728.081037,708 734.081037,714 740.081037,722 C744.081037,732 742.081037,740 734.081037,746 C732.081037,748 728.081037,750 726.081037,752 C732.081037,752 736.081037,750 740.081037,750 C756.081037,742 760.081037,724 748.081037,712 C742.081037,712 736.081037,708 730.081037,706 Z M264.081037,776 L282.081037,782 C286.081037,782 292.081037,780 296.081037,778 C300.081037,774 302.081037,766 304.081037,762 C306.081037,760 304.081037,758 302.081037,758 C296.081037,758 290.081037,756 286.081037,754 C272.081037,746 260.081037,748 248.081037,756 C238.081037,762 230.081037,770 222.081037,778 L206.081037,794 C204.081037,796 202.081037,796 200.081037,794 C186.081037,774 174.081037,754 164.081037,732 C146.081037,696 134.081037,656 132.081037,614 C132.081037,610 132.081037,608 138.081037,608 C144.081037,610 148.081037,608 152.081037,604 C160.081037,596 166.081037,588 178.081037,586 C160.081037,572 136.081037,574 120.081037,588 C110.081037,596 106.081037,610 104.081037,622 C102.081037,632 102.081037,644 104.081037,654 C104.081037,656 106.081037,658 102.081037,658 C88.0810367,654 80.0810367,664 72.0810367,670 L80.0810367,670 C84.0810367,668 88.0810367,666 92.0810367,666 C96.0810367,666 100.081037,668 102.081037,670 C104.081037,674 102.081037,676 100.081037,678 C96.0810367,682 94.0810367,686 90.0810367,690 C82.0810367,694 74.0810367,698 68.0810367,702 C60.0810367,706 54.0810367,710 48.0810367,716 C42.0810367,724 40.0810367,734 46.0810367,744 C50.0810367,752 60.0810367,756 70.0810367,756 C68.0810367,754 66.0810367,752 62.0810367,750 C54.0810367,744 52.0810367,738 58.0810367,728 C60.0810367,722 66.0810367,716 72.0810367,712 C86.0810367,704 96.0810367,708 100.081037,724 C100.081037,728 100.081037,732 102.081037,736 C102.081037,736 102.081037,738 104.081037,738 C106.081037,734 106.081037,730 108.081037,724 L108.081037,702 C110.081037,696 110.081037,692 114.081037,690 C118.081037,686 120.081037,686 124.081037,692 C126.081037,696 128.081037,700 130.081037,706 C136.081037,724 136.081037,744 134.081037,764 L128.081037,794 C134.081037,790 138.081037,786 142.081037,780 C146.081037,776 148.081037,768 152.081037,764 C154.081037,762 156.081037,762 158.081037,764 C182.081037,784 200.081037,808 210.081037,838 C214.081037,852 216.081037,868 214.081037,882 C216.081037,882 216.081037,880 216.081037,880 C222.081037,868 224.081037,856 224.081037,844 C228.081037,828 226.081037,812 230.081037,796 C232.081037,774 242.081037,768 264.081037,776 Z M460.081037,704 C466.081037,694 468.081037,684 468.081037,672 C468.081037,664 466.081037,662 458.081037,660 L450.081037,660 L430.081037,660 C416.081037,662 412.081037,658 406.081037,644 C406.081037,638 404.081037,634 400.081037,632 C396.081037,628 394.081037,628 390.081037,632 C388.081037,636 386.081037,642 384.081037,646 C380.081037,656 374.081037,660 364.081037,660 L348.081037,660 C348.081037,660 334.081037,658 328.081037,662 C324.081037,662 324.081037,664 322.081037,668 C322.081037,682 326.081037,696 334.081037,708 C340.081037,714 344.081037,722 350.081037,730 C358.081037,740 360.081037,750 360.081037,762 C360.081037,762 360.081037,764 362.081037,764 C366.081037,762 366.081037,756 368.081037,752 C370.081037,746 370.081037,740 372.081037,736 C374.081037,732 378.081037,732 382.081037,734 C384.081037,734 388.081037,736 386.081037,742 C384.081037,748 386.081037,756 388.081037,764 C392.081037,776 400.081037,788 402.081037,800 C404.081037,796 404.081037,790 404.081037,786 C402.081037,778 400.081037,768 398.081037,760 C398.081037,754 398.081037,748 400.081037,740 C404.081037,734 408.081037,732 412.081037,732 C418.081037,734 420.081037,738 422.081037,742 C422.081037,748 424.081037,752 424.081037,758 C426.081037,760 426.081037,764 430.081037,764 C426.081037,748 432.081037,738 442.081037,726 C450.081037,718 454.081037,710 460.081037,704 Z M358.081037,464 C352.081037,466 350.081037,468 352.081037,472 C352.081037,488 358.081037,502 368.081037,514 C376.081037,524 384.081037,532 392.081037,542 C394.081037,544 396.081037,544 398.081037,542 C406.081037,534 416.081037,526 424.081037,516 C434.081037,502 440.081037,488 440.081037,472 C440.081037,468 440.081037,466 434.081037,464 C422.081037,462 410.081037,460 396.081037,460 C382.081037,460 370.081037,462 358.081037,464 Z M368.081037,248 C364.081037,254 360.081037,262 358.081037,270 C354.081037,280 356.081037,288 362.081037,296 C378.081037,314 398.081037,316 418.081037,306 C420.081037,306 422.081037,304 426.081037,302 C438.081037,294 442.081037,282 436.081037,268 C434.081037,262 430.081037,258 428.081037,254 C418.081037,242 416.081037,230 418.081037,216 C418.081037,212 418.081037,208 416.081037,204 C412.081037,212 408.081037,220 406.081037,228 C404.081037,238 404.081037,248 404.081037,256 C404.081037,262 404.081037,268 402.081037,272 C400.081037,274 398.081037,276 394.081037,276 C392.081037,276 392.081037,274 390.081037,270 C386.081037,260 386.081037,248 386.081037,238 C386.081037,230 386.081037,222 384.081037,214 C382.081037,210 380.081037,206 376.081037,204 C378.081037,212 378.081037,220 376.081037,228 C374.081037,236 370.081037,242 368.081037,248 Z M408.081037,360 C406.081037,362 406.081037,366 406.081037,368 C404.081037,378 408.081037,388 410.081037,396 C414.081037,404 416.081037,412 416.081037,420 C416.081037,422 416.081037,424 412.081037,426 C404.081037,430 394.081037,432 384.081037,430 C376.081037,426 374.081037,424 376.081037,416 C378.081037,406 382.081037,398 384.081037,388 C386.081037,380 388.081037,372 384.081037,362 C380.081037,376 370.081037,390 364.081037,402 C358.081037,414 356.081037,428 356.081037,442 C356.081037,446 356.081037,448 360.081037,450 C384.081037,460 410.081037,460 432.081037,450 C436.081037,448 438.081037,446 438.081037,442 C438.081037,430 436.081037,418 432.081037,406 C424.081037,390 412.081037,376 408.081037,360 Z M24.0810367,470 C24.0810367,464 22.0810367,460 14.0810367,462 C6.08103671,464 4.08103671,468 2.08103671,474 C-1.91896329,488 0.0810367098,500 6.08103671,512 C6.08103671,502 10.0810367,494 16.0810367,486 C20.0810367,480 22.0810367,476 24.0810367,470 Z M790.081037,472 C788.081037,466 784.081037,462 776.081037,460 C772.081037,460 770.081037,460 768.081037,466 C768.081037,474 770.081037,478 774.081037,484 C778.081037,492 786.081037,500 786.081037,510 C792.081037,498 794.081037,486 790.081037,472 Z"></path>
  </g>
</svg>