<?xml version="1.0" standalone="no"?>
<!DOCTYPE svg PUBLIC "-//W3C//DTD SVG 1.1//EN" "http://www.w3.org/Graphics/SVG/1.1/DTD/svg11.dtd" >
<svg xmlns="http://www.w3.org/2000/svg" xmlns:xlink="http://www.w3.org/1999/xlink" version="1.1" viewBox="-10 0 1034 1024">
   <path fill="currentColor"
d="M140 67c0 0 0 -2 2 -2c12 -10 24 -16 42 -14c12 2 22 6 36 10c14 6 26 12 42 16c8 4 18 6 26 6c28 0 46 -20 44 -46c0 0 0 -2 2 -2c4 6 12 10 20 12c12 2 22 0 32 -4c16 -6 24 -18 20 -36c0 -6 -2 -12 -4 -18c0 -6 0 -8 4 -8c10 0 20 0 30 2c20 4 38 14 56 24
c4 2 8 4 14 8c0 -6 -2 -10 -2 -16c-2 -14 -2 -26 4 -38c0 -6 2 -10 6 -10c2 0 2 4 4 8c4 12 2 26 2 40c0 4 -2 8 -2 12c4 0 6 -2 6 -4c12 -6 24 -14 38 -18c18 -8 38 -12 56 -10c6 2 6 2 4 8s-2 12 -4 16c-2 20 6 34 24 38c18 6 36 4 52 -8v4c-2 20 14 40 34 42
c10 2 20 0 28 -2c16 -4 30 -10 44 -16c14 -4 26 -8 38 -10c18 -2 34 -2 46 12c0 2 2 4 6 2c-6 -12 -16 -18 -30 -22c-14 -2 -30 0 -44 2c-18 2 -34 6 -52 6c-12 0 -24 0 -36 -8c-4 -2 -8 -4 -8 -8c2 -4 8 -6 12 -6c8 -2 16 0 24 2c6 0 14 2 22 0c-30 -20 -62 -24 -94 -26
c16 -6 32 -12 50 -22h-10c-18 2 -38 2 -58 -2c-6 -2 -6 -2 -2 -8c6 -10 16 -14 28 -18c8 -4 16 -4 24 -6c-6 -4 -14 -6 -22 -6c-22 -2 -44 0 -66 6c-18 2 -34 6 -52 8c-4 0 -6 -2 -6 -6c0 -14 4 -24 14 -30c8 -6 18 -10 28 -12c2 -2 6 -2 10 -4h-6c-22 0 -42 6 -60 18
c-4 2 -6 2 -10 0c-14 -10 -22 -24 -26 -40c-2 -8 -2 -14 -2 -24c-4 4 -2 8 -6 12c-2 -4 -2 -8 -6 -14v22c-4 18 -12 34 -28 44c-4 2 -6 2 -10 0c-12 -8 -26 -14 -40 -16c-8 -2 -16 -2 -24 0c2 0 4 2 6 2c12 2 22 6 32 12c8 10 14 20 12 34c0 4 -2 6 -6 4
c-14 -2 -30 -4 -44 -8c-26 -4 -50 -8 -74 -6c-8 2 -14 2 -22 6c0 2 2 0 4 0c10 2 20 4 32 8c6 4 14 8 18 16c2 4 2 6 -4 6c-20 4 -40 4 -60 2c-2 0 -4 0 -6 2c18 8 34 14 52 22c-34 0 -68 4 -96 26c2 2 4 0 6 0c12 0 22 -4 34 -4c4 0 8 2 14 4c4 2 4 4 0 8
c-8 6 -18 10 -28 10c-14 2 -28 0 -44 -2c-18 -4 -34 -6 -52 -6c-10 0 -16 0 -24 4c-8 2 -12 8 -16 16c0 2 -2 2 0 4c0 2 0 0 2 0zM396 323c-8 8 -16 12 -22 18c-6 8 -12 16 -12 26c-2 48 18 84 54 112c4 4 8 6 14 8c22 10 48 4 64 -16c18 -18 20 -44 8 -66
c-6 -8 -12 -16 -18 -22c-8 -10 -16 -18 -22 -28c-12 -18 -14 -36 -8 -56c4 -10 8 -20 14 -28c8 -16 14 -34 14 -50c0 -6 0 -6 -6 -6c-10 2 -16 6 -24 10c-8 2 -14 6 -20 8c-18 2 -28 -4 -34 -18c-2 -6 -4 -10 -4 -16c-2 -14 -4 -26 -6 -38c-2 -4 0 -4 2 -6c12 -2 22 0 32 8
c6 4 10 8 16 12c16 12 36 16 56 18c-2 0 -2 0 -2 -2c-24 -14 -42 -30 -60 -52c-4 -6 -10 -10 -16 -16c-16 -12 -32 -12 -46 4c-2 2 -4 6 -6 8c-12 16 -18 38 -20 58c0 22 8 36 26 44c6 2 10 4 18 8c6 2 10 4 16 8c22 12 26 34 12 54c-8 6 -14 12 -20 16zM620 251
c8 -4 16 -10 24 -12c6 -4 14 -6 20 -10c10 -6 14 -12 16 -22c6 -36 -8 -64 -32 -88c0 -2 -2 -2 -2 -2c-8 -6 -16 -6 -22 -4c-8 6 -16 10 -22 16c-10 8 -18 16 -26 24c-10 14 -24 24 -38 32c-2 2 -6 2 -8 6c20 -2 40 -6 56 -18c6 -4 12 -10 18 -14c10 -6 20 -8 30 -8
c4 2 6 2 4 6c-2 6 -4 12 -4 18c-2 10 -4 20 -6 32c-6 20 -20 26 -40 22c-6 -2 -12 -6 -18 -8c-8 -4 -14 -6 -24 -8c-4 -2 -6 0 -6 4c2 18 6 34 14 50c4 4 6 10 10 16c6 16 10 30 6 48c-2 16 -10 26 -20 38c-8 10 -18 18 -24 28c-24 34 -12 72 24 88c22 8 40 4 58 -8
c30 -24 48 -54 52 -94c2 -22 -4 -40 -22 -52c-6 -6 -12 -12 -18 -16c-6 -6 -10 -10 -14 -18c-10 -16 -4 -34 14 -46zM190 509l12 -18c4 -10 8 -20 14 -28c4 -12 10 -24 16 -34c10 -18 24 -24 44 -18c4 0 10 4 14 6c0 0 2 2 4 0c-4 -12 -10 -20 -22 -24c-8 -4 -18 -4 -26 -4
c-20 0 -38 6 -56 16c-2 2 -4 4 -4 0c-4 -32 -6 -64 0 -96c4 -30 20 -54 46 -70c6 -2 12 -6 20 -10c8 -6 16 -10 22 -16c4 -4 10 -8 12 -14l-2 -2h-4c-26 -2 -50 0 -76 8c-4 2 -4 0 -6 -2c0 -8 -4 -14 -10 -16c-4 -2 -6 -4 -10 -4s-4 -2 -4 -6c0 -2 0 -2 2 -4
c4 -22 16 -38 34 -50c12 -8 26 -14 40 -18c2 -2 4 -2 2 -4c-14 -14 -28 -24 -46 -30c-12 -2 -24 -2 -34 4c-4 0 -6 2 -6 6c0 10 4 18 12 24c6 6 6 6 0 12c-12 8 -20 20 -26 32c-20 32 -32 66 -32 102c0 4 2 6 4 8c6 4 12 6 18 8c2 0 4 0 2 2c-2 12 4 20 10 28c2 2 4 4 2 6
c-8 52 -4 104 4 156c2 10 2 10 -6 14c-16 8 -24 22 -20 40c2 2 2 4 4 6c20 8 38 8 52 -10zM868 471c-4 -2 -6 -2 -4 -6c10 -54 14 -108 4 -160c0 -4 0 -4 2 -6c8 -8 12 -18 10 -28c0 -2 0 -4 4 -4s10 -2 16 -6c4 -2 6 -6 6 -10c-2 -42 -16 -78 -40 -110
c-6 -8 -14 -14 -20 -22s-6 -8 2 -14c4 -4 8 -8 10 -12c2 -14 0 -16 -14 -18c-22 -6 -56 10 -72 32c2 0 4 2 6 2c16 6 30 12 44 22c16 14 26 30 28 50c0 4 0 6 -4 6c-12 0 -20 6 -22 20c-2 4 -2 4 -6 2c-26 -8 -52 -10 -76 -8c-2 0 -4 0 -6 2c2 2 4 6 6 8c8 8 16 12 24 18
c12 6 20 10 30 18c20 12 32 28 38 50c10 38 8 74 4 110c0 2 -2 4 -4 2c-18 -14 -42 -18 -68 -16c-10 0 -18 4 -26 10c-6 4 -8 10 -10 18c6 -2 10 -4 14 -4c18 -8 32 -4 44 10c4 4 6 8 8 12c6 10 10 22 16 32c6 12 10 24 16 36c14 20 36 26 58 16c2 -2 4 -2 4 -6
c4 -12 2 -22 -6 -32c-6 -8 -10 -12 -16 -14zM646 647c-10 2 -14 6 -18 14c-4 10 -4 18 -6 26c-4 20 -12 38 -26 54c-16 20 -34 38 -56 54c-2 4 -6 6 -10 8c-10 6 -22 6 -34 2c-6 -4 -14 -8 -20 -14c-22 -16 -40 -38 -58 -60c-8 -12 -14 -26 -16 -42c0 -8 -2 -18 -6 -28
c-2 -6 -8 -12 -18 -12c-8 -2 -14 2 -20 10c-4 6 -6 16 -8 24c-2 14 0 28 6 42c4 6 10 12 18 12c0 -2 0 -2 -2 -4c-6 -10 -10 -24 -8 -38c0 -4 2 -8 4 -12c4 -2 6 -2 8 2c2 2 2 6 2 10c2 20 12 36 22 50c8 14 18 26 28 38c2 4 4 6 2 10c-2 16 0 30 6 44c2 4 6 8 10 12
c0 -4 -2 -6 -2 -10c-2 -8 -4 -16 -2 -24c0 -4 4 -8 10 -8c12 0 24 6 32 14c8 6 6 6 2 12c-6 6 -12 16 -16 24s-6 16 -2 28c2 -6 4 -10 8 -14l8 -8c6 -4 12 -8 16 -12c10 -6 10 -6 22 0c12 8 24 16 30 30h2c2 -12 -2 -22 -8 -32c-4 -6 -8 -14 -12 -20c-2 -2 -4 -4 -2 -6
c8 -6 16 -14 30 -16c16 -2 18 0 18 16c0 6 -2 12 -2 20c0 2 -2 2 -2 6c4 -4 6 -8 10 -12c8 -14 8 -30 6 -46c-2 -4 0 -6 2 -10c12 -14 24 -28 32 -44c8 -14 14 -28 16 -42c0 -4 2 -6 4 -10c0 -2 2 -4 4 -4s4 2 4 4c8 12 6 32 -2 42c-2 2 -2 4 -4 6s-2 2 -2 4h4
c6 -2 10 -6 14 -10c10 -22 12 -44 0 -66c-2 -10 -8 -14 -18 -14zM846 563c-6 -4 -14 -8 -22 -14c-6 -2 -10 -6 -14 -14c-2 -2 -4 -4 -2 -8c4 -2 6 -4 10 -2c4 0 8 2 12 2c2 2 4 2 8 0c-6 -2 -10 -6 -14 -10c-4 -2 -8 -4 -14 -2c-4 0 -4 -2 -4 -4c2 -8 2 -18 2 -26
c-2 -18 -10 -34 -24 -44c-18 -12 -38 -10 -52 2c12 4 12 4 24 16c4 4 8 8 16 6c4 0 6 2 6 6c-2 16 -4 34 -8 52c-10 46 -34 88 -62 128c-2 2 -4 2 -4 0c-8 -8 -14 -16 -22 -22c-8 -10 -16 -16 -26 -22c-10 -4 -20 -4 -30 0c-6 4 -12 6 -20 6c-2 0 -2 0 -2 2
c2 16 14 24 28 20c6 0 12 -4 16 -4c18 -8 28 -2 34 18c0 0 2 2 2 4c2 12 2 24 2 36c2 12 2 28 8 40c0 4 2 6 6 10v-6c-2 -24 4 -46 14 -66c10 -18 24 -32 40 -46c6 -4 6 -4 10 2c6 6 8 12 12 16c2 4 6 8 12 10c-8 -20 -10 -42 -8 -62c0 -14 4 -28 12 -40c2 -4 4 -4 8 0
c4 2 6 6 6 10v22s2 12 6 16c0 -4 2 -8 2 -12s0 -8 2 -10c2 -10 10 -12 18 -10c10 2 16 8 22 16c4 10 2 18 -6 24c-2 2 -6 4 -8 6c6 0 10 -2 14 -2c16 -8 20 -26 8 -38c-6 0 -12 -4 -18 -6zM380 633l18 6c4 0 10 -2 14 -4c4 -4 6 -12 8 -16c2 -2 0 -4 -2 -4
c-6 0 -12 -2 -16 -4c-14 -8 -26 -6 -38 2c-10 6 -18 14 -26 22l-16 16c-2 2 -4 2 -6 0c-14 -20 -26 -40 -36 -62c-18 -36 -30 -76 -32 -118c0 -4 0 -6 6 -6c6 2 10 0 14 -4c8 -8 14 -16 26 -18c-18 -14 -42 -12 -58 2c-10 8 -14 22 -16 34c-2 10 -2 22 0 32c0 2 2 4 -2 4
c-14 -4 -22 6 -30 12h8c4 -2 8 -4 12 -4s8 2 10 4c2 4 0 6 -2 8c-4 4 -6 8 -10 12c-8 4 -16 8 -22 12c-8 4 -14 8 -20 14c-6 8 -8 18 -2 28c4 8 14 12 24 12c-2 -2 -4 -4 -8 -6c-8 -6 -10 -12 -4 -22c2 -6 8 -12 14 -16c14 -8 24 -4 28 12c0 4 0 8 2 12c0 0 0 2 2 2
c2 -4 2 -8 4 -14v-22c2 -6 2 -10 6 -12c4 -4 6 -4 10 2c2 4 4 8 6 14c6 18 6 38 4 58l-6 30c6 -4 10 -8 14 -14c4 -4 6 -12 10 -16c2 -2 4 -2 6 0c24 20 42 44 52 74c4 14 6 30 4 44c2 0 2 -2 2 -2c6 -12 8 -24 8 -36c4 -16 2 -32 6 -48c2 -22 12 -28 34 -20zM576 561
c6 -10 8 -20 8 -32c0 -8 -2 -10 -10 -12h-8h-20c-14 2 -18 -2 -24 -16c0 -6 -2 -10 -6 -12c-4 -4 -6 -4 -10 0c-2 4 -4 10 -6 14c-4 10 -10 14 -20 14h-16s-14 -2 -20 2c-4 0 -4 2 -6 6c0 14 4 28 12 40c6 6 10 14 16 22c8 10 10 20 10 32c0 0 0 2 2 2c4 -2 4 -8 6 -12
c2 -6 2 -12 4 -16s6 -4 10 -2c2 0 6 2 4 8s0 14 2 22c4 12 12 24 14 36c2 -4 2 -10 2 -14c-2 -8 -4 -18 -6 -26c0 -6 0 -12 2 -20c4 -6 8 -8 12 -8c6 2 8 6 10 10c0 6 2 10 2 16c2 2 2 6 6 6c-4 -16 2 -26 12 -38c8 -8 12 -16 18 -22zM474 321c-6 2 -8 4 -6 8
c0 16 6 30 16 42c8 10 16 18 24 28c2 2 4 2 6 0c8 -8 18 -16 26 -26c10 -14 16 -28 16 -44c0 -4 0 -6 -6 -8c-12 -2 -24 -4 -38 -4s-26 2 -38 4zM484 105c-4 6 -8 14 -10 22c-4 10 -2 18 4 26c16 18 36 20 56 10c2 0 4 -2 8 -4c12 -8 16 -20 10 -34c-2 -6 -6 -10 -8 -14
c-10 -12 -12 -24 -10 -38c0 -4 0 -8 -2 -12c-4 8 -8 16 -10 24c-2 10 -2 20 -2 28c0 6 0 12 -2 16c-2 2 -4 4 -8 4c-2 0 -2 -2 -4 -6c-4 -10 -4 -22 -4 -32c0 -8 0 -16 -2 -24c-2 -4 -4 -8 -8 -10c2 8 2 16 0 24s-6 14 -8 20zM524 217c-2 2 -2 6 -2 8c-2 10 2 20 4 28
c4 8 6 16 6 24c0 2 0 4 -4 6c-8 4 -18 6 -28 4c-8 -4 -10 -6 -8 -14c2 -10 6 -18 8 -28c2 -8 4 -16 0 -26c-4 14 -14 28 -20 40s-8 26 -8 40c0 4 0 6 4 8c24 10 50 10 72 0c4 -2 6 -4 6 -8c0 -12 -2 -24 -6 -36c-8 -16 -20 -30 -24 -46zM140 327c0 -6 -2 -10 -10 -8
s-10 6 -12 12c-4 14 -2 26 4 38c0 -10 4 -18 10 -26c4 -6 6 -10 8 -16zM906 329c-2 -6 -6 -10 -14 -12c-4 0 -6 0 -8 6c0 8 2 12 6 18c4 8 12 16 12 26c6 -12 8 -24 4 -38z" />
</svg>
