<?xml version="1.0" standalone="no"?>
<!DOCTYPE svg PUBLIC "-//W3C//DTD SVG 1.1//EN" "http://www.w3.org/Graphics/SVG/1.1/DTD/svg11.dtd" >
<svg xmlns="http://www.w3.org/2000/svg" xmlns:xlink="http://www.w3.org/1999/xlink" version="1.1" viewBox="-11 0 1045 1024">
   <path fill="currentColor"
d="M910 623c-126 54 -262 80 -388 80c-184 0 -362 -50 -506 -134c-12 -8 -22 6 -12 14c134 122 310 194 506 194c140 0 304 -44 416 -126c18 -14 2 -36 -16 -28zM1020 561c-12 -16 -118 -28 -182 16c-10 8 -8 16 4 16c36 -4 116 -14 130 4s-16 94 -30 128c-4 10 6 14 14 6
c60 -50 76 -156 64 -170zM568 183c-58 6 -134 10 -188 34c-64 28 -108 82 -108 164c0 104 66 156 150 156c72 0 110 -18 166 -74c18 28 24 40 56 68c8 4 18 4 24 -2v0c20 -18 56 -50 78 -66c8 -8 6 -18 0 -28c-18 -24 -38 -46 -38 -92v-156c0 -66 4 -126 -44 -172
c-38 -36 -102 -50 -150 -50c-96 0 -202 36 -224 154c-2 12 6 18 14 20l98 10c8 0 16 -8 18 -18c8 -40 42 -60 80 -60c20 0 44 8 56 26c14 20 12 48 12 72v14zM548 391c-14 28 -40 46 -68 46c-38 0 -62 -30 -62 -74c0 -84 78 -100 150 -100v22c0 38 0 70 -20 106z" />
</svg>
