<?xml version="1.0" encoding="UTF-8"?>
<svg width="1025px" height="813px" viewBox="0 0 1025 813" version="1.1" xmlns="http://www.w3.org/2000/svg" xmlns:xlink="http://www.w3.org/1999/xlink">
  <g id="Amazon" transform="translate(0.782, 0.0684)" fill="currentColor" fill-rule="nonzero">
    <path d="M910.093379,658 C784.093379,712 648.093379,738 522.093379,738 C338.093379,738 160.093379,688 16.0933786,604 C4.09337861,596 -5.90662139,610 4.09337861,618 C138.093379,740 314.093379,812 510.093379,812 C650.093379,812 814.093379,768 926.093379,686 C944.093379,672 928.093379,650 910.093379,658 Z M1020.09338,596 C1008.09338,580 902.093379,568 838.093379,612 C828.093379,620 830.093379,628 842.093379,628 C878.093379,624 958.093379,614 972.093379,632 C986.093379,650 956.093379,726 942.093379,760 C938.093379,770 948.093379,774 956.093379,766 C1016.09338,716 1032.09338,610 1020.09338,596 Z M568.093379,218 C510.093379,224 434.093379,228 380.093379,252 C316.093379,280 272.093379,334 272.093379,416 C272.093379,520 338.093379,572 422.093379,572 C494.093379,572 532.093379,554 588.093379,498 C606.093379,526 612.093379,538 644.093379,566 C652.093379,570 662.093379,570 668.093379,564 L668.093379,564 C688.093379,546 724.093379,514 746.093379,498 C754.093379,490 752.093379,480 746.093379,470 C728.093379,446 708.093379,424 708.093379,378 L708.093379,222 C708.093379,156 712.093379,96 664.093379,50 C626.093379,14 562.093379,0 514.093379,0 C418.093379,0 312.093379,36 290.093379,154 C288.093379,166 296.093379,172 304.093379,174 L402.093379,184 C410.093379,184 418.093379,176 420.093379,166 C428.093379,126 462.093379,106 500.093379,106 C520.093379,106 544.093379,114 556.093379,132 C570.093379,152 568.093379,180 568.093379,204 L568.093379,218 Z M548.093379,426 C534.093379,454 508.093379,472 480.093379,472 C442.093379,472 418.093379,442 418.093379,398 C418.093379,314 496.093379,298 568.093379,298 L568.093379,320 C568.093379,358 568.093379,390 548.093379,426 Z"></path>
  </g>
</svg>