<?xml version="1.0" standalone="no"?>
<!DOCTYPE svg PUBLIC "-//W3C//DTD SVG 1.1//EN" "http://www.w3.org/Graphics/SVG/1.1/DTD/svg11.dtd" >
<svg xmlns="http://www.w3.org/2000/svg" xmlns:xlink="http://www.w3.org/1999/xlink" version="1.1" viewBox="-10 0 1034 1024">
   <path fill="currentColor"
d="M506 263c46 -6 80 -14 102 -24c36 -14 54 -40 54 -70c0 -40 -14 -68 -42 -82c-28 -16 -70 -24 -124 -24c-60 0 -102 16 -128 44c-18 22 -30 52 -36 90h-244c4 -86 28 -154 70 -208c68 -86 182 -130 346 -130c108 0 202 22 286 64c82 42 124 122 124 238v446
c0 30 0 68 2 112c2 32 6 56 14 68c10 12 22 22 38 30v36h-276c-8 -20 -14 -38 -16 -56c-4 -18 -6 -36 -8 -58c-34 38 -76 70 -122 96c-54 32 -116 48 -184 48c-88 0 -162 -24 -220 -74s-86 -122 -86 -214c0 -120 46 -206 138 -260c52 -28 126 -50 224 -62zM662 381
c-16 10 -34 18 -50 24s-38 14 -68 18l-58 10c-54 10 -92 22 -116 36c-40 22 -60 58 -60 106c0 44 12 76 36 96c24 18 54 28 90 28c54 0 106 -16 152 -48c48 -32 72 -90 74 -176v-94z" />
</svg>
