<?xml version="1.0" encoding="UTF-8"?>
<svg width="913px" height="1025px" viewBox="0 0 913 1025" version="1.1" xmlns="http://www.w3.org/2000/svg" xmlns:xlink="http://www.w3.org/1999/xlink">
  <g id="Amplement" transform="translate(0.2788, 0.711)" fill="currentColor" fill-rule="nonzero">
    <path d="M450,404 C496,398 530,390 552,380 C588,366 606,340 606,310 C606,270 592,242 564,228 C536,212 494,204 440,204 C380,204 338,220 312,248 C294,270 282,300 276,338 L32,338 C36,252 60,184 102,130 C170,44 284,0 448,0 C556,0 650,22 734,64 C816,106 858,186 858,302 L858,748 C858,778 858,816 860,860 C862,892 866,916 874,928 C884,940 896,950 912,958 L912,994 L636,994 C628,974 622,956 620,938 C616,920 614,902 612,880 C578,918 536,950 490,976 C436,1008 374,1024 306,1024 C218,1024 144,1000 86,950 C28,900 0,828 0,736 C0,616 46,530 138,476 C190,448 264,426 362,414 L450,404 Z M606,522 C590,532 572,540 556,546 C540,552 518,560 488,564 L430,574 C376,584 338,596 314,610 C274,632 254,668 254,716 C254,760 266,792 290,812 C314,830 344,840 380,840 C434,840 486,824 532,792 C580,760 604,702 606,616 L606,522 Z"></path>
  </g>
</svg>