<?xml version="1.0" encoding="UTF-8"?>
<svg width="877px" height="1025px" viewBox="0 0 877 1025" version="1.1" xmlns="http://www.w3.org/2000/svg" xmlns:xlink="http://www.w3.org/1999/xlink">
  <g id="Android" transform="translate(0.5383, 0.3376)" fill="currentColor" fill-rule="nonzero">
    <path d="M814,320.18034 C780,320.18034 752,350.18034 752,384.18034 L752,632.18034 C752,666.18034 780,694.18034 814,694.18034 C848,694.18034 876,666.18034 876,632.18034 L876,384.18034 C876,350.18034 848,320.18034 814,320.18034 Z M62,320.18034 C28,320.18034 0,350.18034 0,384.18034 L0,632.18034 C0,666.18034 28,694.18034 62,694.18034 C96,694.18034 124,666.18034 124,632.18034 L124,384.18034 C124,350.18034 96,320.18034 62,320.18034 Z M162,322.18034 L162,774.18034 C162,802.18034 184,824.18034 210,824.18034 L266,824.18034 L266,960.18034 C266,996.18034 294,1024.18034 328,1024.18034 C362,1024.18034 390,996.18034 390,960.18034 L390,824.18034 L488,824.18034 L488,960.18034 C488,996.18034 516,1024.18034 550,1024.18034 C584,1024.18034 612,996.18034 612,960.18034 L612,824.18034 L668,824.18034 C694,824.18034 716,802.18034 716,774.18034 L716,322.18034 L162,322.18034 Z M570,88.1803399 L620,14.1803399 C624,10.1803399 622,4.18033989 618,2.18033989 C614,-1.81966011 610,0.180339887 606,4.18033989 L554,82.1803399 C518,68.1803399 480,60.1803399 438,60.1803399 C396,60.1803399 358,68.1803399 322,82.1803399 L270,4.18033989 C266,0.180339887 262,-1.81966011 258,2.18033989 C254,4.18033989 252,10.1803399 256,14.1803399 L306,88.1803399 C226,126.18034 168,198.18034 160,282.18034 L716,282.18034 C708,198.18034 650,126.18034 570,88.1803399 Z M322,206.18034 C304,206.18034 290,192.18034 290,176.18034 C290,158.18034 304,144.18034 322,144.18034 C338,144.18034 352,158.18034 352,176.18034 C352,192.18034 338,206.18034 322,206.18034 Z M558,206.18034 C542,206.18034 528,192.18034 528,176.18034 C528,158.18034 542,144.18034 558,144.18034 C576,144.18034 590,158.18034 590,176.18034 C590,192.18034 576,206.18034 558,206.18034 Z"></path>
  </g>
</svg>