<?xml version="1.0" standalone="no"?>
<!DOCTYPE svg PUBLIC "-//W3C//DTD SVG 1.1//EN" "http://www.w3.org/Graphics/SVG/1.1/DTD/svg11.dtd" >
<svg xmlns="http://www.w3.org/2000/svg" xmlns:xlink="http://www.w3.org/1999/xlink" version="1.1" viewBox="-10 0 1034 1024">
   <path fill="currentColor"
d="M888 179c-34 0 -62 30 -62 64v248c0 34 28 62 62 62s62 -28 62 -62v-248c0 -34 -28 -64 -62 -64zM136 179c-34 0 -62 30 -62 64v248c0 34 28 62 62 62s62 -28 62 -62v-248c0 -34 -28 -64 -62 -64zM236 181v452c0 28 22 50 48 50h56v136c0 36 28 64 62 64s62 -28 62 -64
v-136h98v136c0 36 28 64 62 64s62 -28 62 -64v-136h56c26 0 48 -22 48 -50v-452h-554zM644 -53l50 -74c4 -4 2 -10 -2 -12c-4 -4 -8 -2 -12 2l-52 78c-36 -14 -74 -22 -116 -22s-80 8 -116 22l-52 -78c-4 -4 -8 -6 -12 -2c-4 2 -6 8 -2 12l50 74c-80 38 -138 110 -146 194
h556c-8 -84 -66 -156 -146 -194zM396 65c-18 0 -32 -14 -32 -30c0 -18 14 -32 32 -32c16 0 30 14 30 32c0 16 -14 30 -30 30zM632 65c-16 0 -30 -14 -30 -30c0 -18 14 -32 30 -32c18 0 32 14 32 32c0 16 -14 30 -32 30z" />
</svg>
