<?xml version="1.0" standalone="no"?>
<!DOCTYPE svg PUBLIC "-//W3C//DTD SVG 1.1//EN" "http://www.w3.org/Graphics/SVG/1.1/DTD/svg11.dtd" >
<svg xmlns="http://www.w3.org/2000/svg" xmlns:xlink="http://www.w3.org/1999/xlink" version="1.1" viewBox="-10 0 1034 1024">
   <path fill="currentColor"
d="M152 585c0 -42 10 -74 28 -98c16 -20 40 -36 74 -44c-10 -28 -16 -48 -16 -60c0 -22 12 -46 36 -70s48 -36 70 -36c10 0 24 4 40 10c-32 -92 -56 -162 -70 -210c-16 -54 -24 -92 -24 -114c0 -32 8 -58 24 -76s40 -28 68 -28c48 0 106 98 174 296l16 50
c4 -10 8 -22 12 -34c68 -196 128 -292 180 -292c28 0 48 8 64 26s24 42 24 70c0 20 -8 58 -24 114c-14 48 -36 116 -66 200c38 10 66 28 82 54c18 30 28 74 28 134c0 120 -36 216 -108 292s-162 114 -274 114c-44 0 -86 -8 -128 -24c-40 -14 -74 -36 -108 -66
c-34 -32 -58 -66 -76 -100c-16 -36 -26 -72 -26 -108zM218 581c0 16 4 36 14 60c8 20 22 42 40 66c26 36 58 62 96 82c38 18 82 28 130 28c86 0 158 -32 218 -98c58 -64 88 -146 88 -244c0 -30 -2 -54 -6 -70s-10 -26 -20 -36c-18 -14 -54 -28 -106 -40
c-54 -12 -110 -18 -170 -18c-14 0 -24 2 -28 6c-4 2 -6 10 -6 20c0 28 16 48 46 60c34 14 88 20 166 20h28c10 0 18 4 22 12c6 4 10 14 12 30c-12 12 -30 22 -56 32c-24 8 -42 16 -52 26c-28 18 -48 42 -64 68s-24 52 -24 76c0 14 4 30 10 50c8 22 12 36 12 44v6l-4 14
c-30 -2 -52 -16 -66 -40c-10 -22 -16 -50 -18 -82h-12h-12c2 4 2 8 2 12c0 20 -8 38 -24 52c-14 14 -32 20 -54 20c-30 0 -62 -14 -94 -44c-34 -32 -50 -62 -50 -92c0 -4 2 -10 4 -16c0 -4 6 -12 16 -22c16 22 28 36 34 44c28 40 54 60 76 60c6 0 12 -2 18 -6
c4 -4 6 -8 6 -10c0 -6 -4 -16 -12 -30c-6 -10 -18 -28 -38 -54c-18 -24 -34 -40 -44 -50c-10 -8 -18 -14 -22 -14c-14 0 -26 8 -38 22c-12 16 -18 34 -18 56zM308 389c0 8 6 24 16 46c10 18 24 40 46 68c20 26 38 48 56 62c16 14 28 20 36 20c4 0 10 -2 14 -8
c4 -4 6 -10 6 -16c0 -8 -6 -26 -18 -58c-14 -34 -28 -64 -46 -92c-14 -24 -28 -40 -38 -50c-12 -10 -22 -14 -32 -14c-8 0 -16 4 -24 14c-10 12 -16 20 -16 28zM354 -45c0 24 8 58 24 108c14 48 36 110 66 190c6 -4 16 -6 28 -6c0 0 2 0 6 2h10c4 0 12 0 28 2l-70 -202
c-18 -52 -34 -88 -44 -104c-10 -14 -18 -20 -26 -20c-6 0 -12 2 -16 8s-6 14 -6 22zM520 467c6 16 12 32 20 50c12 -14 26 -28 40 -38c-4 0 -10 -2 -16 -2c-6 -2 -12 -2 -14 -2c-14 -4 -24 -6 -30 -8zM626 263l66 12c30 -84 54 -150 70 -200c16 -54 26 -86 26 -96
c0 -12 -4 -20 -8 -26c-2 -4 -8 -6 -16 -6s-18 8 -30 26c-12 20 -28 54 -44 102z" />
</svg>
