<?xml version="1.0" encoding="UTF-8"?>
<svg width="721px" height="1025px" viewBox="0 0 721 1025" version="1.1" xmlns="http://www.w3.org/2000/svg" xmlns:xlink="http://www.w3.org/1999/xlink">
  <g id="AngelList" transform="translate(0.1903, 0.4253)" fill="currentColor" fill-rule="nonzero">
    <path d="M0,726 C0,684 10,652 28,628 C44,608 68,592 102,584 C92,556 86,536 86,524 C86,502 98,478 122,454 C146,430 170,418 192,418 C202,418 216,422 232,428 C200,336 176,266 162,218 C146,164 138,126 138,104 C138,72 146,46 162,28 C178,10 202,0 230,0 C278,0 336,98 404,296 L420,346 C424,336 428,324 432,312 C500,116 560,20 612,20 C640,20 660,28 676,46 C692,64 700,88 700,116 C700,136 692,174 676,230 C662,278 640,346 610,430 C648,440 676,458 692,484 C710,514 720,558 720,618 C720,738 684,834 612,910 C540,986 450,1024 338,1024 C294,1024 252,1016 210,1000 C170,986 136,964 102,934 C68,902 44,868 26,834 C10,798 0,762 0,726 Z M66,722 C66,738 70,758 80,782 C88,802 102,824 120,848 C146,884 178,910 216,930 C254,948 298,958 346,958 C432,958 504,926 564,860 C622,796 652,714 652,616 C652,586 650,562 646,546 C642,530 636,520 626,510 C608,496 572,482 520,470 C466,458 410,452 350,452 C336,452 326,454 322,458 C318,460 316,468 316,478 C316,506 332,526 362,538 C396,552 450,558 528,558 L556,558 C566,558 574,562 578,570 C584,574 588,584 590,600 C578,612 560,622 534,632 C510,640 492,648 482,658 C454,676 434,700 418,726 C402,752 394,778 394,802 C394,816 398,832 404,852 C412,874 416,888 416,896 L416,902 L412,916 C382,914 360,900 346,876 C336,854 330,826 328,794 L316,794 L304,794 C306,798 306,802 306,806 C306,826 298,844 282,858 C268,872 250,878 228,878 C198,878 166,864 134,834 C100,802 84,772 84,742 C84,738 86,732 88,726 C88,722 94,714 104,704 C120,726 132,740 138,748 C166,788 192,808 214,808 C220,808 226,806 232,802 C236,798 238,794 238,792 C238,786 234,776 226,762 C220,752 208,734 188,708 C170,684 154,668 144,658 C134,650 126,644 122,644 C108,644 96,652 84,666 C72,682 66,700 66,722 Z M156,530 C156,538 162,554 172,576 C182,594 196,616 218,644 C238,670 256,692 274,706 C290,720 302,726 310,726 C314,726 320,724 324,718 C328,714 330,708 330,702 C330,694 324,676 312,644 C298,610 284,580 266,552 C252,528 238,512 228,502 C216,492 206,488 196,488 C188,488 180,492 172,502 C162,514 156,522 156,530 Z M202,96 C202,120 210,154 226,204 C240,252 262,314 292,394 C298,390 308,388 320,388 C320,388 322,388 326,390 L336,390 C340,390 348,390 364,392 L294,190 C276,138 260,102 250,86 C240,72 232,66 224,66 C218,66 212,68 208,74 C204,80 202,88 202,96 Z M368,608 C374,624 380,640 388,658 C400,644 414,630 428,620 C424,620 418,618 412,618 C406,616 400,616 398,616 C384,612 374,610 368,608 Z M474,404 L540,416 C570,332 594,266 610,216 C626,162 636,130 636,120 C636,108 632,100 628,94 C626,90 620,88 612,88 C604,88 594,96 582,114 C570,134 554,168 538,216 L474,404 Z"></path>
  </g>
</svg>