<?xml version="1.0" standalone="no"?>
<!DOCTYPE svg PUBLIC "-//W3C//DTD SVG 1.1//EN" "http://www.w3.org/Graphics/SVG/1.1/DTD/svg11.dtd" >
<svg xmlns="http://www.w3.org/2000/svg" xmlns:xlink="http://www.w3.org/1999/xlink" version="1.1" viewBox="-11 0 1046 1024">
   <path fill="currentColor"
d="M1024 218.424c-4.0957 -122.88 -106.496 -220.16 -229.376 -221.184h-566.272c-21.5039 0 -43.0078 2.04785 -63.4873 8.19141c-107.521 30.7207 -174.08 133.12 -163.84 252.929c8.19141 96.2559 97.2793 192.512 193.535 198.655
c46.0801 3.07227 65.5361 21.5039 78.8486 62.4648c25.5996 74.752 55.2959 148.479 84.9922 225.279c16.3838 -12.2881 18.4316 -26.624 22.5273 -37.8877c24.5762 -64.5117 50.1758 -128 71.6807 -193.536c12.2881 -37.8877 30.7197 -53.248 72.7031 -52.2236
c93.1846 3.07129 187.393 2.04785 281.601 -2.04785c128 -6.14453 221.184 -112.641 217.088 -240.641zM783.36 353.592c-113.664 1.02441 -227.328 1.02441 -342.017 0c-25.5996 0 -38.9121 5.12012 -44.0322 32.7686c-8.19141 43.0078 -21.5039 84.9912 -34.8154 137.216
c-12.2881 -51.2002 -24.5762 -93.1846 -32.7686 -136.192c-5.11914 -25.5996 -16.3838 -35.8398 -43.0078 -33.792c-29.6953 2.04785 -59.3916 3.07227 -88.0635 -5.12012c-56.3203 -16.3838 -93.1846 -65.5361 -90.1123 -124.928s43.0078 -105.472 101.376 -115.712
c13.3125 -2.04785 25.5996 -4.0957 38.9121 -4.0957h523.264c55.2959 0 102.4 18.4316 129.024 71.6797c40.96 83.9678 -19.4561 177.152 -117.76 178.176z" />
</svg>
