<?xml version="1.0" encoding="UTF-8"?>
<svg width="1025px" height="748px" viewBox="0 0 1025 748" version="1.1" xmlns="http://www.w3.org/2000/svg" xmlns:xlink="http://www.w3.org/1999/xlink">
  <g id="AngiesList" transform="translate(0.6272, 0.0684)" fill="currentColor" fill-rule="nonzero">
    <path d="M1024.01019,221.184 C1019.91449,98.304 917.514188,1.024 794.634188,0 L228.362188,0 C206.858288,0 185.354388,2.04785 164.874888,8.19141 C57.3538879,38.91211 -9.20511212,141.31141 1.03488788,261.12041 C9.22629788,357.37631 98.3141879,453.63241 194.569888,459.77541 C240.649988,462.84768 260.105988,481.27931 273.418488,522.24021 C299.018088,596.99221 328.714388,670.71921 358.410688,747.51921 C374.794488,735.23111 376.842288,720.89521 380.937988,709.63151 C405.514188,645.11981 431.113788,581.63151 452.618688,516.09551 C464.906788,478.20781 483.338388,462.84751 525.321788,463.87191 C618.506388,466.9432 712.714788,465.91976 806.922788,461.82406 C934.922788,455.67953 1028.10679,349.18306 1024.01079,221.18306 L1024.01019,221.184 Z M783.370188,356.352 C669.706188,357.37641 556.042188,357.37641 441.353188,356.352 C415.753588,356.352 402.441088,361.47212 397.320988,389.1206 C389.129578,432.1284 375.817088,474.1118 362.505588,526.3366 C350.217488,475.1364 337.929388,433.152 329.736988,390.1446 C324.617848,364.545 313.353188,354.3048 286.729188,356.3526 C257.033888,358.40045 227.337588,359.42487 198.665688,351.23248 C142.345388,334.84868 105.481088,285.69638 108.553388,226.30448 C111.625688,166.91258 151.561188,120.83248 209.929388,110.59248 C223.241888,108.54463 235.528988,106.49678 248.841488,106.49678 L772.105488,106.49678 C827.401388,106.49678 874.505488,124.92838 901.129488,178.17648 C942.089488,262.14428 881.673388,355.32848 783.369488,356.35248 L783.370188,356.352 Z"></path>
  </g>
</svg>