<?xml version="1.0" encoding="UTF-8"?>
<svg width="120px" height="120px" viewBox="0 0 120 120" version="1.1" xmlns="http://www.w3.org/2000/svg" xmlns:xlink="http://www.w3.org/1999/xlink">
<path d="M49.8839551,12 L68.6937823,12 C69.5288235,12 70.2759771,12.5188 70.5677347,13.3012138 L104.874009,105.301214 C105.259938,106.336169 104.733798,107.488024 103.698843,107.873952 C103.475297,107.957312 103.238639,108 103.000057,108 L81.4766675,108 C80.6224504,108 79.8625254,107.457475 79.5850903,106.649566 L47.9923779,14.6495658 C47.6336326,13.6048766 48.1897001,12.4671681 49.2343893,12.1084228 C49.4434327,12.0366375 49.6629296,12 49.8839551,12 Z" fill="currentColor"></path>
<path d="M39.4952627,42.3242747 L48.9360512,69.8169701 C49.0790246,70.2333255 49.0806346,70.6852209 48.9406317,71.1025846 L37.0210722,106.63606 C36.7477376,107.450899 35.984373,108 35.1249108,108 L13.9685348,108 C12.8639653,108 11.9685348,107.104569 11.9685348,106 C11.9685348,105.760173 12.0116697,105.522301 12.0958797,105.297744 L35.7310267,42.271574 C36.1188717,41.2373352 37.2716985,40.7133295 38.3059374,41.1011745 C38.8651026,41.3108644 39.301309,41.7594583 39.4952627,42.3242747 Z" fill="currentColor"></path>
</svg>