<?xml version="1.0" standalone="no"?>
<!DOCTYPE svg PUBLIC "-//W3C//DTD SVG 1.1//EN" "http://www.w3.org/Graphics/SVG/1.1/DTD/svg11.dtd" >
<svg xmlns="http://www.w3.org/2000/svg" xmlns:xlink="http://www.w3.org/1999/xlink" version="1.1" viewBox="-10 0 1034 1024">
   <path fill="currentColor"
d="M241.252 477.669c63.7324 25.7656 138.617 49.6094 220.298 69.126c95.8135 22.8945 188.952 37.2412 269.488 42.6318c-54.1475 51.3145 -127.296 82.7725 -207.783 82.7227c-128.363 -0.0791016 -237.963 -80.2725 -281.541 -193.265l-0.460938 -1.2168z
M227.039 220.565l-10.6592 19.7812c-44.8701 6.37695 -77.4521 23.5049 -83.4092 44.0791c-16.0576 55.8555 141.359 142.708 354.537 193.351c213.178 50.6416 395.497 46.5449 411.602 -9.30957c5.72461 -19.9678 -9.77539 -48.5928 -43.2871 -73.3555l0.27832 -20.3398
l4.33203 2.54395c70.5156 41.7334 129.146 92.083 119.293 126.294c-20.7588 72.0059 -256 72.332 -510.604 11.4971c-254.604 -60.835 -441.763 -164.073 -421.004 -236.032c10.1465 -35.2354 91.6475 -54.2725 178.921 -58.5078v-0.000976562zM523.626 68.4541
c166.695 0.128906 301.738 135.339 301.661 302.034c-0.015625 25.1025 -3.09473 49.4873 -8.88379 72.8027c-1.9248 11.4961 -4.5332 22.9873 -7.85254 34.4268c-12.7451 1.52051 -26.8262 2.4209 -42.0498 2.76562c-72.0586 1.62988 -168.013 -9.83203 -271.464 -34.4072
c-102.878 -24.4395 -192.43 -57.4121 -254.42 -91.2188c-6.28711 -3.42969 -12.2773 -6.85059 -17.9473 -10.2617c2.59863 -30.7842 9.81543 -60.2529 20.9551 -87.71l0.0302734 -0.106445c20.3975 -50.1631 52.8115 -91.9492 92.6191 -123.304
c51.4902 -40.751 116.585 -65.0635 187.352 -65.0195v-0.00195312zM581.343 326.037c-2.08691 0.90332 -3.75195 2.56641 -4.6543 4.65527c-8.80957 20.8525 -29.0039 34.5566 -51.542 35.124l-1.47363 0.0175781c-23.0537 0.0146484 -43.8867 -13.7461 -52.9219 -34.9561
c-1.26562 -2.98535 -4.07324 -4.99902 -7.2627 -5.27441l-0.742188 -0.03125c-1.16895 -0.00292969 -2.3252 0.234375 -3.39844 0.697266c-2.12988 0.894531 -3.81738 2.59863 -4.69043 4.7373c-0.873047 2.13965 -0.860352 4.53711 0.0371094 6.66699
c11.5449 27.1113 37.8936 44.877 67.2529 45.5039l1.63379 0.0175781c30.0352 -0.00585938 57.1572 -17.9648 68.8867 -45.6152c0.978516 -2.11816 1.05566 -4.54297 0.212891 -6.71875c-0.841797 -2.17676 -2.53125 -3.91699 -4.68066 -4.82422
c-2.12988 -0.886719 -4.52637 -0.886719 -6.65625 0h-0.000976562zM666.94 246.584h-0.0478516c-11.2793 0.0791016 -22.1416 4.28516 -30.5332 11.8232v-3.81738c-0.0253906 -2.14746 -0.901367 -4.19824 -2.43848 -5.7002
c-1.34375 -1.31348 -3.09668 -2.1123 -4.95312 -2.27539l-0.800781 -0.03125c-4.38184 0.0761719 -7.91016 3.62402 -7.95898 8.00586v118.97c0.0712891 4.15918 3.25195 7.55664 7.32031 7.9668l0.685547 0.0400391c2.1543 0.00878906 4.22656 -0.827148 5.77246 -2.32715
c1.53906 -1.48633 2.39746 -3.54004 2.37402 -5.67969v-42.1699c7.9834 7.27832 18.2764 11.4785 29.04 11.8848l1.54102 0.03125c26.709 0 48.3604 -21.6514 48.3604 -48.3604s-21.6514 -48.3613 -48.3604 -48.3613zM417.084 246.584
c-2.10156 -0.0117188 -4.12207 0.817383 -5.60938 2.30371c-1.48633 1.4873 -2.31543 3.50684 -2.30371 5.60938v3.58398c-7.68066 -6.98828 -17.5654 -11.0352 -27.9092 -11.46l-1.55469 -0.0371094c-12.1943 -0.00976562 -23.8438 5.04785 -32.1631 13.9639
c-8.10156 8.70117 -12.7344 20.0469 -13.0605 31.8945l-0.0185547 1.61816c-0.563477 25.1699 18.9639 46.1377 43.9453 47.5166l1.29688 0.0537109c10.9336 -0.0839844 21.4434 -4.25098 29.4629 -11.6826v3.76953c0.0478516 4.12012 3.20312 7.49023 7.2334 7.87598
l0.678711 0.0361328c4.32129 -0.0986328 7.79199 -3.5918 7.86621 -7.91309v-79.2666c0 -4.11621 -3.16113 -7.49316 -7.1875 -7.83691l-0.678711 -0.0292969h0.00195312zM666.94 262.689l-0.0478516 0.046875c17.4014 0.331055 31.2598 14.668 30.999 32.0693
c0.439453 11.2861 -5.33203 21.9072 -15.0391 27.6807c-9.70605 5.77246 -21.7949 5.77246 -31.502 0c-9.70703 -5.77344 -15.4775 -16.3955 -15.0391 -27.6807v-1.39551c0.297852 -16.8066 13.8223 -30.3721 30.6279 -30.7197zM379.708 262.037
c16.9453 0.755859 30.1143 15.0264 29.5098 31.9766c0.0771484 8.39551 -3.05273 16.502 -8.75098 22.668c-5.29492 5.86816 -12.8086 9.24512 -20.7129 9.30957l-0.046875 0.046875c-7.87207 -0.0839844 -15.3496 -3.45996 -20.6201 -9.30957
c-5.75293 -6.11816 -8.9209 -14.2227 -8.84375 -22.6201c-0.0742188 -8.43066 3.07324 -16.5713 8.79688 -22.7617c4.99414 -5.52539 11.9541 -8.84375 19.3564 -9.26465l1.30957 -0.0439453z" />
</svg>
