<?xml version="1.0" encoding="UTF-8"?>
<svg width="192px" height="192px" viewBox="0 0 192 192" version="1.1" xmlns="http://www.w3.org/2000/svg" xmlns:xlink="http://www.w3.org/1999/xlink">
    <title>AnimalJam</title>
    <g id="AnimalJam" stroke="none" stroke-width="1" fill="none" fill-rule="evenodd">
        <path d="M89.3532814,15.9129077 L91.8876219,15.6526519 C101.178387,14.7196744 103.431713,14.7991822 113.753281,15.8129077 C125.553281,17.1129077 138.653281,20.6129077 147.853281,25.1129077 C156.253281,29.2129077 166.953281,39.3129077 169.653281,45.6129077 L169.859366,46.0990367 C171.774328,50.7280088 173.425695,57.8129077 172.653281,57.8129077 L172.604781,57.8050669 C172.086741,57.6907905 168.040238,56.3433425 163.353281,54.8129077 L161.784504,54.2738934 C157.587497,52.8456582 154.231542,51.8129077 154.053281,51.8129077 C153.853281,51.8129077 155.653281,54.2129077 158.053281,57.0129077 L158.910366,58.0359561 C168.431159,69.4747853 171.467567,75.7557649 175.353281,90.8129077 C177.953281,101.412908 178.653281,112.512908 176.853281,118.812908 C175.553281,123.512908 169.953281,132.312908 168.953281,131.212908 C168.553281,130.712908 166.953281,127.012908 165.353281,123.012908 L165.133218,122.446773 C163.700277,118.798809 162.238647,115.812908 161.953281,115.812908 C161.553281,115.812908 160.753281,118.212908 160.153281,121.012908 C159.453281,123.912908 156.753281,130.612908 154.253281,135.712908 L153.763608,136.684319 C150.148845,143.79231 147.751154,147.015035 140.953281,153.812908 C135.453281,159.312908 129.853281,163.912908 125.553281,166.312908 C91.1532814,185.312908 49.2532814,174.812908 27.9532814,141.812908 C23.1532814,134.512908 16.2532814,117.212908 14.1532814,107.312908 C13.2121049,102.701143 12.8024163,97.5578904 13.0909569,90.215737 L13.1532814,88.8129077 C14.0434988,68.3379077 20.021287,54.8093988 34.8608496,39.808004 L36.227684,38.4308875 C42.9286666,31.7074933 46.234914,29.2782139 52.8532814,26.1129077 C62.4532814,21.3129077 77.5532814,17.2129077 89.3532814,15.9129077 Z M121.253281,23.3129077 C116.598736,22.5371502 108.08891,21.8554238 102.015348,21.9060012 L101.453281,21.9129077 C68.5532814,22.2129077 44.9532814,33.1129077 30.8532814,54.6129077 C15.4532814,78.1129077 16.7532814,108.412908 34.2532814,131.512908 C46.6532814,147.812908 69.4532814,158.012908 89.8532814,156.312908 L91.1635209,156.195641 C100.769759,155.296837 105.544771,153.929929 114.353281,149.812908 C131.653281,141.512908 144.353281,126.012908 149.453281,106.812908 C151.353281,99.4129077 151.753281,83.4129077 150.053281,77.5129077 L149.926573,77.0739706 C149.426395,75.2703837 149.275504,73.8129077 149.553281,73.8129077 C150.039281,73.8129077 153.295481,80.4613877 156.534769,87.6959837 L157.253199,89.3108557 L157.964276,90.9302397 L158.380218,91.8878361 C160.445086,96.661607 162.269531,101.183533 163.053281,103.712908 L163.352872,104.599344 C164.547956,108.086281 165.684051,110.812908 166.053281,110.812908 C166.853281,110.812908 168.853281,101.612908 168.853281,97.5129077 L168.844126,97.1192188 C168.759504,95.1293522 168.099948,91.0662411 167.353281,87.6129077 C163.253281,68.0129077 147.053281,48.0129077 126.153281,36.6129077 L124.937613,35.9144021 C121.903695,34.1484966 119.921463,32.8129077 120.453281,32.8129077 L120.588748,32.8212913 C122.128785,32.9853977 129.739301,35.535961 137.753266,38.4603909 L139.471633,39.0909285 C140.475206,39.4612173 141.478769,39.8350929 142.471312,40.2086451 L144.599214,41.0155642 C148.198107,42.3909531 151.536387,43.7231183 154.053281,44.8129077 L154.981748,45.2180835 C159.574766,47.2058765 163.365781,48.6004077 163.553281,48.4129077 C164.269498,47.6966915 160.061243,42.87675 155.484208,38.7659488 L154.964723,38.3038631 C153.316247,36.851823 151.642471,35.5142591 150.153281,34.5129077 C141.853281,28.9129077 132.653281,25.3129077 121.253281,23.3129077 Z M93.7731838,39.1166758 L96.3667579,38.6529468 C100.934531,37.8504077 104.478281,37.3254077 104.653281,37.4129077 C104.753281,37.5129077 104.653281,39.3129077 104.253281,41.5129077 L104.139584,42.2511193 C103.610067,45.5341923 103.087708,45.7440553 96.4532814,47.6129077 L89.2532814,49.7129077 L90.0532814,59.9129077 C90.8532814,70.7129077 93.6532814,82.5129077 96.8532814,88.9129077 L97.145445,89.4520284 C98.6168881,92.1071882 99.5357513,92.7720824 101.645351,92.8110453 L102.257921,92.8177461 C105.372161,92.8954677 105.537281,93.9169077 102.753281,96.4129077 C99.7532814,99.1129077 96.8532814,105.212908 96.8532814,108.712908 C96.8532814,110.412908 97.8532814,112.912908 99.1532814,114.412908 C101.953281,117.712908 105.153281,117.212908 109.953281,113.012908 L112.953281,110.312908 L110.046336,92.5630736 C108.626607,84.0271326 107.344051,77.103677 107.153281,76.9129077 C107.053281,76.7129077 104.853281,77.1129077 102.253281,77.7129077 C99.6532814,78.4129077 97.2532814,78.5129077 96.7532814,78.1129077 C96.3532814,77.7129077 95.8532814,75.6129077 95.6532814,73.4129077 L95.3532814,69.6129077 L104.353281,67.3129077 L105.277788,67.0662967 C110.264731,65.7055904 118.396,63.0392308 124.290054,60.7347376 L127.072821,59.6379637 C132.591344,57.4772676 137.729752,55.5776136 139.053281,55.3129077 L141.853281,54.6129077 L141.153281,59.4129077 L140.956112,60.9333767 C139.979246,68.2359847 139.319435,69.1744462 135.753281,70.1129077 L133.96877,70.5565675 C125.108102,72.7932567 121.777524,74.1795744 122.153281,75.2129077 C123.353281,78.2129077 128.053281,114.012908 127.553281,116.012908 C126.053281,121.612908 111.453281,133.512908 103.153281,135.712908 C94.3532814,138.112908 83.2532814,133.412908 78.6532814,125.312908 C75.2157814,119.223622 75.4437788,109.372378 79.2425358,101.443454 L79.4532814,101.012908 C81.5532814,96.7129077 82.3532814,93.8129077 82.0532814,91.7129077 L81.9481653,91.0739909 C81.5258465,88.6156512 81.182911,88.6499448 76.5532814,89.1129077 L75.7239854,89.2398133 C73.3595834,89.6131455 71.3222469,90.0335974 71.0532814,90.2129077 L71.0326559,90.2638362 C70.820602,90.9734291 70.3401666,97.7883176 69.9532814,105.912908 L69.3532814,121.012908 L57.9532814,124.412908 L55.7498619,125.088869 C50.3107208,126.78488 45.5356343,128.471731 44.6532814,128.912908 C43.5532814,129.512908 42.5532814,129.812908 42.3532814,129.612908 C42.0724729,129.275938 43.2110256,123.513853 44.723804,117.056337 L45.2139645,114.99446 L45.5419789,113.647182 L45.827519,112.494883 L46.3329689,110.50197 C47.0134376,107.859894 47.6979481,105.370059 48.31269,103.366487 L48.6410349,102.30268 C49.9328268,98.0571226 50.7441905,94.4038168 50.5532814,94.2129077 C50.1532814,93.7129077 40.0532814,97.1129077 36.9532814,98.7129077 L36.7020772,98.8452141 C33.5007132,100.475916 34.4964912,97.6980929 40.1532814,89.2129077 L45.3532814,81.3129077 L53.8532814,80.6129077 L58.0066236,80.243419 C75.5505714,78.6434377 81.9182814,77.5079077 81.4532814,76.1129077 C81.1532814,75.3129077 80.8532814,69.2129077 80.8532814,62.5129077 L80.8072172,58.459555 C80.7037187,51.5631021 80.487953,50.9434046 79.4956727,52.7357502 L79.4532814,52.8129077 C78.7565072,54.0903271 77.216861,59.2786726 75.871891,64.4822441 L75.6497098,65.348979 C74.7696185,68.8111387 74.0016685,72.1838755 73.6532814,74.3129077 L73.6168337,74.4965129 C73.2719371,76.0425374 72.119948,76.4277226 66.0532814,76.8129077 L64.7194871,76.9052819 C60.4305159,77.1718213 58.8532814,76.9329077 58.8532814,76.1129077 C58.8532814,75.4129077 60.8532814,70.3129077 63.2532814,64.8129077 L67.7532814,54.8129077 L65.0532814,55.4129077 C63.6532814,55.7862411 61.8177258,56.4209077 60.7661703,56.9103892 L60.5532814,57.0129077 C59.6088369,57.48513 58.5751949,57.7789571 58.2947766,57.5574208 L58.2532814,57.5129077 C57.9737359,57.3265441 59.4307607,54.188011 61.4107299,50.4436518 L65.8532814,42.1129077 L75.1532814,41.4129077 C79.9808676,41.1232526 88.2576809,40.0878186 93.7731838,39.1166758 L93.7731838,39.1166758 Z" id="Shape" fill="currentColor" fill-rule="nonzero"></path>
    </g>
</svg>