<?xml version="1.0" encoding="UTF-8"?>
<svg width="935px" height="605px" viewBox="0 0 935 605" version="1.1" xmlns="http://www.w3.org/2000/svg" xmlns:xlink="http://www.w3.org/1999/xlink">
  <g id="AnimePlanet" transform="translate(0.4108, 0.6614)" fill="currentColor" fill-rule="nonzero">
    <path d="M194.706553,409.214133 C258.438953,434.981033 333.323553,458.824833 415.004553,478.341433 C510.818053,501.235933 603.956553,515.582633 684.492553,520.973233 C630.345053,572.287733 557.196553,603.745733 476.709553,603.695992 C348.346553,603.616831 238.746553,523.423433 195.168553,410.430933 L194.706553,409.214133 L194.706553,409.214133 Z M180.493553,152.111433 L169.834353,171.892633 C124.964253,178.269583 92.3822526,195.397533 86.4251526,215.971733 C70.3675526,271.827233 227.784153,358.679733 440.962153,409.322733 C654.140153,459.964333 836.459153,455.867633 852.564153,400.013163 C858.288763,380.045363 842.788763,351.420363 809.277053,326.657663 L809.555373,306.317863 L813.887403,308.861813 C884.403003,350.595213 943.033403,400.944813 933.180403,435.155813 C912.421603,507.161713 677.180403,507.487813 422.576403,446.652913 C167.972403,385.817913 -19.1865974,282.579913 1.57240263,210.620913 C11.7189026,175.385513 93.2199026,156.348413 180.493403,152.111433 L180.493403,152.111433 L180.493553,152.111433 Z M477.080553,5.44489344e-05 C643.775553,0.129438569 778.818553,135.339533 778.741586,302.034533 C778.725928,327.137033 775.646823,351.521833 769.857763,374.837233 C767.932963,386.333333 765.324563,397.824533 762.005223,409.264033 C749.260123,410.784543 735.179023,411.684933 719.955423,412.029653 C647.896823,413.659533 551.942423,402.197623 448.491423,377.622453 C345.613423,353.182953 256.061423,320.210353 194.071423,286.403653 C187.784313,282.973963 181.794123,279.553063 176.124123,276.141953 C178.722753,245.357753 185.939553,215.889053 197.079223,188.431953 L197.109496,188.325508 C217.506996,138.162408 249.920996,96.3763076 289.728596,65.0215076 C341.218796,24.2705076 406.313596,-0.0419924311 477.080596,5.44489344e-05 L477.080596,5.44489344e-05 L477.080553,5.44489344e-05 Z M534.797553,257.583433 C532.710643,258.486753 531.045603,260.149843 530.143253,262.238703 C521.333683,283.091203 501.139353,296.795303 478.601253,297.362703 L477.127623,297.380281 C454.073923,297.394929 433.240923,283.634181 424.205723,262.424181 C422.940103,259.438831 420.132483,257.425161 416.943023,257.149771 L416.200835,257.118521 C415.031885,257.115591 413.875635,257.352896 412.802395,257.815787 C410.672515,258.710318 408.985015,260.414417 408.111965,262.553087 C407.238918,264.692737 407.251613,267.090197 408.149074,269.220077 C419.693974,296.331377 446.042674,314.097077 475.401974,314.723977 L477.035764,314.741555 C507.070964,314.735695 534.192964,296.776755 545.922464,269.126355 C546.90098,267.008195 546.978124,264.583385 546.135355,262.407605 C545.293558,260.230845 543.604105,258.490615 541.454695,257.583385 C539.324815,256.696666 536.928325,256.696666 534.798445,257.583385 L534.797468,257.583385 L534.797553,257.583433 Z M620.394553,178.129413 L620.346701,178.129413 C609.067401,178.209534 598.205101,182.415593 589.813501,189.953633 L589.813501,186.136253 C589.78811,183.988793 588.912134,181.938013 587.375021,180.436053 C586.031271,179.122573 584.278341,178.323753 582.421901,178.160663 L581.62112,178.129413 C577.23928,178.205584 573.71096,181.753433 573.66214,186.135273 L573.66214,305.105273 C573.733429,309.264453 576.91409,312.661913 580.98245,313.072073 L581.667997,313.11218 C583.822297,313.120901 585.894557,312.284964 587.440457,310.784962 C588.979517,309.298632 589.837917,307.244922 589.814477,305.105272 L589.814477,262.935372 C597.797877,270.213692 608.090877,274.413872 618.854477,274.820172 L620.395497,274.851422 C647.104497,274.851422 668.755897,253.200022 668.755897,226.491022 C668.755897,199.782022 647.104497,178.129413 620.395497,178.129413 L620.394553,178.129413 Z M370.538553,178.13031 C368.436993,178.118714 366.416483,178.947816 364.929173,180.434143 C363.442843,181.921443 362.613743,183.940983 362.625463,186.043523 L362.625463,189.627503 C354.944803,182.639223 345.060063,178.592303 334.716263,178.167503 L333.161573,178.13031 C320.967273,178.120628 309.317773,183.178243 300.998473,192.094293 C292.896913,200.795463 288.264073,212.141193 287.937973,223.988793 L287.919418,225.606953 C287.355941,250.776853 306.883318,271.744653 331.864718,273.123553 L333.161598,273.177264 C344.095198,273.09328 354.604998,268.926284 362.624498,261.494664 L362.624498,265.264194 C362.67235,269.384314 365.827618,272.754424 369.857898,273.140174 L370.536609,273.176307 C374.857899,273.077674 378.328599,269.584507 378.402819,265.263217 L378.402819,185.996617 C378.402819,181.880407 375.241689,178.503457 371.215319,178.159707 L370.536608,178.13031 L370.538561,178.13031 L370.538553,178.13031 Z M620.394553,194.235433 L620.346701,194.282308 C637.748101,194.613363 651.606501,208.950308 651.345701,226.351608 C651.785154,237.637708 646.013671,248.258808 636.306601,254.032308 C626.600551,259.804768 614.511701,259.804768 604.804601,254.032308 C595.097571,248.258868 589.327101,237.636808 589.765501,226.351608 L589.765501,224.956098 C590.063353,208.149498 603.587801,194.583998 620.393401,194.236398 L620.394553,194.235433 Z M333.162553,193.583433 C350.107853,194.339292 363.276853,208.609833 362.672353,225.560033 C362.749501,233.955543 359.619623,242.062033 353.921373,248.228033 C348.626453,254.096193 341.112773,257.473153 333.208473,257.537603 L333.161598,257.584478 C325.289528,257.500493 317.811998,254.124518 312.541498,248.274908 C306.788568,242.156748 303.620598,234.052208 303.697748,225.654808 C303.623529,217.224148 306.770988,209.083508 312.494628,202.893108 C317.488768,197.367718 324.448728,194.049358 331.851028,193.628458 L333.160598,193.584512 L333.162553,193.583433 Z"></path>
  </g>
</svg>