<?xml version="1.0" standalone="no"?>
<!DOCTYPE svg PUBLIC "-//W3C//DTD SVG 20010904//EN"
 "http://www.w3.org/TR/2001/REC-SVG-20010904/DTD/svg10.dtd">
<svg version="1.0" xmlns="http://www.w3.org/2000/svg"
 width="900.000000pt" height="900.000000pt" viewBox="0 0 900.000000 900.000000"
 preserveAspectRatio="xMidYMid meet">
<metadata>
Created by potrace 1.16, written by Peter Selinger 2001-2019
</metadata>
<g transform="translate(0.000000,900.000000) scale(0.100000,-0.100000)"
fill="currentColor" stroke="none">
<path d="M2945 8986 c-313 -53 -427 -243 -465 -776 -22 -316 -7 -1118 24
-1295 46 -259 168 -387 481 -506 88 -33 127 -42 197 -47 203 -12 385 68 565
248 92 93 142 160 209 282 25 46 43 74 39 63 -44 -121 -56 -351 -30 -555 54
-427 179 -734 366 -893 l39 -34 -29 -27 c-50 -47 -65 -96 -54 -166 5 -33 8
-62 6 -64 -3 -2 -37 14 -76 36 -133 76 -344 158 -404 158 -26 0 -32 6 -47 43
-34 90 -111 203 -202 294 -76 77 -106 99 -175 133 -134 63 -180 73 -391 77
-222 6 -312 -8 -428 -64 -132 -64 -312 -262 -381 -418 -42 -96 -59 -171 -75
-320 l-16 -150 -57 -60 c-171 -178 -410 -574 -482 -795 -27 -83 -32 -113 -36
-240 -6 -172 6 -234 67 -348 91 -169 270 -302 514 -385 124 -41 246 -48 343
-19 136 42 210 97 425 313 109 110 200 199 203 199 3 0 56 -25 118 -55 289
-140 627 -163 1027 -68 147 35 300 144 417 298 35 46 87 147 97 188 3 15 10
27 15 27 4 0 23 -28 41 -62 19 -35 45 -85 60 -113 40 -76 125 -271 155 -355
80 -226 97 -416 49 -558 -66 -198 -223 -415 -525 -727 -370 -381 -529 -644
-529 -876 0 -76 25 -190 56 -250 29 -58 105 -137 165 -172 159 -93 437 -111
632 -40 139 50 202 101 327 268 105 141 118 159 265 375 161 234 261 324 359
322 59 -1 178 -47 269 -103 239 -149 473 -406 757 -834 286 -433 595 -762 822
-876 99 -50 166 -62 308 -56 137 6 250 32 377 86 216 92 314 195 314 327 0 86
-34 145 -168 286 -125 133 -308 341 -467 533 -55 66 -118 140 -140 165 -23 25
-70 79 -106 120 -36 41 -88 100 -116 130 -28 30 -61 67 -75 81 -13 15 -67 62
-119 104 -136 111 -344 326 -419 430 -179 253 -213 451 -116 663 19 41 58 105
86 143 106 144 180 199 844 634 254 167 369 263 440 369 119 177 70 400 -132
604 -72 71 -147 122 -218 147 -73 26 -205 31 -285 10 -139 -35 -355 -157 -536
-301 -64 -51 -313 -261 -324 -274 -36 -40 -437 -364 -525 -424 l-69 -47 -33
38 c-126 145 -264 429 -370 763 -96 301 -217 576 -300 682 -90 115 -227 209
-375 258 l-66 22 46 57 c63 78 136 234 171 367 39 148 45 218 45 519 0 278 -1
306 -22 378 -12 43 -28 92 -36 110 -8 17 -25 57 -36 87 -32 82 -117 239 -160
293 -21 26 -40 51 -42 55 -13 28 -175 164 -228 190 -55 28 -73 32 -142 32 -95
0 -138 -19 -250 -109 -135 -109 -260 -252 -332 -382 -20 -35 -36 -61 -36 -57
0 3 10 46 22 95 20 78 23 113 23 318 0 261 -13 345 -86 570 -52 158 -181 417
-263 526 -79 104 -232 252 -310 298 -142 84 -312 115 -481 87z m246 -106 c328
-62 662 -534 769 -1086 101 -525 -79 -1014 -458 -1243 -91 -54 -149 -72 -253
-78 -87 -5 -105 -3 -180 22 -199 65 -338 154 -395 251 -66 112 -81 223 -95
679 -16 554 5 954 63 1150 43 149 115 242 216 278 97 35 232 46 333 27z m1575
-1377 c195 -95 419 -486 455 -794 14 -127 7 -413 -15 -549 -40 -242 -110 -412
-219 -527 l-50 -53 -122 0 c-127 0 -193 -9 -282 -36 l-53 -17 -54 41 c-162
123 -277 373 -342 749 -33 185 -37 406 -11 521 42 183 130 342 271 491 72 75
208 183 251 199 43 16 107 7 171 -25z m-1551 -1671 c194 -52 329 -175 445
-407 50 -99 57 -105 163 -129 87 -20 239 -82 347 -141 128 -71 147 -88 155
-137 10 -60 80 -265 127 -373 52 -119 81 -177 155 -315 l62 -115 -15 -70 c-24
-118 -85 -227 -179 -321 -44 -45 -97 -89 -115 -99 -19 -10 -37 -21 -40 -25
-10 -14 -120 -50 -217 -70 -144 -31 -427 -39 -560 -15 -149 27 -326 95 -428
164 -16 12 -37 21 -45 21 -24 0 -91 -59 -169 -150 -167 -193 -331 -329 -462
-380 -110 -44 -269 -20 -444 67 -323 162 -440 423 -338 758 66 219 290 594
468 783 l75 80 15 148 c19 181 34 244 81 337 121 242 300 385 508 407 124 13
329 4 411 -18z"/>
<path d="M1298 8420 c-272 -67 -436 -288 -493 -664 -21 -142 -30 -441 -16
-560 35 -304 158 -577 348 -777 88 -92 173 -156 253 -190 46 -20 72 -24 160
-24 94 0 111 3 164 28 78 36 208 166 266 267 82 141 148 334 175 519 18 114
20 430 4 534 -27 178 -89 379 -165 532 -46 93 -67 123 -135 191 -87 88 -170
137 -261 154 -79 15 -215 11 -300 -10z m372 -130 c152 -81 247 -234 334 -537
18 -65 41 -168 50 -230 61 -422 -64 -910 -288 -1122 -152 -143 -326 -126 -511
50 -144 138 -245 307 -311 524 -41 135 -55 237 -55 415 0 486 106 771 331 891
67 35 144 49 265 46 115 -3 123 -4 185 -37z"/>
<path d="M5922 7002 c-11 -11 -33 -58 -48 -104 -26 -76 -28 -96 -28 -238 -1
-200 3 -216 122 -495 106 -248 114 -281 123 -510 10 -261 38 -385 121 -546 46
-91 141 -207 191 -233 32 -18 40 -18 79 -7 183 55 460 310 646 596 75 115 196
241 322 335 128 95 248 222 292 305 62 120 119 345 98 386 -29 54 -179 27
-490 -86 -72 -27 -112 -21 -198 26 -132 73 -144 77 -277 114 -121 34 -141 37
-285 38 -200 3 -166 -20 -406 273 -91 112 -144 153 -202 161 -31 4 -44 1 -60
-15z"/>
<path d="M510 6423 c-204 -31 -377 -176 -442 -371 -59 -175 -71 -277 -65 -555
4 -231 6 -240 63 -427 33 -106 117 -277 180 -367 27 -37 89 -109 140 -159 70
-69 109 -99 170 -130 l79 -39 130 0 c126 0 132 1 199 33 88 41 165 102 222
177 69 89 122 213 155 360 18 81 18 387 0 480 -25 131 -70 280 -116 390 -63
151 -161 334 -210 391 -49 58 -138 141 -174 162 -85 50 -221 72 -331 55z m242
-130 c104 -47 202 -167 302 -370 105 -212 154 -355 182 -536 22 -139 15 -373
-15 -481 -63 -228 -203 -385 -379 -426 -130 -30 -261 19 -390 148 -222 221
-352 560 -352 917 0 524 173 783 515 772 65 -2 103 -9 137 -24z"/>
<path d="M8170 3063 c-195 -30 -398 -120 -575 -253 -130 -98 -165 -156 -165
-275 0 -82 21 -149 69 -218 53 -74 96 -113 150 -132 82 -28 127 -19 351 71 89
36 101 38 200 38 91 0 114 -4 170 -27 94 -40 172 -90 278 -179 90 -75 95 -78
145 -78 135 0 206 116 207 336 0 196 -115 450 -265 582 -60 53 -167 108 -246
127 -59 14 -252 19 -319 8z"/>
</g>
</svg>
