<?xml version="1.0" standalone="no"?>
<!DOCTYPE svg PUBLIC "-//W3C//DTD SVG 1.1//EN" "http://www.w3.org/Graphics/SVG/1.1/DTD/svg11.dtd" >
<svg xmlns="http://www.w3.org/2000/svg" xmlns:xlink="http://www.w3.org/1999/xlink" version="1.1" viewBox="-10 0 1034 1024">
   <path fill="currentColor"
d="M532.294 -95.4893l259.322 286.333l-123.261 175.744c-4.89355 88.2812 58.4326 153.974 189.978 197.078c-90.9297 102.248 -163.77 138.643 -218.522 109.183c-126.655 -110.841 -204.224 -188.206 -232.705 -232.094
c0.00390625 -0.00390625 -3.59375 0.106445 -10.7891 0.328125c0 23.9326 74.9902 101.287 224.972 232.061c2.52148 32.374 -13.4355 56.5947 -47.8721 72.6611c-9.82227 45.1738 -32.6523 74.415 -68.4893 87.7227c0 -84.4111 -26.7168 -149.072 -80.1494 -193.983
c-157.244 -121.596 -235.867 -182.394 -235.867 -182.394s-13.4062 -196.395 -18.2441 -391.822c102.296 22.0303 222.839 -31.5762 361.628 -160.817zM241.717 131.156c0 0 -27.4824 131.717 122.729 195.316c100.141 42.4004 150.16 31.9561 150.058 -31.333
c-18.0928 -23.165 -37.3008 -43.1064 -56.8145 -60.2578c-33.7578 65.6523 -72.8408 87.7559 -117.249 66.3135c-52.9834 -39.2266 -70.9434 -92.3867 -53.8818 -159.482l0.15625 -0.633789c-27.5225 -7.96387 -44.9971 -9.92285 -44.9971 -9.92285z" />
</svg>
