<?xml version="1.0" encoding="UTF-8"?>
<svg width="689px" height="930px" viewBox="0 0 689 930" version="1.1" xmlns="http://www.w3.org/2000/svg" xmlns:xlink="http://www.w3.org/1999/xlink">
  <g id="AnthroArt" transform="translate(0.3721, 0.4253)" fill="currentColor" fill-rule="nonzero">
    <path d="M361.627,1.42108547e-14 L620.949,286.333 L497.688,462.077 C492.79445,550.3582 556.1206,616.051 687.666,659.155 C596.7363,761.403 523.896,797.798 469.144,768.338 C342.489,657.497 264.92,580.132 236.439,536.244 C236.442906,536.240094 232.84525,536.350445 225.6499,536.572125 C225.6499,560.504725 300.6401,637.859125 450.6219,768.633125 C453.14338,801.007125 437.1864,825.227825 402.7498,841.294225 C392.92753,886.468025 370.0975,915.709225 334.2605,929.016925 C334.2605,844.605825 307.5437,779.944925 254.1111,735.033925 C96.8671,613.437925 18.2441,552.639925 18.2441,552.639925 C18.2441,552.639925 4.8379,356.244925 -8.52651283e-14,160.817925 C102.296,182.848225 222.839,129.241725 361.628,1.42108547e-14 L361.627,1.42108547e-14 Z M71.05,226.6453 C71.05,226.6453 43.5676,358.3623 193.779,421.9613 C293.92,464.3617 343.939,453.9174 343.837156,390.6283 C325.7442,367.4633 306.5362,347.5219 287.0225,330.3705 C253.2647,396.0228 214.1817,418.1264 169.7735,396.684 C116.7901,357.4574 98.8301,304.2973 115.8917,237.202 L116.04795,236.568211 C88.52545,228.604341 71.05085,226.6453 71.05085,226.6453 L71.05,226.6453 Z"></path>
  </g>
</svg>