<?xml version="1.0" encoding="UTF-8"?>
<svg width="872px" height="1025px" viewBox="0 0 872 1025" version="1.1" xmlns="http://www.w3.org/2000/svg" xmlns:xlink="http://www.w3.org/1999/xlink">
  <g id="Apple" transform="translate(0, 0.8284)" fill="currentColor" fill-rule="nonzero">
    <path d="M850,344 C778,368 730,468 730,542 C730,638 784,738 872,762 C848,846 780,952 718,996 C692,1014 662,1022 624,1022 C600,1022 572,1018 534,1002 C504,988 476,982 458,982 C442,982 408,992 362,1010 C336,1018 314,1024 300,1024 C258,1024 222,1006 184,976 C66,868 0,710 0,544 C0,382 102,226 260,226 C308,226 342,236 374,252 C404,270 430,276 458,276 C480,276 506,272 530,262 C592,238 632,226 656,226 C716,226 764,244 804,280 C820,296 836,318 850,344 Z M430,232 C430,176 454,126 492,78 C530,36 582,10 638,0 C638,58 618,116 580,162 C536,210 488,232 430,232 Z"></path>
  </g>
</svg>