<?xml version="1.0" standalone="no"?>
<!DOCTYPE svg PUBLIC "-//W3C//DTD SVG 1.1//EN" "http://www.w3.org/Graphics/SVG/1.1/DTD/svg11.dtd" >
<svg xmlns="http://www.w3.org/2000/svg" xmlns:xlink="http://www.w3.org/1999/xlink" version="1.1" viewBox="-10 0 1034 1024">
   <path fill="currentColor"
d="M926 203c-72 24 -120 124 -120 198c0 96 54 196 142 220c-24 84 -92 190 -154 234c-26 18 -56 26 -94 26c-24 0 -52 -4 -90 -20c-30 -14 -58 -20 -76 -20c-16 0 -50 10 -96 28c-26 8 -48 14 -62 14c-42 0 -78 -18 -116 -48c-118 -108 -184 -266 -184 -432
c0 -162 102 -318 260 -318c48 0 82 10 114 26c30 18 56 24 84 24c22 0 48 -4 72 -14c62 -24 102 -36 126 -36c60 0 108 18 148 54c16 16 32 38 46 64zM506 91c0 -56 24 -106 62 -154c38 -42 90 -68 146 -78c0 58 -20 116 -58 162c-44 48 -92 70 -150 70z" />
</svg>
