<?xml version="1.0" standalone="no"?>
<!DOCTYPE svg PUBLIC "-//W3C//DTD SVG 1.1//EN" "http://www.w3.org/Graphics/SVG/1.1/DTD/svg11.dtd" >
<svg xmlns="http://www.w3.org/2000/svg" xmlns:xlink="http://www.w3.org/1999/xlink" version="1.1" viewBox="-10 0 1044 1024">
   <path fill="currentColor"
d="M996.352 643.384c-1.02344 -1.02344 -1.02344 -2.04785 -2.04785 -3.07227v-1.02344c-3.07129 -5.12012 -5.12012 -10.2402 -8.19141 -15.3604v0c-1.02441 -1.02344 -1.02441 -2.04785 -2.04785 -3.07129v0c-1.02441 -1.02441 -1.02441 -2.04883 -2.04883 -3.07227v0
c-1.02344 -1.02441 -1.02344 -2.04785 -2.04785 -3.07227v0c-1.02344 -1.02344 -1.02344 -2.04785 -2.04785 -3.07227v0c-1.02344 -1.02344 -1.02344 -2.04785 -2.04785 -2.04785v0c-1.02441 -1.02344 -1.02441 -1.02344 -2.04785 -2.04785v0l-2.04785 -2.04785v0
c-1.02441 -1.02441 -1.02441 -1.02441 -2.04883 -2.04785v0c-1.02344 -1.02441 -2.04785 -1.02441 -2.04785 -2.04785v0c-2.04785 -1.02441 -3.07129 -2.04883 -5.12012 -2.04883c-15.3594 -5.11914 -35.8398 10.2402 -50.1758 18.4326
c-14.3359 8.19141 -36.8643 17.4082 -39.9355 33.792c-4.09668 15.3594 11.2637 37.8877 20.4795 54.2715c4.09668 8.19238 19.4561 19.4561 25.6006 25.6006c26.624 17.4082 49.1514 36.8633 47.1035 70.6553v0v4.09668s0 4.0957 -1.02344 5.12012
c37.8877 -43.0088 41.9834 -71.6807 45.0557 -109.568c1.02441 -10.2402 -1.02441 -24.5762 -2.04785 -32.7676c-4.09668 -10.2402 -6.14453 -18.4326 -11.2646 -25.6006zM583.68 -54.9844c-1.02344 -1.02344 -1.02344 -2.04785 -2.04785 -3.07129v-1.02441
c-1.02344 -1.02344 -2.04785 -2.04785 -2.04785 -3.07227v0c-1.02441 -1.02344 -2.04785 -2.04785 -3.07227 -2.04785v0c-1.02344 -1.02344 -2.04785 -1.02344 -3.07129 -2.04785v0v0c-9.2168 -3.07227 -17.4082 -3.07227 -25.6006 2.04785l-51.2002 29.6963
c-12.2881 7.16797 -16.3838 22.5283 -9.21582 34.8154l302.08 520.192l95.2324 -55.2959zM894.976 481.592c-1.02344 0 -2.04785 1.02441 -2.04785 1.02441v0c-31.7441 18.4316 -61.4395 35.8398 -93.1836 54.2715l53.248 91.1367l2.04785 4.0957l95.2324 -55.2959z
M451.584 167.224l-96.2559 -53.248l-256 451.584l96.2559 54.2725l2.04785 -4.0957zM491.52 96.5684c7.16895 -12.2881 3.07227 -27.6484 -9.21582 -34.8164l-51.2002 -28.6719c-9.21582 -5.12012 -19.4551 -4.0957 -26.623 1.02344v0
c-1.02441 1.02441 -2.04883 1.02441 -3.07227 2.04883v0c-1.02441 1.02344 -2.04785 2.04785 -2.04785 3.07129v1.02441c-1.02441 1.02441 -1.02441 2.04785 -2.04883 3.07227l-28.6719 51.1992l96.2568 53.248zM34.8164 786.744l150.527 -150.528
c-31.7441 -18.4316 -63.4873 -35.8398 -96.2559 -54.2715zM205.824 326.968v0l2.04785 -3.07129h-205.824l-2.04785 109.567h145.408zM649.216 326.968l-2.04785 -2.04785l-258.048 -1.02344l-2.04785 3.07129l-59.3926 107.521h384zM834.56 324.92l65.5361 110.592h123.904
v-110.592h-189.44z" />
</svg>
