<?xml version="1.0" encoding="UTF-8"?>
<svg width="1025px" height="880px" viewBox="0 0 1025 880" version="1.1" xmlns="http://www.w3.org/2000/svg" xmlns:xlink="http://www.w3.org/1999/xlink">
  <g id="AppStore" transform="translate(0.8153, 0.0684)" fill="currentColor" fill-rule="nonzero">
    <path d="M996.352,711.728794 C995.32856,710.705354 995.32856,709.680944 994.30415,708.656524 L994.30415,707.633084 C991.23286,702.512964 989.18403,697.392884 986.11274,692.272684 L986.11274,692.272684 C985.08833,691.249244 985.08833,690.224834 984.06489,689.201394 L984.06489,689.201394 C983.04048,688.176984 983.04048,687.152564 982.01606,686.129124 L982.01606,686.129124 C980.99262,685.104714 980.99262,684.081274 979.96821,683.056854 L979.96821,683.056854 C978.94477,682.033414 978.94477,681.009004 977.92036,679.984584 L977.92036,679.984584 C976.89692,678.961144 976.89692,677.936734 975.87251,677.936734 L975.87251,677.936734 C974.8481,676.913294 974.8481,676.913294 973.82466,675.888884 L973.82466,675.888884 L971.77681,673.841034 L971.77681,673.841034 C970.7524,672.816624 970.7524,672.816624 969.72798,671.793184 L969.72798,671.793184 C968.70454,670.768774 967.68013,670.768774 967.68013,669.745334 L967.68013,669.745334 C965.63228,668.720924 964.60884,667.696504 962.56001,667.696504 C947.20061,662.577364 926.72021,677.936704 912.38421,686.129104 C898.04831,694.320514 875.51991,703.537304 872.44871,719.921104 C868.35203,735.280504 883.71241,757.808804 892.92821,774.192604 C897.02489,782.384984 912.38431,793.648704 918.52881,799.793204 C945.15281,817.201404 967.68021,836.656504 965.63231,870.448504 L965.63231,870.448504 L965.63231,874.545184 C965.63231,874.545184 965.63231,878.640884 964.60887,879.665304 C1002.49657,836.656504 1006.59227,807.984604 1009.66457,770.097304 C1010.68898,759.857104 1008.64016,745.521104 1007.61672,737.329704 C1003.52004,727.089504 1001.47219,718.897104 996.35212,711.729104 L996.352,711.728794 Z M583.68,13.3603938 C582.65656,12.3369538 582.65656,11.3125438 581.63215,10.2891038 L581.63215,9.26469381 C580.60871,8.24125381 579.5843,7.21684381 579.5843,6.19242381 L579.5843,6.19242381 C578.55989,5.16898381 577.53645,4.14457381 576.51203,4.14457381 L576.51203,4.14457381 C575.48859,3.12113381 574.46418,3.12113381 573.44074,2.09672381 L573.44074,2.09672381 L573.44074,2.09672381 C564.22394,-0.975546193 556.03254,-0.975546193 547.84014,4.14457381 L496.63994,33.8408738 C484.35184,41.0088438 480.25614,56.3691738 487.42412,68.6562738 L789.50412,588.848274 L884.73652,533.552374 L583.68,13.3603938 Z M894.976,549.936794 C893.95256,549.936794 892.92815,550.961204 892.92815,550.961204 L892.92815,550.961204 C861.18405,569.392804 831.48865,586.801004 799.74455,605.232704 L852.99255,696.369404 L855.0404,700.465104 L950.2728,645.169204 L894.976,549.936794 Z M451.584,235.568794 L355.3281,182.320794 L99.3281,633.904794 L195.584,688.177294 L197.63185,684.081594 L451.584,235.568794 Z M491.52,164.913194 C498.68895,152.625094 494.59227,137.264794 482.30418,130.096794 L431.10398,101.424894 C421.88816,96.3047738 411.64888,97.3291938 404.48098,102.448334 L404.48098,102.448334 C403.45657,103.472744 402.43215,103.472744 401.40871,104.497164 L401.40871,104.497164 C400.3843,105.520604 399.36086,106.545014 399.36086,107.568454 L399.36086,108.592864 C398.33645,109.617274 398.33645,110.640714 397.31203,111.665134 L368.64013,162.864334 L464.89693,216.112334 L491.52,164.913194 Z M34.8164,855.088794 L185.3434,704.560794 C153.5993,686.129194 121.8561,668.720994 89.0875,650.289294 L34.8164,855.088794 Z M205.824,395.312794 L205.824,395.312794 L207.87185,392.241504 L2.04785,392.241504 L0,501.808504 L145.408,501.808504 L205.824,395.312794 Z M649.216,395.312794 L647.16815,393.264944 L389.12015,392.241504 L387.0723,395.312794 L327.6797,502.833794 L711.6797,502.833794 L649.216,395.312794 Z M834.56,393.264794 L900.0961,503.856794 L1024.0001,503.856794 L1024.0001,393.264794 L834.56,393.264794 L834.56,393.264794 Z"></path>
  </g>
</svg>