<?xml version="1.0" encoding="UTF-8"?>
<svg width="736px" height="833px" viewBox="0 0 736 833" version="1.1" xmlns="http://www.w3.org/2000/svg" xmlns:xlink="http://www.w3.org/1999/xlink">
  <g id="Archiveorg" transform="translate(0.5383, 0.4253)" fill="currentColor" fill-rule="nonzero">
    <path d="M0.00116406,793.303 L0.00116406,832.0003 L735.256164,832.0003 L735.256164,793.303 L0.00116406,793.303 L0.00116406,793.303 Z M29.023,735.256 L29.023,783.6281 L706.231,783.6281 L706.231,735.256 L29.023,735.256 Z M54.858,212.83402 L46.43808,216.56552 L42.7457,282.15632 L38.69687,388.85132 L38.69687,490.79532 L42.7457,617.20332 L47.4498,702.82052 L59.5611,706.23068 L99.939,706.23068 L111.3804,702.82052 L112.051298,617.20332 L116.090358,490.11632 L116.090358,388.16332 L112.051298,282.15432 L108.012238,216.91312 L99.940948,212.83402 L54.858,212.83402 Z M635.317,212.83402 L626.90196,216.56552 L623.192,282.15632 L619.15782,388.85132 L619.15782,490.79532 L623.192,617.20332 L627.9127,702.82052 L640.0279,706.23068 L680.4058,706.23068 L691.855,702.82052 L692.520039,617.20332 L696.554219,490.11632 L696.554219,388.16332 L692.520039,282.15432 L688.486839,216.91312 L680.405789,212.83402 L635.317,212.83402 Z M228.984,212.83402 L220.5797,216.56552 L216.87072,282.15632 L212.83752,388.85132 L212.83752,490.79532 L216.87072,617.20332 L221.5758,702.82052 L233.6979,706.23068 L274.0807,706.23068 L285.5299,702.82052 L286.194939,617.20332 L290.234979,490.11632 L290.234979,388.16332 L286.194939,282.15432 L282.154899,216.91312 L274.081659,212.83402 L228.984,212.83402 Z M451.503,212.83402 L443.08894,216.56552 L439.37996,282.15632 L435.34676,388.85132 L435.34676,490.79532 L439.37996,617.20332 L444.09187,702.82052 L456.20517,706.23068 L496.58797,706.23068 L508.03717,702.82052 L508.702209,617.20332 L512.742249,490.11632 L512.742249,388.16332 L508.702209,282.15432 L504.662169,216.91312 L496.588929,212.83402 L451.503,212.83402 Z M29.023,125.7676 L29.023,193.4903 L706.231,193.4903 L706.231,125.7676 L29.023,125.7676 Z M0,86.0898 L21.2842,106.4189 L701.6662,106.4189 L715.9084,81.3496 L360.6634,0 L0,86.0898 Z"></path>
  </g>
</svg>