<?xml version="1.0" encoding="UTF-8"?>
<svg width="931px" height="629px" viewBox="0 0 931 629" version="1.1" xmlns="http://www.w3.org/2000/svg" xmlns:xlink="http://www.w3.org/1999/xlink">
  <g id="ArchiveOfOurOwn" transform="translate(0.6764, 0.6614)" fill="currentColor" fill-rule="nonzero">
    <path d="M713.17072,232.038964 C686.54082,275.280164 642.54472,298.715764 597.32972,303.855364 C433.65872,322.644464 363.17872,143.234364 463.01772,43.4223645 C552.57822,-46.1381355 737.24572,8.45846448 734.37072,155.633364 C733.905876,179.242764 727.86584,208.138264 713.20082,232.037664 L713.17072,232.038964 Z M463.01872,153.514964 C468.62419,292.675964 647.57072,296.014964 683.25972,194.199564 C714.85542,104.379264 639.81542,31.7775645 559.66472,43.4235645 C500.85812,51.8737645 460.89812,98.0192645 463.01822,153.514564 L463.01822,153.515541 L463.01872,153.514964 Z M895.28172,81.8429645 C906.31592,76.7023445 922.34622,65.8126645 927.80612,72.3175745 C935.96628,81.9874945 909.94672,90.5841745 898.76612,98.0187745 C863.22122,121.163274 831.74172,145.500174 802.84622,177.269774 C765.79152,218.245374 727.54542,269.385974 704.10892,325.171774 C728.15482,326.362204 821.17092,331.211814 843.53192,382.525274 C861.53682,423.646374 828.54652,466.016474 792.42062,484.167274 C818.12182,500.196574 862.43622,520.758074 860.02612,557.668274 C853.84057,648.419274 716.94612,644.469074 659.44612,584.588174 C650.06526,573.407474 645.70982,566.002274 649.77522,562.197574 C655.70002,557.057924 662.46662,569.486634 675.94022,580.668274 C684.74002,587.898744 690.60522,590.338194 698.15702,594.403674 C748.54182,620.889074 827.32802,609.998374 832.78702,563.708374 C835.19718,542.246474 807.08582,526.652674 785.59662,517.127274 C766.40032,508.386064 727.05172,502.141874 727.83592,480.217074 C728.561506,458.726874 748.07712,462.821574 767.76562,455.126274 C789.11032,446.645804 806.65042,420.161474 806.47652,411.826474 C806.331989,376.745374 726.79102,377.529574 681.83552,376.136974 C671.26422,399.746374 663.56992,423.646774 655.08942,459.801974 C649.62946,482.337174 649.19489,533.129074 626.04942,538.298074 C597.61972,544.657454 586.87462,519.827374 569.79842,500.051974 C546.79842,473.247274 514.12852,436.511974 494.61382,413.831274 C377.08782,452.716974 285.75682,494.911374 174.90982,557.668274 C124.06022,586.388974 95.01922,619.232774 76.43422,610.027674 C60.98502,602.594084 63.27992,585.517874 70.6559,575.673174 C85.9596,555.548174 106.5202,528.307974 124.6705,502.607774 C147.9312,469.763974 165.4723,438.022774 177.901,407.936874 C204.6471,342.566774 225.527,225.215874 234.9078,181.045874 C238.39218,165.160174 247.0172,167.599574 247.481,175.324194 C248.52592,191.674794 238.21733,254.575194 236.3013,267.585894 C219.3423,375.266894 206.3316,438.342894 158.3863,513.497894 C243.3873,460.877794 344.4483,396.610894 452.4183,360.281894 C342.6173,234.159894 226.4563,114.688894 64.9053,39.3288945 C40.0762,25.2741945 -5.68434189e-14,22.2536945 -5.68434189e-14,12.7282945 C-5.68434189e-14,2.27419448 30.2305,10.4343445 40.3945,13.0476305 C132.6562,36.1628305 226.8625,95.8992305 296.0365,146.42963 C379.0619,207.06533 478.5545,299.96563 515.9295,343.20563 C541.3397,334.4068 604.4158,325.52103 659.0395,324.01033 C688.0795,262.76423 757.7758,168.35433 844.4615,113.14933 C860.3463,103.04383 876.9576,90.1786305 895.2525,81.8729305 L895.28172,81.8429645 Z M562.51072,394.315964 C579.00582,410.955564 591.29002,430.471264 605.63572,448.476164 C612.25681,425.620664 621.20212,401.431264 630.40722,380.405864 C606.50682,383.570904 580.80562,388.275984 562.48142,394.316064 L562.510717,394.316064 L562.51072,394.315964 Z"></path>
  </g>
</svg>