<?xml version="1.0" standalone="no"?>
<!DOCTYPE svg PUBLIC "-//W3C//DTD SVG 1.1//EN" "http://www.w3.org/Graphics/SVG/1.1/DTD/svg11.dtd" >
<svg xmlns="http://www.w3.org/2000/svg" xmlns:xlink="http://www.w3.org/1999/xlink" version="1.1" viewBox="-10 0 1034 1024">
   <path fill="currentColor"
d="M144.38 748.303l-0.00683594 38.6973h735.255v-38.6973h-735.248zM173.395 690.256v48.3721h677.208v-48.3721h-677.208zM199.23 167.837l-8.41992 3.72852l-3.69238 65.5908l-4.04883 106.695v101.944l4.04883 126.408l4.7041 85.6172l12.1113 3.41016h40.3779
l11.4414 -3.41016l0.670898 -85.6172l4.03906 -127.087v-101.953l-4.03906 -106.009l-4.03906 -65.2412l-8.07129 -4.0791zM779.689 167.837l-8.41504 3.72852l-3.70996 65.5908l-4.03418 106.695v101.944l4.03418 126.408l4.7207 85.6172l12.1152 3.41016h40.3779
l11.4492 -3.41016l0.665039 -85.6172l4.03418 -127.087v-101.953l-4.03418 -106.009l-4.0332 -65.2412l-8.08105 -4.0791zM373.356 167.837l-8.4043 3.72852l-3.70898 65.5908l-4.0332 106.695v101.944l4.0332 126.408l4.70508 85.6172l12.1221 3.41016h40.3828
l11.4492 -3.41016l0.665039 -85.6172l4.04004 -127.087v-101.953l-4.04004 -106.009l-4.04004 -65.2412l-8.07324 -4.0791zM595.875 167.837l-8.41406 3.72852l-3.70898 65.5908l-4.0332 106.695v101.944l4.0332 126.408l4.71191 85.6172l12.1133 3.41016h40.3828
l11.4492 -3.41016l0.665039 -85.6172l4.04004 -127.087v-101.953l-4.04004 -106.009l-4.04004 -65.2412l-8.07324 -4.0791zM173.395 80.7676v67.7227h677.208v-67.7227h-677.208zM144.372 41.0898l21.2842 20.3291h680.382l14.2422 -25.0693l-355.245 -81.3496z" />
</svg>
