<?xml version="1.0" standalone="no"?>
<!DOCTYPE svg PUBLIC "-//W3C//DTD SVG 1.1//EN" "http://www.w3.org/Graphics/SVG/1.1/DTD/svg11.dtd" >
<svg xmlns="http://www.w3.org/2000/svg" xmlns:xlink="http://www.w3.org/1999/xlink" version="1.1" viewBox="-10 0 1034 1024">
   <path fill="currentColor"
d="M760.497 289.019c-26.6299 43.2412 -70.626 66.6768 -115.841 71.8164c-163.671 18.7891 -234.151 -160.621 -134.312 -260.433c89.5605 -89.5605 274.228 -34.9639 271.353 112.211c-0.464844 23.6094 -6.50488 52.5049 -21.1699 76.4043zM510.345 210.495
c5.60547 139.161 184.552 142.5 220.241 40.6846c31.5957 -89.8203 -43.4443 -162.422 -123.595 -150.776c-58.8066 8.4502 -98.7666 54.5957 -96.6465 110.091v0.000976562zM942.608 138.823c11.0342 -5.14062 27.0645 -16.0303 32.5244 -9.52539
c8.16016 9.66992 -17.8594 18.2666 -29.04 25.7012c-35.5449 23.1445 -67.0244 47.4814 -95.9199 79.251c-37.0547 40.9756 -75.3008 92.1162 -98.7373 147.902c24.0459 1.19043 117.062 6.04004 139.423 57.3535c18.0049 41.1211 -14.9854 83.4912 -51.1113 101.642
c25.7012 16.0293 70.0156 36.5908 67.6055 73.501c-6.18555 90.751 -143.08 86.8008 -200.58 26.9199c-9.38086 -11.1807 -13.7363 -18.5859 -9.6709 -22.3906c5.9248 -5.13965 12.6914 7.28906 26.165 18.4707c8.7998 7.23047 14.665 9.66992 22.2168 13.7354
c50.3848 26.4854 129.171 15.5947 134.63 -30.6953c2.41016 -21.4619 -25.7012 -37.0557 -47.1904 -46.5811c-19.1963 -8.74121 -58.5449 -14.9854 -57.7607 -36.9102c0.725586 -21.4902 20.2412 -17.3955 39.9297 -25.0908
c21.3447 -8.48047 38.8848 -34.9648 38.7109 -43.2998c-0.144531 -35.0811 -79.6855 -34.2969 -124.641 -35.6895c-10.5713 23.6094 -18.2656 47.5098 -26.7461 83.665c-5.45996 22.5352 -5.89453 73.3271 -29.04 78.4961
c-28.4297 6.35938 -39.1748 -18.4707 -56.251 -38.2461c-23 -26.8047 -55.6699 -63.54 -75.1846 -86.2207c-117.526 38.8857 -208.857 81.0801 -319.704 143.837c-50.8496 28.7207 -79.8906 61.5645 -98.4756 52.3594
c-15.4492 -7.43359 -13.1543 -24.5098 -5.77832 -34.3545c15.3037 -20.125 35.8643 -47.3652 54.0146 -73.0654c23.2607 -32.8438 40.8018 -64.585 53.2305 -94.6709c26.7461 -65.3701 47.626 -182.721 57.0068 -226.891
c3.48438 -15.8857 12.1094 -13.4463 12.5732 -5.72168c1.04492 16.3506 -9.26367 79.251 -11.1797 92.2617c-16.959 107.681 -29.9697 170.757 -77.915 245.912c85.001 -52.6201 186.062 -116.887 294.032 -153.216c-109.801 -126.122 -225.962 -245.593 -387.513 -320.953
c-24.8291 -14.0547 -64.9053 -17.0752 -64.9053 -26.6006c0 -10.4541 30.2305 -2.29395 40.3945 0.319336c92.2617 23.1152 186.468 82.8516 255.642 133.382c83.0254 60.6357 182.518 153.536 219.893 196.776c25.4102 -8.79883 88.4863 -17.6846 143.11 -19.1953
c29.04 -61.2461 98.7363 -155.656 185.422 -210.861c15.8848 -10.1055 32.4961 -22.9707 50.791 -31.2764zM609.837 451.296c16.4951 16.6396 28.7793 36.1553 43.125 54.1602c6.62109 -22.8555 15.5664 -47.0449 24.7715 -68.0703
c-23.9004 3.16504 -49.6016 7.87012 -67.9258 13.9102h0.0292969z" />
</svg>
