<?xml version="1.0" encoding="UTF-8"?>
<svg width="131px" height="131px" viewBox="0 0 131 131" version="1.1" xmlns="http://www.w3.org/2000/svg" xmlns:xlink="http://www.w3.org/1999/xlink">
    <title>ArchLinux</title>
    <g id="ArchLinux" stroke="none" stroke-width="1" fill="none" fill-rule="evenodd">
        <path d="M65.47,5 C60.085,18.203 56.837,26.839 50.841,39.649 C54.517,43.545 59.029,48.083 66.357,53.208 C58.479,49.966 53.105,46.711 49.09,43.334 C41.417,59.345 29.395,82.152 5,125.985 C24.174,114.916 39.037,108.091 52.889,105.487 C52.2633769,102.794708 51.9579278,100.037946 51.979,97.274 L52.002,96.66 C52.306,84.376 58.696,74.93 66.266,75.57 C73.836,76.212 79.72,86.696 79.416,98.98 C79.358,101.292 79.097,103.516 78.642,105.578 C92.343,108.258 107.047,115.065 125.962,125.985 C122.232,119.119 118.903,112.929 115.724,107.035 C110.717,103.153 105.494,98.102 94.84,92.633 C102.163,94.536 107.406,96.732 111.493,99.185 C79.17,39.008 76.553,31.012 65.47,5 Z" id="Path" fill="currentColor"></path>
    </g>
</svg>