<?xml version="1.0" encoding="UTF-8"?>
<svg width="158px" height="158px" viewBox="0 0 158 158" version="1.1" xmlns="http://www.w3.org/2000/svg" xmlns:xlink="http://www.w3.org/1999/xlink">
    <title>Artconomy</title>
    <g id="Artconomy" stroke="none" stroke-width="1" fill="none" fill-rule="evenodd">
        <path d="M37.2907501,144.381633 C36.3985611,144.723994 34.9563001,144.2839 34.0717981,143.399409 C33.1904161,142.518031 32.0210931,140.129634 31.4733031,138.091899 C30.7547661,135.418971 30.8464561,132.854793 31.8024651,128.886897 C32.5312941,125.861903 34.3896311,120.368464 35.9321041,116.679271 C38.7365971,109.971644 38.7365971,109.971644 35.5765171,106.739428 C33.8384721,104.961718 32.4164331,102.455119 32.4164331,101.169207 C32.4164331,98.9060467 32.6165291,98.8497647 38.6664331,99.4111887 C44.9164331,99.9911757 44.9164331,99.9911757 51.1090371,89.6439847 C54.5149671,83.9530357 60.7520121,74.3670677 64.9691371,68.3418447 C69.1862621,62.3166227 76.2995961,52.6935527 80.7765331,46.9572397 C85.2534771,41.2209417 93.6414311,31.6427407 99.4164331,25.6723577 C105.446172,19.4386087 111.285558,14.3183697 113.132314,13.6456397 C115.998785,12.6014657 116.6126,12.7225597 118.781469,14.7600957 C120.119756,16.0173597 122.436941,19.7695107 123.930776,23.0982157 C125.994634,27.6971077 126.520513,30.1392927 126.120748,33.2686407 C125.831396,35.5336867 124.229818,41.8868967 122.561666,47.3868967 C120.893514,52.8868967 118.358099,62.0485637 116.927419,67.7461577 C115.496725,73.4437507 113.456106,82.3340177 112.39269,87.5022987 C110.459203,96.8991797 110.459203,96.8991797 113.953817,100.143039 C115.875845,101.927157 117.987508,104.843112 118.646398,106.622928 C119.414022,108.696505 119.498083,110.196101 118.880392,110.797511 C118.3066,111.356181 116.096624,111.39796 113.420278,110.900737 C110.617376,110.38 108.695066,110.436061 108.315878,111.049601 C107.981329,111.590907 107.144781,118.863246 106.456869,127.210338 C105.722273,136.123927 104.701978,142.919703 103.984472,143.677989 C103.122121,144.589351 102.050115,144.696635 100.33962,144.04275 C99.0068721,143.533275 97.1460931,142.260814 96.2045721,141.215053 C95.2630441,140.169307 93.8005501,137.65713 92.9545721,135.632411 C91.8967641,133.100734 91.4164331,128.621821 91.4164331,121.289882 C91.4164331,110.628657 91.4164331,110.628657 83.1664331,111.403926 C78.6289351,111.830317 70.4164331,112.450923 64.9164331,112.783046 C54.9164331,113.386897 54.9164331,113.386897 47.9164331,126.919215 C44.0664351,134.361995 40.4643531,141.196254 39.9118131,142.10644 C39.3592701,143.016642 38.1797921,144.040477 37.2907501,144.381633 Z M70.9461491,98.4983927 C74.7798061,98.1079817 81.2891521,97.3214057 85.4113591,96.7504447 C89.5335751,96.1794767 93.1671581,95.2902327 93.4860051,94.7743327 C93.8048451,94.2584327 94.5719051,90.5852077 95.1905801,86.6116127 C95.8092551,82.6380187 97.3014431,74.8868967 98.5065511,69.3868967 C99.7116601,63.8868967 101.733221,55.7868987 102.998899,51.3868967 C105.300146,43.3868967 105.300146,43.3868967 102.607229,46.3868967 C101.126127,48.0368907 96.2759911,54.1118947 91.8291451,59.8868967 C87.3822991,65.6618987 80.1288581,75.5618997 75.7103941,81.8868967 C71.2919291,88.2118937 66.8441061,94.6966957 65.8263451,96.2975567 C63.9758741,99.2082237 63.9758741,99.2082237 70.9461491,98.4983927 Z" id="Shape" fill="currentColor"></path>
    </g>
</svg>