<?xml version="1.0" encoding="UTF-8"?>
<svg width="1031px" height="1025px" viewBox="0 0 1031 1025" version="1.1" xmlns="http://www.w3.org/2000/svg" xmlns:xlink="http://www.w3.org/1999/xlink">
  <g id="Artfol" transform="translate(0.5975, 0)" fill="currentColor" fill-rule="nonzero">
    <path d="M264.046534,1024.0149 C200.625634,1024.0149 199.364934,1020.93189 191.872734,1019.52369 C187.292654,1018.66334 181.896174,1017.5481 179.880534,1017.04713 C177.865884,1016.54615 172.319014,1015.37721 167.555334,1014.45143 C162.791664,1013.5237 154.097334,1011.38014 148.235034,1009.68581 C142.371754,1007.99245 132.778034,1005.10183 126.915734,1003.26393 C121.052454,1001.42604 114.007534,999.001229 111.259534,997.877209 C108.511534,996.753189 104.164804,995.163339 101.599374,994.344009 C99.0349237,993.52565 95.4372637,992.183849 93.6052337,991.362559 C91.7732037,990.542247 88.9245737,989.606699 87.2761337,989.287359 C85.6267237,988.967047 83.4724237,988.378179 82.4890237,987.976809 C81.4860937,987.568606 80.4079737,986.411379 80.0359037,985.343019 C79.6032867,984.101809 79.5954737,982.626219 80.0144193,981.107669 C80.3689113,979.826419 81.4724293,978.126219 82.4675393,977.329349 C83.4626493,976.532479 85.8259393,975.093999 87.7185193,974.132079 C89.6120693,973.171141 93.3601193,970.917239 96.0466393,969.125239 C98.7341393,967.333249 102.881599,964.621329 105.263439,963.098869 C107.646249,961.577389 112.891369,958.274649 116.922639,955.761959 C120.953909,953.249269 128.149239,948.275629 132.912839,944.711159 C138.129639,940.807839 144.630639,935.087139 149.259539,930.324459 C153.487079,925.974849 158.338639,920.407469 160.041739,917.951459 C161.744839,915.495449 164.696039,910.847939 166.599359,907.624359 C168.504629,904.399749 171.044669,899.514009 172.244869,896.765959 C173.445069,894.017909 175.324949,889.520839 176.421629,886.772799 C177.519289,884.024749 179.613039,879.078459 181.076899,875.780599 C182.540769,872.481769 185.215569,867.235679 187.024169,864.121399 C188.830809,861.006169 192.614009,855.460269 195.430419,851.796199 C198.247799,848.132139 202.186279,843.140929 204.183349,840.705399 C206.181399,838.268879 210.103269,834.221999 212.898189,831.711259 C215.693109,829.200519 220.124749,825.532549 222.748779,823.561849 C225.372809,821.591149 230.068119,818.315759 233.181379,816.284509 C236.295639,814.252279 242.292709,811.032559 246.506579,809.128259 C250.720449,807.222989 256.866979,804.747399 260.164779,803.624349 C263.462579,802.501299 268.859119,800.979819 272.156979,800.244469 C275.454829,799.508141 281.988029,798.547199 286.674579,798.108729 C291.362079,797.671229 297.507579,797.495448 300.332779,797.719081 C303.157979,797.942714 308.166759,798.409511 311.464579,798.754241 C314.762399,799.098971 319.560279,799.978851 322.124779,800.711271 C324.690209,801.442716 329.786889,803.137051 333.450979,804.476891 C337.115069,805.816731 342.868949,808.215171 346.237079,809.806971 C349.605209,811.398771 355.750749,814.957361 359.895279,817.714201 C364.038829,820.471041 370.576879,825.386081 374.423579,828.636101 C378.271239,831.887081 383.310299,836.778681 385.620879,839.508201 C387.931429,842.236721 391.080839,846.118551 392.618929,848.134181 C394.157019,850.148831 396.967559,854.197661 398.865999,857.128321 C400.763459,860.058981 403.437289,865.006251 404.804479,868.121521 C406.172639,871.235781 407.805459,875.283631 408.432409,877.115661 C409.060339,878.947691 410.188269,882.694761 410.939249,885.442811 C411.690229,888.190861 412.787879,892.838321 413.378699,895.769911 C413.969519,898.702531 414.625769,904.997451 414.837679,909.761111 C415.155062,916.898811 414.968538,919.881211 413.777129,926.722011 C412.982207,931.288421 411.441189,938.482711 410.355249,942.712211 C409.269309,946.940731 406.844509,953.999311 404.970479,958.395811 C403.096459,962.793271 400.342549,968.489611 398.850359,971.054011 C397.359149,973.619441 394.644309,977.966121 392.817159,980.714171 C390.990009,983.462221 386.178489,989.009091 382.123759,993.039371 C378.069069,997.068671 372.655009,1001.74933 370.091559,1003.43777 C367.528109,1005.12621 363.331789,1007.72976 360.766359,1009.2239 C358.201909,1010.71804 353.296629,1013.16824 349.866959,1014.66824 C346.437289,1016.16824 340.290789,1018.23367 336.208759,1019.25906 C330.257589,1020.75418 327.472429,1024.01883 264.050559,1024.01883 L264.046534,1024.0149 Z M536.295534,1024.0149 C493.536734,1024.0149 491.686134,1020.69556 487.847334,1018.76295 C484.614914,1017.13307 481.190104,1014.69361 478.687174,1012.23951 C476.487954,1010.08228 473.581704,1006.67701 472.227214,1004.6731 C470.871744,1002.66919 468.516274,997.907479 466.992834,994.091099 C464.239904,987.201449 464.219394,987.090119 464.185214,978.317699 C464.15494,970.814769 464.37955,968.798169 465.675444,964.936799 C466.514311,962.435819 468.357084,958.140899 469.768214,955.392849 C471.178374,952.644799 473.629544,948.747339 475.214504,946.731719 C476.798484,944.717069 479.577784,941.926059 481.389304,940.531519 C483.201804,939.136009 486.781884,936.919219 489.346334,935.605739 C491.911764,934.293239 496.109034,932.499289 498.673484,931.621359 C502.568014,930.287379 505.481104,929.916279 516.328784,929.376239 C523.473314,929.019794 534.567084,928.436786 540.980184,928.080339 C547.393274,927.722917 554.072984,927.127214 555.825884,926.757099 C557.579794,926.386982 561.626664,925.923115 564.820024,925.725849 C568.012404,925.528583 573.025104,924.915302 575.956724,924.358659 C578.887384,923.803971 583.384454,922.928969 585.949884,922.414319 C588.514334,921.898694 594.210624,920.828379 598.608084,920.032479 C603.004564,919.235604 608.551444,918.025639 610.932284,917.343999 C613.314124,916.662358 617.511384,915.526619 620.259434,914.822519 C623.007484,914.117441 627.504554,912.943609 630.252594,912.215099 C633.000644,911.485607 640.495794,909.096939 646.908794,906.906509 C653.320904,904.715099 661.565994,901.742449 665.230094,900.298109 C668.894194,898.853769 676.388294,895.647719 681.885394,893.173109 C687.381484,890.698499 695.477194,886.868419 699.873694,884.662369 C704.271154,882.456319 711.701794,878.506119 716.386394,875.883069 C721.071944,873.260999 726.634394,870.155529 728.748694,868.980729 C730.862954,867.806899 735.530924,866.084249 739.123694,865.149679 C743.595374,863.989519 747.410804,863.453389 751.218394,863.453389 C754.966444,863.453389 758.954724,864.002217 763.440094,865.136009 C767.100254,866.060814 773.333644,867.886009 777.290694,869.188739 C781.247724,870.492449 786.583664,872.114519 789.149094,872.792259 C791.713544,873.469993 796.660814,874.957299 800.141294,876.098899 C803.622744,877.241479 808.419614,878.599879 810.801494,879.122339 C813.183334,879.643823 818.730204,881.131129 823.126694,882.428979 C827.524154,883.726829 834.419694,885.672139 838.449894,886.756129 C842.481144,887.839139 847.426454,889.215109 849.443094,889.814719 C851.458714,890.415305 855.055394,891.428979 857.438214,892.069599 C859.820054,892.711201 864.317124,894.022719 867.430404,894.984639 C870.544664,895.94753 878.340604,898.274679 884.752704,900.158469 C891.164814,902.041279 898.769304,904.463159 901.650204,905.540309 C904.531104,906.617459 907.678524,907.407499 908.645324,907.296169 C910.070124,907.13113 910.440244,906.700466 910.604304,905.018829 C910.721492,903.807889 909.842585,900.483669 908.491024,897.023709 C907.217584,893.766869 905.223444,887.653589 904.058404,883.439709 C902.894344,879.225839 901.406064,873.830329 900.751764,871.448509 C900.096491,869.065699 898.754694,864.419209 897.769344,861.121409 C896.783016,857.823559 894.988094,851.526679 893.780084,847.130209 C892.572074,842.732749 890.919734,836.887009 890.108204,834.138009 C889.295704,831.388989 887.567184,825.544259 886.264454,821.145809 C884.962694,816.749329 883.218554,811.026709 882.388474,808.431009 C881.558394,805.835309 880.213674,801.187849 879.401174,798.103909 C878.587697,795.020899 877.402154,790.849029 876.764454,788.833399 C876.127735,786.816799 874.941214,782.703519 874.124804,779.688869 C873.310351,776.676169 871.888474,771.579489 870.966604,768.362669 C870.044729,765.146849 868.681444,760.267939 867.938284,757.519869 C867.03887,754.200529 866.589654,750.511079 866.598444,746.526669 C866.608209,742.697569 867.116999,738.536439 868.004694,735.010069 C868.771296,731.973939 870.097464,727.776669 870.955864,725.682919 C871.814264,723.589169 875.314264,716.630189 878.733204,710.217119 C882.153124,703.805009 886.686324,694.960319 888.807404,690.562819 C890.929474,686.166339 893.922634,679.720019 895.457794,676.239619 C896.993924,672.758169 899.113064,667.360709 900.165804,664.247419 C901.218534,661.133159 902.977324,656.335309 904.072054,653.587219 C905.166784,650.839129 906.799594,646.191709 907.700964,643.260119 C908.602334,640.328529 910.092564,635.681999 911.016394,632.933019 C911.940222,630.184969 913.727334,624.039469 914.986124,619.274819 C916.244914,614.511149 917.741984,608.665419 918.312294,606.283619 C918.88163,603.900809 919.827914,599.254319 920.412884,595.956519 C920.997854,592.658719 922.038864,586.962379 922.724404,583.298319 C923.410927,579.634259 924.454874,573.187919 925.044714,568.974119 C925.634554,564.760319 926.406044,557.564919 926.756624,552.983919 C927.109163,548.403839 927.650179,536.262219 927.961704,526.002519 C928.274204,515.742719 928.416782,503.000519 928.28104,497.687119 C928.145298,492.374619 927.578892,482.330719 927.02323,475.368719 C926.466589,468.406809 925.6912,460.610919 925.29764,458.046419 C924.906038,455.480989 924.346468,451.434119 924.05643,449.052279 C923.766392,446.670439 923.05643,442.246619 922.47928,439.222199 C921.900178,436.197789 920.82498,430.501499 920.09061,426.563999 C919.357212,422.627479 918.40897,418.056189 917.98807,416.407799 C917.567172,414.758389 916.81522,411.910729 916.31815,410.078699 C915.82108,408.246669 914.07499,402.100179 912.43924,396.420499 C910.80252,390.740809 908.07596,382.195899 906.37772,377.432199 C904.67948,372.668499 902.45194,366.373599 901.4246,363.440999 C900.39823,360.510339 897.90507,354.214439 895.88358,349.450799 C893.86307,344.686149 890.52909,337.341399 888.4744,333.127599 C886.42069,328.913729 883.18631,322.617799 881.2869,319.136399 C879.38749,315.655929 876.0496,309.659839 873.86991,305.811199 C871.69022,301.964519 868.23612,296.117839 866.19511,292.818999 C864.15409,289.521149 861.09355,284.874659 859.39531,282.492799 C857.69609,280.109989 855.43633,276.518189 854.37187,274.509399 C853.05546,272.023069 851.84746,270.650019 850.58964,270.211549 C849.08866,269.687135 848.50663,269.809205 847.47929,270.865846 C846.783001,271.58069 845.47538,274.003546 844.57402,276.249636 C843.671676,278.495726 841.74297,282.093386 840.28691,284.244756 C838.83086,286.395146 836.19609,290.553346 834.42851,293.484016 C832.66191,296.415656 829.52031,301.812136 827.44413,305.476216 C825.36795,309.140296 822.13944,314.687156 820.27225,317.801416 C818.40409,320.915676 815.2537,326.012356 813.2742,329.127616 C811.29373,332.242846 807.50174,338.388356 804.84842,342.785816 C802.19608,347.182296 797.45487,354.827816 794.31422,359.774116 C791.17262,364.721386 786.80055,371.766316 784.59742,375.430316 C782.39527,379.094376 778.88941,384.745746 776.80738,387.987916 C774.72535,391.231076 770.87183,397.227176 768.2439,401.313116 C765.61597,405.399056 761.22242,412.189116 758.48413,416.402916 C755.7439,420.617756 752.27124,426.069906 750.76636,428.520116 C749.26245,430.970316 747.08863,434.443946 745.93628,436.239846 C744.78296,438.033796 742.073,442.174416 739.91089,445.440046 C737.74878,448.706646 734.00269,454.354106 731.58277,457.990846 C729.16382,461.626586 725.98511,466.496706 724.52027,468.814046 C723.05445,471.132406 719.57496,476.251546 716.78589,480.191946 C713.9978,484.133356 706.73609,494.782746 700.64719,503.856946 C694.55735,512.932146 685.94509,525.674346 681.50459,532.172346 C677.06514,538.670396 671.77217,546.385246 669.74089,549.315946 C667.70964,552.247586 664.34343,556.894066 662.25847,559.643046 C660.17351,562.391096 656.28288,567.907696 653.61101,571.899846 C650.93913,575.893006 646.73699,581.889106 644.27605,585.225046 C641.81414,588.560006 637.89031,594.137156 635.56023,597.618646 C633.22918,601.099116 629.62761,606.195796 627.55828,608.943846 C625.48992,611.691896 622.32488,616.006346 620.52703,618.530756 C618.72918,621.054196 613.73504,627.877436 609.43133,633.689956 C605.1286,639.504406 598.08273,648.932156 593.77603,654.643056 C589.46841,660.353996 583.72423,668.072756 581.01143,671.795356 C578.29854,675.518986 573.20186,682.295356 569.68623,686.854956 C566.16963,691.415506 562.24287,696.411596 560.95967,697.956556 C559.67744,699.502456 556.74678,703.266126 554.44795,706.320816 C552.14912,709.376476 549.00166,713.438976 547.45283,715.348156 C545.90498,717.258316 542.83857,720.978036 540.63935,723.615736 C538.44111,726.252456 535.44306,729.812026 533.97822,731.524916 C532.51142,733.239756 529.66377,736.688976 527.64912,739.192886 C525.6335,741.697766 520.70478,747.517106 516.69602,752.127486 C512.68726,756.737866 503.24292,766.767086 495.70972,774.415586 C488.17652,782.063046 479.34932,790.541586 476.09642,793.255386 C472.84251,795.969256 466.69701,800.496596 462.43922,803.315886 C458.12574,806.172336 451.89332,809.585416 448.36692,811.023896 C443.43919,813.034636 440.83176,813.685026 436.58962,813.965306 C432.01345,814.267064 430.3611,814.069798 426.26252,812.737766 C423.57893,811.865696 419.56428,809.937966 417.33967,808.456516 C415.11604,806.974096 409.4842,802.475066 404.82597,798.459446 C400.16774,794.443826 392.88647,788.882296 388.64727,786.101046 C384.40704,783.319796 377.29867,778.673316 372.85337,775.773946 C368.40708,772.875506 362.79187,768.555196 360.37287,766.174336 C357.95387,763.793476 355.12678,760.380386 354.08869,758.592306 C353.04963,756.803246 351.50373,753.419456 350.65119,751.072776 C349.787909,748.693866 348.91681,744.380396 348.68537,741.332546 C348.455878,738.323756 348.58869,733.911646 348.981268,731.530786 C349.37287,729.148946 350.128728,725.251486 350.660958,722.869656 C351.193185,720.486846 352.388498,715.689966 353.319158,712.209456 C354.248846,708.728006 356.827948,701.452656 359.050608,696.041456 C361.274238,690.630326 365.229318,681.935956 367.840648,676.720156 C370.452948,671.504336 375.291818,662.291456 378.593548,656.245556 C381.897258,650.199656 387.297648,640.755356 390.596448,635.259256 C393.896248,629.763166 398.424568,622.339356 400.661848,618.763156 C402.899128,615.186956 407.383528,608.141056 410.629618,603.106956 C413.875708,598.073756 419.792708,589.006356 423.781018,582.960456 C427.770278,576.914556 435.882618,565.032756 441.811318,556.556156 C447.739048,548.080566 454.693118,538.186056 457.265418,534.569856 C459.837688,530.954626 463.459758,525.857946 465.315218,523.246656 C467.169708,520.634356 471.085728,515.121656 474.016388,510.996656 C476.948028,506.870676 483.485138,497.915556 488.541788,491.094356 C493.598438,484.273156 501.695088,473.497656 506.530088,467.146156 C511.366028,460.794596 516.971488,453.383456 518.987088,450.676456 C521.001738,447.969426 524.449978,443.471376 526.649198,440.681336 C528.847438,437.891296 532.549588,433.011416 534.877718,429.835636 C537.205848,426.659856 540.368928,422.564156 541.907018,420.732116 C543.446078,418.900086 546.627718,414.852236 548.978308,411.737976 C551.327918,408.624696 554.610148,404.316096 556.273228,402.167666 C557.935338,400.017276 561.093538,396.080756 563.291778,393.419616 C565.490018,390.758476 569.112088,386.370786 571.338658,383.669616 C573.566198,380.969416 577.608188,375.911806 580.322058,372.430316 C583.035928,368.949846 587.208778,363.693986 589.596468,360.751616 C591.985138,357.809236 595.696078,353.264316 597.841588,350.652016 C599.988068,348.040686 605.792758,341.003576 610.740988,335.015316 C615.688258,329.028016 621.412888,322.029016 623.460688,319.464516 C625.508538,316.899086 628.548578,313.186196 630.215568,311.213536 C631.881588,309.240876 635.648188,304.892246 638.583728,301.553376 C641.520248,298.214506 645.866928,293.123686 648.243888,290.243776 C650.621818,287.361936 656.220448,280.826786 660.688188,275.717376 C665.154988,270.607996 671.151088,263.716376 674.012388,260.401976 C676.873688,257.087576 685.035788,247.883376 692.149088,239.950776 C699.261388,232.017186 707.983088,222.228076 711.529988,218.197876 C715.076868,214.166626 720.650108,208.002576 723.914788,204.498676 C727.179468,200.994776 731.417718,196.417626 733.333738,194.325776 C735.248778,192.233976 738.922608,188.248626 741.496828,185.469326 C744.071048,182.690026 747.691168,179.208586 749.541748,177.734946 C752.257568,175.573816 752.868898,174.720296 752.704838,173.315996 C752.552494,172.009356 751.342538,170.786696 747.838628,168.398026 C745.274178,166.649976 739.063238,162.599196 734.034928,159.397046 C729.006618,156.194896 722.862028,152.342356 720.376728,150.835526 C717.893328,149.329666 713.160908,146.601146 709.863028,144.774976 C706.565178,142.949776 699.520228,139.400956 694.206828,136.892166 C688.894328,134.384356 681.098428,130.859936 676.884528,129.061116 C672.670628,127.262296 665.475328,124.291586 660.895228,122.459556 C656.315148,120.626546 649.569028,118.131436 645.905028,116.915606 C642.241028,115.699776 635.794628,113.653886 631.580828,112.372636 C627.366958,111.090406 617.773228,108.562086 610.261528,106.754476 C602.750788,104.945886 592.706828,102.807206 587.943128,101.999596 C583.178478,101.191979 577.182428,100.114826 574.617928,99.603116 C572.052498,99.092374 568.156018,98.542566 565.956798,98.379486 C563.757578,98.216406 560.311288,97.760345 558.294688,97.366786 C556.279068,96.972255 548.784918,96.335536 541.638488,95.951746 C534.493958,95.56698 524.299588,95.079676 518.987088,94.867766 C513.673608,94.655852 503.929488,94.8277269 497.333788,95.250578 C490.738088,95.6734291 481.894288,96.161711 477.679488,96.334558 C473.465618,96.50741 467.835738,97.090417 465.168788,97.629478 C462.500818,98.169517 459.021328,98.609947 457.432458,98.609947 C455.844568,98.609947 451.580898,99.178306 447.957848,99.871667 C444.333828,100.565026 438.371908,101.627527 434.706848,102.231047 C431.041808,102.835539 425.946108,103.899017 423.380648,104.594327 C420.816198,105.289639 416.468538,106.310147 413.720488,106.861907 C410.972438,107.414641 406.475368,108.439057 403.728298,109.139247 C400.980248,109.839442 395.582788,111.389247 391.736098,112.583587 C387.888438,113.776947 382.192148,115.590427 379.077898,116.611907 C375.962668,117.633387 370.540788,119.503507 367.029098,120.768157 C363.516398,122.033777 357.070118,124.636317 352.704898,126.554287 C348.338688,128.472257 341.469498,131.553307 337.439298,133.401947 C333.408048,135.251557 326.363098,138.669527 321.783098,141.000577 C317.203018,143.330657 310.157098,147.066987 306.126898,149.303307 C302.096698,151.539627 296.400338,154.949787 293.468698,156.878507 C290.538038,158.807217 285.441358,162.115807 282.143498,164.229097 C278.844668,166.343357 273.044868,170.356047 269.252898,173.148047 C265.460928,175.940047 259.253878,180.622657 255.458998,183.553347 C251.664118,186.484037 245.023498,192.023077 240.701198,195.862947 C236.378898,199.702817 227.782298,207.797547 221.596698,213.851247 C215.412128,219.905937 205.644598,230.106147 199.890598,236.518247 C194.136598,242.930347 185.782198,253.049447 181.324198,259.004547 C176.866198,264.959647 171.792948,271.774047 170.051698,274.147147 C168.310488,276.521167 163.857358,283.342457 160.156188,289.303347 C156.455018,295.264237 151.663998,303.141247 149.510688,306.805347 C147.358348,310.469407 143.486278,317.665747 140.907168,322.795547 C138.328058,327.925347 134.973578,334.970347 133.453068,338.451747 C131.932558,341.932217 129.200138,348.378507 127.379828,352.774947 C125.560488,357.172407 122.854438,363.918547 121.366158,367.765147 C119.877878,371.611747 117.858348,377.309097 116.876898,380.423347 C115.896429,383.537607 114.108348,389.233897 112.905218,393.081547 C111.702098,396.928227 109.884708,403.523947 108.868108,407.737747 C107.850528,411.952587 106.483338,417.948647 105.828068,421.062947 C105.172795,424.178177 104.155218,429.574667 103.565368,433.055147 C102.974548,436.536597 102.080018,442.082487 101.574158,445.380347 C101.068298,448.678207 100.348568,453.325657 99.9774777,455.707447 C99.6054077,458.089287 98.8368577,463.335377 98.2733777,467.366647 C97.5927137,472.216257 97.1083377,482.807047 96.8397877,498.679147 C96.5907647,513.392047 96.7313897,528.973047 97.2040457,538.985747 C97.6278737,547.963287 98.2811957,557.257247 98.6561957,559.639047 C99.0311957,562.020847 99.7753357,566.817757 100.308536,570.299247 C100.842716,573.780697 101.752876,579.476007 102.331976,582.957447 C102.911078,586.437917 103.600526,590.934987 103.866156,592.950607 C104.131781,594.965257 105.768496,602.609787 107.502876,609.938907 C109.238226,617.268007 111.683536,626.561907 112.939396,630.592207 C114.194276,634.623457 116.401306,641.518007 117.844666,645.915407 C119.289006,650.311887 121.656186,656.908607 123.104436,660.572607 C124.551706,664.235697 127.248966,670.832407 129.096626,675.228807 C130.945256,679.626267 134.000926,686.672207 135.886666,690.885007 C137.774366,695.098877 140.755806,701.245407 142.514596,704.543207 C144.274366,707.841057 147.140576,713.087157 148.885686,716.202407 C150.631776,719.316667 153.446236,723.964127 155.141546,726.528607 C156.837836,729.094037 158.709906,732.242477 159.300726,733.523727 C159.893499,734.805957 161.337836,737.477827 162.511666,739.461227 C163.686466,741.443647 165.397406,745.042277 166.315376,747.456347 C167.232368,749.870407 168.216746,754.111617 168.503856,756.882127 C168.790965,759.651657 168.791942,764.898727 168.507762,768.541327 C168.09077,773.884097 167.537059,776.239567 165.637642,780.731727 C164.343692,783.795207 162.083932,788.141887 160.617132,790.391887 C159.150332,792.641887 156.511662,795.857707 154.755802,797.538367 C152.999942,799.218057 150.022402,801.692667 148.137642,803.038367 C146.253852,804.383097 143.036082,806.252237 140.987252,807.189737 C138.938422,808.128214 135.233342,809.474897 132.755802,810.183877 C129.544862,811.101846 126.170842,811.471967 121.015602,811.471967 C116.567362,811.471967 112.205052,811.063764 109.687502,810.413377 C107.436522,809.831346 103.495122,808.370407 100.929692,807.166307 C98.365242,805.962207 94.018562,803.275687 91.270512,801.195607 C88.467782,799.077447 84.939462,795.599907 83.238282,793.284477 C81.568362,791.011037 78.419922,786.462207 76.243162,783.175077 C74.066402,779.887947 71.664062,775.990507 70.908202,774.513947 C70.152343,773.038357 67.995112,769.282497 66.116212,766.167267 C64.237312,763.052037 59.908202,754.961167 56.498052,748.184867 C53.087892,741.410457 48.540042,732.116467 46.390652,727.532567 C44.242212,722.948587 41.147492,716.049167 39.512722,712.202467 C37.878932,708.354807 35.342802,701.909467 33.876982,697.878267 C32.411162,693.847067 30.637722,689.050147 29.935572,687.218067 C29.233422,685.385987 27.433622,680.289357 25.937522,675.891867 C24.440452,671.495387 22.803732,666.097917 22.299822,663.899667 C21.795912,661.701417 20.501972,657.353767 19.423842,654.240487 C18.345722,651.126227 16.119152,643.031487 14.473642,636.252187 C12.829112,629.472887 10.867192,621.079287 10.114262,617.596887 C9.361332,614.115437 8.275392,608.401577 7.702152,604.899587 C7.129886,601.397637 6.661132,596.961107 6.661132,595.038257 C6.661132,593.115407 6.216796,589.536307 5.67578,587.081227 C5.133788,584.627127 4.36035,579.621267 3.95801,575.957227 C3.55567,572.293187 2.87403,566.447457 2.44434,562.965027 C1.731449,557.188657 -4.84057239e-14,556.210147 -4.84057239e-14,511.272627 C-4.84057239e-14,466.336127 1.77832,466.917127 2.84277,459.241427 C3.443356,454.912327 4.11621,448.934827 4.33789,445.957227 C4.560546,442.978707 5.168945,438.931837 5.69434,436.963087 C6.217778,434.994337 6.651371,431.774607 6.655278,429.809767 C6.659185,427.844927 7.149419,423.048047 7.744148,419.149567 C8.338875,415.253087 9.807628,407.867367 11.009768,402.736467 C12.211918,397.606587 13.952148,390.261867 14.877928,386.414167 C15.803708,382.566467 17.191408,377.319437 17.960938,374.754967 C18.731446,372.189537 19.780278,368.591877 20.294918,366.759847 C20.80859,364.927817 22.919918,358.181727 24.985348,351.769647 C27.049798,345.357537 29.746088,337.413247 30.975578,334.115347 C32.207028,330.816517 34.166988,325.570427 35.332028,322.456147 C36.497068,319.340917 38.788078,313.644627 40.419918,309.797947 C42.051758,305.951267 44.194328,301.011817 45.179688,298.824347 C46.166016,296.635867 49.931638,288.991337 53.548828,281.835047 C57.166988,274.679777 61.865238,265.676847 63.990228,261.829147 C66.115228,257.980517 68.979488,252.994187 70.355458,250.745147 C71.731428,248.496107 74.035148,244.749057 75.474598,242.417027 C76.915028,240.084997 79.479478,236.079137 81.172838,233.513707 C82.867178,230.949257 85.473618,226.901407 86.966788,224.519567 C88.459958,222.137727 92.002918,217.042027 94.840808,213.193367 C97.678698,209.346687 100.896468,204.999027 101.991198,203.534187 C103.085928,202.068367 105.544908,198.741217 107.457018,196.140637 C109.368148,193.540047 113.256818,188.637707 116.098618,185.246137 C118.941388,181.853557 124.977528,174.987337 129.510718,169.986337 C134.044898,164.985357 142.663018,155.912137 148.661118,149.820337 C154.659168,143.729517 164.611318,134.159237 170.777318,128.549837 C176.942358,122.940457 184.632818,116.230537 187.867118,113.639637 C191.100518,111.048817 195.799738,107.341787 198.308518,105.403307 C200.819258,103.464827 204.071218,100.977527 205.537038,99.877917 C207.002858,98.777327 210.750908,96.016587 213.866138,93.742177 C216.981368,91.467767 222.977468,87.341787 227.191338,84.572257 C231.405208,81.801747 237.549738,77.813467 240.846638,75.709957 C244.145468,73.605467 250.290978,69.804687 254.504838,67.264647 C258.718698,64.724607 267.563438,59.938477 274.159138,56.630847 C280.754838,53.323217 287.799738,49.736317 289.815338,48.662097 C291.829988,47.586897 296.177638,45.451157 299.474518,43.916007 C302.773348,42.380847 307.570218,40.293937 310.134718,39.280267 C312.700148,38.265617 319.895458,35.422847 326.124918,32.962887 C332.354378,30.502927 340.149318,27.647457 343.447218,26.619137 C346.745068,25.589837 352.590768,23.693357 356.439418,22.403317 C360.286098,21.115227 366.881818,19.017577 371.095618,17.746087 C375.310458,16.473627 382.504818,14.541007 387.085818,13.451167 C391.665898,12.361327 397.363118,10.986327 399.744018,10.394527 C402.124918,9.802727 408.121948,8.574217 413.069218,7.662107 C418.015508,6.750974 423.562418,5.999017 425.394418,5.992187 C427.225468,5.9843745 430.335828,5.550781 432.304578,5.026367 C434.274308,4.502929 438.322158,3.888667 441.298718,3.663087 C444.276258,3.436525 449.711808,2.767579 453.375818,2.176757 C457.039828,1.585935 469.065318,0.544917 460.326988,0.873047 C460.123863,0.8808595 481.941288,0 510.338688,0 C561.971488,0 562.727388,1.09668 568.800588,1.88477 C572.372858,2.346684 577.844538,3.00782 580.959788,3.35059 C584.075038,3.69336 588.721508,4.40625 591.286888,4.93262 C593.852268,5.45899 598.198998,6.0625 600.947048,6.27344 C603.695098,6.48438 609.091578,7.254885 612.939248,7.98535 C616.785928,8.717772 622.182408,9.92187 624.930448,10.66406 C627.678488,11.40625 632.026148,12.45215 634.590608,12.98926 C637.156038,13.526369 641.444128,14.57715 644.118928,15.32422 C646.793728,16.070314 650.693148,17.27149 652.780058,17.99414 C654.867948,18.71582 659.274198,20.03516 662.572048,20.92676 C665.869898,21.81836 674.114048,24.49512 680.893348,26.87305 C687.671668,29.25196 695.916748,32.24414 699.213648,33.52246 C702.510528,34.80176 708.358178,37.18848 712.205848,38.8291 C716.052528,40.46875 722.051548,43.12109 725.535948,44.72265 C729.020328,46.32519 735.626748,49.48925 740.217548,51.75488 C744.808368,54.01953 752.902148,58.17383 758.200948,60.9834 C763.499778,63.79395 769.486148,67.13574 771.500748,68.4082 C773.515348,69.68066 778.779068,73.02148 783.195048,75.83398 C787.611068,78.6455 795.107148,83.583 799.850348,86.80568 C804.594488,90.02834 811.003648,94.64357 814.093548,97.06058 C818.574998,100.56839 820.300578,101.52347 822.633588,101.78714 C825.554488,102.116242 825.564248,102.109406 831.039838,96.52737 C834.054488,93.4551 839.262498,88.59475 842.611138,85.72947 C845.958798,82.86521 851.533988,78.06736 854.997838,75.06927 C858.460728,72.07318 862.902138,68.34466 864.865998,66.78607 C866.829868,65.2265 871.135528,61.81732 874.433378,59.2099 C877.732208,56.6015 883.424588,52.33099 887.085678,49.71869 C890.746768,47.10639 895.242908,44.04681 897.078838,42.91889 C898.913798,41.79194 902.514388,39.63178 905.079818,38.11811 C907.645248,36.60346 911.991928,34.33881 914.739978,33.08295 C917.488028,31.82709 921.742908,30.12983 924.197008,29.31147 C927.618888,28.17085 929.742908,27.88569 933.328848,28.08881 C937.196038,28.30756 938.491938,28.698185 940.844468,30.35151 C942.408918,31.4521 944.595448,33.81733 945.703848,35.60932 C947.628648,38.7226 947.718498,39.19721 947.718498,46.25382 C947.718498,50.31632 947.330803,55.58683 946.856193,57.96472 C946.380607,60.34265 945.388423,64.83874 944.650143,67.953 C943.910885,71.06726 942.666743,75.86511 941.885493,78.6122 C941.10522,81.36025 939.739013,85.25868 938.850333,87.27333 C937.963614,89.28895 936.703853,92.73622 936.050533,94.93544 C935.398189,97.13466 933.227293,102.83095 931.222413,107.59364 C929.219483,112.35731 925.931393,120.15124 923.917723,124.91594 C921.904053,129.67961 917.768313,138.82414 914.725343,145.23524 C911.683353,151.64735 907.401123,160.17474 905.209723,164.18344 C902.796633,168.59457 901.099373,172.5643 900.910893,174.24004 C900.615971,176.85723 900.827885,177.26641 904.837653,181.85332 C907.168703,184.51934 910.665773,188.63359 912.610113,190.99687 C914.553473,193.35917 918.150153,197.96757 920.605233,201.24007 C923.058353,204.51155 926.265393,208.88948 927.732183,210.96956 C929.198003,213.04964 932.076913,217.02522 934.128663,219.8055 C936.181393,222.58577 938.429443,225.90706 939.125733,227.18636 C939.822022,228.46663 942.788823,233.17562 945.719483,237.65116 C948.651123,242.12772 952.360103,248.12476 953.961673,250.97636 C955.564213,253.8289 958.335693,258.7664 960.122803,261.94806 C961.909913,265.12872 965.177493,271.08185 967.385503,275.17656 C969.593513,279.27127 973.235113,286.56226 975.478273,291.37776 C977.720463,296.19319 981.326903,304.18146 983.490973,309.12776 C985.655043,314.07406 988.795663,321.56916 990.471443,325.78396 C992.148203,329.99783 995.093513,338.09256 997.020273,343.77126 C998.946053,349.45095 1001.03492,355.89626 1001.6648,358.09546 C1002.29468,360.29466 1003.36695,363.74194 1004.04664,365.75757 C1004.72731,367.77319 1006.20777,372.86987 1007.33668,377.08377 C1008.46559,381.29767 1009.96559,386.84354 1010.66969,389.40897 C1011.37379,391.97342 1012.88453,397.96463 1014.02809,402.72147 C1015.17067,407.47928 1016.2527,412.87577 1016.43043,414.71367 C1016.60914,416.55156 1017.16871,420.00469 1017.67066,422.38652 C1018.17359,424.76836 1019.0691,429.41582 1019.65992,432.71362 C1020.25074,436.01142 1020.99,441.25757 1021.29957,444.37282 C1021.6111,447.48708 1022.1941,453.55837 1022.59547,457.86502 C1022.99782,462.17068 1023.78492,471.01342 1024.34645,477.51832 C1025.03298,485.46754 1025.35817,497.09542 1025.33669,512.99492 C1025.31618,529.24982 1025.00075,539.35432 1024.32692,545.30642 C1023.78883,550.07009 1023.34742,555.91682 1023.3484,558.29862 C1023.34938,560.68042 1022.87672,566.22635 1022.29664,570.62382 C1021.71656,575.0203 1020.67066,582.66582 1019.97047,587.61212 C1019.27125,592.55939 1018.21266,599.30452 1017.61891,602.60232 C1017.02516,605.90012 1015.83668,612.04666 1014.97926,616.26052 C1014.12086,620.47439 1012.37867,627.96952 1011.10817,632.91672 C1009.83669,637.86399 1008.18922,644.15992 1007.44606,646.90792 C1006.7029,649.65592 1005.02614,655.35226 1003.71754,659.56512 C1002.4109,663.77996 999.655041,672.32392 997.592541,678.55342 C995.531021,684.78389 992.111091,694.22632 989.992931,699.53972 C987.874771,704.85222 984.756601,712.49772 983.065201,716.52802 C981.372821,720.55927 977.224381,729.40302 973.845471,736.18232 C969.154061,745.59736 967.656021,749.25852 967.501721,751.68722 C967.381604,753.57492 967.841565,756.55343 968.633561,759.01632 C969.367936,761.29952 970.866961,766.16378 971.964611,769.82882 C973.063241,773.49386 975.041761,780.38842 976.361091,785.15112 C977.679451,789.91577 979.674571,796.96072 980.793711,800.80732 C981.912851,804.65498 983.805431,811.10032 984.999761,815.13152 C986.195071,819.16277 987.989021,825.37562 988.987061,828.93912 C989.985108,832.50357 991.827881,838.87369 993.079831,843.09632 C994.332761,847.31898 996.096431,853.39712 997.002681,856.60412 C997.908931,859.81112 999.097411,863.93322 999.647211,865.76525 C1000.19701,867.59728 1001.08959,870.74572 1001.63256,872.76037 C1002.17553,874.77502 1004.72338,883.62077 1007.29662,892.41467 C1009.86889,901.20862 1012.79271,910.80237 1013.79564,913.73307 C1014.79857,916.66471 1016.00267,920.90885 1016.46947,923.16471 C1016.93822,925.42155 1018.04174,929.31803 1018.92357,931.82584 C1019.80541,934.33268 1021.3474,939.68326 1022.35228,943.71354 C1023.35521,947.74479 1024.87767,953.19889 1025.73412,955.83464 C1026.58959,958.47038 1027.90014,962.9489 1028.6433,965.78679 C1029.62768,969.54656 1029.99486,973.05046 1029.99486,978.69399 C1029.99486,984.0602 1029.62084,987.86782 1028.77806,991.07579 C1028.10912,993.62364 1026.39036,997.93712 1024.9597,1000.65977 C1023.52904,1003.38145 1021.10032,1007.317 1019.56517,1009.40586 C1018.02904,1011.49277 1015.44798,1014.11094 1013.83177,1015.22324 C1012.21556,1016.33554 1009.19407,1018.05039 1007.11888,1019.03379 C1004.08763,1020.46836 1003.34447,1023.99473 981.518281,1023.99473 C959.732181,1023.99473 957.070981,1020.775 952.045581,1019.56993 C948.565111,1018.73595 944.217461,1017.58751 942.385421,1017.01622 C940.553381,1016.44493 936.408861,1015.37071 933.175461,1014.62657 C929.943041,1013.88243 924.545581,1012.42149 921.183261,1011.3795 C917.821931,1010.33751 912.671541,1008.83751 909.740861,1008.04552 C906.810201,1007.2545 902.761371,1006.1422 900.746721,1005.57482 C898.732071,1005.00646 895.583631,1004.01037 893.751601,1003.359 C891.919571,1002.70959 888.321911,1001.66466 885.756481,1001.03771 C883.192031,1000.41076 878.994761,999.17248 876.429331,998.28771 C873.864881,997.401968 868.395151,995.77501 864.273131,994.6715 C860.151061,993.56701 854.223331,991.94201 851.102231,991.05724 C847.979181,990.172474 842.656921,988.68126 839.275131,987.74474 C835.893291,986.80724 827.729231,984.49962 821.132531,982.61583 C814.536831,980.73106 807.192131,978.63438 804.810231,977.95665 C802.427421,977.277939 797.481131,975.83946 793.817031,974.75938 C790.152931,973.6793 784.455701,972.01329 781.158831,971.05723 C777.861961,970.10117 771.864881,968.22715 767.833631,966.89219 C763.802381,965.55821 759.693011,964.33653 758.699841,964.17735 C757.403941,963.969342 754.865861,964.981061 749.705701,967.76524 C745.751601,969.89805 740.568981,972.59532 738.187101,973.76036 C735.804291,974.9254 730.858001,977.28966 727.193901,979.01524 C723.529841,980.7418 717.083501,983.58946 712.869701,985.34629 C708.655901,987.10312 702.060101,989.79258 698.212501,991.32481 C694.365821,992.85606 689.500591,994.55333 687.402901,995.09434 C685.304271,995.635356 681.706611,996.91563 679.407781,997.93516 C677.108951,998.95664 673.128481,1000.33457 670.564031,1000.99864 C667.998601,1001.6627 663.614811,1003.03868 660.820871,1004.05723 C658.026921,1005.07676 652.330641,1006.72032 648.162671,1007.7125 C643.994701,1008.70468 638.035671,1010.23984 634.920471,1011.12461 C631.805271,1012.00938 625.660701,1013.46836 621.264271,1014.3668 C616.868761,1015.26426 605.849271,1016.44688 604.227171,1016.99473 C602.605071,1017.54258 598.578731,1018.28282 595.280881,1018.64024 C591.983031,1018.99864 587.186151,1019.64903 584.620681,1020.08848 C582.055251,1020.52696 570.644081,1023.99375 536.297481,1023.99375 L536.295534,1024.0149 Z M226.899534,674.156899 C224.306764,674.110024 220.134884,673.809243 217.630004,673.486001 C215.125124,673.163735 210.776484,672.131511 207.969844,671.191081 C205.162224,670.250651 200.917114,668.655921 198.535274,667.647131 C196.153434,666.639321 192.017694,664.387361 189.342894,662.646151 C186.669064,660.904941 182.306764,657.329741 179.649534,654.701811 C176.991334,652.073881 172.737424,647.087551 170.196414,643.620711 C167.655394,640.151961 164.947394,635.955671 164.177864,634.293561 C163.409309,632.631451 162.281384,629.621681 161.671024,627.605081 C161.061649,625.590431 159.961064,621.171491 159.228644,617.785741 C158.324347,613.610941 157.895634,609.136331 157.895634,603.885341 C157.895634,598.518151 158.302861,594.375571 159.222784,590.387341 C159.954229,587.222301 161.050904,583.134411 161.662234,581.302381 C162.273564,579.470351 163.590944,576.262341 164.590944,574.173471 C165.590944,572.084601 167.794064,568.292611 169.487424,565.746711 C171.179804,563.200811 175.105584,558.535771 178.210084,555.381511 C181.332154,552.210611 186.524534,547.894211 189.825284,545.727211 C193.108484,543.571941 198.284264,540.850261 201.328184,539.680331 C204.372104,538.510401 209.028384,536.992831 211.674884,536.308261 C214.322344,535.624667 219.420974,534.861971 223.005984,534.614901 C226.871214,534.348299 231.852664,534.476628 235.243284,534.926424 C238.388794,535.344393 243.932734,536.611974 247.564584,537.743804 C251.195444,538.874664 256.114384,540.873684 258.496184,542.184234 C260.878024,543.495754 264.625094,545.767244 266.824304,547.233064 C269.023524,548.699864 272.882894,551.867834 275.402424,554.274084 C277.920974,556.681314 281.170974,560.248694 282.623124,562.200844 C284.075274,564.152014 286.269604,567.450844 287.498124,569.529944 C288.727614,571.608064 290.743244,575.856114 291.977614,578.971354 C293.211014,582.086584 294.801834,587.182294 295.512774,590.297554 C296.430743,594.323924 296.796954,598.368844 296.780892,604.288754 C296.760823,611.016294 296.411213,614.024104 294.961014,619.944054 C293.759844,624.849324 291.958084,629.718464 289.514724,634.667654 C287.505934,638.734064 284.523514,643.845384 282.883864,646.025054 C281.245194,648.205714 277.412184,652.380524 274.364334,655.305324 C270.604564,658.913724 266.788164,661.759424 262.493234,664.159814 C259.011784,666.104154 253.443434,668.687154 250.117234,669.899074 C246.791034,671.110994 241.267624,672.583644 237.840834,673.172514 C234.415054,673.760405 229.490244,674.204744 226.899434,674.157866 L226.899434,674.156889 L226.899534,674.156899 Z M276.151534,428.712899 C274.319504,428.847665 270.122234,428.568368 266.824384,428.092782 C263.526534,427.617196 258.674974,426.568372 256.042184,425.763682 C253.410344,424.958994 248.013864,422.694342 244.049984,420.731452 C240.086104,418.768562 234.689634,415.419932 232.055884,413.288092 C229.423074,411.157232 224.905494,406.713872 222.017784,403.416022 C219.129114,400.118172 215.688684,395.621102 214.373254,393.422862 C213.056844,391.223642 211.237514,387.776382 210.327354,385.760752 C209.417194,383.745122 208.217974,380.448252 207.663294,378.431652 C207.10763,376.417002 206.175014,372.179702 205.592004,369.016612 C205.008994,365.853522 204.531454,361.162122 204.531454,358.589812 C204.531454,356.017502 205.117392,350.510712 205.833214,346.351512 C206.549036,342.192312 207.694544,337.141552 208.379114,335.126912 C209.063684,333.111292 211.043174,328.661092 212.779504,325.236292 C214.514854,321.812462 217.393764,317.165982 219.175984,314.910092 C220.959184,312.655212 223.714074,309.592712 225.300984,308.105402 C226.887894,306.619072 229.667194,304.226492 231.480674,302.789972 C233.293174,301.353452 235.797084,299.484312 237.043174,298.638602 C238.289264,297.792892 241.303914,296.100512 243.741414,294.879812 C246.177934,293.659112 251.319534,291.614192 255.167214,290.335862 C259.313694,288.958912 264.883034,287.693282 268.841014,287.231372 C274.341994,286.588794 276.751174,286.625903 282.499214,287.445239 C286.337104,287.993091 292.237494,289.341719 295.610514,290.443289 C298.983564,291.545829 304.950354,294.179619 308.871214,296.297779 C314.976684,299.594659 317.123164,301.250899 323.798014,307.810479 C329.774574,313.683529 332.395674,316.840749 335.027514,321.334879 C336.915214,324.558509 339.540214,329.954999 340.859544,333.327079 C342.670094,337.955009 343.561694,341.722589 344.496264,348.707979 C345.638844,357.253879 345.659354,358.548799 344.748217,365.697279 C344.206225,369.953139 343.126147,375.534189 342.347827,378.098679 C341.570483,380.664109 339.459157,385.749069 337.657397,389.397479 C335.855637,393.047869 333.289237,397.394549 331.957197,399.057639 C330.625157,400.720729 328.166177,403.580099 326.495287,405.410179 C324.823407,407.240259 321.657397,410.261739 319.459157,412.124049 C317.260917,413.985379 313.807787,416.562529 311.787277,417.848659 C309.765797,419.134789 306.018727,421.038109 303.459157,422.077179 C300.900567,423.116239 296.950367,424.652379 294.682787,425.491239 C292.415207,426.32913 288.068527,427.341829 285.023607,427.741239 C281.978687,428.139677 277.986497,428.577177 276.154467,428.711942 L276.151534,428.712899 Z M484.682534,297.399899 C481.384684,297.570797 476.138584,297.329587 473.024334,296.861813 C469.909104,296.395016 465.156174,295.380363 462.459834,294.605953 C459.763544,293.833492 455.117064,292.010253 452.132734,290.557123 C449.149334,289.104003 444.757734,286.489743 442.376874,284.747553 C439.995034,283.006343 435.692304,279.201653 432.815354,276.293453 C429.938404,273.385253 425.697194,268.118653 423.390554,264.591353 C421.084894,261.063033 418.277274,255.795453 417.151294,252.885253 C416.025314,249.975053 414.579024,245.553223 413.936454,243.059083 C413.023368,239.515133 412.780204,235.938963 412.823174,226.674283 C412.875908,215.187983 412.946221,214.610783 415.066334,207.964283 C416.269454,204.190843 418.224534,199.105883 419.411064,196.663483 C420.596614,194.220123 423.117114,190.037503 425.009694,187.368563 C426.903244,184.699613 430.623954,180.343173 433.280204,177.686923 C435.936454,175.031653 440.133724,171.442783 442.609304,169.713293 C445.082934,167.982823 449.266534,165.403723 451.905204,163.982823 C454.542904,162.561923 458.650324,160.929113 461.032154,160.354893 C463.413994,159.781651 467.372974,158.845123 469.830004,158.275793 C472.563404,157.643957 477.477464,157.239663 482.488204,157.23278 C487.543864,157.22794 492.590704,157.635167 495.674704,158.299233 C498.422754,158.890053 502.620014,159.981853 505.001854,160.725993 C507.383694,161.470133 511.589744,163.209393 514.347554,164.590253 C517.106344,165.971113 521.752824,168.878343 524.674654,171.049233 C527.596484,173.220123 531.682464,176.836343 533.755704,179.083413 C535.829924,181.331463 539.245934,185.753333 541.346524,188.911533 C543.448084,192.068763 546.173674,196.979893 547.404144,199.826533 C548.634614,202.671263 549.915864,206.320673 550.251804,207.935913 C550.587744,209.551153 551.376804,213.249393 552.003754,216.153683 C552.865082,220.144893 553.060394,223.317743 552.800629,229.145883 C552.612152,233.387093 551.966645,238.955453 551.367039,241.519883 C550.766453,244.085313 549.981299,247.469103 549.620949,249.040393 C549.260597,250.610703 547.922709,253.967153 546.648289,256.500353 C545.372899,259.033553 542.921729,263.293323 541.200049,265.969103 C539.479349,268.644883 536.560399,272.583363 534.712749,274.721053 C532.866069,276.858753 529.547709,280.019883 527.339699,281.744493 C525.130719,283.470083 521.076029,286.178083 518.327979,287.764023 C515.579929,289.349963 511.982279,291.236683 510.332859,291.959333 C508.683449,292.681013 505.535979,293.846053 503.337739,294.549173 C501.139499,295.252293 497.391449,296.110693 495.009619,296.457373 C492.627779,296.803076 487.981299,297.226904 484.682519,297.397803 L484.682519,297.399756 L484.682534,297.399899 Z"></path>
  </g>
</svg>