<?xml version="1.0" encoding="UTF-8"?>
<svg width="1007px" height="1025px" viewBox="0 0 1007 1025" version="1.1" xmlns="http://www.w3.org/2000/svg" xmlns:xlink="http://www.w3.org/1999/xlink">
  <g id="ArtFight" transform="translate(0.8837, 0.6137)" fill="currentColor" fill-rule="nonzero">
    <path d="M155.459382,1.32392349 C155.864655,1.46454849 156.35782,1.68818149 156.931062,1.98407949 L157.653718,2.37372749 L158.04239,2.59345449 L158.868562,3.08173549 L159.757234,3.63154049 L160.705476,4.24189249 L162.228916,5.25947249 L163.306066,6.00263649 L164.426186,6.79267549 L165.585366,7.62665949 L167.387126,8.95380949 L169.251386,10.3639695 L170.519936,11.3434615 L171.806066,12.3522515 L173.103916,13.3844815 L174.410556,14.4401415 L176.374426,16.0563515 L178.330476,17.7018615 L183.178136,21.8747115 L185.087316,23.4987315 L186.273836,24.4977545 L187.936926,25.8747045 L188.973056,26.7145485 L189.955478,27.4957985 L190.886142,28.2194315 L191.770908,28.8874005 L192.614658,29.5036115 L193.419346,30.0680645 L194.189854,30.5827125 L194.930088,31.0514625 L195.643955,31.4762675 L196.335361,31.8581035 L197.007236,32.1999005 L197.665439,32.5045885 L198.311923,32.7741195 L198.952548,33.0084945 C199.377353,33.1549785 199.799228,33.2799785 200.225008,33.3864245 L200.867586,33.5338855 C201.083406,33.5788074 201.299227,33.6188464 201.517977,33.6559555 L202.518957,33.7965805 L203.20841,33.8659164 L203.919348,33.9176742 L204.657629,33.9547836 L205.820719,33.9870102 L207.065839,33.9967758 C212.873459,34.0006821 219.649839,35.6393558 223.444739,37.9528258 C226.843179,40.0260658 232.137119,44.9948158 235.511139,49.2448258 L237.663479,52.0309558 L238.874419,53.5788058 L241.388089,56.7457958 L243.249419,59.0504858 L244.986719,61.1686458 L246.512109,62.9889558 L247.683989,64.3522358 L248.348051,65.1032128 L248.76309,65.5524318 L249.35684,66.1539938 L249.741606,66.5045798 C251.073636,67.6657098 252.328516,68.1061398 254.416406,67.8756698 L255.0375,67.7916854 C255.252344,67.7575057 255.475,67.7174666 255.708398,67.6715684 L256.433984,67.5162954 L257.21914,67.3239124 L258.067773,67.0953964 L258.985742,66.8317244 L260.504292,66.3707864 L263.447652,65.4293804 L266.215232,64.5241074 C268.468162,63.7838734 270.977932,63.0826974 273.545312,62.4596574 L275.477932,62.0075094 L277.413482,61.5875874 C282.559962,60.5143474 287.533582,59.8258674 290.731882,59.8297774 C296.330512,59.8356368 304.433082,60.8209884 308.737782,62.0153274 C313.393052,63.3082974 320.037582,67.9547774 325.128382,73.4792274 C329.837362,78.5856774 335.640082,88.0153274 338.021982,94.4284274 L338.936044,96.9528374 L339.714364,99.1706074 L340.849134,102.480177 L342.377454,107.039747 L343.965344,111.885447 L345.169444,115.629587 L346.150889,118.727247 L347.547369,123.218457 L348.207525,125.378617 L348.891119,127.543657 L349.357916,128.965537 L349.831549,130.364947 L350.309088,131.736037 L350.789557,133.073927 L351.270026,134.373727 L351.749518,135.631537 L352.461432,137.429387 L352.927252,138.562197 L353.38526,139.634467 L354.051276,141.121767 L354.478034,142.025087 L354.889167,142.852235 L355.283698,143.598329 C355.347174,143.71454 355.410651,143.829774 355.472175,143.939149 L355.835456,144.554383 C356.246589,145.220399 356.60987,145.695983 356.913576,145.946963 L357.303224,146.253604 C358.785644,147.350284 360.136234,147.510444 362.394044,146.369815 L363.005372,146.042667 L363.661622,145.654972 L364.007325,145.437199 L364.737794,144.955754 L365.523927,144.410832 L366.36963,143.799504 L367.277833,143.12177 L369.303223,141.55927 L377.870603,134.80243 L387.703613,126.98016 C392.619633,123.04559 398.550313,115.94106 401.216313,110.85126 L401.532719,110.225283 C404.422369,104.274113 408.340339,99.9742834 412.397019,98.2916834 C417.055219,96.3639534 420.360889,96.2750834 424.822819,97.9576994 C424.9986,98.0241056 425.190983,98.1051604 425.398014,98.2008634 L426.066959,98.5280114 C426.30524,98.6500814 426.556217,98.7868004 426.822818,98.9342614 L427.656802,99.4147304 L428.564029,99.9655114 L429.539615,100.583675 L430.575745,101.264339 L431.665585,102.000667 L432.803285,102.789729 L434.587465,104.063169 L435.817935,104.96356 L437.075745,105.902037 L438.352115,106.87274 L439.642155,107.871763 L440.939035,108.895203 L442.885325,110.462583 L444.811105,112.058283 L447.091375,113.977233 L449.705635,116.131533 L452.444895,118.345403 L454.315015,119.833683 L456.201735,121.317083 L459.957595,124.217473 L462.695875,126.288763 L464.456615,127.596383 L466.143135,128.831733 L467.742745,129.983103 L469.235905,131.036813 L469.93903,131.523141 L471.24665,132.40693 L472.33552,133.117868 L473.41462,133.799509 L474.47614,134.4499 L475.51716,135.065134 L477.024,135.914743 L477.983961,136.429391 L478.902906,136.901071 L479.984936,137.423532 L480.982006,137.867868 L481.354076,138.022165 L482.050365,138.289743 C483.263255,138.72822 484.123605,138.876657 484.473215,138.658884 C484.787668,138.465525 485.050363,137.691111 485.255442,136.478224 L485.359934,135.774122 C485.393137,135.525099 485.424387,135.264356 485.453684,134.988966 L485.534738,134.127638 L485.602121,133.195021 L485.657785,132.195998 L485.715402,130.584668 L485.73591,129.443068 L485.743723,128.253618 L485.726145,126.391318 L485.695871,125.105188 L485.622629,123.120808 L485.453684,119.851278 L485.377512,118.047568 L485.327707,116.355188 L485.30427,114.764368 L485.308176,113.267298 C485.391184,106.733118 486.345286,102.842498 488.562086,98.5621984 C491.052316,93.7516484 495.931226,89.2789984 502.065986,86.1861984 C508.915596,82.7311184 515.395086,81.3570984 524.665586,81.3912784 C532.854066,81.4205753 541.074786,82.9879584 546.889186,85.6266284 C553.764186,88.7477184 556.982986,91.8902984 559.519086,97.9557284 L559.856977,98.7916664 L560.170454,99.6266274 C560.270063,99.9059244 560.366743,100.184244 560.457563,100.464518 L560.720258,101.311198 C560.845258,101.736979 560.961469,102.167643 561.067914,102.607098 L561.271039,103.496746 L561.44975,104.412762 L561.604047,105.360028 L561.673383,105.846356 L561.794477,106.851236 C561.812055,107.021158 561.83061,107.194986 561.846235,107.368814 L561.934125,108.441084 L562.000532,109.565104 L562.045453,110.744794 L562.068891,111.986984 L562.073774,112.632492 L562.065961,113.977222 L562.039594,115.396172 L561.993696,116.895192 L561.92729,118.478202 L561.842329,120.151052 L561.68022,122.839532 L561.476118,125.759452 L561.07768,131.346362 L560.907758,134.021162 L560.811078,135.801432 L560.744672,137.405922 L560.709516,138.845372 L560.704633,139.720372 L560.715375,140.532872 L560.742719,141.284825 L560.799359,142.148106 L560.88432,142.932286 L560.973187,143.506505 C561.104046,144.244786 561.286664,144.872715 561.525921,145.428385 L561.717327,145.833658 C561.78471,145.964517 561.855022,146.092447 561.931194,146.21647 L562.168499,146.581704 C562.251507,146.700845 562.337444,146.818032 562.429241,146.93229 L562.714397,147.271157 L563.023967,147.604165 L563.358928,147.934243 L563.720256,148.265298 L564.107951,148.601236 L565.201701,149.486978 L565.440959,149.675455 C568.414589,152.016275 573.549359,154.998695 576.852059,156.304365 L577.77784,156.648115 L578.548348,156.91081 L579.43116,157.198896 L580.95069,157.671552 L583.29932,158.370771 L585.96241,159.131513 L588.87843,159.937177 L592.78468,160.980147 L596.04445,161.821944 L599.35793,162.652999 L604.30324,163.850269 L607.93312,164.703785 L610.44484,165.272144 L612.12062,165.631519 L613.63039,165.93523 L614.551288,166.106128 L615.40871,166.251636 L616.205585,166.373706 L617.295425,166.510425 L617.957534,166.571949 L618.572768,166.609058 L619.142104,166.62273 L619.672377,166.612964 L620.165541,166.579761 L620.626479,166.524097 C620.77394,166.50066 620.919448,166.475269 621.05812,166.444996 L621.465347,166.342457 L621.850113,166.217457 C621.975113,166.172535 622.09816,166.12273 622.217301,166.069996 L622.56984,165.900074 C622.685074,165.839527 622.800309,165.776051 622.91359,165.707691 L623.249528,165.492847 L623.582536,165.255542 L623.915544,164.996753 L624.424333,164.569019 L624.774919,164.255542 C626.868669,162.363942 632.944839,160.183272 638.512219,159.292652 L641.414559,158.861011 L642.416509,158.697925 L643.337407,158.533863 L644.181157,158.364918 L644.953618,158.18816 C648.395998,157.337574 649.629398,156.12175 650.646978,153.03679 L650.916509,152.16472 L651.184087,151.197923 L651.515142,149.902023 C651.761236,148.910812 651.948736,147.672533 652.077642,146.211593 L652.164556,145.074873 C652.188971,144.682295 652.211431,144.276045 652.22901,143.856123 L652.272955,142.558273 L652.295416,141.183273 C652.299322,140.711593 652.299322,140.229171 652.296392,139.733073 L652.275885,138.210613 L652.234869,136.618813 L652.172369,134.958653 L652.088385,133.234043 L651.982916,131.444983 L651.856939,129.594393 L651.710455,127.686193 L651.542486,125.719393 L651.353033,123.699863 L651.143072,121.627593 L650.66358,117.231113 L650.333502,113.991853 L650.143072,111.944003 L649.901861,109.027983 L649.716314,106.291653 L649.621587,104.562163 L649.550298,102.902983 L649.503423,101.311183 C649.491704,100.791652 649.482915,100.281883 649.479009,99.7828627 L649.479009,98.3160627 L649.487798,97.6041487 L649.522954,96.2213387 L649.581548,94.8932187 C649.593267,94.6744687 649.604985,94.4596247 649.619634,94.2457577 L649.713384,92.9889177 L649.769048,92.3766127 L649.897954,91.1842327 L649.971196,90.6031777 L650.135258,89.4664577 C650.192875,89.0934107 650.256352,88.7271997 650.322758,88.3639177 L650.533696,87.2906777 L650.646977,86.7652867 C650.865727,85.7916537 651.116704,84.7740767 651.392094,83.7369667 L651.822758,82.1725167 C651.970219,81.6500557 652.124516,81.1246667 652.281742,80.6041567 L652.761234,79.0523967 L653.255375,77.5406767 L653.506352,76.8063017 L654.008305,75.3932117 C654.67725,73.5680117 655.334475,71.9928217 655.903815,70.9029817 C657.542485,67.7691917 661.632335,62.6207517 664.993655,59.4634817 C668.353035,56.3091817 674.831545,51.9673917 679.387255,49.8170017 C684.593305,47.3619217 692.673355,45.8961017 701.140155,45.8716917 C709.792495,45.8453245 717.608955,47.2457117 722.990755,49.7779417 C727.596225,51.9498217 734.120655,56.3082117 737.482955,59.4625117 C740.845255,62.6197417 745.354045,68.6168117 747.500555,72.7848117 C749.648015,76.9557117 752.003485,84.7047117 752.733955,90.0026117 C753.520088,95.6959717 752.833564,104.483112 751.056225,111.476212 L750.597241,113.226212 L750.088452,115.061172 C749.911694,115.684219 749.727124,116.315082 749.539624,116.952772 L748.958569,118.873672 L748.354077,120.796522 L747.426343,123.623672 L746.805249,125.431292 L746.192944,127.143202 L745.893139,127.954725 L745.312084,129.474255 L745.032787,130.173474 L744.502514,131.437144 L744.025952,132.538704 L743.604077,133.543584 L743.235913,134.45667 L742.922436,135.282842 C741.678296,138.684212 741.941967,139.795542 743.615795,140.563112 L744.025951,140.73401 C744.400951,140.877565 745.089431,140.885377 746.021071,140.776002 L746.764235,140.67151 L747.168532,140.604127 L748.036696,140.437135 L749.227126,140.170533 L750.523026,139.845338 L751.628496,139.544557 L752.785726,139.209596 L753.989826,138.842408 L755.232986,138.444947 L756.511306,138.018189 L757.815996,137.564087 L759.142166,137.083618 L760.482006,136.579712 L761.830636,136.053345 C763.388256,135.434204 765.089426,134.712525 766.867746,133.921505 L769.033766,132.94006 C770.496656,132.266232 771.990796,131.55725 773.481036,130.82873 L775.714436,129.72424 C776.455647,129.35217 777.190996,128.978146 777.919516,128.60315 L780.069906,127.47913 L781.013265,126.9762 L782.843345,125.980106 C784.928305,124.828736 786.825765,123.721316 788.402915,122.727176 C788.875571,122.428348 789.366782,122.111942 789.876545,121.77991 L791.452715,120.73499 L793.112875,119.60608 L795.191975,118.15979 C795.89803,117.663696 796.614825,117.15393 797.335525,116.63538 L799.510325,115.05726 C800.236887,114.525033 800.963445,113.98597 801.685125,113.44691 L803.828675,111.82875 L804.878475,111.025039 L806.913635,109.440079 C807.906799,108.657852 808.856015,107.895159 809.747615,107.163709 L811.443905,105.748669 C811.949764,105.319958 812.485895,104.848278 813.047425,104.334609 L814.204655,103.260389 C814.402897,103.073866 814.603093,102.882459 814.806217,102.688123 L816.051337,101.475233 L817.533757,99.9889031 L819.066957,98.4098031 C819.327699,98.1392951 819.587465,97.8668341 819.849184,97.5894911 L821.437074,95.8961311 L823.046454,94.1422211 L824.663644,92.3414411 L826.276924,90.5084311 C827.081612,89.5865561 827.879464,88.6568711 828.665594,87.7281611 L830.217354,85.8717111 C831.237864,84.6373311 832.228094,83.4137011 833.171454,82.2164411 L834.549384,80.4439811 L835.208564,79.5767931 C836.564034,77.7760131 838.021064,75.7515931 839.521064,73.5924131 L841.034734,71.3912431 C841.28864,71.0181961 841.542546,70.6412431 841.797429,70.2613631 L843.330629,67.9615631 C843.586488,67.5748441 843.841371,67.1861721 844.096254,66.7945731 L845.759344,64.2252331 C846.585516,62.9351931 847.401924,61.6402731 848.200754,60.3560931 L849.768134,57.8033631 L851.270084,55.3033631 L851.90192,54.2330531 L853.11286,52.1441831 C854.091376,50.4361731 854.98591,48.8150831 855.77009,47.3277731 L857.12458,44.7232831 L858.32868,42.4674231 L859.101141,41.0650831 L859.852118,39.7418431 L860.761298,38.1959431 L861.640204,36.7672331 C861.755438,36.5846161 861.870673,36.4049281 861.983954,36.2281711 L862.658759,35.2037611 C863.102118,34.5445811 863.534736,33.9342311 863.957589,33.3678211 L864.585519,32.5523911 C866.656809,29.9479011 868.511299,28.4518011 870.344309,27.8121611 C874.074779,26.5074711 878.060129,26.7955611 882.580609,28.6959501 L883.447797,29.0758331 L884.251508,29.4645051 L884.85307,29.7887241 C887.09135,31.0582541 888.57084,32.6725141 889.99662,35.7516141 L890.367714,36.5885281 L890.552284,37.0338401 L890.924354,37.9781761 L891.301307,39.0006361 L891.685096,40.1051261 L892.079627,41.2945761 L892.485877,42.5758261 L892.908729,43.9518061 L893.576698,46.2037561 L894.302284,48.7555161 L894.825722,50.6656761 L895.37455,52.7184061 L896.234902,56.0250461 L897.12748,59.5416461 L898.03373,63.2027761 L898.638222,65.6910561 L899.532753,69.4459361 L900.397011,73.1666361 L901.216347,76.7867561 L901.728066,79.1119561 L902.208535,81.3424261 L902.69291,83.7018061 L902.940957,84.9586461 L903.57084,88.3004461 L904.337442,92.6236861 L904.974161,96.4244661 L905.477091,99.5563061 L905.969279,102.737946 L906.447795,105.943996 L906.906779,109.146146 L907.552287,113.881496 L907.947795,116.954736 L908.308147,119.927396 L908.632366,122.773096 L908.914593,125.463526 L909.158734,127.969386 L909.398968,130.592436 L909.637249,133.310206 L909.982952,137.516256 L910.312054,141.813136 L910.520062,144.692046 L910.811078,148.980136 L911.072797,153.165686 L911.366742,158.462566 L911.539594,162.126626 L911.629438,164.383466 L911.697797,166.464516 L911.894086,173.861976 L911.957563,175.611976 L912.030805,177.183266 L912.116743,178.584636 L912.219282,179.826826 L912.343305,180.920576 L912.491743,181.874678 L912.605024,182.439131 L912.667524,182.70085 L912.80229,183.185225 C913.276899,184.715495 914.00737,185.420575 915.17534,185.801435 L915.539598,185.906904 L915.930223,185.994795 L916.349168,186.06999 L916.798387,186.134443 L917.790575,186.244795 L919.275925,186.389326 C919.391159,186.402021 919.511277,186.414717 919.63237,186.428389 L920.80132,186.57585 L922.10405,186.759444 L924.25932,187.095382 L925.79545,187.354171 L927.38432,187.634444 L929.81694,188.088546 L931.43803,188.407882 L933.03178,188.73503 L934.94877,189.149092 L935.317911,189.232099 C943.090371,190.988939 947.347211,193.630539 952.960511,200.187199 C957.026921,204.941109 960.983951,211.685199 961.750551,215.175499 C962.516176,218.666709 961.996645,224.295619 960.592351,227.683299 C958.916571,231.733099 955.117741,235.014349 949.499551,237.260449 L948.626504,237.599316 C948.189981,237.760449 947.756387,237.914746 947.318884,238.0583 L946.441931,238.333691 C946.001501,238.46455 945.557165,238.587597 945.105991,238.701855 L944.193882,238.917675 C943.886265,238.986035 943.575718,239.048534 943.259312,239.109081 L942.296421,239.27705 L941.803257,239.353222 L940.788607,239.487011 L940.266146,239.545605 L939.188026,239.647167 L938.632362,239.690136 L937.480992,239.758495 L936.273962,239.807323 C935.861853,239.820019 935.439978,239.828808 935.006382,239.833691 L933.673372,239.840527 L932.268102,239.827831 L930.787632,239.794628 L929.225132,239.74287 L927.577672,239.671581 L924.933142,239.530956 L922.066932,239.349315 L917.000522,239.000682 L914.059112,238.829784 L912.471222,238.762401 L911.005402,238.729198 L910.092316,238.726269 L909.228058,238.740917 L908.410675,238.775097 L907.263215,238.864941 L906.549348,238.952831 C904.119658,239.303417 902.381378,240.093451 900.880398,241.584671 L900.457546,242.029983 L900.249538,242.268264 L899.841335,242.773147 L899.439968,243.319045 L899.043484,243.908889 L898.845242,244.219436 L898.451687,244.876663 C898.319851,245.104202 898.187039,245.336624 898.055203,245.579788 L897.656765,246.329788 L897.04446,247.546588 L896.625515,248.421588 L895.972195,249.833698 L894.553245,253.028038 L893.771018,254.820028 L892.983909,256.585648 C892.84719,256.889359 892.705589,257.196976 892.562034,257.506546 L891.66555,259.415726 L890.704612,261.401076 L889.513202,263.791696 L888.261252,266.240916 C887.835471,267.064158 887.399924,267.893256 886.960472,268.724316 L885.624532,271.215526 L884.947774,272.457716 L883.582544,274.916696 L882.215354,277.323926 C880.171404,280.882516 878.166524,284.184276 876.399924,286.852246 C874.046404,290.409866 870.920434,294.609086 867.614764,298.726246 L865.950704,300.774096 C865.430196,301.406908 864.906754,302.034836 864.384294,302.655936 L862.819844,304.491876 C859.963394,307.806326 857.182144,310.807306 854.851094,313.044606 C853.890156,313.966481 852.795434,314.965506 851.599144,316.018236 L850.117694,317.301436 L848.551284,318.625656 L846.913584,319.981126 L845.216314,321.357106 L843.150884,322.994806 L841.042484,324.631526 L839.977054,325.445003 L837.840334,327.049493 C837.483889,327.315118 837.12842,327.576837 836.772954,327.837579 L834.656744,329.374689 C832.555184,330.881529 830.510264,332.290709 828.618654,333.527029 L825.953614,335.251639 L824.274904,336.363939 L822.139164,337.817059 L821.121584,338.525067 L819.667484,339.558267 L817.878424,340.867837 L816.663584,341.789712 L815.566904,342.65104 L814.908701,343.187173 L814.035654,343.928384 L813.535654,344.377603 L813.006357,344.883462 L812.590341,345.324868 C812.256357,345.703774 812.079599,345.99186 812.079599,346.170571 C812.079599,346.52604 812.681161,346.860024 813.736829,347.15104 L814.357923,347.30436 L814.700696,347.378579 L815.445813,347.519204 L816.268079,347.649087 L817.16261,347.767251 L818.122571,347.87272 L819.144051,347.96647 L820.221201,348.046548 L821.348151,348.112954 L822.520031,348.162759 L823.731941,348.196939 L825.612801,348.21647 C835.374521,348.21647 841.819801,349.56608 848.732901,353.05924 C854.007311,355.72135 860.506301,361.19303 863.179201,365.21454 C866.611821,370.38153 868.039551,375.70964 868.039551,383.36784 C868.039551,389.92546 866.282711,397.83754 863.591311,403.39814 L863.418459,403.745796 L863.009279,404.503608 C862.859865,404.77021 862.695802,405.04853 862.520998,405.339546 L861.958498,406.249702 L861.323732,407.229194 L860.621584,408.272164 L859.854982,409.372754 L859.030763,410.528024 L857.689943,412.350294 L856.733888,413.615914 L855.731938,414.917674 L854.687988,416.249704 L853.053218,418.295604 L851.922358,419.684274 L850.174308,421.787794 L848.980948,423.198924 L847.770008,424.611034 L845.928208,426.716504 L844.688948,428.108104 L843.445788,429.481154 L841.420398,431.677444 L839.901848,433.337604 L838.092278,435.354204 L836.381338,437.303424 L835.083488,438.817094 L833.847158,440.288774 L832.390128,442.070024 L831.030748,443.785844 L830.012198,445.112014 C829.683096,445.546584 829.364737,445.975295 829.05712,446.397174 L828.164542,447.641314 C827.302237,448.863974 826.533682,450.026084 825.856922,451.125694 L825.211414,452.205774 C823.982894,454.324914 823.125474,456.199914 822.635244,457.834684 C820.625474,464.538784 820.591294,468.533884 822.486806,474.861984 C823.850086,479.409834 827.150866,486.431284 829.822746,490.465484 C832.971186,495.217434 839.609856,500.227204 848.672346,504.684284 C849.417463,505.049518 850.179186,505.410846 850.953596,505.762404 L852.514146,506.455763 L854.093246,507.122755 C855.412586,507.6667 856.739726,508.179395 858.039536,508.652055 L859.586416,509.196977 C863.668446,510.595417 867.362786,511.529987 869.642116,511.662797 L870.052272,511.677445 C873.940942,511.737992 881.016172,513.657915 886.140172,516.009475 L886.826695,516.332717 C894.241735,519.923537 897.450695,520.471387 903.555195,519.007517 L904.197773,518.85029 C905.138203,518.611032 906.332543,518.397165 907.702653,518.211618 L909.128433,518.03779 C909.621597,517.983103 910.131363,517.932321 910.655773,517.883493 L912.266123,517.751657 L913.098154,517.69404 L914.803234,517.595407 L916.551284,517.522165 C919.490734,517.418649 922.533704,517.418649 925.332534,517.542673 L927.498554,517.661814 C927.729023,517.676462 927.963398,517.692087 928.202656,517.707712 L930.448746,517.868845 L932.865736,518.062204 L935.417496,518.285837 L938.066906,518.53486 L940.777846,518.804391 L943.514176,519.092477 L946.237806,519.395211 L948.914566,519.707711 L952.757336,520.18818 L955.150886,520.509469 L957.179206,520.801461 L959.007326,521.084664 L960.872556,521.392281 L962.759276,521.719429 L964.651856,522.065132 L966.536626,522.42353 L968.396006,522.793647 L970.216316,523.171577 L971.980966,523.553413 L974.490736,524.126655 L976.049326,524.504585 L977.499526,524.875679 C978.889176,525.242867 980.092296,525.593452 981.039566,525.914739 C985.773946,527.520209 992.736866,532.187199 996.514166,536.282939 C1000.28956,540.380599 1004.04737,547.291739 1004.8628,551.647239 C1005.70459,556.128689 1005.25049,563.221439 1003.81885,567.997839 C1002.42823,572.637489 998.384276,579.746839 994.831546,583.793739 C991.277836,587.840619 984.066946,592.794719 978.807146,594.802539 C972.414566,597.243949 966.455546,598.030079 956.840346,597.581839 L954.723156,597.467581 L953.619636,597.397269 C951.655766,597.265433 949.241706,596.98223 946.537606,596.581839 L944.458506,596.259573 L942.284676,595.897268 L941.167486,595.700979 L938.881356,595.282034 L936.539556,594.829886 L934.155766,594.346488 L931.745606,593.836722 L929.324706,593.301566 L928.114746,593.026175 L924.508296,592.16973 L922.142086,591.57891 C921.751461,591.480277 921.362789,591.378715 920.976066,591.278129 L918.688956,590.668754 L916.473136,590.051566 L901.760236,585.802546 L893.292466,583.384576 L878.034666,579.070126 L868.920406,576.524226 L866.985836,575.997859 L865.028806,575.485164 L863.056146,574.986141 L860.083486,574.266414 L858.103016,573.80743 L856.132316,573.367 L854.178216,572.947078 L852.248526,572.547664 L850.349116,572.171687 L847.576656,571.654109 L845.787596,571.339656 L844.055176,571.052547 L842.387206,570.794735 L840.790526,570.567196 L839.270996,570.36993 L837.837406,570.206844 C835.984866,570.010555 834.380376,569.906063 833.100106,569.906063 L831.617686,569.915828 L830.913584,569.928524 L829.578624,569.969539 L828.338394,570.033016 L827.190934,570.117 C822.788594,570.499812 820.576674,571.41876 819.962414,573.01544 C819.723156,573.63751 819.874523,574.96564 820.329602,576.73907 L820.582532,577.659968 L820.726087,578.146296 L821.050306,579.164846 C821.107923,579.338674 821.167494,579.517385 821.22804,579.695119 L821.618665,580.794729 L821.829603,581.361135 L822.520033,583.119925 L823.293471,584.946095 L823.849135,586.188285 L824.437026,587.441215 L825.053237,588.698055 C826.573747,591.741025 828.639177,595.320125 830.837417,598.793755 L832.046397,600.674615 L833.266127,602.511525 L834.372577,604.123825 C836.021987,606.491985 837.623557,608.614055 839.003437,610.226365 C843.219257,615.153125 852.205537,622.509565 858.972237,626.573065 L860.147037,627.261542 L861.442937,627.990058 L862.851137,628.752753 L864.357977,629.545722 L866.190007,630.482245 L867.144109,630.959784 L869.120669,631.93244 L872.222229,633.41193 L875.440979,634.89826 L877.626529,635.879705 L879.823799,636.843572 L882.015209,637.784978 L884.187089,638.695134 L886.323809,639.566228 L889.422439,640.783998 L893.707599,642.413878 L895.932209,643.283995 L897.307209,643.834776 L899.213459,644.622862 L900.940999,645.369932 L902.000569,645.848448 L902.987874,646.313292 L903.908772,646.767394 L904.763264,647.21173 L905.557209,647.64923 C905.812092,647.792785 906.056232,647.938292 906.292561,648.080871 L906.972249,648.508605 L907.600179,648.936339 C909.006429,649.932433 910.011309,650.928529 910.795489,652.040829 L911.118731,652.524227 C911.170488,652.606258 911.220293,652.688289 911.270098,652.772274 L911.558184,653.280086 L911.827715,653.80743 L912.080645,654.354305 L912.201739,654.636532 C913.651939,658.088682 914.352129,662.775202 913.757399,665.049632 C913.160719,667.326972 910.625559,670.507642 908.120679,672.119942 C907.923413,672.245919 907.658765,672.380684 907.329663,672.522286 L906.789624,672.739083 L906.157788,672.965645 L905.437085,673.200997 L904.634351,673.444161 L903.751539,673.694161 L902.792555,673.95002 L901.219315,674.343575 L899.497635,674.746895 L897.638255,675.156075 L895.655835,675.569161 L893.562085,675.983223 L892.110915,676.258614 L889.095295,676.803536 L887.537675,677.073067 L884.342365,677.595528 L882.712485,677.850411 L880.236895,678.217599 L877.737875,678.569161 C876.949789,678.675606 876.142175,678.791817 875.319905,678.912911 L872.810135,679.298653 C871.960526,679.434395 871.097245,679.575997 870.224195,679.723458 L867.579665,680.182442 L864.890215,680.6717 L862.174395,681.190255 L859.445875,681.732247 L856.723215,682.294747 L854.020095,682.874825 L850.694895,683.619942 L847.459545,684.379708 L844.955635,684.993966 L842.543525,685.610177 C842.14997,685.711739 841.761298,685.815255 841.377505,685.916818 L839.134345,686.529123 L837.315985,687.046701 L835.606025,687.557443 C835.055244,687.725412 834.523015,687.893381 834.014225,688.05842 L832.399965,688.594553 L830.576725,689.226389 L828.639225,689.915842 L826.079655,690.851389 C825.203678,691.175608 824.305245,691.512522 823.391175,691.860179 L820.602115,692.929519 L817.739815,694.049639 L813.362865,695.801589 L810.430245,697.000809 L807.517155,698.211749 L804.650945,699.424639 L801.858955,700.628739 L800.498605,701.224442 L797.019115,702.776202 L795.376535,703.527179 L792.685125,704.787919 L791.202705,705.505692 L789.746655,706.227372 L787.620675,707.309402 L786.245675,708.028152 L784.910715,708.742996 L782.984935,709.803546 L781.760325,710.499835 L780.017165,711.523275 L778.922435,712.188314 L777.885325,712.835775 L776.910716,713.465658 L776.00056,714.07601 L775.158763,714.663901 L774.387279,715.227378 L773.690013,715.762534 C772.483963,716.720542 771.670483,717.537924 771.339423,718.154134 C769.595283,721.415854 769.644113,723.747884 771.754462,728.132654 L772.324774,729.273274 C772.763251,730.121907 773.383364,731.132654 774.131414,732.238114 L774.920476,733.371904 L775.783757,734.554524 C775.932195,734.755696 776.085515,734.956868 776.239812,735.160969 L777.190984,736.390459 C777.35407,736.596514 777.519109,736.802568 777.685125,737.0096 L778.702705,738.25179 L779.817935,739.56527 C781.133365,741.08382 782.485905,742.54574 783.775945,743.82211 C785.159735,745.19027 787.169495,746.87191 789.548405,748.69027 L791.018135,749.79476 L791.782783,750.35726 L793.361883,751.49496 C793.898992,751.875819 794.445863,752.259608 794.999583,752.6434 L796.682203,753.79281 L798.398023,754.93734 C798.974195,755.316246 799.554273,755.693199 800.134353,756.06527 L801.879473,757.16879 L802.751543,757.708829 L804.484943,758.760589 C805.635333,759.448089 806.770103,760.104339 807.874593,760.719569 L810.518143,762.172689 L815.137283,764.659019 L821.498613,768.028159 L829.685133,772.307459 L837.553293,776.375819 L846.787673,781.105309 L852.084553,783.794759 L860.526933,788.064289 L863.778883,789.746909 L866.442943,791.149249 L870.810133,793.493979 L874.212473,795.361169 L877.506423,797.204919 L879.105053,798.113122 L882.191963,799.895352 L883.674383,800.764493 L885.811103,802.036953 L887.836493,803.267423 L889.739813,804.448083 L890.935123,805.204919 L893.138243,806.637539 L894.612853,807.634609 L895.506408,808.259609 L896.324767,808.850429 L897.063048,809.403163 L897.721251,809.918788 L898.019103,810.162929 L898.5484,810.618007 L898.780822,810.829921 C903.361872,815.123871 908.440002,822.765421 910.314022,828.186321 C912.436092,834.324991 913.234922,841.560321 912.497612,847.948021 C911.856987,853.488061 909.374562,861.866921 906.977102,866.563221 C904.582572,871.258531 899.443902,877.046621 895.559102,879.422621 C891.676292,881.798601 884.139202,884.608171 878.812002,885.664811 L876.913562,886.04567 L875.665512,886.310318 L874.913559,886.481216 L873.897939,886.740982 L873.293447,886.919693 L873.01122,887.01149 L872.487782,887.204849 C870.750482,887.903091 869.956532,888.849379 869.652822,890.672619 L869.579579,891.217541 C869.559072,891.407971 869.54247,891.607189 869.530751,891.815197 L869.503407,892.465588 L869.497548,892.813244 L869.498525,893.550549 L869.528798,894.776139 L869.588368,896.153089 L869.72997,898.856209 L869.983876,902.731209 L870.840321,914.184309 L872.618641,936.128609 L874.433091,957.643209 L874.894029,963.554339 L875.202623,967.918599 L875.396959,971.103169 L875.534654,973.908829 L875.589342,975.424449 L875.624498,976.822889 L875.639146,978.109999 L875.63817,978.859022 C875.605943,983.603162 875.073717,985.901012 874.03758,987.825822 L873.874494,988.119767 C873.734846,988.362931 873.586408,988.600236 873.431135,988.838517 C871.627425,991.593397 867.725085,994.453747 864.762185,995.198867 C863.606915,995.488906 861.744605,995.470351 859.345195,995.176406 L858.200665,995.022109 L856.982895,994.82875 C856.773911,994.793594 856.562973,994.756485 856.348129,994.717422 L855.028789,994.467422 L853.646949,994.181289 L852.205539,993.858047 L850.708469,993.499649 L849.159639,993.107071 L847.561979,992.68129 L845.921359,992.220352 L844.240699,991.729141 L842.521949,991.204727 L838.835429,990.025037 L836.428199,989.234998 L831.933079,987.736948 L824.844209,985.332648 L814.882299,981.894168 L808.061989,979.504518 L801.598119,977.213498 L795.431129,974.998658 C794.269999,974.578736 793.107889,974.151978 791.949679,973.718388 L788.489719,972.407838 L785.927219,971.411744 L783.408669,970.410764 L781.758279,969.743772 L778.546369,968.418572 L775.477029,967.115842 L772.582499,965.849242 L770.542459,964.92932 L768.629369,964.043578 L766.854959,963.195922 L765.234839,962.392211 L764.245581,961.883422 L763.333472,961.400024 L762.118632,960.720336 L761.415507,960.302367 L761.097148,960.105101 L760.532695,959.732054 C760.359843,959.612913 760.203593,959.498656 760.062968,959.391234 L759.611796,959.037718 L758.625468,958.237913 L757.538558,957.323851 L756.366678,956.309201 L755.125468,955.207641 L753.831518,954.035761 L752.498508,952.807241 L751.142058,951.534781 L749.777798,950.234001 L748.422328,948.918571 L747.089318,947.604121 L745.795368,946.303341 L744.554158,945.031861 L743.75826,944.19983 L742.819783,943.17542 L741.019003,941.13733 L738.782673,938.53772 L736.150833,935.42737 L732.100053,930.57092 L726.297323,923.52502 L718.499473,913.94201 L710.811973,904.39611 L704.319783,896.26427 L690.160583,878.42047 L685.952573,873.16852 L682.201593,868.53375 L678.874443,864.48102 L675.938893,860.97321 L674.607843,859.41169 L673.361753,857.97419 L671.464293,855.83747 L670.425233,854.70563 L669.45746,853.68122 L668.55414,852.757392 L667.71332,851.933173 L667.185,851.435126 L666.436953,850.761298 L665.740664,850.174384 L665.302187,849.828681 L664.883242,849.518134 L664.481875,849.239814 L664.005313,848.938056 L663.552188,848.68415 L663.121524,848.475166 L662.709415,848.30915 L662.391056,848.204658 L662.083439,848.12458 L661.783634,848.06794 L661.490665,848.032783 L661.203556,848.018135 L660.921329,848.022041 L660.642032,848.042549 L660.366641,848.079658 L660.228946,848.104073 C658.970156,848.344307 657.022896,849.087471 654.813906,850.124583 L653.586366,850.718333 L652.95746,851.035716 L651.67914,851.702708 L651.034609,852.051341 L649.742619,852.77595 C649.311955,853.02302 648.883244,853.27302 648.459419,853.527903 L647.200629,854.300364 C646.786567,854.562083 646.37934,854.822825 645.980899,855.086497 C645.429141,855.452708 644.829529,855.871653 644.190859,856.334547 L642.871519,857.319899 C642.416441,857.666579 641.948667,858.030837 641.467219,858.409739 L639.997489,859.589429 L638.476979,860.846269 L637.704518,861.499589 L636.141038,862.843339 L634.569748,864.230059 L633.007248,865.642169 C632.490646,866.114825 631.975018,866.589435 631.469158,867.065019 L629.973068,868.485919 C628.993576,869.427325 628.052168,870.359939 627.172288,871.260329 L625.989668,872.493729 L624.929118,873.641189 L624.406657,874.221267 L623.376387,875.396067 C623.03752,875.788645 622.703535,876.183176 622.374437,876.576727 L621.40764,877.756417 C621.091234,878.148995 620.781663,878.53962 620.479906,878.927317 L619.599047,880.080637 C619.312914,880.461496 619.037524,880.837473 618.769945,881.207587 L617.999437,882.300357 C616.272877,884.802307 615.069747,886.953677 614.739667,888.274967 C613.923261,891.526917 614.995526,897.867737 617.522867,904.855067 L624.996497,924.634367 L630.408607,938.843367 L631.089271,940.658797 L631.769935,942.502547 L632.784585,945.303327 L633.780679,948.117777 L634.746499,950.913677 L635.673257,953.659767 L636.55021,956.323827 L637.367593,958.874607 L638.114663,961.278907 L638.780679,963.505467 L639.174234,964.876557 L639.68107,966.736907 L639.960367,967.832607 L640.186929,968.801357 C641.457439,974.524987 641.844159,983.560157 641.046304,988.878457 C640.018964,995.726117 637.283604,1001.11476 631.681074,1007.32866 C627.329514,1012.15581 619.892974,1017.87066 615.157674,1020.02786 C610.421344,1022.18509 602.622474,1023.97024 597.822674,1024.0036 C592.661544,1024.02493 584.516974,1021.75931 577.884174,1018.45462 C569.585344,1014.31985 565.159574,1010.29349 560.868574,1002.96632 C557.676194,997.523937 553.828534,987.204617 552.312914,980.038617 L552.123461,979.087445 L551.931078,978.021035 L551.639086,976.217325 L551.442797,974.891155 L551.147875,972.726115 L550.952563,971.176315 L550.661547,968.710495 L550.280688,965.189015 L549.912524,961.444875 L549.561938,957.530815 L549.23479,953.496635 L548.934985,949.392145 L548.730883,946.297415 L548.60393,944.188035 C548.521899,942.783735 548.44768,941.387255 548.379321,940.008345 L548.193774,936.027875 L548.036547,933.112835 L547.917406,931.160685 L547.717211,928.233925 L547.57268,926.290565 L547.337328,923.401895 L547.084398,920.560095 L546.81389,917.782755 L546.627367,915.976115 L546.334398,913.348185 L546.030687,910.833535 L545.71721,908.450725 L545.504319,906.943885 L545.181077,904.820835 L544.963304,903.504425 L544.744554,902.273955 L544.416429,900.599155 L544.197679,899.604038 C544.161546,899.446811 544.125413,899.293491 544.089281,899.14603 L543.872484,898.310092 L543.765062,897.934115 C541.979902,891.904815 538.249442,884.156815 535.470142,880.715315 L534.198662,879.153795 L533.377373,878.185045 C533.206475,877.987779 533.040459,877.803209 532.881279,877.631334 L532.419365,877.150865 C530.776785,875.519025 529.682065,875.321765 527.715265,876.230943 L527.156671,876.505357 L526.547296,876.833482 L525.525816,877.422349 L523.317806,878.746569 L520.853936,880.198719 L517.319756,882.244619 L514.626396,883.781729 L510.426196,886.137199 C506.096116,888.530749 498.791396,891.092279 494.192796,891.826649 C489.596116,892.562977 481.896896,892.104969 477.087296,890.809069 C472.276746,889.512189 463.729896,884.821769 458.093196,880.380369 L449.403746,873.592279 L445.944766,870.937979 L445.168399,870.358877 C443.674259,869.269037 440.093199,869.896963 434.945699,872.123527 L433.730859,872.665519 C433.522851,872.760245 433.314843,872.857902 433.102929,872.958488 L432.43789,873.276847 C424.76504,876.991687 420.48379,877.792467 414.38029,876.655757 C408.75724,875.609857 403.66839,872.262207 397.25239,865.391157 L396.21528,864.283737 L394.79438,862.787647 L393.927192,861.896045 L393.117622,861.083545 L392.35688,860.34917 L391.64106,859.688037 L391.298287,859.383349 L390.637154,858.829638 C388.162544,856.832568 386.310984,856.307178 383.480904,856.486868 L382.719185,856.548391 L381.478955,856.695852 L380.102975,856.898977 C379.941842,856.923391 379.77778,856.949758 379.610787,856.977102 C374.703557,857.759329 368.783687,857.282766 365.632287,855.846242 C361.939907,854.165582 358.868617,849.793512 356.164517,842.387242 L355.401822,840.254432 L354.595181,837.916542 L353.76315,835.436072 L352.925259,832.872592 L352.10104,830.290562 L351.121548,827.129432 L350.232876,824.153842 L349.810024,822.685092 L349.342251,820.998572 C347.414521,813.872592 344.958461,809.862872 341.581511,808.323772 C338.865691,807.086472 332.512171,806.627482 327.464311,807.302292 C322.417431,807.981003 317.183111,810.044482 315.835411,811.890182 C315.672325,812.113815 315.487755,812.426315 315.289513,812.818893 L314.97799,813.464401 L314.814904,813.829635 L314.297326,815.078655 L313.931115,816.029827 L313.552209,817.066937 L313.35885,817.613812 L312.966272,818.762252 L312.366663,820.605022 L311.964319,821.898972 L311.562952,823.236862 L311.166468,824.610882 L310.774866,826.012252 L310.20846,828.147992 L309.846155,829.581582 C309.132288,832.473182 308.134245,835.608922 307.006315,838.613812 L306.379362,840.237832 L305.731901,841.823772 C304.095181,845.728072 302.323701,849.143112 300.810021,851.123572 C297.788541,855.087442 292.700641,859.650912 289.506321,861.268072 C286.311981,862.884282 280.163551,864.846192 275.843221,865.627452 C271.520951,866.408702 263.289521,866.006358 257.549321,864.732921 C251.806161,863.458511 243.444821,859.484871 238.966321,855.903821 L237.124521,854.438981 L235.922371,853.509293 L235.018074,852.844254 L234.187019,852.279801 C231.629399,850.626481 229.982919,850.483901 227.162609,851.749528 L226.431164,852.095231 L225.644055,852.499528 L224.793469,852.960466 L223.382339,853.760271 L221.211439,855.026871 C215.098159,858.607921 211.599139,862.171401 211.599139,864.811051 C211.599139,867.303241 214.172379,869.781751 220.145039,872.923351 L221.429219,873.583507 L222.813009,874.265148 L223.542501,874.612804 C231.787621,878.512214 237.274901,882.966324 241.264201,888.991704 C245.808151,895.857914 247.041541,900.297404 247.041541,909.800304 C247.041541,919.149914 245.676311,924.205604 241.008341,932.173304 C236.678261,939.562954 232.220251,943.804204 225.214441,947.209404 C218.376551,950.530694 211.493741,951.946704 202.228141,951.937924 L199.935171,951.912533 L198.381461,951.871518 L196.045521,951.776791 L194.504501,951.692807 L192.991801,951.593197 L191.519141,951.480892 L189.756441,951.320736 L188.105071,951.143002 L187.481048,951.06683 L185.757418,950.824642 L184.746678,950.65472 C184.112889,950.538509 183.565038,950.417415 183.119728,950.293392 C179.887308,949.394954 173.724218,945.571712 169.426328,941.798272 C165.126528,938.023862 160.319878,931.984792 158.742728,928.376372 C158.358939,927.499419 157.94097,926.433012 157.514208,925.252352 L156.99956,923.785552 C156.913622,923.533599 156.827685,923.278716 156.740771,923.020904 L156.15581,921.215244 C155.385302,918.772864 154.66851,916.216224 154.14995,914.017004 L153.966356,913.20841 C152.701706,907.49357 151.032766,904.83146 149.005416,905.29044 L148.912642,905.315831 L148.665572,905.403722 L148.340377,905.541417 L147.710494,905.838292 L146.916549,906.239659 L145.250529,907.125401 L142.731979,908.522861 L139.159709,910.563881 L135.626509,912.623451 L128.953659,916.588291 L123.080609,920.141021 L117.681199,923.449611 L112.848189,926.423241 L109.987839,928.168361 L107.020069,929.969141 L102.408739,932.752341 L94.4419394,937.517961 L86.9331494,941.966201 L79.0942794,946.567761 L72.8833394,950.176161 L68.2417394,952.848041 L62.9800194,955.837301 L59.4370494,957.820701 L54.2212294,960.699611 L49.8393894,963.083401 L43.7866594,966.324611 L40.5005294,968.057031 L37.3911494,969.674221 L35.2016994,970.800201 L33.1518994,971.840241 L31.2622494,972.784577 L29.0200594,973.879307 L27.1343194,974.767002 L25.9780694,975.28165 L24.5044394,975.904697 L23.1274894,976.456455 C17.1382294,978.786535 13.8393994,979.011145 9.88038944,977.620515 C6.64308944,976.481845 2.84034944,973.240635 1.43409944,970.416415 C-0.186990563,967.169345 -0.446760563,963.498445 0.721208437,960.423255 L0.807145937,960.230872 L0.943864937,959.97306 L1.36671694,959.267005 L1.97999794,958.315833 L2.77784994,957.128333 L4.60108994,954.507243 L7.30616994,950.721113 L10.1772599,946.770913 L14.5014799,940.896893 L20.0532399,933.437913 L26.9506999,924.260183 L36.7094899,911.396883 L46.5229699,898.576583 L58.4174699,883.163483 L75.2504699,861.456483 L96.6586699,833.957483 L125.54637,797.005383 L163.41937,748.761283 L171.65667,738.113783 L178.50921,729.163583 L184.06585,721.825693 L188.96526,715.275893 L191.82659,711.398943 L193.9428,708.493673 L196.143,705.424333 L197.94964,702.839373 L199.13714,701.077653 L199.870538,699.938983 L200.288507,699.247577 L200.590265,698.701679 L200.725031,698.419452 L200.807062,698.204608 C200.825617,698.145037 200.834406,698.095233 200.834406,698.0591 C200.834406,696.1841 198.449636,693.56496 195.533626,692.23683 C192.429136,690.82277 185.291426,690.33156 178.309026,691.05031 C171.138126,691.790544 160.600026,695.16847 151.864726,699.52297 L148.996566,700.96828 L146.884266,702.04836 L142.295396,704.42238 L136.149886,707.64894 L132.403796,709.63917 L127.524886,712.25831 L125.194806,713.52296 L120.885236,715.88917 C119.754376,716.5171 118.564926,717.14698 117.339336,717.77296 L115.473126,718.706554 L113.083476,719.854994 L110.655746,720.970224 L109.679184,721.405771 L107.729964,722.251474 L105.797344,723.061044 L103.893044,723.826669 L102.034644,724.543466 L100.370584,725.157724 C99.0073039,725.647958 97.7094539,726.084482 96.5053539,726.456554 L95.1059439,726.86964 C94.2075059,727.123546 93.3754739,727.331554 92.6264539,727.489757 L90.8559439,727.851085 C83.2162939,729.357925 79.7993439,729.279795 73.6538439,727.175304 L72.2407539,726.674327 C71.7524729,726.496593 71.2466129,726.307139 70.7202439,726.106944 C63.9184839,723.508314 58.6011439,719.462414 54.4399439,713.719244 C51.0415039,709.029794 47.1391639,700.172344 45.7670939,694.038544 C43.9096739,685.737764 43.8862339,680.600044 45.6792033,673.946744 C47.1508833,668.476044 50.9204133,662.519044 55.3920933,658.591244 C59.4106433,655.063904 67.3871933,650.681084 73.1195933,648.849054 L73.5248663,648.721124 L74.4262333,648.451593 L75.9906833,648.011163 L77.7875633,647.533624 L80.5043633,646.846124 L83.5385433,646.114679 L86.8334633,645.351007 L89.4428433,644.76214 L93.9877633,643.772882 L98.6830733,642.79046 L102.475063,642.026788 L107.169403,641.119561 L109.859833,640.610772 L111.635223,640.260186 L114.298313,639.712334 L116.945773,639.142022 L119.561003,638.551202 L122.123503,637.947686 L124.611783,637.335381 L126.222133,636.925225 L128.549283,636.310967 L130.034633,635.90374 L131.459433,635.50042 L133.471153,634.905693 L134.721153,634.518974 L135.891073,634.141044 L136.976033,633.77288 L137.970174,633.416435 C138.28658,633.300224 138.585408,633.185966 138.867635,633.074638 L139.662557,632.74749 C140.033651,632.58831 140.364705,632.43499 140.650838,632.288506 C145.052208,630.043386 149.217248,626.740656 149.903768,624.946706 C150.593221,623.153736 150.064901,618.510186 148.732868,614.630306 C147.402788,610.749446 144.159628,604.186006 141.526818,600.041406 C138.894978,595.897856 133.432088,589.351006 129.386218,585.492606 C125.342268,581.633226 118.252418,576.549246 113.631318,574.193806 C108.092258,571.371536 101.507318,570.020956 92.7075183,569.916466 L89.3413083,569.898888 L87.3120083,569.859825 L86.0756783,569.81588 L84.6469683,569.737755 L83.3422783,569.630333 C79.5131783,569.254356 77.2416883,568.427213 75.0317283,566.731893 L74.4555563,566.269979 L73.8764543,565.767049 L73.2875873,565.220174 L72.6830953,564.629354 C69.7778253,561.725054 67.3989153,557.421344 67.3989153,555.064904 C67.3989153,552.709434 69.5805553,548.396934 72.2416853,545.482874 C73.5746953,544.022914 76.0541853,542.376424 79.3920753,540.683074 L80.6830953,540.044402 L82.0522353,539.403777 L82.7641493,539.082488 L84.2426693,538.440886 L85.7895493,537.799284 L87.4008793,537.161589 C87.6752933,537.05612 87.9516603,536.949675 88.2309573,536.844206 L89.9350573,536.213347 L90.8081043,535.900847 L92.5971643,535.28073 L94.4379843,534.669402 L96.3598643,534.053191 L99.4116243,533.056121 L101.508304,532.352019 L104.706544,531.253389 L106.850094,530.502412 L108.981934,529.742646 L112.124514,528.601046 L114.157714,527.846163 L117.072754,526.741673 L118.900874,526.031712 L121.432124,525.021942 L122.953604,524.394012 L124.322744,523.810028 L124.943838,523.535614 C133.291498,519.818814 137.134238,516.585414 139.762238,511.078614 C141.968288,506.448734 142.771028,501.494634 141.882358,497.960414 C141.099155,494.835414 138.305208,491.398894 135.673378,490.319794 L135.549355,490.273895 L135.231972,490.179169 L134.826699,490.083466 L134.334511,489.985809 L133.438027,489.836395 L132.359907,489.685028 L131.107957,489.529755 L129.689987,489.372528 L126.979047,489.10788 L125.157757,488.9487 L121.818887,488.684052 L116.577677,488.318818 L109.889197,487.917451 L101.656777,487.500459 L96.8335373,487.288545 L91.8784573,487.095186 L82.7075573,486.777803 L75.5005273,486.487764 L69.9536473,486.225069 L66.8257173,486.059053 L64.8247373,485.944795 L60.1157573,485.645967 L56.6499373,485.393037 L54.2290373,485.195771 L51.9604873,484.991669 L49.8442773,484.781708 L47.8813873,484.564911 L46.0708373,484.341278 L44.9507173,484.189911 L43.8970073,484.035614 L42.4458373,483.797333 L41.5649783,483.6362 L40.7534553,483.473114 L40.0093143,483.306122 L39.3345093,483.135224 C39.2280643,483.106904 39.1235713,483.078584 39.0220093,483.049287 L38.4516973,482.875459 L37.9497443,482.698701 L37.7231823,482.609834 C32.9526723,480.625454 29.5747423,477.093234 27.3422823,471.753434 C25.5229423,467.399914 24.6040023,461.566934 25.3022423,458.790534 C26.0004843,456.015144 28.7329023,452.365734 31.3784123,450.685064 C31.9311463,450.332525 32.7163023,449.995611 33.7172823,449.675294 L34.5073213,449.439942 L35.3764623,449.209473 L36.5708023,448.933106 L37.8842823,448.667481 L39.0180723,448.463379 L40.2241223,448.268067 L41.5004923,448.080567 L42.8452223,447.901856 L44.9907323,447.648926 L46.5024523,447.491699 L48.8891723,447.272949 L51.4145623,447.074707 L53.1723723,446.955566 L55.9165123,446.79541 L57.8149523,446.70166 L59.9536223,446.605957 L62.2827223,446.480957 L64.5962023,446.331543 L66.8881923,446.158691 L69.1499123,445.962402 L70.2680723,445.856933 L72.4731523,445.629394 L73.5581123,445.5083 L75.6879923,445.251464 C76.3891643,445.163573 77.0815423,445.071776 77.7602623,444.97705 L79.7671023,444.685058 L81.7016723,444.376464 L83.5561623,444.053222 C87.1801823,443.393066 90.2817523,442.646972 92.6010823,441.854002 C93.5141683,441.540525 94.4497123,441.195799 95.3842823,440.825682 L96.7885823,440.254393 C97.4878013,439.960448 98.1850623,439.656737 98.8696323,439.345213 L100.221192,438.713377 C100.665528,438.500486 101.102051,438.286619 101.528812,438.069822 L102.780762,437.420408 C105.216312,436.123528 107.227052,434.836428 108.331542,433.809078 C111.880372,430.499508 112.532712,428.147948 111.381342,422.809078 C110.574701,419.071778 108.063962,412.359878 105.803222,407.890178 C103.625492,403.593298 97.6079123,396.998578 92.1850223,392.915578 L91.5375613,392.439016 C85.9526013,388.409716 77.7025613,380.683116 73.2025613,375.268116 C72.5092023,374.435108 71.8021713,373.546436 71.0970913,372.622606 L70.0404513,371.214406 L68.9955313,369.772996 L67.9720913,368.313036 L67.4730683,367.580614 L66.5052953,366.124564 L66.0394753,365.404837 L65.1488503,363.989797 C63.7172103,361.666557 62.5599803,359.544487 61.9017803,357.965387 C60.1869403,353.862847 58.7865503,347.591387 58.7865503,344.024987 C58.7865503,340.460537 60.3363503,333.667587 62.2318603,328.931187 C64.3041303,323.754427 68.5228803,318.561087 72.8168603,315.906787 L73.5180323,315.485889 L73.9858053,315.218311 L74.4574853,314.962452 L75.1742823,314.600147 L75.9115873,314.259327 L76.4174463,314.04546 L76.9369773,313.840382 L77.4740863,313.64507 L78.3168593,313.368703 L78.9086563,313.195851 L79.5229143,313.030812 L80.4985003,312.797414 L81.5424503,312.580617 L82.2807313,312.445851 L83.4574913,312.255421 L84.7240913,312.07964 L86.0903013,311.915578 L87.5610013,311.764211 L89.7016213,311.577688 L90.8520113,311.49175 L92.6869713,311.36968 L96.0541613,311.18218 L98.2719313,311.077688 L102.323691,310.914602 L109.807091,310.668508 L116.629361,310.469289 L122.905731,310.253469 L132.101041,309.864797 L138.707491,309.518117 L141.297331,309.36089 L144.710421,309.123585 L147.067841,308.931202 L148.249481,308.816944 L149.242645,308.705616 L150.03659,308.598194 L150.450652,308.527882 L150.768035,308.459522 C153.615695,307.749561 156.148895,304.985892 156.977015,301.685112 C157.80807,298.371632 157.059047,293.346242 155.128385,289.300312 C153.416475,285.709492 148.506315,279.649922 144.004385,275.524912 L143.198721,274.804209 L142.691885,274.382334 L142.104971,273.914561 L141.078601,273.128428 L139.450671,271.934088 L137.545401,270.583498 L135.947741,269.477048 L132.985831,267.469238 L129.689931,265.281738 L126.098131,262.940918 L122.251451,260.473148 L118.190901,257.902838 L113.957501,255.257328 L109.590311,252.564948 L106.027811,250.393068 L101.443831,247.631348 L97.5502813,245.312988 L95.2944213,243.961428 L91.9370013,241.925298 L88.6205913,239.885258 L85.3549713,237.848148 L83.2104413,236.493658 L80.0493113,234.474128 L76.9643513,232.474128 L74.9545813,231.154788 L72.0161013,229.200688 L70.1127813,227.918458 L68.2582913,226.654788 L65.5707913,224.796388 L63.0073113,222.990728 L61.3725413,221.819828 L59.0366013,220.115728 L57.5600413,219.018068 L56.1528113,217.952638 L54.8188313,216.921388 L53.5590613,215.927247 L52.3774213,214.974122 L51.2748813,214.06006 L50.2563313,213.18799 L49.3237143,212.360842 L48.8901203,211.964358 C41.1186403,204.775878 33.0327203,194.764158 29.8647203,188.405758 C26.3559303,181.365718 24.3520203,173.752458 24.3520203,167.463358 C24.3520203,161.456518 26.2533903,153.861758 29.1938203,148.102058 C31.8569103,142.892098 36.7309303,136.662558 40.0239203,134.259258 C44.0893503,131.296368 49.9106403,129.759258 59.4692203,129.149878 L61.3412903,129.042456 L62.9897303,128.960425 L64.5258603,128.898902 L65.9633603,128.859839 C66.1948053,128.854956 66.4233213,128.852027 66.6479303,128.850073 L67.9565203,128.850073 C72.4028103,128.898902 75.5483203,129.493628 79.6372203,131.176243 L80.8335103,131.687962 C81.6499163,132.048314 82.5092903,132.450657 83.4272603,132.898902 L84.8481603,133.604957 L86.3676903,134.380348 L87.9966003,135.229957 L89.7475803,136.154762 C91.0923103,136.869606 92.7251203,137.993632 94.5776603,139.437962 L95.7143803,140.341282 L96.3022713,140.821751 L97.5122313,141.834451 L98.7671113,142.913551 L100.063011,144.054171 L101.396991,145.253391 L102.767111,146.506321 L104.168481,147.810031 L106.322781,149.848121 L108.528831,151.974101 L110.777851,154.174301 L112.295431,155.675281 L114.677271,158.056141 L117.547391,160.954581 L119.461451,162.904781 L124.202661,167.780761 L137.188061,181.291461 L140.778881,185.001421 L142.072831,186.321731 L143.274001,187.536571 L145.193921,189.438911 L145.789624,190.011177 L146.595288,190.769966 L147.072827,191.20356 L147.500561,191.57856 L147.876538,191.893013 L148.19978,192.143013 L148.468335,192.326607 C148.869702,192.577584 149.035718,192.545357 148.933179,192.187935 C148.901929,192.07856 148.797437,191.879341 148.624585,191.601021 L148.314038,191.122505 L147.667554,190.187935 L146.815992,189.008245 L145.774972,187.601995 L143.661692,184.802195 L141.130442,181.506295 L135.750562,174.580515 L116.926362,150.542415 L111.716402,143.836365 L108.235932,139.309995 L105.713472,135.981875 L104.396092,134.215275 L103.608006,133.145935 L102.573826,131.714295 L101.987888,130.884217 L101.492771,130.159608 L100.947849,129.317811 L100.716404,128.926209 L100.562107,128.625428 C100.524021,128.540468 100.498631,128.471131 100.486912,128.41742 C100.209568,127.1518 100.142185,125.11469 100.256443,122.71527 L100.336521,121.37347 L100.389256,120.679134 L100.520115,119.256284 C100.594333,118.535581 100.680271,117.800234 100.778904,117.061944 L100.991795,115.578544 C101.180272,114.341244 101.400975,113.106864 101.649998,111.910574 L102.28281,108.987724 L102.584568,107.493584 L102.755466,106.56292 L102.831637,106.114678 L102.965426,105.24749 L103.072848,104.413506 L103.115817,104.007256 L103.18027,103.211358 C103.322848,100.982838 103.106052,98.9545185 102.408786,96.4252285 L102.141208,95.5101895 L101.993747,95.0355805 L101.664645,94.0443695 L101.292575,92.9955395 L100.876559,91.8803095 L100.415621,90.6937895 L99.6353483,88.7611695 L98.4263683,85.8685895 L95.9410183,80.0472995 L95.2603543,78.4086295 L94.2574243,75.9252295 L93.2867213,73.4398795 L92.6617213,71.7953495 L92.0572293,70.1713295 L91.4791043,68.5756295 L90.9283233,67.0180095 L90.4078153,65.5053095 L89.9195343,64.0472995 L89.4683623,62.6527695 L89.0562533,61.3304995 L88.5181673,59.5004195 L88.2173863,58.3959295 C87.9400423,57.3392895 87.7398473,56.4379195 87.6246133,55.7269795 C86.8023473,50.5843995 87.6050821,44.7357795 89.8863333,39.2552795 C91.8326233,34.5824295 97.4957133,26.5657795 102.468333,21.4388795 C107.443923,16.3148595 115.465433,9.77967949 120.298433,6.91937949 C125.131443,4.05999949 133.527933,1.11078949 138.963433,0.365669492 C144.395073,-0.379447508 151.825733,0.0512164919 155.469333,1.32074749 L155.459382,1.32392349 Z M856.144382,899.616923 C855.431491,895.605203 853.755712,892.780983 852.311372,893.159893 C852.251801,893.175518 852.179536,893.203839 852.095552,893.243878 L851.961763,893.313214 L851.642427,893.502667 L851.259615,893.761456 L850.814303,894.085675 L850.310397,894.47337 L849.750827,894.919659 L848.811374,895.697003 L847.762544,896.594464 L846.209814,897.965554 L844.941264,899.112034 L842.661964,901.219454 L840.712744,903.063204 L838.678564,905.022184 L836.050634,907.602264 L834.445164,909.203824 C825.666844,918.027064 813.199064,927.808324 803.255664,933.709724 L802.161914,934.350349 L800.758594,935.158943 L798.603324,936.410893 L793.709774,939.292733 L791.075004,940.868903 L787.471484,943.058353 L784.432424,944.948003 L782.800584,945.992923 L781.540814,946.83179 L781.065228,947.164798 L780.514447,947.574954 C777.541787,949.852294 777.224407,951.173584 779.076947,953.086674 L779.151165,953.15601 L779.247845,953.233158 L779.505657,953.408939 L779.846477,953.614994 L780.510539,953.974369 L781.050578,954.24683 L782.002726,954.703861 L783.524206,955.39722 L785.317176,956.17847 L787.362096,957.041751 L790.244906,958.225341 L794.135526,959.777101 L797.695096,961.163821 L801.506616,962.620851 L807.193136,964.748781 L812.326926,966.629641 L818.518336,968.851321 L825.481226,971.299561 L832.878686,973.849361 L839.605246,976.111081 L844.235126,977.625731 L848.226336,978.891351 L850.181416,979.489984 L851.875756,979.989007 L852.963646,980.295648 L854.156026,980.609125 L854.845479,980.767328 L855.203877,980.834711 L855.477315,980.87182 L855.581807,980.878656 C857.610127,980.946039 860.129657,979.306386 861.177507,977.233146 C861.248796,977.092521 861.313249,976.902091 861.374773,976.66381 L861.431414,976.409904 L861.515398,975.939201 L861.606218,975.239982 L861.681414,974.421623 L861.730242,973.684318 L861.769304,972.872795 L861.81032,971.525135 L861.829851,970.023185 L861.826921,968.372795 L861.789812,965.952875 L861.737078,963.980215 L861.663835,961.877675 L861.568132,959.652085 L861.409929,956.502675 L861.21364,953.157945 L860.980242,949.630605 L860.782,946.874745 L860.485125,943.062245 L859.914813,936.318105 L859.013446,926.322015 L857.974386,915.556415 L857.386495,909.864035 L856.865011,905.139425 L856.477316,901.962665 L856.249777,900.324965 L856.135519,899.61891 L856.144382,899.616923 Z M206.129382,46.9187235 L204.981922,46.9187235 C199.443832,46.9353251 190.744622,49.1325935 184.233922,52.1657935 L182.955602,52.7780985 L181.566932,53.4704815 L180.086462,54.2361065 L179.314978,54.6433335 L177.449748,55.6501735 L176.486857,56.1794705 L174.518107,57.2849405 L172.509317,58.4382605 L170.482947,59.6257605 L167.962437,61.1404105 L165.495637,62.6609205 L163.591337,63.8650205 L161.773957,65.0437305 C161.18509,65.4314255 160.615757,65.8122855 160.067907,66.1843505 L158.552287,67.2361105 L156.939007,68.3962705 L155.245647,69.6511505 L153.485877,70.9870905 L152.588416,71.6824025 L150.534706,73.2976325 L148.454626,74.9704825 L147.411656,75.8230215 L145.337436,77.5447015 C141.558136,80.7156015 137.949736,83.9284915 135.169436,86.6433315 C128.354006,93.2927415 120.963336,103.240031 117.964336,109.795631 C114.443826,117.487041 113.263166,122.572031 114.156716,126.261431 L114.259255,126.652056 L114.338356,126.86397 L114.397926,126.994829 L114.558082,127.308306 L114.897926,127.901079 L115.353981,128.637407 L115.924293,129.515337 L116.854957,130.897177 L117.976047,132.511437 L119.997527,135.351277 L122.841277,139.257527 L126.173307,143.756547 L130.527797,149.558307 L138.034637,159.416707 L143.603977,166.652057 L148.796357,173.346397 L155.845187,182.368857 L163.237767,191.757527 L213.906667,255.621827 L353.795667,432.676827 L398.113067,488.434627 L388.936307,498.920027 L374.311307,515.688627 L365.472437,525.936627 L351.820137,541.926827 L342.275217,553.174827 L331.044717,566.465827 L322.626747,576.464847 L310.374747,591.081047 L305.445057,596.986317 L295.260457,609.256817 L283.888357,623.037117 L264.847357,646.238317 L251.285857,662.845717 L235.525157,682.238317 L227.550547,692.096717 L220.217537,701.201207 L201.879637,724.112307 L178.236037,753.814407 L156.468437,781.293907 L143.871737,797.269507 L134.114897,809.701107 L114.151997,835.264607 L92.5816974,862.995107 L73.6431974,887.432607 L60.8970974,903.954107 L48.5249974,920.096707 L38.8570274,932.804707 L29.7369074,944.916007 L25.9380774,950.046867 L24.4351474,952.125967 L23.8814364,952.918936 L23.4624914,953.548819 L22.8306554,954.47753 L21.0581954,956.99315 L17.7613154,961.56932 L11.4185454,970.23827 L16.3326054,967.65722 L21.7915854,964.83788 L24.3345554,963.56444 L25.3062354,963.096667 L25.8042824,962.869128 L26.5279154,962.561511 L27.0738134,962.299792 L28.0699074,961.797839 L29.3570174,961.128894 L31.7945174,959.833974 L36.4673674,957.299794 L44.2710774,952.999014 L51.0357274,949.229484 L61.7242274,943.211904 L68.1089974,939.571284 L74.5230574,935.846674 L78.6177874,933.444334 L84.2964974,930.083004 L90.1597774,926.583004 L97.6343874,922.081054 L104.603137,917.845704 L109.644157,914.759764 L116.210567,910.708984 L120.959587,907.753904 L125.508417,904.901364 L129.811147,902.176754 L133.867787,899.581054 L138.137317,896.822264 L142.714467,893.841794 L149.210557,889.581054 L156.050397,885.062504 L163.119737,880.363284 L170.303327,875.560554 L179.269147,869.526374 L186.290627,864.770514 L194.690037,859.038094 L200.967377,854.717784 L205.342377,851.683604 L209.283787,848.926764 L216.482027,843.844734 L222.708587,839.414074 L232.614837,832.309584 L237.740817,828.609384 L246.411717,822.322274 L256.810117,814.731454 L263.598207,809.744154 L273.342347,802.537124 L280.866757,796.921894 L285.168517,793.686544 L288.247617,791.354514 L293.108947,787.650414 L299.972227,782.382834 L307.170467,776.821314 L316.470267,769.583034 L324.017147,763.671904 L331.540587,757.746124 L340.743707,750.450224 L347.810117,744.808624 L356.093317,738.142604 L360.687067,734.413114 L363.563047,732.063504 L369.366757,727.293974 L373.384337,723.976594 L379.569887,718.851594 L389.231997,710.801794 L399.604097,702.107454 L409.465427,693.784214 L417.463477,686.982454 L424.431247,681.001004 L429.435157,676.651394 L441.276957,666.264694 L454.552357,654.557694 L466.140257,644.293994 L479.280857,632.591894 L483.224217,629.046974 L492.530857,620.596774 L498.801367,614.861424 L507.453707,625.696424 L508.532807,627.175914 L509.337495,628.247204 L510.171479,629.330214 L516.847259,637.801894 L566.343359,699.920994 L579.635359,716.687594 L595.747659,737.096794 L622.799459,771.569494 L671.898059,833.785294 L699.501559,868.616394 L709.359959,880.947494 L715.842379,888.986554 L721.106049,895.467024 L725.276949,900.568584 L730.012299,906.317604 L735.148039,912.492404 L738.551359,916.539284 L740.482999,918.818584 L743.515229,922.361554 L746.834569,926.182844 L749.325779,928.997294 L751.559179,931.467024 L753.156839,933.189684 L754.580669,934.681874 L755.827739,935.937734 L756.383403,936.476796 L757.132426,937.171132 L757.776957,937.728749 L758.148051,938.022694 L758.47227,938.254139 L758.748637,938.422108 C762.887307,940.669178 767.725197,941.618398 771.064037,940.839098 C771.645092,940.703356 772.376537,940.481676 773.219307,940.19066 L773.736885,940.008043 L774.845285,939.595934 L776.036695,939.128161 L777.296465,938.610583 L778.608965,938.048083 L779.960525,937.448474 L781.336505,936.817615 L782.720295,936.161365 L784.098225,935.487537 L785.453695,934.80199 L786.772055,934.11156 C787.521078,933.712146 788.358965,933.23363 789.268145,932.68871 L789.962481,932.268788 L791.422441,931.359608 L792.18416,930.87328 L792.96541,930.367421 L794.57576,929.301011 L796.6617,927.882061 L798.80232,926.385971 L799.667554,925.770737 L801.401934,924.517807 L803.131424,923.243397 L804.840404,921.958237 L805.682201,921.314682 L806.513256,920.671127 L808.137276,919.396717 L809.695866,918.141837 L811.289616,916.822497 L812.166569,916.078356 L814.018129,914.476796 L814.985902,913.624257 L816.992742,911.830307 L819.073792,909.935777 L821.205632,907.962147 L822.284732,906.952377 L824.451722,904.901597 L825.534732,903.865467 L827.684142,901.786367 L829.792542,899.716057 L831.837462,897.676017 L833.796442,895.688717 L834.735895,894.720944 L836.523005,892.852784 L837.364802,891.9563 L838.507382,890.71802 L839.609922,889.49732 L840.672422,888.29712 L841.690002,887.11939 L842.663635,885.96607 L843.589416,884.84009 L844.888246,883.20728 L845.69098,882.15845 L846.441957,881.14478 L847.139223,880.168218 L847.781801,879.232671 L848.366762,878.33814 L848.892153,877.489507 L849.133364,877.08228 L849.567934,876.302983 C850.376528,874.795173 850.805234,873.588143 850.805234,872.765873 C850.805234,872.591068 850.769102,872.374271 850.701718,872.117435 L850.62164,871.846927 L850.449765,871.362552 L850.157773,870.66431 L849.78375,869.870365 L849.426328,869.168217 L849.020078,868.409428 L848.565976,867.595951 L847.798398,866.279541 L847.231015,865.339111 L846.620663,864.352783 L845.626522,862.788333 L844.914608,861.693603 L843.774958,859.978763 L842.133358,857.567633 L840.814018,855.675053 L839.425348,853.719003 L838.46441,852.384043 L836.97125,850.339123 L835.42145,848.251233 L833.81989,846.127213 L832.17243,843.973893 L781.41173,778.698493 L778.817,775.426033 L776.31309,772.300053 L773.31602,768.606693 L769.92832,764.502203 L768.32578,762.591073 L766.28672,760.194593 L764.36484,757.975843 L762.56406,755.940683 L761.712498,754.993417 L760.495698,753.663337 L759.353118,752.444587 L758.635345,751.694587 L757.952728,750.995368 L756.995697,750.044196 L756.120697,749.211188 L755.330658,748.499274 L754.852142,748.093024 L754.413665,747.743415 L754.014251,747.44947 L753.655853,747.212165 C753.316009,747.004157 753.039642,746.883063 752.828705,746.853767 C750.093355,746.457283 747.506435,748.205327 745.094325,752.078377 L744.433192,753.163337 C742.226162,756.652597 737.858972,761.620367 734.417592,764.515837 C729.721302,768.466037 725.322862,770.072477 719.185192,770.072477 C712.776012,770.072477 709.983042,769.021697 705.814092,764.545137 L705.378545,764.070528 L704.501592,763.07834 L703.304322,761.65842 L702.079712,760.16135 L699.439092,756.87131 L697.228152,754.07541 L692.205692,747.63791 L687.259402,741.21603 L682.691042,735.21896 L677.769162,728.69162 L669.974242,718.27462 L662.522092,708.24242 L656.543572,700.13207 L652.770132,694.96605 L648.152942,688.54808 L644.471302,683.38011 L634.027002,668.58621 L629.550442,662.19363 L624.308252,654.65847 L619.693022,647.95437 L613.893222,639.40749 L610.472322,634.29128 L607.262362,629.40944 L606.104162,627.61549 L604.928382,625.75514 L604.088538,624.37135 L603.085608,622.59889 L602.597327,621.679945 C600.878577,618.327405 600.857097,616.700455 602.487952,612.902605 L602.72135,612.371355 L603.22428,611.269795 L603.802405,610.044205 C605.972325,605.494405 612.629555,598.804905 620.542605,593.224905 L621.218386,592.745413 L622.511356,591.812796 L623.726196,590.913382 L624.862916,590.047171 L626.175416,589.011041 L627.367796,588.026666 L628.234007,587.274713 L628.63928,586.910455 L629.39221,586.206353 L630.227171,585.370415 L630.379515,585.209282 L630.942992,584.582329 C632.330692,582.973929 632.938112,581.679009 632.800412,580.667289 L632.740842,580.387016 L632.612912,580.062797 L632.44885,579.720024 L632.22717,579.307915 L631.797482,578.560845 L631.44592,577.981743 L630.828732,576.994438 L629.841427,575.473928 L628.364867,573.268848 L627.003537,571.283498 L625.886347,569.678028 L623.430297,566.201468 L621.181277,563.070608 L617.776007,558.402638 L614.666627,554.205368 L612.517217,551.340138 L610.598267,548.801078 L608.015257,545.410458 L605.644167,542.333308 L603.998657,540.224908 L601.970337,537.666318 L600.121707,535.389948 L599.261355,534.351858 L598.046515,532.917288 L597.284796,532.041311 L596.838507,531.539358 L596.139288,530.603811 L592.171518,525.311821 L593.118784,524.338188 L595.800424,521.567678 L598.936164,518.287408 L603.561164,513.411428 L608.326784,508.354788 L613.322874,503.021778 L620.925414,494.845018 L627.109004,488.130178 L630.544554,484.365528 L634.611934,479.851858 L636.368774,477.863578 C643.999634,469.056938 654.291674,454.488578 659.645174,444.872378 L660.167635,443.927066 L660.694002,442.958316 L661.761382,440.956366 L662.298491,439.927066 L662.837553,438.882146 L663.917633,436.755196 L664.992833,434.589176 L666.054353,432.401676 L667.096343,430.207336 L667.607085,429.113586 L668.605132,426.942686 L669.564116,424.806946 L670.476225,422.723936 L671.3356,420.708316 L671.742827,419.731754 L672.506499,417.849914 L673.104155,416.322574 C673.199858,416.074527 673.291655,415.83234 673.381499,415.592105 L673.889311,414.204405 C673.968413,413.981749 674.045561,413.762999 674.11978,413.549132 L674.568022,412.211242 L675.239897,410.133122 L675.849272,408.147772 L676.219389,406.877262 L676.392241,406.258121 L676.715483,405.055001 L677.005522,403.900701 L677.136381,403.341131 L677.373686,402.259101 L677.573881,401.228831 C678.261381,397.392891 678.098295,394.708321 676.693998,393.573561 L676.484037,393.422194 L676.072904,393.138014 L675.583646,392.774733 L674.709623,392.091139 L670.668603,388.841139 L669.145163,387.646799 L668.057273,386.810861 L666.322893,385.511061 L665.099263,384.623366 L663.826803,383.723952 L662.505513,382.817702 L661.137353,381.911452 L660.437158,381.46028 L659.005518,380.564772 L658.273096,380.121413 L656.639306,379.152663 C647.643216,373.756183 636.704706,365.426063 631.480106,359.991563 L630.977176,359.45836 L629.502566,357.83824 L627.498656,355.57359 L625.366816,353.10582 L623.605096,351.02965 L621.826776,348.90074 L620.058226,346.75133 L618.329706,344.61852 L617.487909,343.56872 L616.667597,342.53454 L615.101187,340.53454 L614.006457,339.10974 L612.512317,337.13318 C611.781848,336.187868 611.008407,335.25427 610.216417,334.34607 L609.419542,333.445679 L608.346302,332.271849 L607.809193,331.698607 L606.741813,330.579467 L605.692983,329.503297 L601.952753,325.720097 L601.193964,324.928105 L600.532831,324.206425 C600.227167,323.864628 599.964472,323.549198 599.748651,323.267948 L599.366815,322.738651 L599.005487,322.265995 C597.598257,320.510135 596.272087,319.952515 594.177367,320.384155 L593.775023,320.476929 L593.197875,320.638062 L592.893187,320.735718 L592.255492,320.960327 L591.920531,321.08728 L591.216429,321.372436 L590.464476,321.697631 L589.661742,322.060912 L587.888302,322.899779 L581.012322,326.262079 L577.845332,327.781609 C576.445922,328.46032 574.938102,329.221059 573.357052,330.042349 L572.159782,330.669302 L569.069942,332.320672 L568.439083,332.663445 L565.892203,334.067745 L563.325793,335.510125 L560.768173,336.976925 L558.458603,338.326535 L556.203723,339.668335 C555.833606,339.891968 555.466418,340.112671 555.103133,340.333374 L552.975203,341.640994 C551.590433,342.500369 550.280863,343.334354 549.075793,344.124394 L548.191027,344.709355 L546.971297,345.53748 L545.649027,346.460332 L544.232037,347.474002 L542.730087,348.568732 L540.744737,350.043342 L537.789657,352.283572 L536.024037,353.643922 L534.215447,355.053102 L531.435177,357.247442 L528.601197,359.516972 L525.739867,361.839242 L523.830687,363.406622 L520.984987,365.769902 L519.111937,367.343142 L516.359007,369.685912 L513.699827,371.985712 L511.991817,373.484732 L510.506467,374.801142 L506.407837,378.476922 L501.843387,382.620472 L496.921507,387.132192 L490.692017,392.892932 L473.981117,371.327532 L449.786817,340.259132 L439.925487,327.685932 L432.482127,318.268942 L366.411827,235.747442 L363.153037,231.575562 L357.830767,224.621462 L352.846387,218.019902 L351.449907,216.187872 L346.010457,209.212282 L333.553457,193.447682 L310.497757,164.500382 L279.626657,125.992582 L257.854157,99.0032821 L240.879557,78.0911821 L229.373657,64.0432821 L224.459597,58.1399621 L222.968387,56.3977721 L221.688117,54.9641821 L220.769172,53.9593021 L219.905891,53.0413331 L219.089485,52.2053951 C215.411755,48.5169151 213.050425,47.3509051 208.762385,47.0335151 L208.192073,46.9964057 L207.195003,46.9544135 L206.127623,46.9187235 L206.129382,46.9187235 Z M643.344382,596.725923 C638.742822,593.889013 636.302392,593.568693 632.776982,595.228853 C632.128544,595.533541 631.269172,596.07358 630.272102,596.788423 L629.836555,597.105806 L628.919563,597.799165 C628.604133,598.043306 628.280891,598.299165 627.950813,598.566743 L627.449836,598.974946 L626.420536,599.834321 L625.364876,600.745454 L624.291636,601.699556 L623.211556,602.68979 L622.134406,603.70541 L621.070926,604.73959 L620.289676,605.521817 L619.524051,606.304044 L618.538699,607.333344 L617.634402,608.289399 L616.809207,609.178071 L616.06116,610.006196 L615.388308,610.778657 L614.787722,611.500337 L614.257449,612.177095 C612.389289,614.648775 611.960569,616.285495 612.406859,618.408545 L612.499632,618.812842 L612.665648,619.409522 L612.762328,619.719092 L612.983031,620.366553 L613.281859,621.159522 L613.479125,621.571631 L613.777953,622.123389 L614.329711,623.072608 L615.256469,624.587258 L616.436159,626.451518 L619.506469,631.154638 L622.590449,635.775728 L628.148069,643.969088 L635.258419,654.302088 L644.600219,667.711288 L652.743769,679.280588 L658.413689,687.277658 L666.286739,698.298158 L671.201779,705.125308 L678.670529,715.421208 L686.317009,725.850908 L691.601189,732.977858 L696.409779,739.393878 L699.312119,743.223958 L702.358019,747.191728 L704.289659,749.669268 L706.316029,752.224928 L707.481069,753.658518 L708.715449,755.132148 L709.51623,756.045234 L710.004511,756.568672 L710.274042,756.838203 L711.354122,757.857733 L712.374632,758.776678 C716.835572,762.694648 719.651002,763.687808 723.420532,762.966128 C726.526002,762.371401 732.339482,758.315738 736.340432,753.950508 C742.217382,747.536448 743.407812,744.861638 742.844342,738.721008 L742.764264,737.948547 L742.70274,737.556945 L742.615826,737.138976 L742.503521,736.69464 L742.365826,736.22296 L742.201764,735.721007 L742.009381,735.189757 L741.788678,734.62628 L741.402936,733.719053 L741.108991,733.071592 L740.784772,732.388975 L740.237897,731.294245 L739.8336,730.517878 L739.394147,729.701472 L738.672467,728.400692 L737.870709,727.003232 L736.350199,724.452452 L735.676371,723.350892 L734.210551,721.000302 L733.004501,719.105772 L731.705671,717.093072 L729.324811,713.467092 L727.220321,710.311822 L724.329701,706.031552 L721.800401,702.328432 L717.634381,696.286442 L712.184181,688.463202 L705.139261,678.438802 L695.335551,664.592102 L691.468361,659.168272 L684.683201,649.728822 L677.477151,639.817692 L673.358991,634.212222 L668.782821,628.038392 L663.889271,621.516912 L659.402941,615.623362 L656.827741,612.286452 L653.541611,608.098952 L651.438091,605.472972 L649.911721,603.602852 L648.527931,601.946602 L647.297461,600.511052 L646.476172,599.585271 L645.745703,598.791326 L645.107031,598.133123 L644.734961,597.771795 L644.331641,597.407537 L643.995703,597.143865 L643.339453,596.727849 L643.344382,596.725923 Z M876.647382,38.2939235 L871.866132,46.6122835 L867.212812,54.8574035 L863.660082,61.2695135 L862.715746,62.9228335 C862.551684,63.2070135 862.383715,63.4931455 862.213793,63.7831855 L861.154223,65.5634555 L859.740163,67.8808355 L858.999929,69.0712655 L857.463799,71.4970455 L856.272389,73.3437255 L855.055589,75.2021255 L853.407149,77.6767355 L851.743089,80.1259555 L850.230389,82.3085755 C849.979412,82.6669735 849.729412,83.0234195 849.479412,83.3769355 L847.995032,85.4560355 C846.770422,87.1533055 845.581942,88.7529155 844.463782,90.2060355 L843.800696,91.0595515 L842.465736,92.7441215 L841.76847,93.6083795 L839.95597,95.8173595 L838.06242,98.0712695 L836.50871,99.8866995 L834.93351,101.698219 L834.142494,102.59568 L832.562414,104.37107 L830.996004,106.10252 L829.454984,107.77635 L827.954004,109.37694 L827.222559,110.145495 L825.807519,111.608385 L824.467679,112.959945 L823.456939,113.953109 L822.509673,114.857406 L821.608306,115.687484 L820.631744,116.554672 L820.11026,117.007797 L818.621,118.273417 L817.00186,119.608377 L816.149321,120.296854 L814.373931,121.709944 L813.454986,122.429671 L811.564366,123.886701 L810.599522,124.621076 L808.638582,126.090806 L806.653232,127.550766 L805.658115,128.273422 L803.673735,129.691392 L801.713775,131.063462 L799.797755,132.373032 L797.943265,133.608382 L797.046781,134.19432 C795.021391,135.50389 792.711821,136.89744 790.266511,138.29588 L789.034091,138.996075 L786.832921,140.215805 C786.130773,140.599594 785.424721,140.98143 784.716711,141.358385 L782.588781,142.477525 L780.466711,143.563465 L778.371011,144.606435 L776.318281,145.596669 C773.283121,147.039049 770.460861,148.271469 768.137621,149.145499 C767.713793,149.303702 767.262621,149.468741 766.785081,149.63671 L766.048753,149.893546 L764.467703,150.42089 L762.752863,150.967765 L760.915953,151.531242 L758.970643,152.107414 L756.930603,152.693352 L754.809513,153.284172 L752.620063,153.876945 L750.375923,154.468742 L748.089793,155.056633 L745.776313,155.632805 L742.284123,156.475578 L738.802673,157.278312 L735.944273,157.909171 L733.152283,158.498038 L729.611263,159.207999 C715.858363,162.006829 701.395463,166.498039 692.389563,170.784199 C682.543863,175.471699 672.743063,182.406299 664.923763,190.226599 C656.843683,198.306679 649.885663,208.249099 644.169863,219.879899 C643.38666,221.473649 642.581973,223.204119 641.772403,225.021499 L641.165958,226.400409 L640.158148,228.754899 L639.658148,229.954119 L639.161078,231.164079 L638.181586,233.604509 L637.752875,234.700209 L636.914008,236.890639 L636.105414,239.063489 L635.335883,241.203139 L634.608344,243.292979 C634.492133,243.636729 634.375922,243.977549 634.263617,244.315439 L633.61225,246.301769 C632.886664,248.571299 632.28217,250.657239 631.83784,252.447279 C629.86909,260.402359 628.23237,273.693379 628.09272,282.633779 L628.082954,283.729479 L628.082954,285.581039 L628.097602,287.306629 L628.12397,288.916009 L628.142524,289.681634 L628.193305,291.136714 L628.226509,291.83105 L628.309516,293.15527 L628.416938,294.40429 C628.806586,298.35546 629.622018,301.28515 631.273388,304.78029 L631.669872,305.596696 L632.246044,306.725606 L632.555614,307.30959 L633.219676,308.5215 L633.945262,309.80177 L634.735301,311.1631 L635.592723,312.6133 C636.710883,314.49318 638.174753,316.71389 639.847603,319.09572 L641.139593,320.91115 C641.803655,321.830095 642.492133,322.7676 643.198183,323.71095 L644.631773,325.60548 L646.099543,327.50196 L646.842707,328.446296 L648.425717,330.423836 L649.218686,331.398445 L650.010678,332.357429 L651.581968,334.225589 C652.880798,335.749029 654.151308,337.186529 655.352478,338.482429 C656.428648,339.644539 657.604428,340.843759 658.847598,342.053719 L659.791934,342.962899 L661.413024,344.480479 L662.241149,345.236338 L663.924739,346.736338 C664.950129,347.632822 665.985289,348.517588 667.022399,349.373058 L668.574159,350.635758 C669.861269,351.669938 671.136659,352.652358 672.369079,353.562518 L673.826109,354.616228 C675.735289,355.968768 677.508729,357.108418 679.027279,357.940448 C680.827079,358.92287 682.887629,359.950218 685.038999,360.949238 L686.121029,361.446308 L688.037049,362.29787 L688.997987,362.712909 L690.912047,363.515643 L691.857359,363.899432 L692.791929,364.270526 L694.615169,364.966815 C696.696219,365.742206 698.605399,366.376975 700.160089,366.793965 C705.486259,368.223655 713.719689,368.849625 718.453989,368.185565 L719.125864,368.086933 L720.612194,367.850605 L722.264534,367.563496 L724.050664,367.233418 L725.937384,366.867207 L727.894414,366.470723 L729.890504,366.051778 L732.887574,365.393575 L734.841674,364.944356 L736.723514,364.494161 L738.502814,364.049825 L739.936404,363.665059 L741.527224,363.206075 L742.375857,362.951192 L744.164917,362.395528 L746.546757,361.621114 L749.053597,360.773458 L751.122937,360.050802 L753.225477,359.298849 L755.341687,358.523458 L757.451067,357.731466 L759.532117,356.929708 L761.564347,356.12795 L763.528217,355.331075 L765.403217,354.546895 L767.255757,353.74709 L769.274307,352.850606 L770.339737,352.369161 L772.566297,351.346701 L774.902237,350.255881 L778.560437,348.516621 L781.067277,347.302751 L783.603407,346.061541 L786.144427,344.801771 L788.667867,343.536151 L791.147357,342.275411 L793.562397,341.031271 L797.012597,339.219751 L799.164937,338.066431 L802.078997,336.468771 L804.097547,335.341821 L806.160047,334.176781 L808.249887,332.982441 L812.453007,330.541031 L815.562387,328.701191 L817.586797,327.488301 L819.554567,326.295921 L821.450077,325.133811 L823.256717,324.011741 L824.959837,322.938501 L826.544797,321.921901 L827.995967,320.974635 L829.295767,320.102565 C831.466667,318.625025 833.952017,316.769555 836.483267,314.761745 L837.434439,314.001979 L839.336779,312.451199 L840.282091,311.665066 L842.143421,310.084016 L842.971546,309.366243 L844.582876,307.942413 L846.118036,306.545933 C847.607296,305.169953 848.953976,303.863313 850.070186,302.694373 C850.897334,301.829139 851.808466,300.818393 852.775266,299.702183 L853.958856,298.314483 L854.566278,297.585967 L855.987178,295.851587 L857.438348,294.032247 L858.169793,293.09963 L858.901238,292.153341 L860.361198,290.234391 L861.801628,288.296891 L862.508659,287.329118 L863.204948,286.365251 L864.552608,284.458021 L865.202022,283.521498 L866.437372,281.693378 C866.834833,281.094745 867.215692,280.511738 867.578972,279.945328 C868.616082,278.324238 869.740102,276.450208 870.897332,274.426778 L872.064322,272.359398 C872.652213,271.303738 873.243032,270.219748 873.831902,269.122098 L874.419793,268.018578 L875.999873,264.980488 L876.309443,264.371113 L877.523313,261.946313 L878.682493,259.561543 C879.011595,258.874043 879.330931,258.196313 879.638548,257.531273 L880.529173,255.575223 C880.957884,254.619168 881.357298,253.698273 881.722533,252.823273 L882.300658,251.410183 L882.528197,250.839871 L883.468627,248.420921 L883.953002,247.137721 L884.941283,244.454131 C885.273314,243.537139 885.608275,242.600611 885.942263,241.651401 L886.442263,240.218781 L887.432497,237.326201 L888.394411,234.429721 L888.860231,232.995151 L889.753786,230.182651 L890.381716,228.144561 L890.9657,226.189481 L891.498903,224.335961 L892.068239,222.252951 L892.163942,221.887717 L892.648317,219.912127 L893.149294,217.701187 L893.558474,215.783217 L893.97156,213.749037 L894.386599,211.613297 L894.800661,209.390637 L895.211794,207.095717 L895.816286,203.552747 L896.207888,201.145517 L896.586794,198.716807 L897.126833,195.071297 L897.464724,192.659187 L897.782107,190.280277 L898.143435,187.375007 L898.463747,184.573247 C900.317267,167.481447 900.387577,156.285147 898.68152,138.829147 L898.342653,135.516647 L898.091676,133.282267 L897.810426,130.933637 L897.39441,127.645547 L896.813355,123.333047 L896.173707,118.857457 L895.627809,115.204137 L895.344606,113.364297 L894.613161,108.761757 L893.857302,104.208047 L893.087771,99.7695667 L892.933474,98.9014027 L892.313357,95.5098027 L891.698123,92.2783527 L891.090701,89.2373327 L890.792849,87.7988527 L890.03113,84.2246327 L888.84754,78.8437727 L887.64832,73.5810727 L886.47156,68.5908427 L885.717654,65.4931827 L884.829959,61.9580227 L884.175662,59.4570427 L883.725467,57.8017727 L883.188358,55.9248227 L882.950077,55.1416197 L882.732304,54.4677917 L882.077031,52.5771717 L881.252812,50.3115517 L879.569222,45.8359617 L876.646372,38.2939235 L876.647382,38.2939235 Z M149.309382,13.9179235 C146.549612,12.7851135 144.631652,12.5927235 141.473442,13.4052285 L140.825004,13.5800335 L139.813284,13.8837445 L139.275198,14.0575725 L138.126758,14.4472205 L136.871878,14.8944865 L134.765428,15.6737835 C128.711718,17.9511235 120.479328,23.6444835 113.600428,30.2889835 L112.841639,31.0311715 L111.645349,32.2167215 L109.465659,34.3983615 L108.443199,35.4393815 L107.512535,36.4061785 L106.470545,37.5253185 L105.557459,38.5575485 C102.754729,41.8290285 101.930509,43.9266885 101.934395,47.2372385 L101.941244,47.7704415 L101.977377,48.6337225 L102.039877,49.5585275 L102.124838,50.5507155 L102.349447,52.7704455 C102.482259,54.0360655 102.761556,55.5790355 103.153158,57.3016955 L103.517416,58.8202455 L103.932455,60.4120455 C104.078939,60.9530615 104.233236,61.5048155 104.395346,62.0643855 L104.643393,62.9081355 L105.210776,64.7587255 C106.433436,68.6327455 107.929526,72.6952455 109.483236,76.2587255 L110.069174,77.5702455 L110.741049,79.0194655 L111.390463,80.3856755 L112.020346,81.6708355 L112.631674,82.8759155 L113.224447,84.0018955 L113.798666,85.0497455 L114.079916,85.5448625 L114.628744,86.4774795 L114.897299,86.9149795 L115.423666,87.7343155 C117.413896,90.7323655 119.082846,92.0985755 120.623866,92.0985755 C121.0516,92.0985755 121.713706,91.8456455 122.557456,91.3808025 L122.930503,91.1679115 L123.571128,90.7763095 L124.264487,90.3222075 L125.005698,89.8095125 L125.791831,89.2392005 L126.618979,88.6142005 L127.48226,87.9384195 L128.380698,87.2138105 L129.309409,86.4452555 L130.265464,85.6327555 L131.743984,84.3417355 L132.752774,83.4364625 L134.292814,82.0155625 L135.331874,81.0311875 L136.376794,80.0214175 L137.424644,78.9882175 L139.362144,77.0399775 C147.220544,69.2450575 158.299644,60.6961775 167.007644,55.7010775 L168.611164,54.8006865 L169.814284,54.1180695 L170.991044,53.4334995 L172.136554,52.7489295 L173.791824,51.7303795 L174.847484,51.0594815 L175.861154,50.3983485 L176.828927,49.7499105 L177.745919,49.1170985 L178.6092,48.5008875 L179.417794,47.9051845 L180.165841,47.3329185 L180.849435,46.7870205 L181.466623,46.2694425 L182.012521,45.7811615 L182.484201,45.3270595 C183.206857,44.5995205 183.604321,44.0204195 183.604321,43.6463995 C183.604321,43.3280405 183.376782,42.8172975 182.958813,42.1542095 L182.768383,41.8602645 L182.2635,41.1444445 L181.518383,40.1796005 L180.789867,39.2967885 L180.140453,38.5438585 L179.436351,37.7538195 L178.286941,36.5086995 L177.879714,36.0799885 L177.034011,35.2030355 L176.147292,34.3045975 L175.22444,33.3905355 L173.77717,31.9930755 L172.77619,31.0526455 L171.7508,30.1102625 L170.58674,29.0624125 L169.27229,27.9071425 L167.93049,26.7538225 L166.56819,25.6112425 L165.19807,24.4842925 L163.82795,23.3807725 L162.4676,22.3104625 L161.12971,21.2782325 L159.82112,20.2919045 L158.55452,19.3612405 L157.33772,18.4911235 L156.18049,17.6903425 L155.09358,16.9647565 L154.579908,16.6327255 L153.617017,16.0360455 C153.158033,15.7606545 152.734205,15.5213975 152.352367,15.3212015 L151.495922,14.8983495 L150.575024,14.4628025 L150.138501,14.2655365 L149.310376,13.9090915 L149.309382,13.9179235 Z"></path>
  </g>
</svg>