<?xml version="1.0" standalone="no"?>
<!DOCTYPE svg PUBLIC "-//W3C//DTD SVG 1.1//EN" "http://www.w3.org/Graphics/SVG/1.1/DTD/svg11.dtd" >
<svg xmlns="http://www.w3.org/2000/svg" xmlns:xlink="http://www.w3.org/1999/xlink" version="1.1" viewBox="-13 0 1050 1024">
   <path fill="currentColor"
d="M261.05 883.006c-63.4209 0 -64.6816 -3.08301 -72.1738 -4.49121c-4.58008 -0.860352 -9.97656 -1.97559 -11.9922 -2.47656c-2.01465 -0.500977 -7.56152 -1.66992 -12.3252 -2.5957c-4.76367 -0.927734 -13.458 -3.07129 -19.3203 -4.76562
c-5.86328 -1.69336 -15.457 -4.58398 -21.3193 -6.42188c-5.86328 -1.83789 -12.9082 -4.2627 -15.6562 -5.38672s-7.09473 -2.71387 -9.66016 -3.5332c-2.56445 -0.818359 -6.16211 -2.16016 -7.99414 -2.98145c-1.83203 -0.820312 -4.68066 -1.75586 -6.3291 -2.0752
c-1.64941 -0.320312 -3.80371 -0.90918 -4.78711 -1.31055c-1.00293 -0.408203 -2.08105 -1.56543 -2.45312 -2.63379c-0.432617 -1.24121 -0.44043 -2.7168 -0.0214844 -4.23535c0.354492 -1.28125 1.45801 -2.98145 2.45312 -3.77832s3.3584 -2.23535 5.25098 -3.19727
c1.89355 -0.960938 5.6416 -3.21484 8.32812 -5.00684c2.6875 -1.79199 6.83496 -4.50391 9.2168 -6.02637c2.38281 -1.52148 7.62793 -4.82422 11.6592 -7.33691s11.2266 -7.48633 15.9902 -11.0508c5.2168 -3.90332 11.7178 -9.62402 16.3467 -14.3867
c4.22754 -4.34961 9.0791 -9.91699 10.7822 -12.373s4.6543 -7.10352 6.55762 -10.3271c1.90527 -3.22461 4.44531 -8.11035 5.64551 -10.8584s3.08008 -7.24512 4.17676 -9.99316c1.09766 -2.74805 3.19141 -7.69434 4.65527 -10.9922
c1.46387 -3.29883 4.13867 -8.54492 5.94727 -11.6592c1.80664 -3.11523 5.58984 -8.66113 8.40625 -12.3252c2.81738 -3.66406 6.75586 -8.65527 8.75293 -11.0908c1.99805 -2.43652 5.91992 -6.4834 8.71484 -8.99414s7.22656 -6.17871 9.85059 -8.14941
s7.31934 -5.24609 10.4326 -7.27734c3.11426 -2.03223 9.11133 -5.25195 13.3252 -7.15625c4.21387 -1.90527 10.3604 -4.38086 13.6582 -5.50391s8.69434 -2.64453 11.9922 -3.37988c3.29785 -0.736328 9.83105 -1.69727 14.5176 -2.13574
c4.6875 -0.4375 10.833 -0.613281 13.6582 -0.389648s7.83398 0.69043 11.1318 1.03516s8.0957 1.22461 10.6602 1.95703c2.56543 0.731445 7.66211 2.42578 11.3262 3.76562s9.41797 3.73828 12.7861 5.33008s9.51367 5.15039 13.6582 7.90723
c4.14355 2.75684 10.6816 7.67188 14.5283 10.9219c3.84766 3.25098 8.88672 8.14258 11.1973 10.8721c2.31055 2.72852 5.45996 6.61035 6.99805 8.62598c1.53809 2.01465 4.34863 6.06348 6.24707 8.99414c1.89746 2.93066 4.57129 7.87793 5.93848 10.9932
c1.36816 3.11426 3.00098 7.16211 3.62793 8.99414c0.62793 1.83203 1.75586 5.5791 2.50684 8.32715s1.84863 7.39551 2.43945 10.3271c0.59082 2.93262 1.24707 9.22754 1.45898 13.9912c0.317383 7.1377 0.130859 10.1201 -1.06055 16.9609
c-0.794922 4.56641 -2.33594 11.7607 -3.42188 15.9902c-1.08594 4.22852 -3.51074 11.2871 -5.38477 15.6836c-1.87402 4.39746 -4.62793 10.0938 -6.12012 12.6582c-1.49121 2.56543 -4.20605 6.91211 -6.0332 9.66016s-6.63867 8.29492 -10.6934 12.3252
c-4.05469 4.0293 -9.46875 8.70996 -12.0322 10.3984s-6.75977 4.29199 -9.3252 5.78613c-2.56445 1.49414 -7.46973 3.94434 -10.8994 5.44434s-9.57617 3.56543 -13.6582 4.59082c-5.95117 1.49512 -8.73633 4.75977 -72.1582 4.75977zM533.299 883.006
c-42.7588 0 -44.6094 -3.31934 -48.4482 -5.25195c-3.23242 -1.62988 -6.65723 -4.06934 -9.16016 -6.52344c-2.19922 -2.15723 -5.10547 -5.5625 -6.45996 -7.56641c-1.35547 -2.00391 -3.71094 -6.76562 -5.23438 -10.582
c-2.75293 -6.88965 -2.77344 -7.00098 -2.80762 -15.7734c-0.0302734 -7.50293 0.194336 -9.51953 1.49023 -13.3809c0.838867 -2.50098 2.68164 -6.7959 4.09277 -9.54395c1.41016 -2.74805 3.86133 -6.64551 5.44629 -8.66113
c1.58398 -2.01465 4.36328 -4.80566 6.1748 -6.2002c1.8125 -1.39551 5.39258 -3.6123 7.95703 -4.92578c2.56543 -1.3125 6.7627 -3.10645 9.32715 -3.98438c3.89453 -1.33398 6.80762 -1.70508 17.6553 -2.24512c7.14453 -0.356445 18.2383 -0.939453 24.6514 -1.2959
c6.41309 -0.357422 13.0928 -0.953125 14.8457 -1.32324c1.75391 -0.370117 5.80078 -0.833984 8.99414 -1.03125c3.19238 -0.197266 8.20508 -0.810547 11.1367 -1.36719c2.93066 -0.554688 7.42773 -1.42969 9.99316 -1.94434
c2.56445 -0.515625 8.26074 -1.58594 12.6582 -2.38184c4.39648 -0.796875 9.94336 -2.00684 12.3242 -2.68848c2.38184 -0.681641 6.5791 -1.81738 9.32715 -2.52148c2.74805 -0.705078 7.24512 -1.87891 9.99316 -2.60742
c2.74805 -0.729492 10.2432 -3.11816 16.6562 -5.30859c6.41211 -2.19141 14.6572 -5.16406 18.3213 -6.6084s11.1582 -4.65039 16.6553 -7.125c5.49609 -2.47461 13.5918 -6.30469 17.9883 -8.51074c4.39746 -2.20605 11.8281 -6.15625 16.5127 -8.7793
c4.68555 -2.62207 10.248 -5.72754 12.3623 -6.90234c2.11426 -1.17383 6.78223 -2.89648 10.375 -3.83105c4.47168 -1.16016 8.28711 -1.69629 12.0947 -1.69629c3.74805 0 7.73633 0.548828 12.2217 1.68262c3.66016 0.924805 9.89355 2.75 13.8506 4.05273
c3.95703 1.30371 9.29297 2.92578 11.8584 3.60352c2.56445 0.677734 7.51172 2.16504 10.9922 3.30664c3.48145 1.14258 8.27832 2.50098 10.6602 3.02344c2.38184 0.521484 7.92871 2.00879 12.3252 3.30664c4.39746 1.29785 11.293 3.24316 15.3232 4.32715
c4.03125 1.08301 8.97656 2.45898 10.9932 3.05859c2.01562 0.600586 5.6123 1.61426 7.99512 2.25488c2.38184 0.641602 6.87891 1.95312 9.99219 2.91504c3.11426 0.962891 10.9102 3.29004 17.3223 5.17383c6.41211 1.88281 14.0166 4.30469 16.8975 5.38184
s6.02832 1.86719 6.99512 1.75586c1.4248 -0.165039 1.79492 -0.595703 1.95898 -2.27734c0.117188 -1.21094 -0.761719 -4.53516 -2.11328 -7.99512c-1.27344 -3.25684 -3.26758 -9.37012 -4.43262 -13.584c-1.16406 -4.21387 -2.65234 -9.60938 -3.30664 -11.9912
c-0.655273 -2.38281 -1.99707 -7.0293 -2.98242 -10.3271c-0.986328 -3.29785 -2.78125 -9.59473 -3.98926 -13.9912c-1.20801 -4.39746 -2.86035 -10.2432 -3.67188 -12.9922c-0.8125 -2.74902 -2.54102 -8.59375 -3.84375 -12.9922
c-1.30176 -4.39648 -3.0459 -10.1191 -3.87598 -12.7148s-2.1748 -7.24316 -2.9873 -10.3271c-0.813477 -3.08301 -1.99902 -7.25488 -2.63672 -9.27051c-0.636719 -2.0166 -1.82324 -6.12988 -2.63965 -9.14453c-0.814453 -3.0127 -2.23633 -8.10938 -3.1582 -11.3262
c-0.921875 -3.21582 -2.28516 -8.09473 -3.02832 -10.8428c-0.899414 -3.31934 -1.34863 -7.00879 -1.33984 -10.9932c0.00976562 -3.8291 0.518555 -7.99023 1.40625 -11.5166c0.766602 -3.03613 2.09277 -7.2334 2.95117 -9.32715s4.3584 -9.05273 7.77734 -15.4658
c3.41992 -6.41211 7.95312 -15.2568 10.0742 -19.6543c2.12207 -4.39648 5.11523 -10.8428 6.65039 -14.3232c1.53613 -3.48145 3.65527 -8.87891 4.70801 -11.9922c1.05273 -3.11426 2.81152 -7.91211 3.90625 -10.6602s2.72754 -7.39551 3.62891 -10.3271
s2.3916 -7.57812 3.31543 -10.3271c0.923828 -2.74805 2.71094 -8.89355 3.96973 -13.6582c1.25879 -4.76367 2.75586 -10.6094 3.32617 -12.9912c0.569336 -2.38281 1.51562 -7.0293 2.10059 -10.3271s1.62598 -8.99414 2.31152 -12.6582
c0.686523 -3.66406 1.73047 -10.1104 2.32031 -14.3242s1.36133 -11.4092 1.71191 -15.9902c0.352539 -4.58008 0.893555 -16.7217 1.20508 -26.9814c0.3125 -10.2598 0.455078 -23.002 0.319336 -28.3154c-0.135742 -5.3125 -0.702148 -15.3564 -1.25781 -22.3184
c-0.556641 -6.96191 -1.33203 -14.7578 -1.72559 -17.3223c-0.391602 -2.56543 -0.951172 -6.6123 -1.24121 -8.99414s-1 -6.80566 -1.57715 -9.83008c-0.579102 -3.02441 -1.6543 -8.7207 -2.38867 -12.6582c-0.733398 -3.93652 -1.68164 -8.50781 -2.10254 -10.1562
c-0.420898 -1.64941 -1.17285 -4.49707 -1.66992 -6.3291s-2.24316 -7.97852 -3.87891 -13.6582c-1.63672 -5.67969 -4.36328 -14.2246 -6.06152 -18.9883s-3.92578 -11.0586 -4.95312 -13.9912c-1.02637 -2.93066 -3.51953 -9.22656 -5.54102 -13.9902
c-2.02051 -4.76465 -5.35449 -12.1094 -7.40918 -16.3232c-2.05371 -4.21387 -5.28809 -10.5098 -7.1875 -13.9912c-1.89941 -3.48047 -5.2373 -9.47656 -7.41699 -13.3252c-2.17969 -3.84668 -5.63379 -9.69336 -7.6748 -12.9922
c-2.04102 -3.29785 -5.10156 -7.94434 -6.7998 -10.3262c-1.69922 -2.38281 -3.95898 -5.97461 -5.02344 -7.9834c-1.31641 -2.48633 -2.52441 -3.85938 -3.78223 -4.29785c-1.50098 -0.524414 -2.08301 -0.402344 -3.11035 0.654297
c-0.696289 0.714844 -2.00391 3.1377 -2.90527 5.38379c-0.902344 2.24609 -2.83105 5.84375 -4.28711 7.99512c-1.45605 2.15039 -4.09082 6.30859 -5.8584 9.23926c-1.7666 2.93164 -4.9082 8.32812 -6.98438 11.9922s-5.30469 9.21094 -7.17188 12.3252
c-1.86816 3.11426 -5.01855 8.21094 -6.99805 11.3262c-1.98047 3.11523 -5.77246 9.26074 -8.42578 13.6582c-2.65234 4.39648 -7.39355 12.042 -10.5342 16.9883c-3.1416 4.94727 -7.51367 11.9922 -9.7168 15.6562c-2.20215 3.66406 -5.70801 9.31543 -7.79004 12.5576
c-2.08203 3.24316 -5.93555 9.23926 -8.56348 13.3252s-7.02148 10.876 -9.75977 15.0898c-2.74023 4.21484 -6.21289 9.66699 -7.71777 12.1172c-1.50391 2.4502 -3.67773 5.92383 -4.83008 7.71973c-1.15332 1.79395 -3.86328 5.93457 -6.02539 9.2002
c-2.16211 3.2666 -5.9082 8.91406 -8.32812 12.5508c-2.41895 3.63574 -5.59766 8.50586 -7.0625 10.8232c-1.46582 2.31836 -4.94531 7.4375 -7.73438 11.3779c-2.78809 3.94141 -10.0498 14.5908 -16.1387 23.665c-6.08984 9.0752 -14.7021 21.8174 -19.1426 28.3154
c-4.43945 6.49805 -9.73242 14.2129 -11.7637 17.1436c-2.03125 2.93164 -5.39746 7.57812 -7.48242 10.3271c-2.08496 2.74805 -5.97559 8.26465 -8.64746 12.2568c-2.67188 3.99316 -6.87402 9.98926 -9.33496 13.3252
c-2.46191 3.33496 -6.38574 8.91211 -8.71582 12.3936c-2.33105 3.48047 -5.93262 8.57715 -8.00195 11.3252c-2.06836 2.74805 -5.2334 7.0625 -7.03125 9.58691c-1.79785 2.52344 -6.79199 9.34668 -11.0957 15.1592c-4.30273 5.81445 -11.3486 15.2422 -15.6553 20.9531
c-4.30762 5.71094 -10.0518 13.4297 -12.7646 17.1523c-2.71289 3.72363 -7.80957 10.5 -11.3252 15.0596c-3.5166 4.56055 -7.44336 9.55664 -8.72656 11.1016c-1.28223 1.5459 -4.21289 5.30957 -6.51172 8.36426c-2.29883 3.05566 -5.44629 7.11816 -6.99512 9.02734
c-1.54785 1.91016 -4.61426 5.62988 -6.81348 8.26758c-2.19824 2.63672 -5.19629 6.19629 -6.66113 7.90918c-1.4668 1.71484 -4.31445 5.16406 -6.3291 7.66797c-2.01562 2.50488 -6.94434 8.32422 -10.9531 12.9346s-13.4531 14.6396 -20.9863 22.2881
c-7.5332 7.64746 -16.3604 16.126 -19.6133 18.8398c-3.25391 2.71387 -9.39941 7.24121 -13.6572 10.0605c-4.31348 2.85645 -10.5459 6.26953 -14.0723 7.70801c-4.92773 2.01074 -7.53516 2.66113 -11.7773 2.94141
c-4.57617 0.301758 -6.22852 0.104492 -10.3271 -1.22754c-2.68359 -0.87207 -6.69824 -2.7998 -8.92285 -4.28125c-2.22363 -1.48242 -7.85547 -5.98145 -12.5137 -9.99707s-11.9395 -9.57715 -16.1787 -12.3584c-4.24023 -2.78125 -11.3486 -7.42773 -15.7939 -10.3271
c-4.44629 -2.89844 -10.0615 -7.21875 -12.4805 -9.59961s-5.24609 -5.79395 -6.28418 -7.58203c-1.03906 -1.78906 -2.58496 -5.17285 -3.4375 -7.51953c-0.863281 -2.37891 -1.73438 -6.69238 -1.96582 -9.74023c-0.229492 -3.00879 -0.0966797 -7.4209 0.295898 -9.80176
c0.391602 -2.38184 1.14746 -6.2793 1.67969 -8.66113c0.532227 -2.38281 1.72754 -7.17969 2.6582 -10.6602c0.929688 -3.48145 3.50879 -10.7568 5.73145 -16.168c2.22363 -5.41113 6.17871 -14.1055 8.79004 -19.3213c2.6123 -5.21582 7.45117 -14.4287 10.7529 -20.4746
c3.30371 -6.0459 8.7041 -15.4902 12.0029 -20.9863c3.2998 -5.49609 7.82812 -12.9199 10.0654 -16.4961s6.72168 -10.6221 9.96777 -15.6562c3.24609 -5.0332 9.16309 -14.1006 13.1514 -20.1465c3.98926 -6.0459 12.1016 -17.9277 18.0303 -26.4043
c5.92773 -8.47559 12.8818 -18.3701 15.4541 -21.9863c2.57227 -3.61523 6.19434 -8.71191 8.0498 -11.3232c1.85449 -2.6123 5.77051 -8.125 8.70117 -12.25c2.93164 -4.12598 9.46875 -13.0811 14.5254 -19.9023s13.1533 -17.5967 17.9883 -23.9482
c4.83594 -6.35156 10.4414 -13.7627 12.457 -16.4697c2.01465 -2.70703 5.46289 -7.20508 7.66211 -9.99512c2.19824 -2.79004 5.90039 -7.66992 8.22852 -10.8457s5.49121 -7.27148 7.0293 -9.10352c1.53906 -1.83203 4.7207 -5.87988 7.07129 -8.99414
c2.34961 -3.11328 5.63184 -7.42188 7.29492 -9.57031c1.66211 -2.15039 4.82031 -6.08691 7.01855 -8.74805s5.82031 -7.04883 8.04688 -9.75c2.22754 -2.7002 6.26953 -7.75781 8.9834 -11.2393c2.71387 -3.48047 6.88672 -8.73633 9.27441 -11.6787
c2.38867 -2.94238 6.09961 -7.4873 8.24512 -10.0996c2.14648 -2.61133 7.95117 -9.64844 12.8994 -15.6367c4.94727 -5.9873 10.6719 -12.9863 12.7197 -15.5508c2.04785 -2.56543 5.08789 -6.27832 6.75488 -8.25098c1.66602 -1.97266 5.43262 -6.32129 8.36816 -9.66016
c2.93652 -3.33887 7.2832 -8.42969 9.66016 -11.3096c2.37793 -2.88184 7.97656 -9.41699 12.4443 -14.5264c4.4668 -5.10938 10.4629 -12.001 13.3242 -15.3154s11.0234 -12.5186 18.1367 -20.4512c7.1123 -7.93359 15.834 -17.7227 19.3809 -21.7529
c3.54688 -4.03125 9.12012 -10.1953 12.3848 -13.6992s7.50293 -8.08105 9.41895 -10.1729c1.91504 -2.0918 5.58887 -6.07715 8.16309 -8.85645s6.19434 -6.26074 8.04492 -7.73438c2.71582 -2.16113 3.32715 -3.01465 3.16309 -4.41895
c-0.152344 -1.30664 -1.3623 -2.5293 -4.86621 -4.91797c-2.56445 -1.74805 -8.77539 -5.79883 -13.8037 -9.00098s-11.1729 -7.05469 -13.6582 -8.56152c-2.4834 -1.50586 -7.21582 -4.23438 -10.5137 -6.06055c-3.29785 -1.8252 -10.3428 -5.37402 -15.6562 -7.88281
c-5.3125 -2.50781 -13.1084 -6.03223 -17.3223 -7.83105s-11.4092 -4.76953 -15.9893 -6.60156c-4.58008 -1.83301 -11.3262 -4.32812 -14.9902 -5.54395s-10.1104 -3.26172 -14.3242 -4.54297c-4.21387 -1.28223 -13.8076 -3.81055 -21.3193 -5.61816
c-7.51074 -1.80859 -17.5547 -3.94727 -22.3184 -4.75488c-4.76465 -0.807617 -10.7607 -1.88477 -13.3252 -2.39648c-2.56543 -0.510742 -6.46191 -1.06055 -8.66113 -1.22363s-5.64551 -0.619141 -7.66211 -1.0127
c-2.01562 -0.394531 -9.50977 -1.03125 -16.6562 -1.41504c-7.14453 -0.384766 -17.3389 -0.87207 -22.6514 -1.08398c-5.31348 -0.211914 -15.0576 -0.0400391 -21.6533 0.382812s-15.4395 0.911133 -19.6543 1.08398
c-4.21387 0.172852 -9.84375 0.755859 -12.5107 1.29492c-2.66797 0.540039 -6.14746 0.980469 -7.73633 0.980469c-1.58789 0 -5.85156 0.568359 -9.47461 1.26172c-3.62402 0.693359 -9.58594 1.75586 -13.251 2.35938
c-3.66504 0.604492 -8.76074 1.66797 -11.3262 2.36328c-2.56445 0.695312 -6.91211 1.71582 -9.66016 2.26758c-2.74805 0.552734 -7.24512 1.57715 -9.99219 2.27734c-2.74805 0.700195 -8.14551 2.25 -11.9922 3.44434
c-3.84766 1.19336 -9.54395 3.00684 -12.6582 4.02832c-3.11523 1.02148 -8.53711 2.8916 -12.0488 4.15625c-3.5127 1.26562 -9.95898 3.86816 -14.3242 5.78613c-4.36621 1.91797 -11.2354 4.99902 -15.2656 6.84766c-4.03125 1.84961 -11.0762 5.26758 -15.6562 7.59863
c-4.58008 2.33008 -11.626 6.06641 -15.6562 8.30273s-9.72656 5.64648 -12.6582 7.5752c-2.93066 1.92871 -8.02734 5.2373 -11.3252 7.35059c-3.29883 2.11426 -9.09863 6.12695 -12.8906 8.91895s-9.99902 7.47461 -13.7939 10.4053s-10.4355 8.46973 -14.7578 12.3096
s-12.9189 11.9346 -19.1045 17.9883c-6.18457 6.05469 -15.9521 16.2549 -21.7061 22.667s-14.1084 16.5312 -18.5664 22.4863s-9.53125 12.7695 -11.2725 15.1426c-1.74121 2.37402 -6.19434 9.19531 -9.89551 15.1562s-8.49219 13.8379 -10.6455 17.502
c-2.15234 3.66406 -6.02441 10.8604 -8.60352 15.9902s-5.93359 12.1748 -7.4541 15.6562c-1.52051 3.48047 -4.25293 9.92676 -6.07324 14.3232c-1.81934 4.39746 -4.52539 11.1436 -6.01367 14.9902s-3.50781 9.54395 -4.48926 12.6582
c-0.980469 3.11426 -2.76855 8.81055 -3.97168 12.6582c-1.20312 3.84668 -3.02051 10.4424 -4.03711 14.6562c-1.01758 4.21484 -2.38477 10.2109 -3.04004 13.3252c-0.655273 3.11523 -1.67285 8.51172 -2.2627 11.9922
c-0.59082 3.48145 -1.48535 9.02734 -1.99121 12.3252s-1.22559 7.94531 -1.59668 10.3271c-0.37207 2.38184 -1.14062 7.62793 -1.7041 11.6592c-0.680664 4.84961 -1.16504 15.4404 -1.43359 31.3125c-0.249023 14.7129 -0.108398 30.2939 0.364258 40.3066
c0.423828 8.97754 1.07715 18.2715 1.45215 20.6533s1.11914 7.17871 1.65234 10.6602c0.53418 3.48145 1.44434 9.17676 2.02344 12.6582c0.579102 3.48047 1.26855 7.97754 1.53418 9.99316c0.265625 2.01465 1.90234 9.65918 3.63672 16.9883
c1.73535 7.3291 4.18066 16.623 5.43652 20.6533c1.25488 4.03125 3.46191 10.9258 4.90527 15.3232c1.44434 4.39648 3.81152 10.9932 5.25977 14.6572c1.44727 3.66309 4.14453 10.2598 5.99219 14.6562c1.84863 4.39746 4.9043 11.4434 6.79004 15.6562
c1.8877 4.21387 4.86914 10.3604 6.62793 13.6582c1.75977 3.29785 4.62598 8.54395 6.37109 11.6592c1.74609 3.11426 4.56055 7.76172 6.25586 10.3262c1.69629 2.56543 3.56836 5.71387 4.15918 6.99512c0.592773 1.28223 2.03711 3.9541 3.21094 5.9375
c1.1748 1.98242 2.88574 5.58105 3.80371 7.99512c0.916992 2.41406 1.90137 6.65527 2.18848 9.42578c0.287109 2.76953 0.288086 8.0166 0.00390625 11.6592c-0.416992 5.34277 -0.970703 7.69824 -2.87012 12.1904c-1.29395 3.06348 -3.55371 7.41016 -5.02051 9.66016
s-4.10547 5.46582 -5.86133 7.14648c-1.75586 1.67969 -4.7334 4.1543 -6.61816 5.5c-1.88379 1.34473 -5.10156 3.21387 -7.15039 4.15137c-2.04883 0.938477 -5.75391 2.28516 -8.23145 2.99414c-3.21094 0.917969 -6.58496 1.28809 -11.7402 1.28809
c-4.44824 0 -8.81055 -0.408203 -11.3281 -1.05859c-2.25098 -0.582031 -6.19238 -2.04297 -8.75781 -3.24707c-2.56445 -1.2041 -6.91113 -3.89062 -9.65918 -5.9707c-2.80273 -2.11816 -6.33105 -5.5957 -8.03223 -7.91113
c-1.66992 -2.27344 -4.81836 -6.82227 -6.99512 -10.1094s-4.5791 -7.18457 -5.33496 -8.66113c-0.755859 -1.47559 -2.91309 -5.23145 -4.79199 -8.34668s-6.20801 -11.2061 -9.61816 -17.9824c-3.41016 -6.77441 -7.95801 -16.0684 -10.1074 -20.6523
c-2.14844 -4.58398 -5.24316 -11.4834 -6.87793 -15.3301c-1.63379 -3.84766 -4.16992 -10.293 -5.63574 -14.3242s-3.23926 -8.82812 -3.94141 -10.6602s-2.50195 -6.92871 -3.99805 -11.3262c-1.49707 -4.39648 -3.13379 -9.79395 -3.6377 -11.9922
s-1.79785 -6.5459 -2.87598 -9.65918c-1.07812 -3.11426 -3.30469 -11.209 -4.9502 -17.9883c-1.64453 -6.7793 -3.60645 -15.1729 -4.35938 -18.6553c-0.75293 -3.48145 -1.83887 -9.19531 -2.41211 -12.6973c-0.572266 -3.50195 -1.04102 -7.93848 -1.04102 -9.86133
s-0.444336 -5.50195 -0.985352 -7.95703c-0.541992 -2.4541 -1.31543 -7.45996 -1.71777 -11.124s-1.08398 -9.50977 -1.51367 -12.9922c-0.712891 -5.77637 -2.44434 -6.75488 -2.44434 -51.6924c0 -44.9365 1.77832 -44.3555 2.84277 -52.0312
c0.600586 -4.3291 1.27344 -10.3066 1.49512 -13.2842c0.222656 -2.97852 0.831055 -7.02539 1.35645 -8.99414c0.523438 -1.96875 0.957031 -5.18848 0.960938 -7.15332s0.494141 -6.76172 1.08887 -10.6602c0.594727 -3.89648 2.06348 -11.2822 3.26562 -16.4131
c1.20215 -5.12988 2.94238 -12.4746 3.86816 -16.3223s2.31348 -9.09473 3.08301 -11.6592c0.770508 -2.56543 1.81934 -6.16309 2.33398 -7.99512c0.513672 -1.83203 2.625 -8.57812 4.69043 -14.9902c2.06445 -6.41211 4.76074 -14.3564 5.99023 -17.6543
c1.23145 -3.29883 3.19141 -8.54492 4.35645 -11.6592c1.16504 -3.11523 3.45605 -8.81152 5.08789 -12.6582s3.77441 -8.78613 4.75977 -10.9736c0.986328 -2.18848 4.75195 -9.83301 8.36914 -16.9893c3.61816 -7.15527 8.31641 -16.1582 10.4414 -20.0059
c2.125 -3.84863 4.98926 -8.83496 6.36523 -11.084s3.67969 -5.99609 5.11914 -8.32812c1.44043 -2.33203 4.00488 -6.33789 5.69824 -8.90332c1.69434 -2.56445 4.30078 -6.6123 5.79395 -8.99414s5.03613 -7.47754 7.87402 -11.3262
c2.83789 -3.84668 6.05566 -8.19434 7.15039 -9.65918c1.09473 -1.46582 3.55371 -4.79297 5.46582 -7.39355c1.91113 -2.60059 5.7998 -7.50293 8.6416 -10.8945c2.84277 -3.39258 8.87891 -10.2588 13.4121 -15.2598c4.53418 -5.00098 13.1523 -14.0742 19.1504 -20.166
c5.99805 -6.09082 15.9502 -15.6611 22.1162 -21.2705c6.16504 -5.60938 13.8555 -12.3193 17.0898 -14.9102c3.2334 -2.59082 7.93262 -6.29785 10.4414 -8.23633c2.51074 -1.93848 5.7627 -4.42578 7.22852 -5.52539c1.46582 -1.10059 5.21387 -3.86133 8.3291 -6.13574
s9.11133 -6.40039 13.3252 -9.16992c4.21387 -2.77051 10.3584 -6.75879 13.6553 -8.8623c3.29883 -2.10449 9.44434 -5.90527 13.6582 -8.44531s13.0586 -7.32617 19.6543 -10.6338s13.6406 -6.89453 15.6562 -7.96875c2.01465 -1.0752 6.3623 -3.21094 9.65918 -4.74609
c3.29883 -1.53516 8.0957 -3.62207 10.6602 -4.63574c2.56543 -1.01465 9.76074 -3.85742 15.9902 -6.31738s14.0244 -5.31543 17.3223 -6.34375c3.29785 -1.0293 9.14355 -2.92578 12.9922 -4.21582c3.84668 -1.28809 10.4424 -3.38574 14.6562 -4.65723
c4.21484 -1.27246 11.4092 -3.20508 15.9902 -4.29492c4.58008 -1.08984 10.2773 -2.46484 12.6582 -3.05664s8.37793 -1.82031 13.3252 -2.73242c4.94629 -0.911133 10.4932 -1.66309 12.3252 -1.66992c1.83105 -0.0078125 4.94141 -0.441406 6.91016 -0.96582
c1.96973 -0.523438 6.01758 -1.1377 8.99414 -1.36328c2.97754 -0.226562 8.41309 -0.895508 12.0771 -1.48633s15.6895 -1.63184 6.95117 -1.30371c-0.203125 0.0078125 21.6143 -0.873047 50.0117 -0.873047c51.6328 0 52.3887 1.09668 58.4619 1.88477
c3.57227 0.461914 9.04395 1.12305 12.1592 1.46582s7.76172 1.05566 10.3271 1.58203s6.91211 1.12988 9.66016 1.34082s8.14453 0.981445 11.9922 1.71191c3.84668 0.732422 9.24316 1.93652 11.9912 2.67871s7.0957 1.78809 9.66016 2.3252
c2.56543 0.537109 6.85352 1.58789 9.52832 2.33496c2.6748 0.746094 6.57422 1.94727 8.66113 2.66992c2.08789 0.72168 6.49414 2.04102 9.79199 2.93262s11.542 3.56836 18.3213 5.94629c6.77832 2.37891 15.0234 5.37109 18.3203 6.64941
c3.29688 1.2793 9.14453 3.66602 12.9922 5.30664c3.84668 1.63965 9.8457 4.29199 13.3301 5.89355c3.48438 1.60254 10.0908 4.7666 14.6816 7.03223c4.59082 2.26465 12.6846 6.41895 17.9834 9.22852c5.29883 2.81055 11.2852 6.15234 13.2998 7.4248
s7.27832 4.61328 11.6943 7.42578c4.41602 2.81152 11.9121 7.74902 16.6553 10.9717c4.74414 3.22266 11.1533 7.83789 14.2432 10.2549c4.48145 3.50781 6.20703 4.46289 8.54004 4.72656c2.9209 0.329102 2.93066 0.322266 8.40625 -5.25977
c3.01465 -3.07227 8.22266 -7.93262 11.5713 -10.7979c3.34766 -2.86426 8.92285 -7.66211 12.3867 -10.6602c3.46289 -2.99609 7.9043 -6.72461 9.86816 -8.2832c1.96387 -1.55957 6.26953 -4.96875 9.56738 -7.57617c3.29883 -2.6084 8.99121 -6.87891 12.6523 -9.49121
s8.15723 -5.67188 9.99316 -6.7998c1.83496 -1.12695 5.43555 -3.28711 8.00098 -4.80078c2.56543 -1.51465 6.91211 -3.7793 9.66016 -5.03516s7.00293 -2.95312 9.45703 -3.77148c3.42188 -1.14062 5.5459 -1.42578 9.13184 -1.22266
c3.86719 0.21875 5.16309 0.609375 7.51562 2.2627c1.56445 1.10059 3.75098 3.46582 4.85938 5.25781c1.9248 3.11328 2.01465 3.58789 2.01465 10.6445c0 4.0625 -0.387695 9.33301 -0.862305 11.7109c-0.475586 2.37793 -1.46777 6.87402 -2.20605 9.98828
c-0.739258 3.11426 -1.9834 7.91211 -2.76465 10.6592c-0.780273 2.74805 -2.14648 6.64648 -3.03516 8.66113c-0.886719 2.01562 -2.14648 5.46289 -2.7998 7.66211c-0.652344 2.19922 -2.82324 7.89551 -4.82812 12.6582
c-2.00293 4.76367 -5.29102 12.5576 -7.30469 17.3223c-2.01367 4.76367 -6.14941 13.9082 -9.19238 20.3193c-3.04199 6.41211 -7.32422 14.9395 -9.51562 18.9482c-2.41309 4.41113 -4.11035 8.38086 -4.29883 10.0566
c-0.294922 2.61719 -0.0830078 3.02637 3.92676 7.61328c2.33105 2.66602 5.82812 6.78027 7.77246 9.14355c1.94336 2.3623 5.54004 6.9707 7.99512 10.2432c2.45312 3.27148 5.66016 7.64941 7.12695 9.72949c1.46582 2.08008 4.34473 6.05566 6.39648 8.83594
c2.05273 2.78027 4.30078 6.10156 4.99707 7.38086c0.696289 1.28027 3.66309 5.98926 6.59375 10.4648c2.93164 4.47656 6.64062 10.4736 8.24219 13.3252c1.60254 2.85254 4.37402 7.79004 6.16113 10.9717c1.78711 3.18066 5.05469 9.13379 7.2627 13.2285
s5.84961 11.3857 8.09277 16.2012c2.24219 4.81543 5.84863 12.8037 8.0127 17.75s5.30469 12.4414 6.98047 16.6562c1.67676 4.21387 4.62207 12.3086 6.54883 17.9873c1.92578 5.67969 4.01465 12.125 4.64453 14.3242s1.70215 5.64648 2.38184 7.66211
c0.680664 2.01562 2.16113 7.1123 3.29004 11.3262s2.62891 9.75977 3.33301 12.3252c0.704102 2.56445 2.21484 8.55566 3.3584 13.3125c1.14258 4.75781 2.22461 10.1543 2.40234 11.9922c0.178711 1.83789 0.738281 5.29102 1.24023 7.67285
c0.50293 2.38184 1.39844 7.0293 1.98926 10.3271s1.33008 8.54395 1.63965 11.6592c0.311523 3.11426 0.894531 9.18555 1.2959 13.4922c0.402344 4.30566 1.18945 13.1484 1.75098 19.6533c0.686523 7.94922 1.01172 19.5771 0.990234 35.4766
c-0.0205078 16.2549 -0.335938 26.3594 -1.00977 32.3115c-0.538086 4.76367 -0.979492 10.6104 -0.978516 12.9922s-0.47168 7.92773 -1.05176 12.3252c-0.580078 4.39648 -1.62598 12.042 -2.32617 16.9883c-0.699219 4.94727 -1.75781 11.6924 -2.35156 14.9902
s-1.78223 9.44434 -2.63965 13.6582c-0.858398 4.21387 -2.60059 11.709 -3.87109 16.6562c-1.27148 4.94727 -2.91895 11.2432 -3.66211 13.9912s-2.41992 8.44434 -3.72852 12.6572c-1.30664 4.21484 -4.0625 12.7588 -6.125 18.9883
c-2.06152 6.23047 -5.48145 15.6729 -7.59961 20.9863c-2.11816 5.3125 -5.23633 12.958 -6.92773 16.9883c-1.69238 4.03125 -5.84082 12.875 -9.21973 19.6543c-4.69141 9.41504 -6.18945 13.0762 -6.34375 15.5049c-0.120117 1.8877 0.339844 4.86621 1.13184 7.3291
c0.734375 2.2832 2.2334 7.14746 3.33105 10.8125c1.09863 3.66504 3.07715 10.5596 4.39648 15.3223c1.31836 4.76465 3.31348 11.8096 4.43262 15.6562c1.11914 3.84766 3.01172 10.293 4.20605 14.3242c1.19531 4.03125 2.98926 10.2441 3.9873 13.8076
c0.998047 3.56445 2.84082 9.93457 4.09277 14.1572c1.25293 4.22266 3.0166 10.3008 3.92285 13.5078s2.09473 7.3291 2.64453 9.16113s1.44238 4.98047 1.98535 6.99512s3.09082 10.8604 5.66406 19.6543c2.57227 8.79395 5.49609 18.3877 6.49902 21.3184
c1.00293 2.93164 2.20703 7.17578 2.67383 9.43164c0.46875 2.25684 1.57227 6.15332 2.4541 8.66113c0.881836 2.50684 2.42383 7.85742 3.42871 11.8877c1.00293 4.03125 2.52539 9.48535 3.38184 12.1211c0.855469 2.63574 2.16602 7.11426 2.90918 9.95215
c0.984375 3.75977 1.35156 7.26367 1.35156 12.9072c0 5.36621 -0.374023 9.17383 -1.2168 12.3818c-0.668945 2.54785 -2.3877 6.86133 -3.81836 9.58398c-1.43066 2.72168 -3.85938 6.65723 -5.39453 8.74609c-1.53613 2.08691 -4.11719 4.70508 -5.7334 5.81738
s-4.6377 2.82715 -6.71289 3.81055c-3.03125 1.43457 -3.77441 4.96094 -25.6006 4.96094c-21.7861 0 -24.4473 -3.21973 -29.4727 -4.4248c-3.48047 -0.833984 -7.82812 -1.98242 -9.66016 -2.55371s-5.97656 -1.64551 -9.20996 -2.38965
c-3.23242 -0.744141 -8.62988 -2.20508 -11.9922 -3.24707c-3.36133 -1.04199 -8.51172 -2.54199 -11.4424 -3.33398c-2.93066 -0.791016 -6.97949 -1.90332 -8.99414 -2.4707c-2.01465 -0.568359 -5.16309 -1.56445 -6.99512 -2.21582
c-1.83203 -0.649414 -5.42969 -1.69434 -7.99512 -2.32129c-2.56445 -0.626953 -6.76172 -1.86523 -9.32715 -2.75c-2.56445 -0.885742 -8.03418 -2.5127 -12.1562 -3.61621c-4.12207 -1.10449 -10.0498 -2.72949 -13.1709 -3.61426
c-3.12305 -0.884766 -8.44531 -2.37598 -11.8271 -3.3125c-3.38184 -0.9375 -11.5459 -3.24512 -18.1426 -5.12891c-6.5957 -1.88477 -13.9404 -3.98145 -16.3223 -4.65918c-2.38281 -0.678711 -7.3291 -2.11719 -10.9932 -3.19727s-9.36133 -2.74609 -12.6582 -3.70215
s-9.29395 -2.83008 -13.3252 -4.16504c-4.03125 -1.33398 -8.14062 -2.55566 -9.13379 -2.71484c-1.2959 -0.208008 -3.83398 0.803711 -8.99414 3.58789c-3.9541 2.13281 -9.13672 4.83008 -11.5186 5.99512c-2.38281 1.16504 -7.3291 3.5293 -10.9932 5.25488
c-3.66406 1.72656 -10.1104 4.57422 -14.3242 6.33105s-10.8096 4.44629 -14.6572 5.97852c-3.84668 1.53125 -8.71191 3.22852 -10.8096 3.76953c-2.09863 0.541016 -5.69629 1.82129 -7.99512 2.84082c-2.29883 1.02148 -6.2793 2.39941 -8.84375 3.06348
c-2.56543 0.664062 -6.94922 2.04004 -9.74316 3.05859c-2.79395 1.01953 -8.49023 2.66309 -12.6582 3.65527s-10.127 2.52734 -13.2422 3.41211s-9.25977 2.34375 -13.6562 3.24219c-4.39551 0.897461 -15.415 2.08008 -17.0371 2.62793
s-5.64844 1.28809 -8.94629 1.64551c-3.29785 0.358398 -8.09473 1.00879 -10.6602 1.44824c-2.56543 0.438477 -13.9766 3.90527 -48.3232 3.90527zM223.903 533.148c-2.59277 -0.046875 -6.76465 -0.347656 -9.26953 -0.670898
c-2.50488 -0.322266 -6.85352 -1.35449 -9.66016 -2.29492c-2.80762 -0.94043 -7.05273 -2.53516 -9.43457 -3.54395c-2.38184 -1.00781 -6.51758 -3.25977 -9.19238 -5.00098c-2.67383 -1.74121 -7.03613 -5.31641 -9.69336 -7.94434
c-2.6582 -2.62793 -6.91211 -7.61426 -9.45312 -11.0811c-2.54102 -3.46875 -5.24902 -7.66504 -6.01855 -9.32715c-0.768555 -1.66211 -1.89648 -4.67188 -2.50684 -6.68848c-0.609375 -2.01465 -1.70996 -6.43359 -2.44238 -9.81934
c-0.904297 -4.1748 -1.33301 -8.64941 -1.33301 -13.9004c0 -5.36719 0.407227 -9.50977 1.32715 -13.498c0.731445 -3.16504 1.82812 -7.25293 2.43945 -9.08496s1.92871 -5.04004 2.92871 -7.12891s3.20312 -5.88086 4.89648 -8.42676
c1.69238 -2.5459 5.61816 -7.21094 8.72266 -10.3652c3.12207 -3.1709 8.31445 -7.4873 11.6152 -9.6543c3.2832 -2.15527 8.45898 -4.87695 11.5029 -6.04688s7.7002 -2.6875 10.3467 -3.37207c2.64746 -0.683594 7.74609 -1.44629 11.3311 -1.69336
c3.86523 -0.266602 8.84668 -0.139648 12.2373 0.311523c3.14551 0.417969 8.68945 1.68555 12.3213 2.81738c3.63086 1.13086 8.5498 3.12988 10.9316 4.44043c2.38184 1.31152 6.12891 3.58301 8.32812 5.04883c2.19922 1.4668 6.05859 4.63477 8.57812 7.04102
c2.51855 2.40723 5.76855 5.97461 7.2207 7.92676c1.45215 1.95117 3.64648 5.25 4.875 7.3291c1.22949 2.07812 3.24512 6.32617 4.47949 9.44141c1.2334 3.11523 2.82422 8.21094 3.53516 11.3262c0.917969 4.02637 1.28418 8.07129 1.26758 13.9912
c-0.0195312 6.72754 -0.369141 9.73535 -1.81934 15.6553c-1.20117 4.90527 -3.00293 9.77441 -5.44629 14.7236c-2.00879 4.06641 -4.99121 9.17773 -6.63086 11.3574c-1.63867 2.18066 -5.47168 6.35547 -8.51953 9.28027
c-3.75977 3.6084 -7.57617 6.4541 -11.8711 8.85449c-3.48145 1.94434 -9.0498 4.52734 -12.376 5.73926s-8.84961 2.68457 -12.2764 3.27344c-3.42578 0.587891 -8.35059 1.03223 -10.9414 0.985352v-0.000976562zM273.155 287.704
c-1.83203 0.134766 -6.0293 -0.144531 -9.32715 -0.620117s-8.14941 -1.52441 -10.7822 -2.3291c-2.63184 -0.804688 -8.02832 -3.06934 -11.9922 -5.03223s-9.36035 -5.31152 -11.9941 -7.44336c-2.63281 -2.13086 -7.15039 -6.57422 -10.0381 -9.87207
c-2.88867 -3.29785 -6.3291 -7.79492 -7.64453 -9.99316c-1.31641 -2.19922 -3.13574 -5.64648 -4.0459 -7.66211s-2.10938 -5.3125 -2.66406 -7.3291c-0.555664 -2.01465 -1.48828 -6.25195 -2.07129 -9.41504s-1.06055 -7.85449 -1.06055 -10.4268
s0.585938 -8.0791 1.30176 -12.2383s1.86133 -9.20996 2.5459 -11.2246c0.68457 -2.01562 2.66406 -6.46582 4.40039 -9.89062c1.73535 -3.42383 4.61426 -8.07031 6.39648 -10.3262c1.7832 -2.25488 4.53809 -5.31738 6.125 -6.80469
c1.58691 -1.48633 4.36621 -3.87891 6.17969 -5.31543c1.8125 -1.43652 4.31641 -3.30566 5.5625 -4.15137s4.26074 -2.53809 6.69824 -3.75879c2.43652 -1.2207 7.57812 -3.26562 11.4258 -4.54395c4.14648 -1.37695 9.71582 -2.64258 13.6738 -3.10449
c5.50098 -0.642578 7.91016 -0.605469 13.6582 0.213867c3.83789 0.547852 9.73828 1.89648 13.1113 2.99805c3.37305 1.10254 9.33984 3.73633 13.2607 5.85449c6.10547 3.29688 8.25195 4.95312 14.9268 11.5127c5.97656 5.87305 8.59766 9.03027 11.2295 13.5244
c1.8877 3.22363 4.5127 8.62012 5.83203 11.9922c1.81055 4.62793 2.70215 8.39551 3.63672 15.3809c1.14258 8.5459 1.16309 9.84082 0.251953 16.9893c-0.541992 4.25586 -1.62207 9.83691 -2.40039 12.4014c-0.777344 2.56543 -2.88867 7.65039 -4.69043 11.2988
c-1.80176 3.65039 -4.36816 7.99707 -5.7002 9.66016s-3.79102 4.52246 -5.46191 6.35254c-1.67188 1.83008 -4.83789 4.85156 -7.03613 6.71387c-2.19824 1.86133 -5.65137 4.43848 -7.67188 5.72461c-2.02148 1.28613 -5.76855 3.18945 -8.32812 4.22852
c-2.55859 1.03906 -6.50879 2.5752 -8.77637 3.41406c-2.26758 0.837891 -6.61426 1.85059 -9.65918 2.25c-3.04492 0.398438 -7.03711 0.835938 -8.86914 0.970703zM481.686 156.391c-3.29785 0.170898 -8.54395 -0.0703125 -11.6582 -0.538086
c-3.11523 -0.466797 -7.86816 -1.48145 -10.5645 -2.25586c-2.69629 -0.772461 -7.34277 -2.5957 -10.3271 -4.04883c-2.9834 -1.45312 -7.375 -4.06738 -9.75586 -5.80957c-2.38184 -1.74121 -6.68457 -5.5459 -9.56152 -8.4541s-7.11816 -8.1748 -9.4248 -11.7021
c-2.30566 -3.52832 -5.11328 -8.7959 -6.23926 -11.7061s-2.57227 -7.33203 -3.21484 -9.82617c-0.913086 -3.54395 -1.15625 -7.12012 -1.11328 -16.3848c0.0527344 -11.4863 0.123047 -12.0635 2.24316 -18.71c1.20312 -3.77344 3.1582 -8.8584 4.34473 -11.3008
c1.18555 -2.44336 3.70605 -6.62598 5.59863 -9.29492c1.89355 -2.66895 5.61426 -7.02539 8.27051 -9.68164c2.65625 -2.65527 6.85352 -6.24414 9.3291 -7.97363c2.47363 -1.73047 6.65723 -4.30957 9.2959 -5.73047c2.6377 -1.4209 6.74512 -3.05371 9.12695 -3.62793
c2.38184 -0.573242 6.34082 -1.50977 8.79785 -2.0791c2.7334 -0.631836 7.64746 -1.03613 12.6582 -1.04297c5.05566 -0.00488281 10.1025 0.402344 13.1865 1.06641c2.74805 0.59082 6.94531 1.68262 9.32715 2.42676s6.58789 2.4834 9.3457 3.86426
c2.75879 1.38086 7.40527 4.28809 10.3271 6.45898s7.00781 5.78711 9.08105 8.03418c2.07422 2.24805 5.49023 6.66992 7.59082 9.82812c2.10156 3.15723 4.82715 8.06836 6.05762 10.915c1.23047 2.84473 2.51172 6.49414 2.84766 8.10938s1.125 5.31348 1.75195 8.21777
c0.861328 3.99121 1.05664 7.16406 0.796875 12.9922c-0.188477 4.24121 -0.833984 9.80957 -1.43359 12.374c-0.600586 2.56543 -1.38574 5.94922 -1.74609 7.52051c-0.360352 1.57031 -1.69824 4.92676 -2.97266 7.45996
c-1.27539 2.5332 -3.72656 6.79297 -5.44824 9.46875c-1.7207 2.67578 -4.63965 6.61426 -6.4873 8.75195c-1.84668 2.1377 -5.16504 5.29883 -7.37305 7.02344c-2.20898 1.72559 -6.26367 4.43359 -9.01172 6.01953s-6.3457 3.47266 -7.99512 4.19531
c-1.64941 0.72168 -4.79688 1.88672 -6.99512 2.58984s-5.94629 1.56152 -8.32812 1.9082c-2.38184 0.345703 -7.02832 0.769531 -10.3271 0.94043v0.00195312z" />
</svg>
