<?xml version="1.0" standalone="no"?>
<!DOCTYPE svg PUBLIC "-//W3C//DTD SVG 1.1//EN" "http://www.w3.org/Graphics/SVG/1.1/DTD/svg11.dtd" >
<svg xmlns="http://www.w3.org/2000/svg" xmlns:xlink="http://www.w3.org/1999/xlink" version="1.1" viewBox="-10 0 1035 1024">
   <path fill="currentColor"
d="M164.825 -139.669c0.405273 0.140625 0.898438 0.364258 1.47168 0.660156l0.722656 0.389648l0.388672 0.219727l0.826172 0.488281l0.888672 0.549805l0.948242 0.610352l1.52344 1.01758l1.07715 0.743164l1.12012 0.790039l1.15918 0.833984l1.80176 1.32715
l1.86426 1.41016l1.26855 0.979492l1.28613 1.00879l1.29785 1.03223l1.30664 1.05566l1.96387 1.61621l1.95605 1.64551l4.84766 4.17285l1.90918 1.62402l1.18652 0.999023l1.66309 1.37695l1.03613 0.839844l0.982422 0.78125l0.930664 0.723633l0.884766 0.667969
l0.84375 0.616211l0.804688 0.564453l0.770508 0.514648l0.740234 0.46875l0.713867 0.424805l0.691406 0.381836l0.671875 0.341797l0.658203 0.304688l0.646484 0.269531l0.640625 0.234375c0.424805 0.146484 0.84668 0.271484 1.27246 0.37793l0.642578 0.147461
c0.21582 0.0449219 0.431641 0.0849609 0.650391 0.12207l1.00098 0.140625l0.689453 0.0693359l0.710938 0.0517578l0.738281 0.0371094l1.16309 0.0322266l1.24512 0.00976562c5.80762 0.00390625 12.584 1.64258 16.3789 3.95605
c3.39844 2.07324 8.69238 7.04199 12.0664 11.292l2.15234 2.78613l1.21094 1.54785l2.51367 3.16699l1.86133 2.30469l1.7373 2.11816l1.52539 1.82031l1.17188 1.36328l0.664062 0.750977l0.415039 0.449219l0.59375 0.601562l0.384766 0.350586
c1.33203 1.16113 2.58691 1.60156 4.6748 1.37109l0.621094 -0.0839844c0.214844 -0.0341797 0.4375 -0.0742188 0.670898 -0.120117l0.725586 -0.155273l0.785156 -0.192383l0.848633 -0.228516l0.917969 -0.263672l1.51855 -0.460938l2.94336 -0.941406l2.76758 -0.905273
c2.25293 -0.740234 4.7627 -1.44141 7.33008 -2.06445l1.93262 -0.452148l1.93555 -0.419922c5.14648 -1.07324 10.1201 -1.76172 13.3184 -1.75781c5.59863 0.00585938 13.7012 0.991211 18.0059 2.18555c4.65527 1.29297 11.2998 5.93945 16.3906 11.4639
c4.70898 5.10645 10.5117 14.5361 12.8936 20.9492l0.914062 2.52441l0.77832 2.21777l1.13477 3.30957l1.52832 4.55957l1.58789 4.8457l1.2041 3.74414l0.981445 3.09766l1.39648 4.49121l0.660156 2.16016l0.683594 2.16504l0.466797 1.42188l0.473633 1.39941
l0.477539 1.37109l0.480469 1.33789l0.480469 1.2998l0.479492 1.25781l0.711914 1.79785l0.46582 1.13281l0.458008 1.07227l0.666016 1.4873l0.426758 0.90332l0.411133 0.827148l0.394531 0.746094c0.0634766 0.116211 0.126953 0.231445 0.188477 0.34082
l0.363281 0.615234c0.411133 0.666016 0.774414 1.1416 1.07812 1.39258l0.389648 0.306641c1.48242 1.09668 2.83301 1.25684 5.09082 0.116211l0.611328 -0.327148l0.65625 -0.387695l0.345703 -0.217773l0.730469 -0.481445l0.786133 -0.544922l0.845703 -0.611328
l0.908203 -0.677734l2.02539 -1.5625l8.56738 -6.75684l9.83301 -7.82227c4.91602 -3.93457 10.8467 -11.0391 13.5127 -16.1289l0.316406 -0.625977c2.88965 -5.95117 6.80762 -10.251 10.8643 -11.9336c4.6582 -1.92773 7.96387 -2.0166 12.4258 -0.333984
c0.175781 0.0664062 0.368164 0.147461 0.575195 0.243164l0.668945 0.327148c0.238281 0.12207 0.489258 0.258789 0.755859 0.40625l0.833984 0.480469l0.907227 0.550781l0.975586 0.618164l1.03613 0.680664l1.08984 0.736328l1.1377 0.789062l1.78418 1.27344
l1.23047 0.900391l1.25781 0.938477l1.27637 0.970703l1.29004 0.999023l1.29688 1.02344l1.94629 1.56738l1.92578 1.5957l2.28027 1.91895l2.61426 2.1543l2.73926 2.21387l1.87012 1.48828l1.88672 1.4834l3.75586 2.90039l2.73828 2.07129l1.76074 1.30762
l1.68652 1.23535l1.59961 1.15137l1.49316 1.05371l0.703125 0.486328l1.30762 0.883789l1.08887 0.710938l1.0791 0.681641l1.06152 0.650391l1.04102 0.615234l1.50684 0.849609l0.959961 0.514648l0.918945 0.47168l1.08203 0.522461l0.99707 0.444336l0.37207 0.154297
l0.696289 0.267578c1.21289 0.438477 2.07324 0.586914 2.42285 0.369141c0.314453 -0.193359 0.577148 -0.967773 0.782227 -2.18066l0.104492 -0.704102c0.0332031 -0.249023 0.0644531 -0.509766 0.09375 -0.785156l0.0810547 -0.861328l0.0673828 -0.932617
l0.0556641 -0.999023l0.0576172 -1.61133l0.0205078 -1.1416l0.0078125 -1.18945l-0.0175781 -1.8623l-0.0302734 -1.28613l-0.0732422 -1.98438l-0.168945 -3.26953l-0.0761719 -1.80371l-0.0498047 -1.69238l-0.0234375 -1.59082l0.00390625 -1.49707
c0.0830078 -6.53418 1.03711 -10.4248 3.25391 -14.7051c2.49023 -4.81055 7.36914 -9.2832 13.5039 -12.376c6.84961 -3.45508 13.3291 -4.8291 22.5996 -4.79492c8.18848 0.0292969 16.4092 1.59668 22.2236 4.23535c6.875 3.12109 10.0938 6.26367 12.6299 12.3291
l0.337891 0.835938l0.313477 0.834961c0.0996094 0.279297 0.196289 0.557617 0.287109 0.837891l0.262695 0.84668c0.125 0.425781 0.241211 0.856445 0.347656 1.2959l0.203125 0.889648l0.178711 0.916016l0.154297 0.947266l0.0693359 0.486328l0.121094 1.00488
c0.0175781 0.169922 0.0361328 0.34375 0.0517578 0.517578l0.0878906 1.07227l0.0664062 1.12402l0.0449219 1.17969l0.0234375 1.24219l0.00488281 0.645508l-0.0078125 1.34473l-0.0263672 1.41895l-0.0458984 1.49902l-0.0664062 1.58301l-0.0849609 1.67285
l-0.162109 2.68848l-0.204102 2.91992l-0.398438 5.58691l-0.169922 2.6748l-0.0966797 1.78027l-0.0664062 1.60449l-0.0351562 1.43945l-0.00488281 0.875l0.0107422 0.8125l0.0273438 0.751953l0.0566406 0.863281l0.0849609 0.78418l0.0888672 0.574219
c0.130859 0.738281 0.313477 1.36621 0.552734 1.92188l0.191406 0.405273c0.0673828 0.130859 0.137695 0.258789 0.213867 0.382812l0.237305 0.365234c0.0830078 0.119141 0.168945 0.236328 0.260742 0.350586l0.285156 0.338867l0.30957 0.333008l0.334961 0.330078
l0.361328 0.331055l0.387695 0.335938l1.09375 0.885742l0.239258 0.188477c2.97363 2.34082 8.1084 5.32324 11.4111 6.62891l0.925781 0.34375l0.770508 0.262695l0.882812 0.288086l1.51953 0.472656l2.34863 0.699219l2.66309 0.760742l2.91602 0.805664
l3.90625 1.04297l3.25977 0.841797l3.31348 0.831055l4.94531 1.19727l3.62988 0.853516l2.51172 0.568359l1.67578 0.359375l1.50977 0.303711l0.920898 0.170898l0.857422 0.145508l0.796875 0.12207l1.08984 0.136719l0.662109 0.0615234l0.615234 0.0371094
l0.569336 0.0136719l0.530273 -0.00976562l0.493164 -0.0332031l0.460938 -0.0556641c0.147461 -0.0234375 0.292969 -0.0488281 0.431641 -0.0791016l0.407227 -0.102539l0.384766 -0.125c0.125 -0.0449219 0.248047 -0.0947266 0.367188 -0.147461l0.352539 -0.169922
c0.115234 -0.0605469 0.230469 -0.124023 0.34375 -0.192383l0.335938 -0.214844l0.333008 -0.237305l0.333008 -0.258789l0.508789 -0.427734l0.350586 -0.313477c2.09375 -1.8916 8.16992 -4.07227 13.7373 -4.96289l2.90234 -0.431641l1.00195 -0.163086
l0.920898 -0.164062l0.84375 -0.168945l0.772461 -0.176758c3.44238 -0.850586 4.67578 -2.06641 5.69336 -5.15137l0.269531 -0.87207l0.267578 -0.966797l0.331055 -1.2959c0.246094 -0.991211 0.433594 -2.22949 0.5625 -3.69043l0.0869141 -1.13672
c0.0244141 -0.392578 0.046875 -0.798828 0.0644531 -1.21875l0.0439453 -1.29785l0.0224609 -1.375c0.00390625 -0.47168 0.00390625 -0.954102 0.000976562 -1.4502l-0.0205078 -1.52246l-0.0410156 -1.5918l-0.0625 -1.66016l-0.0839844 -1.72461l-0.105469 -1.78906
l-0.125977 -1.85059l-0.146484 -1.9082l-0.167969 -1.9668l-0.189453 -2.01953l-0.209961 -2.07227l-0.479492 -4.39648l-0.330078 -3.23926l-0.19043 -2.04785l-0.241211 -2.91602l-0.185547 -2.73633l-0.0947266 -1.72949l-0.0712891 -1.65918l-0.046875 -1.5918
c-0.0117188 -0.519531 -0.0205078 -1.0293 -0.0244141 -1.52832v-1.4668l0.00878906 -0.711914l0.0351562 -1.38281l0.0585938 -1.32812c0.0117188 -0.21875 0.0234375 -0.433594 0.0380859 -0.647461l0.09375 -1.25684l0.0556641 -0.612305l0.128906 -1.19238
l0.0732422 -0.581055l0.164062 -1.13672c0.0576172 -0.373047 0.121094 -0.739258 0.1875 -1.10254l0.210938 -1.07324l0.113281 -0.525391c0.21875 -0.973633 0.469727 -1.99121 0.745117 -3.02832l0.430664 -1.56445
c0.147461 -0.522461 0.301758 -1.04785 0.458984 -1.56836l0.479492 -1.55176l0.494141 -1.51172l0.250977 -0.734375l0.501953 -1.41309c0.668945 -1.8252 1.32617 -3.40039 1.89551 -4.49023c1.63867 -3.13379 5.72852 -8.28223 9.08984 -11.4395
c3.35938 -3.1543 9.83789 -7.49609 14.3936 -9.64648c5.20605 -2.45508 13.2861 -3.9209 21.7529 -3.94531c8.65234 -0.0263672 16.4688 1.37402 21.8506 3.90625c4.60547 2.17188 11.1299 6.53027 14.4922 9.68457c3.3623 3.15723 7.87109 9.1543 10.0176 13.3223
c2.14746 4.1709 4.50293 11.9199 5.2334 17.2178c0.786133 5.69336 0.0996094 14.4805 -1.67773 21.4736l-0.458984 1.75l-0.508789 1.83496c-0.176758 0.623047 -0.361328 1.25391 -0.548828 1.8916l-0.581055 1.9209l-0.604492 1.92285l-0.927734 2.82715
l-0.621094 1.80762l-0.612305 1.71191l-0.299805 0.811523l-0.581055 1.51953l-0.279297 0.699219l-0.530273 1.26367l-0.476562 1.10156l-0.421875 1.00488l-0.368164 0.913086l-0.313477 0.826172c-1.24414 3.40137 -0.980469 4.5127 0.693359 5.28027l0.410156 0.170898
c0.375 0.143555 1.06348 0.151367 1.99512 0.0419922l0.743164 -0.104492l0.404297 -0.0673828l0.868164 -0.166992l1.19043 -0.266602l1.2959 -0.325195l1.10547 -0.300781l1.15723 -0.334961l1.2041 -0.367188l1.24316 -0.397461l1.27832 -0.426758l1.30469 -0.454102
l1.32617 -0.480469l1.33984 -0.503906l1.34863 -0.526367c1.55762 -0.619141 3.25879 -1.34082 5.03711 -2.13184l2.16602 -0.981445c1.46289 -0.673828 2.95703 -1.38281 4.44727 -2.11133l2.2334 -1.10449c0.741211 -0.37207 1.47656 -0.746094 2.20508 -1.12109
l2.15039 -1.12402l0.943359 -0.50293l1.83008 -0.996094c2.08496 -1.15137 3.98242 -2.25879 5.55957 -3.25293c0.472656 -0.298828 0.963867 -0.615234 1.47363 -0.947266l1.57617 -1.04492l1.66016 -1.12891l2.0791 -1.44629
c0.706055 -0.496094 1.42285 -1.00586 2.14355 -1.52441l2.1748 -1.57812c0.726562 -0.532227 1.45312 -1.07129 2.1748 -1.61035l2.14355 -1.61816l1.0498 -0.803711l2.03516 -1.58496c0.993164 -0.782227 1.94238 -1.54492 2.83398 -2.27637l1.69629 -1.41504
c0.505859 -0.428711 1.04199 -0.900391 1.60352 -1.41406l1.15723 -1.07422c0.198242 -0.186523 0.398438 -0.37793 0.601562 -0.572266l1.24512 -1.21289l1.48242 -1.48633l1.5332 -1.5791c0.260742 -0.270508 0.520508 -0.542969 0.782227 -0.820312l1.58789 -1.69336
l1.60938 -1.75391l1.61719 -1.80078l1.61328 -1.83301c0.804688 -0.921875 1.60254 -1.85156 2.38867 -2.78027l1.55176 -1.85645c1.02051 -1.23438 2.01074 -2.45801 2.9541 -3.65527l1.37793 -1.77246l0.65918 -0.867188c1.35547 -1.80078 2.8125 -3.8252 4.3125 -5.98438
l1.51367 -2.20117c0.253906 -0.373047 0.507812 -0.75 0.762695 -1.12988l1.5332 -2.2998c0.255859 -0.386719 0.510742 -0.775391 0.765625 -1.16699l1.66309 -2.56934c0.826172 -1.29004 1.64258 -2.58496 2.44141 -3.86914l1.56738 -2.55273l1.50195 -2.5
l0.631836 -1.07031l1.21094 -2.08887c0.978516 -1.70801 1.87305 -3.3291 2.65723 -4.81641l1.35449 -2.60449l1.2041 -2.25586l0.772461 -1.40234l0.750977 -1.32324l0.90918 -1.5459l0.878906 -1.42871c0.115234 -0.182617 0.230469 -0.362305 0.34375 -0.539062
l0.674805 -1.02441c0.443359 -0.65918 0.875977 -1.26953 1.29883 -1.83594l0.62793 -0.81543c2.07129 -2.60449 3.92578 -4.10059 5.75879 -4.74023c3.73047 -1.30469 7.71582 -1.0166 12.2363 0.883789l0.867188 0.379883l0.803711 0.388672l0.601562 0.324219
c2.23828 1.26953 3.71777 2.88379 5.14355 5.96289l0.371094 0.836914l0.18457 0.445312l0.37207 0.944336l0.376953 1.02246l0.383789 1.10449l0.394531 1.18945l0.40625 1.28125l0.422852 1.37598l0.667969 2.25195l0.725586 2.55176l0.523438 1.91016l0.548828 2.05273
l0.860352 3.30664l0.892578 3.5166l0.90625 3.66113l0.604492 2.48828l0.894531 3.75488l0.864258 3.7207l0.819336 3.62012l0.511719 2.3252l0.480469 2.23047l0.484375 2.35938l0.248047 1.25684l0.629883 3.3418l0.766602 4.32324l0.636719 3.80078l0.50293 3.13184
l0.492188 3.18164l0.478516 3.20605l0.458984 3.20215l0.645508 4.73535l0.395508 3.07324l0.360352 2.97266l0.324219 2.8457l0.282227 2.69043l0.244141 2.50586l0.240234 2.62305l0.238281 2.71777l0.345703 4.20605l0.329102 4.29688l0.208008 2.87891l0.291016 4.28809
l0.261719 4.18555l0.293945 5.29688l0.172852 3.66406l0.0898438 2.25684l0.0683594 2.08105l0.196289 7.39746l0.0634766 1.75l0.0732422 1.57129l0.0859375 1.40137l0.102539 1.24219l0.124023 1.09375l0.148438 0.954102l0.113281 0.564453l0.0625 0.261719
l0.134766 0.484375c0.474609 1.53027 1.20508 2.23535 2.37305 2.61621l0.364258 0.105469l0.390625 0.0878906l0.418945 0.0751953l0.449219 0.0644531l0.992188 0.110352l1.48535 0.144531c0.115234 0.0126953 0.235352 0.0253906 0.356445 0.0390625l1.16895 0.147461
l1.30273 0.183594l2.15527 0.335938l1.53613 0.258789l1.58887 0.280273l2.43262 0.454102l1.62109 0.319336l1.59375 0.327148l1.91699 0.414062l0.369141 0.0830078c7.77246 1.75684 12.0293 4.39844 17.6426 10.9551c4.06641 4.75391 8.02344 11.498 8.79004 14.9883
c0.765625 3.49121 0.246094 9.12012 -1.1582 12.5078c-1.67578 4.0498 -5.47461 7.33105 -11.0928 9.57715l-0.873047 0.338867c-0.436523 0.161133 -0.870117 0.31543 -1.30762 0.458984l-0.876953 0.275391c-0.44043 0.130859 -0.884766 0.253906 -1.33594 0.368164
l-0.912109 0.21582c-0.307617 0.0683594 -0.618164 0.130859 -0.93457 0.191406l-0.962891 0.167969l-0.493164 0.0761719l-1.01465 0.133789l-0.522461 0.0585938l-1.07812 0.101562l-0.555664 0.0429688l-1.15137 0.0683594l-1.20703 0.0488281
c-0.412109 0.0126953 -0.833984 0.0214844 -1.26758 0.0263672l-1.33301 0.00683594l-1.40527 -0.0126953l-1.48047 -0.0332031l-1.5625 -0.0517578l-1.64746 -0.0712891l-2.64453 -0.140625l-2.86621 -0.181641l-5.06641 -0.348633l-2.94141 -0.170898l-1.58789 -0.0673828
l-1.46582 -0.0332031l-0.913086 -0.00292969l-0.864258 0.0146484l-0.817383 0.0341797l-1.14746 0.0898438l-0.713867 0.0878906c-2.42969 0.350586 -4.16797 1.14062 -5.66895 2.63184l-0.422852 0.445312l-0.208008 0.238281l-0.408203 0.504883l-0.401367 0.545898
l-0.396484 0.589844l-0.198242 0.310547l-0.393555 0.657227c-0.131836 0.227539 -0.264648 0.459961 -0.396484 0.703125l-0.398438 0.75l-0.612305 1.2168l-0.418945 0.875l-0.65332 1.41211l-1.41895 3.19434l-0.782227 1.79199l-0.787109 1.76562
c-0.136719 0.303711 -0.27832 0.611328 -0.421875 0.920898l-0.896484 1.90918l-0.960938 1.98535l-1.19141 2.39062l-1.25195 2.44922c-0.425781 0.823242 -0.861328 1.65234 -1.30078 2.4834l-1.33594 2.49121l-0.676758 1.24219l-1.36523 2.45898l-1.36719 2.40723
c-2.04395 3.55859 -4.04883 6.86035 -5.81543 9.52832c-2.35352 3.55762 -5.47949 7.75684 -8.78516 11.874l-1.66406 2.04785c-0.520508 0.632812 -1.04395 1.26074 -1.56641 1.88184l-1.56445 1.83594c-2.85645 3.31445 -5.6377 6.31543 -7.96875 8.55273
c-0.960938 0.921875 -2.05566 1.9209 -3.25195 2.97363l-1.48145 1.2832l-1.56641 1.32422l-1.6377 1.35547l-1.69727 1.37598l-2.06543 1.6377l-2.1084 1.63672l-1.06543 0.813477l-2.13672 1.60449c-0.356445 0.265625 -0.711914 0.527344 -1.06738 0.788086
l-2.11621 1.53711c-2.10156 1.50684 -4.14648 2.91602 -6.03809 4.15234l-2.66504 1.72461l-1.67871 1.1123l-2.13574 1.45312l-1.01758 0.708008l-1.4541 1.0332l-1.78906 1.30957l-1.21484 0.921875l-1.09668 0.861328l-0.658203 0.536133l-0.873047 0.741211
l-0.5 0.449219l-0.529297 0.505859l-0.416016 0.441406c-0.333984 0.378906 -0.510742 0.666992 -0.510742 0.845703c0 0.355469 0.601562 0.689453 1.65723 0.980469l0.621094 0.15332l0.342773 0.0742188l0.745117 0.140625l0.822266 0.129883l0.894531 0.118164
l0.959961 0.105469l1.02148 0.09375l1.07715 0.0800781l1.12695 0.0664062l1.17188 0.0498047l1.21191 0.0341797l1.88086 0.0195312c9.76172 0 16.207 1.34961 23.1201 4.84277c5.27441 2.66211 11.7734 8.13379 14.4463 12.1553
c3.43262 5.16699 4.86035 10.4951 4.86035 18.1533c0 6.55762 -1.75684 14.4697 -4.44824 20.0303l-0.172852 0.347656l-0.40918 0.757812c-0.149414 0.266602 -0.313477 0.544922 -0.488281 0.835938l-0.5625 0.910156l-0.634766 0.979492l-0.702148 1.04297
l-0.766602 1.10059l-0.824219 1.15527l-1.34082 1.82227l-0.956055 1.26562l-1.00195 1.30176l-1.04395 1.33203l-1.63477 2.0459l-1.13086 1.38867l-1.74805 2.10352l-1.19336 1.41113l-1.21094 1.41211l-1.8418 2.10547l-1.23926 1.3916l-1.24316 1.37305
l-2.02539 2.19629l-1.51855 1.66016l-1.80957 2.0166l-1.71094 1.94922l-1.29785 1.51367l-1.23633 1.47168l-1.45703 1.78125l-1.35938 1.71582l-1.01855 1.32617c-0.329102 0.43457 -0.647461 0.863281 -0.955078 1.28516l-0.892578 1.24414
c-0.862305 1.22266 -1.63086 2.38477 -2.30762 3.48438l-0.645508 1.08008c-1.22852 2.11914 -2.08594 3.99414 -2.57617 5.62891c-2.00977 6.7041 -2.04395 10.6992 -0.148438 17.0273c1.36328 4.54785 4.66406 11.5693 7.33594 15.6035
c3.14844 4.75195 9.78711 9.76172 18.8496 14.2188c0.745117 0.365234 1.50684 0.726562 2.28125 1.07812l1.56055 0.693359l1.5791 0.666992c1.31934 0.543945 2.64648 1.05664 3.94629 1.5293l1.54688 0.544922c4.08203 1.39844 7.77637 2.33301 10.0557 2.46582
l0.410156 0.0146484c3.88867 0.0605469 10.9639 1.98047 16.0879 4.33203l0.686523 0.323242c7.41504 3.59082 10.624 4.13867 16.7285 2.6748l0.642578 -0.157227c0.94043 -0.239258 2.13477 -0.453125 3.50488 -0.638672l1.42578 -0.173828
c0.493164 -0.0546875 1.00293 -0.105469 1.52734 -0.154297l1.61035 -0.131836l0.832031 -0.0576172l1.70508 -0.0986328l1.74805 -0.0732422c2.93945 -0.103516 5.98242 -0.103516 8.78125 0.0205078l2.16602 0.119141
c0.230469 0.0146484 0.464844 0.0302734 0.704102 0.0458984l2.24609 0.161133l2.41699 0.193359l2.55176 0.223633l2.64941 0.249023l2.71094 0.269531l2.73633 0.288086l2.72363 0.302734l2.67676 0.3125l3.84277 0.480469l2.39355 0.321289l2.02832 0.291992
l1.82812 0.283203l1.86523 0.307617l1.88672 0.327148l1.89258 0.345703l1.88477 0.358398l1.85938 0.370117l1.82031 0.37793l1.76465 0.381836l2.50977 0.573242l1.55859 0.37793l1.4502 0.371094c1.38965 0.367188 2.59277 0.717773 3.54004 1.03906
c4.73438 1.60547 11.6973 6.27246 15.4746 10.3682c3.77539 4.09766 7.5332 11.0088 8.34863 15.3643c0.841797 4.48145 0.387695 11.5742 -1.04395 16.3506c-1.39062 4.63965 -5.43457 11.749 -8.9873 15.7959c-3.55371 4.04688 -10.7646 9.00098 -16.0244 11.0088
c-6.39258 2.44141 -12.3516 3.22754 -21.9668 2.7793l-2.11719 -0.114258l-1.10352 -0.0703125c-1.96387 -0.131836 -4.37793 -0.415039 -7.08203 -0.81543l-2.0791 -0.322266l-2.17383 -0.362305l-1.11719 -0.196289l-2.28613 -0.418945l-2.3418 -0.452148
l-2.38379 -0.483398l-2.41016 -0.509766l-2.4209 -0.535156l-1.20996 -0.275391l-3.60645 -0.856445l-2.36621 -0.59082c-0.390625 -0.0986328 -0.779297 -0.200195 -1.16602 -0.300781l-2.28711 -0.609375l-2.21582 -0.617188l-14.7129 -4.24902l-8.46777 -2.41797
l-15.2578 -4.31445l-9.11426 -2.5459l-1.93457 -0.526367l-1.95703 -0.512695l-1.97266 -0.499023l-2.97266 -0.719727l-1.98047 -0.458984l-1.9707 -0.44043l-1.9541 -0.419922l-1.92969 -0.399414l-1.89941 -0.375977l-2.77246 -0.517578l-1.78906 -0.314453
l-1.73242 -0.287109l-1.66797 -0.257812l-1.59668 -0.227539l-1.51953 -0.197266l-1.43359 -0.163086c-1.85254 -0.196289 -3.45703 -0.300781 -4.7373 -0.300781l-1.48242 0.00976562l-0.704102 0.0126953l-1.33496 0.0410156l-1.24023 0.0634766l-1.14746 0.0839844
c-4.40234 0.382812 -6.61426 1.30176 -7.22852 2.89844c-0.239258 0.62207 -0.0878906 1.9502 0.367188 3.72363l0.25293 0.920898l0.143555 0.486328l0.324219 1.01855c0.0576172 0.173828 0.117188 0.352539 0.177734 0.530273l0.390625 1.09961l0.210938 0.566406
l0.69043 1.75879l0.773438 1.82617l0.555664 1.24219l0.587891 1.25293l0.616211 1.25684c1.52051 3.04297 3.58594 6.62207 5.78418 10.0957l1.20898 1.88086l1.21973 1.83691l1.10645 1.6123c1.64941 2.36816 3.25098 4.49023 4.63086 6.10254
c4.21582 4.92676 13.2021 12.2832 19.9688 16.3467l1.1748 0.688477l1.2959 0.728516l1.4082 0.762695l1.50684 0.792969l1.83203 0.936523l0.954102 0.477539l1.97656 0.972656l3.10156 1.47949l3.21875 1.48633l2.18555 0.981445l2.19727 0.963867l2.19141 0.941406
l2.17188 0.910156l2.13672 0.871094l3.09863 1.21777l4.28516 1.62988l2.22461 0.870117l1.375 0.550781l1.90625 0.788086l1.72754 0.74707l1.05957 0.478516l0.987305 0.464844l0.920898 0.454102l0.854492 0.444336l0.793945 0.4375
c0.254883 0.143555 0.499023 0.289062 0.735352 0.431641l0.679688 0.427734l0.62793 0.427734c1.40625 0.996094 2.41113 1.99219 3.19531 3.10449l0.323242 0.483398c0.0517578 0.0820312 0.101562 0.164062 0.151367 0.248047l0.288086 0.507812l0.269531 0.527344
l0.25293 0.546875l0.121094 0.282227c1.4502 3.45215 2.15039 8.13867 1.55566 10.4131c-0.59668 2.27734 -3.13184 5.45801 -5.63672 7.07031c-0.197266 0.125977 -0.461914 0.260742 -0.791016 0.402344l-0.540039 0.216797l-0.631836 0.226562l-0.720703 0.235352
l-0.802734 0.243164l-0.882812 0.25l-0.958984 0.255859l-1.57324 0.393555l-1.72168 0.40332l-1.85938 0.40918l-1.98242 0.413086l-2.09375 0.414062l-1.45117 0.275391l-3.01562 0.544922l-1.55762 0.269531l-3.19531 0.522461l-1.62988 0.254883l-2.47559 0.367188
l-2.49902 0.351562c-0.788086 0.106445 -1.5957 0.222656 -2.41797 0.34375l-2.50977 0.385742c-0.849609 0.135742 -1.71289 0.277344 -2.58594 0.424805l-2.64453 0.458984l-2.68945 0.489258l-2.71582 0.518555l-2.72852 0.541992l-2.72266 0.5625l-2.70312 0.580078
l-3.3252 0.745117l-3.23535 0.759766l-2.50391 0.614258l-2.41211 0.616211c-0.393555 0.101562 -0.782227 0.205078 -1.16602 0.306641l-2.24316 0.612305l-1.81836 0.517578l-1.70996 0.510742c-0.550781 0.167969 -1.08301 0.335938 -1.5918 0.500977l-1.61426 0.536133
l-1.82324 0.631836l-1.9375 0.689453l-2.55957 0.935547c-0.875977 0.324219 -1.77441 0.661133 -2.68848 1.00879l-2.78906 1.06934l-2.8623 1.12012l-4.37695 1.75195l-2.93262 1.19922l-2.91309 1.21094l-2.86621 1.21289l-2.79199 1.2041l-1.36035 0.595703
l-3.47949 1.55176l-1.64258 0.750977l-2.69141 1.26074l-1.48242 0.717773l-1.45605 0.72168l-2.12598 1.08203l-1.375 0.71875l-1.33496 0.714844l-1.92578 1.06055l-1.22461 0.696289l-1.74316 1.02344l-1.09473 0.665039l-1.03711 0.647461l-0.974609 0.629883
l-0.910156 0.610352l-0.841797 0.587891l-0.771484 0.563477l-0.697266 0.535156c-1.20605 0.958008 -2.01953 1.77539 -2.35059 2.3916c-1.74414 3.26172 -1.69531 5.59375 0.415039 9.97852l0.570312 1.14062c0.438477 0.848633 1.05859 1.85938 1.80664 2.96484
l0.789062 1.13379l0.863281 1.18262c0.148438 0.201172 0.301758 0.402344 0.456055 0.606445l0.951172 1.22949c0.163086 0.206055 0.328125 0.412109 0.494141 0.619141l1.01758 1.24219l1.11523 1.31348c1.31543 1.51855 2.66797 2.98047 3.95801 4.25684
c1.38379 1.36816 3.39355 3.0498 5.77246 4.86816l1.46973 1.10449l0.764648 0.5625l1.5791 1.1377c0.537109 0.380859 1.08398 0.764648 1.6377 1.14844l1.68262 1.14941l1.71582 1.14453c0.576172 0.378906 1.15625 0.755859 1.73633 1.12793l1.74512 1.10352
l0.87207 0.540039l1.7334 1.05176c1.15039 0.6875 2.28516 1.34375 3.38965 1.95898l2.64355 1.45312l4.61914 2.48633l6.36133 3.36914l8.18652 4.2793l7.86816 4.06836l9.23438 4.72949l5.29688 2.68945l8.44238 4.26953l3.25195 1.68262l2.66406 1.40234l4.36719 2.34473
l3.40234 1.86719l3.29395 1.84375l1.59863 0.908203l3.08691 1.78223l1.48242 0.869141l2.13672 1.27246l2.02539 1.23047l1.90332 1.18066l1.19531 0.756836l2.20312 1.43262l1.47461 0.99707l0.893555 0.625l0.818359 0.59082l0.738281 0.552734l0.658203 0.515625
l0.297852 0.244141l0.529297 0.455078l0.232422 0.211914c4.58105 4.29395 9.65918 11.9355 11.5332 17.3564c2.12207 6.13867 2.9209 13.374 2.18359 19.7617c-0.640625 5.54004 -3.12305 13.9189 -5.52051 18.6152c-2.39453 4.69531 -7.5332 10.4834 -11.418 12.8594
c-3.88281 2.37598 -11.4199 5.18555 -16.7471 6.24219l-1.89844 0.380859l-1.24805 0.264648l-0.751953 0.170898l-1.01562 0.259766l-0.604492 0.178711l-0.282227 0.0917969l-0.523438 0.193359c-1.7373 0.698242 -2.53125 1.64453 -2.83496 3.46777l-0.0732422 0.544922
c-0.0205078 0.19043 -0.0371094 0.389648 -0.0488281 0.597656l-0.0273438 0.650391l-0.00585938 0.347656l0.000976562 0.737305l0.0302734 1.22559l0.0595703 1.37695l0.141602 2.70312l0.253906 3.875l0.856445 11.4531l1.77832 21.9443l1.81445 21.5146
l0.460938 5.91113l0.308594 4.36426l0.194336 3.18457l0.137695 2.80566l0.0546875 1.51562l0.0351562 1.39844l0.0146484 1.28711l-0.000976562 0.749023c-0.0322266 4.74414 -0.564453 7.04199 -1.60059 8.9668l-0.163086 0.293945
c-0.139648 0.243164 -0.288086 0.480469 -0.443359 0.71875c-1.80371 2.75488 -5.70605 5.61523 -8.66895 6.36035c-1.15527 0.290039 -3.01758 0.271484 -5.41699 -0.0224609l-1.14453 -0.154297l-1.21777 -0.193359
c-0.208984 -0.0351562 -0.419922 -0.0722656 -0.634766 -0.111328l-1.31934 -0.25l-1.38184 -0.286133l-1.44141 -0.323242l-1.49707 -0.358398l-1.54883 -0.392578l-1.59766 -0.425781l-1.64062 -0.460938l-1.68066 -0.491211l-1.71875 -0.524414l-3.68652 -1.17969
l-2.40723 -0.790039l-4.49512 -1.49805l-7.08887 -2.4043l-9.96191 -3.43848l-6.82031 -2.38965l-6.46387 -2.29102l-6.16699 -2.21484c-1.16113 -0.419922 -2.32324 -0.84668 -3.48145 -1.28027l-3.45996 -1.31055l-2.5625 -0.996094l-2.51855 -1.00098l-1.65039 -0.666992
l-3.21191 -1.3252l-3.06934 -1.30273l-2.89453 -1.2666l-2.04004 -0.919922l-1.91309 -0.885742l-1.77441 -0.847656l-1.62012 -0.803711l-0.989258 -0.508789l-0.912109 -0.483398l-1.21484 -0.679688l-0.703125 -0.417969l-0.318359 -0.197266l-0.564453 -0.373047
c-0.172852 -0.119141 -0.329102 -0.233398 -0.469727 -0.34082l-0.451172 -0.353516l-0.986328 -0.799805l-1.08691 -0.914062l-1.17188 -1.01465l-1.24121 -1.10156l-1.29395 -1.17188l-1.33301 -1.22852l-1.35645 -1.27246l-1.36426 -1.30078l-1.35547 -1.31543
l-1.33301 -1.31445l-1.29395 -1.30078l-1.24121 -1.27148l-0.795898 -0.832031l-0.938477 -1.02441l-1.80078 -2.03809l-2.23633 -2.59961l-2.63184 -3.11035l-4.05078 -4.85645l-5.80273 -7.0459l-7.79785 -9.58301l-7.6875 -9.5459l-6.49219 -8.13184l-14.1592 -17.8438
l-4.20801 -5.25195l-3.75098 -4.63477l-3.32715 -4.05273l-2.93555 -3.50781l-1.33105 -1.56152l-1.24609 -1.4375l-1.89746 -2.13672l-1.03906 -1.13184l-0.967773 -1.02441l-0.90332 -0.923828l-0.84082 -0.824219l-0.52832 -0.498047l-0.748047 -0.673828
l-0.696289 -0.586914l-0.438477 -0.345703l-0.418945 -0.310547l-0.401367 -0.27832l-0.476562 -0.301758l-0.453125 -0.253906l-0.430664 -0.208984l-0.412109 -0.166016l-0.318359 -0.104492l-0.307617 -0.0800781l-0.299805 -0.0566406l-0.292969 -0.0351562
l-0.287109 -0.0146484l-0.282227 0.00390625l-0.279297 0.0205078l-0.275391 0.0371094l-0.137695 0.0244141c-1.25879 0.240234 -3.20605 0.983398 -5.41504 2.02051l-1.22754 0.59375l-0.628906 0.317383l-1.27832 0.666992l-0.644531 0.348633l-1.29199 0.724609
c-0.430664 0.24707 -0.859375 0.49707 -1.2832 0.751953l-1.25879 0.772461c-0.414062 0.261719 -0.821289 0.522461 -1.21973 0.786133c-0.551758 0.366211 -1.15137 0.785156 -1.79004 1.24805l-1.31934 0.985352c-0.455078 0.34668 -0.922852 0.710938 -1.4043 1.08984
l-1.46973 1.17969l-1.52051 1.25684l-0.772461 0.65332l-1.56348 1.34375l-1.57129 1.38672l-1.5625 1.41211c-0.516602 0.472656 -1.03223 0.947266 -1.53809 1.42285l-1.49609 1.4209c-0.979492 0.941406 -1.9209 1.87402 -2.80078 2.77441l-1.18262 1.2334
l-1.06055 1.14746l-0.522461 0.580078l-1.03027 1.1748c-0.338867 0.392578 -0.672852 0.787109 -1.00195 1.18066l-0.966797 1.17969c-0.316406 0.392578 -0.625977 0.783203 -0.927734 1.1709l-0.880859 1.15332c-0.286133 0.380859 -0.561523 0.756836 -0.829102 1.12695
l-0.770508 1.09277c-1.72656 2.50195 -2.92969 4.65332 -3.25977 5.97461c-0.816406 3.25195 0.255859 9.59277 2.7832 16.5801l7.47363 19.7793l5.41211 14.209l0.680664 1.81543l0.680664 1.84375l1.01465 2.80078l0.996094 2.81445l0.96582 2.7959l0.926758 2.74609
l0.876953 2.66406l0.817383 2.55078l0.74707 2.4043l0.666016 2.22656l0.393555 1.37109l0.506836 1.86035l0.279297 1.0957l0.226562 0.96875c1.27051 5.72363 1.65723 14.7588 0.859375 20.0771c-1.02734 6.84766 -3.7627 12.2363 -9.36523 18.4502
c-4.35156 4.82715 -11.7881 10.542 -16.5234 12.6992c-4.73633 2.15723 -12.5352 3.94238 -17.335 3.97559c-5.16113 0.0214844 -13.3057 -2.24414 -19.9385 -5.54883c-8.29883 -4.13477 -12.7246 -8.16113 -17.0156 -15.4883
c-3.19238 -5.44238 -7.04004 -15.7617 -8.55566 -22.9277l-0.189453 -0.951172l-0.192383 -1.06641l-0.291992 -1.80371l-0.196289 -1.32617l-0.294922 -2.16504l-0.195312 -1.5498l-0.291016 -2.46582l-0.380859 -3.52148l-0.368164 -3.74414l-0.350586 -3.91406
l-0.327148 -4.03418l-0.299805 -4.10449l-0.204102 -3.09473l-0.126953 -2.10938c-0.0820312 -1.4043 -0.15625 -2.80078 -0.224609 -4.17969l-0.185547 -3.98047l-0.157227 -2.91504l-0.119141 -1.95215l-0.200195 -2.92676l-0.144531 -1.94336l-0.235352 -2.88867
l-0.25293 -2.8418l-0.270508 -2.77734l-0.186523 -1.80664l-0.292969 -2.62793l-0.303711 -2.51465l-0.313477 -2.38281l-0.212891 -1.50684l-0.323242 -2.12305l-0.217773 -1.31641l-0.21875 -1.23047l-0.328125 -1.6748l-0.21875 -0.995117
c-0.0361328 -0.157227 -0.0722656 -0.310547 -0.108398 -0.458008l-0.216797 -0.835938l-0.107422 -0.375977c-1.78516 -6.0293 -5.51562 -13.7773 -8.29492 -17.2188l-1.27148 -1.56152l-0.821289 -0.96875c-0.170898 -0.197266 -0.336914 -0.381836 -0.496094 -0.553711
l-0.461914 -0.480469c-1.64258 -1.63184 -2.7373 -1.8291 -4.7041 -0.919922l-0.558594 0.274414l-0.609375 0.328125l-1.02148 0.588867l-2.20801 1.32422l-2.46387 1.45215l-3.53418 2.0459l-2.69336 1.53711l-4.2002 2.35547
c-4.33008 2.39355 -11.6348 4.95508 -16.2334 5.68945c-4.59668 0.736328 -12.2959 0.27832 -17.1055 -1.01758c-4.81055 -1.29688 -13.3574 -5.9873 -18.9941 -10.4287l-8.68945 -6.78809l-3.45898 -2.6543l-0.776367 -0.579102
c-1.49414 -1.08984 -5.0752 -0.461914 -10.2227 1.76465l-1.21484 0.541992c-0.208008 0.0947266 -0.416016 0.192383 -0.62793 0.292969l-0.665039 0.318359c-7.67285 3.71484 -11.9541 4.51562 -18.0576 3.37891c-5.62305 -1.0459 -10.7119 -4.39355 -17.1279 -11.2646
l-1.03711 -1.10742l-1.4209 -1.49609l-0.867188 -0.891602l-0.80957 -0.8125l-0.760742 -0.734375l-0.71582 -0.661133l-0.342773 -0.304688l-0.661133 -0.553711c-2.47461 -1.99707 -4.32617 -2.52246 -7.15625 -2.34277l-0.761719 0.0615234l-1.24023 0.147461
l-1.37598 0.203125c-0.161133 0.0244141 -0.325195 0.0507812 -0.492188 0.078125c-4.90723 0.782227 -10.8271 0.305664 -13.9785 -1.13086c-3.69238 -1.68066 -6.76367 -6.05273 -9.46777 -13.459l-0.762695 -2.13281l-0.806641 -2.33789l-0.832031 -2.48047
l-0.837891 -2.56348l-0.824219 -2.58203l-0.979492 -3.16113l-0.888672 -2.97559l-0.422852 -1.46875l-0.467773 -1.68652c-1.92773 -7.12598 -4.38379 -11.1357 -7.76074 -12.6748c-2.71582 -1.2373 -9.06934 -1.69629 -14.1172 -1.02148
c-5.04688 0.678711 -10.2812 2.74219 -11.6289 4.58789c-0.163086 0.223633 -0.347656 0.536133 -0.545898 0.928711l-0.311523 0.645508l-0.163086 0.365234l-0.517578 1.24902l-0.366211 0.951172l-0.378906 1.03711l-0.193359 0.546875l-0.392578 1.14844
l-0.599609 1.84277l-0.402344 1.29395l-0.401367 1.33789l-0.396484 1.37402l-0.391602 1.40137l-0.566406 2.13574l-0.362305 1.43359c-0.713867 2.8916 -1.71191 6.02734 -2.83984 9.03223l-0.626953 1.62402l-0.647461 1.58594
c-1.63672 3.9043 -3.4082 7.31934 -4.92188 9.2998c-3.02148 3.96387 -8.10938 8.52734 -11.3037 10.1445c-3.19434 1.61621 -9.34277 3.57812 -13.6631 4.35938c-4.32227 0.78125 -12.5537 0.378906 -18.2939 -0.894531
c-5.74316 -1.27441 -14.1045 -5.24805 -18.583 -8.8291l-1.8418 -1.46484l-1.20215 -0.929688l-0.904297 -0.665039l-0.831055 -0.564453c-2.55762 -1.65332 -4.2041 -1.7959 -7.02441 -0.530273l-0.731445 0.345703l-0.787109 0.404297l-0.850586 0.460938
l-1.41113 0.799805l-2.1709 1.2666c-6.11328 3.58105 -9.6123 7.14453 -9.6123 9.78418c0 2.49219 2.57324 4.9707 8.5459 8.1123l1.28418 0.660156l1.38379 0.681641l0.729492 0.347656c8.24512 3.89941 13.7324 8.35352 17.7217 14.3789
c4.54395 6.86621 5.77734 11.3057 5.77734 20.8086c0 9.34961 -1.36523 14.4053 -6.0332 22.373c-4.33008 7.38965 -8.78809 11.6309 -15.7939 15.0361c-6.83789 3.32129 -13.7207 4.7373 -22.9863 4.72852l-2.29297 -0.0253906l-1.55371 -0.0410156l-2.33594 -0.0947266
l-1.54102 -0.0839844l-1.5127 -0.0996094l-1.47266 -0.112305l-1.7627 -0.160156l-1.65137 -0.177734l-0.624023 -0.0761719l-1.72363 -0.242188l-1.01074 -0.169922c-0.633789 -0.116211 -1.18164 -0.237305 -1.62695 -0.361328
c-3.23242 -0.898438 -9.39551 -4.72168 -13.6934 -8.49512c-4.2998 -3.77441 -9.10645 -9.81348 -10.6836 -13.4219c-0.383789 -0.876953 -0.801758 -1.94336 -1.22852 -3.12402l-0.514648 -1.4668c-0.0859375 -0.251953 -0.171875 -0.506836 -0.258789 -0.764648
l-0.584961 -1.80566c-0.770508 -2.44238 -1.4873 -4.99902 -2.00586 -7.19824l-0.183594 -0.808594c-1.26465 -5.71484 -2.93359 -8.37695 -4.96094 -7.91797l-0.0927734 0.0253906l-0.24707 0.0878906l-0.325195 0.137695l-0.629883 0.296875l-0.793945 0.401367
l-1.66602 0.885742l-2.51855 1.39746l-3.57227 2.04102l-3.5332 2.05957l-6.67285 3.96484l-5.87305 3.55273l-5.39941 3.30859l-4.83301 2.97363l-2.86035 1.74512l-2.96777 1.80078l-4.61133 2.7832l-7.9668 4.76562l-7.50879 4.44824l-7.83887 4.60156l-6.21094 3.6084
l-4.6416 2.67188l-5.26172 2.98926l-3.54297 1.9834l-5.21582 2.87891l-4.38184 2.38379l-6.05273 3.24121l-3.28613 1.73242l-3.10938 1.61719l-2.18945 1.12598l-2.0498 1.04004l-1.88965 0.944336l-2.24219 1.09473l-1.88574 0.887695l-1.15625 0.514648
l-1.47363 0.623047l-1.37695 0.551758c-5.98926 2.33008 -9.28809 2.55469 -13.2471 1.16406c-3.2373 -1.13867 -7.04004 -4.37988 -8.44629 -7.2041c-1.62109 -3.24707 -1.88086 -6.91797 -0.712891 -9.99316l0.0859375 -0.192383l0.136719 -0.257812l0.422852 -0.706055
l0.613281 -0.951172l0.797852 -1.1875l1.82324 -2.62109l2.70508 -3.78613l2.87109 -3.9502l4.32422 -5.87402l5.55176 -7.45898l6.89746 -9.17773l9.75879 -12.8633l9.81348 -12.8203l11.8945 -15.4131l16.833 -21.707l21.4082 -27.499l28.8877 -36.9521l37.873 -48.2441
l8.2373 -10.6475l6.85254 -8.9502l5.55664 -7.33789l4.89941 -6.5498l2.86133 -3.87695l2.11621 -2.90527l2.2002 -3.06934l1.80664 -2.58496l1.1875 -1.76172l0.733398 -1.13867l0.417969 -0.691406l0.301758 -0.545898l0.134766 -0.282227l0.0820312 -0.214844
c0.0185547 -0.0595703 0.0273438 -0.109375 0.0273438 -0.145508c0 -1.875 -2.38477 -4.49414 -5.30078 -5.82227c-3.10449 -1.41406 -10.2422 -1.90527 -17.2246 -1.18652c-7.1709 0.740234 -17.709 4.11816 -26.4443 8.47266l-2.86816 1.44531l-2.1123 1.08008
l-4.58887 2.37402l-6.14551 3.22656l-3.74609 1.99023l-4.87891 2.61914l-2.33008 1.26465l-4.30957 2.36621c-1.13086 0.62793 -2.32031 1.25781 -3.5459 1.88379l-1.86621 0.933594l-2.38965 1.14844l-2.42773 1.11523l-0.976562 0.435547l-1.94922 0.845703
l-1.93262 0.80957l-1.9043 0.765625l-1.8584 0.716797l-1.66406 0.614258c-1.36328 0.490234 -2.66113 0.926758 -3.86523 1.29883l-1.39941 0.413086c-0.898438 0.253906 -1.73047 0.461914 -2.47949 0.620117l-1.77051 0.361328
c-7.63965 1.50684 -11.0566 1.42871 -17.2021 -0.675781l-1.41309 -0.500977c-0.488281 -0.177734 -0.994141 -0.367188 -1.52051 -0.567383c-6.80176 -2.59863 -12.1191 -6.64453 -16.2803 -12.3877c-3.39844 -4.68945 -7.30078 -13.5469 -8.67285 -19.6807
c-1.85742 -8.30078 -1.88086 -13.4385 -0.0878906 -20.0918c1.47168 -5.4707 5.24121 -11.4277 9.71289 -15.3555c4.01855 -3.52734 11.9951 -7.91016 17.7275 -9.74219l0.405273 -0.12793l0.901367 -0.269531l1.56445 -0.44043l1.79688 -0.477539l2.7168 -0.6875
l3.03418 -0.731445l3.29492 -0.763672l2.60938 -0.588867l4.54492 -0.989258l4.69531 -0.982422l3.79199 -0.763672l4.69434 -0.907227l2.69043 -0.508789l1.77539 -0.350586l2.66309 -0.547852l2.64746 -0.570312l2.61523 -0.59082l2.5625 -0.603516l2.48828 -0.612305
l1.61035 -0.410156l2.32715 -0.614258l1.48535 -0.407227l1.4248 -0.40332l2.01172 -0.594727l1.25 -0.386719l1.16992 -0.37793l1.08496 -0.368164l0.994141 -0.356445c0.316406 -0.116211 0.615234 -0.230469 0.897461 -0.341797l0.794922 -0.327148
c0.371094 -0.15918 0.702148 -0.3125 0.988281 -0.458984c4.40137 -2.24512 8.56641 -5.54785 9.25293 -7.3418c0.689453 -1.79297 0.161133 -6.43652 -1.1709 -10.3164c-1.33008 -3.88086 -4.57324 -10.4443 -7.20605 -14.5889
c-2.63184 -4.14355 -8.09473 -10.6904 -12.1406 -14.5488c-4.04395 -3.85938 -11.1338 -8.94336 -15.7549 -11.2988c-5.53906 -2.82227 -12.124 -4.17285 -20.9238 -4.27734l-3.36621 -0.0175781l-2.0293 -0.0390625l-1.23633 -0.0439453l-1.42871 -0.078125
l-1.30469 -0.107422c-3.8291 -0.375977 -6.10059 -1.20312 -8.31055 -2.89844l-0.576172 -0.461914l-0.579102 -0.50293l-0.588867 -0.546875l-0.604492 -0.59082c-2.90527 -2.9043 -5.28418 -7.20801 -5.28418 -9.56445c0 -2.35547 2.18164 -6.66797 4.84277 -9.58203
c1.33301 -1.45996 3.8125 -3.10645 7.15039 -4.7998l1.29102 -0.638672l1.36914 -0.640625l0.711914 -0.321289l1.47852 -0.641602l1.54688 -0.641602l1.61133 -0.637695c0.274414 -0.105469 0.550781 -0.211914 0.830078 -0.317383l1.7041 -0.630859l0.873047 -0.3125
l1.78906 -0.620117l1.84082 -0.611328l1.92188 -0.616211l3.05176 -0.99707l2.09668 -0.704102l3.19824 -1.09863l2.14355 -0.750977l2.13184 -0.759766l3.14258 -1.1416l2.0332 -0.754883l2.91504 -1.10449l1.82812 -0.709961l2.53125 -1.00977l1.52148 -0.62793
l1.36914 -0.583984l0.621094 -0.274414c8.34766 -3.7168 12.1904 -6.9502 14.8184 -12.457c2.20605 -4.62988 3.00879 -9.58398 2.12012 -13.1182c-0.783203 -3.125 -3.57715 -6.56152 -6.20898 -7.64062l-0.124023 -0.0458984l-0.317383 -0.0947266l-0.405273 -0.0957031
l-0.492188 -0.0976562l-0.896484 -0.149414l-1.07812 -0.151367l-1.25195 -0.155273l-1.41797 -0.157227l-2.71094 -0.264648l-1.82129 -0.15918l-3.33887 -0.264648l-5.24121 -0.365234l-6.68848 -0.401367l-8.23242 -0.416992l-4.82324 -0.211914l-4.95508 -0.193359
l-9.1709 -0.317383l-7.20703 -0.290039l-5.54688 -0.262695l-3.12793 -0.166016l-2.00098 -0.114258l-4.70898 -0.298828l-3.46582 -0.25293l-2.4209 -0.197266l-2.26855 -0.204102l-2.11621 -0.209961l-1.96289 -0.216797l-1.81055 -0.223633l-1.12012 -0.151367
l-1.05371 -0.154297l-1.45117 -0.238281l-0.880859 -0.161133l-0.811523 -0.163086l-0.744141 -0.166992l-0.674805 -0.170898c-0.106445 -0.0283203 -0.210938 -0.0566406 -0.3125 -0.0859375l-0.570312 -0.173828l-0.501953 -0.176758l-0.226562 -0.0888672
c-4.77051 -1.98438 -8.14844 -5.5166 -10.3809 -10.8564c-1.81934 -4.35352 -2.73828 -10.1865 -2.04004 -12.9629c0.698242 -2.77539 3.43066 -6.4248 6.07617 -8.10547c0.552734 -0.352539 1.33789 -0.689453 2.33887 -1.00977l0.790039 -0.235352l0.869141 -0.230469
l1.19434 -0.276367l1.31348 -0.265625l1.13379 -0.204102l1.20605 -0.195312l1.27637 -0.1875l1.34473 -0.178711l2.14551 -0.25293l1.51172 -0.157227l2.38672 -0.21875l2.52539 -0.198242l1.75781 -0.119141l2.74414 -0.160156l1.89844 -0.09375l2.13867 -0.0957031
l2.3291 -0.125l2.31348 -0.149414l2.29199 -0.172852l2.26172 -0.196289l1.11816 -0.105469l2.20508 -0.227539l1.08496 -0.121094l2.12988 -0.256836c0.701172 -0.0878906 1.39355 -0.179688 2.07227 -0.274414l2.00684 -0.291992l1.93457 -0.308594l1.85449 -0.323242
c3.62402 -0.660156 6.72559 -1.40625 9.04492 -2.19922c0.913086 -0.313477 1.84863 -0.658203 2.7832 -1.02832l1.4043 -0.571289c0.699219 -0.293945 1.39648 -0.597656 2.08105 -0.90918l1.35156 -0.631836c0.444336 -0.212891 0.880859 -0.426758 1.30762 -0.643555
l1.25195 -0.649414c2.43555 -1.29688 4.44629 -2.58398 5.55078 -3.61133c3.54883 -3.30957 4.20117 -5.66113 3.0498 -11c-0.806641 -3.7373 -3.31738 -10.4492 -5.57812 -14.9189c-2.17773 -4.29688 -8.19531 -10.8916 -13.6182 -14.9746l-0.647461 -0.476562
c-5.58496 -4.0293 -13.835 -11.7559 -18.335 -17.1709c-0.693359 -0.833008 -1.40039 -1.72168 -2.10547 -2.64551l-1.05664 -1.4082l-1.04492 -1.44141l-1.02344 -1.45996l-0.499023 -0.732422l-0.967773 -1.45605l-0.46582 -0.719727l-0.890625 -1.41504
c-1.43164 -2.32324 -2.58887 -4.44531 -3.24707 -6.02441c-1.71484 -4.10254 -3.11523 -10.374 -3.11523 -13.9404c0 -3.56445 1.5498 -10.3574 3.44531 -15.0938c2.07227 -5.17676 6.29102 -10.3701 10.585 -13.0244l0.701172 -0.420898l0.467773 -0.267578
l0.47168 -0.255859l0.716797 -0.362305l0.737305 -0.34082l0.505859 -0.213867l0.519531 -0.205078l0.537109 -0.195312l0.842773 -0.276367l0.591797 -0.172852l0.614258 -0.165039l0.975586 -0.233398l1.04395 -0.216797l0.738281 -0.134766l1.17676 -0.19043
l1.2666 -0.175781l1.36621 -0.164062l1.4707 -0.151367l2.14062 -0.186523l1.15039 -0.0859375l1.83496 -0.12207l3.36719 -0.1875l2.21777 -0.104492l4.05176 -0.163086l7.4834 -0.246094l6.82227 -0.199219l6.27637 -0.21582l9.19531 -0.388672l6.60645 -0.34668
l2.58984 -0.157227l3.41309 -0.237305l2.35742 -0.192383l1.18164 -0.114258l0.993164 -0.111328l0.793945 -0.107422l0.414062 -0.0703125l0.317383 -0.0683594c2.84766 -0.709961 5.38086 -3.47363 6.20898 -6.77441
c0.831055 -3.31348 0.0820312 -8.33887 -1.84863 -12.3848c-1.71191 -3.59082 -6.62207 -9.65039 -11.124 -13.7754l-0.805664 -0.720703l-0.506836 -0.421875l-0.586914 -0.467773l-1.02637 -0.786133l-1.62793 -1.19434l-1.90527 -1.35059l-1.59766 -1.10645
l-2.96191 -2.00781l-3.2959 -2.1875l-3.5918 -2.34082l-3.84668 -2.46777l-4.06055 -2.57031l-4.2334 -2.64551l-4.36719 -2.69238l-3.5625 -2.17188l-4.58398 -2.76172l-3.89355 -2.31836l-2.25586 -1.35156l-3.35742 -2.03613l-3.31641 -2.04004l-3.26562 -2.03711
l-2.14453 -1.35449l-3.16113 -2.01953l-3.08496 -2l-2.00977 -1.31934l-2.93848 -1.9541l-1.90332 -1.28223l-1.85449 -1.26367l-2.6875 -1.8584l-2.56348 -1.80566l-1.63477 -1.1709l-2.33594 -1.7041l-1.47656 -1.09766l-1.40723 -1.06543l-1.33398 -1.03125
l-1.25977 -0.994141l-1.18164 -0.953125l-1.10254 -0.914062l-1.01855 -0.87207l-0.932617 -0.827148l-0.433594 -0.396484c-7.77148 -7.18848 -15.8574 -17.2002 -19.0254 -23.5586c-3.50879 -7.04004 -5.5127 -14.6533 -5.5127 -20.9424
c0 -6.00684 1.90137 -13.6016 4.8418 -19.3613c2.66309 -5.20996 7.53711 -11.4395 10.8301 -13.8428c4.06543 -2.96289 9.88672 -4.5 19.4453 -5.10938l1.87207 -0.107422l1.64844 -0.0820312l1.53613 -0.0615234l1.4375 -0.0390625
c0.231445 -0.00488281 0.459961 -0.0078125 0.68457 -0.00976562h1.30859c4.44629 0.0488281 7.5918 0.643555 11.6807 2.32617l1.19629 0.511719c0.816406 0.360352 1.67578 0.762695 2.59375 1.21094l1.4209 0.706055l1.51953 0.775391l1.62891 0.849609l1.75098 0.924805
c1.34473 0.714844 2.97754 1.83887 4.83008 3.2832l1.13672 0.90332l0.587891 0.480469l1.20996 1.0127l1.25488 1.0791l1.2959 1.14062l1.33398 1.19922l1.37012 1.25293l1.40137 1.30371l2.1543 2.03809l2.20605 2.12598l2.24902 2.2002l1.51758 1.50098l2.38184 2.38086
l2.87012 2.89844l1.91406 1.9502l4.74121 4.87598l12.9854 13.5107l3.59082 3.70996l1.29395 1.32031l1.20117 1.21484l1.91992 1.90234l0.595703 0.572266l0.805664 0.758789l0.477539 0.433594l0.427734 0.375l0.375977 0.314453l0.323242 0.25l0.268555 0.183594
c0.401367 0.250977 0.567383 0.21875 0.464844 -0.138672c-0.03125 -0.109375 -0.135742 -0.308594 -0.308594 -0.586914l-0.310547 -0.478516l-0.646484 -0.93457l-0.851562 -1.17969l-1.04102 -1.40625l-2.11328 -2.7998l-2.53125 -3.2959l-5.37988 -6.92578
l-18.8242 -24.0381l-5.20996 -6.70605l-3.48047 -4.52637l-2.52246 -3.32812l-1.31738 -1.7666l-0.788086 -1.06934l-1.03418 -1.43164l-0.585938 -0.830078l-0.495117 -0.724609l-0.544922 -0.841797l-0.231445 -0.391602l-0.154297 -0.300781
c-0.0380859 -0.0849609 -0.0634766 -0.154297 -0.0751953 -0.208008c-0.277344 -1.26562 -0.344727 -3.30273 -0.230469 -5.70215l0.0800781 -1.3418l0.0527344 -0.694336l0.130859 -1.42285c0.0742188 -0.720703 0.160156 -1.45605 0.258789 -2.19434l0.212891 -1.4834
c0.188477 -1.2373 0.40918 -2.47168 0.658203 -3.66797l0.632812 -2.92285l0.301758 -1.49414l0.170898 -0.930664l0.0761719 -0.448242l0.133789 -0.867188l0.107422 -0.833984l0.0429688 -0.40625l0.0644531 -0.795898
c0.142578 -2.22852 -0.0742188 -4.25684 -0.771484 -6.78613l-0.267578 -0.915039l-0.147461 -0.474609l-0.329102 -0.991211l-0.37207 -1.04883l-0.416016 -1.11523l-0.460938 -1.18652l-0.780273 -1.93262l-1.20898 -2.89258l-2.48535 -5.82129l-0.680664 -1.63867
l-1.00293 -2.4834l-0.970703 -2.48535l-0.625 -1.64453l-0.604492 -1.62402l-0.578125 -1.5957l-0.550781 -1.55762l-0.520508 -1.5127l-0.488281 -1.45801l-0.451172 -1.39453l-0.412109 -1.32227l-0.538086 -1.83008l-0.300781 -1.10449
c-0.277344 -1.05664 -0.477539 -1.95801 -0.592773 -2.66895c-0.822266 -5.14258 -0.0195312 -10.9912 2.26172 -16.4717c1.94629 -4.67285 7.60938 -12.6895 12.582 -17.8164c4.97559 -5.12402 12.9971 -11.6592 17.8301 -14.5195
c4.83301 -2.85938 13.2295 -5.80859 18.665 -6.55371c5.43164 -0.745117 12.8623 -0.314453 16.5059 0.955078zM865.51 758.624c-0.712891 -4.01172 -2.38867 -6.83594 -3.83301 -6.45703c-0.0595703 0.015625 -0.131836 0.0439453 -0.21582 0.0839844l-0.133789 0.0693359
l-0.319336 0.189453l-0.382812 0.258789l-0.445312 0.324219l-0.503906 0.387695l-0.55957 0.446289l-0.939453 0.777344l-1.04883 0.897461l-1.55273 1.37109l-1.26855 1.14648l-2.2793 2.10742l-1.94922 1.84375l-2.03418 1.95898l-2.62793 2.58008l-1.60547 1.60156
c-8.77832 8.82324 -21.2461 18.6045 -31.1895 24.5059l-1.09375 0.640625l-1.40332 0.808594l-2.15527 1.25195l-4.89355 2.88184l-2.63477 1.57617l-3.60352 2.18945l-3.03906 1.88965l-1.63184 1.04492l-1.25977 0.838867l-0.475586 0.333008l-0.550781 0.410156
c-2.97266 2.27734 -3.29004 3.59863 -1.4375 5.51172l0.0742188 0.0693359l0.0966797 0.0771484l0.257812 0.175781l0.34082 0.206055l0.664062 0.359375l0.540039 0.272461l0.952148 0.457031l1.52148 0.693359l1.79297 0.78125l2.04492 0.863281l2.88281 1.18359
l3.89062 1.55176l3.55957 1.38672l3.81152 1.45703l5.68652 2.12793l5.13379 1.88086l6.19141 2.22168l6.96289 2.44824l7.39746 2.5498l6.72656 2.26172l4.62988 1.51465l3.99121 1.26562l1.95508 0.598633l1.69434 0.499023l1.08789 0.306641l1.19238 0.313477
l0.689453 0.158203l0.358398 0.0673828l0.273438 0.0371094l0.104492 0.00683594c2.02832 0.0673828 4.54785 -1.57227 5.5957 -3.64551c0.0712891 -0.140625 0.135742 -0.331055 0.197266 -0.569336l0.0566406 -0.253906l0.0839844 -0.470703l0.0908203 -0.699219
l0.0751953 -0.818359l0.0488281 -0.737305l0.0390625 -0.811523l0.0410156 -1.34766l0.0195312 -1.50195l-0.00292969 -1.65039l-0.0371094 -2.41992l-0.0527344 -1.97266l-0.0732422 -2.10254l-0.0957031 -2.22559l-0.158203 -3.14941l-0.196289 -3.34473
l-0.233398 -3.52734l-0.198242 -2.75586l-0.296875 -3.8125l-0.570312 -6.74414l-0.901367 -9.99609l-1.03906 -10.7656l-0.587891 -5.69238l-0.521484 -4.72461l-0.387695 -3.17676l-0.227539 -1.6377l-0.114258 -0.706055zM215.495 -94.0742h-1.14746
c-5.53809 0.0166016 -14.2373 2.21387 -20.748 5.24707l-1.27832 0.612305l-1.38867 0.692383l-1.48047 0.765625l-0.771484 0.407227l-1.86523 1.00684l-0.962891 0.529297l-1.96875 1.10547l-2.00879 1.15332l-2.02637 1.1875l-2.52051 1.51465l-2.4668 1.52051
l-1.9043 1.2041l-1.81738 1.17871c-0.588867 0.387695 -1.1582 0.768555 -1.70605 1.14062l-1.51562 1.05176l-1.61328 1.16016l-1.69336 1.25488l-1.75977 1.33594l-0.897461 0.695312l-2.05371 1.61523l-2.08008 1.67285l-1.04297 0.852539l-2.07422 1.72168
c-3.7793 3.1709 -7.3877 6.38379 -10.168 9.09863c-6.81543 6.64941 -14.2061 16.5967 -17.2051 23.1523c-3.52051 7.69141 -4.70117 12.7764 -3.80762 16.4658l0.102539 0.390625l0.0791016 0.211914l0.0595703 0.130859l0.160156 0.313477l0.339844 0.592773
l0.456055 0.736328l0.570312 0.87793l0.930664 1.38184l1.12109 1.61426l2.02148 2.83984l2.84375 3.90625l3.33203 4.49902l4.35449 5.80176l7.50684 9.8584l5.56934 7.23535l5.19238 6.69434l7.04883 9.02246l7.39258 9.38867l50.6689 63.8643l139.889 177.055
l44.3174 55.7578l-9.17676 10.4854l-14.625 16.7686l-8.83887 10.248l-13.6523 15.9902l-9.54492 11.248l-11.2305 13.291l-8.41797 9.99902l-12.252 14.6162l-4.92969 5.90527l-10.1846 12.2705l-11.3721 13.7803l-19.041 23.2012l-13.5615 16.6074l-15.7607 19.3926
l-7.97461 9.8584l-7.33301 9.10449l-18.3379 22.9111l-23.6436 29.7021l-21.7676 27.4795l-12.5967 15.9756l-9.75684 12.4316l-19.9629 25.5635l-21.5703 27.7305l-18.9385 24.4375l-12.7461 16.5215l-12.3721 16.1426l-9.66797 12.708l-9.12012 12.1113l-3.79883 5.13086
l-1.50293 2.0791l-0.553711 0.792969l-0.418945 0.629883l-0.631836 0.928711l-1.77246 2.51562l-3.29688 4.57617l-6.34277 8.66895l4.91406 -2.58105l5.45898 -2.81934l2.54297 -1.27344l0.97168 -0.467773l0.498047 -0.227539l0.723633 -0.307617l0.545898 -0.261719
l0.996094 -0.501953l1.28711 -0.668945l2.4375 -1.29492l4.67285 -2.53418l7.80371 -4.30078l6.76465 -3.76953l10.6885 -6.01758l6.38477 -3.64062l6.41406 -3.72461l4.09473 -2.40234l5.67871 -3.36133l5.86328 -3.5l7.47461 -4.50195l6.96875 -4.23535l5.04102 -3.08594
l6.56641 -4.05078l4.74902 -2.95508l4.54883 -2.85254l4.30273 -2.72461l4.05664 -2.5957l4.26953 -2.75879l4.57715 -2.98047l6.49609 -4.26074l6.83984 -4.51855l7.06934 -4.69922l7.18359 -4.80273l8.96582 -6.03418l7.02148 -4.75586l8.39941 -5.73242l6.27734 -4.32031
l4.375 -3.03418l3.94141 -2.75684l7.19824 -5.08203l6.22656 -4.43066l9.90625 -7.10449l5.12598 -3.7002l8.6709 -6.28711l10.3984 -7.59082l6.78809 -4.9873l9.74414 -7.20703l7.52441 -5.61523l4.30176 -3.23535l3.0791 -2.33203l4.86133 -3.7041l6.86328 -5.26758
l7.19824 -5.56152l9.2998 -7.23828l7.54688 -5.91113l7.52344 -5.92578l9.20312 -7.2959l7.06641 -5.6416l8.2832 -6.66602l4.59375 -3.72949l2.87598 -2.34961l5.80371 -4.76953l4.01758 -3.31738l6.18555 -5.125l9.66211 -8.0498l10.3721 -8.69434l9.86133 -8.32324
l7.99805 -6.80176l6.96777 -5.98145l5.00391 -4.34961l11.8418 -10.3867l13.2754 -11.707l11.5879 -10.2637l13.1406 -11.7021l3.94336 -3.54492l9.30664 -8.4502l6.27051 -5.73535l8.65234 10.835l1.0791 1.47949l0.804688 1.07129l0.833984 1.08301l6.67578 8.47168
l49.4961 62.1191l13.292 16.7666l16.1123 20.4092l27.0518 34.4727l49.0986 62.2158l27.6035 34.8311l9.8584 12.3311l6.48242 8.03906l5.26367 6.48047l4.1709 5.10156l4.73535 5.74902l5.13574 6.1748l3.40332 4.04688l1.93164 2.2793l3.03223 3.54297l3.31934 3.82129
l2.49121 2.81445l2.2334 2.46973l1.59766 1.72266l1.42383 1.49219l1.24707 1.25586l0.555664 0.539062l0.749023 0.694336l0.644531 0.557617l0.371094 0.293945l0.324219 0.231445l0.276367 0.167969c4.13867 2.24707 8.97656 3.19629 12.3154 2.41699
c0.581055 -0.135742 1.3125 -0.357422 2.15527 -0.648438l0.517578 -0.182617l1.1084 -0.412109l1.19141 -0.467773l1.25977 -0.517578l1.3125 -0.5625l1.35156 -0.599609l1.37598 -0.630859l1.38379 -0.65625l1.37793 -0.673828l1.35547 -0.685547l1.31836 -0.69043
c0.749023 -0.399414 1.58691 -0.87793 2.49609 -1.42285l0.694336 -0.419922l1.45996 -0.90918l0.761719 -0.486328l0.78125 -0.505859l1.61035 -1.06641l2.08594 -1.41895l2.14062 -1.49609l0.865234 -0.615234l1.73438 -1.25293l1.72949 -1.27441l1.70898 -1.28516
l0.841797 -0.643555l0.831055 -0.643555l1.62402 -1.27441l1.55859 -1.25488l1.59375 -1.31934l0.876953 -0.744141l1.85156 -1.60156l0.967773 -0.852539l2.00684 -1.79395l2.08105 -1.89453l2.13184 -1.97363l1.0791 -1.00977l2.16699 -2.05078l1.08301 -1.03613
l2.14941 -2.0791l2.1084 -2.07031l2.04492 -2.04004l1.95898 -1.9873l0.939453 -0.967773l1.78711 -1.86816l0.841797 -0.896484l1.14258 -1.23828l1.10254 -1.2207l1.0625 -1.2002l1.01758 -1.17773l0.973633 -1.15332l0.925781 -1.12598l1.29883 -1.63281
l0.802734 -1.04883l0.750977 -1.01367l0.697266 -0.976562l0.642578 -0.935547l0.584961 -0.894531l0.525391 -0.848633l0.241211 -0.407227l0.43457 -0.779297c0.808594 -1.50781 1.2373 -2.71484 1.2373 -3.53711c0 -0.174805 -0.0361328 -0.391602 -0.103516 -0.648438
l-0.0800781 -0.270508l-0.171875 -0.484375l-0.291992 -0.698242l-0.374023 -0.793945l-0.357422 -0.702148l-0.40625 -0.758789l-0.454102 -0.813477l-0.767578 -1.31641l-0.567383 -0.94043l-0.610352 -0.986328l-0.994141 -1.56445l-0.711914 -1.09473l-1.13965 -1.71484
l-1.6416 -2.41113l-1.31934 -1.89258l-1.38867 -1.95605l-0.960938 -1.33496l-1.49316 -2.04492l-1.5498 -2.08789l-1.60156 -2.12402l-1.64746 -2.15332l-50.7607 -65.2754l-2.59473 -3.27246l-2.50391 -3.12598l-2.99707 -3.69336l-3.3877 -4.10449l-1.60254 -1.91113
l-2.03906 -2.39648l-1.92188 -2.21875l-1.80078 -2.03516l-0.851562 -0.947266l-1.2168 -1.33008l-1.14258 -1.21875l-0.717773 -0.75l-0.682617 -0.699219l-0.957031 -0.951172l-0.875 -0.833008l-0.790039 -0.711914l-0.478516 -0.40625l-0.438477 -0.349609
l-0.399414 -0.293945l-0.358398 -0.237305c-0.339844 -0.208008 -0.616211 -0.329102 -0.827148 -0.358398c-2.73535 -0.396484 -5.32227 1.35156 -7.73438 5.22461l-0.661133 1.08496c-2.20703 3.48926 -6.57422 8.45703 -10.0156 11.3525
c-4.69629 3.9502 -9.09473 5.55664 -15.2324 5.55664c-6.40918 0 -9.20215 -1.05078 -13.3711 -5.52734l-0.435547 -0.474609l-0.876953 -0.992188l-1.19727 -1.41992l-1.22461 -1.49707l-2.64062 -3.29004l-2.21094 -2.7959l-5.02246 -6.4375l-4.94629 -6.42188
l-4.56836 -5.99707l-4.92188 -6.52734l-7.79492 -10.417l-7.45215 -10.0322l-5.97852 -8.11035l-3.77344 -5.16602l-4.61719 -6.41797l-3.68164 -5.16797l-10.4443 -14.7939l-4.47656 -6.39258l-5.24219 -7.53516l-4.61523 -6.7041l-5.7998 -8.54688l-3.4209 -5.11621
l-3.20996 -4.88184l-1.1582 -1.79395l-1.17578 -1.86035l-0.839844 -1.38379l-1.00293 -1.77246l-0.488281 -0.918945c-1.71875 -3.35254 -1.74023 -4.97949 -0.109375 -8.77734l0.233398 -0.53125l0.50293 -1.10156l0.578125 -1.22559
c2.16992 -4.5498 8.82715 -11.2393 16.7402 -16.8193l0.675781 -0.479492l1.29297 -0.932617l1.21484 -0.899414l1.13672 -0.866211l1.3125 -1.03613l1.19238 -0.984375l0.866211 -0.751953l0.405273 -0.364258l0.75293 -0.704102l0.834961 -0.835938l0.152344 -0.161133
l0.563477 -0.626953c1.3877 -1.6084 1.99512 -2.90332 1.85742 -3.91504l-0.0595703 -0.280273l-0.12793 -0.324219l-0.164062 -0.342773l-0.22168 -0.412109l-0.429688 -0.74707l-0.351562 -0.579102l-0.617188 -0.987305l-0.987305 -1.52051l-1.47656 -2.20508
l-1.36133 -1.98535l-1.11719 -1.60547l-2.45605 -3.47656l-2.24902 -3.13086l-3.40527 -4.66797l-3.10938 -4.19727l-2.14941 -2.86523l-1.91895 -2.53906l-2.58301 -3.39062l-2.37109 -3.07715l-1.64551 -2.1084l-2.02832 -2.55859l-1.84863 -2.27637l-0.860352 -1.03809
l-1.21484 -1.43457l-0.761719 -0.875977l-0.446289 -0.501953l-0.699219 -0.935547l-3.96777 -5.29199l0.947266 -0.973633l2.68164 -2.77051l3.13574 -3.28027l4.625 -4.87598l4.76562 -5.05664l4.99609 -5.33301l7.60254 -8.17676l6.18359 -6.71484l3.43555 -3.76465
l4.06738 -4.51367l1.75684 -1.98828c7.63086 -8.80664 17.9229 -23.375 23.2764 -32.9912l0.522461 -0.945312l0.526367 -0.96875l1.06738 -2.00195l0.537109 -1.0293l0.539062 -1.04492l1.08008 -2.12695l1.0752 -2.16602l1.06152 -2.1875l1.04199 -2.19434
l0.510742 -1.09375l0.998047 -2.1709l0.958984 -2.13574l0.912109 -2.08301l0.859375 -2.01562l0.407227 -0.976562l0.763672 -1.88184l0.597656 -1.52734c0.0957031 -0.248047 0.1875 -0.490234 0.277344 -0.730469l0.507812 -1.3877
c0.0791016 -0.222656 0.15625 -0.441406 0.230469 -0.655273l0.448242 -1.33789l0.671875 -2.07812l0.609375 -1.98535l0.370117 -1.27051l0.172852 -0.619141l0.323242 -1.20312l0.290039 -1.1543l0.130859 -0.55957l0.237305 -1.08203l0.200195 -1.03027
c0.6875 -3.83594 0.524414 -6.52051 -0.879883 -7.65527l-0.209961 -0.151367l-0.411133 -0.28418l-0.489258 -0.363281l-0.874023 -0.683594l-4.04102 -3.25l-1.52344 -1.19434l-1.08789 -0.835938l-1.73438 -1.2998l-1.22363 -0.887695l-1.27246 -0.899414
l-1.32129 -0.90625l-1.36816 -0.90625l-0.700195 -0.451172l-1.43164 -0.895508l-0.732422 -0.443359l-1.63379 -0.96875c-8.99609 -5.39648 -19.9346 -13.7266 -25.1592 -19.1611l-0.50293 -0.533203l-1.47461 -1.62012l-2.00391 -2.26465l-2.13184 -2.46777
l-1.76172 -2.07617l-1.77832 -2.12891l-1.76855 -2.14941l-1.72852 -2.13281l-0.841797 -1.0498l-0.820312 -1.03418l-1.56641 -2l-1.09473 -1.4248l-1.49414 -1.97656c-0.730469 -0.945312 -1.50391 -1.87891 -2.2959 -2.78711l-0.796875 -0.900391l-1.07324 -1.17383
l-0.537109 -0.573242l-1.06738 -1.11914l-1.04883 -1.07617l-3.74023 -3.7832l-0.758789 -0.791992l-0.661133 -0.72168c-0.305664 -0.341797 -0.568359 -0.657227 -0.78418 -0.938477l-0.381836 -0.529297l-0.361328 -0.472656
c-1.40723 -1.75586 -2.7334 -2.31348 -4.82812 -1.88184l-0.402344 0.0927734l-0.577148 0.161133l-0.304688 0.0976562l-0.637695 0.224609l-0.334961 0.126953l-0.704102 0.285156l-0.751953 0.325195l-0.802734 0.363281l-1.77344 0.838867l-6.87598 3.3623
l-3.16699 1.51953c-1.39941 0.678711 -2.90723 1.43945 -4.48828 2.26074l-1.19727 0.626953l-3.08984 1.65137l-0.630859 0.342773l-2.54688 1.4043l-2.56641 1.44238l-2.55762 1.4668l-2.30957 1.34961l-2.25488 1.3418
c-0.370117 0.223633 -0.737305 0.444336 -1.10059 0.665039l-2.12793 1.30762c-1.38477 0.859375 -2.69434 1.69336 -3.89941 2.4834l-0.884766 0.584961l-1.21973 0.828125l-1.32227 0.922852l-1.41699 1.01367l-1.50195 1.09473l-1.98535 1.47461l-2.95508 2.24023
l-1.76562 1.36035l-1.80859 1.40918l-2.78027 2.19434l-2.83398 2.26953l-2.86133 2.32227l-1.90918 1.56738l-2.8457 2.36328l-1.87305 1.57324l-2.75293 2.34277l-2.65918 2.2998l-1.70801 1.49902l-1.48535 1.31641l-4.09863 3.67578l-4.56445 4.14355l-4.92188 4.51172
l-6.22949 5.76074l-16.7109 -21.5654l-24.1943 -31.0684l-9.86133 -12.5732l-7.44336 -9.41699l-66.0703 -82.5215l-3.25879 -4.17188l-5.32227 -6.9541l-4.98438 -6.60156l-1.39648 -1.83203l-5.43945 -6.97559l-12.457 -15.7646l-23.0557 -28.9473l-30.8711 -38.5078
l-21.7725 -26.9893l-16.9746 -20.9121l-11.5059 -14.0479l-4.91406 -5.90332l-1.49121 -1.74219l-1.28027 -1.43359l-0.918945 -1.00488l-0.863281 -0.917969l-0.816406 -0.835938c-3.67773 -3.68848 -6.03906 -4.85449 -10.3271 -5.17188l-0.570312 -0.0371094
l-0.99707 -0.0419922l-1.06738 -0.0273438zM652.71 455.733c-4.60156 -2.83691 -7.04199 -3.15723 -10.5674 -1.49707c-0.648438 0.304688 -1.50781 0.844727 -2.50488 1.55957l-0.435547 0.317383l-0.916992 0.693359c-0.31543 0.244141 -0.638672 0.5 -0.96875 0.767578
l-0.500977 0.408203l-1.0293 0.859375l-1.05566 0.911133l-1.07324 0.954102l-1.08008 0.990234l-1.07715 1.01562l-1.06348 1.03418l-0.78125 0.782227l-0.765625 0.782227l-0.985352 1.0293l-0.904297 0.956055l-0.825195 0.888672l-0.748047 0.828125l-0.672852 0.772461
l-0.600586 0.72168l-0.530273 0.676758c-1.86816 2.47168 -2.29688 4.1084 -1.85059 6.23145l0.0927734 0.404297l0.166016 0.59668l0.0966797 0.30957l0.220703 0.647461l0.298828 0.792969l0.197266 0.412109l0.298828 0.551758l0.551758 0.949219l0.926758 1.51465
l1.17969 1.86426l3.07031 4.70312l3.08398 4.62109l5.55762 8.19336l7.11035 10.333l9.3418 13.4092l8.14355 11.5693l5.66992 7.99707l7.87305 11.0205l4.91504 6.82715l7.46875 10.2959l7.64648 10.4297l5.28418 7.12695l4.80859 6.41602l2.90234 3.83008l3.0459 3.96777
l1.93164 2.47754l2.02637 2.55566l1.16504 1.43359l1.23438 1.47363l0.800781 0.913086l0.488281 0.523438l0.269531 0.269531l1.08008 1.01953l1.02051 0.918945c4.46094 3.91797 7.27637 4.91113 11.0459 4.18945c3.10547 -0.594727 8.91895 -4.65039 12.9199 -9.01562
c5.87695 -6.41406 7.06738 -9.08887 6.50391 -15.2295l-0.0800781 -0.772461l-0.0615234 -0.391602l-0.0869141 -0.417969l-0.112305 -0.444336l-0.137695 -0.47168l-0.164062 -0.501953l-0.192383 -0.53125l-0.220703 -0.563477l-0.385742 -0.907227l-0.293945 -0.647461
l-0.324219 -0.682617l-0.546875 -1.09473l-0.404297 -0.776367l-0.439453 -0.816406l-0.72168 -1.30078l-0.801758 -1.39746l-1.52051 -2.55078l-0.673828 -1.10156l-1.46582 -2.35059l-1.20605 -1.89453l-1.29883 -2.0127l-2.38086 -3.62598l-2.10449 -3.15527
l-2.89062 -4.28027l-2.5293 -3.70312l-4.16602 -6.04199l-5.4502 -7.82324l-7.04492 -10.0244l-9.80371 -13.8467l-3.86719 -5.42383l-6.78516 -9.43945l-7.20605 -9.91113l-4.11816 -5.60547l-4.57617 -6.17383l-4.89355 -6.52148l-4.48633 -5.89355l-2.5752 -3.33691
l-3.28613 -4.1875l-2.10352 -2.62598l-1.52637 -1.87012l-1.38379 -1.65625l-1.23047 -1.43555l-0.821289 -0.925781l-0.730469 -0.793945l-0.638672 -0.658203l-0.37207 -0.361328l-0.40332 -0.364258l-0.335938 -0.263672l-0.65625 -0.416016zM886.013 -102.699
l-4.78125 8.31836l-4.65332 8.24512l-3.55273 6.41211l-0.944336 1.65332c-0.164062 0.28418 -0.332031 0.570312 -0.501953 0.860352l-1.05957 1.78027l-1.41406 2.31738l-0.740234 1.19043l-1.53613 2.42578l-1.19141 1.84668l-1.2168 1.8584l-1.64844 2.47461
l-1.66406 2.44922l-1.5127 2.18262c-0.250977 0.358398 -0.500977 0.714844 -0.750977 1.06836l-1.48438 2.0791c-1.22461 1.69727 -2.41309 3.29688 -3.53125 4.75l-0.663086 0.853516l-1.33496 1.68457l-0.697266 0.864258l-1.8125 2.20898l-1.89355 2.25391
l-1.55371 1.81543l-1.5752 1.81152l-0.791016 0.897461l-1.58008 1.77539l-1.56641 1.73145l-1.54102 1.67383l-1.50098 1.60059l-0.731445 0.768555l-1.41504 1.46289l-1.33984 1.35156l-1.01074 0.993164l-0.947266 0.904297l-0.901367 0.830078l-0.976562 0.867188
l-0.521484 0.453125l-1.48926 1.26562l-1.61914 1.33496l-0.852539 0.688477l-1.77539 1.41309l-0.918945 0.719727l-1.89062 1.45703l-0.964844 0.734375l-1.96094 1.46973l-1.98535 1.45996l-0.995117 0.722656l-1.98438 1.41797l-1.95996 1.37207l-1.91602 1.30957
l-1.85449 1.23535l-0.896484 0.585938c-2.02539 1.30957 -4.33496 2.70312 -6.78027 4.10156l-1.23242 0.700195l-2.20117 1.21973c-0.702148 0.383789 -1.4082 0.765625 -2.11621 1.14258l-2.12793 1.11914l-2.12207 1.08594l-2.0957 1.04297l-2.05273 0.990234
c-3.03516 1.44238 -5.85742 2.6748 -8.18066 3.54883c-0.423828 0.158203 -0.875 0.323242 -1.35254 0.491211l-0.736328 0.256836l-1.58105 0.527344l-1.71484 0.546875l-1.83691 0.563477l-1.94531 0.576172l-2.04004 0.585938l-2.12109 0.59082l-2.18945 0.592773
l-2.24414 0.591797l-2.28613 0.587891l-2.31348 0.576172l-3.49219 0.842773l-3.48145 0.802734l-2.8584 0.630859l-2.79199 0.588867l-3.54102 0.709961c-13.7529 2.79883 -28.2158 7.29004 -37.2217 11.5762c-9.8457 4.6875 -19.6465 11.6221 -27.4658 19.4424
c-8.08008 8.08008 -15.0381 18.0225 -20.7539 29.6533c-0.783203 1.59375 -1.58789 3.32422 -2.39746 5.1416l-0.606445 1.37891l-1.00781 2.35449l-0.5 1.19922l-0.49707 1.20996l-0.979492 2.44043l-0.428711 1.0957l-0.838867 2.19043l-0.808594 2.17285
l-0.769531 2.13965l-0.727539 2.08984c-0.116211 0.34375 -0.232422 0.68457 -0.344727 1.02246l-0.651367 1.98633c-0.725586 2.26953 -1.33008 4.35547 -1.77441 6.14551c-1.96875 7.95508 -3.60547 21.2461 -3.74512 30.1865l-0.00976562 1.0957v1.85156
l0.0146484 1.72559l0.0263672 1.60938l0.0185547 0.765625l0.0507812 1.45508l0.0332031 0.694336l0.0830078 1.32422l0.107422 1.24902c0.389648 3.95117 1.20508 6.88086 2.85645 10.376l0.396484 0.816406l0.576172 1.12891l0.30957 0.583984l0.664062 1.21191
l0.725586 1.28027l0.790039 1.36133l0.857422 1.4502c1.11816 1.87988 2.58203 4.10059 4.25488 6.48242l1.29199 1.81543c0.664062 0.918945 1.35254 1.85645 2.05859 2.7998l1.43359 1.89453l1.46777 1.89648l0.743164 0.944336l1.58301 1.97754l0.792969 0.974609
l0.791992 0.958984l1.57129 1.86816c1.29883 1.52344 2.56934 2.96094 3.77051 4.25684c1.07617 1.16211 2.25195 2.36133 3.49512 3.57129l0.944336 0.90918l1.62109 1.51758l0.828125 0.755859l1.68359 1.5c1.02539 0.896484 2.06055 1.78125 3.09766 2.63672
l1.55176 1.2627c1.28711 1.03418 2.5625 2.0166 3.79492 2.92676l1.45703 1.05371c1.90918 1.35254 3.68262 2.49219 5.20117 3.32422c1.7998 0.982422 3.86035 2.00977 6.01172 3.00879l1.08203 0.49707l1.91602 0.851562l0.960938 0.415039l1.91406 0.802734
l0.945312 0.383789l0.93457 0.371094l1.82324 0.696289c2.08105 0.775391 3.99023 1.41016 5.54492 1.82715c5.32617 1.42969 13.5596 2.05566 18.2939 1.3916l0.671875 -0.0986328l1.48633 -0.236328l1.65234 -0.287109l1.78613 -0.330078l1.88672 -0.366211
l1.95703 -0.396484l1.99609 -0.418945l2.99707 -0.658203l1.9541 -0.449219l1.88184 -0.450195l1.7793 -0.444336l1.43359 -0.384766l1.59082 -0.458984l0.848633 -0.254883l1.78906 -0.555664l2.38184 -0.774414l2.50684 -0.847656l2.06934 -0.722656l2.10254 -0.751953
l2.11621 -0.775391l2.10938 -0.791992l2.08105 -0.801758l2.03223 -0.801758l1.96387 -0.796875l1.875 -0.78418l1.85254 -0.799805l2.01855 -0.896484l1.06543 -0.481445l2.22656 -1.02246l2.33594 -1.09082l3.6582 -1.73926l2.50684 -1.21387l2.53613 -1.24121
l2.54102 -1.25977l2.52344 -1.26562l2.47949 -1.26074l2.41504 -1.24414l3.4502 -1.81152l2.15234 -1.15332l2.91406 -1.59766l2.01855 -1.12695l2.0625 -1.16504l2.08984 -1.19434l4.20312 -2.44141l3.10938 -1.83984l2.02441 -1.21289l1.96777 -1.19238l1.89551 -1.16211
l1.80664 -1.12207l1.70312 -1.07324l1.58496 -1.0166l1.45117 -0.947266l1.2998 -0.87207c2.1709 -1.47754 4.65625 -3.33301 7.1875 -5.34082l0.951172 -0.759766l1.90234 -1.55078l0.945312 -0.786133l1.86133 -1.58105l0.828125 -0.717773l1.61133 -1.42383
l1.53516 -1.39648c1.48926 -1.37598 2.83594 -2.68262 3.95215 -3.85156c0.827148 -0.865234 1.73828 -1.87598 2.70508 -2.99219l1.18359 -1.3877l0.607422 -0.728516l1.4209 -1.73438l1.45117 -1.81934l0.731445 -0.932617l0.731445 -0.946289l1.45996 -1.91895
l1.44043 -1.9375l0.707031 -0.967773l0.696289 -0.963867l1.34766 -1.90723l0.649414 -0.936523l1.23535 -1.82812c0.397461 -0.598633 0.77832 -1.18164 1.1416 -1.74805c1.03711 -1.62109 2.16113 -3.49512 3.31836 -5.51855l1.16699 -2.06738
c0.587891 -1.05566 1.17871 -2.13965 1.76758 -3.2373l0.587891 -1.10352l1.58008 -3.03809l0.30957 -0.609375l1.21387 -2.4248l1.15918 -2.38477c0.329102 -0.6875 0.648438 -1.36523 0.956055 -2.03027l0.890625 -1.95605
c0.428711 -0.956055 0.828125 -1.87695 1.19336 -2.75195l0.578125 -1.41309l0.227539 -0.570312l0.94043 -2.41895l0.484375 -1.2832l0.988281 -2.68359c0.332031 -0.916992 0.666992 -1.85352 1.00098 -2.80273l0.5 -1.43262l0.990234 -2.89258l0.961914 -2.89648
l0.46582 -1.43457l0.893555 -2.8125l0.62793 -2.03809l0.583984 -1.95508l0.533203 -1.85352l0.569336 -2.08301l0.0957031 -0.365234l0.484375 -1.97559l0.500977 -2.21094l0.40918 -1.91797l0.413086 -2.03418l0.415039 -2.13574l0.414062 -2.22266l0.411133 -2.29492
l0.604492 -3.54297l0.391602 -2.40723l0.378906 -2.42871l0.540039 -3.64551l0.337891 -2.41211l0.317383 -2.37891l0.361328 -2.90527l0.320312 -2.80176c1.85352 -17.0918 1.92383 -28.2881 0.217773 -45.7441l-0.338867 -3.3125l-0.250977 -2.23438l-0.28125 -2.34863
l-0.416016 -3.28809l-0.581055 -4.3125l-0.639648 -4.47559l-0.545898 -3.65332l-0.283203 -1.83984l-0.731445 -4.60254l-0.755859 -4.55371l-0.769531 -4.43848l-0.154297 -0.868164l-0.620117 -3.3916l-0.615234 -3.23145l-0.607422 -3.04102l-0.297852 -1.43848
l-0.761719 -3.57422l-1.18359 -5.38086l-1.19922 -5.2627l-1.17676 -4.99023l-0.753906 -3.09766l-0.887695 -3.53516l-0.654297 -2.50098l-0.450195 -1.65527l-0.537109 -1.87695l-0.238281 -0.783203l-0.217773 -0.673828l-0.655273 -1.89062l-0.824219 -2.26562
l-1.68359 -4.47559l-2.92285 -7.54102zM158.675 -127.075c-2.75977 -1.13281 -4.67773 -1.3252 -7.83594 -0.512695l-0.648438 0.174805l-1.01172 0.303711l-0.538086 0.173828l-1.14844 0.389648l-1.25488 0.447266l-2.10645 0.779297
c-6.05371 2.27734 -14.2861 7.9707 -21.165 14.6152l-0.758789 0.742188l-1.19629 1.18555l-2.17969 2.18164l-1.02246 1.04102l-0.930664 0.966797l-1.04199 1.11914l-0.913086 1.03223c-2.80273 3.27148 -3.62695 5.36914 -3.62305 8.67969l0.00683594 0.533203
l0.0361328 0.863281l0.0625 0.924805l0.0849609 0.992188l0.224609 2.21973c0.132812 1.26562 0.412109 2.80859 0.803711 4.53125l0.364258 1.51855l0.415039 1.5918c0.146484 0.541016 0.300781 1.09277 0.462891 1.65234l0.248047 0.84375l0.567383 1.85059
c1.22266 3.87402 2.71875 7.93652 4.27246 11.5l0.585938 1.31152l0.671875 1.44922l0.649414 1.36621l0.629883 1.28516l0.611328 1.20508l0.592773 1.12598l0.574219 1.04785l0.28125 0.495117l0.548828 0.932617l0.268555 0.4375l0.526367 0.819336
c1.99023 2.99805 3.65918 4.36426 5.2002 4.36426c0.427734 0 1.08984 -0.25293 1.93359 -0.717773l0.373047 -0.212891l0.640625 -0.391602l0.693359 -0.454102l0.741211 -0.512695l0.786133 -0.570312l0.827148 -0.625l0.863281 -0.675781l0.898438 -0.724609
l0.928711 -0.768555l0.956055 -0.8125l1.47852 -1.29102l1.00879 -0.905273l1.54004 -1.4209l1.03906 -0.984375l1.04492 -1.00977l1.04785 -1.0332l1.9375 -1.94824c7.8584 -7.79492 18.9375 -16.3438 27.6455 -21.3389l1.60352 -0.900391l1.20312 -0.682617
l1.17676 -0.68457l1.14551 -0.68457l1.65527 -1.01855l1.05566 -0.670898l1.01367 -0.661133l0.967773 -0.648438l0.916992 -0.632812l0.863281 -0.616211l0.808594 -0.595703l0.748047 -0.572266l0.683594 -0.545898l0.617188 -0.517578l0.545898 -0.488281
l0.47168 -0.454102c0.722656 -0.727539 1.12012 -1.30664 1.12012 -1.68066c0 -0.318359 -0.227539 -0.829102 -0.645508 -1.49219l-0.19043 -0.293945l-0.504883 -0.71582l-0.745117 -0.964844l-0.728516 -0.882812l-0.649414 -0.75293l-0.704102 -0.790039
l-1.14941 -1.24512l-0.407227 -0.428711l-0.845703 -0.876953l-0.886719 -0.898438l-0.922852 -0.914062l-1.44727 -1.39746l-1.00098 -0.94043l-1.02539 -0.942383l-1.16406 -1.04785l-1.31445 -1.15527l-1.3418 -1.15332l-1.3623 -1.14258l-1.37012 -1.12695
l-1.37012 -1.10352l-1.36035 -1.07031l-1.33789 -1.03223l-1.30859 -0.986328l-1.2666 -0.930664l-1.2168 -0.870117l-1.15723 -0.800781l-1.08691 -0.725586l-0.513672 -0.332031l-0.962891 -0.59668c-0.458984 -0.275391 -0.882812 -0.514648 -1.26465 -0.714844
l-0.856445 -0.422852l-0.920898 -0.435547l-0.436523 -0.197266l-0.828125 -0.356445z" />
</svg>
