<?xml version="1.0" encoding="UTF-8"?>
<svg width="955px" height="856px" viewBox="0 0 955 856" version="1.1" xmlns="http://www.w3.org/2000/svg" xmlns:xlink="http://www.w3.org/1999/xlink">
  <g id="ArtHaven" transform="translate(0.7387, 0.6137)" fill="currentColor" fill-rule="nonzero">
    <path d="M373.037419,0 L392.092119,0.03125 C419.430019,0.388672 445.168319,18.37695 454.827519,45.65525 L708.035519,759.65925 C720.424219,794.64365 700.653679,831.87315 665.669319,844.26175 C630.683919,856.65045 590.372419,840.42484 577.982819,805.43945 L553.832419,735.65725 C545.392969,711.46775 536.455419,696.31835 528.342219,689.24415 L528.342219,746.17575 C528.342219,806.26465 479.631319,854.97575 419.542219,854.97575 L278.742219,854.97575 C218.652419,854.97575 169.941219,806.26485 169.941219,746.17575 L169.939266,698.33395 L132.266366,804.94595 C119.877666,839.93035 79.7712656,856.89805 44.7868656,844.50945 C9.80146565,832.12075 -8.51583435,793.71645 3.87276565,758.73215 L258.093766,45.65515 C267.785176,18.28695 293.425766,0.30265 320.861366,0.03215 L327.061566,0.0467984 L373.036166,0 L373.037419,0 Z M889.303419,10.175336 L882.903029,10.175336 C847.557329,10.175336 818.903029,38.8301 818.903029,74.1758 L818.901076,302.9758 C818.901076,336.5549 791.680376,363.7756 758.101276,363.7756 L633.149276,363.7756 C631.303576,363.7756 629.471546,364.094936 627.735216,364.719936 C619.420766,367.710166 615.103416,376.875236 618.093616,385.189636 L646.101416,463.073436 C648.842626,470.693556 656.069186,475.775536 664.168816,475.775536 L758.102416,475.775536 C791.681516,475.775536 818.902216,502.997236 818.902216,536.576336 L818.904169,774.975336 C818.904169,810.322036 847.558469,838.975336 882.904169,838.975336 L889.304559,838.975336 C924.650259,838.975336 953.304559,810.322036 953.304559,774.975336 L953.304559,74.175336 C953.304559,38.829636 924.650259,10.175336 889.304559,10.175336 L889.303582,10.175336 L889.303419,10.175336 Z M218.342419,287.5908 C211.964489,289.8115 211.670539,296.43162 217.46156,307.4502 C214.4557,338.3877 203.43616,353.5557 203.43616,365.3057 C203.43616,370.418 209.17346,386.0039 215.65496,401.9825 L217.95965,407.60652 L219.65789,411.68953 L223.3493,420.41707 L226.40203,427.50496 C228.82,433.0782 230.87371,437.71686 232.18914,440.66906 L233.74871,444.14855 L246.13831,509.37605 L211.54361,509.375073 C199.17251,509.375073 189.14321,519.403373 189.14321,531.774473 L189.14321,746.174473 C189.14321,795.659873 229.25841,835.774073 278.74381,835.774073 L419.54381,835.774073 C469.02821,835.774073 509.14341,795.659773 509.14341,746.174473 L509.14341,531.774473 C509.14341,519.403373 499.11411,509.375073 486.74401,509.375073 L467.58781,509.377027 L486.41491,402.950027 L486.822137,400.521317 L486.968621,399.401197 C487.392449,395.788897 487.713738,389.264497 484.506711,389.264497 C480.070191,389.264497 482.706911,397.694187 473.983311,397.699067 C470.478431,397.70102 470.564361,395.924657 471.207921,393.685397 L471.851476,391.590667 C472.689367,388.735197 473.033116,385.783047 467.760656,384.949067 C456.737256,383.206877 462.940346,395.776167 452.091756,394.650237 C446.535116,394.074065 446.256796,391.151217 446.241166,388.209807 L446.238236,387.37094 C446.22847,384.8641 446.059525,382.50375 442.575146,381.75571 C438.935496,380.97446 437.557566,382.618015 436.385696,384.56723 L435.704055,385.7352 C434.549755,387.69418 433.204055,389.54672 429.696245,389.26547 C424.520465,388.850431 422.956985,385.08383 425.005815,377.96367 L420.941365,374.14629 L397.885665,509.36929 L391.917895,509.372219 L381.915895,311.637219 L320.557495,311.637219 L311.225465,493.088219 L302.580935,470.761119 L297.898315,458.397819 C295.081905,450.850939 293.229365,445.631219 292.344605,442.735719 L292.048707,441.724979 C290.192257,435.025759 287.706907,431.541379 284.592657,431.268879 L284.026251,423.099929 L283.485235,416.335279 C282.710821,407.127269 281.509645,394.769879 279.831915,382.521779 L279.449103,379.790329 C276.517463,359.333329 272.233283,339.860629 266.343603,336.683929 C257.618993,331.976899 245.809403,321.401729 230.915903,304.959329 C233.940313,292.043329 227.911023,284.261129 218.343603,287.592129 L218.342419,287.5908 Z M214.743419,685.3758 C209.440689,685.3758 205.142829,689.67365 205.142829,694.97541 L205.142829,701.3758 C205.142829,706.67756 209.440679,710.97541 214.743419,710.97541 C220.045179,710.97541 224.343029,706.67756 224.343029,701.3758 L224.343029,694.97541 C224.343029,689.67365 220.045179,685.3758 214.743419,685.3758 Z M214.743419,541.3758 C209.440689,541.3758 205.142829,545.67365 205.142829,550.97541 L205.142829,662.97541 C205.142829,668.27717 209.440679,672.576 214.743419,672.576 C220.045179,672.576 224.343029,668.27717 224.343029,662.97541 L224.343029,550.97541 C224.343029,545.67365 220.045179,541.3758 214.743419,541.3758 Z M256.829419,440.23273 L256.827466,509.3734 L255.305986,509.3734 L242.979786,445.3675 L256.828386,440.23273 L256.829419,440.23273 L256.829419,440.23273 Z M225.823419,328.1438 L240.141819,382.5325 C235.852759,390.96414 237.914279,396.2718 246.323459,398.4544 L254.272679,431.9124 L240.264879,435.65947 L235.321519,423.80987 C220.931919,389.12337 213.545119,369.46517 213.162319,364.83627 C215.871299,353.17607 220.092009,340.94467 225.823419,328.1438 L225.823419,328.1438 L225.823419,328.1438 Z M370.976419,321.0788 L373.290869,414.9567 L327.712769,415.432286 L330.565309,321.686186 L370.976419,321.0788 Z M479.120419,240.4008 C476.654599,240.034589 475.206359,241.374433 474.771789,244.42033 L422.299089,370.69733 L426.654559,372.74421 L451.940659,323.42681 L440.012959,375.28231 C440.037373,375.301841 440.256123,375.246177 440.671162,375.115318 L443.011002,374.317466 L465.869402,315.770566 L468.869402,379.925866 L471.880142,380.321374 L477.522722,333.470774 L481.917252,383.915074 L487.230732,383.915074 L481.917252,244.437074 L481.953385,244.243715 C482.077408,243.529848 482.31276,240.877505 479.120375,240.401915 L479.120375,240.399962 L479.120419,240.4008 Z M335.576419,81.785315 C335.600833,82.698209 335.616458,83.6943 335.622317,84.77829 L335.622317,86.4697 C335.586184,95.24607 334.984622,108.8711 333.820557,127.3437 L332.990479,139.955 C320.816679,206.2099 303.194579,211.7216 303.194579,248.113 C303.194579,272.3728 310.353759,291.6511 324.673079,305.947 L324.725814,305.304422 C324.735579,305.132547 324.745345,304.924539 324.751204,304.681375 L324.75804,303.684305 L324.727767,302.508525 L324.641829,301.014385 C324.363509,297.205795 323.494369,291.118875 321.038309,282.508485 L320.389871,280.300475 C315.490461,254.534875 316.553931,233.744775 323.581281,217.930375 C329.349831,208.409865 333.754181,197.098375 336.795181,183.996775 L337.027603,182.793655 C338.035413,177.866895 339.025653,176.666705 340.002213,179.192095 L340.336197,180.129595 C342.139907,185.611045 341.771747,194.491895 339.232677,206.768295 L338.608654,209.662825 C336.567634,214.955795 336.567634,217.660875 338.606701,217.780015 C351.488501,212.083725 362.651601,190.389415 372.096001,152.697015 C391.130201,190.667715 393.719001,237.409915 379.861621,292.924015 C376.982711,301.099795 376.909471,305.638815 379.639941,306.540215 C394.621341,286.881015 402.119441,253.908415 402.132141,207.621315 C400.964171,159.724815 378.778641,117.780515 335.576441,81.785315 L335.576441,81.785315 L335.576419,81.785315 Z"></path>
  </g>
</svg>