<?xml version="1.0" standalone="no"?>
<!DOCTYPE svg PUBLIC "-//W3C//DTD SVG 1.1//EN" "http://www.w3.org/Graphics/SVG/1.1/DTD/svg11.dtd" >
<svg xmlns="http://www.w3.org/2000/svg" xmlns:xlink="http://www.w3.org/1999/xlink" version="1.1" viewBox="-10 0 1034 1024">
   <path fill="currentColor"
d="M408.235 -57.7998l19.0547 0.03125c27.3379 0.357422 53.0762 18.3457 62.7354 45.624l253.208 714.004c12.3887 34.9844 -7.38184 72.2139 -42.3662 84.6025c-34.9854 12.3887 -75.2969 -3.83691 -87.6865 -38.8223l-24.1504 -69.7822
c-8.43945 -24.1895 -17.377 -39.3389 -25.4902 -46.4131v56.9316c0 60.0889 -48.7109 108.8 -108.8 108.8h-140.8c-60.0898 0 -108.801 -48.7109 -108.801 -108.8l-0.00195312 -47.8418l-37.6729 106.612c-12.3887 34.9844 -52.4951 51.9521 -87.4795 39.5635
c-34.9854 -12.3887 -53.3027 -50.793 -40.9141 -85.7773l254.221 -713.077c9.69141 -27.3682 35.332 -45.3525 62.7676 -45.623l6.2002 0.0146484l45.9746 -0.0458984zM924.501 -47.624h-6.40039c-35.3457 0 -64 28.6543 -64 64l-0.00195312 228.8
c0 33.5791 -27.2207 60.7998 -60.7998 60.7998h-124.952c-1.8457 0 -3.67773 0.319336 -5.41406 0.944336c-8.31445 2.99023 -12.6318 12.1553 -9.6416 20.4697l28.0078 77.8838c2.74121 7.62012 9.96777 12.7021 18.0674 12.7021h93.9336
c33.5791 0 60.7998 27.2217 60.7998 60.8008l0.00195312 238.399c0 35.3467 28.6543 64 64 64h6.40039c35.3457 0 64 -28.6533 64 -64v-700.8c0 -35.3457 -28.6543 -64 -64 -64h-0.000976562zM253.54 229.791c-6.37793 2.2207 -6.67188 8.84082 -0.880859 19.8594
c-3.00586 30.9375 -14.0254 46.1055 -14.0254 57.8555c0 5.1123 5.7373 20.6982 12.2188 36.6768l2.30469 5.62402l1.69824 4.08301l3.69141 8.72754l3.05273 7.08789c2.41797 5.57324 4.47168 10.2119 5.78711 13.1641l1.55957 3.47949l12.3896 65.2275
l-34.5947 -0.000976562c-12.3711 0 -22.4004 10.0283 -22.4004 22.3994v214.4c0 49.4854 40.1152 89.5996 89.6006 89.5996h140.8c49.4844 0 89.5996 -40.1143 89.5996 -89.5996v-214.4c0 -12.3711 -10.0293 -22.3994 -22.3994 -22.3994l-19.1562 0.00195312
l18.8271 -106.427l0.407227 -2.42871l0.146484 -1.12012c0.423828 -3.6123 0.745117 -10.1367 -2.46191 -10.1367c-4.43652 0 -1.7998 8.42969 -10.5234 8.43457c-3.50488 0.00195312 -3.41895 -1.77441 -2.77539 -4.01367l0.643555 -2.09473
c0.837891 -2.85547 1.18164 -5.80762 -4.09082 -6.6416c-11.0234 -1.74219 -4.82031 10.8271 -15.6689 9.70117c-5.55664 -0.576172 -5.83496 -3.49902 -5.85059 -6.44043l-0.00292969 -0.838867c-0.00976562 -2.50684 -0.178711 -4.86719 -3.66309 -5.61523
c-3.63965 -0.78125 -5.01758 0.862305 -6.18945 2.81152l-0.681641 1.16797c-1.1543 1.95898 -2.5 3.81152 -6.00781 3.53027c-5.17578 -0.415039 -6.73926 -4.18164 -4.69043 -11.3018l-4.06445 -3.81738l-23.0557 135.223l-5.96777 0.00292969l-10.002 -197.735h-61.3584
l-9.33203 181.451l-8.64453 -22.3271l-4.68262 -12.3633c-2.81641 -7.54688 -4.66895 -12.7666 -5.55371 -15.6621l-0.295898 -1.01074c-1.85645 -6.69922 -4.3418 -10.1836 -7.45605 -10.4561l-0.566406 -8.16895l-0.541016 -6.76465
c-0.774414 -9.20801 -1.97559 -21.5654 -3.65332 -33.8135l-0.382812 -2.73145c-2.93164 -20.457 -7.21582 -39.9297 -13.1055 -43.1064c-8.72461 -4.70703 -20.5342 -15.2822 -35.4277 -31.7246c3.02441 -12.916 -3.00488 -20.6982 -12.5723 -17.3672zM249.941 627.576
c-5.30273 0 -9.60059 4.29785 -9.60059 9.59961v6.40039c0 5.30176 4.29785 9.59961 9.60059 9.59961c5.30176 0 9.59961 -4.29785 9.59961 -9.59961v-6.40039c0 -5.30176 -4.29785 -9.59961 -9.59961 -9.59961zM249.941 483.576
c-5.30273 0 -9.60059 4.29785 -9.60059 9.59961v112c0 5.30176 4.29785 9.60059 9.60059 9.60059c5.30176 0 9.59961 -4.29883 9.59961 -9.60059v-112c0 -5.30176 -4.29785 -9.59961 -9.59961 -9.59961zM292.027 382.433l-0.00195312 69.1406h-1.52148l-12.3262 -64.0059
l13.8486 -5.13477h0.000976562zM261.021 270.344l14.3184 54.3887c-4.28906 8.43164 -2.22754 13.7393 6.18164 15.9219l7.94922 33.458l-14.0078 3.74707l-4.94336 -11.8496c-14.3896 -34.6865 -21.7764 -54.3447 -22.1592 -58.9736
c2.70898 -11.6602 6.92969 -23.8916 12.6611 -36.6914v-0.000976562zM406.174 263.279l2.31445 93.8779l-45.5781 0.475586l2.85254 -93.7461zM514.318 182.601c-2.46582 -0.366211 -3.91406 0.973633 -4.34863 4.01953l-52.4727 126.277l4.35547 2.04688l25.2861 -49.3174
l-11.9277 51.8555c0.0244141 0.0195312 0.243164 -0.0361328 0.658203 -0.166992l2.33984 -0.797852l22.8584 -58.5469l3 64.1553l3.01074 0.395508l5.64258 -46.8506l4.39453 50.4443h5.31348l-5.31348 -139.478l0.0361328 -0.193359
c0.124023 -0.713867 0.359375 -3.36621 -2.83301 -3.8418v-0.00195312zM370.774 23.9863c0.0244141 0.912109 0.0400391 1.9082 0.0458984 2.99219v1.69141c-0.0361328 8.77637 -0.637695 22.4014 -1.80176 40.874l-0.830078 12.6113
c-12.1738 66.2549 -29.7959 71.7666 -29.7959 108.158c0 24.2598 7.15918 43.5381 21.4785 57.834l0.0527344 -0.642578c0.00976562 -0.171875 0.0195312 -0.379883 0.0253906 -0.623047l0.00683594 -0.99707l-0.0302734 -1.17578l-0.0859375 -1.49414
c-0.27832 -3.80859 -1.14746 -9.89551 -3.60352 -18.5059l-0.648438 -2.20801c-4.89941 -25.7656 -3.83594 -46.5557 3.19141 -62.3701c5.76855 -9.52051 10.1729 -20.832 13.2139 -33.9336l0.232422 -1.20312c1.00781 -4.92676 1.99805 -6.12695 2.97461 -3.60156
l0.333984 0.9375c1.80371 5.48145 1.43555 14.3623 -1.10352 26.6387l-0.624023 2.89453c-2.04102 5.29297 -2.04102 7.99805 -0.00195312 8.11719c12.8818 -5.69629 24.0449 -27.3906 33.4893 -65.083c19.0342 37.9707 21.623 84.7129 7.76562 140.227
c-2.87891 8.17578 -2.95215 12.7148 -0.22168 13.6162c14.9814 -19.6592 22.4795 -52.6318 22.4922 -98.9189c-1.16797 -47.8965 -23.3535 -89.8408 -66.5557 -125.836v0.000976562z" />
</svg>
