<?xml version="1.0" standalone="no"?>
<!DOCTYPE svg PUBLIC "-//W3C//DTD SVG 1.1//EN" "http://www.w3.org/Graphics/SVG/1.1/DTD/svg11.dtd" >
<svg xmlns="http://www.w3.org/2000/svg" xmlns:xlink="http://www.w3.org/1999/xlink" version="1.1" viewBox="-10 0 1044 1024">
   <path fill="currentColor"
d="M137.867 -79.5596c-4.0498 36.084 24.3018 69.6787 56.7051 82.1211c32.4023 12.4434 67.6973 8.08887 101.837 4.35547c54.0049 -6.74023 107.605 -13.0479 161.477 -19.2842l35.9365 -4.13867l14.3525 -1.60156l7.2002 -0.775391l10.8232 -1.10645
c49.3555 -4.83203 99.3291 -6.51855 146.31 9.48633c58.4404 19.9082 111.672 73.4121 114.565 139.979l-3.47168 3.73242c-11.9463 -35.4824 -61.9404 -56.5273 -96.0654 -67.8662l-1.7207 -0.567383c-33.7471 -11.0713 -115.571 -15.4541 -205.768 10.2979
l-4.86719 1.42285c-15.2676 4.71582 -126.794 42.4922 -197.289 159.366c-35.2949 58.4795 -58.4385 124.427 -70.5889 181.661l-1.39258 6.67578c-15.3359 74.8721 -40.291 243.585 5.74805 458.798h-64.2246c-77.5078 -325.051 3.16992 -637.456 95.7441 -754.765
c-52.6543 -8.70996 -102.416 -40.4385 -116.303 -93.9424c-9.83691 -37.3281 0 -77.1436 10.9941 -113.85h-0.00195312zM291.199 294.965c-2.89355 57.2373 20.2529 115.094 59.5986 158.021c-58.8447 117.938 -81.5889 252.854 -74.915 383.799l0.271484 5.03418
c0.698242 13.7598 1.70801 27.4873 3.01172 41.1787h-53.4873c-11.252 -58.8516 -17.2822 -118.707 -17.8008 -178.672c-1.1582 -139.981 27.7754 -280.581 83.3203 -409.362zM398.244 477.25c50.918 44.1699 118.036 63.457 184.003 61.5879
c-66.8418 91.2285 -110.449 213.657 -132.432 344.156l-150.945 0.00585938c4.33594 -135.056 38.2383 -298.611 99.375 -405.75h-0.000976562zM1024 815.642v67.3584l-492.786 -0.00292969l0.262695 -2.08984c-5.14941 -11.2764 -9.48535 -23.0605 -12.8828 -35.3555
c-23.1416 -85.8516 17.3623 -195.348 96.6299 -212.771l7.52148 -4.97754c89.6865 4.97754 190.367 57.2363 314.188 235.167c-86.2158 -218.987 -188.631 -246.983 -273.684 -263.781l18.5137 -13.0664c138.798 -18.124 273.231 88.1406 340.228 225.353zM811.955 146.274
c8.67773 5.59961 13.3066 15.5537 16.7783 25.5078c23.1475 61.5898 30.0898 129.402 20.8271 194.727c-5.20703 32.9736 -15.6201 67.1904 -40.499 87.7217c5.38574 -28.4707 1.7207 -59.1865 -11.5361 -84.0195c-2.05078 7.15723 -6.0498 14.1133 -9.87012 19.9385
c-31.8262 42.3057 -77.5371 72.79 -126.721 85.2314l-2.5127 0.448242c-2.44043 0.40918 -4.71875 0.640625 -7.32227 0.175781c-4.0498 -1.24414 -7.52051 -4.35645 -10.4189 -8.08984c-11.6992 -14.377 -16.4248 -33.373 -18.8252 -52.5352l-0.267578 -2.21094
c-5.16602 -39.4404 -2.0293 -79.8701 1.99609 -119.964l1.47461 -14.417l0.900391 -0.388672c15.8516 -7.11914 59.1084 -39.8584 80.1084 -61.8252c4.89258 -5.11914 9.63477 -10.4658 14.3506 -15.8623l7.9541 -9.12109l4.44629 -5.03711
c11.9092 -13.3633 24.333 -26.0605 39.21 -35.3027c12.1494 -7.46582 27.7754 -12.4434 39.9258 -4.97754zM489.661 87.1719c-70.0088 55.3701 -108.197 138.114 -96.624 210.904c11.5713 72.79 71.7461 134.38 154.49 156.155
c-51.4971 25.5078 -111.672 6.83984 -147.55 -25.5078c-120.931 -108.251 1.73633 -297.38 86.7959 -340.929zM603.653 136.321c18.2119 0 32.9824 15.877 32.9824 35.4619s-14.7705 35.4629 -32.9824 35.4629c-18.2178 0 -32.9834 -15.8779 -32.9834 -35.4629
s14.7656 -35.4619 32.9834 -35.4619z" />
</svg>
