<?xml version="1.0" encoding="UTF-8"?>
<svg width="909px" height="963px" viewBox="0 0 909 963" version="1.1" xmlns="http://www.w3.org/2000/svg" xmlns:xlink="http://www.w3.org/1999/xlink">
  <g id="Artistree" transform="translate(0.9141, 0.4253)" fill="currentColor" fill-rule="nonzero">
    <path d="M21.5471438,0 C17.4973438,36.085404 45.8489438,69.680104 78.2522438,82.122504 C110.654544,94.565904 145.949544,90.211374 180.089244,86.477974 C234.094144,79.737744 287.694244,73.430074 341.566244,67.193774 L377.502744,63.055104 L391.855244,61.453544 L399.055444,60.678153 L409.878644,59.571703 C459.234144,54.739673 509.207744,53.053153 556.188644,69.058033 C614.629044,88.966233 667.860644,142.470133 670.753644,209.037033 L667.281964,212.769453 C655.335664,177.287053 605.341564,156.242153 571.216564,144.903253 L569.495864,144.33587 C535.748764,133.26457 453.924864,128.88177 363.727864,154.63377 L358.860674,156.05662 C343.593074,160.77244 232.066674,198.54882 161.571674,315.42262 C126.276774,373.90212 103.133174,439.84962 90.9827738,497.08362 L89.5901938,503.7594 C74.2542938,578.6315 49.2991938,747.3444 95.3382438,962.5574 L31.1136438,962.5574 C-46.3941562,637.5064 34.2835638,325.1014 126.857744,207.7924 C74.2034438,199.08244 24.4417438,167.3539 10.5547438,113.85 C0.717833847,76.5219 10.5547438,36.7064 21.5488438,0 L21.5468907,0 L21.5471438,0 Z M174.879144,374.524884 C171.985594,431.763304 195.132044,489.620004 234.477744,532.547004 C175.633044,650.485004 152.888844,785.401004 159.562744,916.346004 L159.834228,921.380184 C160.53247,935.139984 161.542238,948.867484 162.845948,962.558884 L109.358648,962.558884 C98.1066478,903.707284 92.0764478,843.851884 91.5578478,783.886884 C90.3996478,643.905884 119.333248,503.305884 174.878148,374.524884 L174.879144,374.524884 Z M281.924144,556.810763 C332.842144,600.980904 399.960144,620.268004 465.927144,618.398904 C399.085344,709.627404 355.478144,832.055904 333.495144,962.554904 L182.550144,962.560763 C186.886084,827.504763 220.788444,663.949763 281.925144,556.810763 L281.924167,556.810763 L281.924144,556.810763 Z M907.680144,895.203004 L907.680144,962.561404 L414.894144,962.561404 L415.156839,960.468634 C410.007429,949.192234 405.671489,937.408134 402.274039,925.113134 C379.132439,839.261534 419.636339,729.765134 498.903939,712.342134 L506.425419,707.364594 C596.111919,712.342134 696.792419,764.600894 820.613419,942.531594 C734.397619,723.544594 631.982419,695.548594 546.929419,678.750594 L565.443119,665.684194 C704.241119,647.560194 838.674119,753.824794 905.671119,891.037194 L907.680144,895.203004 Z M695.635144,225.835004 C704.312874,231.434614 708.941744,241.388704 712.413444,251.342804 C735.560944,312.932604 742.503244,380.744804 733.240544,446.069804 C728.033514,479.043404 717.620444,513.260204 692.741544,533.791504 C698.127284,505.320804 694.462244,474.605004 681.205444,449.772004 C679.154664,456.929234 675.155644,463.885304 671.335324,469.710504 C639.509124,512.016204 593.798224,542.500504 544.614324,554.941904 L542.101624,555.390146 C539.661194,555.799326 537.382874,556.030771 534.779354,555.565927 C530.729554,554.321787 527.258844,551.209477 524.360454,547.476087 C512.661254,533.099087 507.935654,514.103087 505.535254,494.940887 L505.267676,492.729947 C500.101656,453.289547 503.238376,412.859847 507.263766,372.765947 L508.738376,358.348947 L509.638767,357.960275 C525.490367,350.841135 568.747167,318.101875 589.747167,296.135075 C594.639747,291.015935 599.381937,285.669275 604.097767,280.272775 L612.051867,271.151685 L616.498157,266.114575 C628.407357,252.751275 640.831157,240.054075 655.708157,230.811875 C667.857557,223.346055 683.483557,218.368475 695.633957,225.834335 L695.635144,225.835004 Z M373.341144,166.732904 C303.332344,222.103004 265.144144,304.846904 276.717144,377.636904 C288.288444,450.426904 348.463244,512.016904 431.207144,533.791904 C379.710044,559.299704 319.535144,540.631744 283.657144,508.284104 C162.726144,400.033104 285.393474,210.904104 370.453044,167.355104 L373.341144,166.732904 Z M487.333144,215.882004 C505.545044,215.882004 520.315544,231.759004 520.315544,251.343904 C520.315544,270.928804 505.545044,286.806804 487.333144,286.806804 C469.115344,286.806804 454.349744,270.928904 454.349744,251.343904 C454.349744,231.758904 469.115344,215.882004 487.333144,215.882004 L487.333144,215.882004 Z"></path>
  </g>
</svg>