<?xml version="1.0" encoding="UTF-8"?>
<svg width="1084px" height="955px" viewBox="0 0 1084 955" version="1.1" xmlns="http://www.w3.org/2000/svg" xmlns:xlink="http://www.w3.org/1999/xlink">
  <g id="ArtStation" fill="currentColor" fill-rule="nonzero">
    <path d="M0,735.2318 L91.1377,893.9518 C109.5693,929.7926 146.4336,954.3678 188.417,954.3678 L795.649,954.3678 L670.721,735.2318 L0,735.2318 L0,735.2318 Z M1083.3973,736.2558 C1083.3973,714.7519 1077.25277,694.2714 1065.9891,676.8632 L709.6361,58.3672 C691.2045,23.5518 655.3646,2.84217094e-14 613.3802,2.84217094e-14 L424.9642,2.84217094e-14 L974.8532,952.319 L1061.8932,801.792 C1078.277,773.1191 1083.3973,761.8555 1083.3973,736.2559 L1083.3973,736.2558 Z M580.6093,579.5838 L334.8493,154.6238 L89.0883,579.5838 L580.6093,579.5838 Z"></path>
  </g>
</svg>