<?xml version="1.0" encoding="UTF-8"?>
<svg width="1025px" height="777px" viewBox="0 0 1025 777" version="1.1" xmlns="http://www.w3.org/2000/svg" xmlns:xlink="http://www.w3.org/1999/xlink">
  <g id="Ask" transform="translate(0.5547, 0.0684)" fill="currentColor" fill-rule="nonzero">
    <path d="M1022.38619,244.48001 C1021.10592,243.19974 1018.54635,243.19974 1014.7065,244.48001 C1007.02584,245.76028 962.226,249.60013 941.7465,252.1597 C934.06584,253.43997 930.226,256.00052 926.3861,262.3999 C922.54626,268.80029 822.7061,437.7599 822.7061,437.7599 C822.7061,437.7599 899.5059,28.1589 900.7862,17.9199 C903.34577,3.8398 900.7862,0 889.2657,0 C877.7462,0 825.2657,5.11914 817.586,6.39941 C807.3458,7.67968 803.5059,11.51953 800.9454,24.31931 C799.6661,33.27927 687.0254,638.71931 685.7464,650.23931 C683.18585,666.87991 683.18585,668.15921 698.5462,665.59971 C707.50616,664.31944 752.306,656.63975 770.2259,654.08021 C775.34602,652.79994 779.18586,652.79994 780.4661,643.84001 C781.74634,634.88008 816.3059,458.23901 816.3059,458.23901 C816.3059,458.23901 873.9055,620.80001 876.4661,627.19901 C879.02567,633.5994 880.30594,636.15897 889.2659,634.87967 C909.7464,631.03983 957.1057,623.35917 962.2259,623.35917 C969.90559,622.07987 971.18586,619.51933 969.90559,613.11897 C967.34602,605.43928 908.46609,437.75997 908.46609,437.75997 C908.46609,437.75997 1017.26609,261.11897 1021.10609,253.43997 C1024.94593,249.60013 1024.94593,245.76028 1022.38636,244.48001 L1022.38619,244.48001 Z M670.38519,291.84001 C656.30509,286.71989 628.14499,277.75991 593.58539,281.59981 C542.38519,288.0002 506.54539,309.76001 487.34539,345.59981 C468.14539,381.43961 471.98499,421.11931 478.38543,441.59981 C484.78587,462.08031 501.42543,485.11931 523.18523,504.31951 C573.10513,547.84001 571.82583,582.39961 564.14523,596.47971 C555.18527,614.39961 530.86493,628.47971 497.58563,620.80001 C464.30533,613.11935 452.78583,591.35961 452.78583,591.35961 C452.78583,591.35961 436.14523,648.96021 432.30533,660.47971 C428.46549,675.84011 429.74576,679.67991 443.82583,686.08031 C463.02503,693.76 498.86493,702.71991 557.74583,691.19945 C597.42553,683.51976 634.54563,651.51975 651.18533,618.23945 C669.10523,583.67985 680.62573,515.84045 624.30543,464.63945 C578.22533,423.67945 573.10523,415.99985 569.26543,407.03985 C560.30547,390.39925 567.98516,371.19905 575.66582,360.95975 C583.34551,351.99979 593.58572,346.87965 608.94512,348.15895 C625.58572,349.43922 653.74592,371.19895 653.74592,371.19895 C653.74592,371.19895 674.22542,312.31905 675.50572,308.47925 C679.34556,300.79956 678.06529,295.67945 670.3856,291.83965 L670.38519,291.84001 Z M201.90519,549.12001 L299.18549,320.00101 L300.46576,533.76101 L201.90519,549.12001 Z M352.94519,88.31971 C351.66589,70.39981 336.30559,72.96031 329.90519,87.04041 C308.14539,133.11951 6.06518958,756.47941 2.22518958,764.15941 C-2.89493042,775.67991 0.944919585,776.96021 12.4653896,775.67991 C20.1450796,774.39964 86.7055896,764.15941 107.18509,760.31951 C113.58548,759.04021 116.14505,757.75994 118.70559,752.63982 C119.98489,750.08025 167.34519,637.43982 167.34519,637.43982 L300.46519,616.96032 C300.46519,616.96032 301.74546,702.72012 301.74546,718.08032 C301.74546,724.47973 303.02476,728.31962 313.26496,727.04028 C326.06476,724.47973 378.54526,716.80008 384.94466,715.51978 C397.74546,712.96021 399.02476,710.39966 399.02476,697.59988 C397.74546,688.63992 356.78546,131.83988 352.94466,88.31988 L352.94519,88.31971 Z"></path>
  </g>
</svg>