<?xml version="1.0" standalone="no"?>
<!DOCTYPE svg PUBLIC "-//W3C//DTD SVG 1.1//EN" "http://www.w3.org/Graphics/SVG/1.1/DTD/svg11.dtd" >
<svg xmlns="http://www.w3.org/2000/svg" xmlns:xlink="http://www.w3.org/1999/xlink" version="1.1" viewBox="-11 0 1046 1024">
   <path fill="currentColor"
d="M1022.25 227.589c-1.28027 -1.28027 -3.83984 -1.28027 -7.67969 0c-7.68066 1.28027 -52.4805 5.12012 -72.96 7.67969c-7.68066 1.28027 -11.5205 3.84082 -15.3604 10.2402c-3.83984 6.40039 -103.68 175.36 -103.68 175.36s76.7998 -409.601 78.0801 -419.84
c2.55957 -14.0801 0 -17.9199 -11.5205 -17.9199c-11.5195 0 -64 5.11914 -71.6797 6.39941c-10.2402 1.28027 -14.0801 5.12012 -16.6406 17.9199c-1.2793 8.95996 -113.92 614.4 -115.199 625.92c-2.56055 16.6406 -2.56055 17.9199 12.7998 15.3604
c8.95996 -1.28027 53.7598 -8.95996 71.6797 -11.5195c5.12012 -1.28027 8.95996 -1.28027 10.2402 -10.2402s35.8398 -185.601 35.8398 -185.601s57.5996 162.561 60.1602 168.96c2.55957 6.40039 3.83984 8.95996 12.7998 7.68066
c20.4805 -3.83984 67.8398 -11.5205 72.96 -11.5205c7.67969 -1.2793 8.95996 -3.83984 7.67969 -10.2402c-2.55957 -7.67969 -61.4395 -175.359 -61.4395 -175.359s108.8 -176.641 112.64 -184.32c3.83984 -3.83984 3.83984 -7.67969 1.28027 -8.95996zM670.249 274.949
c-14.0801 -5.12012 -42.2402 -14.0801 -76.7998 -10.2402c-51.2002 6.40039 -87.04 28.1602 -106.24 64s-15.3604 75.5195 -8.95996 96s23.04 43.5195 44.7998 62.7197c49.9199 43.5205 48.6406 78.0801 40.96 92.1602c-8.95996 17.9199 -33.2803 32 -66.5596 24.3203
c-33.2803 -7.68066 -44.7998 -29.4404 -44.7998 -29.4404s-16.6406 57.6006 -20.4805 69.1201c-3.83984 15.3604 -2.55957 19.2002 11.5205 25.6006c19.1992 7.67969 55.0391 16.6396 113.92 5.11914c39.6797 -7.67969 76.7998 -39.6797 93.4395 -72.96
c17.9199 -34.5596 29.4404 -102.399 -26.8799 -153.6c-46.0801 -40.96 -51.2002 -48.6396 -55.04 -57.5996c-8.95996 -16.6406 -1.28027 -35.8408 6.40039 -46.0801c7.67969 -8.95996 17.9199 -14.0801 33.2793 -12.8008c16.6406 1.28027 44.8008 23.04 44.8008 23.04
s20.4795 -58.8799 21.7598 -62.7197c3.83984 -7.67969 2.55957 -12.7998 -5.12012 -16.6396zM201.769 532.229l97.2803 -229.119l1.28027 213.76zM352.809 71.4287c-1.2793 -17.9199 -16.6396 -15.3594 -23.04 -1.2793c-21.7598 46.0791 -323.84 669.439 -327.68 677.119
c-5.12012 11.5205 -1.28027 12.8008 10.2402 11.5205c7.67969 -1.28027 74.2402 -11.5205 94.7197 -15.3604c6.40039 -1.2793 8.95996 -2.55957 11.5205 -7.67969c1.2793 -2.55957 48.6396 -115.2 48.6396 -115.2l133.12 -20.4795s1.28027 85.7598 1.28027 101.12
c0 6.39941 1.2793 10.2393 11.5195 8.95996c12.7998 -2.56055 65.2803 -10.2402 71.6797 -11.5205c12.8008 -2.55957 14.0801 -5.12012 14.0801 -17.9199c-1.2793 -8.95996 -42.2393 -565.76 -46.0801 -609.28z" />
</svg>
