<?xml version="1.0" encoding="UTF-8"?>
<svg width="106px" height="106px" viewBox="0 0 106 106" version="1.1" xmlns="http://www.w3.org/2000/svg" xmlns:xlink="http://www.w3.org/1999/xlink">
    <title>Atabook</title>
    <g id="Atabook" stroke="none" stroke-width="1" fill="none" fill-rule="evenodd">
        <path d="M31.52,12 C34.82,13.08 37.265,14.115 38.855,15.105 C40.445,16.095 41.24,17.235 41.24,18.525 C41.24,19.815 40.685,21.075 39.575,22.305 C38.465,23.535 37.31,24.15 36.11,24.15 C34.91,24.15 34.13,23.13 33.77,21.09 C33.23,17.97 32.21,15.3 30.71,13.08 L31.52,12 Z M67.07,46.92 C66.95,60.6 65.39,70.68 62.39,77.16 C59.39,83.64 53.36,89.34 44.3,94.26 L43.4,93.09 C48.98,88.47 52.985,84.405 55.415,80.895 C57.845,77.385 59.42,73.11 60.14,68.07 C60.86,63.03 61.22,55.89 61.22,46.65 C61.22,37.41 61.13,27.99 60.95,18.39 L67.97,23.97 C74.27,22.05 80.6,19.26 86.96,15.6 L92.45,21.9 C92.93,22.44 93.17,22.905 93.17,23.295 C93.17,23.685 92.99,23.88 92.63,23.88 C92.27,23.88 91.76,23.745 91.1,23.475 C90.44,23.205 89.66,23.07 88.76,23.07 C87.86,23.07 86.99,23.13 86.15,23.25 L67.25,26.4 C67.25,29.64 67.19,35.67 67.07,44.49 L84.35,44.49 L89.39,38.46 L95.24,45.39 C95.66,45.87 95.87,46.245 95.87,46.515 C95.87,46.785 95.45,46.92 94.61,46.92 L82.91,46.92 L82.91,74.01 L83.09,90.66 C83.09,91.74 82.235,92.685 80.525,93.495 C78.815,94.305 77.66,94.71 77.06,94.71 C76.46,94.71 76.16,94.05 76.16,92.73 L76.52,84.72 C76.7,81.12 76.79,76.86 76.79,71.94 L76.79,46.92 L67.07,46.92 Z M55.73,25.86 C56.03,26.22 56.18,26.58 56.18,26.94 C56.18,27.3 55.79,27.48 55.01,27.48 L24.41,27.48 C21.95,27.48 19.97,27.75 18.47,28.29 L15.32,24.42 C17.48,24.78 19.85,24.96 22.43,24.96 L46.19,24.96 L50.6,19.83 L55.73,25.86 Z M39.35,47.82 L39.35,58.89 L46.37,58.89 L50.6,54.03 L55.46,59.79 C55.82,60.33 56,60.735 56,61.005 C56,61.275 55.58,61.41 54.74,61.41 L39.35,61.41 L39.35,81.75 C39.35,84.99 39.08,87.165 38.54,88.275 C38,89.385 36.86,90.555 35.12,91.785 C33.38,93.015 32.3,93.63 31.88,93.63 C31.46,93.63 31.1,93.12 30.8,92.1 C30.5,90.42 29.66,89.145 28.28,88.275 C26.9,87.405 24.92,86.58 22.34,85.8 L22.61,84.54 C26.15,84.9 28.61,85.08 29.99,85.08 C31.37,85.08 32.255,84.885 32.645,84.495 C33.035,84.105 33.23,83.37 33.23,82.29 L33.23,61.41 L24.59,61.41 C22.31,61.41 20.33,61.68 18.65,62.22 L15.5,58.44 C17.18,58.74 19.61,58.89 22.79,58.89 L33.23,58.89 L33.23,47.82 L22.07,47.82 C19.73,47.82 17.75,48.15 16.13,48.81 L12.98,44.94 C15.14,45.24 17.54,45.39 20.18,45.39 L38.63,45.39 C41.15,39.21 42.68,33.42 43.22,28.02 L49.97,31.35 C50.81,31.71 51.23,32.04 51.23,32.34 C51.23,32.64 50.795,33.03 49.925,33.51 C49.055,33.99 48.08,34.95 47,36.39 C45.92,37.83 44.03,40.83 41.33,45.39 L48.08,45.39 L52.49,40.08 L57.8,46.29 C58.22,46.83 58.43,47.22 58.43,47.46 C58.43,47.7 58.01,47.82 57.17,47.82 L39.35,47.82 Z M25.13,29.46 C30.77,32.58 33.59,35.28 33.59,37.56 C33.59,38.94 33.065,40.275 32.015,41.565 C30.965,42.855 29.99,43.5 29.09,43.5 C28.19,43.5 27.545,43.23 27.155,42.69 C26.765,42.15 26.6,41.385 26.66,40.395 C26.72,39.405 26.75,38.55 26.75,37.83 C26.75,35.25 25.94,32.79 24.32,30.45 L25.13,29.46 Z M31.07,67.62 C31.55,67.98 31.79,68.37 31.79,68.79 C31.79,69.21 31.37,69.51 30.53,69.69 C30.11,69.87 29.21,70.89 27.83,72.75 C24.35,77.43 19.1,82.62 12.08,88.32 L11,87.33 C14.54,83.25 17.375,79.59 19.505,76.35 C21.635,73.11 23.72,68.91 25.76,63.75 L31.07,67.62 Z M43.22,65.28 C47.54,67.08 50.465,68.655 51.995,70.005 C53.525,71.355 54.29,72.765 54.29,74.235 C54.29,75.705 53.96,76.92 53.3,77.88 C52.64,78.84 51.98,79.32 51.32,79.32 C49.88,79.32 48.74,78.105 47.9,75.675 C47.06,73.245 46.325,71.535 45.695,70.545 C45.065,69.555 43.85,68.22 42.05,66.54 L43.22,65.28 Z" id="Shape" fill="currentColor" fill-rule="nonzero"></path>
    </g>
</svg>