<?xml version="1.0" encoding="UTF-8"?>
<svg width="910px" height="1024px" viewBox="0 0 910 1024" version="1.1" xmlns="http://www.w3.org/2000/svg" xmlns:xlink="http://www.w3.org/1999/xlink">
  <g id="Augment" transform="translate(0.2788, 0.711)" fill="currentColor" fill-rule="nonzero">
    <path d="M867.3288,224.51155 L498.6878,11.51955 C472.0638,-3.83985 439.2962,-3.83985 411.6478,11.51955 L43.0078,224.51155 C16.3838,239.87195 2.84217094e-14,268.54375 2.84217094e-14,299.26355 L2.84217094e-14,724.22355 C2.84217094e-14,754.94425 16.3838,783.61615 43.0078,798.97555 L411.6478,1011.96755 C424.9603,1020.15993 440.3197,1023.23125 454.6556,1023.23125 C470.016,1023.23125 484.3519,1019.13555 497.6644,1011.96755 L866.3044,798.97555 C892.9284,783.61615 909.3122,754.94435 909.3122,724.22355 L909.3122,299.26355 C910.33661,268.54385 893.9528,239.87195 867.3288,224.51155 Z M455.6808,512.25565 L455.6808,837.88765 L174.0808,675.07265 L174.0808,349.43965 L455.6808,186.62465 L737.2808,349.43965 L455.6808,512.25565 Z"></path>
  </g>
</svg>