<?xml version="1.0" standalone="no"?>
<!DOCTYPE svg PUBLIC "-//W3C//DTD SVG 1.1//EN" "http://www.w3.org/Graphics/SVG/1.1/DTD/svg11.dtd" >
<svg xmlns="http://www.w3.org/2000/svg" xmlns:xlink="http://www.w3.org/1999/xlink" version="1.1" viewBox="-10 0 1034 1024">
   <path fill="currentColor"
d="M923.648 83.2559l-368.641 -212.992c-26.624 -15.3594 -59.3916 -15.3594 -87.04 0l-368.64 212.992c-26.624 15.3604 -43.0078 44.0322 -43.0078 74.752v424.96c0 30.7207 16.3838 59.3926 43.0078 74.752l368.64 212.992
c13.3125 8.19238 28.6719 11.2637 43.0078 11.2637c15.3604 0 29.6963 -4.0957 43.0088 -11.2637l368.64 -212.992c26.624 -15.3594 43.0078 -44.0312 43.0078 -74.752v-424.96c1.02441 -30.7197 -15.3594 -59.3916 -41.9834 -74.752zM512 371v325.632l-281.6 -162.815
v-325.633l281.6 -162.815l281.6 162.815z" />
</svg>
