<?xml version="1.0" standalone="no"?>
<!DOCTYPE svg PUBLIC "-//W3C//DTD SVG 1.1//EN" "http://www.w3.org/Graphics/SVG/1.1/DTD/svg11.dtd" >
<svg xmlns="http://www.w3.org/2000/svg" xmlns:xlink="http://www.w3.org/1999/xlink" version="1.1" viewBox="-10 0 1034 1024">
   <path fill="currentColor"
d="M656 185c82 12 134 -76 146 -142c10 -66 -44 -144 -102 -158c-58 -12 -130 80 -136 142c-8 74 10 148 92 158zM184 399c112 -24 96 -158 94 -186c-6 -46 -60 -124 -130 -118c-90 8 -104 138 -104 138c-12 60 30 190 140 166zM390 175c62 0 112 -70 112 -158
s-50 -158 -112 -158c-60 0 -110 70 -110 158s50 158 110 158zM302 631c-2 8 -10 32 -4 54c12 46 54 48 54 48h58v-142h-62c-28 8 -42 30 -46 40zM982 297c0 -32 -26 -128 -124 -128c-100 0 -112 92 -112 156c0 60 6 146 128 142c120 -2 108 -138 108 -170zM858 577
c0 0 -128 -98 -202 -204c-100 -158 -244 -94 -292 -14s-122 130 -132 144c-10 12 -154 90 -122 230c32 142 144 138 144 138s82 8 176 -12c96 -22 178 4 178 4s224 76 284 -68s-34 -218 -34 -218zM476 791h-144c-62 -14 -88 -56 -90 -64c-4 -6 -22 -40 -12 -98
c26 -88 104 -94 104 -94h76v-96l66 2v350zM746 789h-166c-66 -16 -68 -62 -68 -62v-184l68 -2v166c4 18 26 22 26 22h68v-186h72v246z" />
</svg>
