<?xml version="1.0" encoding="UTF-8"?>
<svg width="941px" height="1025px" viewBox="0 0 941 1025" version="1.1" xmlns="http://www.w3.org/2000/svg" xmlns:xlink="http://www.w3.org/1999/xlink">
  <g id="Baidu" transform="translate(0.5453, 0.6614)" fill="currentColor" fill-rule="nonzero">
    <path d="M613.981199,326 C695.981199,338 747.981199,250 759.981199,184 C769.981199,118 715.981199,40 657.981199,26 C599.981199,14 527.981199,106 521.981199,168 C513.981199,242 531.981199,316 613.981199,326 Z M141.981199,540 C253.981199,516 237.981199,382 235.981199,354 C229.981199,308 175.981199,230 105.981199,236 C15.981199,244 1.98119896,374 1.98119896,374 C-10.018801,434 31.981199,564 141.981199,540 Z M347.981199,316 C409.981199,316 459.981199,246 459.981199,158 C459.981199,70 409.981199,0 347.981199,0 C287.981199,0 237.981199,70 237.981199,158 C237.981199,246 287.981199,316 347.981199,316 Z M259.981199,772 C257.981199,780 249.981199,804 255.981199,826 C267.981199,872 309.981199,874 309.981199,874 L367.981199,874 L367.981199,732 L305.981199,732 C277.981199,740 263.981199,762 259.981199,772 Z M939.981199,438 C939.981199,406 913.981199,310 815.981199,310 C715.981199,310 703.981199,402 703.981199,466 C703.981199,526 709.981199,612 831.981199,608 C951.981199,606 939.981199,470 939.981199,438 Z M815.981199,718 C815.981199,718 687.981199,620 613.981199,514 C513.981199,356 369.981199,420 321.981199,500 C273.981199,580 199.981199,630 189.981199,644 C179.981199,656 35.981199,734 67.981199,874 C99.981199,1016 211.981199,1012 211.981199,1012 C211.981199,1012 293.981199,1020 387.981199,1000 C483.981199,978 565.981199,1004 565.981199,1004 C565.981199,1004 789.981199,1080 849.981199,936 C909.981199,792 815.981199,718 815.981199,718 Z M433.981199,932 L289.981199,932 C227.981199,918 201.981199,876 199.981199,868 C195.981199,862 177.981199,828 187.981199,770 C213.981199,682 291.981199,676 291.981199,676 L367.981199,676 L367.981199,580 L433.981199,582 L433.981199,932 Z M703.981199,930 L537.981199,930 C471.981199,914 469.981199,868 469.981199,868 L469.981199,684 L537.981199,682 L537.981199,848 C541.981199,866 563.981199,870 563.981199,870 L631.981199,870 L631.981199,684 L703.981199,684 L703.981199,930 Z"></path>
  </g>
</svg>