<?xml version="1.0" encoding="UTF-8"?>
<svg width="1025px" height="1025px" viewBox="0 0 1025 1025" version="1.1" xmlns="http://www.w3.org/2000/svg" xmlns:xlink="http://www.w3.org/1999/xlink">
  <g id="Bale" transform="translate(0.3261, 0)" fill="currentColor" fill-rule="nonzero">
    <path d="M1022.46426,464.4845 C1021.43985,442.9796 1017.34414,420.4523 1012.22406,398.9484 C999.935963,340.5802 976.384263,285.2844 944.640062,235.1074 C871.935962,122.4674 753.152062,39.5233998 622.080063,11.8763998 C602.623963,7.78069979 583.167963,4.70842979 563.711863,2.66057979 C538.111263,-0.411690212 511.487263,-0.411690212 485.887663,0.612729788 C464.383763,1.63616979 442.879863,3.68401979 422.399363,7.78069979 C402.943263,10.8519898 384.511663,15.9721098 366.080063,21.0921998 C348.671863,26.2123198 331.263663,32.3558998 314.879863,39.5237998 C298.496063,46.6916998 283.135763,53.8606998 267.775363,62.0520998 C252.415963,70.2444798 238.080063,79.4602998 223.744163,88.6760998 C220.671893,90.7239498 216.576193,93.7962198 212.479563,95.8440698 C177.664163,69.2200698 141.823363,43.6204698 105.983563,20.0686698 C95.7442625,13.9241398 85.5040625,6.75616979 74.2394625,2.66046979 C55.8078625,-3.48406021 33.2794625,1.63605979 18.9435625,13.9241698 C4.6076625,27.2366698 -0.5125375,45.6682698 0.5119625,64.0999698 L0.5119625,136.80407 L0.5119625,210.53257 L0.5119625,284.26007 L0.5119625,370.27667 L0.5119625,454.24447 C0.5119625,489.05987 -1.5358875,523.87627 2.5598125,558.69147 C5.6320825,594.53227 12.8000125,629.34767 23.0403125,664.16447 C72.1917125,822.88447 203.264313,953.95647 363.008313,1001.06047 L363.008313,1002.08488 C395.775913,1012.32508 430.592313,1019.49308 464.384313,1021.54098 C502.272013,1025.63668 541.184113,1024.61325 579.072313,1019.49313 C599.552813,1017.44528 619.008813,1013.3486 639.488313,1008.22853 C662.016612,1002.08498 684.544913,994.91703 707.072313,985.70123 C727.552813,976.48541 748.032313,967.26863 767.488313,956.00493 C784.896512,946.78911 801.280313,935.52443 816.640612,923.23733 C835.072212,909.92483 852.480412,894.56443 868.864213,878.18073 C882.176713,865.89263 893.440412,852.58113 904.705012,839.26863 C915.968712,825.95713 926.208912,812.64463 935.424712,798.30863 C944.640532,784.99713 952.832912,771.68463 960.000912,757.34863 C968.192322,741.98923 976.384712,726.62893 982.528212,710.24513 C989.696182,690.78903 997.888612,671.33303 1003.00871,651.87693 C1007.10441,635.49313 1012.22453,619.10833 1014.27241,602.72463 C1018.36909,585.31643 1020.41694,565.86133 1021.44038,548.45313 C1025.53706,519.78123 1025.53706,492.13283 1022.46479,464.48533 L1022.46426,464.4845 Z M699.906263,557.6685 L662.018563,595.5562 L619.010763,638.564 C605.698263,651.8765 591.362363,665.188 578.050763,679.524 C564.738263,692.8365 550.402362,707.1724 537.090762,720.4849 C524.802662,732.772 512.514563,746.0845 499.203062,756.3247 C481.794862,767.5884 460.290962,772.7085 439.810462,772.7085 C415.234262,770.66065 391.682562,761.4448 374.274362,745.0601 C321.026362,690.7886 266.754362,637.5401 213.506362,584.2921 C200.193862,570.9796 192.002462,554.5958 186.882362,537.1876 C181.762242,512.6124 184.834512,485.9884 197.122562,464.4845 C206.338382,447.0763 221.697762,433.7638 238.082562,424.548 C256.514162,416.35562 276.994662,412.2599 297.474162,414.3078 C318.978062,417.38007 340.481962,427.6203 355.842362,444.0041 L442.882362,531.0441 C452.098182,522.85172 460.290562,513.6359 468.481962,505.4445 C480.770062,493.1564 493.058162,481.8918 504.321762,469.6037 C515.586362,458.34 526.850062,447.0764 538.113763,435.8117 C546.306142,428.64373 553.474163,420.4523 560.642062,413.2844 C572.930162,400.9963 585.218262,388.7082 596.481862,376.4201 C607.746462,365.1564 619.010162,353.8918 630.273862,342.6281 C642.561962,331.3644 653.825662,319.0763 666.113662,306.7883 C678.401662,294.5003 692.737662,285.2844 709.122462,280.1643 C729.601962,274.01977 752.130262,275.04418 772.609762,281.18774 C799.233762,291.42794 819.714262,311.90844 832.002362,337.50804 C840.193772,361.05984 841.218182,386.66034 833.025802,410.21214 C826.882252,426.59594 815.617602,440.93184 803.330502,453.21994 L769.538502,487.01194 C757.250402,499.30004 744.962302,511.58814 733.697702,522.85174 C722.434003,535.13984 711.170403,546.40444 699.905702,557.66814 L699.906263,557.6685 Z"></path>
  </g>
</svg>