<?xml version="1.0" standalone="no"?>
<!DOCTYPE svg PUBLIC "-//W3C//DTD SVG 1.1//EN" "http://www.w3.org/Graphics/SVG/1.1/DTD/svg11.dtd" >
<svg xmlns="http://www.w3.org/2000/svg" xmlns:xlink="http://www.w3.org/1999/xlink" version="1.1" viewBox="-11 0 1046 1024">
   <path fill="currentColor"
d="M1021.95 323.896c-1.02441 -21.5049 -5.12012 -44.0322 -10.2402 -65.5361c-12.2881 -58.3682 -35.8398 -113.664 -67.584 -163.841c-72.7041 -112.64 -191.488 -195.584 -322.56 -223.231c-19.4561 -4.0957 -38.9121 -7.16797 -58.3682 -9.21582
c-25.6006 -3.07227 -52.2246 -3.07227 -77.8242 -2.04785c-21.5039 1.02344 -43.0078 3.07129 -63.4883 7.16797c-19.4561 3.07129 -37.8877 8.19141 -56.3193 13.3115c-17.4082 5.12012 -34.8164 11.2637 -51.2002 18.4316s-31.7441 14.3369 -47.1045 22.5283
c-15.3594 8.19238 -29.6953 17.4082 -44.0312 26.624c-3.07227 2.04785 -7.16797 5.12012 -11.2646 7.16797c-34.8154 -26.624 -70.6562 -52.2236 -106.496 -75.7754c-10.2393 -6.14453 -20.4795 -13.3125 -31.7441 -17.4082
c-18.4316 -6.14453 -40.96 -1.02441 -55.2959 11.2637c-14.3359 13.3125 -19.4561 31.7441 -18.4316 50.1758v72.7041v73.7285v73.7275v86.0166v83.9678c0 34.8154 -2.04785 69.6318 2.04785 104.447c3.07227 35.8408 10.2402 70.6562 20.4805 105.473
c49.1514 158.72 180.224 289.792 339.968 336.896v1.02441c32.7676 10.2402 67.584 17.4082 101.376 19.4561c37.8877 4.0957 76.7998 3.07227 114.688 -2.04785c20.4805 -2.04785 39.9365 -6.14453 60.416 -11.2646c22.5283 -6.14355 45.0566 -13.3115 67.584 -22.5273
c20.4805 -9.21582 40.96 -18.4326 60.416 -29.6963c17.4082 -9.21582 33.792 -20.4805 49.1523 -32.7676c18.4316 -13.3125 35.8398 -28.6729 52.2236 -45.0566c13.3125 -12.2881 24.5762 -25.5996 35.8408 -38.9121c11.2637 -13.3115 21.5039 -26.624 30.7197 -40.96
c9.21582 -13.3115 17.4082 -26.624 24.5762 -40.96c8.19141 -15.3594 16.3838 -30.7197 22.5273 -47.1035c7.16797 -19.4561 15.3604 -38.9121 20.4805 -58.3682c4.0957 -16.3838 9.21582 -32.7686 11.2637 -49.1523c4.09668 -17.4082 6.14453 -36.8633 7.16797 -54.2715
c4.09668 -28.6719 4.09668 -56.3203 1.02441 -83.9678zM699.392 417.08l-37.8877 37.8877l-43.0078 43.0078c-13.3125 13.3125 -27.6484 26.624 -40.96 40.96c-13.3125 13.3125 -27.6484 27.6484 -40.96 40.9609c-12.2881 12.2871 -24.5762 25.5996 -37.8877 35.8398
c-17.4082 11.2637 -38.9121 16.3838 -59.3926 16.3838c-24.5762 -2.04785 -48.1279 -11.2637 -65.5361 -27.6484c-53.248 -54.2715 -107.52 -107.52 -160.768 -160.768c-13.3125 -13.3125 -21.5039 -29.6963 -26.624 -47.1045
c-5.12012 -24.5752 -2.04785 -51.1992 10.2402 -72.7031c9.21582 -17.4082 24.5752 -30.7207 40.96 -39.9365c18.4316 -8.19238 38.9121 -12.2881 59.3916 -10.2402c21.5039 3.07227 43.0078 13.3125 58.3682 29.6963l87.04 87.04
c9.21582 -8.19238 17.4082 -17.4082 25.5996 -25.5996c12.2881 -12.2881 24.5762 -23.5527 35.8398 -35.8408c11.2646 -11.2637 22.5283 -22.5273 33.792 -33.792c8.19238 -7.16797 15.3604 -15.3594 22.5283 -22.5273c12.2881 -12.2881 24.5762 -24.5762 35.8398 -36.8643
c11.2646 -11.2637 22.5283 -22.5283 33.792 -33.792c12.2881 -11.2637 23.5518 -23.5518 35.8398 -35.8398s26.624 -21.5039 43.0088 -26.624c20.4795 -6.14453 43.0078 -5.12012 63.4873 1.02344c26.624 10.2402 47.1045 30.7207 59.3926 56.3203
c8.19141 23.5518 9.21582 49.1523 1.02344 72.7041c-6.14355 16.3838 -17.4082 30.7197 -29.6953 43.0078l-33.792 33.792c-12.2881 12.2881 -24.5762 24.5762 -35.8408 35.8398c-11.2637 12.2881 -22.5273 23.5527 -33.792 34.8164z" />
</svg>
