<?xml version="1.0" standalone="no"?>
<!DOCTYPE svg PUBLIC "-//W3C//DTD SVG 1.1//EN" "http://www.w3.org/Graphics/SVG/1.1/DTD/svg11.dtd" >
<svg xmlns="http://www.w3.org/2000/svg" xmlns:xlink="http://www.w3.org/1999/xlink" version="1.1" viewBox="-10 0 1044 1024">
   <path fill="currentColor"
d="M0 523h380l178 -310h-380zM756 327c-8 -12 -18 -20 -34 -26c-12 -6 -28 -8 -46 -8c-6 0 -14 0 -20 2s-12 4 -20 6c-6 4 -10 8 -16 12c-4 4 -8 8 -12 14v0v-114h-50v310h46v-32h2c4 8 8 14 14 20c6 4 12 8 18 10c8 4 16 6 24 6c8 2 14 2 24 2c16 0 30 -4 44 -10
c12 -6 22 -16 30 -26c8 -12 14 -24 18 -38s6 -28 6 -44s-2 -32 -6 -46c-6 -14 -14 -26 -22 -38zM730 439c-2 10 -8 18 -12 26c-6 8 -12 14 -20 18c-8 6 -18 8 -28 8s-20 -2 -26 -6c-10 -4 -16 -10 -22 -16c-4 -8 -10 -16 -12 -26c-2 -8 -4 -20 -4 -32c0 -22 6 -42 16 -56
s28 -22 48 -22c10 0 20 2 28 8c8 4 14 10 20 16c4 8 10 16 12 26c4 10 4 20 4 30c-2 8 -2 18 -4 26zM956 477c-10 8 -22 12 -38 12c-10 0 -20 -2 -28 -6c-6 -4 -14 -10 -18 -18c-4 -6 -8 -16 -10 -24c-2 -10 -2 -18 -2 -28c0 -18 2 -30 6 -42c4 -10 8 -18 14 -24
s14 -10 22 -12c6 -2 14 -4 20 -4c14 0 26 4 34 10c10 8 16 18 18 32h50c-2 -14 -6 -26 -10 -36c-6 -10 -14 -18 -22 -26c-10 -6 -20 -10 -32 -14s-26 -6 -38 -6c-18 0 -36 4 -50 10s-26 14 -34 24c-10 12 -16 24 -22 40c-4 14 -8 30 -8 46c0 18 4 32 8 48c6 14 12 26 22 36
c8 10 20 18 34 24s30 10 48 10c30 0 52 -8 70 -24s28 -38 34 -68h-50c-2 18 -8 30 -18 40z" />
</svg>
