<?xml version="1.0" encoding="UTF-8"?>
<svg width="1024px" height="317px" viewBox="0 0 1024 317" version="1.1" xmlns="http://www.w3.org/2000/svg" xmlns:xlink="http://www.w3.org/1999/xlink">
  <g id="BandCamp" transform="translate(0, 0.0926)" fill="currentColor" fill-rule="nonzero">
    <path d="M0,310 L380,310 L558,0 L178,0 L0,310 Z M756,114 C748,102 738,94 722,88 C710,82 694,80 676,80 C670,80 662,80 656,82 C650,84 644,86 636,88 C630,92 626,96 620,100 C616,104 612,108 608,114 L608,114 L608,0 L558,0 L558,310 L604,310 L604,278 L606,278 C610,286 614,292 620,298 C626,302 632,306 638,308 C646,312 654,314 662,314 C670,316 676,316 686,316 C702,316 716,312 730,306 C742,300 752,290 760,280 C768,268 774,256 778,242 C782,228 784,214 784,198 C784,182 782,166 778,152 C772,138 764,126 756,114 Z M730,226 C728,236 722,244 718,252 C712,260 706,266 698,270 C690,276 680,278 670,278 C660,278 650,276 644,272 C634,268 628,262 622,256 C618,248 612,240 610,230 C608,222 606,210 606,198 C606,176 612,156 622,142 C632,128 650,120 670,120 C680,120 690,122 698,128 C706,132 712,138 718,144 C722,152 728,160 730,170 C734,180 734,190 734,200 C732,208 732,218 730,226 Z M956,264 C946,272 934,276 918,276 C908,276 898,274 890,270 C884,266 876,260 872,252 C868,246 864,236 862,228 C860,218 860,210 860,200 C860,182 862,170 866,158 C870,148 874,140 880,134 C886,128 894,124 902,122 C908,120 916,118 922,118 C936,118 948,122 956,128 C966,136 972,146 974,160 L1024,160 C1022,146 1018,134 1014,124 C1008,114 1000,106 992,98 C982,92 972,88 960,84 C948,80 934,78 922,78 C904,78 886,82 872,88 C858,94 846,102 838,112 C828,124 822,136 816,152 C812,166 808,182 808,198 C808,216 812,230 816,246 C822,260 828,272 838,282 C846,292 858,300 872,306 C886,312 902,316 920,316 C950,316 972,308 990,292 C1008,276 1018,254 1024,224 L974,224 C972,242 966,254 956,264 Z"></path>
  </g>
</svg>