<?xml version="1.0" encoding="UTF-8"?>
<svg width="1011px" height="1025px" viewBox="0 0 1011 1025" version="1.1" xmlns="http://www.w3.org/2000/svg" xmlns:xlink="http://www.w3.org/1999/xlink">
  <g id="BattleNet" transform="translate(0.0239, 0.6137)" fill="currentColor" fill-rule="nonzero">
    <path d="M1006.54508,594 C1000.54508,580 992.545085,568 984.545085,556 C956.545085,524 924.545085,498 892.545085,476 C888.545085,474 886.545085,470 882.545085,472 C904.545085,470 922.545085,466 942.545085,456 C956.545085,448 962.545085,436 960.545085,418 C960.545085,404 954.545085,392 948.545085,378 C932.545085,354 910.545085,336 888.545085,320 C876.545085,312 864.545085,306 850.545085,298 C846.545085,296 844.545085,294 848.545085,290 C852.545085,284 854.545085,280 856.545085,274 C874.545085,240 894.545085,206 910.545085,170 C914.545085,160 920.545085,150 922.545085,138 L922.545085,124 C922.545085,122 922.545085,122 920.545085,120 C918.545085,120 916.545085,122 916.545085,122 C914.545085,126 912.545085,132 908.545085,136 C894.545085,158 880.545085,184 864.545085,206 C850.545085,230 836.545085,254 820.545085,278 C818.545085,282 816.545085,282 812.545085,280 C786.545085,270 762.545085,262 738.545085,254 C706.545085,244 672.545085,236 640.545085,232 C636.545085,232 632.545085,230 630.545085,226 C628.545085,220 624.545085,214 620.545085,208 C586.545085,148 546.545085,90 496.545085,42 C474.545085,22 448.545085,4 414.545085,0 L406.545085,0 C396.545085,2 388.545085,4 380.545085,10 C364.545085,20 354.545085,34 348.545085,52 C332.545085,84 324.545085,118 320.545085,154 C320.545085,166 318.545085,178 318.545085,190 C314.545085,190 314.545085,186 312.545085,184 C302.545085,172 290.545085,160 276.545085,152 C266.545085,144 254.545085,144 240.545085,150 C222.545085,158 210.545085,174 200.545085,192 C190.545085,218 184.545085,244 184.545085,272 L184.545085,308 C184.545085,312 182.545085,314 178.545085,314 L160.545085,314 C136.545085,316 110.545085,316 86.545085,318 C64.545085,318 42.545085,320 22.545085,324 C16.545085,324 10.545085,326 4.54508497,330 C2.54508497,330 -1.45491503,332 0.545084972,334 C0.545084972,336 4.54508497,336 6.54508497,336 C38.545085,338 68.545085,338 102.545085,338 C126.545085,340 148.545085,340 172.545085,340 C174.545085,340 176.545085,340 178.545085,342 C188.545085,342 188.545085,342 188.545085,352 C196.545085,410 210.545085,466 232.545085,520 C234.545085,524 232.545085,528 230.545085,530 C224.545085,542 218.545085,552 210.545085,564 C182.545085,612 160.545085,662 146.545085,716 C138.545085,746 132.545085,774 136.545085,804 C140.545085,834 158.545085,852 184.545085,860 C202.545085,864 222.545085,864 240.545085,860 C272.545085,854 304.545085,844 334.545085,830 C344.545085,826 350.545085,822 360.545085,818 C358.545085,824 356.545085,828 354.545085,834 C350.545085,844 346.545085,854 346.545085,866 C342.545085,888 348.545085,902 370.545085,912 C376.545085,914 384.545085,916 390.545085,918 C406.545085,920 424.545085,918 438.545085,916 C470.545085,908 496.545085,894 524.545085,878 C528.545085,874 530.545085,874 534.545085,880 C550.545085,906 566.545085,932 584.545085,958 C596.545085,978 610.545085,998 624.545085,1014 C630.545085,1020 636.545085,1024 644.545085,1024 C646.545085,1020 644.545085,1018 642.545085,1016 C636.545085,1008 632.545085,1000 628.545085,994 C622.545085,980 614.545085,970 608.545085,958 C592.545085,926 574.545085,896 558.545085,866 C554.545085,858 554.545085,858 562.545085,852 C582.545085,836 602.545085,820 622.545085,800 C644.545085,780 666.545085,758 686.545085,732 C690.545085,726 694.545085,726 700.545085,726 C726.545085,726 752.545085,726 780.545085,724 C808.545085,722 832.545085,720 858.545085,716 C896.545085,710 932.545085,702 966.545085,684 C988.545085,672 1008.54508,656 1010.54508,628 L1010.54508,628 C1008.54508,624 1008.54508,620 1010.54508,616 L1010.54508,614 C1008.54508,608 1008.54508,600 1006.54508,594 Z M396.545085,250 C400.545085,222 406.545085,194 418.545085,168 C424.545085,156 428.545085,146 438.545085,138 C450.545085,122 468.545085,120 484.545085,126 C494.545085,128 502.545085,134 510.545085,140 C540.545085,164 564.545085,198 584.545085,232 C516.545085,232 452.545085,246 394.545085,282 C392.545085,270 394.545085,260 396.545085,250 Z M236.545085,312 C238.545085,290 240.545085,268 248.545085,248 C252.545085,238 258.545085,228 266.545085,222 C282.545085,208 310.545085,212 318.545085,232 C320.545085,232 320.545085,234 320.545085,236 C320.545085,260 322.545085,284 326.545085,310 C326.545085,314 324.545085,312 322.545085,312 L282.545085,312 L282.545085,314 L242.545085,314 C238.545085,316 236.545085,316 236.545085,312 Z M292.545085,746 C280.545085,748 270.545085,748 260.545085,746 C234.545085,742 220.545085,726 218.545085,700 C218.545085,682 222.545085,666 226.545085,650 C234.545085,624 244.545085,598 260.545085,572 C294.545085,630 336.545085,678 394.545085,712 C394.545085,714 392.545085,714 392.545085,714 C360.545085,728 326.545085,740 292.545085,746 Z M502.545085,832 C480.545085,844 458.545085,852 434.545085,854 L426.545085,854 C394.545085,850 386.545085,826 396.545085,800 C396.545085,798 398.545085,796 400.545085,796 C410.545085,790 420.545085,782 430.545085,776 C440.545085,768 450.545085,762 460.545085,756 C464.545085,762 468.545085,768 472.545085,776 C482.545085,792 492.545085,810 504.545085,828 C504.545085,828 508.545085,830 502.545085,832 Z M616.545085,744 C590.545085,768 564.545085,792 536.545085,812 C532.545085,816 530.545085,816 528.545085,810 C518.545085,790 508.545085,768 496.545085,748 C496.545085,746 494.545085,744 494.545085,740 C536.545085,742 574.545085,732 610.545085,712 C574.545085,722 536.545085,726 498.545085,724 C498.545085,720 500.545085,720 502.545085,718 C582.545085,650 654.545085,574 718.545085,490 C722.545085,484 722.545085,482 716.545085,480 C708.545085,476 700.545085,470 692.545085,466 C690.545085,466 688.545085,464 686.545085,468 C662.545085,502 632.545085,530 602.545085,558 C544.545085,608 482.545085,652 418.545085,696 C414.545085,698 412.545085,698 408.545085,696 C364.545085,670 334.545085,634 310.545085,592 C280.545085,544 264.545085,490 252.545085,432 C244.545085,406 240.545085,378 238.545085,350 C236.545085,344 238.545085,342 244.545085,342 C268.545085,346 294.545085,346 316.545085,348 C322.545085,348 322.545085,350 320.545085,354 C300.545085,388 290.545085,422 290.545085,460 L290.545085,464 C300.545085,430 312.545085,396 334.545085,364 C338.545085,386 342.545085,406 346.545085,424 C366.545085,508 392.545085,588 424.545085,666 C426.545085,672 428.545085,672 432.545085,670 C440.545085,664 448.545085,660 456.545085,656 C458.545085,654 460.545085,652 458.545085,650 C440.545085,612 432.545085,574 424.545085,534 C408.545085,460 400.545085,386 396.545085,312 C396.545085,306 396.545085,304 402.545085,300 C438.545085,278 478.545085,268 520.545085,266 C584.545085,262 648.545085,274 708.545085,292 C738.545085,302 766.545085,312 792.545085,324 C794.545085,326 796.545085,326 794.545085,330 C780.545085,352 768.545085,372 752.545085,394 C734.545085,358 706.545085,330 672.545085,312 C684.545085,324 698.545085,338 708.545085,354 C718.545085,368 728.545085,384 736.545085,402 C728.545085,400 718.545085,396 710.545085,394 C686.545085,384 662.545085,378 638.545085,370 C570.545085,352 502.545085,338 434.545085,330 C420.545085,328 420.545085,328 420.545085,342 L420.545085,362 C420.545085,366 420.545085,366 424.545085,366 C472.545085,370 518.545085,386 564.545085,402 C628.545085,424 690.545085,452 750.545085,482 C752.545085,484 752.545085,486 752.545085,490 C752.545085,536 738.545085,578 716.545085,620 C690.545085,668 656.545085,708 616.545085,744 Z M858.545085,650 C846.545085,660 832.545085,666 818.545085,670 C786.545085,678 752.545085,682 718.545085,682 C752.545085,624 774.545085,562 774.545085,494 C776.545085,494 778.545085,496 780.545085,496 C810.545085,520 838.545085,542 862.545085,574 C868.545085,582 872.545085,590 876.545085,600 C880.545085,620 876.545085,636 858.545085,650 Z M864.545085,448 C856.545085,452 848.545085,452 840.545085,448 C822.545085,436 800.545085,428 780.545085,418 C778.545085,418 776.545085,416 778.545085,412 C790.545085,390 804.545085,366 816.545085,342 C818.545085,340 818.545085,338 822.545085,340 C840.545085,354 860.545085,366 874.545085,386 C880.545085,396 886.545085,406 886.545085,418 C886.545085,432 878.545085,444 864.545085,448 Z"></path>
  </g>
</svg>