<?xml version="1.0" standalone="no"?>
<!DOCTYPE svg PUBLIC "-//W3C//DTD SVG 1.1//EN" "http://www.w3.org/Graphics/SVG/1.1/DTD/svg11.dtd" >
<svg xmlns="http://www.w3.org/2000/svg" xmlns:xlink="http://www.w3.org/1999/xlink" version="1.1" viewBox="-10 0 1036 1024">
   <path fill="currentColor"
d="M1012 451c-6 -14 -14 -26 -22 -38c-28 -32 -60 -58 -92 -80c-4 -2 -6 -6 -10 -4c22 -2 40 -6 60 -16c14 -8 20 -20 18 -38c0 -14 -6 -26 -12 -40c-16 -24 -38 -42 -60 -58c-12 -8 -24 -14 -38 -22c-4 -2 -6 -4 -2 -8c4 -6 6 -10 8 -16c18 -34 38 -68 54 -104
c4 -10 10 -20 12 -32v-14c0 -2 0 -2 -2 -4c-2 0 -4 2 -4 2c-2 4 -4 10 -8 14c-14 22 -28 48 -44 70c-14 24 -28 48 -44 72c-2 4 -4 4 -8 2c-26 -10 -50 -18 -74 -26c-32 -10 -66 -18 -98 -22c-4 0 -8 -2 -10 -6c-2 -6 -6 -12 -10 -18c-34 -60 -74 -118 -124 -166
c-22 -20 -48 -38 -82 -42h-8c-10 2 -18 4 -26 10c-16 10 -26 24 -32 42c-16 32 -24 66 -28 102c0 12 -2 24 -2 36c-4 0 -4 -4 -6 -6c-10 -12 -22 -24 -36 -32c-10 -8 -22 -8 -36 -2c-18 8 -30 24 -40 42c-10 26 -16 52 -16 80v36c0 4 -2 6 -6 6h-18c-24 2 -50 2 -74 4
c-22 0 -44 2 -64 6c-6 0 -12 2 -18 6c-2 0 -6 2 -4 4c0 2 4 2 6 2c32 2 62 2 96 2c24 2 46 2 70 2c2 0 4 0 6 2c10 0 10 0 10 10c8 58 22 114 44 168c2 4 0 8 -2 10c-6 12 -12 22 -20 34c-28 48 -50 98 -64 152c-8 30 -14 58 -10 88s22 48 48 56c18 4 38 4 56 0
c32 -6 64 -16 94 -30c10 -4 16 -8 26 -12c-2 6 -4 10 -6 16c-4 10 -8 20 -8 32c-4 22 2 36 24 46c6 2 14 4 20 6c16 2 34 0 48 -2c32 -8 58 -22 86 -38c4 -4 6 -4 10 2c16 26 32 52 50 78c12 20 26 40 40 56c6 6 12 10 20 10c2 -4 0 -6 -2 -8c-6 -8 -10 -16 -14 -22
c-6 -14 -14 -24 -20 -36c-16 -32 -34 -62 -50 -92c-4 -8 -4 -8 4 -14c20 -16 40 -32 60 -52c22 -20 44 -42 64 -68c4 -6 8 -6 14 -6c26 0 52 0 80 -2s52 -4 78 -8c38 -6 74 -14 108 -32c22 -12 42 -28 44 -56v0c-2 -4 -2 -8 0 -12v-2c-2 -6 -2 -14 -4 -20zM402 107
c4 -28 10 -56 22 -82c6 -12 10 -22 20 -30c12 -16 30 -18 46 -12c10 2 18 8 26 14c30 24 54 58 74 92c-68 0 -132 14 -190 50c-2 -12 0 -22 2 -32zM242 169c2 -22 4 -44 12 -64c4 -10 10 -20 18 -26c16 -14 44 -10 52 10c2 0 2 2 2 4c0 24 2 48 6 74c0 4 -2 2 -4 2h-40v2
h-40c-4 2 -6 2 -6 -2zM298 603c-12 2 -22 2 -32 0c-26 -4 -40 -20 -42 -46c0 -18 4 -34 8 -50c8 -26 18 -52 34 -78c34 58 76 106 134 140c0 2 -2 2 -2 2c-32 14 -66 26 -100 32zM508 689c-22 12 -44 20 -68 22h-8c-32 -4 -40 -28 -30 -54c0 -2 2 -4 4 -4
c10 -6 20 -14 30 -20c10 -8 20 -14 30 -20c4 6 8 12 12 20c10 16 20 34 32 52c0 0 4 2 -2 4zM622 601c-26 24 -52 48 -80 68c-4 4 -6 4 -8 -2c-10 -20 -20 -42 -32 -62c0 -2 -2 -4 -2 -8c42 2 80 -8 116 -28c-36 10 -74 14 -112 12c0 -4 2 -4 4 -6c80 -68 152 -144 216 -228
c4 -6 4 -8 -2 -10c-8 -4 -16 -10 -24 -14c-2 0 -4 -2 -6 2c-24 34 -54 62 -84 90c-58 50 -120 94 -184 138c-4 2 -6 2 -10 0c-44 -26 -74 -62 -98 -104c-30 -48 -46 -102 -58 -160c-8 -26 -12 -54 -14 -82c-2 -6 0 -8 6 -8c24 4 50 4 72 6c6 0 6 2 4 6
c-20 34 -30 68 -30 106v4c10 -34 22 -68 44 -100c4 22 8 42 12 60c20 84 46 164 78 242c2 6 4 6 8 4c8 -6 16 -10 24 -14c2 -2 4 -4 2 -6c-18 -38 -26 -76 -34 -116c-16 -74 -24 -148 -28 -222c0 -6 0 -8 6 -12c36 -22 76 -32 118 -34c64 -4 128 8 188 26c30 10 58 20 84 32
c2 2 4 2 2 6c-14 22 -26 42 -42 64c-18 -36 -46 -64 -80 -82c12 12 26 26 36 42c10 14 20 30 28 48c-8 -2 -18 -6 -26 -8c-24 -10 -48 -16 -72 -24c-68 -18 -136 -32 -204 -40c-14 -2 -14 -2 -14 12v20c0 4 0 4 4 4c48 4 94 20 140 36c64 22 126 50 186 80c2 2 2 4 2 8
c0 46 -14 88 -36 130c-26 48 -60 88 -100 124zM864 507c-12 10 -26 16 -40 20c-32 8 -66 12 -100 12c34 -58 56 -120 56 -188c2 0 4 2 6 2c30 24 58 46 82 78c6 8 10 16 14 26c4 20 0 36 -18 50zM870 305c-8 4 -16 4 -24 0c-18 -12 -40 -20 -60 -30c-2 0 -4 -2 -2 -6
c12 -22 26 -46 38 -70c2 -2 2 -4 6 -2c18 14 38 26 52 46c6 10 12 20 12 32c0 14 -8 26 -22 30z" />
</svg>
