<?xml version="1.0" encoding="UTF-8"?>
<svg width="788px" height="755px" viewBox="0 0 788 755" version="1.1" xmlns="http://www.w3.org/2000/svg" xmlns:xlink="http://www.w3.org/1999/xlink">
  <g id="Beacons" transform="translate(0.0479, 0.4253)" fill="currentColor" fill-rule="nonzero">
    <path d="M265.8691,522.301 C329.9228,522.301 381.8491,574.2639 381.8491,638.366 C381.8491,702.4656 329.9223,754.433 265.8691,754.433 C201.8134,754.433 149.8861,702.4652 149.8861,638.366 C149.8861,574.2635 201.8138,522.301 265.8691,522.301 Z M595.0771,301.773 C701.5091,301.773 787.7861,388.1138 787.7861,494.62 C787.7861,601.129 701.5088,687.472 595.0771,687.472 C488.6481,687.472 402.3681,601.1282 402.3681,494.62 C402.3681,388.114 488.6484,301.773 595.0771,301.773 Z M92.7861,340.163 C144.0302,340.163 185.5722,381.7372 185.5722,433.0165 C185.5722,484.3007 144.0302,525.871 92.7861,525.871 C41.542,525.871 5.68434189e-14,484.3017 5.68434189e-14,433.0165 C5.68434189e-14,381.7382 41.542,340.163 92.7861,340.163 L92.7861,340.163 Z M286.3871,0 C388.3831,0 471.0661,82.7441 471.0661,184.814 C471.0661,286.881 388.3825,369.628 286.3871,369.628 C184.3917,369.628 101.7071,286.8809 101.7071,184.814 C101.7071,82.744 184.3907,0 286.3871,0 Z M618.2731,66.0693 C669.5163,66.0693 711.0592,107.6406 711.0592,158.9218 C711.0592,210.203 669.5153,251.7763 618.2731,251.7763 C567.029,251.7763 525.4879,210.2031 525.4879,158.9218 C525.4879,107.6405 567.0289,66.0693 618.2731,66.0693 Z"></path>
  </g>
</svg>