<?xml version="1.0" standalone="no"?>
<!DOCTYPE svg PUBLIC "-//W3C//DTD SVG 1.1//EN" "http://www.w3.org/Graphics/SVG/1.1/DTD/svg11.dtd" >
<svg xmlns="http://www.w3.org/2000/svg" xmlns:xlink="http://www.w3.org/1999/xlink" version="1.1" viewBox="-10 0 1034 1024">
   <path fill="currentColor"
d="M393.869 509.301c64.0537 0 115.98 51.9629 115.98 116.065c0 64.0996 -51.9268 116.067 -115.98 116.067c-64.0557 0 -115.983 -51.9678 -115.983 -116.067c0 -64.1025 51.9277 -116.065 115.983 -116.065zM723.077 288.773c106.432 0 192.709 86.3408 192.709 192.847
c0 106.509 -86.2773 192.852 -192.709 192.852c-106.429 0 -192.709 -86.3438 -192.709 -192.852c0 -106.506 86.2803 -192.847 192.709 -192.847zM220.786 327.163c51.2441 0 92.7861 41.5742 92.7861 92.8535c0 51.2842 -41.542 92.8545 -92.7861 92.8545
s-92.7861 -41.5693 -92.7861 -92.8545c0 -51.2783 41.542 -92.8535 92.7861 -92.8535zM414.387 -13c101.996 0 184.679 82.7441 184.679 184.814c0 102.067 -82.6836 184.814 -184.679 184.814s-184.68 -82.7471 -184.68 -184.814
c0 -102.07 82.6836 -184.814 184.68 -184.814zM746.273 53.0693c51.2432 0 92.7861 41.5713 92.7861 92.8525s-41.5439 92.8545 -92.7861 92.8545c-51.2441 0 -92.7852 -41.5732 -92.7852 -92.8545s41.541 -92.8525 92.7852 -92.8525z" />
</svg>
