<?xml version="1.0" encoding="UTF-8"?>
<svg width="1025px" height="637px" viewBox="0 0 1025 637" version="1.1" xmlns="http://www.w3.org/2000/svg" xmlns:xlink="http://www.w3.org/1999/xlink">
  <g id="BeatPort" transform="translate(0.4954, 0.6046)" fill="currentColor" fill-rule="nonzero">
    <path d="M883.620312,371.63 C883.620312,166.707 716.922531,0 512.009531,0 C307.108531,0 140.410531,166.707 140.410531,371.63 C140.410531,466.4425 176.168331,556.729 241.131531,625.92 L241.141297,625.900469 C249.865907,635.126059 264.406897,635.586989 273.673497,626.873125 L313.733097,589.169025 C322.958687,580.496175 323.409857,565.996125 314.797547,556.729525 L314.828797,556.677767 C267.570997,506.337967 241.530897,440.586767 241.530897,371.630767 C241.530897,222.495767 362.854897,101.140767 511.999897,101.140767 C661.124897,101.140767 782.478897,222.485767 782.478897,371.630767 C782.478897,440.586867 756.459397,506.337767 709.171297,556.677767 L709.253328,556.77054 C700.651768,566.04691 701.133208,580.51664 710.349028,589.16894 L750.418328,626.87304 C759.675168,635.59667 774.246428,635.13671 782.961328,625.879876 L782.920312,625.860345 C847.872412,556.678745 883.620312,466.403345 883.620312,371.631345 L883.620312,371.629392 L883.620312,371.63 Z M1023.99966,369.848 C1023.99966,319.2113 1016.42141,269.282 1001.42043,221.348 L1001.44094,221.348 C1001.42043,221.306984 1001.37942,221.265969 1001.37942,221.224953 C1001.35988,221.184914 1001.35988,221.153664 1001.3384,221.071633 C997.43801,209.131233 984.6577,202.455433 972.5943,206.192733 L920.0738,222.525733 C907.9283,226.283543 901.15,239.155633 904.9088,251.289433 L904.847277,251.330449 C916.766177,289.525749 922.880477,329.410549 922.880477,369.858449 C922.880477,441.301849 903.537677,511.354449 866.959577,572.497449 L867.010358,572.557996 C860.579698,583.432996 864.122658,597.503296 874.997658,604.014996 L922.173458,632.307996 C933.068958,638.851946 947.179358,635.307996 953.753558,624.413466 C999.710558,547.582366 1023.99966,459.580466 1023.99966,369.847465 L1023.99966,369.848442 L1023.99966,369.848 Z M157.060531,572.498 C120.484331,511.3652 101.151331,441.303 101.151331,369.859 C101.151331,329.401 107.234341,289.5465 119.172831,251.351 L119.182597,251.351 L119.182597,251.309984 C122.930647,239.164484 116.152327,226.303184 104.038097,222.524784 L51.4862969,206.150784 C39.4335969,202.412504 26.6337969,209.099024 22.7626969,221.100984 L22.6709,221.049227 C7.6387,269.085327 5.68434189e-14,319.128327 5.68434189e-14,369.858227 C5.68434189e-14,459.571127 24.3203,547.583227 70.2568,624.404227 L70.3388312,624.372977 C76.9032812,635.165977 90.9521312,638.667877 101.836831,632.155207 L149.001831,603.862207 C159.845631,597.360257 163.378831,583.391507 157.039921,572.506707 L157.059452,572.496941 L157.060531,572.498 Z"></path>
  </g>
</svg>