<?xml version="1.0" standalone="no"?>
<!DOCTYPE svg PUBLIC "-//W3C//DTD SVG 1.1//EN" "http://www.w3.org/Graphics/SVG/1.1/DTD/svg11.dtd" >
<svg xmlns="http://www.w3.org/2000/svg" xmlns:xlink="http://www.w3.org/1999/xlink" version="1.1" viewBox="-10 0 1044 1024">
   <path fill="currentColor"
d="M883.62 424.842c0 -204.923 -166.697 -371.63 -371.61 -371.63c-204.901 0 -371.599 166.707 -371.599 371.63c0 94.8125 35.7578 185.099 100.721 254.29l0.00976562 -0.0195312c8.72461 9.22559 23.2656 9.68652 32.5322 0.972656l40.0596 -37.7041
c9.22559 -8.67285 9.67676 -23.1729 1.06445 -32.4395l0.03125 -0.0517578c-47.2578 -50.3398 -73.2979 -116.091 -73.2979 -185.047c0 -149.135 121.324 -270.49 270.469 -270.49c149.125 0 270.479 121.345 270.479 270.49c0 68.9561 -26.0195 134.707 -73.3076 185.047
l0.0820312 0.0927734c-8.60156 9.27637 -8.12012 23.7461 1.0957 32.3984l40.0693 37.7041c9.25684 8.72363 23.8281 8.26367 32.543 -0.993164l-0.0410156 -0.0195312c64.9521 -69.1816 100.7 -159.457 100.7 -254.229v-0.00195312zM1024 423.06
c0 -50.6367 -7.57812 -100.566 -22.5791 -148.5h0.0205078c-0.0205078 -0.0410156 -0.0615234 -0.0820312 -0.0615234 -0.123047c-0.0195312 -0.0400391 -0.0195312 -0.0712891 -0.0410156 -0.15332c-3.90039 -11.9404 -16.6807 -18.6162 -28.7441 -14.8789l-52.5205 16.333
c-12.1455 3.75781 -18.9238 16.6299 -15.165 28.7637l-0.0615234 0.0410156c11.9189 38.1953 18.0332 78.0801 18.0332 118.528c0 71.4434 -19.3428 141.496 -55.9209 202.639l0.0507812 0.0605469c-6.43066 10.875 -2.8877 24.9453 7.9873 31.457l47.1758 28.293
c10.8955 6.54395 25.0059 3 31.5801 -7.89453c45.957 -76.8311 70.2461 -164.833 70.2461 -254.566v0.000976562zM157.061 625.71c-36.5762 -61.1328 -55.9092 -131.195 -55.9092 -202.639c0 -40.458 6.08301 -80.3125 18.0215 -118.508h0.00976562v-0.0410156
c3.74805 -12.1455 -3.03027 -25.0068 -15.1445 -28.7852l-52.5518 -16.374c-12.0527 -3.73828 -24.8525 2.94824 -28.7236 14.9502l-0.0917969 -0.0517578c-15.0322 48.0361 -22.6709 98.0791 -22.6709 148.809c0 89.7129 24.3203 177.725 70.2568 254.546
l0.0820312 -0.03125c6.56445 10.793 20.6133 14.2949 31.498 7.78223l47.165 -28.293c10.8438 -6.50195 14.377 -20.4707 8.03809 -31.3555l0.0195312 -0.00976562z" />
</svg>
