<?xml version="1.0" encoding="UTF-8"?>
<svg width="800px" height="1024px" viewBox="0 0 800 1024" version="1.1" xmlns="http://www.w3.org/2000/svg" xmlns:xlink="http://www.w3.org/1999/xlink">
  <g id="BeBee" transform="translate(0.3692, 0.8284)" fill="currentColor" fill-rule="nonzero">
    <path d="M207.566658,531.978563 C249.566658,513.978563 267.566658,439.978563 429.566658,403.978563 C429.566658,377.978563 345.566658,99.9785633 171.566658,13.9785633 C-8.43334155,-68.0214367 -36.4333416,231.978563 39.5666584,361.978563 C45.5666584,385.978563 165.566658,547.978563 207.566658,531.978563 Z M361.566658,181.978563 C401.566658,253.978563 417.566658,321.978563 423.566658,325.978563 C429.566658,329.978563 463.566658,359.978563 465.566658,355.978563 C475.566658,321.978563 479.566658,301.978563 481.566658,293.978563 C409.566658,-76.0214367 251.566658,39.9785633 251.566658,39.9785633 C251.566658,39.9785633 319.566658,107.978563 361.566658,181.978563 Z M689.566658,283.978563 C683.566658,279.978563 677.566658,277.978563 669.566658,273.978563 L671.566658,271.978563 L753.566658,293.978563 C753.566658,293.978563 767.566658,295.978563 769.566658,279.978563 C773.566658,265.978563 763.566658,257.978563 763.566658,257.978563 C763.566658,257.978563 687.566658,237.978563 679.566658,235.978563 C663.566658,231.978563 635.566658,241.978563 617.566658,249.978563 C615.566658,247.978563 613.566658,247.978563 611.566658,247.978563 C607.566658,239.978563 591.566658,201.978563 599.566658,197.978563 C605.566658,193.978563 703.566658,189.978563 703.566658,189.978563 C703.566658,189.978563 717.566658,181.978563 715.566658,165.978563 C715.566658,151.978563 695.566658,149.978563 695.566658,149.978563 C695.566658,149.978563 579.566658,157.978563 573.566658,157.978563 C547.566658,161.978563 559.566658,193.978563 559.566658,193.978563 L571.566658,243.978563 C549.566658,243.978563 529.566658,255.978563 515.566658,279.978563 C479.566658,337.978563 493.566658,453.978563 563.566658,495.978563 C633.566658,537.978563 755.566658,549.978563 789.566658,491.978563 C823.566658,433.978563 759.566658,327.978563 689.566658,283.978563 Z M729.566658,435.978563 C707.566658,453.978563 661.566658,437.978563 631.566658,399.978563 C599.566658,361.978563 591.566658,315.978563 615.566658,295.978563 C637.566658,277.978563 683.566658,293.978563 713.566658,331.978563 C745.566658,369.978563 753.566658,415.978563 729.566658,435.978563 Z M129.566658,791.978563 C129.566658,791.978563 95.5666584,883.978563 151.566658,1017.97856 C337.566658,1041.97856 403.566658,965.978563 403.566658,965.978563 C403.566658,965.978563 293.566658,923.978563 243.566658,889.978563 C195.566658,859.978563 129.566658,791.978563 129.566658,791.978563 Z M227.566658,555.978563 C227.566658,555.978563 139.566658,609.978563 137.566658,717.978563 C137.566658,727.978563 227.566658,853.978563 461.566658,929.978563 C521.566658,903.978563 533.566658,763.978563 533.566658,763.978563 C533.566658,763.978563 415.566658,705.978563 361.566658,675.978563 C307.566658,647.978563 227.566658,555.978563 227.566658,555.978563 Z M457.566658,439.978563 C331.566658,457.978563 287.566658,527.978563 287.566658,527.978563 C287.566658,527.978563 375.566658,645.978563 521.566658,693.978563 C523.566658,691.978563 519.566658,561.978563 525.566658,547.978563 C533.566658,535.978563 553.566658,527.978563 553.566658,527.978563 C553.566658,527.978563 521.566658,503.978563 501.566658,481.978563 C477.566658,459.978563 489.566658,437.978563 457.566658,439.978563 Z"></path>
  </g>
</svg>