<?xml version="1.0" standalone="no"?>
<!DOCTYPE svg PUBLIC "-//W3C//DTD SVG 1.1//EN" "http://www.w3.org/Graphics/SVG/1.1/DTD/svg11.dtd" >
<svg xmlns="http://www.w3.org/2000/svg" xmlns:xlink="http://www.w3.org/1999/xlink" version="1.1" viewBox="-10 0 1034 1024">
   <path fill="currentColor"
d="M320 391c42 -18 60 -92 222 -128c0 -26 -84 -304 -258 -390c-180 -82 -208 218 -132 348c6 24 126 186 168 170zM474 41c40 72 56 140 62 144s40 34 42 30c10 -34 14 -54 16 -62c-72 -370 -230 -254 -230 -254s68 68 110 142zM802 143c-6 -4 -12 -6 -20 -10l2 -2l82 22
s14 2 16 -14c4 -14 -6 -22 -6 -22s-76 -20 -84 -22c-16 -4 -44 6 -62 14c-2 -2 -4 -2 -6 -2c-4 -8 -20 -46 -12 -50c6 -4 104 -8 104 -8s14 -8 12 -24c0 -14 -20 -16 -20 -16s-116 8 -122 8c-26 4 -14 36 -14 36l12 50c-22 0 -42 12 -56 36c-36 58 -22 174 48 216
s192 54 226 -4s-30 -164 -100 -208zM842 295c-22 18 -68 2 -98 -36c-32 -38 -40 -84 -16 -104c22 -18 68 -2 98 36c32 38 40 84 16 104zM242 651c0 0 -34 92 22 226c186 24 252 -52 252 -52s-110 -42 -160 -76c-48 -30 -114 -98 -114 -98zM340 415c0 0 -88 54 -90 162
c0 10 90 136 324 212c60 -26 72 -166 72 -166s-118 -58 -172 -88c-54 -28 -134 -120 -134 -120zM570 299c-126 18 -170 88 -170 88s88 118 234 166c2 -2 -2 -132 4 -146c8 -12 28 -20 28 -20s-32 -24 -52 -46c-24 -22 -12 -44 -44 -42z" />
</svg>
