<?xml version="1.0" standalone="no"?>
<!DOCTYPE svg PUBLIC "-//W3C//DTD SVG 1.1//EN" "http://www.w3.org/Graphics/SVG/1.1/DTD/svg11.dtd" >
<svg xmlns="http://www.w3.org/2000/svg" xmlns:xlink="http://www.w3.org/1999/xlink" version="1.1" viewBox="-10 0 1045 1024">
   <path fill="currentColor"
d="M922 155h-256v-60h256v60zM498 397c20 28 30 60 30 100c0 32 -6 60 -18 82c-14 24 -30 42 -50 58c-22 14 -46 24 -72 32c-26 6 -54 10 -82 10h-306v-636h296c30 0 58 6 84 12c24 6 44 16 62 28s32 30 42 50c10 18 14 44 14 74s-6 58 -22 78c-14 22 -36 40 -64 52
c40 12 68 32 86 60zM134 299h144c26 0 46 -2 62 -14s24 -28 24 -56c0 -14 -2 -26 -8 -36c-6 -8 -12 -16 -22 -22c-8 -4 -18 -10 -30 -12s-24 -4 -36 -4h-134v144zM390 489c0 -32 -10 -54 -28 -68s-42 -20 -72 -20h-156v174h152c14 0 28 -2 40 -4c12 -4 22 -8 32 -14
s18 -14 22 -26c6 -10 10 -24 10 -42zM1024 483h-330c0 32 12 70 32 88c18 18 46 28 80 28c26 0 48 -8 66 -22c18 -12 28 -22 34 -42h110c-18 62 -46 96 -82 120s-80 38 -132 38c-36 0 -68 -6 -98 -18c-28 -12 -52 -28 -72 -48c-20 -22 -36 -48 -48 -78
c-10 -28 -16 -60 -16 -96c0 -34 6 -66 18 -96c10 -30 26 -54 46 -76c22 -22 46 -38 74 -52c30 -12 62 -18 96 -18c38 0 72 8 102 22c28 16 52 36 70 60c20 26 32 56 40 88s12 72 10 102zM898 401c-4 -30 -14 -54 -28 -70c-16 -18 -42 -26 -72 -26c-20 0 -36 4 -50 12
c-12 6 -24 14 -32 24s-12 20 -16 32c-4 10 -6 18 -6 28h204z" />
</svg>
