<?xml version="1.0" encoding="UTF-8"?>
<svg width="1026px" height="651px" viewBox="0 0 1026 651" version="1.1" xmlns="http://www.w3.org/2000/svg" xmlns:xlink="http://www.w3.org/1999/xlink">
  <g id="Behance" transform="translate(0.9845, 0.6046)" fill="currentColor" fill-rule="nonzero">
    <path d="M922,112 L666,112 L666,52 L922,52 L922,112 Z M498,354 C518,382 528,414 528,454 C528,486 522,514 510,536 C496,560 480,578 460,594 C438,608 414,618 388,626 C362,632 334,636 306,636 L0,636 L0,0 L296,0 C326,0 354,6 380,12 C404,18 424,28 442,40 C460,52 474,70 484,90 C494,108 498,134 498,164 C498,194 492,222 476,242 C462,264 440,282 412,294 C452,306 480,326 498,354 Z M134,256 L278,256 C304,256 324,254 340,242 C356,230 364,214 364,186 C364,172 362,160 356,150 C350,142 344,134 334,128 C326,124 316,118 304,116 C292,114 280,112 268,112 L134,112 L134,256 Z M390,446 C390,414 380,392 362,378 C344,364 320,358 290,358 L134,358 L134,532 L286,532 C300,532 314,530 326,528 C338,524 348,520 358,514 C368,508 376,500 380,488 C386,478 390,464 390,446 Z M1024,440 L694,440 C694,472 706,510 726,528 C744,546 772,556 806,556 C832,556 854,548 872,534 C890,522 900,512 906,492 L1016,492 C998,554 970,588 934,612 C898,636 854,650 802,650 C766,650 734,644 704,632 C676,620 652,604 632,584 C612,562 596,536 584,506 C574,478 568,446 568,410 C568,376 574,344 586,314 C596,284 612,260 632,238 C654,216 678,200 706,186 C736,174 768,168 802,168 C840,168 874,176 904,190 C932,206 956,226 974,250 C994,276 1006,306 1014,338 C1022,370 1026,410 1024,440 Z M898,358 C894,328 884,304 870,288 C854,270 828,262 798,262 C778,262 762,266 748,274 C736,280 724,288 716,298 C708,308 704,318 700,330 C696,340 694,348 694,358 L898,358 Z"></path>
  </g>
</svg>