<?xml version="1.0" encoding="UTF-8"?>
<svg width="820px" height="1025px" viewBox="0 0 820 1025" version="1.1" xmlns="http://www.w3.org/2000/svg" xmlns:xlink="http://www.w3.org/1999/xlink">
  <g id="Bing" transform="translate(0.1326, 0.8284)" fill="currentColor" fill-rule="nonzero">
    <path d="M2.84217094e-14,0 C77.8232,23.5519 156.672,48.128 234.496,71.6798 L234.496,650.2408 C158.7196,717.8248 82.943,785.4088 7.168,852.9928 C192.512,755.7125 377.856,658.4318 562.176,561.1528 C510.9758,537.6001 459.776,515.0727 407.552,491.52 C372.7356,415.7446 337.9202,340.993 303.104,265.216 C476.16,317.4406 647.168,370.689 819.2,422.912 L819.2,674.816 C623.616,791.551 428.032,907.263 233.472,1024 C155.6478,969.7275 77.824,915.456 2.84217094e-14,860.16 L2.84217094e-14,0 L2.84217094e-14,0 Z"></path>
  </g>
</svg>