<?xml version="1.0" standalone="no"?>
<!DOCTYPE svg PUBLIC "-//W3C//DTD SVG 1.1//EN" "http://www.w3.org/Graphics/SVG/1.1/DTD/svg11.dtd" >
<svg xmlns="http://www.w3.org/2000/svg" xmlns:xlink="http://www.w3.org/1999/xlink" version="1.1" viewBox="-10 0 1034 1024">
   <path fill="currentColor"
d="M944.128 -27.3359c-6.14355 -9.21582 -14.3359 -17.4082 -23.5518 -23.5518c-19.4561 -15.3604 -41.9844 -26.624 -64.5117 -35.8398c-49.1523 -19.4561 -100.353 -31.7441 -151.553 -39.9365c-63.4873 -10.2402 -126.976 -14.3359 -194.56 -14.3359
c-60.416 0 -122.88 4.0957 -185.344 14.3359c-44.0322 7.16797 -88.0645 16.3838 -130.049 30.7197c-27.6475 9.2168 -55.2959 21.5039 -79.8711 37.8887c-12.2881 7.16797 -23.5527 16.3838 -31.7441 27.6475c-11.2646 14.3359 -16.3848 29.6963 -13.3125 48.1279
c6.14453 35.8398 10.2402 70.6562 16.3838 105.473c8.19238 52.2236 17.4082 104.447 25.6006 155.647c10.2402 57.3438 20.4795 115.712 29.6953 173.057c2.04883 13.3115 8.19238 24.5752 17.4082 34.8154c6.14453 6.14453 12.2881 12.2881 18.4326 17.4082
c23.5518 19.4561 50.1758 32.7676 78.8477 44.0322c67.584 26.624 137.216 38.9121 209.92 43.0078c52.2236 3.07227 104.448 1.02344 156.672 -6.14453c44.0322 -6.14355 87.04 -15.3594 130.048 -30.7197c31.7441 -11.2637 61.4404 -25.5996 88.0645 -45.0557
c11.2637 -8.19238 22.5283 -17.4082 30.7197 -28.6719c6.14453 -8.19238 10.2402 -16.3848 11.2646 -25.6006c13.3115 -75.7754 26.623 -151.552 38.9111 -226.304c11.2646 -70.6562 22.5283 -140.288 33.792 -210.944
c2.04883 -16.3838 -2.04785 -31.7441 -11.2637 -45.0557v0zM510.976 493.88c-77.8232 0 -140.287 -63.4883 -140.287 -141.312c0 -77.8242 63.4873 -140.288 141.312 -140.288s141.312 63.4873 140.288 142.336c0 76.7998 -63.4883 139.264 -141.312 139.264v0z
M792.576 1.33594c-4.0957 4.0957 -9.21582 8.19238 -14.3359 11.2637c-14.3359 8.19238 -30.7207 13.3125 -47.1045 17.4082c-30.7197 8.19238 -62.4639 12.2881 -94.208 15.3604c-40.96 4.0957 -82.9434 6.14355 -122.88 6.14355
c-48.1279 0 -94.208 -2.04785 -140.288 -8.19141c-34.8154 -4.09668 -68.6074 -9.2168 -101.376 -20.4805c-10.2402 -3.07227 -19.4561 -7.16797 -28.6719 -12.2881c-5.12012 -2.04785 -9.21582 -6.14355 -12.2881 -10.2402c-6.14355 -7.16797 -6.14355 -14.3359 0 -21.5039
c4.0957 -4.0957 8.19238 -7.16797 13.3125 -10.2393c13.3115 -8.19238 28.6719 -12.2881 44.0312 -16.3848c31.7441 -8.19141 64.5127 -13.3115 97.2803 -16.3838c54.2725 -4.0957 107.521 -6.14355 160.769 -4.0957c49.1514 1.02344 98.3037 5.12012 147.456 14.3359
c22.5273 4.0957 45.0557 9.21582 66.5596 17.4082c7.16797 3.07129 15.3604 7.16797 21.5039 11.2637c4.0957 2.04785 7.16797 5.12012 9.21582 8.19238c6.14453 6.14355 6.14453 12.2881 1.02441 18.4316v0zM845.824 594.232c0 3.07129 0 6.14355 -1.02441 9.21582
c-10.2402 52.2236 -19.4561 103.424 -29.6963 155.647c-3.07129 17.4082 -11.2637 31.7441 -23.5518 44.0322c-13.3115 14.3359 -29.6953 24.5762 -47.1035 32.7686c-31.7441 16.3838 -65.5361 26.623 -99.3281 33.792c-44.0322 9.21582 -89.0879 13.3115 -115.712 13.3115
c-77.8242 0 -135.168 -6.14355 -191.488 -22.5283c-25.5996 -7.16797 -51.2002 -17.4072 -74.752 -30.7197c-12.2881 -7.16797 -23.5518 -15.3604 -33.792 -25.5996c-12.2881 -12.2881 -20.4795 -27.6484 -23.5518 -45.0566
c-9.21582 -52.2236 -19.4561 -103.424 -29.6963 -155.647c0 -3.07227 -1.02441 -5.12012 -1.02441 -8.19238c1.02441 -12.2881 12.2881 -19.4561 23.5527 -13.3115c1.02344 1.02344 2.04785 1.02344 3.07129 2.04785c37.8887 27.6475 79.8721 46.0801 124.929 60.416
c40.96 13.3115 82.9434 20.4795 124.928 24.5762c49.1523 4.0957 98.3037 3.07129 146.432 -3.07227c64.5127 -9.21582 125.952 -27.6484 184.32 -59.3926c11.2637 -6.14355 22.5283 -14.3359 32.7676 -20.4795c2.04883 -1.02441 3.07227 -2.04785 5.12012 -3.07227
c14.3359 -6.14355 25.6006 0 25.6006 11.2646v0zM582.656 352.568c0 38.9121 -31.7441 70.6553 -70.6562 70.6553s-70.6562 -31.7432 -69.6318 -70.6553c0 -38.9121 31.7441 -70.6562 70.6562 -70.6562c37.8877 0 69.6318 31.7441 69.6318 70.6562v0z" />
</svg>
