<?xml version="1.0" encoding="UTF-8"?>
<svg width="888px" height="1025px" viewBox="0 0 888 1025" version="1.1" xmlns="http://www.w3.org/2000/svg" xmlns:xlink="http://www.w3.org/1999/xlink">
  <g id="BitBucket" transform="translate(0.2705, 0.3376)" fill="currentColor" fill-rule="nonzero">
    <path d="M875.375316,113.664 C869.231766,104.44818 861.039416,96.2558 851.823516,90.1122 C832.367416,74.7518 809.839116,63.4882 787.311816,54.2724 C738.159516,34.8163 686.958816,22.5283 635.758816,14.3359 C572.271516,4.0957 508.782816,0 441.198816,0 C380.782816,0 318.318816,4.0957 255.854816,14.3359 C211.822616,21.50387 167.790316,30.7197 125.805816,45.0556 C98.1583164,54.2724 70.5099164,66.5595 45.9347164,82.9443 C33.6466164,90.11227 22.3820164,99.3281 14.1906164,110.5918 C2.9260164,124.9277 -2.1941836,140.2881 0.878116403,158.7197 C7.0226464,194.5595 11.1183164,229.3759 17.2619164,264.1927 C25.4542964,316.4163 34.6701164,368.6397 42.8625164,419.8397 C53.1027164,477.1835 63.3420164,535.5517 72.5578164,592.8967 C74.6066464,606.2082 80.7501964,617.4719 89.9660164,627.7121 C96.1105464,633.85663 102.254116,640.0002 108.398616,645.1203 C131.950416,664.5764 158.574416,677.8879 187.246316,689.1525 C254.830316,715.7765 324.462316,728.0646 397.166316,732.1603 C449.389916,735.23257 501.614316,733.18374 553.838316,726.01577 C597.870516,719.87222 640.878316,710.65637 683.886316,695.29607 C715.630416,684.03237 745.326716,669.69647 771.950816,650.24037 C783.214516,642.04799 794.479116,632.83217 802.670516,621.56847 C808.815046,613.37609 812.910716,605.18367 813.935116,595.96787 C827.246616,520.19247 840.558116,444.41587 852.846216,369.66387 C864.110816,299.00767 875.374516,229.37587 886.638216,158.71987 C888.687046,142.33607 884.590366,126.97577 875.374516,113.66417 L875.374516,113.66417 L875.375316,113.664 Z M442.223316,634.8799 C364.400116,634.8799 301.936316,571.3916 301.936316,493.5679 C301.936316,415.7437 365.423616,353.2799 443.248316,353.2799 C521.073016,353.2799 584.560316,416.7672 583.536316,495.6159 C583.536316,572.4157 520.048016,634.8799 442.224316,634.8799 L442.224316,634.8799 L442.223316,634.8799 Z M723.823316,142.33584 C719.727616,146.43154 714.607496,150.52822 709.487416,153.59954 C695.151516,161.79192 678.766716,166.91204 662.382916,171.00774 C631.663216,179.20012 599.919016,183.29584 568.174916,186.36814 C527.214916,190.46384 485.231516,192.51169 445.294916,192.51169 C397.167016,192.51169 351.086916,190.46384 305.006916,184.32028 C270.191516,180.2236 236.399516,175.10348 203.630916,163.83978 C193.390716,160.76751 184.174816,156.67181 174.959016,151.55168 C169.838896,149.50383 165.743196,145.40813 162.670916,141.31148 C156.527366,134.14351 156.527366,126.97558 162.670916,119.80758 C166.766616,115.71188 170.863296,112.63961 175.983416,109.56828 C189.294916,101.3759 204.655316,97.28018 220.014616,93.18348 C251.758716,84.99207 284.527316,79.87198 317.294916,76.79968 C371.567416,72.70398 424.815916,70.65613 478.063916,72.70398 C527.215316,73.72742 576.367616,77.8241 625.519916,87.03988 C648.047216,91.13558 670.575616,96.2557 692.079516,104.44808 C699.247486,107.51937 707.439916,111.61605 713.583416,115.71178 C717.679116,117.75963 720.751386,120.8319 722.799236,123.90416 C728.943766,130.04771 728.943766,136.19226 723.823646,142.33576 L723.823646,142.33576 L723.823316,142.33584 Z M777.072006,735.2319 C777.072006,738.30319 777.072006,741.37545 776.046906,744.44772 C765.806706,796.67132 756.590806,847.87172 746.350606,900.09472 C743.279316,917.50292 735.086906,931.83882 722.798806,944.12692 C709.487306,958.46282 693.103506,968.70312 675.695306,976.89552 C643.951206,993.27932 610.159206,1003.51852 576.367206,1010.68752 C532.335006,1019.90334 487.279306,1023.99902 460.655206,1023.99902 C382.831006,1023.99902 325.487206,1017.85547 269.167206,1001.47072 C243.567606,994.30275 217.967006,984.06352 194.415206,970.75102 C182.127106,963.58305 170.863406,955.39062 160.623206,945.15142 C148.335106,932.86332 140.143706,917.50302 137.071406,900.09482 C127.855586,847.87122 117.615306,796.67082 107.375106,744.44782 C107.375106,741.37555 106.350696,739.3277 106.350696,736.25544 C107.375106,723.96734 118.638796,716.79934 129.903396,722.94394 C130.926836,723.96738 131.951246,723.96738 132.974686,724.99179 C170.863386,752.63929 212.846786,771.07189 257.903686,785.40779 C298.863686,798.71929 340.847086,805.88729 382.831686,809.98399 C431.983986,814.07969 481.135386,813.05528 529.263686,806.91172 C593.776386,797.6959 655.215686,779.26332 713.583686,747.51912 C724.847386,741.37557 736.111986,733.18322 746.351286,727.03962 C748.400116,726.01521 749.423556,724.99177 751.471406,723.96735 C765.807306,717.8238 777.072006,723.96735 777.072006,735.23195 L777.072006,735.23195 L777.072006,735.2319 Z M513.903316,493.5679 C513.903316,532.48 482.159216,564.2232 443.247116,564.2232 C404.335016,564.2232 372.590916,532.48 373.615316,493.5679 C373.615316,454.6558 405.359416,422.9117 444.271516,422.9117 C482.159216,422.9117 513.903316,454.6558 513.903316,493.5679 L513.903316,493.5679 Z"></path>
  </g>
</svg>