<?xml version="1.0" standalone="no"?>
<!DOCTYPE svg PUBLIC "-//W3C//DTD SVG 1.1//EN" "http://www.w3.org/Graphics/SVG/1.1/DTD/svg11.dtd" >
<svg xmlns="http://www.w3.org/2000/svg" xmlns:xlink="http://www.w3.org/1999/xlink" version="1.1" viewBox="-11 0 1046 1024">
   <path fill="currentColor"
d="M331.96 92.7998c0 -32.7363 -23.3779 -79.4932 -107.53 -79.4932h-135.598l-42.0762 177.664h140.278c112.21 0 144.927 -51.415 144.927 -98.1709h-0.000976562zM692.009 92.7998c0 -32.7363 -23.3779 -79.4932 -107.53 -79.4932h-135.618l-37.3965 177.675h140.278
c107.53 -0.0107422 140.268 -51.4258 140.268 -98.1816h-0.000976562zM285.204 354.626c0 -32.7373 -23.3779 -79.5029 -107.53 -79.5029h-135.598l-42.0762 177.725h140.268c112.221 0 144.938 -46.7559 144.938 -98.2217h-0.000976562zM645.253 354.626
c0 -32.7373 -23.3779 -79.5029 -107.53 -79.5029h-135.619l-37.3955 177.715h140.278c107.52 0.00976562 140.268 -46.7461 140.268 -98.2119h-0.000976562zM1024 247.096c0 -32.7363 -23.3779 -79.5029 -107.561 -79.5029h-135.599l-37.3857 177.674h140.268
c107.54 0 140.278 -46.7559 140.278 -98.1709h-0.000976562zM967.885 522.982c0 -32.7373 -23.3779 -79.4932 -107.54 -79.4932h-135.588l-37.4268 177.674h140.268c112.221 0 140.288 -46.7656 140.288 -98.1807h-0.000976562zM589.128 630.523
c0 -32.7373 -23.3682 -79.5039 -107.53 -79.5039h-135.598l-37.417 177.685h140.278c112.24 0 140.268 -51.4248 140.268 -98.1807h-0.000976562z" />
</svg>
