<?xml version="1.0" encoding="UTF-8"?>
<svg width="1025px" height="716px" viewBox="0 0 1025 716" version="1.1" xmlns="http://www.w3.org/2000/svg" xmlns:xlink="http://www.w3.org/1999/xlink">
  <g id="Blackberry" transform="translate(0.8144, 0.0684)" fill="currentColor" fill-rule="nonzero">
    <path d="M331.961,79.4932 C331.961,46.7569 308.5823,0 224.4302,0 L88.8322,0 L46.756,177.664 L187.034,177.664 C299.244,177.664 331.961,126.249 331.961,79.4931 L331.961,79.4931 L331.961,79.4932 Z M692.0107,79.4932 C692.0107,46.7569 668.6313,0 584.4792,0 L448.8612,0 L411.4647,177.675 L551.7427,177.675 C659.2727,177.664258 692.0107,126.2492 692.0107,79.4934 L692.0107,79.4934 L692.0107,79.4932 Z M285.206,341.3194 C285.206,308.5821 261.8263,261.8165 177.6742,261.8165 L42.0762,261.8165 L-5.68434189e-14,439.5415 L140.268,439.5415 C252.489,439.5415 285.206,392.7856 285.206,341.3198 L285.206,341.3198 L285.206,341.3194 Z M645.2547,341.3194 C645.2547,308.5821 621.8753,261.8165 537.7232,261.8165 L402.1042,261.8165 L364.7087,439.531502 L504.9867,439.531502 C612.5067,439.541266 645.2547,392.7854 645.2547,341.3196 L645.2547,341.3196 L645.2547,341.3194 Z M1024.0005,233.7894 C1024.0005,201.0531 1000.6223,154.2865 916.4392,154.2865 L780.8402,154.2865 L743.4545,331.9605 L883.7225,331.9605 C991.2625,331.9605 1024.0005,285.2046 1024.0005,233.7896 L1024.0005,233.7896 L1024.0005,233.7894 Z M967.8864,509.6754 C967.8864,476.9381 944.5073,430.1822 860.3452,430.1822 L724.7572,430.1822 L687.3304,607.8562 L827.5984,607.8562 C939.8194,607.8562 967.8864,561.0906 967.8864,509.6755 L967.8864,509.6755 L967.8864,509.6754 Z M589.1292,617.2164 C589.1292,584.4791 565.76,537.7125 481.5982,537.7125 L346.0002,537.7125 L308.5832,715.3975 L448.8612,715.3975 C561.1012,715.3975 589.1292,663.9727 589.1292,617.2168 L589.1292,617.2168 L589.1292,617.2164 Z"></path>
  </g>
</svg>