<?xml version="1.0" encoding="UTF-8"?>
<svg width="53px" height="53px" viewBox="0 0 53 53" version="1.1" xmlns="http://www.w3.org/2000/svg" xmlns:xlink="http://www.w3.org/1999/xlink">
    <title>Blingee</title>
    <g id="Blingee" stroke="none" stroke-width="1" fill="none" fill-rule="evenodd">
        <path d="M32.1369373,9.00343486 C56.1555705,9.21743079 56.4134736,19.7432405 45.0452215,24.7580907 C52.0119553,28.9819287 52.783134,33.6463425 47.3587576,38.7513322 C39.6554473,44.6719823 30.7269704,44.0143437 22.7150282,39.7065382 C19.0709117,43.7192402 14.9967729,43.0315996 10.5568954,41.9829358 L10.0000105,41.8502864 C9.72062021,41.7833354 9.43981174,41.7156805 9.15760077,41.648381 L8.59131346,41.5145697 L8.06966311,41.3945108 C7.80806379,41.3353152 7.54530594,41.2775512 7.28140155,41.2220312 C11.3134707,38.0399958 13.0389797,32.4481978 13.9692362,28.5782157 C14.0134293,28.3571249 14.0747275,28.1237256 14.1518799,27.8796376 L14.3381993,27.0679896 C15.9031838,20.4121615 17.7950455,15.9213051 20.0137844,13.5954207 L19.7953423,13.0381713 L19.0530519,13.3729274 C8.10509889,18.3787966 5.5452771,22.6884262 11.3735866,26.3018159 C9.69362613,28.6325866 7.94677914,29.2891418 5.57415304,29.7458579 C1.85805101,29.3340064 0,27.3778824 0,23.8774861 C0,18.6268917 8.11830416,8.78943892 32.1369373,9.00343486 Z M36.5929869,31.119084 C36.2327777,26.4526184 33.7408468,24.7386676 29.1171941,25.9772315 C28.5912661,29.4037654 27.3010669,33.2620526 25.2465964,37.5520932 C27.6610779,38.0937512 35.5405602,39.6846664 36.5929869,31.119084 Z M41.0964528,13.3635764 C36.8258352,10.9809652 33.5632877,13.7019178 31.3088102,21.5264341 C39.7607734,22.5366774 43.910407,15.2965158 41.0964528,13.3635764 Z" id="Combined-Shape" fill="#000000"></path>
    </g>
</svg>