<?xml version="1.0" standalone="no"?>
<!DOCTYPE svg PUBLIC "-//W3C//DTD SVG 1.1//EN" "http://www.w3.org/Graphics/SVG/1.1/DTD/svg11.dtd" >
<svg xmlns="http://www.w3.org/2000/svg" xmlns:xlink="http://www.w3.org/1999/xlink" version="1.1" viewBox="-12 0 1048 1024">
   <path fill="currentColor"
d="M8 723c18 -2 20 -18 24 -32c4 -18 8 -36 8 -56c0 -16 4 -32 2 -48c-2 -22 -4 -44 -6 -68v-70v-54c0 -2 2 -6 4 -8c0 -2 4 -6 4 -8c0 -14 2 -24 -4 -36c-4 -6 -2 -16 -2 -24c2 -12 0 -22 6 -36c4 -8 4 -18 -2 -28c-2 -2 -4 -6 -4 -10v-138c0 -4 4 -6 4 -10
c2 -6 2 -14 2 -20c0 -2 -6 -2 -10 -2c-2 0 -4 0 -4 -2l-28 -28c-6 -4 -2 -12 0 -18c0 -6 6 -6 12 -6c14 2 30 -4 44 -4c16 -2 34 -2 50 -2s32 -2 48 -2c12 0 26 -2 38 -2c6 0 10 2 12 8c6 6 14 12 24 14c6 0 12 4 16 8c16 16 22 34 22 56c0 12 2 24 4 36c2 10 0 18 -4 26
c-6 8 -10 16 -16 26c-10 22 -22 40 -40 58c-4 6 -4 8 2 12c8 2 14 6 22 8c6 2 8 6 6 12c0 4 -2 6 -4 12c-4 6 -2 12 6 14h4c6 8 14 16 12 30c-6 16 -6 34 0 52c0 4 2 8 4 10c6 4 6 10 6 18c2 24 2 50 4 74c0 12 -2 24 -8 34c-2 6 -2 12 -2 18c6 28 0 52 -14 72
c-12 18 -16 36 -18 56c-2 6 -4 8 -6 10c-18 8 -32 18 -48 28l-6 6c-6 8 -14 12 -22 12c-10 2 -18 6 -28 8c-2 0 -4 -2 -6 -2c-6 -6 -12 -8 -18 0s-16 6 -24 6c-14 0 -26 -2 -40 -2h-22c-2 0 -4 -2 -6 -4c2 -2 2 -2 2 -4zM108 663c12 0 20 -4 30 -10c10 -10 22 -14 30 -28
l6 -6c2 -4 6 -8 6 -12c2 -26 8 -50 14 -74c4 -14 2 -28 0 -44c0 -4 -4 -8 -4 -14s0 -12 2 -18c4 -10 4 -18 -2 -26c-2 -4 -2 -8 -4 -12c-2 -14 8 -26 4 -40c0 -4 0 -10 -2 -16c0 -6 -4 -12 -4 -16c2 -12 -4 -16 -10 -22c-12 -10 -24 -20 -34 -28c-4 -2 -6 -6 -10 -8v14
c0 20 2 40 -4 60c-2 6 0 16 2 24c2 14 -2 28 -8 40c-2 2 -2 8 0 12c0 4 2 8 2 10v96c0 4 -2 6 -4 10c-2 6 -4 10 -4 16c0 14 0 28 2 42c0 16 0 32 -10 46c2 2 2 2 2 4zM202 107v-2c-4 -2 -6 -2 -10 -2c-6 -2 -14 -4 -18 -10c0 -2 -4 -4 -8 -4s-8 2 -14 2c-4 2 -6 2 -6 -4
c-6 0 -8 4 -8 8c0 2 -2 6 -2 8c-2 2 -4 6 -4 10v104v6h8c10 4 14 -2 18 -10c2 -2 2 -6 4 -10c4 -8 12 -14 22 -14c6 -2 8 -4 8 -10c0 -14 -2 -30 4 -42v-6c-4 -8 -8 -20 6 -24zM388 665h46c2 0 4 -2 6 -4c8 -8 16 -12 28 -8l30 6c12 2 26 0 38 -8c4 -4 10 -4 16 -6
c12 0 24 -2 34 -2h68h80c6 0 6 2 6 8v54c0 10 2 18 6 26c2 2 2 4 4 8h-6h-60c-4 0 -8 -2 -12 -4l-2 -2c-10 2 -18 -2 -28 -6c-2 0 -4 0 -6 -2c-4 -6 -12 -4 -18 -4h-42c-6 0 -8 -2 -12 -6c-6 -4 -14 -4 -22 -4c-40 0 -82 0 -122 -2c-6 0 -10 -2 -14 -4c-16 -6 -32 -8 -46 2
c-10 8 -20 16 -28 22c-2 2 -4 2 -6 2h-48c-2 0 -4 -2 -6 -4c2 -8 8 -16 16 -18c2 -2 6 -4 8 -6c16 -8 22 -18 20 -36c0 -4 2 -6 2 -10c4 -4 4 -6 0 -10c-2 -4 -2 -6 -2 -10v-30c0 -4 0 -10 4 -14c2 -2 0 -10 2 -14c0 -4 2 -6 4 -10c4 -4 2 -14 -4 -20c-6 -4 -6 -10 -6 -16
v-60c0 -4 2 -6 2 -10c2 -2 2 -4 2 -8c-2 -16 0 -30 2 -48c2 -8 2 -16 4 -24c0 -10 0 -22 2 -32c0 -4 2 -6 2 -8c6 -8 6 -16 0 -24c-2 -2 -2 -6 -2 -10v-76c0 -4 -2 -6 -4 -10c0 -2 -2 -6 -2 -8v-24c0 -10 2 -18 10 -24c0 -2 2 -4 2 -6v-36v-4c-8 -6 -4 -12 0 -18
c10 -18 2 -36 -6 -52c-2 -2 -8 -4 -12 -4c-4 -2 -6 -2 -10 -6c-6 -10 -16 -18 -24 -28c0 0 0 -2 2 -2c4 -8 4 -8 12 -2c2 0 6 2 8 2h34c2 0 8 2 10 4c6 6 10 10 16 8c2 0 4 0 6 2c8 8 16 16 22 24c2 2 4 4 4 6v48c0 2 -2 6 -2 8c-6 6 -6 10 0 16s8 10 8 18c-2 6 2 14 -6 18
v6v118c0 2 0 6 2 8c12 6 12 18 12 28c0 36 -2 70 -4 106v4c-10 16 -6 36 -2 54c2 10 2 22 2 32c0 0 -2 2 -4 2c-8 6 -8 16 -4 24c2 4 2 10 0 12c-4 6 -4 12 -4 16c0 8 2 16 -4 22c-2 0 -2 4 -2 6v22c0 6 0 12 -4 16s-4 8 0 12s4 10 6 14h-2zM790 167c-4 -2 -4 -6 -4 -12
c2 -4 2 -10 0 -16s0 -12 4 -16c2 -4 4 -8 4 -12v-88c0 -14 0 -12 12 -12h178c4 0 10 -2 14 4c0 2 4 2 6 4c-6 14 -14 28 -20 40c-4 6 -6 10 -6 18c2 10 -2 18 -10 26c-4 4 -8 8 -6 18c2 6 -2 12 -8 18c-4 4 -4 10 -6 16c-2 20 -6 38 -14 56c-4 10 -2 22 -2 34s0 24 -2 34
c0 10 -4 16 -8 24c-4 12 -6 24 -14 36c-2 4 -2 10 0 16c0 6 -2 10 -6 14c-10 8 -14 16 -12 28v6c2 34 -2 66 -16 98c-2 4 -2 8 -2 14c2 22 -6 42 -14 60c-6 10 -10 22 -14 32c0 4 -2 8 -4 12c0 2 0 6 2 6c2 2 6 0 8 0s6 -2 8 -2c10 0 18 0 28 -2c2 0 6 -4 6 -6
c0 -14 12 -20 24 -24l48 -24c6 -2 12 -10 18 -16c8 8 18 4 26 6c6 0 10 2 14 6c4 6 4 10 0 14c-4 8 -4 16 0 24c2 6 4 10 4 16v40c0 8 -8 16 -16 16h-68c-4 0 -8 -4 -12 -6c-4 0 -10 -2 -16 -4h-10c-2 0 -6 0 -10 2c-10 10 -18 14 -30 12c-14 0 -24 0 -36 2
c-8 0 -16 4 -24 8c-14 6 -16 -2 -16 -14c0 -8 2 -18 2 -26c0 -2 0 -4 2 -6c6 -4 6 -12 4 -20c0 -2 2 -6 4 -8c8 -6 10 -12 8 -22c0 -4 2 -8 2 -10c2 -4 4 -10 4 -14c2 -6 0 -10 2 -14c8 -22 8 -42 -2 -64c-6 -14 -8 -30 -6 -48c0 -16 2 -34 6 -50c2 -14 8 -28 14 -40
c6 -16 12 -36 20 -52c2 -4 2 -8 -2 -12c-2 -2 -2 -10 0 -12c4 -6 6 -12 6 -20c0 -4 4 -10 6 -14c8 -16 16 -30 14 -50v-6c10 -24 20 -50 38 -72c2 -2 2 -4 2 -6c0 -8 0 -16 6 -22c2 -2 -2 -10 -8 -10h-22c-2 0 -6 0 -6 -2c-4 -6 -10 -8 -18 -8c-22 4 -24 4 -32 22
c-6 16 -8 34 -12 52c0 4 -2 8 -4 14s-4 8 -10 8s-12 4 -16 6zM730 475c4 8 8 6 12 2s8 -10 10 -16c4 -12 4 -12 18 -10c0 10 2 20 2 30c0 2 -2 2 -2 4c-10 10 -14 22 -14 34c0 22 0 44 2 66c0 6 -2 8 -6 10c-4 0 -6 2 -8 4c-8 6 -16 6 -24 6h-40c-6 0 -10 0 -14 -6
c-4 -4 -18 0 -22 4c-10 10 -14 10 -24 4c-4 -2 -10 -4 -16 -4c-10 -2 -18 -2 -28 0c-6 0 -10 -2 -12 -8v0c12 -12 8 -24 8 -38c0 -4 -2 -10 4 -14c2 -2 2 -8 2 -10c0 -4 -2 -6 -4 -8c-4 -8 -8 -14 -4 -22c2 -2 0 -6 0 -8c-8 -16 -2 -32 0 -50c4 -14 6 -30 10 -46
c4 -12 12 -22 20 -34c2 -6 4 -12 8 -16c6 -12 12 -24 18 -34c2 -6 4 -10 6 -14c6 -20 12 -38 16 -56c2 -8 6 -12 12 -18c4 -2 6 -6 10 -10c6 -8 14 -14 18 -24c2 -2 4 -6 4 -8c0 -8 -2 -16 -2 -24c0 -6 4 -10 6 -12c4 -8 10 -14 16 -22c4 -4 6 -10 10 -14
c10 -8 12 -16 12 -26c-2 -10 0 -20 0 -28c-10 -2 -20 -2 -28 -2h-22c-16 -2 -28 4 -40 12s-16 16 -18 28c0 4 -2 6 -6 8c-2 2 -6 4 -10 6c-4 4 -8 10 -6 16c0 10 -2 20 0 28c0 14 -4 26 -14 36c0 0 -2 0 -2 -2l-12 -48c0 -6 4 -14 4 -20c2 -12 2 -22 -8 -30
c-2 -2 -2 -4 -2 -6c0 -16 -2 -30 0 -44c0 -6 4 -14 6 -20h172v26c0 4 2 8 2 12c2 4 2 6 2 10v98v6c-8 10 -8 22 -6 34c0 4 -2 6 -2 8c-6 14 -14 26 -20 40c-6 10 -10 18 -12 30c-2 6 -2 14 -2 20s0 8 -6 12c-6 2 -10 4 -14 8c-12 8 -12 22 -12 34v6c-8 12 -16 20 -22 30
c-8 20 -18 42 -26 62c0 4 -2 8 -2 12c0 12 -4 20 -8 32c-8 22 -18 46 -26 66c-2 6 2 12 8 10c6 0 10 -2 14 -4c10 -6 22 -10 34 -12c10 0 18 -6 22 -14c6 -10 12 -18 18 -26s14 -14 22 -16c2 0 6 -4 6 -6c4 -6 4 -12 6 -18zM412 27c4 -8 6 -8 12 -8h102c6 0 8 4 10 8
s0 8 -4 10c-12 6 -24 12 -26 26c-2 4 0 10 2 16c4 4 6 10 0 14c-6 6 -6 12 -6 18v42c2 30 2 60 2 88c0 6 0 12 -2 16c0 10 2 22 6 32c0 4 2 8 2 14c0 2 -2 4 -2 6c-2 6 -8 10 -6 16c0 22 4 42 4 62c2 10 4 20 -6 28c-4 2 -6 10 -4 14c2 14 2 28 8 42c8 16 4 34 2 52
c0 2 -2 6 -4 8c-4 4 -6 8 -4 16c0 4 2 10 4 14c2 6 6 10 10 12c6 6 14 10 22 14s10 12 10 20h-58c-8 0 -18 0 -26 2c-6 2 -12 4 -18 8c-8 6 -8 6 -16 -4c8 -6 16 -14 24 -22c2 -2 4 -6 4 -10c2 -22 4 -46 6 -68c0 -4 2 -6 2 -10c2 -6 4 -12 2 -16c-8 -12 -6 -24 2 -38v-8
v-96v-144c0 -2 -2 -6 0 -6c8 -6 2 -10 0 -18c-4 -10 -2 -22 -4 -32c0 -20 -2 -40 -2 -62c0 -8 -2 -18 -2 -28c0 -6 -4 -10 -10 -12c-6 -4 -12 -4 -18 -10c-6 -2 -12 -2 -18 -6z" />
</svg>
