<?xml version="1.0" encoding="UTF-8"?>
<svg width="1028px" height="735px" viewBox="0 0 1028 735" version="1.1" xmlns="http://www.w3.org/2000/svg" xmlns:xlink="http://www.w3.org/1999/xlink">
  <g id="Blizzard" transform="translate(0.5453, 0)" fill="currentColor" fill-rule="nonzero">
    <path d="M9.16891769,718.276878 C27.1689177,716.276878 29.1689177,700.276878 33.1689177,686.276878 C37.1689177,668.276878 41.1689177,650.276878 41.1689177,630.276878 C41.1689177,614.276878 45.1689177,598.276878 43.1689177,582.276878 C41.1689177,560.276878 39.1689177,538.276878 37.1689177,514.276878 L37.1689177,444.276878 L37.1689177,390.276878 C37.1689177,388.276878 39.1689177,384.276878 41.1689177,382.276878 C41.1689177,380.276878 45.1689177,376.276878 45.1689177,374.276878 C45.1689177,360.276878 47.1689177,350.276878 41.1689177,338.276878 C37.1689177,332.276878 39.1689177,322.276878 39.1689177,314.276878 C41.1689177,302.276878 39.1689177,292.276878 45.1689177,278.276878 C49.1689177,270.276878 49.1689177,260.276878 43.1689177,250.276878 C41.1689177,248.276878 39.1689177,244.276878 39.1689177,240.276878 L39.1689177,102.276878 C39.1689177,98.2768775 43.1689177,96.2768775 43.1689177,92.2768775 C45.1689177,86.2768775 45.1689177,78.2768775 45.1689177,72.2768775 C45.1689177,70.2768775 39.1689177,70.2768775 35.1689177,70.2768775 C33.1689177,70.2768775 31.1689177,70.2768775 31.1689177,68.2768775 L3.16891769,40.2768775 C-2.83108231,36.2768775 1.16891769,28.2768775 3.16891769,22.2768775 C3.16891769,16.2768775 9.16891769,16.2768775 15.1689177,16.2768775 C29.1689177,18.2768775 45.1689177,12.2768775 59.1689177,12.2768775 C75.1689177,10.2768775 93.1689177,10.2768775 109.168918,10.2768775 C125.168918,10.2768775 141.168918,8.27687753 157.168918,8.27687753 C169.168918,8.27687753 183.168918,6.27687753 195.168918,6.27687753 C201.168918,6.27687753 205.168918,8.27687753 207.168918,14.2768775 C213.168918,20.2768775 221.168918,26.2768775 231.168918,28.2768775 C237.168918,28.2768775 243.168918,32.2768775 247.168918,36.2768775 C263.168918,52.2768775 269.168918,70.2768775 269.168918,92.2768775 C269.168918,104.276878 271.168918,116.276878 273.168918,128.276878 C275.168918,138.276878 273.168918,146.276878 269.168918,154.276878 C263.168918,162.276878 259.168918,170.276878 253.168918,180.276878 C243.168918,202.276878 231.168918,220.276878 213.168918,238.276878 C209.168918,244.276878 209.168918,246.276878 215.168918,250.276878 C223.168918,252.276878 229.168918,256.276878 237.168918,258.276878 C243.168918,260.276878 245.168918,264.276878 243.168918,270.276878 C243.168918,274.276878 241.168918,276.276878 239.168918,282.276878 C235.168918,288.276878 237.168918,294.276878 245.168918,296.276878 L249.168918,296.276878 C255.168918,304.276878 263.168918,312.276878 261.168918,326.276878 C255.168918,342.276878 255.168918,360.276878 261.168918,378.276878 C261.168918,382.276878 263.168918,386.276878 265.168918,388.276878 C271.168918,392.276878 271.168918,398.276878 271.168918,406.276878 C273.168918,430.276878 273.168918,456.276878 275.168918,480.276878 C275.168918,492.276878 273.168918,504.276878 267.168918,514.276878 C265.168918,520.276878 265.168918,526.276878 265.168918,532.276878 C271.168918,560.276878 265.168918,584.276878 251.168918,604.276878 C239.168918,622.276878 235.168918,640.276878 233.168918,660.276878 C231.168918,666.276878 229.168918,668.276878 227.168918,670.276878 C209.168918,678.276878 195.168918,688.276878 179.168918,698.276878 L173.168918,704.276878 C167.168918,712.276878 159.168918,716.276878 151.168918,716.276878 C141.168918,718.276878 133.168918,722.276878 123.168918,724.276878 C121.168918,724.276878 119.168918,722.276878 117.168918,722.276878 C111.168918,716.276878 105.168918,714.276878 99.1689177,722.276878 C93.1689177,730.276878 83.1689177,728.276878 75.1689177,728.276878 C61.1689177,728.276878 49.1689177,726.276878 35.1689177,726.276878 L13.1689177,726.276878 C11.1689177,726.276878 9.16891769,724.276878 7.16891769,722.276878 C9.16891769,720.276878 9.16891769,720.276878 9.16891769,718.276878 Z M109.168918,658.276878 C121.168918,658.276878 129.168918,654.276878 139.168918,648.276878 C149.168918,638.276878 161.168918,634.276878 169.168918,620.276878 L175.168918,614.276878 C177.168918,610.276878 181.168918,606.276878 181.168918,602.276878 C183.168918,576.276878 189.168918,552.276878 195.168918,528.276878 C199.168918,514.276878 197.168918,500.276878 195.168918,484.276878 C195.168918,480.276878 191.168918,476.276878 191.168918,470.276878 C191.168918,464.276878 191.168918,458.276878 193.168918,452.276878 C197.168918,442.276878 197.168918,434.276878 191.168918,426.276878 C189.168918,422.276878 189.168918,418.276878 187.168918,414.276878 C185.168918,400.276878 195.168918,388.276878 191.168918,374.276878 C191.168918,370.276878 191.168918,364.276878 189.168918,358.276878 C189.168918,352.276878 185.168918,346.276878 185.168918,342.276878 C187.168918,330.276878 181.168918,326.276878 175.168918,320.276878 C163.168918,310.276878 151.168918,300.276878 141.168918,292.276878 C137.168918,290.276878 135.168918,286.276878 131.168918,284.276878 L131.168918,298.276878 C131.168918,318.276878 133.168918,338.276878 127.168918,358.276878 C125.168918,364.276878 127.168918,374.276878 129.168918,382.276878 C131.168918,396.276878 127.168918,410.276878 121.168918,422.276878 C119.168918,424.276878 119.168918,430.276878 121.168918,434.276878 C121.168918,438.276878 123.168918,442.276878 123.168918,444.276878 L123.168918,540.276878 C123.168918,544.276878 121.168918,546.276878 119.168918,550.276878 C117.168918,556.276878 115.168918,560.276878 115.168918,566.276878 C115.168918,580.276878 115.168918,594.276878 117.168918,608.276878 C117.168918,624.276878 117.168918,640.276878 107.168918,654.276878 C109.168918,656.276878 109.168918,656.276878 109.168918,658.276878 Z M203.168918,102.276878 L203.168918,100.276878 C199.168918,98.2768775 197.168918,98.2768775 193.168918,98.2768775 C187.168918,96.2768775 179.168918,94.2768775 175.168918,88.2768775 C175.168918,86.2768775 171.168918,84.2768775 167.168918,84.2768775 C163.168918,84.2768775 159.168918,86.2768775 153.168918,86.2768775 C149.168918,88.2768775 147.168918,88.2768775 147.168918,82.2768775 C141.168918,82.2768775 139.168918,86.2768775 139.168918,90.2768775 C139.168918,92.2768775 137.168918,96.2768775 137.168918,98.2768775 C135.168918,100.276878 133.168918,104.276878 133.168918,108.276878 L133.168918,212.276878 L133.168918,218.276878 L141.168918,218.276878 C151.168918,222.276878 155.168918,216.276878 159.168918,208.276878 C161.168918,206.276878 161.168918,202.276878 163.168918,198.276878 C167.168918,190.276878 175.168918,184.276878 185.168918,184.276878 C191.168918,182.276878 193.168918,180.276878 193.168918,174.276878 C193.168918,160.276878 191.168918,144.276878 197.168918,132.276878 L197.168918,126.276878 C193.168918,118.276878 189.168918,106.276878 203.168918,102.276878 Z M389.168918,660.276878 L435.168918,660.276878 C437.168918,660.276878 439.168918,658.276878 441.168918,656.276878 C449.168918,648.276878 457.168918,644.276878 469.168918,648.276878 L499.168918,654.276878 C511.168918,656.276878 525.168918,654.276878 537.168918,646.276878 C541.168918,642.276878 547.168918,642.276878 553.168918,640.276878 C565.168918,640.276878 577.168918,638.276878 587.168918,638.276878 L655.168918,638.276878 L735.168918,638.276878 C741.168918,638.276878 741.168918,640.276878 741.168918,646.276878 L741.168918,700.276878 C741.168918,710.276878 743.168918,718.276878 747.168918,726.276878 C749.168918,728.276878 749.168918,730.276878 751.168918,734.276878 L745.168918,734.276878 L685.168918,734.276878 C681.168918,734.276878 677.168918,732.276878 673.168918,730.276878 L671.168918,728.276878 C661.168918,730.276878 653.168918,726.276878 643.168918,722.276878 C641.168918,722.276878 639.168918,722.276878 637.168918,720.276878 C633.168918,714.276878 625.168918,716.276878 619.168918,716.276878 L577.168918,716.276878 C571.168918,716.276878 569.168918,714.276878 565.168918,710.276878 C559.168918,706.276878 551.168918,706.276878 543.168918,706.276878 C503.168918,706.276878 461.168918,706.276878 421.168918,704.276878 C415.168918,704.276878 411.168918,702.276878 407.168918,700.276878 C391.168918,694.276878 375.168918,692.276878 361.168918,702.276878 C351.168918,710.276878 341.168918,718.276878 333.168918,724.276878 C331.168918,726.276878 329.168918,726.276878 327.168918,726.276878 L279.168918,726.276878 C277.168918,726.276878 275.168918,724.276878 273.168918,722.276878 C275.168918,714.276878 281.168918,706.276878 289.168918,704.276878 C291.168918,702.276878 295.168918,700.276878 297.168918,698.276878 C313.168918,690.276878 319.168918,680.276878 317.168918,662.276878 C317.168918,658.276878 319.168918,656.276878 319.168918,652.276878 C323.168918,648.276878 323.168918,646.276878 319.168918,642.276878 C317.168918,638.276878 317.168918,636.276878 317.168918,632.276878 L317.168918,602.276878 C317.168918,598.276878 317.168918,592.276878 321.168918,588.276878 C323.168918,586.276878 321.168918,578.276878 323.168918,574.276878 C323.168918,570.276878 325.168918,568.276878 327.168918,564.276878 C331.168918,560.276878 329.168918,550.276878 323.168918,544.276878 C317.168918,540.276878 317.168918,534.276878 317.168918,528.276878 L317.168918,468.276878 C317.168918,464.276878 319.168918,462.276878 319.168918,458.276878 C321.168918,456.276878 321.168918,454.276878 321.168918,450.276878 C319.168918,434.276878 321.168918,420.276878 323.168918,402.276878 C325.168918,394.276878 325.168918,386.276878 327.168918,378.276878 C327.168918,368.276878 327.168918,356.276878 329.168918,346.276878 C329.168918,342.276878 331.168918,340.276878 331.168918,338.276878 C337.168918,330.276878 337.168918,322.276878 331.168918,314.276878 C329.168918,312.276878 329.168918,308.276878 329.168918,304.276878 L329.168918,228.276878 C329.168918,224.276878 327.168918,222.276878 325.168918,218.276878 C325.168918,216.276878 323.168918,212.276878 323.168918,210.276878 L323.168918,186.276878 C323.168918,176.276878 325.168918,168.276878 333.168918,162.276878 C333.168918,160.276878 335.168918,158.276878 335.168918,156.276878 L335.168918,120.276878 L335.168918,116.276878 C327.168918,110.276878 331.168918,104.276878 335.168918,98.2768775 C345.168918,80.2768775 337.168918,62.2768775 329.168918,46.2768775 C327.168918,44.2768775 321.168918,42.2768775 317.168918,42.2768775 C313.168918,40.2768775 311.168918,40.2768775 307.168918,36.2768775 C301.168918,26.2768775 291.168918,18.2768775 283.168918,8.27687753 C283.168918,8.27687753 283.168918,6.27687753 285.168918,6.27687753 C289.168918,-1.72312247 289.168918,-1.72312247 297.168918,4.27687753 C299.168918,4.27687753 303.168918,6.27687753 305.168918,6.27687753 L339.168918,6.27687753 C341.168918,6.27687753 347.168918,8.27687753 349.168918,10.2768775 C355.168918,16.2768775 359.168918,20.2768775 365.168918,18.2768775 C367.168918,18.2768775 369.168918,18.2768775 371.168918,20.2768775 C379.168918,28.2768775 387.168918,36.2768775 393.168918,44.2768775 C395.168918,46.2768775 397.168918,48.2768775 397.168918,50.2768775 L397.168918,98.2768775 C397.168918,100.276878 395.168918,104.276878 395.168918,106.276878 C389.168918,112.276878 389.168918,116.276878 395.168918,122.276878 C401.168918,128.276878 403.168918,132.276878 403.168918,140.276878 C401.168918,146.276878 405.168918,154.276878 397.168918,158.276878 L397.168918,164.276878 L397.168918,282.276878 C397.168918,284.276878 397.168918,288.276878 399.168918,290.276878 C411.168918,296.276878 411.168918,308.276878 411.168918,318.276878 C411.168918,354.276878 409.168918,388.276878 407.168918,424.276878 L407.168918,428.276878 C397.168918,444.276878 401.168918,464.276878 405.168918,482.276878 C407.168918,492.276878 407.168918,504.276878 407.168918,514.276878 C407.168918,514.276878 405.168918,516.276878 403.168918,516.276878 C395.168918,522.276878 395.168918,532.276878 399.168918,540.276878 C401.168918,544.276878 401.168918,550.276878 399.168918,552.276878 C395.168918,558.276878 395.168918,564.276878 395.168918,568.276878 C395.168918,576.276878 397.168918,584.276878 391.168918,590.276878 C389.168918,590.276878 389.168918,594.276878 389.168918,596.276878 L389.168918,618.276878 C389.168918,624.276878 389.168918,630.276878 385.168918,634.276878 C381.168918,638.276878 381.168918,642.276878 385.168918,646.276878 C389.168918,650.276878 389.168918,656.276878 391.168918,660.276878 L389.168918,660.276878 Z M791.168918,162.276878 C787.168918,160.276878 787.168918,156.276878 787.168918,150.276878 C789.168918,146.276878 789.168918,140.276878 787.168918,134.276878 C785.168918,128.276878 787.168918,122.276878 791.168918,118.276878 C793.168918,114.276878 795.168918,110.276878 795.168918,106.276878 L795.168918,18.2768775 C795.168918,4.27687753 795.168918,6.27687753 807.168918,6.27687753 L985.168918,6.27687753 C989.168918,6.27687753 995.168918,4.27687753 999.168918,10.2768775 C999.168918,12.2768775 1003.16892,12.2768775 1005.16892,14.2768775 C999.168918,28.2768775 991.168918,42.2768775 985.168918,54.2768775 C981.168918,60.2768775 979.168918,64.2768775 979.168918,72.2768775 C981.168918,82.2768775 977.168918,90.2768775 969.168918,98.2768775 C965.168918,102.276878 961.168918,106.276878 963.168918,116.276878 C965.168918,122.276878 961.168918,128.276878 955.168918,134.276878 C951.168918,138.276878 951.168918,144.276878 949.168918,150.276878 C947.168918,170.276878 943.168918,188.276878 935.168918,206.276878 C931.168918,216.276878 933.168918,228.276878 933.168918,240.276878 C933.168918,252.276878 933.168918,264.276878 931.168918,274.276878 C931.168918,284.276878 927.168918,290.276878 923.168918,298.276878 C919.168918,310.276878 917.168918,322.276878 909.168918,334.276878 C907.168918,338.276878 907.168918,344.276878 909.168918,350.276878 C909.168918,356.276878 907.168918,360.276878 903.168918,364.276878 C893.168918,372.276878 889.168918,380.276878 891.168918,392.276878 L891.168918,398.276878 C893.168918,432.276878 889.168918,464.276878 875.168918,496.276878 C873.168918,500.276878 873.168918,504.276878 873.168918,510.276878 C875.168918,532.276878 867.168918,552.276878 859.168918,570.276878 C853.168918,580.276878 849.168918,592.276878 845.168918,602.276878 C845.168918,606.276878 843.168918,610.276878 841.168918,614.276878 C841.168918,616.276878 841.168918,620.276878 843.168918,620.276878 C845.168918,622.276878 849.168918,620.276878 851.168918,620.276878 C853.168918,620.276878 857.168918,618.276878 859.168918,618.276878 C869.168918,618.276878 877.168918,618.276878 887.168918,616.276878 C889.168918,616.276878 893.168918,612.276878 893.168918,610.276878 C893.168918,596.276878 905.168918,590.276878 917.168918,586.276878 L965.168918,562.276878 C971.168918,560.276878 977.168918,552.276878 983.168918,546.276878 C991.168918,554.276878 1001.16892,550.276878 1009.16892,552.276878 C1015.16892,552.276878 1019.16892,554.276878 1023.16892,558.276878 C1027.16892,564.276878 1027.16892,568.276878 1023.16892,572.276878 C1019.16892,580.276878 1019.16892,588.276878 1023.16892,596.276878 C1025.16892,602.276878 1027.16892,606.276878 1027.16892,612.276878 L1027.16892,652.276878 C1027.16892,660.276878 1019.16892,668.276878 1011.16892,668.276878 L943.168918,668.276878 C939.168918,668.276878 935.168918,664.276878 931.168918,662.276878 C927.168918,662.276878 921.168918,660.276878 915.168918,658.276878 L905.168918,658.276878 C903.168918,658.276878 899.168918,658.276878 895.168918,660.276878 C885.168918,670.276878 877.168918,674.276878 865.168918,672.276878 C851.168918,672.276878 841.168918,672.276878 829.168918,674.276878 C821.168918,674.276878 813.168918,678.276878 805.168918,682.276878 C791.168918,688.276878 789.168918,680.276878 789.168918,668.276878 C789.168918,660.276878 791.168918,650.276878 791.168918,642.276878 C791.168918,640.276878 791.168918,638.276878 793.168918,636.276878 C799.168918,632.276878 799.168918,624.276878 797.168918,616.276878 C797.168918,614.276878 799.168918,610.276878 801.168918,608.276878 C809.168918,602.276878 811.168918,596.276878 809.168918,586.276878 C809.168918,582.276878 811.168918,578.276878 811.168918,576.276878 C813.168918,572.276878 815.168918,566.276878 815.168918,562.276878 C817.168918,556.276878 815.168918,552.276878 817.168918,548.276878 C825.168918,526.276878 825.168918,506.276878 815.168918,484.276878 C809.168918,470.276878 807.168918,454.276878 809.168918,436.276878 C809.168918,420.276878 811.168918,402.276878 815.168918,386.276878 C817.168918,372.276878 823.168918,358.276878 829.168918,346.276878 C835.168918,330.276878 841.168918,310.276878 849.168918,294.276878 C851.168918,290.276878 851.168918,286.276878 847.168918,282.276878 C845.168918,280.276878 845.168918,272.276878 847.168918,270.276878 C851.168918,264.276878 853.168918,258.276878 853.168918,250.276878 C853.168918,246.276878 857.168918,240.276878 859.168918,236.276878 C867.168918,220.276878 875.168918,206.276878 873.168918,186.276878 L873.168918,180.276878 C883.168918,156.276878 893.168918,130.276878 911.168918,108.276878 C913.168918,106.276878 913.168918,104.276878 913.168918,102.276878 C913.168918,94.2768775 913.168918,86.2768775 919.168918,80.2768775 C921.168918,78.2768775 917.168918,70.2768775 911.168918,70.2768775 L889.168918,70.2768775 C887.168918,70.2768775 883.168918,70.2768775 883.168918,68.2768775 C879.168918,62.2768775 873.168918,60.2768775 865.168918,60.2768775 C843.168918,64.2768775 841.168918,64.2768775 833.168918,82.2768775 C827.168918,98.2768775 825.168918,116.276878 821.168918,134.276878 C821.168918,138.276878 819.168918,142.276878 817.168918,148.276878 C815.168918,154.276878 813.168918,156.276878 807.168918,156.276878 C801.168918,156.276878 795.168918,160.276878 791.168918,162.276878 Z M731.168918,470.276878 C735.168918,478.276878 739.168918,476.276878 743.168918,472.276878 C747.168918,468.276878 751.168918,462.276878 753.168918,456.276878 C757.168918,444.276878 757.168918,444.276878 771.168918,446.276878 C771.168918,456.276878 773.168918,466.276878 773.168918,476.276878 C773.168918,478.276878 771.168918,478.276878 771.168918,480.276878 C761.168918,490.276878 757.168918,502.276878 757.168918,514.276878 C757.168918,536.276878 757.168918,558.276878 759.168918,580.276878 C759.168918,586.276878 757.168918,588.276878 753.168918,590.276878 C749.168918,590.276878 747.168918,592.276878 745.168918,594.276878 C737.168918,600.276878 729.168918,600.276878 721.168918,600.276878 L681.168918,600.276878 C675.168918,600.276878 671.168918,600.276878 667.168918,594.276878 C663.168918,590.276878 649.168918,594.276878 645.168918,598.276878 C635.168918,608.276878 631.168918,608.276878 621.168918,602.276878 C617.168918,600.276878 611.168918,598.276878 605.168918,598.276878 C595.168918,596.276878 587.168918,596.276878 577.168918,598.276878 C571.168918,598.276878 567.168918,596.276878 565.168918,590.276878 L565.168918,590.276878 C577.168918,578.276878 573.168918,566.276878 573.168918,552.276878 C573.168918,548.276878 571.168918,542.276878 577.168918,538.276878 C579.168918,536.276878 579.168918,530.276878 579.168918,528.276878 C579.168918,524.276878 577.168918,522.276878 575.168918,520.276878 C571.168918,512.276878 567.168918,506.276878 571.168918,498.276878 C573.168918,496.276878 571.168918,492.276878 571.168918,490.276878 C563.168918,474.276878 569.168918,458.276878 571.168918,440.276878 C575.168918,426.276878 577.168918,410.276878 581.168918,394.276878 C585.168918,382.276878 593.168918,372.276878 601.168918,360.276878 C603.168918,354.276878 605.168918,348.276878 609.168918,344.276878 C615.168918,332.276878 621.168918,320.276878 627.168918,310.276878 C629.168918,304.276878 631.168918,300.276878 633.168918,296.276878 C639.168918,276.276878 645.168918,258.276878 649.168918,240.276878 C651.168918,232.276878 655.168918,228.276878 661.168918,222.276878 C665.168918,220.276878 667.168918,216.276878 671.168918,212.276878 C677.168918,204.276878 685.168918,198.276878 689.168918,188.276878 C691.168918,186.276878 693.168918,182.276878 693.168918,180.276878 C693.168918,172.276878 691.168918,164.276878 691.168918,156.276878 C691.168918,150.276878 695.168918,146.276878 697.168918,144.276878 C701.168918,136.276878 707.168918,130.276878 713.168918,122.276878 C717.168918,118.276878 719.168918,112.276878 723.168918,108.276878 C733.168918,100.276878 735.168918,92.2768775 735.168918,82.2768775 C733.168918,72.2768775 735.168918,62.2768775 735.168918,54.2768775 C725.168918,52.2768775 715.168918,52.2768775 707.168918,52.2768775 L685.168918,52.2768775 C669.168918,50.2768775 657.168918,56.2768775 645.168918,64.2768775 C633.168918,72.2768775 629.168918,80.2768775 627.168918,92.2768775 C627.168918,96.2768775 625.168918,98.2768775 621.168918,100.276878 C619.168918,102.276878 615.168918,104.276878 611.168918,106.276878 C607.168918,110.276878 603.168918,116.276878 605.168918,122.276878 C605.168918,132.276878 603.168918,142.276878 605.168918,150.276878 C605.168918,164.276878 601.168918,176.276878 591.168918,186.276878 C591.168918,186.276878 589.168918,186.276878 589.168918,184.276878 L577.168918,136.276878 C577.168918,130.276878 581.168918,122.276878 581.168918,116.276878 C583.168918,104.276878 583.168918,94.2768775 573.168918,86.2768775 C571.168918,84.2768775 571.168918,82.2768775 571.168918,80.2768775 C571.168918,64.2768775 569.168918,50.2768775 571.168918,36.2768775 C571.168918,30.2768775 575.168918,22.2768775 577.168918,16.2768775 L749.168918,16.2768775 L749.168918,42.2768775 C749.168918,46.2768775 751.168918,50.2768775 751.168918,54.2768775 C753.168918,58.2768775 753.168918,60.2768775 753.168918,64.2768775 L753.168918,162.276878 L753.168918,168.276878 C745.168918,178.276878 745.168918,190.276878 747.168918,202.276878 C747.168918,206.276878 745.168918,208.276878 745.168918,210.276878 C739.168918,224.276878 731.168918,236.276878 725.168918,250.276878 C719.168918,260.276878 715.168918,268.276878 713.168918,280.276878 C711.168918,286.276878 711.168918,294.276878 711.168918,300.276878 C711.168918,306.276878 711.168918,308.276878 705.168918,312.276878 C699.168918,314.276878 695.168918,316.276878 691.168918,320.276878 C679.168918,328.276878 679.168918,342.276878 679.168918,354.276878 L679.168918,360.276878 C671.168918,372.276878 663.168918,380.276878 657.168918,390.276878 C649.168918,410.276878 639.168918,432.276878 631.168918,452.276878 C631.168918,456.276878 629.168918,460.276878 629.168918,464.276878 C629.168918,476.276878 625.168918,484.276878 621.168918,496.276878 C613.168918,518.276878 603.168918,542.276878 595.168918,562.276878 C593.168918,568.276878 597.168918,574.276878 603.168918,572.276878 C609.168918,572.276878 613.168918,570.276878 617.168918,568.276878 C627.168918,562.276878 639.168918,558.276878 651.168918,556.276878 C661.168918,556.276878 669.168918,550.276878 673.168918,542.276878 C679.168918,532.276878 685.168918,524.276878 691.168918,516.276878 C697.168918,508.276878 705.168918,502.276878 713.168918,500.276878 C715.168918,500.276878 719.168918,496.276878 719.168918,494.276878 C723.168918,488.276878 723.168918,482.276878 725.168918,476.276878 L731.168918,470.276878 Z M413.168918,22.2768775 C417.168918,14.2768775 419.168918,14.2768775 425.168918,14.2768775 L527.168918,14.2768775 C533.168918,14.2768775 535.168918,18.2768775 537.168918,22.2768775 C539.168918,26.2768775 537.168918,30.2768775 533.168918,32.2768775 C521.168918,38.2768775 509.168918,44.2768775 507.168918,58.2768775 C505.168918,62.2768775 507.168918,68.2768775 509.168918,74.2768775 C513.168918,78.2768775 515.168918,84.2768775 509.168918,88.2768775 C503.168918,94.2768775 503.168918,100.276878 503.168918,106.276878 L503.168918,148.276878 C505.168918,178.276878 505.168918,208.276878 505.168918,236.276878 C505.168918,242.276878 505.168918,248.276878 503.168918,252.276878 C503.168918,262.276878 505.168918,274.276878 509.168918,284.276878 C509.168918,288.276878 511.168918,292.276878 511.168918,298.276878 C511.168918,300.276878 509.168918,302.276878 509.168918,304.276878 C507.168918,310.276878 501.168918,314.276878 503.168918,320.276878 C503.168918,342.276878 507.168918,362.276878 507.168918,382.276878 C509.168918,392.276878 511.168918,402.276878 501.168918,410.276878 C497.168918,412.276878 495.168918,420.276878 497.168918,424.276878 C499.168918,438.276878 499.168918,452.276878 505.168918,466.276878 C513.168918,482.276878 509.168918,500.276878 507.168918,518.276878 C507.168918,520.276878 505.168918,524.276878 503.168918,526.276878 C499.168918,530.276878 497.168918,534.276878 499.168918,542.276878 C499.168918,546.276878 501.168918,552.276878 503.168918,556.276878 C505.168918,562.276878 509.168918,566.276878 513.168918,568.276878 C519.168918,574.276878 527.168918,578.276878 535.168918,582.276878 C543.168918,586.276878 545.168918,594.276878 545.168918,602.276878 L487.168918,602.276878 C479.168918,602.276878 469.168918,602.276878 461.168918,604.276878 C455.168918,606.276878 449.168918,608.276878 443.168918,612.276878 C435.168918,618.276878 435.168918,618.276878 427.168918,608.276878 C435.168918,602.276878 443.168918,594.276878 451.168918,586.276878 C453.168918,584.276878 455.168918,580.276878 455.168918,576.276878 C457.168918,554.276878 459.168918,530.276878 461.168918,508.276878 C461.168918,504.276878 463.168918,502.276878 463.168918,498.276878 C465.168918,492.276878 467.168918,486.276878 465.168918,482.276878 C457.168918,470.276878 459.168918,458.276878 467.168918,444.276878 L467.168918,436.276878 L467.168918,340.276878 L467.168918,196.276878 C467.168918,194.276878 465.168918,190.276878 467.168918,190.276878 C475.168918,184.276878 469.168918,180.276878 467.168918,172.276878 C463.168918,162.276878 465.168918,150.276878 463.168918,140.276878 C463.168918,120.276878 461.168918,100.276878 461.168918,78.2768775 C461.168918,70.2768775 459.168918,60.2768775 459.168918,50.2768775 C459.168918,44.2768775 455.168918,40.2768775 449.168918,38.2768775 C443.168918,34.2768775 437.168918,34.2768775 431.168918,28.2768775 C425.168918,26.2768775 419.168918,26.2768775 413.168918,22.2768775 Z"></path>
  </g>
</svg>