<?xml version="1.0" standalone="no"?>
<!DOCTYPE svg PUBLIC "-//W3C//DTD SVG 1.1//EN" "http://www.w3.org/Graphics/SVG/1.1/DTD/svg11.dtd" >
<svg xmlns="http://www.w3.org/2000/svg" xmlns:xlink="http://www.w3.org/1999/xlink" version="1.1" viewBox="-10 0 1044 1024">
   <path fill="currentColor"
d="M534.528 357.688c78.8477 -16.3848 143.359 -87.04 143.359 -191.488c0 -110.592 -80.8955 -211.968 -239.615 -211.968h-438.272v832.512h452.608c159.743 0 242.688 -100.353 242.688 -225.28c-1.02344 -103.424 -70.6562 -189.439 -160.768 -203.775zM177.152 110.904
h222.208c60.416 0 97.2793 35.8398 97.2793 87.04c0 53.248 -37.8877 87.04 -97.2793 87.04h-222.208v-174.08zM407.552 631.096h-230.399v-189.439h229.376c68.6074 0 106.496 41.9834 106.496 95.2314c0 59.3926 -39.9365 94.208 -105.473 94.208zM913.408 -43.7197
c-53.248 0 -98.3047 45.0557 -98.3047 98.3037s37.8887 90.1123 84.9922 90.1123c10.2402 0 19.4561 -1.02441 23.5527 -4.09668c-10.2402 45.0566 -56.3203 97.2803 -96.2568 118.784l68.6084 56.3203c76.7998 -54.2725 128 -138.24 128 -232.448
c0 -80.8955 -52.2236 -126.976 -110.592 -126.976z" />
</svg>
