<?xml version="1.0" encoding="UTF-8"?>
<svg width="1025px" height="1025px" viewBox="0 0 1025 1025" version="1.1" xmlns="http://www.w3.org/2000/svg" xmlns:xlink="http://www.w3.org/1999/xlink">
  <g id="Blogger" transform="translate(0.2781, 0.0926)" fill="currentColor" fill-rule="nonzero">
    <path d="M952,390 L908,390 C864,390 840,360 840,328 L840,300 C840,154 678,0 540,0 L324,0 C142,0 0,144 0,326 L0,714 C0,884 146,1024 298,1024 L708,1024 C876,1024 1024,882 1024,710 L1024,464 C1024,418 1008,390 952,390 Z M324,266 L510,266 C542,266 570,294 570,328 C570,360 542,390 510,390 L324,390 C292,390 264,360 264,328 C264,296 292,266 324,266 Z M694,758 L324,758 C292,758 264,734 264,702 C264,668 292,646 324,646 L694,646 C726,646 754,668 754,702 C754,734 726,758 694,758 Z"></path>
  </g>
</svg>