<?xml version="1.0" encoding="UTF-8"?>
<svg width="1025px" height="834px" viewBox="0 0 1025 834" version="1.1" xmlns="http://www.w3.org/2000/svg" xmlns:xlink="http://www.w3.org/1999/xlink">
  <g id="Bloglovin" transform="translate(0.972, 0.6046)" fill="currentColor" fill-rule="nonzero">
    <path d="M534.528,403.456 C613.3757,387.0712 677.887,316.416 677.887,211.968 C677.887,101.376 596.9915,2.84217094e-14 438.272,2.84217094e-14 L0,2.84217094e-14 L0,832.512 L452.608,832.512 C612.351,832.512 695.296,732.159 695.296,607.232 C694.27256,503.808 624.6398,417.793 534.528,403.457 L534.528,403.456 Z M177.152,156.672 L399.36,156.672 C459.776,156.672 496.6393,192.5118 496.6393,243.712 C496.6393,296.96 458.7516,330.752 399.36,330.752 L177.152,330.752 L177.152,156.672 Z M407.552,676.8644 L177.153,676.8644 L177.153,487.425 L406.529,487.425 C475.1364,487.425 513.025,529.4084 513.025,582.6564 C513.025,642.049 473.0885,676.8644 407.552,676.8644 L407.552,676.8644 Z M913.408,2.04792 C860.16,2.04792 815.1033,47.104 815.1033,100.352 C815.1033,153.6 852.992,190.4643 900.0955,190.4643 C910.3357,190.4643 919.5516,189.43989 923.6482,186.36762 C913.408,231.42422 867.3279,283.64792 827.3914,305.15162 L895.9998,361.47192 C972.7996,307.19942 1023.9998,223.23192 1023.9998,129.02392 C1023.9998,48.12842 971.7762,2.04792 913.4078,2.04792 L913.408,2.04792 Z"></path>
  </g>
</svg>