<?xml version="1.0" standalone="no"?>
<!DOCTYPE svg PUBLIC "-//W3C//DTD SVG 1.1//EN" "http://www.w3.org/Graphics/SVG/1.1/DTD/svg11.dtd" >
<svg xmlns="http://www.w3.org/2000/svg" xmlns:xlink="http://www.w3.org/1999/xlink" version="1.1" viewBox="-10 0 1044 1024">
   <path fill="currentColor"
d="M952 249h-44c-44 0 -68 -30 -68 -62v-28c0 -146 -162 -300 -300 -300h-216c-182 0 -324 144 -324 326v388c0 170 146 310 298 310h410c168 0 316 -142 316 -314v-246c0 -46 -16 -74 -72 -74zM324 125h186c32 0 60 28 60 62c0 32 -28 62 -60 62h-186
c-32 0 -60 -30 -60 -62s28 -62 60 -62zM694 617h-370c-32 0 -60 -24 -60 -56c0 -34 28 -56 60 -56h370c32 0 60 22 60 56c0 32 -28 56 -60 56z" />
</svg>
