<?xml version="1.0" encoding="UTF-8"?>
<svg width="842px" height="749px" viewBox="0 0 842 749" version="1.1" xmlns="http://www.w3.org/2000/svg" xmlns:xlink="http://www.w3.org/1999/xlink">
  <g id="BlueSky" transform="translate(0.1226, 0.8284)" fill="currentColor" fill-rule="nonzero">
    <path d="M420.5026,331.646644 C382.4196,257.585144 278.7166,119.566644 182.2986,51.4976435 C89.9334,-13.7093565 54.6976,-2.41155648 31.5986,8.02794352 C4.8613,20.1109435 2.84217094e-14,61.1578435 2.84217094e-14,85.3082435 C2.84217094e-14,109.457644 13.2402,283.309244 21.875,312.328244 C50.4092,408.212044 151.989,440.611244 245.535,430.215244 C250.3182,429.50626 255.16586,428.852944 260.078,428.244544 C255.25964,429.015052 250.40905,429.675204 245.535,430.215244 C108.444,450.519944 -13.309,500.480844 146.3758,678.251244 C322.0288,860.119244 387.1078,639.255144 420.5028,527.272244 C453.8993,639.253244 492.3632,852.154244 691.4818,678.251244 C841.0061,527.272244 732.5629,450.526244 595.4701,430.217244 C590.59608,429.674275 585.74647,429.020954 580.9271,428.249474 C585.83921,428.853966 590.68589,429.511194 595.4701,430.217244 C689.017,440.619544 790.5961,408.216244 819.1311,312.333244 C827.7688,283.312744 841.0061,109.463244 841.0061,85.3132435 C841.0061,61.1628435 836.1438,20.1150435 809.4075,8.03294352 C786.3079,-2.40355648 751.0716,-13.7033565 658.7075,51.5026435 C562.2895,119.571944 458.5855,257.585644 420.5045,331.647644 L420.503523,331.647644 L420.5026,331.646644 Z"></path>
  </g>
</svg>