<?xml version="1.0" standalone="no"?>
<!DOCTYPE svg PUBLIC "-//W3C//DTD SVG 1.1//EN" "http://www.w3.org/Graphics/SVG/1.1/DTD/svg11.dtd" >
<svg xmlns="http://www.w3.org/2000/svg" xmlns:xlink="http://www.w3.org/1999/xlink" version="1.1" viewBox="-10 0 1034 1024">
   <path fill="currentColor"
d="M512 328.865c-38.083 -74.0615 -141.786 -212.08 -238.204 -280.149c-92.3652 -65.207 -127.601 -53.9092 -150.7 -43.4697c-26.7373 12.083 -31.5986 53.1299 -31.5986 77.2803c0 24.1494 13.2402 198.001 21.875 227.02
c28.5342 95.8838 130.114 128.283 223.66 117.887c4.7832 -0.708984 9.63086 -1.3623 14.543 -1.9707c-4.81836 0.770508 -9.66895 1.43066 -14.543 1.9707c-137.091 20.3047 -258.844 70.2656 -99.1592 248.036c175.653 181.868 240.732 -38.9961 274.127 -150.979
c33.3965 111.981 71.8604 324.882 270.979 150.979c149.524 -150.979 41.0811 -227.725 -96.0117 -248.034c-4.87402 -0.542969 -9.72363 -1.19629 -14.543 -1.96777c4.91211 0.604492 9.75879 1.26172 14.543 1.96777c93.5469 10.4023 195.126 -22.001 223.661 -117.884
c8.6377 -29.0205 21.875 -202.87 21.875 -227.02c0 -24.1504 -4.8623 -65.1982 -31.5986 -77.2803c-23.0996 -10.4365 -58.3359 -21.7363 -150.7 43.4697c-96.418 68.0693 -200.122 206.083 -238.203 280.145h-0.000976562z" />
</svg>
