<?xml version="1.0" encoding="UTF-8"?>
<svg width="914px" height="1025px" viewBox="0 0 914 1025" version="1.1" xmlns="http://www.w3.org/2000/svg" xmlns:xlink="http://www.w3.org/1999/xlink">
  <g id="Bonanza" transform="translate(0.6364, 0.711)" fill="currentColor" fill-rule="nonzero">
    <path d="M424.9603,0 C424.9603,4.0957 423.93589,9.21582 423.93589,13.3115 L423.93589,365.5685 C423.93589,369.6642 423.93589,374.78432 424.9603,382.9757 C438.2718,369.6642 447.4876,358.4005 458.7523,349.1837 C580.6073,242.6887 779.2643,268.2882 862.2083,425.9845 C890.8802,480.256 905.2161,538.6245 910.3362,599.0405 C916.47975,669.6967 912.38405,740.3525 892.928,808.9605 C875.5198,868.3521 847.8723,921.6005 799.7444,962.5605 C693.2484,1053.6972 530.4324,1042.4326 436.2234,936.9609 C427.00758,926.7207 422.9119,927.74508 413.6951,936.9609 C393.2156,958.4648 372.7351,978.9453 352.2556,999.4248 C346.11107,1005.56933 338.9431,1008.64062 330.7517,1008.64062 L105.4717,1008.64062 C92.1602,1008.64062 89.0879,1004.54492 89.0879,992.25682 L89.0879,222.20882 C89.0879,200.70492 89.0879,200.70492 68.6074,200.70492 C51.1992,200.70492 33.792,199.68051 17.4072,200.70492 C4.0957,201.72836 0,197.63265 0,184.32112 C1.02344,122.88072 0,61.44112 0,0 L424.96,0 L424.9603,0 Z M423.9363,654.336 L423.9363,757.76 C423.9363,774.1438 428.032,788.4807 435.2,802.8166 C447.4881,827.3918 466.9441,837.632 493.5682,837.632 C520.1923,837.632 537.6004,824.3205 547.8407,801.7922 C556.03211,783.3606 559.1044,764.9279 559.1044,744.4484 L559.1044,565.2484 C559.1044,548.8646 557.05655,532.4808 550.91299,516.0961 C540.67279,487.4242 520.19229,473.0883 491.52039,473.0883 C462.84849,473.0883 441.34459,487.4242 431.10439,516.0961 C427.00869,527.3607 423.9363,539.6488 423.9363,552.9604 L423.9363,654.3364 L423.9363,654.336 Z"></path>
  </g>
</svg>