<?xml version="1.0" standalone="no"?>
<!DOCTYPE svg PUBLIC "-//W3C//DTD SVG 1.1//EN" "http://www.w3.org/Graphics/SVG/1.1/DTD/svg11.dtd" >
<svg xmlns="http://www.w3.org/2000/svg" xmlns:xlink="http://www.w3.org/1999/xlink" version="1.1" viewBox="-10 0 1034 1024">
   <path fill="currentColor"
d="M481.28 -141c0 4.0957 -1.02441 9.21582 -1.02441 13.3115v352.257c0 4.0957 0 9.21582 1.02441 17.4072c13.3115 -13.3115 22.5273 -24.5752 33.792 -33.792c121.855 -106.495 320.512 -80.8955 403.456 76.8008c28.6719 54.2715 43.0078 112.64 48.1279 173.056
c6.14355 70.6562 2.04785 141.312 -17.4082 209.92c-17.4082 59.3916 -45.0557 112.64 -93.1836 153.6c-106.496 91.1367 -269.312 79.8721 -363.521 -25.5996c-9.21582 -10.2402 -13.3115 -9.21582 -22.5283 0c-20.4795 21.5039 -40.96 41.9844 -61.4395 62.4639
c-6.14453 6.14453 -13.3125 9.21582 -21.5039 9.21582h-225.28c-13.3115 0 -16.3838 -4.0957 -16.3838 -16.3838v-770.048c0 -21.5039 0 -21.5039 -20.4805 -21.5039c-17.4082 0 -34.8154 -1.02441 -51.2002 0c-13.3115 1.02344 -17.4072 -3.07227 -17.4072 -16.3838
c1.02344 -61.4404 0 -122.88 0 -184.32h424.96zM480.256 513.336v103.424c0 16.3838 4.0957 30.7207 11.2637 45.0566c12.2881 24.5752 31.7441 34.8154 58.3682 34.8154s44.0322 -13.3115 54.2725 -35.8398c8.19141 -18.4316 11.2637 -36.8643 11.2637 -57.3438v-179.2
c0 -16.3838 -2.04785 -32.7676 -8.19141 -49.1523c-10.2402 -28.6719 -30.7207 -43.0078 -59.3926 -43.0078s-50.1758 14.3359 -60.416 43.0078c-4.0957 11.2646 -7.16797 23.5527 -7.16797 36.8643v101.376z" />
</svg>
