<?xml version="1.0" standalone="no"?>
<!DOCTYPE svg PUBLIC "-//W3C//DTD SVG 1.1//EN" "http://www.w3.org/Graphics/SVG/1.1/DTD/svg11.dtd" >
<svg xmlns="http://www.w3.org/2000/svg" xmlns:xlink="http://www.w3.org/1999/xlink" version="1.1" viewBox="-11 0 1045 1024">
   <path fill="currentColor"
d="M548.864 342.328c11.2637 -10.2402 23.5518 -19.4561 34.8154 -29.6963c94.208 -90.1123 99.3281 -258.048 8.19238 -353.28c-59.3916 -61.4395 -148.48 -86.0156 -232.448 -88.0635h-256c-55.2959 -2.04785 -106.496 49.1523 -103.424 105.472v893.952h367.616
c105.472 -2.04785 220.16 -40.96 281.6 -132.096c56.3203 -82.9443 61.4404 -197.632 17.4082 -286.72c-24.5762 -50.1768 -68.6084 -84.9922 -117.76 -109.568zM193.536 111.928c1.02344 -21.5039 2.04785 -45.0557 19.4561 -59.3916
c19.4561 -19.4561 49.1514 -15.3604 74.752 -16.3838c43.0078 1.02344 91.1357 -6.14453 128 20.4795c54.2715 39.9365 56.3203 124.928 18.4316 177.152c-19.4561 25.5996 -51.2002 38.9121 -81.9199 39.9355c-52.2236 1.02441 -105.472 0 -157.696 0
c-1.02344 -53.248 -1.02344 -107.52 -1.02344 -161.792zM478.208 639.288c-19.4561 36.8643 -61.4404 59.3916 -103.424 60.416c-60.416 1.02344 -120.832 0 -181.248 0v-196.608c1.02344 -22.5273 4.0957 -49.1514 24.5762 -61.4395
c25.5996 -16.3838 56.3193 -10.2402 84.9912 -11.2646c50.1768 0 106.496 -4.0957 148.48 30.7207c50.1758 41.9834 56.3203 121.855 26.624 178.176zM1022.98 745.784c-3.07129 -68.6084 -78.8477 -121.856 -144.384 -101.376
c-54.2715 13.3115 -92.1602 69.6318 -83.9678 124.928c5.12012 60.416 65.5361 108.544 125.952 101.376c60.416 -4.0957 109.567 -64.5117 102.399 -124.928z" />
</svg>
