<?xml version="1.0" standalone="no"?>
<!DOCTYPE svg PUBLIC "-//W3C//DTD SVG 1.1//EN" "http://www.w3.org/Graphics/SVG/1.1/DTD/svg11.dtd" >
<svg xmlns="http://www.w3.org/2000/svg" xmlns:xlink="http://www.w3.org/1999/xlink" version="1.1" viewBox="-10 0 1044 1024">
   <path fill="currentColor"
d="M0 707.896v-673.793h229.376c69.6318 0 123.904 13.3125 162.816 40.9609c38.9111 27.6475 58.3672 66.5596 58.3672 115.712c0 35.8398 -11.2637 67.584 -34.8154 95.2314c-22.5283 27.6484 -53.248 47.1045 -92.1602 59.3926v1.02344
c47.1045 6.14453 84.9922 23.5518 113.664 53.248c27.6484 29.6963 41.9844 65.5361 41.9844 108.544c0 60.416 -21.5049 108.544 -64.5127 144.384c-43.0078 35.8408 -101.376 54.2725 -174.08 54.2725h-240.64v1.02441zM130.048 134.456v177.152h70.6562
c34.8154 0 62.4639 -8.19238 81.9199 -24.5762s29.6963 -39.9365 29.6963 -70.6562c0 -54.2725 -38.9121 -81.9199 -116.736 -81.9199h-65.5361zM130.048 411.96v195.584h90.1123c38.9121 0 68.6074 -9.21582 90.1123 -26.624
c21.5039 -17.4082 31.7432 -41.9844 31.7432 -73.7275c0 -63.4883 -41.9834 -95.2324 -125.951 -95.2324h-86.0166zM544.768 707.896v-673.793h229.376c69.6328 0 123.904 13.3125 162.816 40.9609c38.9121 27.6475 58.3682 66.5596 58.3682 115.712
c0 35.8398 -11.2637 67.584 -34.8164 95.2314c-22.5273 27.6484 -53.248 47.1045 -92.1602 59.3926v1.02344c47.1045 6.14453 84.9922 23.5518 113.664 53.248c27.6484 29.6963 41.9844 65.5361 41.9844 108.544c0 60.416 -21.5039 108.544 -64.5117 144.384
c-43.0078 35.8408 -101.376 54.2725 -174.08 54.2725h-240.641v1.02441zM674.816 134.456v177.152h70.6553c34.8164 0 62.4639 -8.19238 81.9199 -24.5762s29.6963 -39.9365 29.6963 -70.6562c0 -54.2725 -38.9121 -81.9199 -116.736 -81.9199h-65.5352zM674.816 411.96
v195.584h90.1113c38.9121 0 68.6084 -9.21582 90.1123 -26.624s31.7441 -41.9844 31.7441 -73.7275c0 -63.4883 -41.9844 -95.2324 -125.952 -95.2324h-86.0156z" />
</svg>
