<?xml version="1.0" encoding="UTF-8"?>
<svg width="1025px" height="1001px" viewBox="0 0 1025 1001" version="1.1" xmlns="http://www.w3.org/2000/svg" xmlns:xlink="http://www.w3.org/1999/xlink">
  <g id="Booking" transform="translate(0.7249, 0.0684)" fill="currentColor" fill-rule="nonzero">
    <path d="M548.995795,471.099215 C560.259495,460.859015 572.547595,451.643115 583.811195,441.402915 C678.019195,351.290615 683.139295,183.354915 592.003575,88.122915 C532.611975,26.683415 443.523575,2.10731502 359.555575,0.0594150225 L103.555575,0.0594150225 C48.2596753,-1.98843498 -2.94042474,49.211715 0.131575255,105.531415 L0.131575255,999.483415 L367.747575,999.483415 C473.219575,997.435565 587.907575,958.523415 649.347575,867.387415 C705.667875,784.443115 710.787975,669.755415 666.755775,580.667415 C642.179575,530.490615 598.147375,495.675215 548.995775,471.099415 L548.995795,471.099215 Z M193.667795,240.699215 C194.691235,219.195315 195.715645,195.643515 213.123895,181.307615 C232.579995,161.851515 262.275295,165.947215 287.875895,164.923815 C330.883695,165.947255 379.011595,158.779285 415.875895,185.403315 C470.147395,225.339815 472.196195,310.331315 434.307495,362.555315 C414.851395,388.154915 383.107295,401.467415 352.387595,402.490815 C300.163995,403.515225 246.915595,402.490815 194.691595,402.490815 C193.667795,349.242815 193.667795,294.970815 193.667795,240.698815 L193.667795,240.699215 Z M478.339795,768.059215 C458.883695,804.923515 416.899395,827.450815 374.915795,828.475215 C314.499795,829.498655 254.083795,828.475215 193.667795,828.475215 L193.667795,631.867215 C194.691235,609.339915 197.763495,582.715815 218.243995,570.427715 C243.843595,554.043915 274.563295,560.187515 303.235195,559.163115 C353.411995,559.163115 409.731195,555.067415 451.715195,589.883815 C501.890995,631.867215 508.035495,711.738815 478.339195,768.059815 L478.339795,768.059215 Z M1023.1118,874.555215 C1020.04051,805.946815 944.264095,752.699215 878.727795,773.179215 C824.456295,786.490715 786.567595,842.811015 794.759995,898.107215 C799.880115,958.523215 860.296095,1006.65122 920.711995,999.483215 C981.127995,995.387515 1030.279,934.971515 1023.111,874.555215 L1023.1118,874.555215 Z"></path>
  </g>
</svg>