<?xml version="1.0" encoding="UTF-8"?>
<svg width="1025px" height="674px" viewBox="0 0 1025 674" version="1.1" xmlns="http://www.w3.org/2000/svg" xmlns:xlink="http://www.w3.org/1999/xlink">
  <g id="Bookbub" transform="translate(0.7209, 0.0684)" fill="currentColor" fill-rule="nonzero">
    <path d="M-2.84217094e-14,673.79325 L-2.84217094e-14,0 L229.3767,0 C299.0085,0 353.2807,13.3125 392.1927,40.9609 C431.1038,68.6084 450.5599,107.5205 450.5599,156.6729 C450.5599,192.5127 439.2962,224.2569 415.7445,251.9043 C393.2162,279.5527 362.4965,299.0088 323.5843,311.2969 L323.5843,312.32034 C370.6888,318.46487 408.5765,335.87214 437.2483,365.56834 C464.8967,395.26464 479.2327,431.10444 479.2327,474.11234 C479.2327,534.52834 457.7278,582.65634 414.72,618.49634 C371.7122,654.33714 313.344,672.76884 240.64,672.76884 L-2.84217094e-14,672.76884 L-2.84217094e-14,673.79325 L-2.84217094e-14,673.79325 Z M130.0487,100.3527 L130.0487,277.505 L200.7049,277.505 C235.5203,277.505 263.1688,269.31262 282.6248,252.9288 C302.0808,236.54498 312.3211,212.9923 312.3211,182.2726 C312.3211,128.0001 273.409,100.3527 195.5851,100.3527 L130.0487,100.3527 L130.0487,100.3527 Z M130.0487,377.857 L130.0487,573.441 L220.161,573.441 C259.0731,573.441 288.7684,564.22518 310.2733,546.817 C331.7772,529.4088 342.0165,504.8326 342.0165,473.0895 C342.0165,409.6012 300.0331,377.857 216.0655,377.857 L130.0487,377.857 L130.0487,377.857 Z M544.768,673.79325 L544.768,0 L774.1447,0 C843.7775,0 898.0487,13.3125 936.9607,40.9609 C975.8728,68.6084 995.3289,107.5205 995.3289,156.6729 C995.3289,192.5127 984.0652,224.2569 960.5125,251.9043 C937.9852,279.5527 907.2645,299.0088 868.3523,311.2969 L868.3523,312.32034 C915.4568,318.46487 953.3445,335.87214 982.0163,365.56834 C1009.6647,395.26464 1024.0007,431.10444 1024.0007,474.11234 C1024.0007,534.52834 1002.4968,582.65634 959.489,618.49634 C916.4812,654.33714 858.113,672.76884 785.409,672.76884 L544.768,672.76884 L544.768,673.79325 L544.768,673.79325 Z M674.8167,100.3527 L674.8167,277.505 L745.472,277.505 C780.2884,277.505 807.9359,269.31262 827.3919,252.9288 C846.8479,236.54498 857.0882,212.9923 857.0882,182.2726 C857.0882,128.0001 818.1761,100.3527 740.3522,100.3527 L674.8167,100.3527 L674.8167,100.3527 Z M674.8167,377.857 L674.8167,573.441 L764.928,573.441 C803.8401,573.441 833.5364,564.22518 855.0403,546.817 C876.5442,529.40882 886.7844,504.8326 886.7844,473.0895 C886.7844,409.6012 844.8,377.857 760.8324,377.857 L674.8167,377.857 L674.8167,377.857 Z"></path>
  </g>
</svg>