<?xml version="1.0" standalone="no"?>
<!DOCTYPE svg PUBLIC "-//W3C//DTD SVG 20010904//EN"
 "http://www.w3.org/TR/2001/REC-SVG-20010904/DTD/svg10.dtd">
<svg version="1.0" xmlns="http://www.w3.org/2000/svg"
 width="700.000000pt" height="700.000000pt" viewBox="0 0 700.000000 700.000000"
 preserveAspectRatio="xMidYMid meet">
<metadata>
Created by potrace 1.11, written by Peter Selinger 2001-2013
</metadata>
<g transform="translate(0.000000,700.000000) scale(0.100000,-0.100000)"
fill="#000000" stroke="none">
<path d="M809 5019 c-79 -12 -126 -46 -165 -119 -18 -33 -19 -79 -21 -990 -1
-525 2 -977 7 -1005 22 -129 37 -186 77 -280 119 -285 348 -500 642 -604 167
-60 414 -75 581 -36 308 72 543 246 716 531 9 15 14 11 37 -29 124 -210 335
-383 573 -467 79 -28 101 -33 219 -50 61 -10 260 -7 305 3 233 54 305 86 490
214 34 24 147 138 190 192 109 137 190 329 216 511 10 76 12 227 3 275 -4 22
-10 60 -14 85 -27 181 -160 422 -315 568 -133 127 -374 257 -487 264 -5 0 -18
4 -30 9 -54 20 -245 30 -353 17 -161 -19 -366 -97 -495 -189 -83 -60 -219
-201 -274 -286 -30 -46 -55 -83 -56 -83 -2 0 -18 24 -36 53 -39 61 -135 181
-176 218 -96 89 -252 186 -367 228 -314 116 -697 73 -966 -109 -25 -16 -48
-30 -51 -30 -3 0 -6 213 -6 473 -1 461 -1 474 -22 513 -26 50 -39 65 -76 90
-44 30 -94 41 -146 33z m998 -1344 c72 -10 193 -60 259 -106 176 -123 275
-312 276 -529 2 -342 -261 -627 -598 -647 -187 -11 -363 51 -489 173 -306 296
-258 793 97 1017 139 87 286 117 455 92z m2003 -26 c110 -35 218 -108 295
-200 300 -358 128 -902 -328 -1037 -54 -16 -91 -20 -180 -18 -62 2 -119 5
-127 8 -8 3 -28 9 -45 13 -195 52 -371 225 -436 429 -28 88 -35 233 -15 325
58 272 294 484 566 508 36 3 66 6 67 8 8 6 148 -19 203 -36z"/>
<path d="M4709 4084 c-89 -27 -154 -116 -150 -203 2 -43 24 -110 39 -121 4 -3
104 -124 222 -270 118 -146 249 -307 292 -359 68 -82 76 -96 64 -110 -7 -9
-22 -27 -34 -41 -11 -14 -58 -71 -104 -126 -45 -56 -96 -119 -113 -140 -16
-21 -44 -54 -60 -74 -53 -61 -249 -303 -273 -337 -34 -49 -43 -121 -21 -178
37 -98 122 -150 237 -146 83 3 134 38 232 160 19 24 71 87 115 140 44 53 134
163 200 244 65 81 123 147 127 147 3 0 35 -35 69 -77 35 -43 66 -80 69 -83 3
-3 53 -63 110 -135 58 -71 107 -132 110 -135 3 -3 42 -50 87 -105 102 -125
157 -158 262 -157 41 1 114 31 150 62 64 55 85 173 43 244 -11 18 -151 194
-311 391 -161 196 -290 362 -287 369 4 9 204 258 334 415 208 250 272 336 281
381 15 71 2 123 -44 179 -82 97 -253 105 -346 16 -18 -18 -144 -168 -279 -333
-177 -217 -248 -297 -257 -290 -7 5 -56 64 -110 131 -54 67 -103 127 -109 133
-5 6 -74 90 -152 185 -78 96 -157 184 -175 196 -68 43 -138 52 -218 27z"/>
</g>
</svg>
