<?xml version="1.0" standalone="no"?>
<!DOCTYPE svg PUBLIC "-//W3C//DTD SVG 1.1//EN" "http://www.w3.org/Graphics/SVG/1.1/DTD/svg11.dtd" >
<svg xmlns="http://www.w3.org/2000/svg" xmlns:xlink="http://www.w3.org/1999/xlink" version="1.1" viewBox="-10 0 1034 1024">
   <path fill="currentColor"
d="M1006 637c-2 -2 -6 -4 -8 -6c-26 -12 -54 -24 -80 -36c-22 -12 -46 -12 -70 0c-100 46 -200 94 -300 140c-24 10 -48 12 -70 0c-100 -46 -202 -94 -302 -140c-24 -12 -48 -12 -72 0s-50 24 -74 34c-8 4 -20 8 -20 20c0 10 12 12 20 16c148 70 296 140 446 208
c24 12 48 12 70 2l450 -210c4 -2 8 -4 10 -6c10 -6 10 -16 0 -22zM16 105c4 2 10 6 14 8c150 68 298 138 446 208c24 10 48 10 72 0c148 -70 298 -140 446 -208c4 -4 10 -6 14 -10c8 -4 8 -12 0 -18c-4 -4 -10 -6 -14 -10c-148 -68 -296 -138 -444 -206
c-26 -12 -50 -12 -76 0c-148 68 -296 138 -444 208c-6 2 -10 4 -14 6c-8 6 -8 16 0 22zM1006 361c-2 -2 -6 -4 -8 -6c-26 -12 -54 -24 -80 -36c-22 -12 -46 -12 -70 0c-100 46 -200 94 -300 140c-24 10 -48 10 -70 0c-100 -46 -202 -94 -302 -140c-24 -12 -48 -12 -72 0
s-50 24 -74 34c-8 4 -20 8 -20 18c0 12 12 14 20 18c148 70 296 140 446 208c24 12 48 12 70 2l450 -210c4 -2 8 -4 10 -6c10 -6 10 -16 0 -22z" />
</svg>
