<?xml version="1.0" encoding="UTF-8"?>
<svg width="1005px" height="1023px" viewBox="0 0 1005 1023" version="1.1" xmlns="http://www.w3.org/2000/svg" xmlns:xlink="http://www.w3.org/1999/xlink">
  <g id="Buffer" transform="translate(0.1682, 0.6137)" fill="currentColor" fill-rule="nonzero">
    <path d="M996,777 C994,775 990,773 988,771 C962,759 934,747 908,735 C886,723 862,723 838,735 C738,781 638,829 538,875 C514,885 490,887 468,875 C368,829 266,781 166,735 C142,723 118,723 94,735 C70,747 44,759 20,769 C12,773 0,777 0,789 C0,799 12,801 20,805 C168,875 316,945 466,1013 C490,1025 514,1025 536,1015 L986,805 C990,803 994,801 996,799 C1006,793 1006,783 996,777 Z M6,245 C10,247 16,251 20,253 C170,321 318,391 466,461 C490,471 514,471 538,461 C686,391 836,321 984,253 C988,249 994,247 998,243 C1006,239 1006,231 998,225 C994,221 988,219 984,215 C836,147 688,77 540,9 C514,-3 490,-3 464,9 C316,77 168,147 20,217 C14,219 10,221 6,223 C-2,229 -2,239 6,245 Z M996,501 C994,499 990,497 988,495 C962,483 934,471 908,459 C886,447 862,447 838,459 C738,505 638,553 538,599 C514,609 490,609 468,599 C368,553 266,505 166,459 C142,447 118,447 94,459 C70,471 44,483 20,493 C12,497 0,501 0,511 C0,523 12,525 20,529 C168,599 316,669 466,737 C490,749 514,749 536,739 L986,529 C990,527 994,525 996,523 C1006,517 1006,507 996,501 Z"></path>
  </g>
</svg>