<?xml version="1.0" standalone="no"?>
<!DOCTYPE svg PUBLIC "-//W3C//DTD SVG 1.1//EN" "http://www.w3.org/Graphics/SVG/1.1/DTD/svg11.dtd" >
<svg xmlns="http://www.w3.org/2000/svg" xmlns:xlink="http://www.w3.org/1999/xlink" version="1.1" viewBox="-10 0 1034 1024">
   <path fill="currentColor"
d="M415.446 -69.0371c45.2168 -4.00195 90.6602 -4.75586 135.983 -2.25488c37.7617 2.0293 76.3545 5.58887 113.06 15.2734c7.79785 1.93262 15.4805 4.30957 23.0098 7.11914c14.6914 5.68457 29.4658 14.2764 36.5859 28.9688
c3.90723 7.81445 5.87109 16.8838 7.44043 25.7734l8.82715 52.1689c1.2832 7.57129 2.9209 15.7363 8.46387 20.9932c5.54102 5.25684 13.7412 6.34863 20.9688 8.8877c22.5459 7.93945 32.4307 28.6953 36.7871 50.6611l4.85352 24.4814
c5.92285 23.5703 2.58691 46.9473 -14.1699 64.8779c-10.5234 11.2617 -24.6719 16.1855 -39.4697 19.0713c-3.75195 0.723633 -7.17285 2.63477 -9.75488 5.45508c-2.58203 2.81934 -4.1875 6.39355 -4.57812 10.1963l-45.5361 444.068
c-5.54102 53.6025 -44.3711 88.1602 -96.1221 97.6533c-27.1641 5.00293 -54.8945 5.28906 -82.584 4.90039l-23.709 -0.404297c-27.6982 -0.450195 -55.6582 -1.35156 -82.9521 -5.74316c-46.7324 -7.5 -84.4697 -34.1289 -89.8926 -83.542l-43.2559 -415.207
c-1.44824 -13.8838 12.5791 -24.373 24.9209 -24.9199c14.4189 -0.65332 23.5674 11.9971 24.9209 24.9199l39.6846 380.733c2.2959 20.3369 6.12012 42.041 21.2285 56.6055c17.3604 16.7363 43.6357 20.6465 67.1533 21.2676l9.87598 0.0927734
c24.0781 -0.131836 48.1445 0.938477 72.2227 0.806641c21.7197 -0.196289 43.3555 -2.72656 64.5352 -7.5459c23.1162 -5.25977 38.96 -19.6289 43.4678 -43.0312c2.86035 -14.8818 3.07422 -30.415 4.59375 -45.4746l40.0273 -389.729
c0.270508 -2.63965 -0.0517578 -5.30859 -0.947266 -7.80957c-0.893555 -2.49902 -2.33691 -4.76758 -4.2207 -6.63867s-4.16211 -3.29492 -6.66992 -4.1709c-2.50488 -0.875977 -5.17773 -1.18066 -7.81445 -0.889648c-8.44922 0.932617 -16.9121 1.79492 -25.3838 2.58691
c-104.048 9.68848 -208.835 8.16895 -312.556 -4.53516c-26.4043 -3.27441 -52.7373 -7.12012 -78.9287 -11.8672c-27.8398 -5.03027 -47.1943 -27.5293 -50.3877 -55.2158c-1.4834 -12.8301 2.43262 -26.2734 4.94922 -38.7695l2.41309 -12.5078
c1.65723 -8.31543 3.65137 -16.5273 7.40137 -24.2803c5.46875 -10.9102 14.1318 -19.8936 24.8379 -25.752c13.042 -7.12012 26.832 -8.30762 41.25 -5.93457c11.9268 1.93457 23.8057 4.14258 35.7559 5.93457l15.3555 2.19434l16.8037 2.10059
c51.7383 5.99805 103.777 9.02539 155.862 9.06543c13.084 0.0244141 26.1758 -0.137695 39.2695 -0.486328c25.6953 -0.664062 51.3389 -2.06152 76.9336 -4.18945c12.8799 -1.06836 25.7393 -2.33398 38.5801 -3.79688l9.77148 -1.14453l13.8896 -1.78613
c1.27832 -0.165039 2.41699 -0.571289 3.43555 -1.19531c1.01953 -0.624023 1.90039 -1.4502 2.58691 -2.42871c0.685547 -0.979492 1.16309 -2.08789 1.39941 -3.26074c0.239258 -1.1709 0.231445 -2.37891 -0.0166016 -3.54785l-13.418 -62.5498
c-0.626953 -2.6748 -1.36816 -5.31836 -2.38965 -7.82227c-5.98047 -14.7305 -22.4951 -16.6016 -36.3838 -19.333l-2.93066 -0.602539c-9.72363 -2.08887 -19.499 -3.86523 -29.3252 -5.32812l-8.37598 -1.12793c-4.34473 -0.53418 -8.68848 -1.00879 -13.0557 -1.45996
c-20.3047 -2.06543 -40.6904 -3.2627 -61.0918 -3.85742c-42.0176 -1.39355 -84.082 0.0888672 -125.897 4.43848l-9.6543 1.28516c-1.61328 0.196289 -3.22461 0.363281 -4.83496 0.470703l-7.80957 1.18652c-7.71387 1.21191 -15.4023 2.59961 -23.0332 4.22559
c-1.05566 0.197266 -1.84961 0.691406 -2.41895 1.40137c-0.570312 0.708984 -0.880859 1.59277 -0.880859 2.50293c0 0.90918 0.310547 1.79297 0.880859 2.50293c0.569336 0.709961 1.36328 1.2041 2.25293 1.40039c8.80469 1.86328 17.7061 3.40625 26.6055 4.74707
l9.46973 1.29297c4.41504 0.545898 8.8291 1.03223 13.2568 1.49512c9.73047 0.989258 19.4854 1.80371 29.2646 2.44531c21.4307 1.41211 42.9219 2.01758 64.4033 2.01758c21.8584 -0.0361328 43.7285 -0.735352 65.541 -2.25488
c9.73828 -0.664062 19.4541 -1.51855 29.1445 -2.5625c4.69238 -0.514648 9.38379 -1.06836 14.0742 -1.66113l7.58398 -1.12793c13.8486 -2.12402 26.0957 3.33496 30.6523 17.4082c3.80859 11.7725 -4.48535 28.6719 -17.4082 30.6533
c-10.9756 1.69336 -21.9658 3.14551 -32.9805 4.35547c-44.5332 4.7207 -89.3516 6.18457 -134.098 4.37891c-40.3711 -1.45996 -81.3008 -4.88965 -120.818 -13.624c-14.1914 -3.01367 -28.0264 -7.5166 -41.2734 -13.4346
c-10.1699 -4.59277 -19.7598 -11.5342 -25.4189 -21.3604c-7.96289 -13.8369 -4.40332 -30.9971 6.50293 -42.0918c8.8877 -9.03125 20.9336 -14.1465 32.623 -18.4062c31.9814 -11.6426 67.4287 -15.3438 101.084 -18.4062zM613.745 312.334
c17.5508 0 33.1211 3.5 48.5469 8.76953l-34.5195 365.671c-1.14258 13.8311 -7.44141 26.7236 -17.6475 36.124c-9.07422 8.35547 -20.6445 13.4082 -32.8496 14.4287l-39.2324 1.69922c-12.0781 0.46875 -24.2812 0.866211 -30.9961 0.866211l-9.80859 -0.175781
c-3.88086 -0.109375 -8.25488 -0.263672 -12.7695 -0.439453l-38.3701 -1.75879c-13.8789 0.00292969 -27.25 -5.21582 -37.46 -14.6152c-10.21 -9.40039 -16.5107 -22.2959 -17.6504 -36.1289l-32.2314 -330.914c18.7793 5.2373 38.1787 7.91211 57.6738 7.95312
c40.7773 0 73.4033 -11.7764 102.149 -23.8076l25.9512 -11.0068c22.7158 -9.41699 43.918 -16.6758 69.2148 -16.666zM279.702 131.299l-6.03223 0.360352c-9.65039 1.15527 -13.7676 10.4824 -15.9717 19.1348l-1.03418 4.59863
c-2.09961 10.4688 -6.06445 27.9121 2.00586 36.5752c3.67188 3.93652 9.15723 5.33594 14.5732 6.20898l2.69238 0.402344c63.584 8.98145 127.133 16.1152 191.358 18.3086c89.7393 2.94531 179.796 -3.72461 268.563 -16.8975
c7.91406 -1.17383 15.9238 -3.52539 21.2412 -8.5791c3.68457 -3.5 5.90527 -8.28125 6.19434 -13.3623c0.938477 -11.667 0.129883 -25.4795 -5.93164 -35.8037c-8.84375 -15.1543 -25.0654 -10.2305 -39.6973 -7.60742
c-16.4229 2.94336 -32.9072 5.52637 -49.4502 7.74902c-90.7578 12.1523 -183.453 13.4453 -274.616 5.13867c-21.3604 -1.94629 -42.6416 -4.53711 -63.8447 -7.77344c-15.6543 -2.37305 -33.7266 -8.57227 -50.0518 -8.4541v0z" />
</svg>
