<?xml version="1.0" encoding="UTF-8"?>
<svg width="610px" height="883px" viewBox="0 0 610 883" version="1.1" xmlns="http://www.w3.org/2000/svg" xmlns:xlink="http://www.w3.org/1999/xlink">
  <g id="BuyMeACoffee" transform="translate(0.3594, 0.4253)" fill="currentColor" fill-rule="nonzero">
    <path d="M210.648498,3.6965388 C255.865298,-0.3054112 301.308698,-1.0593212 346.631498,1.4416588 C384.393198,3.4709588 422.985998,7.0305288 459.691498,16.7150588 C467.489348,18.6476788 475.171998,21.0246288 482.701298,23.8341988 C497.392698,29.5187688 512.167098,38.1105988 519.287198,52.8029988 C523.194428,60.6174488 525.158288,69.6867988 526.727628,78.5763988 L535.554778,130.745299 C536.837978,138.316589 538.475678,146.481599 544.018648,151.738499 C549.559668,156.995339 557.759848,158.087129 564.987448,160.626199 C587.533348,168.565649 597.418148,189.321499 601.774548,211.287299 L606.628068,235.768699 C612.550918,259.338999 609.214978,282.715999 592.458168,300.646599 C581.934768,311.908299 567.786268,316.832099 552.988468,319.717899 C549.236518,320.441532 545.815618,322.352669 543.233588,325.172979 C540.651558,327.992319 539.046088,331.566529 538.655468,335.369279 L493.119368,779.437279 C487.578348,833.039779 448.748268,867.597479 396.997268,877.090579 C369.833168,882.093509 342.102768,882.379639 314.413268,881.990969 L290.704268,881.586672 C263.006068,881.136477 235.046068,880.235112 207.752168,875.843512 C161.019768,868.343512 123.282468,841.714612 117.859568,792.301512 L74.6036682,377.094512 C73.1554282,363.210712 87.1827682,352.721512 99.5245682,352.174612 C113.943468,351.521292 123.091968,364.171712 124.445468,377.094512 L164.130068,757.827512 C166.425968,778.164412 170.250188,799.868512 185.358568,814.433012 C202.718968,831.169312 228.994268,835.079512 252.511868,835.700612 L262.387848,835.793385 C286.465948,835.661549 310.532348,836.731862 334.610548,836.600026 C356.330248,836.403737 377.966048,833.873466 399.145748,829.054126 C422.261948,823.794356 438.105748,809.425226 442.613548,786.022926 C445.473898,771.141126 445.687768,755.607926 447.207298,740.548326 L487.234598,350.819326 C487.505106,348.179676 487.18284,345.510736 486.287332,343.009756 C485.393777,340.510736 483.950422,338.242176 482.066632,336.371086 C480.182842,334.5 477.904522,333.076166 475.396712,332.200186 C472.891832,331.324209 470.218982,331.019526 467.582262,331.310538 C459.133042,332.243155 450.670162,333.105458 442.198462,333.897448 C338.150462,343.585928 233.363462,342.066398 129.642462,329.362288 C103.238162,326.087878 76.9051622,322.242168 50.7137622,317.495088 C22.8739622,312.464818 3.51946217,289.965788 0.326062175,262.279288 C-1.15733783,249.449188 2.75868217,236.005888 5.27528217,223.509788 L7.68837217,211.001988 C9.34560217,202.686558 11.3397422,194.474688 15.0897422,186.721688 C20.5584922,175.811488 29.2215422,166.828088 39.9276422,160.969688 C52.9696422,153.849568 66.7596422,152.662068 81.1776422,155.035118 C93.1044422,156.969688 104.983342,159.177698 116.933542,160.969688 L132.289042,163.164028 L149.092742,165.264618 C200.831042,171.262668 252.869742,174.290008 304.954742,174.330048 C318.038742,174.354462 331.130542,174.192353 344.224242,173.84372 C369.919542,173.179658 395.563142,171.7822 421.157842,169.65427 C434.037742,168.58591 446.897142,167.32029 459.737942,165.85739 L469.509422,164.71286 L483.399022,162.92673 C484.677342,162.761691 485.816012,162.355441 486.834572,161.73142 C487.854102,161.107397 488.734962,160.28122 489.421482,159.30271 C490.107029,158.323218 490.584572,157.21482 490.820892,156.04197 C491.06015,154.87107 491.052337,153.66306 490.804291,152.49412 L477.386291,89.9443202 C476.759338,87.2695202 476.018131,84.6259602 474.996641,82.1220502 C469.016171,67.3915502 452.501541,65.5204502 438.612841,62.7890502 L435.682181,62.1865112 C425.958551,60.0976412 416.183181,58.3212812 406.356981,56.8583912 L397.981001,55.7304612 C393.636271,55.1962812 389.292521,54.7216712 384.925301,54.2705012 C364.620601,52.2050712 344.234901,51.0078012 323.833501,50.4130812 C281.815901,49.0195312 239.751501,50.5019484 197.936501,54.8515612 L188.282201,56.1367212 C186.668921,56.3330102 185.057591,56.5 183.447241,56.6074242 L175.637671,57.7939442 C167.923801,59.0058542 160.235371,60.3935542 152.604471,62.0195342 C151.548811,62.2168002 150.754861,62.7109402 150.185521,63.4209042 C149.615209,64.1298882 149.304662,65.0136742 149.304662,65.9238342 C149.304662,66.8330142 149.615209,67.7168042 150.185521,68.4267642 C150.754857,69.1367252 151.548801,69.6308642 152.438451,69.8271542 C161.243141,71.6904342 170.144551,73.2334042 179.043951,74.5742242 L188.513681,75.8671942 C192.928721,76.4130922 197.342781,76.8994242 201.770481,77.3623142 C211.500951,78.3515722 221.255881,79.1660242 231.035081,79.8076242 C252.465781,81.2197342 273.956981,81.8252042 295.438381,81.8252042 C317.296781,81.7890714 339.166881,81.0898522 360.979381,79.5703242 C370.717661,78.9062622 380.433481,78.0517742 390.123881,77.0078242 C394.816261,76.4931762 399.507671,75.9394642 404.198081,75.3466942 L411.782061,74.2187642 C425.630661,72.0947442 437.877761,77.5537242 442.434361,91.6269642 C446.242951,103.399464 437.949011,120.298864 425.026161,122.280264 C414.050561,123.973624 403.060361,125.425774 392.045661,126.635734 C347.512461,131.356434 302.694061,132.820304 257.947661,131.014644 C217.576561,129.554684 176.646861,126.124994 137.129661,117.390644 C122.938261,114.376974 109.103261,109.874044 95.8562606,103.956044 C85.6863606,99.3632742 76.0964606,92.4218442 70.4373606,82.5956442 C62.4744706,68.7587442 66.0340406,51.5985442 76.9402906,40.5038442 C85.8279906,31.4725942 97.8738906,26.3573442 109.563291,22.0976442 C141.544691,10.4550442 176.991991,6.7538442 210.647291,3.6914442 L210.648498,3.6965388 Z M408.947498,385.066886 C426.498298,385.066886 442.068598,388.567639 457.494398,393.837169 L422.974898,759.508169 C421.832318,773.339269 415.533488,786.231769 405.327398,795.632169 C396.253178,803.987639 384.682898,809.040369 372.477798,810.060869 L333.245398,811.760089 C321.167298,812.228839 308.964198,812.6263 302.249298,812.6263 L292.440708,812.450519 C288.559848,812.341144 284.185828,812.186847 279.671208,812.011066 L241.301108,810.252276 C227.422208,810.255205 214.051108,805.036456 203.841108,795.637076 C193.631108,786.236686 187.330408,773.341176 186.190708,759.508176 L153.959308,428.594176 C172.738608,433.831476 192.138008,436.506286 211.633108,436.547296 C252.410408,436.547296 285.036408,424.770896 313.782108,412.739696 L339.733308,401.732896 C362.449108,392.315906 383.651308,385.057096 408.948108,385.066886 L408.947498,385.066886 Z M74.9044982,204.032639 L68.8722682,204.392991 C59.2218782,205.548261 55.1046682,214.875391 52.9005682,223.527791 L51.8663882,228.126421 C49.7667782,238.595221 45.8019382,256.038521 53.8722482,264.701621 C57.5441282,268.638141 63.0294782,270.037561 68.4454482,270.910601 L71.1378282,271.312945 C134.721828,280.294395 198.270828,287.428145 262.495828,289.621545 C352.235128,292.566855 442.291828,285.896935 531.058828,272.724045 C538.972888,271.550215 546.982628,269.198655 552.300028,264.144945 C555.984598,260.644945 558.205298,255.863695 558.494368,250.782645 C559.432845,239.115645 558.624251,225.303145 552.562728,214.978945 C543.718978,199.824645 527.497328,204.748445 512.865428,207.371525 C496.442528,210.314885 479.958228,212.897895 463.415228,215.120545 C372.657428,227.272845 279.962228,228.565845 188.799228,220.259215 C167.438828,218.312925 146.157628,215.722105 124.954528,212.485775 C109.300228,210.112725 91.2279282,203.913505 74.9027282,204.031675 L74.9027282,204.031675 L74.9044982,204.032639 Z"></path>
  </g>
</svg>