<?xml version="1.0" standalone="no"?>
<!DOCTYPE svg PUBLIC "-//W3C//DTD SVG 1.1//EN" "http://www.w3.org/Graphics/SVG/1.1/DTD/svg11.dtd" >
<svg xmlns="http://www.w3.org/2000/svg" xmlns:xlink="http://www.w3.org/1999/xlink" version="1.1" viewBox="-10 0 1034 1024">
   <path fill="currentColor"
d="M670.446 97.2822l158.04 273.718l-158.04 273.718h-316.08l-158.039 -273.718l158.039 -273.718h316.08zM738.061 -20.8408h-452.124l-225.654 391.841l225.654 391.841h452.124l225.655 -391.841c0.814453 0 -225.655 -391.841 -225.655 -391.841zM530.221 201.212
c-31.9238 -2.13281 -64.8018 4.87012 -94.4336 22.2832c-79.835 46.4336 -106.649 148.31 -60.2148 227.33c45.6201 79.0195 147.363 106.762 227.197 61.1426c79.0205 -46.4336 105.968 -147.477 60.3477 -228.126c-29.0215 -49.8965 -79.6904 -79.0742 -132.896 -82.6299z
M510.724 242.328l112.472 194.703c-6.51758 9.77539 -15.4238 19.4404 -25.2002 27.5869l-123.878 -214.199c11.4053 -4.8877 24.3867 -7.27637 36.6064 -8.09082zM590.568 256.122c6.29883 0 11.4053 5.10645 11.4053 11.4062c0 6.29883 -5.10645 11.4053 -11.4053 11.4053
c-6.2998 0 -11.4062 -5.10645 -11.4062 -11.4053c0 -6.2998 5.10645 -11.4062 11.4062 -11.4062zM439.899 270.048l123.877 214.2c-12.2197 4.8877 -24.5 7.27637 -37.5342 8.08984l-112.473 -192.978c7.33203 -11.4053 15.5381 -21.165 26.1299 -29.3125zM640.305 344.056
c6.29785 0 11.4062 5.1084 11.4062 11.4072s-5.1084 11.4062 -11.4062 11.4062c-6.29883 0 -11.4062 -5.10742 -11.4062 -11.4062s5.10742 -11.4062 11.4062 -11.4072zM395.069 347.372l79.8438 137.672c-27.6973 -10.5908 -50.4775 -30.0732 -64.3262 -54.5117
c-14.6631 -25.2539 -19.5908 -54.6475 -15.5176 -83.1602z" />
</svg>
