<?xml version="1.0" encoding="UTF-8"?>
<svg width="904px" height="785px" viewBox="0 0 904 785" version="1.1" xmlns="http://www.w3.org/2000/svg" xmlns:xlink="http://www.w3.org/1999/xlink">
  <g id="Buzzly" transform="translate(0.2459, 0.711)" fill="currentColor" fill-rule="nonzero">
    <path d="M610.163,118.123 L768.203,391.841 L610.163,665.559 L294.083,665.559 L136.044,391.841 L294.083,118.123 L610.163,118.123 Z M677.778,0 L225.654,0 L0,391.841 L225.654,783.682 L677.778,783.682 L903.435192,391.841 C904.247453,391.841 677.778,0 677.778,0 L677.778,0 Z M469.938,222.0528 C438.0142,219.91999 405.1362,226.92292 375.5044,244.336 C295.6694,290.7696 268.8554,392.646 315.2896,471.666 C360.9097,550.6855 462.6526,578.428 542.4866,532.8086 C621.5071,486.375 648.4546,385.3316 602.8343,304.6826 C573.8128,254.7861 523.1439,225.6084 469.9383,222.0527 L469.938,222.0528 Z M450.441,263.1688 L562.913,457.8718 C556.39542,467.64719 547.4892,477.3122 537.7128,485.4587 L413.8348,271.2597 C425.2401,266.372 438.2215,263.98333 450.4412,263.1688 L450.441,263.1688 Z M530.285,276.9628 C536.58383,276.9628 541.6903,282.06925 541.6903,288.369 C541.6903,294.66783 536.58385,299.7743 530.285,299.7743 C523.9852,299.7743 518.8788,294.66785 518.8788,288.369 C518.8788,282.0692 523.98525,276.9628 530.285,276.9628 Z M379.616,290.88814 L503.493,505.0888 C491.2733,509.9765 478.993,512.36517 465.9588,513.17864 L353.4858,320.20064 C360.81783,308.79534 369.0239,299.03564 379.6157,290.88814 L379.616,290.88814 Z M580.022,364.8968 C586.31985,364.8968 591.4282,370.0052 591.4282,376.304 C591.4282,382.6028 586.3198,387.7102 580.022,387.7102 C573.72317,387.7102 568.6158,382.60278 568.6158,376.304 C568.6158,370.00522 573.72322,364.8978 580.022,364.8968 Z M334.786,368.2128 L414.6298,505.8848 C386.9325,495.294 364.1523,475.8116 350.3036,451.3731 C335.6405,426.1192 330.7128,396.7256 334.786,368.2128 L334.786,368.2128 Z"></path>
  </g>
</svg>