<?xml version="1.0" encoding="UTF-8"?>
<svg width="978px" height="1025px" viewBox="0 0 978 1025" version="1.1" xmlns="http://www.w3.org/2000/svg" xmlns:xlink="http://www.w3.org/1999/xlink">
  <g id="Calendly" transform="translate(0.3358, 0.6137)" fill="currentColor" fill-rule="nonzero">
    <path d="M976.89641,154.917905 C976.89641,91.4296048 933.8884,48.4219048 870.4002,48.4219048 L755.7122,48.4219048 C738.305,48.4219048 738.305,48.4219048 737.2806,29.9903048 C737.2806,7.46200482 715.7767,-6.87399518 696.3206,3.36630482 C684.0325,9.50985482 679.9368,21.7979048 680.9602,34.0860048 C681.98461,44.3262048 678.91235,48.4219048 667.6487,48.4219048 L313.3447,48.4219048 C296.9599,48.4219048 296.9599,48.4219048 295.9365,32.0381048 C294.91209,14.6299048 285.6963,3.36620482 272.3838,1.31840482 C252.9287,-0.730425175 239.6162,10.5342248 239.6162,31.0137048 C239.6162,48.4219048 239.6162,48.4219048 222.208,48.4219048 L103.424,48.4219048 C44.0324,49.4463148 5.68434189e-14,93.4776048 5.68434189e-14,151.845905 L5.68434189e-14,919.845905 C5.68434189e-14,979.238505 44.0322,1023.2699 103.424,1023.2699 L487.424,1023.2699 C614.401,1023.2699 742.401,1022.24646 869.376,1024.29431 C922.624,1025.31872 975.872,984.358815 975.872,917.798315 C975.872,663.846315 976.89641,408.870315 976.89641,154.918315 L976.89641,154.917905 Z M920.5742,915.749905 C920.5742,950.566305 903.166,968.997905 867.3262,968.997905 L109.5662,968.997905 C74.7498,968.997905 56.3182,951.589705 56.3182,915.749905 L56.3182,156.965905 C56.3182,123.173905 73.7264,104.742305 107.5184,103.717805 L229.3734,103.717805 C237.56578,103.717805 239.6136,105.765755 239.6136,113.958105 C238.58919,133.414205 239.6136,153.893605 239.6136,173.349705 C239.6136,191.782305 249.8538,204.070405 267.262,204.070405 C283.6458,204.070405 295.9339,192.805805 295.9339,174.374105 L295.9339,113.958105 C295.9339,105.765725 299.00519,103.717805 306.1732,103.717805 L671.7412,103.717805 C679.93358,103.717805 681.9814,105.765755 681.9814,113.958105 C680.95699,133.414205 681.9814,153.893605 681.9814,173.349705 C681.9814,191.782305 693.2451,203.046005 709.6289,204.070405 C726.0137,204.070405 737.2773,192.805805 738.3018,175.397505 L738.3018,113.958005 C738.3018,105.765625 741.37309,103.717805 748.5411,103.717805 L869.3731,103.717805 C904.1895,103.717805 921.5977,122.150405 921.5977,156.965805 L921.5977,536.869805 C920.57329,662.821805 920.57329,788.773805 920.57329,915.749805 L920.5742,915.749905 Z M515.0702,380.197905 C556.0302,380.197905 592.8944,389.413725 624.6382,412.965505 C629.75734,417.061205 636.9263,421.157885 630.78175,429.349305 C624.6382,437.541685 619.51805,432.421575 613.37355,428.325865 C521.21335,364.837565 396.28555,406.821965 367.61355,511.269265 C343.03735,600.358165 406.52565,693.541265 498.68555,703.782265 C541.69335,708.902385 579.58105,698.662145 614.39755,673.061565 C620.5411,668.965865 625.66125,666.918015 630.78135,674.085975 C634.87705,680.229525 631.80576,685.349675 626.68565,688.421875 C566.26965,730.406275 500.73365,735.526375 436.22165,700.709975 C371.70895,665.893575 339.96485,610.597675 344.06145,535.845975 C350.205,447.782475 435.19715,376.101975 515.06945,380.198975 L515.0702,380.197905 Z"></path>
  </g>
</svg>