<?xml version="1.0" standalone="no"?>
<!DOCTYPE svg PUBLIC "-//W3C//DTD SVG 1.1//EN" "http://www.w3.org/Graphics/SVG/1.1/DTD/svg11.dtd" >
<svg xmlns="http://www.w3.org/2000/svg" xmlns:xlink="http://www.w3.org/1999/xlink" version="1.1" viewBox="-10 0 1034 1024">
   <path fill="currentColor"
d="M1000.45 13.624c0 -63.4883 -43.0078 -106.496 -106.496 -106.496h-114.688c-17.4072 0 -17.4072 0 -18.4316 -18.4316c0 -22.5283 -21.5039 -36.8643 -40.96 -26.624c-12.2881 6.14355 -16.3838 18.4316 -15.3604 30.7197
c1.02441 10.2402 -2.04785 14.3359 -13.3115 14.3359h-354.304c-16.3848 0 -16.3848 0 -17.4082 -16.3838c-1.02441 -17.4082 -10.2402 -28.6719 -23.5527 -30.7197c-19.4551 -2.04883 -32.7676 9.21582 -32.7676 29.6953c0 17.4082 0 17.4082 -17.4082 17.4082h-118.784
c-59.3916 1.02441 -103.424 45.0557 -103.424 103.424v768c0 59.3926 44.0322 103.424 103.424 103.424h384c126.977 0 254.977 -1.02344 381.952 1.02441c53.248 1.02441 106.496 -39.9355 106.496 -106.496c0 -253.952 1.02441 -508.928 1.02441 -762.88zM944.128 774.456
c0 34.8164 -17.4082 53.248 -53.248 53.248h-757.76c-34.8164 0 -53.248 -17.4082 -53.248 -53.248v-758.784c0 -33.792 17.4082 -52.2236 51.2002 -53.248h121.855c8.19238 0 10.2402 2.04785 10.2402 10.2402c-1.02441 19.4561 0 39.9355 0 59.3916
c0 18.4326 10.2402 30.7207 27.6484 30.7207c16.3838 0 28.6719 -11.2646 28.6719 -29.6963v-60.416c0 -8.19238 3.07129 -10.2402 10.2393 -10.2402h365.568c8.19238 0 10.2402 2.04785 10.2402 10.2402c-1.02441 19.4561 0 39.9355 0 59.3916
c0 18.4326 11.2637 29.6963 27.6475 30.7207c16.3848 0 27.6484 -11.2646 28.6729 -28.6729v-61.4395c0 -8.19238 3.07129 -10.2402 10.2393 -10.2402h120.832c34.8164 0 52.2246 18.4326 52.2246 53.248v379.904c-1.02441 125.952 -1.02441 251.904 -1.02441 378.88z
M538.624 238.904c40.96 0 77.8242 9.21582 109.568 32.7676c5.11914 4.0957 12.2881 8.19238 6.14355 16.3838c-6.14355 8.19238 -11.2637 3.07227 -17.4082 -1.02344c-92.1602 -63.4883 -217.088 -21.5039 -245.76 82.9434
c-24.5762 89.0889 38.9121 182.272 131.072 192.513c43.0078 5.12012 80.8955 -5.12012 115.712 -30.7207c6.14355 -4.0957 11.2637 -6.14355 16.3838 1.02441c4.0957 6.14355 1.02441 11.2637 -4.0957 14.3359c-60.416 41.9844 -125.952 47.1045 -190.464 12.2881
c-64.5127 -34.8164 -96.2568 -90.1123 -92.1602 -164.864c6.14355 -88.0635 91.1357 -159.744 171.008 -155.647z" />
</svg>
