<?xml version="1.0" encoding="UTF-8"?>
<svg width="804px" height="803px" viewBox="0 0 804 803" version="1.1" xmlns="http://www.w3.org/2000/svg" xmlns:xlink="http://www.w3.org/1999/xlink">
  <g id="Cara" transform="translate(0.9205, 0.8284)" fill="currentColor" fill-rule="nonzero">
    <path d="M401.067,0 C622.57,0 802.134,179.564 802.134,401.067 C802.134,622.57 622.57,802.134 401.067,802.134 C179.564,802.134 0,622.57 0,401.067 C0,179.564 179.564,0 401.067,0 L401.067,0 Z M589.317,232.2154 C479.325,124.8074 174.279,170.7017 174.279,401.0674 C174.279,657.3134 475.473,668.7344 600.792,568.1424 L564.5664,512.4686 C559.38867,504.36411 555.04394,497.1825 541.1426,474.3465 C458.8574,536.7108 329.1926,519.5154 329.1926,401.0672 C329.1926,282.619 462.0756,271.4842 527.2716,323.909 L548.8956,293.5281 C551.63486,289.63552 554.06943,286.1365 556.39462,282.7449 L563.86825,271.6551 C570.23837,262.04084 577.37895,250.8778 589.31745,232.2156 L589.317,232.2154 Z"></path>
  </g>
</svg>