<?xml version="1.0" standalone="no"?>
<!DOCTYPE svg PUBLIC "-//W3C//DTD SVG 1.1//EN" "http://www.w3.org/Graphics/SVG/1.1/DTD/svg11.dtd" >
<svg xmlns="http://www.w3.org/2000/svg" xmlns:xlink="http://www.w3.org/1999/xlink" version="1.1" viewBox="-10 0 1034 1024">
   <path fill="currentColor"
d="M512 -30.0674c221.503 0 401.067 179.564 401.067 401.067s-179.564 401.067 -401.067 401.067s-401.067 -179.564 -401.067 -401.067s179.564 -401.067 401.067 -401.067zM700.25 202.148c-109.992 -107.408 -415.038 -61.5137 -415.038 168.852
c0 256.246 301.194 267.667 426.513 167.075l-36.2256 -55.6738c-5.17773 -8.10449 -9.52246 -15.2861 -23.4238 -38.1221c-82.2852 62.3643 -211.95 45.1689 -211.95 -73.2793s132.883 -129.583 198.079 -77.1582l21.624 -30.3809
c2.73926 -3.89258 5.17383 -7.3916 7.49902 -10.7832l7.47363 -11.0898c6.37012 -9.61426 13.5107 -20.7773 25.4492 -39.4395z" />
</svg>
