<?xml version="1.0" standalone="no"?>
<!DOCTYPE svg PUBLIC "-//W3C//DTD SVG 1.1//EN" "http://www.w3.org/Graphics/SVG/1.1/DTD/svg11.dtd" >
<svg xmlns="http://www.w3.org/2000/svg" xmlns:xlink="http://www.w3.org/1999/xlink" version="1.1" viewBox="-10 0 1034 1024">
   <path fill="currentColor"
d="M905.571 644.127l-490.502 235.539c-3.01758 1.50879 -6.41211 2.2627 -9.80664 2.2627c-4.14844 0 -8.29785 -1.13086 -12.0684 -3.39355c-6.60059 -4.14941 -10.5615 -11.3154 -10.5615 -19.2354v-233.275l-264.958 -110.887
c-8.48535 -3.58301 -13.9551 -11.6914 -13.9551 -20.9326v-612.514c0 -7.73242 3.95996 -15.0879 10.5615 -19.2354c6.60059 -4.14844 14.8975 -4.52637 21.876 -1.32031l509.926 244.779l240.065 -115.224c6.97754 -3.39453 15.2744 -2.8291 21.876 1.31934
c6.60059 4.14941 10.5605 11.3154 10.5605 19.2354v612.514c-0.188477 8.6748 -5.0918 16.5957 -13.0117 20.3672h-0.00195312zM148.98 -82.291v561.408l233.652 97.874v-112.772l-146.905 -59.2148c-11.5029 -4.71484 -17.1602 -17.915 -12.6348 -29.4189
c4.71484 -11.6924 17.915 -17.1611 29.4189 -12.6348l130.122 52.4258v-92.5938l-146.905 -59.2148c-11.5029 -4.71582 -17.1602 -17.915 -12.6348 -29.4189c4.71484 -11.6924 17.915 -17.1611 29.4189 -12.6357l130.122 52.4268v-26.9678
c0 -8.6748 4.90332 -16.5947 12.8242 -20.3662l33.5684 -16.2188l-194.429 -88.4443c-11.3145 -5.09277 -16.4062 -18.6699 -11.3145 -29.9854s18.6699 -16.4072 29.9844 -11.3154l228.75 104.286l111.452 -53.5566l-444.487 -213.663zM873.134 47.2646l-445.242 213.853
v45.8252v0.188477v141.248v0.189453v374.9l445.242 -214.041v-562.163zM512.943 339.944l255.15 -123.333c11.3154 -5.46973 24.7041 -0.753906 30.1729 10.5605c5.46973 11.3154 0.754883 24.8936 -10.5605 30.1729l-255.151 123.333
c-3.20605 1.50879 -6.59961 2.26367 -9.80566 2.26367c-8.48633 0 -16.4072 -4.71582 -20.3672 -12.8242c-5.28027 -11.126 -0.56543 -24.7041 10.5615 -30.1729zM512.943 481.381l255.15 -123.333c11.3154 -5.46875 24.7041 -0.753906 30.1729 10.5615
c5.46973 11.3145 0.754883 24.8926 -10.5605 30.1729l-255.151 123.333c-3.20605 1.50879 -6.59961 2.2627 -9.80566 2.2627c-8.48633 0 -16.4072 -4.71484 -20.3672 -12.8242c-5.28027 -11.3145 -0.56543 -24.7041 10.5615 -30.1729zM512.943 622.629l255.15 -123.333
c11.3154 -5.46875 24.7041 -0.753906 30.1729 10.5615c5.46973 11.3145 0.754883 24.8926 -10.5605 30.1729l-255.151 123.333c-3.20605 1.50879 -6.59961 2.2627 -9.80566 2.2627c-8.48633 0 -16.4072 -4.71484 -20.3672 -12.8242
c-5.28027 -11.126 -0.56543 -24.7041 10.5615 -30.1729z" />
</svg>
