<?xml version="1.0" encoding="UTF-8"?>
<svg width="816px" height="1024px" viewBox="0 0 816 1024" version="1.1" xmlns="http://www.w3.org/2000/svg" xmlns:xlink="http://www.w3.org/1999/xlink">
  <g id="Carrd" transform="translate(0.4422, 0.8284)" fill="currentColor" fill-rule="nonzero">
    <path d="M801.85164,785.126142 L311.34964,1020.66514 C308.33206,1022.17393 304.93753,1022.92784 301.543,1022.92784 C297.39456,1022.92784 293.24515,1021.79698 289.4746,1019.53429 C282.87401,1015.38488 278.9131,1008.21889 278.9131,1000.29889 L278.9131,767.023892 L13.9551,656.136892 C5.46975,652.553882 0,644.445492 0,635.204292 L0,22.6902919 C0,14.9578719 3.95996,7.60239191 10.5615,3.45489191 C17.16209,-0.693548089 25.459,-1.07147809 32.4375,2.13458191 L542.3635,246.913582 L782.4285,131.689582 C789.40604,128.295052 797.7029,128.860482 804.3045,133.008922 C810.90509,137.158332 814.865,144.324322 814.865,152.244322 L814.865,764.758322 C814.676523,773.433122 809.7732,781.354022 801.8533,785.125522 L801.851347,785.125522 L801.85164,785.126142 Z M45.26064,58.7075419 L45.26064,620.116142 L278.91264,717.990142 L278.91264,605.218142 L132.00764,546.003342 C120.50474,541.288502 114.84744,528.088342 119.37284,516.584442 C124.08768,504.892042 137.28784,499.423342 148.79174,503.949642 L278.91374,556.375442 L278.91374,463.781642 L132.00874,404.566842 C120.50584,399.851022 114.84854,386.651842 119.37394,375.147942 C124.08878,363.455542 137.28894,357.986842 148.79284,362.512242 L278.91484,414.939042 L278.91484,387.971242 C278.91484,379.296442 283.81816,371.376542 291.73904,367.605042 L325.30744,351.386242 L130.87844,262.941942 C119.56394,257.849172 114.47224,244.272042 119.56394,232.956542 C124.65564,221.641042 138.23384,216.549342 149.54834,221.641142 L378.29834,325.927142 L489.75034,272.370542 L45.26064,58.7075419 L45.26064,58.7075419 Z M769.41464,188.263742 L324.17264,402.116742 L324.17264,447.941942 L324.17264,448.130419 L324.17264,589.378419 L324.17264,589.567872 L324.17264,964.467872 L769.41464,750.426872 L769.41464,188.263742 L769.41464,188.263742 Z M409.22364,480.943142 L664.37364,357.610142 C675.68904,352.140412 689.07774,356.856236 694.54654,368.170642 C700.01627,379.486042 695.301423,393.064242 683.98604,398.343542 L428.83504,521.676542 C425.62899,523.185332 422.23543,523.940212 419.02938,523.940212 C410.54305,523.940212 402.62218,519.224392 398.66218,511.116012 C393.38191,499.990012 398.09675,486.411912 409.22368,480.943112 L409.22364,480.943142 Z M409.22364,622.380142 L664.37364,499.047142 C675.68904,493.578392 689.07774,498.293236 694.54654,509.608642 C700.01627,520.923142 695.301423,534.501242 683.98604,539.781542 L428.83504,663.114542 C425.62899,664.623332 422.23543,665.377242 419.02938,665.377242 C410.54305,665.377242 402.62218,660.662402 398.66218,652.553042 C393.38191,641.238542 398.09675,627.848942 409.22368,622.380142 L409.22364,622.380142 Z M409.22364,763.628142 L664.37364,640.295142 C675.68904,634.826392 689.07774,639.541236 694.54654,650.856642 C700.01627,662.171142 695.301423,675.749242 683.98604,681.029542 L428.83504,804.362542 C425.62899,805.871332 422.23543,806.625242 419.02938,806.625242 C410.54305,806.625242 402.62218,801.910402 398.66218,793.801042 C393.38191,782.675042 398.09675,769.096942 409.22368,763.628142 L409.22364,763.628142 Z"></path>
  </g>
</svg>