<?xml version="1.0" standalone="no"?>
<!DOCTYPE svg PUBLIC "-//W3C//DTD SVG 1.1//EN" "http://www.w3.org/Graphics/SVG/1.1/DTD/svg11.dtd" >
<svg xmlns="http://www.w3.org/2000/svg" xmlns:xlink="http://www.w3.org/1999/xlink" version="1.1" viewBox="-10 0 1034 1024">
   <path fill="currentColor"
d="M580.608 106.808l-3.07227 -2.04785l-441.344 -240.64c-6.14453 -3.07227 -14.3359 -5.12012 -22.5283 -5.12012c-26.624 0 -49.1523 20.4805 -49.1523 46.0801v1.02344v1.02441v477.184v1.02441v1.02441c1.02441 25.5996 22.5283 46.0801 50.1768 46.0801
c7.16797 0 13.3115 -1.02441 19.4551 -4.09668l9.2168 -5.12012l438.271 -239.615c13.3125 -8.19238 21.5039 -22.5283 21.5039 -38.9121c-1.02344 -14.3359 -9.21582 -28.6719 -22.5273 -37.8887v0zM773.12 609.592l-2.04785 -1.02344l-369.664 -202.752
c-6.14453 -3.07227 -12.2881 -4.09668 -19.4561 -4.09668c-22.5283 0 -40.96 17.4082 -41.9844 38.9121v1.02441v1.02344v399.36v1.02441v1.02344c1.02441 21.5039 19.4561 38.9121 41.9844 38.9121c6.14355 0 11.2637 -1.02441 16.3838 -3.07227l8.19238 -4.0957
l363.52 -198.656l3.07227 -2.04785c11.2637 -7.16797 18.4316 -19.4561 18.4316 -32.7676c0 -13.3125 -7.16797 -25.6006 -18.4316 -32.7686v0zM948.224 296.248l-2.04785 -1.02441l-233.472 -128l-3.07227 -2.04785c-4.0957 -2.04785 -8.19141 -3.07227 -12.2881 -3.07227
c-14.3359 0 -26.624 11.2646 -26.624 24.5762v1.02441v1.02344v257.024v1.02441v1.02344c0 13.3125 12.2881 24.5762 26.624 24.5762c4.09668 0 7.16797 -1.02441 10.2402 -2.04785l5.12012 -3.07227l235.52 -129.023c7.16797 -4.09668 11.2646 -12.2881 11.2646 -21.5049
c0 -8.19141 -4.09668 -16.3838 -11.2646 -20.4795v0z" />
</svg>
