<?xml version="1.0" encoding="UTF-8"?>
<svg width="896px" height="1025px" viewBox="0 0 896 1025" version="1.1" xmlns="http://www.w3.org/2000/svg" xmlns:xlink="http://www.w3.org/1999/xlink">
  <g id="CdBaby" transform="translate(0.2211, 0.3376)" fill="currentColor" fill-rule="nonzero">
    <path d="M516.09687,247.80797 L513.0246,245.76012 L71.6806,5.12012 C65.53607,2.04785 57.3447,0 49.1523,0 C22.5283,0 -2.84217094e-14,20.4805 -2.84217094e-14,46.0801 L-2.84217094e-14,47.10354 L-2.84217094e-14,48.12795 L-2.84217094e-14,525.31195 L-2.84217094e-14,526.33636 L-2.84217094e-14,527.36077 C1.02441,552.96037 22.5283,573.44087 50.1768,573.44087 C57.34477,573.44087 63.4883,572.41646 69.6319,569.34419 L78.8487,564.22407 L517.1197,324.60907 C530.4322,316.41669 538.6236,302.08077 538.6236,285.69697 C537.60016,271.36107 529.40778,257.02507 516.0963,247.80827 L516.0963,247.80827 L516.09687,247.80797 Z M708.60887,750.59197 L706.56102,749.56853 L336.89702,546.81653 C330.75249,543.74426 324.60892,542.71985 317.44092,542.71985 C294.91262,542.71985 276.48092,560.12805 275.45652,581.63195 L275.45652,582.65636 L275.45652,583.6798 L275.45652,983.0398 L275.45652,984.06421 L275.45652,985.08765 C276.48093,1006.59155 294.91262,1023.99975 317.44092,1023.99975 C323.58447,1023.99975 328.70462,1022.97534 333.82472,1020.92748 L342.0171,1016.83178 L705.5371,818.17578 L708.60937,816.12793 C719.87307,808.95996 727.04097,796.67183 727.04097,783.36033 C727.04097,770.04783 719.873,757.75973 708.60937,750.59173 L708.60937,750.59173 L708.60887,750.59197 Z M883.71287,437.24797 L881.66502,436.22356 L648.19302,308.22356 L645.12075,306.17571 C641.02505,304.12786 636.92934,303.10344 632.83265,303.10344 C618.49675,303.10344 606.20865,314.36804 606.20865,327.67964 L606.20865,328.70405 L606.20865,329.72749 L606.20865,586.75149 L606.20865,587.7759 L606.20865,588.79934 C606.20865,602.11184 618.49675,613.37554 632.83265,613.37554 C636.92933,613.37554 640.00062,612.35113 643.07285,611.32769 L648.19297,608.25542 L883.71297,479.23242 C890.88094,475.13574 894.97757,466.94432 894.97757,457.72752 C894.97757,449.53611 890.88089,441.34372 883.71297,437.24802 L883.71297,437.24802 L883.71287,437.24797 Z"></path>
  </g>
</svg>