<?xml version="1.0" standalone="no"?>
<!DOCTYPE svg PUBLIC "-//W3C//DTD SVG 1.1//EN" "http://www.w3.org/Graphics/SVG/1.1/DTD/svg11.dtd" >
<svg xmlns="http://www.w3.org/2000/svg" xmlns:xlink="http://www.w3.org/1999/xlink" version="1.1" viewBox="-10 0 1034 1024">
   <path fill="currentColor"
d="M514.56 -74.4404c-258.733 0 -468.479 209.701 -468.479 468.381c0 184.763 107.004 344.538 262.438 420.765c19.5078 -71.9932 59.0146 -191.155 114.73 -229.326c-92.2783 -37.8447 -157.27 -128.561 -157.27 -234.454c0 -139.897 113.435 -253.308 253.362 -253.308
s253.362 113.41 253.362 253.308c0 109.265 -69.1943 202.369 -166.156 237.896c51.7217 40.3027 88.9062 149.521 108.356 219.831l2.12598 7.78809c157.363 -75.5166 266.012 -236.322 266.012 -422.5c0 -258.68 -209.746 -468.381 -468.48 -468.381h-0.000976562z
M558.896 449.243c-6.59766 -7.70508 -18.4043 -8.7793 -26.3721 -2.40039l-1.59375 1.19141c-1.59668 1.11035 -3.20898 1.9834 -4.8457 2.65137c-7.21484 2.94238 -15.7861 2.05762 -24.5635 -1.62695c-2.21191 -0.927734 -3.95996 -1.82031 -5.08105 -2.46094
l-2.3291 -1.43652c-8.33008 -4.72559 -19.1543 -2.54492 -24.7959 5.23633c-5.93945 8.18945 -3.88672 19.4844 4.58398 25.2266c2.76465 1.875 7.08301 4.30273 12.709 6.66406c17.2998 7.25977 35.876 9.17871 54.0322 1.77344
c5.56543 -2.26855 10.8457 -5.37305 15.7725 -9.31738c7.96777 -6.37891 9.0791 -17.7959 2.48145 -25.501h0.00195312zM432.64 278.84c-24.0342 0 -43.5195 27.5078 -43.5195 61.4404c0 33.9316 19.4854 61.4395 43.5195 61.4395
c24.0352 0 43.5205 -27.5078 43.5205 -61.4395c0 -33.9326 -19.4854 -61.4404 -43.5205 -61.4404zM601.6 278.84c-24.0342 0 -43.5195 27.5078 -43.5195 61.4404c0 33.9316 19.4854 61.4395 43.5195 61.4395c24.0352 0 43.5205 -27.5078 43.5205 -61.4395
c0 -33.9326 -19.4854 -61.4404 -43.5205 -61.4404z" />
</svg>
