<?xml version="1.0" encoding="UTF-8"?>
<svg width="938px" height="892px" viewBox="0 0 938 892" version="1.1" xmlns="http://www.w3.org/2000/svg" xmlns:xlink="http://www.w3.org/1999/xlink">
  <g id="CharacterHub" transform="translate(0.4508, 0.6614)" fill="currentColor" fill-rule="nonzero">
    <path d="M468.479,1.42108547e-14 C209.746,1.42108547e-14 -5.68434189e-14,209.701 -5.68434189e-14,468.381 C-5.68434189e-14,653.144 107.004,812.919 262.438,889.146 C281.9458,817.1528 321.4526,697.991 377.168,659.82 C284.8897,621.9753 219.898,531.259 219.898,425.366 C219.898,285.469 333.333,172.058 473.26,172.058 C613.187,172.058 726.622,285.468 726.622,425.366 C726.622,534.631 657.4277,627.735 560.466,663.262 C612.1877,703.5647 649.3722,812.783 668.822,883.093 L670.94798,890.88109 C828.31098,815.36449 936.95998,654.55909 936.95998,468.38109 C936.95998,209.70109 727.21398,1.42108547e-14 468.47998,1.42108547e-14 L468.479003,1.42108547e-14 L468.479,1.42108547e-14 Z M512.815,523.6834 C506.21734,515.97832 494.4107,514.9041 486.4429,521.28301 L484.84915,522.47442 C483.25247,523.58477 481.64017,524.45782 480.00345,525.12579 C472.78861,528.06817 464.21735,527.18341 455.43995,523.49884 C453.22804,522.571106 451.47999,521.67853 450.3589,521.0379 L448.0298,519.60138 C439.69972,514.87579 428.8755,517.05646 423.2339,524.83771 C417.29445,533.02716 419.34718,544.32211 427.81788,550.06431 C430.58253,551.93931 434.90089,554.36704 440.52688,556.72837 C457.82668,563.98814 476.40288,565.90708 494.55908,558.50181 C500.12451,556.23326 505.40478,553.12876 510.33158,549.18443 C518.29935,542.80552 519.41068,531.38853 512.81303,523.68343 L512.814983,523.68343 L512.815,523.6834 Z M386.559,353.2804 C362.5248,353.2804 343.0395,380.7882 343.0395,414.7208 C343.0395,448.6524 362.5249,476.1603 386.559,476.1603 C410.5942,476.1603 430.0795,448.6525 430.0795,414.7208 C430.0795,380.7882 410.5941,353.2804 386.559,353.2804 Z M555.519,353.2804 C531.4848,353.2804 511.9995,380.7882 511.9995,414.7208 C511.9995,448.6524 531.4849,476.1603 555.519,476.1603 C579.5542,476.1603 599.0395,448.6525 599.0395,414.7208 C599.0395,380.7882 579.5541,353.2804 555.519,353.2804 Z"></path>
  </g>
</svg>