<?xml version="1.0" standalone="no"?>
<!DOCTYPE svg PUBLIC "-//W3C//DTD SVG 1.1//EN" "http://www.w3.org/Graphics/SVG/1.1/DTD/svg11.dtd" >
<svg xmlns="http://www.w3.org/2000/svg" xmlns:xlink="http://www.w3.org/1999/xlink" version="1.1" viewBox="-10 0 1034 1024">
   <path fill="currentColor"
d="M227.407 -37.6377c11.0771 3.11426 29.6201 9.65723 53.1758 20.2227c39.0098 17.4961 78.002 40.2012 114.494 68.7783c7.74609 6.06543 15.2822 12.3213 22.5967 18.7715c11.8789 -31.6689 53.9609 -99.2266 195.729 -99.2266
c185.359 0 308.196 123.708 308.196 351.871c0 152.108 -16.9375 307.885 -50.8135 467.329c-512.257 -145.899 -768.386 -308.081 -768.386 -486.547c0 -191.167 158.443 -220.047 249.038 -220.935l12.0713 9.04688c-32.9902 -25.834 -68.4434 -46.4795 -103.878 -62.3721
c-21.1094 -9.46777 -37.3076 -15.1836 -46.084 -17.6504c-13.6113 -3.82715 -21.542 -17.9629 -17.7148 -31.5742s17.9629 -21.542 31.5742 -17.7148z" />
</svg>
