<?xml version="1.0" encoding="UTF-8"?>
<svg width="821px" height="830px" viewBox="0 0 821 830" version="1.1" xmlns="http://www.w3.org/2000/svg" xmlns:xlink="http://www.w3.org/1999/xlink">
  <g id="ChickenSmoothie" transform="translate(0.9331, 0.8284)" fill="currentColor" fill-rule="nonzero">
    <path d="M125.008,0.963041698 C136.0851,4.0773017 154.6281,10.6202717 178.1838,21.1857417 C217.1936,38.6818417 256.1858,61.3869417 292.6778,89.9640417 C300.42389,96.0294717 307.96,102.285342 315.2745,108.735542 C327.1534,77.0666417 369.2354,9.5089417 511.0035,9.5089417 C696.3625,9.5089417 819.1995,133.216942 819.1995,361.379942 C819.1995,513.487942 802.262,669.264942 768.386,828.708942 C256.129,682.809942 0,520.627942 0,342.161942 C0,150.994942 158.443,122.114942 249.038,121.226942 L261.1093,130.273822 C228.1191,104.439822 192.6659,83.7943217 157.2313,67.9017217 C136.1219,58.4339517 119.9237,52.7181217 111.1473,50.2513217 C97.536,46.4241717 89.6053,32.2884217 93.4325,18.6771217 C97.2597,5.0658217 111.3954,-2.8648783 125.0067,0.962321698 L125.008,0.963041698 Z"></path>
  </g>
</svg>