<?xml version="1.0" encoding="UTF-8"?>
<svg width="1025px" height="1023px" viewBox="0 0 1025 1023" version="1.1" xmlns="http://www.w3.org/2000/svg" xmlns:xlink="http://www.w3.org/1999/xlink">
  <g id="Chrome" transform="translate(0.2781, 0.0926)" fill="currentColor" fill-rule="nonzero">
    <path d="M704,512 C704,618 618,704 512,704 C406,704 320,618 320,512 C320,406 406,320 512,320 C618,320 704,406 704,512 Z M514,286 L976,286 C892,116 716,0 516,0 C352,0 206,76 112,196 L288,496 C296,378 394,286 514,286 Z M988,320 L636,320 C700,360 740,430 740,510 C740,548 730,586 712,618 L480,1022 L514,1022 C796,1022 1024,794 1024,510 C1024,444 1010,378 988,320 Z M520,742 C420,742 334,678 304,590 L88,224 C32,306 0,404 0,510 C0,772 194,988 444,1022 L624,716 C592,732 558,742 520,742 Z"></path>
  </g>
</svg>