<?xml version="1.0" standalone="no"?>
<!DOCTYPE svg PUBLIC "-//W3C//DTD SVG 1.1//EN" "http://www.w3.org/Graphics/SVG/1.1/DTD/svg11.dtd" >
<svg xmlns="http://www.w3.org/2000/svg" xmlns:xlink="http://www.w3.org/1999/xlink" version="1.1" viewBox="-10 0 1044 1024">
   <path fill="currentColor"
d="M704 371c0 106 -86 192 -192 192s-192 -86 -192 -192s86 -192 192 -192s192 86 192 192zM514 145h462c-84 -170 -260 -286 -460 -286c-164 0 -310 76 -404 196l176 300c8 -118 106 -210 226 -210zM988 179h-352c64 40 104 110 104 190c0 38 -10 76 -28 108l-232 404h34
c282 0 510 -228 510 -512c0 -66 -14 -132 -36 -190zM520 601c-100 0 -186 -64 -216 -152l-216 -366c-56 82 -88 180 -88 286c0 262 194 478 444 512l180 -306c-32 16 -66 26 -104 26z" />
</svg>
