<?xml version="1.0" encoding="UTF-8"?>
<svg width="1024px" height="885px" viewBox="0 0 1024 885" version="1.1" xmlns="http://www.w3.org/2000/svg" xmlns:xlink="http://www.w3.org/1999/xlink">
  <g id="Codered" transform="translate(0, 0.0926)" fill="currentColor" fill-rule="nonzero">
    <path d="M1024,650.24 C899.072,433.152 774.144,218.112 648.192,0 C602.1119,79.8721 557.0553,156.672 512,235.521 C466.9443,156.6724 421.8877,79.873 375.808,0 C249.857,218.112 125.953,433.152 0,651.265 L272.384,651.265 C227.3283,730.1127 182.2727,806.912 137.216,884.737 L886.784,884.737 C841.7274,805.8884 797.6961,729.089 751.616,650.241 L1024,650.241 L1024,650.24 Z M273.408,650.24 C353.2801,512 432.128,374.784 512,235.52 C591.8721,373.759 670.72,509.952 750.592,649.215 C590.848,650.24 433.153,650.24 273.408,650.24 L273.408,650.24 Z"></path>
  </g>
</svg>