<?xml version="1.0" encoding="UTF-8"?>
<svg width="1025px" height="928px" viewBox="0 0 1025 928" version="1.1" xmlns="http://www.w3.org/2000/svg" xmlns:xlink="http://www.w3.org/1999/xlink">
  <g id="CoderWall" transform="translate(0.1653, 0)" fill="currentColor" fill-rule="nonzero">
    <path d="M896,256 C968,256 1024,198 1024,128 C1024,58 968,0 896,0 C826,0 770,58 770,128 C770,198 826,256 896,256 Z M896,336 C826,336 770,394 770,464 C770,534 826,592 896,592 C968,592 1024,534 1024,464 C1024,394 968,336 896,336 Z M896,672 C826,672 770,730 770,800 C770,870 826,928 896,928 C968,928 1024,870 1024,800 C1024,730 968,672 896,672 Z M510,0 C440,0 382,58 382,128 C382,198 440,256 510,256 C580,256 638,198 638,128 C638,58 580,0 510,0 Z M510,336 C440,336 382,394 382,464 C382,534 440,592 510,592 C580,592 638,534 638,464 C638,394 580,336 510,336 Z M128,0 C58,0 0,58 0,128 C0,198 58,256 128,256 C198,256 256,198 256,128 C256,58 198,0 128,0 Z"></path>
  </g>
</svg>