<?xml version="1.0" standalone="no"?>
<!DOCTYPE svg PUBLIC "-//W3C//DTD SVG 1.1//EN" "http://www.w3.org/Graphics/SVG/1.1/DTD/svg11.dtd" >
<svg xmlns="http://www.w3.org/2000/svg" xmlns:xlink="http://www.w3.org/1999/xlink" version="1.1" viewBox="-12 0 1044 1024">
   <path fill="currentColor"
d="M894 163c72 0 128 -58 128 -128s-56 -128 -128 -128c-70 0 -126 58 -126 128s56 128 126 128zM894 243c-70 0 -126 58 -126 128s56 128 126 128c72 0 128 -58 128 -128s-56 -128 -128 -128zM894 579c-70 0 -126 58 -126 128s56 128 126 128c72 0 128 -58 128 -128
s-56 -128 -128 -128zM508 -93c-70 0 -128 58 -128 128s58 128 128 128s128 -58 128 -128s-58 -128 -128 -128zM508 243c-70 0 -128 58 -128 128s58 128 128 128s128 -58 128 -128s-58 -128 -128 -128zM126 -93c-70 0 -128 58 -128 128s58 128 128 128s128 -58 128 -128
s-58 -128 -128 -128z" />
</svg>
