<?xml version="1.0" standalone="no"?>
<!DOCTYPE svg PUBLIC "-//W3C//DTD SVG 1.1//EN" "http://www.w3.org/Graphics/SVG/1.1/DTD/svg11.dtd" >
<svg xmlns="http://www.w3.org/2000/svg" xmlns:xlink="http://www.w3.org/1999/xlink" version="1.1" viewBox="-10 0 1044 1024">
   <path fill="currentColor"
d="M1024 578.872c-124.928 -217.088 -249.856 -432.128 -375.808 -650.24c-46.0801 79.8721 -91.1367 156.672 -136.192 235.521c-45.0557 -78.8486 -90.1123 -155.648 -136.192 -235.521c-125.951 218.112 -249.855 433.152 -375.808 651.265h272.384
c-45.0557 78.8477 -90.1113 155.647 -135.168 233.472h749.568c-45.0566 -78.8486 -89.0879 -155.648 -135.168 -234.496h272.384zM273.408 578.872c79.8721 -138.24 158.72 -275.456 238.592 -414.72c79.8721 138.239 158.72 274.432 238.592 413.695
c-159.744 1.02441 -317.439 1.02441 -477.184 1.02441z" />
</svg>
