<?xml version="1.0" standalone="no"?>
<!DOCTYPE svg PUBLIC "-//W3C//DTD SVG 1.1//EN" "http://www.w3.org/Graphics/SVG/1.1/DTD/svg11.dtd" >
<svg xmlns="http://www.w3.org/2000/svg" xmlns:xlink="http://www.w3.org/1999/xlink" version="1.1" viewBox="-10 0 1044 1024">
   <path fill="currentColor"
d="M1024 215.352c0 -2.04785 -1.02441 -5.11914 -1.02441 -7.16797v-3.07129c-1.02344 -5.12012 -3.07129 -10.2402 -6.14355 -15.3604c0 0 0 -1.02441 -1.02441 -1.02441c0 -1.02344 -1.02344 -1.02344 -1.02344 -1.02344
c-3.07227 -4.0957 -7.16797 -9.21582 -12.2881 -12.2881v0v0l-462.848 -307.2c-2.04883 -1.02344 -3.07227 -2.04785 -5.12012 -2.04785c-2.04785 -1.02441 -3.07227 -2.04785 -5.12012 -2.04785c-11.2646 -4.0957 -22.5283 -4.0957 -33.792 0
c-2.04785 1.02344 -3.07227 1.02344 -5.12012 2.04785s-3.07227 1.02441 -5.12012 2.04785l-462.848 307.2v0v0c-5.12012 3.07227 -8.19238 7.16797 -12.2881 12.2881c0 1.02344 -1.02441 1.02344 -1.02441 1.02344s0 1.02441 -1.02344 1.02441
c-3.07227 5.12012 -5.12012 10.2402 -6.14453 15.3604v3.07129c0 2.04883 -1.02344 5.12012 -1.02344 7.16797v312.32c0 2.04785 1.02344 5.12012 1.02344 7.16797v3.07227c1.02441 5.12012 3.07227 10.2402 6.14453 15.3604c0 0 0 1.02344 1.02344 1.02344
c0 1.02441 1.02441 1.02441 1.02441 1.02441c3.07129 4.0957 7.16797 9.21582 12.2881 12.2881v0v0l462.848 307.199c2.04785 1.02441 3.07227 2.04883 5.12012 2.04883c2.04785 1.02344 3.07227 2.04785 5.12012 2.04785c5.12012 2.04785 11.2637 3.07129 16.3838 3.07129
s11.2637 -1.02344 16.3838 -3.07129c2.04785 -1.02441 3.07227 -1.02441 5.12012 -2.04785c2.04785 -1.02441 3.07227 -1.02441 5.12012 -2.04883l463.872 -307.199c1.02344 -1.02441 1.02344 -2.04883 2.04785 -2.04883c2.04785 -1.02344 3.07227 -3.07129 5.12012 -4.0957
c1.02441 -1.02344 3.07227 -3.07227 4.0957 -5.12012c1.02441 -1.02344 2.04785 -2.04785 2.04785 -3.07129c0 0 0 -1.02441 1.02441 -1.02441c3.07227 -5.12012 5.12012 -10.2402 6.14355 -15.3604v-3.07129c0 -2.04883 1.02441 -5.12012 1.02441 -7.16797v-311.297z
M512 468.28l-145.408 -97.2803l145.408 -97.2803l145.408 97.2803zM560.128 188.728v-191.487l327.68 217.088l-144.384 97.2803zM463.872 188.728l-183.296 122.881l-144.384 -97.2803l327.68 -217.088v191.487zM193.536 371l-96.2559 64.5117v-130.048zM280.576 429.368
l183.296 122.88v191.488l-327.68 -217.088zM560.128 552.248l183.296 -122.88l144.384 97.2803l-327.68 217.088v-191.488zM830.464 371l96.2559 -64.5117v130.048z" />
</svg>
