<?xml version="1.0" encoding="UTF-8"?>
<svg width="1024px" height="1022px" viewBox="0 0 1024 1022" version="1.1" xmlns="http://www.w3.org/2000/svg" xmlns:xlink="http://www.w3.org/1999/xlink">
  <g id="CodePen" transform="translate(0.6644, 0.6075)" fill="currentColor" fill-rule="nonzero">
    <path d="M1022.97631,354.303085 C1022.97631,352.255235 1021.9519,349.183945 1021.9519,347.135115 L1021.9519,344.063825 C1020.92846,338.943705 1018.88061,333.823625 1015.80835,328.703425 C1015.80835,328.703425 1015.80835,327.679015 1014.78394,327.679015 C1014.78394,326.655575 1013.7605,326.655575 1013.7605,326.655575 C1010.68823,322.559875 1006.59253,317.439755 1001.4724,314.367475 L1001.4724,314.367475 L1001.4724,314.367475 L538.6244,7.167475 C536.57557,6.144035 535.55213,5.119625 533.50428,5.119625 C531.45643,4.095215 530.43201,3.071775 528.38416,3.071775 C517.11956,-1.023925 505.85586,-1.023925 494.59216,3.071775 C492.54431,4.095215 491.51989,4.095215 489.47204,5.119625 C487.42419,6.144035 486.39977,6.144035 484.35192,7.167475 L21.50392,314.367475 L21.50392,314.367475 L21.50392,314.367475 C16.3838,317.439745 13.31154,321.535445 9.21582,326.655575 C9.21582,327.679015 8.19141,327.679015 8.19141,327.679015 C8.19141,327.679015 8.19141,328.703425 7.16797,328.703425 C4.0957,333.823545 2.04785,338.943625 1.02344,344.063825 L1.02344,347.135115 C1.02344,349.183945 -6.30606678e-14,352.255235 -6.30606678e-14,354.303085 L-6.30606678e-14,666.623085 C-6.30606678e-14,668.670935 1.02344,671.743205 1.02344,673.791055 L1.02344,676.863325 C2.04785,681.983445 4.09571,687.103525 7.16797,692.223725 C7.16797,692.223725 7.16797,693.247165 8.19141,693.247165 C8.19141,694.271575 9.21582,694.271575 9.21582,694.271575 C12.28711,698.367275 16.38379,703.487395 21.50392,706.559675 L21.50392,706.559675 L21.50392,706.559675 L484.35192,1013.75868 C486.39977,1014.78309 487.42419,1015.8075 489.47204,1015.8075 C491.51989,1016.83095 492.54431,1017.85536 494.59216,1017.85536 C499.71228,1019.90321 505.85586,1020.92665 510.97596,1020.92665 C516.09606,1020.92665 522.23966,1019.90321 527.35976,1017.85536 C529.40761,1016.83095 530.43203,1016.83095 532.47988,1015.8075 C534.52773,1014.7831 535.55215,1014.7831 537.6,1013.75868 L1001.472,706.559675 C1002.49544,705.535265 1002.49544,704.510845 1003.51985,704.510845 C1005.5677,703.487405 1006.59212,701.439555 1008.63997,700.415145 C1009.66438,699.391705 1011.71224,697.342875 1012.73567,695.295025 C1013.76008,694.271585 1014.78352,693.247175 1014.78352,692.223735 C1014.78352,692.223735 1014.78352,691.199325 1015.80793,691.199325 C1018.8802,686.079205 1020.92805,680.959125 1021.95148,675.838925 L1021.95148,672.767635 C1021.95148,670.718805 1022.97631,667.647515 1022.97631,665.599665 L1022.97631,354.302665 L1022.97631,354.303085 Z M510.97631,607.231085 L365.56831,509.950785 L510.97631,412.670485 L656.38431,509.950785 L510.97631,607.231085 Z M559.10431,327.679085 L559.10431,136.192085 L886.78431,353.280085 L742.40031,450.560385 L559.10431,327.679085 Z M462.84831,327.679085 L279.55231,450.560085 L135.16831,353.279785 L462.84831,136.191785 L462.84831,327.678785 L462.84831,327.679085 Z M192.51231,509.951085 L96.25641,574.462785 L96.25641,444.414785 L192.51231,509.951085 Z M279.55231,568.319085 L462.84831,691.199085 L462.84831,882.687085 L135.16831,665.599085 L279.55231,568.319085 Z M559.10431,691.199085 L742.40031,568.319085 L886.78431,665.599385 L559.10431,882.687385 L559.10431,691.199385 L559.10431,691.199085 Z M829.44031,509.951085 L925.69621,445.439385 L925.69621,575.487385 L829.44031,509.951085 Z"></path>
  </g>
</svg>