<?xml version="1.0" encoding="UTF-8"?>
<svg width="937px" height="676px" viewBox="0 0 937 676" version="1.1" xmlns="http://www.w3.org/2000/svg" xmlns:xlink="http://www.w3.org/1999/xlink">
  <g id="Cohost" transform="translate(0.8598, 0.6614)" fill="currentColor" fill-rule="nonzero">
    <path d="M753.690935,561.533767 C746.719255,562.002517 739.595235,562.233962 732.312035,562.233962 C701.350135,562.233962 673.294435,558.038652 648.138235,549.658762 C622.980035,541.272042 602.983935,528.765162 588.148935,512.137262 C573.313935,495.509362 565.899935,474.655862 565.899935,449.570862 C565.899935,424.343362 573.314975,403.453662 588.148935,386.897962 C602.982935,370.343262 622.980035,357.944862 648.138235,349.702662 C673.296435,341.460462 701.350135,337.340362 732.312035,337.340362 C763.127435,337.340362 791.075735,341.497592 816.165535,349.810062 C833.016135,355.395022 847.570835,362.841262 859.830535,372.147962 C865.819795,376.692882 871.255335,381.682142 876.146935,387.113762 C886.110805,398.178262 892.744635,411.148962 896.048335,426.023962 C900.724115,418.405802 905.066885,410.640162 909.077635,402.729062 C937.780735,346.096262 942.901835,283.334062 924.445835,214.445062 C905.985835,145.556362 870.193835,93.8620616 817.070835,59.3660616 C799.640135,48.0467616 781.031735,38.3494616 761.246635,30.2722616 C720.726135,13.7351616 675.271035,3.99786164 624.878635,1.06036164 C549.869835,-3.31268836 470.047635,5.84063164 385.412635,28.5173616 C300.383335,51.3005616 226.357635,83.2663616 163.337635,124.412862 C100.316135,165.558362 54.5256353,214.324962 25.9646353,270.708862 C-2.59636467,327.092762 -7.59496467,389.926862 10.9705353,459.209862 C29.4285353,528.099462 65.1482353,579.918862 118.126535,614.665862 C171.104035,649.412962 235.222535,669.044762 310.479535,673.561362 C385.736335,678.078942 465.880535,668.943202 550.909535,646.160962 C627.470035,625.647262 695.062535,597.434362 753.688535,561.533062 L753.690935,561.533767 Z M485.493935,516.869767 C479.616985,523.177387 469.262535,529.873667 454.426535,536.972267 C439.590635,544.065037 421.709735,550.049367 400.782035,554.926367 C379.855235,559.797457 357.351335,562.235937 333.271335,562.235937 C312.201035,562.235937 291.561335,560.193947 271.350435,556.108987 C251.139535,552.024027 232.865035,545.538687 216.524235,536.650987 C200.184435,527.763287 187.176535,516.151987 177.501735,501.818987 C167.825955,487.485987 162.988035,470.069987 162.988035,449.573887 C162.988035,428.789687 167.825925,411.231087 177.501735,396.897087 C187.176535,382.563087 200.184335,371.024987 216.524235,362.282787 C232.864035,353.538647 251.139435,347.194887 271.350435,343.254487 C291.561335,339.313077 312.201035,337.342377 333.271335,337.342377 C357.494935,337.342377 379.856335,339.492767 400.353335,343.792577 C420.850335,348.092387 438.445135,353.717377 453.136535,360.670477 C467.827935,367.622627 478.471535,375.039577 485.064235,382.923377 L430.023235,419.043477 C421.996865,410.299337 409.812335,403.312077 393.472435,398.080577 C377.132635,392.848157 357.280035,390.231947 333.916735,390.231947 C322.449935,390.231947 310.875735,391.128431 299.193135,392.919447 C287.511535,394.710467 276.797635,397.757337 267.049535,402.057147 C257.301435,406.356957 249.455735,412.377447 243.506535,420.118647 C237.557315,427.857907 234.582705,437.677247 234.582705,449.574747 C234.582705,461.328647 237.557315,471.039547 243.506535,478.707547 C249.455755,486.375547 257.302435,492.468247 267.049535,496.981947 C276.795625,501.498547 287.510435,504.686047 299.193135,506.550307 C310.876735,508.414567 322.449035,509.345227 333.916735,509.345227 C356.850335,509.345227 376.738035,506.478037 393.579835,500.745617 C410.420635,495.012217 422.281035,488.418517 429.162835,480.964417 L485.493935,516.870617 L485.493935,516.869767 Z M732.311935,508.484767 C702.351935,508.484767 679.025835,503.182037 662.329535,492.574567 C645.632235,481.966167 637.281635,467.634167 637.281635,449.573567 C637.281635,431.369467 645.631245,417.071567 662.329535,406.679067 C679.026835,396.286467 702.352035,391.091167 732.311935,391.091167 C762.124435,391.091167 785.308035,396.287457 801.862735,406.679067 C818.418435,417.070667 826.697735,431.368567 826.697735,449.573567 C826.697735,467.346967 818.455545,481.607767 801.973135,492.357767 C785.485835,503.107767 762.266135,508.482767 732.311035,508.482767 L732.311935,508.484767 Z"></path>
  </g>
</svg>