<?xml version="1.0" standalone="no"?>
<!DOCTYPE svg PUBLIC "-//W3C//DTD SVG 1.1//EN" "http://www.w3.org/Graphics/SVG/1.1/DTD/svg11.dtd" >
<svg xmlns="http://www.w3.org/2000/svg" xmlns:xlink="http://www.w3.org/1999/xlink" version="1.1" viewBox="-10 0 1034 1024">
   <path fill="currentColor"
d="M798.05 595.191c-6.97168 0.46875 -14.0957 0.700195 -21.3789 0.700195c-30.9619 0 -59.0176 -4.19531 -84.1738 -12.5752c-25.1582 -8.38672 -45.1543 -20.8936 -59.9893 -37.5215s-22.249 -37.4814 -22.249 -62.5664c0 -25.2275 7.41504 -46.1172 22.249 -62.6729
c14.834 -16.5547 34.8311 -28.9531 59.9893 -37.1953s53.2119 -12.3623 84.1738 -12.3623c30.8154 0 58.7637 4.15723 83.8535 12.4697c16.8506 5.58496 31.4053 13.0312 43.665 22.3379c5.98926 4.54492 11.4248 9.53418 16.3164 14.9658
c9.96387 11.0645 16.5977 24.0352 19.9014 38.9102c4.67578 -7.61816 9.01855 -15.3838 13.0293 -23.2949c28.7031 -56.6328 33.8242 -119.395 15.3682 -188.284c-18.46 -68.8887 -54.252 -120.583 -107.375 -155.079
c-17.4307 -11.3193 -36.0391 -21.0166 -55.8242 -29.0938c-40.5205 -16.5371 -85.9756 -26.2744 -136.368 -29.2119c-75.0088 -4.37305 -154.831 4.78027 -239.466 27.457c-85.0293 22.7832 -159.055 54.749 -222.075 95.8955
c-63.0215 41.1455 -108.812 89.9121 -137.373 146.296s-33.5596 119.218 -14.9941 188.501c18.458 68.8896 54.1777 120.709 107.156 155.456c52.9775 34.7471 117.096 54.3789 192.353 58.8955c75.2568 4.51758 155.401 -4.61816 240.43 -27.4004
c76.5605 -20.5137 144.153 -48.7266 202.779 -84.6279zM529.853 550.527c-5.87695 6.30762 -16.2314 13.0039 -31.0674 20.1025c-14.8359 7.09277 -32.7168 13.0771 -53.6445 17.9541c-20.9268 4.87109 -43.4307 7.30957 -67.5107 7.30957
c-21.0703 0 -41.71 -2.04199 -61.9209 -6.12695s-38.4854 -10.5703 -54.8262 -19.458c-16.3398 -8.8877 -29.3477 -20.499 -39.0225 -34.832c-9.67578 -14.333 -14.5137 -31.749 -14.5137 -52.2451c0 -20.7842 4.83789 -38.3428 14.5137 -52.6768
c9.6748 -14.334 22.6826 -25.8721 39.0225 -34.6143c16.3398 -8.74414 34.6152 -15.0879 54.8262 -19.0283c20.2109 -3.94141 40.8506 -5.91211 61.9209 -5.91211c24.2236 0 46.585 2.15039 67.082 6.4502s38.0918 9.9248 52.7832 16.8779
c14.6914 6.95215 25.335 14.3691 31.9277 22.2529l-55.041 36.1201c-8.02637 -8.74414 -20.2109 -15.7314 -36.5508 -20.9629c-16.3398 -5.23242 -36.1924 -7.84863 -59.5557 -7.84863c-11.4668 0 -23.041 0.896484 -34.7236 2.6875
c-11.6816 1.79102 -22.3955 4.83789 -32.1436 9.1377s-17.5938 10.3203 -23.543 18.0615c-5.94922 7.73926 -8.92383 17.5586 -8.92383 29.4561c0 11.7539 2.97461 21.4648 8.92383 29.1328s13.7959 13.7607 23.543 18.2744c9.74609 4.5166 20.4609 7.7041 32.1436 9.56836
c11.6836 1.86426 23.2559 2.79492 34.7236 2.79492c22.9336 0 42.8213 -2.86719 59.6631 -8.59961c16.8408 -5.7334 28.7012 -12.3271 35.583 -19.7812l56.3301 35.9062zM776.671 542.142c-29.96 0 -53.2861 -5.30273 -69.9824 -15.9102
c-16.6973 -10.6084 -25.0479 -24.9404 -25.0479 -43.001c0 -18.2041 8.34961 -32.502 25.0479 -42.8945c16.6973 -10.3926 40.0225 -15.5879 69.9824 -15.5879c29.8125 0 52.9961 5.19629 69.5508 15.5879c16.5557 10.3916 24.835 24.6895 24.835 42.8945
c0 17.7734 -8.24219 32.0342 -24.7246 42.7842c-16.4873 10.75 -39.707 16.125 -69.6621 16.125z" />
</svg>
