<?xml version="1.0" standalone="no"?>
<!DOCTYPE svg PUBLIC "-//W3C//DTD SVG 1.1//EN" "http://www.w3.org/Graphics/SVG/1.1/DTD/svg11.dtd" >
<svg xmlns="http://www.w3.org/2000/svg" xmlns:xlink="http://www.w3.org/1999/xlink" version="1.1" viewBox="-11 0 1044 1024">
   <path fill="currentColor"
d="M657.408 550.2c-4.09668 3.07227 -7.16797 6.14355 -11.2646 8.19141c-38.9111 28.6729 -86.0156 43.0088 -134.144 43.0088c-126.976 0 -231.424 -103.425 -231.424 -231.425c0 -109.567 77.8242 -204.8 184.32 -226.304
c6.14355 -1.02344 12.2871 -2.04785 20.4795 -3.07227l4.0957 -1.02344v-280.576h-8.19141h-6.14453c-266.239 20.4805 -475.136 244.736 -475.136 512c0 282.624 229.376 512 512 512c101.376 0 199.68 -29.6963 283.648 -86.0156
c21.5039 -14.3359 41.9834 -29.6963 60.416 -47.1045l4.0957 -3.07227l-198.656 -199.68zM512 842.04c-125.952 0 -243.712 -49.1523 -332.8 -138.24s-138.24 -206.848 -138.24 -332.8c0 -119.808 45.0557 -234.496 126.976 -321.536
c73.7285 -78.8477 173.057 -131.072 280.576 -145.408v201.729c-57.3438 13.3115 -109.567 46.0801 -146.432 92.1602c-39.9365 48.1279 -62.4639 110.592 -62.4639 173.056c0 150.528 121.855 272.384 272.384 272.384c51.2002 0 101.376 -14.3359 144.384 -41.9834
l142.336 142.336c-8.19141 6.14355 -17.4082 13.3115 -26.624 19.4561c-76.7998 51.1992 -166.912 78.8477 -260.096 78.8477zM363.52 371c0 81.9199 66.5605 148.48 148.48 148.48s148.48 -66.5605 148.48 -148.48s-66.5605 -148.48 -148.48 -148.48
s-148.48 66.5605 -148.48 148.48zM512 264.504c58.3682 0 106.496 48.1279 106.496 106.496c0 59.3916 -48.1279 106.496 -106.496 106.496s-106.496 -47.1045 -106.496 -106.496c0 -58.3682 48.1279 -106.496 106.496 -106.496zM882.688 17.7197
c-91.1367 -96.2559 -214.017 -151.552 -345.089 -158.72h-5.11914v281.6h4.0957c117.76 13.3125 206.848 111.616 206.848 230.4c0 52.2236 -17.4082 101.376 -49.1514 142.336l-3.07227 3.07227l198.656 198.656l3.07129 -4.09668
c83.9688 -94.208 130.048 -215.04 130.048 -340.992c1.02441 -131.071 -49.1514 -257.023 -140.287 -352.256zM573.44 -95.9443c98.3037 13.3125 188.416 55.2959 260.096 123.904c-48.1279 46.0801 -96.2559 92.1602 -144.384 137.216
c-32.7686 -29.6953 -72.7041 -50.1758 -115.712 -59.3916v-201.729zM744.448 512.312c21.5039 -34.8154 34.8154 -73.7275 37.8877 -114.688c24.5762 0 50.1758 1.02441 71.6797 1.02441l65.5361 1.02344c20.4805 0 40.96 1.02441 62.4639 1.02441
c-6.14355 92.1602 -38.9121 180.224 -94.208 253.952zM855.04 357.688c-20.4805 0 -46.0801 -1.02441 -71.6797 -1.02441c-3.07227 -59.3916 -25.6006 -116.736 -64.5127 -161.792c48.1279 -45.0557 96.2559 -91.1357 143.36 -137.216
c74.752 82.9434 116.736 190.464 118.784 302.08c-20.4805 -1.02441 -41.9844 -1.02441 -62.4639 -1.02441l-32.7686 -1.02344h-30.7197z" />
</svg>
