<?xml version="1.0" encoding="UTF-8"?>
<svg width="1023px" height="1025px" viewBox="0 0 1023 1025" version="1.1" xmlns="http://www.w3.org/2000/svg" xmlns:xlink="http://www.w3.org/1999/xlink">
  <g id="Collectorz" transform="translate(0.0015, 0.0684)" fill="currentColor" fill-rule="nonzero">
    <path d="M657.40934,691.2005 C653.31266,694.27277 650.24137,697.34405 646.14474,699.39191 C607.23364,728.06481 560.12914,742.40071 512.00074,742.40071 C385.02474,742.40071 280.57674,638.97571 280.57674,510.97571 C280.57674,401.40871 358.40094,306.17571 464.89674,284.67171 C471.04029,283.64827 477.18384,282.62386 485.37624,281.59944 L489.47194,280.576 L489.47194,0 L481.28053,0 L475.136,0 C208.897,20.4805 0,244.736 0,512 C0,794.624 229.376,1024 512,1024 C613.376,1024 711.68,994.3037 795.648,937.9844 C817.1519,923.6485 837.6314,908.2881 856.064,890.8799 L860.1597,887.80763 L661.5037,688.12763 L657.40934,691.2005 Z M512.00134,983.0421 C386.04934,983.0421 268.28934,933.8882 179.20134,844.8005 C90.11334,755.7128 40.96134,637.9525 40.96134,512.0005 C40.96134,392.1925 86.01704,277.5045 167.93734,190.4645 C241.66584,111.6168 340.99434,59.3925 448.51334,45.0565 L448.51334,246.7855 C391.16954,260.097 338.94634,292.8656 302.08134,338.9457 C262.14484,387.0736 239.61744,449.5377 239.61744,512.0017 C239.61744,662.5297 361.47244,784.3857 512.00144,784.3857 C563.20164,784.3857 613.37744,770.0498 656.38544,742.4023 L798.72144,884.7383 C790.53003,890.88185 781.31324,898.0498 772.09744,904.1944 C695.29764,955.3936 605.18544,983.0421 512.00144,983.0421 L512.00134,983.0421 Z M363.52134,512.0005 C363.52134,593.9204 430.08184,660.4805 512.00134,660.4805 C593.92084,660.4805 660.48134,593.92 660.48134,512.0005 C660.48134,430.081 593.92084,363.5205 512.00134,363.5205 C430.08184,363.5205 363.52134,430.081 363.52134,512.0005 Z M512.00134,405.5045 C570.36954,405.5045 618.49734,453.6324 618.49734,512.0005 C618.49734,571.3921 570.36944,618.4965 512.00134,618.4965 C453.63324,618.4965 405.50534,571.392 405.50534,512.0005 C405.50534,453.6323 453.63324,405.5045 512.00134,405.5045 Z M882.68934,158.7202 C791.55264,62.4643 668.67234,7.1682 537.60034,0.0002 L532.4812,0.0002 L532.4812,281.6002 L536.5769,281.6002 C654.3369,294.9127 743.4249,393.2162 743.4249,512.0002 C743.4249,564.2238 726.0167,613.3762 694.2735,654.3362 L691.20123,657.40847 L889.85723,856.06447 L892.92852,851.96779 C976.89732,757.75979 1022.97652,636.92779 1022.97652,510.97579 C1024.00093,379.90479 973.82512,253.95279 882.68952,158.71979 L882.68934,158.7202 Z M573.44134,45.0556 C671.74504,58.3687 761.85734,100.3521 833.53734,168.9602 C785.40944,215.0403 737.28144,261.1204 689.15334,306.1762 C656.38474,276.4809 616.44924,256.0004 573.44134,246.7846 L573.44134,45.0556 L573.44134,45.0556 Z M744.44934,653.3125 C765.95324,618.4971 779.26474,579.585 782.33704,538.6245 C806.91324,538.6245 832.51284,539.64891 854.01674,539.64891 L919.55284,540.67235 C940.03334,540.67235 960.51284,541.69676 982.01674,541.69676 C975.87319,633.85696 943.10464,721.92076 887.80874,795.64876 L744.44934,653.3125 Z M855.04134,498.6885 C834.56084,498.6885 808.96124,497.66409 783.36164,497.66409 C780.28937,438.27249 757.76104,380.92809 718.84894,335.87209 C766.97684,290.81639 815.10484,244.73639 862.20894,198.65609 C936.96094,281.59949 978.94494,389.12009 980.99294,500.73609 C960.51244,499.71168 939.00854,499.71168 918.52904,499.71168 L885.76044,498.68824 L855.04074,498.68824 L855.04134,498.6885 Z"></path>
  </g>
</svg>