<?xml version="1.0" standalone="no"?>
<!DOCTYPE svg PUBLIC "-//W3C//DTD SVG 1.1//EN" "http://www.w3.org/Graphics/SVG/1.1/DTD/svg11.dtd" >
<svg xmlns="http://www.w3.org/2000/svg" xmlns:xlink="http://www.w3.org/1999/xlink" version="1.1" viewBox="-10 0 1034 1024">
   <path fill="currentColor"
d="M417.061 61.6221c0 0 16.3809 19.2871 34.2119 40.2832l2.98242 3.51172c0.771484 0.908203 1.54395 1.81836 2.31641 2.72656l2.31543 2.72754c0.386719 0.454102 0.771484 0.908203 1.15625 1.36133l2.30176 2.71094c17.5898 20.7129 33.5957 39.5566 33.5957 39.5566
c205.692 -4.44434 308.527 -6.69434 308.506 -6.75c-0.00195312 -0.00585938 0.0625 -0.142578 0.194336 -0.412109l0.249023 -0.500977c1.59863 -3.2002 7.50781 -14.8086 17.7285 -34.8262c77.6807 10.248 116.521 15.3721 116.521 15.3721l-6.36035 185.018
c-260.989 85.5146 -391.483 128.271 -391.483 128.271c-28.293 159.552 -42.4385 239.343 -42.4385 239.372l-1.48242 0.00488281c-0.165039 0 -0.342773 0.000976562 -0.535156 0.000976562l-6.05273 0.00488281c-0.383789 0 -0.782227 0 -1.19434 0.000976562
l-16.4707 0.00488281h-2.09961l-383.942 -0.0166016v-480.794s2.54688 -4.57129 6.64551 -11.9258l1.50977 -2.70898c6.02051 -10.8047 14.668 -26.3203 23.4746 -42.124l4.59668 -8.24902c12.3535 -22.166 24.1777 -43.3828 28.626 -51.3672l0.856445 -1.53516
c0.163086 -0.291992 0.306641 -0.549805 0.430664 -0.772461l0.570312 -1.02344l0.0517578 0.0498047c1.47266 1.4209 34.2217 33.0381 98.248 94.8506c61.1318 -7.2627 95.6279 -11.3604 103.488 -12.293l0.686523 -0.0820312
c0.702148 -0.0830078 1.05273 -0.125 1.05273 -0.125zM568.281 285.172c-0.0253906 0 -76.3477 11.458 -76.3477 11.458c24.7578 45.1592 37.1777 67.7441 37.2588 67.7559c25.248 -51.1328 38.2646 -77.5107 39.0508 -79.1338zM688.162 261.986
c-0.000976562 0 -0.208008 0.0302734 -0.597656 0.0888672l-1.70215 0.254883c-5.16113 0.773438 -18.2979 2.74512 -32.126 4.82129l-3.96387 0.594727c-15.2188 2.28418 -30.4336 4.56934 -36.0781 5.41602l-1.24902 0.1875
c-0.680664 0.102539 -1.04492 0.157227 -1.04492 0.157227c24.8916 45.4053 37.3789 68.1133 37.4609 68.124c22.8877 -46.3535 35.7793 -72.4736 38.6729 -78.3594l0.275391 -0.5625c0.236328 -0.482422 0.354492 -0.72168 0.352539 -0.72168v-0.000976562z
M802.146 244.919c-0.0234375 0 -71.2793 10.6982 -71.2793 10.6982c23.1143 42.1621 34.709 63.2471 34.7852 63.2578c24.3447 -49.3037 36.5098 -73.9561 36.4941 -73.9561zM910.235 227.853c-0.0234375 0 -71.2793 10.6982 -71.2793 10.6982
c23.1143 42.1621 34.709 63.2471 34.7852 63.2578c24.3447 -49.3037 36.5098 -73.9561 36.4941 -73.9561zM167.3 165.228c-26.0518 48.6074 -39.0781 72.9111 -39.0781 72.9111s12.1543 10.708 25.5674 22.5244l5.45215 4.80273
c13.8389 12.1924 27.4639 24.1953 29.2764 25.793l0.204102 0.180664l40.0566 -66.4443zM427.272 150.311c0 0 -13.8027 21.6064 -41.4062 64.8174c3.83594 4.60742 7.43262 8.92578 10.79 12.957l2.81836 3.38477c13.2705 15.9346 22.4727 26.9785 27.6074 33.1318
l2.36328 2.83008c1.6582 1.98633 2.49121 2.97949 2.49902 2.97949c0.0292969 0 14.2939 -20.7559 42.7939 -62.2676c0 0 -15.8223 -19.2773 -47.4668 -57.833h0.000976562z" />
</svg>
