<?xml version="1.0" encoding="UTF-8"?>
<svg width="853px" height="620px" viewBox="0 0 853 620" version="1.1" xmlns="http://www.w3.org/2000/svg" xmlns:xlink="http://www.w3.org/1999/xlink">
  <g id="ComicFury" transform="translate(0.921, 0.8284)" fill="currentColor" fill-rule="nonzero">
    <path d="M329.980077,1.42108547e-14 C329.980077,1.42108547e-14 346.360977,19.2871 364.191977,40.2832 L367.174397,43.79492 C367.945881,44.703123 368.718347,45.61328 369.490807,46.52148 L371.806237,49.24902 C372.192956,49.703122 372.577721,50.157223 372.962487,50.61035 L375.264247,53.32129 C392.854047,74.03419 408.859947,92.87789 408.859947,92.87789 C614.551947,88.43355 717.386947,86.18355 717.365947,86.12789 C717.363994,86.1220306 717.428447,85.985312 717.560283,85.715781 L717.809306,85.214804 C719.407936,82.014604 725.317116,70.406204 735.537806,50.388604 C813.218506,60.636604 852.058806,65.760704 852.058806,65.760704 L845.698456,250.778704 C584.709456,336.293304 454.215456,379.049704 454.215456,379.049704 C425.922456,538.601704 411.776956,618.392704 411.776956,618.421704 L410.294536,618.426587 C410.129497,618.426587 409.951763,618.427563 409.75938,618.427563 L403.70665,618.438306 C403.322861,618.438306 402.924423,618.438306 402.51231,618.438306 L386.04161,618.438306 L383.942,618.438306 L-5.68434189e-14,618.421704 L-5.68434189e-14,137.627704 C-5.68434189e-14,137.627704 2.54688,133.056414 6.64551,125.701904 L8.15528,122.992924 C14.17579,112.188224 22.82328,96.672624 31.62988,80.868924 L36.22656,72.619904 C48.58006,50.453904 60.40426,29.237104 64.85256,21.252704 L65.709005,19.717544 C65.872091,19.425552 66.015646,19.167739 66.139669,18.945083 L66.709981,17.921643 L66.7617388,17.9714477 C68.2343988,19.3923477 100.983439,51.0095477 165.009739,112.822048 C226.141539,105.559348 260.637639,101.461648 268.497739,100.529048 L269.184262,100.447016 C269.88641,100.364009 270.236992,100.322016 270.236992,100.322016 L329.980077,1.42108547e-14 Z M481.200077,223.5499 C481.174686,223.5499 404.852377,235.0079 404.852377,235.0079 C429.610177,280.1671 442.030077,302.752 442.111177,302.7638 C467.359177,251.631 480.375777,225.2531 481.161977,223.63 L481.200077,223.5499 Z M601.081115,200.363858 C601.0801,200.363858 600.873069,200.394173 600.483421,200.452767 L598.781271,200.70765 C593.620141,201.481088 580.483371,203.45277 566.655271,205.52894 L562.691401,206.123667 C547.472601,208.407847 532.257801,210.693007 526.613301,211.539687 L525.364281,211.727187 C524.683617,211.829726 524.319361,211.884414 524.319361,211.884414 C549.210961,257.289714 561.698261,279.997714 561.780261,280.008414 C584.667961,233.654914 597.559561,207.534814 600.453161,201.649014 L600.728552,201.086514 C600.96488,200.604092 601.083044,200.364834 601.081115,200.364834 L601.081115,200.363858 L601.081115,200.363858 Z M715.065092,183.2968 C715.041639,183.2968 643.785777,193.9951 643.785777,193.9951 C666.900077,236.1572 678.494777,257.2422 678.570977,257.2529 C702.915677,207.9492 715.080777,183.2968 715.065092,183.2968 L715.065092,183.2968 Z M823.154092,166.2308 C823.13064,166.2308 751.874777,176.9291 751.874777,176.9291 C774.989077,219.0912 786.583777,240.1762 786.659977,240.1869 C811.004677,190.8832 823.169777,166.2308 823.154092,166.2308 L823.154092,166.2308 Z M80.219077,103.6059 C54.167277,152.2133 41.140977,176.517 41.140977,176.517 C41.140977,176.517 53.295277,187.225 66.708377,199.0414 L72.160527,203.84413 C85.999427,216.03653 99.624427,228.03943 101.436927,229.63713 L101.641029,229.817794 L141.697629,163.373494 L80.219077,103.6059 Z M340.191077,88.68884 C340.191077,88.68884 326.388377,110.2953 298.784877,153.5063 C302.620817,158.11372 306.217497,162.43208 309.574877,166.4633 L312.393237,169.84807 C325.663737,185.78267 334.865937,196.82657 340.000637,202.97987 L342.363917,205.80995 C344.022117,207.79628 344.855127,208.78944 344.862937,208.78944 C344.892234,208.78944 359.156837,188.03354 387.656837,146.52184 C387.656837,146.52184 371.834537,127.24454 340.190037,88.68884 L340.191014,88.68884 L340.191077,88.68884 Z"></path>
  </g>
</svg>