<?xml version="1.0" encoding="UTF-8"?>
<svg width="2232px" height="2232px" viewBox="0 0 2232 2232" version="1.1" xmlns="http://www.w3.org/2000/svg" xmlns:xlink="http://www.w3.org/1999/xlink">
    <title>Commishes</title>
    <g id="Commishes" stroke="none" stroke-width="1" fill="none" fill-rule="evenodd">
        <path d="M1173.22583,2113.93971 L1168.86196,2114.214 L1165.69916,2114.39904 L1161.9297,2114.60451 L1158.22355,2114.79057 L1155.14631,2114.93306 L1152.19281,2115.05958 L1150.1619,2115.14077 L1147.81589,2115.22867 L1144.23677,2115.35063 C1143.30635,2115.38042 1142.37555,2115.40875 1141.44439,2115.43559 L1144.6989,2115.33571 L1142.89233,2115.39265 L1139.54877,2115.48819 L1137.14163,2115.54906 L1133.77515,2115.6231 L1132.2544,2115.65231 L1130.2641,2115.68655 C1125.56311,2115.76209 1120.85298,2115.8 1116.134,2115.8 C1112.6965,2115.8 1109.26369,2115.77988 1105.8357,2115.73976 L1102.17813,2115.68933 L1100.29621,2115.65744 L1098.05667,2115.61424 L1094.774,2115.539 L1092.72802,2115.48843 L1089.08717,2115.38381 L1088.22357,2115.35677 L1088.48,2115.362 L1085.80402,2115.27646 L1082.196,2115.143 L1079.59025,2115.0395 L1074.69274,2114.8215 L1074.469,2114.808 L1071.88998,2114.68434 L1069.05089,2114.53618 L1066.24882,2114.38084 L1062.42334,2114.15415 L1060.97335,2114.06381 L1057.92638,2113.86605 L1055.17162,2113.678 L1053.0007,2113.52361 L1049.72508,2113.28031 L1047.28567,2113.09103 L1042.74815,2112.72053 L1039.83033,2112.46962 L1037.85472,2112.29409 L1036.03122,2112.12802 L1033.06965,2111.85004 L1030.758,2111.624 L1027.04193,2111.25252 L1022.98742,2110.82661 L1020.8929,2110.59902 L1016.41469,2110.09507 L1013.42035,2109.7449 L1010.30809,2109.3697 L1007.06266,2108.96622 L1003.42155,2108.49867 L1000.64415,2108.13143 L997.213791,2107.66517 L994.382217,2107.26971 L990.370654,2106.69304 L986.840876,2106.16967 L983.966222,2105.73239 L981.271579,2105.31345 L977.072,2104.641 L974.655266,2104.24764 L971.108645,2103.6545 L968.469327,2103.2032 L963.9511,2102.41094 L960.100866,2101.71615 L958.493142,2101.42067 L955.671421,2100.89441 L952.396122,2100.27129 L950.803701,2099.96357 L947.705929,2099.356 L946.031279,2099.02262 L943.202355,2098.45156 L939.412839,2097.67105 L936.465207,2097.0516 L932.996558,2096.30878 L930.263069,2095.71281 L926.997861,2094.98864 L923.879144,2094.28446 L921.648,2093.771 L921.887411,2093.82833 L920.56486,2093.52269 L917.80906,2092.87872 L914.136,2092.004 L912.203612,2091.53916 L908.550321,2090.6446 L905.322477,2089.84004 L901.838106,2088.95656 L898.840353,2088.18399 L895.279801,2087.25132 L892.810251,2086.5948 L889.347839,2085.66103 L885.299929,2084.54957 L882.928121,2083.88839 L883.181,2083.957 L881.059938,2083.36242 L879.536745,2082.93019 L877.027763,2082.21157 L874.430645,2081.45898 L871.102168,2080.48142 L870.059982,2080.17232 L870.354,2080.257 L871.028065,2080.45949 L870.451363,2080.28857 L870.354,2080.257 L867.830295,2079.50617 L864.841049,2078.60271 L862.228348,2077.80328 L858.224015,2076.5603 L854.011975,2075.22956 L850.13143,2073.98233 L846.720893,2072.86928 L843.606,2071.838 L840.82082,2070.90626 L838.067352,2069.97381 L834.663122,2068.80653 L831.603927,2067.74388 L830.052,2067.197 L829.94193,2067.16112 L829.407583,2066.97294 L830.052,2067.197 L830.290739,2067.28375 L828.597628,2066.68694 L826.010612,2065.76732 L822.519339,2064.5114 L820.977861,2063.95143 L817.336816,2062.61545 L813.953248,2061.35713 L810.51531,2060.0619 L808.235874,2059.19382 L804.732038,2057.84493 C802.321754,2056.91095 799.916714,2055.96645 797.516976,2055.01148 L795.854256,2054.34779 L793.103643,2053.24099 L790.126588,2052.03059 L786.583,2050.572 L784.70387,2049.79226 L780.927499,2048.20773 L779.007855,2047.39411 L775.519518,2045.90148 L772.95257,2044.7914 L768.755478,2042.95489 L766.645941,2042.02171 L763.950926,2040.81965 L761.584694,2039.75504 L757.11206,2037.71914 L755.129,2036.804 L754.744776,2036.62901 L752.462477,2035.56976 L749.912223,2034.37649 L747.105645,2033.05148 L745.363155,2032.22257 L741.246748,2030.24524 L738.790089,2029.0523 L735.42881,2027.4044 L733.285613,2026.34415 L729.997789,2024.70319 L727.412832,2023.40065 L724.855808,2022.10142 C723.677534,2021.50026 722.500826,2020.89647 721.325691,2020.29005 L718.587853,2018.871 L716.190898,2017.61837 L712.970877,2015.92046 L710.789075,2014.76007 L708.050968,2013.29239 C705.690995,2012.02191 703.337621,2010.74076 700.990912,2009.44899 L696.947732,2007.20922 L695.690741,2006.50709 L693.860922,2005.48006 L690.956788,2003.83796 L688.750673,2002.5806 L685.802996,2000.88709 L685.174802,2000.52417 L685.44,2000.675 L683.50025,1999.55331 L681.330829,1998.28803 L678.175955,1996.43284 L674.347767,1994.15738 L671.92346,1992.70249 L669.672804,1991.3421 L667.050388,1989.74514 L663.18789,1987.36961 L659.793926,1985.25902 L656.747603,1983.34598 L653.970557,1981.58654 L652.012659,1980.33715 L648.197733,1977.88135 L645.734944,1976.28084 L642.985301,1974.47978 L640.938057,1973.12906 L637.96755,1971.15429 L635.675593,1969.61849 L632.779818,1967.66285 L631.311547,1966.66473 L629.181106,1965.2086 C627.111144,1963.78928 625.047688,1962.36115 622.990792,1960.92428 L620.164396,1958.94146 L617.497774,1957.05522 L615.134961,1955.3712 L612.566262,1953.52683 L610.301773,1951.88904 L607.151809,1949.59222 L606.407,1949.044 L606.038766,1948.77542 L604.251546,1947.45815 L602.299405,1946.01121 L600.100106,1944.37087 L596.689148,1941.80525 L595.566,1940.952 L595.095993,1940.59787 L594.027837,1939.78511 L591.445722,1937.80954 L590.081442,1936.75951 L587.324981,1934.62475 L586.233852,1933.77479 L586.469,1933.956 L584.777193,1932.63573 L582.530676,1930.86916 L580.445757,1929.21888 L576.98819,1926.45906 L576.0331,1925.69159 L574.622,1924.551 L574.367868,1924.34816 L572.615639,1922.92719 L570.584001,1921.27013 L568.051861,1919.19046 L565.762025,1917.29593 L564.528,1916.266 L564.430436,1916.18812 L564.057238,1915.87683 L564.528,1916.266 L564.757417,1916.46057 L562.950562,1914.95164 L561.093686,1913.39223 L558.192319,1910.93784 L556.253698,1909.28566 L553.653204,1907.05389 L551.613256,1905.29064 L548.859753,1902.89295 C547.851675,1902.0114 546.845669,1901.12754 545.841743,1900.24138 L544.824881,1899.34238 C541.636494,1896.51911 538.469172,1893.67259 535.323179,1890.80308 L623.601,1625.667 L626.245101,1629.78334 C626.973529,1630.90847 627.704907,1632.03088 628.439007,1633.15021 L626.245101,1629.78334 L627.45373,1631.64354 L628.439007,1633.15021 C629.547814,1634.84088 630.66283,1636.52453 631.784031,1638.20111 L633.470466,1640.71068 C634.343389,1642.00337 635.220012,1643.29182 636.100322,1644.57599 L633.823631,1641.23314 L634.985088,1642.94393 L636.100322,1644.57599 C637.212121,1646.19785 638.329802,1647.81291 639.453338,1649.42111 L641.143031,1651.82828 C643.116403,1654.6263 645.107615,1657.40334 647.116534,1660.15918 L649.131351,1662.90795 C650.023513,1664.11843 650.919118,1665.32476 651.818155,1666.52693 L649.268218,1663.09358 L650.630226,1664.93335 L651.818155,1666.52693 C652.716732,1667.72848 653.618738,1668.92587 654.52416,1670.11909 L651.997549,1666.76669 L653.392036,1668.62258 L654.52416,1670.11909 C656.529652,1672.76203 658.551907,1675.38446 660.5908,1677.98619 L662.635235,1680.581 C664.717317,1683.20943 666.816521,1685.81642 668.932716,1688.40177 L671.462472,1691.47228 L671.054569,1690.97988 C672.001299,1692.12391 672.951384,1693.26364 673.904813,1694.39905 L671.462472,1691.47228 L672.847979,1693.13709 L673.904813,1694.39905 C675.18241,1695.9205 676.466011,1697.43419 677.755591,1698.94008 L679.69444,1701.19305 C680.628807,1702.27348 681.566277,1703.34984 682.506838,1704.42211 L679.977397,1701.52001 L681.419207,1703.17878 L682.506838,1704.42211 C683.81072,1705.90858 685.120544,1707.3872 686.436282,1708.85791 L688.847716,1711.53722 L688.414321,1711.05805 C689.414066,1712.16457 690.417186,1713.26656 691.423671,1714.36399 L688.847716,1711.53722 L690.223314,1713.05126 L691.423671,1714.36399 C693.654688,1716.79661 695.902236,1719.20686 698.166184,1721.59451 L700.435594,1723.97463 C701.445325,1725.02774 702.458279,1726.07637 703.474444,1727.12052 L700.59575,1724.1416 L702.187286,1725.79374 L703.474444,1727.12052 C704.445,1728.11781 705.418485,1729.11101 706.39489,1730.1001 L703.784128,1727.4385 C704.805246,1728.48615 705.829602,1729.52929 706.857184,1730.56788 L706.39489,1730.1001 C707.386716,1731.10482 708.381554,1732.1053 709.379395,1733.10152 L706.857184,1730.56788 L708.328168,1732.04931 L709.379395,1733.10152 C710.437321,1734.15773 711.498622,1735.20917 712.563285,1736.2558 L709.803538,1733.52454 L711.447565,1735.156 L712.563285,1736.2558 C713.59219,1737.26727 714.624236,1738.27427 715.65941,1739.27676 L713.096985,1736.77978 L714.554546,1738.20391 L715.65941,1739.27676 C718.020734,1741.56353 720.398339,1743.82687 722.792093,1746.06656 L725.191225,1748.29836 C726.268232,1749.29447 727.348471,1750.28583 728.431928,1751.2724 L725.438126,1748.52658 C726.51552,1749.52187 727.596142,1750.5124 728.679983,1751.49814 C730.042542,1752.73738 731.410211,1753.96909 732.78295,1755.19322 L734.845855,1757.02371 C800.657406,1815.13196 877.990734,1855.87279 964.268,1875 C1081.37239,1900.96165 1181.08603,1884.23875 1262.78674,1859.22468 L1264.65236,1858.64958 L1267.85422,1857.6542 L1270.94312,1856.68087 C1272.17795,1856.28923 1273.40854,1855.89591 1274.63487,1855.50104 C1276.32808,1854.95583 1278.0132,1854.40765 1279.6902,1853.85684 L1282.19964,1853.02868 L1283.99969,1852.42983 L1285.79344,1851.82914 L1288.88302,1850.78544 L1291.4406,1849.91373 L1294.74079,1848.77669 L1298.38148,1847.50752 L1302.38109,1846.09803 C1303.80058,1845.59456 1305.21368,1845.09021 1306.62041,1844.5852 L1309.79133,1843.44151 L1313.67565,1842.02792 L1316.90417,1840.84257 L1320.75992,1839.41513 L1324.23697,1838.11751 C1326.1152,1837.41414 1327.98017,1836.71161 1329.83249,1836.01036 L1334.4296,1834.26308 L1339.02237,1832.50475 L1343.04327,1830.95649 L1345.03832,1830.18559 C1348.61868,1828.80068 1352.14828,1827.42773 1355.62777,1826.07142 L1370.56391,1820.24596 L1375.23248,1818.43223 C1376.47223,1817.95162 1377.7072,1817.47382 1378.935,1817 L1296.10864,2096.9867 C1295.08993,2097.20304 1294.07257,2097.41716 1293.05454,2097.62949 L1296.10864,2096.9867 L1294.32743,2097.363 L1291.17856,2098.01857 L1289.49837,2098.36333 L1285.70183,2099.12948 L1282.87791,2099.68779 L1279.57658,2100.32801 L1276.71005,2100.87304 L1274.81716,2101.22741 L1272.82478,2101.59567 L1271.1521,2101.90108 L1267.82624,2102.49818 L1265.89038,2102.83951 L1262.89426,2103.3588 L1258.96373,2104.0235 L1256.02669,2104.50795 L1254.06079,2104.82639 L1250.89578,2105.32925 L1248.98734,2105.62663 L1245.60991,2106.14217 L1242.4381,2106.61383 C1240.93724,2106.83416 1239.43511,2107.05063 1237.93174,2107.26321 L1234.83688,2107.69513 L1231.74608,2108.11506 L1228.42128,2108.55408 L1224.7895,2109.01862 L1223.29385,2109.20537 L1220.93919,2109.49401 L1217.70401,2109.87989 L1214.05586,2110.30018 L1210.59557,2110.68433 L1207.61426,2111.00399 L1204.35749,2111.34125 L1200.7606,2111.69926 L1197.42011,2112.01818 L1193.72165,2112.35606 L1189.83279,2112.6941 L1186.69272,2112.95419 L1183.16467,2113.23273 L1179.05581,2113.53889 L1177.86425,2113.62402 L1175.96643,2113.7562 C1175.05329,2113.81879 1174.13975,2113.87996 1173.22583,2113.93971 Z M1511.81265,487.494885 C1788.89538,630.877536 1978.268,920.156596 1978.268,1253.666 C1978.268,1639.51828 1724.78832,1966.16721 1375.26462,2076.17711 L1446.0594,1836.85736 L1483.74001,1709.49282 C1601.83946,1579.42825 1678.8119,1395.93756 1694.71244,1196.56503 C1709.4102,1012.27775 1660.93511,782.021103 1560.25202,577.239795 C1545.16743,546.55894 1529.00922,516.607679 1511.81265,487.494885 Z M985.275598,401.425603 C985.826677,421.719207 985.838454,441.591485 985.32395,461.046603 C983.046916,547.148741 970.515565,623.591334 949.366247,691.028715 C931.757061,747.177923 908.6844,795.514502 881.664892,836.610595 C861.321687,867.552174 840.008125,892.514243 819.365048,911.719844 L809.554676,920.768477 L805.611852,924.421691 L802.278036,927.529622 L800.115179,929.55739 C799.756549,929.894426 799.398415,930.231405 799.040137,930.568933 C790.393541,938.714752 782.366393,946.525986 774.327228,954.689695 C753.721233,975.614924 734.57963,997.320072 716.399826,1021.04136 C681.457485,1066.63467 652.388515,1116.7467 630.439581,1172.67458 C604.536607,1238.6777 589.501496,1310.59526 586.970687,1388.73398 C585.8274,1424.03163 588.299866,1458.73589 594.190884,1492.40813 L557.185593,1603.5538 L479.947488,1835.51728 C339.617596,1682.16745 254,1477.91525 254,1253.666 C254,825.136886 566.652337,469.631637 976.291387,402.815879 L985.275598,401.425603 Z M1018.934,116 C1176.04295,188.867272 1301.31301,304.565424 1396.36092,438.079994 L1396.34311,438.09095 L1396.38008,438.103651 L1396.38656,438.11601 L1398.96207,441.748956 L1400.61401,444.094855 L1396.38656,438.11601 C1400.09454,443.325055 1403.75651,448.561216 1407.37258,453.823005 L1408.85769,455.989222 C1410.87816,458.943425 1412.8843,461.905774 1414.87603,464.875856 L1415.93758,466.461612 C1418.1941,469.838343 1420.43193,473.224849 1422.6512,476.620887 L1424.0819,478.815492 C1425.41389,480.863599 1426.73906,482.915 1428.05748,484.969701 L1430.45628,488.723476 L1430.88211,489.39307 C1433.03546,492.781526 1435.17053,496.178738 1437.28742,499.584465 L1438.77537,501.984565 C1440.19666,504.283131 1441.60977,506.585643 1443.01466,508.89191 L1445.32854,512.706081 C1447.39374,516.124409 1449.4412,519.551257 1451.47063,522.985734 L1452.82089,525.276478 C1454.8457,528.720107 1456.85263,532.171673 1458.84149,535.630441 L1459.75754,537.226255 C1461.52965,540.318675 1463.28748,543.417055 1465.0309,546.520874 L1466.35597,548.885909 C1468.28686,552.34102 1470.20009,555.803047 1472.09552,559.271351 L1473.16351,561.229722 C1474.82046,564.274457 1476.46348,567.323551 1478.09284,570.377176 L1479.26787,572.584587 C1481.11468,576.062275 1482.9439,579.545971 1484.75544,583.035094 L1485.90422,585.253017 C1487.00734,587.387909 1488.10377,589.524642 1489.19357,591.663239 L1491.21335,595.64396 L1491.60286,596.415598 C1493.36694,599.913273 1495.11346,603.416004 1496.84241,606.923323 L1498.16098,609.606013 C1501.6798,616.786199 1505.12501,623.985119 1508.49686,631.199744 L1509.65005,633.673955 C1510.75724,636.055993 1511.85646,638.439731 1512.9477,640.825038 L1515.18523,645.74283 C1516.15427,647.884384 1517.11695,650.027283 1518.07325,652.171345 L1519.5029,655.388287 C1519.89394,656.271385 1520.28383,657.154535 1520.67264,658.037863 C1521.71154,660.398098 1522.74272,662.759681 1523.76617,665.122444 L1525.29554,668.667452 C1525.56157,669.286613 1525.8272,669.906118 1526.09229,670.525697 C1527.47236,673.75124 1528.83795,676.978605 1530.18915,680.207686 L1531.0258,682.211725 C1532.52732,685.816663 1534.01078,689.423353 1535.47636,693.031734 L1536.37142,695.24116 C1537.23177,697.370441 1538.08602,699.500564 1538.93407,701.631264 L1540.56801,705.756539 L1540.93364,706.685247 C1542.32616,710.22611 1543.70162,713.768414 1545.05993,717.311527 L1545.58018,718.670814 L1546.09883,720.030374 C1547.31897,723.234094 1548.52512,726.438436 1549.71727,729.643102 L1550.25196,731.082965 C1551.60106,734.722416 1552.93242,738.36305 1554.24575,742.003664 L1555.08874,744.34734 C1555.96975,746.803997 1556.84255,749.260582 1557.70715,751.716993 L1559.15078,755.840173 C1560.3759,759.357874 1561.58411,762.874766 1562.77554,766.390835 L1563.62956,768.919538 C1564.4367,771.317416 1565.23598,773.714704 1566.02744,776.111403 L1567.4802,780.536798 L1567.75096,781.367453 C1568.45142,783.518806 1569.14563,785.66974 1569.83357,787.820125 L1570.86078,791.045273 C1571.09843,791.794763 1571.33537,792.544362 1571.57156,793.293883 C1572.32164,795.674233 1573.06402,798.053762 1573.79871,800.432382 L1574.89498,803.999621 C1575.11767,804.727929 1575.33942,805.455408 1575.56044,806.182793 C1576.51223,809.315128 1577.45092,812.446541 1578.37629,815.575994 L1579.00206,817.69884 C1579.69946,820.072113 1580.38924,822.444397 1581.07138,824.815469 L1582.4104,829.502807 L1582.73081,830.634377 C1583.35626,832.847086 1583.97503,835.058586 1584.58712,837.268805 L1585.83873,841.820495 C1586.80573,845.362455 1587.75557,848.900895 1588.68827,852.435538 L1589.41355,855.196548 C1591.30267,862.420712 1593.12034,869.629214 1594.8666,876.818311 L1595.44926,879.227282 C1596.01746,881.586618 1596.57797,883.943855 1597.13079,886.29886 L1598.28604,891.265437 C1598.7857,893.433513 1599.27889,895.599846 1599.76556,897.764198 L1600.72773,902.078961 L1600.96383,903.148888 C1601.48542,905.517534 1601.99911,907.883311 1602.50495,910.246313 L1603.4293,914.602832 L1603.60026,915.417164 C1604.04249,917.527241 1604.4784,919.634819 1604.90804,921.740012 L1605.54781,924.896029 C1605.68927,925.598643 1605.83002,926.30094 1605.97008,927.002974 C1606.43381,929.327431 1606.88992,931.649111 1607.3384,933.967835 L1608.00539,937.443679 C1608.13891,938.145035 1608.27184,938.846713 1608.40407,939.548108 C1609.00498,942.735569 1609.59134,945.916826 1610.16324,949.091949 L1610.41406,950.489244 C1610.82848,952.805929 1611.23516,955.119151 1611.63414,957.428912 L1612.42302,962.050888 L1612.61786,963.209959 C1612.98056,965.374194 1613.3365,967.535459 1613.68565,969.693584 L1614.35881,973.903549 C1614.89858,977.319699 1615.42139,980.728315 1615.92717,984.128406 L1616.29402,986.613359 C1616.62672,988.884474 1616.95182,991.151799 1617.26931,993.415182 L1617.86573,997.727894 C1618.15662,999.861924 1618.44072,1001.99242 1618.71804,1004.11923 L1619.12894,1007.30668 C1619.22256,1008.04134 1619.31539,1008.77573 1619.4074,1009.50967 C1619.68946,1011.75948 1619.96389,1014.00499 1620.23069,1016.24611 L1620.79101,1021.04423 C1621.02309,1023.071 1621.24886,1025.09363 1621.46835,1027.11236 L1621.79288,1030.13755 C1621.86543,1030.82311 1621.93722,1031.50791 1622.00829,1032.19227 C1622.3493,1035.47594 1622.67372,1038.75016 1622.98151,1042.01387 L1623.17782,1044.11845 C1623.36205,1046.1156 1623.54003,1048.10869 1623.71177,1050.09768 L1624.07533,1054.41562 C1624.34638,1057.7193 1624.60009,1061.01097 1624.83654,1064.29083 L1624.98776,1066.42045 C1625.12918,1068.44292 1625.26402,1070.46105 1625.39229,1072.4746 L1625.63853,1076.46991 C1625.82966,1079.67913 1626.00402,1082.87686 1626.16159,1086.06223 L1626.27647,1088.44589 C1626.37663,1090.5801 1626.46923,1092.70891 1626.55427,1094.83207 L1626.68947,1098.37798 C1626.80184,1101.4822 1626.89798,1104.57442 1626.97789,1107.65383 L1627.03254,1109.86505 C1627.10594,1112.9921 1627.16255,1116.10583 1627.20239,1119.20583 L1627.21673,1120.38352 C1627.24928,1123.21589 1627.27321,1126.03601 1627.27321,1128.84434 L1627.27321,1130.81149 C1627.27321,1133.88015 1627.25202,1136.93472 1627.21628,1139.97468 L1627.19554,1141.6009 C1627.17021,1143.44304 1627.13871,1145.27966 1627.10105,1147.11075 L1627.02212,1150.58147 L1627.00364,1151.30969 C1626.92547,1154.33386 1626.83038,1157.34173 1626.71837,1160.33394 L1626.64514,1162.22757 C1626.57256,1164.04585 1626.49371,1165.85824 1626.4086,1167.66468 L1626.22064,1171.44946 C1626.06883,1174.35672 1625.90061,1177.24893 1625.71601,1180.12513 L1625.57009,1182.34494 C1625.3748,1185.24649 1625.16276,1188.13168 1624.934,1191 C1609.377,1386.065 1531.934,1556 1424.934,1670 C1423.95641,1671.04155 1422.97638,1672.07675 1421.99396,1673.10564 L1424.934,1670 C1423.84804,1671.157 1422.75907,1672.30618 1421.66716,1673.44757 L1420.18721,1674.98797 L1418.37941,1676.8518 L1416.96856,1678.29294 L1415.2731,1680.00942 L1413.63936,1681.64773 L1411.99006,1683.28623 L1410.30961,1684.93995 L1408.43725,1686.76408 L1407.00654,1688.14499 L1405.13826,1689.93159 L1403.65946,1691.3325 L1401.83922,1693.04103 L1400.34435,1694.43123 L1398.4818,1696.14726 C1394.20932,1700.06331 1389.90206,1703.87189 1385.56413,1707.57507 L1383.64482,1709.20498 L1381.6565,1710.87562 L1380.23122,1712.0621 L1378.23056,1713.71214 L1376.7721,1714.90376 L1374.77801,1716.51786 L1373.26014,1717.73486 L1371.44008,1719.18105 L1369.87898,1720.41021 L1367.95967,1721.90729 L1366.3979,1723.11411 L1364.50585,1724.56261 C1361.87432,1726.567 1359.23415,1728.53539 1356.58624,1730.46819 L1354.17258,1732.21863 L1352.68905,1733.28331 L1350.61777,1734.75568 L1349.17548,1735.7713 L1347.10972,1737.2123 L1345.60934,1738.24893 L1343.61283,1739.61543 L1342.09589,1740.64391 L1340.0037,1742.04872 L1338.54029,1743.02196 L1336.39766,1744.43313 L1334.89932,1745.4103 L1333.05285,1746.60369 C1330.33271,1748.35297 1327.60718,1750.06711 1324.87713,1751.74658 L1322.58797,1753.14608 L1321.02484,1754.09172 L1318.9436,1755.33832 C1317.45672,1756.22385 1315.96858,1757.09931 1314.47939,1757.96472 L1311.81795,1759.50007 L1310.22668,1760.40733 L1308.2606,1761.51728 L1306.71106,1762.38357 L1304.57428,1763.56596 L1303.05748,1764.39676 L1301.02401,1765.49952 L1299.47492,1766.33118 L1297.4696,1767.39705 L1295.84651,1768.25092 L1294.05533,1769.18414 L1292.37647,1770.05024 L1290.41066,1771.05384 L1288.90434,1771.81524 L1286.80594,1772.86494 L1285.34666,1773.58746 L1283.24867,1774.61552 L1281.7991,1775.31853 L1279.59726,1776.375 L1278.17188,1777.05165 L1276.00918,1778.06746 L1274.55058,1778.74522 L1272.41865,1779.72528 L1270.905,1780.41353 L1268.90937,1781.31137 L1267.29886,1782.02805 L1265.48362,1782.82743 L1263.87488,1783.52846 L1261.6907,1784.46917 L1260.10959,1785.14221 L1258.3404,1785.88747 C1254.43489,1787.52351 1250.53465,1789.09705 1246.64206,1790.60949 L1244.21319,1791.54568 L1241.83764,1792.44681 C1185.91713,1813.49108 1131.78776,1822 1086.934,1822 C968.643072,1822 866.419661,1780.86965 791.331655,1713.28542 L791.308358,1713.26182 L791.282783,1713.23988 C790.406616,1712.45102 789.534145,1711.65856 788.665388,1710.86252 L786.574226,1708.93432 C785.690255,1708.11182 784.809795,1707.28588 783.933137,1706.45631 L782.621038,1705.20922 C782.294695,1704.89913 781.969704,1704.58782 781.645263,1704.276 C780.787117,1703.45028 779.932485,1702.62127 779.081613,1701.7888 L777.366948,1700.10258 L776.927174,1699.66672 C776.066028,1698.81064 775.208842,1697.9514 774.35569,1697.08868 L773.079,1695.79192 C772.824927,1695.53407 772.572206,1695.27553 772.319847,1695.01666 C771.43591,1694.10903 770.556063,1693.19764 769.68057,1692.28238 L767.973298,1690.48802 C767.091903,1689.5544 766.215049,1688.61724 765.342804,1687.67624 L763.708641,1685.90407 C762.839851,1684.95472 761.975379,1684.00152 761.11549,1683.04438 L759.207688,1680.90698 C758.379759,1679.97139 757.556051,1679.03236 756.736738,1678.0897 L754.830727,1675.88199 C754.02257,1674.93775 753.218676,1673.99016 752.419187,1673.03905 L750.564016,1670.81717 C749.396951,1669.4073 748.239055,1667.99008 747.090954,1666.56511 L746.306321,1665.58926 C745.545414,1664.63808 744.788653,1663.68373 744.036192,1662.72606 L742.619379,1660.91324 L742.329133,1660.53917 C741.544013,1659.52501 740.763382,1658.50709 739.987511,1657.48545 L738.495712,1655.50965 C737.717469,1654.47109 736.944031,1653.42893 736.17556,1652.38308 L734.790662,1650.4878 C734.028064,1649.43658 733.270254,1648.38168 732.517436,1647.32309 L731.133865,1645.36617 L730.876267,1644.99905 C730.15412,1643.96768 729.436666,1642.93315 728.723991,1641.89527 L727.108491,1639.52558 C726.40418,1638.48354 725.704532,1637.43828 725.00967,1636.3897 L723.71424,1634.42322 L723.458225,1634.03156 C722.76928,1632.97542 722.08502,1631.916 721.405593,1630.85328 L720.134664,1628.85323 L719.880067,1628.44939 C719.207628,1627.38057 718.539892,1626.30843 717.877027,1625.23301 L716.629568,1623.19644 L716.37324,1622.77455 C715.714593,1621.68821 715.061015,1620.59902 714.412491,1619.5067 L713.163908,1617.38986 C712.516345,1616.28344 711.873747,1615.17375 711.236253,1614.06078 L710.016784,1611.9174 C709.387239,1610.80217 708.762776,1609.68388 708.143468,1608.56242 L706.976931,1606.43564 L706.736229,1605.99297 C706.133993,1604.88312 705.536701,1603.77027 704.944443,1602.6544 L703.851967,1600.58221 L703.644742,1600.18582 C703.068271,1599.08101 702.496617,1597.97327 701.929885,1596.86261 L701.083489,1595.19441 C700.907933,1594.84701 700.733175,1594.49935 700.558901,1594.15141 C700.000604,1593.03637 699.447148,1591.91841 698.898645,1590.79756 L697.687546,1588.30176 C697.124646,1587.13097 696.567095,1585.95716 696.014966,1584.7803 L694.911494,1582.40903 C694.345663,1581.18219 693.785526,1579.95185 693.231249,1578.71818 L692.303937,1576.63923 C691.764925,1575.42107 691.231499,1574.19959 690.703801,1572.97494 L689.798685,1570.85843 L689.681078,1570.58098 C689.172293,1569.37889 688.669053,1568.17403 688.171387,1566.96632 L687.266394,1564.75215 L687.104304,1564.35162 C686.382717,1562.56517 685.673037,1560.77223 684.97559,1558.97309 L684.633348,1558.08759 C684.178073,1556.90476 683.728017,1555.71928 683.283242,1554.53117 L682.435934,1552.24751 L682.252621,1551.74789 C681.821995,1550.57151 681.396436,1549.39243 680.976038,1548.21078 L680.170647,1545.92602 L679.992646,1545.41517 C679.569512,1544.19791 679.151856,1542.97811 678.739714,1541.75574 L677.91878,1539.29572 C677.48915,1537.9943 677.065681,1536.68986 676.648452,1535.38252 L675.954739,1533.18805 C675.550487,1531.89639 675.152335,1530.60208 674.760307,1529.30507 L674.017577,1526.81997 C673.638553,1525.53685 673.265502,1524.25119 672.89845,1522.96295 L672.241612,1520.6321 L672.131239,1520.23524 C671.781382,1518.97461 671.43725,1517.71161 671.098867,1516.44621 L670.361982,1513.65197 C670.033918,1512.38999 669.711527,1511.12559 669.394854,1509.85882 L668.703732,1507.05316 C668.396848,1505.78831 668.095662,1504.52124 667.800194,1503.25192 L667.251394,1500.86281 L667.142042,1500.37897 C666.853497,1499.09856 666.570735,1497.81585 666.293791,1496.53088 L665.804776,1494.23085 L665.727113,1493.85964 C665.445046,1492.50824 665.1694,1491.15442 664.900206,1489.79817 L664.459509,1487.54593 C664.194647,1486.17234 663.936352,1484.79612 663.68468,1483.41742 L663.231949,1480.89418 C662.992191,1479.5341 662.758883,1478.17176 662.532047,1476.80715 L662.080632,1474.03499 C661.871351,1472.72235 661.668035,1471.40758 661.470713,1470.09074 L661.029801,1467.07487 C660.753542,1465.13677 660.490241,1463.19428 660.239979,1461.24746 L660.104015,1460.17925 C659.93959,1458.87419 659.781037,1457.56739 659.628365,1456.25875 L659.350657,1453.81786 L659.298098,1453.34143 C659.149111,1451.98395 659.006419,1450.62431 658.870059,1449.26264 L658.620342,1446.69159 C658.295349,1443.2382 658.011081,1439.77255 657.767902,1436.29488 L657.571615,1433.34409 L657.550243,1433.00337 C657.422371,1430.95186 657.308804,1428.89683 657.209583,1426.83778 L657.165298,1425.89785 C657.071455,1423.85956 656.991653,1421.81698 656.925986,1419.77056 L656.897657,1418.85831 C656.856801,1417.49735 656.822193,1416.13456 656.793857,1414.77007 L656.747988,1412.20324 L656.740519,1411.68423 C656.721536,1410.30932 656.708918,1408.9328 656.698905,1407.55467 L656.698905,1404.70568 C656.698905,1403.29961 656.710791,1401.89191 656.726722,1400.48258 L656.76963,1397.54042 C656.808511,1395.36377 656.863269,1393.18373 656.934,1391 C664.534,1156.35 796.121255,1028.50095 856.946463,972.285892 L865.961,963.975 L868.147343,961.940197 L868.952587,961.182514 C869.447508,960.715467 869.946354,960.242206 870.448755,959.762973 L868.952587,961.182514 L869.743154,960.434338 L870.448755,959.762973 C871.269133,958.980425 872.098988,958.181955 872.937941,957.367446 L871.342392,958.907822 L872.122399,958.156957 L872.937941,957.367446 C873.83836,956.493262 874.749259,955.600602 875.670169,954.689324 L873.698626,956.62695 C874.517727,955.827459 875.345282,955.012843 876.180945,954.182997 L878.647516,951.712712 L879.205005,951.148585 L880.143342,950.194234 L881.059621,949.256441 C881.659748,948.640319 882.263456,948.016776 882.87063,947.385775 L883.783977,946.433677 C884.816157,945.354411 885.858077,944.253787 886.909179,943.131633 L884.566267,945.613559 L885.43186,944.701108 L886.909179,943.131633 C887.892653,942.081679 888.884167,941.012877 889.883263,939.925088 L887.176069,942.84645 C887.917148,942.053876 888.662755,941.250625 889.412695,940.436637 L889.883263,939.925088 C890.762019,938.968322 891.646641,937.996868 892.536819,937.010629 L890.540832,939.207594 L891.514709,938.139252 L892.536819,937.010629 C893.45222,935.996447 894.373496,934.96663 895.300311,933.921077 L893.476154,935.966723 L894.400585,934.933095 L895.300311,933.921077 C896.292407,932.801878 897.290849,931.664647 898.295223,930.509258 L896.260745,932.834193 L897.182738,931.784389 L898.295223,930.509258 C899.468252,929.159854 900.649373,927.785682 901.837925,926.386538 L899.037036,929.653843 C899.752631,928.826667 900.471169,927.99031 901.192502,927.144727 L901.837925,926.386538 C902.775413,925.282943 903.717525,924.163812 904.663937,923.029047 L902.276577,925.869427 L903.345029,924.603678 L904.663937,923.029047 C905.630855,921.869695 906.602261,920.694024 907.57781,919.501928 L905.493313,922.031922 L906.480661,920.837838 L907.57781,919.501928 C908.621611,918.226429 909.670156,916.932127 910.723022,915.618891 L908.464112,918.415756 L909.428498,917.226743 L910.723022,915.618891 C911.90469,914.145 913.091801,912.64726 914.283758,911.125489 L911.364811,914.81671 C912.109259,913.884262 912.855817,912.942366 913.604336,911.990977 L914.283758,911.125489 C915.254816,909.885738 916.229089,908.630038 917.206256,907.358289 L914.728569,910.556769 L915.863285,909.098414 L917.206256,907.358289 C918.171785,906.101684 919.140139,904.829411 920.111005,903.541373 L918.140872,906.138161 L919.164734,904.792855 L920.111005,903.541373 C921.112955,902.212097 922.117582,900.86603 923.124542,899.503069 L921.218222,902.067034 L922.215291,900.730054 L923.124542,899.503069 C924.430992,897.734735 925.741371,895.937961 927.054929,894.11252 L924.214153,898.022856 C925.001953,896.948746 925.791101,895.864305 926.581434,894.769484 L927.054929,894.11252 C928.046497,892.734546 929.039876,891.340236 930.034745,889.929493 L927.767801,893.119461 L928.871332,891.572732 L930.034745,889.929493 C931.051238,888.488087 932.069286,887.029524 933.088546,885.553699 L931.082286,888.438749 L932.107245,886.969786 L933.088546,885.553699 C934.153357,884.011921 935.219491,882.451303 936.286556,880.871726 L934.159767,883.996908 L935.14934,882.548519 L936.286556,880.871726 C938.569262,877.492638 940.85623,874.026789 943.14363,870.473004 C944.139077,868.926444 945.134605,867.36323 946.129899,865.783266 L944.081373,869.011187 L945.141061,867.347371 L946.129899,865.783266 C947.166994,864.136945 948.203836,862.472437 949.240066,860.789632 L947.260057,863.98182 L948.257013,862.380316 L949.240066,860.789632 C950.419846,858.873707 951.598833,856.934065 952.776501,854.970544 L950.249931,859.14351 C951.264093,857.484199 952.277557,855.807314 953.289989,854.112751 L956.185915,849.21207 C957.194905,847.485662 958.202545,845.741521 959.208502,843.979544 L957.159433,847.540107 C957.843365,846.361084 958.526627,845.173884 959.209113,843.978473 C960.241221,842.170691 961.272165,840.343041 962.300973,838.496482 L960.232248,842.179196 L961.241856,840.389448 L962.300973,838.496482 C963.42395,836.480902 964.544383,834.442793 965.661799,832.382012 L963.257137,836.773727 L964.244764,834.980335 L965.661799,832.382012 C966.824015,830.238612 967.982969,828.070684 969.138132,825.878068 L966.215571,831.358408 C967.040514,829.830103 967.863767,828.289405 968.685142,826.736257 L969.138132,825.878068 C970.13292,823.989858 971.124896,822.08334 972.113723,820.158408 L969.915772,824.397189 L970.960972,822.391401 L972.113723,820.158408 C973.090074,818.257763 974.063355,816.339166 975.03324,814.402518 L973.044586,818.339026 L974.050233,816.356915 L975.03324,814.402518 C976.107226,812.258004 977.177048,810.091357 978.242264,807.902441 L976.05443,812.354194 L977.010194,810.420179 L978.242264,807.902441 C979.420516,805.481246 980.593133,803.032806 981.759518,800.556937 L978.914575,806.516676 C979.70535,804.881735 980.493527,803.23446 981.278923,801.574796 L981.759518,800.556937 C982.705627,798.548644 983.647635,796.522305 984.585224,794.477821 L982.454909,799.076002 L983.495088,796.842518 L984.585224,794.477821 C985.541228,792.39318 986.492636,790.289675 987.439112,788.167203 L985.564886,792.331414 L986.514969,790.230112 L987.439112,788.167203 C988.465701,785.865075 989.486486,783.540633 990.501036,781.193743 L988.405438,785.989709 L989.330191,783.885952 L990.501036,781.193743 C991.644624,778.548359 992.78029,775.874455 993.907415,773.171842 L991.169668,779.641677 C991.898649,777.943648 992.624344,776.233952 993.346592,774.512539 L993.907415,773.171842 C994.819125,770.98575 995.725247,768.780875 996.625455,766.557115 L994.427357,771.921625 L995.438355,769.47035 L996.625455,766.557115 C997.539492,764.299192 998.44743,762.0218 999.348929,759.724834 L997.445921,764.520999 L998.374576,762.193534 L999.348929,759.724834 C1000.26117,757.40051 1001.16681,755.056143 1002.0655,752.691625 L1000.2186,757.497729 L1001.11092,755.188851 L1002.0655,752.691625 C1003.18575,749.744158 1004.29521,746.765379 1005.39318,743.755076 L1002.88225,750.532032 C1003.89746,747.834351 1004.90357,745.110667 1005.90008,742.360821 L1005.39318,743.755076 C1006.25942,741.380116 1007.11851,738.985536 1007.97011,736.571231 L1005.90008,742.360821 L1006.84412,739.739854 L1007.97011,736.571231 C1008.83142,734.129403 1009.68508,731.667399 1010.53072,729.185111 L1008.71444,734.45055 L1009.58965,731.92962 L1010.53072,729.185111 C1011.37117,726.71807 1012.20372,724.230994 1013.02801,721.723779 L1011.32345,726.845232 L1012.15681,724.356978 L1013.02801,721.723779 C1014.0793,718.526092 1015.11717,715.295645 1016.14091,712.032221 L1013.80719,719.340181 C1014.41027,717.484643 1015.00883,715.618167 1015.60272,713.740713 L1016.14091,712.032221 C1016.92176,709.543077 1017.69438,707.034747 1018.45847,704.507136 L1016.49003,710.91629 L1017.4082,707.951912 L1018.45847,704.507136 C1019.2335,701.94331 1019.99975,699.359646 1020.75688,696.756043 L1019.22088,701.969129 L1020.00718,699.317523 L1020.75688,696.756043 C1021.54355,694.05087 1022.32039,691.324172 1023.08701,688.575836 L1021.56072,693.972355 L1022.30489,691.359778 L1023.08701,688.575836 C1023.98869,685.34332 1024.87625,682.080871 1025.74909,678.788304 L1023.77463,686.094944 C1024.50046,683.459357 1025.2169,680.804027 1025.9236,678.128856 L1025.74909,678.788304 C1026.51558,675.896905 1027.27072,672.98228 1028.0141,670.044305 L1025.9236,678.128856 C1026.37751,676.410634 1026.82741,674.684226 1027.27321,672.949608 L1028.0141,670.044305 C1028.70895,667.298121 1029.39352,664.531537 1030.06749,661.744449 L1028.59825,667.721091 L1029.3119,664.84251 L1030.06749,661.744449 C1030.75307,658.909354 1031.42767,656.053043 1032.09094,653.17541 L1030.71637,659.040953 L1031.38894,656.19514 L1032.09094,653.17541 C1032.81188,650.047587 1033.51944,646.894572 1034.21317,643.716228 L1032.71174,650.461211 C1033.14003,648.574118 1033.56344,646.677925 1033.98189,644.772603 L1034.21317,643.716228 C1034.95101,640.335794 1035.67321,636.926709 1036.37922,633.488805 L1034.60582,641.90777 C1035.00157,640.075254 1035.39273,638.234361 1035.7792,636.385063 L1036.37922,633.488805 C1036.98025,630.562107 1037.56955,627.614525 1038.14679,624.645956 L1036.92449,630.811931 L1037.53845,627.744249 L1038.14679,624.645956 C1038.72356,621.679765 1039.2883,618.692621 1039.84065,615.684422 L1038.74039,621.563445 L1039.31151,618.53958 L1039.84065,615.684422 C1040.4557,612.334771 1041.05541,608.959015 1041.63931,605.557012 L1040.42852,612.44876 C1040.96126,609.485167 1041.48198,606.501306 1041.99039,603.497083 L1042.57502,600.000475 C1042.88223,598.140567 1043.18472,596.27292 1043.48241,594.397514 L1041.99039,603.497083 C1042.30851,601.617263 1042.62181,599.729469 1042.93021,597.83368 L1043.48241,594.397514 C1043.96924,591.330646 1044.44325,588.243026 1044.90413,585.134556 L1043.84062,592.122299 L1044.36093,588.748836 L1044.90413,585.134556 C1045.38004,581.924702 1045.84194,578.692616 1046.28948,575.43819 L1045.37032,581.9521 L1045.82516,578.770219 L1046.28948,575.43819 C1046.77032,571.941711 1047.23457,568.419445 1047.68182,564.871259 L1046.70718,572.363196 C1046.99123,570.245836 1047.26922,568.119085 1047.54103,565.982917 L1047.68182,564.871259 C1048.17441,560.963392 1048.64636,557.024083 1049.09709,553.053154 L1047.94412,562.771596 C1048.31779,559.753219 1048.67917,556.716174 1049.02797,553.660378 L1049.09709,553.053154 C1049.46315,549.828201 1049.81521,546.582392 1050.15297,543.315631 L1049.37258,550.598328 L1049.76398,547.009869 L1050.15297,543.315631 C1050.50117,539.94789 1050.83416,536.557883 1051.1516,533.145503 L1050.51194,539.781711 L1050.84343,536.400623 L1051.1516,533.145503 C1051.47889,529.627299 1051.78965,526.085313 1052.08351,522.519431 L1051.47564,529.594 L1051.77328,526.20236 L1052.08351,522.519431 C1052.4457,518.124372 1052.7822,513.693012 1053.09233,509.225134 L1052.33773,519.375302 C1052.64284,515.528061 1052.9283,511.653182 1053.19364,507.750523 L1053.09233,509.225134 C1053.33038,505.795729 1053.55288,502.344809 1053.75952,498.872277 L1053.19364,507.750523 C1053.33141,505.724294 1053.46375,503.690576 1053.5906,501.649349 L1053.75952,498.872277 C1053.9718,495.304947 1054.16735,491.71481 1054.34581,488.101759 L1053.95464,495.503125 L1054.15152,491.899194 L1054.34581,488.101759 C1054.52648,484.4438 1054.68965,480.762354 1054.83495,477.057312 L1054.51099,484.645182 L1054.67288,481.008036 L1054.83495,477.057312 C1055.01749,472.402758 1055.17182,467.710964 1055.29725,462.981714 L1054.96192,473.687709 C1055.05347,471.155391 1055.13667,468.61212 1055.21144,466.057861 L1055.29725,462.981714 C1055.39332,459.358991 1055.47244,455.714289 1055.53427,452.04751 L1055.31723,462.218226 C1055.37536,459.968855 1055.42695,457.711022 1055.47192,455.444703 L1055.53427,452.04751 C1055.59727,448.311626 1055.64232,444.552824 1055.6691,440.771002 L1055.58693,448.620269 L1055.63403,444.757108 L1055.6691,440.771002 C1055.69617,436.948446 1055.70456,433.102371 1055.69393,429.232671 L1055.68977,436.982178 L1055.6982,433.159308 L1055.69393,429.232671 C1055.68098,424.517156 1055.63978,419.76656 1055.56971,414.980688 L1055.67762,425.46693 C1055.66281,422.964027 1055.64006,420.451303 1055.60928,417.928731 L1055.56971,414.980688 C1055.50955,410.872434 1055.42812,406.738187 1055.32502,402.577824 L1055.55707,414.137483 C1055.51914,411.664523 1055.4735,409.182158 1055.42007,406.690361 L1055.32502,402.577824 C1055.25195,399.629513 1055.16799,396.668088 1055.07301,393.693503 L1055.05084,393.662446 L1055.07263,393.681483 C1052.4469,311.476189 1041.39866,219.221217 1018.934,116 Z" id="Shape" fill="currentColor"></path>
    </g>
</svg>