<?xml version="1.0" encoding="UTF-8"?>
<svg width="1024px" height="1025px" viewBox="0 0 1024 1025" version="1.1" xmlns="http://www.w3.org/2000/svg" xmlns:xlink="http://www.w3.org/1999/xlink">
  <g id="CraigsList" transform="translate(0.6407, 0.6075)" fill="currentColor" fill-rule="nonzero">
    <path d="M3.07167,570.3679 L3.07167,571.39134 C4.09608,578.55931 5.11952,585.72724 6.14394,592.89624 C8.19179,604.15994 10.23964,614.40014 12.28749,626.68824 C17.40761,650.24004 24.57559,673.79174 33.79239,696.32004 C39.93594,712.70384 47.10389,729.08764 55.29629,744.44794 C63.4877,760.83174 72.70349,777.21554 82.94379,792.57584 C99.32759,817.15204 117.76019,840.70374 138.23969,862.20764 C163.84029,889.85604 193.53559,914.43124 224.25629,935.93514 C244.73579,949.24764 265.21629,961.53574 286.72019,972.79944 C316.41649,987.13534 348.15969,999.42344 380.92819,1007.61584 C394.23969,1010.68811 407.55219,1013.75939 420.86369,1016.83166 C430.07951,1018.87951 439.29629,1019.90393 450.55999,1020.92736 C460.80019,1021.95177 471.04049,1022.97521 479.23189,1023.99963 L486.39986,1023.99963 L492.54439,1023.99963 L497.66451,1023.99963 L525.31201,1023.99963 L530.43213,1023.99963 L538.62451,1023.99963 C542.72021,1023.99963 546.81592,1023.99963 550.91161,1022.97522 C558.07958,1021.95178 565.24851,1021.95178 571.39211,1020.92737 C578.56008,1019.90393 586.75251,1018.87952 593.92041,1017.85608 C603.13623,1016.83167 613.37651,1014.78381 623.61571,1011.71155 C637.95161,1008.63928 652.28761,1004.54358 666.62451,1000.44785 C688.12841,993.27988 708.60791,985.08745 728.06401,975.87165 C750.59231,965.63145 773.11971,952.31985 794.62451,937.98395 C818.17631,921.59915 840.70361,904.19195 862.20851,884.73595 C889.85601,859.13535 914.43211,830.46345 934.91161,798.71935 C959.48781,762.87955 978.94381,722.94395 994.30421,681.98435 C1001.47218,660.48045 1007.61571,637.95215 1012.73581,616.44825 C1014.78366,604.16015 1016.83249,592.89645 1018.88034,580.60845 C1020.92819,567.29595 1021.95163,556.03225 1021.95163,545.79205 C1021.95163,540.67193 1021.95163,534.52835 1022.97604,529.40825 L1022.97604,503.80765 L1022.97604,482.30375 C1022.97604,476.1602 1021.95163,471.04005 1021.95163,464.89655 L1021.95163,463.87214 C1020.92819,458.75202 1020.92819,452.60844 1019.90378,447.48834 C1018.88034,440.32037 1017.85593,432.12794 1015.80808,421.88774 C1012.73581,404.48054 1008.64011,387.07234 1003.51998,369.66414 C995.3276,343.04014 985.08838,316.41614 973.82368,290.81644 C963.58438,270.33594 952.31978,249.85644 940.03168,231.42384 C924.67228,207.87204 906.23968,184.32034 886.78368,163.83984 C860.15968,135.16794 830.46438,109.56834 797.69578,88.06444 C768.00048,67.58394 735.23188,50.17574 701.43988,36.86424 C679.93598,28.67186 657.40768,21.50384 634.88028,15.36034 C620.54438,12.28807 608.25628,9.21581 595.96818,7.16796 C585.72798,5.12011 576.51208,4.09569 566.27188,3.07226 C560.12833,2.04785 553.98378,2.04785 547.84028,2.04785 L542.72016,2.04785 C528.38426,0 515.07176,0 500.73576,0 C491.51994,0 482.30416,0 473.08826,1.02441 C461.82366,2.04785 451.58436,3.07226 442.36756,4.0957 C408.57556,8.19238 374.78356,16.3838 343.04046,27.6484 C320.51216,35.83981 299.00826,45.0556 277.50436,55.2959 C241.66456,73.7275 207.87256,96.2559 177.15136,122.8799 C165.88766,133.1201 154.62406,143.3604 144.38376,153.5996 C116.73536,181.248 93.18356,212.9922 72.70306,245.7598 C55.29586,276.4805 39.93546,308.2237 28.67186,340.9922 C20.47948,363.5195 14.33596,387.0723 10.23926,409.5996 C7.16797,422.9121 5.11914,436.2236 4.09571,448.5117 C3.0713,459.7763 2.04786,470.0156 1.02344,479.2324 L1.02344,485.37595 L1.02344,492.54392 C1.02344,492.54392 1.02344,496.63962 -6.26165786e-14,498.68845 L-6.26165786e-14,500.7363 L-6.26165786e-14,524.2881 C-6.26165786e-14,527.36037 -6.26165786e-14,530.43165 1.02344,533.50392 L2.04785,541.6963 C2.04785,546.81642 3.07129,552.96 3.07129,558.0801 C2.04785,562.1758 2.04785,566.27248 3.07129,570.3682 L3.07167,570.3679 Z M570.36754,137.21572 L570.36754,129.02431 L576.5125,125.95204 C581.63262,123.90419 585.72832,124.92763 586.7527,124.92763 L588.80055,124.92763 C592.89625,125.95204 598.01637,126.97548 602.11205,127.9999 C625.66475,134.14345 649.21655,141.3114 670.72045,151.5517 C695.29665,162.8163 718.84835,177.1523 741.37665,192.5117 C756.73605,203.7763 771.07195,216.0644 784.38445,229.376 C813.05635,258.0479 837.63245,290.8164 857.08855,326.6563 C873.47235,357.376 885.76045,390.1436 892.92835,423.9356 C896.00062,436.2237 898.04847,448.5118 899.0719,460.7999 C900.09631,472.0645 901.11975,483.3282 902.14417,493.5685 L902.14417,513.0246 C902.14417,523.2639 901.11976,532.4807 901.11976,541.6965 C900.09632,553.9846 899.07191,566.2727 897.02406,577.5363 C890.88051,612.3517 879.61586,647.1681 865.27996,678.9123 C860.15984,690.176 854.01626,701.4406 847.87276,711.6799 C846.84835,712.70431 845.82393,715.77658 842.75264,717.82443 L835.58467,722.94455 L828.4167,718.84787 C827.39229,718.84787 827.39229,717.82443 826.36787,717.82443 L592.89587,489.47143 C587.77575,484.35131 581.63217,479.23213 576.51207,473.08763 C572.41637,470.01536 571.39195,464.89622 571.39195,459.77613 L571.39195,387.07203 L571.39195,140.28803 C570.36754,139.26362 570.36754,138.24018 570.36754,137.21576 L570.36754,137.21572 Z M569.34397,655.3599 L570.36741,652.28763 L575.48753,638.97513 L587.77563,647.16751 C588.80004,647.16751 589.82348,648.19192 590.8479,649.21536 C592.89575,651.26321 594.9436,652.28763 595.96802,654.33548 L745.47202,805.88748 L746.49546,806.91189 L751.61558,813.05544 L748.54429,821.24782 C746.49546,825.34352 743.42417,826.36794 742.39976,827.39137 L737.27964,830.46364 C733.18394,833.53591 728.06382,836.60817 723.96814,839.67946 C700.41634,855.03986 675.84024,867.32786 647.16834,877.56816 C626.68784,884.73613 605.18394,890.87966 583.68004,895.99976 L580.60777,895.99976 L577.5355,895.99976 L572.41636,893.95191 L569.34397,887.80738 L569.34397,884.73609 L569.34397,658.43109 L569.34397,655.3598 L569.34397,655.3599 Z M452.60804,659.4559 L452.60804,662.52817 L450.56012,885.75917 L450.56012,887.80702 L449.53571,894.97499 L443.39216,899.07167 C441.34431,900.09511 439.29646,900.09511 437.24861,900.09511 L433.15193,900.09511 C417.79253,897.02382 403.45663,893.95156 390.14413,888.83141 C372.73593,883.71129 356.35213,876.54331 339.96833,869.37531 C317.44003,858.11161 294.91173,845.82351 274.43223,830.46321 C273.40782,829.43977 273.40782,829.43977 272.38438,828.41536 L270.33653,827.39095 L266.23985,820.22298 L269.31212,813.05501 L431.10412,651.26301 L434.17639,650.23957 L446.46449,644.09504 L450.56019,657.40754 C451.5846,655.35969 452.60804,657.40754 452.60804,659.45539 L452.60804,659.4559 Z M118.78397,456.7039 C123.90409,416.7674 136.19217,378.8797 152.57597,342.0159 C168.96077,308.2239 189.44027,276.4807 214.01637,248.8323 C239.61597,220.1604 268.28787,195.5843 300.03197,176.1282 C331.77607,156.6721 365.56807,141.3118 400.38497,132.096 C408.57638,130.04815 429.05687,123.90459 437.24927,123.90459 L437.24927,123.90459 L446.46509,123.90459 L448.51294,133.12041 C448.51294,134.14385 449.53638,135.16826 449.53638,137.21611 L449.53638,141.31181 L449.53638,221.18391 L449.53638,321.53691 L449.53638,397.31231 L449.53638,456.70491 L449.53638,457.72835 C449.53638,462.84847 448.51294,465.92073 444.41724,470.01645 L443.39283,471.04086 C433.15263,481.28106 423.93673,490.49696 413.69653,499.71276 L194.56053,719.87276 C194.56053,719.87276 193.53612,720.89717 192.51268,720.89717 L183.29686,728.06514 L175.10448,719.87276 C168.96093,712.70479 154.62498,684.03296 147.45698,668.67256 C133.12008,635.90496 123.90428,602.11296 118.78408,567.29656 C113.66494,531.45676 113.66494,493.56906 118.78408,456.70456 L118.78397,456.7039 Z"></path>
  </g>
</svg>