<?xml version="1.0" standalone="no"?>
<!DOCTYPE svg PUBLIC "-//W3C//DTD SVG 1.1//EN" "http://www.w3.org/Graphics/SVG/1.1/DTD/svg11.dtd" >
<svg xmlns="http://www.w3.org/2000/svg" xmlns:xlink="http://www.w3.org/1999/xlink" version="1.1" viewBox="-10 0 1045 1024">
   <path fill="currentColor"
d="M4.0957 429.368v1.02344c1.02441 7.16797 2.04785 14.3359 3.07227 21.5049c2.04785 11.2637 4.0957 21.5039 6.14355 33.792c5.12012 23.5518 12.2881 47.1035 21.5049 69.6318c6.14355 16.3838 13.3115 32.7676 21.5039 48.1279
c8.19141 16.3838 17.4072 32.7676 27.6475 48.1279c16.3838 24.5762 34.8164 48.1279 55.2959 69.6318c25.6006 27.6484 55.2959 52.2236 86.0166 73.7275c20.4795 13.3125 40.96 25.6006 62.4639 36.8643c29.6963 14.3359 61.4395 26.624 94.208 34.8164
c13.3115 3.07227 26.624 6.14355 39.9355 9.21582c9.21582 2.04785 18.4326 3.07227 29.6963 4.0957c10.2402 1.02441 20.4805 2.04785 28.6719 3.07227h7.16797h6.14453h5.12012h27.6475h5.12012h8.19238c4.0957 0 8.19141 0 12.2871 -1.02441
c7.16797 -1.02344 14.3369 -1.02344 20.4805 -2.04785c7.16797 -1.02344 15.3604 -2.04785 22.5283 -3.07129c9.21582 -1.02441 19.4561 -3.07227 29.6953 -6.14453c14.3359 -3.07227 28.6719 -7.16797 43.0088 -11.2637
c21.5039 -7.16797 41.9834 -15.3604 61.4395 -24.5762c22.5283 -10.2402 45.0557 -23.5518 66.5605 -37.8877c23.5518 -16.3848 46.0791 -33.792 67.584 -53.248c27.6475 -25.6006 52.2236 -54.2725 72.7031 -86.0166c24.5762 -35.8398 44.0322 -75.7754 59.3926 -116.735
c7.16797 -21.5039 13.3115 -44.0322 18.4316 -65.5361c2.04785 -12.2881 4.09668 -23.5518 6.14453 -35.8398c2.04785 -13.3125 3.07129 -24.5762 3.07129 -34.8164c0 -5.12012 0 -11.2637 1.02441 -16.3838v-25.6006v-21.5039
c0 -6.14355 -1.02441 -11.2637 -1.02441 -17.4072v-1.02441c-1.02344 -5.12012 -1.02344 -11.2637 -2.04785 -16.3838c-1.02344 -7.16797 -2.04785 -15.3604 -4.0957 -25.6006c-3.07227 -17.4072 -7.16797 -34.8154 -12.2881 -52.2236
c-8.19238 -26.624 -18.4316 -53.248 -29.6963 -78.8477c-10.2393 -20.4805 -21.5039 -40.96 -33.792 -59.3926c-15.3594 -23.5518 -33.792 -47.1035 -53.248 -67.584c-26.624 -28.6719 -56.3193 -54.2715 -89.0879 -75.7754
c-29.6953 -20.4805 -62.4639 -37.8887 -96.2559 -51.2002c-21.5039 -8.19238 -44.0322 -15.3604 -66.5596 -21.5039c-14.3359 -3.07227 -26.624 -6.14453 -38.9121 -8.19238c-10.2402 -2.04785 -19.4561 -3.07227 -29.6963 -4.0957
c-6.14355 -1.02441 -12.2881 -1.02441 -18.4316 -1.02441h-5.12012c-14.3359 -2.04785 -27.6484 -2.04785 -41.9844 -2.04785c-9.21582 0 -18.4316 0 -27.6475 1.02441c-11.2646 1.02344 -21.5039 2.04785 -30.7207 3.07129
c-33.792 4.09668 -67.584 12.2881 -99.3271 23.5527c-22.5283 8.19141 -44.0322 17.4072 -65.5361 27.6475c-35.8398 18.4316 -69.6318 40.96 -100.353 67.584c-11.2637 10.2402 -22.5273 20.4805 -32.7676 30.7197c-27.6484 27.6484 -51.2002 59.3926 -71.6807 92.1602
c-17.4072 30.7207 -32.7676 62.4639 -44.0312 95.2324c-8.19238 22.5273 -14.3359 46.0801 -18.4326 68.6074c-3.07129 13.3125 -5.12012 26.624 -6.14355 38.9121c-1.02441 11.2646 -2.04785 21.5039 -3.07227 30.7207v6.14355v7.16797s0 4.0957 -1.02344 6.14453v2.04785
v23.5518c0 3.07227 0 6.14355 1.02344 9.21582l1.02441 8.19238c0 5.12012 1.02344 11.2637 1.02344 16.3838c-1.02344 4.0957 -1.02344 8.19238 0 12.2881zM571.392 -3.78418v-8.19141l6.14453 -3.07227c5.12012 -2.04785 9.21582 -1.02441 10.2402 -1.02441h2.04785
c4.0957 1.02441 9.21582 2.04785 13.3115 3.07227c23.5527 6.14355 47.1045 13.3115 68.6084 23.5518c24.5762 11.2646 48.1279 25.6006 70.6562 40.96c15.3594 11.2646 29.6953 23.5527 43.0078 36.8643c28.6719 28.6719 53.248 61.4404 72.7041 97.2803
c16.3838 30.7197 28.6719 63.4873 35.8398 97.2793c3.07227 12.2881 5.12012 24.5762 6.14355 36.8643c1.02441 11.2646 2.04785 22.5283 3.07227 32.7686v19.4561c0 10.2393 -1.02441 19.4561 -1.02441 28.6719c-1.02344 12.2881 -2.04785 24.5762 -4.0957 35.8398
c-6.14355 34.8154 -17.4082 69.6318 -31.7441 101.376c-5.12012 11.2637 -11.2637 22.5283 -17.4072 32.7676c-1.02441 1.02441 -2.04883 4.09668 -5.12012 6.14453l-7.16797 5.12012l-7.16797 -4.09668c-1.02441 0 -1.02441 -1.02344 -2.04883 -1.02344l-233.472 -228.353
c-5.12012 -5.12012 -11.2637 -10.2393 -16.3838 -16.3838c-4.0957 -3.07227 -5.12012 -8.19141 -5.12012 -13.3115v-72.7041v-246.784c-1.02441 -1.02441 -1.02441 -2.04785 -1.02441 -3.07227zM570.368 514.36l1.02344 -3.07227l5.12012 -13.3125l12.2881 8.19238
c1.02441 0 2.04785 1.02441 3.07227 2.04785c2.04785 2.04785 4.0957 3.07227 5.12012 5.12012l149.504 151.552l1.02344 1.02441l5.12012 6.14355l-3.07129 8.19238c-2.04883 4.0957 -5.12012 5.12012 -6.14453 6.14355l-5.12012 3.07227
c-4.0957 3.07227 -9.21582 6.14453 -13.3115 9.21582c-23.5518 15.3604 -48.1279 27.6484 -76.7998 37.8887c-20.4805 7.16797 -41.9844 13.3115 -63.4883 18.4316h-3.07227h-3.07227l-5.11914 -2.04785l-3.07227 -6.14453v-3.07129v-226.305v-3.07129zM453.632 518.456
v3.07227l-2.04785 223.231v2.04785l-1.02441 7.16797l-6.14355 4.09668c-2.04785 1.02344 -4.0957 1.02344 -6.14355 1.02344h-4.09668c-15.3594 -3.07129 -29.6953 -6.14355 -43.0078 -11.2637c-17.4082 -5.12012 -33.792 -12.2881 -50.1758 -19.4561
c-22.5283 -11.2637 -45.0566 -23.5518 -65.5361 -38.9121c-1.02441 -1.02344 -1.02441 -1.02344 -2.04785 -2.04785l-2.04785 -1.02441l-4.09668 -7.16797l3.07227 -7.16797l161.792 -161.792l3.07227 -1.02344l12.2881 -6.14453l4.0957 13.3125
c1.02441 -2.04785 2.04785 0 2.04785 2.04785zM119.808 315.704c5.12012 -39.9365 17.4082 -77.8242 33.792 -114.688c16.3848 -33.792 36.8643 -65.5352 61.4404 -93.1836c25.5996 -28.6719 54.2715 -53.248 86.0156 -72.7041s65.5361 -34.8164 100.353 -44.0322
c8.19141 -2.04785 28.6719 -8.19141 36.8643 -8.19141v0h9.21582l2.04785 9.21582c0 1.02344 1.02344 2.04785 1.02344 4.0957v4.0957v79.8721v100.353v75.7754v59.3926v1.02344c0 5.12012 -1.02344 8.19238 -5.11914 12.2881l-1.02441 1.02441
c-10.2402 10.2402 -19.4561 19.4561 -29.6963 28.6719l-219.136 220.16s-1.02441 1.02441 -2.04785 1.02441l-9.21582 7.16797l-8.19238 -8.19238c-6.14355 -7.16797 -20.4795 -35.8398 -27.6475 -51.2002c-14.3369 -32.7676 -23.5527 -66.5596 -28.6729 -101.376
c-5.11914 -35.8398 -5.11914 -73.7275 0 -110.592zM738.304 677.176v0v0z" />
</svg>
