<?xml version="1.0" encoding="UTF-8"?>
<svg width="1027px" height="720px" viewBox="0 0 1027 720" version="1.1" xmlns="http://www.w3.org/2000/svg" xmlns:xlink="http://www.w3.org/1999/xlink">
  <g id="CrunchBase" transform="translate(0.5898, -0)" fill="currentColor" fill-rule="nonzero">
    <path d="M372.467341,533.5046 C340.723241,604.1608 257.779341,634.8806 187.123341,603.1374 C116.467141,571.3933 85.7473409,488.4494 117.491541,417.7924 C149.235641,347.1371 232.179541,316.4164 302.835541,348.1606 C333.555241,362.4965 358.131441,387.0727 372.467341,417.7924 L482.035341,417.7924 C450.291241,286.7214 318.195341,205.8244 186.098341,238.5934 C56.0503409,270.3366 -24.8446591,402.4334 6.89834094,533.5044 C38.6424409,664.5764 170.739341,745.4734 302.835341,712.7044 C391.923241,691.2005 460.531341,621.5687 482.035341,533.5044 L372.467341,533.5044 L372.467341,533.5046 Z M781.043341,231.4246 L763.635141,231.4246 C720.627341,234.49589 679.667341,248.8318 644.851141,273.408 L644.851141,0 L545.523041,0 L545.523041,700.416 L645.876041,700.416 L645.876041,674.8164 C712.435641,719.8721 796.404041,729.0879 870.132041,700.416 C895.731641,691.20018 919.284341,676.8642 940.788241,658.4326 C1043.18724,571.3926 1054.45224,417.7916 967.412241,315.3926 C919.284341,262.1446 851.700241,231.4248 781.044241,231.4248 L781.043341,231.4246 Z M920.307341,496.6406 L920.307341,501.76072 C919.283901,507.90427 918.259491,513.02442 916.211641,519.16792 L916.211641,519.16792 C914.163791,525.31245 912.115941,530.43252 910.067111,536.57612 L910.067111,536.57612 C896.755611,566.27242 873.203811,588.80072 843.507511,603.13662 C835.315131,607.23232 826.099311,610.30459 815.859111,613.37592 L815.859111,613.37592 L757.491911,613.37592 C745.203811,611.32807 732.915711,607.23237 721.652111,602.11222 L721.652111,602.11222 C710.387511,596.9921 700.147211,589.82412 690.931411,580.60832 L690.931411,580.60832 C681.715591,572.41594 673.523211,562.17672 666.355211,550.91202 L666.355211,550.91202 C666.355211,544.76847 660.211661,539.64832 657.139391,533.50382 L657.139391,533.50382 C648.947981,514.04772 645.875691,494.59272 645.875691,475.13662 C645.875691,454.65612 649.971391,434.17662 659.187191,415.74402 L659.187191,415.74402 C680.691091,371.71182 722.675491,340.99202 771.828191,335.87192 L786.164091,335.87192 C863.988291,335.87192 926.452091,398.33582 926.452091,476.15992 L926.452091,476.15992 C924.404241,481.28004 922.355411,486.40012 920.307561,492.54372 L920.307561,496.6404 L920.307341,496.6406 Z"></path>
  </g>
</svg>