<?xml version="1.0" standalone="no"?>
<!DOCTYPE svg PUBLIC "-//W3C//DTD SVG 1.1//EN" "http://www.w3.org/Graphics/SVG/1.1/DTD/svg11.dtd" >
<svg xmlns="http://www.w3.org/2000/svg" xmlns:xlink="http://www.w3.org/1999/xlink" version="1.1" viewBox="-11 0 1047 1024">
   <path fill="currentColor"
d="M371.712 531.768c-31.7441 70.6562 -114.688 101.376 -185.344 69.6328c-70.6562 -31.7441 -101.376 -114.688 -69.6318 -185.345c31.7441 -70.6553 114.688 -101.376 185.344 -69.6318c30.7197 14.3359 55.2959 38.9121 69.6318 69.6318h109.568
c-31.7441 -131.071 -163.84 -211.968 -295.937 -179.199c-130.048 31.7432 -210.943 163.84 -179.2 294.911c31.7441 131.072 163.841 211.969 295.937 179.2c89.0879 -21.5039 157.696 -91.1357 179.2 -179.2h-109.568zM780.288 229.688h-17.4082
c-43.0078 3.07129 -83.9678 17.4072 -118.784 41.9834v-273.408h-99.3281v700.416h100.353v-25.5996c66.5596 45.0557 150.528 54.2715 224.256 25.5996c25.5996 -9.21582 49.1523 -23.5518 70.6562 -41.9834c102.399 -87.04 113.664 -240.641 26.624 -343.04
c-48.1279 -53.248 -115.712 -83.9678 -186.368 -83.9678zM919.552 494.904v5.12012c-1.02344 6.14355 -2.04785 11.2637 -4.0957 17.4072v0c-2.04785 6.14453 -4.0957 11.2646 -6.14453 17.4082v0c-13.3115 29.6963 -36.8633 52.2246 -66.5596 66.5605
c-8.19238 4.0957 -17.4082 7.16797 -27.6484 10.2393v0h-58.3672c-12.2881 -2.04785 -24.5762 -6.14355 -35.8398 -11.2637v0c-11.2646 -5.12012 -21.5049 -12.2881 -30.7207 -21.5039v0c-9.21582 -8.19238 -17.4082 -18.4316 -24.5762 -29.6963v0
c0 -6.14355 -6.14355 -11.2637 -9.21582 -17.4082v0c-8.19141 -19.4561 -11.2637 -38.9111 -11.2637 -58.3672c0 -20.4805 4.0957 -40.96 13.3115 -59.3926v0c21.5039 -44.0322 63.4883 -74.752 112.641 -79.8721h14.3359c77.8242 0 140.288 62.4639 140.288 140.288v0
c-2.04785 5.12012 -4.09668 10.2402 -6.14453 16.3838v4.09668z" />
</svg>
