<?xml version="1.0" encoding="UTF-8"?>
<svg width="1025px" height="1025px" viewBox="0 0 1025 1025" version="1.1" xmlns="http://www.w3.org/2000/svg" xmlns:xlink="http://www.w3.org/1999/xlink">
  <g id="Curiouscat" transform="translate(0.7676, 0.0684)" fill="currentColor" fill-rule="nonzero">
    <path d="M1023.98306,230.469919 C1024.00064,229.034369 1024.00064,227.337109 1024.00064,225.636909 C1024.00064,155.177909 1012.65784,87.3689086 991.698837,23.9369086 L992.997667,28.4740186 C986.960557,11.7455186 971.220367,0 952.738867,0 C945.928317,0 939.492767,1.59506857 933.779867,4.43002857 L934.02889,4.31870057 C863.36289,40.2484006 802.80589,84.5501006 750.42189,137.012701 L750.413101,137.022466 C722.895501,163.899466 697.459001,192.587866 674.175801,223.011766 L672.776391,224.918016 C628.868191,197.779316 575.634791,181.698316 518.647391,181.698316 C516.937431,181.698316 515.233331,181.711988 513.531181,181.741285 L513.78704,181.738355 L510.22259,181.738355 C508.70013,181.710035 506.90423,181.69441 505.10345,181.69441 C448.19725,181.69441 395.04745,197.77841 349.95445,225.64951 L351.22398,224.919041 C326.54628,192.586041 301.10968,163.898541 273.74348,137.173941 L273.58723,137.02355 C221.17613,84.58115 160.62523,40.28335 93.98923,6.18555 L89.97165,4.31836 C84.50778,1.59375 78.07225,0 71.26165,0 C52.78025,0 37.03995,11.7432 31.09665,28.1758 L31.0029,28.472675 C11.3427,87.367175 -2.48689958e-14,155.176675 -2.48689958e-14,225.635675 C-2.48689958e-14,227.334895 -2.48689958e-14,229.032155 0.0195312,230.728445 L0.01757808,230.468679 C-0.01269532,262.478479 2.16796808,294.465779 6.50976808,326.167879 C11.8847681,365.278279 20.1396681,400.240179 31.3281681,433.859879 L30.1221181,429.678239 C32.2060981,435.621599 33.4092281,442.473139 33.4092281,449.606939 C33.4092281,455.354009 32.6279781,460.917439 31.1660681,466.198739 L31.2686071,465.762216 C20.4551071,503.824716 14.2383071,547.537616 14.2383071,592.703216 C14.2383071,593.263763 14.2392836,593.825286 14.2412368,594.384856 L14.2412368,594.298919 C14.2236587,595.755948 14.213893,597.477629 14.213893,599.200288 C14.213893,665.667088 28.551793,728.786289 54.302793,785.632288 L53.150453,782.789518 C60.567443,799.562919 68.738353,813.925219 78.153353,827.353018 L77.601595,826.522941 C85.281285,837.576641 92.789095,847.15574 100.791995,856.289541 L100.465823,855.910635 C130.243123,889.445835 208.041823,917.501435 238.494823,929.164535 C357.273823,974.628435 374.680823,1007.49753 468.648823,1020.24563 C486.803123,1022.70364 501.927123,1023.62454 511.982823,1023.99368 C527.986723,1023.37357 542.944723,1022.03079 557.673223,1019.97415 L555.306033,1020.24564 C649.305033,1007.50734 666.681033,974.638239 785.471033,929.164539 C815.924133,917.491639 893.723033,889.436039 923.500033,855.910639 C931.178743,847.155759 938.685533,837.576639 945.657233,827.593238 L946.365241,826.522929 C955.213871,813.931128 963.380841,799.571729 970.147441,784.449728 L970.806621,782.799338 C995.406221,728.815939 1009.74412,665.717338 1009.74412,599.271338 C1009.74412,597.527198 1009.73436,595.785009 1009.71385,594.045748 L1009.7158,594.311373 C1009.71775,593.81235 1009.71873,593.220553 1009.71873,592.629733 C1009.71873,547.494033 1003.50096,503.810433 991.87593,462.388733 L992.68843,465.775453 C991.32905,460.928773 990.54781,455.365253 990.54781,449.619253 C990.54781,442.486443 991.75191,435.633853 993.96676,429.254953 L993.834924,429.691476 C1003.82222,400.244176 1012.07712,365.280376 1017.09272,329.278476 L1017.44819,326.169096 C1021.82026,294.457196 1024.00064,262.479596 1023.98139,230.469896 L1023.98237,230.469896 L1023.98306,230.469919 Z"></path>
  </g>
</svg>