<?xml version="1.0" standalone="no"?>
<!DOCTYPE svg PUBLIC "-//W3C//DTD SVG 1.1//EN" "http://www.w3.org/Graphics/SVG/1.1/DTD/svg11.dtd" >
<svg xmlns="http://www.w3.org/2000/svg" xmlns:xlink="http://www.w3.org/1999/xlink" version="1.1" viewBox="-11 0 1045 1024">
   <path fill="currentColor"
d="M1023.98 89.4727c0.0117188 -1.43555 0.0175781 -3.13281 0.0175781 -4.83301c0 -70.459 -11.3428 -138.268 -32.3018 -201.7l1.29883 4.53711c-6.03711 -16.7285 -21.7773 -28.4727 -40.2588 -28.4727c-6.81055 0 -13.2461 1.59375 -18.959 4.42871l0.249023 -0.111328
c-70.666 35.9297 -131.223 80.2314 -183.607 132.694l-0.00878906 0.00976562c-27.5176 26.877 -52.9541 55.5654 -76.2373 85.9893l-1.39941 1.90625c-43.9082 -27.1387 -97.1416 -43.2197 -154.129 -43.2197c-1.70996 0 -3.41406 0.0136719 -5.11621 0.0429688
l0.255859 -0.00292969h-3.56445c-1.52246 -0.0283203 -3.31836 -0.0439453 -5.11914 -0.0439453c-56.9062 0 -110.056 16.084 -155.149 43.9551l1.26953 -0.730469c-24.6777 -32.333 -50.1143 -61.0205 -77.4805 -87.7451l-0.15625 -0.150391
c-52.4111 -52.4424 -112.962 -96.7402 -179.598 -130.838l-4.01758 -1.86719c-5.46387 -2.72461 -11.8994 -4.31836 -18.71 -4.31836c-18.4814 0 -34.2217 11.7432 -40.165 28.1758l-0.09375 0.296875c-19.6602 58.8945 -31.0029 126.704 -31.0029 197.163
c0 1.69922 0.00683594 3.39648 0.0195312 5.09277l-0.00195312 -0.259766c-0.0302734 32.0098 2.15039 63.9971 6.49219 95.6992c5.375 39.1104 13.6299 74.0723 24.8184 107.692l-1.20605 -4.18164c2.08398 5.94336 3.28711 12.7949 3.28711 19.9287
c0 5.74707 -0.78125 11.3105 -2.24316 16.5918l0.102539 -0.436523c-10.8135 38.0625 -17.0303 81.7754 -17.0303 126.941c0 0.560547 0.000976562 1.12207 0.00292969 1.68164v-0.0859375c-0.0175781 1.45703 -0.0273438 3.17871 -0.0273438 4.90137
c0 66.4668 14.3379 129.586 40.0889 186.432l-1.15234 -2.84277c7.41699 16.7734 15.5879 31.1357 25.0029 44.5635l-0.551758 -0.830078c7.67969 11.0537 15.1875 20.6328 23.1904 29.7666l-0.326172 -0.378906c29.7773 33.5352 107.576 61.5908 138.029 73.2539
c118.779 45.4639 136.186 78.333 230.154 91.0811c18.1543 2.45801 33.2783 3.37891 43.334 3.74805c16.0039 -0.620117 30.9619 -1.96289 45.6904 -4.01953l-2.36719 0.271484c93.999 -12.7383 111.375 -45.6074 230.165 -91.0811
c30.4531 -11.6729 108.252 -39.7285 138.029 -73.2539c7.67871 -8.75488 15.1855 -18.334 22.1572 -28.3174l0.708008 -1.07031c8.84863 -12.5918 17.0156 -26.9512 23.7822 -42.0732l0.65918 -1.65039c24.5996 -53.9834 38.9375 -117.082 38.9375 -183.528
c0 -1.74414 -0.00976562 -3.48633 -0.0302734 -5.22559l0.00195312 0.265625c0.00195312 -0.499023 0.00292969 -1.09082 0.00292969 -1.68164c0 -45.1357 -6.21777 -88.8193 -17.8428 -130.241l0.8125 3.38672c-1.35938 -4.84668 -2.14062 -10.4102 -2.14062 -16.1562
c0 -7.13281 1.2041 -13.9854 3.41895 -20.3643l-0.131836 0.436523c9.9873 -29.4473 18.2422 -64.4111 23.2578 -100.413l0.355469 -3.10938c4.37207 -31.7119 6.55371 -63.6895 6.5332 -95.6992h0.000976562z" />
</svg>
