<?xml version="1.0" standalone="no"?>
<!DOCTYPE svg PUBLIC "-//W3C//DTD SVG 1.1//EN" "http://www.w3.org/Graphics/SVG/1.1/DTD/svg11.dtd" >
<svg xmlns="http://www.w3.org/2000/svg" xmlns:xlink="http://www.w3.org/1999/xlink" version="1.1" viewBox="-10 0 1034 1024">
   <path fill="currentColor"
d="M848 539c-32 -96 -84 -122 -84 -122c26 36 32 90 14 132c-16 32 -70 76 -98 32c-10 -14 -10 -30 -8 -48c4 -14 6 -30 14 -46c8 -14 18 -30 28 -42c12 -18 20 -38 24 -60c4 -18 2 -56 -16 -68c6 22 -10 44 -28 54c-4 2 -6 2 -8 4h-16c-14 -2 -30 -14 -36 -28
c-10 -22 -4 -48 14 -66c14 -14 32 -18 52 -10c-10 -56 -48 -92 -76 -134c-38 -54 -56 -118 -32 -178v-4c24 -52 86 -88 144 -98h-10c-96 0 -176 52 -176 52c-138 94 -46 230 -34 250s4 60 -36 62c-58 4 -70 -88 -70 -88c-42 46 -32 126 34 182c42 36 42 88 28 136
c-8 26 -22 50 -42 66c-48 34 -106 10 -134 -34c-46 -74 2 -144 2 -144c-70 28 -108 68 -122 114c0 0 0 2 -2 2c0 6 -2 14 -4 18s-2 8 -2 12c0 2 -2 4 -2 8c-4 46 0 126 70 192c102 96 180 90 222 100c42 12 82 36 110 100c0 0 18 -36 44 -54c40 -28 104 -28 162 -66
s106 -136 74 -226z" />
</svg>
