<?xml version="1.0" encoding="UTF-8"?>
<svg width="694px" height="1029px" viewBox="0 0 694 1029" version="1.1" xmlns="http://www.w3.org/2000/svg" xmlns:xlink="http://www.w3.org/1999/xlink">
  <g id="Curse" transform="translate(0.0542, 0.4253)" fill="currentColor" fill-rule="nonzero">
    <path d="M683.068119,682 C651.068119,586 599.068119,560 599.068119,560 C625.068119,596 631.068119,650 613.068119,692 C597.068119,724 543.068119,768 515.068119,724 C505.068119,710 505.068119,694 507.068119,676 C511.068119,662 513.068119,646 521.068119,630 C529.068119,616 539.068119,600 549.068119,588 C561.068119,570 569.068119,550 573.068119,528 C577.068119,510 575.068119,472 557.068119,460 C563.068119,482 547.068119,504 529.068119,514 C525.068119,516 523.068119,516 521.068119,518 L505.068119,518 C491.068119,516 475.068119,504 469.068119,490 C459.068119,468 465.068119,442 483.068119,424 C497.068119,410 515.068119,406 535.068119,414 C525.068119,358 487.068119,322 459.068119,280 C421.068119,226 403.068119,162 427.068119,102 L427.068119,98 C451.068119,46 513.068119,10 571.068119,0 L561.068119,0 C465.068119,0 385.068119,52 385.068119,52 C247.068119,146 339.068119,282 351.068119,302 C363.068119,322 355.068119,362 315.068119,364 C257.068119,368 245.068119,276 245.068119,276 C203.068119,322 213.068119,402 279.068119,458 C321.068119,494 321.068119,546 307.068119,594 C299.068119,620 285.068119,644 265.068119,660 C217.068119,694 159.068119,670 131.068119,626 C85.0681192,552 133.068119,482 133.068119,482 C63.0681192,510 25.0681192,550 11.0681192,596 C11.0681192,596 11.0681192,598 9.06811924,598 C9.06811924,604 7.06811924,612 5.06811924,616 C3.06811924,620 3.06811924,624 3.06811924,628 C3.06811924,630 1.06811924,632 1.06811924,636 C-2.93188076,682 1.06811924,762 71.0681192,828 C173.068119,924 251.068119,918 293.068119,928 C335.068119,940 375.068119,964 403.068119,1028 C403.068119,1028 421.068119,992 447.068119,974 C487.068119,946 551.068119,946 609.068119,908 C667.068119,870 715.068119,772 683.068119,682 Z"></path>
  </g>
</svg>