<?xml version="1.0" standalone="no"?>
<!DOCTYPE svg PUBLIC "-//W3C//DTD SVG 1.1//EN" "http://www.w3.org/Graphics/SVG/1.1/DTD/svg11.dtd" >
<svg xmlns="http://www.w3.org/2000/svg" xmlns:xlink="http://www.w3.org/1999/xlink" version="1.1" viewBox="-10 0 1034 1024">
   <path fill="currentColor"
d="M886 -141l-218 44v322c-48 -64 -118 -94 -206 -94c-94 0 -178 34 -246 102c-76 74 -118 168 -118 274c0 116 44 214 128 290c66 58 142 86 232 86c86 0 152 -24 218 -86v82h208v-1020h2zM506 687c-112 0 -192 -78 -192 -182c0 -98 80 -182 184 -182c100 0 178 80 178 186
c0 102 -78 178 -170 178z" />
</svg>
