<?xml version="1.0" encoding="UTF-8"?>
<svg width="225px" height="225px" viewBox="0 0 225 225" version="1.1" xmlns="http://www.w3.org/2000/svg" xmlns:xlink="http://www.w3.org/1999/xlink">
    <title>Daz3D</title>
    <g id="Daz3D" stroke="none" stroke-width="1" fill="none" fill-rule="evenodd">
        <path d="M45.2096446,113.780016 C30.2799571,115.74486 6.11198837,112.379626 39.0426524,76.0348991 C71.9733165,39.6901725 121.63152,32.9294303 154.50359,46.4499381 C190.161793,62.5143913 181.118824,77.3493522 189.842457,89.9802116 C198.56609,102.611071 209.814137,102.078844 209.814137,107.92943 C209.814137,113.780016 202.883473,117.589587 202.883473,120.704821 C202.883473,123.820055 207.10027,124.764391 207.10027,126.803454 C207.10027,128.842516 204.294606,130.131579 204.294606,131.321032 C204.294606,132.510485 207.10027,133.979235 207.10027,135.225329 C207.10027,136.471423 202.883473,138.260485 202.883473,142.501696 C202.883473,146.742907 204.294606,148.558337 204.294606,153.316149 C204.294606,158.073962 201.03191,163.672594 190.03777,163.672594 C179.043629,163.672594 167.724293,160.507555 151.303395,165.718493 C134.882496,170.92943 117.71941,185.188219 101.293629,185.188219 C84.8678477,185.188219 73.8795665,177.594469 73.8795665,167.371813 C73.8795665,157.149157 92.4401134,158.419665 95.8737071,156.998766 C99.3073009,155.577868 113.557301,150.791735 113.557301,136.535876 C113.557301,122.280016 96.9410899,115.74486 88.4137462,115.74486 C79.8864024,115.74486 65.8385509,118.178454 54.5914806,132.635485 C43.3444102,147.092516 34.2321056,167.166735 21.5719493,161.293688 C8.91179306,155.420641 18.2584727,130.066149 45.2096446,113.780016 Z" id="Path" fill="currentColor"></path>
    </g>
</svg>