<?xml version="1.0" standalone="no"?>
<!DOCTYPE svg PUBLIC "-//W3C//DTD SVG 1.1//EN" "http://www.w3.org/Graphics/SVG/1.1/DTD/svg11.dtd" >
<svg xmlns="http://www.w3.org/2000/svg" xmlns:xlink="http://www.w3.org/1999/xlink" version="1.1" viewBox="-10 0 1034 1024">
   <path fill="currentColor"
d="M591.872 399.672c-17.4082 0 3.07227 9.21582 25.5996 12.2881c6.14453 -5.12012 11.2646 -9.21582 16.3848 -14.3359c-13.3125 4.0957 -27.6484 4.0957 -41.9844 2.04785zM683.008 377.144c10.2402 -14.3359 17.4082 -29.6953 20.4805 -45.0557
c-2.04785 11.2637 -8.19238 20.4805 -14.3359 30.7197c-31.7441 20.4805 -3.07227 -12.2881 0 -23.5518c-34.8164 43.0078 -5.12012 25.6006 -6.14453 37.8877zM716.8 290.104c2.04785 -30.7197 -6.14355 -20.4795 -9.21582 -9.21582
c3.07227 1.02441 6.14355 21.5039 9.21582 9.21582zM527.36 -127.688c9.21582 2.04883 19.4561 3.07227 18.4316 5.12012c10.2402 -2.04785 12.2881 -4.0957 -18.4316 -5.12012zM545.792 -122.568v0zM828.416 301.368c1.02441 27.6475 -8.19238 40.96 -16.3838 64.5117
l-14.3359 7.16797c-12.2881 23.5518 1.02344 14.3359 -7.16797 33.792c-18.4326 16.3838 -57.3447 52.2246 -68.6084 55.2959c-9.21582 0 6.14453 -10.2393 8.19238 -14.3359c-24.5762 17.4082 -20.4805 25.6006 -58.3682 35.8398l-1.02441 -2.04785
c-94.208 44.0322 -226.304 -44.0322 -224.256 -163.84c-1.02344 7.16797 -3.07227 6.14453 -5.12012 9.21582c-5.12012 -61.4395 28.6719 -123.903 84.9922 -149.504c55.2959 -27.6475 119.808 -16.3838 159.744 20.4805
c-21.5039 -28.6719 -64.5117 -58.3682 -116.736 -55.2959c-50.1758 1.02344 -97.2793 32.7676 -112.64 67.584c-25.6006 16.3838 -28.6719 62.4639 -39.9365 70.6553c-15.3594 110.593 28.6729 158.721 101.376 215.04c11.2646 8.19238 3.07227 9.21582 5.12012 15.3604
c-24.5752 -11.2637 -47.1035 -28.6719 -65.5361 -50.1758c10.2402 14.3359 20.4805 27.6475 33.792 38.9121c-22.5273 -8.19238 -54.2715 -55.2969 -62.4639 -57.3447c39.9365 70.6562 160.769 124.929 224.256 98.3047
c-29.6953 1.02344 -66.5596 1.02344 -99.3271 -11.2646c-14.3359 -7.16797 -32.7686 -21.5039 -29.6963 -24.5762c87.04 32.7686 176.128 24.5762 250.88 -35.8398c19.4561 -15.3594 39.9355 -39.9355 46.0801 -40.96c-9.21582 13.3125 2.04785 6.14453 -5.12012 18.4326
c19.4561 -30.7207 -8.19238 -12.2881 19.4561 -53.248l10.2402 14.3359c-4.09668 -26.624 30.7197 -57.3447 27.6475 -98.3047c8.19238 -12.2871 9.2168 13.3125 0 41.9844c12.2881 -31.7441 3.07227 -36.8643 6.14453 -62.4639
c3.07227 9.21582 8.19141 18.4316 10.2402 27.6475c-8.19238 -30.7197 8.19141 -51.1992 12.2871 -68.6074c-4.0957 -2.04785 -12.2871 13.3115 -14.3359 -22.5283c0 -15.3594 4.09668 -8.19141 6.14453 -12.2881c-3.07227 -2.04785 -11.2637 -13.3115 -16.3838 -36.8633
c3.07129 -5.12012 9.21582 14.3359 14.3359 14.3359c-3.07227 -18.4326 -8.19238 -31.7441 -8.19238 -46.0801c-14.3359 -29.6963 -5.12012 4.0957 -16.3838 -12.2881c-15.3604 -47.1045 12.2881 -11.2646 14.3359 -31.7441
c22.5283 32.7676 35.8398 83.9678 41.9844 105.472c-4.09668 -25.5996 -12.2881 -50.1758 -20.4805 -74.752c7.16797 3.07227 -11.2637 -53.248 9.21582 -16.3838c-21.5039 -78.8477 -92.1602 -152.576 -156.672 -187.392c8.19238 7.16797 17.4082 16.3838 14.3359 17.4072
c-31.7441 -19.4561 -26.624 -20.4795 -30.7197 -28.6719c-26.624 -10.2402 -27.6484 1.02441 -45.0557 0c-49.1523 -26.624 -59.3926 -23.5518 -104.448 -39.9355l2.04785 9.21582c-32.7686 -11.2637 -37.8877 4.0957 -73.7285 0
c-2.04785 -2.04785 11.2646 -6.14355 22.5283 -8.19238c-31.7441 4.09668 -29.6963 -6.14355 -61.4395 1.02441c7.16797 -5.12012 15.3594 -9.21582 23.5518 -13.3125c-25.6006 2.04883 -61.4404 15.3604 -50.1758 3.07227
c-43.0088 19.4561 -117.761 46.0801 -159.744 84.9922l-1.02441 -9.21582c-19.4561 23.5518 -83.9678 68.6074 -89.0879 98.3037l-5.12012 1.02441c-10.2402 17.4072 -16.3838 35.8398 -24.5762 53.248c-13.3115 22.5273 -19.4561 8.19141 -17.4072 12.2881
c-25.6006 52.2236 -38.9121 96.2559 -49.1523 132.096c8.19238 11.2637 0 70.6562 3.07227 117.76c-13.3125 233.472 163.84 459.776 356.352 512c28.6719 10.2402 70.6562 10.2402 106.496 11.2637c-41.9844 -12.2871 -48.1279 -6.14355 -89.0879 -20.4795
c-29.6963 -14.3359 -35.8398 -29.6963 -57.3438 -48.1279l8.19141 14.3359c-40.96 -14.3359 -23.5518 -18.4316 -57.3438 -28.6719l9.21582 -11.2646c-13.3115 -1.02344 -35.8398 -22.5273 -40.96 -34.8154l-14.3359 1.02344
c-17.4082 -21.5039 -26.624 -36.8633 -26.624 -49.1514l-5.12012 8.19141c-5.12012 -9.21582 -64.5117 -80.8955 -33.792 -64.5117c-6.14355 -5.12012 -13.3115 -8.19238 -21.5039 -23.5518l6.14453 -7.16797c-14.3369 -19.4561 -27.6484 -43.0078 -26.624 -51.2002
c8.19141 10.2402 13.3115 12.2881 18.4316 14.3359c-36.8643 -93.1836 -39.9365 -5.12012 -67.584 -94.208h6.14355c-4.0957 -7.16797 -7.16797 -14.3359 -11.2637 -21.5039l3.07227 -25.5996c-26.624 -30.7207 -7.16797 -132.097 -4.09668 -187.393
c3.07227 -22.5273 22.5283 -46.0801 37.8887 -83.9678l-9.21582 -2.04785c17.4072 -30.7197 100.352 -122.88 138.239 -117.76c18.4326 -23.5527 -4.0957 0 -7.16797 -6.14453c40.96 -41.9844 53.248 -29.6963 80.8965 -36.8643
c29.6963 -17.4072 -25.6006 7.16797 -11.2646 -7.16797c51.2002 -13.3115 35.8408 -29.6953 103.425 -35.8398c7.16797 4.0957 -16.3848 6.14453 -22.5283 11.2646c43.0078 -20.4805 135.168 -16.3848 194.56 11.2637c69.6328 32.7676 147.456 128 150.528 219.136
l3.07227 1.02441c-2.04785 35.8398 5.12012 77.8232 -7.16797 115.712zM406.528 423.224l-2.04785 12.2881c11.2637 15.3604 20.4795 31.7441 33.792 43.0078c-10.2402 -19.4551 -17.4082 -28.6719 -31.7441 -55.2959zM433.152 422.2
c-6.14453 -6.14453 -9.2168 -14.3359 -13.3125 -22.5283c4.0957 13.3125 11.2637 25.6006 18.4326 37.8877zM899.072 320.824l-2.04785 6.14355c-4.09668 32.7686 -14.3359 64.5127 -29.6963 94.208c16.3838 -30.7197 27.6475 -65.5361 31.7441 -100.352zM530.432 -135.88
c12.2881 -4.0957 28.6719 -2.04785 40.96 -5.12012c-15.3594 1.02441 -31.7432 2.04785 -47.1035 4.0957zM128 78.1357c3.07227 24.5762 -18.4316 33.792 5.12012 17.4082c12.2881 -27.6475 -5.12012 -7.16797 -5.12012 -17.4082zM101.376 191.8
c5.12012 -16.3838 6.14355 -26.624 8.19238 -35.8398c-15.3604 18.4316 -7.16797 22.5283 -8.19238 35.8398z" />
</svg>
