<?xml version="1.0" encoding="UTF-8"?>
<svg width="824px" height="1024px" viewBox="0 0 824 1024" version="1.1" xmlns="http://www.w3.org/2000/svg" xmlns:xlink="http://www.w3.org/1999/xlink">
  <g id="Debian" transform="translate(0.1428, 0.8284)" fill="currentColor" fill-rule="nonzero">
    <path d="M491.775806,540.67212 C474.367606,540.67212 494.848076,549.88794 517.375406,552.96022 C523.519936,547.8401 528.640006,543.7444 533.760206,538.62432 C520.447706,542.72002 506.111806,542.72002 491.775806,540.67217 L491.775806,540.67212 Z M582.911806,518.14412 C593.152006,503.80822 600.320006,488.44882 603.392306,473.08842 C601.344456,484.35212 595.199926,493.56892 589.056406,503.80812 C557.312306,524.28862 585.984136,491.52002 589.056406,480.25632 C554.240006,523.26412 583.936286,505.85692 582.911876,518.14412 L582.911806,518.14412 Z M616.703806,431.10412 C618.751656,400.38442 610.560256,410.62462 607.487986,421.8883 C610.560256,422.91271 613.631536,443.3922 616.703806,431.10412 Z M427.263806,13.31212 C436.479626,15.36095 446.719906,16.38439 445.695406,18.43224 C455.935606,16.38439 457.983506,14.33654 427.263806,13.31212 Z M728.319806,442.36812 C729.344216,470.01562 720.127426,483.32812 711.936006,506.87982 L697.600106,514.04779 C685.312006,537.59959 698.623546,528.38369 690.432136,547.83979 C671.999536,564.22359 633.087436,600.06439 621.823736,603.13569 C612.607916,603.13569 627.968266,592.89639 630.016116,588.79979 C605.439916,606.20799 609.535616,614.40039 571.647916,624.63959 L570.623506,622.59174 C476.415506,666.62394 344.319506,578.55954 346.367506,458.75174 C345.344066,465.91971 343.295236,464.89627 341.247386,467.96756 C336.127266,406.52806 369.919286,344.06456 426.239586,318.46356 C481.535486,290.81606 546.047586,302.07976 585.983586,338.94406 C564.479686,310.27216 521.471886,280.57586 469.247586,283.64816 C419.071786,284.6716 371.968286,316.41576 356.607586,351.23216 C331.006986,367.61596 327.935686,413.69606 316.671086,421.88746 C301.311686,532.48046 345.343986,580.60846 418.047086,636.92746 C429.311686,645.11984 421.119356,646.14328 423.167206,652.28786 C398.592006,641.02416 376.063706,623.61596 357.631106,602.11206 C367.871306,616.44796 378.111606,629.75956 391.423106,641.02416 C368.895806,632.83178 337.151606,585.72726 328.959206,583.67946 C368.895706,654.33566 489.728206,708.60846 553.215206,681.98416 C523.519906,683.0076 486.655606,683.0076 453.888106,670.71956 C439.552206,663.55159 421.119506,649.21566 424.191806,646.14336 C511.231806,678.91196 600.319806,670.71956 675.071806,610.30356 C694.527906,594.94416 715.007306,570.36806 721.151906,569.34356 C711.936086,582.65606 723.199756,575.48809 716.031786,587.77616 C735.487886,557.05546 707.839406,575.48806 735.487886,534.52816 L745.728086,548.86406 C741.631406,522.24006 776.447786,491.51936 773.375586,450.55936 C781.567966,438.27226 782.592386,463.87186 773.375586,492.54376 C785.663686,460.79966 776.447856,455.67946 779.520116,430.07986 C782.592386,439.29568 787.711526,448.51146 789.760316,457.72736 C781.567936,427.00766 797.951726,406.52816 802.047416,389.11996 C797.951716,387.07211 789.760316,402.43146 787.711516,366.59166 C787.711516,351.23226 791.808196,358.40025 793.856046,354.30356 C790.783776,352.25571 782.592346,340.99206 777.472246,317.44026 C780.543536,312.32014 786.688066,331.77616 791.808146,331.77616 C788.735876,313.34356 783.615766,300.03206 783.615766,285.69606 C769.279866,255.99976 778.495646,289.79176 767.231966,273.40796 C751.871566,226.30346 779.520066,262.14336 781.567866,241.66386 C804.096166,274.43146 817.407666,325.63166 823.552266,347.13586 C819.455586,321.53626 811.264166,296.96006 803.071766,272.38386 C810.239736,275.45613 791.808066,219.13586 812.287586,256.00006 C790.783686,177.15236 720.127386,103.42406 655.615586,68.60806 C663.807966,75.77603 673.023786,84.99186 669.951486,86.01526 C638.207386,66.55916 643.327486,65.53576 639.231786,57.34336 C612.607786,47.10316 611.583386,58.36777 594.176086,57.34336 C545.023786,30.71936 534.783486,33.79156 489.728086,17.40786 L491.775936,26.62368 C459.007336,15.35998 453.888236,30.71938 418.047436,26.62368 C415.999586,24.57583 429.312036,20.48013 440.575736,18.4313 C408.831636,22.52798 410.879436,12.28775 379.136236,19.45571 C386.304206,14.33559 394.495636,10.23989 402.688036,6.14321 C377.087436,8.19204 341.247636,21.50361 352.512236,9.21548 C309.503436,28.67158 234.751236,55.29558 192.768236,94.20768 L191.743826,84.99186 C172.287726,108.54366 107.776026,153.59926 102.655926,183.29556 L97.5358063,184.31997 C87.2956063,201.72717 81.1520063,220.15977 72.9596063,237.56797 C59.6481063,260.09527 53.5035063,245.75938 55.5524063,249.85607 C29.9518063,302.07967 16.6403063,346.11197 6.40010625,381.95207 C14.5924863,393.21577 6.40010625,452.60827 9.47237625,499.71207 C-3.84012375,733.18407 173.312376,959.48807 365.824376,1011.71207 C394.496276,1021.95227 436.480576,1021.95227 472.320376,1022.97577 C430.335976,1010.68867 424.192476,1016.83222 383.232476,1002.49627 C353.536176,988.16037 347.392676,972.79997 325.888676,954.36837 L334.080086,968.70427 C293.120086,954.36837 310.528286,950.27267 276.736286,940.03237 L285.952106,928.76777 C272.640606,927.74433 250.112306,906.24047 244.992106,893.95237 L230.656206,894.97581 C213.248006,873.47191 204.032206,858.11251 204.032206,845.82441 L198.912086,854.01582 C193.791966,844.8 134.400386,773.12032 165.120086,789.50412 C158.976536,784.384 151.808586,781.31174 143.616186,765.95232 L149.760716,758.78435 C135.423816,739.32825 122.112316,715.77655 123.136716,707.58415 C131.328126,717.82435 136.448216,719.87225 141.568316,721.92005 C104.704016,628.73645 101.631816,716.79993 73.9843163,627.71205 L80.1278663,627.71205 C76.0321663,620.54408 72.9598963,613.37615 68.8641663,606.20815 L71.9364363,580.60855 C45.3124363,549.88785 64.7684663,448.51155 67.8397563,393.21555 C70.9120263,370.68825 90.3680563,347.13545 105.728456,309.24775 L96.5126363,307.1999 C113.919836,276.4802 196.864636,184.3199 234.751636,189.4399 C253.184236,165.8872 230.655936,189.4399 227.583666,183.29537 C268.543666,141.31097 280.831666,153.59907 308.480166,146.43107 C338.176466,129.02387 282.879566,153.59904 297.215566,139.2631 C348.415766,125.9516 333.056366,109.5678 400.640566,103.4233 C407.808536,107.519 384.255766,109.56783 378.112266,114.6879 C421.120066,94.2074 513.280266,98.3031 572.672266,125.9516 C642.305066,158.7192 720.128266,253.9516 723.200266,345.0876 L726.272536,346.11201 C724.224686,381.95181 731.392656,423.93521 719.104566,461.82401 L728.319806,442.36812 Z M306.431806,564.22412 L304.383956,576.51222 C315.647656,591.87262 324.863456,608.25632 338.175956,619.52002 C327.935756,600.06492 320.767756,590.84812 306.431856,564.22412 L306.431806,564.22412 Z M333.055806,563.20012 C326.911276,557.05559 323.839006,548.86422 319.743306,540.67182 C323.839006,553.98432 331.007006,566.27242 338.175906,578.55952 L333.055806,563.20012 Z M798.975806,461.82367 L796.927956,467.96767 C792.831276,500.73627 782.592056,532.48037 767.231656,562.17567 C783.615456,531.45597 794.879156,496.63957 798.975806,461.82367 L798.975806,461.82367 Z M430.335806,5.12012 C442.623906,1.02442 459.007706,3.07227 471.295806,0 C455.936406,1.02441 439.552606,2.04785 424.192306,4.0957 L430.335806,5.12012 Z M27.9038063,219.13582 C30.9760763,243.71202 9.47220625,252.92782 33.0239263,236.54402 C45.3120263,208.89652 27.9038063,229.37605 27.9038063,219.13582 L27.9038063,219.13582 Z M1.27980625,332.80012 C6.39992625,316.41632 7.42335625,306.17612 9.47218625,296.96032 C-5.88821375,315.39192 2.30421625,319.48862 1.27980625,332.80012 Z"></path>
  </g>
</svg>