<?xml version="1.0" encoding="UTF-8"?>
<svg width="1024px" height="573px" viewBox="0 0 1024 573" version="1.1" xmlns="http://www.w3.org/2000/svg" xmlns:xlink="http://www.w3.org/1999/xlink">
  <g id="Deezer" transform="translate(0, 0.0926)" fill="currentColor" fill-rule="nonzero">
    <path d="M0,516 L186,516 L186,572 L0,572 L0,516 Z M0,442 L186,442 L186,498 L0,498 L0,442 Z M0,368 L186,368 L186,424 L0,424 L0,368 Z M0,294 L186,294 L186,350 L0,350 L0,294 Z M0,220 L186,220 L186,276 L0,276 L0,220 Z M208,516 L396,516 L396,572 L208,572 L208,516 Z M208,442 L396,442 L396,498 L208,498 L208,442 Z M208,368 L396,368 L396,424 L208,424 L208,368 Z M418,516 L606,516 L606,572 L418,572 L418,516 Z M418,442 L606,442 L606,498 L418,498 L418,442 Z M418,368 L606,368 L606,424 L418,424 L418,368 Z M418,294 L606,294 L606,350 L418,350 L418,294 Z M418,220 L606,220 L606,276 L418,276 L418,220 Z M418,148 L606,148 L606,204 L418,204 L418,148 Z M418,74 L606,74 L606,130 L418,130 L418,74 Z M628,516 L814,516 L814,572 L628,572 L628,516 Z M628,442 L814,442 L814,498 L628,498 L628,442 Z M628,368 L814,368 L814,424 L628,424 L628,368 Z M628,294 L814,294 L814,350 L628,350 L628,294 Z M628,220 L814,220 L814,276 L628,276 L628,220 Z M838,516 L1024,516 L1024,572 L838,572 L838,516 Z M838,442 L1024,442 L1024,498 L838,498 L838,442 Z M838,368 L1024,368 L1024,424 L838,424 L838,368 Z M838,294 L1024,294 L1024,350 L838,350 L838,294 Z M838,220 L1024,220 L1024,276 L838,276 L838,220 Z M838,148 L1024,148 L1024,204 L838,204 L838,148 Z M838,74 L1024,74 L1024,130 L838,130 L838,74 Z M838,0 L1024,0 L1024,56 L838,56 L838,0 Z"></path>
  </g>
</svg>