<?xml version="1.0" standalone="no"?>
<!DOCTYPE svg PUBLIC "-//W3C//DTD SVG 1.1//EN" "http://www.w3.org/Graphics/SVG/1.1/DTD/svg11.dtd" >
<svg xmlns="http://www.w3.org/2000/svg" xmlns:xlink="http://www.w3.org/1999/xlink" version="1.1" viewBox="-10 0 1034 1024">
   <path fill="currentColor"
d="M826 255c-28 -12 -54 -36 -88 -46c32 46 68 96 64 180c-4 64 -34 110 -68 146s-78 62 -134 80c-28 8 -60 16 -92 16c-102 0 -206 -8 -306 4c0 -10 -2 -18 -4 -26c40 -10 96 -22 100 -72c2 -26 4 -320 -2 -342c-8 -30 -64 -40 -96 -46c0 -8 4 -16 2 -26
c68 -8 136 -10 206 -12c186 -8 348 30 418 144zM436 181c-10 2 -6 32 -6 40c0 76 -2 164 -2 238c0 24 -6 74 8 86s68 6 92 6c112 -8 164 -132 126 -244c-26 -72 -82 -120 -172 -126c-12 -2 -30 -2 -40 0h-6zM490 661c8 126 24 222 40 222s30 -98 38 -230c-26 6 -50 6 -78 8z
M376 779c10 0 20 -56 26 -120h-52c6 64 16 120 26 120zM660 625c6 98 14 156 26 156s22 -74 28 -186c-18 10 -36 22 -54 30zM530 -141c-16 0 -32 92 -40 218c28 2 52 4 78 8c-8 -130 -22 -226 -38 -226zM376 -23c-10 0 -20 40 -26 106h52c-6 -66 -16 -106 -26 -106zM686 -23
c-10 2 -20 44 -26 124c16 4 38 12 54 22c-4 -90 -14 -148 -28 -146z" />
</svg>
