<?xml version="1.0" encoding="UTF-8"?>
<svg width="629px" height="1025px" viewBox="0 0 629 1025" version="1.1" xmlns="http://www.w3.org/2000/svg" xmlns:xlink="http://www.w3.org/1999/xlink">
  <g id="Diablo" transform="translate(0.3289, 0.4253)" fill="currentColor" fill-rule="nonzero">
    <path d="M628,396 C600,384 574,360 540,350 C572,396 608,446 604,530 C600,594 570,640 536,676 C502,712 458,738 402,756 C374,764 342,772 310,772 C208,772 104,764 4,776 C4,766 2,758 0,750 C40,740 96,728 100,678 C102,652 104,358 98,336 C90,306 34,296 2,290 C2,282 6,274 4,264 C72,256 140,254 210,252 C396,244 558,282 628,396 Z M238,322 C228,324 232,354 232,362 C232,438 230,526 230,600 C230,624 224,674 238,686 C252,698 306,692 330,692 C442,684 494,560 456,448 C430,376 374,328 284,322 C272,320 254,320 244,322 L238,322 Z M292,802 C300,928 316,1024 332,1024 C348,1024 362,926 370,794 C344,800 320,800 292,802 Z M178,920 C188,920 198,864 204,800 L152,800 C158,864 168,920 178,920 Z M462,766 C468,864 476,922 488,922 C500,922 510,848 516,736 C498,746 480,758 462,766 Z M332,0 C316,0 300,92 292,218 C320,220 344,222 370,226 C362,96 348,0 332,0 Z M178,118 C168,118 158,158 152,224 L204,224 C198,158 188,118 178,118 Z M488,118 C478,120 468,162 462,242 C478,246 500,254 516,264 C512,174 502,116 488,118 Z"></path>
  </g>
</svg>