<?xml version="1.0" encoding="UTF-8"?>
<svg width="160px" height="160px" viewBox="0 0 160 160" version="1.1" xmlns="http://www.w3.org/2000/svg" xmlns:xlink="http://www.w3.org/1999/xlink">
    <title>Dibujando</title>
    <g id="Dibujando" stroke="none" stroke-width="1" fill="none" fill-rule="evenodd">
        <path d="M27.4638308,117.64781 C27.7661228,114.547804 28.1321358,115.222807 28.4722388,117.14781 C29.0906008,120.64781 29.0906008,120.64781 31.1453348,118.593077 C32.2754458,117.462965 34.9388528,113.41297 37.0640358,109.593077 C39.1892188,105.773176 44.0898988,99.373182 47.9544318,95.370855 C51.8189638,91.368528 57.9305518,86.096342 61.5357308,83.654875 C65.1409098,81.213408 70.2530008,78.650541 72.8959598,77.959616 C76.9983768,76.887159 78.3607278,76.940504 82.2091768,78.324408 C86.6240788,79.912001 86.7329048,79.901121 87.4864748,77.796621 C87.9096628,76.614775 89.7014108,71.023054 91.4681338,65.370558 C93.2348578,59.718061 96.2037298,51.481276 98.0656068,47.066603 C99.9274848,42.65193 103.48791,35.80168 105.977686,31.843855 C108.467463,27.88603 111.886835,23.195875 113.576289,21.421309 C116.648035,18.194807 116.648035,18.194807 123.167841,21.409864 C128.555903,24.066847 129.598231,24.974104 129.17251,26.636366 C128.889155,27.742659 127.764094,32.122129 126.672388,36.368513 C125.580653,40.614912 121.992091,50.064894 118.69784,57.368513 C115.40359,64.672133 112.154322,72.672804 111.477259,75.14781 C110.800196,77.622808 110.082423,78.946989 109.882197,78.090429 C109.681971,77.233877 111.390925,70.48387 113.679865,63.090437 C115.968806,55.696989 118.014094,48.747816 118.224909,47.64781 C118.435755,46.547804 116.872004,49.167006 114.749934,53.46826 C112.627833,57.769514 110.489527,61.222425 109.998103,61.141401 C109.506708,61.060392 107.180933,66.991194 104.829737,74.320967 C102.478571,81.650724 99.4113718,91.472807 98.0137578,96.14781 C96.6161138,100.822813 95.2051948,106.838438 94.8783208,109.515883 C94.2840518,114.383955 94.2840518,114.383955 98.5559328,112.015883 C100.905482,110.713446 104.32226,108.14427 106.148798,106.306623 C107.975336,104.468969 111.336665,99.144102 113.618464,94.473593 C115.900233,89.803083 118.966578,84.639357 120.432551,82.998655 C123.097956,80.015547 123.097956,80.015547 128.53509,87.16741 C132.816462,92.799009 133.739863,94.632994 132.879206,95.795134 C132.278071,96.606855 129.946467,100.055784 127.697901,103.459402 C124.050989,108.979673 123.592371,110.349585 123.449915,116.14781 C123.297388,122.355207 123.260889,122.445234 122.638697,118.14781 C121.987177,113.64781 121.987177,113.64781 121.216242,117.191816 C120.792231,119.14102 120.59051,122.51602 120.767939,124.691816 C121.034449,127.959272 121.496546,128.705305 123.42306,128.978163 C124.705927,129.159864 126.62118,128.525129 127.679194,127.56764 C128.737208,126.610136 129.937586,126.16226 130.346735,126.57234 C130.755854,126.982435 129.827998,128.404676 128.284846,129.732878 C126.741663,131.061094 124.396693,132.14781 123.073786,132.14781 C121.75088,132.14781 119.741022,131.152266 118.607416,129.935499 C117.473811,128.718718 116.269862,125.994154 115.93194,123.880903 C115.457392,120.913359 114.957148,120.176909 113.734553,120.64607 C112.863886,120.980162 111.965418,121.43965 111.73791,121.667158 C111.510401,121.894667 111.619807,123.928999 111.981013,126.18791 C112.412745,128.887785 112.287073,130.078245 111.614191,129.662397 C111.051203,129.314451 110.590601,127.668837 110.590601,126.005461 C110.590601,124.342085 110.253107,123.135481 109.840601,123.32411 C109.428095,123.512739 104.854426,125.841749 99.6768738,128.499708 C92.2822818,132.29579 89.6155338,133.202803 87.2437388,132.728437 C84.8871858,132.257124 83.6607918,132.664167 81.6574498,134.582563 C80.2456758,135.934477 76.9158878,138.002226 74.2579138,139.177565 C71.2099858,140.525343 66.7782838,141.436125 62.2579138,141.643751 C58.3158818,141.824812 53.7405948,141.784178 52.0906008,141.553465 C50.4405918,141.322752 47.4969118,140.697126 45.5490668,140.163221 C43.6012368,139.629286 40.7463018,137.87599 39.2047678,136.266981 C36.7507418,133.705519 36.0161988,133.452162 33.3014468,134.230742 C31.3951668,134.777449 28.7546028,134.730513 26.4460398,134.108885 C24.2663828,133.521956 21.8952278,131.954634 20.7938478,130.372816 C19.7502998,128.874067 18.3837988,126.072813 17.7571808,124.14781 C16.6178528,120.64781 16.6178528,120.64781 18.7754768,123.5184 C19.9621678,125.097212 21.8408758,127.234724 22.9504038,128.2684 C24.0599308,129.302076 25.8079628,130.14781 26.8349248,130.14781 C28.4141938,130.14781 28.2694798,129.751829 25.8963568,127.579847 C23.9514868,125.799818 23.4869478,124.84947 24.3823338,124.482588 C25.3742158,124.076185 25.4038178,123.627684 24.5098978,122.550566 C23.5979408,121.451735 23.6744028,121.14781 24.8628488,121.14781 C26.0676978,121.14781 26.2195378,120.478849 25.6005348,117.89781 C25.1718538,116.110304 24.5017948,113.747808 24.1115208,112.64781 C23.5261938,110.99803 23.6026558,110.910475 24.5482278,112.14781 C25.1786748,112.972807 26.0926148,114.547804 26.5791718,115.64781 L27.4638308,117.64781 Z M57.7076668,125.956038 C62.9882448,125.66847 67.3858738,124.837889 69.5906008,123.711714 C71.5155888,122.728422 74.5530948,120.536009 76.3406008,118.839689 C78.9326118,116.379896 79.6022588,114.934752 79.6482178,111.701643 C79.6799258,109.472036 80.0354098,105.847807 80.4382118,103.64781 C81.0938058,100.067076 80.8691498,99.361525 78.2948248,96.916487 C75.4864598,94.249167 75.3449038,94.223425 72.2548318,95.818182 C70.5145058,96.716345 66.1303808,100.420439 62.5123388,104.049513 C58.8942968,107.678572 54.6420998,112.865393 53.0630288,115.575758 C51.4839418,118.286146 49.9968508,121.833204 49.7583558,123.458143 C49.3247318,126.412565 49.3247318,126.412565 57.7076668,125.956038 Z M138.612025,63.14781 C136.801081,63.14781 134.703974,62.246382 133.377528,60.89781 C132.160334,59.660307 130.445338,58.356245 129.566401,57.999907 C128.394801,57.524885 128.080561,56.390791 128.38888,53.749907 C128.770167,50.483992 129.09701,50.14781 131.891138,50.14781 C134.746455,50.14781 134.835139,50.047102 133.098109,48.77696 C131.448084,47.570448 131.87472,47.464613 136.656977,47.894255 C139.645472,48.162733 142.484919,48.746428 142.966853,49.191359 C143.448786,49.636274 143.889368,51.76573 143.945948,53.923491 C144.002528,56.081236 143.505396,59.039427 142.841151,60.497236 C141.922541,62.513365 140.910242,63.14781 138.612025,63.14781 Z" id="Shape" fill="currentColor"></path>
    </g>
</svg>