<?xml version="1.0" encoding="UTF-8"?>
<svg width="741px" height="740px" viewBox="0 0 741 740" version="1.1" xmlns="http://www.w3.org/2000/svg" xmlns:xlink="http://www.w3.org/1999/xlink">
  <g id="DigitalOcean" transform="translate(0.9821, 0.4253)" fill="currentColor" fill-rule="nonzero">
    <path d="M369.778258,0 C574.001258,0 739.556258,165.556977 739.556258,369.779977 C739.556258,574.002977 574.000258,739.556977 369.778258,739.556977 L369.778258,600.178977 L227.556258,600.178977 L227.556258,708.267977 L119.467258,708.267977 L119.467258,600.178977 L227.556258,600.178977 L227.556258,457.956977 L369.778258,457.956977 L369.778258,594.489977 C493.883258,594.489977 594.489258,493.882977 594.489258,369.778977 C594.489258,245.674977 493.882258,145.067977 369.778258,145.067977 C245.673258,145.067977 145.067258,245.673977 145.067258,369.778977 L145.089719,372.622727 L0.0117188,372.62761 L0,369.778 C0,165.554 165.556,0 369.778,0 L369.778,0 L369.778258,0 Z M119.467258,503.468047 L119.467258,600.178947 L22.7553579,600.178947 L22.7553579,503.468047 L119.467258,503.468047 Z"></path>
  </g>
</svg>