<?xml version="1.0" standalone="no"?>
<!DOCTYPE svg PUBLIC "-//W3C//DTD SVG 1.1//EN" "http://www.w3.org/Graphics/SVG/1.1/DTD/svg11.dtd" >
<svg xmlns="http://www.w3.org/2000/svg" xmlns:xlink="http://www.w3.org/1999/xlink" version="1.1" viewBox="-10 0 1034 1024">
   <path fill="currentColor"
d="M512 -1.62207c204.223 0 369.778 165.555 369.778 369.778c0 204.223 -165.556 369.777 -369.778 369.777v-139.378h-142.222v108.089h-108.089v-108.089h108.089v-142.222h142.222v136.533c124.105 0 224.711 -100.607 224.711 -224.711
c0 -124.104 -100.607 -224.711 -224.711 -224.711c-124.105 0 -224.711 100.606 -224.711 224.711l0.0224609 2.84375l-145.078 0.00488281l-0.0117188 -2.84961c0 -204.224 165.556 -369.778 369.778 -369.778v0.000976562zM261.689 501.844v96.7109h-96.7119v-96.7109
h96.7119z" />
</svg>
