<?xml version="1.0" standalone="no"?>
<!DOCTYPE svg PUBLIC "-//W3C//DTD SVG 1.1//EN" "http://www.w3.org/Graphics/SVG/1.1/DTD/svg11.dtd" >
<svg xmlns="http://www.w3.org/2000/svg" xmlns:xlink="http://www.w3.org/1999/xlink" version="1.1" viewBox="-11 0 1046 1024">
   <path fill="currentColor"
d="M866.86 45.4443c-65.2666 -29.9473 -135.254 -52.0117 -208.433 -64.6484c-1.33203 -0.244141 -2.66406 0.366211 -3.34961 1.58496c-9.00098 16.0088 -18.9707 36.8945 -25.9531 53.3115c-78.707 -11.7832 -157.01 -11.7832 -234.103 0
c-6.9834 -16.7803 -17.3164 -37.3018 -26.3574 -53.3115c-0.686523 -1.17773 -2.01758 -1.78809 -3.34961 -1.58496c-73.1377 12.5967 -143.125 34.6602 -208.433 64.6484c-0.564453 0.244141 -1.0498 0.650391 -1.37207 1.17773
c-132.753 198.33 -169.12 391.786 -151.279 582.843c0.0800781 0.93457 0.605469 1.8291 1.33203 2.39746c87.5859 64.3203 172.429 103.371 255.696 129.253c1.33203 0.407227 2.74512 -0.0810547 3.59277 -1.17871c19.6973 -26.8975 37.2559 -55.2598 52.3096 -85.0859
c0.888672 -1.74707 0.0400391 -3.81836 -1.77539 -4.50977c-27.8496 -10.5645 -54.3691 -23.4463 -79.8779 -38.0723c-2.01758 -1.17773 -2.17871 -4.06445 -0.323242 -5.44531c5.36816 -4.02344 10.7373 -8.20801 15.8633 -12.4346
c0.926758 -0.771484 2.21875 -0.933594 3.31055 -0.446289c167.584 76.5127 349.014 76.5127 514.621 0c1.09082 -0.52832 2.38281 -0.365234 3.34961 0.40625c5.12695 4.22656 10.4951 8.45117 15.9043 12.4746c1.85547 1.38184 1.73438 4.26758 -0.283203 5.44531
c-25.5088 14.9111 -52.0283 27.5088 -79.918 38.0322c-1.81641 0.691406 -2.62402 2.80273 -1.73535 4.5498c15.3779 29.7842 32.9355 58.1465 52.2695 85.0469c0.807617 1.1377 2.25977 1.625 3.59277 1.21875c83.6709 -25.8828 168.513 -64.9326 256.1 -129.253
c0.767578 -0.569336 1.25195 -1.42188 1.33203 -2.35645c21.3516 -220.883 -35.7617 -412.752 -151.399 -582.843c-0.283203 -0.569336 -0.766602 -0.974609 -1.33105 -1.21875zM342.188 513.131c-50.4541 0 -92.0283 -46.3213 -92.0283 -103.208
s40.7666 -103.208 92.0283 -103.208c51.6621 0 92.834 46.7285 92.0254 103.208c0 56.8867 -40.7666 103.208 -92.0254 103.208zM682.443 513.131c-50.4531 0 -92.0264 -46.3213 -92.0264 -103.208s40.7646 -103.208 92.0264 -103.208
c51.6641 0 92.834 46.7285 92.0273 103.208c0 56.8867 -40.3623 103.208 -92.0273 103.208z" />
</svg>
