<?xml version="1.0" encoding="UTF-8"?>
<svg width="1024px" height="781px" viewBox="0 0 1024 781" version="1.1" xmlns="http://www.w3.org/2000/svg" xmlns:xlink="http://www.w3.org/1999/xlink">
  <g id="Discord" transform="translate(0, 0.0684)" fill="currentColor" fill-rule="nonzero">
    <path d="M866.861754,64.7014565 C801.595154,34.7541565 731.607754,12.6897565 658.428754,0.0530565382 C657.096724,-0.191084462 655.764694,0.419267538 655.079144,1.63801654 C646.078164,17.6468165 636.108444,38.5325165 629.126044,54.9495165 C550.419044,43.1663165 472.116044,43.1663165 395.023044,54.9495165 C388.039644,38.1692165 377.706644,17.6477165 368.665644,1.63801654 C367.979121,0.460286538 366.648064,-0.150073462 365.316034,0.0530565382 C292.178334,12.6497565 222.191034,34.7132565 156.883034,64.7014565 C156.318581,64.9455975 155.833234,65.3518475 155.510964,65.8791865 C22.7579644,264.209187 -13.6090356,457.665187 4.23196444,648.722187 C4.31204254,649.656757 4.83743344,650.551287 5.56399444,651.119647 C93.1498944,715.439947 177.992994,754.490647 261.259994,780.372647 C262.592024,780.779874 264.005114,780.291592 264.852764,779.193937 C284.550064,752.296437 302.108664,723.934137 317.162364,694.108037 C318.051036,692.360967 317.202404,690.289677 315.386974,689.598267 C287.537374,679.033767 261.017874,666.151967 235.509074,651.525967 C233.491494,650.348237 233.330364,647.461517 235.185832,646.080657 C240.553992,642.057217 245.923132,637.872647 251.049132,633.646057 C251.97589,632.874573 253.267882,632.712463 254.359682,633.199768 C421.943682,709.712468 603.373682,709.712468 768.980682,633.199768 C770.071502,632.671448 771.363492,632.834534 772.330292,633.606018 C777.457242,637.832578 782.825392,642.057188 788.234592,646.080618 C790.090062,647.462458 789.968972,650.348198 787.951389,651.525928 C762.442589,666.437028 735.923089,679.034728 708.033389,689.558128 C706.216979,690.249534 705.409369,692.360858 706.298039,694.107928 C721.675939,723.892128 739.233539,752.254428 758.567539,779.154828 C759.375156,780.292528 760.827309,780.779828 762.160309,780.373578 C845.831209,754.490778 930.673309,715.440978 1018.26031,651.120578 C1019.02789,650.551242 1019.51226,649.698698 1019.59234,648.764128 C1040.94394,427.881128 983.830639,236.012128 868.193339,65.9211275 C867.910136,65.3517915 867.426737,64.9465185 866.862289,64.7023775 L866.861754,64.7014565 Z M342.189754,532.388157 C291.735654,532.388157 250.161454,486.066857 250.161454,429.180157 C250.161454,372.293457 290.928054,325.972157 342.189754,325.972157 C393.851854,325.972157 435.023754,372.700657 434.215154,429.180157 C434.215154,486.066857 393.448554,532.388157 342.189754,532.388157 Z M682.444754,532.388157 C631.991654,532.388157 590.418354,486.066857 590.418354,429.180157 C590.418354,372.293457 631.182954,325.972157 682.444754,325.972157 C734.108854,325.972157 775.278754,372.700657 774.472054,429.180157 C774.472054,486.066857 734.109754,532.388157 682.444754,532.388157 Z"></path>
  </g>
</svg>