<?xml version="1.0" standalone="no"?>
<!DOCTYPE svg PUBLIC "-//W3C//DTD SVG 1.1//EN" "http://www.w3.org/Graphics/SVG/1.1/DTD/svg11.dtd" >
<svg xmlns="http://www.w3.org/2000/svg" xmlns:xlink="http://www.w3.org/1999/xlink" version="1.1" viewBox="-10 0 1034 1024">
   <path fill="currentColor"
d="M511.488 -104.136c-0.255859 0.511719 -13.3125 1.53613 -28.9287 2.30371c-15.3594 1.02441 -30.4639 2.04785 -33.2793 2.81641c-2.81641 0.511719 -10.4961 1.53516 -16.8965 2.55957c-28.416 4.0957 -60.416 11.7764 -89.3438 20.9922
c-12.0322 3.83984 -22.2725 7.42383 -23.04 7.42383c-22.0156 7.16797 -86.0156 40.4482 -115.2 60.1602c-83.9678 55.8076 -136.448 119.04 -158.72 190.976c-2.81641 9.47266 -5.63184 20.4805 -6.40039 24.3203c-0.767578 4.0957 -2.04785 11.2637 -2.81543 15.6162
c-2.04785 12.0322 -1.79199 46.8477 0.255859 63.2314c8.19141 65.0244 51.9678 109.312 126.208 128c26.3682 6.65625 50.9443 8.95996 93.4395 8.7041c31.4883 -0.255859 35.0723 0.255859 34.0488 4.09668c-0.768555 2.30371 -4.09668 15.6152 -7.93652 29.4395
c-13.0557 48.6396 -26.8799 89.8564 -39.9355 118.272c-2.56055 6.14355 -4.86426 11.5195 -4.86426 12.0312c0 0.768555 6.40039 5.63281 14.5918 11.0088c30.4639 20.2236 82.6885 36.6074 91.9043 28.9277c4.86426 -4.0957 15.1035 -23.8086 19.9678 -38.6562
c15.1045 -45.8242 24.0645 -81.4082 37.1201 -147.456c4.35156 -21.7598 8.44824 -40.1914 9.21582 -41.4717c1.53613 -2.56055 134.4 -47.1045 135.937 -45.5684c0.511719 0.768555 -2.04883 18.9443 -6.14453 40.7041s-6.91211 40.4482 -6.39941 41.4717
c0.767578 1.02441 18.9434 -7.16797 40.7031 -18.6875c38.9121 -20.2236 46.3359 -22.7842 50.9443 -18.1758c2.81641 2.30371 22.2725 13.3115 56.0645 30.7197l19.9678 10.4961l-1.53613 -8.44824c-0.767578 -4.35156 -2.04785 -10.752 -2.55957 -13.5684
c-0.512695 -3.07129 -1.79199 -9.9834 -2.56055 -15.3594c-1.02344 -5.63184 -3.32812 -20.2246 -5.63184 -32.7686c-4.0957 -24.0635 -3.58398 -25.8555 8.7041 -36.6074c7.42383 -6.40039 54.2715 -52.4805 54.2715 -53.248
c0 -0.511719 -5.37598 -1.79199 -12.0312 -2.56055c-14.8486 -2.04785 -15.3604 -2.04785 -51.4561 -7.67969l-29.1846 -4.60742l-20.4795 -41.7285c-11.0078 -23.04 -20.7363 -41.9844 -21.5039 -41.9844c-0.768555 0 -9.98438 18.1768 -20.9922 40.1924
c-10.752 22.2725 -20.7363 41.2158 -21.7598 41.9844c-1.28027 1.02344 -7.68066 2.55957 -14.3359 3.32812c-6.40039 0.767578 -14.5928 2.04785 -18.1768 2.55957c-18.6875 3.32812 -54.7842 7.67969 -56.832 7.16797c-5.8877 -1.53613 0.512695 6.40039 23.8086 29.1836
l25.5996 25.3447l-41.7275 13.5674c-49.1523 16.1279 -76.5439 24.0645 -77.8242 22.7842c-0.511719 -0.511719 0 -6.65625 1.28027 -13.5684c1.2793 -6.91113 3.32715 -19.4551 4.0957 -27.9033c1.02344 -8.44824 2.30371 -17.6641 2.81543 -20.4805
c0.512695 -2.81543 1.79199 -11.5195 2.56055 -19.2002c0.767578 -7.67969 1.79199 -16.8955 2.30371 -20.4795c4.35254 -27.9043 6.40039 -90.1123 3.32812 -101.888c-1.28027 -4.35254 -6.14355 -12.0322 -10.752 -16.6406
c-8.44824 -8.44727 -34.3037 -22.2715 -48.8955 -26.1113c-4.09668 -1.28027 -9.47266 -2.56055 -11.5205 -3.07227c-2.04785 -0.768555 -10.2402 -1.79199 -18.1758 -2.56055c-18.9443 -1.79199 -21.7598 1.53613 -18.1758 21.5049
c2.55957 14.3359 2.30371 93.1836 -0.512695 104.96c-0.511719 3.07129 -1.79199 12.2871 -2.81543 20.4795c-3.83984 37.1201 -18.4326 118.528 -21.7607 122.112c-1.2793 1.2793 -8.44727 2.04785 -15.8711 1.79199
c-54.7842 -1.02441 -106.496 -17.9199 -131.328 -43.0078c-19.7119 -19.4561 -27.3926 -40.1924 -27.1367 -71.6807c0.768555 -74.4961 47.8721 -153.088 125.185 -208.128c33.5361 -23.8076 95.4883 -52.4795 130.048 -60.1602
c2.81641 -0.511719 15.3604 -3.32812 28.1602 -6.14355c34.3037 -7.67969 52.9922 -9.21582 111.104 -8.95996c46.5928 0 58.3682 1.02344 88.3203 7.67969c2.81641 0.511719 7.42383 1.53613 10.4961 2.04785c16.3838 3.32812 56.5762 18.9443 77.5684 29.9521
c61.9512 33.0244 113.92 86.7842 144.64 149.504c24.3203 49.6641 33.792 89.3447 31.2314 134.4c-2.30371 45.3115 -6.91113 70.3994 -19.4551 107.776c-34.0488 101.888 -122.112 186.623 -250.881 240.896c-46.0801 19.7119 -105.983 38.1436 -142.08 44.2881
c-5.63184 1.02344 -11.2637 2.04785 -12.7998 2.30371c-1.2793 0.512695 -8.19141 1.53613 -15.3594 2.56055c-6.91211 1.02344 -15.6162 2.55957 -19.2002 3.07129c-39.168 6.14453 -104.96 5.88867 -143.36 -0.511719
c-13.5674 -2.30371 -47.1035 -11.5195 -49.9199 -13.8242c-1.28027 -1.02344 -5.37598 -2.81543 -8.95996 -3.83984c-8.95996 -2.81543 -30.4639 -16.8955 -39.4238 -25.8555c-7.67969 -7.93652 -22.0156 -35.0723 -22.0156 -42.4961
c0 -3.07227 -1.53613 -3.83984 -5.63281 -2.81641c-13.8232 3.32812 -25.0879 20.7363 -25.0879 38.6562c0 15.3604 12.0322 53.248 25.6006 81.1523c26.1113 52.9912 65.2793 79.1035 139.52 93.1836c21.248 4.0957 34.8164 4.86426 78.0801 4.0957
c28.9277 -0.511719 56.5762 -1.53613 61.4404 -2.55957c8.70312 -1.53613 28.416 -4.86426 46.0801 -7.68066c77.0557 -12.5439 183.039 -54.5273 270.079 -107.008c52.4805 -31.7441 116.48 -84.9922 153.345 -128c51.9678 -60.6719 86.0156 -134.144 97.5361 -209.151
c3.07129 -20.4805 3.32715 -106.752 0.511719 -119.04c-0.768555 -2.81641 -2.04785 -11.5205 -3.07227 -19.2002c-7.42383 -57.8564 -31.7441 -111.872 -75.7764 -168.96c-57.5996 -74.752 -128.512 -124.928 -217.855 -154.88
c-14.5918 -4.6084 -29.1836 -9.21582 -32.7676 -9.72852c-3.58398 -0.767578 -11.0088 -2.55957 -16.6406 -3.83984c-9.9834 -2.55957 -31.2314 -6.65625 -49.9199 -9.47168c-4.86426 -0.768555 -23.8076 -2.04785 -42.2402 -2.81641
c-18.1758 -0.767578 -34.5596 -1.79199 -36.3516 -2.30371c-1.53613 -0.511719 -3.32812 -0.511719 -3.83984 -0.255859z" />
</svg>
