<?xml version="1.0" encoding="UTF-8"?>
<svg width="957px" height="946px" viewBox="0 0 957 946" version="1.1" xmlns="http://www.w3.org/2000/svg" xmlns:xlink="http://www.w3.org/1999/xlink">
  <g id="Displate" transform="translate(0, 0.6614)" fill="currentColor" fill-rule="nonzero">
    <path d="M476.038056,0.169070799 C475.782197,0.680789799 462.725556,1.7052008 447.109356,2.4727808 C431.749956,3.4971908 416.645456,4.5206308 413.830056,5.2891908 C411.013646,5.8009098 403.333956,6.8243508 396.933556,7.8487608 C368.517556,11.9444608 336.517556,19.6251608 307.589756,28.8409608 C295.557556,32.6808008 285.317256,36.2647908 284.549756,36.2647908 C262.534156,43.4327608 198.534156,76.7129908 169.349756,96.4249908 C85.381956,152.232591 32.901756,215.464991 10.629756,287.400991 C7.81334598,296.873651 4.99791598,307.881491 4.22936598,311.721291 C3.46178798,315.816991 2.18151598,322.984991 1.41393598,327.337491 C-0.633914022,339.369691 -0.378054022,374.185191 1.66979498,390.568891 C9.86120498,455.593291 53.637595,499.880891 127.877795,518.568891 C154.245995,525.225141 178.822095,527.528851 221.317295,527.272991 C252.805595,527.017132 256.389595,527.52885 255.366095,531.369671 C254.59754,533.673381 251.269415,546.984871 247.429575,560.809171 C234.373875,609.448771 220.549675,650.665571 207.494075,679.081171 C204.933525,685.224721 202.629815,690.600671 202.629815,691.112371 C202.629815,691.880926 209.030205,696.745181 217.221615,702.121171 C247.685515,722.344771 299.910115,738.728571 309.125915,731.048871 C313.990175,726.953171 324.229415,707.240271 329.093715,692.392671 C344.198215,646.568471 353.158215,610.984471 366.213815,544.936671 C370.565375,523.176871 374.662055,504.745271 375.429635,503.464971 C376.965765,500.904421 509.829635,456.360471 511.366635,457.896571 C511.878354,458.665126 509.317805,476.840871 505.222105,498.600671 C501.126405,520.360471 498.309995,539.048871 498.822695,540.072371 C499.590273,541.096781 517.766095,532.904401 539.525795,521.384871 C578.437895,501.161271 585.861695,498.600671 590.470095,503.209071 C593.286505,505.512781 612.742595,516.520571 646.534595,533.928771 L666.502395,544.424871 L664.966265,535.976631 C664.198687,531.625071 662.918415,525.224631 662.406695,522.408231 C661.894,519.336941 660.614705,512.424831 659.846145,507.048831 C658.822705,501.416991 656.518025,486.824231 654.214305,474.280231 C650.118605,450.216731 650.630325,448.424731 662.918405,437.672831 C670.342235,431.272441 717.189905,385.192331 717.189905,384.424831 C717.189905,383.913112 711.813925,382.632841 705.158705,381.864281 C690.310105,379.816431 689.798305,379.816431 653.702605,374.184591 L624.518005,369.577171 L604.038505,327.848671 C593.030705,304.808671 583.302205,285.864271 582.534605,285.864271 C581.76605,285.864271 572.550225,304.041071 561.542405,326.056671 C550.790405,348.329171 540.806105,367.272471 539.782605,368.041071 C538.502335,369.064511 532.101945,370.600641 525.446705,371.369191 C519.046315,372.136769 510.853905,373.417041 507.269905,373.928761 C488.582405,377.256881 452.485705,381.608451 450.437905,381.096731 C444.550205,379.560601 450.9506,387.497121 474.246505,410.280331 L499.846105,435.625031 L458.118605,449.192431 C408.966305,465.320331 381.574705,473.256931 380.294405,471.976631 C379.782686,471.464912 380.294405,465.320381 381.574675,458.408231 C382.853975,451.497101 384.901825,438.953131 385.670375,430.504931 C386.693815,422.056691 387.974085,412.840831 388.485805,410.024431 C388.9985,407.209001 390.277795,398.504931 391.046355,390.824231 C391.813933,383.144541 392.838345,373.928731 393.350065,370.344731 C397.702605,342.440431 399.750455,280.232431 396.678185,268.456731 C395.397915,264.104191 390.534635,256.424531 385.926185,251.816131 C377.477945,243.368861 351.622485,229.544631 337.030685,225.704831 C332.934005,224.424561 327.558025,223.144281 325.510185,222.632561 C323.462335,221.864006 315.269985,220.840571 307.334385,220.072011 C288.390085,218.280021 285.574585,221.608141 289.158585,241.576911 C291.718155,255.912811 291.462295,334.760511 288.64589,346.536911 C288.134171,349.608201 286.8539,358.824011 285.83046,367.016411 C281.99062,404.136511 267.39786,485.544411 264.06976,489.128411 C262.79046,490.407711 255.62249,491.176261 248.19866,490.920401 C193.41446,489.895991 141.70266,473.000501 116.87066,447.912601 C97.15876,428.456501 89.47806,407.720201 89.73396,376.231901 C90.502515,301.735801 137.60606,223.143901 214.91896,168.103901 C248.45506,144.296301 310.40726,115.624401 344.96696,107.943701 C347.78337,107.431982 360.32736,104.615581 373.12716,101.800151 C407.43086,94.1204608 426.11936,92.5843308 484.23116,92.8401908 C530.82396,92.8401908 542.59936,93.8636308 572.55146,100.519881 C575.36787,101.0316 579.97529,102.056011 583.04756,102.567731 C599.43136,105.895851 639.62376,121.512031 660.61596,132.519831 C722.56716,165.544231 774.53596,219.304031 805.25596,282.023831 C829.57626,331.687931 839.04796,371.368531 836.48736,416.423831 C834.18365,461.735331 829.57623,486.823231 817.03226,524.199831 C782.98346,626.087831 694.92026,710.822831 566.15126,765.095831 C520.07116,784.807731 460.16826,803.239431 424.07126,809.383931 C418.43942,810.407371 412.80756,811.431781 411.27146,811.687641 C409.99216,812.200336 403.08005,813.223771 395.91206,814.248191 C388.99995,815.271631 380.29586,816.807761 376.71186,817.319481 C337.54386,823.464011 271.75186,823.208151 233.35186,816.807762 C219.78446,814.504052 186.24836,805.288262 183.43196,802.983562 C182.15169,801.960122 178.05598,800.168132 174.472,799.143722 C165.51204,796.328292 144.0081,782.248222 135.0482,773.288222 C127.36851,765.351702 113.0326,738.215922 113.0326,730.792122 C113.0326,727.719852 111.49647,726.952282 107.39979,727.975712 C93.57659,731.303832 82.31189,748.712012 82.31189,766.631912 C82.31189,781.992312 94.34409,819.879912 107.91249,847.784212 C134.02379,900.775412 173.19179,926.887712 247.43249,940.967812 C268.68049,945.063512 282.24889,945.832072 325.51259,945.063512 C354.44029,944.551793 382.08879,943.527382 386.95299,942.503942 C395.65611,940.967812 415.36899,937.639682 433.03309,934.823282 C510.08879,922.279382 616.07209,880.295982 703.11209,827.815282 C755.59259,796.071182 819.59209,742.823082 856.45709,699.815282 C908.42489,639.143382 942.47269,565.671282 953.99319,490.664282 C957.06448,470.183782 957.32034,383.912282 954.504909,371.624282 C953.736354,368.807872 952.457059,360.103782 951.432639,352.424082 C944.008809,294.567682 919.688539,240.552082 875.656239,183.464082 C818.056639,108.712082 747.144239,58.5360818 657.801239,28.5840818 C643.209439,23.9756818 628.617639,19.3682618 625.033639,18.8555618 C621.449659,18.0879838 614.024839,16.2959918 608.393039,15.0157218 C598.409639,12.4561518 577.161639,8.3594718 558.473139,5.5440418 C553.608879,4.7754868 534.665539,3.4961918 516.232939,2.7276318 C498.057139,1.9600538 481.673339,0.935641799 479.881339,0.423921799 C478.345209,-0.0877972007 476.553219,-0.0877972007 476.041499,0.168062799 L476.038056,0.169070799 Z"></path>
  </g>
</svg>