<?xml version="1.0" standalone="no"?>
<!DOCTYPE svg PUBLIC "-//W3C//DTD SVG 1.1//EN" "http://www.w3.org/Graphics/SVG/1.1/DTD/svg11.dtd" >
<svg xmlns="http://www.w3.org/2000/svg" xmlns:xlink="http://www.w3.org/1999/xlink" version="1.1" viewBox="-10 0 1044 1024">
   <path fill="currentColor"
d="M526 249h-54v244h54c82 0 140 -40 140 -122v0c0 -80 -58 -122 -140 -122zM530 -127c-272 0 -492 224 -492 498c0 74 16 144 44 206l-82 202l212 -28c86 72 196 118 318 118c274 0 494 -224 494 -498s-220 -498 -494 -498zM798 369c0 144 -100 248 -276 248h-184v-492h186
c174 0 274 100 274 244z" />
</svg>
