<?xml version="1.0" standalone="no"?>
<!DOCTYPE svg PUBLIC "-//W3C//DTD SVG 1.1//EN" "http://www.w3.org/Graphics/SVG/1.1/DTD/svg11.dtd" >
<svg xmlns="http://www.w3.org/2000/svg" xmlns:xlink="http://www.w3.org/1999/xlink" version="1.1" viewBox="-12 0 1048 1024">
   <path fill="currentColor"
d="M447.488 250.168c-18.4326 4.0957 -33.792 18.4316 -40.96 35.8398c-4.09668 9.21582 -5.12012 20.4805 -3.07227 29.6963c0 32.7676 26.624 58.3682 59.3916 58.3682c32.7686 0 59.3926 -26.624 59.3926 -59.3926c0 -4.0957 0 -7.16797 -1.02441 -11.2637
c-2.04785 -34.8164 -39.9355 -62.4639 -73.7275 -53.248zM711.68 251.192c-18.4316 6.14355 -32.7676 22.5273 -36.8633 40.96c-3.07227 11.2637 -2.04883 22.5273 1.02344 32.7676c5.12012 27.6484 29.6963 48.1279 58.3682 48.1279
c32.7676 0 59.3916 -26.624 59.3916 -59.3916c0 -7.16797 -1.02344 -14.3359 -4.0957 -21.5039c-8.19238 -30.7207 -46.0801 -53.248 -77.8242 -40.96zM805.888 -54.9844h-415.744c-115.712 0 -211.968 92.1602 -218.111 206.849v3.07129
c-33.792 -39.9355 -76.7998 -69.6318 -120.832 -96.2559c0 1.02441 0 1.02441 -1.02441 2.04785h-1.02344c-1.02441 0 -2.04883 1.02441 -2.04883 2.04883c-11.2637 37.8877 -26.623 75.7754 -47.1035 110.592v3.07227v0v0c0 1.02344 1.02441 2.04785 2.04785 2.04785
c3.07227 0 7.16797 1.02344 10.2402 1.02344c49.1523 10.2402 100.352 15.3604 145.408 37.8887c-48.1279 18.4316 -99.3281 27.6475 -149.504 35.8398c-2.04883 0 -4.09668 1.02344 -6.14453 1.02344c-1.02344 0 -1.02344 0 -2.04785 1.02441h-1.02441v1.02344v0v3.07227
c21.5049 35.8398 36.8643 72.7041 49.1523 111.616c0 1.02441 1.02441 2.04785 2.04785 2.04785h1.02441v1.02441c44.0322 -25.6006 86.0156 -56.3203 120.832 -94.208v299.008c0 119.808 98.3037 218.112 218.111 218.112h416.769
c119.808 0 218.112 -98.3047 218.112 -218.112v-416.769c-1.02441 -119.808 -99.3281 -217.088 -219.137 -217.088zM370.688 107.832h448.512c74.752 0 136.191 58.3682 140.288 132.096v6.14453v133.12c-2.04785 53.248 -36.8643 102.399 -86.0166 122.88
c-63.4873 25.5996 -136.191 1.02344 -188.416 -38.9121c-21.5039 -20.4805 -44.0312 -41.9844 -74.752 -46.0801c-33.792 -7.16797 -65.5361 11.2637 -88.0635 33.792c-41.9844 38.9121 -98.3047 63.4883 -155.648 60.416
c-54.2715 1.02344 -106.496 -37.8877 -124.928 -89.0879c-14.3359 -36.8643 -7.16797 -76.7998 -9.21582 -114.688c1.02344 -36.8633 -4.09668 -74.752 8.19141 -110.592c1.02441 -2.04785 2.04883 -4.0957 2.04883 -6.14355
c22.5273 -49.1523 70.6553 -82.9443 128 -82.9443zM669.696 240.952h2.04785l129.023 -13.3125c11.2646 -1.02344 18.4326 -11.2637 17.4082 -21.5039c0 -3.07129 -2.04785 -7.16797 -4.0957 -9.21582c-1.02441 -6.14355 -5.12012 -12.2881 -11.2637 -14.3359
c-15.3604 -2.04785 -30.7207 1.02441 -46.0801 2.04785c-32.7686 4.0957 -66.5605 5.12012 -99.3281 11.2646c-12.2881 4.0957 -14.3359 19.4551 -8.19238 28.6719c3.07227 9.21582 10.2402 16.3838 20.4805 16.3838zM381.952 220.472
c3.07227 4.09668 8.19141 7.16797 13.3115 7.16797l129.024 13.3125h2.04785c4.0957 0 9.21582 -2.04785 12.2881 -4.0957c4.0957 -3.07227 6.14355 -8.19238 7.16797 -13.3125c0 -3.07227 0 -6.14355 -1.02441 -9.21582c0 -8.19238 -4.0957 -16.3838 -14.3359 -18.4316
c-37.8877 -5.12012 -75.7754 -7.16895 -113.664 -12.2881c-10.2393 0 -21.5039 -3.07227 -30.7197 0c-8.19141 4.0957 -11.2637 14.3359 -9.21582 22.5273c0 5.12012 2.04785 10.2402 5.12012 14.3359z" />
</svg>
