<?xml version="1.0" encoding="UTF-8"?>
<svg width="1027px" height="852px" viewBox="0 0 1027 852" version="1.1" xmlns="http://www.w3.org/2000/svg" xmlns:xlink="http://www.w3.org/1999/xlink">
  <g id="Dlive" transform="translate(0.7142, 0)" fill="currentColor" fill-rule="nonzero">
    <path d="M448.51192,305.15245 C430.07932,309.24815 414.71992,323.58405 407.55192,340.99225 C403.455636,350.20807 402.4318,361.47275 404.47965,370.68855 C404.47965,403.45615 431.10365,429.05675 463.87125,429.05675 C496.63985,429.05675 523.26385,402.43275 523.26385,369.66415 C523.26385,365.56845 523.26385,362.49618 522.23944,358.40045 C520.19159,323.58405 482.30394,295.93655 448.51194,305.15245 L448.51192,305.15245 Z M712.70392,306.17645 C694.27232,312.32 679.93632,328.70375 675.84062,347.13645 C672.76835,358.40015 673.79179,369.66375 676.86406,379.90405 C681.98418,407.55245 706.56036,428.03195 735.23226,428.03195 C767.99986,428.03195 794.62386,401.40795 794.62386,368.64035 C794.62386,361.47238 793.60042,354.30445 790.52816,347.13645 C782.33578,316.41575 744.44806,293.88845 712.70396,306.17645 L712.70392,306.17645 Z M806.91192,-2.84217094e-14 L391.16792,-2.84217094e-14 C275.45592,-2.84217094e-14 179.19992,92.16025 173.05692,206.84905 L173.05692,209.92034 C139.26492,169.98484 96.25712,140.28854 52.22492,113.66444 C52.22492,114.68885 52.22492,114.68885 51.20051,115.71229 L50.17707,115.71229 C49.15266,115.71229 48.12824,116.7367 48.12824,117.76112 C36.86454,155.64882 21.50524,193.53652 1.02474,228.35312 L1.02474,231.42539 L1.02474,231.42539 L1.02474,231.42539 C1.02474,232.44883 2.04915,233.47324 3.07259,233.47324 C6.14486,233.47324 10.24056,234.49668 13.31279,234.49668 C62.46509,244.73688 113.66479,249.85708 158.72079,272.38538 C110.59289,290.81698 59.39269,300.03288 9.21679,308.22518 C7.16796,308.22518 5.12011,309.24862 3.07226,309.24862 C2.04882,309.24862 2.04882,309.24862 1.02441,310.27303 L3.55271368e-15,310.27303 L3.55271368e-15,311.29647 L3.55271368e-15,311.29647 L3.55271368e-15,314.36874 C21.5049,350.20854 36.8643,387.07284 49.1523,425.98474 C49.1523,427.00915 50.17671,428.03259 51.20015,428.03259 L52.22456,428.03259 L52.22456,429.057 C96.25676,403.4564 138.24016,372.7367 173.05656,334.849 L173.05656,633.857 C173.05656,753.665 271.36026,851.969 391.16756,851.969 L807.93656,851.969 C927.74456,851.969 1026.04856,753.6643 1026.04856,633.857 L1026.04856,217.088 C1025.02415,97.28 926.72046,-2.84217094e-14 806.91156,-2.84217094e-14 L806.91192,-2.84217094e-14 Z M371.71192,162.81645 L820.22392,162.81645 C894.97592,162.81645 956.41492,221.18465 960.51192,294.91245 L960.51192,301.05698 L960.51192,434.17698 C958.46407,487.42498 923.64762,536.57598 874.49532,557.05698 C811.00802,582.65658 738.30432,558.08042 686.07932,518.14488 C664.57542,497.66438 642.04812,476.16048 611.32732,472.06478 C577.53532,464.89681 545.79122,483.32848 523.26382,505.85678 C481.27942,544.76888 424.95912,569.34508 367.61582,566.27278 C313.34432,567.29622 261.11982,528.38508 242.68782,477.18488 C228.35192,440.32058 235.51985,400.38508 233.472,362.49688 C234.49544,325.63358 229.37532,287.74488 241.66341,251.90488 C242.68782,249.85703 243.71224,247.80918 243.71224,245.76133 C266.23954,196.60903 314.36754,162.81645 371.71224,162.81645 L371.71192,162.81645 Z M670.71992,295.93648 L672.76777,295.93648 L801.79077,282.62395 C813.05537,281.60051 820.22337,271.36025 819.19897,261.12005 C819.19897,258.04876 817.15112,253.95208 815.10327,251.90423 C814.07886,245.76068 809.98315,239.61613 803.83957,237.56833 C788.47917,235.52048 773.11887,238.59274 757.75947,239.61618 C724.99087,243.71188 691.19897,244.7363 658.43137,250.88078 C646.14327,254.97648 644.09547,270.33588 650.23899,279.55268 C653.31126,288.7685 660.47919,295.93648 670.71949,295.93648 L670.71992,295.93648 Z M382.97592,275.45645 C386.04819,279.55313 391.16733,282.62442 396.28742,282.62442 L525.31142,295.93692 L527.35927,295.93692 C531.45497,295.93692 536.57509,293.88907 539.64737,291.84122 C543.74307,288.76895 545.79092,283.64884 546.81534,278.52872 C546.81534,275.45645 546.81534,272.38517 545.79093,269.3129 C545.79093,261.12052 541.69523,252.9291 531.45503,250.8813 C493.56733,245.76118 455.67963,243.71235 417.79103,238.5932 C407.55173,238.5932 396.28713,235.52093 387.07133,238.5932 C378.87992,242.6889 375.80763,252.9291 377.85551,261.1205 C377.85551,266.24062 379.90336,271.3607 382.97563,275.4564 L382.97592,275.45645 Z"></path>
  </g>
</svg>