<?xml version="1.0" encoding="UTF-8"?>
<svg width="32px" height="32px" viewBox="0 0 32 32" version="1.1" xmlns="http://www.w3.org/2000/svg" xmlns:xlink="http://www.w3.org/1999/xlink">
    <g stroke="none" stroke-width="1" fill="none" fill-rule="evenodd">
        <path d="M28.7647899,16.4082116 C28.7647899,26.4783028 21.3196496,30.9897609 8.94844651,29.7670377 L5.11480517,29.3545765 L4,2.4767612 L7.81964509,2.15499518 L8.6509251,2.09241237 L9.4764796,2.0455109 C21.6106594,1.47180633 28.7647899,6.32564218 28.7647899,16.4082116 Z M11.5684943,4.49508661 C10.4493234,4.49146923 9.26930387,4.541731 8.02950123,4.64617169 L6.59713432,4.76683395 L7.52345652,27.1003482 L8.80746336,27.239126 C10.1542298,27.3846869 11.4277486,27.4614313 12.6263729,27.469474 L12.9837117,27.4698259 L13.336547,27.4660564 C21.7504716,27.326136 26.2647899,23.6259085 26.2647899,16.4082116 C26.2647899,8.62173389 21.2757772,4.63229658 11.9392962,4.49856507 L11.5684943,4.49508661 Z M24.7647899,16.4082116 C24.7647899,23.7727949 19.499409,26.8859948 8.96864733,25.7478112 L8.15541491,6.1408776 C19.2283316,5.20809765 24.7647899,8.63054231 24.7647899,16.4082116 Z M17.7157176,14.910653 C15.782721,14.910653 14.2157176,16.4776564 14.2157176,18.410653 C14.2157176,20.3436496 15.782721,21.910653 17.7157176,21.910653 C19.6487143,21.910653 21.2157176,20.3436496 21.2157176,18.410653 C21.2157176,16.4776564 19.6487143,14.910653 17.7157176,14.910653 Z M12.7157176,13.910653 C11.8872905,13.910653 11.2157176,14.5822259 11.2157176,15.410653 C11.2157176,16.2390801 11.8872905,16.910653 12.7157176,16.910653 C13.5441448,16.910653 14.2157176,16.2390801 14.2157176,15.410653 C14.2157176,14.5822259 13.5441448,13.910653 12.7157176,13.910653 Z M19.7157176,11.910653 C18.8872905,11.910653 18.2157176,12.5822259 18.2157176,13.410653 C18.2157176,14.2390801 18.8872905,14.910653 19.7157176,14.910653 C20.5441448,14.910653 21.2157176,14.2390801 21.2157176,13.410653 C21.2157176,12.5822259 20.5441448,11.910653 19.7157176,11.910653 Z M15.7157176,10.910653 C14.8872905,10.910653 14.2157176,11.5822259 14.2157176,12.410653 C14.2157176,13.2390801 14.8872905,13.910653 15.7157176,13.910653 C16.5441448,13.910653 17.2157176,13.2390801 17.2157176,12.410653 C17.2157176,11.5822259 16.5441448,10.910653 15.7157176,10.910653 Z" fill="currentColor" fill-rule="nonzero"></path>
    </g>
</svg>