<?xml version="1.0" encoding="UTF-8"?>
<svg width="260px" height="260px" viewBox="0 0 260 260" version="1.1" xmlns="http://www.w3.org/2000/svg" xmlns:xlink="http://www.w3.org/1999/xlink">
    <title>Donorbox</title>
    <g id="Donorbox" stroke="none" stroke-width="1" fill="none" fill-rule="evenodd">
        <path d="M130.24,23 C133.11,23 135.65,24.1510224 137.54,26.0310224 C139.34,27.9210224 140.57,30.4610224 140.57,33.3310224 L140.57,63.5010224 C140.57,69.1610224 135.98,73.8310224 130.24,73.8310224 C124.5,73.8310224 119.91,69.2410224 119.91,63.5010224 L119.91,43.6610224 L53.42,43.6610224 C48.01,43.6610224 43.58,48.0910224 43.58,53.5010224 L43.58,207.641022 C43.58,213.131022 48.01,217.481022 53.42,217.481022 L207.56,217.481022 C212.97,217.481022 217.4,213.131022 217.4,207.641022 L217.398405,53.3657275 C217.377261,52.4281702 217.111856,49.278724 214.65947,46.7410211 L214.394275,46.4791742 C214.039346,46.154531 212.029658,44.3983836 209.539291,43.8710786 L209.28,43.8210224 C209.091429,43.7753081 208.876735,43.7557163 208.727347,43.7473198 L208.54,43.7410224 C208.21,43.7410224 207.88,43.6610224 207.56,43.6610224 L180.67,43.6610224 C175.01,43.6610224 170.34,38.9910224 170.34,33.3310224 C170.34,27.6710224 175.01,23 180.66,23 L217.31,23 C228.71,22.9210224 237.89,32.1810224 237.89,43.5810224 L237.89,217.311022 C237.89,228.711022 228.71,237.891022 217.31,237.891022 L43.58,237.891022 C32.18,237.891022 23,228.711022 23,217.311022 L23,43.5810224 C23,32.1810224 32.18,23 43.58,23 L130.24,23 Z M151.47,97.7710224 C162.29,97.9310224 170.33,106.621022 170.33,118.431022 C170.33,128.191022 164.02,138.521022 151.55,149.261022 C144.99,154.841022 137.78,159.751022 130.23,163.771022 C122.69,159.671022 115.47,154.751022 108.91,149.181022 C96.37,138.441022 90.05,128.111022 90.05,118.351022 C90.05,106.301022 98,97.7710224 108.91,97.7710224 C113.737586,97.7710224 116.654114,98.2278119 119.873775,99.7354424 L120.22,99.9010224 C122.19,100.801022 123.91,102.031022 125.39,103.511022 L130.23,108.431022 L134.99,103.511022 C136.47,101.951022 138.27,100.721022 140.24,99.7410224 C143.52,98.2610224 146.31,97.7710224 151.47,97.7710224 Z" id="Shape" fill="currentColor" fill-rule="nonzero"></path>
    </g>
</svg>