<?xml version="1.0" encoding="UTF-8"?>
<svg width="815px" height="1025px" viewBox="0 0 815 1025" version="1.1" xmlns="http://www.w3.org/2000/svg" xmlns:xlink="http://www.w3.org/1999/xlink">
  <g id="Doodle" transform="translate(0.3072, 0.8284)" fill="currentColor" fill-rule="nonzero">
    <path d="M407.552,855.0444 C295.936,855.0444 249.856,761.8608 249.856,658.4364 C249.856,553.9894 295.9361,460.8044 407.552,460.8044 C519.1679,460.8044 565.248,553.989 565.248,658.4364 C565.248,761.8614 519.1679,855.0444 407.552,855.0444 Z M572.416,0 L572.416,317.4444 C522.2402,300.0362 466.943,291.8438 407.552,291.8438 C176.128,291.8438 0,425.9888 0,658.4358 C0,889.8608 176.128,1024.0038 407.552,1024.0038 C466.9436,1024.0038 530.432,998.4042 572.416,971.7802 L572.416,1007.62 L814.08,1007.62 L814.08,0 L572.416,0 L572.416,0 Z"></path>
  </g>
</svg>