<?xml version="1.0" encoding="UTF-8"?>
<svg width="1024px" height="993px" viewBox="0 0 1024 993" version="1.1" xmlns="http://www.w3.org/2000/svg" xmlns:xlink="http://www.w3.org/1999/xlink">
  <g id="Douban" transform="translate(0, 0.0926)" fill="currentColor" fill-rule="nonzero">
    <path d="M0,0 L1024,0 L1024,112 L0,112 L0,0 Z M838,650 L940,650 L940,220 L86,220 L86,650 L176,650 L252,894 L0,894 L0,992 L1024,992 L1024,894 L766,894 L838,650 Z M258,332 L772,332 L772,536 L258,536 L258,332 Z M622,894 L396,894 L320,650 L694,650 L622,894 Z"></path>
  </g>
</svg>