<?xml version="1.0" standalone="no"?>
<!DOCTYPE svg PUBLIC "-//W3C//DTD SVG 1.1//EN" "http://www.w3.org/Graphics/SVG/1.1/DTD/svg11.dtd" >
<svg xmlns="http://www.w3.org/2000/svg" xmlns:xlink="http://www.w3.org/1999/xlink" version="1.1" viewBox="-10 0 1046 1024">
   <path fill="currentColor"
d="M732 187c182 2 290 116 168 270c-56 70 -150 142 -276 186l-18 6c-14 4 -24 8 -36 12c-28 8 -52 14 -80 20c-28 4 -54 10 -80 12c-18 2 -36 2 -52 2c-118 4 -206 -28 -234 -96c-34 -82 36 -196 176 -284c-104 42 -292 140 -300 280v18c2 14 4 28 8 44
c30 94 172 138 350 122c18 0 36 -2 54 -6c26 -4 52 -8 80 -14c26 -8 52 -14 80 -22c6 -2 12 -4 16 -6c14 -4 24 -8 36 -12c156 -58 270 -132 338 -218c40 -50 58 -96 64 -138v-30c-12 -102 -132 -162 -294 -146zM612 137c4 0 8 -2 12 -2c26 -6 38 -34 40 -68
c0 -34 -12 -62 -40 -66c-2 -2 -6 -2 -8 -2c-24 0 -38 14 -46 34c-4 10 -6 22 -6 34c0 16 2 30 6 42c8 16 20 28 42 28zM612 147c-12 0 -22 2 -30 4l2 2l4 10l2 8l4 8l2 8v10l2 10v18l-2 8l-2 20v18l-2 8l-4 20l-8 32l-2 6l-2 8v4l-2 4l-2 10v6l-2 6v2l-2 12v8l-2 6v8l-2 8v6
l-2 8v6l-2 8v6c2 22 2 40 4 50c0 12 2 20 6 26c6 8 14 10 28 12c12 -2 20 -4 26 -10c6 -4 8 -14 12 -28c6 -32 18 -130 30 -174c16 -62 56 -174 -42 -182h-12zM490 117c40 0 58 -36 58 -80c0 -42 -18 -78 -56 -78h-2c-38 0 -56 36 -56 78c0 44 18 80 56 80zM412 299
c2 14 6 28 10 40c12 50 24 164 28 198c4 36 16 42 42 46c24 -2 36 -10 40 -46c4 -34 16 -148 28 -198c4 -12 8 -26 10 -40c12 -46 20 -100 0 -134c-12 -22 -36 -36 -80 -36c-42 0 -68 14 -80 36c-18 34 -10 88 2 134zM358 135h12c22 0 34 -10 42 -28c4 -10 6 -24 6 -40
c-2 -12 -4 -24 -6 -34c-8 -22 -24 -34 -46 -34h-6c-30 4 -42 34 -40 68c0 34 12 62 38 68zM346 505c2 14 6 22 12 28s14 10 26 10c14 0 22 -4 28 -12c2 -6 6 -14 6 -26c2 -10 2 -28 4 -50v0v-8l-2 -6v-8l-2 -8v-6l-2 -8v-8l-2 -6v-8l-2 -6v-6l-2 -6v-6l-2 -6v-4l-2 -6v-4
l-2 -6l-2 -8l-2 -10l-8 -32l-2 -10l-2 -8l-2 -10v-8l-4 -20v-26l4 -20l4 -16l4 -8l4 -10l2 -2c-8 -2 -18 -4 -30 -4c-4 0 -8 0 -12 2c-98 8 -58 120 -42 182c12 44 26 142 30 174z" />
</svg>
