<?xml version="1.0" encoding="UTF-8"?>
<svg width="1027px" height="824px" viewBox="0 0 1027 824" version="1.1" xmlns="http://www.w3.org/2000/svg" xmlns:xlink="http://www.w3.org/1999/xlink">
  <g id="Draugiem" transform="translate(0.96, 0.0926)" fill="currentColor" fill-rule="nonzero">
    <path d="M732,228 C914,230 1022,344 900,498 C844,568 750,640 624,684 L606,690 C592,694 582,698 570,702 C542,710 518,716 490,722 C462,726 436,732 410,734 C392,736 374,736 358,736 C240,740 152,708 124,640 C90,558 160,444 300,356 C196,398 8,496 0,636 L0,654 C2,668 4,682 8,698 C38,792 180,836 358,820 C376,820 394,818 412,814 C438,810 464,806 492,800 C518,792 544,786 572,778 C578,776 584,774 588,772 C602,768 612,764 624,760 C780,702 894,628 962,542 C1002,492 1020,446 1026,404 L1026,374 C1014,272 894,212 732,228 Z M612,178 C616,178 620,176 624,176 C650,170 662,142 664,108 C664,74 652,46 624,42 C622,40 618,40 616,40 C592,40 578,54 570,74 C566,84 564,96 564,108 C564,124 566,138 570,150 C578,166 590,178 612,178 Z M612,188 C600,188 590,190 582,192 L584,194 L588,204 L590,212 L594,220 L596,228 L596,238 L598,248 L598,266 L596,274 L594,294 L594,312 L592,320 L588,340 L580,372 L578,378 L576,386 L576,390 L574,394 L572,404 L572,410 L570,416 L570,418 L568,430 L568,438 L566,444 L566,452 L564,460 L564,466 L562,474 L562,480 L560,488 L560,494 C562,516 562,534 564,544 C564,556 566,564 570,570 C576,578 584,580 598,582 C610,580 618,578 624,572 C630,568 632,558 636,544 C642,512 654,414 666,370 C682,308 722,196 624,188 L612,188 Z M490,158 C530,158 548,122 548,78 C548,36 530,0 492,0 L490,0 C452,0 434,36 434,78 C434,122 452,158 490,158 Z M412,340 C414,354 418,368 422,380 C434,430 446,544 450,578 C454,614 466,620 492,624 C516,622 528,614 532,578 C536,544 548,430 560,380 C564,368 568,354 570,340 C582,294 590,240 570,206 C558,184 534,170 490,170 C448,170 422,184 410,206 C392,240 400,294 412,340 Z M358,176 L370,176 C392,176 404,166 412,148 C416,138 418,124 418,108 C416,96 414,84 412,74 C404,52 388,40 366,40 L360,40 C330,44 318,74 320,108 C320,142 332,170 358,176 Z M346,546 C348,560 352,568 358,574 C364,580 372,584 384,584 C398,584 406,580 412,572 C414,566 418,558 418,546 C420,536 420,518 422,496 L422,496 L422,488 L420,482 L420,474 L418,466 L418,460 L416,452 L416,444 L414,438 L414,430 L412,424 L412,418 L410,412 L410,406 L408,400 L408,396 L406,390 L406,386 L404,380 L402,372 L400,362 L392,330 L390,320 L388,312 L386,302 L386,294 L382,274 L382,248 L386,228 L390,212 L394,204 L398,194 L400,192 C392,190 382,188 370,188 C366,188 362,188 358,190 C260,198 300,310 316,372 C328,416 342,514 346,546 Z"></path>
  </g>
</svg>