<?xml version="1.0" encoding="UTF-8"?>
<svg width="52px" height="52px" viewBox="0 0 52 52" version="1.1" xmlns="http://www.w3.org/2000/svg" xmlns:xlink="http://www.w3.org/1999/xlink">
    <title>DreamWidth</title>
    <g id="DreamWidth" stroke="none" stroke-width="1" fill="none" fill-rule="evenodd">
        <path d="M22.4694824,49.1628418 C28.2684723,49.1628418 32.7253418,43.3329254 32.7253418,37.5339355 C32.7253418,31.7349457 28.4256989,27.3371582 22.626709,27.3371582 C16.8277191,27.3371582 11.0517578,31.634848 11.0517578,37.4338379 C11.0517578,40.3781463 12.3829346,45.90625 18.0415039,45.90625 C21.8942871,45.9609375 24.2111816,44.0096029 24.9921875,40.0522461 C25.3959147,36.7554525 23.9647624,34.8945312 20.6987305,34.4694824 C17.4326986,34.0444336 16.2008464,35.9995931 17.0031738,40.3349609 C14.7297363,35.5654297 15.81486,32.8309733 20.2585449,32.1315918 C24.7487793,32.0070801 27.0773112,34.3286133 27.2441406,39.0961914 C27.0216471,44.6656901 24.06014,47.4504395 18.3596191,47.4504395 C10.5080566,47.3251953 9,39.7730713 9,36.1540527 C9,32.5350342 10.4550781,23.4135742 22.4919434,23.4135742 C27.3109538,23.2141113 31.323527,25.5427246 34.5296631,30.3994141 C35.1317952,20.2486165 33.4805501,11.1154785 29.5759277,3 C34.7629395,5.87255859 39.2141062,8.31079102 42.9294279,10.3146973 C42.6271973,48.6850586 27.1137695,49.0070801 22.4694824,49.1628418 Z" id="Oval" fill="#000000"></path>
    </g>
</svg>