<?xml version="1.0" encoding="UTF-8"?>
<svg width="1025px" height="1024px" viewBox="0 0 1025 1024" version="1.1" xmlns="http://www.w3.org/2000/svg" xmlns:xlink="http://www.w3.org/1999/xlink">
  <g id="Dribbble" transform="translate(0.1653, 0)" fill="currentColor" fill-rule="nonzero">
    <path d="M512,0 C230,0 0,230 0,512 C0,794 230,1024 512,1024 C796,1024 1024,794 1024,512 C1024,230 796,0 512,0 Z M852,236 C912,310 950,404 950,508 C936,504 792,476 646,494 C642,486 640,478 636,472 C628,450 618,428 608,408 C768,342 842,248 852,236 Z M512,74 C624,74 726,116 802,184 C796,196 730,284 574,342 C502,212 422,104 410,86 C444,78 478,74 512,74 Z M328,116 C338,132 416,240 490,370 C284,424 104,422 84,422 C114,286 204,174 328,116 Z M76,512 L76,498 C94,500 306,502 526,436 C538,460 550,486 560,510 C554,512 550,514 544,516 C318,588 198,788 188,804 C118,726 76,624 76,512 Z M512,950 C412,950 318,914 244,858 C252,840 340,670 588,584 C588,584 590,584 590,582 C652,742 678,876 684,914 C632,936 574,950 512,950 Z M758,874 C752,848 730,720 672,562 C810,540 930,576 944,582 C926,704 856,808 758,874 Z"></path>
  </g>
</svg>