<?xml version="1.0" standalone="no"?>
<!DOCTYPE svg PUBLIC "-//W3C//DTD SVG 1.1//EN" "http://www.w3.org/Graphics/SVG/1.1/DTD/svg11.dtd" >
<svg xmlns="http://www.w3.org/2000/svg" xmlns:xlink="http://www.w3.org/1999/xlink" version="1.1" viewBox="-12 0 1044 1024">
   <path fill="currentColor"
d="M510 -137c-282 0 -512 230 -512 512s230 512 512 512c284 0 512 -230 512 -512s-228 -512 -512 -512zM850 99c60 74 98 168 98 272c-14 -4 -158 -32 -304 -14c-4 -8 -6 -16 -10 -22c-8 -22 -18 -44 -28 -64c160 -66 234 -160 244 -172zM510 -63c112 0 214 42 290 110
c-6 12 -72 100 -228 158c-72 -130 -152 -238 -164 -256c34 -8 68 -12 102 -12zM326 -21c10 16 88 124 162 254c-206 54 -386 52 -406 52c30 -136 120 -248 244 -306zM74 375v-14c18 2 230 4 450 -62c12 24 24 50 34 74c-6 2 -10 4 -16 6c-226 72 -346 272 -356 288
c-70 -78 -112 -180 -112 -292zM510 813c-100 0 -194 -36 -268 -92c8 -18 96 -188 344 -274c0 0 2 0 2 -2c62 160 88 294 94 332c-52 22 -110 36 -172 36zM756 737c-6 -26 -28 -154 -86 -312c138 -22 258 14 272 20c-18 122 -88 226 -186 292z" />
</svg>
