<?xml version="1.0" encoding="UTF-8"?>
<svg width="897px" height="1025px" viewBox="0 0 897 1025" version="1.1" xmlns="http://www.w3.org/2000/svg" xmlns:xlink="http://www.w3.org/1999/xlink">
  <g id="Drupal" transform="translate(0.2908, 0.3376)" fill="currentColor" fill-rule="nonzero">
    <path d="M670,190 L668,190 C624,162 580,148 536,122 C530,120 526,116 520,112 C490,92 448,42 412,0 L412,0 L412,0 C410,22 406,38 402,52 C392,82 380,100 364,112 C364,114 362,114 360,116 C310,156 278,168 234,190 C232,192 226,196 220,200 C194,216 148,248 104,298 C50,362 0,454 0,582 C0,664 22,738 60,802 C100,870 158,926 228,964 L228,966 C230,966 232,966 232,968 C234,968 234,968 236,970 C236,970 238,970 240,972 C240,972 242,972 244,974 L246,974 C246,976 248,976 250,978 L250,978 C312,1008 382,1024 452,1024 C690,1024 896,852 896,590 C896,328 702,210 670,190 Z M676,932 C672,936 626,968 574,972 C520,978 448,980 404,942 C398,934 400,924 404,920 C410,916 414,914 420,914 C426,914 424,914 428,916 C446,932 476,944 540,944 C602,944 648,926 666,912 C676,904 680,910 680,914 C682,918 684,924 676,932 Z M504,842 C514,832 532,816 550,808 C566,802 576,804 590,804 C606,804 624,804 636,812 C648,820 654,838 658,848 C662,858 658,864 650,868 C644,872 642,870 636,856 C628,844 622,830 588,830 C554,830 542,842 526,856 C510,870 504,876 498,868 C492,860 494,852 504,842 Z M766,850 C730,846 658,736 614,734 C556,732 432,854 334,854 C276,854 258,844 238,832 C208,810 194,780 194,736 C196,660 268,588 358,586 C474,586 554,700 612,700 C660,698 756,602 802,602 C852,602 864,654 864,684 C864,714 856,770 832,804 C808,838 792,852 766,850 Z"></path>
  </g>
</svg>