<?xml version="1.0" standalone="no"?>
<!DOCTYPE svg PUBLIC "-//W3C//DTD SVG 1.1//EN" "http://www.w3.org/Graphics/SVG/1.1/DTD/svg11.dtd" >
<svg xmlns="http://www.w3.org/2000/svg" xmlns:xlink="http://www.w3.org/1999/xlink" version="1.1" viewBox="-10 0 1034 1024">
   <path fill="currentColor"
d="M734 49h-2c-44 -28 -88 -42 -132 -68c-6 -2 -10 -6 -16 -10c-30 -20 -72 -70 -108 -112v0v0c-2 22 -6 38 -10 52c-10 30 -22 48 -38 60c0 2 -2 2 -4 4c-50 40 -82 52 -126 74c-2 2 -8 6 -14 10c-26 16 -72 48 -116 98c-54 64 -104 156 -104 284c0 82 22 156 60 220
c40 68 98 124 168 162v2c2 0 4 0 4 2c2 0 2 0 4 2c0 0 2 0 4 2c0 0 2 0 4 2h2c0 2 2 2 4 4v0c62 30 132 46 202 46c238 0 444 -172 444 -434s-194 -380 -226 -400zM740 791c-4 4 -50 36 -102 40c-54 6 -126 8 -170 -30c-6 -8 -4 -18 0 -22c6 -4 10 -6 16 -6s4 0 8 2
c18 16 48 28 112 28c62 0 108 -18 126 -32c10 -8 14 -2 14 2c2 4 4 10 -4 18zM568 701c10 -10 28 -26 46 -34c16 -6 26 -4 40 -4c16 0 34 0 46 8s18 26 22 36s0 16 -8 20c-6 4 -8 2 -14 -12c-8 -12 -14 -26 -48 -26s-46 12 -62 26s-22 20 -28 12s-4 -16 6 -26zM830 709
c-36 -4 -108 -114 -152 -116c-58 -2 -182 120 -280 120c-58 0 -76 -10 -96 -22c-30 -22 -44 -52 -44 -96c2 -76 74 -148 164 -150c116 0 196 114 254 114c48 -2 144 -98 190 -98c50 0 62 52 62 82s-8 86 -32 120s-40 48 -66 46z" />
</svg>
