<?xml version="1.0" encoding="UTF-8"?>
<svg width="1025px" height="957px" viewBox="0 0 1025 957" version="1.1" xmlns="http://www.w3.org/2000/svg" xmlns:xlink="http://www.w3.org/1999/xlink">
  <g id="Ebay" transform="translate(0.3926, 0.0684)" fill="currentColor" fill-rule="nonzero">
    <path d="M1024.16213,514.015041 L1024.16213,454.015041 C1016.16213,306.015041 950.162132,0.00749192654 524.162132,0.00749192654 C18.1621317,-1.98495937 -1.83786827,394.015041 0.162131732,496.015041 C0.162131732,496.015041 -23.8378683,956.015041 512.162132,956.015041 C972.162132,956.015041 994.162132,668.015041 994.162132,668.015041 L782.162132,668.015041 C782.162132,668.015041 742.162132,828.015041 512.162132,822.015041 C218.162132,818.015041 206.162132,532.015041 206.162132,532.015041 L1022.16213,532.015041 C1022.16213,532.015041 1024.16213,526.015041 1024.16213,514.015041 Z M212.162132,392.015041 C212.162132,392.015041 228.162132,134.015041 518.162132,134.015041 C810.162132,134.015041 810.162132,392.015041 810.162132,392.015041 L212.162132,392.015041 Z"></path>
  </g>
</svg>