<?xml version="1.0" encoding="UTF-8"?>
<svg width="1025px" height="1025px" viewBox="0 0 1025 1025" version="1.1" xmlns="http://www.w3.org/2000/svg" xmlns:xlink="http://www.w3.org/1999/xlink">
  <g id="Eitaa" transform="translate(0.7458, 0.0684)" fill="currentColor" fill-rule="nonzero">
    <path d="M931.8406,601.09007 C881.6648,668.67407 834.5603,739.33007 776.1936,799.74607 C717.8254,861.18557 654.3376,911.36207 571.3926,932.86607 C471.0406,958.46567 375.8086,946.17757 287.7456,892.92957 C190.4653,834.56137 152.5776,742.40257 150.5296,632.83357 C146.43292,415.74557 307.2016,179.20157 508.9286,101.37757 C578.5604,74.75357 649.2166,71.68127 718.8486,102.40198 C797.6972,138.24178 840.7046,200.70568 847.8726,286.72098 C850.94487,324.60968 849.92045,362.49738 838.65678,400.38498 C822.27298,458.75318 788.48098,503.80898 735.23278,534.52998 C692.22398,559.10518 645.12048,578.56118 601.08778,600.06608 C569.34368,615.42548 538.62388,632.83368 510.97548,655.36198 C473.08778,687.10518 448.51158,727.04168 442.36808,777.21698 C440.32023,795.64958 434.1757,791.55288 423.93548,783.36151 C360.44818,735.23361 345.08778,648.19351 391.16788,581.63251 C401.40808,566.27311 403.45598,558.08071 390.14347,542.72041 C339.96767,483.32881 387.07218,405.50441 432.12787,385.02541 C438.2724,381.95314 441.34369,382.97658 442.36807,390.14455 C444.41592,401.40915 441.34366,413.69725 442.36807,424.96095 C445.44034,452.60935 465.91987,464.89745 488.44817,472.06545 C514.04777,481.28127 541.69617,480.25686 569.34367,478.209 C621.56827,473.08888 669.69667,458.7529 715.77667,434.1768 C727.04037,428.03325 738.30397,419.8409 747.51987,411.6495 C773.12047,389.1212 774.14387,371.713 753.6644,345.089 C707.5843,286.7208 643.0724,272.3849 573.4404,280.5773 C476.1601,291.841 393.2154,334.8488 323.5844,403.4573 C306.1762,420.8655 291.8403,440.3216 280.5766,461.8255 C242.6889,531.4573 252.9282,598.0165 310.2729,651.2645 C321.5366,661.5047 325.6323,671.745 326.6567,687.1043 C330.7524,753.6648 384.0005,819.2013 447.4887,837.6323 C461.8246,841.728 468.9926,841.728 470.016,822.2729 C471.04041,795.6489 478.20838,770.0483 487.4242,745.4721 C491.5199,736.25628 495.61658,732.1606 506.8803,735.2328 C583.6801,757.7601 654.3363,740.35194 720.8973,699.392 C772.0965,667.6488 815.1043,626.6889 857.0883,584.704 C889.8569,550.912 922.6244,516.0956 956.4164,482.304 C970.7523,466.9446 999.4242,444.4163 1022.976,429.056 L1022.976,256 C1022.976,114.688 908.288,-2.84217094e-14 766.976,-2.84217094e-14 L256,-2.84217094e-14 C114.688,-2.84217094e-14 0,114.688 0,256 L0,768 C0,909.312 114.688,1024 256,1024 L768,1024 C909.312,1024 1024,909.312 1024,768 L1024,501.76 C992.2559,530.4319 953.3438,572.4162 931.8398,601.0881 L931.8406,601.09007 Z"></path>
  </g>
</svg>