<?xml version="1.0" standalone="no"?>
<!DOCTYPE svg PUBLIC "-//W3C//DTD SVG 1.1//EN" "http://www.w3.org/Graphics/SVG/1.1/DTD/svg11.dtd" >
<svg xmlns="http://www.w3.org/2000/svg" xmlns:xlink="http://www.w3.org/1999/xlink" version="1.1" viewBox="-10 0 1044 1024">
   <path fill="currentColor"
d="M931.84 460.088c-50.1758 67.584 -97.2803 138.24 -155.647 198.656c-58.3682 61.4395 -121.856 111.616 -204.801 133.12c-100.352 25.5996 -195.584 13.3115 -283.647 -39.9365c-97.2803 -58.3682 -135.168 -150.527 -137.216 -260.096
c-4.09668 -217.088 156.672 -453.632 358.399 -531.456c69.6318 -26.624 140.288 -29.6963 209.92 1.02441c78.8486 35.8398 121.856 98.3037 129.024 184.319c3.07227 37.8887 2.04785 75.7764 -9.21582 113.664c-16.3838 58.3682 -50.1758 103.424 -103.424 134.145
c-43.0088 24.5752 -90.1123 44.0312 -134.145 65.5361c-31.7441 15.3594 -62.4639 32.7676 -90.1123 55.2959c-37.8877 31.7432 -62.4639 71.6797 -68.6074 121.855c-2.04785 18.4326 -8.19238 14.3359 -18.4326 6.14453
c-63.4873 -48.1279 -78.8477 -135.168 -32.7676 -201.729c10.2402 -15.3594 12.2881 -23.5518 -1.02441 -38.9121c-50.1758 -59.3916 -3.07129 -137.216 41.9844 -157.695c6.14453 -3.07227 9.21582 -2.04883 10.2402 5.11914c2.04785 11.2646 -1.02441 23.5527 0 34.8164
c3.07227 27.6484 23.5518 39.9365 46.0801 47.1045c25.5996 9.21582 53.248 8.19141 80.8955 6.14355c52.2246 -5.12012 100.353 -19.4561 146.433 -44.0322c11.2637 -6.14355 22.5273 -14.3359 31.7432 -22.5273c25.6006 -22.5283 26.624 -39.9365 6.14453 -66.5605
c-46.0801 -58.3682 -110.592 -72.7041 -180.224 -64.5117c-97.2803 11.2637 -180.225 54.2715 -249.856 122.88c-17.4082 17.4082 -31.7441 36.8643 -43.0078 58.3682c-37.8877 69.6318 -27.6484 136.191 29.6963 189.439c11.2637 10.2402 15.3594 20.4805 16.3838 35.8398
c4.0957 66.5605 57.3438 132.097 120.832 150.528c14.3359 4.0957 21.5039 4.0957 22.5273 -15.3594c1.02441 -26.624 8.19238 -52.2246 17.4082 -76.8008c4.0957 -9.21582 8.19238 -13.3115 19.4561 -10.2393c76.7998 22.5273 147.456 5.11914 214.017 -35.8408
c51.1992 -31.7432 94.207 -72.7031 136.191 -114.688c32.7686 -33.792 65.5361 -68.6084 99.3281 -102.4c14.3359 -15.3594 43.0078 -37.8877 66.5596 -53.248v-173.056c0 -141.312 -114.688 -256 -256 -256h-510.976c-141.312 0 -256 114.688 -256 256v512
c0 141.312 114.688 256 256 256h512c141.312 0 256 -114.688 256 -256v-266.24c-31.7441 28.6719 -70.6562 70.6562 -92.1602 99.3281z" />
</svg>
