<?xml version="1.0" encoding="UTF-8"?>
<svg width="1025px" height="1025px" viewBox="0 0 1025 1025" version="1.1" xmlns="http://www.w3.org/2000/svg" xmlns:xlink="http://www.w3.org/1999/xlink">
  <g id="ElementaryOS" transform="translate(0.2781, 0.0926)" fill="currentColor" fill-rule="nonzero">
    <path d="M512,0 C229.376,0 0,229.376 0,512 C0,794.624 229.376,1024 512,1024 C794.624,1024 1024,794.624 1024,512 C1024,229.376 794.624,0 512,0 L512,0 Z M512,43.0078 C727.04,43.0078 908.288,187.3918 963.584,385.0248 C915.4561,483.3285 847.872,572.4168 764.928,644.0958 C724.9925,678.9122 681.9846,709.6319 633.857,731.1358 C585.7281,752.6397 532.481,764.9278 480.256,761.8565 C440.3205,759.80767 401.4083,748.544 367.616,729.0879 C459.7762,678.9121 541.696,613.3759 610.304,533.5039 C655.3606,481.2803 693.2483,421.8879 708.6087,355.3279 C715.77667,321.5359 717.82452,286.7195 710.65655,252.9279 C703.48858,219.1363 688.12825,187.3918 664.57645,162.8166 C642.04815,138.2404 611.32845,120.8322 579.58425,112.6398 C547.84015,103.42398 513.02465,103.42398 480.25615,108.5441 C414.72005,120.8322 355.32815,158.7199 308.22415,206.8478 C225.28075,290.8166 174.08015,408.5768 183.29615,526.3358 C188.41627,584.704 207.87235,643.0718 241.66435,691.1998 C248.83232,702.4635 258.04815,712.7037 266.24055,721.9195 C217.08825,739.3277 165.88755,751.6158 114.68855,758.7838 C70.65635,687.1031 45.05575,602.1118 45.05575,511.9998 C43.0079,252.9278 252.92775,43.0078 511.99975,43.0078 L511.99975,43.0078 L512,43.0078 Z M515.072,137.21582 C547.8396,137.21582 581.6316,147.45602 607.2322,166.91212 C630.784,185.34372 648.1922,209.91992 658.4314,238.59182 C668.6716,266.24022 670.7195,296.96002 667.6482,326.65632 C660.48023,386.04792 630.7839,440.32032 594.9441,487.42432 C531.4558,571.39212 446.4641,637.95232 352.2561,685.05632 C343.04028,690.17644 332.8,694.27312 322.5598,698.36882 C302.0803,680.96062 284.6721,659.45672 271.3606,635.90492 C243.7122,586.75262 234.4963,527.36092 239.6165,471.04092 C244.7367,414.72092 264.1927,359.42492 290.8167,309.24892 C321.5364,250.88072 362.4964,195.58492 419.8397,162.81692 C449.536,146.43212 482.3036,137.21582 515.0721,137.21582 L515.0721,137.21582 L515.072,137.21582 Z M976.896,448.512 C979.96729,468.9925 980.9917,490.4964 980.9917,510.9759 C980.9917,770.0479 771.0717,979.9679 511.9997,979.9679 C366.5917,979.9679 236.5437,913.4083 150.5277,809.9849 C203.7757,797.6968 255.9997,780.2886 305.1517,758.7847 C326.6556,775.1685 351.2318,788.481 376.8314,798.7202 C450.5589,827.3921 534.5274,823.2964 608.2554,796.67235 C683.0074,771.07275 748.5434,724.99265 806.9114,670.72035 C875.5188,607.23305 932.8634,531.45635 976.8954,448.512 L976.8954,448.512 L976.896,448.512 Z"></path>
  </g>
</svg>