<?xml version="1.0" standalone="no"?>
<!DOCTYPE svg PUBLIC "-//W3C//DTD SVG 1.1//EN" "http://www.w3.org/Graphics/SVG/1.1/DTD/svg11.dtd" >
<svg xmlns="http://www.w3.org/2000/svg" xmlns:xlink="http://www.w3.org/1999/xlink" version="1.1" viewBox="-10 0 1044 1024">
   <path fill="currentColor"
d="M512 -141c-282.624 0 -512 229.376 -512 512s229.376 512 512 512s512 -229.376 512 -512s-229.376 -512 -512 -512v0zM512 -97.9922c215.04 0 396.288 144.384 451.584 342.017c-48.1279 98.3037 -115.712 187.392 -198.656 259.071
c-39.9355 34.8164 -82.9434 65.5361 -131.071 87.04c-48.1289 21.5039 -101.376 33.792 -153.601 30.7207c-39.9355 -2.04883 -78.8477 -13.3125 -112.64 -32.7686c92.1602 -50.1758 174.08 -115.712 242.688 -195.584c45.0566 -52.2236 82.9443 -111.616 98.3047 -178.176
c7.16797 -33.792 9.21582 -68.6084 2.04785 -102.4s-22.5283 -65.5361 -46.0801 -90.1113c-22.5283 -24.5762 -53.248 -41.9844 -84.9922 -50.1768c-31.7441 -9.21582 -66.5596 -9.21582 -99.3281 -4.0957c-65.5361 12.2881 -124.928 50.1758 -172.032 98.3037
c-82.9434 83.9688 -134.144 201.729 -124.928 319.488c5.12012 58.3682 24.5762 116.736 58.3682 164.864c7.16797 11.2637 16.3838 21.5039 24.5762 30.7197c-49.1523 17.4082 -100.353 29.6963 -151.552 36.8643c-44.0322 -71.6807 -69.6328 -156.672 -69.6328 -246.784
c-2.04785 -259.072 207.872 -468.992 466.944 -468.992v0zM515.072 -3.78418c32.7676 0 66.5596 10.2402 92.1602 29.6963c23.5518 18.4316 40.96 43.0078 51.1992 71.6797c10.2402 27.6484 12.2881 58.3682 9.2168 88.0645
c-7.16797 59.3916 -36.8643 113.664 -72.7041 160.768c-63.4883 83.9678 -148.48 150.528 -242.688 197.632c-9.21582 5.12012 -19.4561 9.2168 -29.6963 13.3125c-20.4795 -17.4082 -37.8877 -38.9121 -51.1992 -62.4639
c-27.6484 -49.1523 -36.8643 -108.544 -31.7441 -164.864s24.5762 -111.616 51.2002 -161.792c30.7197 -58.3682 71.6797 -113.664 129.023 -146.432c29.6963 -16.3848 62.4639 -25.6006 95.2324 -25.6006v0zM976.896 307.512
c3.07129 20.4805 4.0957 41.9844 4.0957 62.4639c0 259.072 -209.92 468.992 -468.992 468.992c-145.408 0 -275.456 -66.5596 -361.472 -169.983c53.248 -12.2881 105.472 -29.6963 154.624 -51.2002c21.5039 16.3838 46.0801 29.6963 71.6797 39.9355
c73.7275 28.6719 157.696 24.5762 231.424 -2.04785c74.752 -25.5996 140.288 -71.6797 198.656 -125.952c68.6074 -63.4873 125.952 -139.264 169.984 -222.208v0z" />
</svg>
