<?xml version="1.0" encoding="UTF-8"?>
<svg width="36px" height="36px" viewBox="0 0 36 36" version="1.1" xmlns="http://www.w3.org/2000/svg" xmlns:xlink="http://www.w3.org/1999/xlink">
    <title>Element</title>
    <g id="Element" stroke="none" stroke-width="1" fill="none" fill-rule="evenodd">
        <path d="M18,2 C26.8365,2 34,9.16346 34,18 C34,26.8365 26.8365,34 18,34 C9.16346,34 2,26.8365 2,18 C2,9.16346 9.16346,2 18,2 Z M13,18.6172 C12.3528,18.6172 11.82812,19.1407 11.82812,19.7866 C11.82812,24.1639 15.384,27.7124 19.7705,27.7124 C20.4176,27.7124 20.9423,27.1889 20.9423,26.543 C20.9423,25.8972 20.4176,25.3736 19.7705,25.3736 C16.6784,25.3736 14.1718,22.8722 14.1718,19.7866 C14.1718,19.1407 13.6471,18.6172 13,18.6172 Z M26.5439,15.043 C25.8967,15.043 25.3721,15.5665 25.3721,16.2124 C25.3721,19.298 22.8655,21.7994 19.7734,21.7994 C19.1262,21.7994 18.6016,22.323 18.6016,22.9688 C18.6016,23.6147 19.1262,24.1382 19.7734,24.1382 C24.1598,24.1382 27.7157,20.5897 27.7157,16.2124 C27.7157,15.5665 27.1911,15.043 26.5439,15.043 Z M16.2314,11.86328 C11.84495,11.86328 8.28906,15.4118 8.28906,19.7891 C8.28906,20.435 8.81369,20.9585 9.46086,20.9585 C10.10806,20.9585 10.63269,20.435 10.63269,19.7891 C10.63269,16.7035 13.1393,14.2021 16.2314,14.2021 C16.8786,14.2021 17.4032,13.6785 17.4032,13.0327 C17.4032,12.3869 16.8786,11.86328 16.2314,11.86328 Z M16.25,8.28516 C15.6028,8.28516 15.0781,8.8087 15.0781,9.45456 C15.0781,10.10039 15.6028,10.62396 16.25,10.62396 C19.342,10.62396 21.8486,13.1254 21.8486,16.211 C21.8486,16.8568 22.3733,17.3804 23.0205,17.3804 C23.6676,17.3804 24.1923,16.8568 24.1923,16.211 C24.1923,11.83367 20.6364,8.28516 16.25,8.28516 Z" id="Shape" fill="currentColor"></path>
    </g>
</svg>