<?xml version="1.0" standalone="no"?>
<!DOCTYPE svg PUBLIC "-//W3C//DTD SVG 1.1//EN" "http://www.w3.org/Graphics/SVG/1.1/DTD/svg11.dtd" >
<svg xmlns="http://www.w3.org/2000/svg" xmlns:xlink="http://www.w3.org/1999/xlink" version="1.1" viewBox="-10 0 1044 1024">
   <path fill="currentColor"
d="M512 -141c-282 0 -512 230 -512 512s230 512 512 512s512 -230 512 -512s-230 -512 -512 -512zM810 447c-36 136 -158 232 -298 232s-262 -96 -298 -232c-4 -14 6 -30 22 -34s32 4 36 20c28 110 126 186 240 186s212 -76 240 -186c4 -16 20 -24 36 -20s26 20 22 34z" />
</svg>
