<?xml version="1.0" standalone="no"?>
<!DOCTYPE svg PUBLIC "-//W3C//DTD SVG 1.1//EN" "http://www.w3.org/Graphics/SVG/1.1/DTD/svg11.dtd" >
<svg xmlns="http://www.w3.org/2000/svg" xmlns:xlink="http://www.w3.org/1999/xlink" version="1.1" viewBox="-10 0 1043 1024">
   <path fill="currentColor"
d="M194 189c0 -20 -14 -38 -34 -44h-126c-20 6 -34 24 -34 44c0 24 20 44 44 44h106c26 0 44 -20 44 -44zM962 77c-52 -80 -144 -122 -298 -122c-22 0 -44 2 -64 4h-12h-2c0 0 -2 0 -4 2c-80 8 -126 8 -126 8h-208c-24 0 -44 20 -44 44c0 26 20 44 44 44h188
c24 0 44 20 44 44c0 22 -14 38 -34 44h-10h-160c-18 6 -34 24 -34 44c0 24 20 44 44 44h40c24 0 44 20 44 44s-20 44 -44 44h-202c-24 0 -44 20 -44 44s20 44 44 44h192c24 0 44 20 44 44s-20 44 -44 44h-22c-24 0 -44 20 -44 44s20 44 44 44h86c26 0 44 20 44 44
s-18 44 -44 44h-18c-28 0 -48 22 -48 48s20 48 48 48h98s60 2 122 8c14 2 28 4 40 6h12c22 2 42 2 64 2c112 0 214 -24 268 -46c10 -4 18 -10 18 -22c0 -2 0 -6 -2 -6l-18 -70c-4 -12 -10 -18 -20 -18c0 0 -4 0 -8 2c-54 16 -120 36 -216 36c-90 0 -152 -14 -194 -54
c-36 -36 -54 -78 -56 -152h526c16 0 24 -14 24 -28c2 -22 2 -52 2 -72c2 -116 -12 -212 -60 -278zM850 385c-46 0 -84 -38 -84 -84s38 -82 84 -82c38 0 70 26 80 60c-6 -8 -16 -12 -24 -12c-20 0 -34 16 -34 34s14 34 34 34c10 0 18 -4 24 -12c-10 36 -42 62 -80 62z" />
</svg>
