<?xml version="1.0" encoding="UTF-8"?>
<svg width="1024px" height="831px" viewBox="0 0 1024 831" version="1.1" xmlns="http://www.w3.org/2000/svg" xmlns:xlink="http://www.w3.org/1999/xlink">
  <g id="Endomodo" transform="translate(0.96, 0.0926)" fill="currentColor" fill-rule="nonzero">
    <path d="M194,234 C194,214 180,196 160,190 L34,190 C14,196 0,214 0,234 C0,258 20,278 44,278 L150,278 C176,278 194,258 194,234 Z M962,122 C910,42 818,0 664,0 C642,0 620,2 600,4 L588,4 L586,4 C586,4 584,4 582,6 C502,14 456,14 456,14 L248,14 C224,14 204,34 204,58 C204,84 224,102 248,102 L436,102 C460,102 480,122 480,146 C480,168 466,184 446,190 L436,190 L276,190 C258,196 242,214 242,234 C242,258 262,278 286,278 L326,278 C350,278 370,298 370,322 C370,346 350,366 326,366 L124,366 C100,366 80,386 80,410 C80,434 100,454 124,454 L316,454 C340,454 360,474 360,498 C360,522 340,542 316,542 L294,542 C270,542 250,562 250,586 C250,610 270,630 294,630 L380,630 C406,630 424,650 424,674 C424,698 406,718 380,718 L362,718 C334,718 314,740 314,766 C314,792 334,814 362,814 L460,814 C460,814 520,816 582,822 C596,824 610,826 622,828 L634,828 C656,830 676,830 698,830 C810,830 912,806 966,784 C976,780 984,774 984,762 C984,760 984,756 982,756 L964,686 C960,674 954,668 944,668 C944,668 940,668 936,670 C882,686 816,706 720,706 C630,706 568,692 526,652 C490,616 472,574 470,500 L996,500 C1012,500 1020,486 1020,472 C1022,450 1022,420 1022,400 C1024,284 1010,188 962,122 Z M850,430 C804,430 766,392 766,346 C766,300 804,264 850,264 C888,264 920,290 930,324 C924,316 914,312 906,312 C886,312 872,328 872,346 C872,364 886,380 906,380 C916,380 924,376 930,368 C920,404 888,430 850,430 Z"></path>
  </g>
</svg>