<?xml version="1.0" encoding="UTF-8"?>
<svg width="899px" height="1025px" viewBox="0 0 899 1025" version="1.1" xmlns="http://www.w3.org/2000/svg" xmlns:xlink="http://www.w3.org/1999/xlink">
  <g id="Envato" transform="translate(0.654, 0.3376)" fill="currentColor" fill-rule="nonzero">
    <path d="M764.600093,7.50548216 C734.600093,-8.49451784 648.600093,1.50548216 544.600093,33.5054822 C364.600093,157.505482 212.600093,339.505482 200.600093,631.505482 C198.600093,637.505482 180.600093,629.505482 178.600093,627.505482 C128.600093,533.505482 110.600093,435.505482 150.600093,293.505482 C158.600093,281.505482 132.600093,265.505482 128.600093,269.505482 C120.600093,279.505482 82.6000931,319.505482 58.6000931,361.505482 C-65.3999069,575.505482 14.6000931,847.505482 230.600093,967.505482 C444.600093,1087.50548 716.600093,1009.50548 836.600093,795.505482 C974.600093,547.505482 846.600093,53.5054822 764.600093,7.50548216 Z"></path>
  </g>
</svg>