<?xml version="1.0" encoding="UTF-8"?>
<svg width="742px" height="742px" viewBox="0 0 742 742" version="1.1" xmlns="http://www.w3.org/2000/svg" xmlns:xlink="http://www.w3.org/1999/xlink">
    <title>Epic</title>
    <g id="Epic" stroke="none" stroke-width="1" fill="none" fill-rule="evenodd">
        <path d="M128.508916,394.235088 L196.232888,394.235088 L196.232888,341.721153 L128.508916,341.721153 L128.508916,234.51354 L198.928559,234.51354 L198.928559,182 L71,182 L71,561 L200,561 L200,508.484749 L128.508916,508.484749 L128.508916,394.235088 Z M615.306587,405.156765 L615.306587,490.815075 C615.306587,505.996914 608.284375,513.040212 593.713681,513.040212 L582.908655,513.040212 C567.793226,513.040212 560.771014,505.996914 560.771014,490.815075 L560.771014,251.184793 C560.771014,236.00559 567.793226,228.962292 582.908655,228.962292 L592.629486,228.962292 C607.208093,228.962292 614.230305,236.00559 614.230305,251.184793 L614.230305,325.464961 L670.915804,325.464961 L670.915804,247.932013 C670.915804,200.77065 648.238703,178 601.274034,178 L573.190463,178 C526.224475,178 503,201.308386 503,248.478975 L503,493.520893 C503,540.6928 526.224475,564 573.190463,564 L601.810856,564 C648.787396,564 672,540.6928 672,493.520893 L672,405.156765 L615.306587,405.156765 Z M415,561 L473,561 L473,182 L415,182 L415,561 Z M331,350.74706 C331,365.941165 324.042694,373 309.5771,373 L286,373 L286,233 L309.5771,233 C324.042694,233 331,240.05092 331,255.242387 L331,350.74706 Z M318.765756,182 L228,182 L228,561 L285.809221,561 L285.809221,423.473838 L318.765756,423.473838 C365.770724,423.473838 389,400.19698 389,353.097014 L389,252.386827 C389,205.278964 365.770724,182 318.765756,182 Z" id="Shape" fill="currentColor" fill-rule="nonzero"></path>
    </g>
</svg>