<?xml version="1.0" standalone="no"?>
<!DOCTYPE svg PUBLIC "-//W3C//DTD SVG 1.1//EN" "http://www.w3.org/Graphics/SVG/1.1/DTD/svg11.dtd" >
<svg xmlns="http://www.w3.org/2000/svg" xmlns:xlink="http://www.w3.org/1999/xlink" version="1.1" viewBox="-10 0 1034 1024">
   <path fill="currentColor"
d="M358.73 384.377l0.59375 2.00684l0.561523 1.78418c10.7627 33.4814 100.35 275.815 419.883 206.666l17.3867 41.7129l15.7041 37.4258c24.043 57.1055 46.2891 109.015 66.7373 155.729c-358.137 128.358 -682.187 -46.4297 -767.598 -373.828l14.3613 -3.9873
l30.6904 -8.61426c104.316 -29.4775 201.678 -58.8945 201.678 -58.8945h0.00195312zM559.613 84.7246c100.887 0 144.7 82.3789 142.887 131.798c-4.3457 118.431 -107.91 99.4375 -149.996 61.918c69.0469 86.2803 155.172 23.5898 160.766 -37.7891h180.728
c-6.70703 92.8115 -58.1953 266.5 -265.141 266.5c-210.785 0 -240.207 -174.164 -245.63 -228.711c-5.42188 -54.5479 29.6885 -193.716 176.388 -193.716h-0.000976562zM359.41 -97.9238l102.879 186.809l-1.5 1.01562l-2.35059 1.6709l-1.47656 1.08496
c-25.8623 19.2285 -135.776 112.03 -102.896 279.225l-16.3486 4.90332l-16.0625 4.7666l-11.1035 3.26465c-66.1943 19.3838 -124.818 35.1553 -175.873 47.3154c-88.1904 -386.121 224.73 -530.055 224.73 -530.055h0.000976562zM910.313 223.018l-78.4678 0.573242
c-37.6113 0.201172 -75.916 0.300781 -114.912 0.300781c-23.4473 -127.778 -103.965 -172.349 -241.551 -133.711l-47.168 -86.4453l-27.5801 -50.874c-8.40137 -15.5537 -16.0117 -29.7002 -22.8311 -42.4424c228.211 -120.715 524.188 18.8242 532.508 312.598z" />
</svg>
