<?xml version="1.0" encoding="UTF-8"?>
<svg width="799px" height="1006px" viewBox="0 0 799 1006" version="1.1" xmlns="http://www.w3.org/2000/svg" xmlns:xlink="http://www.w3.org/1999/xlink">
  <g id="Escargot" transform="translate(0.0545, 0.8284)" fill="currentColor" fill-rule="nonzero">
    <path d="M246.731627,517.3777 L247.325377,519.38454 L247.8869,521.16872 C258.6496,554.65012 348.2369,796.98372 667.7699,727.83472 L685.1566,769.54762 L700.8607,806.97342 C724.9037,864.07892 747.1498,915.98842 767.598,962.70242 C409.461,1091.06042 85.411,916.27272 0,588.87442 L14.3613,584.88712 L45.0517,576.27286 C149.3677,546.79536 246.7297,517.3777 246.7297,517.3777 L246.731653,517.3777 L246.731627,517.3777 Z M447.614627,217.7252 C548.501627,217.7252 592.314627,300.1042 590.501627,349.5233 C586.155927,467.9543 482.591627,448.9608 440.505627,411.4413 C509.552527,497.7216 595.677627,435.0311 601.271627,373.6522 L781.999627,373.6522 C775.292597,466.4637 723.804327,640.1522 516.858627,640.1522 C306.073627,640.1522 276.651627,465.9882 271.228627,411.4412 C265.806747,356.8933 300.917127,217.7252 447.616627,217.7252 L447.61565,217.7252 L447.614627,217.7252 Z M247.411627,35.0769004 L350.290627,221.8859 L348.790627,222.90152 L346.440037,224.57242 L344.963477,225.65738 C319.101177,244.88588 209.187477,337.68738 242.067477,504.88238 L225.718877,509.7857 L209.656377,514.5523 L198.552877,517.81695 C132.358577,537.20075 73.734877,552.97225 22.679877,565.13235 C-65.510523,179.01135 247.409877,35.0769004 247.409877,35.0769004 L247.410854,35.0769004 L247.411627,35.0769004 Z M798.314627,356.0187 L719.846827,356.591942 C682.235527,356.793114 643.930827,356.892723 604.934827,356.892723 C581.487527,229.114723 500.969827,184.543723 363.383827,223.181723 L316.215827,136.736423 L288.635727,85.8624234 C280.234357,70.3087234 272.624027,56.1622234 265.804627,43.4200234 C494.015627,-77.2949766 789.992627,62.2442234 798.314627,356.018023 L798.314627,356.0187 Z"></path>
  </g>
</svg>