<?xml version="1.0" standalone="no"?>
<!DOCTYPE svg PUBLIC "-//W3C//DTD SVG 1.1//EN" "http://www.w3.org/Graphics/SVG/1.1/DTD/svg11.dtd" >
<svg xmlns="http://www.w3.org/2000/svg" xmlns:xlink="http://www.w3.org/1999/xlink" version="1.1" viewBox="-10 0 1034 1024">
   <path fill="currentColor"
d="M112 -101c-2 -14 4 -24 24 -24c18 0 212 6 342 6c268 0 334 -22 380 -22c24 2 30 20 30 32s-12 36 -12 68s8 64 8 94c0 28 -24 36 -38 36c-12 0 -20 -4 -20 -28c-2 -46 32 -112 -296 -112c-166 0 -170 20 -170 72v254c0 28 8 36 30 36h238s94 -24 100 -90
c2 -34 10 -36 28 -36s32 14 30 46c-4 34 -10 68 -10 114c0 48 10 94 10 128s-46 42 -54 4c-8 -34 -22 -96 -126 -96h-212s-34 14 -34 52v270c0 48 14 98 108 98c96 0 268 10 348 -52c32 -26 44 -66 54 -130c6 -28 70 -28 66 40c-2 32 -32 98 -32 142c0 34 8 84 -24 84
c-28 0 -16 -16 -140 -16s-550 4 -622 4c-26 0 -32 -8 -32 -24s10 -28 32 -28s118 0 118 -120v-630c0 -64 -14 -130 -94 -138c-32 -4 -30 -16 -30 -34z" />
</svg>
