<?xml version="1.0" encoding="UTF-8"?>
<svg width="851px" height="1027px" viewBox="0 0 851 1027" version="1.1" xmlns="http://www.w3.org/2000/svg" xmlns:xlink="http://www.w3.org/1999/xlink">
  <g id="Etsy" transform="translate(0.7412, 0.8284)" fill="currentColor" fill-rule="nonzero">
    <path d="M26,40 C24,26 30,16 50,16 C68,16 262,22 392,22 C660,22 726,0 772,0 C796,2 802,20 802,32 C802,44 790,68 790,100 C790,132 798,164 798,194 C798,222 774,230 760,230 C748,230 740,226 740,202 C738,156 772,90 444,90 C278,90 274,110 274,162 L274,416 C274,444 282,452 304,452 L542,452 C542,452 636,428 642,362 C644,328 652,326 670,326 C688,326 702,340 700,372 C696,406 690,440 690,486 C690,534 700,580 700,614 C700,648 654,656 646,618 C638,584 624,522 520,522 L308,522 C308,522 274,536 274,574 L274,844 C274,892 288,942 382,942 C478,942 650,952 730,890 C762,864 774,824 784,760 C790,732 854,732 850,800 C848,832 818,898 818,942 C818,976 826,1026 794,1026 C766,1026 778,1010 654,1010 C530,1010 104,1014 32,1014 C6,1014 0,1006 0,990 C0,974 10,962 32,962 C54,962 150,962 150,842 L150,212 C150,148 136,82 56,74 C24,70 26,58 26,40 Z"></path>
  </g>
</svg>