<?xml version="1.0" encoding="UTF-8"?>
<svg width="158px" height="158px" viewBox="0 0 158 158" version="1.1" xmlns="http://www.w3.org/2000/svg" xmlns:xlink="http://www.w3.org/1999/xlink">
    <title>Fanbox</title>
    <g id="Fanbox" stroke="none" stroke-width="1" fill="none" fill-rule="evenodd">
        <path d="M106.774586,10.0499047 C114.969592,15.9173019 115.481712,22.6761627 108.554283,29.5260336 C110.037397,31.0190251 111.324207,32.6736558 112.38905,34.4863222 L112.896462,35.3411514 C114.171111,37.4661753 115.509622,39.5302618 117.31577,42.1956355 L121.200154,47.9198172 C121.614897,48.5344447 122.001941,49.1100872 122.36505,49.6528147 L123.490383,51.345982 C124.571389,52.9854131 125.419139,54.3157947 126.186266,55.5833205 L126.610279,56.2912972 L126.954987,56.8781746 L127.206926,57.3136885 L127.798137,58.3569421 C127.996465,58.7116716 128.19707,59.0750197 128.403001,59.4519072 L129.056411,58.7043133 C130.442666,57.1373589 131.637574,55.9136705 132.644808,55.03041 C135.981801,52.1041461 140.626601,57.1507621 141.701593,63.6709223 C142.555868,68.8523655 141.378333,74.403051 137.96298,79.7847989 C140.187653,85.3124521 142.425568,91.4617361 144.720729,98.3898809 L145.155381,99.6127538 C149.042939,110.708033 150.268763,118.659445 148.736577,123.616767 C147.15875,128.721759 142.829556,130.567009 136.298409,129.274275 L136.159545,129.245387 C136.265534,134.51174 134.334923,137.917173 130.312421,139.074866 L130.052824,139.145705 C126.777547,139.991594 123.570839,139.393469 120.633435,137.902296 L120.400545,137.781387 L120.381611,137.985886 C119.782925,143.744873 117.091121,146.976114 112.334194,147.198996 L112.051993,147.208633 C106.648979,147.325588 102.617924,145.339557 99.8537188,141.763839 L99.7475446,141.624387 L99.742523,141.642278 C98.2248777,146.156949 95.4768694,148.434099 91.5207878,148.109225 C87.6993709,147.79541 84.137797,145.838958 80.8451591,142.310726 L80.6675446,142.117387 L80.5710185,142.269557 C77.7558404,146.608819 74.681751,148.656562 71.3151539,148.129317 L71.0741848,148.087274 L68.6957474,147.638656 C67.1561455,147.335893 66.1658089,147.061915 65.1454028,146.612555 C63.9715152,146.095605 62.8337494,145.360138 61.4640626,144.217917 L61.2535446,144.039387 L61.1121242,144.252461 C54.0885261,154.655783 45.0834411,151.720066 35.3386965,136.393813 L35.0274443,135.900472 L34.9815625,135.821996 C28.1093213,123.205239 23.8488442,106.47925 22.1737685,85.6416776 C21.4615534,76.7818783 21.4052287,69.107088 22.1347455,62.4287731 C16.9568141,62.555152 12.753103,61.0802653 9.59640906,57.9686511 C5.57029623,54.0000339 3.91397277,49.6170909 4.75411559,44.9417364 C4.86503757,44.3244609 5.34827946,43.8413539 5.96558586,43.7306041 C12.7039712,42.5216836 19.2355564,43.9944506 25.5103443,48.0985423 C29.766105,37.4899236 37.7430503,30.406231 50.5480437,25.2388734 C66.896115,18.6417338 83.5562336,17.7002759 95.9659264,21.9440459 C99.4385988,17.8801209 102.329841,14.0508903 104.639647,10.4583211 C105.103579,9.73674129 106.07708,9.55050952 106.774586,10.0499047 Z M106.269406,13.4375312 L105.911013,13.970129 C103.307902,17.7867791 100.111014,21.8308102 96.3202695,26.1045889 L95.68298,26.8190131 C95.1297949,27.4356797 94.1814426,27.4871416 93.564776,26.9339565 C92.9481094,26.3807714 92.8966474,25.4324192 93.4498325,24.8157526 L93.8177847,24.403057 C82.2880268,20.8629554 66.9008696,21.8748758 51.6707063,28.0208922 C39.4590794,32.9488012 31.950316,39.6415699 28.0294706,49.8989822 C28.8548718,50.5383026 29.675086,51.2243409 30.4905253,51.9566459 C31.1068876,52.51017 31.1578282,53.4585503 30.6043041,54.0749127 C30.05078,54.6912751 29.1023996,54.7422156 28.4860372,54.1886915 C21.7594275,48.1478613 14.8776175,45.6112603 7.75483262,46.4924863 L7.57305778,46.515778 L7.55711286,46.7464951 C7.39128397,49.8042977 8.64983701,52.7101452 11.4113778,55.5396879 L11.7024191,55.8321301 C15.0100002,59.0924768 19.8470513,60.1622575 26.3712308,58.9622473 C27.1859904,58.8123863 27.9679699,59.3513931 28.1178309,60.1661527 C28.2676918,60.9809123 27.728685,61.7628918 26.9139254,61.9127527 C26.3218165,62.021661 25.7398445,62.1136565 25.1680896,62.188699 C24.3959882,68.7697925 24.4429588,76.4301783 25.1641221,85.4012912 C26.780658,105.510642 30.8295522,121.635373 37.2857386,133.773245 L37.5975446,134.352387 L37.8503809,134.753284 C46.9780298,149.154046 53.7057931,150.97207 59.4408709,141.282169 L59.6161259,140.981946 L60.5559894,139.349773 L61.9364461,140.63105 C63.8428507,142.400488 65.1172645,143.322151 66.3544792,143.866989 C67.0733874,144.183577 67.8101613,144.396461 68.974407,144.634834 L69.2746112,144.695033 C69.6552071,144.769877 71.252336,145.066573 71.640659,145.141242 C73.9740334,145.589912 76.4891844,143.634644 79.1327616,138.825301 L80.2187811,136.849554 L81.6215571,138.614557 C84.8676194,142.698821 88.2444606,144.830075 91.7663215,145.11929 C94.8028332,145.368649 96.757744,143.0467 97.6740104,137.450971 L98.4653484,132.618193 L100.516397,137.065121 C102.676965,141.749501 106.310172,144.332219 111.98707,144.209336 C115.668631,144.129644 117.49526,141.462071 117.510008,135.467485 L117.47955,131.851626 L119.976087,133.958048 C120.036764,134.009243 120.164505,134.108448 120.35347,134.24244 L120.474148,134.326903 C120.915965,134.632288 121.425301,134.939858 121.991422,135.22725 C124.331575,136.415228 126.826333,136.880558 129.302645,136.241014 C132.337857,135.457125 133.611313,132.730783 133.038119,127.469085 L132.797761,125.262688 L134.934639,125.862446 C141.293776,127.647266 144.690478,126.548335 145.870357,122.730889 C147.209213,118.399076 145.920952,110.568872 141.885686,99.3701928 C139.846902,93.2165932 137.858307,87.6931385 135.887566,82.6847605 C134.56155,84.3485959 133.011211,85.9849663 131.230908,87.5785782 C130.613652,88.1311057 129.665356,88.078633 129.112828,87.4613771 C128.560301,86.8441212 128.612773,85.8958243 129.230029,85.3432968 C136.97217,78.4130339 139.846537,70.8610117 138.741554,64.1589497 C138.328572,61.6540856 137.348061,59.5065688 136.158266,58.2138462 C135.323218,57.3065599 134.782678,57.1457703 134.62277,57.2859963 L134.271885,57.6014036 C131.871969,59.8087431 128.259152,64.1079234 123.482029,70.4601569 C122.98411,71.1222502 122.043733,71.2553394 121.38164,70.7574198 C120.719547,70.2595002 120.586457,69.319124 121.084377,68.6570306 C123.016448,66.0879181 124.764529,63.8444591 126.331617,61.9242602 L125.74501,60.8437467 C125.364749,60.1492845 125.002664,59.5010816 124.638082,58.8661327 L124.114341,57.9662401 L123.772105,57.3913476 L123.177377,56.4152845 C122.071894,54.6259818 120.75192,52.6204619 118.802103,49.7294146 L115.20313,44.4246691 C112.924642,41.0763194 111.35985,38.657163 109.802356,36.0058653 C108.84331,34.3732961 107.672727,32.8808163 106.315119,31.5319774 C105.85511,31.9089646 105.373629,32.2850509 104.869903,32.6610441 C104.206024,33.15658 103.266132,33.0201108 102.770597,32.3562315 C102.275061,31.6923523 102.41153,30.7524606 103.075409,30.2569247 C111.547452,23.933182 112.571139,18.7080662 106.449244,13.585617 L106.269406,13.4375312 Z M58.4801601,88.4267121 C60.4126491,90.2192048 62.0993907,93.2353243 63.0168365,96.611266 C65.3468205,105.184949 62.5605946,113.694631 53.8394491,118.876459 C53.1272529,119.299624 52.2068613,119.065317 51.7836969,118.353121 C51.3605325,117.640925 51.5948391,116.720533 52.3070353,116.297369 C59.791143,111.85055 62.1180796,104.743627 60.1218354,97.3980114 C59.3435096,94.5339922 57.9321044,92.0102111 56.4400059,90.6262054 C55.2994571,89.5682819 54.7016139,89.5063881 54.3047437,90.0770932 L53.914246,90.6312674 C50.9548284,94.7789034 45.8882807,100.768144 38.6993647,108.623976 C38.1400947,109.23513 37.191279,109.277189 36.5801255,108.717919 C35.9689721,108.158649 35.9269122,107.209834 36.4861822,106.59868 L38.3726605,104.526131 C44.7920178,97.4338366 49.2861291,92.0393199 51.8417407,88.364313 C53.483364,86.0036347 56.1674153,86.2815106 58.4801601,88.4267121 Z M79.917394,56.3960926 C80.959173,59.0074654 80.9051193,61.2337216 79.6529895,62.8448862 C84.6932858,70.3056913 82.30829,78.4016113 75.0263672,78.4016113 C70.5250174,78.4016113 68.3935095,74.5824274 68.3466703,67.6256148 C65.3126768,68.1230423 63.5807825,65.9287929 63.3352069,62.0065754 C63.2834393,61.1797673 63.9117337,60.4675409 64.7385418,60.4157733 C65.5653499,60.3640057 66.2775763,60.9923002 66.3293439,61.8191082 C66.4825298,64.265723 66.9710944,64.8557299 67.9963378,64.6396626 C69.3486988,64.3546562 70.1958652,63.0148022 70.4606813,60.1968162 C70.5866173,58.8566943 72.2773505,58.3478627 73.1220054,59.3958821 C74.874851,61.5707543 75.9930294,62.0272841 76.8053442,61.4499516 C77.7861285,60.7528835 77.9596344,59.5849461 77.1309458,57.507716 C76.8239795,56.7382596 77.1989018,55.8656466 77.9683582,55.5586802 C78.7378146,55.2517139 79.6104277,55.6266362 79.917394,56.3960926 Z M72.8702754,63.3899043 L72.8282385,63.5215249 C72.4763004,64.5406577 71.99165,65.387617 71.3715615,66.0474496 C71.1195866,72.5660139 72.4559094,75.4016113 75.0263672,75.4016113 C79.4876631,75.4016113 81.0357955,70.216094 77.1979471,64.5620624 C75.8518175,64.9532732 74.4501426,64.5722003 73.043006,63.5226552 L72.8702754,63.3899043 Z M45.0173437,59.4558917 L45.8471278,59.5876014 C51.1148772,60.4475148 53.9373099,61.3900579 54.8232082,62.914176 C55.8059529,64.6049109 54.7261883,67.9177601 51.7379218,73.9446459 C51.3699203,74.6868496 50.4699212,74.9902006 49.7277174,74.6221991 C48.9855136,74.2541977 48.6821627,73.3541985 49.0501642,72.6119948 L49.4951103,71.7035539 C50.5654334,69.4896665 51.3203434,67.705456 51.7576781,66.3636597 C51.9006758,65.9249255 52.0072949,65.5403882 52.0783818,65.2139378 L51.5802515,65.4817876 C50.1058911,66.2842519 48.0966586,67.4566868 45.5666908,68.992451 C44.8585259,69.4223278 43.9359609,69.1967306 43.5060841,68.4885658 C43.0762074,67.7804009 43.3018045,66.8578359 44.0099694,66.4279591 L45.8493688,65.3204478 C47.1550148,64.5414942 48.29473,63.8786635 49.2708889,63.3308964 L48.6145981,63.1767507 C47.5841573,62.9438897 46.3480305,62.7049704 44.9242357,62.4779904 L44.5593164,62.4207207 C43.7406015,62.2942399 43.1794348,61.5280075 43.3059156,60.7092925 C43.4323963,59.8905776 44.1986288,59.3294109 45.0173437,59.4558917 Z M97.4900544,42.9197917 C98.1539197,43.4153463 98.2903625,44.3552419 97.7948079,45.0191072 L96.9816763,46.1206952 C95.7758576,47.7735152 94.8478818,49.1362073 94.2294295,50.1167193 L99.7169759,47.8211954 C100.481273,47.5016002 101.359942,47.8621024 101.679537,48.6263997 C101.999132,49.390697 101.63863,50.2693655 100.874333,50.5889608 L95.5207847,52.8263517 L96.094803,53.1120786 C97.0975156,53.5997334 98.3300553,54.1444128 99.7886769,54.7432494 C100.555033,55.0578765 100.921231,55.9341863 100.606604,56.7005421 C100.291977,57.466898 99.4156672,57.8330965 98.6493114,57.5184694 L97.5697043,57.0696779 C92.4917686,54.9292992 90.3320312,53.5509023 90.3320312,51.7988281 C90.3320312,50.4322863 91.910823,47.8863834 95.390739,43.2245452 C95.8862936,42.5606799 96.8261891,42.4242371 97.4900544,42.9197917 Z" id="Shape" fill="currentColor" fill-rule="nonzero"></path>
    </g>
</svg>