<?xml version="1.0" standalone="no"?>
<!DOCTYPE svg PUBLIC "-//W3C//DTD SVG 1.1//EN" "http://www.w3.org/Graphics/SVG/1.1/DTD/svg11.dtd" >
<svg xmlns="http://www.w3.org/2000/svg" xmlns:xlink="http://www.w3.org/1999/xlink" version="1.1" viewBox="-10 0 1034 1024">
   <path fill="currentColor"
d="M345.62 -111.682c3.15234 -1.32031 6.62402 -1.65234 9.97168 -0.988281c3.34863 0.664062 6.42383 2.30762 8.83984 4.71973l467.309 467.524c8.96777 8.97559 16.0762 19.6318 20.9238 31.3594c4.85156 11.7285 7.34375 24.2969 7.33594 36.9883v146.132
c0.0078125 12.6807 -2.48047 25.2363 -7.32031 36.9561c-4.84375 11.7158 -11.9434 22.3643 -20.8994 31.332l-184.108 184.396c-18.1035 18.1113 -42.6523 28.2881 -68.252 28.2998h-134.72c-25.6084 -0.0283203 -50.1602 -10.2197 -68.2725 -28.3398l-184.147 -184.396
c-8.97656 -8.95996 -16.0918 -19.6035 -20.9482 -31.3193c-4.85156 -11.7207 -7.34375 -24.2803 -7.33203 -36.9688v-405.947c0 -3.41992 1.01172 -6.76074 2.9082 -9.60059c1.89551 -2.83984 4.58789 -5.05176 7.74414 -6.35938
c3.15137 -1.30859 6.62012 -1.65234 9.96777 -0.988281s6.42383 2.30371 8.83984 4.71973l141.512 141.544v-393.104c0 -3.41602 1.0127 -6.76074 2.9082 -9.60059c1.89648 -2.83984 4.58789 -5.05176 7.74023 -6.35938zM606.94 391.554
c-3.80859 0 -7.57617 0.751953 -11.0928 2.21191c-3.51562 1.45996 -6.70801 3.59668 -9.39551 6.2959l-74.3838 74.6006l-74.4961 -74.5801c-2.69238 -2.7002 -5.88379 -4.83594 -9.40039 -6.2959c-3.51562 -1.45996 -7.28418 -2.21191 -11.0918 -2.21191
s-7.57227 0.751953 -11.0879 2.21191c-3.52051 1.45996 -6.71191 3.5957 -9.40039 6.2959l-53.2676 53.3115c-2.69629 2.68457 -4.83203 5.87207 -6.2959 9.38477c-1.45605 3.51172 -2.2168 7.27539 -2.2168 11.0801v56.7637
c0.0126953 7.64746 3.06055 14.9795 8.46875 20.3838l147.96 149.2c2.69141 2.70801 5.8916 4.86035 9.41992 6.32812c3.51953 1.46387 7.30371 2.21973 11.1201 2.21973c3.81543 0 7.59961 -0.755859 11.1201 -2.21973c3.52734 -1.46777 6.72754 -3.62012 9.41602 -6.32812
l148.439 -149.2c5.4043 -5.42773 8.43652 -12.7842 8.43262 -20.4443v-56.7236c0 -3.7998 -0.75293 -7.56836 -2.20801 -11.0762c-1.45605 -3.51172 -3.59277 -6.7041 -6.28418 -9.3877l-53.2725 -53.3125c-2.6875 -2.69922 -5.87988 -4.83594 -9.39551 -6.2959
c-3.5166 -1.45996 -7.28418 -2.21191 -11.0879 -2.21191z" />
</svg>
