<?xml version="1.0" encoding="UTF-8"?>
<svg width="697px" height="969px" viewBox="0 0 697 969" version="1.1" xmlns="http://www.w3.org/2000/svg" xmlns:xlink="http://www.w3.org/1999/xlink">
  <g id="Fandom" transform="translate(0.0546, 0.4253)" fill="currentColor" fill-rule="nonzero">
    <path d="M181.619262,1.32066473 C184.771602,6.46055813e-05 188.243282,-0.331675271 191.590942,0.332383729 C194.939572,0.996445729 198.014772,2.64000373 200.430782,5.05211373 L667.739782,472.576114 C676.707552,481.551704 683.815982,492.207914 688.663582,503.935514 C693.515142,515.664014 696.007332,528.232414 695.99954,540.923814 L695.99954,687.055814 C696.007335,699.736514 693.519052,712.292114 688.679212,724.011914 C683.835462,735.727714 676.735812,746.376214 667.779812,755.343914 L483.671812,939.739914 C465.568312,957.851214 441.019512,968.028014 415.419812,968.039714 L280.699812,968.039714 C255.091412,968.011393 230.539612,957.820014 212.427312,939.699914 L28.280312,755.303914 C19.303752,746.343954 12.188512,735.700414 7.332112,723.984614 C2.480552,712.263914 -0.0116379977,699.704314 4.08573036e-05,687.015814 L4.08573036e-05,281.068814 C4.08573036e-05,277.648894 1.011802,274.308074 2.908282,271.468224 C4.803792,268.628384 7.496172,266.416464 10.652422,265.108844 C13.803792,263.800254 17.272542,263.456504 20.620192,264.120563 C23.967842,264.784622 27.044022,266.424273 29.460032,268.840293 L170.972032,410.384293 L170.972032,17.2802927 C170.972032,13.8642727 171.984732,10.5195527 173.880232,7.67970273 C175.776712,4.83986273 178.468122,2.62794273 181.620462,1.32032273 L181.619262,1.32066473 Z M442.939262,504.556665 C439.130672,504.556665 435.363092,505.308618 431.846462,506.768575 C428.330842,508.228535 425.138452,510.365255 422.450952,513.064475 L348.067152,587.665075 L273.571052,513.084975 C270.878672,510.384775 267.687262,508.249035 264.170662,506.789075 C260.655042,505.329115 256.886482,504.577165 253.078862,504.577165 C249.271242,504.577165 245.506592,505.329118 241.990962,506.789075 C238.470452,508.249035 235.279052,510.384775 232.590572,513.084975 L179.322972,566.396475 C176.626682,569.081045 174.490942,572.268545 173.027072,575.781245 C171.571022,579.292965 170.810272,583.056635 170.810272,586.861345 L170.810272,643.625045 C170.822967,651.272505 173.870822,658.604545 179.279022,664.008845 L327.239022,813.208845 C329.930432,815.916855 333.130622,818.069195 336.658942,819.536965 C340.178472,821.000835 343.962652,821.756695 347.779042,821.756695 C351.594472,821.756695 355.378652,821.000836 358.899142,819.536965 C362.426482,818.069195 365.626682,815.916845 368.315162,813.208845 L516.754162,664.008845 C522.158462,658.581115 525.190682,651.224645 525.186786,643.564545 L525.186786,586.840945 C525.186786,583.041145 524.433852,579.272585 522.978772,575.764745 C521.522722,572.253025 519.386002,569.060645 516.694592,566.377045 L463.422092,513.064545 C460.734592,510.365325 457.542212,508.228605 454.026582,506.768645 C450.509982,505.308685 446.742402,504.556665 442.938682,504.556665 L442.939262,504.556665 Z"></path>
  </g>
</svg>