<?xml version="1.0" encoding="UTF-8"?>
<svg width="192px" height="192px" viewBox="0 0 192 192" version="1.1" xmlns="http://www.w3.org/2000/svg" xmlns:xlink="http://www.w3.org/1999/xlink">
    <title>FanFiction</title>
    <g id="FanFiction" stroke="none" stroke-width="1" fill="none" fill-rule="evenodd">
        <path d="M130,23 C151.539105,23 169,40.4608948 169,62 L169,167 C169,168.104569 168.104569,169 167,169 L59,169 C39.117749,169 23,152.882251 23,133 L23,25 C23,23.8954305 23.8954305,23 25,23 L130,23 Z M138,111 L54,111 C52.8954305,111 52,111.895431 52,113 L52,125.5 C52,133.508129 58.4918711,140 66.5,140 L138,140 C139.104569,140 140,139.104569 140,138 L140,113 C140,111.895431 139.104569,111 138,111 Z M125.5,52 L54,52 C52.8954305,52 52,52.8954305 52,54 L52,79 C52,80.1045695 52.8954305,81 54,81 L138,81 C139.104569,81 140,80.1045695 140,79 L140,66.5 C140,58.4918711 133.508129,52 125.5,52 Z" id="Shape" fill="currentColor"></path>
    </g>
</svg>