<?xml version="1.0" encoding="UTF-8"?>
<svg width="150px" height="150px" viewBox="0 0 150 150" version="1.1" xmlns="http://www.w3.org/2000/svg" xmlns:xlink="http://www.w3.org/1999/xlink">
    <title>Fantia</title>
    <g id="Fantia" stroke="none" stroke-width="1" fill="none" fill-rule="evenodd">
        <path d="M35.4000403,74.3989921 L26.204397,75.2035066 L22.0209213,27.3861611 L51.4469801,24.8117146 L52.2514946,34.0073579 L32.0210792,35.7772899 L32.9060452,45.8924976 L43.9408173,44.9270802 L44.7453318,54.1227236 L33.7105598,55.088141 L35.4000403,74.3989921 Z M70.3333333,65 L70.3333333,55.7142857 L79.6666667,55.7142857 L79.6666667,45.5 L70.3333333,45.5 L70.3333333,54.7857143 L61,54.7857143 L61,45.5 L70.3333333,45.5 L70.3333333,36.2142857 L79.6666667,36.2142857 L79.6666667,26 L89,26 L89,65 L70.3333333,65 Z M79,17 L79,26 L61,26 L61,17 L79,17 Z M131.208794,38.7850452 L132.778872,68.7439312 L123.791206,69.2149548 L122.221128,39.2560688 L131.208794,38.7850452 Z M101.020007,31.5755664 L121.991227,30.4765113 L122.464743,39.5117309 L111.025895,40.1112155 L112.541146,69.0239182 L103.008773,69.5234887 L101.020007,31.5755664 Z M26.1058868,128.501712 L28.1234586,99.6490898 L18.5219046,98.9776838 L19.1523958,89.9612395 L28.7539498,90.6326455 L29.384441,81.6162012 L38.1131265,82.2265704 L37.4826353,91.2430147 L47.0841892,91.9144207 L46.453698,100.930865 L36.8521441,100.259459 L35.4650634,120.095636 L45.0666174,120.767042 L44.4361262,129.783487 L26.1058868,128.501712 Z M68.3470768,93.2654683 L78.1951543,95.0019501 L79.7922796,85.9442021 L69.9442021,84.2077203 L68.3470768,93.2654683 Z M61.720848,130.050827 L66.512224,102.877583 L76.3603016,104.614065 L73.1145307,123.021746 L82.9626082,124.758228 L81.4170031,133.52379 L61.720848,130.050827 Z M108.344939,128.383716 L107.399205,119.38566 L116.681409,118.410061 L115.641102,108.512201 L106.358898,109.487799 L107.304632,118.485855 L98.0224272,119.461454 L97.0766935,110.463398 L106.358898,109.487799 L105.413164,100.489744 L114.695368,99.5141453 L113.655061,89.6162845 L122.937266,88.6406855 L126.909347,126.432518 L108.344939,128.383716 Z M113.529844,82.028892 L114.366072,89.9850672 L95.4701558,91.971108 L94.6339281,84.0149328 L113.529844,82.028892 Z" id="Shape" fill="currentColor"></path>
    </g>
</svg>