<?xml version="1.0" encoding="UTF-8"?>
<svg width="205px" height="205px" viewBox="0 0 205 205" version="1.1" xmlns="http://www.w3.org/2000/svg" xmlns:xlink="http://www.w3.org/1999/xlink">
    <title>Artboard</title>
    <g id="Artboard" stroke="none" stroke-width="1" fill="none" fill-rule="evenodd">
        <path d="M135.294033,154.04176 C144.432237,154.539517 151.436704,162.351008 150.938946,171.489212 C150.441188,180.627417 142.629698,187.631883 133.491493,187.134126 C124.353288,186.636368 117.348822,178.824877 117.84658,169.686673 C118.344337,160.548468 126.155828,153.544002 135.294033,154.04176 Z M65.8258502,154.015132 L118.115163,162.405834 C116.986237,164.644942 116.331454,167.092901 116.191766,169.596611 C116.131559,170.823969 116.195619,172.054269 116.38297,173.268737 L64.0936548,164.878035 C65.2224699,162.638731 65.8770783,160.190592 66.0165354,157.686744 C66.0768794,156.459575 66.0129928,155.229448 65.8258502,154.015132 Z M48.7171755,140.149099 C57.8553801,140.646856 64.8598464,148.458347 64.3620888,157.596552 C63.8643312,166.734756 56.0528405,173.739222 46.9146359,173.241465 C37.7764313,172.743707 30.771965,164.932217 31.2697226,155.794012 C31.7674802,146.655807 39.5789709,139.651341 48.7171755,140.149099 Z M106.876573,135.171322 L126.041812,154.410457 C122.705393,156.13256 119.982174,158.842964 118.244353,162.171223 L96.558339,140.40046 L106.876573,135.171322 Z M161.54972,105.504916 C164.217049,108.147293 167.635279,109.901526 171.337237,110.527864 L147.202792,157.644885 C144.535257,155.002603 141.116841,153.248546 137.41476,152.622453 L161.54972,105.504916 Z M116.515778,90.8613666 L127.936268,92.6932939 L137.291255,152.596614 C136.659748,152.493429 136.023246,152.42357 135.384392,152.387325 C132.285752,152.225984 129.197216,152.858312 126.411297,154.224423 L116.515778,90.8613666 Z M118.098626,114.908994 L119.885082,126.336718 L65.78244,153.756235 C65.1750987,150.051023 63.4383674,146.623761 60.8096174,143.942879 L118.098626,114.908994 Z M64.8414123,111.394478 L73.002673,119.587261 L60.6251341,143.751159 C57.9580165,141.109631 54.54039,139.355971 50.8391677,138.729761 L64.8414123,111.394478 Z M42.3905881,86.3805024 L50.5658002,138.678602 C49.9829379,138.588868 49.3960641,138.527473 48.8072498,138.494634 C45.6583789,138.33095 42.5208975,138.986899 39.7013472,140.398393 L31.5251006,88.100294 C32.1083046,88.1900611 32.6955235,88.2514558 33.2846829,88.2842615 C36.4335547,88.4479466 39.571037,87.7919974 42.3905881,86.3805024 Z M50.4242058,78.5008801 L95.7449543,123.996809 L85.4267203,129.225949 L42.6283003,86.2606117 C45.9639892,84.5385237 48.6866225,81.8285236 50.4242058,78.5008801 Z M156.393962,95.5013909 C157.001219,99.2061127 158.737569,102.632972 161.365753,105.313712 L133.95089,119.207954 L132.164434,107.780746 L156.393962,95.5013909 Z M175.261514,76.0163111 C184.399719,76.5140687 191.404185,84.3255594 190.906427,93.463764 C190.40867,102.601969 182.597179,109.606435 173.458974,109.108677 C164.32077,108.61092 157.316303,100.799429 157.814061,91.6612244 C158.311819,82.5230198 166.123309,75.5185535 175.261514,76.0163111 Z M99.6749454,43.3908786 C102.342271,46.0327834 105.760292,47.7866424 109.461944,48.4127945 L80.1929313,105.551425 L72.0311547,97.3581256 L99.6749454,43.3908786 Z M98.2440258,74.7274667 L158.103938,84.3413507 C156.96251,86.5906908 156.300352,89.0524503 156.159354,91.5708838 C156.0996,92.7839088 156.161229,93.999869 156.343321,95.2006364 L92.9719966,85.0229624 L98.2440258,74.7274667 Z M35.1772211,53.5375046 C44.3154257,54.0352621 51.319892,61.8467529 50.8221344,70.9849575 C50.3243768,80.1231621 42.5128861,87.1276284 33.3746815,86.6298708 C24.2364769,86.1321132 17.2320106,78.3206225 17.7297682,69.1824179 C18.2275258,60.0442132 26.0390165,53.039747 35.1772211,53.5375046 Z M128.632869,38.8645404 L166.008881,76.3852453 C162.672654,78.1074349 159.949625,80.8178317 158.211941,84.1460141 L120.83541,46.6253066 C124.171829,44.9032035 126.895048,42.1927991 128.632869,38.8645404 Z M52.2762891,67.3454886 L82.6744319,72.2273606 L77.4029213,82.5218217 L50.5823367,78.2140744 C51.694403,75.9885956 52.3391227,73.5590238 52.476793,71.0749759 C52.5378326,69.8282275 52.4706454,68.5785065 52.2762891,67.3454886 Z M120.749111,46.6687141 L125.503343,77.1133681 L114.083368,75.2809221 L109.898093,48.4810068 C110.42713,48.560198 110.959396,48.6160624 111.493346,48.6484377 C114.6991,48.8150554 117.892004,48.1321225 120.749111,46.6687141 Z M94.5186714,33.3878719 C95.1261294,37.0922254 96.8624646,40.5186954 99.4904594,43.1991588 L52.2427003,67.1444661 C51.6352997,63.4396842 49.898766,60.0128195 47.2703937,57.3321473 L94.5186714,33.3878719 Z M113.385921,13.9012698 C122.524126,14.3990274 129.528592,22.2105182 129.030835,31.3487228 C128.533077,40.4869274 120.721586,47.4913936 111.583382,46.9936361 C102.445177,46.4958785 95.4407109,38.6843877 95.9384685,29.5461831 C96.4362261,20.4079785 104.247717,13.4035122 113.385921,13.9012698 Z" id="Shape" fill="currentColor" fill-rule="nonzero"></path>
    </g>
</svg>