<?xml version="1.0" standalone="no"?>
<!DOCTYPE svg PUBLIC "-//W3C//DTD SVG 1.1//EN" "http://www.w3.org/Graphics/SVG/1.1/DTD/svg11.dtd" >
<svg xmlns="http://www.w3.org/2000/svg" xmlns:xlink="http://www.w3.org/1999/xlink" version="1.1" viewBox="-10 0 1034 1024">
   <path fill="currentColor"
d="M642 173c34 180 -76 290 -212 252c200 -328 -92 -330 -2 -566c-138 98 -274 370 -274 568c0 278 146 454 342 456c190 2 374 -180 374 -358c0 -204 -110 -284 -228 -352zM496 813c-194 4 -354 -204 -174 -498c-38 170 64 298 162 298c110 2 174 -102 206 -236
c176 134 96 430 -194 436z" />
</svg>
