<?xml version="1.0" encoding="UTF-8"?>
<svg width="717px" height="1025px" viewBox="0 0 717 1025" version="1.1" xmlns="http://www.w3.org/2000/svg" xmlns:xlink="http://www.w3.org/1999/xlink">
  <g id="FeedBurner" transform="translate(0.1251, 0.4253)" fill="currentColor" fill-rule="nonzero">
    <path d="M488,314 C522,494 412,604 276,566 C476,238 184,236 274,0 C136,98 0,370 0,568 C0,846 146,1022 342,1024 C532,1026 716,844 716,666 C716,462 606,382 488,314 Z M342,954 C148,958 -12,750 168,456 C130,626 232,754 330,754 C440,756 504,652 536,518 C712,652 632,948 342,954 Z"></path>
  </g>
</svg>