<?xml version="1.0" encoding="UTF-8"?>
<svg width="1025px" height="1025px" viewBox="0 0 1025 1025" version="1.1" xmlns="http://www.w3.org/2000/svg" xmlns:xlink="http://www.w3.org/1999/xlink">
  <g id="FilmWeb" transform="translate(0.2781, 0.0926)" fill="currentColor" fill-rule="nonzero">
    <path d="M512,0 C230,0 0,230 0,512 C0,794 230,1024 512,1024 C794,1024 1024,794 1024,512 C1024,230 794,0 512,0 Z M394,152 C450,152 494,196 494,252 C494,310 450,354 394,354 C336,354 292,310 292,252 C292,196 336,152 394,152 Z M136,512 C136,456 182,410 238,410 C294,410 338,456 338,512 C338,568 294,614 238,614 C182,614 136,568 136,512 Z M394,872 C336,872 292,828 292,772 C292,714 336,670 394,670 C450,670 494,714 494,772 C494,828 450,872 394,872 Z M636,564 L464,564 L464,460 L636,460 L636,564 Z M834,706 C798,760 748,802 690,830 L650,742 C738,702 792,614 792,514 C792,462 778,414 752,372 C728,332 692,300 650,280 L692,194 C750,222 798,266 834,322 C870,378 888,444 888,514 C888,582 870,650 834,706 Z"></path>
  </g>
</svg>