<?xml version="1.0" encoding="UTF-8"?>
<svg width="591px" height="1028px" viewBox="0 0 591 1028" version="1.1" xmlns="http://www.w3.org/2000/svg" xmlns:xlink="http://www.w3.org/1999/xlink">
  <g id="FilmFreeway" transform="translate(0.7985, 0.4253)" fill="currentColor" fill-rule="nonzero">
    <path d="M200.7042,267.911325 C211.9679,256.647625 226.3038,250.504125 242.6886,250.504125 L589.8246,250.504125 L589.8246,18.0561254 C589.8246,5.76802537 579.5844,-2.42437463 567.2963,0.647925365 L22.5283,118.407925 C10.2402,120.455775 1.0244,131.720425 -5.68434189e-14,144.008525 L-5.68434189e-14,883.336525 C1.02441,894.600225 10.2402,905.863825 22.5283,908.936125 L566.2723,1026.69613 C578.5604,1029.7684 588.7996,1021.57601 588.7996,1009.28793 L588.7996,345.735925 L297.9846,345.735925 L297.9846,464.519925 L517.1206,464.519925 L517.1206,502.407625 C517.1206,518.791425 510.97705,532.103925 499.7124,543.367625 C488.4487,554.632225 474.1128,560.775825 457.729,560.775825 L297.985,560.775825 L297.985,805.511825 L183.297,805.511825 L183.297,308.870825 C183.297,293.511425 189.44153,279.175525 200.7052,267.910825 L200.7042,267.911325 Z"></path>
  </g>
</svg>