<?xml version="1.0" standalone="no"?>
<!DOCTYPE svg PUBLIC "-//W3C//DTD SVG 1.1//EN" "http://www.w3.org/Graphics/SVG/1.1/DTD/svg11.dtd" >
<svg xmlns="http://www.w3.org/2000/svg" xmlns:xlink="http://www.w3.org/1999/xlink" version="1.1" viewBox="-10 0 1044 1024">
   <path fill="currentColor"
d="M512 -141c-282 0 -512 230 -512 512s230 512 512 512s512 -230 512 -512s-230 -512 -512 -512zM394 11c56 0 100 44 100 100c0 58 -44 102 -100 102c-58 0 -102 -44 -102 -102c0 -56 44 -100 102 -100zM136 371c0 -56 46 -102 102 -102s100 46 100 102s-44 102 -100 102
s-102 -46 -102 -102zM394 731c-58 0 -102 -44 -102 -100c0 -58 44 -102 102 -102c56 0 100 44 100 102c0 56 -44 100 -100 100zM636 423h-172v-104h172v104zM834 565c-36 54 -86 96 -144 124l-40 -88c88 -40 142 -128 142 -228c0 -52 -14 -100 -40 -142
c-24 -40 -60 -72 -102 -92l42 -86c58 28 106 72 142 128s54 122 54 192c0 68 -18 136 -54 192z" />
</svg>
