<?xml version="1.0" standalone="no"?>
<!DOCTYPE svg PUBLIC "-//W3C//DTD SVG 1.1//EN" "http://www.w3.org/Graphics/SVG/1.1/DTD/svg11.dtd" >
<svg xmlns="http://www.w3.org/2000/svg" xmlns:xlink="http://www.w3.org/1999/xlink" version="1.1" viewBox="-10 0 1034 1024">
   <path fill="currentColor"
d="M417.792 126.264c11.2637 -11.2637 25.5996 -17.4072 41.9844 -17.4072h347.136v-232.448c0 -12.2881 -10.2402 -20.4805 -22.5283 -17.4082l-544.768 117.76c-12.2881 2.04785 -21.5039 13.3125 -22.5283 25.6006v739.328
c1.02441 11.2637 10.2402 22.5273 22.5283 25.5996l543.744 117.76c12.2881 3.07227 22.5273 -5.12012 22.5273 -17.4082v-663.552h-290.815v118.784h219.136v37.8877c0 16.3838 -6.14355 29.6963 -17.4082 40.96c-11.2637 11.2646 -25.5996 17.4082 -41.9834 17.4082
h-159.744v244.736h-114.688v-496.641c0 -15.3594 6.14453 -29.6953 17.4082 -40.96z" />
</svg>
