<?xml version="1.0" encoding="UTF-8"?>
<svg width="1013px" height="935px" viewBox="0 0 1013 935" version="1.1" xmlns="http://www.w3.org/2000/svg" xmlns:xlink="http://www.w3.org/1999/xlink">
  <g id="Firefox" transform="translate(0.1682, 0.6137)" fill="currentColor" fill-rule="nonzero">
    <path d="M890,84 C890,84 890,86 892,86 C890,86 890,86 890,84 Z M318,446 C320,448 320,450 322,450 L318,446 Z M168,132 C170,132 170,130 172,130 C172,132 174,132 174,132 L168,132 Z M74,92 C74,94 74,92 74,90 L74,88 L74,92 Z M18,336 L18,336 C18,338 16,338 16,338 L18,336 C18,334 20,332 20,330 C18,330 18,332 18,336 Z M458,274 C460,274 462,272 464,270 C466,270 466,270 466,268 L460,274 C460,274 458,274 456,276 C458,276 458,274 458,274 Z M476,258 L476,254 C476,254 478,250 478,248 L480,244 L482,244 C480,246 480,248 480,250 L480,252 C480,254 478,256 476,258 Z M482,236 L482,238 L482,240 L482,238 C482,236 482,234 482,236 Z M484,240 C486,240 486,240 484,240 C486,240 484,240 484,240 L484,242 L484,240 Z M964,580 L964,580 C962,582 962,584 960,586 C962,584 962,582 964,580 C994,522 1030,410 1002,312 L1002,308 C1000,306 1000,304 1000,302 L1000,300 L998,298 C998,300 990,324 980,360 C986,306 982,248 962,196 C952,170 942,150 930,134 C916,110 900,92 888,84 L890,86 L888,84 C888,86 890,90 892,100 C866,60 828,40 822,38 L820,38 L826,74 C786,42 736,16 680,0 C774,62 808,114 830,162 C806,136 762,110 734,106 C776,138 848,234 842,378 C822,328 796,308 796,308 L796,310 L794,308 C802,360 802,398 802,426 L802,428 L802,436 L802,442 L802,448 L802,454 L802,460 C798,484 794,500 790,518 C784,494 778,482 778,482 L778,484 L778,482 C778,482 776,528 746,592 C744,598 740,606 736,612 C736,612 736,614 734,614 C734,616 734,616 732,618 L730,622 C730,622 730,624 728,624 C728,626 728,626 726,628 C714,642 706,650 698,652 C696,654 694,654 692,654 C690,654 690,652 688,652 C690,646 690,640 688,636 C688,636 680,638 674,646 C670,650 668,654 664,656 L670,648 C666,650 662,654 658,658 C644,672 632,690 624,684 C632,682 636,674 638,666 C632,670 618,682 586,686 C572,688 518,698 444,662 C454,660 470,656 482,664 C470,650 440,654 420,646 C400,640 376,614 362,602 C412,614 464,608 500,590 C502,588 504,588 506,586 C510,584 512,582 516,580 C536,566 566,544 584,542 C586,542 588,542 590,544 C608,548 620,530 606,512 C592,496 556,474 510,484 C472,494 442,524 390,502 C386,502 384,500 380,498 C378,496 390,500 388,498 C378,494 360,486 354,484 C354,482 362,484 362,484 C352,478 344,474 338,468 C338,468 336,468 336,466 L334,464 L330,460 L330,460 L328,458 C312,438 316,418 320,408 C322,398 330,390 334,386 L336,386 C344,388 348,390 348,390 L342,384 C344,384 344,384 344,382 C350,384 362,390 368,392 C378,396 382,402 382,402 C382,402 384,400 382,396 C380,394 378,388 368,384 C374,386 378,388 384,390 C386,382 388,374 386,360 C384,350 386,348 382,344 C380,342 384,340 386,342 C386,340 384,338 384,336 C382,332 382,330 378,326 C378,324 378,324 376,324 L372,318 C370,316 368,314 368,312 C372,320 378,326 380,330 C382,332 382,332 384,332 C388,326 404,316 422,306 C426,304 428,302 430,300 C420,306 408,314 400,320 C392,326 386,332 384,336 C400,318 460,288 474,274 C476,272 478,272 478,270 L478,270 C486,264 490,258 492,250 C496,242 500,222 488,216 C480,214 472,212 458,212 L456,212 L406,212 C376,212 360,184 354,172 L354,172 L354,172 C364,138 384,108 412,84 C414,84 404,86 406,84 C408,82 422,74 424,74 C426,72 410,68 396,70 C382,74 380,74 372,80 L370,80 C374,76 384,72 382,72 C366,76 348,86 332,98 L332,92 C324,96 308,110 302,120 L302,114 C298,118 292,124 288,130 C274,128 260,124 248,124 L242,124 L238,124 L232,124 L226,124 L222,124 L218,124 C202,124 188,128 174,132 C162,122 146,106 134,88 L132,88 L132,88 C132,90 132,92 132,90 C124,76 116,52 116,36 L116,38 L116,36 C116,36 104,44 96,70 C94,72 94,74 94,76 L94,80 C94,76 94,74 96,72 L96,70 L96,74 L96,74 L96,76 C94,78 94,80 94,82 L94,80 L94,82 L94,78 L92,82 L92,76 C92,78 90,80 88,82 L90,80 C90,78 92,76 92,76 L92,74 C92,76 86,82 86,88 C84,92 84,94 82,98 L82,96 L82,96 L82,96 C78,104 74,116 72,128 C68,142 66,158 66,180 C64,200 66,214 66,218 L68,216 L68,216 L66,218 L66,216 C54,234 46,248 42,256 C26,284 12,330 -5.68434189e-14,400 L-5.68434189e-14,400 L-5.68434189e-14,400 L2,398 C2,398 2,400 -5.68434189e-14,400 C-5.68434189e-14,400 2,398 4,392 L4,388 C8,378 14,362 24,346 C12,384 2,442 8,528 L8,528 L8,530 L8,526 L8,526 L8,528 C8,528 10,522 10,516 L10,512 C12,502 14,490 18,476 C20,534 36,604 80,682 C114,742 206,880 436,930 L432,930 L436,930 C426,928 418,924 410,920 L408,918 C400,914 396,910 394,908 C396,908 400,910 408,912 C436,920 496,936 544,934 L542,934 L540,934 C536,934 532,932 530,930 C522,926 520,922 520,922 L526,922 C558,922 708,924 792,858 C812,842 826,824 830,810 L828,810 L820,814 C824,812 826,810 828,810 L828,806 L830,806 C830,806 830,808 828,808 L828,810 L858,792 C874,780 894,766 912,748 C914,744 918,742 920,738 L920,736 L922,736 C924,734 924,732 926,730 L928,730 C930,728 932,724 934,722 C942,712 950,702 954,692 L956,690 C968,670 976,648 976,622 C976,628 974,634 972,640 L970,642 L974,638 C972,610 970,594 964,580 Z"></path>
  </g>
</svg>