<?xml version="1.0" standalone="no"?>
<!DOCTYPE svg PUBLIC "-//W3C//DTD SVG 1.1//EN" "http://www.w3.org/Graphics/SVG/1.1/DTD/svg11.dtd" >
<svg xmlns="http://www.w3.org/2000/svg" xmlns:xlink="http://www.w3.org/1999/xlink" version="1.1" viewBox="-10 0 1043 1024">
   <path fill="currentColor"
d="M900 -7c0 0 0 2 2 2c-2 0 -2 0 -2 -2zM328 355c2 2 2 4 4 4zM178 41c2 0 2 -2 4 -2c0 2 2 2 2 2h-6zM86 -3v0zM84 1c0 2 0 0 0 -2v-2v4zM84 -3v0v0zM28 245v0c0 2 -2 2 -2 2l2 -2c0 -2 2 -4 2 -6c-2 0 -2 2 -2 6zM468 183c2 0 4 -2 6 -4c2 0 2 0 2 -2l-6 6c0 0 -2 0 -4 2
c2 0 2 -2 2 -2zM486 167v-4s2 -4 2 -6l2 -4h2c-2 2 -2 4 -2 6v2c0 2 -2 4 -4 6zM492 145v2v2v-2c0 -2 0 -4 0 -2zM494 149c2 0 2 0 0 0c2 0 0 0 0 0v2v-2zM974 489v0c-2 2 -2 4 -4 6c2 -2 2 -4 4 -6c30 -58 66 -170 38 -268v-4c-2 -2 -2 -4 -2 -6v-2l-2 -2c0 2 -8 26 -18 62
c6 -54 2 -112 -18 -164c-10 -26 -20 -46 -32 -62c-14 -24 -30 -42 -42 -50l2 2l-2 -2c0 2 2 6 4 16c-26 -40 -64 -60 -70 -62h-2l6 36c-40 -32 -90 -58 -146 -74c94 62 128 114 150 162c-24 -26 -68 -52 -96 -56c42 32 114 128 108 272c-20 -50 -46 -70 -46 -70v2l-2 -2
c8 52 8 90 8 118v2v8v6v6v6v6c-4 24 -8 40 -12 58c-6 -24 -12 -36 -12 -36v2v-2s-2 46 -32 110c-2 6 -6 14 -10 20c0 0 0 2 -2 2c0 2 0 2 -2 4l-2 4s0 2 -2 2c0 2 0 2 -2 4c-12 14 -20 22 -28 24c-2 2 -4 2 -6 2s-2 -2 -4 -2c2 -6 2 -12 0 -16c0 0 -8 2 -14 10
c-4 4 -6 8 -10 10l6 -8c-4 2 -8 6 -12 10c-14 14 -26 32 -34 26c8 -2 12 -10 14 -18c-6 4 -20 16 -52 20c-14 2 -68 12 -142 -24c10 -2 26 -6 38 2c-12 -14 -42 -10 -62 -18c-20 -6 -44 -32 -58 -44c50 12 102 6 138 -12c2 -2 4 -2 6 -4c4 -2 6 -4 10 -6
c20 -14 50 -36 68 -38c2 0 4 0 6 2c18 4 30 -14 16 -32c-14 -16 -50 -38 -96 -28c-38 10 -68 40 -120 18c-4 0 -6 -2 -10 -4c-2 -2 10 2 8 0c-10 -4 -28 -12 -34 -14c0 -2 8 0 8 0c-10 -6 -18 -10 -24 -16c0 0 -2 0 -2 -2l-2 -2l-4 -4v0l-2 -2c-16 -20 -12 -40 -8 -50
c2 -10 10 -18 14 -22h2c8 2 12 4 12 4l-6 -6c2 0 2 0 2 -2c6 2 18 8 24 10c10 4 14 10 14 10s2 -2 0 -6c-2 -2 -4 -8 -14 -12c6 2 10 4 16 6c2 -8 4 -16 2 -30c-2 -10 0 -12 -4 -16c-2 -2 2 -4 4 -2c0 -2 -2 -4 -2 -6c-2 -4 -2 -6 -6 -10c0 -2 0 -2 -2 -2l-4 -6
c-2 -2 -4 -4 -4 -6c4 8 10 14 12 18c2 2 2 2 4 2c4 -6 20 -16 38 -26c4 -2 6 -4 8 -6c-10 6 -22 14 -30 20s-14 12 -16 16c16 -18 76 -48 90 -62c2 -2 4 -2 4 -4v0c8 -6 12 -12 14 -20c4 -8 8 -28 -4 -34c-8 -2 -16 -4 -30 -4h-2h-50c-30 0 -46 -28 -52 -40v0v0
c10 -34 30 -64 58 -88c2 0 -8 2 -6 0s16 -10 18 -10c2 -2 -14 -6 -28 -4c-14 4 -16 4 -24 10h-2c4 -4 14 -8 12 -8c-16 4 -34 14 -50 26v-6c-8 4 -24 18 -30 28v-6c-4 4 -10 10 -14 16c-14 -2 -28 -6 -40 -6h-6h-4h-6h-6h-4h-4c-16 0 -30 4 -44 8c-12 -10 -28 -26 -40 -44
h-2v0c0 2 0 4 0 2c-8 -14 -16 -38 -16 -54v2v-2c0 0 -12 8 -20 34c-2 2 -2 4 -2 6v4c0 -4 0 -6 2 -8v-2v4v0v2c-2 2 -2 4 -2 6v-2v2v-4l-2 4v-6c0 2 -2 4 -4 6l2 -2c0 -2 2 -4 2 -4v-2c0 2 -6 8 -6 14c-2 4 -2 6 -4 10v-2v0v0c-4 8 -8 20 -10 32c-4 14 -6 30 -6 52
c-2 20 0 34 0 38l2 -2v0l-2 2v-2c-12 18 -20 32 -24 40c-16 28 -30 74 -42 144v0v0l2 -2c0 0 0 2 -2 2c0 0 2 -2 4 -8v-4c4 -10 10 -26 20 -42c-12 38 -22 96 -16 182v0v2v-4v0v2s2 -6 2 -12v-4c2 -10 4 -22 8 -36c2 58 18 128 62 206c34 60 126 198 356 248h-4h4
c-10 -2 -18 -6 -26 -10l-2 -2c-8 -4 -12 -8 -14 -10c2 0 6 2 14 4c28 8 88 24 136 22h-2h-2c-4 0 -8 -2 -10 -4c-8 -4 -10 -8 -10 -8h6c32 0 182 2 266 -64c20 -16 34 -34 38 -48h-2l-8 4c4 -2 6 -4 8 -4v-4h2s0 2 -2 2v2l30 -18c16 -12 36 -26 54 -44c2 -4 6 -6 8 -10v-2h2
c2 -2 2 -4 4 -6h2c2 -2 4 -6 6 -8c8 -10 16 -20 20 -30l2 -2c12 -20 20 -42 20 -68c0 6 -2 12 -4 18l-2 2l4 -4c-2 -28 -4 -44 -10 -58z" />
</svg>
