<?xml version="1.0" standalone="no"?>
<!DOCTYPE svg PUBLIC "-//W3C//DTD SVG 1.1//EN" "http://www.w3.org/Graphics/SVG/1.1/DTD/svg11.dtd" >
<svg xmlns="http://www.w3.org/2000/svg" xmlns:xlink="http://www.w3.org/1999/xlink" version="1.1" viewBox="-10 0 1034 1024">
   <path fill="currentColor"
d="M889.856 439.608v-253.952c0 -13.3125 -3.07227 -16.3838 -16.3848 -16.3838h-470.016c-13.3125 0 -31.7441 6.14355 -39.9365 -3.07227c-7.16797 -8.19238 -2.04785 -25.6006 -2.04785 -38.9121c0 -44.0322 28.6719 -72.7041 72.7041 -72.7041h68.6084
c9.21582 0 13.3115 -2.04785 13.3115 -12.2881c-1.02344 -50.1758 -1.02344 -101.376 0 -151.552c0 -11.2637 -4.0957 -13.3125 -13.3115 -13.3125c-41.9844 1.02441 -83.9678 0 -125.952 1.02441c-51.2002 1.02441 -98.3037 14.3359 -141.312 40.96
c-67.584 43.0078 -108.544 101.376 -104.447 185.344c1.02344 17.4082 0 34.8164 0 53.248c0 9.21582 -3.07227 12.2881 -12.2881 12.2881h-73.7285c-11.2637 0 -14.3359 4.0957 -14.3359 14.3359c1.02441 46.0801 1.02441 91.1357 0 137.216
c0 11.2646 4.09668 14.3359 15.3604 14.3359c23.5518 -1.02344 48.1279 0 71.6797 0c10.2402 0 13.3125 3.07227 13.3125 13.3125c-1.02441 115.712 -1.02441 232.448 -1.02441 348.16c0 12.2881 -4.0957 14.3359 -15.3594 14.3359c-23.5527 -1.02441 -47.1045 0 -70.6562 0
c-11.2646 0 -14.3359 4.0957 -14.3359 14.3359c0 48.1279 1.02344 96.2559 0 143.36c0 11.2637 3.07129 14.3359 14.3359 14.3359h401.408c10.2393 0 14.3359 -2.04883 14.3359 -13.3125c-1.02441 -48.1279 -1.02441 -96.2559 0 -143.36
c0 -11.2637 -4.09668 -14.3359 -14.3359 -14.3359c-23.5527 1.02441 -48.1289 0 -71.6807 0c-9.21582 0 -13.3115 -3.07129 -13.3115 -12.2881v-353.279c0 -9.21582 3.07129 -11.2646 12.2881 -11.2646h274.432c10.2402 0 12.2881 4.09668 12.2881 13.3125v351.231
c0 9.2168 -3.07227 13.3125 -13.3125 13.3125c-23.5518 -1.02441 -48.1279 0 -71.6797 0c-10.2402 0 -13.3115 3.07227 -12.2881 13.3115v145.408c0 10.2402 3.07227 12.2881 12.2881 12.2881h404.48c9.21582 0 11.2637 -3.07227 11.2637 -12.2881v-147.456
c0 -9.21582 -2.04785 -12.2881 -11.2637 -12.2881h-67.584c-27.6484 0 -23.5527 2.04883 -23.5527 -22.5273c2.04883 -83.9688 2.04883 -166.912 2.04883 -250.88zM662.528 -26.3115c0 62.4639 50.1758 111.615 112.64 111.615s112.64 -50.1758 112.64 -112.64
c1.02441 -63.4883 -49.1514 -113.664 -112.64 -113.664s-112.64 50.1758 -112.64 114.688z" />
</svg>
