<?xml version="1.0" encoding="UTF-8"?>
<svg width="962px" height="1027px" viewBox="0 0 962 1027" version="1.1" xmlns="http://www.w3.org/2000/svg" xmlns:xlink="http://www.w3.org/1999/xlink">
  <g id="Fiverr" transform="translate(0.7262, 0.6137)" fill="currentColor" fill-rule="nonzero">
    <path d="M860.15946,580.6085 L860.15946,326.6565 C860.15946,313.344 857.08719,310.2727 843.77466,310.2727 L373.75866,310.2727 C360.44616,310.2727 342.01456,316.41625 333.82216,307.20043 C326.65419,299.00805 331.77431,281.59983 331.77431,268.28833 C331.77431,224.25613 360.44621,195.58423 404.47841,195.58423 L473.08681,195.58423 C482.30263,195.58423 486.39831,193.53638 486.39831,183.29613 C485.37487,133.12033 485.37487,81.92013 486.39831,31.74413 C486.39831,20.48043 482.30261,18.43163 473.08681,18.43163 C431.10241,19.45604 389.11901,18.43163 347.13481,19.45604 C295.93461,20.48045 248.83111,33.79194 205.82281,60.41604 C138.23881,103.42384 97.27881,161.79204 101.37581,245.76004 C102.39925,263.16824 101.37581,280.57644 101.37581,299.00804 C101.37581,308.22386 98.30354,311.29614 89.08771,311.29614 L15.35921,311.29614 C4.09551,311.29614 1.02331,315.39184 1.02331,325.63204 C2.04772,371.71214 2.04772,416.76774 1.02331,462.84804 C1.02331,474.11264 5.11999,477.18394 16.38371,477.18394 C39.93551,476.1605 64.51161,477.18394 88.06341,477.18394 C98.30361,477.18394 101.37591,480.25621 101.37591,490.49644 C100.3515,606.20844 100.3515,722.94444 100.3515,838.65644 C100.3515,850.94454 96.2558,852.99234 84.9921,852.99234 C61.4394,851.96793 37.8876,852.99234 14.3359,852.99234 C3.0713,852.99234 2.13162821e-14,857.08804 2.13162821e-14,867.32824 C2.13162821e-14,915.45614 1.02344,963.58414 2.13162821e-14,1010.68824 C2.13162821e-14,1021.95194 3.07129,1025.02414 14.3359,1025.02414 L415.7439,1025.02414 C425.9832,1025.02414 430.0798,1022.97531 430.0798,1011.71164 C429.05539,963.58374 429.05539,915.45574 430.0798,868.35164 C430.0798,857.08794 425.98312,854.01574 415.7439,854.01574 C392.1912,855.04015 367.615,854.01574 344.0632,854.01574 C334.84738,854.01574 330.7517,850.94445 330.7517,841.72764 L330.7517,488.44864 C330.7517,479.23282 333.82299,477.18404 343.0398,477.18404 L617.4718,477.18404 C627.712,477.18404 629.7599,481.28072 629.7599,490.49654 L629.7599,841.72754 C629.7599,850.94434 626.68763,855.04004 616.4474,855.04004 C592.8956,854.01563 568.3195,855.04004 544.7677,855.04004 C534.5275,855.04004 531.4562,858.11231 532.4796,868.35154 L532.4796,1013.75954 C532.4796,1023.99974 535.55187,1026.04764 544.7677,1026.04764 L949.2477,1026.04764 C958.46352,1026.04764 960.5114,1022.97537 960.5114,1013.75954 L960.5114,866.30354 C960.5114,857.08772 958.46355,854.01544 949.2477,854.01544 L881.6637,854.01544 C854.0153,854.01544 858.111,856.06427 858.111,831.48814 C860.15983,747.51934 860.15983,664.57614 860.15983,580.60814 L860.15946,580.6085 Z M632.83146,114.689 C632.83146,177.1529 683.00726,226.304 745.47146,226.304 C807.93566,226.304 858.11146,176.1282 858.11146,113.664 C859.13587,50.1757 808.96006,0 745.47146,0 C681.98286,0 632.83146,50.1758 632.83146,114.688 L632.83146,114.689 Z"></path>
  </g>
</svg>