<?xml version="1.0" encoding="UTF-8"?>
<svg width="737px" height="737px" viewBox="0 0 737 737" version="1.1" xmlns="http://www.w3.org/2000/svg" xmlns:xlink="http://www.w3.org/1999/xlink">
  <g id="Flash" transform="translate(0.5383, 0.4253)" fill="currentColor" fill-rule="nonzero">
    <path d="M368,0 C571.241,0 736,164.759 736,368 C736,571.241 571.241,736 368,736 C164.759,736 0,571.241 0,368 C0,164.759 164.759,0 368,0 Z M536,152 L526.84375,152.030273 C522.22266,152.113281 514.23635,152.74414 508.20805,153.509763 L507.630902,153.583982 C501.386762,154.403318 491.523502,156.243162 485.286202,157.742182 L484.631905,157.901362 C478.636785,159.380852 470.507905,161.822262 466.238305,163.416982 L465.848657,163.564443 C463.334987,164.527334 459.420927,166.216783 455.487357,168.017563 L454.306697,168.560532 C452.418027,169.434555 450.556697,170.320302 448.876037,171.148422 L448.167053,171.499008 C442.590883,174.275378 433.911153,179.289048 428.877053,182.640608 C424.016703,185.877908 416.638753,191.398418 412.157353,195.139608 L411.688603,195.534139 C407.266723,199.273399 400.485503,205.865239 396.617303,210.183539 L395.588003,211.340769 C394.353623,212.737249 393.016713,214.282179 391.689563,215.839789 L390.085073,217.735299 C388.214953,219.958929 386.461053,222.095649 385.164173,223.743109 L384.670032,224.374945 C381.967882,227.862245 376.370232,235.813445 372.232532,242.045845 L371.541126,243.100535 C367.512806,249.318305 361.690536,259.503835 358.017726,266.771435 L357.398585,268.012645 C354.595855,273.700145 349.572415,284.879845 344.508985,296.619045 L343.102735,299.889555 C341.659375,303.261625 340.228715,306.641505 338.863475,309.914955 L338.184764,311.541905 C336.896674,314.643465 335.544144,317.924715 334.171094,321.272375 L330.084184,331.295775 C326.063674,341.208865 322.252154,350.758675 319.782384,357.137575 L317.628084,362.743045 C313.976714,372.188355 309.318514,383.726445 306.719884,389.727445 L306.117345,391.115145 C303.194495,397.807525 298.821445,407.448145 296.037245,413.323145 L295.433729,414.581935 C292.396619,420.857325 287.675919,429.725535 284.560729,434.982335 L283.936706,436.026285 C280.622256,441.529215 275.965026,448.612185 273.247206,452.261685 C270.353656,456.147425 265.005996,462.046845 261.363406,465.372085 C257.719856,468.697285 252.114386,473.074235 248.906406,475.096695 C245.697426,477.121105 240.008946,480.146495 236.264806,481.820325 C232.521646,483.494155 225.491406,485.799815 220.641806,486.945325 C215.794146,488.089855 207.366406,489.338875 201.914306,489.719735 L192.001216,490.413094 L192.001216,576 L206.200416,575.352533 C214.717996,574.964838 225.545116,573.649413 233.259016,572.064443 L234.499246,571.803701 C241.254126,570.362291 250.128146,568.060541 255.142846,566.443351 L255.60183,566.29296 C260.81863,564.57226 269.96313,560.87011 275.92313,558.0664 C281.88309,555.26171 291.29613,549.98828 296.83813,546.3467 C302.3811,542.70608 311.20043,536.0752 316.43673,531.6133 C321.67403,527.15139 329.20433,519.752 333.17013,515.1719 C336.99435,510.75588 342.73751,503.5371 346.19263,498.8106 L346.566653,498.295952 C349.968023,493.593802 355.429933,485.322352 358.704353,479.913152 L359.268806,478.96784 C362.484626,473.53815 367.363536,464.40334 370.618406,457.71104 L371.350828,456.19053 C373.320558,452.07627 375.993408,446.31748 378.630128,440.52943 L380.464108,436.48451 C381.607658,433.95228 382.708248,431.48939 383.704338,429.23549 L385.874258,424.32045 C389.265858,416.69838 392.335198,410.14955 393.065668,409.00995 L393.236566,408.748231 C394.554926,406.787291 396.139886,406.643741 432.497266,406.633971 L458.989466,406.624206 C487.416266,406.576354 489.142766,406.290222 490.907466,404.599796 L491.089107,404.421085 L491.271724,404.235538 L491.385982,404.110538 C492.648682,402.698428 493.022702,400.724798 493.032462,386.584138 L493.01879,380.499178 C493.005118,377.241368 492.981681,373.507968 492.949454,369.222778 L492.847892,356.669078 C492.607658,330.876078 492.208244,322.885878 491.203362,321.894678 C490.143792,320.849758 482.631092,320.448388 459.743362,320.211088 L448.800962,320.089994 C429.905462,319.845853 429.738462,319.506986 430.105662,317.126124 L430.118358,317.041163 C430.357616,315.502103 432.959178,309.635893 435.948438,303.886863 L436.138868,303.519675 C439.207227,297.656395 444.701368,288.383975 448.349768,282.917175 C451.999178,277.450375 458.689568,269.317575 463.217968,264.844875 C467.747268,260.373195 474.877168,254.529475 479.063668,251.860475 C483.249218,249.191525 489.897668,245.809695 493.838068,244.347775 C497.632988,242.940545 504.375168,240.923945 509.121268,239.772575 L510.985527,239.324333 C515.080258,238.321403 518.231617,237.426873 521.709128,237.271603 C525.461077,236.779415 529.519678,237.098751 536,236.543087 L536,152 L536,152 Z"></path>
  </g>
</svg>