<?xml version="1.0" standalone="no"?>
<!DOCTYPE svg PUBLIC "-//W3C//DTD SVG 1.1//EN" "http://www.w3.org/Graphics/SVG/1.1/DTD/svg11.dtd" >
<svg xmlns="http://www.w3.org/2000/svg" xmlns:xlink="http://www.w3.org/1999/xlink" version="1.1" viewBox="-10 0 1034 1024">
   <path fill="currentColor"
d="M512 3c203.241 0 368 164.759 368 368s-164.759 368 -368 368s-368 -164.759 -368 -368s164.759 -368 368 -368zM680 155l-9.15625 0.0302734c-4.62109 0.0830078 -12.6074 0.713867 -18.6357 1.47949l-0.577148 0.0742188
c-6.24414 0.819336 -16.1074 2.65918 -22.3447 4.1582l-0.654297 0.15918c-5.99512 1.47949 -14.124 3.9209 -18.3936 5.51562l-0.389648 0.147461c-2.51367 0.962891 -6.42773 2.65234 -10.3613 4.45312l-1.18066 0.542969
c-1.88867 0.874023 -3.75 1.75977 -5.43066 2.58789l-0.708984 0.350586c-5.57617 2.77637 -14.2559 7.79004 -19.29 11.1416c-4.86035 3.2373 -12.2383 8.75781 -16.7197 12.499l-0.46875 0.394531c-4.42188 3.73926 -11.2031 10.3311 -15.0713 14.6494l-1.0293 1.15723
c-1.23438 1.39648 -2.57129 2.94141 -3.89844 4.49902l-1.60449 1.89551c-1.87012 2.22363 -3.62402 4.36035 -4.9209 6.00781l-0.494141 0.631836c-2.70215 3.4873 -8.2998 11.4385 -12.4375 17.6709l-0.691406 1.05469
c-4.02832 6.21777 -9.85059 16.4033 -13.5234 23.6709l-0.619141 1.24121c-2.80273 5.6875 -7.82617 16.8672 -12.8896 28.6064l-1.40625 3.27051c-1.44336 3.37207 -2.87402 6.75195 -4.23926 10.0254l-0.678711 1.62695
c-1.28809 3.10156 -2.64062 6.38281 -4.01367 9.73047l-4.08691 10.0234c-4.02051 9.91309 -7.83203 19.4629 -10.3018 25.8418l-2.1543 5.60547c-3.65137 9.44531 -8.30957 20.9834 -10.9082 26.9844l-0.602539 1.3877c-2.92285 6.69238 -7.2959 16.333 -10.0801 22.208
l-0.603516 1.25879c-3.03711 6.27539 -7.75781 15.1436 -10.873 20.4004l-0.624023 1.04395c-3.31445 5.50293 -7.97168 12.5859 -10.6895 16.2354c-2.89355 3.88574 -8.24121 9.78516 -11.8838 13.1104c-3.64355 3.3252 -9.24902 7.70215 -12.457 9.72461
c-3.20898 2.02441 -8.89746 5.0498 -12.6416 6.72363c-3.74316 1.67383 -10.7734 3.97949 -15.623 5.125c-4.84766 1.14453 -13.2754 2.39355 -18.7275 2.77441l-9.91309 0.693359v85.5869l14.1992 -0.647461c8.51758 -0.387695 19.3447 -1.70312 27.0586 -3.28809
l1.24023 -0.260742c6.75488 -1.44141 15.6289 -3.74316 20.6436 -5.36035l0.458984 -0.150391c5.2168 -1.7207 14.3613 -5.42285 20.3213 -8.22656c5.95996 -2.80469 15.373 -8.07812 20.915 -11.7197c5.54297 -3.64062 14.3623 -10.2715 19.5986 -14.7334
c5.2373 -4.46191 12.7676 -11.8613 16.7334 -16.4414c3.82422 -4.41602 9.56738 -11.6348 13.0225 -16.3613l0.374023 -0.514648c3.40137 -4.70215 8.86328 -12.9736 12.1377 -18.3828l0.564453 -0.945312c3.21582 -5.42969 8.09473 -14.5645 11.3496 -21.2568
l0.732422 -1.52051c1.96973 -4.11426 4.64258 -9.87305 7.2793 -15.6611l1.83398 -4.04492c1.14355 -2.53223 2.24414 -4.99512 3.24023 -7.24902l2.16992 -4.91504c3.3916 -7.62207 6.46094 -14.1709 7.19141 -15.3105l0.170898 -0.261719
c1.31836 -1.96094 2.90332 -2.10449 39.2607 -2.11426l26.4922 -0.00976562c28.4268 -0.0478516 30.1533 -0.333984 31.918 -2.02441l0.181641 -0.178711l0.182617 -0.185547l0.114258 -0.125c1.2627 -1.41211 1.63672 -3.38574 1.64648 -17.5264l-0.0136719 -6.08496
c-0.0136719 -3.25781 -0.0371094 -6.99121 -0.0693359 -11.2764l-0.101562 -12.5537c-0.240234 -25.793 -0.639648 -33.7832 -1.64453 -34.7744c-1.05957 -1.04492 -8.57227 -1.44629 -31.46 -1.68359l-10.9424 -0.121094
c-18.8955 -0.244141 -19.0625 -0.583008 -18.6953 -2.96387l0.0126953 -0.0849609c0.239258 -1.53906 2.84082 -7.40527 5.83008 -13.1543l0.19043 -0.367188c3.06836 -5.86328 8.5625 -15.1357 12.2109 -20.6025c3.64941 -5.4668 10.3398 -13.5996 14.8682 -18.0723
c4.5293 -4.47168 11.6592 -10.3154 15.8457 -12.9844c4.18555 -2.66895 10.834 -6.05078 14.7744 -7.5127c3.79492 -1.40723 10.5371 -3.42383 15.2832 -4.5752l1.86426 -0.448242c4.09473 -1.00293 7.24609 -1.89746 10.7236 -2.05273
c3.75195 -0.492188 7.81055 -0.172852 14.2881 -0.728516v-84.542z" />
</svg>
