<?xml version="1.0" encoding="UTF-8"?>
<svg width="1025px" height="1025px" viewBox="0 0 1025 1025" version="1.1" xmlns="http://www.w3.org/2000/svg" xmlns:xlink="http://www.w3.org/1999/xlink">
  <g id="Flattr" transform="translate(0.2781, 0.0926)" fill="currentColor" fill-rule="nonzero">
    <path d="M1024,624 C1024,690 1016,756 992,820 C950,928 872,990 760,1014 C726,1022 692,1024 658,1024 L82,1024 L74,1024 L74,1022 L182,914 L480,616 C482,614 482,612 484,612 C490,606 494,602 502,606 C510,610 512,616 512,624 L512,776 L512,786 C512,786 516,788 516,788 C560,788 604,788 646,786 C662,784 680,780 694,774 C742,758 768,722 776,674 C782,648 784,622 784,594 C786,504 786,412 786,320 C786,314 786,310 792,306 C866,230 940,156 1016,82 C1018,80 1018,76 1020,74 C1022,74 1024,74 1024,76 L1024,84 L1024,624 Z M238,704 C238,614 238,524 240,436 C240,408 242,380 246,352 C256,300 284,264 336,248 C346,244 358,240 368,240 C416,238 462,238 510,236 L512,238 L512,246 L512,396 C512,400 510,402 512,404 C514,410 518,414 522,418 C526,422 532,418 538,414 L544,408 L944,8 C946,6 948,0 952,0 L942,0 L366,0 C332,0 298,2 266,10 C150,34 70,100 30,212 C8,274 0,338 0,402 L0,940 L0,950 C4,948 6,946 8,944 C82,868 158,794 232,718 C236,714 238,710 238,704 Z"></path>
  </g>
</svg>