<?xml version="1.0" standalone="no"?>
<!DOCTYPE svg PUBLIC "-//W3C//DTD SVG 1.1//EN" "http://www.w3.org/Graphics/SVG/1.1/DTD/svg11.dtd" >
<svg xmlns="http://www.w3.org/2000/svg" xmlns:xlink="http://www.w3.org/1999/xlink" version="1.1" viewBox="-10 0 1044 1024">
   <path fill="currentColor"
d="M1024 483c0 66 -8 132 -32 196c-42 108 -120 170 -232 194c-34 8 -68 10 -102 10h-576h-8v-2l108 -108l298 -298c2 -2 2 -4 4 -4c6 -6 10 -10 18 -6s10 10 10 18v152v10s4 2 4 2c44 0 88 0 130 -2c16 -2 34 -6 48 -12c48 -16 74 -52 82 -100c6 -26 8 -52 8 -80
c2 -90 2 -182 2 -274c0 -6 0 -10 6 -14c74 -76 148 -150 224 -224c2 -2 2 -6 4 -8c2 0 4 0 4 2v8v540zM238 563c0 -90 0 -180 2 -268c0 -28 2 -56 6 -84c10 -52 38 -88 90 -104c10 -4 22 -8 32 -8c48 -2 94 -2 142 -4l2 2v8v150c0 4 -2 6 0 8c2 6 6 10 10 14s10 0 16 -4
l6 -6l400 -400c2 -2 4 -8 8 -8h-10h-576c-34 0 -68 2 -100 10c-116 24 -196 90 -236 202c-22 62 -30 126 -30 190v538v10c4 -2 6 -4 8 -6c74 -76 150 -150 224 -226c4 -4 6 -8 6 -14z" />
</svg>
