<?xml version="1.0" encoding="UTF-8"?>
<svg width="905px" height="899px" viewBox="0 0 905 899" version="1.1" xmlns="http://www.w3.org/2000/svg" xmlns:xlink="http://www.w3.org/1999/xlink">
  <g id="FlightRising" transform="translate(0.4627, 0.711)" fill="currentColor" fill-rule="nonzero">
    <path d="M377.119964,-1.42108547e-14 C390.541864,42.0479 397.241064,63.0713 397.220564,63.0713 C556.189564,33.6611 638.048564,18.5147 642.797564,17.6328 L642.9919,17.5966672 C684.9519,118.167667 740.2155,192.813667 808.8039,241.527667 C761.7766,306.797167 733.8166,349.631667 724.924,370.027667 L813.3039,427.956367 C822.25898,511.723967 852.384,567.831367 903.6799,596.275367 C857.1067,673.720667 798.3119,743.459367 727.2959,805.487367 C691.6582,788.575267 673.8271,780.119167 673.8037,780.119167 C600.6064,858.522467 563.9987,897.723167 563.9797,897.723167 C504.4807,869.387267 446.7397,828.976067 390.7557,776.491167 C379.1629,812.392567 362.5516,843.431567 340.9198,869.607367 C268.7147,848.452067 198.3128,797.347567 129.7158,716.292367 C162.0869,692.659567 165.8994,650.889067 141.1553,590.980367 C120.5264,594.009667 110.1992,595.524317 110.1758,595.524317 C85.2363,495.732317 52.211,425.159317 11.0957,383.804317 C20.86328,356.366817 25.7363,342.637317 25.7158,342.615817 C71.1474,331.963517 93.8515,326.636317 93.8271,326.636317 C78.3583,286.761317 47.083,270.564017 -5.68434189e-14,278.044517 C5.5166,251.992717 8.27539,238.968317 8.27539,238.968317 C47.54199,185.102117 78.10549,59.1293172 79.90329,51.6183172 L79.9775088,51.3067942 C79.9833682,51.280427 79.9862979,51.2677317 79.9862979,51.2677317 C79.9862979,51.2677317 80.0468448,51.2569895 80.1659859,51.2345286 L80.4804389,51.1759348 C86.6943089,50.0167548 150.452139,38.1075348 215.310439,25.3751348 L228.521339,22.7725948 C265.896339,15.3848948 302.361139,7.9463948 327.057439,2.3672948 C359.217639,0.8467848 375.881639,0.0577248 377.051539,-1.42108547e-14 L377.116969,-1.42108547e-14 L377.118922,-1.42108547e-14 L377.119964,-1.42108547e-14 Z M610.963964,58.9069654 C610.963964,58.9069654 605.268654,60.05476 595.869264,61.94734 L592.780394,62.56941 C550.549894,71.07527 447.907394,91.74911 427.968394,95.76471 L426.513314,96.057679 C425.252574,96.311585 424.581674,96.446351 424.581674,96.446351 L475.276974,140.710951 C423.031874,192.246151 399.777974,244.405951 405.517174,297.189951 C428.660774,375.059051 466.625574,435.412951 519.409174,478.250951 C519.486322,478.229467 478.704074,486.619111 397.061174,503.422851 C397.061174,503.422851 404.240864,513.529251 418.601174,533.742151 C418.625588,533.742151 428.389264,532.386681 447.893174,529.674771 C448.066026,529.698209 453.071884,555.891571 462.908774,608.254871 C468.314044,657.878871 462.461508,692.266571 445.349174,711.418871 C495.983974,771.034071 541.827674,810.037971 582.881174,828.430871 C609.731774,794.794171 643.639974,764.283371 684.605174,736.902571 C645.119774,715.785371 620.035874,683.490471 609.353174,640.018771 C609.353174,640.018771 609.135401,638.739471 608.698877,636.181861 L608.535791,635.225806 C606.214501,621.602806 598.942041,578.940606 586.721291,507.238806 C586.744729,507.238806 608.829691,522.470206 652.977191,552.931206 L639.093391,577.007406 C639.996711,651.338506 675.805291,705.716406 746.517391,740.143406 L746.567196,740.091648 C748.127746,738.408058 785.796696,696.249848 859.573196,613.614648 C808.117096,592.321648 780.000896,536.599048 775.221596,446.446648 L775.129799,446.379265 C773.234289,444.973995 741.974499,421.798165 681.349499,376.850965 C687.528209,350.975965 713.190299,309.435965 758.337799,252.230965 C664.288999,183.251465 610.965799,58.9069654 610.965799,58.9069654 L610.963964,58.9069654 Z M347.735964,36.7352803 C294.832664,50.1915 216.243964,66.0206 111.971964,84.2237 C101.064764,139.7305 86.942664,184.3397 69.603764,218.0517 C69.603764,218.0517 94.335164,227.45893 143.796164,246.2714 C143.796164,246.2714 150.351824,280.412 163.464164,348.6954 C163.464164,348.6954 136.457364,354.26669 82.443664,365.4073 C122.435864,407.7462 147.768864,457.1983 158.443664,513.7633 C158.443664,513.7633 170.074564,511.62658 193.336264,507.35119 C193.336264,507.35119 198.847004,536.38829 209.867464,594.46349 C218.190704,623.86579 215.358674,649.68619 201.371374,671.92349 C269.246374,739.94989 318.647374,778.52249 349.575374,787.63949 C362.759974,750.87489 384.879074,706.27619 415.931774,653.84749 C379.718874,636.36999 357.527474,608.53209 349.359474,570.33579 C349.359474,570.33579 344.040134,539.89149 333.399474,479.00379 C333.399474,479.00379 374.264674,469.81922 455.995474,451.45109 C416.004274,411.33679 388.491574,363.57019 373.460274,308.15109 L373.322579,308.177457 C371.306959,308.555387 347.116479,313.090547 300.752279,321.782957 L300.749349,321.738035 L300.729818,321.59448 C300.305013,318.57397 293.866538,279.31808 281.416318,203.82648 C281.394834,203.82648 288.654598,189.97588 303.195618,162.27468 C303.220032,162.27468 307.044248,187.53348 314.668318,238.05108 C314.668318,238.05108 332.396818,249.22788 367.855818,271.58328 C371.316758,218.86548 391.072618,175.47878 427.124418,141.42328 C389.303118,114.39598 362.840218,79.5003803 347.735718,36.7352803 L347.735964,36.7352803 Z M574.559964,198.3556 C559.632264,209.8117 547.625364,234.6691 538.540464,272.9279 C538.540464,272.9279 544.248474,304.507 555.663464,367.6633 C555.663464,367.6633 589.487664,290.636 618.800164,264.7163 C603.495464,249.0893 588.749364,226.9692 574.559964,198.3556 L574.559964,198.3556 Z"></path>
  </g>
</svg>