<?xml version="1.0" standalone="no"?>
<!DOCTYPE svg PUBLIC "-//W3C//DTD SVG 1.1//EN" "http://www.w3.org/Graphics/SVG/1.1/DTD/svg11.dtd" >
<svg xmlns="http://www.w3.org/2000/svg" xmlns:xlink="http://www.w3.org/1999/xlink" version="1.1" viewBox="-10 0 1034 1024">
   <path fill="currentColor"
d="M438.56 -79.5596c13.4219 42.0479 20.1211 63.0713 20.1006 63.0713c158.969 -29.4102 240.828 -44.5566 245.577 -45.4385l0.194336 -0.0361328c41.96 100.571 97.2236 175.217 165.812 223.931c-47.0273 65.2695 -74.9873 108.104 -83.8799 128.5l88.3799 57.9287
c8.95508 83.7676 39.0801 139.875 90.376 168.319c-46.5732 77.4453 -105.368 147.184 -176.384 209.212c-35.6377 -16.9121 -53.4688 -25.3682 -53.4922 -25.3682c-73.1973 78.4033 -109.805 117.604 -109.824 117.604
c-59.499 -28.3359 -117.24 -68.7471 -173.224 -121.232c-11.5928 35.9014 -28.2041 66.9404 -49.8359 93.1162c-72.2051 -21.1553 -142.607 -72.2598 -211.204 -153.315c32.3711 -23.6328 36.1836 -65.4033 11.4395 -125.312
c-20.6289 3.0293 -30.9561 4.54395 -30.9795 4.54395c-24.9395 -99.792 -57.9648 -170.365 -99.0801 -211.72c9.76758 -27.4375 14.6406 -41.167 14.6201 -41.1885c45.4316 -10.6523 68.1357 -15.9795 68.1113 -15.9795
c-15.4688 -39.875 -46.7441 -56.0723 -93.8271 -48.5918c5.5166 -26.0518 8.27539 -39.0762 8.27539 -39.0762c39.2666 -53.8662 69.8301 -179.839 71.6279 -187.35l0.0742188 -0.311523c0.00585938 -0.0263672 0.00878906 -0.0390625 0.00878906 -0.0390625
s0.0605469 -0.0107422 0.179688 -0.0332031l0.314453 -0.0585938c6.21387 -1.15918 69.9717 -13.0684 134.83 -25.8008l13.2109 -2.60254c37.375 -7.3877 73.8398 -14.8262 98.5361 -20.4053c32.1602 -1.52051 48.8242 -2.30957 49.9941 -2.36426l0.0654297 -0.00292969
h0.00195312zM672.404 -20.6523c0 0 -5.69531 1.14746 -15.0947 3.04004l-3.08887 0.62207c-42.2305 8.50586 -144.873 29.1797 -164.812 33.1953l-1.45508 0.292969c-1.26074 0.253906 -1.93164 0.388672 -1.93164 0.388672l50.6953 44.2646
c-52.2451 51.5352 -75.499 103.695 -69.7598 156.479c23.1436 77.8691 61.1084 138.223 113.892 181.061c0.0771484 -0.0214844 -40.7051 8.36816 -122.348 25.1719c0 0 7.17969 10.1064 21.54 30.3193c0.0244141 0 9.78809 -1.35547 29.292 -4.06738
c0.172852 0.0234375 5.17871 26.2168 15.0156 78.5801c5.40527 49.624 -0.447266 84.0117 -17.5596 103.164c50.6348 59.6152 96.4785 98.6191 137.532 117.012c26.8506 -33.6367 60.7588 -64.1475 101.724 -91.5283c-39.4854 -21.1172 -64.5693 -53.4121 -75.252 -96.8838
c0 0 -0.217773 -1.2793 -0.654297 -3.83691l-0.163086 -0.956055c-2.32129 -13.623 -9.59375 -56.2852 -21.8145 -127.987c0.0234375 0 22.1084 15.2314 66.2559 45.6924l-13.8838 24.0762c0.90332 74.3311 36.7119 128.709 107.424 163.136l0.0498047 -0.0517578
c1.56055 -1.68359 39.2295 -43.8418 113.006 -126.477c-51.4561 -21.293 -79.5723 -77.0156 -84.3516 -167.168l-0.0917969 -0.0673828c-1.89551 -1.40527 -33.1553 -24.5811 -93.7803 -69.5283c6.17871 -25.875 31.8408 -67.415 76.9883 -124.62
c-94.0488 -68.9795 -147.372 -193.324 -147.372 -193.324zM409.176 -42.8242c-52.9033 13.4561 -131.492 29.2852 -235.764 47.4883c-10.9072 55.5068 -25.0293 100.116 -42.3682 133.828c0 0 24.7314 9.40723 74.1924 28.2197c0 0 6.55566 34.1406 19.668 102.424
c0 0 -27.0068 5.57129 -81.0205 16.7119c39.9922 42.3389 65.3252 91.791 76 148.356c0 0 11.6309 -2.13672 34.8926 -6.41211c0 0 5.51074 29.0371 16.5312 87.1123c8.32324 29.4023 5.49121 55.2227 -8.49609 77.46c67.875 68.0264 117.276 106.599 148.204 115.716
c13.1846 -36.7646 35.3037 -81.3633 66.3564 -133.792c-36.2129 -17.4775 -58.4043 -45.3154 -66.5723 -83.5117c0 0 -5.31934 -30.4443 -15.96 -91.332c0 0 40.8652 -9.18457 122.596 -27.5527c-39.9912 -40.1143 -67.5039 -87.8809 -82.5352 -143.3l-0.137695 0.0263672
c-2.01562 0.37793 -26.2061 4.91309 -72.5703 13.6055l-0.00292969 -0.0449219l-0.0195312 -0.143555c-0.424805 -3.02051 -6.86328 -42.2764 -19.3135 -117.768c-0.0214844 0 7.23828 -13.8506 21.7793 -41.5518c0.0244141 0 3.84863 25.2588 11.4727 75.7764
c0 0 17.7285 11.1768 53.1875 33.5322c3.46094 -52.7178 23.2168 -96.1045 59.2686 -130.16c-37.8213 -27.0273 -64.2842 -61.9229 -79.3887 -104.688zM636 118.796c-14.9277 11.4561 -26.9346 36.3135 -36.0195 74.5723c0 0 5.70801 31.5791 17.123 94.7354
c0 0 33.8242 -77.0273 63.1367 -102.947c-15.3047 -15.627 -30.0508 -37.7471 -44.2402 -66.3604z" />
</svg>
