<?xml version="1.0" encoding="UTF-8"?>
<svg width="280px" height="280px" viewBox="0 0 280 280" version="1.1" xmlns="http://www.w3.org/2000/svg" xmlns:xlink="http://www.w3.org/1999/xlink">
    <title>Forgejo</title>
    <g id="Forgejo" stroke="none" stroke-width="1" fill="none" fill-rule="evenodd">
        <path d="M185.99993,21 C200.91158,21 212.99986,33.0882804 212.99986,47.99993 C212.99986,62.9115796 200.91158,74.99986 185.99993,74.99986 C176.005838,74.99986 167.279991,69.5698605 162.611682,61.4991546 L151.49993,61.4999525 C127.199413,61.4999525 107.499953,81.1994134 107.499953,105.49993 L107.498299,124.524977 C119.595349,114.959862 134.880824,109.249908 151.49993,109.249908 L162.612257,109.24971 C167.280709,101.179553 176.006249,95.75 185.99993,95.75 C200.91158,95.75 212.99986,107.83828 212.99986,122.74993 C212.99986,137.66158 200.91158,149.74986 185.99993,149.74986 C176.005838,149.74986 167.279991,144.31986 162.611682,136.249155 L151.49993,136.249953 C127.199413,136.249953 107.499953,155.949413 107.499953,180.24993 L107.499155,208.611682 C115.56986,213.279991 120.99986,222.005838 120.99986,231.99993 C120.99986,246.91158 108.91158,258.99986 93.99993,258.99986 C79.0882804,258.99986 67,246.91158 67,231.99993 C67,222.006249 72.4295532,213.280709 80.4997103,208.612257 L80.4999075,105.49993 C80.4999075,66.2877003 112.2877,34.4999075 151.49993,34.4999075 L162.612257,34.4997103 C167.280709,26.4295532 176.006249,21 185.99993,21 Z M93.99993,220.99995 C87.9248088,220.99995 82.99995,225.924809 82.99995,231.99993 C82.99995,238.075051 87.9248088,242.99991 93.99993,242.99991 C100.075051,242.99991 104.99991,238.075051 104.99991,231.99993 C104.99991,225.924809 100.075051,220.99995 93.99993,220.99995 Z M185.99993,111.74995 C179.924809,111.74995 174.99995,116.674809 174.99995,122.74993 C174.99995,128.825051 179.924809,133.74991 185.99993,133.74991 C192.075051,133.74991 196.99991,128.825051 196.99991,122.74993 C196.99991,116.674809 192.075051,111.74995 185.99993,111.74995 Z M185.99993,36.99995 C179.924809,36.99995 174.99995,41.9248088 174.99995,47.99993 C174.99995,54.0750512 179.924809,58.99991 185.99993,58.99991 C192.075051,58.99991 196.99991,54.0750512 196.99991,47.99993 C196.99991,41.9248088 192.075051,36.99995 185.99993,36.99995 Z" id="Shape" fill="#000000" fill-rule="nonzero"></path>
    </g>
</svg>