<?xml version="1.0" standalone="no"?>
<!DOCTYPE svg PUBLIC "-//W3C//DTD SVG 1.1//EN" "http://www.w3.org/Graphics/SVG/1.1/DTD/svg11.dtd" >
<svg xmlns="http://www.w3.org/2000/svg" xmlns:xlink="http://www.w3.org/1999/xlink" version="1.1" viewBox="-10 0 1034 1024">
   <path fill="currentColor"
d="M788 -141h-546c-74 0 -96 56 -96 92v868c0 40 20 56 32 60c14 6 46 10 66 -14c0 0 258 -300 262 -304c8 -6 8 -6 14 -6h168c70 0 80 -50 88 -80c6 -24 74 -374 98 -486c16 -84 -4 -130 -86 -130zM776 475c6 -24 74 -374 98 -486zM756 7l-22 120c-4 12 -20 26 -34 26h-214
c-24 0 -40 16 -40 40v26c0 24 16 40 40 40h182c16 0 32 20 30 38c-4 18 -22 108 -24 118c-2 8 -12 26 -34 26h-146c-28 0 -36 4 -54 26s-178 216 -178 216c-2 2 -4 2 -4 0v-678c0 -16 14 -34 34 -34h438c16 0 30 16 26 36z" />
</svg>
