<?xml version="1.0" encoding="UTF-8"?>
<svg width="734px" height="1025px" viewBox="0 0 734 1025" version="1.1" xmlns="http://www.w3.org/2000/svg" xmlns:xlink="http://www.w3.org/1999/xlink">
  <g id="FourSquare" transform="translate(0.4955, 0.4253)" fill="currentColor" fill-rule="nonzero">
    <path d="M642,0 L96,0 C22,0 5.68434189e-14,56 5.68434189e-14,92 L5.68434189e-14,960 C5.68434189e-14,1000 20,1016 32,1020 C46,1026 78,1030 98,1006 C98,1006 356,706 360,702 C368,696 368,696 374,696 L542,696 C612,696 622,646 630,616 C636,592 704,242 728,130 C744,46 724,0 642,0 Z M630,616 C636,592 704,242 728,130 L630,616 Z M610,148 L588,268 C584,280 568,294 554,294 L340,294 C316,294 300,310 300,334 L300,360 C300,384 316,400 340,400 L522,400 C538,400 554,420 552,438 C548,456 530,546 528,556 C526,564 516,582 494,582 L348,582 C320,582 312,586 294,608 C276,630 116,824 116,824 C114,826 112,826 112,824 L112,146 C112,130 126,112 146,112 L584,112 C600,112 614,128 610,148 Z"></path>
  </g>
</svg>