<?xml version="1.0" encoding="UTF-8"?>
<svg width="1025px" height="763px" viewBox="0 0 1025 763" version="1.1" xmlns="http://www.w3.org/2000/svg" xmlns:xlink="http://www.w3.org/1999/xlink">
  <g id="Freelancer" transform="translate(0.9718, 0.6046)" fill="currentColor" fill-rule="nonzero">
    <path d="M601.0878,-3.55271368e-15 L670.7198,98.3037 L1023.9998,-3.55271368e-15 L601.0878,-3.55271368e-15 L601.0878,-3.55271368e-15 Z M234.496,761.85573 L425.984,575.48773 L311.296,452.60773 L234.496,761.85573 Z M572.416,-3.55271368e-15 L470.016,92.1602 L642.048,98.30375 L572.416,-3.55271368e-15 Z M176.128,-3.55271368e-15 L212.9923,74.752 L414.7203,87.0401 L176.128,-3.55271368e-15 Z M283.648,389.11973 L433.152,110.59173 L0,88.06343 L283.648,389.11973 Z M301.056,407.55173 L442.368,559.10373 L598.015,406.52773 L646.1429,122.88073 L456.7039,113.66491 L301.056,407.55173 Z"></path>
  </g>
</svg>