<?xml version="1.0" encoding="UTF-8"?>
<svg width="1024px" height="989px" viewBox="0 0 1024 989" version="1.1" xmlns="http://www.w3.org/2000/svg" xmlns:xlink="http://www.w3.org/1999/xlink">
  <g id="FriendFeed" transform="translate(0, 0.0926)" fill="currentColor" fill-rule="nonzero">
    <path d="M1024,176 L872,176 C842,176 810,216 810,270 L810,360 L990,360 L990,538 L810,538 L810,988 L630,988 L630,538 L360,538 L360,988 L180,988 L180,538 L0,538 L0,360 L180,360 L180,270 C180,120 288,0 422,0 L574,0 L574,176 L422,176 C392,176 360,216 360,270 L360,360 L630,360 L630,270 C630,120 738,0 872,0 L1024,0 L1024,176 Z"></path>
  </g>
</svg>