<?xml version="1.0" encoding="UTF-8"?>
<svg width="194px" height="194px" viewBox="0 0 194 194" version="1.1" xmlns="http://www.w3.org/2000/svg" xmlns:xlink="http://www.w3.org/1999/xlink">
    <title>FriendlyCaptcha</title>
    <g id="FriendlyCaptcha" stroke="none" stroke-width="1" fill="none" fill-rule="evenodd">
        <path d="M96.9106529,11 C119.695533,11 141.547423,20.0512027 157.658763,36.162543 L139.434364,54.3869416 C128.156357,43.1089347 112.860137,36.7731959 96.9106529,36.7731959 C63.7199313,36.7731959 36.7731959,63.7199313 36.7731959,96.9106529 C36.7731959,114.781589 44.5852881,130.842339 56.977856,141.861287 L58.972171,143.558751 L60.1219219,144.472244 L61.2941922,145.358039 L63.3618713,146.81547 L64.9203632,147.833891 L67.4302082,149.326751 L70.3489658,150.870495 L72.5367932,151.887381 C76.575334,153.677795 80.8085134,155.022227 85.1606049,155.889316 L88.8347696,156.509476 L91.5425394,156.811308 C92.4909834,156.895369 93.445726,156.957372 94.4062501,156.996801 L96.9106529,157.04811 L99.7178016,156.982625 C114.645789,156.285628 128.81977,150.048959 139.434364,139.434364 L157.658763,157.658763 C141.547423,173.770103 119.695533,182.821306 96.9106529,182.821306 L93.5788448,182.756744 L90.7013106,182.599744 L87.5334195,182.308303 C76.4585944,181.109587 66.0115157,177.796693 56.6040194,172.784695 L52.7480203,170.601655 L50.2444254,169.04233 L47.0438851,166.867995 L46.0756051,166.154872 C42.5748951,163.597233 39.2624613,160.758681 36.162543,157.658763 C20.6258681,142.100669 11,120.620935 11,96.9106529 C11,49.495189 49.495189,11 96.9106529,11 Z M71.137457,84.024055 C78.2545286,84.024055 84.024055,89.7935814 84.024055,96.9106529 C84.024055,104.027724 78.2545286,109.797251 71.137457,109.797251 C64.0203855,109.797251 58.2508591,104.027724 58.2508591,96.9106529 C58.2508591,89.7935814 64.0203855,84.024055 71.137457,84.024055 Z M122.683849,84.024055 C129.80092,84.024055 135.570447,89.7935814 135.570447,96.9106529 C135.570447,104.027724 129.80092,109.797251 122.683849,109.797251 C115.566777,109.797251 109.797251,104.027724 109.797251,96.9106529 C109.797251,89.7935814 115.566777,84.024055 122.683849,84.024055 Z" id="Shape" fill="currentColor"></path>
    </g>
</svg>