<?xml version="1.0" encoding="UTF-8"?>
<svg width="981px" height="1025px" viewBox="0 0 981 1025" version="1.1" xmlns="http://www.w3.org/2000/svg" xmlns:xlink="http://www.w3.org/1999/xlink">
  <g id="FurAffinity" transform="translate(0, 0.6137)" fill="currentColor" fill-rule="nonzero">
    <path d="M527.75405,0.0925669356 C532.94057,0.519324936 535.03628,1.65994694 536.70034,4.96561694 C537.89565,7.34061694 538.88198,15.1140169 538.89175,22.2390169 C538.902492,29.3640169 537.76284,42.1902169 536.35855,50.7390169 C534.9523,59.2897969 533.78921,71.7566169 533.77261,78.4451169 C533.756008,85.1326169 534.93863,95.1931169 536.39859,100.800617 C537.85953,106.409017 540.64175,113.565217 542.58218,116.704917 C544.52456,119.844567 546.8937,125.329917 547.85366,128.895317 C548.810691,132.459767 550.6271,136.451957 551.89077,137.765437 C553.40249,139.335747 555.86245,139.756647 559.08022,138.991027 C561.77163,138.352355 564.74917,137.831847 565.69936,137.835757 C566.547016,137.838687 570.1769,138.250796 574.13002,138.787905 L575.083145,138.918764 C575.242325,138.941225 575.402481,138.963686 575.562637,138.986147 C583.500137,140.102357 583.860487,139.950014 590.244237,132.792787 C593.844827,128.757627 599.192477,123.612127 602.125137,121.357287 C605.057797,119.102447 611.624157,116.467637 616.714037,115.500837 C621.806807,114.53697 631.993337,110.646347 639.353637,106.857287 C648.945437,101.916857 654.870237,99.9676367 660.274537,99.9676367 C664.421017,99.9676367 669.044067,100.939317 670.545037,102.126817 C672.046017,103.315297 674.137807,105.984237 675.193477,108.059437 C676.248167,110.136587 677.112427,115.654167 677.112427,120.325037 C677.112427,124.995907 676.231568,131.458837 675.153447,134.689337 C674.075327,137.916877 668.555787,147.017437 662.888847,154.907137 C655.229667,165.575137 652.584147,170.735237 652.584147,175.017537 C652.584147,179.736287 654.509927,182.765587 663.229647,191.762637 C669.085117,197.803657 676.061647,204.265537 678.732547,206.121037 C681.403447,207.977487 685.812627,213.030217 688.533327,217.348537 C691.254027,221.665917 695.332157,226.930567 697.596807,229.046737 C699.864387,231.162947 704.334107,233.384627 707.534307,233.985217 C711.637827,234.754748 715.262827,234.07799 719.846807,231.689317 C723.419077,229.826037 728.988407,226.905137 732.221807,225.196157 C737.859507,222.215687 738.194467,222.215687 740.349737,225.16686 C741.588017,226.85924 743.472787,232.4442 744.539187,237.57796 C745.605587,242.71172 748.203247,248.91776 750.312627,251.37096 C753.628057,255.22643 755.248177,255.74303 762.297027,255.18151 C770.070467,254.563346 771.135897,253.79577 785.531427,238.42951 C788.084157,235.70392 790.911307,232.67756 793.755057,229.62189 L795.177907,228.09455 C801.105637,221.72443 806.930807,215.42755 810.370307,211.67165 C815.735537,205.8113 820.698407,201.57395 821.399607,202.25563 C822.099802,202.938247 821.646677,206.04665 820.390817,209.16481 C819.469919,211.45192 817.111517,215.94118 814.520697,220.42071 L813.808783,221.64141 C813.093939,222.85723 812.369333,224.0584 811.659373,225.19805 C808.113473,230.89825 802.504103,241.51645 799.196473,248.79275 C795.887883,256.07009 789.802923,266.81715 785.673073,272.67265 C778.618383,282.67655 778.190653,283.41095 778.164283,295.86795 L778.16233,298.01541 C778.16233,310.66971 778.636939,313.05351 781.58713,315.20971 C783.46994,316.58569 788.87815,318.86108 793.60473,320.26635 C798.33032,321.67065 805.21993,324.91186 808.91433,327.4724 C814.82546,331.56908 817.84304,332.25756 834.03443,333.21166 C844.15653,333.809316 854.17603,335.23021 856.30303,336.36791 C858.43003,337.50561 860.68584,340.49389 861.31768,343.01049 C861.947563,345.52514 861.596977,349.97338 860.53643,352.89233 C859.47588,355.81323 853.82256,362.59545 847.97293,367.96363 C842.1243,373.33277 836.97493,379.63743 836.52863,381.97633 C835.946599,385.02321 837.255192,387.98219 841.15754,392.42363 C844.56574,396.30547 850.27473,399.99492 856.42704,402.29375 C861.83427,404.31426 867.61554,407.19219 869.27864,408.69219 C870.94174,410.19219 872.3011,413.45 872.3011,415.9334 C872.3011,418.41582 870.30696,423.38067 867.87141,426.9676 C865.43293,430.55354 863.32356,435.03791 863.18,436.93244 C863.021797,439.05451 865.80402,442.8592 870.41926,446.83478 C877.26106,452.72736 877.98176,454.11896 878.66047,462.74888 C878.72004,463.519388 878.787423,464.30747 878.858712,465.09849 L878.968087,466.28306 C879.363595,470.42368 879.857735,474.41978 880.199537,476.07701 C880.719068,478.60338 883.978837,481.45982 889.573557,484.29283 C894.290357,486.68443 899.417307,490.57506 900.968057,492.94224 C902.699507,495.58286 903.475867,499.35435 902.984657,502.7147 C902.472938,506.19419 899.719037,510.48423 895.425087,514.4881 C891.711217,517.95294 883.045187,524.1297 876.168287,528.2147 C869.291337,532.30064 860.565787,538.4706 856.773787,541.9256 C852.982767,545.3797 849.439807,549.46466 848.900737,551.00568 C848.360698,552.54572 849.185893,555.07209 850.733747,556.61994 C852.281601,558.16779 855.279647,559.43439 857.395857,559.43439 C859.513047,559.43439 862.134137,560.323062 863.222027,561.40998 C864.704447,562.8924 864.144879,565.46369 860.975937,571.71758 C858.654647,576.29766 856.755237,581.99488 856.755237,584.37288 C856.755237,587.80745 857.914417,588.9969 862.369497,590.14436 C866.758167,591.27327 868.104847,592.62288 868.537467,596.326 C868.958365,599.91389 867.75524,602.19416 863.575557,605.72639 C860.538447,608.29084 855.431027,612.83674 852.223057,615.83089 C848.174227,619.60921 846.391027,622.81331 846.391027,626.31429 C846.391027,629.08675 845.163487,635.48812 843.663487,640.53789 C841.396887,648.16582 841.324617,650.08867 843.231846,651.89039 C844.493566,653.08277 850.177156,654.61109 855.860746,655.2859 C861.543366,655.958752 869.079546,657.66676 872.606846,659.07887 C876.618566,660.68336 881.804116,665.22731 886.456446,671.21167 C886.85293,671.721436 887.250391,672.23901 887.648826,672.76147 L888.442771,673.8103 L889.174216,674.787839 C892.327536,679.026119 895.195696,683.190179 896.170306,684.999739 C898.105856,688.587629 898.036516,689.853259 895.716204,693.394269 C894.214254,695.686259 890.982804,698.064189 888.534564,698.680399 C886.086324,699.295633 879.489644,699.378641 873.876364,698.871805 C867.721094,698.314188 859.134164,695.822975 852.245464,692.600325 C845.963234,689.659895 838.361664,687.253645 835.353864,687.253645 C832.345074,687.253645 828.159524,688.463605 826.048204,689.944075 C823.495474,691.731185 822.208364,694.411845 822.208364,697.943095 C822.208364,701.954815 824.033564,704.993875 829.670274,710.369895 C833.774764,714.282005 840.833374,719.724385 845.358774,722.459695 C849.880254,725.197975 854.433974,729.311255 855.477874,731.600315 C856.738614,734.365935 856.824554,737.329805 855.738616,740.441135 C854.524746,743.915745 852.776706,745.247775 848.951506,745.613015 C845.738616,745.919656 841.686856,744.619851 838.181006,742.157935 C835.089206,739.988015 828.453466,734.125705 823.432006,729.131535 C818.411496,724.138375 811.809006,719.110035 808.762106,717.959635 C804.016016,716.167645 802.794336,716.294595 800.248436,718.842447 C797.847066,721.241857 797.621486,722.730147 799.074606,726.559247 C800.000387,729.000657 804.409566,737.839547 809.130306,746.752647 L809.775814,747.968467 C809.883236,748.169639 809.991634,748.372764 810.099056,748.574912 C811.213316,750.660852 812.406676,752.833702 813.622496,755.002642 L814.436949,756.446982 C818.517029,763.654012 822.726009,770.575882 825.017049,773.761482 C828.149859,778.114022 831.192829,784.721482 831.779749,788.443082 C832.366669,792.164682 832.035608,797.328822 831.043421,799.913782 C829.946741,802.773162 827.450651,805.065152 824.678191,805.761442 C821.867641,806.465544 817.897921,805.847379 814.337391,804.150112 C811.159661,802.636442 807.291491,799.460662 805.740711,797.094452 C804.191881,794.729222 800.747551,786.961652 798.088371,779.832752 C793.937981,768.707752 790.978991,764.412852 777.201671,749.518252 C766.354971,737.791652 759.933071,732.164752 757.401871,732.164752 C755.338391,732.164752 752.313001,733.645222 750.675311,735.453812 C748.117691,738.279982 747.776871,741.856152 748.248551,760.932312 C748.797379,783.121812 748.797379,783.121812 744.480001,782.806312 C742.105001,782.632484 736.449731,781.947914 731.912601,781.280922 C725.260261,780.305336 723.006351,780.667641 720.253401,783.158852 C717.353991,785.784832 716.842271,788.503582 716.842271,801.284852 C716.842271,809.683292 718.439931,824.244852 720.459461,834.268252 C722.449691,844.138372 726.251451,857.653952 728.906731,864.305352 C731.563961,870.954762 736.561031,881.361952 740.012231,887.431352 C743.464381,893.499712 750.041531,903.215552 754.628431,909.022152 C756.714371,911.661802 759.378431,915.078792 762.083511,918.574882 L763.706561,920.677422 C766.405781,924.176442 769.035661,927.614922 771.057151,930.292652 C775.506371,936.185232 780.735861,944.598352 782.678251,948.991852 C784.621611,953.386382 786.646021,961.189152 787.176301,966.333652 C787.860871,972.964512 787.27884,977.951852 785.174351,983.458652 C783.544471,987.732092 780.221231,992.789702 777.793491,994.699852 C775.015171,996.885402 770.773961,998.173482 766.362791,998.173482 C761.647951,998.173482 757.252441,996.723282 752.960491,993.746722 C749.182171,991.129532 744.356971,985.161762 741.148991,979.145122 C738.163641,973.545512 734.140201,961.741822 732.207581,952.909722 C730.273011,944.079642 728.064031,931.303322 727.295471,924.517122 C726.528869,917.731962 723.984921,908.016122 721.639221,902.926322 C719.296451,897.836482 714.203671,888.777922 710.320821,882.793522 C706.438011,876.810122 701.265161,866.704622 698.829621,860.337422 C696.391141,853.971212 692.147001,844.098122 689.395051,838.397022 C686.642121,832.695852 682.170441,825.583522 679.457551,822.589422 C677.986851,820.968332 674.261261,818.342352 669.439951,815.421452 L668.308111,814.743718 C664.282721,812.352118 659.598151,809.806218 654.866711,807.477118 C641.474111,800.889228 633.119611,797.806218 628.655811,797.806218 C624.159721,797.806218 620.468311,799.182198 616.887211,802.196838 C613.942871,804.676328 610.123541,810.720278 608.117681,816.078638 C606.163581,821.301298 604.573731,829.624538 604.583501,834.575738 C604.593267,840.749568 606.039551,846.564038 609.179201,853.078638 C612.811041,860.609888 613.715331,864.905738 613.545411,873.807138 C613.422364,880.316908 614.755371,890.160638 616.722171,897.235838 C618.586431,903.946778 620.111821,912.361838 620.111821,915.937938 C620.111821,920.735788 618.859871,923.689888 615.330571,927.219138 C612.699711,929.849998 607.637211,932.547258 604.079571,933.214258 C599.946761,933.989649 595.925271,933.618555 592.945771,932.187888 C590.381321,930.954488 587.087371,927.817768 585.628391,925.218158 C583.698701,921.778708 582.975071,915.414448 582.975071,901.898858 C582.975071,898.489678 583.04929,894.641048 583.179173,890.759258 L583.255345,888.641098 C583.525853,881.586408 583.966283,874.670398 584.462375,870.352998 C585.464325,861.617648 585.312961,855.041498 583.992648,850.163498 C582.916478,846.185958 579.061988,839.165498 575.422338,834.565798 C571.339328,829.398808 564.913538,824.117598 558.619638,820.755298 C553.013188,817.761158 545.749538,812.537528 542.475138,809.148898 C537.808148,804.319798 535.196818,802.999488 530.383338,803.040498 C526.963418,803.071748 521.186068,804.980928 517.335438,807.350068 C511.754388,810.786588 508.140128,811.607878 498.538538,811.614718 C487.155738,811.623507 486.405738,811.884249 480.849038,817.776828 C477.657628,821.160618 471.146888,831.849128 466.379338,841.527828 C458.656678,857.206528 457.516058,861.009228 455.912538,876.398928 C454.774838,887.323728 451.837338,900.653828 447.920348,912.672328 C442.104918,930.524828 441.691828,933.291428 441.101008,958.447728 C441.063898,960.083468 441.01507,961.744608 440.959406,963.411598 L440.900812,965.079568 C440.879328,965.636209 440.85882,966.192848 440.836359,966.748518 L440.767023,968.413558 C440.267023,980.054158 439.419363,991.149858 438.629323,995.582458 C437.600023,1001.3725 434.741623,1008.99556 432.151783,1012.85586 C429.601003,1016.65566 427.263113,1020.73672 426.956473,1021.9252 C426.590262,1023.33731 423.008233,1024.07364 416.592173,1024.05637 C406.786513,1024.02578 406.786513,1024.02578 402.889073,1014.98672 C400.745523,1010.01602 398.997473,1002.67222 399.003333,998.670318 C399.008216,994.666408 400.762123,984.561918 402.900793,976.214218 C406.096103,963.736718 406.709383,957.194718 406.346103,939.444718 C405.907626,917.853918 405.907626,917.853918 413.138093,902.483818 C419.930083,888.046318 420.413483,885.989718 421.133213,868.524818 C421.777744,852.876418 421.302158,847.968218 418.122473,837.503318 C415.277743,828.132228 412.777743,823.603918 407.975973,819.111718 C404.471093,815.833398 398.805073,811.684958 395.387073,809.892968 C391.967153,808.100978 385.548203,803.872458 381.121473,800.493558 C376.694743,797.114658 371.508193,794.350008 369.597073,794.350008 C367.650783,794.350008 365.327543,796.089268 364.318753,798.304108 C362.983793,801.234768 363.273833,805.263088 365.439843,813.888108 C368.307033,825.300208 368.284573,825.813908 364.294333,841.291408 C362.057033,849.969138 358.792383,858.890008 357.039453,861.117608 C354.867573,863.877378 352.070703,865.169368 348.262113,865.169368 C345.187893,865.169368 341.443753,864.199641 339.942773,863.010188 C338.441793,861.823668 336.349023,859.152768 335.294333,857.077568 C334.239643,855.000418 333.385153,849.560968 333.397853,844.985768 C333.409572,840.410568 334.984763,829.282668 336.895903,820.257268 C339.139063,809.662568 339.990633,801.108868 339.300203,796.114668 C338.711336,791.862718 336.678133,785.345168 334.785553,781.632268 C332.890043,777.920358 329.502353,773.043398 327.256253,770.797268 C324.775783,768.316798 321.132233,766.710358 317.990633,766.710358 C314.002353,766.710358 311.499423,768.340238 307.115633,773.797268 C303.983793,777.695708 299.322663,781.971098 296.756233,783.297268 C294.189823,784.625388 289.298223,785.710358 285.881233,785.710358 C281.592173,785.710358 278.360723,784.399808 275.433033,781.471098 C272.351003,778.391018 271.193773,775.352938 271.193773,770.360698 C271.193773,764.930038 270.44475,763.250348 267.619553,762.354838 C265.259203,761.606791 262.058033,762.595072 258.205493,765.262068 C255.437913,767.177108 246.451593,775.237658 237.016993,784.215168 L235.884183,785.296218 L234.748443,786.385088 C233.991607,787.11165 233.234773,787.842118 232.479893,788.573568 C213.958393,806.520868 211.012093,808.646768 189.639093,819.469068 C187.009213,820.800118 184.253353,822.232738 181.479913,823.704418 L179.814873,824.592113 C169.817803,829.937813 159.874473,835.632113 155.089273,838.821613 C148.708413,843.072593 140.001373,850.278613 135.739673,854.834313 C131.476003,859.390953 125.139073,867.577513 121.653773,873.026713 C118.167443,878.475933 113.164513,888.848013 110.536573,896.074613 C109.526803,898.855863 108.386183,902.188873 107.273873,905.588283 L106.610787,907.634183 C105.075627,912.404693 103.650827,917.119533 102.762157,920.444683 C101.115677,926.619483 98.261177,934.928083 96.419387,938.909483 C93.962357,944.221983 91.116657,947.094053 85.722087,949.705383 C80.628337,952.172183 74.959387,953.263003 67.257287,953.256163 C59.217247,953.253233 54.587387,952.302061 50.514087,949.817683 C47.417407,947.929983 43.287527,943.852843 41.335377,940.755183 C38.459397,936.192683 37.930107,933.117483 38.545337,924.521783 C38.991626,918.296193 41.100027,909.995383 43.653737,904.420183 C46.139087,898.991473 51.220147,892.064683 55.518937,888.250283 C59.653707,884.580363 67.800137,876.781483 73.622437,870.920183 C79.445677,865.057883 88.387037,853.398683 93.495437,845.010983 C98.603837,836.621333 106.530637,826.126183 111.112637,821.691683 C115.694667,817.256133 124.528637,811.096983 130.745437,808.004183 C139.551097,803.626253 143.130237,800.639923 146.951537,794.479783 C149.649777,790.132123 155.583377,784.110683 160.137037,781.099883 C164.692697,778.086213 175.725937,771.996363 184.656537,767.564683 C194.542277,762.659413 204.486637,756.109583 210.074537,750.824483 C215.122387,746.048113 220.889937,738.760983 222.890937,734.628183 C224.891917,730.496343 226.278637,724.976813 225.973947,722.360583 C225.527658,718.515853 224.308907,717.377183 219.616527,716.426013 C216.424147,715.777575 212.669257,714.103743 211.272777,712.708243 C209.035477,710.471913 209.366527,708.906483 214.034497,699.661343 C217.033517,693.720913 218.867507,687.933843 218.254227,686.338143 C217.660477,684.787363 215.920247,683.862553 214.388017,684.280523 C212.856767,684.700445 208.713217,686.768803 205.182937,688.876223 C201.651687,690.984623 197.424147,692.450443 195.791337,692.135993 C194.135087,691.816657 192.188797,689.122323 191.391927,686.048103 C190.394857,682.194583 190.80013,678.293223 192.742517,673.096903 C194.270837,669.006083 195.945637,663.381083 196.463217,660.600803 C197.182944,656.729713 196.492514,654.805883 193.515947,652.396703 C191.377277,650.665253 186.867507,649.249243 183.494447,649.249243 C180.121387,649.249243 173.211247,647.942603 168.138947,646.342993 C159.493437,643.618383 158.342067,643.618383 149.671147,646.352758 C144.052007,648.123268 134.492447,653.738498 125.323447,660.656458 C117.020717,666.919158 106.624247,673.637858 102.224847,675.581258 C96.416257,678.151568 90.790247,679.084188 81.685747,678.991418 C72.276567,678.893762 67.515847,677.945518 62.615447,675.191618 C59.022677,673.171108 54.281467,668.888888 52.077347,665.672088 C49.873247,662.456268 47.679887,656.861538 47.203327,653.240488 C46.636921,648.946538 47.578327,643.354748 49.908407,637.157488 C51.874227,631.931898 55.954307,624.661388 58.972857,621.001288 C61.992387,617.342108 68.031447,612.731758 72.394757,610.756188 L72.812726,610.569665 C73.159406,610.416345 73.503156,610.26986 73.846906,610.129235 L74.259992,609.963219 C80.542222,607.494469 87.411392,607.025719 116.488492,606.438809 C152.653492,605.706387 152.653492,605.706387 161.808792,596.817719 C166.843952,591.930019 173.382992,585.763019 176.339092,583.114619 C180.698472,579.212279 181.510972,577.414419 180.633042,573.614619 C180.039292,571.037469 176.657452,566.303099 173.121322,563.094119 C169.583232,559.885139 163.496322,555.814819 159.594022,554.053099 C155.692652,552.288449 147.530522,550.092159 141.457322,549.169309 C135.384082,548.245481 124.362622,545.513059 116.964122,543.097039 C107.394782,539.970089 99.762022,538.700559 90.524622,538.700559 C83.380092,538.700559 72.334222,537.854856 65.975822,536.819699 C54.908422,535.019899 53.852822,535.166379 41.172122,540.274779 C33.889892,543.209349 24.799122,545.610719 20.972922,545.610719 C16.109642,545.610719 12.557882,544.356809 9.17022198,541.442749 C4.95635198,537.816769 4.32452198,536.037479 4.32452198,527.806049 C4.32452198,520.762099 5.20831098,517.358749 7.77960198,514.517949 C9.67901198,512.414429 14.118472,509.224979 17.641902,507.427129 C21.167292,505.626349 26.429012,504.154669 29.336202,504.154669 C32.243392,504.154669 39.382102,506.089239 45.204402,508.453499 C51.024712,510.818729 60.308902,514.022839 65.840102,515.575569 C72.137952,517.344119 79.741502,518.118539 86.188702,517.652719 C93.500222,517.124399 99.646702,515.235729 107.404502,511.139049 C113.412312,507.965219 121.278502,504.602919 124.885902,503.668349 C129.492352,502.474009 135.293102,502.625379 144.379102,504.180068 C154.164262,505.852918 158.886902,505.922258 163.762902,504.460341 C167.306852,503.398821 173.585172,499.284561 177.711102,495.319721 C181.837082,491.355851 186.374192,485.335341 187.790202,481.944721 C189.239422,478.474991 190.005042,473.069721 189.537272,469.585321 C189.081217,466.181021 186.198402,458.950521 183.133952,453.517921 C179.488442,447.057961 177.895672,442.307921 178.529462,439.780621 C179.063642,437.655621 183.030442,432.967141 187.346842,429.357721 C193.212072,424.455381 195.194502,421.581351 195.194502,417.985621 C195.194502,415.055931 192.661302,409.921171 188.715982,404.854721 C182.616372,397.020741 182.259932,396.410381 182.240392,382.864521 L182.239415,380.694601 L182.239415,379.963156 L182.238439,378.569606 C182.220861,364.837206 181.85465,364.430006 174.034339,355.724906 C167.368319,348.307916 165.830239,345.393806 165.830239,340.200506 C165.830239,336.685856 166.801919,332.579416 167.990399,331.078436 C169.177899,329.577456 171.887859,327.463206 174.014809,326.380196 C176.141759,325.297186 189.356609,323.944646 203.380009,323.373356 C225.359509,322.480778 229.391709,321.871406 232.595809,318.963196 C234.641709,317.107726 237.166119,312.201476 238.210069,308.059896 C239.254019,303.917316 240.089949,297.567696 240.069449,293.950496 C240.047964,290.333306 238.608509,284.265926 236.868279,280.465096 C235.126089,276.665296 229.842889,270.058896 225.126079,265.783496 C220.407329,261.509086 212.456179,255.837206 207.457179,253.182896 C202.570459,250.584266 191.880079,242.019796 183.436679,233.955396 L182.864413,233.406568 C181.158363,231.763018 179.365393,230.076488 177.548003,228.406568 L176.335113,227.296218 C169.449373,221.024738 162.460113,215.160518 158.973813,212.814818 C154.494323,209.797238 143.957213,204.604858 135.224813,201.097018 L134.460165,200.791354 C125.590045,197.285494 114.651565,191.759124 110.152565,188.515954 C105.651585,185.269864 99.2394649,179.422204 95.9025649,175.524754 C90.5051049,169.220064 89.8595949,167.540374 89.8332249,158.410454 L89.8322483,157.776665 C89.8322483,148.754205 90.6027563,146.057865 94.8478683,140.194665 C97.6086083,136.386075 102.688688,131.522785 106.138868,129.390965 C111.549028,126.048195 114.247268,125.604835 125.737468,126.170265 C135.797068,126.666359 141.386868,127.972995 148.560668,131.504245 C152.451288,133.420265 160.556768,138.283545 168.757968,143.561845 L170.164218,144.470048 C172.506988,145.988598 174.837068,147.529618 177.061678,149.033528 C187.510878,156.099938 201.435678,165.635128 208.002078,170.221028 C214.569458,174.805008 223.236478,182.733728 227.259878,187.838228 C231.284288,192.943698 237.487378,202.429028 241.045978,208.918328 C245.639728,217.303098 249.141678,221.490628 253.140678,223.387128 C256.235408,224.854898 263.005908,226.058028 268.186578,226.058028 C275.711968,226.058028 278.496178,226.882247 282.041078,230.168378 C284.764708,232.692788 287.864318,238.938888 290.071348,246.352978 C292.048888,252.994578 295.198298,260.373478 297.068418,262.751378 C298.938538,265.129278 303.134828,268.339268 306.391658,269.886148 C309.650448,271.431068 315.888728,272.696698 320.256858,272.696698 C326.020528,272.696698 329.196308,271.701581 331.821358,269.076578 C334.596748,266.301188 335.248118,263.983808 334.609448,259.144938 C334.153393,255.672278 332.334058,249.139038 330.569408,244.623438 C328.127998,238.379298 327.814528,235.691798 329.254958,233.396838 C330.668048,231.142928 334.261798,230.159538 343.450258,229.515978 C353.235418,228.828478 356.556658,227.848008 359.681658,224.718128 C362.608418,221.786488 363.568378,218.918328 363.444358,213.490628 C363.350608,209.467188 361.335958,202.327528 358.950218,197.560928 C356.571308,192.810928 353.707058,185.176128 352.584988,180.597028 C351.463898,176.015978 347.614288,167.465228 344.029328,161.596028 C340.444368,155.725908 334.235378,146.647828 330.228528,141.422228 C326.220718,136.197618 320.829118,127.647828 318.245128,122.421228 C314.783218,115.420248 313.380868,109.623328 312.912118,100.384128 C312.424813,90.7962385 312.952157,86.8157285 315.147468,83.4622285 C316.727548,81.0530485 319.942388,78.2044185 322.291018,77.1341085 C325.679688,75.5891885 327.791018,75.7718085 332.487318,78.0110615 C335.746108,79.5647715 341.618178,83.7337215 345.537118,87.2747315 C349.458018,90.8157515 355.050788,98.4222315 357.968718,104.180031 C360.886688,109.936871 364.665988,118.581431 366.367158,123.391931 C368.067358,128.201501 370.675748,139.713231 372.167938,148.972031 C373.658168,158.231801 375.972628,168.432031 377.312468,171.638031 C378.651338,174.844081 381.946258,178.589201 384.633758,179.962251 C387.322238,181.335301 391.919888,182.976901 394.850558,183.607761 C398.789038,184.453464 401.260718,183.878269 404.322238,181.399751 C407.841768,178.550141 408.459938,176.532561 408.448218,167.938851 C408.439429,162.377331 407.45896,153.513051 406.268528,148.234751 C405.077118,142.956431 401.328098,134.515051 397.931618,129.472051 C394.536108,124.430061 390.340798,116.699551 388.604468,112.293351 C387.316378,109.020891 385.103488,102.219151 383.051738,95.3314515 L382.582011,93.7425815 C382.039042,91.8900415 381.512671,90.0521515 381.026351,88.2923815 C378.591781,79.4964815 374.188461,67.4495815 371.237291,61.5189815 C368.288071,55.5863615 363.573231,47.8128815 360.758791,44.2406815 C357.947271,40.6684115 354.521491,35.0580615 353.150391,31.7728815 C351.777341,28.4877215 350.654301,23.1097915 350.654301,19.8246815 C350.654301,15.4692115 351.854501,12.9047615 355.083011,10.3637415 C358.253911,7.86862146 360.583011,7.27194146 363.287111,8.25534146 C365.364261,9.01120046 369.241211,12.7016315 371.903321,16.4565115 C375.442381,21.4496715 376.982421,26.0453815 377.628911,33.5561115 C378.118169,39.2045515 379.342781,47.7104115 380.353521,52.4614115 C381.363291,57.2123915 384.731451,65.7622115 387.835941,71.4624115 C390.940431,77.1626115 394.796881,86.4897115 396.406251,92.1909115 C398.014651,97.8920815 402.011721,107.679211 405.290041,113.938911 C408.568361,120.200631 415.117191,129.916411 419.840841,135.529711 C424.567401,141.143971 432.706041,150.012111 437.930641,155.236711 C443.156231,160.461321 450.721641,169.788511 454.748041,175.964211 C461.670891,186.585311 462.463861,187.222011 469.407241,187.722011 C476.222671,188.215175 477.008801,187.811855 480.399441,182.064781 C482.408231,178.659511 485.607451,175.041341 487.508821,174.024741 C490.011751,172.686851 493.053741,172.757161 498.511721,174.285483 C504.939451,176.085283 506.677741,175.990563 510.250021,173.650717 C512.995141,171.851887 515.128931,168.051107 516.436541,162.640017 C517.531271,158.094117 518.867201,141.317717 519.402361,125.356817 C520.321306,97.9886175 520.110369,95.2172175 515.700211,76.5502175 C512.813491,64.3354175 511.449231,54.8207175 512.136731,51.6957175 C512.816419,48.6009875 511.792981,41.2348175 509.503921,32.7514175 C505.757831,18.8725175 505.757831,18.8725175 509.60939,10.9155175 C511.72951,6.54051746 515.15627,2.18699746 517.22267,1.24461746 C519.29298,0.304187456 524.03419,-0.218272544 527.75977,0.0873874556 L527.75405,0.0925669356 Z M821.99205,884.703567 C826.38365,886.754347 833.92665,890.875447 838.75085,893.865677 C844.23425,897.262157 848.60534,901.581497 850.41005,905.387177 C851.99892,908.734837 853.29775,914.320767 853.29775,917.803177 C853.29775,921.283647 852.423727,925.828567 851.35439,927.905677 C850.28505,929.980877 847.81826,933.429117 845.87099,935.564857 C843.92372,937.700597 840.65712,939.450597 838.61513,939.450597 C836.57118,939.450597 833.23427,937.680087 831.20204,935.516027 C829.16884,933.350007 826.38954,928.416417 825.02528,924.551227 C823.66005,920.685017 820.98231,914.456527 819.06727,910.707427 C817.15418,906.957427 814.45008,899.519927 813.0536,894.177127 C811.34657,887.641967 811.08778,883.892927 812.260631,882.720127 C813.431531,881.548247 816.617081,882.196689 821.991101,884.702547 L821.99205,884.703567 Z M514.98705,884.356567 C515.879628,885.682737 516.24779,889.810667 515.801503,893.527467 C515.358144,897.246217 513.552483,902.218877 511.790763,904.576267 C510.029043,906.934667 506.921623,909.483497 504.881583,910.238377 C502.393303,911.158299 500.508533,910.804783 499.141353,909.157327 C497.537833,907.224707 498.224361,904.321387 502.388423,895.418027 C505.293693,889.210017 508.952873,883.638727 510.516353,883.038127 C512.113033,882.425822 514.073973,883.002971 514.985103,884.356487 L514.987056,884.356487 L514.98705,884.356567 Z M12.51465,814.641567 C14.39551,814.783169 17.39844,816.224577 19.19336,817.849577 C21.12988,819.603487 22.4541,823.107387 22.4541,826.477507 C22.4541,829.598597 21.768553,832.576137 20.93066,833.094697 C20.093746,833.612275 18.34277,834.386687 17.04492,834.817357 C15.74609,835.245091 12.75488,834.826146 10.40039,833.886693 C8.04492,832.946263 4.73926,830.930643 3.05859,829.407203 C1.37695,827.886693 0,825.224583 0,823.492163 C0,821.760713 2.04688,819.004863 4.54883,817.363253 C7.04981,815.724583 10.63574,814.498993 12.51465,814.641573 L12.51465,814.641567 Z M469.66105,477.657567 C462.03312,480.178077 451.37295,484.900727 445.97065,488.149767 C440.56928,491.400747 431.95605,497.292347 426.82805,501.244467 C421.70005,505.196587 413.16495,513.804967 407.85635,520.373367 C402.40908,527.115557 395.77525,533.332367 392.61905,534.649767 C389.54385,535.934927 383.83878,536.985707 379.93745,536.985707 C376.03706,536.985707 367.02925,538.937857 359.91885,541.324577 C352.80845,543.711297 343.29875,547.536487 338.78505,549.823597 C334.2704,552.112657 326.50475,557.200547 321.53115,561.133197 C316.55654,565.064837 308.92475,573.096097 304.57605,578.976997 C300.22449,584.856877 295.33093,592.777797 293.70305,596.577597 C292.07317,600.377397 288.96867,610.696697 286.80559,619.507297 C283.64836,632.371597 283.03704,638.670397 283.70891,651.462397 C284.203051,660.851067 286.07414,672.135297 288.26164,678.929197 C290.9716,687.338377 294.02629,692.567897 299.54584,698.248497 C303.70893,702.531697 311.79684,708.399897 317.51654,711.286597 C323.23724,714.173317 333.59954,718.112767 340.54194,720.037577 C348.85932,722.343237 358.40914,723.535627 368.53314,723.535627 C376.98529,723.535627 391.38084,722.235827 400.52434,720.645977 C409.66692,719.056137 424.15614,717.696757 432.72164,717.622537 C434.03902,717.611795 435.24703,717.602029 436.36226,717.599099 L437.65621,717.599099 C448.29291,717.62449 449.95011,718.475076 460.36031,724.671369 C466.99508,728.621569 480.42571,738.727069 490.20801,747.127469 C499.99024,755.528839 512.42681,764.926269 517.84471,768.013169 C523.26366,771.100079 531.97261,775.258289 537.19821,777.260239 C542.4238,779.258289 552.13861,781.529769 558.78901,782.307119 C565.4394,783.081533 574.94331,783.447739 579.91011,783.119619 C585.59761,782.743642 592.20011,780.747549 597.75091,777.725089 C602.59661,775.086419 610.63181,768.534659 615.60441,763.163589 C620.57609,757.792499 627.86031,747.219289 631.78901,739.664589 C635.71772,732.110879 640.62299,719.777889 642.68551,712.261289 C645.77047,701.020089 646.2861,695.511289 645.5986,681.266189 C645.058561,670.051389 643.47165,660.188089 641.10348,653.290589 C639.08883,647.433169 634.57223,637.716389 631.06738,631.699789 C627.43554,625.465409 618.16208,614.371689 609.50688,605.903889 C608.46684,604.886309 607.49126,603.924399 606.57817,603.015219 L605.51079,601.947839 C596.33794,592.727139 593.83499,588.969339 592.53619,583.449839 C591.745174,580.086559 589.83014,572.007439 587.89557,563.858039 L587.543031,562.376589 C587.191469,560.897099 586.840883,559.423469 586.499081,557.985969 C584.160211,548.158819 579.490291,534.538669 576.120181,527.718369 C572.748111,520.897079 566.155341,510.573869 561.466881,504.778869 C556.779381,498.984919 548.947381,491.313069 544.066481,487.729069 C539.185621,484.147039 530.783281,479.401919 525.397581,477.186069 C517.592891,473.977089 512.348781,473.150909 499.566481,473.116897 C486.770581,473.085483 480.723681,474.002475 469.659281,477.660679 L469.66105,477.657567 Z M169.17605,707.935567 C171.13308,708.981467 172.73367,711.331077 172.73367,713.159197 C172.73367,714.985367 168.26297,721.051777 162.80105,726.639697 C161.973902,727.4854 161.12722,728.357467 160.27761,729.234427 L159.25808,730.288137 C154.84792,734.859427 150.56277,739.404347 148.80008,741.396537 C146.56375,743.922907 143.35379,745.990287 141.6702,745.990287 C139.98856,745.990287 137.66629,744.855517 136.51493,743.465877 C135.36356,742.079157 134.012,737.905327 133.51493,734.195367 C132.723914,728.297907 133.201453,727.037167 137.2913,724.195367 C139.86747,722.405327 145.04618,718.080137 148.8011,714.582087 C152.55794,711.085997 157.87825,707.730527 160.6253,707.127007 C163.37237,706.524468 167.22003,706.887749 169.17608,707.933648 L169.17608,707.935601 L169.17605,707.935567 Z M921.20105,715.587567 C924.49304,716.203778 929.21472,718.739907 931.69815,721.223307 C934.1796,723.703777 936.20889,727.516277 936.20889,729.693037 C936.20889,731.910807 934.20791,735.224287 931.65811,737.229167 C929.15518,739.198897 925.01456,740.810217 922.45791,740.810217 C919.83877,740.810217 916.26455,739.112947 914.27139,736.923497 C912.32412,734.786777 909.8583,731.338537 908.78799,729.265297 C907.71865,727.188147 906.84365,723.867837 906.84365,721.886387 C906.84365,719.746737 908.54775,717.505527 911.0292,716.373687 C913.33389,715.323887 917.90518,714.972317 921.1991,715.589507 L921.20105,715.587567 Z M707.76005,480.576567 C703.10771,481.127348 695.27865,483.427157 690.36455,485.686917 C685.45045,487.946677 675.45145,494.557037 668.14185,500.375417 C660.83619,506.195727 651.75805,515.062917 647.97385,520.084417 C644.18869,525.103947 638.28537,533.875417 634.85765,539.575617 C631.42894,545.275817 627.42992,553.825617 625.97093,558.576617 C624.51195,563.326617 622.90355,571.488717 622.39769,576.713317 C621.703354,583.871517 622.362534,588.535617 625.07542,595.628317 C627.05687,600.806047 631.09007,608.580417 634.04222,612.903717 C636.99242,617.226957 642.47484,622.973017 646.22772,625.668317 C649.97967,628.364607 656.67892,632.600937 661.11642,635.080427 C665.55294,637.561877 673.88302,641.337267 679.62422,643.472027 C686.3957,645.990577 694.01192,647.371437 701.29312,647.407376 C708.89664,647.440777 714.96012,646.350937 720.08222,644.027687 C724.23945,642.140967 731.23552,637.948587 735.62812,634.710307 C740.01972,631.473977 746.63592,624.838237 750.33122,619.970107 C754.02653,615.102917 758.88493,606.061907 761.12712,599.882207 C764.10857,591.669317 765.20524,585.013107 765.20524,575.130207 C765.20524,566.555987 763.69157,555.640907 761.06559,545.290407 C758.78825,536.314817 754.17301,523.505207 750.81069,516.826507 C747.44546,510.146817 740.64569,500.251307 735.69839,494.837207 C730.75109,489.423107 724.34489,483.775707 721.46209,482.284507 C717.7785,480.378257 713.71502,479.872397 707.76289,480.577477 L707.76005,480.576567 Z M334.73305,374.355567 C328.75942,375.557717 317.59045,379.624117 309.91175,383.389747 C302.23402,387.156347 290.78185,394.501047 284.46255,399.713947 C278.14419,404.927817 269.73305,413.263747 265.76915,418.244247 C261.80431,423.223737 256.20567,432.351647 253.32485,438.526447 C248.68032,448.486407 248.07973,451.607547 248.00942,466.163147 C247.945943,479.217847 248.76235,484.869247 252.00258,493.800847 C254.24184,499.975647 258.65688,508.573347 261.8141,512.910247 C265.10512,517.428797 271.08949,522.680757 275.8473,525.223747 C280.4098,527.662227 288.0289,530.511837 292.7789,531.554797 C297.5289,532.597757 304.1353,533.783317 307.4605,534.187607 C309.41655,534.423935 313.39898,534.556748 317.9537,534.568466 L319.33554,534.568466 C322.12851,534.56163 325.07675,534.509872 327.86386,534.410263 C339.81796,533.985458 344.05236,532.999133 353.15586,528.516713 C359.17051,525.555773 366.98496,519.929803 370.52106,516.015713 C374.05817,512.101653 378.99079,504.530313 381.48106,499.191513 C385.51524,490.546983 386.08165,486.927813 386.66172,466.164213 C387.153908,448.528513 386.595314,439.687613 384.37266,429.890813 C382.75645,422.765813 379.28672,412.272613 376.66368,406.571513 C374.04161,400.871313 368.80235,392.321513 365.02598,387.570513 C361.24668,382.820513 355.32871,377.412313 351.87168,375.551913 C346.12461,372.457183 344.66563,372.357573 334.73208,374.356603 L334.73305,374.355567 Z M644.89905,248.204567 C643.30335,248.51609 642.45862,248.788551 641.05335,249.246557 L640.497686,249.428198 L639.920538,249.618628 C639.128546,249.887183 638.249638,250.204566 637.305308,250.561987 L636.586558,250.836401 L635.084608,251.429174 L633.512338,252.068822 L631.888318,252.74851 L631.477185,252.923315 L631.063123,253.101049 L629.394173,253.826635 L627.716443,254.574682 L626.048473,255.336401 L624.408823,256.104956 L624.004526,256.296362 L623.604135,256.488745 L622.037725,257.25144 C621.271123,257.630346 620.530885,258.00437 619.826785,258.36863 C613.492805,261.65281 604.787685,267.8159 600.479085,272.06103 C599.253495,273.26904 597.841385,274.78857 596.362875,276.47412 L595.804281,277.113768 L594.533771,278.601068 C593.965412,279.274896 593.395101,279.963368 592.826741,280.660638 L591.979085,281.709468 L590.727135,283.291498 C588.872645,285.665518 587.148035,288.016108 585.790615,290.048338 C585.219326,290.903807 584.600185,291.901858 583.947845,293.008298 L583.552337,293.686032 L582.742767,295.111812 L582.536712,295.482906 L582.329681,295.858883 L581.489837,297.410643 L581.277923,297.810057 L581.065032,298.212401 L580.20761,299.862791 L579.347258,301.563961 L578.489836,303.303221 L577.640227,305.066891 L577.221282,305.95361 L576.806243,306.843258 L575.992766,308.620598 L575.205657,310.388178 L575.013274,310.825678 L574.823821,311.263178 L574.088469,312.989738 C573.611907,314.127438 573.163664,315.238758 572.751559,316.305168 C572.411715,317.184074 572.057223,318.132318 571.692969,319.139148 L571.417578,319.903796 L570.71543,321.902816 C570.479102,322.587386 570.238868,323.291486 569.99668,324.012196 L569.632422,325.101066 L568.9,327.339346 L568.71543,327.909658 L568.531836,328.483877 L567.796484,330.811997 L567.067968,333.178207 L566.349218,335.562977 L565.648046,337.949697 L564.967382,340.319817 L564.315038,342.655757 L563.694921,344.938957 L563.399023,346.055167 L563.11289,347.150867 L562.574804,349.275867 C562.403906,349.966297 562.24082,350.641097 562.086523,351.294417 C559.215433,363.462417 557.265233,377.750517 556.662693,391.023917 L556.639256,391.531729 L556.618748,392.038565 L556.542576,394.054185 L556.510349,395.052232 L556.459568,397.028792 L556.424412,398.976062 L556.405857,400.890122 L556.402927,401.832505 L556.402927,402.766099 L556.416599,404.602039 L556.445896,406.394029 L556.455662,406.833482 L556.466404,407.270982 L556.519138,408.988752 L556.586521,410.652812 L556.669529,412.258282 L556.768162,413.805162 L556.794529,414.181139 L556.822849,414.553209 L556.943943,415.999499 L557.009373,416.697741 L557.079686,417.377429 L557.230077,418.682119 C557.386327,419.947739 557.566991,421.098139 557.768163,422.115709 C558.889253,427.815909 562.168553,437.361809 565.051363,443.326609 C567.935153,449.291449 574.163663,458.042409 578.893163,462.772909 C580.518163,464.397909 582.427343,466.120569 584.396093,467.764119 L585.241796,468.462361 L586.477146,469.455525 C589.565036,471.897905 592.602146,473.998495 594.735936,475.097125 C598.720316,477.145955 605.089436,479.807085 608.889236,481.013145 C612.690016,482.216265 620.105036,483.254355 625.368736,483.325834 C630.632406,483.382289 639.570836,482.229945 645.233036,480.753385 C650.895146,479.277795 659.026036,476.033655 663.299436,473.540495 C663.850217,473.219206 664.468386,472.829557 665.140256,472.381315 L665.653928,472.035612 L666.733028,471.282682 L667.875608,470.45651 L669.071898,469.564908 L669.377562,469.332486 L669.687132,469.097134 L670.942992,468.121548 L672.225222,467.102998 L672.549441,466.841279 L672.874636,466.578584 L674.179326,465.507294 L674.832646,464.962372 L675.48499,464.412567 L676.78187,463.302217 L678.05824,462.184057 L679.30629,461.065897 L679.612931,460.787577 L679.915665,460.510233 L681.099255,459.408673 L681.671521,458.865704 C683.430311,457.181134 685.306291,455.186014 687.150041,453.071754 L687.93715,452.159645 L689.17934,450.678195 C692.66664,446.451635 695.81118,442.045385 697.49282,438.871595 C698.061179,437.802255 698.66958,436.556165 699.29653,435.195815 L699.61196,434.506362 L700.354148,432.833512 C700.602195,432.2632 700.852195,431.679212 701.099265,431.084492 L701.471335,430.189961 L702.20864,428.368671 C703.78969,424.393081 705.25356,420.263201 706.21743,416.937971 C706.618797,415.555161 707.023094,413.887191 707.41567,412.022931 L707.583639,411.211408 L707.913717,409.523908 L707.994771,409.089338 L708.075826,408.650861 L708.394185,406.851061 L708.471333,406.3911 L708.548482,405.928209 L708.849263,404.042469 L708.922505,403.56493 L708.994771,403.084461 L709.275044,401.143051 L709.34145,400.653793 L709.407856,400.163559 L709.662739,398.192859 L709.782856,397.205554 L710.008442,395.232894 L710.062153,394.741683 L710.113911,394.251449 L710.305317,392.305159 L710.473286,390.391099 C710.576802,389.128399 710.662739,387.895979 710.728169,386.710439 C711.058247,380.743639 711.099263,372.506339 710.894185,364.713339 L710.859028,363.487749 L710.761372,360.644979 L710.734028,359.946737 L710.704732,359.254354 L710.574849,356.552204 C710.457661,354.350054 710.318013,352.284624 710.157857,350.437944 C709.092427,338.164544 707.133447,328.513144 702.802387,314.674244 L702.361957,313.276784 L701.489887,310.568774 L700.749653,308.327564 L700.566059,307.778736 L700.381489,307.234791 L699.648091,305.101001 L698.916646,303.036551 L698.189107,301.041431 L697.825826,300.069751 L697.463521,299.114673 L696.740865,297.253343 L696.020162,295.457443 L695.299459,293.725993 L694.580709,292.059003 C692.182269,286.602953 689.787739,282.183023 687.315089,278.612703 L687.095362,278.29825 L686.872706,277.980867 L685.943018,276.676177 L685.701807,276.341216 L685.457666,276.005278 L684.452786,274.642978 L683.411766,273.258208 L682.346336,271.867588 L681.269186,270.484778 L680.190086,269.124428 L679.119776,267.801188 L678.071926,266.527748 L677.056306,265.319738 L676.810212,265.029699 L676.566071,264.744543 L675.620759,263.661533 L675.394197,263.40665 L675.170564,263.157627 L674.321931,262.231846 L673.925447,261.813877 C670.604157,258.346107 664.466467,253.922277 659.990847,251.732777 L658.721317,251.130238 C657.776981,250.48473 657.280887,250.087268 656.281867,249.616568 L655.881476,249.435904 L652.567996,248.212274 C649.748656,247.529657 647.840456,247.953485 644.910766,248.212274 L644.89905,248.204567 Z M743.84605,431.824567 C741.47105,432.907577 738.51207,436.219097 737.27281,439.182967 C736.03258,442.146837 735.00719,447.812847 734.997279,451.773767 C734.982772,457.037437 736.10484,460.177087 739.16344,463.432967 C741.46813,465.886087 744.80602,467.890977 746.58336,467.890977 C748.3607,467.890977 751.72203,465.981797 754.05309,463.650747 C757.54918,460.154657 758.29332,457.708367 758.29332,449.700547 C758.29332,441.263047 757.628281,439.324547 753.22887,434.923247 C748.76012,430.456447 747.6527,430.090237 743.84313,431.824617 L743.84606,431.824617 L743.84605,431.824567 Z M975.23205,430.119567 C977.97228,431.432067 980.48693,433.922297 980.81994,435.654727 C981.15295,437.387157 980.992792,440.526797 980.463495,442.637147 C979.91662,444.815857 976.677365,447.875427 972.968375,449.721127 C968.070915,452.156677 961.906875,453.078547 948.300375,453.411557 C938.325765,453.654721 927.054275,453.171323 923.254475,452.335387 C919.454675,451.501403 912.070875,450.761167 906.844275,450.691837 C901.618685,450.622501 896.178275,449.801212 894.752475,448.865667 L892.161655,447.163517 C896.177275,444.527777 901.230995,443.725037 905.980955,443.680117 C910.730955,443.632265 918.503455,442.165467 923.253455,440.414497 C925.732945,439.501411 929.244665,438.204537 932.847205,436.873477 L934.652865,436.206485 C937.357945,435.206485 940.024935,434.220155 942.254425,433.393005 C947.954625,431.281675 956.585525,429.143985 961.436025,428.643005 C967.129385,428.054138 972.013125,428.576599 975.231925,430.118595 L975.231925,430.119571 L975.23205,430.119567 Z M515.08405,211.412059 C501.87995,211.431898 498.41515,212.139906 486.48545,217.261977 C478.90928,220.514907 467.45815,227.440677 460.57525,232.935777 C453.79009,238.351797 442.70125,248.637877 435.93165,255.795177 C429.16114,262.953377 420.53125,273.379177 416.75485,278.962177 C412.97751,284.545187 407.04391,294.493377 403.56935,301.067677 C400.09376,307.641897 395.31544,319.145777 392.95025,326.635077 C389.81158,336.568667 388.64947,344.109677 388.64947,354.528677 C388.64947,362.627307 389.85357,372.868477 391.43365,378.191777 C392.96392,383.351937 396.10064,391.293377 398.40435,395.839277 C400.70513,400.386157 405.37408,407.187877 408.77735,410.954477 C412.17969,414.720097 418.79595,420.615607 423.47855,424.053077 C428.16019,427.489597 435.25975,431.365577 439.25395,432.668307 C443.88774,434.177097 452.45415,434.857757 462.92485,434.548187 C476.43855,434.149749 481.11335,433.244477 489.41505,429.414397 C494.95997,426.856777 502.49805,422.388027 506.16705,419.480807 C509.836,416.575537 516.85655,409.147807 521.76955,402.975907 C526.67873,396.802077 532.89065,387.702507 535.57035,382.751307 C537.40922,379.358727 540.34476,372.914397 543.12406,366.289407 L543.81449,364.631207 C544.84183,362.143907 545.835,359.663437 546.72269,357.343117 C550.17777,348.316747 554.91507,333.937817 557.25299,325.388017 C559.65826,316.584307 561.94928,302.349917 562.53912,292.568717 C563.395565,278.339217 562.94537,272.787517 559.97955,261.065817 C557.89557,252.836327 553.48932,241.910517 549.52545,235.155617 C545.75592,228.731787 539.84479,220.756217 536.38975,217.435917 C530.19053,211.473027 529.91612,211.394897 515.08705,211.412059 L515.08405,211.412059 Z M76.93065,314.158567 C79.20409,314.158567 83.7246,316.495477 86.97755,319.351927 C90.2295,322.207397 94.25782,327.422237 95.92677,330.941727 C97.59669,334.460277 99.33693,340.656567 99.79396,344.708327 C100.531265,351.256177 100.167007,352.249347 96.51662,353.614577 C94.25881,354.46028 87.99221,355.694657 82.59082,356.357737 C73.19141,357.512037 72.6377,357.359687 69.65332,352.805007 C67.60937,349.686847 66.32324,343.837237 65.92187,335.852907 C65.399409,325.402707 65.8456981,322.980807 69.05371,318.909507 C71.27441,316.094077 74.48242,314.159507 76.92969,314.159507 L76.93065,314.158567 Z M342.45705,316.533567 C339.83596,317.895867 335.99318,320.834347 333.91994,323.062867 C331.84474,325.291387 329.27639,329.413457 328.209,332.227907 C327.14162,335.041387 326.70802,339.079467 327.24025,341.204467 C327.77443,343.329467 329.93263,346.274777 332.0381,347.749387 C334.1465,349.224977 336.86037,350.432977 338.07521,350.432977 C339.28712,350.432977 343.31154,347.402707 347.01369,343.699577 C350.71681,339.996457 354.2881,334.506217 354.94728,331.500377 C355.607436,328.494517 355.676772,324.164437 355.102553,321.873427 C354.529311,319.584367 352.519543,316.889047 350.638683,315.882217 C348.103523,314.525767 345.989273,314.692767 342.455093,316.531631 L342.45705,316.533567 Z M877.20105,303.224567 C878.6532,304.139606 880.63757,306.152297 881.61121,307.694297 C882.93152,309.789997 882.566288,311.402307 880.16394,314.056597 C878.01257,316.433547 874.81238,317.613237 870.51453,317.613237 C866.91687,317.613237 863.14344,316.477497 861.94226,315.030227 C860.2157,312.950147 860.34558,311.612257 862.615112,308.148387 C864.163942,305.783157 867.486202,303.332957 869.995972,302.703077 C872.507692,302.073194 875.747922,302.306593 877.201052,303.223585 L877.201052,303.224561 L877.20105,303.224567 Z M912.66305,306.537567 C914.23141,307.139129 915.97262,308.372527 916.53024,309.277797 C917.088834,310.181117 916.185513,312.429167 914.5195,314.268027 C912.853487,316.106887 910.15329,317.613727 908.51462,317.613727 C906.87985,317.613727 904.65524,316.546347 903.57224,315.241657 C902.48924,313.936967 902.0781,311.635207 902.657201,310.124467 C903.236303,308.614697 905.083961,306.944777 906.760721,306.410597 C908.439431,305.87837 911.095681,305.935988 912.664041,306.536574 L912.66305,306.537567 Z M133.99005,298.613567 C137.23907,298.613567 138.18536,299.526653 138.18536,302.663367 C138.18536,304.892857 136.81622,307.954387 135.13946,309.470007 C133.46661,310.985627 130.86993,312.696567 129.36993,313.271767 C127.87286,313.846962 125.65802,313.124306 124.44903,311.669227 C123.242,310.213177 122.65411,307.976847 123.14532,306.698527 C123.634578,305.418257 125.33184,303.078407 126.91583,301.493447 C128.49982,299.908487 131.68243,298.613567 133.98907,298.613567 L133.990047,298.613567 L133.99005,298.613567 Z M651.17905,203.609667 C649.33432,203.609667 646.53354,205.584277 644.95249,207.994437 C643.19761,210.676077 642.00522,216.242487 641.88901,222.308937 C641.756198,229.358737 642.556002,233.312837 644.89975,236.964237 L645.156586,237.354862 L645.414398,237.740604 L645.923187,238.521854 L646.417328,239.305057 L646.889984,240.078495 L647.872406,240.831425 L650.537446,241.241581 C651.984716,241.307987 653.358736,240.984745 654.656586,240.271854 L655.086274,240.019901 L655.520844,239.740604 C657.576504,238.383184 659.996434,236.264044 661.077484,234.854864 C662.234714,233.344124 663.207364,228.597054 663.237644,224.305064 C663.277683,218.731824 662.040374,214.657604 658.912444,210.055064 C656.381194,206.330454 653.115564,203.608774 651.179044,203.608774 L651.179044,203.60975 L651.17905,203.609667 Z M550.72805,174.245367 C548.73586,174.245367 544.50051,175.854747 541.31594,177.822517 C538.13137,179.792247 533.95949,183.393807 532.0425,185.828377 C530.12551,188.263927 528.56105,192.699467 528.56105,195.684827 C528.56105,198.671157 529.82179,202.913347 531.36281,205.114517 C533.44484,208.085217 535.31789,208.893817 538.64699,208.256117 C541.11183,207.78639 545.63332,204.667247 548.69679,201.326427 C551.75734,197.984627 555.11769,192.081307 556.1587,188.210227 C557.51222,183.182887 557.52491,180.178977 556.201669,177.706327 C555.182139,175.803007 552.719249,174.244417 550.728039,174.244417 L550.728039,174.245393 L550.72805,174.245367 Z M848.44905,156.998367 C851.32014,156.983719 854.13167,158.442707 855.78987,160.812817 C857.26839,162.923167 858.4803,166.285477 858.4803,168.282547 C858.4803,170.279617 856.7303,173.510087 854.59358,175.455397 C852.45686,177.402667 848.79182,179.985667 846.45198,181.197587 C844.11311,182.406567 840.81917,183.760087 839.13264,184.199537 C837.33967,184.66731 835.62092,183.838209 834.99299,182.200517 C834.40217,180.660477 834.462717,176.505207 835.125802,172.968097 C835.788888,169.430007 837.158032,164.966147 838.163892,163.047197 C839.171702,161.129227 840.854322,158.990557 841.898272,158.292317 C842.942222,157.595051 845.890462,157.013017 848.450032,156.997397 L848.44905,156.998367 Z M611.00505,57.8205669 C613.63786,58.4338479 617.71696,59.8156869 620.07048,60.8889269 C622.42302,61.9611969 625.11736,65.0305269 626.05876,67.7043569 C627.33903,71.3459569 627.12419,73.7346269 625.211104,77.2014269 C623.803874,79.7492769 619.942554,83.1242769 616.631024,84.7014269 C613.320474,86.2785769 608.240404,88.0559169 605.344924,88.6496669 C602.448444,89.2414639 599.534374,89.1818939 598.867384,88.5149009 C598.2209,87.8684169 597.688674,82.6731009 597.656444,76.8342009 L597.655467,76.2853729 C597.655467,66.8615429 598.275584,64.6486729 601.937697,60.9845729 C605.258987,57.6623029 607.292187,56.9533229 611.006057,57.8195329 L611.00505,57.8205669 Z"></path>
  </g>
</svg>