<?xml version="1.0" standalone="no"?>
<!DOCTYPE svg PUBLIC "-//W3C//DTD SVG 1.1//EN" "http://www.w3.org/Graphics/SVG/1.1/DTD/svg11.dtd" >
<svg xmlns="http://www.w3.org/2000/svg" xmlns:xlink="http://www.w3.org/1999/xlink" version="1.1" viewBox="-10 0 1034 1024">
   <path fill="currentColor"
d="M549.257 -140.937c5.18652 0.426758 7.28223 1.56738 8.94629 4.87305c1.19531 2.375 2.18164 10.1484 2.19141 17.2734c0.0107422 7.125 -1.12891 19.9512 -2.5332 28.5c-1.40625 8.55078 -2.56934 21.0176 -2.58594 27.7061
c-0.0166016 6.6875 1.16602 16.748 2.62598 22.3555c1.46094 5.6084 4.24316 12.7646 6.18359 15.9043c1.94238 3.13965 4.31152 8.625 5.27148 12.1904c0.957031 3.56445 2.77344 7.55664 4.03711 8.87012c1.51172 1.57031 3.97168 1.99121 7.18945 1.22559
c2.69141 -0.638672 5.66895 -1.15918 6.61914 -1.15527c0.847656 0.00292969 4.47754 0.415039 8.43066 0.952148l0.953125 0.130859c0.15918 0.0224609 0.319336 0.0449219 0.479492 0.0673828c7.9375 1.11621 8.29785 0.963867 14.6816 -6.19336
c3.60059 -4.03516 8.94824 -9.18066 11.8809 -11.4355s9.49902 -4.88965 14.5889 -5.85645c5.09277 -0.963867 15.2793 -4.85449 22.6396 -8.64355c9.5918 -4.94043 15.5166 -6.88965 20.9209 -6.88965c4.14648 0 8.76953 0.97168 10.2705 2.15918
c1.50098 1.18848 3.59277 3.85742 4.64844 5.93262c1.05469 2.07715 1.91895 7.59473 1.91895 12.2656s-0.880859 11.1338 -1.95898 14.3643c-1.07812 3.22754 -6.59766 12.3281 -12.2646 20.2178c-7.65918 10.668 -10.3047 15.8281 -10.3047 20.1104
c0 4.71875 1.92578 7.74805 10.6455 16.7451c5.85547 6.04102 12.832 12.5029 15.5029 14.3584c2.6709 1.85645 7.08008 6.90918 9.80078 11.2275c2.7207 4.31738 6.79883 9.58203 9.06348 11.6982c2.26758 2.11621 6.7373 4.33789 9.9375 4.93848
c4.10352 0.769531 7.72852 0.0927734 12.3125 -2.2959c3.57227 -1.86328 9.1416 -4.78418 12.375 -6.49316c5.6377 -2.98047 5.97266 -2.98047 8.12793 -0.0292969c1.23828 1.69238 3.12305 7.27734 4.18945 12.4111s3.66406 11.3398 5.77344 13.793
c3.31543 3.85547 4.93555 4.37207 11.9844 3.81055c7.77344 -0.618164 8.83887 -1.38574 23.2344 -16.752c2.55273 -2.72559 5.37988 -5.75195 8.22363 -8.80762l1.42285 -1.52734c5.92773 -6.37012 11.7529 -12.667 15.1924 -16.4229
c5.36523 -5.86035 10.3281 -10.0977 11.0293 -9.41602c0.700195 0.682617 0.24707 3.79102 -1.00879 6.90918c-0.920898 2.28711 -3.2793 6.77637 -5.87012 11.2559l-0.711914 1.2207c-0.714844 1.21582 -1.43945 2.41699 -2.14941 3.55664
c-3.5459 5.7002 -9.15527 16.3184 -12.4629 23.5947c-3.30859 7.27734 -9.39355 18.0244 -13.5234 23.8799c-7.05469 10.0039 -7.48242 10.7383 -7.50879 23.1953l-0.00195312 2.14746c0 12.6543 0.474609 15.0381 3.4248 17.1943
c1.88281 1.37598 7.29102 3.65137 12.0176 5.05664c4.72559 1.4043 11.6152 4.64551 15.3096 7.20605c5.91113 4.09668 8.92871 4.78516 25.1201 5.73926c10.1221 0.597656 20.1416 2.01855 22.2686 3.15625s4.38281 4.12598 5.01465 6.64258
c0.629883 2.51465 0.279297 6.96289 -0.78125 9.88184c-1.06055 2.9209 -6.71387 9.70312 -12.5635 15.0713c-5.84863 5.36914 -10.998 11.6738 -11.4443 14.0127c-0.582031 3.04688 0.726562 6.00586 4.62891 10.4473c3.4082 3.88184 9.11719 7.57129 15.2695 9.87012
c5.40723 2.02051 11.1885 4.89844 12.8516 6.39844s3.02246 4.75781 3.02246 7.24121c0 2.48242 -1.99414 7.44727 -4.42969 11.0342c-2.43848 3.58594 -4.54785 8.07031 -4.69141 9.96484c-0.158203 2.12207 2.62402 5.92676 7.23926 9.90234
c6.8418 5.89258 7.5625 7.28418 8.24121 15.9141c0.0595703 0.770508 0.126953 1.55859 0.198242 2.34961l0.109375 1.18457c0.395508 4.14062 0.889648 8.13672 1.23145 9.79395c0.519531 2.52637 3.7793 5.38281 9.37402 8.21582
c4.7168 2.3916 9.84375 6.28223 11.3945 8.64941c1.73145 2.64062 2.50781 6.41211 2.0166 9.77246c-0.511719 3.47949 -3.26562 7.76953 -7.55957 11.7734c-3.71387 3.46484 -12.3799 9.6416 -19.2568 13.7266c-6.87695 4.08594 -15.6025 10.2559 -19.3945 13.7109
c-3.79102 3.4541 -7.33398 7.53906 -7.87305 9.08008c-0.540039 1.54004 0.285156 4.06641 1.83301 5.61426s4.5459 2.81445 6.66211 2.81445c2.11719 0 4.73828 0.888672 5.82617 1.97559c1.48242 1.48242 0.922852 4.05371 -2.24609 10.3076
c-2.32129 4.58008 -4.2207 10.2773 -4.2207 12.6553c0 3.43457 1.15918 4.62402 5.61426 5.77148c4.38867 1.12891 5.73535 2.47852 6.16797 6.18164c0.420898 3.58789 -0.782227 5.86816 -4.96191 9.40039c-3.03711 2.56445 -8.14453 7.11035 -11.3525 10.1045
c-4.04883 3.77832 -5.83203 6.98242 -5.83203 10.4834c0 2.77246 -1.22754 9.17383 -2.72754 14.2236c-2.2666 7.62793 -2.33887 9.55078 -0.431641 11.3525c1.26172 1.19238 6.94531 2.7207 12.6289 3.39551c5.68262 0.672852 13.2188 2.38086 16.7461 3.79297
c4.01172 1.60449 9.19727 6.14844 13.8496 12.1328c0.396484 0.509766 0.793945 1.02734 1.19238 1.5498l0.793945 1.04883l0.731445 0.977539c3.15332 4.23828 6.02148 8.40234 6.99609 10.2119c1.93555 3.58789 1.86621 4.85352 -0.454102 8.39453
c-1.50195 2.29199 -4.7334 4.66992 -7.18164 5.28613c-2.44824 0.615234 -9.04492 0.698242 -14.6582 0.191406c-6.15527 -0.557617 -14.7422 -3.04883 -21.6309 -6.27148c-6.28223 -2.94043 -13.8838 -5.34668 -16.8916 -5.34668
c-3.00879 0 -7.19434 1.20996 -9.30566 2.69043c-2.55273 1.78711 -3.83984 4.46777 -3.83984 7.99902c0 4.01172 1.8252 7.05078 7.46191 12.4268c4.10449 3.91211 11.1631 9.35449 15.6885 12.0898c4.52148 2.73828 9.0752 6.85156 10.1191 9.14062
c1.26074 2.76562 1.34668 5.72949 0.260742 8.84082c-1.21387 3.47461 -2.96191 4.80664 -6.78711 5.17188c-3.21289 0.306641 -7.26465 -0.993164 -10.7705 -3.45508c-3.0918 -2.16992 -9.72754 -8.03223 -14.749 -13.0264
c-5.02051 -4.99316 -11.623 -10.0215 -14.6699 -11.1719c-4.74609 -1.79199 -5.96777 -1.66504 -8.51367 0.882812c-2.40137 2.39941 -2.62695 3.8877 -1.17383 7.7168c0.925781 2.44141 5.33496 11.2803 10.0557 20.1934l0.645508 1.21582
c0.107422 0.201172 0.21582 0.404297 0.323242 0.606445c1.11426 2.08594 2.30762 4.25879 3.52344 6.42773l0.814453 1.44434c4.08008 7.20703 8.28906 14.1289 10.5801 17.3145c3.13281 4.35254 6.17578 10.96 6.7627 14.6816s0.255859 8.88574 -0.736328 11.4707
c-1.09668 2.85938 -3.59277 5.15137 -6.36523 5.84766c-2.81055 0.704102 -6.78027 0.0859375 -10.3408 -1.61133c-3.17773 -1.51367 -7.0459 -4.68945 -8.59668 -7.05566c-1.54883 -2.36523 -4.99316 -10.1328 -7.65234 -17.2617
c-4.15039 -11.125 -7.10938 -15.4199 -20.8867 -30.3145c-10.8467 -11.7266 -17.2686 -17.3535 -19.7998 -17.3535c-2.06348 0 -5.08887 1.48047 -6.72656 3.28906c-2.55762 2.82617 -2.89844 6.40234 -2.42676 25.4785c0.548828 22.1895 0.548828 22.1895 -3.76855 21.874
c-2.375 -0.173828 -8.03027 -0.858398 -12.5674 -1.52539c-6.65234 -0.975586 -8.90625 -0.613281 -11.6592 1.87793c-2.89941 2.62598 -3.41113 5.34473 -3.41113 18.126c0 8.39844 1.59766 22.96 3.61719 32.9834c1.99023 9.87012 5.79199 23.3857 8.44727 30.0371
c2.65723 6.64941 7.6543 17.0566 11.1055 23.126c3.45215 6.06836 10.0293 15.7842 14.6162 21.5908c2.08594 2.63965 4.75 6.05664 7.45508 9.55273l1.62305 2.10254c2.69922 3.49902 5.3291 6.9375 7.35059 9.61523c4.44922 5.89258 9.67871 14.3057 11.6211 18.6992
c1.94336 4.39453 3.96777 12.1973 4.49805 17.3418c0.68457 6.63086 0.102539 11.6182 -2.00195 17.125c-1.62988 4.27344 -4.95312 9.33105 -7.38086 11.2412c-2.77832 2.18555 -7.01953 3.47363 -11.4307 3.47363c-4.71484 0 -9.11035 -1.4502 -13.4023 -4.42676
c-3.77832 -2.61719 -8.60352 -8.58496 -11.8115 -14.6016c-2.98535 -5.59961 -7.00879 -17.4033 -8.94141 -26.2354c-1.93457 -8.83008 -4.14355 -21.6064 -4.91211 -28.3926c-0.766602 -6.78516 -3.31055 -16.501 -5.65625 -21.5908
c-2.34277 -5.08984 -7.43555 -14.1484 -11.3184 -20.1328c-3.88281 -5.9834 -9.05566 -16.0889 -11.4912 -22.4561c-2.43848 -6.36621 -6.68262 -16.2393 -9.43457 -21.9404c-2.75293 -5.70117 -7.22461 -12.8135 -9.9375 -15.8076
c-1.4707 -1.62109 -5.19629 -4.24707 -10.0176 -7.16797l-1.13184 -0.677734c-4.02539 -2.3916 -8.70996 -4.9375 -13.4414 -7.2666c-13.3926 -6.58789 -21.7471 -9.6709 -26.2109 -9.6709c-4.49609 0 -8.1875 1.37598 -11.7686 4.39062
c-2.94434 2.47949 -6.76367 8.52344 -8.76953 13.8818c-1.9541 5.22266 -3.54395 13.5459 -3.53418 18.4971c0.00976562 6.17383 1.45605 11.9883 4.5957 18.5029c3.63184 7.53125 4.53613 11.8271 4.36621 20.7285c-0.123047 6.50977 1.20996 16.3535 3.17676 23.4287
c1.86426 6.71094 3.38965 15.126 3.38965 18.7021c0 4.79785 -1.25195 7.75195 -4.78125 11.2812c-2.63086 2.63086 -7.69336 5.32812 -11.251 5.99512c-4.13281 0.775391 -8.1543 0.404297 -11.1338 -1.02637c-2.56445 -1.2334 -5.8584 -4.37012 -7.31738 -6.96973
c-1.92969 -3.43945 -2.65332 -9.80371 -2.65332 -23.3193c0 -3.40918 0.0742188 -7.25781 0.204102 -11.1396l0.0761719 -2.11816c0.270508 -7.05469 0.710938 -13.9707 1.20703 -18.2881c1.00195 -8.73535 0.850586 -15.3115 -0.469727 -20.1895
c-1.07617 -3.97754 -4.93066 -10.998 -8.57031 -15.5977c-4.08301 -5.16699 -10.5088 -10.4482 -16.8027 -13.8105c-5.60645 -2.99414 -12.8701 -8.21777 -16.1445 -11.6064c-4.66699 -4.8291 -7.27832 -6.14941 -12.0918 -6.1084
c-3.41992 0.03125 -9.19727 1.94043 -13.0479 4.30957c-5.58105 3.43652 -9.19531 4.25781 -18.7969 4.26465c-11.3828 0.00878906 -12.1328 0.269531 -17.6895 6.16211c-3.19141 3.38379 -9.70215 14.0723 -14.4697 23.751
c-7.72266 15.6787 -8.86328 19.4814 -10.4668 34.8711c-1.1377 10.9248 -4.0752 24.2549 -7.99219 36.2734c-5.81543 17.8525 -6.22852 20.6191 -6.81934 45.7754c-0.0371094 1.63574 -0.0859375 3.29688 -0.141602 4.96387l-0.0585938 1.66797
c-0.0214844 0.556641 -0.0419922 1.11328 -0.0644531 1.66895l-0.0693359 1.66504c-0.5 11.6406 -1.34766 22.7363 -2.1377 27.1689c-1.0293 5.79004 -3.8877 13.4131 -6.47754 17.2734c-2.55078 3.7998 -4.88867 7.88086 -5.19531 9.06934
c-0.366211 1.41211 -3.94824 2.14844 -10.3643 2.13086c-9.80566 -0.0302734 -9.80566 -0.0302734 -13.7031 -9.06934c-2.14355 -4.9707 -3.8916 -12.3145 -3.88574 -16.3164c0.00488281 -4.00391 1.75879 -14.1084 3.89746 -22.4561
c3.19531 -12.4775 3.80859 -19.0195 3.44531 -36.7695c-0.438477 -21.5908 -0.438477 -21.5908 6.79199 -36.9609c6.79199 -14.4375 7.27539 -16.4941 7.99512 -33.959c0.644531 -15.6484 0.168945 -20.5566 -3.01074 -31.0215
c-2.84473 -9.37109 -5.34473 -13.8994 -10.1465 -18.3916c-3.50488 -3.27832 -9.1709 -7.42676 -12.5889 -9.21875c-3.41992 -1.79199 -9.83887 -6.02051 -14.2656 -9.39941s-9.61328 -6.14355 -11.5244 -6.14355c-1.94629 0 -4.26953 1.73926 -5.27832 3.9541
c-1.33496 2.93066 -1.04492 6.95898 1.12109 15.584c2.86719 11.4121 2.84473 11.9258 -1.14551 27.4033c-2.2373 8.67773 -5.50195 17.5986 -7.25488 19.8262c-2.17188 2.75977 -4.96875 4.05176 -8.77734 4.05176c-3.07422 0 -6.81836 -0.969727 -8.31934 -2.15918
c-1.50098 -1.18652 -3.59375 -3.85742 -4.64844 -5.93262c-1.05469 -2.07715 -1.90918 -7.5166 -1.89648 -12.0918c0.0117188 -4.5752 1.58691 -15.7031 3.49805 -24.7285c2.24316 -10.5947 3.09473 -19.1484 2.4043 -24.1426
c-0.588867 -4.25195 -2.62207 -10.7695 -4.51465 -14.4824c-1.89551 -3.71191 -5.2832 -8.58887 -7.5293 -10.835c-2.48047 -2.48047 -6.12402 -4.08691 -9.26562 -4.08691c-3.98828 0 -6.49121 1.62988 -10.875 7.08691c-3.13184 3.89844 -7.79297 8.17383 -10.3594 9.5
c-2.56641 1.32812 -7.45801 2.41309 -10.875 2.41309c-4.28906 0 -7.52051 -1.31055 -10.4482 -4.23926c-3.08203 -3.08008 -4.23926 -6.11816 -4.23926 -11.1104c0 -5.43066 -0.749023 -7.11035 -3.57422 -8.00586c-2.36035 -0.748047 -5.56152 0.240234 -9.41406 2.90723
c-2.76758 1.91504 -11.7539 9.97559 -21.1885 18.9531l-1.13281 1.08105l-1.13574 1.08887c-0.756836 0.726562 -1.51367 1.45703 -2.26855 2.18848c-18.5215 17.9473 -21.4678 20.0732 -42.8408 30.8955c-2.62988 1.33105 -5.38574 2.76367 -8.15918 4.23535
l-1.66504 0.887695c-9.99707 5.3457 -19.9404 11.04 -24.7256 14.2295c-6.38086 4.25098 -15.0879 11.457 -19.3496 16.0127c-4.26367 4.55664 -10.6006 12.7432 -14.0859 18.1924c-3.48633 5.44922 -8.48926 15.8213 -11.1172 23.0479
c-1.00977 2.78125 -2.15039 6.11426 -3.2627 9.51367l-0.663086 2.0459c-1.53516 4.77051 -2.95996 9.48535 -3.84863 12.8105c-1.64648 6.1748 -4.50098 14.4834 -6.34277 18.4648c-2.45703 5.3125 -5.30273 8.18457 -10.6973 10.7959
c-5.09375 2.4668 -10.7627 3.55762 -18.4648 3.55078c-8.04004 -0.00292969 -12.6699 -0.954102 -16.7432 -3.43848c-3.09668 -1.8877 -7.22656 -5.96484 -9.17871 -9.0625c-2.87598 -4.5625 -3.40527 -7.6377 -2.79004 -16.2334
c0.446289 -6.22559 2.55469 -14.5264 5.1084 -20.1016c2.48535 -5.42871 7.56641 -12.3555 11.8652 -16.1699c4.13477 -3.66992 12.2812 -11.4688 18.1035 -17.3301c5.82324 -5.8623 14.7646 -17.5215 19.873 -25.9092c5.1084 -8.38965 13.0352 -18.8848 17.6172 -23.3193
c4.58203 -4.43555 13.416 -10.5947 19.6328 -13.6875c8.80566 -4.37793 12.3848 -7.36426 16.2061 -13.5244c2.69824 -4.34766 8.63184 -10.3691 13.1855 -13.3799c4.55566 -3.01367 15.5889 -9.10352 24.5195 -13.5352c9.88574 -4.90527 19.8301 -11.4551 25.418 -16.7402
c5.04785 -4.77637 10.8154 -12.0635 12.8164 -16.1963c2.00098 -4.13184 3.3877 -9.65137 3.08301 -12.2676c-0.446289 -3.84473 -1.66504 -4.9834 -6.35742 -5.93457c-3.19238 -0.648438 -6.94727 -2.32227 -8.34375 -3.71777
c-2.2373 -2.23633 -1.90625 -3.80176 2.76172 -13.0469c2.99902 -5.94043 4.83301 -11.7275 4.21973 -13.3232c-0.59375 -1.55078 -2.33398 -2.47559 -3.86621 -2.05762c-1.53125 0.419922 -5.6748 2.48828 -9.20508 4.5957
c-3.53125 2.1084 -7.75879 3.57422 -9.3916 3.25977c-1.65625 -0.319336 -3.60254 -3.01367 -4.39941 -6.08789c-0.99707 -3.85352 -0.591797 -7.75488 1.35059 -12.9512c1.52832 -4.09082 3.20312 -9.71582 3.7207 -12.4961
c0.719727 -3.87109 0.0292969 -5.79492 -2.94727 -8.2041c-2.13867 -1.73145 -6.64844 -3.14746 -10.0215 -3.14746s-10.2832 -1.30664 -15.3555 -2.90625c-8.64551 -2.72461 -9.79688 -2.72461 -18.4678 0.00976562c-5.61914 1.77051 -15.1787 7.38574 -24.3477 14.3037
c-8.30273 6.2627 -18.6992 12.9814 -23.0986 14.9248c-5.80859 2.57031 -11.4346 3.50293 -20.5391 3.41016c-9.40918 -0.0976562 -14.1699 -1.0459 -19.0703 -3.7998c-3.59277 -2.02051 -8.33398 -6.30273 -10.5381 -9.51953
c-2.2041 -3.21582 -4.39746 -8.81055 -4.87402 -12.4316c-0.566406 -4.29395 0.375 -9.88574 2.70508 -16.083c1.96582 -5.22559 6.0459 -12.4961 9.06445 -16.1562c3.01953 -3.65918 9.05859 -8.26953 13.4219 -10.2451l0.417969 -0.186523
c0.34668 -0.15332 0.69043 -0.299805 1.03418 -0.44043l0.413086 -0.166016c6.28223 -2.46875 13.1514 -2.9375 42.2285 -3.52441c36.165 -0.732422 36.165 -0.732422 45.3203 -9.62109c5.03516 -4.8877 11.5742 -11.0547 14.5303 -13.7031
c4.35938 -3.90234 5.17188 -5.7002 4.29395 -9.5c-0.59375 -2.57715 -3.97559 -7.31152 -7.51172 -10.5205c-3.53809 -3.20898 -9.625 -7.2793 -13.5273 -9.04102c-3.90137 -1.76465 -12.0635 -3.96094 -18.1367 -4.88379
c-6.07324 -0.923828 -17.0947 -3.65625 -24.4932 -6.07227c-9.56934 -3.12695 -17.2021 -4.39648 -26.4395 -4.39648c-7.14453 0 -18.1904 -0.845703 -24.5488 -1.88086c-11.0674 -1.7998 -12.123 -1.65332 -24.8037 3.45508
c-7.28223 2.93457 -16.373 5.33594 -20.1992 5.33594c-4.86328 0 -8.41504 -1.25391 -11.8027 -4.16797c-4.21387 -3.62598 -4.8457 -5.40527 -4.8457 -13.6367c0 -7.04395 0.883789 -10.4473 3.45508 -13.2881c1.89941 -2.10352 6.33887 -5.29297 9.8623 -7.09082
c3.52539 -1.80078 8.78711 -3.27246 11.6943 -3.27246s10.0459 1.93457 15.8682 4.29883c5.82031 2.36523 15.1045 5.56934 20.6357 7.12207c6.29785 1.76855 13.9014 2.54297 20.3486 2.07715c7.31152 -0.52832 13.458 -2.41699 21.2158 -6.51367
c6.00781 -3.17383 13.874 -6.53613 17.4814 -7.4707c4.60645 -1.19434 10.4072 -1.04297 19.4932 0.511719c9.78516 1.67285 14.5078 1.74219 19.3838 0.280273c3.54395 -1.06152 9.82227 -5.17578 13.9482 -9.14062c4.12598 -3.96387 8.66309 -9.98438 10.0791 -13.375
c1.44922 -3.46973 2.21484 -8.875 1.74707 -12.3594c-0.456055 -3.4043 -3.33887 -10.6348 -6.40332 -16.0674c-3.64551 -6.45996 -5.23828 -11.21 -4.60449 -13.7373c0.53418 -2.125 4.50098 -6.81348 8.81738 -10.4229
c5.86523 -4.90234 7.84766 -7.77637 7.84766 -11.3721c0 -2.92969 -2.5332 -8.06445 -6.47852 -13.1309c-6.09961 -7.83398 -6.45605 -8.44434 -6.47559 -21.9902l-0.000976562 -2.16992v-0.731445l-0.000976562 -1.39355
c-0.0175781 -13.7324 -0.383789 -14.1396 -8.2041 -22.8447c-6.66602 -7.41699 -8.2041 -10.3311 -8.2041 -15.5244c0 -3.51465 0.97168 -7.62109 2.16016 -9.12207c1.1875 -1.50098 3.89746 -3.61523 6.02441 -4.69824s15.3418 -2.43555 29.3652 -3.00684
c21.9795 -0.892578 26.0117 -1.50195 29.2158 -4.41016c2.0459 -1.85547 4.57031 -6.76172 5.61426 -10.9033c1.04395 -4.14258 1.87988 -10.4922 1.85938 -14.1094c-0.0214844 -3.61719 -1.46094 -9.68457 -3.20117 -13.4854
c-1.74219 -3.7998 -7.02539 -10.4062 -11.7422 -14.6816c-4.71875 -4.27441 -12.6699 -9.94629 -17.6689 -12.6006c-4.88672 -2.59863 -15.5771 -11.1631 -24.0205 -19.2275l-0.572266 -0.548828c-1.70605 -1.64355 -3.49902 -3.33008 -5.31641 -5l-1.21289 -1.11035
c-6.88574 -6.27148 -13.875 -12.1357 -17.3613 -14.4814c-4.47949 -3.01758 -15.0166 -8.20996 -23.749 -11.7178l-0.764648 -0.305664c-8.87012 -3.50586 -19.8086 -9.03223 -24.3076 -12.2754c-4.50098 -3.24609 -10.9131 -9.09375 -14.25 -12.9912
c-5.39746 -6.30469 -6.04297 -7.98438 -6.06934 -17.1143l-0.000976562 -0.633789c0 -9.02246 0.770508 -11.7188 5.01562 -17.582c2.76074 -3.80859 7.84082 -8.67188 11.291 -10.8037c5.41016 -3.34277 8.1084 -3.78613 19.5986 -3.2207
c10.0596 0.496094 15.6494 1.80273 22.8232 5.33398c3.89062 1.91602 11.9961 6.7793 20.1973 12.0576l1.40625 0.908203c2.34277 1.51855 4.67285 3.05957 6.89746 4.56348c10.4492 7.06641 24.374 16.6016 30.9404 21.1875
c6.56738 4.58398 15.2344 12.5127 19.2578 17.6172c4.02441 5.10547 10.2275 14.5908 13.7861 21.0801c4.59375 8.38477 8.0957 12.5723 12.0947 14.4688c3.09473 1.46777 9.86523 2.6709 15.0459 2.6709c7.52539 0 10.3096 0.824219 13.8545 4.11035
c2.72363 2.52441 5.82324 8.77051 8.03027 16.1846c1.97754 6.6416 5.12695 14.0205 6.99707 16.3984s6.06641 5.58789 9.32324 7.13477c3.25879 1.54492 9.49707 2.81055 13.8652 2.81055c5.76367 0 8.93945 -0.995117 11.5645 -3.62012
c2.77539 -2.77539 3.42676 -5.09277 2.78809 -9.93164c-0.456055 -3.47266 -2.27539 -10.0059 -4.04004 -14.5215c-2.44141 -6.24414 -2.75488 -8.93164 -1.31445 -11.2266c1.41309 -2.25391 5.00684 -3.2373 14.1953 -3.88086
c9.78516 -0.6875 13.1064 -1.66797 16.2314 -4.79785c2.92676 -2.93164 3.88672 -5.7998 3.7627 -11.2275c-0.09375 -4.02344 -2.1084 -11.1631 -4.49414 -15.9297c-2.37891 -4.75 -5.24316 -12.3848 -6.36523 -16.9639
c-1.12109 -4.58105 -4.9707 -13.1318 -8.55566 -19.001c-3.58496 -5.87012 -9.79395 -14.9482 -13.8008 -20.1738c-4.00781 -5.22461 -9.39941 -13.7744 -11.9834 -19.001c-3.46191 -7.00098 -4.86426 -12.7979 -5.33301 -22.0371
c-0.487305 -9.58789 0.0400391 -13.5684 2.23535 -16.9219c1.58008 -2.40918 4.79492 -5.25781 7.14355 -6.32812c3.38867 -1.54492 5.5 -1.3623 10.1963 0.876953c3.25879 1.55371 9.13086 5.72266 13.0498 9.26367c3.9209 3.54102 9.51367 11.1475 12.4316 16.9053
c2.91797 5.75684 6.69727 14.4014 8.39844 19.2119c1.7002 4.80957 4.30859 16.3213 5.80078 25.5801c1.49023 9.25977 3.80469 19.46 5.14453 22.666c1.33887 3.20605 4.63379 6.95117 7.32129 8.32422c2.68848 1.37305 7.28613 3.01465 10.2168 3.64551
c3.93848 0.845703 6.41016 0.270508 9.47168 -2.20801c3.51953 -2.84961 4.1377 -4.86719 4.12598 -13.4609c-0.00878906 -5.56152 -0.989258 -14.4258 -2.17969 -19.7041c-1.19141 -5.27832 -4.94043 -13.7197 -8.33691 -18.7627
c-3.39551 -5.04199 -7.59082 -12.7725 -9.32715 -17.1787c-1.28809 -3.27246 -3.50098 -10.0742 -5.55273 -16.9619l-0.469727 -1.58887c-0.542969 -1.85254 -1.06934 -3.69043 -1.55566 -5.4502c-2.43457 -8.7959 -6.83789 -20.8428 -9.78906 -26.7734
c-2.94922 -5.93262 -7.66406 -13.7061 -10.4785 -17.2783c-2.81152 -3.57227 -6.2373 -9.18262 -7.6084 -12.4678c-1.37305 -3.28516 -2.49609 -8.66309 -2.49609 -11.9482c0 -4.35547 1.2002 -6.91992 4.42871 -9.46094c3.1709 -2.49512 5.5 -3.0918 8.2041 -2.1084
c2.07715 0.755859 5.9541 4.44629 8.61621 8.20117c3.53906 4.99316 5.0791 9.58887 5.72559 17.0996c0.489258 5.64844 1.71387 14.1543 2.72461 18.9053c1.00977 4.75098 4.37793 13.3008 7.48242 19.001s6.96094 15.0273 8.57031 20.7285
c1.6084 5.70117 5.60547 15.4883 8.88379 21.748c3.27832 6.26172 9.82715 15.9775 14.5508 21.5908c4.72656 5.61426 12.8652 14.4824 18.0898 19.707c5.22559 5.22461 12.791 14.5518 16.8174 20.7275c6.92285 10.6211 7.71582 11.2578 14.6592 11.7578
c6.81543 0.493164 7.60156 0.0898438 10.9922 -5.65723c2.00879 -3.40527 5.20801 -7.02344 7.10938 -8.04004c2.50293 -1.33789 5.54492 -1.26758 11.0029 0.260742c6.42773 1.7998 8.16602 1.70508 11.7383 -0.634766c2.74512 -1.79883 4.87891 -5.59961 6.18652 -11.0107
c1.09473 -4.5459 2.43066 -21.3223 2.96582 -37.2832c0.918945 -27.3682 0.708008 -30.1396 -3.70215 -48.8066c-2.88672 -12.2148 -4.25098 -21.7295 -3.56348 -24.8545c0.679688 -3.09473 -0.34375 -10.4609 -2.63281 -18.9443
c-3.74609 -13.8789 -3.74609 -13.8789 0.105469 -21.8359c2.12012 -4.375 5.54688 -8.72852 7.61328 -9.6709c2.07031 -0.94043 6.81152 -1.46289 10.5371 -1.15723zM843.495 743.674c4.3916 2.05078 11.9346 6.17188 16.7588 9.16211
c5.4834 3.39648 9.85449 7.71582 11.6592 11.5215c1.58887 3.34766 2.8877 8.93359 2.8877 12.416c0 3.48047 -0.874023 8.02539 -1.94336 10.1025c-1.06934 2.0752 -3.53613 5.52344 -5.4834 7.65918s-5.21387 3.88574 -7.25586 3.88574
c-2.04395 0 -5.38086 -1.77051 -7.41309 -3.93457c-2.0332 -2.16602 -4.8125 -7.09961 -6.17676 -10.9648c-1.36523 -3.86621 -4.04297 -10.0947 -5.95801 -13.8438c-1.91309 -3.75 -4.61719 -11.1875 -6.01367 -16.5303
c-1.70703 -6.53516 -1.96582 -10.2842 -0.792969 -11.457c1.1709 -1.17188 4.35645 -0.523438 9.73047 1.98242zM536.49 743.327c0.892578 1.32617 1.26074 5.4541 0.814453 9.1709c-0.443359 3.71875 -2.24902 8.69141 -4.01074 11.0488
c-1.76172 2.3584 -4.86914 4.90723 -6.90918 5.66211c-2.48828 0.919922 -4.37305 0.566406 -5.74023 -1.08105c-1.60352 -1.93262 -0.916992 -4.83594 3.24707 -13.7393c2.90527 -6.20801 6.56445 -11.7793 8.12793 -12.3799
c1.59668 -0.612305 3.55762 -0.0351562 4.46875 1.31836h0.00195312zM34.0176 673.612c1.88086 0.141602 4.88379 1.58301 6.67871 3.20801c1.93652 1.75391 3.26074 5.25781 3.26074 8.62793c0 3.12109 -0.685547 6.09863 -1.52344 6.61719
c-0.836914 0.517578 -2.58789 1.29199 -3.88574 1.72266c-1.29883 0.427734 -4.29004 0.00878906 -6.64453 -0.930664c-2.35547 -0.94043 -5.66113 -2.95605 -7.3418 -4.47949c-1.68164 -1.52051 -3.05859 -4.18262 -3.05859 -5.91504
c0 -1.73145 2.04688 -4.4873 4.54883 -6.12891c2.50098 -1.63867 6.08691 -2.86426 7.96582 -2.72168zM491.164 336.628c-7.62793 2.52051 -18.2881 7.24316 -23.6904 10.4922c-5.40137 3.25098 -14.0146 9.14258 -19.1426 13.0947s-13.6631 12.5605 -18.9717 19.1289
c-5.44727 6.74219 -12.0811 12.959 -15.2373 14.2764c-3.0752 1.28516 -8.78027 2.33594 -12.6816 2.33594c-3.90039 0 -12.9082 1.95215 -20.0186 4.33887s-16.6201 6.21191 -21.1338 8.49902c-4.51465 2.28906 -12.2803 7.37695 -17.2539 11.3096
c-4.97461 3.93164 -12.6064 11.9629 -16.9551 17.8438c-4.35156 5.87988 -9.24512 13.8008 -10.873 17.6006c-1.62988 3.7998 -4.73438 14.1191 -6.89746 22.9297c-3.15723 12.8643 -3.76855 19.1631 -3.09668 31.9551c0.494141 9.38867 2.36523 20.6729 4.55273 27.4668
c2.70996 8.40918 5.76465 13.6387 11.2842 19.3193c4.16309 4.2832 12.251 10.1514 17.9707 13.0381c5.7207 2.88672 16.083 6.82617 23.0254 8.75098c8.31738 2.30566 17.8672 3.49805 27.9912 3.49805c8.45215 0 22.8477 -1.2998 31.9912 -2.88965
c9.14258 -1.58984 23.6318 -2.94922 32.1973 -3.02344c1.31738 -0.0107422 2.52539 -0.0205078 3.64062 -0.0234375h1.29395c10.6367 0.0253906 12.2939 0.875977 22.7041 7.07227c6.63477 3.9502 20.0654 14.0557 29.8477 22.4561
c9.78223 8.40137 22.2188 17.7988 27.6367 20.8857c5.41895 3.08691 14.1279 7.24512 19.3535 9.24707c5.22559 1.99805 14.9404 4.26953 21.5908 5.04688c6.65039 0.774414 16.1543 1.14062 21.1211 0.8125c5.6875 -0.375977 12.29 -2.37207 17.8408 -5.39453
c4.8457 -2.63867 12.8809 -9.19043 17.8535 -14.5615c4.97168 -5.37109 12.2559 -15.9443 16.1846 -23.499c3.92871 -7.55371 8.83398 -19.8867 10.8965 -27.4033c3.08496 -11.2412 3.60059 -16.75 2.91309 -30.9951
c-0.540039 -11.2148 -2.12695 -21.0781 -4.49512 -27.9756c-2.01465 -5.85742 -6.53125 -15.5742 -10.0361 -21.5908c-3.63184 -6.23438 -12.9053 -17.3281 -21.5605 -25.7959c-1.04004 -1.01758 -2.01562 -1.97949 -2.92871 -2.88867l-1.06738 -1.06738
c-9.17285 -9.2207 -11.6758 -12.9785 -12.9746 -18.498c-0.791016 -3.36328 -2.70605 -11.4424 -4.64062 -19.5918l-0.352539 -1.48145c-0.351562 -1.47949 -0.702148 -2.95312 -1.04395 -4.39062c-2.33887 -9.82715 -7.00879 -23.4473 -10.3789 -30.2676
c-3.37207 -6.82129 -9.96484 -17.1445 -14.6533 -22.9395c-4.6875 -5.79395 -12.5195 -13.4658 -17.4004 -17.0498c-4.88086 -3.58203 -13.2832 -8.32715 -18.6689 -10.543c-7.80469 -3.20898 -13.0488 -4.03516 -25.8311 -4.06836
c-12.7959 -0.0322266 -18.8428 0.884766 -29.9072 4.54297zM190.679 566.906c1.95703 1.0459 3.55762 3.39551 3.55762 5.22363c0 1.82617 -4.4707 7.89258 -9.93262 13.4805c-0.827148 0.845703 -1.67383 1.71777 -2.52344 2.59473l-1.01953 1.05371
c-4.41016 4.57129 -8.69531 9.11621 -10.458 11.1084c-2.23633 2.52637 -5.44629 4.59375 -7.12988 4.59375c-1.68164 0 -4.00391 -1.13477 -5.15527 -2.52441c-1.15137 -1.38672 -2.50293 -5.56055 -3 -9.27051c-0.791016 -5.89746 -0.313477 -7.1582 3.77637 -10
c2.57617 -1.79004 7.75488 -6.11523 11.5098 -9.61328c3.75684 -3.49609 9.07715 -6.85156 11.8242 -7.45508c2.74707 -0.602539 6.59473 -0.239258 8.55078 0.806641v0.00195312zM942.704 574.558c3.29199 0.616211 8.01367 3.15234 10.4971 5.63574
c2.48145 2.48047 4.51074 6.29297 4.51074 8.46973c0 2.21777 -2.00098 5.53125 -4.55078 7.53613c-2.50293 1.96973 -6.64355 3.58105 -9.2002 3.58105c-2.61914 0 -6.19336 -1.69727 -8.18652 -3.88672c-1.94727 -2.13672 -4.41309 -5.58496 -5.4834 -7.6582
c-1.06934 -2.07715 -1.94434 -5.39746 -1.94434 -7.37891c0 -2.13965 1.7041 -4.38086 4.18555 -5.5127c2.30469 -1.0498 6.87598 -1.40137 10.1699 -0.78418zM729.263 339.547c-4.65234 0.550781 -12.4814 2.85059 -17.3955 5.11035s-14.9131 8.87012 -22.2227 14.6885
c-7.30566 5.82031 -16.3838 14.6875 -20.168 19.709c-3.78516 5.01953 -9.68848 13.791 -13.1162 19.4912c-3.42871 5.7002 -7.42773 14.25 -8.88672 19.001c-1.45898 4.75 -3.06738 12.9121 -3.57324 18.1367c-0.694336 7.1582 -0.0351562 11.8223 2.67773 18.915
c1.98145 5.17773 6.01465 12.9521 8.9668 17.2754c2.9502 4.32324 8.43262 10.0693 12.1855 12.7646c3.75195 2.69629 10.4512 6.93262 14.8887 9.41211c4.43652 2.48145 12.7666 6.25684 18.5078 8.3916c6.77148 2.51855 14.3877 3.89941 21.6689 3.93457
c7.60352 0.0341797 13.667 -1.05566 18.7891 -3.37891c4.15723 -1.88672 11.1533 -6.0791 15.5459 -9.31738c4.3916 -3.23633 11.0078 -9.87207 14.7031 -14.7402c3.69531 -4.86719 8.55371 -13.9082 10.7959 -20.0879c2.98145 -8.21289 4.07812 -14.8691 4.07812 -24.752
c0 -8.57422 -1.51367 -19.4893 -4.13965 -29.8398c-2.27734 -8.97559 -6.89258 -21.7852 -10.2549 -28.4639c-3.36523 -6.67969 -10.165 -16.5752 -15.1123 -21.9893s-11.3535 -11.0615 -14.2363 -12.5527c-3.68359 -1.90625 -7.74707 -2.41211 -13.6992 -1.70703z
M356.236 233.326c-5.97363 1.20215 -17.1426 5.26855 -24.8213 9.03418c-7.67773 3.7666 -19.1299 11.1113 -25.4492 16.3242c-6.31836 5.21387 -14.7295 13.5498 -18.6934 18.5303c-3.96484 4.97949 -9.56348 14.1074 -12.4443 20.2822
c-4.64453 9.95996 -5.24512 13.0811 -5.31543 27.6367c-0.0634766 13.0547 0.75293 18.7061 3.99316 27.6377c2.23926 6.1748 6.6543 14.7725 9.81152 19.1094c3.29102 4.51855 9.27539 9.77051 14.0332 12.3135c4.5625 2.43848 12.1816 5.28809 16.9316 6.33105
s11.3564 2.22852 14.6816 2.63281c1.95605 0.236328 5.93848 0.369141 10.4932 0.380859h1.38184c2.79297 -0.00683594 5.74121 -0.0585938 8.52832 -0.158203c11.9541 -0.424805 16.1885 -1.41113 25.292 -5.89355c6.01465 -2.96094 13.8291 -8.58691 17.3652 -12.501
c3.53711 -3.91406 8.46973 -11.4854 10.96 -16.8242c4.03418 -8.64453 4.60059 -12.2637 5.18066 -33.0273c0.492188 -17.6357 -0.0664062 -26.4766 -2.28906 -36.2734c-1.61621 -7.125 -5.08594 -17.6182 -7.70898 -23.3193
c-2.62207 -5.7002 -7.86133 -14.25 -11.6377 -19.001c-3.7793 -4.75 -9.69727 -10.1582 -13.1543 -12.0186c-5.74707 -3.09473 -7.20605 -3.19434 -17.1396 -1.19531zM666.402 107.175c-1.5957 0.311523 -2.44043 0.583984 -3.8457 1.04199l-0.555664 0.181641
l-0.577148 0.19043c-0.791992 0.268555 -1.6709 0.585938 -2.61523 0.943359l-0.71875 0.274414l-1.50195 0.592773l-1.57227 0.639648l-1.62402 0.679688l-0.411133 0.174805l-0.414062 0.177734l-1.66895 0.725586l-1.67773 0.748047l-1.66797 0.761719l-1.63965 0.768555
l-0.404297 0.191406l-0.400391 0.192383l-1.56641 0.762695c-0.766602 0.378906 -1.50684 0.75293 -2.21094 1.11719c-6.33398 3.28418 -15.0391 9.44727 -19.3477 13.6924c-1.22559 1.20801 -2.6377 2.72754 -4.11621 4.41309l-0.558594 0.639648l-1.27051 1.4873
c-0.568359 0.673828 -1.13867 1.3623 -1.70703 2.05957l-0.847656 1.04883l-1.25195 1.58203c-1.85449 2.37402 -3.5791 4.72461 -4.93652 6.75684c-0.571289 0.855469 -1.19043 1.85352 -1.84277 2.95996l-0.395508 0.677734l-0.80957 1.42578l-0.206055 0.371094
l-0.207031 0.375977l-0.839844 1.55176l-0.211914 0.399414l-0.212891 0.402344l-0.857422 1.65039l-0.860352 1.70117l-0.857422 1.73926l-0.849609 1.76367l-0.418945 0.886719l-0.415039 0.889648l-0.813477 1.77734l-0.787109 1.76758l-0.192383 0.4375
l-0.189453 0.4375l-0.735352 1.72656c-0.476562 1.1377 -0.924805 2.24902 -1.33691 3.31543c-0.339844 0.878906 -0.694336 1.82715 -1.05859 2.83398l-0.275391 0.764648l-0.702148 1.99902c-0.236328 0.68457 -0.476562 1.38867 -0.71875 2.10938l-0.364258 1.08887
l-0.732422 2.23828l-0.18457 0.570312l-0.183594 0.574219l-0.735352 2.32812l-0.728516 2.36621l-0.71875 2.38477l-0.701172 2.38672l-0.680664 2.37012l-0.652344 2.33594l-0.620117 2.2832l-0.295898 1.11621l-0.286133 1.0957l-0.538086 2.125
c-0.170898 0.69043 -0.333984 1.36523 -0.488281 2.01855c-2.87109 12.168 -4.82129 26.4561 -5.42383 39.7295l-0.0234375 0.507812l-0.0205078 0.506836l-0.0761719 2.01562l-0.0322266 0.998047l-0.0507812 1.97656l-0.0351562 1.94727l-0.0185547 1.91406
l-0.00292969 0.942383v0.933594l0.0136719 1.83594l0.0292969 1.79199l0.00976562 0.439453l0.0107422 0.4375l0.0527344 1.71777l0.0673828 1.66406l0.0830078 1.60547l0.0986328 1.54688l0.0263672 0.375977l0.0283203 0.37207l0.121094 1.44629l0.0654297 0.698242
l0.0703125 0.679688l0.150391 1.30469c0.15625 1.26562 0.336914 2.41602 0.538086 3.43359c1.12109 5.7002 4.40039 15.2461 7.2832 21.2109c2.88379 5.96484 9.1123 14.7158 13.8418 19.4463c1.625 1.625 3.53418 3.34766 5.50293 4.99121l0.845703 0.698242
l1.23535 0.993164c3.08789 2.44238 6.125 4.54297 8.25879 5.6416c3.98438 2.04883 10.3535 4.70996 14.1533 5.91602c3.80078 1.20312 11.2158 2.24121 16.4795 2.31055c5.26367 0.0585938 14.2021 -1.09375 19.8643 -2.57031
c5.66211 -1.47559 13.793 -4.71973 18.0664 -7.21289c0.550781 -0.321289 1.16895 -0.710938 1.84082 -1.15918l0.513672 -0.345703l1.0791 -0.75293l1.14258 -0.826172l1.19629 -0.891602l0.305664 -0.232422l0.30957 -0.235352l1.25586 -0.975586l1.28223 -1.01855
l0.324219 -0.261719l0.325195 -0.262695l1.30469 -1.07129l0.65332 -0.544922l0.652344 -0.549805l1.29688 -1.11035l1.27637 -1.11816l1.24805 -1.11816l0.306641 -0.27832l0.302734 -0.277344l1.18359 -1.10156l0.572266 -0.542969
c1.75879 -1.68457 3.63477 -3.67969 5.47852 -5.79395l0.787109 -0.912109l1.24219 -1.48145c3.4873 -4.22656 6.63184 -8.63281 8.31348 -11.8066c0.568359 -1.06934 1.17676 -2.31543 1.80371 -3.67578l0.31543 -0.689453l0.742188 -1.67285
c0.248047 -0.570312 0.498047 -1.1543 0.745117 -1.74902l0.37207 -0.894531l0.737305 -1.82129c1.58105 -3.97559 3.04492 -8.10547 4.00879 -11.4307c0.401367 -1.38281 0.805664 -3.05078 1.19824 -4.91504l0.167969 -0.811523l0.330078 -1.6875l0.0810547 -0.43457
l0.0810547 -0.438477l0.318359 -1.7998l0.0771484 -0.459961l0.0771484 -0.462891l0.300781 -1.88574l0.0732422 -0.477539l0.0722656 -0.480469l0.280273 -1.94141l0.0664062 -0.489258l0.0664062 -0.490234l0.254883 -1.9707l0.120117 -0.987305l0.225586 -1.97266
l0.0537109 -0.491211l0.0517578 -0.490234l0.191406 -1.94629l0.167969 -1.91406c0.103516 -1.2627 0.189453 -2.49512 0.254883 -3.68066c0.330078 -5.9668 0.371094 -14.2041 0.166016 -21.9971l-0.0351562 -1.22559l-0.0976562 -2.84277l-0.0273438 -0.698242
l-0.0292969 -0.692383l-0.129883 -2.70215c-0.117188 -2.20215 -0.256836 -4.26758 -0.416992 -6.11426c-1.06543 -12.2734 -3.02441 -21.9248 -7.35547 -35.7637l-0.44043 -1.39746l-0.87207 -2.70801l-0.740234 -2.24121l-0.183594 -0.548828l-0.18457 -0.543945
l-0.733398 -2.13379l-0.731445 -2.06445l-0.727539 -1.99512l-0.363281 -0.97168l-0.362305 -0.955078l-0.722656 -1.86133l-0.720703 -1.7959l-0.720703 -1.73145l-0.71875 -1.66699c-2.39844 -5.45605 -4.79297 -9.87598 -7.26562 -13.4463l-0.219727 -0.314453
l-0.222656 -0.317383l-0.929688 -1.30469l-0.241211 -0.334961l-0.244141 -0.335938l-1.00488 -1.3623l-1.04102 -1.38477l-1.06543 -1.39062l-1.07715 -1.38281l-1.0791 -1.36035l-1.07031 -1.32324l-1.04785 -1.27344l-1.01562 -1.20801l-0.246094 -0.290039
l-0.244141 -0.285156l-0.945312 -1.08301l-0.226562 -0.254883l-0.223633 -0.249023l-0.848633 -0.925781l-0.396484 -0.417969c-3.32129 -3.46777 -9.45898 -7.8916 -13.9346 -10.0811l-1.26953 -0.602539c-0.944336 -0.645508 -1.44043 -1.04297 -2.43945 -1.51367
l-0.400391 -0.180664l-3.31348 -1.22363c-2.81934 -0.682617 -4.72754 -0.258789 -7.65723 0zM765.349 290.795c-2.375 1.08301 -5.33398 4.39453 -6.57324 7.3584c-1.24023 2.96387 -2.26562 8.62988 -2.27539 12.5908c-0.0146484 5.26367 1.10742 8.40332 4.16602 11.6592
c2.30469 2.45312 5.64258 4.45801 7.41992 4.45801s5.13867 -1.90918 7.46973 -4.24023c3.49609 -3.49609 4.24023 -5.94238 4.24023 -13.9502c0 -8.4375 -0.665039 -10.376 -5.06445 -14.7773c-4.46875 -4.4668 -5.57617 -4.83301 -9.38574 -3.09863h0.00292969z
M996.735 289.09c2.74023 1.3125 5.25488 3.80273 5.58789 5.53516s0.172852 4.87207 -0.356445 6.98242c-0.546875 2.17871 -3.78613 5.23828 -7.49512 7.08398c-4.89746 2.43555 -11.0615 3.35742 -24.668 3.69043c-9.97461 0.243164 -21.2461 -0.240234 -25.0459 -1.07617
c-3.7998 -0.833984 -11.1836 -1.57422 -16.4102 -1.64355c-5.22559 -0.0693359 -10.666 -0.890625 -12.0918 -1.82617l-2.59082 -1.70215c4.01562 -2.63574 9.06934 -3.43848 13.8193 -3.4834c4.75 -0.0478516 12.5225 -1.51465 17.2725 -3.26562
c2.47949 -0.913086 5.99121 -2.20996 9.59375 -3.54102l1.80566 -0.666992c2.70508 -1 5.37207 -1.98633 7.60156 -2.81348c5.7002 -2.11133 14.3311 -4.24902 19.1816 -4.75c5.69336 -0.588867 10.5771 -0.0664062 13.7959 1.47559v0.000976562zM536.587 70.3828
c-13.2041 0.0195312 -16.6689 0.727539 -28.5986 5.84961c-7.57617 3.25293 -19.0273 10.1787 -25.9102 15.6738c-6.78516 5.41602 -17.874 15.7021 -24.6436 22.8594c-6.77051 7.1582 -15.4004 17.584 -19.1768 23.167c-3.77734 5.58301 -9.71094 15.5312 -13.1855 22.1055
c-3.47559 6.57422 -8.25391 18.0781 -10.6191 25.5674c-3.13867 9.93359 -4.30078 17.4746 -4.30078 27.8936c0 8.09863 1.2041 18.3398 2.78418 23.6631c1.53027 5.16016 4.66699 13.1016 6.9707 17.6475c2.30078 4.54688 6.96973 11.3486 10.373 15.1152
c3.40234 3.76562 10.0186 9.66113 14.7012 13.0986c4.68164 3.43652 11.7812 7.3125 15.7754 8.61523c4.63379 1.50879 13.2002 2.18945 23.6709 1.87988c13.5137 -0.398438 18.1885 -1.30371 26.4902 -5.13379c5.54492 -2.55762 13.083 -7.02637 16.752 -9.93359
c3.66895 -2.90527 10.6895 -10.333 15.6025 -16.5049c4.90918 -6.17383 11.1211 -15.2734 13.8008 -20.2246c1.83887 -3.39258 4.77441 -9.83691 7.55371 -16.4619l0.69043 -1.6582c1.02734 -2.4873 2.02051 -4.96777 2.9082 -7.28809
c3.45508 -9.02637 8.19238 -23.4053 10.5303 -31.9551c2.40527 -8.80371 4.69629 -23.0381 5.28613 -32.8193c0.856445 -14.2295 0.40625 -19.7812 -2.55957 -31.5029c-2.08398 -8.22949 -6.49023 -19.1553 -10.4541 -25.9102
c-3.76953 -6.42383 -9.68066 -14.3994 -13.1357 -17.7197c-6.19922 -5.96289 -6.47363 -6.04102 -21.3027 -6.02246zM98.4336 173.129c2.27344 0 6.79395 2.33691 10.0469 5.19336c3.25195 2.85547 7.28027 8.07031 8.94922 11.5898
c1.66992 3.51855 3.41016 9.71484 3.86719 13.7666c0.737305 6.54785 0.373047 7.54102 -3.27734 8.90625c-2.25781 0.845703 -8.52441 2.08008 -13.9258 2.74316c-9.39941 1.1543 -9.95312 1.00195 -12.9375 -3.55273
c-2.04395 -3.11816 -3.33008 -8.96777 -3.73145 -16.9521c-0.522461 -10.4502 -0.0761719 -12.8721 3.13184 -16.9434c2.2207 -2.81543 5.42871 -4.75 7.87598 -4.75zM363.96 175.504c-2.62109 1.3623 -6.46387 4.30078 -8.53711 6.5293
c-2.0752 2.22852 -4.64355 6.35059 -5.71094 9.16504c-1.06738 2.81348 -1.50098 6.85156 -0.96875 8.97656c0.53418 2.125 2.69238 5.07031 4.79785 6.54492c2.1084 1.47559 4.82227 2.68359 6.03711 2.68359c1.21191 0 5.23633 -3.03027 8.93848 -6.7334
c3.70312 -3.70312 7.27441 -9.19336 7.93359 -12.1992c0.660156 -3.00586 0.729492 -7.33594 0.155273 -9.62695c-0.573242 -2.28906 -2.58301 -4.98438 -4.46387 -5.99121c-2.53516 -1.35645 -4.64941 -1.18945 -8.18359 0.649414zM898.704 162.195
c1.45215 0.915039 3.43652 2.92773 4.41016 4.46973c1.32031 2.0957 0.955078 3.70801 -1.44727 6.3623c-2.15137 2.37695 -5.35156 3.55664 -9.64941 3.55664c-3.59766 0 -7.37109 -1.13574 -8.57227 -2.58301c-1.72656 -2.08008 -1.59668 -3.41797 0.672852 -6.88184
c1.54883 -2.36523 4.87109 -4.81543 7.38086 -5.44531c2.51172 -0.629883 5.75195 -0.396484 7.20508 0.520508v0.000976562zM934.166 165.508c1.56836 0.601562 3.30957 1.83496 3.86719 2.74023c0.558594 0.90332 -0.344727 3.15137 -2.01074 4.99023
s-4.36621 3.3457 -6.00488 3.3457c-1.63477 0 -3.85938 -1.06738 -4.94238 -2.37207s-1.49414 -3.60645 -0.915039 -5.11719c0.579102 -1.50977 2.42676 -3.17969 4.10352 -3.71387c1.67871 -0.532227 4.33496 -0.474609 5.90332 0.125977zM155.493 157.584
c3.24902 0 4.19531 0.913086 4.19531 4.0498c0 2.22949 -1.36914 5.29102 -3.0459 6.80664c-1.67285 1.51562 -4.26953 3.22656 -5.76953 3.80176c-1.49707 0.575195 -3.71191 -0.147461 -4.9209 -1.60254c-1.20703 -1.45605 -1.79492 -3.69238 -1.30371 -4.9707
c0.489258 -1.28027 2.18652 -3.62012 3.77051 -5.20508s4.7666 -2.87988 7.07324 -2.87988h0.000976562zM672.682 62.5801c-1.84473 0 -4.64551 1.97461 -6.22656 4.38477c-1.75488 2.68164 -2.94727 8.24805 -3.06348 14.3145
c-0.132812 7.0498 0.666992 11.0039 3.01074 14.6553l0.256836 0.390625l0.257812 0.385742l0.508789 0.78125l0.494141 0.783203l0.472656 0.773438l0.982422 0.75293l2.66504 0.410156c1.44727 0.0664062 2.82129 -0.256836 4.11914 -0.969727l0.429688 -0.251953
l0.43457 -0.279297c2.05566 -1.35742 4.47559 -3.47656 5.55664 -4.88574c1.15723 -1.51074 2.12988 -6.25781 2.16016 -10.5498c0.0400391 -5.57324 -1.19727 -9.64746 -4.3252 -14.25c-2.53125 -3.72461 -5.79688 -6.44629 -7.7334 -6.44629v0.000976562zM572.231 33.2158
c-1.99219 0 -6.22754 1.60938 -9.41211 3.57715c-3.18457 1.96973 -7.35645 5.57129 -9.27344 8.00586c-1.91699 2.43555 -3.48145 6.87109 -3.48145 9.85645c0 2.98633 1.26074 7.22852 2.80176 9.42969c2.08203 2.9707 3.95508 3.7793 7.28418 3.1416
c2.46484 -0.469727 6.98633 -3.58887 10.0498 -6.92969c3.06055 -3.3418 6.4209 -9.24512 7.46191 -13.1162c1.35352 -5.02734 1.36621 -8.03125 0.0429688 -10.5039c-1.01953 -1.90332 -3.48242 -3.46191 -5.47363 -3.46191v0.000976562zM869.952 15.9688
c2.87109 -0.0146484 5.68262 1.44434 7.34082 3.81445c1.47852 2.11035 2.69043 5.47266 2.69043 7.46973s-1.75 5.22754 -3.88672 7.17285c-2.13672 1.94727 -5.80176 4.53027 -8.1416 5.74219c-2.33887 1.20898 -5.63281 2.5625 -7.31934 3.00195
c-1.79297 0.467773 -3.51172 -0.361328 -4.13965 -1.99902c-0.59082 -1.54004 -0.530273 -5.69531 0.132812 -9.23242c0.663086 -3.53809 2.03223 -8.00195 3.03809 -9.9209c1.00781 -1.91797 2.69043 -4.05664 3.73438 -4.75488
c1.04395 -0.697266 3.99219 -1.2793 6.55176 -1.29492zM632.508 -83.209c2.63281 0.613281 6.71191 1.99512 9.06543 3.06836c2.35254 1.07227 5.04688 4.1416 5.98828 6.81543c1.28027 3.6416 1.06543 6.03027 -0.847656 9.49707
c-1.40723 2.54785 -5.26855 5.92285 -8.58008 7.5c-3.31055 1.57715 -8.39062 3.35449 -11.2861 3.94824c-2.89648 0.591797 -5.81055 0.532227 -6.47754 -0.134766c-0.646484 -0.646484 -1.17871 -5.8418 -1.21094 -11.6807l-0.000976562 -0.548828
c0 -9.42383 0.620117 -11.6367 4.28223 -15.3008c3.32129 -3.32227 5.35449 -4.03125 9.06836 -3.16504z" />
</svg>
