<?xml version="1.0" encoding="UTF-8"?>
<svg width="927px" height="928px" viewBox="0 0 927 928" version="1.1" xmlns="http://www.w3.org/2000/svg" xmlns:xlink="http://www.w3.org/1999/xlink">
  <g id="FurryNetwork" transform="translate(0.0399, 0.6614)" fill="currentColor" fill-rule="nonzero">
    <path d="M1.06012,650.496086 C5.32086,655.78734 7.41364,662.1311 9.50739,668.4494 C31.72419,728.7238 61.35409,782.6784 103.64309,830.2404 C142.29539,872.9015 189.34919,904.3693 242.12209,925.5724 L244.45217,926.468884 L70.05817,926.476696 C69.313053,926.427868 68.71735,926.229626 68.71735,925.439586 C40.19685,921.202286 20.09915,905.356586 8.47325,879.958186 C5.2711,872.562676 4.23692,865.165186 3.17833,857.744286 C1.46349,801.903486 1.12071,745.389286 1.05235,688.739286 L1.05918594,650.496086 L1.06012,650.496086 Z M859.85282,0 C860.887,0 860.887,1.05371 861.94657,1.05371 C883.12817,4.2373 898.96517,13.74021 911.69857,29.61031 C920.12142,40.14151 926.47687,52.87691 926.47687,66.59171 L926.47687,277.07271 C926.47687,278.027788 926.47687,278.98287 925.686831,279.9565 L925.466128,279.276812 C913.624328,248.809012 899.071628,220.379312 880.734728,193.460412 L873.100938,182.286612 C870.502308,178.587392 867.851918,174.914542 865.147818,171.269012 C832.390018,128.996512 792.169318,94.119612 743.525818,68.723012 C683.231918,36.981812 618.726818,22.188812 551.043818,24.294312 C534.099518,24.294312 518.237218,26.426152 501.291818,29.584352 C472.771318,34.850952 445.258618,42.246452 417.796718,51.773852 C397.673718,58.142012 378.636518,64.460352 361.714718,76.094152 C360.656128,77.122472 359.597528,77.122472 358.513548,78.176182 C359.597528,79.253332 359.597528,78.176182 360.656128,78.176182 L364.005738,77.63712 L362.798708,78.322667 C361.932497,78.322667 360.403198,78.322667 359.826048,79.413487 L359.597532,80.453527 L361.691282,80.453527 C400.852382,74.135167 439.964682,69.873427 480.161282,67.767027 C500.234482,66.688907 521.391782,67.767027 541.489382,70.901797 C571.094882,75.163517 598.629982,85.743597 623.999182,100.536597 C699.071482,143.911597 757.246182,204.184597 795.324182,282.460597 C809.005782,311.192997 819.935482,340.712597 828.365182,370.852197 C839.013582,409.886397 845.261682,449.939097 848.229482,490.640197 C850.323232,517.090397 850.323232,543.541597 849.263662,568.914597 L846.061512,613.317897 C845.027332,626.054197 842.908192,638.715397 840.815422,651.401897 C838.671872,667.272997 835.495112,682.064997 830.224622,696.882397 C816.431622,736.021097 794.264622,769.867797 769.880822,802.638397 C750.916022,828.011397 728.674722,851.277997 707.518522,874.544597 L703.814422,878.408857 C702.493132,879.865887 701.175752,881.451827 700.128872,883.043627 C702.223602,883.043627 702.223602,881.990897 703.282192,881.990897 L704.023403,881.545585 C703.022423,882.693045 702.105433,883.869805 701.188443,885.247735 C703.306603,885.247735 703.306603,884.195005 704.390593,884.195005 C736.088793,866.218405 765.717693,845.057305 794.288993,821.789705 C847.418893,776.706705 888.170793,724.019205 914.783993,660.164705 L925.443193,633.547505 L925.417802,862.005505 C919.064282,892.619805 902.143402,912.752605 872.537902,922.254505 L863.758602,924.385365 C862.194152,924.736927 860.552552,925.087513 858.794732,925.439075 L582.858732,925.45763 C605.495432,917.48693 626.757132,907.24473 647.248332,894.77603 C685.326432,871.50943 719.167232,841.87373 748.772332,808.07583 C775.224432,778.44103 797.441232,745.62173 813.302632,708.64033 C830.246932,669.50163 838.695232,628.25943 840.837832,584.90833 C841.823184,581.72474 841.823184,578.54017 840.837832,575.35657 C840.131777,576.074343 839.426702,576.78235 839.034122,577.48645 L837.476502,582.37805 L837.686463,579.6427 C837.686463,576.45813 838.745053,573.27454 837.686463,570.08997 C836.626893,571.16809 836.626893,572.22181 835.568303,573.27454 L830.924753,587.04404 C829.472603,591.53818 828.154243,596.02646 827.095653,600.77844 C813.352453,648.36534 789.017553,689.63484 754.117153,724.53444 C722.394453,757.30494 685.400353,781.59984 643.036153,798.54814 C606.090853,813.36554 566.930653,820.76294 526.734153,821.81574 C498.162853,822.86847 468.558353,821.81574 440.036853,819.70929 C399.816153,816.5257 359.620853,811.23566 319.424853,802.81089 C268.688553,791.15269 218.935853,774.22889 173.469853,749.90859 C125.884853,727.69469 82.5118534,692.79429 47.6108534,648.36659 C40.4399534,638.80018 33.4184534,629.23769 26.9419534,619.45159 C16.5542534,603.36179 7.6040534,586.28849 1.0610534,568.01019 L1.102069,518.37929 C3.153829,521.54628 3.168479,525.6996 4.212419,529.87539 L6.429219,536.60195 L8.738789,543.26797 C15.053239,562.32557 22.889189,580.88807 32.455589,598.54237 L39.979029,611.78257 L46.526879,622.94367 C51.713399,630.83137 57.140179,638.47977 62.825679,645.87827 L69.649899,654.51597 L75.585449,661.54429 L77.846189,664.1107 C95.314989,683.9505 115.036589,701.6791 137.484889,717.0658 L138.813009,718.57264 C139.552267,719.310921 140.449729,719.81873 141.721209,719.172249 C141.352068,718.806038 141.110857,718.437874 140.908709,718.069709 C141.131365,718.14881 141.403826,718.168342 141.695818,718.168342 C140.989763,717.466194 140.754412,716.765022 140.361838,716.055062 L139.576682,714.984752 C130.069842,702.322652 121.597182,688.533552 113.148982,674.818752 C86.482982,630.403752 69.042582,583.215252 63.432182,531.541752 L62.411672,520.400152 C61.697805,513.705812 61.338432,506.892352 61.254442,500.037852 L61.3501451,490.769302 C61.6118641,480.454802 62.3999451,470.144302 63.4468251,460.102302 C64.2407701,450.586682 65.6177251,441.072002 67.6069851,431.557402 L69.8022951,422.041782 C80.3930951,372.323982 101.524995,326.842582 130.096195,284.545782 C170.291495,225.325082 217.876495,171.369782 271.816195,122.705782 C309.894295,88.9078815 352.207795,60.3258815 398.709195,39.1901815 C453.732595,13.7917815 510.850195,4.2887815 571.118195,8.5016815 C598.629895,10.6325415 625.057695,14.8698415 651.534195,19.0817815 C653.627945,19.0817815 656.805675,20.1354915 658.922865,20.1354915 C662.076185,21.1882215 664.168955,21.1882215 667.371105,21.1882215 L664.287125,19.8718115 C665.136734,20.0026705 666.158215,20.0856785 667.347675,20.0856785 C652.569375,12.6901685 637.742175,7.3991785 622.939475,3.1872785 C620.821315,2.1091585 618.703145,2.1091585 616.584005,0 L859.854005,0 L859.854005,0 L859.85282,0 Z M430.45682,460.0993 L425.9119,460.116878 C425.053502,460.150081 424.1619,460.199886 423.26249,460.275081 L419.88358,460.662776 L416.73807,461.177424 C396.64037,462.230154 376.54177,467.495784 358.56227,477.047524 C335.28687,489.735024 315.21267,506.657924 297.23417,525.663724 C277.13647,546.824824 258.07307,571.145124 243.29467,596.542624 C234.82201,611.311224 229.52707,627.231124 230.56127,644.129524 L231.462637,653.325814 C232.090567,659.276984 233.031977,664.914714 235.856187,670.531914 C247.481187,685.373714 263.342487,695.953814 282.405987,700.166714 C300.386487,703.351284 318.365987,701.244834 336.345487,699.138394 L356.111087,697.125694 C369.108187,695.943074 381.794687,695.236044 394.472387,695.953814 C425.185287,698.060264 452.671587,707.587614 476.982187,726.616914 C486.514417,734.013394 494.961687,742.488014 505.553487,749.884514 C525.651187,763.623814 546.808387,769.966514 571.117987,764.677514 C575.973457,763.658964 580.458807,762.148214 584.532087,760.156034 C598.181487,754.333764 607.130687,743.516434 611.338687,726.641434 C615.575017,710.721534 614.540837,693.822134 612.398257,676.922634 C609.196107,656.839634 603.950017,637.784934 597.619957,618.731234 C587.029157,588.116934 575.378757,558.482234 558.458857,530.978334 C546.784057,511.923634 532.006757,495.024234 514.027257,482.288834 C487.575157,466.443134 461.147357,460.0993 430.457957,460.0993 L430.45682,460.0993 Z M703.36882,396.2593 L702.505539,396.29348 C691.932339,396.490746 681.512339,399.0718 671.558239,404.03762 C637.740839,419.90872 614.465439,446.35892 600.723239,480.20652 C593.333589,500.28952 590.131439,520.37252 596.535739,541.53362 C601.807219,559.48572 612.372639,574.30412 631.411739,579.59412 C639.885369,582.77771 647.274039,582.77771 655.745739,582.77771 L657.829719,582.742553 C669.378519,582.622437 677.469319,581.403683 687.469319,576.386103 C707.567019,566.882193 723.429319,553.118503 737.171419,536.220104 C759.388219,507.662503 768.895019,475.945703 761.505419,441.045303 C757.270069,417.778703 743.525919,402.961303 719.191919,397.646903 C713.904809,396.601983 708.617719,396.139093 703.368719,396.261163 L703.368719,396.25921 L703.36882,396.2593 Z M245.33882,294.045463 C238.26167,294.487706 231.37302,295.85392 224.97942,298.45548 C215.95794,302.0756 207.74602,308.08829 200.95602,317.33828 C187.16302,336.36858 182.97652,357.50428 181.89352,380.77188 C180.83395,404.03848 187.18844,425.19958 196.67082,445.30708 C205.16789,462.20548 215.73532,477.02388 232.63082,487.60398 C241.70894,493.48191 251.36622,496.84031 260.85352,497.76318 L266.25293,498.01611 L269.09766,497.977047 L269.72559,497.913571 C279.61231,497.446774 289.13969,494.310051 297.18649,488.632321 C307.75189,481.236811 315.16599,470.655721 320.41209,458.997521 C331.00289,434.701621 333.14649,408.250421 326.81639,381.849121 C320.46092,353.267121 307.77729,328.972121 285.56149,309.916521 C275.22749,301.491721 264.05759,295.523921 250.52829,294.284721 L245.34079,294.045463 L245.33882,294.045463 Z M595.50082,204.1373 C577.52132,209.42734 564.81232,220.0074 552.15222,232.6939 C541.56142,243.274 534.12292,258.0669 526.73422,270.7779 C525.27621,273.87067 523.94516,277.02595 522.73422,280.23884 L521.00668,285.10017 C515.32309,299.47417 512.9598,314.14217 512.94223,330.02397 C512.94223,334.4976 513.136566,338.87846 513.580902,343.19487 C514.5643,353.13042 516.705902,362.72027 520.379732,372.29547 C530.309422,396.08257 548.594532,409.66757 571.744032,411.27297 L577.472552,411.45754 C593.654152,411.45754 607.242052,406.29934 619.853452,397.59034 L624.023372,394.55909 C656.781172,369.13719 676.878872,336.36669 682.149372,295.12259 C684.267532,277.17049 682.149372,259.16849 675.819292,241.16749 C669.463822,225.29639 659.956992,211.58159 644.046792,205.21339 C636.779212,202.30323 629.505792,200.94972 622.233292,200.74659 C613.320202,200.369637 604.407092,201.75343 595.501892,204.13624 L595.50082,204.1373 Z M462.20482,174.5528 C437.89522,147.0723 404.05442,141.7579 374.40012,167.15632 C363.83372,176.65925 355.36102,188.29202 350.08962,202.05772 C341.24196,223.40542 337.52712,244.75402 338.23122,266.46592 C338.496845,276.29893 339.65505,286.21392 341.64235,296.12902 L342.603288,300.12902 C345.691178,314.14362 351.346448,327.00402 359.788788,338.29112 C364.794648,345.31846 370.712588,351.74722 377.601288,357.48062 C397.698988,373.35172 420.949888,375.48162 442.130588,364.90152 C454.815188,357.48062 464.297588,348.00212 471.736088,335.26672 C475.275148,328.77453 478.156988,322.19932 480.494878,315.54212 C486.903078,298.64562 489.703858,280.75212 489.739998,262.33022 C489.739998,250.69642 488.656018,240.11632 486.537848,228.48352 C483.385508,209.45322 475.995848,190.42302 462.203848,174.55382 L462.20482,174.5528 Z M68.74282,0.02373 C130.12072,1.07713 191.44882,1.07713 252.80282,1.07713 C251.71786,3.2324 250.65927,3.2324 249.57528,4.28514 C195.63678,27.55274 148.10028,61.39944 106.82028,103.72164 C74.06248,138.59764 47.58488,177.73534 26.45308,220.05664 C19.06441,234.82424 11.62598,250.66994 5.27148,266.58984 C4.2373,269.72558 2.11816,272.90918 0,276.06836 L0,66.66536 C1.05957,66.66536 1.05957,65.61263 1.05957,64.55989 C6.35449,37.05599 21.15727,18.02569 45.46677,6.39189 C52.85642,3.20732 60.29387,2.12919 68.74217,0.02373 L68.74282,0.02373 Z"></path>
  </g>
</svg>