<?xml version="1.0" standalone="no"?>
<!DOCTYPE svg PUBLIC "-//W3C//DTD SVG 1.1//EN" "http://www.w3.org/Graphics/SVG/1.1/DTD/svg11.dtd" >
<svg xmlns="http://www.w3.org/2000/svg" xmlns:xlink="http://www.w3.org/1999/xlink" version="1.1" viewBox="-10 0 1034 1024">
   <path fill="currentColor"
d="M49.8213 558.259c4.26074 5.29004 6.35352 11.6338 8.44727 17.9521c22.2168 60.2744 51.8467 114.229 94.1357 161.791c38.6523 42.6611 85.7061 74.1289 138.479 95.332l2.33008 0.896484l-174.394 0.0078125
c-0.745117 -0.0488281 -1.34082 -0.24707 -1.34082 -1.03711c-28.5205 -4.2373 -48.6182 -20.083 -60.2441 -45.4814c-3.20215 -7.39551 -4.23633 -14.793 -5.29492 -22.2139c-1.71484 -55.8408 -2.05762 -112.355 -2.12598 -169.005l0.00683594 -38.2432zM908.614 -92.2383
c1.03418 0 1.03418 1.05371 2.09375 1.05371c21.1816 3.18359 37.0186 12.6865 49.752 28.5566c8.42285 10.5312 14.7783 23.2666 14.7783 36.9814v210.481c0 0.955078 0 1.91016 -0.790039 2.88379l-0.220703 -0.679688
c-11.8418 -30.4678 -26.3945 -58.8975 -44.7314 -85.8164l-7.63379 -11.1738c-2.59863 -3.69922 -5.24902 -7.37207 -7.95312 -11.0176c-32.7578 -42.2725 -72.9785 -77.1494 -121.622 -102.546c-60.2939 -31.7412 -124.799 -46.5342 -192.482 -44.4287
c-16.9443 0 -32.8066 2.13184 -49.752 5.29004c-28.5205 5.2666 -56.0332 12.6621 -83.4951 22.1895c-20.123 6.36816 -39.1602 12.6865 -56.082 24.3203c-1.05859 1.02832 -2.11719 1.02832 -3.20117 2.08203c1.08398 1.07715 1.08398 0 2.14258 0l3.34961 -0.539062
l-1.20703 0.685547c-0.866211 0 -2.39551 0 -2.97266 1.09082l-0.228516 1.04004h2.09375c39.1611 -6.31836 78.2734 -10.5801 118.47 -12.6865c20.0732 -1.07812 41.2305 0 61.3281 3.13477c29.6055 4.26172 57.1406 14.8418 82.5098 29.6348
c75.0723 43.375 133.247 103.648 171.325 181.924c13.6816 28.7324 24.6113 58.252 33.041 88.3916c10.6484 39.0342 16.8965 79.0869 19.8643 119.788c2.09375 26.4502 2.09375 52.9014 1.03418 78.2744l-3.20215 44.4033
c-1.03418 12.7363 -3.15332 25.3975 -5.24609 38.084c-2.14355 15.8711 -5.32031 30.6631 -10.5908 45.4805c-13.793 39.1387 -35.96 72.9854 -60.3438 105.756c-18.9648 25.373 -41.2061 48.6396 -62.3623 71.9062l-3.7041 3.86426
c-1.32129 1.45703 -2.63867 3.04297 -3.68555 4.63477c2.09473 0 2.09473 -1.05273 3.15332 -1.05273l0.741211 -0.445312c-1.00098 1.14746 -1.91797 2.32422 -2.83496 3.70215c2.11816 0 2.11816 -1.05273 3.20215 -1.05273
c31.6982 -17.9766 61.3271 -39.1377 89.8984 -62.4053c53.1299 -45.083 93.8818 -97.7705 120.495 -161.625l10.6592 -26.6172l-0.0253906 228.458c-6.35352 30.6143 -23.2744 50.7471 -52.8799 60.249l-8.7793 2.13086
c-1.56445 0.351562 -3.20605 0.702148 -4.96387 1.05371l-275.936 0.0185547c22.6367 -7.9707 43.8984 -18.2129 64.3896 -30.6816c38.0781 -23.2666 71.9189 -52.9023 101.524 -86.7002c26.4521 -29.6348 48.6689 -62.4541 64.5303 -99.4355
c16.9443 -39.1387 25.3926 -80.3809 27.5352 -123.732c0.985352 -3.18359 0.985352 -6.36816 0 -9.55176c-0.706055 0.717773 -1.41113 1.42578 -1.80371 2.12988l-1.55762 4.8916l0.209961 -2.73535c0 -3.18457 1.05859 -6.36816 0 -9.55273
c-1.05957 1.07812 -1.05957 2.13184 -2.11816 3.18457l-4.64355 13.7695c-1.45215 4.49414 -2.77051 8.98242 -3.8291 13.7344c-13.7432 47.5869 -38.0781 88.8564 -72.9785 123.756c-31.7227 32.7705 -68.7168 57.0654 -111.081 74.0137
c-36.9453 14.8174 -76.1055 22.2148 -116.302 23.2676c-28.5713 1.05273 -58.1758 0 -86.6973 -2.10645c-40.2207 -3.18359 -80.416 -8.47363 -120.612 -16.8984c-50.7363 -11.6582 -100.489 -28.582 -145.955 -52.9023
c-47.585 -22.2139 -90.958 -57.1143 -125.859 -101.542c-7.1709 -9.56641 -14.1924 -19.1289 -20.6689 -28.915c-10.3877 -16.0898 -19.3379 -33.1631 -25.8809 -51.4414l0.0410156 -49.6309c2.05176 3.16699 2.06641 7.32031 3.11035 11.4961l2.2168 6.72656
l2.30957 6.66602c6.31445 19.0576 14.1504 37.6201 23.7168 55.2744l7.52344 13.2402l6.54785 11.1611c5.18652 7.8877 10.6133 15.5361 16.2988 22.9346l6.82422 8.6377l5.93555 7.02832l2.26074 2.56641c17.4688 19.8398 37.1904 37.5684 59.6387 52.9551l1.32812 1.50684
c0.739258 0.738281 1.63672 1.24609 2.9082 0.599609c-0.369141 -0.366211 -0.610352 -0.734375 -0.8125 -1.10254c0.222656 0.0791016 0.495117 0.0986328 0.787109 0.0986328c-0.706055 -0.702148 -0.941406 -1.40332 -1.33398 -2.11328l-0.785156 -1.07031
c-9.50684 -12.6621 -17.9795 -26.4512 -26.4277 -40.166c-26.666 -44.415 -44.1064 -91.6035 -49.7168 -143.277l-1.02051 -11.1416c-0.713867 -6.69434 -1.07324 -13.5078 -1.15723 -20.3623l0.0957031 -9.26855c0.261719 -10.3145 1.0498 -20.625 2.09668 -30.667
c0.793945 -9.51562 2.1709 -19.0303 4.16016 -28.5449l2.19531 -9.51562c10.5908 -49.7178 31.7227 -95.1992 60.2939 -137.496c40.1953 -59.2207 87.7803 -113.176 141.72 -161.84c38.0781 -33.7979 80.3916 -62.3799 126.893 -83.5156
c55.0234 -25.3984 112.141 -34.9014 172.409 -30.6885c27.5117 2.13086 53.9395 6.36816 80.416 10.5801c2.09375 0 5.27148 1.05371 7.38867 1.05371c3.15332 1.05273 5.24609 1.05273 8.44824 1.05273l-3.08398 -1.31641
c0.849609 0.130859 1.87109 0.213867 3.06055 0.213867c-14.7783 -7.39551 -29.6055 -12.6865 -44.4082 -16.8984c-2.11816 -1.07812 -4.23633 -1.07812 -6.35547 -3.18457h243.27v-0.00195312zM479.218 367.861l-4.54492 0.0175781
c-0.858398 0.0332031 -1.75 0.0830078 -2.64941 0.158203l-3.37891 0.387695l-3.14551 0.514648c-20.0977 1.05273 -40.1963 6.31836 -58.1758 15.8701c-23.2754 12.6875 -43.3496 29.6104 -61.3281 48.6162c-20.0977 21.1611 -39.1611 45.4814 -53.9395 70.8789
c-8.47266 14.7686 -13.7676 30.6885 -12.7334 47.5869l0.901367 9.19629c0.62793 5.95117 1.56934 11.5889 4.39355 17.2061c11.625 14.8418 27.4863 25.4219 46.5498 29.6348c17.9805 3.18457 35.96 1.07812 53.9395 -1.02832l19.7656 -2.0127
c12.9971 -1.18262 25.6836 -1.88965 38.3613 -1.17188c30.7129 2.10645 58.1992 11.6338 82.5098 30.6631c9.53223 7.39648 17.9795 15.8711 28.5713 23.2676c20.0977 13.7393 41.2549 20.082 65.5645 14.793c4.85547 -1.01855 9.34082 -2.5293 13.4141 -4.52148
c13.6494 -5.82227 22.5986 -16.6396 26.8066 -33.5146c4.23633 -15.9199 3.20215 -32.8193 1.05957 -49.7188c-3.20215 -20.083 -8.44824 -39.1377 -14.7783 -58.1914c-10.5908 -30.6143 -22.2412 -60.249 -39.1611 -87.7529
c-11.6748 -19.0547 -26.4521 -35.9541 -44.4316 -48.6895c-26.4521 -15.8457 -52.8799 -22.1885 -83.5693 -22.1885zM752.13 304.021l-0.863281 0.0341797c-10.5732 0.197266 -20.9932 2.77832 -30.9473 7.74414c-33.8174 15.8711 -57.0928 42.3213 -70.835 76.1689
c-7.38965 20.083 -10.5918 40.166 -4.1875 61.3271c5.27148 17.9521 15.8369 32.7705 34.876 38.0605c8.47363 3.18359 15.8623 3.18359 24.334 3.18359l2.08398 -0.0351562c11.5488 -0.120117 19.6396 -1.33887 29.6396 -6.35645
c20.0977 -9.50391 35.96 -23.2676 49.7021 -40.166c22.2168 -28.5576 31.7236 -60.2744 24.334 -95.1748c-4.23535 -23.2666 -17.9795 -38.084 -42.3135 -43.3984c-5.28711 -1.04492 -10.5742 -1.50781 -15.8232 -1.38574v-0.00195312zM294.1 201.808
c-7.07715 0.441406 -13.9658 1.80762 -20.3594 4.40918c-9.02148 3.62012 -17.2334 9.63281 -24.0234 18.8828c-13.793 19.0303 -17.9795 40.166 -19.0625 63.4336c-1.05957 23.2666 5.29492 44.4277 14.7773 64.5352c8.49707 16.8984 19.0645 31.7168 35.96 42.2969
c9.07812 5.87793 18.7354 9.23633 28.2227 10.1592l5.39941 0.25293l2.84473 -0.0390625l0.62793 -0.0634766c9.88672 -0.466797 19.4141 -3.60352 27.4609 -9.28125c10.5654 -7.39551 17.9795 -17.9766 23.2256 -29.6348
c10.5908 -24.2959 12.7344 -50.7471 6.4043 -77.1484c-6.35547 -28.582 -19.0391 -52.877 -41.2549 -71.9326c-10.334 -8.4248 -21.5039 -14.3926 -35.0332 -15.6318l-5.1875 -0.239258zM644.262 111.899c-17.9795 5.29004 -30.6885 15.8701 -43.3486 28.5566
c-10.5908 10.5801 -18.0293 25.373 -25.418 38.084c-1.45801 3.09277 -2.78906 6.24805 -4 9.46094l-1.72754 4.86133c-5.68359 14.374 -8.04688 29.042 -8.06445 44.9238c0 4.47363 0.194336 8.85449 0.638672 13.1709c0.983398 9.93555 3.125 19.5254 6.79883 29.1006
c9.92969 23.7871 28.2148 37.3721 51.3643 38.9775l5.72852 0.18457c16.1816 0 29.7695 -5.1582 42.3809 -13.8672l4.16992 -3.03125c32.7578 -25.4219 52.8555 -58.1924 58.126 -99.4365c2.11816 -17.9521 0 -35.9541 -6.33008 -53.9551
c-6.35547 -15.8711 -15.8623 -29.5859 -31.7725 -35.9541c-7.26758 -2.91016 -14.541 -4.26367 -21.8135 -4.4668c-8.91309 -0.376953 -17.8262 1.00684 -26.7314 3.38965zM510.966 82.3145c-24.3096 -27.4805 -58.1504 -32.7949 -87.8047 -7.39648
c-10.5664 9.50293 -19.0391 21.1357 -24.3105 34.9014c-8.84766 21.3477 -12.5625 42.6963 -11.8584 64.4082c0.265625 9.83301 1.42383 19.748 3.41113 29.6631l0.960938 4c3.08789 14.0146 8.74316 26.875 17.1855 38.1621
c5.00586 7.02734 10.9238 13.4561 17.8125 19.1895c20.0977 15.8711 43.3486 18.001 64.5293 7.4209c12.6846 -7.4209 22.167 -16.8994 29.6055 -29.6348c3.53906 -6.49219 6.4209 -13.0674 8.75879 -19.7246c6.4082 -16.8965 9.20898 -34.79 9.24512 -53.2119
c0 -11.6338 -1.08398 -22.2139 -3.20215 -33.8467c-3.15234 -19.0303 -10.542 -38.0605 -24.334 -53.9297zM117.504 -92.2139c61.3779 1.05273 122.706 1.05273 184.06 1.05273c-1.08496 2.15527 -2.14355 2.15527 -3.22754 3.20801
c-53.9385 23.2676 -101.475 57.1143 -142.755 99.4365c-32.7578 34.876 -59.2354 74.0137 -80.3672 116.335c-7.38867 14.7676 -14.8271 30.6133 -21.1816 46.5332c-1.03418 3.13574 -3.15332 6.31934 -5.27148 9.47852v-209.403
c1.05957 0 1.05957 -1.05273 1.05957 -2.10547c5.29492 -27.5039 20.0977 -46.5342 44.4072 -58.168c7.38965 -3.18457 14.8271 -4.2627 23.2754 -6.36816z" />
</svg>
