<?xml version="1.0" encoding="UTF-8"?>
<svg width="45px" height="45px" viewBox="0 0 45 45" version="1.1" xmlns="http://www.w3.org/2000/svg" xmlns:xlink="http://www.w3.org/1999/xlink">
    <title>FurryPaws</title>
    <g id="FurryPaws" stroke="none" stroke-width="1" fill="none" fill-rule="evenodd">
        <path d="M22.6836832,22.964451 C27.7677085,22.964451 36.8520742,34.4272043 33.1022018,37.954409 C30.8937053,39.424563 27.6256177,39.2120446 23.2979389,37.3168539 L22.4826152,37.5756205 C16.8648809,39.3062431 13.127313,39.3412502 11.2699115,37.6806416 C8.41229852,34.5488521 17.599658,22.964451 22.6836832,22.964451 Z M39.1497144,18.3580247 C41.0231705,19.52869 41.4949981,23.0779039 39.5926669,26.1222701 C37.6903358,29.1666363 34.7717946,30.1558437 32.8983385,28.9851784 C31.0248824,27.8145131 30.21998,24.2634458 32.1223111,21.2190796 C34.0246422,18.1747134 37.2762583,17.1873594 39.1497144,18.3580247 Z M13.6853663,19.2190796 C15.5876974,22.2634458 14.782795,25.8145131 12.9093389,26.9851784 C11.0358828,28.1558437 8.11734159,27.1666363 6.21501045,24.1222701 C4.31267932,21.0779039 4.78450685,17.52869 6.65796297,16.3580247 C8.53141909,15.1873594 11.7830351,16.1747134 13.6853663,19.2190796 Z M30.3671752,6.46956646 C32.554815,6.77701919 33.9573924,9.6341329 33.4577817,13.1890476 C32.958171,16.7439623 29.9137801,20.0759206 27.7261403,19.7684678 C25.5385005,19.4610151 24.2219718,16.5125573 24.7215825,12.9576426 C25.2211932,9.40272794 28.1795354,6.16211374 30.3671752,6.46956646 Z M16.9643573,6.01962079 C19.1519971,5.71216807 21.4795318,9.06727018 21.9791425,12.6221849 C22.4787532,16.1770996 21.1622245,19.1255573 18.9745847,19.4330101 C16.7869449,19.7404628 14.1158732,16.5620685 13.6162625,13.0071538 C13.1166518,9.45223907 14.7767174,6.32707352 16.9643573,6.01962079 Z" id="Shape" fill="currentColor"></path>
    </g>
</svg>