<?xml version="1.0" encoding="UTF-8"?>
<svg width="820px" height="820px" viewBox="0 0 820 820" version="1.1" xmlns="http://www.w3.org/2000/svg" xmlns:xlink="http://www.w3.org/1999/xlink">
    <title>Furtastic</title>
    <g id="Furtastic" stroke="none" stroke-width="1" fill="none" fill-rule="evenodd">
        <path d="M250.888904,70.9015226 C312.868904,40.8415226 378.238904,28.9915226 446.998904,35.9215226 C461.478904,37.3815226 475.718904,39.6815226 489.718904,42.8015226 C494.908904,43.4615226 500.098904,44.0515226 505.308904,44.5015226 C524.388904,46.1415226 543.518904,47.5515226 562.648904,48.0215226 C609.298904,49.1615226 655.958904,49.5515226 702.608904,50.5915226 C713.718904,50.8415226 724.998904,51.4615226 735.858904,53.6415226 C753.388904,57.1515226 762.378904,69.2015226 762.788904,87.1315226 C763.348904,111.821523 761.028904,135.931523 750.978904,158.981523 C743.138904,176.981523 731.128904,191.701523 717.428904,205.291523 C747.718904,254.161523 765.328904,307.661523 770.008904,365.851523 L769.988904,365.831523 C770.638904,373.931523 771.308904,382.041523 771.968904,390.141523 L771.968904,399.141523 C771.658904,401.761523 771.268904,404.371523 771.038904,406.991523 C770.028904,418.441523 769.428904,429.931523 768.008904,441.321523 C759.758904,507.621523 734.228904,566.851523 692.938904,619.041523 C656.218904,665.451523 610.438904,700.721523 556.138904,724.531523 C496.408904,750.711523 434.028904,760.381523 369.178904,752.971523 C359.458904,751.861523 349.858904,750.371523 340.388904,748.531523 C331.278904,747.861523 322.158904,747.301523 313.038904,747.121523 C308.808904,747.041523 304.318904,749.051523 300.318904,750.901523 C280.848904,759.931523 261.788904,769.901523 242.038904,778.241523 C222.368904,786.561523 201.508904,787.371523 180.688904,782.991523 C166.768904,780.061523 157.298904,768.031523 157.168904,753.821523 L157.059624,741.123523 C156.939064,725.601789 156.892717,710.074678 157.212418,694.561908 L157.308904,690.331523 C157.688904,675.121523 155.698904,660.531523 151.318904,646.471523 C128.088904,622.731523 108.328904,595.761523 92.148904,565.561523 C56.188904,498.441523 42.638904,426.831523 51.748904,351.031523 C59.848904,283.631523 85.378904,223.441523 127.248904,170.331523 C160.748904,127.821523 202.158904,94.5315226 250.888904,70.9015226 Z M526.558904,86.3505555 C510.948904,86.3505555 495.238904,87.5815226 479.768904,89.6815226 C425.558904,97.0215226 376.518904,117.351523 332.628904,150.011523 C297.678904,176.021523 267.828904,206.891523 244.228904,243.611523 C210.798904,295.631523 195.268904,352.921523 194.818904,414.441523 C194.361761,477.38438 193.982986,540.327237 193.622795,603.270094 L193.088973,697.68438 L192.818136,744.891523 C192.808904,746.501523 192.988904,748.101523 193.118904,750.491523 C200.658904,749.751523 207.778904,749.351523 214.798904,748.321523 C280.788904,738.681523 331.968904,679.871523 332.478904,613.151523 C332.788904,571.991523 333.008904,530.831523 333.258904,489.671523 L333.258904,484.151523 L333.890617,484.106198 C334.875571,484.030967 335.542237,483.961523 336.208904,483.961523 L381.004904,484.114483 C403.402904,484.190323 425.800904,484.257523 448.198904,484.281523 C454.178904,484.291523 460.198904,484.021523 466.148904,483.421523 C524.308904,477.511523 573.628904,429.411523 581.088904,371.331523 C581.828904,365.501523 581.998904,359.601523 582.498904,352.801523 L344.318904,352.801523 L345.990048,347.85952 C346.300787,346.955041 346.600015,346.113745 346.918904,345.281523 C352.668904,330.271523 360.118904,316.151523 369.628904,303.211523 C409.698904,248.721523 462.568904,218.711523 531.228904,219.041523 C553.228904,219.141523 575.218904,219.251523 597.218904,219.211523 C652.438904,219.111523 703.458904,182.061523 720.728904,129.521523 C725.168904,116.021523 727.468904,102.161523 727.228904,87.4815226 L724.53446,87.3207818 C724.249126,87.3062633 723.981571,87.2962485 723.717002,87.2928233 L723.518904,87.2915226 C657.868904,86.9215226 592.208904,86.3315226 526.558904,86.3505555 Z" id="Shape" fill="currentColor" fill-rule="nonzero"></path>
    </g>
</svg>