<?xml version="1.0" encoding="UTF-8"?>
<svg width="1025px" height="926px" viewBox="0 0 1025 926" version="1.1" xmlns="http://www.w3.org/2000/svg" xmlns:xlink="http://www.w3.org/1999/xlink">
  <g id="Furvilla" transform="translate(0.4367, 0.6046)" fill="currentColor" fill-rule="nonzero">
    <path d="M536.50179,170.3767 L538.75081,180.031 L541.66487,192.9206 C550.90413,234.3376 570.67367,327.8816 585.38167,431.8826 L788.21267,284.1016 L847.91677,359.3135 L856.46853,327.7178 L908.71173,343.6748 L894.03493,417.4082 L952.32013,490.832 L860.98033,490.832 L869.119,608.073 C920.2958,608.671633 971.922,609.80347 1024,611.47144 L1024,925.01244 L0,925.01244 L0,654.63944 C44.458,649.01542 89.3379,643.89534 134.643,639.27904 L111.9672,473.14604 L81.9203,476.03471 L127.2211,417.82861 L111.9037,344.96631 L165.4682,327.75731 L173.01898,358.97901 L232.09218,283.06791 L406.55818,408.24191 L403.21736,398.18331 L399.80037,388.00171 C384.25447,341.90601 366.41467,292.07981 346.27987,238.52271 L536.50387,170.3767 L536.502893,170.3767 L536.50179,170.3767 Z M219.05979,554.5637 L189.66229,559.42405 L193.95917,589.80495 L222.81757,586.12038 L219.05979,554.5637 Z M261.92779,547.4707 L232.07619,552.4082 L235.6006,584.4844 L265.9717,580.60452 L261.92779,547.4707 Z M214.12079,513.08364 L183.66669,517.03487 L188.237,549.34537 L217.8972,544.79264 L214.12181,513.08364 L214.120833,513.08364 L214.12079,513.08364 Z M257.05779,507.5177 L227.56369,511.33997 L231.01877,542.78337 L260.80197,538.21403 L257.05779,507.5177 Z M628.17079,469.0077 L590.34369,469.0077 C592.95795,489.8202 595.3056,510.8466 597.26752,531.7714 L628.17079,469.0077 Z M425.25279,466.77669 L395.39339,468.67709 L422.13269,523.64879 L437.82699,509.04719 C433.91781,495.41339 429.72445,481.32259 425.25279,466.77669 L425.25279,466.77669 Z M469.84979,237.6177 C438.55589,237.6177 413.18769,263.1323 413.18769,294.606 C413.18769,326.0806 438.55589,351.5943 469.84979,351.5943 C501.14369,351.5943 526.51289,326.0806 526.51289,294.606 C526.51289,263.1324 501.14379,237.6177 469.84979,237.6177 L469.84979,237.6177 Z M327.73079,-2.84217094e-14 L564.75279,133.776 L291.98679,242.394 L327.73089,-2.84217094e-14 L327.729913,-2.84217094e-14 L327.73079,-2.84217094e-14 Z"></path>
  </g>
</svg>