<?xml version="1.0" standalone="no"?>
<!DOCTYPE svg PUBLIC "-//W3C//DTD SVG 1.1//EN" "http://www.w3.org/Graphics/SVG/1.1/DTD/svg11.dtd" >
<svg xmlns="http://www.w3.org/2000/svg" xmlns:xlink="http://www.w3.org/1999/xlink" version="1.1" viewBox="-10 0 1045 1024">
   <path fill="currentColor"
d="M536.503 128.363l2.24902 9.6543l2.91406 12.8896c9.23926 41.417 29.0088 134.961 43.7168 238.962l202.831 -147.781l59.7041 75.2119l8.55176 -31.5957l52.2432 15.957l-14.6768 73.7334l58.2852 73.4238h-91.3398l8.13867 117.241
c51.1768 0.598633 102.803 1.73047 154.881 3.39844v313.541h-1024v-270.373c44.458 -5.62402 89.3379 -10.7441 134.643 -15.3604l-22.6758 -166.133l-30.0469 2.88867l45.3008 -58.2061l-15.3174 -72.8623l53.5645 -17.209l7.55078 31.2217l59.0732 -75.9111
l174.466 125.174l-3.34082 -10.0586l-3.41699 -10.1816c-15.5459 -46.0957 -33.3857 -95.9219 -53.5205 -149.479l190.224 -68.1455h-0.000976562zM219.061 512.55l-29.3975 4.86035l4.29688 30.3809l28.8584 -3.68457zM261.929 505.457l-29.8516 4.9375l3.52441 32.0762
l30.3711 -3.87988zM214.122 471.07l-30.4541 3.95117l4.57031 32.3105l29.6602 -4.55273l-3.77539 -31.709h-0.000976562zM257.059 465.504l-29.4941 3.82227l3.45508 31.4434l29.7832 -4.56934zM628.172 426.994h-37.8271c2.61426 20.8125 4.96191 41.8389 6.92383 62.7637
zM425.254 424.763l-29.8594 1.90039l26.7393 54.9717l15.6943 -14.6016c-3.90918 -13.6338 -8.10254 -27.7246 -12.5742 -42.2705zM469.851 195.604c-31.2939 0 -56.6621 25.5146 -56.6621 56.9883c0 31.4746 25.3682 56.9883 56.6621 56.9883
s56.6631 -25.5137 56.6631 -56.9883c0 -31.4736 -25.3691 -56.9883 -56.6631 -56.9883zM327.732 -42.0127l237.022 133.775l-272.766 108.618l35.7441 -242.394h-0.000976562z" />
</svg>
