<?xml version="1.0" standalone="no"?>
<!DOCTYPE svg PUBLIC "-//W3C//DTD SVG 1.1//EN" "http://www.w3.org/Graphics/SVG/1.1/DTD/svg11.dtd" >
<svg xmlns="http://www.w3.org/2000/svg" xmlns:xlink="http://www.w3.org/1999/xlink" version="1.1" viewBox="-10 0 1034 1024">
   <path fill="currentColor"
d="M433.152 510.264c-17.4082 -9.21582 -33.792 -18.4316 -50.1768 -26.624c-39.9355 -19.4561 -76.7998 -44.0312 -105.472 -76.7998c-35.8398 -39.9355 -55.2959 -88.0635 -61.4395 -140.288c-11.2646 -90.1113 17.4072 -167.936 87.0391 -226.304
c32.7686 -27.6484 70.6562 -49.1523 108.545 -68.6084c69.6318 -35.8398 139.264 -69.6318 210.943 -100.352c91.1357 -38.9121 186.368 27.6475 200.704 115.712c9.21582 53.248 -3.07227 102.4 -39.9355 141.312c-14.3359 15.3604 -35.8408 24.5762 -55.2959 34.8164
c-40.9609 21.5039 -81.9209 41.9844 -123.904 62.4639c-3.07227 1.02441 -5.12012 3.07227 -10.2402 6.14453c9.21582 5.12012 17.4082 9.21582 25.5996 13.3115c47.1045 23.5518 91.1367 50.1758 126.977 89.0879c92.1602 101.376 87.04 264.192 -10.2402 360.448
c-25.5996 24.5762 -55.2959 44.0322 -87.04 59.3916c-70.6562 34.8164 -141.312 70.6562 -211.968 105.473c-27.6484 13.3115 -55.2959 23.5518 -86.0156 23.5518c-68.6084 0 -131.072 -49.1523 -146.433 -115.712c-13.3115 -56.3203 -4.0957 -108.544 36.8643 -152.576
c18.4316 -20.4795 45.0557 -29.6963 68.6084 -41.9844c37.8877 -19.4551 75.7754 -37.8877 112.64 -57.3438c3.07227 -1.02344 6.14355 -3.07227 10.2402 -5.12012zM665.6 342.328c-1.02344 -22.5283 -9.21582 -40.96 -29.6953 -51.2002
c-24.5762 -12.2881 -48.1279 -25.5996 -73.7285 -36.8643c-5.12012 -2.04785 -12.2881 -1.02344 -17.4082 1.02441c-34.8154 17.4082 -69.6318 34.8154 -104.447 53.248c-27.6484 14.3359 -53.248 32.7676 -71.6807 59.3916
c-19.4561 28.6719 -10.2393 66.5605 20.4805 81.9199c23.5518 12.2881 48.1279 23.5527 71.6797 35.8408c8.19238 4.0957 14.3359 4.0957 22.5283 0c39.9355 -21.5049 80.8955 -41.9844 119.808 -64.5127c17.4082 -10.2402 31.7441 -24.5762 46.0801 -38.9121
c10.2402 -10.2393 16.3838 -23.5518 16.3838 -39.9355z" />
</svg>
