<?xml version="1.0" encoding="UTF-8"?>
<svg width="628px" height="1024px" viewBox="0 0 628 1024" version="1.1" xmlns="http://www.w3.org/2000/svg" xmlns:xlink="http://www.w3.org/1999/xlink">
  <g id="Fyuse" transform="translate(0, 0.4253)" fill="currentColor" fill-rule="nonzero">
    <path d="M234.03393,650.338647 C216.62573,641.122827 200.24193,631.907047 183.85713,623.714647 C143.92163,604.258547 107.05733,579.683447 78.3851305,546.914847 C42.5453305,506.979347 23.0892305,458.851347 16.9456305,406.626847 C5.68103046,316.515547 34.3528305,238.690847 103.98473,180.322847 C136.75333,152.674447 174.64093,131.170547 212.52973,111.714447 C282.16153,75.8746474 351.79373,42.0826474 423.47273,11.3624474 C514.60843,-27.5496526 609.84073,39.0099474 624.17673,127.074447 C633.39255,180.322447 621.10446,229.474447 584.24123,268.386447 C569.90533,283.746847 548.40043,292.962647 528.94533,303.202847 C487.98443,324.706747 447.02443,345.187247 405.04133,365.666747 C401.96906,366.691157 399.92121,368.739017 394.80113,371.811277 C404.01695,376.931397 412.20933,381.027097 420.40073,385.122777 C467.50523,408.674577 511.53743,435.298577 547.37773,474.210677 C639.53793,575.586677 634.41773,738.402677 537.13753,834.658677 C511.53793,859.234877 481.84163,878.690877 450.09753,894.050277 C379.44133,928.866677 308.78553,964.706477 238.12953,999.523277 C210.48113,1012.83478 182.83363,1023.07508 152.11393,1023.07508 C83.5055305,1023.07508 21.0419305,973.922777 5.68093046,907.363077 C-7.63056954,851.042777 1.58523046,798.819077 42.5452305,754.787077 C60.9768305,734.307577 87.6009305,725.090777 111.15363,712.802677 C149.04133,693.347577 186.92903,674.914977 223.79363,655.458877 C226.8659,654.435437 229.93718,652.386607 234.03383,650.338757 L234.03393,650.338647 Z M466.48263,482.402647 C465.45849,459.874347 457.26611,441.442647 436.78663,431.202447 C412.21043,418.914347 388.65873,405.602847 363.05813,394.338147 C357.93801,392.290297 350.77003,393.314707 345.64993,395.362557 C310.83453,412.770757 276.01813,430.177957 241.20293,448.610557 C213.55453,462.946457 187.95493,481.378157 169.52223,508.002157 C150.06613,536.674057 159.28293,574.562657 190.00273,589.922057 C213.55453,602.210157 238.13063,613.474757 261.68243,625.762857 C269.87481,629.858557 276.01833,629.858557 284.21073,625.762857 C324.14623,604.257957 365.10623,583.778457 404.01873,561.250157 C421.42693,551.009957 435.76283,536.673957 450.09883,522.338057 C460.33903,512.098757 466.48263,498.786257 466.48263,482.402557 L466.48263,482.402647 Z"></path>
  </g>
</svg>