<?xml version="1.0" encoding="UTF-8"?>
<svg width="666px" height="915px" viewBox="0 0 666 915" version="1.1" xmlns="http://www.w3.org/2000/svg" xmlns:xlink="http://www.w3.org/1999/xlink">
  <g id="GaiaOnline" transform="translate(0.2949, 0.4253)" fill="currentColor" fill-rule="nonzero">
    <path d="M331.460534,0 C510.575534,0 656.508534,144.225197 662.716534,324.518197 L664.032944,361.846297 C679.356144,770.553297 555.784944,908.584297 295.145944,913.970297 L275.288544,914.233969 L248.436944,914.285727 C206.832444,914.285727 173.104944,880.559127 173.104944,838.953727 C173.104944,797.349227 206.832444,763.621727 248.436944,763.621727 L273.923244,763.573875 C280.705474,763.532859 286.089244,763.46157 292.032644,763.3395 C375.193744,761.62075 418.496644,748.3141 449.774644,710.8561 C496.017844,655.4791 512.783444,548.2171 512.783444,355.1761 C513.420163,348.80989 512.2561,337.9993 512.2561,331.4622 C512.2561,226.0632 429.0618,140.6202 326.4371,140.6202 C223.8124,140.6202 140.6181,226.0636 140.6181,331.4622 C140.6181,436.8608 203.8613,529.3322 317.5021,525.8002 C381.6466,525.8002 447.0781,485.769 480.4721,434.9994 C481.54534,492.1469 473.26702,559.8554 462.144,600.5434 C430.8237,636.2768 394.0297,662.475 308.861,662.475 C125.8,662.475 -5.68434189e-14,522.318 -5.68434189e-14,336.483 C-5.68434189e-14,150.648 148.399,0 331.462,0 L331.462,0 L331.460534,0 Z"></path>
  </g>
</svg>