<?xml version="1.0" standalone="no"?>
<!DOCTYPE svg PUBLIC "-//W3C//DTD SVG 1.1//EN" "http://www.w3.org/Graphics/SVG/1.1/DTD/svg11.dtd" >
<svg xmlns="http://www.w3.org/2000/svg" xmlns:xlink="http://www.w3.org/1999/xlink" version="1.1" viewBox="-10 0 1034 1024">
   <path fill="currentColor"
d="M514.319 -86.1426c179.115 0 325.048 144.225 331.256 324.518l1.31641 37.3281c15.3232 408.707 -108.248 546.738 -368.887 552.124l-19.8574 0.263672l-26.8516 0.0517578c-41.6045 0 -75.332 -33.7266 -75.332 -75.332c0 -41.6045 33.7275 -75.332 75.332 -75.332
l25.4863 -0.0478516c6.78223 -0.0410156 12.166 -0.112305 18.1094 -0.234375c83.1611 -1.71875 126.464 -15.0254 157.742 -52.4834c46.2432 -55.377 63.0088 -162.639 63.0088 -355.68c0.636719 -6.36621 -0.527344 -17.1768 -0.527344 -23.7139
c0 -105.399 -83.1943 -190.842 -185.819 -190.842s-185.819 85.4434 -185.819 190.842s63.2432 197.87 176.884 194.338c64.1445 0 129.576 -40.0312 162.97 -90.8008c1.07324 57.1475 -7.20508 124.856 -18.3281 165.544
c-31.3203 35.7334 -68.1143 61.9316 -153.283 61.9316c-183.061 0 -308.861 -140.157 -308.861 -325.992s148.399 -336.483 331.462 -336.483v0.000976562z" />
</svg>
