<?xml version="1.0" standalone="no"?>
<!DOCTYPE svg PUBLIC "-//W3C//DTD SVG 1.1//EN" "http://www.w3.org/Graphics/SVG/1.1/DTD/svg11.dtd" >
<svg xmlns="http://www.w3.org/2000/svg" xmlns:xlink="http://www.w3.org/1999/xlink" version="1.1" viewBox="-10 0 1034 1024">
   <path fill="currentColor"
d="M262.093 -141c-153.436 0 -234.455 91.3818 -234.455 251.709v520.612c0 160.316 79.3096 249.969 234.455 251.679c153.426 0 234.455 -91.3613 234.455 -251.679v-282.727c0 -20.6943 -15.5234 -36.2188 -36.209 -36.2188h-148.274
c-18.9443 0 -34.458 15.5244 -39.6299 37.9287v70.707c0 20.6953 15.5244 36.168 36.168 36.168c20.6953 0 36.209 15.5146 36.209 36.209v148.266c0 72.376 -31.0361 98.2529 -81.0088 98.2529c-49.9805 0 -81.0186 -27.5664 -81.0186 -98.2529v-539.566
c0 -72.4277 32.748 -82.7695 82.7695 -82.7695c49.9814 0 81.0098 12.083 81.0098 82.7695v70.666c0 20.6953 15.5234 36.209 36.168 36.209h77.5986c20.6953 0 36.209 -15.5234 36.209 -36.209v-62.0537c0.00976562 -160.338 -79.2988 -251.699 -234.445 -251.699z
M942.92 -132.972h-320.635c-22.4365 0 -39.6797 18.9639 -39.6797 41.3701v905.062c0 29.3174 24.1553 53.4434 53.4424 53.4434h48.2822c29.3174 0 53.4434 -24.1152 53.4434 -53.4434v-305.121c0 -29.3379 24.1357 -53.4424 53.4424 -53.4424h93.1025
c29.2969 0 53.4424 -24.1562 53.4424 -53.4941v-34.458c0 -29.2861 -24.1357 -53.4434 -53.4424 -53.4434h-93.1025c-30.9961 0 -55.1631 -25.8662 -51.7021 -58.6143v-193.055c0 -29.3066 24.1562 -53.4434 53.4434 -53.4434h149.975
c29.2764 0 53.4434 -24.1357 53.4434 -53.4424v-34.4785c-0.00976562 -29.3066 -24.1768 -53.4424 -53.4531 -53.4424z" />
</svg>
