<?xml version="1.0" standalone="no"?>
<!DOCTYPE svg PUBLIC "-//W3C//DTD SVG 1.1//EN" "http://www.w3.org/Graphics/SVG/1.1/DTD/svg11.dtd" >
<svg xmlns="http://www.w3.org/2000/svg" xmlns:xlink="http://www.w3.org/1999/xlink" version="1.1" viewBox="-10 0 1034 1024">
   <path fill="currentColor"
d="M210.8 822.8h60.2002v60.2002h-60.2002v-60.2002zM271.1 -141v120.5h-60.1992v120.5h-60.2002v120.5h-60.2998v120.5h-60.3008v120.5h361.4v120.5h-60.2002v120.5h-60.2002v120.5h60.2002v-60.2002h60.2002v-60.2002h60.2002v-60.1992h60.2998v-60.2002h60.2002v-60.2002
h60.2002v-60.2002h60.1992v-60.2002h60.2002v-60.1992h60.2002v-60.2002h60.2002v-60.2002h60.2002v-60.2002h-180.5v-60.2002h60.1992v-60.1992h60.2002v-60.2002h60.2002v-61h60.2002v-60.2002h-722.601zM692.7 340.9h-60.2002v-60.2002h60.2002v60.2002zM752.9 39.7002
h-60.2002v60.2002h-60.2002v60.1992h-60.2002v60.2002h-60.2998v60.2002h60.2002v60.2002h-60.2002v-60.2002h-60.2002v60.2002h-60.2002v-60.2002h-60.1992v60.2002h-60.2002v-60.2002h-60.2002v-60.2002h60.2002v-120.399h60.2002v-120.4h421.6v60.2002h-0.0996094z
M271.1 220.4h60.2002v60.1992h-60.2002v-60.1992zM391.5 220.4h60.2002v60.1992h-60.2002v-60.1992z" />
</svg>
