<?xml version="1.0" encoding="UTF-8"?>
<svg width="964px" height="1025px" viewBox="0 0 964 1025" version="1.1" xmlns="http://www.w3.org/2000/svg" xmlns:xlink="http://www.w3.org/1999/xlink">
  <g id="GameJolt" transform="translate(0.2376, 0.6137)" fill="currentColor" fill-rule="nonzero">
    <path d="M180.7,963.8 L240.9002,963.8 L240.9002,1024.0002 L180.7,1024.0002 L180.7,963.8 Z M241,0 L241,120.5 L180.8008,120.5 L180.8008,241 L120.6006,241 L120.6006,361.5 L60.3008,361.5 L60.3008,482 L7.10542736e-15,482 L7.10542736e-15,602.5 L361.4,602.5 L361.4,723 L301.1998,723 L301.1998,843.5 L240.9996,843.5 L240.9996,964 L301.1998,964 L301.1998,903.7998 L361.4,903.7998 L361.4,843.5996 L421.6002,843.5996 L421.6002,783.4004 L481.9,783.4004 L481.9,723.2002 L542.1002,723.2002 L542.1002,663 L602.3004,663 L602.3004,602.7998 L662.4996,602.7998 L662.4996,542.5996 L722.6998,542.5996 L722.6998,482.4004 L782.9,482.4004 L782.9,422.2002 L843.1002,422.2002 L843.1002,362 L903.3004,362 L903.3004,301.7998 L722.8004,301.7998 L722.8004,241.5996 L782.9996,241.5996 L782.9996,181.4004 L843.1998,181.4004 L843.1998,121.2002 L903.4,121.2002 L903.4,60.2002 L963.6002,60.2002 L963.6002,0 L240.9992,0 L241,0 Z M662.6,481.9 L602.3998,481.9 L602.3998,421.6998 L662.6,421.6998 L662.6,481.9 Z M722.8,180.7002 L662.5998,180.7002 L662.5998,240.9004 L602.3996,240.9004 L602.3996,301.0996 L542.1994,301.0996 L542.1994,361.2998 L481.8996,361.2998 L481.8996,421.5 L542.0998,421.5 L542.0998,481.7002 L481.8996,481.7002 L481.8996,421.5 L421.6994,421.5 L421.6994,481.7002 L361.4992,481.7002 L361.4992,421.5 L301.3,421.5 L301.3,481.7002 L241.0998,481.7002 L241.0998,421.5 L180.8996,421.5 L180.8996,361.2998 L241.0998,361.2998 L241.0998,240.9008 L301.3,240.9008 L301.3,120.5008 L722.9,120.5008 L722.9,180.701 L722.800391,180.701 L722.8,180.7002 Z M241,361.4 L301.2002,361.4 L301.2002,421.5992 L241,421.5992 L241,361.4 Z M361.4,361.4 L421.6002,361.4 L421.6002,421.5992 L361.4,421.5992 L361.4,361.4 Z"></path>
  </g>
</svg>