<?xml version="1.0" encoding="UTF-8"?>
<svg width="180px" height="180px" viewBox="0 0 180 180" version="1.1" xmlns="http://www.w3.org/2000/svg" xmlns:xlink="http://www.w3.org/1999/xlink">
    <g stroke="none" stroke-width="1" fill="none" fill-rule="evenodd">
        <path d="M140,149 L140,159 L119,159 L119,169 L50,169 L50,159 L119,159 L119,149 L140,149 Z M50,149 L50,159 L31,159 L31,149 L50,149 Z M31,140 L31,149 L21,149 L21,140 L31,140 Z M149,140 L149,149 L140,149 L140,140 L149,140 Z M159,119 L159,140 L149,140 L149,119 L159,119 Z M70,110 L70,119 L21,119 L21,140 L11,140 L11,110 L70,110 Z M169,50 L169,119 L159,119 L159,50 L169,50 Z M100,100 L100,110 L70,110 L70,100 L100,100 Z M110,90 L110,100 L100,100 L100,90 L110,90 Z M119,61 L119,90 L110,90 L110,61 L119,61 Z M110,11 L140,11 L140,40 L129,39.999 L129,61 L119,61 L119,31 L110,31 L110,11 Z M159,40 L159,50 L149,50 L149,40 L159,40 Z M149,31 L149,40 L140,40 L140,31 L149,31 Z M128.999,21 L119,21 L119,31 L128.999,31 L128.999,21 Z" fill="currentColor"></path>
    </g>
</svg>