<?xml version="1.0" encoding="UTF-8"?>
<svg width="970px" height="1025px" viewBox="0 0 970 1025" version="1.1" xmlns="http://www.w3.org/2000/svg" xmlns:xlink="http://www.w3.org/1999/xlink">
  <g id="GameFor" transform="translate(0.332, 0.6137)" fill="currentColor" fill-rule="nonzero">
    <path d="M234.455,0 C81.019,0 0,91.3818 0,251.709 L0,772.321 C0,932.637 79.3096,1022.29 234.455,1024 C387.881,1024 468.91,932.6387 468.91,772.321 L468.91,489.594 C468.91,468.8997 453.3866,453.3752 432.701,453.3752 L284.427,453.3752 C265.4827,453.3752 249.969,468.8996 244.7971,491.3039 L244.7971,562.0109 C244.7971,582.7062 260.3215,598.1789 280.9651,598.1789 C301.6604,598.1789 317.1741,613.6935 317.1741,634.3879 L317.1741,782.6539 C317.1741,855.0299 286.138,880.9068 236.1653,880.9068 C186.1848,880.9068 155.1467,853.3404 155.1467,782.6539 L155.1467,243.0879 C155.1467,170.6602 187.8947,160.3184 237.9162,160.3184 C287.8976,160.3184 318.926,172.4014 318.926,243.0879 L318.926,313.7539 C318.926,334.4492 334.4494,349.9629 355.094,349.9629 L432.6926,349.9629 C453.3879,349.9629 468.9016,334.4395 468.9016,313.7539 L468.9016,251.7002 C468.91,91.3622 389.6028,0 234.4566,0 L234.455,0 Z M915.282,8.0252 L594.647,8.0252 C572.2105,8.0252 554.9673,26.9919 554.9673,49.3981 L554.9673,954.4601 C554.9673,983.7775 579.1226,1007.9035 608.4097,1007.9035 L656.6919,1007.9035 C686.0093,1007.9035 710.1353,983.7883 710.1353,954.4601 L710.1353,649.3391 C710.1353,620.0012 734.271,595.8967 763.5777,595.8967 L856.6802,595.8967 C885.9771,595.8967 910.1226,571.7405 910.1226,542.4026 L910.1226,507.9446 C910.1226,478.6585 885.9869,454.5012 856.6802,454.5012 L763.5777,454.5012 C732.5816,454.5012 708.4146,428.635 711.8756,395.8869 L711.8756,202.8319 C711.8756,173.5253 736.0318,149.3885 765.319,149.3885 L915.294,149.3885 C944.5704,149.3885 968.7374,125.2528 968.7374,95.9461 L968.7374,61.4676 C968.727634,32.161 944.5606,8.0252 915.2843,8.0252 L915.282,8.0252 Z"></path>
  </g>
</svg>