<?xml version="1.0" standalone="no"?>
<!DOCTYPE svg PUBLIC "-//W3C//DTD SVG 1.1//EN" "http://www.w3.org/Graphics/SVG/1.1/DTD/svg11.dtd" >
<svg xmlns="http://www.w3.org/2000/svg" xmlns:xlink="http://www.w3.org/1999/xlink" version="1.1" viewBox="-10 0 1044 1024">
   <path fill="currentColor"
d="M811.008 672.056c-8.19141 -11.2637 -19.4561 -19.4561 -30.7197 -26.624c-3.07227 -1.02344 -3.07227 -2.04785 -1.02441 -5.12012c11.2646 -11.2637 21.5039 -22.5273 30.7207 -34.8154c26.624 -33.792 47.1035 -70.6562 60.416 -111.616
c1.02344 -3.07227 2.04785 -4.0957 5.11914 -2.04785c7.16895 4.0957 14.3369 8.19238 22.5283 11.2637c12.2881 4.09668 23.5518 7.16797 36.8643 4.09668c21.5039 -4.09668 36.8643 -16.3848 47.1035 -34.8164c7.16797 -12.2881 10.2402 -25.5996 8.19238 -39.9355
c-3.07227 -20.4805 -14.3359 -35.8408 -29.6963 -49.1523c-11.2637 -9.21582 -23.5518 -14.3359 -38.9121 -13.3125c-8.19141 1.02441 -17.4072 2.04883 -25.5996 4.09668c-5.12012 3.07129 -5.12012 3.07129 -5.12012 -3.07227
c0 -19.4561 -2.04785 -39.9355 -5.12012 -59.3916c-6.14355 -36.8643 -17.4082 -72.7041 -33.792 -106.496c-2.04785 -3.07227 -1.02344 -4.09668 2.04785 -5.12012c9.2168 -3.07227 17.4082 -7.16797 26.624 -11.2646c12.2881 -7.16797 22.5283 -15.3594 29.6963 -28.6719
c7.16797 -15.3594 8.19238 -31.7441 4.0957 -48.1279c-4.0957 -15.3594 -11.2637 -28.6719 -25.5996 -36.8633c-9.21582 -6.14453 -19.4561 -9.2168 -29.6963 -11.2646c-17.4082 -4.0957 -33.792 -1.02344 -49.1514 10.2402
c-10.2402 8.19238 -18.4326 17.4082 -25.6006 28.6719c-2.04785 2.04785 -2.04785 3.07227 -5.12012 1.02441c-6.14355 -6.14453 -12.2881 -11.2646 -18.4316 -17.4082c-15.3604 -14.3359 -32.7676 -26.624 -50.1758 -37.8877
c-24.5762 -15.3604 -50.1758 -28.6729 -77.8242 -37.8887c-3.07227 -1.02344 -3.07227 -2.04785 -2.04785 -4.0957c3.07227 -5.12012 6.14355 -10.2402 8.19141 -16.3838c5.12012 -12.2881 8.19238 -25.6006 6.14453 -38.9121
c-4.0957 -20.4805 -14.3359 -35.8398 -31.7441 -47.1045c-12.2881 -8.19141 -25.5996 -11.2637 -39.9355 -10.2393c-12.2881 1.02344 -23.5527 5.11914 -34.8164 12.2871c-14.3359 9.2168 -24.5762 21.5049 -28.6719 38.9121c-3.07227 13.3125 -3.07227 27.6484 0 40.96
c1.02344 3.07227 0 4.09668 -3.07227 4.09668c-12.2881 0 -24.5762 1.02344 -36.8643 2.04785c-26.624 2.04785 -52.2236 8.19141 -77.8232 16.3838c-17.4082 5.12012 -34.8164 12.2881 -52.2246 20.4805c-3.07129 1.02344 -4.0957 1.02344 -5.12012 -2.04883
c-1.02344 -6.14355 -3.07129 -11.2637 -6.14355 -16.3838c-6.14453 -14.3359 -14.3359 -26.624 -27.6484 -33.792c-18.4316 -10.2402 -38.9121 -12.2881 -58.3672 -5.12012c-22.5283 7.16797 -35.8408 24.5762 -43.0088 47.1045
c-6.14355 21.5039 -3.07129 40.96 11.2646 58.3682c7.16797 9.21582 15.3594 16.3838 25.5996 22.5273c3.07227 2.04883 3.07227 3.07227 1.02441 5.12012c-5.12012 4.09668 -9.2168 9.21582 -13.3125 14.3359c-21.5039 23.5527 -38.9121 49.1523 -54.2715 77.8242
c-9.2168 17.4082 -17.4082 35.8398 -23.5527 54.2725c-1.02344 3.07129 -3.07129 4.0957 -5.12012 2.04785c-3.07129 -2.04785 -7.16797 -4.09668 -11.2637 -5.12012c-10.2402 -4.0957 -21.5039 -8.19238 -32.7676 -8.19238
c-28.6719 -1.02344 -57.3447 20.4805 -64.5127 49.1523c-6.14355 21.5039 -2.04785 40.96 11.2646 59.3916c10.2402 15.3604 24.5762 23.5527 43.0078 26.624c11.2637 2.04785 22.5283 1.02441 33.792 -1.02344c3.07227 -1.02441 4.0957 0 5.12012 3.07129
c2.04785 15.3604 4.0957 30.7207 6.14355 45.0566c4.09668 28.6719 10.2402 56.3193 20.4805 82.9434c5.12012 12.2881 9.21582 25.6006 13.3115 38.9121c1.02441 3.07227 0 4.09668 -3.07129 5.12012c-2.04883 0 -5.12012 1.02441 -7.16797 2.04785
c-16.3848 5.12012 -30.7207 13.3125 -40.96 28.6729c-8.19238 12.2871 -10.2402 25.5996 -10.2402 43.0078c0 16.3838 5.12012 31.7441 19.4561 44.0312c11.2637 10.2402 25.5996 15.3604 40.96 18.4326c15.3594 3.07227 29.6953 0 41.9834 -8.19238
c11.2646 -8.19141 20.4805 -18.4316 28.6719 -29.6953c3.07227 -5.12012 3.07227 -5.12012 7.16895 -1.02441c10.2393 10.2402 22.5273 19.4561 33.792 28.6719c20.4795 15.3604 41.9834 28.6719 65.5352 40.96c15.3604 7.16797 29.6963 14.3359 46.0801 19.4561
c3.07227 1.02441 4.09668 2.04785 2.04785 5.12012c-2.04785 3.07227 -4.0957 7.16797 -6.14355 11.2637c-5.12012 11.2646 -9.21582 23.5527 -9.21582 35.8398c0 25.6006 12.2881 44.0322 32.7676 57.3447c13.3125 8.19141 27.6484 11.2637 41.9844 9.21582
c13.3115 -2.04785 24.5762 -7.16797 34.8154 -14.3359c8.19238 -6.14453 14.3369 -13.3125 18.4326 -22.5283c5.12012 -12.2881 6.14355 -25.5996 6.14355 -38.9121c0 -6.14355 -1.02344 -12.2881 -2.04785 -19.4561c0 -2.04785 1.02441 -3.07129 3.07227 -3.07129
c9.21582 -1.02441 19.4561 -2.04883 28.6719 -3.07227c31.7441 -3.07227 63.4883 -9.21582 94.208 -20.4805c15.3604 -5.12012 30.7197 -10.2393 45.0557 -15.3594c3.07227 -1.02441 4.09668 -1.02441 4.09668 2.04785c0 2.04785 1.02344 4.0957 1.02344 6.14355
c4.0957 16.3848 12.2881 30.7207 25.6006 40.96c14.3359 11.2646 30.7197 13.3125 47.1035 14.3359c12.2881 1.02441 23.5518 -4.0957 33.792 -11.2637c16.3838 -11.2637 25.5996 -27.6475 29.6963 -47.1035c6.14355 -19.4561 3.07227 -34.8164 -8.19238 -50.1768z
M508.928 670.008c-157.695 0 -300.031 -134.144 -297.983 -299.008c-2.04785 -162.816 134.144 -301.056 299.008 -300.032c163.84 1.02441 300.032 136.192 299.008 299.008c-1.02441 165.889 -134.144 300.032 -300.032 300.032zM894.976 559.416
c-27.6475 -1.02441 -51.1992 22.5283 -52.2236 50.1758c0 29.6963 24.5762 53.248 51.2002 52.2246c27.6475 0 51.2002 -22.5283 52.2236 -50.1768c0 -28.6719 -22.5273 -52.2236 -51.2002 -52.2236zM271.36 703.8c-26.624 -1.02344 -51.2002 20.4805 -51.2002 51.2002
s24.5762 51.2002 50.1758 51.2002c28.6719 0 52.2236 -21.5039 52.2236 -52.2246c1.02441 -28.6719 -22.5273 -50.1758 -51.1992 -50.1758zM749.568 41.2725c27.6475 0 51.1992 -23.5527 51.1992 -51.2002c0 -27.6484 -23.5518 -51.2002 -51.1992 -51.2002
c-27.6484 0 -51.2002 21.5039 -51.2002 51.2002c-1.02441 27.6475 22.5283 51.2002 51.2002 51.2002zM406.528 -16.0723c26.624 0 52.2236 -22.5273 51.1992 -50.1758c0 -29.6963 -21.5039 -52.2236 -50.1758 -52.2236s-52.2236 22.5273 -52.2236 51.1992
c0 28.6729 22.5283 50.1768 51.2002 51.2002zM899.072 268.6c0 28.6729 20.4795 52.2246 51.2002 53.248c27.6475 0 51.1992 -23.5518 51.1992 -51.1992c0 -29.6963 -24.5752 -51.2002 -51.1992 -50.1768c-26.624 -3.07129 -51.2002 19.4561 -51.2002 48.1279z
M123.904 476.472c0 -29.6953 -21.5039 -51.1992 -51.2002 -51.1992c-28.6719 0 -51.2002 22.5273 -51.2002 51.1992s22.5283 51.2002 50.1758 51.2002c28.6719 0 52.2246 -23.5518 52.2246 -51.2002zM614.4 759.096c-28.6729 0 -52.2246 23.5527 -51.2002 51.2002
c-1.02441 26.624 21.5039 52.2236 51.2002 51.2002c27.6475 0 51.1992 -23.5518 51.1992 -51.2002c0 -27.6475 -23.5518 -51.2002 -51.1992 -51.2002zM129.024 184.632c28.6719 0 51.1992 -22.5283 51.1992 -51.2002c1.02441 -25.5996 -20.4795 -51.1992 -50.1758 -51.1992
c-30.7197 0 -52.2236 24.5752 -52.2236 51.1992c0 27.6484 23.5518 51.2002 51.2002 51.2002zM989.184 644.408c-18.4316 0 -34.8154 15.3594 -34.8154 34.8154c0 18.4326 16.3838 34.8164 34.8154 34.8164c19.4561 0 34.8164 -15.3604 34.8164 -34.8164
s-16.3838 -34.8154 -34.8164 -34.8154zM99.3281 6.45605c0 24.5762 15.3604 37.8877 33.792 37.8877c19.4561 0 33.792 -15.3594 34.8154 -34.8154c0 -18.4326 -15.3594 -34.8164 -34.8154 -34.8164c-17.4082 1.02441 -33.792 15.3604 -33.792 31.7441zM733.184 794.936
c-19.4561 0 -35.8398 15.3604 -34.8154 33.792c0 17.4082 14.3359 33.792 35.8398 34.8164c17.4082 0 32.7676 -15.3604 32.7676 -33.792c-1.02344 -18.4316 -15.3594 -34.8164 -33.792 -34.8164zM923.648 733.496c0 -19.4561 -14.3369 -32.7686 -33.792 -32.7686
c-18.4326 -1.02344 -34.8164 15.3604 -34.8164 32.7686c0 18.4316 16.3838 35.8398 32.7676 34.8154c19.4561 0 36.8643 -14.3359 35.8408 -34.8154zM68.6084 67.8965c0 -18.4326 -16.3848 -35.8408 -33.792 -35.8408c-18.4326 0 -33.792 15.3604 -33.792 33.792
c0 18.4326 15.3594 34.8164 33.792 34.8164c17.4072 0 33.792 -15.3604 33.792 -32.7676zM839.68 795.96c-20.4795 0 -34.8154 15.3604 -34.8154 32.7676c0 19.4561 15.3594 35.8408 33.792 35.8408c18.4316 0 34.8154 -15.3604 34.8154 -33.792
c0 -18.4326 -15.3594 -34.8164 -33.792 -34.8164zM1006.59 554.296c0 -18.4316 -14.3359 -33.792 -32.7676 -33.792c-19.4561 0 -34.8164 15.3604 -34.8164 34.8164s14.3359 33.792 33.792 33.792c19.4561 -1.02441 33.792 -16.3848 33.792 -34.8164zM46.0801 225.592
c18.4316 0 33.792 -17.4082 33.792 -35.8398c0 -17.4082 -16.3838 -32.7676 -32.7686 -32.7676c-19.4551 0 -34.8154 15.3594 -34.8154 32.7676c0 19.4561 15.3604 35.8398 33.792 35.8398zM286.72 -54.9844c19.4561 0 34.8164 -14.3359 34.8164 -32.7676
s-15.3604 -33.792 -33.792 -33.792c-18.4326 0 -33.792 14.3359 -33.792 31.7441c0 20.4795 14.3359 34.8154 32.7676 34.8154zM183.296 -50.8877c18.4316 0 32.7686 -14.3359 32.7686 -33.792c0 -18.4326 -14.3369 -33.792 -33.792 -33.792
c-18.4326 0 -34.8164 15.3594 -33.792 33.792c1.02344 18.4316 16.3838 33.792 34.8154 33.792zM988.16 812.344c-9.21582 0 -17.4082 8.19238 -17.4082 17.4082s8.19238 17.4082 18.4316 17.4082c9.2168 0 16.3848 -7.16797 16.3848 -17.4082
c-1.02441 -10.2402 -8.19238 -17.4082 -17.4082 -17.4082zM990.208 785.72c8.19238 0 15.3604 -8.19141 15.3604 -17.4082c0 -10.2393 -7.16797 -17.4072 -16.3848 -17.4072c-9.21582 0 -17.4072 7.16797 -17.4072 16.3838
c-1.02441 9.21582 8.19141 18.4316 18.4316 18.4316zM923.648 813.368c-9.2168 0 -17.4082 8.19141 -17.4082 17.4082c0 9.21582 9.21582 17.4072 19.4561 17.4072c8.19141 0 15.3594 -8.19141 15.3594 -17.4072c0 -10.2402 -8.19141 -17.4082 -17.4072 -17.4082z
M33.792 -5.83203c9.21582 0 16.3838 -7.16797 16.3838 -16.3838c0 -8.19238 -7.16797 -17.4082 -16.3838 -16.3838c-9.21582 0 -17.4082 7.16797 -17.4082 16.3838c1.02441 8.19141 8.19238 16.3838 17.4082 16.3838zM33.792 -68.2959
c9.21582 0 16.3838 -7.16797 16.3838 -16.3838c0 -9.2168 -7.16797 -16.3848 -16.3838 -16.3848s-17.4082 8.19238 -17.4082 16.3848c1.02441 9.21582 8.19238 16.3838 17.4082 16.3838zM99.3281 -68.2959c9.21582 0 16.3838 -7.16797 16.3838 -16.3838
c0 -9.2168 -7.16797 -16.3848 -16.3838 -16.3848c-8.19238 0 -16.3838 8.19238 -16.3838 16.3848c0 9.21582 7.16797 16.3838 16.3838 16.3838z" />
</svg>
