<?xml version="1.0" encoding="UTF-8"?>
<svg width="1024px" height="987px" viewBox="0 0 1024 987" version="1.1" xmlns="http://www.w3.org/2000/svg" xmlns:xlink="http://www.w3.org/1999/xlink">
  <g id="GameWisp" transform="translate(0.6167, 0.6075)" fill="currentColor" fill-rule="nonzero">
    <path d="M809.9836,793.6 C801.79219,782.3363 790.5275,774.1439 779.2639,766.976 C776.19163,765.95256 776.19163,764.92815 778.23949,761.85588 C789.50409,750.59218 799.74339,739.32858 808.96019,727.04048 C835.58419,693.24848 856.06369,656.38428 869.37619,615.42448 C870.39963,612.35221 871.42404,611.32878 874.49533,613.37663 C881.66428,617.47233 888.83223,621.56901 897.02363,624.64033 C909.31173,628.73701 920.57543,631.8083 933.88793,628.73701 C955.39183,624.64033 970.75223,612.35221 980.99143,593.92061 C988.1594,581.63251 991.23163,568.32101 989.18381,553.98511 C986.11154,533.50461 974.84791,518.14431 959.48751,504.83281 C948.22381,495.61699 935.93571,490.49691 920.57541,491.52031 C912.384,492.54472 903.16821,493.56914 894.97581,495.61699 C889.85569,498.68828 889.85569,498.68828 889.85569,492.54472 C889.85569,473.08862 887.80784,452.60922 884.73557,433.15312 C878.59202,396.28882 867.32737,360.44902 850.94357,326.65712 C848.89572,323.58485 849.92013,322.56044 852.99142,321.537 C862.20822,318.46473 870.39962,314.36903 879.61542,310.2724 C891.90352,303.10443 902.14372,294.913 909.31172,281.6005 C916.47969,266.2411 917.5041,249.8564 913.40742,233.4726 C909.31172,218.1132 902.14372,204.8007 887.80782,196.6093 C878.592,190.46477 868.35172,187.3925 858.11152,185.3447 C840.70332,181.249 824.31952,184.32126 808.96012,195.5849 C798.71992,203.77728 790.52752,212.9931 783.35952,224.2568 C781.31167,226.30465 781.31167,227.32907 778.2394,225.28121 C772.09585,219.13668 765.9513,214.01661 759.8078,207.87301 C744.4474,193.53711 727.0402,181.24901 709.632,169.98531 C685.0558,154.62491 659.4562,141.31241 631.8078,132.09661 C628.73553,131.07317 628.73553,130.04876 629.75995,128.00091 C632.83222,122.88079 635.9035,117.76071 637.95136,111.61711 C643.07148,99.32901 646.14374,86.01651 644.09589,72.70501 C640.00019,52.22451 629.75999,36.86521 612.35179,25.60051 C600.06369,17.4091 586.75219,14.33681 572.41629,15.36121 C560.12819,16.38465 548.86359,20.48035 537.59989,27.64831 C523.26399,36.86511 513.02369,49.15321 508.92799,66.56041 C505.85572,79.87291 505.85572,94.20881 508.92799,107.52041 C509.95143,110.59268 508.92799,111.61709 505.85572,111.61709 C493.56762,111.61709 481.27952,112.64053 468.99142,113.66494 C442.36742,115.71279 416.76782,121.85635 391.16822,130.04874 C373.76002,135.16886 356.35182,142.33684 338.94362,150.52924 C335.87233,151.55268 334.84792,151.55268 333.8235,148.48041 C332.80006,142.33686 330.75221,137.21671 327.67995,132.09661 C321.53542,117.76071 313.34405,105.47261 300.03155,98.30461 C281.59995,88.06441 261.11945,86.01651 241.66435,93.18449 C219.13605,100.35246 205.82355,117.76069 198.65555,140.28899 C192.512,161.79289 195.58426,181.24899 209.92015,198.65719 C217.08812,207.87301 225.27955,215.04099 235.51975,221.18449 C238.59202,223.23332 238.59202,224.25676 236.54416,226.30461 C231.42404,230.40129 227.32736,235.52043 223.23166,240.64051 C201.72776,264.19321 184.31956,289.79281 168.96016,318.46471 C159.74336,335.87291 151.55196,354.30451 145.40746,372.73721 C144.38402,375.8085 142.33617,376.83291 140.28734,374.78506 C137.21605,372.73721 133.11937,370.68838 129.02364,369.66494 C118.78344,365.56924 107.51974,361.47256 96.25604,361.47256 C67.58414,360.44912 38.91134,381.95306 31.74334,410.62486 C25.59979,432.12876 29.69549,451.58486 43.00794,470.01646 C53.24814,485.37686 67.58414,493.56916 86.01574,496.64046 C97.27944,498.68831 108.54404,497.66487 119.80774,495.61702 C122.88001,494.59261 123.90344,495.61702 124.92786,498.68831 C126.97571,514.04871 129.02356,529.40901 131.07141,543.74491 C135.16809,572.41681 141.31161,600.06421 151.55191,626.68831 C156.67203,638.97641 160.76773,652.28891 164.86341,665.60041 C165.88782,668.67268 164.86341,669.69709 161.79212,670.72053 C159.74329,670.72053 156.672,671.74494 154.62415,672.76838 C138.23935,677.8885 123.90345,686.08088 113.66415,701.44128 C105.47177,713.72838 103.42395,727.04088 103.42395,744.44908 C103.42395,760.83288 108.54407,776.19318 122.88005,788.48028 C134.14375,798.72048 148.47965,803.84068 163.84005,806.91288 C179.19945,809.98515 193.53535,806.91288 205.82345,798.7205 C217.08805,790.52909 226.30395,780.2889 234.49535,769.0252 C237.56762,763.90508 237.56762,763.90508 241.6643,768.00079 C251.9036,778.24099 264.1916,787.45689 275.4563,796.67269 C295.9358,812.03309 317.4397,825.34459 340.9915,837.63269 C356.3519,844.80066 370.6878,851.96859 387.0716,857.08879 C390.14387,858.1132 391.16828,859.13664 389.11945,862.20891 C387.0716,865.28118 385.02375,869.37688 382.9759,873.47261 C377.85578,884.73721 373.76008,897.02531 373.76008,909.31241 C373.76008,934.91301 386.04818,953.34461 406.52768,966.65711 C419.84018,974.84852 434.17608,977.92081 448.51208,975.87293 C461.82358,973.82508 473.08828,968.70496 483.32748,961.53703 C491.51986,955.3925 497.66438,948.22453 501.76008,939.00873 C506.8802,926.72063 507.90363,913.40913 507.90363,900.09663 C507.90363,893.95308 506.88019,887.80853 505.85578,880.64053 C505.85578,878.59268 506.88019,877.56924 508.92805,877.56924 C518.14387,876.54483 528.38415,875.52041 537.59995,874.49697 C569.34405,871.4247 601.08825,865.28115 631.80795,854.01647 C647.16835,848.89635 662.52765,843.77717 676.86365,838.65707 C679.93592,837.63266 680.96033,837.63266 680.96033,840.70492 C680.96033,842.75277 681.98377,844.80062 681.98377,846.84847 C686.07947,863.23327 694.27187,877.56917 707.58437,887.80847 C721.92027,899.07307 738.30407,901.12097 754.68787,902.14437 C766.97597,903.16878 778.23967,898.04867 788.47987,890.88067 C804.86367,879.61697 814.07947,863.23317 818.17617,843.77717 C824.31972,824.32107 821.24844,808.96077 809.98379,793.60037 L809.9836,793.6 Z M507.9036,791.552 C350.2086,791.552 207.8726,657.408 209.9206,492.544 C207.87275,329.728 344.0646,191.488 508.9286,192.506347 C672.7686,193.53641 808.9606,328.704 807.942337,491.52 C806.91219,657.409 673.7926,791.552 507.9046,791.552 L507.9036,791.552 Z M893.9516,680.96 C866.3041,679.93559 842.7524,703.4883 841.728,731.1358 C841.728,760.8321 866.3042,784.3838 892.9282,783.3604 C920.5757,783.3604 944.1284,760.8321 945.1518,733.1836 C945.1518,704.5117 922.6245,680.96 893.9516,680.96 Z M270.3356,825.344 C243.7116,824.32056 219.1354,845.8245 219.1354,876.5442 C219.1354,907.2639 243.7116,927.7444 269.3112,927.7444 C297.9831,927.7444 321.5348,906.2405 321.5348,875.5198 C322.55921,846.8479 299.0075,825.344 270.3356,825.344 L270.3356,825.344 Z M748.5436,162.8165 C776.1911,162.8165 799.7428,139.2638 799.7428,111.6163 C799.7428,83.9679 776.191,60.4161 748.5436,60.4161 C720.8952,60.4161 697.3434,81.92 697.3434,111.6163 C696.31899,139.2638 719.8717,162.8165 748.5436,162.8165 Z M405.5036,105.4717 C432.1276,105.4717 457.7272,82.9444 456.7028,55.2959 C456.7028,25.5996 435.1989,3.0723 406.527,3.0723 C377.8551,3.0723 354.3034,25.5996 354.3034,54.2715 C354.3034,82.9444 376.8317,104.4483 405.5036,105.4717 L405.5036,105.4717 Z M898.0476,390.144 C898.0476,418.8169 918.5271,442.3686 949.2478,443.392 C976.8953,443.392 1000.447,419.8402 1000.447,392.1928 C1000.447,362.4965 975.8718,340.9926 949.2478,342.016 C922.6238,338.94471 898.0476,361.4721 898.0476,390.1439 L898.0476,390.144 Z M122.8796,598.016 C122.8796,568.3207 101.3757,546.8168 71.6794,546.8168 C43.0075,546.8168 20.4792,569.3441 20.4792,598.016 C20.4792,626.6879 43.0075,649.2162 70.655,649.2162 C99.3269,649.2162 122.8796,625.6644 122.8796,598.016 Z M613.3756,880.64 C584.7027,880.64 561.151,904.1927 562.1754,931.8402 C561.15099,958.4642 583.6793,984.0638 613.3756,983.0404 C641.0231,983.0404 664.5748,959.4886 664.5748,931.8402 C664.5748,904.1927 641.023,880.64 613.3756,880.64 Z M127.9996,306.176 C156.6715,306.176 179.1988,283.6477 179.1988,254.9758 C180.22321,229.3762 158.7193,203.7766 129.023,203.7766 C98.3033,203.7766 76.7994,228.3518 76.7994,254.9758 C76.7994,282.6242 100.3512,306.176 127.9996,306.176 L127.9996,306.176 Z M988.1596,765.952 C969.728,765.952 953.3442,781.3114 953.3442,800.7674 C953.3442,819.2 969.728,835.5838 988.1596,835.5838 C1007.6157,835.5838 1022.976,820.2234 1022.976,800.7674 C1022.976,781.3114 1006.5922,765.952 988.1596,765.952 L988.1596,765.952 Z M98.3037,128.00005 C98.3037,152.57625 113.6641,165.88775 132.0957,165.88775 C151.5518,165.88775 165.8877,150.52835 166.9111,131.07235 C166.9111,112.63975 151.5517,96.25595 132.0957,96.25595 C114.6875,97.28036 98.3037,111.61635 98.3037,128.00005 L98.3037,128.00005 Z M732.1596,916.48 C712.7035,916.48 696.3198,931.8404 697.3442,950.272 C697.3442,967.6802 711.6801,984.064 733.184,985.0884 C750.5922,985.0884 765.9516,969.728 765.9516,951.2964 C764.92816,932.8648 750.5922,916.48 732.1596,916.48 Z M922.6236,855.04 C922.6236,835.5839 908.2867,822.2714 888.8316,822.2714 C870.399,821.24796 854.0152,837.6318 854.0152,855.04 C854.0152,873.4716 870.399,890.8798 886.7828,889.8554 C906.2389,889.8554 923.6471,875.5195 922.6236,855.04 L922.6236,855.04 Z M67.584,189.4405 C67.584,171.0079 51.1992,153.5997 33.792,153.5997 C15.3594,153.5997 -1.42108547e-14,168.9601 -1.42108547e-14,187.3917 C-1.42108547e-14,205.8243 15.3594,222.2081 33.792,222.2081 C51.1992,222.2081 67.584,206.8477 67.584,189.4405 Z M838.6556,917.504 C818.1761,917.504 803.8402,932.8644 803.8402,950.2716 C803.8402,969.7277 819.1996,986.1124 837.6322,986.1124 C856.0638,986.1124 872.4476,970.752 872.4476,952.3204 C872.4476,933.8878 857.0882,917.504 838.6556,917.504 Z M1005.5656,675.84 C1005.5656,657.4084 991.2297,642.048 972.798,642.048 C953.3419,642.048 937.9816,657.4084 937.9816,676.8644 C937.9816,696.3204 952.3175,710.6564 971.7736,710.6564 C991.2297,709.63199 1005.5656,694.2716 1005.5656,675.84 Z M45.0557,347.136 C63.4873,347.136 78.8477,329.7278 78.8477,311.2962 C78.8477,293.888 62.4639,278.5286 46.0791,278.5286 C26.624,278.5286 11.2637,293.888 11.2637,311.2962 C11.2637,330.7523 26.6241,347.136 45.0557,347.136 Z M285.6956,66.5596 C305.1517,66.5596 320.512,52.2237 320.512,33.792 C320.512,15.3603 305.1516,-2.84217094e-14 286.72,-2.84217094e-14 C268.2874,-2.84217094e-14 252.928,14.3359 252.928,31.7441 C252.928,52.2236 267.2639,66.5596 285.6956,66.5596 L285.6956,66.5596 Z M182.2716,70.6563 C200.7032,70.6563 215.0402,56.3204 215.0402,36.8643 C215.0402,18.4317 200.7033,3.0723 181.2482,3.0723 C162.8156,3.0723 146.4318,18.4317 147.4562,36.8643 C148.47964,55.2959 163.84,70.6563 182.2716,70.6563 Z M987.1356,933.888 C977.91978,933.888 969.7274,942.08038 969.7274,951.2962 C969.7274,960.51202 977.91978,968.7044 988.159,968.7044 C997.3758,968.7044 1004.5438,961.53643 1004.5438,951.2962 C1003.51939,941.056 996.35142,933.888 987.1356,933.888 L987.1356,933.888 Z M989.1836,907.264 C997.37598,907.264 1004.544,899.07259 1004.544,889.8558 C1004.544,879.6165 997.37603,872.4486 988.1592,872.4486 C978.94338,872.4486 970.752,879.61657 970.752,888.8324 C969.72759,898.04822 978.94341,907.264 989.1836,907.264 Z M922.6236,934.912 C913.4068,934.912 905.2154,943.10341 905.2154,952.3202 C905.2154,961.53602 914.43122,969.7274 924.6715,969.7274 C932.86291,969.7274 940.0309,961.53599 940.0309,952.3202 C940.0309,942.08 931.83949,934.912 922.6237,934.912 L922.6236,934.912 Z M32.7676,115.71197 C41.98342,115.71197 49.1514,108.544 49.1514,99.32817 C49.1514,91.13579 41.98343,81.91997 32.7676,82.94437 C23.55178,82.94437 15.3594,90.11234 15.3594,99.32817 C16.38381,107.51958 23.55178,115.71197 32.7676,115.71197 Z M32.7676,53.2481 C41.98342,53.2481 49.1514,46.08013 49.1514,36.8643 C49.1514,27.6475 41.98343,20.4795 32.7676,20.4795 C23.55177,20.4795 15.3594,28.67188 15.3594,36.8643 C16.38381,46.08012 23.55178,53.2481 32.7676,53.2481 L32.7676,53.2481 Z M98.3037,53.2481 C107.51952,53.2481 114.6875,46.08013 114.6875,36.8643 C114.6875,27.6475 107.51953,20.4795 98.3037,20.4795 C90.11132,20.4795 81.9199,28.67188 81.9199,36.8643 C81.9199,46.08012 89.08787,53.2481 98.3037,53.2481 L98.3037,53.2481 Z"></path>
  </g>
</svg>