<?xml version="1.0" encoding="UTF-8"?>
<svg width="1025px" height="919px" viewBox="0 0 1025 919" version="1.1" xmlns="http://www.w3.org/2000/svg" xmlns:xlink="http://www.w3.org/1999/xlink">
  <g id="Genius" transform="translate(0.6442, 0.0684)" fill="currentColor" fill-rule="nonzero">
    <path d="M550.314575,0.0230876857 C534.827275,0.0230876857 519.499175,0.535782686 504.138775,0.887345686 C494.827255,-0.424174314 488.298975,10.3912557 489.163175,18.5514457 C487.659265,61.7194457 490.154386,104.855146 488.4913,148.055446 C486.82724,184.055446 464.8429,216.247846 436.3624,236.887446 C415.0186,251.575946 388.4913,255.415746 365.0353,265.047646 C370.18667,298.423646 383.4992,331.575946 409.9953,353.399246 C460.843,398.359246 547.6903,390.231246 588.0113,335.223446 C628.3629,289.559346 607.3394,225.559446 613.7076,170.871446 C626.0269,150.390946 653.6754,165.207386 669.8678,149.879246 C655.3717,96.5354457 635.403,42.0712457 596.3951,1.68724569 C581.0357,0.535875686 565.7076,-0.135994314 550.2193,0.0231856857 L550.315003,0.0231856857 L550.314575,0.0230876857 Z M105.706575,0.375687686 C22.6665749,75.0318877 -16.5014251,194.711688 6.50637491,304.022688 C23.0180749,391.703388 78.3461749,470.199688 153.834375,517.367688 C159.498435,507.543468 163.689845,497.047388 157.674215,486.230988 C117.002315,366.039988 151.689835,225.079988 242.378315,136.758988 C243.017963,94.7433877 244.202535,52.4073877 242.218159,10.4229877 L234.185929,1.23939769 C191.338229,-0.937362314 148.521829,1.23939769 105.833929,0.375139686 L105.705999,0.375139686 L105.706575,0.375687686 Z M868.490575,2.71058769 L859.817725,17.8472877 C871.178125,57.8794877 885.514025,97.3677877 890.506225,138.679288 C915.338225,290.007288 873.353925,450.871288 779.018225,571.351288 C701.482125,671.831288 589.482225,745.175288 466.186225,774.999288 C352.682225,803.190688 230.827225,794.199488 121.995225,751.831288 C119.178815,755.190668 113.163195,762.039288 110.346825,765.526588 C224.010825,877.686588 389.514825,934.871588 548.010825,914.678588 C679.178825,900.694188 803.850825,835.190288 890.314825,735.702588 C972.843125,642.357888 1021.80282,519.349588 1023.65982,394.678588 C1028.81119,250.390588 972.171525,103.702588 868.491825,2.71058769 L868.490575,2.71058769 Z"></path>
  </g>
</svg>