<?xml version="1.0" standalone="no"?>
<!DOCTYPE svg PUBLIC "-//W3C//DTD SVG 1.1//EN" "http://www.w3.org/Graphics/SVG/1.1/DTD/svg11.dtd" >
<svg xmlns="http://www.w3.org/2000/svg" xmlns:xlink="http://www.w3.org/1999/xlink" version="1.1" viewBox="-11 0 1045 1024">
   <path fill="currentColor"
d="M550.304 -88.3604c-15.4873 0 -30.8154 0.512695 -46.1758 0.864258c-9.31152 -1.31152 -15.8398 9.50391 -14.9756 17.6641c-1.50391 43.168 0.991211 86.3037 -0.671875 129.504c-1.66406 36 -23.6484 68.1924 -52.1289 88.832
c-21.3438 14.6885 -47.8711 18.5283 -71.3271 28.1602c5.15137 33.376 18.4639 66.5283 44.96 88.3516c50.8477 44.96 137.695 36.832 178.016 -18.1758c40.3516 -45.6641 19.3281 -109.664 25.6963 -164.352c12.3193 -20.4805 39.9678 -5.66406 56.1602 -20.9922
c-14.4961 -53.3438 -34.4648 -107.808 -73.4727 -148.192c-15.3594 -1.15137 -30.6875 -1.82324 -46.1758 -1.66406h0.0957031zM105.696 -88.0078c-83.04 74.6562 -122.208 194.336 -99.2002 303.647c16.5117 87.6807 71.8398 166.177 147.328 213.345
c5.66406 -9.82422 9.85547 -20.3203 3.83984 -31.1367c-40.6719 -120.191 -5.98438 -261.151 84.7041 -349.472c0.639648 -42.0156 1.82422 -84.3516 -0.160156 -126.336l-8.03223 -9.18359c-42.8477 -2.17676 -85.6641 0 -128.352 -0.864258h-0.12793zM868.48 -85.6719
l-8.67285 15.1357c11.3604 40.0322 25.6963 79.5205 30.6885 120.832c24.832 151.328 -17.1523 312.192 -111.488 432.672c-77.5361 100.48 -189.536 173.824 -312.832 203.648c-113.504 28.1914 -235.359 19.2002 -344.191 -23.168
c-2.81641 3.35938 -8.83203 10.208 -11.6484 13.6953c113.664 112.16 279.168 169.345 437.664 149.152c131.168 -13.9844 255.84 -79.4883 342.304 -178.976c82.5283 -93.3447 131.488 -216.353 133.345 -341.024c5.15137 -144.288 -51.4883 -290.976 -155.168 -391.968z
" />
</svg>
