<?xml version="1.0" standalone="no"?>
<!DOCTYPE svg PUBLIC "-//W3C//DTD SVG 1.1//EN" "http://www.w3.org/Graphics/SVG/1.1/DTD/svg11.dtd" >
<svg xmlns="http://www.w3.org/2000/svg" xmlns:xlink="http://www.w3.org/1999/xlink" version="1.1" viewBox="-10 0 1036 1024">
   <path fill="currentColor"
d="M51.2002 678.2h308.224c26.624 0 48.1279 21.5039 48.1279 48.1279v108.544c0 26.624 -21.5039 48.1279 -48.1279 48.1279h-308.224c-26.624 0 -48.1279 -21.5039 -48.1279 -48.1279v-108.544c0 -26.624 21.5039 -48.1279 48.1279 -48.1279zM659.456 678.2h308.224
c26.624 0 48.1279 21.5039 48.1279 48.1279v108.544c0 26.624 -21.5039 48.1279 -48.1279 48.1279h-308.224c-26.624 0 -48.1279 -21.5039 -48.1279 -48.1279v-108.544c0 -26.624 21.5039 -48.1279 48.1279 -48.1279zM51.2002 268.6h916.479
c26.624 0 48.1279 21.5039 48.1279 48.1279v108.545c0 26.624 -21.5039 48.1279 -48.1279 48.1279h-916.479c-26.624 0 -48.1279 -21.5039 -48.1279 -48.1279v-108.545c0 -26.624 21.5039 -48.1279 48.1279 -48.1279zM51.2002 -141h512
c26.624 0 48.1279 21.5039 48.1279 48.1279v108.544c0 26.624 -21.5039 48.1279 -48.1279 48.1279h-512c-26.624 0 -48.1279 -21.5039 -48.1279 -48.1279v-108.544c0 -26.624 21.5039 -48.1279 48.1279 -48.1279zM861.184 -141h106.496
c26.624 0 48.1279 21.5039 48.1279 48.1279v108.544c0 26.624 -21.5039 48.1279 -48.1279 48.1279h-106.496c-26.624 0 -48.1279 -21.5039 -48.1279 -48.1279v-108.544c0 -26.624 21.5039 -48.1279 48.1279 -48.1279z" />
</svg>
