<?xml version="1.0" encoding="UTF-8"?>
<svg width="1013px" height="1025px" viewBox="0 0 1013 1025" version="1.1" xmlns="http://www.w3.org/2000/svg" xmlns:xlink="http://www.w3.org/1999/xlink">
  <g id="Ghost" transform="translate(0.052, 0.6075)" fill="currentColor" fill-rule="nonzero">
    <path d="M48.1279,819.2 L356.3519,819.2 C382.9759,819.2 404.4798,840.7039 404.4798,867.3279 L404.4798,975.8719 C404.4798,1002.4959 382.9759,1023.9998 356.3519,1023.9998 L48.1279,1023.9998 C21.5039,1023.9998 0,1002.4959 0,975.8719 L0,867.3279 C0,840.7039 21.5039,819.2 48.1279,819.2 Z M656.3837,819.2 L964.6077,819.2 C991.2317,819.2 1012.7356,840.7039 1012.7356,867.3279 L1012.7356,975.8719 C1012.7356,1002.4959 991.2317,1023.9998 964.6077,1023.9998 L656.3837,1023.9998 C629.7597,1023.9998 608.2558,1002.4959 608.2558,975.8719 L608.2558,867.3279 C608.2558,840.7039 629.7597,819.2 656.3837,819.2 L656.3837,819.2 Z M48.1279,409.6 L964.6069,409.6 C991.2309,409.6 1012.7348,431.1039 1012.7348,457.7279 L1012.7348,566.2729 C1012.7348,592.8969 991.2309,614.4008 964.6069,614.4008 L48.1279,614.4008 C21.5039,614.4008 0,592.8969 0,566.2729 L0,457.7279 C0,431.1039 21.5039,409.6 48.1279,409.6 Z M48.1279,0 L560.1279,0 C586.7519,0 608.2558,21.5039 608.2558,48.1279 L608.2558,156.6719 C608.2558,183.2959 586.7519,204.7998 560.1279,204.7998 L48.1279,204.7998 C21.5039,204.7998 0,183.2959 0,156.6719 L0,48.1279 C0,21.5039 21.5039,0 48.1279,0 Z M858.1117,0 L964.6077,0 C991.2317,0 1012.7356,21.5039 1012.7356,48.1279 L1012.7356,156.6719 C1012.7356,183.2959 991.2317,204.7998 964.6077,204.7998 L858.1117,204.7998 C831.4877,204.7998 809.9838,183.2959 809.9838,156.6719 L809.9838,48.1279 C809.9838,21.5039 831.4877,0 858.1117,0 Z"></path>
  </g>
</svg>