<?xml version="1.0" encoding="UTF-8"?>
<svg width="100px" height="100px" viewBox="0 0 100 100" version="1.1" xmlns="http://www.w3.org/2000/svg" xmlns:xlink="http://www.w3.org/1999/xlink">
    <title>Git</title>
    <g id="Git" stroke="none" stroke-width="1" fill="none" fill-rule="evenodd">
        <path d="M54.2036419,5.58315026 L54.4089154,5.78123754 L94.075798,45.8958932 C96.3887317,48.2349361 96.3870741,52.0001676 94.0720817,54.3371731 L54.4052213,94.3812226 C52.132985,96.6750654 48.4680954,96.7509483 46.1039283,94.5961264 L45.9051254,94.4065533 L5.76257309,54.3624814 C3.4165514,52.0222151 3.41188571,48.2232281 5.75215199,45.8772064 L33.248,18.399 L43.444793,28.5959544 C43.1378446,29.3257348 42.9510377,30.1184817 42.909132,30.9494353 L42.9001162,31.3078253 C42.9001162,34.0999315 44.5348296,36.51023 46.8993801,37.6338444 L46.8993801,62.9818062 C44.5348296,64.1054206 42.9001162,66.515719 42.9001162,69.3078253 C42.9001162,73.1738185 46.0341229,76.3078253 49.9001162,76.3078253 C53.7661094,76.3078253 56.9001162,73.1738185 56.9001162,69.3078253 C56.9001162,66.5153242 55.2649404,64.1047389 52.8998491,62.9813296 L52.899311,38.0501846 L62.8045622,47.9572136 C62.5427014,48.6919084 62.4001162,49.4832155 62.4001162,50.3078253 C62.4001162,54.1738185 65.5341229,57.3078253 69.4001162,57.3078253 C73.2661094,57.3078253 76.4001162,54.1738185 76.4001162,50.3078253 C76.4001162,46.441832 73.2661094,43.3078253 69.4001162,43.3078253 C68.5743773,43.3078253 67.7820323,43.4508013 67.0464869,43.7133476 L56.6175964,33.2829287 C56.8014718,32.6565427 56.9001162,31.9937038 56.9001162,31.3078253 C56.9001162,27.441832 53.7661094,24.3078253 49.9001162,24.3078253 C49.2144149,24.3078253 48.5517413,24.4064186 47.9254984,24.5902024 L37.493,14.157 L45.9013644,5.75588487 C48.1852229,3.47361349 51.8504507,3.41634736 54.2036419,5.58315026 Z" id="Path" fill="#000000"></path>
    </g>
</svg>