<?xml version="1.0" encoding="UTF-8"?>
<svg width="40px" height="40px" viewBox="0 0 40 40" version="1.1" xmlns="http://www.w3.org/2000/svg" xmlns:xlink="http://www.w3.org/1999/xlink">
    <g id="Gitea" stroke="none" stroke-width="1" fill="none" fill-rule="evenodd">
        <path d="M34.851584,10.33625 C34.7149173,10.1995833 34.5471395,10.15625 34.4504729,10.1425463 L34.371584,10.13625 C34.371584,10.13625 28.511584,10.46625 25.476584,10.53625 C24.811584,10.55125 24.151584,10.56625 23.496584,10.57125 L23.496584,16.43125 L22.666584,16.03625 L22.661584,10.57625 L21.9845394,10.5766994 C21.7371738,10.5744853 21.4721215,10.5701522 21.2013749,10.5644348 L18.0207525,10.457143 C16.9704124,10.4041595 11.6612967,10.135141 10.5129974,10.0531197 L10.012942,10.0178755 C9.64183089,9.99441872 9.20183089,9.98059156 8.67960866,10.0652829 L8.41158397,10.11625 C7.97658397,10.20625 6.73658397,10.48625 5.72158397,11.46125 C3.90908397,13.0763889 3.92978228,15.4604977 4.04295164,16.5775005 L4.11658397,17.13625 C4.19772034,17.6946591 4.43830918,19.2006715 5.53849184,20.5671112 L5.70158397,20.76125 C7.99158397,23.56625 12.921584,23.50125 12.921584,23.50125 L13.0816686,23.8588127 C13.3194857,24.370163 13.8081057,25.3510326 14.451584,26.27625 C15.701584,27.93125 16.986584,29.22125 18.236584,29.37625 L27.708957,29.3704492 C27.8349433,29.3642969 28.383459,29.31125 29.096584,28.85625 C29.577834,28.5640625 30.0236348,28.120625 30.2552632,27.8720105 L30.516954,27.5770394 C30.7279373,27.3269008 31.2711294,26.6382955 31.966584,25.42125 C32.172834,25.0575 32.3537715,24.7021875 32.5157246,24.3595312 L32.7943262,23.7491163 C33.329422,22.5333971 35.431584,17.4407955 35.431584,12.46625 C35.376584,10.74125 34.951584,10.43625 34.851584,10.33625 Z M21.551584,15.91125 L22.6881826,16.4630908 L21.996584,17.87125 C21.661584,17.86625 21.351584,18.04625 21.191584,18.34125 C21.021584,18.65625 21.056584,19.04625 21.286584,19.33125 L20.056584,21.85125 C19.646584,21.85625 19.286584,22.14125 19.191584,22.54125 C19.096584,22.94125 19.291584,23.35625 19.646584,23.54125 C20.031584,23.74125 20.521584,23.63125 20.781584,23.27125 C21.036584,22.91625 20.996584,22.42625 20.691584,22.11625 L21.891584,19.66125 C21.966584,19.66625 22.076584,19.67125 22.201584,19.63625 C22.406584,19.59125 22.556584,19.45625 22.556584,19.45625 C22.766584,19.54625 22.986584,19.64625 23.216584,19.76125 C23.456584,19.88125 23.681584,20.00625 23.886584,20.12625 C23.931584,20.15125 23.976584,20.18125 24.026584,20.22125 C24.106584,20.28625 24.196584,20.37625 24.261584,20.49625 C24.328084,20.68875 24.254934,20.9768 24.205059,21.132305 L24.166584,21.24125 C24.051584,21.62125 23.246584,23.27125 23.246584,23.27125 C22.841584,23.26125 22.481584,23.52125 22.361584,23.89625 C22.231584,24.30125 22.416584,24.76125 22.806584,24.96125 C23.196584,25.16125 23.676584,25.04625 23.931584,24.69625 C24.181584,24.35625 24.161584,23.88125 23.876584,23.56625 L24.016584,23.2875 L24.156584,23.00125 C24.406584,22.48125 24.831584,21.48125 24.831584,21.48125 L24.8676256,21.4110417 C24.9457506,21.2495833 25.091584,20.8745833 24.966584,20.41625 C24.872834,19.98875 24.565334,19.7328125 24.4174433,19.6315625 L24.336584,19.58125 C23.726584,19.18625 22.876584,18.82125 22.876584,18.82125 L22.8722545,18.7287573 C22.8664819,18.6556378 22.8530125,18.5519643 22.821584,18.46625 C22.766584,18.31125 22.681584,18.21125 22.626584,18.15125 L23.3028978,16.7604293 L27.1338756,18.6197917 C27.282834,18.6979167 27.739084,18.96875 27.851584,19.40625 C27.934709,19.73 27.8532246,20.023125 27.7880098,20.1985352 L27.761584,20.26625 C27.665959,20.5 27.3749641,21.1129703 27.0160291,21.8533787 L24.9689291,26.0072977 C24.8638799,26.2007398 24.5619411,26.6558929 24.031584,26.69125 C23.857584,26.70325 23.706984,26.67925 23.614344,26.65813 L23.4986543,26.6243945 C23.4722871,26.6141406 23.407834,26.58875 23.251584,26.52625 L17.606584,23.77625 C17.606584,23.77625 17.061584,23.49125 16.966584,22.99625 C16.8749173,22.65875 17.0297784,22.2552778 17.0839451,22.130162 L19.8397245,16.4529893 C19.9005509,16.3440787 20.077741,16.0560547 20.3289807,15.8985791 L20.426584,15.84625 C20.456584,15.83125 20.541584,15.79625 20.651584,15.77125 C21.056584,15.66625 21.551584,15.91125 21.551584,15.91125 Z M10.121584,12.40125 L10.2606618,13.4621117 C10.3263308,13.9344926 10.4122718,14.5187103 10.5119543,15.1168056 L10.5838936,15.5364944 C10.682584,16.0957833 10.7919173,16.64725 10.906584,17.11125 C10.9837268,17.4241071 11.0847472,17.7812755 11.1958697,18.1493987 L11.4218617,18.8728404 C11.7790519,19.9834486 12.146584,20.99625 12.146584,20.99625 L11.6583064,20.9265141 C11.2427114,20.8603789 10.636187,20.7476046 10.1413739,20.5899057 L9.99658397,20.54125 C8.98936175,20.2106944 8.43281854,19.8287191 8.23520537,19.6752761 L8.03794642,19.5173507 C7.77053134,19.2953359 7.09553134,18.6583553 6.71658397,17.61625 C6.0389054,15.8008929 6.42732377,14.5658163 6.58765426,14.1826052 L6.64658397,14.05625 C6.64658397,14.05625 6.65372953,14.0371101 6.66949636,14.0029912 L6.71296229,13.9160141 L6.79260832,13.7796294 C7.01917436,13.4215324 7.54098615,12.8130435 8.57158397,12.55625 C9.26158397,12.37125 10.121584,12.40125 10.121584,12.40125 Z" id="Shape" fill="currentColor" fill-rule="nonzero"></path>
    </g>
</svg>