<?xml version="1.0" encoding="UTF-8"?>
<svg width="914px" height="1025px" viewBox="0 0 914 1025" version="1.1" xmlns="http://www.w3.org/2000/svg" xmlns:xlink="http://www.w3.org/1999/xlink">
  <g id="GitHub" transform="translate(0.6829, 0.711)" fill="currentColor" fill-rule="nonzero">
    <path d="M913.195312,355.567321 C913.195312,283.567321 889.195312,223.567321 845.195312,177.567321 C853.195312,161.567321 875.195312,93.5673206 839.195312,1.56732061 C839.195312,1.56732061 783.195312,-16.4326794 657.195312,69.5673206 C603.195312,55.5673206 547.195312,47.5673206 489.195312,47.5673206 C433.195312,47.5673206 377.195312,55.5673206 323.195312,69.5673206 C195.195312,-16.4326794 141.195312,1.56732061 141.195312,1.56732061 C103.195312,93.5673206 127.195313,161.567321 133.195312,177.567321 C91.1953125,223.567321 65.1953125,283.567321 65.1953125,355.567321 C65.1953125,611.567321 221.195312,667.567321 369.195312,685.567321 C349.195312,701.567321 331.195312,731.567321 325.195312,773.567321 C287.195312,791.567321 191.195312,819.567321 133.195312,717.567321 C133.195312,717.567321 97.1953125,655.567321 31.1953125,649.567321 C31.1953125,649.567321 -34.8046875,649.567321 25.1953125,689.567321 C25.1953125,689.567321 69.1953125,711.567321 99.1953125,787.567321 C99.1953125,787.567321 139.195312,905.567321 323.195312,865.567321 C325.195312,921.567321 325.195312,1007.56732 325.195312,1023.56732 L655.195312,1023.56732 L655.195312,807.567321 C655.195312,745.567321 635.195312,705.567321 611.195312,683.567321 C759.195312,667.567321 913.195312,611.567321 913.195312,355.567321 Z M77.1953125,681.567321 C75.1953125,683.567321 69.1953125,685.567321 65.1953125,683.567321 C61.1953125,681.567321 57.1953125,675.567321 59.1953125,673.567321 C61.1953125,669.567321 65.1953125,667.567321 71.1953125,671.567321 C75.1953125,673.567321 77.1953125,677.567321 77.1953125,681.567321 Z M103.195312,711.567321 C101.195312,713.567321 93.1953125,711.567321 89.1953125,707.567321 C85.1953125,703.567321 85.1953125,697.567321 87.1953125,693.567321 C91.1953125,691.567321 97.1953125,691.567321 101.195312,697.567321 C105.195312,701.567321 107.195312,707.567321 103.195312,711.567321 Z M129.195312,749.567321 C125.195312,751.567321 119.195312,749.567321 115.195312,743.567321 C111.195312,737.567321 111.195312,729.567321 115.195312,727.567321 C119.195312,725.567321 125.195312,727.567321 129.195312,733.567321 C133.195312,739.567321 133.195312,745.567321 129.195312,749.567321 Z M165.195312,785.567321 C161.195312,789.567321 153.195312,789.567321 149.195312,783.567321 C143.195312,777.567321 141.195312,771.567321 145.195312,767.567321 C149.195312,761.567321 157.195312,763.567321 161.195312,769.567321 C167.195312,773.567321 169.195312,781.567321 165.195312,785.567321 Z M215.195312,807.567321 C213.195312,813.567321 205.195312,815.567321 199.195312,813.567321 C191.195312,811.567321 185.195312,805.567321 187.195312,799.567321 C189.195312,793.567321 197.195312,791.567321 205.195312,793.567321 C211.195312,795.567321 217.195312,801.567321 215.195312,807.567321 Z M255.195312,821.567321 C247.195312,821.567321 241.195312,817.567321 241.195312,811.567321 C241.195312,805.567321 247.195312,801.567321 255.195312,801.567321 C263.195312,801.567321 269.195312,805.567321 269.195312,811.567321 C269.195312,817.567321 263.195312,821.567321 255.195312,821.567321 Z M307.195312,815.567321 C299.195312,817.567321 293.195312,813.567321 291.195312,807.567321 C291.195312,803.567321 297.195312,797.567321 305.195312,795.567321 C313.195312,793.567321 319.195312,797.567321 321.195312,803.567321 C321.195312,807.567321 315.195312,813.567321 307.195312,815.567321 Z"></path>
  </g>
</svg>