<?xml version="1.0" standalone="no"?>
<!DOCTYPE svg PUBLIC "-//W3C//DTD SVG 1.1//EN" "http://www.w3.org/Graphics/SVG/1.1/DTD/svg11.dtd" >
<svg xmlns="http://www.w3.org/2000/svg" xmlns:xlink="http://www.w3.org/1999/xlink" version="1.1" viewBox="-10 0 1034 1024">
   <path fill="currentColor"
d="M968 215c0 -72 -24 -132 -68 -178c8 -16 30 -84 -6 -176c0 0 -56 -18 -182 68c-54 -14 -110 -22 -168 -22c-56 0 -112 8 -166 22c-128 -86 -182 -68 -182 -68c-38 92 -14 160 -8 176c-42 46 -68 106 -68 178c0 256 156 312 304 330c-20 16 -38 46 -44 88
c-38 18 -134 46 -192 -56c0 0 -36 -62 -102 -68c0 0 -66 0 -6 40c0 0 44 22 74 98c0 0 40 118 224 78c2 56 2 142 2 158h330v-216c0 -62 -20 -102 -44 -124c148 -16 302 -72 302 -328zM132 541c-2 2 -8 4 -12 2s-8 -8 -6 -10c2 -4 6 -6 12 -2c4 2 6 6 6 10zM158 571
c-2 2 -10 0 -14 -4s-4 -10 -2 -14c4 -2 10 -2 14 4c4 4 6 10 2 14zM184 609c-4 2 -10 0 -14 -6s-4 -14 0 -16s10 0 14 6s4 12 0 16zM220 645c-4 4 -12 4 -16 -2c-6 -6 -8 -12 -4 -16c4 -6 12 -4 16 2c6 4 8 12 4 16zM270 667c-2 6 -10 8 -16 6c-8 -2 -14 -8 -12 -14
s10 -8 18 -6c6 2 12 8 10 14zM310 681c-8 0 -14 -4 -14 -10s6 -10 14 -10s14 4 14 10s-6 10 -14 10zM362 675c-8 2 -14 -2 -16 -8c0 -4 6 -10 14 -12s14 2 16 8c0 4 -6 10 -14 12z" />
</svg>
