<?xml version="1.0" encoding="UTF-8"?>
<svg width="900px" height="897px" viewBox="0 0 900 897" version="1.1" xmlns="http://www.w3.org/2000/svg" xmlns:xlink="http://www.w3.org/1999/xlink">
  <g id="Glaze" transform="translate(0, 0.3376)" fill="currentColor" fill-rule="nonzero">
    <path d="M568.682,0 L639.0795,67.9814766 L571.1,138.377977 L500.7016,70.3984766 L568.6821,0 L568.6821,0 L568.682,0 Z M764.608,64.4775766 L899.654,194.890577 L769.241,329.936577 L634.195,199.525577 L764.608,64.4775766 L764.608,64.4775766 L764.608,64.4775766 Z M343.518,137.067477 L343.518,137.067477 C153.797,137.067477 0,290.865477 0,480.585477 C0,609.892477 71.4443,722.510477 177.01,781.123477 C122.8137,720.392977 89.8733,640.285477 89.8733,552.484477 C89.8733,362.763477 243.6703,208.966477 433.3913,208.966477 C493.8044,208.966477 550.5773,224.560277 599.8983,251.946977 C536.9891,181.451877 445.4373,137.067477 343.5193,137.067477 L343.518,137.067477 Z M599.899,251.945577 L599.899,251.945577 C654.0963,312.673577 687.0367,392.781077 687.0367,480.585077 C687.0367,670.305077 533.2397,824.102077 343.5197,824.102077 C283.1056,824.102077 226.3327,808.506377 177.0117,781.122577 C239.9209,851.615777 331.4737,896.000577 433.3927,896.000577 C623.1127,896.000577 776.9097,742.203577 776.9097,552.483577 C776.9097,423.175577 705.4654,310.555577 599.8987,251.945577 L599.8987,251.945577 L599.899,251.945577 Z M445.788,452.641077 L445.788,452.641077 C445.788,452.641077 460.2538,440.758277 471.6776,429.702577 C460.9833,417.472077 450.6171,405.880277 434.5292,399.013077 C418.4413,392.146867 400.5272,388.712277 380.7821,388.712277 C356.8339,388.712277 335.6063,393.913447 317.0946,404.315777 C298.5839,414.717177 284.0966,429.509177 273.6317,448.690777 C263.1669,467.871477 257.9344,490.628277 257.9344,516.961277 C257.9344,543.294277 263.16585,566.051077 273.6317,585.232777 C284.0965,604.413477 298.7235,619.203477 317.5057,629.607777 C336.2889,640.011077 358.1131,645.213277 382.9754,645.213277 C405.2781,645.213277 425.0457,641.048237 442.2752,632.717177 C459.5037,624.386127 473.032,612.620477 482.8582,597.423277 C492.68437,582.225077 494.4168,562.921277 493.9861,537.291477 C493.557389,511.662577 475.6951,506.956477 475.6951,506.956477 L376.5017,507.231868 L376.636466,543.406668 L455.585666,543.018973 C458.373756,562.981873 456.320041,571.111773 449.372776,582.044373 C442.425506,592.974073 419.923576,604.671373 419.923576,604.671373 C419.923576,604.671373 398.404076,609.179183 382.590576,609.179183 C365.225376,609.179183 352.008576,605.352033 338.115976,597.713383 C324.223376,590.072763 313.886476,582.015183 305.751676,567.143083 C297.616906,552.271983 292.745776,537.423383 292.745776,515.803283 C292.745776,494.185083 298.408866,480.900983 306.452776,466.026883 C314.496686,451.152783 322.767276,439.386283 336.386376,431.747583 C350.004576,424.106963 359.411776,421.353083 376.046576,421.353083 C396.338576,421.353083 402.475276,422.576713 416.615876,428.374563 C430.136376,437.803273 436.251576,441.387263 445.784776,452.638263 L445.788,452.641077 Z"></path>
  </g>
</svg>