<?xml version="1.0" standalone="no"?>
<!DOCTYPE svg PUBLIC "-//W3C//DTD SVG 1.1//EN" "http://www.w3.org/Graphics/SVG/1.1/DTD/svg11.dtd" >
<svg xmlns="http://www.w3.org/2000/svg" xmlns:xlink="http://www.w3.org/1999/xlink" version="1.1" viewBox="-10 0 1034 1024">
   <path fill="currentColor"
d="M630.855 -77l70.3975 67.9814l-67.9795 70.3965l-70.3984 -67.9795l67.9805 -70.3975v-0.000976562zM826.781 -12.5225l135.046 130.413l-130.413 135.046l-135.046 -130.411l130.413 -135.047v-0.000976562zM405.691 60.0674v0
c-189.721 0 -343.518 153.798 -343.518 343.518c0 129.307 71.4443 241.925 177.01 300.538c-54.1963 -60.7305 -87.1367 -140.838 -87.1367 -228.639c0 -189.721 153.797 -343.518 343.518 -343.518c60.4131 0 117.186 15.5938 166.507 42.9805
c-62.9092 -70.4951 -154.461 -114.878 -256.379 -114.878zM662.072 174.946v0c54.1973 60.7275 87.1377 140.835 87.1377 228.639c0 189.72 -153.797 343.517 -343.517 343.517c-60.4141 0 -117.187 -15.5957 -166.508 -42.9795
c62.9092 70.4932 154.462 114.878 256.381 114.878c189.72 0 343.517 -153.797 343.517 -343.517c0 -129.308 -71.4443 -241.928 -177.011 -300.538v0.000976562zM507.961 375.641v0s14.4658 -11.8828 25.8896 -22.9385
c-10.6943 -12.2305 -21.0605 -23.8223 -37.1484 -30.6895c-16.0879 -6.86621 -34.002 -10.3008 -53.7471 -10.3008c-23.9482 0 -45.1758 5.20117 -63.6875 15.6035c-18.5107 10.4014 -32.998 25.1934 -43.4629 44.375c-10.4648 19.1807 -15.6973 41.9375 -15.6973 68.2705
s5.23145 49.0898 15.6973 68.2715c10.4648 19.1807 25.0918 33.9707 43.874 44.375c18.7832 10.4033 40.6074 15.6055 65.4697 15.6055c22.3027 0 42.0703 -4.16504 59.2998 -12.4961c17.2285 -8.33105 30.7568 -20.0967 40.583 -35.2939
c9.82617 -15.1982 11.5586 -34.502 11.1279 -60.1318c-0.428711 -25.6289 -18.291 -30.335 -18.291 -30.335l-99.1934 0.275391l0.134766 36.1748l78.9492 -0.387695c2.78809 19.9629 0.734375 28.0928 -6.21289 39.0254c-6.94727 10.9297 -29.4492 22.627 -29.4492 22.627
s-21.5195 4.50781 -37.333 4.50781c-17.3652 0 -30.582 -3.82715 -44.4746 -11.4658c-13.8926 -7.64062 -24.2295 -15.6982 -32.3643 -30.5703c-8.13477 -14.8711 -13.0059 -29.7197 -13.0059 -51.3398c0 -21.6182 5.66309 -34.9023 13.707 -49.7764
s16.3145 -26.6406 29.9336 -34.2793c13.6182 -7.64062 23.0254 -10.3945 39.6602 -10.3945c20.292 0 26.4287 1.22363 40.5693 7.02148c13.5205 9.42871 19.6357 13.0127 29.1689 24.2637z" />
</svg>
