<?xml version="1.0" encoding="UTF-8"?>
<svg width="150px" height="150px" viewBox="0 0 150 150" version="1.1" xmlns="http://www.w3.org/2000/svg" xmlns:xlink="http://www.w3.org/1999/xlink">
	<g fill="currentColor">
	<path fill="currentColor" d="M75,150c-41.5,0-75-33.7-75-75.2c0-1.3,0-2.5,0.1-3.8C2.1,31.8,34.7,0.5,74,0c22.7-0.4,44.3,9.6,58.7,27.1
			c0.9,1.1,0.8,2.8-0.3,3.7c0,0-0.1,0.1-0.1,0.1l-8,6.1c-1.1,0.9-2.7,0.7-3.6-0.4C109.3,22.9,92.2,15,74.3,15.3
			c-32.9,0.4-59.5,27.8-59,60.7c0.6,33,27.8,59.2,60.7,58.7c17.2-0.3,33.4-8,44.5-21.1c0.9-1.1,2.5-1.2,3.6-0.4l7.9,6.2
			c1.1,0.9,1.4,2.5,0.5,3.7c0,0-0.1,0.1-0.1,0.1C118.3,140.2,97.2,150.1,75,150z"></path>
	<path fill="currentColor" d="M75.1,119.3c-24.5,0-44.3-19.8-44.3-44.3c0-24.5,19.8-44.3,44.3-44.3c12.8,0,25,5.6,33.4,15.2
			c0.9,1.1,0.8,2.8-0.3,3.7c0,0-0.1,0.1-0.1,0.1l-7.9,6.2c-1.1,0.9-2.7,0.7-3.6-0.3c-10.7-11.9-29.1-12.8-40.9-2s-12.8,29.1-2,40.9
			c10.7,11.9,29.1,12.8,40.9,2c3.2-2.9,5.6-6.4,7.3-10.3H83.6c-1.4,0-2.6-1.2-2.6-2.6v-10c0-1.4,1.2-2.6,2.6-2.6h33.3
			c1.4,0,2.6,1.2,2.6,2.6c0,0,0,0.1,0,0.1c-0.1,3.1-0.4,5.6-0.4,5.6C117.1,102,98,119.4,75.1,119.3z"></path>
	</g>
</svg>