<?xml version="1.0" standalone="no"?>
<!DOCTYPE svg PUBLIC "-//W3C//DTD SVG 1.1//EN" "http://www.w3.org/Graphics/SVG/1.1/DTD/svg11.dtd" >
<svg xmlns="http://www.w3.org/2000/svg" xmlns:xlink="http://www.w3.org/1999/xlink" version="1.1" viewBox="-10 0 1034 1024">
   <path fill="currentColor"
d="M840.306 -140.34c-213.137 0 -251.89 303.559 -132.402 303.559c119.486 0 345.541 -303.559 132.402 -303.559zM488.306 124.467c64.5869 3.22949 132.403 -242.201 12.917 -229.284c-119.485 16.1475 -77.5039 226.056 -12.917 229.284zM194.435 279.476
c45.2119 -19.376 6.45898 -216.366 -71.0459 -161.468c-77.5039 51.6699 25.835 180.844 71.0459 161.468zM323.609 176.137c51.6699 -9.6875 54.8984 -232.513 -41.9824 -193.761c-93.6514 41.9824 -12.917 203.449 41.9824 193.761v0zM604.563 673.457
c9.6875 74.2754 -54.8994 109.798 -116.258 61.3584c-196.99 -151.78 326.165 -226.056 290.643 -429.505c-25.835 -171.155 -548.99 -119.485 -610.349 148.551c-38.752 180.844 164.697 429.504 381.064 429.504c106.569 0 229.284 -96.8809 251.89 -216.367
c16.1475 -93.6514 -203.448 -54.8994 -196.99 6.45898v0z" />
</svg>
