<?xml version="1.0" encoding="UTF-8"?>
<svg width="834px" height="1025px" viewBox="0 0 834 1025" version="1.1" xmlns="http://www.w3.org/2000/svg" xmlns:xlink="http://www.w3.org/1999/xlink">
  <g id="Gnome" transform="translate(0.1515, 0.8284)" fill="currentColor" fill-rule="nonzero">
    <path d="M744.896084,0 C531.759084,0 493.006084,303.559 612.494084,303.559 C731.980084,303.559 958.035084,0 744.896084,0 Z M392.896084,264.807 C457.482984,268.03649 525.299084,22.606 405.813084,35.523 C286.328084,51.6705 328.309184,261.579 392.896084,264.807 Z M99.0250839,419.816 C144.236984,400.44 105.484064,203.45 27.9791839,258.348 C-49.5247161,310.0179 53.8141839,439.192 99.0250839,419.816 Z M228.199084,316.477 C279.868984,306.7895 283.097484,83.964 186.216684,122.716 C92.5652839,164.6984 173.299684,326.165 228.199084,316.477 L228.199084,316.477 Z M509.153084,813.797 C518.840584,888.0724 454.253684,923.595 392.895084,875.1554 C195.905084,723.3754 719.060084,649.0994 683.538084,445.6504 C657.703084,274.4954 134.548084,326.1654 73.1890839,594.2014 C34.4370839,775.0454 237.886084,1023.7054 454.253084,1023.7054 C560.822084,1023.7054 683.537084,926.8245 706.143084,807.3384 C722.290584,713.687 502.695084,752.439 509.153084,813.79738 L509.153084,813.79738 L509.153084,813.797 Z"></path>
  </g>
</svg>