<?xml version="1.0" encoding="UTF-8"?>
<svg width="24px" height="24px" viewBox="0 0 24 24" version="1.1" xmlns="http://www.w3.org/2000/svg" xmlns:xlink="http://www.w3.org/1999/xlink">
    <title>Goatlings</title>
    <g id="Goatlings" stroke="none" stroke-width="1" fill="none" fill-rule="evenodd">
        <path d="M13,21 L13,22 L11,22 L11,21 L13,21 Z M11,20 L11,21 L10,21 L10,20 L11,20 Z M14,20 L14,21 L13,21 L13,20 L14,20 Z M10,19 L10,20 L8,20 L8,19 L10,19 Z M16,19 L16,20 L14,20 L14,19 L16,19 Z M17,17 L17,19 L16,19 L16,17 L17,17 Z M8,17 L8,19 L7,19 L7,17 L8,17 Z M16,16 L16,17 L15,17 L15,16 L16,16 Z M9,16 L9,17 L8,17 L8,16 L9,16 Z M14,14 L14,13 L15,13 L15,12 L16,12 L16,13 L18,13 L18,14 L17,14 L17,16 L16,16 L16,14 L14,14 Z M8,14 L8,16 L7,16 L7,14 L8,14 Z M10,13 L10,14 L8,14 L8,13 L10,13 Z M8,12 L8,13 L6,13 L6,12 L8,12 Z M19,12 L19,13 L18,13 L18,12 L19,12 Z M11,12 L11,11 L12,11 L12,10 L11,10 L11,11 L9,11 L9,10 L11,10 L11,8 L12,8 L12,9 L13,9 L13,11 L15,11 L15,12 L14,12 L14,13 L13,13 L13,12 L11,12 Z M11,12 L11,13 L10,13 L10,12 L11,12 Z M21,11 L21,12 L19,12 L19,11 L21,11 Z M9,11 L9,12 L8,12 L8,11 L9,11 Z M6,11 L6,12 L5,12 L5,11 L6,11 Z M22,9 L22,11 L21,11 L21,9 L22,9 Z M5,10 L5,11 L3,11 L3,10 L5,10 Z M3,8 L3,10 L2,10 L2,8 L3,8 Z M21,8 L21,9 L20,9 L20,8 L21,8 Z M14,8 L14,9 L13,9 L13,8 L14,8 Z M22,6 L22,8 L21,8 L21,6 L22,6 Z M11,8 L10,8 L10,7 L11,7 L11,5 L12,5 L12,6 L13,6 L13,8 L12,8 L12,7 L11,7 L11,8 Z M4,7 L4,8 L3,8 L3,7 L4,7 Z M3,5 L3,7 L2,7 L2,5 L3,5 Z M15,5 L15,6 L13,6 L13,5 L15,5 Z M21,5 L21,6 L19,6 L19,5 L21,5 Z M5,4 L5,5 L3,5 L3,4 L5,4 Z M16,4 L16,5 L15,5 L15,4 L16,4 Z M19,4 L19,5 L18,5 L18,4 L19,4 Z M11,4 L11,5 L9,5 L9,4 L11,4 Z M6,3 L6,4 L5,4 L5,3 L6,3 Z M9,3 L9,4 L8,4 L8,3 L9,3 Z M18,3 L18,4 L16,4 L16,3 L18,3 Z M8,2 L8,3 L6,3 L6,2 L8,2 Z" id="Shape" fill="#000000"></path>
    </g>
</svg>