<?xml version="1.0" encoding="UTF-8"?>
<svg width="33px" height="33px" viewBox="0 0 33 33" version="1.1" xmlns="http://www.w3.org/2000/svg" xmlns:xlink="http://www.w3.org/1999/xlink">
    <title>GoFundMe</title>
    <g id="GoFundMe" stroke="none" stroke-width="1" fill="none" fill-rule="evenodd">
        <path d="M16.3022,19.3805 C20.4537,19.3805 24.0755,21.6371 26.0153,24.989 L6.5895,24.989 C8.5292,21.6371 12.151,19.3805 16.3022,19.3805 Z M30.0753,14.00219 C30.795,14.72144 30.795,15.8986 30.0753,16.61823 L27.2872,19.4064 C26.5679,20.1256 25.3908,20.1256 24.6711,19.4064 L24.6077,19.3397 C23.9526,18.61585 23.9737,17.48781 24.6711,16.79036 L27.4593,14.00219 C28.1789,13.28257 29.3561,13.28257 30.0753,14.00219 Z M5.1555,14.00219 L7.944,16.79036 C8.6633,17.50961 8.6633,18.68677 7.944,19.4064 C7.2244,20.1256 6.0472,20.1256 5.328,19.4064 L2.5394,16.61823 C1.8202,15.8986 1.8202,14.72144 2.5394,14.00219 L2.6061,13.93875 C3.33,13.28323 4.458,13.30437 5.1555,14.00219 Z M16.2789,9 L16.3588,9.00171783 C17.3397,9.0439453 18.1287,9.859306 18.1287,10.85014 L18.1287,14.79289 C18.1287,15.8105 17.2965,16.64303 16.2789,16.64303 C15.2616,16.64303 14.4291,15.8105 14.4291,14.79289 L14.4291,10.85014 C14.4291,9.832526 15.2616,9 16.2789,9 Z" id="Shape" fill="currentColor"></path>
    </g>
</svg>