<svg viewBox="0 0 1024 1024" fill="currentColor" xmlns="http://www.w3.org/2000/svg"><path d="M505.862 601.383c128.822 0 241.208 70.023 301.4 174.033h-602.788c60.189-104.010 172.575-174.033 301.388-174.033zM933.246 434.492c22.333 22.319 22.333 58.846 0 81.177l-86.516 86.518c-22.32 22.317-58.846 22.317-81.178 0l-1.967-2.070c-20.328-22.461-19.673-57.465 1.967-79.107l86.519-86.518c22.329-22.33 58.858-22.33 81.175 0zM159.977 434.492l86.528 86.518c22.32 22.319 22.32 58.846 0 81.177-22.329 22.317-58.858 22.317-81.175 0l-86.531-86.518c-22.317-22.33-22.317-58.858 0-81.177l2.070-1.969c22.463-20.341 57.465-19.685 79.109 1.969zM505.139 279.273l2.479 0.053c30.438 1.31 54.921 26.611 54.921 57.357v122.345c0 31.577-25.823 57.41-57.4 57.41-31.567 0-57.4-25.834-57.4-57.41v-122.345c0-31.577 25.833-57.41 57.4-57.41z" /></svg>
