<?xml version="1.0" standalone="no"?>
<!DOCTYPE svg PUBLIC "-//W3C//DTD SVG 1.1//EN" "http://www.w3.org/Graphics/SVG/1.1/DTD/svg11.dtd" >
<svg xmlns="http://www.w3.org/2000/svg" xmlns:xlink="http://www.w3.org/1999/xlink" version="1.1" viewBox="-10 0 1034 1024">
   <path fill="currentColor"
d="M934.912 -103.112c40.7188 0 73.7275 33.0098 73.7275 73.7285v800.768c0 40.7188 -33.0088 73.7285 -73.7275 73.7285h-847.872c-40.7188 0 -73.7285 -33.0098 -73.7285 -73.7285v-800.768c0 -40.7188 33.0098 -73.7285 73.7285 -73.7285h847.872zM933.888 -81.6084
h-845.823c-29.4082 0 -53.248 23.8408 -53.248 53.248v798.721c0 29.4072 23.8398 53.248 53.248 53.248h845.823c29.4082 0 53.248 -23.8408 53.248 -53.248v-798.721c0 -29.4072 -23.8398 -53.248 -53.248 -53.248zM314.368 448.824h-141.312
c-23.1865 0 -41.9834 18.7969 -41.9834 41.9834v137.217c0 23.1865 18.7969 41.9834 41.9834 41.9834h141.312v-54.2715h-113.664c-8.4834 0 -15.3604 -6.87695 -15.3604 -15.3604v-82.9443l0.00292969 -0.320312c0.170898 -8.33496 6.98145 -15.0391 15.3574 -15.0391
h113.664v-53.248zM536.576 448.824c23.1865 0 41.9834 18.7969 41.9834 41.9834v137.217c0 23.1865 -18.7969 41.9834 -41.9834 41.9834h-137.216c-23.1875 0 -41.9844 -18.7969 -41.9844 -41.9834v-137.217c0 -23.1865 18.7969 -41.9834 41.9844 -41.9834h137.216z
M890.88 448.824h-227.328c-23.1865 0 -41.9834 18.7969 -41.9834 41.9834v179.2h53.248v-150.527c0 -9.61426 7.79395 -17.4082 17.4072 -17.4082h36.8643v167.936h53.248v-150.527c0 -9.61426 7.79395 -17.4082 17.4082 -17.4082h36.8643v167.936h54.2715v-221.184z
M508.928 502.072h-81.9199c-8.48242 0 -15.3594 6.87695 -15.3594 15.3594v82.9443c0 8.4834 6.87695 15.3604 15.3594 15.3604h81.9199c8.4834 0 15.3604 -6.87695 15.3604 -15.3604v-82.9443c0 -8.48242 -6.87695 -15.3594 -15.3604 -15.3594zM313.344 71.9922h-140.288
c-23.1865 0 -41.9834 18.7969 -41.9834 41.9834v140.287c0 23.1875 18.7969 41.9844 41.9834 41.9844h95.2324v-54.2715h-66.5605c-8.48242 0 -15.3594 -6.87695 -15.3594 -15.3594v-83.9678c0 -8.4834 6.87695 -15.3604 15.3594 -15.3604h83.9688
c8.48242 0 15.3594 6.87695 15.3594 15.3604v181.248c0 9.04883 -7.33496 16.3838 -16.3838 16.3838l-153.6 -0.000976562v54.2725h182.271c23.1875 0 41.9844 -18.7969 41.9844 -41.9834v-238.593c0 -23.1865 -18.7969 -41.9834 -41.9844 -41.9834zM848.896 71.9922
h-140.288c-23.1875 0 -41.9844 18.7969 -41.9844 41.9834v140.287c0 23.1875 18.7969 41.9844 41.9844 41.9844h94.208v-54.2715h-66.5605c-8.48242 0 -15.3594 -6.87695 -15.3594 -15.3594v-83.9678c0 -8.4834 6.87695 -15.3604 15.3594 -15.3604h83.9678
c8.4834 0 15.3604 6.87695 15.3604 15.3604v181.248c0 9.04883 -7.33496 16.3838 -16.3838 16.3838l-152.576 -0.000976562v54.2725h182.272c23.1865 0 41.9834 -18.7969 41.9834 -41.9834v-238.593c0 -23.1865 -18.7969 -41.9834 -41.9834 -41.9834zM581.632 71.9922
c23.1875 0 41.9844 18.7969 41.9844 41.9834v141.312c0 23.1865 -18.7969 41.9844 -41.9844 41.9844h-140.288c-23.1865 0 -41.9834 -18.7979 -41.9834 -41.9844v-141.312c0 -23.1865 18.7969 -41.9834 41.9834 -41.9834h140.288zM552.96 127.288h-83.9678
c-8.4834 0 -15.3604 6.87695 -15.3604 15.3604v83.9678c0 8.48242 6.87695 15.3594 15.3604 15.3594h83.9678c8.4834 0 15.3604 -6.87695 15.3604 -15.3594v-83.9678c0 -8.4834 -6.87695 -15.3604 -15.3604 -15.3604z" />
</svg>
