<?xml version="1.0" encoding="UTF-8"?>
<svg width="997px" height="949px" viewBox="0 0 997 949" version="1.1" xmlns="http://www.w3.org/2000/svg" xmlns:xlink="http://www.w3.org/1999/xlink">
  <g id="GOG" transform="translate(0.9192, 0.6137)" fill="currentColor" fill-rule="nonzero">
    <path d="M921.6005,-2.84217094e-14 C962.3193,-2.84217094e-14 995.328,33.0098 995.328,73.7285 L995.328,874.4965 C995.328,915.2153 962.3192,948.225 921.6005,948.225 L73.7285,948.225 C33.0097,948.225 0,915.2152 0,874.4965 L0,73.7285 C0,33.0097 33.0098,-2.84217094e-14 73.7285,-2.84217094e-14 L921.6005,-2.84217094e-14 L921.6005,-2.84217094e-14 Z M920.5765,21.5036 L74.7535,21.5036 C45.3453,21.5036 21.5055,45.3444 21.5055,74.7516 L21.5055,873.4726 C21.5055,902.8798 45.3453,926.7206 74.7535,926.7206 L920.5765,926.7206 C949.9847,926.7206 973.8245,902.8798 973.8245,873.4726 L973.8245,74.7516 C973.8245,45.3444 949.9847,21.5036 920.5765,21.5036 Z M301.0565,551.936 L159.7445,551.936 C136.558,551.936 117.7611,570.7329 117.7611,593.9194 L117.7611,731.1364 C117.7611,754.3229 136.558,773.1198 159.7445,773.1198 L301.0565,773.1198 L301.0565,718.8483 L187.3925,718.8483 C178.9091,718.8483 172.0321,711.97135 172.0321,703.4879 L172.0321,620.5436 L172.03503,620.223288 C172.205928,611.888328 179.01648,605.184188 187.39243,605.184188 L301.0565,605.184188 L301.0565,551.936 L301.0565,551.936 Z M523.2645,551.936 C546.451,551.936 565.2479,570.7329 565.2479,593.9194 L565.2479,731.1364 C565.2479,754.3229 546.451,773.1198 523.2645,773.1198 L386.0485,773.1198 C362.861,773.1198 344.0641,754.3229 344.0641,731.1364 L344.0641,593.9194 C344.0641,570.7329 362.861,551.936 386.0485,551.936 L523.2645,551.936 Z M877.5686,551.936 L650.2405,551.936 C627.054,551.936 608.2571,570.7329 608.2571,593.9194 L608.2571,773.121 L661.5051,773.121 L661.5051,622.5924 C661.5051,612.97814 669.29905,605.1842 678.9123,605.1842 L715.7766,605.1842 L715.7766,773.121 L769.0246,773.121 L769.0246,622.5932 C769.0246,612.97894 776.81855,605.185 786.4328,605.185 L823.2971,605.185 L823.2971,773.121 L877.5686,773.121 L877.5686,551.936 L877.5686,551.936 Z M495.6165,605.184 L413.6966,605.184 C405.21418,605.184 398.3372,612.06095 398.3372,620.5434 L398.3372,703.4877 C398.3372,711.9711 405.21415,718.8481 413.6966,718.8481 L495.6165,718.8481 C504.0999,718.8481 510.9769,711.97115 510.9769,703.4877 L510.9769,620.5434 C510.9769,612.06098 504.09995,605.184 495.6165,605.184 L495.6165,605.184 Z M300.0325,175.103823 L159.7445,175.103823 C136.558,175.103823 117.7608,193.9011 117.7608,217.0876 L117.7608,357.3746 C117.7608,380.5621 136.558,399.359 159.7445,399.359 L254.9769,399.359 L254.9769,345.0875 L188.4164,345.0875 C179.93398,345.0875 173.057,338.21055 173.057,329.7281 L173.057,245.7603 C173.057,237.2769 179.93395,230.3999 188.4164,230.3999 L272.3852,230.3999 C280.86762,230.3999 287.7446,237.27685 287.7446,245.7603 L287.7446,427.0083 C287.7446,436.05713 280.40964,443.3921 271.3608,443.3921 L117.7608,443.391123 L117.7608,497.663623 L300.0318,497.663623 C323.2193,497.663623 342.0162,478.866723 342.0162,455.680223 L342.0162,217.087223 C342.0162,193.900723 323.2193,175.103823 300.0318,175.103823 L300.0325,175.103823 Z M835.5845,175.103823 L695.2965,175.103823 C672.109,175.103823 653.3121,193.9011 653.3121,217.0876 L653.3121,357.3746 C653.3121,380.5621 672.109,399.359 695.2965,399.359 L789.5045,399.359 L789.5045,345.0875 L722.944,345.0875 C714.46158,345.0875 707.5846,338.21055 707.5846,329.7281 L707.5846,245.7603 C707.5846,237.2769 714.46155,230.3999 722.944,230.3999 L806.9118,230.3999 C815.3952,230.3999 822.2722,237.27685 822.2722,245.7603 L822.2722,427.0083 C822.2722,436.05713 814.93724,443.3921 805.8884,443.3921 L653.3121,443.391123 L653.3121,497.663623 L835.5844,497.663623 C858.7709,497.663623 877.5678,478.866723 877.5678,455.680223 L877.5678,217.087223 C877.5678,193.900723 858.7709,175.103823 835.5844,175.103823 L835.5845,175.103823 Z M568.3205,175.1042 C591.508,175.1042 610.3049,193.9011 610.3049,217.0876 L610.3049,358.3996 C610.3049,381.5861 591.508,400.384 568.3205,400.384 L428.0325,400.384 C404.846,400.384 386.0491,381.5861 386.0491,358.3996 L386.0491,217.0876 C386.0491,193.9011 404.846,175.1042 428.0325,175.1042 L568.3205,175.1042 Z M539.6485,230.4 L455.6807,230.4 C447.1973,230.4 440.3203,237.27695 440.3203,245.7604 L440.3203,329.7282 C440.3203,338.21062 447.19725,345.0876 455.6807,345.0876 L539.6485,345.0876 C548.1319,345.0876 555.0089,338.21065 555.0089,329.7282 L555.0089,245.7604 C555.0089,237.277 548.13195,230.4 539.6485,230.4 Z"></path>
  </g>
</svg>