<?xml version="1.0" encoding="UTF-8"?>
<svg width="300px" height="300px" viewBox="0 0 300 300" version="1.1" xmlns="http://www.w3.org/2000/svg" xmlns:xlink="http://www.w3.org/1999/xlink">
    <g id="Gogs" stroke="none" stroke-width="1" fill="none" fill-rule="evenodd">
        <path d="M174.435075,23 C175.705273,23 176.837804,23.799933 177.262455,24.9970441 L184.550493,45.5400225 C198.846236,50.2677018 211.843323,57.8480528 222.867507,67.6068298 L244.229223,63.6603254 C245.478277,63.4295283 246.737305,64.0103626 247.372404,65.1103866 L272.071002,107.889613 C272.706101,108.989637 272.579605,110.370405 271.755201,111.336719 L257.738754,127.768149 C259.212445,134.948399 259.986477,142.383807 259.986477,150 C259.986477,157.616193 259.212445,165.051601 257.738754,172.231851 L271.755201,188.663281 C272.579605,189.629595 272.706101,191.010363 272.071002,192.110387 L247.372404,234.889613 C246.737305,235.989637 245.478277,236.570472 244.229223,236.339675 L222.867507,232.39317 C211.843323,242.151947 198.846236,249.732298 184.550493,254.459978 L177.262455,275.002956 C176.837804,276.200067 175.705273,277 174.435075,277 L125.037879,277 C123.76768,277 122.635149,276.200067 122.210498,275.002956 L114.854873,254.270545 C100.745739,249.518605 87.9164573,241.983253 77.0199328,232.317394 L55.2437307,236.339675 C53.9946765,236.570472 52.7356487,235.989637 52.1005495,234.889613 L27.4019514,192.110387 C26.7668523,191.010363 26.8933489,189.629595 27.7177522,188.663281 L42.1381208,171.758423 C40.7268849,164.724933 39.9864767,157.448933 39.9864767,150 C39.9864767,142.551067 40.7268849,135.275067 42.1381208,128.241577 L27.7177522,111.336719 C26.8933489,110.370405 26.7668523,108.989637 27.4019514,107.889613 L52.1005495,65.1103866 C52.7356487,64.0103626 53.9946765,63.4295283 55.2437307,63.6603254 L77.0199328,67.6826064 C87.9164573,58.0167472 100.745739,50.4813947 114.854873,45.7294545 L122.210498,24.9970441 C122.635149,23.799933 123.76768,23 125.037879,23 L174.435075,23 Z M192.486477,82.4500185 C155.179652,60.9109133 107.4756,73.6931754 85.9364952,111 C64.39739,148.306825 77.1796521,196.010876 114.486477,217.549981 C151.793301,239.089087 199.497353,226.306825 221.036458,189 C223.522923,184.693317 222.045337,179.186308 217.736982,176.702741 L177.252292,153.366022 C177.406658,152.266172 177.486477,151.142407 177.486477,150 C177.486477,136.745166 166.741311,126 153.486477,126 C140.231643,126 129.486477,136.745166 129.486477,150 C129.486477,163.254834 140.231643,174 153.486477,174 C159.044007,174 164.160341,172.111016 168.228447,168.940082 L200.362532,187.464291 L199.901757,188.03578 C181.620352,210.400049 149.314278,216.873212 123.486477,201.961524 C94.7889193,185.392982 84.95641,148.697557 101.524953,120 C118.093495,91.3024426 154.788919,81.4699333 183.486477,98.0384758 C187.79111,100.523757 193.295424,99.0488808 195.780705,94.7442471 C198.265987,90.4396135 196.79111,84.9352999 192.486477,82.4500185 Z" id="Shape" fill="currentColor"></path>
    </g>
</svg>