<?xml version="1.0" standalone="no"?>
<!DOCTYPE svg PUBLIC "-//W3C//DTD SVG 1.1//EN" "http://www.w3.org/Graphics/SVG/1.1/DTD/svg11.dtd" >
<svg xmlns="http://www.w3.org/2000/svg" xmlns:xlink="http://www.w3.org/1999/xlink" version="1.1" viewBox="-10 0 1044 1024">
   <path fill="currentColor"
d="M768 371v-256v2c-82 -84 -166 -168 -248 -250c-2 -2 -4 -6 -8 -6v254v110c14 34 28 70 42 104c34 14 70 28 104 42c-30 12 -58 24 -86 34c-6 4 -12 4 -20 10c-12 34 -26 68 -40 102c-14 -34 -28 -70 -42 -104c-34 -14 -70 -28 -104 -42c30 -14 60 -24 90 -36
c4 -2 10 -4 16 -8c12 -34 26 -68 42 -102v-110h-256v2c-14 12 -28 28 -42 42c-74 70 -146 140 -216 212c84 2 172 0 256 0v254c82 84 164 166 246 248c2 2 6 6 10 8c2 -24 0 -52 0 -78v-176h256l92 -92c54 -54 110 -108 164 -164h-256z" />
</svg>
