<?xml version="1.0" encoding="UTF-8"?>
<svg width="1004px" height="1026px" viewBox="0 0 1004 1026" version="1.1" xmlns="http://www.w3.org/2000/svg" xmlns:xlink="http://www.w3.org/1999/xlink">
  <g id="Google" transform="translate(0.2643, 0.6137)" fill="currentColor" fill-rule="nonzero">
    <path d="M1001.65194,478.018758 C999.651945,458.018758 997.651945,436.018758 993.651945,416.018758 L511.651945,416.018758 L511.651945,616.018758 L511.651945,616.018758 L511.651945,616.018758 L791.651945,616.018758 C779.651945,680.018758 741.651945,738.018758 687.651945,774.018758 L687.651945,774.018758 C653.651945,796.018758 615.651945,812.018758 575.651945,818.018758 C535.651945,826.018758 493.651945,826.018758 453.651945,818.018758 C411.651945,810.018758 373.651945,792.018758 339.651945,768.018758 C289.651945,734.018758 249.651945,682.018758 227.651945,626.018758 C225.651945,622.018758 223.651945,616.018758 221.651945,612.018758 L221.651945,612.018758 L223.651945,612.018758 C201.651945,548.018758 201.651945,476.018758 221.651945,412.018758 C237.651945,368.018758 263.651945,326.018758 297.651945,292.018758 C337.651945,250.018758 391.651945,220.018758 449.651945,206.018758 C499.651945,196.018758 551.651945,198.018758 599.651945,212.018758 C641.651945,226.018758 679.651945,248.018758 709.651945,278.018758 C741.651945,246.018758 773.651945,216.018758 803.651945,184.018758 C821.651945,168.018758 837.651945,150.018758 853.651945,134.018758 L853.651945,134.018758 L853.651945,134.018758 C805.651945,88.0187578 749.651945,54.0187578 689.651945,32.0187578 C579.651945,-9.98124218 455.651945,-9.98124218 345.651945,28.0187578 C219.651945,70.0187578 113.651945,164.018758 53.6519448,282.018758 C33.6519448,322.018758 19.6519448,366.018758 9.6519448,410.018758 C-12.3480552,522.018758 3.6519448,640.018758 53.6519448,742.018758 C87.6519448,808.018758 135.651945,866.018758 193.651945,912.018758 C247.651945,956.018758 311.651945,988.018758 379.651945,1006.01876 C465.651945,1030.01876 555.651945,1030.01876 641.651945,1010.01876 C719.651945,992.018758 791.651945,954.018758 851.651945,900.018758 C913.651945,844.018758 957.651945,768.018758 981.651945,688.018758 C999.651945,620.018758 1007.65194,550.018758 1001.65194,478.018758 Z"></path>
  </g>
</svg>