<?xml version="1.0" encoding="UTF-8"?>
<svg width="1025px" height="657px" viewBox="0 0 1025 657" version="1.1" xmlns="http://www.w3.org/2000/svg" xmlns:xlink="http://www.w3.org/1999/xlink">
  <g id="GooglePlus" transform="translate(0.2171, 0.0684)" fill="currentColor" fill-rule="nonzero">
    <path d="M328.175551,265.757502 L328.175551,393.757502 L508.175551,393.757502 C500.175551,435.757502 476.175551,471.757502 442.175551,495.757502 C420.175551,509.757502 394.175551,519.757502 370.175551,523.757502 C344.175551,527.757502 316.175551,529.757502 290.175551,523.757502 C264.175551,519.757502 240.175551,507.757502 218.175551,491.757502 C182.175551,467.757502 156.175551,431.757502 142.175551,391.757502 C128.175551,349.757502 128.175551,305.757502 142.175551,263.757502 C152.175551,235.757502 168.175551,207.757502 190.175551,185.757502 C216.175551,159.757502 252.175551,139.757502 288.175551,131.757502 C320.175551,125.757502 354.175551,125.757502 384.175551,135.757502 C412.175551,143.757502 436.175551,157.757502 456.175551,177.757502 L516.175551,117.757502 C526.175551,105.757502 538.175551,95.757502 548.175551,85.757502 C518.175551,55.757502 482.175551,33.757502 442.175551,19.757502 C372.175551,-6.242498 292.175551,-6.242498 220.175551,17.757502 C140.175551,45.757502 72.1755511,105.757502 34.1755511,179.757502 C22.1755511,205.757502 12.1755511,233.757502 6.17555107,263.757502 C-7.82444893,333.757502 2.17555107,409.757502 34.1755511,475.757502 C56.1755511,517.757502 86.1755511,555.757502 124.175551,583.757502 C160.175551,611.757502 200.175551,633.757502 244.175551,645.757502 C298.175551,659.757502 356.175551,659.757502 412.175551,645.757502 C462.175551,635.757502 508.175551,611.757502 546.175551,577.757502 C586.175551,539.757502 614.175551,491.757502 628.175551,439.757502 C646.175551,383.757502 648.175551,323.757502 638.175551,265.757502 L328.175551,265.757502 Z M1024.17555,273.757502 L912.175551,273.757502 L912.175551,161.757502 L830.175551,161.757502 L830.175551,273.757502 L718.175551,273.757502 L718.175551,355.757502 L830.175551,355.757502 L830.175551,467.757502 L912.175551,467.757502 L912.175551,355.757502 L1024.17555,355.757502 L1024.17555,273.757502 Z"></path>
  </g>
</svg>