<?xml version="1.0" standalone="no"?>
<!DOCTYPE svg PUBLIC "-//W3C//DTD SVG 1.1//EN" "http://www.w3.org/Graphics/SVG/1.1/DTD/svg11.dtd" >
<svg xmlns="http://www.w3.org/2000/svg" xmlns:xlink="http://www.w3.org/1999/xlink" version="1.1" viewBox="-10 0 1034 1024">
   <path fill="currentColor"
d="M757.76 590.136l-66.5596 -66.5596c-57.3438 -57.3438 -244.736 -258.048 -244.736 -446.464c0 -29.6963 4.0957 -58.3682 12.2881 -86.0166h-301.056c-60.416 0 -108.544 48.1279 -108.544 108.544v675.841c0 60.416 48.1279 108.544 108.544 108.544h675.84
c60.416 0 108.544 -48.1279 108.544 -108.544v-388.097c-32.7686 43.0078 -71.6797 88.0645 -117.76 135.168zM335.872 788.792c-106.496 0 -192.512 -84.9922 -192.512 -191.488s86.0156 -192.512 192.512 -192.512c50.1758 0 94.208 19.4561 128 50.1758l-54.2725 54.2725
c-20.4795 -17.4082 -46.0801 -27.6484 -74.752 -27.6484c-63.4873 0 -115.712 52.2246 -115.712 115.712c0 63.4883 52.2246 115.712 115.712 115.712c53.248 0 90.1123 -31.7432 103.425 -76.7998h-102.4v-73.7275h180.224
c15.3604 75.7754 -12.2881 226.304 -180.224 226.304zM974.848 76.0879c0 -119.808 -97.2793 -217.088 -218.111 -217.088s-217.088 97.2803 -217.088 217.088c0 119.809 113.663 277.504 217.088 379.904c123.903 -124.928 218.111 -259.072 218.111 -379.904z
M665.6 65.8477c0 -50.1758 40.96 -91.1357 91.1367 -91.1357c50.1758 0 91.1357 40.96 91.1357 91.1357c0 50.1768 -40.96 91.1367 -91.1357 91.1367c-50.1768 0 -91.1367 -40.96 -91.1367 -91.1367z" />
</svg>
