<?xml version="1.0" standalone="no"?>
<!DOCTYPE svg PUBLIC "-//W3C//DTD SVG 1.1//EN" "http://www.w3.org/Graphics/SVG/1.1/DTD/svg11.dtd" >
<svg xmlns="http://www.w3.org/2000/svg" xmlns:xlink="http://www.w3.org/1999/xlink" version="1.1" viewBox="-10 0 1034 1024">
   <path fill="currentColor"
d="M916 -27c10 0 16 4 16 8c2 6 2 12 2 20v344c0 8 -4 14 -8 20c-6 6 -12 8 -20 8h-12c-8 0 -14 -4 -20 -8c-6 -6 -8 -12 -8 -20v-344v-20c2 -4 6 -8 16 -8v-46l-150 124c2 2 2 4 4 4c0 2 2 2 2 4c6 12 12 26 16 40c2 14 4 32 4 50c0 14 0 26 -2 38s-6 26 -10 36
c-6 10 -10 20 -16 30c-6 8 -12 16 -18 22c-6 8 -14 14 -20 20s-14 12 -20 18l-18 18s-10 12 -16 18c-4 6 -8 12 -10 18c-2 8 -2 14 -2 20c0 8 0 14 4 20c2 6 6 14 14 20c6 6 12 14 20 20c6 6 14 14 24 20c8 6 18 12 26 20c8 6 18 14 26 22s16 16 24 26c8 12 14 22 20 34
s10 26 12 38c4 14 6 28 6 42c0 20 -2 38 -8 56c-4 18 -12 34 -22 48c-10 16 -22 30 -34 42c-14 14 -28 24 -42 34c-18 8 -34 18 -50 24c-18 6 -34 12 -54 16c-16 4 -34 8 -54 10c-18 2 -36 4 -54 4c-10 0 -22 0 -34 -2c-10 0 -22 -2 -34 -4c-10 -2 -22 -4 -34 -6
c-12 -4 -24 -8 -34 -12c-12 -4 -24 -8 -34 -14s-20 -12 -28 -20c-10 -6 -18 -14 -24 -22c-8 -8 -14 -18 -20 -28s-10 -22 -14 -34c-2 -10 -4 -22 -4 -36c0 -16 2 -30 6 -44s10 -28 20 -42c8 -12 18 -24 30 -36c10 -10 24 -20 38 -28c12 -8 26 -14 42 -22
c14 -6 32 -10 52 -16c20 -4 40 -8 62 -10c22 -4 48 -6 74 -8c-12 -16 -20 -30 -26 -44s-10 -28 -10 -40c0 -8 2 -16 4 -24s4 -16 8 -26c-6 0 -12 2 -20 2h-18c-30 0 -54 -4 -78 -12c-24 -10 -46 -22 -64 -42c-20 -18 -34 -40 -44 -62s-14 -48 -14 -76v-8v-8h-232l346 -300
h570l-52 40v74h-2zM630 567c0 -2 -4 -4 -8 -6c-4 -4 -8 -6 -14 -12c-6 -4 -12 -8 -16 -12c-2 -2 -4 -4 -6 -4h-10s-10 -2 -16 -2c-14 0 -26 2 -38 2c-14 2 -26 4 -38 6s-26 6 -38 10l-36 12c-12 6 -22 12 -34 20c-8 8 -18 16 -24 26c-8 10 -14 22 -18 34s-6 24 -6 38
s2 26 6 38c2 10 8 22 16 32c6 10 14 20 22 26c10 8 20 16 30 20c10 6 20 12 32 16s22 8 34 10c14 4 26 6 36 6c14 2 26 2 36 2c26 0 48 -2 68 -8c22 -4 40 -12 58 -24s30 -24 38 -42c10 -18 14 -36 14 -60c0 -4 0 -8 -2 -14c0 -4 0 -8 -2 -14s-4 -10 -4 -14
c-2 -4 -4 -8 -4 -10l-6 -12s-6 -8 -10 -12c-4 -6 -6 -8 -10 -12l-8 -8l-8 -8c-2 -4 -8 -8 -12 -12c-6 -6 -10 -8 -14 -12c-4 2 -6 0 -8 0zM622 297c8 -10 16 -24 22 -40s8 -32 8 -48s-2 -32 -4 -48c-4 -16 -6 -32 -12 -50c-6 -16 -12 -32 -22 -48c-8 -14 -18 -28 -30 -42
s-26 -24 -40 -30c-12 -8 -28 -10 -44 -10c-18 0 -34 2 -48 10c-12 6 -24 16 -34 28c-10 14 -16 26 -22 42c-4 16 -6 34 -6 52c0 16 0 32 4 48c2 14 6 30 10 48c6 16 12 30 22 46c8 14 18 26 30 40c12 12 26 22 40 28s28 10 44 10c18 0 34 -4 48 -10c12 -4 24 -14 34 -26z
" />
</svg>
