<?xml version="1.0" encoding="UTF-8"?>
<svg width="927px" height="1026px" viewBox="0 0 927 1026" version="1.1" xmlns="http://www.w3.org/2000/svg" xmlns:xlink="http://www.w3.org/1999/xlink">
  <g id="GoogleMaps" transform="translate(0.5167, 0.6614)" fill="currentColor" fill-rule="nonzero">
    <path d="M708.6075,731.1361 L642.0479,664.5765 C584.7041,607.2327 397.3119,406.5285 397.3119,218.1125 C397.3119,188.4162 401.4076,159.7443 409.6,132.0959 L108.544,132.0959 C48.128,132.0959 -7.10542736e-14,180.2238 -7.10542736e-14,240.6399 L-7.10542736e-14,916.4809 C-7.10542736e-14,976.8969 48.1279,1025.0249 108.544,1025.0249 L784.384,1025.0249 C844.8,1025.0249 892.928,976.897 892.928,916.4809 L892.928,528.3839 C860.1594,571.3917 821.2483,616.4484 775.168,663.5519 L708.6075,731.1361 Z M286.7195,929.7927 C180.2235,929.7927 94.2075,844.7999 94.2075,738.3041 C94.2075,631.8083 180.2231,545.7921 286.7195,545.7921 C336.8953,545.7921 380.9275,565.2482 414.7195,595.9679 L360.447,650.2404 C339.9675,632.8322 314.3669,622.592 285.695,622.592 C222.2077,622.592 169.983,674.8166 169.983,738.304 C169.983,801.7923 222.2076,854.016 285.695,854.016 C338.943,854.016 375.8073,822.2728 389.12,777.2162 L286.72,777.2162 L286.72,703.4887 L466.944,703.4887 C482.3044,779.2641 454.6559,929.7927 286.72,929.7927 L286.7195,929.7927 Z M925.6955,217.088 C925.6955,97.28 828.4162,0 707.5845,0 C586.7528,0 490.4965,97.2803 490.4965,217.088 C490.4965,336.897 604.1595,494.592 707.5845,596.992 C831.4875,472.064 925.6955,337.92 925.6955,217.088 Z M616.4475,206.8478 C616.4475,156.672 657.4075,115.7121 707.5842,115.7121 C757.76,115.7121 798.7199,156.6721 798.7199,206.8478 C798.7199,257.0246 757.7599,297.9845 707.5842,297.9845 C657.4074,297.9845 616.4475,257.0245 616.4475,206.8478 Z"></path>
  </g>
</svg>