<?xml version="1.0" encoding="UTF-8"?>
<svg width="881px" height="1024px" viewBox="0 0 881 1024" version="1.1" xmlns="http://www.w3.org/2000/svg" xmlns:xlink="http://www.w3.org/1999/xlink">
  <g id="GoogleHangouts" transform="translate(0.4259, 0.3376)" fill="currentColor" fill-rule="nonzero">
    <path d="M872.575887,361.47167 C857.215487,276.48047 820.352287,202.75167 760.959887,139.26367 C736.383687,112.63967 708.736287,89.08787 678.016487,69.63187 C621.696187,32.76757 559.232487,10.24027 491.648487,3.07227 C483.456107,2.04786 475.264687,2.04786 467.072287,0 L408.704087,0 C407.680647,1.02441 406.656237,1.02441 405.631817,1.02441 C390.272417,2.04785 375.936517,4.0957 360.576117,7.16796 C253.056117,27.64846 163.968117,80.89646 95.3601167,165.88796 C39.0398167,236.54416 8.32011672,317.44096 1.15211672,406.52896 C-1.92015328,450.56016 1.15211672,493.56896 10.3679367,535.55196 C17.5359067,567.29606 27.7761367,598.01586 42.1120367,627.71216 C43.1364467,629.76001 44.1598867,632.83228 46.2077367,634.88013 C69.7595367,680.96023 99.4557367,721.92013 137.344437,757.76013 C156.799537,776.19273 178.304437,793.59993 201.856137,807.93593 C272.512337,852.99253 349.312137,876.54433 433.280137,877.56873 C438.400257,877.56873 439.423687,878.59217 439.423687,883.71228 L439.423687,1017.85728 L439.423687,1022.97642 C440.448097,1021.95298 441.472517,1021.95298 442.495957,1021.95298 C527.488157,983.04088 605.311957,932.86508 673.919957,870.40098 C687.232457,858.11288 700.543957,844.80038 712.832057,831.48888 C717.952177,825.34435 723.072257,820.22428 729.215857,814.08068 C737.408237,804.86486 744.576257,795.64908 752.768557,785.40878 C761.984377,774.14418 770.175757,762.88048 778.368157,751.61678 C795.776357,726.01618 812.160157,699.39218 825.472657,670.72028 C832.640627,656.38438 838.784157,642.04838 843.904257,627.71248 C843.904257,627.71248 843.904257,626.68904 844.928667,626.68904 C860.288067,586.75254 870.528267,544.76814 875.648367,501.76004 C877.696217,486.40064 878.720637,472.06474 879.744067,456.70434 C880.768477,424.96024 878.720627,393.21604 872.576097,361.47194 L872.575887,361.47167 Z M307.327887,630.78367 C300.159917,632.83152 291.967487,633.85594 284.799587,634.87937 C278.656037,635.90378 274.560287,632.83152 272.512487,626.68796 L272.512487,577.53566 C272.512487,572.41554 270.463657,567.29546 274.560337,563.19976 C276.608187,561.15191 278.656037,560.12749 281.728307,559.10308 C289.919717,557.05523 299.136507,555.00738 307.327907,550.91167 C321.663807,542.71929 330.879707,529.40777 334.976307,513.02397 C335.999747,509.9517 335.999747,507.90385 337.024157,504.83159 L232.576157,504.83159 C229.503887,504.83159 226.432607,504.83159 223.360337,503.80718 C214.144517,501.75933 207.999937,493.56788 207.999937,484.35108 L207.999937,326.65608 C206.976497,318.4637 207.999937,310.27228 215.167907,304.12778 C219.264587,301.05551 223.360287,299.00766 228.480407,299.00766 L382.080407,299.00766 C395.392907,299.00766 406.656607,312.32016 402.560907,325.63166 C403.584347,327.67951 403.584347,330.75178 403.584347,333.82404 L403.584347,505.85604 C403.584347,543.74374 388.224947,576.51134 360.576547,602.11194 C359.552137,603.13538 357.504277,605.18323 356.480847,606.20764 C340.097047,616.44784 324.736747,625.66374 307.328547,630.78384 L307.327887,630.78367 Z M590.975887,626.68767 C589.951477,626.68767 589.951477,626.68767 588.928037,627.71111 C588.928037,627.71111 587.903627,627.71111 587.903627,628.73552 C577.663427,631.80681 568.447527,633.85564 558.207327,634.87907 C550.015917,635.90348 544.895827,631.8068 544.895827,623.61537 L544.895827,607.23157 L544.895827,577.53527 L544.895827,571.39074 C544.895827,564.22277 547.967117,560.12704 557.183927,558.07924 C569.472027,555.00697 580.735727,551.93471 589.951527,542.71884 C601.215227,532.47954 606.335327,519.16704 609.407627,504.83114 L513.151727,504.83114 L502.911527,504.83114 C489.600027,504.83114 480.383227,495.61532 480.383227,482.30284 L480.383227,326.65584 L480.383227,325.63143 C479.359787,315.39123 482.432057,308.22323 490.623427,302.07963 C493.695697,300.03178 497.791397,299.00736 501.888027,299.00736 L654.463027,299.00736 C667.775527,299.00736 679.039227,312.31986 674.943527,325.63136 C675.966967,327.67921 675.966967,330.75148 675.966967,333.82374 L675.966967,505.85574 C675.966967,557.05494 644.223767,605.18284 596.095867,624.63874 C593.023597,625.66315 591.999187,626.68757 590.975747,626.68757 C591.999187,627.71101 593.023597,627.71101 594.047037,627.71101 C591.999187,627.71101 590.975747,627.71101 590.975747,626.68757 L590.975887,626.68767 Z"></path>
  </g>
</svg>