<?xml version="1.0" encoding="UTF-8"?>
<svg width="923px" height="1025px" viewBox="0 0 923 1025" version="1.1" xmlns="http://www.w3.org/2000/svg" xmlns:xlink="http://www.w3.org/1999/xlink">
  <g id="GoogleCalendar" transform="translate(0.3391, 0.6614)" fill="currentColor" fill-rule="nonzero">
    <path d="M815.10368,257.02452 L902.14368,257.02452 C909.31165,204.79992 916.47958,152.57652 922.62318,100.35152 L922.62318,91.1357 C921.59974,78.8476 912.38298,68.6084 901.11928,65.5361 L901.11928,32.7675 C901.11928,27.64836 900.09584,22.5282 898.04701,18.4316 C893.95131,7.1679 881.66321,0 869.37511,0 L531.45511,0 C526.33499,0 520.19141,0 515.07131,2.04785 C503.80761,7.16797 495.61521,18.43165 495.61521,31.74415 L495.61521,65.53615 C485.37501,69.63185 477.18361,77.82425 475.13471,89.08795 C474.11127,94.20807 474.11127,99.32815 475.13471,103.42385 C482.30366,154.62405 489.47161,205.82385 495.61521,255.99985 L616.44721,255.99985 L616.44721,244.73615 L616.44721,244.73615 C628.73531,244.73615 641.02341,245.75959 652.28701,240.63947 C661.50283,236.54377 668.67081,227.32797 669.69521,218.11217 C670.71961,208.89637 669.69521,197.63167 664.57509,190.46377 C660.47939,184.32022 652.28699,180.22357 645.11899,179.20007 C634.87879,178.17566 623.61509,179.20007 615.42269,185.34362 C607.23128,191.48815 602.11119,201.72742 603.13459,211.96762 L579.58279,211.96762 C579.58279,207.87192 579.58279,203.77621 581.63064,199.67952 C584.70291,188.41582 590.84744,179.20002 600.06324,173.05552 C610.30344,165.88755 622.59054,161.79182 634.87864,160.76742 C647.16674,160.76742 660.47924,162.81625 670.71944,168.9598 C678.91085,174.07992 686.07884,182.2723 690.17454,191.4881 C694.27122,200.70392 695.29466,210.9442 694.27122,221.1834 C692.22337,236.5438 679.93532,249.8563 665.59932,255.9998 C667.64717,257.02421 669.69502,257.02421 671.74287,258.04765 C673.79072,259.07206 674.81514,258.04765 676.86299,258.04765 L778.23899,258.04765 L767.99879,258.04765 L683.00659,258.04765 L674.81518,258.04765 C680.95873,261.11992 686.07888,265.21562 690.17458,270.33575 C697.34255,279.55157 700.41478,290.81625 699.39138,302.07985 C698.36697,314.36795 694.27126,325.63165 687.10328,334.84745 C678.9109,345.08765 665.59938,350.20785 653.31128,352.25565 C639.99878,354.3035 626.68728,353.28006 614.39918,348.15995 C604.15898,344.06425 595.96658,337.91975 589.82298,328.70385 C584.70286,320.51147 581.6306,310.27225 581.6306,301.05545 L604.1589,301.05545 C604.1589,305.15213 605.18331,308.22342 606.20675,312.32005 C608.2546,320.51146 615.42257,327.67945 622.59055,330.75165 C632.83075,334.84735 644.09545,335.87177 655.35915,331.77606 C663.55056,329.72723 671.74295,322.55926 674.81525,314.36786 C677.88752,305.15204 678.91095,294.91176 675.83869,285.69596 C672.7674,277.50358 666.62287,270.33556 658.43149,267.26336 C646.14339,262.14324 632.83089,264.19207 620.54279,263.16766 L620.54279,255.99969 L500.73479,255.99969 C497.66252,304.12759 494.59026,353.27999 490.49459,401.40769 C490.49459,408.57566 488.44674,416.76709 490.49459,423.93499 L490.49459,423.93499 C493.56686,434.17519 501.75829,443.39109 511.99849,446.46329 C516.09517,447.4877 521.21431,447.4877 526.33439,447.4877 L877.56639,447.4877 C883.70994,447.4877 889.85449,447.4877 894.97459,446.46329 C905.21389,443.39102 913.40619,435.19959 916.47849,424.95939 L916.47849,424.95939 C918.52634,418.81584 917.50193,413.69569 917.50193,407.55119 C914.43064,357.37539 910.33396,307.19919 907.26263,255.99919 L817.15033,255.99919 L806.91013,255.99919 C805.88669,257.0236 809.9824,257.0236 815.10251,257.0236 L815.10368,257.02452 Z M800.76768,257.02452 L800.76768,257.02452 L800.76768,353.28042 L777.21498,353.28042 L777.21498,257.02452 L777.21498,257.02452 L777.21498,190.46402 C760.83118,195.58414 745.47178,201.72772 729.08708,206.84782 L729.08708,185.34392 C751.61538,177.15251 773.11928,169.98452 795.64758,161.79212 C797.69543,160.76771 799.74328,160.76771 801.79113,160.76771 C800.76769,192.51181 800.76769,224.25601 800.76769,257.02451 L800.76768,257.02452 Z M875.51968,531.45652 L520.19168,531.45652 C511.9993,531.45652 498.68778,530.43211 484.35188,526.3364 C453.63118,517.12058 428.03158,494.5923 414.72008,465.9204 L410.6234,461.8247 L406.5277,447.4888 C401.40758,428.0327 402.432,411.649 403.45543,403.4566 L403.45543,401.40875 L403.45543,399.3609 C404.47984,377.857 406.5277,356.3521 407.55113,335.8726 C409.59996,311.2964 410.6234,286.7203 412.67125,263.1685 C408.57555,234.4966 405.50328,206.8482 401.40755,178.1763 L395.264,135.1685 L102.4,135.1685 C46.0797,135.1685 0,181.2486 0,237.5685 L0,921.5995 C0,977.9198 46.0801,1023.9995 102.4,1023.9995 L790.528,1023.9995 C846.8483,1023.9995 892.927,977.9194 892.927,921.5995 L892.927,530.4315 C887.80786,531.45591 882.6877,531.45591 878.5911,531.45591 L875.51981,531.45591 L875.51968,531.45652 Z M270.33568,929.79312 C163.83968,929.79312 77.82368,844.80032 77.82368,738.30452 C77.82368,631.80872 163.83928,545.79252 270.33568,545.79252 C320.51248,545.79252 364.54368,565.24862 398.33568,595.96832 L344.06418,650.24082 C323.58368,632.83262 297.98408,622.59242 269.31218,622.59242 C205.82388,622.59242 153.60018,674.81702 153.60018,738.30442 C153.60018,801.79272 205.82378,854.01642 269.31218,854.01642 C322.56018,854.01642 359.42348,822.27322 372.73618,777.21662 L270.33618,777.21662 L270.33618,703.48912 L450.56118,703.48912 C465.92058,779.26452 438.27308,929.79312 270.33618,929.79312 L270.33568,929.79312 Z"></path>
  </g>
</svg>