<?xml version="1.0" encoding="UTF-8"?>
<svg width="1024px" height="1021px" viewBox="0 0 1024 1021" version="1.1" xmlns="http://www.w3.org/2000/svg" xmlns:xlink="http://www.w3.org/1999/xlink">
  <g id="GooglePhotos" transform="translate(0, 0.0926)" fill="currentColor" fill-rule="nonzero">
    <path d="M768,510 L768,254 L768,256 C686,172 602,88 520,6 C518,4 516,0 512,0 L512,254 L512,364 C526,398 540,434 554,468 C588,482 624,496 658,510 C628,522 600,534 572,544 C566,548 560,548 552,554 C540,588 526,622 512,656 C498,622 484,586 470,552 C436,538 400,524 366,510 C396,496 426,486 456,474 C460,472 466,470 472,466 C484,432 498,398 514,364 L514,254 L258,254 L258,256 C244,268 230,284 216,298 C142,368 70,438 0,510 C84,512 172,510 256,510 L256,764 C338,848 420,930 502,1012 C504,1014 508,1018 512,1020 C514,996 512,968 512,942 L512,766 L768,766 L860,674 C914,620 970,566 1024,510 L768,510 Z"></path>
  </g>
</svg>