<?xml version="1.0" standalone="no"?>
<!DOCTYPE svg PUBLIC "-//W3C//DTD SVG 1.1//EN" "http://www.w3.org/Graphics/SVG/1.1/DTD/svg11.dtd" >
<svg xmlns="http://www.w3.org/2000/svg" xmlns:xlink="http://www.w3.org/1999/xlink" version="1.1" viewBox="-10 0 1034 1024">
   <path fill="currentColor"
d="M124.928 372.024c-1.02344 -182.272 99.3281 -299.009 266.24 -361.473c-1.02441 -3.07129 -4.0957 -5.12012 -7.16797 -6.14355c-79.8721 -46.0801 -158.72 -92.1602 -238.592 -135.168c-47.1045 -26.624 -90.1123 1.02344 -90.1123 54.2715v893.952
c0 53.248 44.0322 81.9199 91.1357 56.3203c35.8408 -19.4561 70.6562 -38.9121 106.496 -59.3926c48.1279 -27.6475 95.2324 -54.2715 143.36 -81.9199c-169.984 -62.4639 -270.336 -178.176 -271.36 -360.447zM496.64 137.528
c-130.048 0 -233.472 103.424 -234.496 231.424c0 128 104.448 233.472 231.425 233.472c128 0 232.447 -104.448 232.447 -232.448c0 -125.951 -103.424 -231.424 -229.376 -232.447zM537.6 306.488c-11.2637 0 -13.3115 4.0957 -13.3115 14.3359
c1.02344 19.4561 0 38.9121 0 58.3682v0v58.3672c-1.02441 32.7686 -28.6719 59.3926 -59.3916 57.3447c-30.7207 -1.02441 -54.2725 -27.6484 -52.2246 -61.4404c1.02441 -31.7441 37.8877 -58.3682 67.584 -47.1035c11.2637 4.0957 13.3125 1.02344 13.3125 -10.2402
c-1.02441 -37.8877 0 -75.7764 0 -113.664c0 -10.2402 3.07129 -14.3359 13.3115 -13.3125c18.4316 1.02441 37.8877 1.02441 56.3203 0c9.21582 0 13.3115 3.07227 13.3115 12.2881v3.07227c2.04785 40.96 2.04785 40.96 -38.9121 41.9844zM948.224 329.016
c-26.624 -23.5518 -60.416 -36.8633 -95.2314 -58.3672c17.4082 68.6074 16.3838 132.096 2.04785 196.607c33.792 -19.4561 70.6562 -31.7441 98.3037 -59.3916c23.5527 -24.5762 21.5039 -56.3203 -5.12012 -78.8486z" />
</svg>
