<?xml version="1.0" encoding="UTF-8"?>
<svg width="973px" height="1025px" viewBox="0 0 973 1025" version="1.1" xmlns="http://www.w3.org/2000/svg" xmlns:xlink="http://www.w3.org/1999/xlink">
  <g id="GoogleGroups" transform="translate(0.2322, 0.6137)" fill="currentColor" fill-rule="nonzero">
    <path d="M962,0 L10,0 C4,0 0,6 0,10 L0,706 C0,712 4,716 10,716 L564,716 L962,1024 C968,1024 972,1018 972,1014 L972,10 C972,6 968,0 962,0 Z M372,158 C422,158 462,198 462,248 C462,300 422,338 372,338 C322,338 282,300 282,248 C282,198 324,158 372,158 Z M566,556 L176,556 L176,506 C176,420 262,392 372,392 L388,392 L394,392 C398,392 402,392 406,394 L412,394 L426,394 C428,394 430,396 432,396 L442,396 C442,396 448,398 450,398 L456,398 C466,400 476,404 486,406 C488,406 488,408 490,408 C504,412 516,418 526,426 C534,432 542,438 548,446 C560,462 566,482 566,504 L566,556 Z M648,258 C686,258 716,288 716,324 C716,362 686,392 648,392 C612,392 582,362 582,324 C582,288 610,258 648,258 Z M796,556 L608,556 L608,506 C608,480 602,456 590,436 C608,432 628,432 648,432 C728,432 796,452 796,518 L796,556 Z"></path>
  </g>
</svg>