<?xml version="1.0" standalone="no"?>
<!DOCTYPE svg PUBLIC "-//W3C//DTD SVG 1.1//EN" "http://www.w3.org/Graphics/SVG/1.1/DTD/svg11.dtd" >
<svg xmlns="http://www.w3.org/2000/svg" xmlns:xlink="http://www.w3.org/1999/xlink" version="1.1" viewBox="-11 0 1045 1024">
   <path fill="currentColor"
d="M328 309v128h180c-8 42 -32 78 -66 102c-22 14 -48 24 -72 28c-26 4 -54 6 -80 0c-26 -4 -50 -16 -72 -32c-36 -24 -62 -60 -76 -100c-14 -42 -14 -86 0 -128c10 -28 26 -56 48 -78c26 -26 62 -46 98 -54c32 -6 66 -6 96 4c28 8 52 22 72 42l60 -60c10 -12 22 -22 32 -32
c-30 -30 -66 -52 -106 -66c-70 -26 -150 -26 -222 -2c-80 28 -148 88 -186 162c-12 26 -22 54 -28 84c-14 70 -4 146 28 212c22 42 52 80 90 108c36 28 76 50 120 62c54 14 112 14 168 0c50 -10 96 -34 134 -68c40 -38 68 -86 82 -138c18 -56 20 -116 10 -174h-310z
M1024 317h-112v-112h-82v112h-112v82h112v112h82v-112h112v-82z" />
</svg>
