<?xml version="1.0" encoding="UTF-8"?>
<svg width="916px" height="1026px" viewBox="0 0 916 1026" version="1.1" xmlns="http://www.w3.org/2000/svg" xmlns:xlink="http://www.w3.org/1999/xlink">
  <g id="GooglePlayMusic" transform="translate(0.8782, 0.711)" fill="currentColor" fill-rule="nonzero">
    <path d="M69.63227,513.050804 C68.60883,330.778804 168.96037,214.041804 335.87227,151.577804 C334.84786,148.506514 331.77657,146.457684 328.7043,145.434254 C248.8322,99.3541545 169.9843,53.2740545 90.1123,10.2662545 C43.0078,-16.3577455 0,11.2896945 0,64.5377545 L0,958.489754 C0,1011.73775 44.0322,1040.40965 91.1357,1014.81005 C126.9765,995.353954 161.7919,975.897954 197.6317,955.417454 C245.7596,927.769954 292.8641,901.145954 340.9917,873.497554 C171.0077,811.033654 70.6557,695.321554 69.6317,513.050554 L69.63227,513.050804 Z M441.34427,278.554804 C311.29627,278.554804 207.87227,381.978804 206.84827,509.978804 C206.84827,637.978804 311.29627,743.450804 438.27327,743.450804 C566.27327,743.450804 670.72027,639.002804 670.72027,511.002804 C670.72027,385.051804 567.29627,279.578804 441.34427,278.554804 L441.34427,278.554804 Z M482.30427,447.514804 C471.04057,447.514804 468.99277,451.610504 468.99277,461.850704 C470.01621,481.306804 468.99277,500.762804 468.99277,520.218904 L468.99277,520.218904 L468.99277,578.586104 C467.96836,611.354704 440.32087,637.978704 409.60117,635.930804 C378.88047,634.906394 355.32867,608.282404 357.37657,574.490404 C358.40098,542.746304 395.26427,516.122204 424.96057,527.386904 C436.22427,531.482604 438.27307,528.410344 438.27307,517.146704 C437.24866,479.259004 438.27307,441.370304 438.27307,403.482704 C438.27307,393.242504 441.34436,389.146804 451.58457,390.170204 C470.01617,391.194614 489.47227,391.194614 507.90487,390.170204 C517.12069,390.170204 521.21637,393.242474 521.21637,402.458304 L521.21637,405.530574 C523.26422,446.490574 523.26422,446.490574 482.30427,447.514974 L482.30427,447.514804 Z M892.92827,470.042804 C866.30427,446.491004 832.51227,433.179504 797.69687,411.675604 C815.10507,480.283004 814.08067,543.771604 799.74472,608.282604 C833.53672,588.826504 870.40092,576.538504 898.04842,548.891004 C921.60112,524.314804 919.55232,492.570704 892.9283,470.042404 L892.92827,470.042804 Z"></path>
  </g>
</svg>