<?xml version="1.0" standalone="no"?>
<!DOCTYPE svg PUBLIC "-//W3C//DTD SVG 1.1//EN" "http://www.w3.org/Graphics/SVG/1.1/DTD/svg11.dtd" >
<svg xmlns="http://www.w3.org/2000/svg" xmlns:xlink="http://www.w3.org/1999/xlink" version="1.1" viewBox="-10 0 1034 1024">
   <path fill="currentColor"
d="M944.128 220.472c-15.3604 -84.9912 -52.2236 -158.72 -111.616 -222.208c-24.5762 -26.624 -52.2236 -50.1758 -82.9434 -69.6318c-56.3203 -36.8643 -118.784 -59.3916 -186.368 -66.5596c-8.19238 -1.02441 -16.3838 -1.02441 -24.5762 -3.07227h-58.3682
c-1.02344 1.02441 -2.04785 1.02441 -3.07227 1.02441c-15.3594 1.02344 -29.6953 3.07129 -45.0557 6.14355c-107.52 20.4805 -196.608 73.7285 -265.216 158.72c-56.3203 70.6562 -87.04 151.553 -94.208 240.641c-3.07227 44.0312 0 87.04 9.21582 129.023
c7.16797 31.7441 17.4082 62.4639 31.7441 92.1602c1.02441 2.04785 2.04785 5.12012 4.0957 7.16797c23.5518 46.0801 53.248 87.04 91.1367 122.88c19.4551 18.4326 40.96 35.8398 64.5117 50.1758c70.6562 45.0566 147.456 68.6084 231.424 69.6328
c5.12012 0 6.14355 1.02344 6.14355 6.14355v134.145v5.11914c1.02441 -1.02344 2.04883 -1.02344 3.07227 -1.02344c84.9922 -38.9121 162.816 -89.0879 231.424 -151.552c13.3125 -12.2881 26.624 -25.6006 38.9121 -38.9121
c5.12012 -6.14453 10.2402 -11.2646 16.3838 -17.4082c8.19238 -9.21582 15.3604 -18.4316 23.5527 -28.6719c9.21582 -11.2646 17.4072 -22.5283 25.5996 -33.792c17.4082 -25.6006 33.792 -52.2246 47.1045 -80.8965c7.16797 -14.3359 13.3115 -28.6719 18.4316 -43.0078
c0 0 0 -1.02344 1.02441 -1.02344c15.3594 -39.9365 25.5996 -81.9209 30.7197 -124.929c2.04785 -15.3594 3.07227 -29.6953 4.0957 -45.0557c1.02441 -31.7441 -1.02344 -63.4883 -7.16797 -95.2324zM378.88 489.784c-7.16797 2.04785 -15.3604 3.07227 -22.5283 4.0957
c-6.14355 1.02441 -10.2393 -2.04785 -12.2871 -8.19141v-49.1523c0 -5.12012 -2.04883 -10.2402 2.04785 -14.3359c2.04785 -2.04785 4.0957 -3.07227 7.16797 -4.09668c8.19141 -2.04785 17.4082 -4.0957 25.5996 -8.19141
c14.3359 -8.19238 23.5518 -21.5039 27.6484 -37.8877c1.02344 -3.07227 1.02344 -5.12012 2.04785 -8.19238h-104.448c-3.07227 0 -6.14355 0 -9.21582 -1.02441c-9.21582 -2.04785 -15.3604 -10.2393 -15.3604 -19.4561v-157.695
c-1.02344 -8.19238 0 -16.3838 7.16797 -22.5283c4.09668 -3.07227 8.19238 -5.12012 13.3125 -5.12012h153.6c13.3125 0 24.5762 13.3125 20.4805 26.624c1.02344 2.04785 1.02344 5.12012 1.02344 8.19238v172.032c0 37.8877 -15.3594 70.6553 -43.0078 96.2559
c-1.02441 1.02344 -3.07227 3.07129 -4.0957 4.0957c-16.3838 10.2402 -31.7441 19.4561 -49.1523 24.5762zM662.528 485.688c-1.02441 0 -1.02441 0 -2.04785 1.02344c0 0 -1.02441 0 -1.02441 1.02441c-10.2402 3.07129 -19.4561 5.12012 -29.6963 6.14355
c-8.19141 1.02441 -13.3115 -3.07227 -13.3115 -11.2637v-16.3838v-29.6963v-6.14453c0 -7.16797 3.07129 -11.2637 12.2881 -13.3115c12.2881 -3.07227 23.5518 -6.14453 32.7676 -15.3604c11.2637 -10.2393 16.3838 -23.5518 19.4561 -37.8877h-96.2559h-10.2402
c-13.3115 0 -22.5283 -9.21582 -22.5283 -22.5283v-155.647v-1.02441c-1.02344 -10.2402 2.04883 -17.4082 10.2402 -23.5518c3.07227 -2.04785 7.16797 -3.07227 11.2646 -3.07227h152.575c13.3125 0 24.5762 13.3125 20.4805 26.624
c1.02344 2.04785 1.02344 5.12012 1.02344 8.19238v172.032c0 51.1992 -31.7432 99.3271 -79.8711 118.783c-3.07227 1.02441 -4.09668 2.04883 -5.12012 2.04883c1.02344 1.02344 2.04785 1.02344 3.07129 1.02344c-2.04785 0 -3.07129 0 -3.07129 -1.02344z" />
</svg>
