<?xml version="1.0" encoding="UTF-8"?>
<svg width="95px" height="95px" viewBox="0 0 95 95" version="1.1" xmlns="http://www.w3.org/2000/svg" xmlns:xlink="http://www.w3.org/1999/xlink">
    <g id="Google-Drive" stroke="none" stroke-width="1" fill="none" fill-rule="evenodd">
        <path d="M56.9,9 C58.5,9 60.05,9.4 61.4,10.2 C62.75,11 63.9,12.1 64.7,13.5 L77.4,35.5 L90.05,57.5 C90.85,58.9 91.25,60.45 91.25,62 L63.8,62 L47.65,34.001 L31.5,62 L91.3,62 C91.3,63.55 90.9,65.1 90.1,66.5 L82.45,79.75 L80.85,82.5 C80.05,83.9 78.9,85 77.55,85.8 C76.2,86.55 74.65,87 73.05,87 L22.25,87 C20.65,87 19.1,86.6 17.75,85.8 L17.4420801,85.6100592 C16.2251479,84.8289941 15.1884615,83.7923077 14.45,82.5 L10.6,75.85 L5.2,66.5 C4.4,65.1 4,63.55 4,62 L4.00754727,61.6361909 C4.06688564,60.1834803 4.47511969,58.7644382 5.2,57.5 L30.6,13.5 C31.3384615,12.2076923 32.3751479,11.1710059 33.5920801,10.3899408 L33.9,10.2 C35.25,9.45 36.8,9 38.4,9 L56.9,9 Z" id="Path" fill="currentColor" fill-rule="nonzero"></path>
    </g>
</svg>