<?xml version="1.0" standalone="no"?>
<!DOCTYPE svg PUBLIC "-//W3C//DTD SVG 1.1//EN" "http://www.w3.org/Graphics/SVG/1.1/DTD/svg11.dtd" >
<svg xmlns="http://www.w3.org/2000/svg" xmlns:xlink="http://www.w3.org/1999/xlink" version="1.1" viewBox="-10 0 1034 1024">
   <path fill="currentColor"
d="M988 -141h-952c-6 0 -10 6 -10 10v696c0 6 4 10 10 10h554l398 308c6 0 10 -6 10 -10v-1004c0 -4 -4 -10 -10 -10zM398 17c50 0 90 40 90 90c0 52 -40 90 -90 90s-90 -38 -90 -90c0 -50 42 -90 90 -90zM592 415h-390v-50c0 -86 86 -114 196 -114h16h6c4 0 8 0 12 2h6h14
c2 0 4 2 6 2h10s6 2 8 2h6c10 2 20 6 30 8c2 0 2 2 4 2c14 4 26 10 36 18c8 6 16 12 22 20c12 16 18 36 18 58v52zM674 117c38 0 68 30 68 66c0 38 -30 68 -68 68c-36 0 -66 -30 -66 -68c0 -36 28 -66 66 -66zM822 415h-188v-50c0 -26 -6 -50 -18 -70c18 -4 38 -4 58 -4
c80 0 148 20 148 86v38z" />
</svg>
