<?xml version="1.0" encoding="UTF-8"?>
<svg width="917px" height="1025px" viewBox="0 0 917 1025" version="1.1" xmlns="http://www.w3.org/2000/svg" xmlns:xlink="http://www.w3.org/1999/xlink">
  <g id="GoogleScholar" transform="translate(0.7057, 0.711)" fill="currentColor" fill-rule="nonzero">
    <path d="M862,114 C872,114 878,118 878,122 C880,128 880,134 880,142 L880,486 C880,494 876,500 872,506 C866,512 860,514 852,514 L840,514 C832,514 826,510 820,506 C814,500 812,494 812,486 L812,142 L812,122 C814,118 818,114 828,114 L828,68 L678,192 C680,194 680,196 682,196 C682,198 684,198 684,200 C690,212 696,226 700,240 C702,254 704,272 704,290 C704,304 704,316 702,328 C700,340 696,354 692,364 C686,374 682,384 676,394 C670,402 664,410 658,416 C652,424 644,430 638,436 C632,442 624,448 618,454 L600,472 C600,472 590,484 584,490 C580,496 576,502 574,508 C572,516 572,522 572,528 C572,536 572,542 576,548 C578,554 582,562 590,568 C596,574 602,582 610,588 C616,594 624,602 634,608 C642,614 652,620 660,628 C668,634 678,642 686,650 C694,658 702,666 710,676 C718,688 724,698 730,710 C736,722 740,736 742,748 C746,762 748,776 748,790 C748,810 746,828 740,846 C736,864 728,880 718,894 C708,910 696,924 684,936 C670,950 656,960 642,970 C624,978 608,988 592,994 C574,1000 558,1006 538,1010 C522,1014 504,1018 484,1020 C466,1022 448,1024 430,1024 C420,1024 408,1024 396,1022 C386,1022 374,1020 362,1018 C352,1016 340,1014 328,1012 C316,1008 304,1004 294,1000 C282,996 270,992 260,986 C250,980 240,974 232,966 C222,960 214,952 208,944 C200,936 194,926 188,916 C182,906 178,894 174,882 C172,872 170,860 170,846 C170,830 172,816 176,802 C180,788 186,774 196,760 C204,748 214,736 226,724 C236,714 250,704 264,696 C276,688 290,682 306,674 C320,668 338,664 358,658 C378,654 398,650 420,648 C442,644 468,642 494,640 C482,624 474,610 468,596 C462,582 458,568 458,556 C458,548 460,540 462,532 C464,524 466,516 470,506 C464,506 458,508 450,508 L432,508 C402,508 378,504 354,496 C330,486 308,474 290,454 C270,436 256,414 246,392 C236,370 232,344 232,316 L232,308 L232,300 L0,300 L346,0 L916,0 L864,40 L864,114 L862,114 Z M576,708 C576,706 572,704 568,702 C564,698 560,696 554,690 C548,686 542,682 538,678 C536,676 534,674 532,674 L522,674 C522,674 512,672 506,672 C492,672 480,674 468,674 C454,676 442,678 430,680 C418,682 404,686 392,690 L356,702 C344,708 334,714 322,722 C314,730 304,738 298,748 C290,758 284,770 280,782 C276,794 274,806 274,820 C274,834 276,846 280,858 C282,868 288,880 296,890 C302,900 310,910 318,916 C328,924 338,932 348,936 C358,942 368,948 380,952 C392,956 402,960 414,962 C428,966 440,968 450,968 C464,970 476,970 486,970 C512,970 534,968 554,962 C576,958 594,950 612,938 C630,926 642,914 650,896 C660,878 664,860 664,836 C664,832 664,828 662,822 C662,818 662,814 660,808 C658,802 656,798 656,794 C654,790 652,786 652,784 L646,772 C646,772 640,764 636,760 C632,754 630,752 626,748 L618,740 L610,732 C608,728 602,724 598,720 C592,714 588,712 584,708 C580,710 578,708 576,708 Z M568,438 C576,428 584,414 590,398 C596,382 598,366 598,350 C598,334 596,318 594,302 C590,286 588,270 582,252 C576,236 570,220 560,204 C552,190 542,176 530,162 C518,148 504,138 490,132 C478,124 462,122 446,122 C428,122 412,124 398,132 C386,138 374,148 364,160 C354,174 348,186 342,202 C338,218 336,236 336,254 C336,270 336,286 340,302 C342,316 346,332 350,350 C356,366 362,380 372,396 C380,410 390,422 402,436 C414,448 428,458 442,464 C456,470 470,474 486,474 C504,474 520,470 534,464 C546,460 558,450 568,438 Z"></path>
  </g>
</svg>