<?xml version="1.0" standalone="no"?>
<!DOCTYPE svg PUBLIC "-//W3C//DTD SVG 1.1//EN" "http://www.w3.org/Graphics/SVG/1.1/DTD/svg11.dtd" >
<svg xmlns="http://www.w3.org/2000/svg" xmlns:xlink="http://www.w3.org/1999/xlink" version="1.1" viewBox="-10 0 1034 1024">
   <path fill="currentColor"
d="M865.28 116.024h87.04c7.16797 -52.2246 14.3359 -104.448 20.4795 -156.673v-9.21582c-1.02344 -12.2881 -10.2402 -22.5273 -21.5039 -25.5996v-32.7686c0 -5.11914 -1.02344 -10.2393 -3.07227 -14.3359c-4.0957 -11.2637 -16.3838 -18.4316 -28.6719 -18.4316
h-337.92c-5.12012 0 -11.2637 0 -16.3838 2.04785c-11.2637 5.12012 -19.4561 16.3838 -19.4561 29.6963v33.792c-10.2402 4.0957 -18.4316 12.2881 -20.4805 23.5518c-1.02344 5.12012 -1.02344 10.2402 0 14.3359c7.16895 51.2002 14.3369 102.4 20.4805 152.576h120.832
v-11.2637v0c12.2881 0 24.5762 1.02344 35.8398 -4.09668c9.21582 -4.0957 16.3838 -13.3115 17.4082 -22.5273s0 -20.4805 -5.12012 -27.6484c-4.0957 -6.14355 -12.2881 -10.2402 -19.4561 -11.2637c-10.2402 -1.02441 -21.5039 0 -29.6963 6.14355
c-8.19141 6.14453 -13.3115 16.3838 -12.2881 26.624h-23.5518c0 -4.0957 0 -8.19141 2.04785 -12.2881c3.07227 -11.2637 9.2168 -20.4795 18.4326 -26.624c10.2402 -7.16797 22.5273 -11.2637 34.8154 -12.2881c12.2881 0 25.6006 2.04883 35.8408 8.19238
c8.19141 5.12012 15.3594 13.3125 19.4551 22.5283c4.09668 9.21582 5.12012 19.4561 4.09668 29.6953c-2.04785 15.3604 -14.3359 28.6729 -28.6719 34.8164c2.04785 1.02441 4.0957 1.02441 6.14355 2.04785c2.04785 1.02441 3.07227 0 5.12012 0h101.376h-10.2402
h-84.9922h-8.19141c6.14355 3.07227 11.2637 7.16797 15.3594 12.2881c7.16797 9.21582 10.2402 20.4805 9.2168 31.7441c-1.02441 12.2881 -5.12012 23.5518 -12.2881 32.7676c-8.19238 10.2402 -21.5039 15.3604 -33.792 17.4082
c-13.3125 2.04785 -26.624 1.02441 -38.9121 -4.0957c-10.2402 -4.0957 -18.4326 -10.2402 -24.5762 -19.4561c-5.12012 -8.19238 -8.19238 -18.4316 -8.19238 -27.6484h22.5283c0 4.09668 1.02441 7.16797 2.04785 11.2646
c2.04785 8.19141 9.21582 15.3594 16.3838 18.4316c10.2402 4.0957 21.5049 5.12012 32.7686 1.02441c8.19141 -2.04883 16.3838 -9.2168 19.4561 -17.4082c3.07227 -9.21582 4.0957 -19.4561 1.02344 -28.6719c-3.07129 -8.19238 -9.21582 -15.3604 -17.4072 -18.4326
c-12.2881 -5.12012 -25.6006 -3.07129 -37.8887 -4.0957v-7.16797h-119.808c-3.07227 48.1279 -6.14453 97.2803 -10.2402 145.408c0 7.16797 -2.04785 15.3594 0 22.5273v0c3.07227 10.2402 11.2637 19.4561 21.5039 22.5283
c4.09668 1.02441 9.21582 1.02441 14.3359 1.02441h351.232c6.14355 0 12.2881 0 17.4082 -1.02441c10.2393 -3.07227 18.4316 -11.2637 21.5039 -21.5039v0c2.04785 -6.14355 1.02344 -11.2637 1.02344 -17.4082c-3.07129 -50.1758 -7.16797 -100.352 -10.2393 -151.552
h-90.1123h-10.2402c-1.02344 1.02441 3.07227 1.02441 8.19238 1.02441zM850.944 116.024v0v96.2559h-23.5527v-96.2559v0v-66.5605c-16.3838 5.12012 -31.7432 11.2637 -48.1279 16.3838v-21.5039c22.5283 -8.19141 44.0322 -15.3594 66.5605 -23.5518
c2.04785 -1.02441 4.0957 -1.02441 6.14355 -1.02441c-1.02344 31.7441 -1.02344 63.4883 -1.02344 96.2568zM925.696 390.456h-355.328c-8.19238 0 -21.5039 -1.02441 -35.8398 -5.12012c-30.7207 -9.21582 -56.3203 -31.7441 -69.6318 -60.416l-4.09668 -4.0957
l-4.0957 -14.3359c-5.12012 -19.4561 -4.0957 -35.8398 -3.07227 -44.0322v-2.04785v-2.04785c1.02441 -21.5039 3.07227 -43.0088 4.0957 -63.4883c2.04883 -24.5762 3.07227 -49.1523 5.12012 -72.7041c-4.0957 -28.6719 -7.16797 -56.3203 -11.2637 -84.9922
l-6.14355 -43.0078h-292.864c-56.3203 0 -102.4 46.0801 -102.4 102.4v684.031c0 56.3203 46.0801 102.4 102.4 102.4h688.128c56.3203 0 102.399 -46.0801 102.399 -102.4v-391.168c-5.11914 1.02441 -10.2393 1.02441 -14.3359 1.02441h-3.07129zM320.512 788.792
c-106.496 0 -192.512 -84.9922 -192.512 -191.488s86.0156 -192.512 192.512 -192.512c50.1768 0 94.208 19.4561 128 50.1758l-54.2715 54.2725c-20.4805 -17.4082 -46.0801 -27.6484 -74.752 -27.6484c-63.4883 0 -115.712 52.2246 -115.712 115.712
c0 63.4883 52.2236 115.712 115.712 115.712c53.248 0 90.1113 -31.7432 103.424 -76.7998h-102.4v-73.7275h180.225c15.3594 75.7754 -12.2881 226.304 -180.225 226.304z" />
</svg>
