<?xml version="1.0" standalone="no"?>
<!DOCTYPE svg PUBLIC "-//W3C//DTD SVG 1.1//EN" "http://www.w3.org/Graphics/SVG/1.1/DTD/svg11.dtd" >
<svg xmlns="http://www.w3.org/2000/svg" xmlns:xlink="http://www.w3.org/1999/xlink" version="1.1" viewBox="-10 0 1034 1024">
   <path fill="currentColor"
d="M657.408 315.704c10.2402 0 21.5039 3.07227 28.6719 8.19238c26.624 13.3115 55.2959 10.2393 78.8477 -3.07227c41.9844 -21.5039 55.2959 -73.7285 31.7441 -113.664c-21.5039 -41.9844 -73.7275 -55.2959 -113.664 -31.7441
c-23.5518 13.3115 -39.9355 36.8643 -41.9834 65.5361c0 10.2402 -3.07227 21.5039 -8.19238 28.6719c-15.3604 26.624 -50.1758 36.8643 -76.7998 21.5039s-36.8643 -50.1758 -21.5039 -76.7998c5.12012 -8.19238 13.3115 -15.3604 21.5039 -21.5039
c23.5518 -15.3604 36.8643 -39.9365 36.8643 -68.6084c0 -47.1035 -39.9365 -83.9678 -83.9688 -83.9678c-47.1035 0 -83.9678 39.9355 -83.9678 83.9678c0 26.624 13.3125 53.248 36.8643 68.6084c8.19141 5.12012 15.3594 13.3115 21.5039 21.5039
c13.3115 26.624 5.12012 60.416 -21.5039 76.7998s-60.416 5.12012 -76.7998 -21.5039c-5.12012 -8.19238 -8.19238 -18.4316 -8.19238 -28.6719c-3.07227 -26.624 -18.4316 -53.248 -41.9844 -65.5361c-39.9355 -21.5039 -90.1113 -8.19238 -113.664 31.7441
c-21.5039 39.9355 -8.19141 90.1123 31.7441 113.664c23.5527 13.3115 55.2959 15.3594 78.8486 3.07227c8.19141 -5.12012 18.4316 -8.19238 28.6719 -8.19238c28.6719 0 55.2959 23.5518 55.2959 55.2959c0 28.6719 -23.5518 55.2959 -55.2959 55.2959
c-10.2402 0 -21.5039 -3.07227 -28.6719 -8.19238c-26.624 -13.3115 -55.2959 -10.2393 -78.8486 3.07227c-41.9834 21.5039 -55.2959 73.7285 -31.7441 113.664c21.5049 41.9844 73.7285 55.2959 113.664 31.7441c23.5527 -13.3115 39.9365 -36.8643 41.9844 -65.5361
c0 -10.2402 3.07227 -21.5039 8.19238 -28.6719c15.3594 -26.624 50.1758 -36.8643 76.7998 -21.5039s36.8643 50.1758 21.5039 76.7998c-5.12012 8.19238 -13.3125 15.3604 -21.5039 21.5039c-23.5518 15.3604 -36.8643 39.9365 -36.8643 68.6084
c0 47.1035 39.9365 83.9678 83.9678 83.9678c47.1045 0 83.9688 -39.9355 83.9688 -83.9678c0 -26.624 -13.3125 -53.248 -36.8643 -68.6084c-8.19238 -5.12012 -15.3604 -13.3115 -21.5039 -21.5039c-13.3125 -26.624 -5.12012 -60.416 21.5039 -76.7998
c26.624 -15.3604 60.416 -5.12012 76.7998 21.5039c5.12012 8.19238 8.19238 18.4316 8.19238 28.6719c3.07129 26.624 18.4316 53.248 41.9834 65.5361c39.9365 21.5039 90.1123 8.19238 113.664 -31.7441c21.5039 -39.9355 8.19238 -90.1123 -31.7441 -113.664
c-23.5518 -13.3115 -55.2959 -15.3594 -78.8477 -3.07227c-8.19238 5.12012 -18.4316 8.19238 -28.6719 8.19238c-28.6719 0 -55.2959 -26.624 -55.2959 -55.2959s23.5518 -55.2959 55.2959 -55.2959zM960.512 371c41.9844 -78.8477 41.9844 -174.08 -5.12012 -256
c-45.0557 -78.8477 -129.023 -129.024 -219.136 -132.096c-47.1035 -76.8008 -132.096 -123.904 -224.256 -123.904s-177.152 47.1035 -224.256 123.904c-90.1123 3.07129 -174.08 53.248 -219.136 132.096c-47.1045 78.8477 -47.1045 177.152 -5.12012 256
c-10.2402 18.4316 -15.3604 36.8643 -21.5039 55.2959c-18.4326 68.6084 -7.16797 140.288 26.624 200.704c45.0557 78.8477 129.023 129.024 219.136 132.096c47.1035 76.8008 132.096 123.904 224.256 123.904s177.152 -47.1035 224.256 -123.904
c90.1123 -3.07129 174.08 -53.248 219.136 -132.096c34.8164 -60.416 45.0566 -132.096 26.624 -200.704c-5.11914 -18.4316 -13.3115 -36.8643 -21.5039 -55.2959zM891.904 449.848c13.3115 45.0566 5.12012 90.1123 -13.3125 132.097
c-31.7441 53.248 -87.04 87.04 -150.527 87.04c-13.3125 0 -28.6729 0 -45.0566 -5.12012c-21.5039 73.7275 -87.04 129.023 -168.96 129.023s-150.528 -55.2959 -168.96 -129.023c-13.3115 3.07129 -28.6719 5.12012 -45.0557 5.12012
c-60.416 0 -118.784 -34.8164 -150.528 -87.04c-23.5518 -39.9365 -31.7441 -87.04 -18.4316 -132.097c8.19141 -31.7441 23.5518 -58.3672 45.0557 -78.8477c-55.2959 -55.2959 -68.6084 -140.288 -28.6719 -210.944c31.7441 -53.248 87.04 -87.04 150.528 -87.04
c13.3115 0 28.6719 0 45.0557 5.12012c21.5039 -73.7275 87.04 -129.023 168.96 -129.023s150.528 55.2959 168.96 129.023c13.3125 -3.07129 28.6719 -5.12012 45.0557 -5.12012c60.416 0 118.784 34.8164 150.528 87.04c39.9365 71.6807 26.624 155.648 -28.6719 210.944
c20.4795 21.5039 35.8398 47.1035 44.0322 78.8477z" />
</svg>
