<?xml version="1.0" encoding="UTF-8"?>
<svg width="960px" height="1025px" viewBox="0 0 960 1025" version="1.1" xmlns="http://www.w3.org/2000/svg" xmlns:xlink="http://www.w3.org/1999/xlink">
  <g id="GoToMeeting" transform="translate(0.7302, 0.6137)" fill="currentColor" fill-rule="nonzero">
    <path d="M624.796112,456.704 C635.036312,456.704 646.300012,459.77627 653.468012,464.89638 C680.092012,478.20788 708.763912,475.13568 732.315712,461.82411 C774.300112,440.32021 787.611612,388.09561 764.059812,348.16011 C742.555912,306.17571 690.332312,292.86421 650.395812,316.41601 C626.844012,329.72751 610.460312,353.28031 608.412412,381.95211 C608.412412,392.19231 605.340142,403.45601 600.220032,410.62401 C584.859632,437.24801 550.044232,447.48831 523.420232,432.12791 C496.796232,416.76751 486.555932,381.95211 501.916332,355.32811 C507.036452,347.13573 515.227832,339.96771 523.420232,333.82421 C546.972032,318.46381 560.284532,293.88771 560.284532,265.21581 C560.284532,218.11231 520.348032,181.24801 476.315732,181.24801 C429.212232,181.24801 392.347932,221.18351 392.347932,265.21581 C392.347932,291.83981 405.660432,318.46381 429.212232,333.82421 C437.403642,338.94433 444.571632,347.13571 450.716132,355.32811 C464.027632,381.95211 455.836252,415.74411 429.212232,432.12791 C402.588212,448.51171 368.796232,437.24803 352.412432,410.62401 C347.292312,402.43163 344.220052,392.19241 344.220052,381.95211 C341.147782,355.32811 325.788452,328.70411 302.235652,316.41601 C262.300152,294.91211 212.124352,308.22363 188.571652,348.16011 C167.067752,388.09561 180.380242,438.27241 220.315752,461.82411 C243.868452,475.13561 275.611652,477.18351 299.164352,464.89638 C307.355762,459.77626 317.595952,456.704 327.836252,456.704 C356.508152,456.704 383.132152,480.2558 383.132152,511.9999 C383.132152,540.6718 359.580352,567.2958 327.836252,567.2958 C317.596052,567.2958 306.332352,564.22353 299.164352,559.10342 C272.540352,545.79192 243.868452,548.86412 220.315752,562.17569 C178.332352,583.67959 165.019852,635.90419 188.571652,675.83969 C210.076552,717.82409 262.300152,731.13559 302.235652,707.58379 C325.788352,694.27229 342.172152,670.71949 344.220052,642.04769 C344.220052,631.80749 347.292322,620.54379 352.412432,613.37579 C367.771832,586.75179 402.588232,576.51149 429.212232,591.87189 C455.836232,607.23229 466.076532,642.04769 450.716132,668.67169 C445.596012,676.86407 437.403632,684.03209 429.212232,690.17559 C405.660432,705.53599 392.347932,730.11209 392.347932,758.78399 C392.347932,805.88749 432.284432,842.75179 476.315732,842.75179 C523.420232,842.75179 560.284532,802.81629 560.284532,758.78399 C560.284532,732.15999 546.972032,705.53599 523.420232,690.17559 C515.227852,685.05547 508.059832,676.86409 501.916332,668.67169 C488.603832,642.04769 496.796212,608.25569 523.420232,591.87189 C550.044232,576.51149 583.836232,586.75177 600.220032,613.37579 C605.340152,621.56817 608.412412,631.80739 608.412412,642.04769 C611.483702,668.67169 626.844012,695.29569 650.395812,707.58379 C690.332312,729.08769 740.508112,715.77617 764.059812,675.83969 C785.563712,635.90419 772.252192,585.72739 732.315712,562.17569 C708.763912,548.86419 677.019812,546.81629 653.468012,559.10342 C645.275632,564.22354 635.036412,567.2958 624.796112,567.2958 C596.124212,567.2958 569.500212,540.6718 569.500212,511.9999 C569.500212,483.328 593.052012,456.704 624.796112,456.704 Z M927.900112,512 C969.884512,433.1523 969.884512,337.92 922.779992,256 C877.724292,177.1523 793.756992,126.976 703.643992,123.904 C656.540492,47.1032 571.547992,0 479.387992,0 C387.227992,0 302.235992,47.1035 255.131992,123.904 C165.019692,126.97529 81.0519924,177.152 35.9959924,256 C-11.1085076,334.8477 -11.1085076,433.152 30.8758724,512 C20.6356724,530.4316 15.5154724,548.8643 9.37197243,567.2959 C-9.06062757,635.9043 2.20400243,707.5839 35.9959724,767.9999 C81.0516724,846.8476 165.018972,897.0239 255.131972,900.0959 C302.235472,976.8967 387.227972,1023.9999 479.387972,1023.9999 C571.547972,1023.9999 656.539972,976.8964 703.643972,900.0959 C793.756272,897.02461 877.723972,846.8479 922.779972,767.9999 C957.596372,707.5839 967.836572,635.9039 949.403972,567.2959 C944.284832,548.8643 936.092472,530.4316 927.900072,512 L927.900112,512 Z M859.292112,590.848 C872.603612,635.9046 864.412232,680.9603 845.979612,722.945 C814.235512,776.193 758.939612,809.985 695.452612,809.985 C682.140112,809.985 666.779712,809.985 650.396012,804.86488 C628.892112,878.59238 563.356012,933.88788 481.436012,933.88788 C399.516012,933.88788 330.908012,878.59198 312.476012,804.86488 C299.164512,807.93617 283.804112,809.985 267.420312,809.985 C207.004312,809.985 148.636312,775.1686 116.892312,722.945 C93.3405124,683.0085 85.1482124,635.905 98.4607124,590.848 C106.652122,559.1039 122.012512,532.4808 143.516412,512.0003 C88.2205124,456.7044 74.9080124,371.7123 114.844512,301.0563 C146.588612,247.8083 201.884512,214.0163 265.372512,214.0163 C278.684012,214.0163 294.044412,214.0163 310.428212,219.13642 C331.932112,145.40892 397.468212,90.11342 479.388212,90.11342 C561.308212,90.11342 629.916212,145.40932 648.348212,219.13642 C661.660712,216.06513 677.020112,214.0163 693.403912,214.0163 C753.819912,214.0163 812.187912,248.8327 843.931912,301.0563 C883.868412,372.737 870.555912,456.7043 815.260012,512.0003 C835.739512,533.5042 851.099812,559.1038 859.292212,590.848 L859.292112,590.848 Z"></path>
  </g>
</svg>