<?xml version="1.0" encoding="UTF-8"?>
<svg width="1024px" height="1025px" viewBox="0 0 1024 1025" version="1.1" xmlns="http://www.w3.org/2000/svg" xmlns:xlink="http://www.w3.org/1999/xlink">
  <g id="GrooveShark" transform="translate(0, 0.0926)" fill="currentColor" fill-rule="nonzero">
    <path d="M512,0 C230,0 0,230 0,512 C0,794 230,1024 512,1024 C794,1024 1024,794 1024,512 C1024,230 794,0 512,0 Z M812,614 C774,598 742,566 718,532 C692,494 664,456 634,420 C604,388 574,356 540,326 C508,298 472,270 432,250 C404,238 378,228 350,220 C346,220 338,216 334,220 L334,230 C336,236 336,240 336,246 C346,318 348,392 326,460 C314,496 294,530 264,556 C242,578 208,600 174,598 C168,598 162,598 156,596 C120,584 118,544 118,512 C116,478 120,444 130,410 C132,400 136,390 138,380 C178,266 268,174 382,134 C426,118 470,110 516,110 C650,110 776,178 850,290 C868,318 882,348 894,378 L894,378 C896,390 900,400 902,410 C912,444 916,478 916,512 C914,576 894,648 812,614 Z"></path>
  </g>
</svg>