<?xml version="1.0" standalone="no"?>
<!DOCTYPE svg PUBLIC "-//W3C//DTD SVG 1.1//EN" "http://www.w3.org/Graphics/SVG/1.1/DTD/svg11.dtd" >
<svg xmlns="http://www.w3.org/2000/svg" xmlns:xlink="http://www.w3.org/1999/xlink" version="1.1" viewBox="-10 0 1044 1024">
   <path fill="currentColor"
d="M512 -141c-282 0 -512 230 -512 512s230 512 512 512s512 -230 512 -512s-230 -512 -512 -512zM812 473c-38 -16 -70 -48 -94 -82c-26 -38 -54 -76 -84 -112c-30 -32 -60 -64 -94 -94c-32 -28 -68 -56 -108 -76c-28 -12 -54 -22 -82 -30c-4 0 -12 -4 -16 0v10
c2 6 2 10 2 16c10 72 12 146 -10 214c-12 36 -32 70 -62 96c-22 22 -56 44 -90 42c-6 0 -12 0 -18 -2c-36 -12 -38 -52 -38 -84c-2 -34 2 -68 12 -102c2 -10 6 -20 8 -30c40 -114 130 -206 244 -246c44 -16 88 -24 134 -24c134 0 260 68 334 180c18 28 32 58 44 88v0
c2 12 6 22 8 32c10 34 14 68 14 102c-2 64 -22 136 -104 102z" />
</svg>
