<?xml version="1.0" encoding="UTF-8"?>
<svg width="635px" height="902px" viewBox="0 0 635 902" version="1.1" xmlns="http://www.w3.org/2000/svg" xmlns:xlink="http://www.w3.org/1999/xlink">
  <g id="GrundosCafe" transform="translate(0.7058, 0.4253)" fill="currentColor" fill-rule="nonzero">
    <path d="M633.47839,1.42108547e-14 L628.92077,681.914 C630.33581,753.996 583.13467,826.966 487.31777,900.822 C345.32077,881.9392 274.30277,872.4978 274.26777,872.4978 C343.86347,818.8552 403.68177,760.3338 453.72277,696.9348 C468.52647,681.9143 455.01086,622.2629 454.963,622.2629 C295.899,650.1154 186.79,653.6525 127.64,632.8752 C42.5462,602.0686 5.68434189e-14,527.6372 5.68434189e-14,409.5782 C5.68434189e-14,14.1642 608.392,0.4032 632.728,0.0122 L633.47839,1.42108547e-14 L633.47839,1.42108547e-14 L633.47839,1.42108547e-14 Z M396.53539,252.3613 C396.53539,252.3613 216.90639,287.7969 216.90639,411.3284 C216.90639,445.6009 247.35369,477.3723 309.92499,477.3723 C372.49729,477.3723 396.53539,421.4973 396.53539,421.4973 L396.53539,252.3613 L396.53539,252.3613 Z"></path>
  </g>
</svg>