<?xml version="1.0" standalone="no"?>
<!DOCTYPE svg PUBLIC "-//W3C//DTD SVG 1.1//EN" "http://www.w3.org/Graphics/SVG/1.1/DTD/svg11.dtd" >
<svg xmlns="http://www.w3.org/2000/svg" xmlns:xlink="http://www.w3.org/1999/xlink" version="1.1" viewBox="-10 0 1034 1024">
   <path fill="currentColor"
d="M838.277 -72.7334l-4.55762 681.914c1.41504 72.082 -45.7861 145.052 -141.603 218.908c-141.997 -18.8828 -213.015 -28.3242 -213.05 -28.3242c69.5957 -53.6426 129.414 -112.164 179.455 -175.563c14.8037 -15.0205 1.28809 -74.6719 1.24023 -74.6719
c-159.064 27.8525 -268.173 31.3896 -327.323 10.6123c-85.0938 -30.8066 -127.64 -105.238 -127.64 -223.297c0 -395.414 608.392 -409.175 632.728 -409.566l0.75 -0.0107422v-0.000976562zM601.334 179.628c0 0 -179.629 35.4355 -179.629 158.967
c0 34.2725 30.4473 66.0439 93.0186 66.0439c62.5723 0 86.6104 -55.875 86.6104 -55.875v-169.136z" />
</svg>
