<?xml version="1.0" encoding="UTF-8"?>
<svg width="782px" height="776px" viewBox="0 0 782 776" version="1.1" xmlns="http://www.w3.org/2000/svg" xmlns:xlink="http://www.w3.org/1999/xlink">
  <g id="Gumroad" transform="translate(0, 0.4253)" fill="currentColor" fill-rule="nonzero">
    <path d="M334.027,775.276477 C123.714,775.276477 0,606.2 0,395.884 C0,177.323 136.085,0 395.885,0 C663.933,0 754.656,181.446 758.779,284.542 L564.962,284.542 C560.83798,226.8086 511.3516,140.209 391.761,140.209 C263.924,140.209 181.448,251.552 181.448,387.637 C181.448,523.722 263.9246,635.065 391.761,635.065 C507.227,635.065 556.713,544.3433 577.333,453.618 L391.761,453.618 L391.761,379.3885 L781.153,379.3885 L781.153,758.7805 L610.323,758.7805 L610.323,519.5985 C597.9519,606.1981 544.3425,775.276477 334.029,775.276477 L334.029,775.276477 L334.027,775.276477 Z"></path>
  </g>
</svg>