<?xml version="1.0" encoding="UTF-8"?>
<svg width="1024px" height="746px" viewBox="0 0 1024 746" version="1.1" xmlns="http://www.w3.org/2000/svg" xmlns:xlink="http://www.w3.org/1999/xlink">
  <g id="Guru" transform="translate(0.5201, 0.6046)" fill="currentColor" fill-rule="nonzero">
    <path d="M651.26283,470.495901 C808.95883,512.480301 927.74283,605.663901 1012.73583,742.880901 C1009.66356,745.952191 1007.61571,744.928751 1006.5913,744.928751 L872.4473,744.928751 C868.35062,744.928751 865.27933,743.904341 863.23148,740.832071 C793.59868,660.959971 707.58348,606.688071 604.15948,583.137071 C502.78348,560.608771 404.47948,571.872471 311.29548,615.904671 C248.83158,645.600971 195.58348,686.560871 151.55148,738.784671 C148.48019,742.881351 144.38351,744.929201 139.26338,744.929201 L8.19238,744.929201 L0,744.929201 C83.9678,602.593201 206.848,514.529201 363.52,470.496201 C363.52,469.472761 361.47215,469.472761 360.44871,469.472761 C271.36081,445.920061 193.53671,401.888761 125.95271,339.424761 C97.28081,311.776361 71.68021,281.056561 48.12851,249.312461 C46.08066,246.240191 46.08066,244.192341 48.12851,241.120081 C64.51231,216.543881 82.94491,194.016581 103.42441,173.536081 C130.04841,145.888581 159.74471,121.312481 190.46441,99.8085811 C193.53668,97.7607311 194.56011,95.7119011 195.58453,91.6162011 C202.7525,53.7285011 225.28083,28.1279011 261.12063,13.7920011 C294.91263,0.480501121 326.65673,8.67286112 353.28083,32.2246011 C386.04843,59.8721011 397.31203,100.832001 384.00053,137.696601 C369.66463,177.633101 332.80033,203.232701 290.81693,203.232701 C279.55233,203.232701 268.28863,202.208291 258.04833,196.064731 C256.00048,195.040321 253.95263,194.016881 251.90478,196.064731 C235.51998,210.400631 218.11278,221.664331 201.72798,237.024731 C193.53657,244.192701 194.56001,245.217111 201.72798,251.360631 C239.61668,285.152631 279.55218,314.848931 325.63198,335.328431 C395.26378,365.024731 466.94398,378.336231 542.71998,372.192731 C640.00028,364.000351 726.01598,328.160531 799.74398,262.624731 C806.91195,256.481181 813.05548,250.336631 820.22348,245.217531 C822.27231,243.168701 821.24789,241.120851 821.24789,239.073001 C821.24789,225.761501 821.24789,211.425501 825.34359,198.113001 C838.65609,154.080801 877.56819,126.433301 926.71959,127.456801 C983.03989,129.504651 1012.73619,170.465601 1020.92759,208.353301 C1030.14341,251.361101 1006.59169,297.441201 965.63169,317.920301 C948.22349,326.112681 929.79189,329.184901 911.36019,328.160501 L910.33578,328.160501 C901.11996,323.040381 895.99988,330.208351 890.87968,335.328471 C822.27228,398.816771 744.44768,444.896471 653.31168,467.425471 C653.31168,469.473321 652.28824,469.473321 651.26383,470.496761 L651.26383,470.496761 L651.26283,470.495901 Z M444.41483,102.879901 C444.41483,74.2070011 438.27128,47.5830011 421.88653,24.0313011 C418.81524,19.9356011 416.76641,15.8398911 414.71856,11.7432011 C412.67071,8.67191112 413.69512,7.64750112 416.76641,6.62308112 C432.12681,4.57523112 446.46271,3.55179112 461.82301,2.52738112 C501.75851,-1.56831888 540.67071,-0.544888879 579.58301,4.57523112 C665.59861,15.8398311 744.44701,45.5352311 817.15101,93.6631311 C821.24671,96.7354011 825.34242,99.8076611 830.46251,102.879931 C832.51036,103.903371 833.53478,104.927781 830.46251,106.975631 C798.71841,130.527431 781.31021,162.271531 772.09431,199.135831 C771.07087,204.255951 769.02302,201.183681 766.97419,200.159271 C749.56699,186.847771 731.13439,175.583071 711.67829,166.367271 C659.45469,139.743271 605.18229,123.359471 545.79029,119.263771 C519.16629,117.215921 492.54229,117.215921 465.91819,118.239361 C459.77464,118.239361 453.63009,119.263771 446.46209,121.311631 C443.38982,122.335071 443.38982,121.311631 443.38982,118.239361 C444.41423,112.095811 444.41423,107.999161 444.41423,102.879961 L444.41483,102.879901 Z M612.35083,253.407901 C612.35083,308.703801 569.34303,351.711601 513.02373,351.711601 C462.84693,351.711601 414.71903,303.583701 415.74343,252.384501 C416.76687,201.184301 462.84693,155.104201 515.07153,155.104201 C569.34303,155.104201 612.35083,198.112001 612.35083,253.407901 Z"></path>
  </g>
</svg>