<?xml version="1.0" standalone="no"?>
<!DOCTYPE svg PUBLIC "-//W3C//DTD SVG 1.1//EN" "http://www.w3.org/Graphics/SVG/1.1/DTD/svg11.dtd" >
<svg xmlns="http://www.w3.org/2000/svg" xmlns:xlink="http://www.w3.org/1999/xlink" version="1.1" viewBox="-11 0 1044 1024">
   <path fill="currentColor"
d="M651.264 469.304c157.696 41.9844 276.48 135.168 361.473 272.385c-3.07227 3.07129 -5.12012 2.04785 -6.14453 2.04785h-134.144c-4.09668 0 -7.16797 -1.02441 -9.21582 -4.09668c-69.6328 -79.8721 -155.648 -134.144 -259.072 -157.695
c-101.376 -22.5283 -199.68 -11.2646 -292.864 32.7676c-62.4639 29.6963 -115.712 70.6562 -159.744 122.88c-3.07129 4.09668 -7.16797 6.14453 -12.2881 6.14453h-131.071h-8.19238c83.9678 -142.336 206.848 -230.4 363.52 -274.433
c0 -1.02344 -2.04785 -1.02344 -3.07129 -1.02344c-89.0879 -23.5527 -166.912 -67.584 -234.496 -130.048c-28.6719 -27.6484 -54.2725 -58.3682 -77.8242 -90.1123c-2.04785 -3.07227 -2.04785 -5.12012 0 -8.19238c16.3838 -24.5762 34.8164 -47.1035 55.2959 -67.584
c26.624 -27.6475 56.3203 -52.2236 87.04 -73.7275c3.07227 -2.04785 4.0957 -4.09668 5.12012 -8.19238c7.16797 -37.8877 29.6963 -63.4883 65.5361 -77.8242c33.792 -13.3115 65.5361 -5.11914 92.1602 18.4326c32.7676 27.6475 44.0312 68.6074 30.7197 105.472
c-14.3359 39.9365 -51.2002 65.5361 -93.1836 65.5361c-11.2646 0 -22.5283 -1.02441 -32.7686 -7.16797c-2.04785 -1.02441 -4.0957 -2.04785 -6.14355 0c-16.3848 14.3359 -33.792 25.5996 -50.1768 40.96c-8.19141 7.16797 -7.16797 8.19238 0 14.3359
c37.8887 33.792 77.8242 63.4883 123.904 83.9678c69.6318 29.6963 141.312 43.0078 217.088 36.8643c97.2803 -8.19238 183.296 -44.0322 257.024 -109.568c7.16797 -6.14355 13.3115 -12.2881 20.4795 -17.4072c2.04883 -2.04883 1.02441 -4.09668 1.02441 -6.14453
c0 -13.3115 0 -27.6475 4.0957 -40.96c13.3125 -44.0322 52.2246 -71.6797 101.376 -70.6562c56.3203 2.04785 86.0166 43.0088 94.208 80.8965c9.21582 43.0078 -14.3359 89.0879 -55.2959 109.567c-17.4082 8.19238 -35.8398 11.2646 -54.2715 10.2402h-1.02441
c-9.21582 -5.12012 -14.3359 2.04785 -19.4561 7.16797c-68.6074 63.4883 -146.432 109.568 -237.568 132.097c0 2.04785 -1.02344 2.04785 -2.04785 3.07129v0zM444.416 101.688c0 -28.6729 -6.14355 -55.2969 -22.5283 -78.8486
c-3.07129 -4.0957 -5.12012 -8.19141 -7.16797 -12.2881c-2.04785 -3.07129 -1.02344 -4.0957 2.04785 -5.12012c15.3604 -2.04785 29.6963 -3.07129 45.0566 -4.0957c39.9355 -4.0957 78.8477 -3.07227 117.76 2.04785c86.0156 11.2646 164.864 40.96 237.568 89.0879
c4.0957 3.07227 8.19141 6.14453 13.3115 9.2168c2.04785 1.02344 3.07227 2.04785 0 4.0957c-31.7441 23.5518 -49.1523 55.2959 -58.3682 92.1602c-1.02344 5.12012 -3.07129 2.04785 -5.12012 1.02344c-17.4072 -13.3115 -35.8398 -24.5762 -55.2959 -33.792
c-52.2236 -26.624 -106.496 -43.0078 -165.888 -47.1035c-26.624 -2.04785 -53.248 -2.04785 -79.8721 -1.02441c-6.14355 0 -12.2881 1.02441 -19.4561 3.07227c-3.07227 1.02344 -3.07227 0 -3.07227 -3.07227c1.02441 -6.14355 1.02441 -10.2402 1.02441 -15.3594z
M612.352 252.216c0 55.2959 -43.0078 98.3037 -99.3271 98.3037c-50.1768 0 -98.3047 -48.1279 -97.2803 -99.3271c1.02344 -51.2002 47.1035 -97.2803 99.3281 -97.2803c54.2715 0 97.2793 43.0078 97.2793 98.3037z" />
</svg>
