<?xml version="1.0" encoding="UTF-8"?>
<svg width="1025px" height="473px" viewBox="0 0 1025 473" version="1.1" xmlns="http://www.w3.org/2000/svg" xmlns:xlink="http://www.w3.org/1999/xlink">
  <g id="Gust" transform="translate(0.6074, 0.6075)" fill="currentColor" fill-rule="nonzero">
    <path d="M996.847551,-2.84217094e-14 C993.775281,3.07129 839.151551,180.224 609.775551,310.271 C607.727701,312.31885 606.704261,308.22315 607.727701,307.19873 C684.527501,252.92723 750.063701,188.41573 806.383701,132.09473 C818.671801,119.80663 818.671801,97.27833 804.335851,84.99023 L793.071251,71.67873 C700.912051,166.91013 575.983251,290.81473 420.336251,368.63873 C418.288401,370.68658 417.263981,366.59088 418.288401,365.56646 C486.895801,318.46296 557.552401,258.04646 618.991401,196.60646 C631.279501,184.31836 633.328301,161.79106 618.991401,149.50296 L606.704301,137.21486 C502.256301,240.63886 387.567301,346.11086 273.903301,399.35886 C271.855451,401.40671 270.832011,397.31101 271.855451,396.28659 C340.463851,352.25539 414.191451,284.67159 452.080451,248.83059 C466.416351,236.54349 466.416351,214.01519 454.128301,201.72709 L444.912481,192.51127 C444.912481,192.51127 282.096481,358.39927 189.935481,400.38327 C98.7997805,442.36667 36.3354805,441.34327 3.5674805,435.19867 C0.496190503,435.19867 -1.5526395,438.27094 1.5196305,440.31879 C39.4073305,454.65469 109.040631,475.13519 212.463631,472.06289 C505.327631,462.84707 799.215631,284.67089 1014.25563,62.46289 C1028.59153,48.12699 1026.54373,26.62209 1011.18336,14.33499 L996.847551,-2.84217094e-14 Z"></path>
  </g>
</svg>