<?xml version="1.0" standalone="no"?>
<!DOCTYPE svg PUBLIC "-//W3C//DTD SVG 1.1//EN" "http://www.w3.org/Graphics/SVG/1.1/DTD/svg11.dtd" >
<svg xmlns="http://www.w3.org/2000/svg" xmlns:xlink="http://www.w3.org/1999/xlink" version="1.1" viewBox="-10 0 1045 1024">
   <path fill="currentColor"
d="M997.376 135.48c-3.07227 3.07129 -157.696 180.224 -387.072 310.271c-2.04785 2.04785 -3.07129 -2.04785 -2.04785 -3.07227c76.7998 -54.2715 142.336 -118.783 198.656 -175.104c12.2881 -12.2881 12.2881 -34.8164 -2.04785 -47.1045l-11.2646 -13.3115
c-92.1592 95.2314 -217.088 219.136 -372.735 296.96c-2.04785 2.04785 -3.07227 -2.04785 -2.04785 -3.07227c68.6074 -47.1035 139.264 -107.52 200.703 -168.96c12.2881 -12.2881 14.3369 -34.8154 0 -47.1035l-12.2871 -12.2881
c-104.448 103.424 -219.137 208.896 -332.801 262.144c-2.04785 2.04785 -3.07129 -2.04785 -2.04785 -3.07227c68.6084 -44.0312 142.336 -111.615 180.225 -147.456c14.3359 -12.2871 14.3359 -34.8154 2.04785 -47.1035l-9.21582 -9.21582
s-162.816 165.888 -254.977 207.872c-91.1357 41.9834 -153.6 40.96 -186.368 34.8154c-3.07129 0 -5.12012 3.07227 -2.04785 5.12012c37.8877 14.3359 107.521 34.8164 210.944 31.7441c292.864 -9.21582 586.752 -187.392 801.792 -409.6
c14.3359 -14.3359 12.2881 -35.8408 -3.07227 -48.1279z" />
</svg>
