<?xml version="1.0" standalone="no"?>
<!DOCTYPE svg PUBLIC "-//W3C//DTD SVG 1.1//EN" "http://www.w3.org/Graphics/SVG/1.1/DTD/svg11.dtd" >
<svg xmlns="http://www.w3.org/2000/svg" xmlns:xlink="http://www.w3.org/1999/xlink" version="1.1" viewBox="-10 0 1034 1024">
   <path fill="currentColor"
d="M658 437v296h-50c-10 0 -20 8 -20 20c0 6 4 12 10 14l112 108c4 4 10 8 16 8s12 -4 14 -8l120 -108c6 -2 8 -8 8 -14c0 -12 -8 -20 -18 -20h-50v-714c0 -10 -8 -18 -18 -18h-106c-10 0 -18 8 -18 18v276h-292v-286h50c10 0 20 -8 20 -20c0 -6 -4 -12 -10 -14l-112 -108
c-4 -4 -10 -8 -16 -8s-12 4 -14 8l-120 108c-6 2 -8 8 -8 14c0 12 8 20 18 20h50v714c0 10 8 18 18 18h106c10 0 18 -8 18 -18v-286h292z" />
</svg>
