<?xml version="1.0" encoding="UTF-8"?>
<svg width="550px" height="1025px" viewBox="0 0 550 1025" version="1.1" xmlns="http://www.w3.org/2000/svg" xmlns:xlink="http://www.w3.org/1999/xlink">
  <g id="HackerOne" transform="translate(0.7634, 0.4253)" fill="currentColor" fill-rule="nonzero">
    <path d="M120.6368,12.8818 C106.6388,4.32125 89.8253,0 70.1641,0 C49.459,0 32.583,4.32129 19.6709,12.8818 C6.584,21.30953 0,32.5527 0,46.0293 L0,976.5693 C0,988.3759 6.75781,999.0254 20.2754,1009.081 C33.6787,1018.94233 50.3604,1024.0009 70.1543,1024.0009 C88.9648,1024.0009 105.5225,1018.94231 119.8897,1009.081 C134.1954,999.21967 141.496141,988.3857 141.496141,976.5693 L141.496141,46.2143 C141.515631,32.5541 134.52247,21.5366 120.6367,12.8832 L120.6367,12.8822234 L120.6368,12.8818 Z M528.1988,382.4948 C514.3746,373.75945 497.0279,369.5925 476.3736,369.5925 C455.7291,369.5925 439.1109,373.76047 426.4947,382.4948 L237.1867,501.1248 C228.72869,509.03007 225.0119,521.1238 226.5988,537.5994 C228.06267,553.9226 235.61052,569.5281 249.0041,584.1199 C262.4084,598.9168 277.3791,608.1834 294.552,612.0437 C311.4788,615.93432 324.217,613.81616 332.7883,605.87964 L407.7453,559.27804 L407.7453,976.57804 C407.7453,988.38464 414.20624,999.03414 427.3439,1009.08974 C440.0832,1018.9413 456.5793,1023.99894 476.3732,1023.99894 C496.1671,1023.99894 513.217,1018.94035 527.5119,1009.07904 C541.8889,999.03414 549.07731,988.38374 549.07731,976.56734 L549.07731,415.50634 C549.087066,401.85694 542.01089,390.86964 528.1984,382.49264 L528.1984,382.494593 L528.1988,382.4948 Z"></path>
  </g>
</svg>