<?xml version="1.0" standalone="no"?>
<!DOCTYPE svg PUBLIC "-//W3C//DTD SVG 1.1//EN" "http://www.w3.org/Graphics/SVG/1.1/DTD/svg11.dtd" >
<svg xmlns="http://www.w3.org/2000/svg" xmlns:xlink="http://www.w3.org/1999/xlink" version="1.1" viewBox="-10 0 1034 1024">
   <path fill="currentColor"
d="M358.093 -128.118c-13.998 -8.56055 -30.8115 -12.8818 -50.4727 -12.8818c-20.7051 0 -37.5811 4.32129 -50.4932 12.8818c-13.0869 8.42773 -19.6709 19.6709 -19.6709 33.1475v930.54c0 11.8066 6.75781 22.4561 20.2754 32.5117
c13.4033 9.86133 30.085 14.9199 49.8789 14.9199c18.8105 0 35.3682 -5.05859 49.7354 -14.9199c14.3057 -9.86133 21.6064 -20.6953 21.6064 -32.5117v-930.355c0.0195312 -13.6602 -6.97363 -24.6777 -20.8594 -33.3311v-0.000976562zM765.655 241.495
c-13.8242 -8.73535 -31.1709 -12.9023 -51.8252 -12.9023c-20.6445 0 -37.2627 4.16797 -49.8789 12.9023l-189.308 118.63c-8.45801 7.90527 -12.1748 19.999 -10.5879 36.4746c1.46387 16.3232 9.01172 31.9287 22.4053 46.5205
c13.4043 14.7969 28.375 24.0635 45.5479 27.9238c16.9268 3.89062 29.665 1.77246 38.2363 -6.16406l74.957 -46.6016v417.3c0 11.8066 6.46094 22.4561 19.5986 32.5117c12.7393 9.85156 29.2354 14.9092 49.0293 14.9092s36.8438 -5.05859 51.1387 -14.9199
c14.377 -10.0449 21.5654 -20.6953 21.5654 -32.5117v-561.061c0.00976562 -13.6494 -7.06641 -24.6367 -20.8789 -33.0137v0.00195312z" />
</svg>
