<?xml version="1.0" encoding="UTF-8"?>
<svg width="713px" height="1025px" viewBox="0 0 713 1025" version="1.1" xmlns="http://www.w3.org/2000/svg" xmlns:xlink="http://www.w3.org/1999/xlink">
  <g id="HackerRank" transform="translate(0.0491, 0.4253)" fill="currentColor" fill-rule="nonzero">
    <path d="M502,578 L502,874 L452,874 C442,874 432,882 432,894 C432,900 436,906 442,908 L554,1016 C558,1020 564,1024 570,1024 C576,1024 582,1020 584,1016 L704,908 C710,906 712,900 712,894 C712,882 704,874 694,874 L644,874 L644,160 C644,150 636,142 626,142 L520,142 C510,142 502,150 502,160 L502,436 L210,436 L210,150 L260,150 C270,150 280,142 280,130 C280,124 276,118 270,116 L158,8 C154,4 148,0 142,0 C136,0 130,4 128,8 L8,116 C2,118 0,124 0,130 C0,142 8,150 18,150 L68,150 L68,864 C68,874 76,882 86,882 L192,882 C202,882 210,874 210,864 L210,578 L502,578 Z"></path>
  </g>
</svg>