<?xml version="1.0" standalone="no"?>
<!DOCTYPE svg PUBLIC "-//W3C//DTD SVG 1.1//EN" "http://www.w3.org/Graphics/SVG/1.1/DTD/svg11.dtd" >
<svg xmlns="http://www.w3.org/2000/svg" xmlns:xlink="http://www.w3.org/1999/xlink" version="1.1" viewBox="-10 0 1044 1024">
   <path fill="currentColor"
d="M822 491l202 -120l-202 -120c-10 -26 -22 -50 -38 -72l46 -126l-126 46c-22 -16 -46 -30 -72 -38l-120 -202l-120 202c-26 10 -50 22 -72 38l-126 -46l46 126c-16 22 -30 46 -38 72l-202 120l202 120c10 26 22 50 38 72l-46 126l126 -46c22 16 46 30 72 38l120 202
l120 -202c26 -10 50 -22 72 -38l126 46l-46 -126c16 -22 30 -46 38 -72zM512 647c-152 0 -276 -124 -276 -276s124 -276 276 -276s276 124 276 276s-124 276 -276 276zM696 363c2 -12 -10 -26 -10 -40c0 -8 -4 -12 -6 -20c-2 -6 -2 -12 -4 -20h-2c8 -18 -16 -38 -28 -50
c-14 -14 -22 -32 -42 -40c-12 -4 -22 -10 -32 -14s-20 -6 -30 -10s-18 -14 -28 -10c-14 4 -18 10 -32 6c-26 -10 -44 4 -64 18c-10 8 -20 14 -28 22c-4 2 -8 8 -10 12l-12 12c-6 8 -12 12 -22 20l-12 12c-6 4 -10 2 -8 10c0 10 6 20 6 32v16c2 6 4 10 6 16c2 8 0 20 6 30
c4 8 12 18 18 26c8 8 14 18 20 28c6 6 20 14 20 22c12 2 14 16 26 14c6 0 10 0 16 2c4 2 10 4 14 4c10 2 18 -10 28 -12c12 -2 22 2 32 -4c20 -12 30 -32 30 -54c0 -12 -2 -20 -10 -32c-4 -8 -2 -20 -10 -26c-10 -8 -24 -8 -34 -10s-26 -4 -34 2c-18 12 22 42 0 52
s-36 -16 -42 -36c-4 -10 -2 -26 0 -36c0 -4 0 -10 2 -14c2 -6 10 -8 14 -10c8 -6 14 -14 22 -20c10 -6 20 -10 32 -12s26 -2 38 -2c6 0 10 2 16 2s10 -2 18 -2s6 2 6 10c0 4 2 8 6 12c6 8 12 18 20 26c14 16 12 44 10 66c0 12 0 22 4 34s-6 12 -14 20c-8 6 -10 16 -16 24
c-8 8 -14 14 -24 22c-8 6 -14 12 -22 18c-10 4 -20 10 -30 14c-12 6 -24 8 -36 12c-6 0 -12 2 -18 6c-4 2 -6 8 -12 10c-14 10 -30 6 -44 14c-10 4 -38 6 -38 16h-2c6 8 12 16 22 18c10 0 20 4 30 8c8 2 18 6 28 6c10 2 18 6 28 8c14 2 20 -8 32 -10c10 -2 22 0 34 -2
c10 -2 20 -4 32 -8c10 -2 20 -4 30 -8c8 -2 20 -8 28 -12c8 -6 8 -18 18 -22c8 -6 16 -12 22 -18s8 -20 10 -28c4 -10 10 -16 16 -24c6 -10 8 -20 10 -30c2 -8 6 -22 4 -30c0 -6 -6 -8 -4 -16c2 -12 6 -14 6 -20z" />
</svg>
