<?xml version="1.0" encoding="UTF-8"?>
<svg width="1024px" height="1025px" viewBox="0 0 1024 1025" version="1.1" xmlns="http://www.w3.org/2000/svg" xmlns:xlink="http://www.w3.org/1999/xlink">
  <g id="HearthStone" transform="translate(0, 0.0926)" fill="currentColor" fill-rule="nonzero">
    <path d="M822,632 L1024,512 L822,392 C812,366 800,342 784,320 L830,194 L704,240 C682,224 658,210 632,202 L512,0 L392,202 C366,212 342,224 320,240 L194,194 L240,320 C224,342 210,366 202,392 L0,512 L202,632 C212,658 224,682 240,704 L194,830 L320,784 C342,800 366,814 392,822 L512,1024 L632,822 C658,812 682,800 704,784 L830,830 L784,704 C800,682 814,658 822,632 Z M512,788 C360,788 236,664 236,512 C236,360 360,236 512,236 C664,236 788,360 788,512 C788,664 664,788 512,788 Z M696,504 C698,492 686,478 686,464 C686,456 682,452 680,444 C678,438 678,432 676,424 L674,424 C682,406 658,386 646,374 C632,360 624,342 604,334 C592,330 582,324 572,320 C562,316 552,314 542,310 C532,306 524,296 514,300 C500,304 496,310 482,306 C456,296 438,310 418,324 C408,332 398,338 390,346 C386,348 382,354 380,358 L368,370 C362,378 356,382 346,390 L334,402 C328,406 324,404 326,412 C326,422 332,432 332,444 L332,460 C334,466 336,470 338,476 C340,484 338,496 344,506 C348,514 356,524 362,532 C370,540 376,550 382,560 C388,566 402,574 402,582 C414,584 416,598 428,596 C434,596 438,596 444,598 C448,600 454,602 458,602 C468,604 476,592 486,590 C498,588 508,592 518,586 C538,574 548,554 548,532 C548,520 546,512 538,500 C534,492 536,480 528,474 C518,466 504,466 494,464 C484,462 468,460 460,466 C442,478 482,508 460,518 C438,528 424,502 418,482 C414,472 416,456 418,446 C418,442 418,436 420,432 C422,426 430,424 434,422 C442,416 448,408 456,402 C466,396 476,392 488,390 C500,388 514,388 526,388 C532,388 536,390 542,390 C548,390 552,388 560,388 C568,388 566,390 566,398 C566,402 568,406 572,410 C578,418 584,428 592,436 C606,452 604,480 602,502 C602,514 602,524 606,536 C610,548 600,548 592,556 C584,562 582,572 576,580 C568,588 562,594 552,602 C544,608 538,614 530,620 C520,624 510,630 500,634 C488,640 476,642 464,646 C458,646 452,648 446,652 C442,654 440,660 434,662 C420,672 404,668 390,676 C380,680 352,682 352,692 L350,692 C356,700 362,708 372,710 C382,710 392,714 402,718 C410,720 420,724 430,724 C440,726 448,730 458,732 C472,734 478,724 490,722 C500,720 512,722 524,720 C534,718 544,716 556,712 C566,710 576,708 586,704 C594,702 606,696 614,692 C622,686 622,674 632,670 C640,664 648,658 654,652 C660,646 662,632 664,624 C668,614 674,608 680,600 C686,590 688,580 690,570 C692,562 696,548 694,540 C694,534 688,532 690,524 C692,512 696,510 696,504 Z"></path>
  </g>
</svg>