<?xml version="1.0" standalone="no"?>
<!DOCTYPE svg PUBLIC "-//W3C//DTD SVG 1.1//EN" "http://www.w3.org/Graphics/SVG/1.1/DTD/svg11.dtd" >
<svg xmlns="http://www.w3.org/2000/svg" xmlns:xlink="http://www.w3.org/1999/xlink" version="1.1" viewBox="-10 0 1045 1024">
   <path fill="currentColor"
d="M204 523c-14 -2 -26 -6 -38 -8c-34 -10 -66 -26 -94 -48c-34 -30 -56 -68 -66 -112c-20 -80 16 -168 90 -212c24 -14 50 -24 78 -30c34 -4 68 0 102 14c6 2 12 6 18 8c2 2 4 2 6 4c0 -8 -2 -16 -2 -26c-4 -42 0 -86 18 -124c26 -54 64 -94 122 -110c80 -24 150 -4 210 56
c28 32 46 70 50 112c2 18 2 38 -2 56c0 0 -2 2 -2 4v4c2 -2 4 -2 6 -4c24 -12 50 -20 78 -26c80 -16 160 16 206 78c14 18 26 40 32 64c4 18 10 40 8 60c-4 64 -30 116 -82 156c-18 12 -36 24 -56 30l-36 6c-2 0 -4 2 -6 2c4 2 6 4 8 6c20 24 40 46 52 74
c26 56 28 114 6 170c-30 66 -80 106 -152 120c-78 12 -142 -16 -192 -78c-6 -8 -12 -18 -18 -28c-2 -2 -4 -6 -6 -12c-2 4 -4 8 -4 10c-16 28 -34 54 -58 76c-30 28 -66 46 -106 52c-92 18 -174 -36 -210 -102c-12 -24 -20 -48 -22 -76s0 -56 10 -84c8 -28 24 -52 44 -72
c2 -2 4 -6 8 -10zM494 421v0c-2 2 -2 4 -4 6c-34 32 -74 56 -118 76c-46 20 -96 28 -146 22h-10c2 2 2 4 4 6c8 12 18 22 28 32c14 10 30 20 46 28c38 14 78 18 120 10c20 -2 38 -10 54 -22c28 -22 48 -50 58 -84c6 -20 8 -42 6 -64c0 -2 0 -2 2 -4c0 2 2 4 2 4
c12 24 22 50 28 78c6 22 8 46 10 70c2 20 2 38 -2 58c-4 28 -12 54 -24 80c0 2 0 4 -2 6l2 2c10 -6 22 -10 32 -16c28 -12 50 -34 68 -60c16 -26 26 -52 32 -82c4 -22 4 -44 -2 -64c-8 -24 -20 -44 -36 -62c-22 -22 -50 -40 -82 -48c-2 0 -2 -2 -4 -2c10 -2 22 -4 34 -6
c34 -2 66 2 100 8c20 6 42 10 60 18c30 14 56 32 82 54c2 2 4 2 6 4h2c-2 -12 -2 -24 -4 -36c-4 -26 -14 -48 -28 -70c-22 -32 -50 -56 -86 -72c-20 -10 -44 -16 -68 -14c-26 4 -50 12 -74 26c-20 14 -40 32 -54 54c0 2 -2 2 -2 4l-2 -2c4 -14 6 -28 10 -44
c10 -34 26 -64 44 -94c10 -18 24 -36 38 -52c20 -20 42 -36 66 -50c2 0 4 -2 6 -4v-2c-8 -2 -18 -4 -26 -6c-26 -6 -50 -4 -76 2c-34 10 -64 26 -92 50s-44 54 -48 92c-2 24 2 50 10 74c6 18 18 34 30 50c2 2 4 4 4 6h-2s-2 0 -4 -2c-32 -16 -60 -36 -84 -60
c-22 -20 -42 -44 -58 -70c-18 -28 -30 -60 -36 -94c0 -2 -2 -4 -2 -8c-14 22 -26 40 -32 62c-6 24 -8 48 -4 72c2 24 10 48 20 70c20 46 58 70 104 80c12 4 24 2 38 4c20 0 40 -4 60 -14h6z" />
</svg>
