<?xml version="1.0" encoding="UTF-8"?>
<svg width="1025px" height="1003px" viewBox="0 0 1025 1003" version="1.1" xmlns="http://www.w3.org/2000/svg" xmlns:xlink="http://www.w3.org/1999/xlink">
  <g id="Hellocoton" transform="translate(0.5455, 0.6075)" fill="currentColor" fill-rule="nonzero">
    <path d="M203.464323,653.900871 C189.464323,651.900871 177.464323,647.900871 165.464323,645.900871 C131.464323,635.900871 99.4643231,619.900871 71.4643231,597.900871 C37.4643231,567.900871 15.4643231,529.900871 5.4643231,485.900871 C-14.5356769,405.900871 21.4643231,317.900871 95.4643231,273.900871 C119.464323,259.900871 145.464323,249.900871 173.464323,243.900871 C207.464323,239.900871 241.464323,243.900871 275.464323,257.900871 C281.464323,259.900871 287.464323,263.900871 293.464323,265.900871 C295.464323,267.900871 297.464323,267.900871 299.464323,269.900871 C299.464323,261.900871 297.464323,253.900871 297.464323,243.900871 C293.464323,201.900871 297.464323,157.900871 315.464323,119.900871 C341.464323,65.9008712 379.464323,25.9008712 437.464323,9.90087118 C517.464323,-14.0991288 587.464323,5.90087118 647.464323,65.9008712 C675.464323,97.9008712 693.464323,135.900871 697.464323,177.900871 C699.464323,195.900871 699.464323,215.900871 695.464323,233.900871 C695.464323,233.900871 693.464323,235.900871 693.464323,237.900871 L693.464323,241.900871 C695.464323,239.900871 697.464323,239.900871 699.464323,237.900871 C723.464323,225.900871 749.464323,217.900871 777.464323,211.900871 C857.464323,195.900871 937.464323,227.900871 983.464323,289.900871 C997.464323,307.900871 1009.46432,329.900871 1015.46432,353.900871 C1019.46432,371.900871 1025.46432,393.900871 1023.46432,413.900871 C1019.46432,477.900871 993.464323,529.900871 941.464323,569.900871 C923.464323,581.900871 905.464323,593.900871 885.464323,599.900871 L849.464323,605.900871 C847.464323,605.900871 845.464323,607.900871 843.464323,607.900871 C847.464323,609.900871 849.464323,611.900871 851.464323,613.900871 C871.464323,637.900871 891.464323,659.900871 903.464323,687.900871 C929.464323,743.900871 931.464323,801.900871 909.464323,857.900871 C879.464323,923.900871 829.464323,963.900871 757.464323,977.900871 C679.464323,989.900871 615.464323,961.900871 565.464323,899.900871 C559.464323,891.900871 553.464323,881.900871 547.464323,871.900871 C545.464323,869.900871 543.464323,865.900871 541.464323,859.900871 C539.464323,863.900871 537.464323,867.900871 537.464323,869.900871 C521.464323,897.900871 503.464323,923.900871 479.464323,945.900871 C449.464323,973.900871 413.464323,991.900871 373.464323,997.900871 C281.464323,1015.90087 199.464323,961.900871 163.464323,895.900871 C151.464323,871.900871 143.464323,847.900871 141.464323,819.900871 C139.464323,791.900871 141.464323,763.900871 151.464323,735.900871 C159.464323,707.900871 175.464323,683.900871 195.464323,663.900871 C197.464323,661.900871 199.464323,657.900871 203.464323,653.900871 Z M493.464323,551.900871 L493.464323,551.900871 C491.464323,553.900871 491.464323,555.900871 489.464323,557.900871 C455.464323,589.900871 415.464323,613.900871 371.464323,633.900871 C325.464323,653.900871 275.464323,661.900871 225.464323,655.900871 L215.464323,655.900871 C217.464323,657.900871 217.464323,659.900871 219.464323,661.900871 C227.464323,673.900871 237.464323,683.900871 247.464323,693.900871 C261.464323,703.900871 277.464323,713.900871 293.464323,721.900871 C331.464323,735.900871 371.464323,739.900871 413.464323,731.900871 C433.464323,729.900871 451.464323,721.900871 467.464323,709.900871 C495.464323,687.900871 515.464323,659.900871 525.464323,625.900871 C531.464323,605.900871 533.464323,583.900871 531.464323,561.900871 C531.464323,559.900871 531.464323,559.900871 533.464323,557.900871 C533.464323,559.900871 535.464323,561.900871 535.464323,561.900871 C547.464323,585.900871 557.464323,611.900871 563.464323,639.900871 C569.464323,661.900871 571.464323,685.900871 573.464323,709.900871 C575.464323,729.900871 575.464323,747.900871 571.464323,767.900871 C567.464323,795.900871 559.464323,821.900871 547.464323,847.900871 C547.464323,849.900871 547.464323,851.900871 545.464323,853.900871 L547.464323,855.900871 C557.464323,849.900871 569.464323,845.900871 579.464323,839.900871 C607.464323,827.900871 629.464323,805.900871 647.464323,779.900871 C663.464323,753.900871 673.464323,727.900871 679.464323,697.900871 C683.464323,675.900871 683.464323,653.900871 677.464323,633.900871 C669.464323,609.900871 657.464323,589.900871 641.464323,571.900871 C619.464323,549.900871 591.464323,531.900871 559.464323,523.900871 C557.464323,523.900871 557.464323,521.900871 555.464323,521.900871 C565.464323,519.900871 577.464323,517.900871 589.464323,515.900871 C623.464323,513.900871 655.464323,517.900871 689.464323,523.900871 C709.464323,529.900871 731.464323,533.900871 749.464323,541.900871 C779.464323,555.900871 805.464323,573.900871 831.464323,595.900871 C833.464323,597.900871 835.464323,597.900871 837.464323,599.900871 L839.464323,599.900871 C837.464323,587.900871 837.464323,575.900871 835.464323,563.900871 C831.464323,537.900871 821.464323,515.900871 807.464323,493.900871 C785.464323,461.900871 757.464323,437.900871 721.464323,421.900871 C701.464323,411.900871 677.464323,405.900871 653.464323,407.900871 C627.464323,411.900871 603.464323,419.900871 579.464323,433.900871 C559.464323,447.900871 539.464323,465.900871 525.464323,487.900871 C525.464323,489.900871 523.464323,489.900871 523.464323,491.900871 L521.464323,489.900871 C525.464323,475.900871 527.464323,461.900871 531.464323,445.900871 C541.464323,411.900871 557.464323,381.900871 575.464323,351.900871 C585.464323,333.900871 599.464323,315.900871 613.464323,299.900871 C633.464323,279.900871 655.464323,263.900871 679.464323,249.900871 C681.464323,249.900871 683.464323,247.900871 685.464323,245.900871 L685.464323,243.900871 C677.464323,241.900871 667.464323,239.900871 659.464323,237.900871 C633.464323,231.900871 609.464323,233.900871 583.464323,239.900871 C549.464323,249.900871 519.464323,265.900871 491.464323,289.900871 C463.464323,313.900871 447.464323,343.900871 443.464323,381.900871 C441.464323,405.900871 445.464323,431.900871 453.464323,455.900871 C459.464323,473.900871 471.464323,489.900871 483.464323,505.900871 C485.464323,507.900871 487.464323,509.900871 487.464323,511.900871 L485.464323,511.900871 C485.464323,511.900871 483.464323,511.900871 481.464323,509.900871 C449.464323,493.900871 421.464323,473.900871 397.464323,449.900871 C375.464323,429.900871 355.464323,405.900871 339.464323,379.900871 C321.464323,351.900871 309.464323,319.900871 303.464323,285.900871 C303.464323,283.900871 301.464323,281.900871 301.464323,277.900871 C287.464323,299.900871 275.464323,317.900871 269.464323,339.900871 C263.464323,363.900871 261.464323,387.900871 265.464323,411.900871 C267.464323,435.900871 275.464323,459.900871 285.464323,481.900871 C305.464323,527.900871 343.464323,551.900871 389.464323,561.900871 C401.464323,565.900871 413.464323,563.900871 427.464323,565.900871 C447.464323,565.900871 467.464323,561.900871 487.464323,551.900871 L493.464323,551.900871 Z"></path>
  </g>
</svg>