<?xml version="1.0" encoding="UTF-8"?>
<svg width="909px" height="1025px" viewBox="0 0 909 1025" version="1.1" xmlns="http://www.w3.org/2000/svg" xmlns:xlink="http://www.w3.org/1999/xlink">
  <g id="Heroes" transform="translate(0.2459, 0.711)" fill="currentColor" fill-rule="nonzero">
    <path d="M454,0 L0,256 L0,768 L454,1024 L908,768 L908,256 L454,0 Z M66,450 C92,190 306,144 306,144 C22,448 354,660 354,660 L126,710 C52,604 66,450 66,450 Z M354,512 C354,456 398,410 454,410 C510,410 554,456 554,512 C554,568 510,614 454,614 C398,614 354,568 354,512 Z M602,866 C364,970 220,804 220,804 C620,908 640,508 640,508 L796,686 C740,804 602,866 602,866 Z M834,562 C712,162 366,352 366,352 L434,124 C564,110 686,198 686,198 C898,350 834,562 834,562 Z"></path>
  </g>
</svg>