<?xml version="1.0" encoding="UTF-8"?>
<svg width="24px" height="24px" viewBox="0 0 24 24" version="1.1" xmlns="http://www.w3.org/2000/svg" xmlns:xlink="http://www.w3.org/1999/xlink">
    <title>Hipolink</title>
    <g id="Hipolink" stroke="none" stroke-width="1" fill="none" fill-rule="evenodd">
        <path d="M17.784,14.792 C19.503,14.09 20.706,12.469 20.706,10.582 C20.706,8.051 18.544,6 15.877,6 L10.485,6 C8.449,6 6.698,7.156 5.922,8.814 C4.203,9.516 3,11.137 3,13.024 C3,15.554 5.162,17.606 7.829,17.606 L13.221,17.606 C15.257,17.606 17.008,16.45 17.784,14.792 M5.495,10.734 C5.495,10.051 5.647,9.401 5.922,8.814 C6.52736532,8.56718301 7.17525736,8.44147769 7.829,8.44396278 L18.211,8.44396278 L18.211,12.872 C18.211,13.555 18.058,14.205 17.784,14.792 C17.1786347,15.038817 16.5307426,15.1645223 15.877,15.1620372 L5.495,15.1620372 L5.495,10.734 Z" id="Shape" fill="currentColor"></path>
    </g>
</svg>