<?xml version="1.0" standalone="no"?>
<!DOCTYPE svg PUBLIC "-//W3C//DTD SVG 1.1//EN" "http://www.w3.org/Graphics/SVG/1.1/DTD/svg11.dtd" >
<svg xmlns="http://www.w3.org/2000/svg" xmlns:xlink="http://www.w3.org/1999/xlink" version="1.1" viewBox="-10 0 1034 1024">
   <path fill="currentColor"
d="M869.96 309.417v2.04785v2.04785c-4.0957 99.3281 -2.04785 484.353 -2.04785 504.832c0 46.0801 -34.8164 82.9443 -67.584 54.2725l-297.984 -235.521c-67.584 70.6562 -135.168 141.312 -203.775 209.92c-41.9844 39.9365 -75.7764 -56.3193 -45.0566 -76.7998
c3.07227 -2.04785 95.2324 -82.9434 196.608 -173.056l-220.16 -174.08c-19.4561 -15.3604 -26.624 -39.9365 -15.3604 -54.2725c4.09668 -4.0957 9.2168 -5.11914 14.3359 -5.11914c2.04883 0 5.12012 1.02344 7.16797 2.04785
c67.585 30.7197 168.961 106.496 269.312 184.319c104.448 -92.1592 204.8 -179.199 218.112 -186.367c16.3838 -9.2168 20.4795 15.3594 15.3594 21.5039c-5.12012 7.16797 -92.1602 99.3281 -188.416 199.68c94.208 73.7275 183.296 144.384 239.616 176.128
l9.21582 -453.632c-7.16797 -7.16797 -227.328 -304.128 -250.88 -329.729c-37.8877 33.792 -237.567 261.12 -247.808 270.336c45.0557 5.12012 238.592 16.3848 360.448 29.6963c30.7197 3.07227 51.1992 25.6006 -14.3369 25.6006l-474.111 -1.02441
c-7.16797 0 -14.3359 -5.12012 -16.3838 -11.2637c-3.07227 -7.16797 -1.02441 -14.3359 4.0957 -19.4561c2.04785 -2.04785 342.016 -380.929 370.688 -404.48c5.12012 -5.12012 13.3125 -8.19141 20.4805 -8.19141c8.19238 1.02344 15.3604 4.0957 20.4795 9.21582
c4.09668 4.0957 183.297 253.952 271.36 375.808c20.4805 28.6719 26.624 48.1279 26.624 63.4883v2.04785z" />
</svg>
