<?xml version="1.0" standalone="no"?>
<!DOCTYPE svg PUBLIC "-//W3C//DTD SVG 1.1//EN" "http://www.w3.org/Graphics/SVG/1.1/DTD/svg11.dtd" >
<svg xmlns="http://www.w3.org/2000/svg" xmlns:xlink="http://www.w3.org/1999/xlink" version="1.1" viewBox="-10 0 1034 1024">
   <path fill="currentColor"
d="M103.424 473.4v-193.536c0 -10.2402 0 -10.2402 -9.21582 -15.3604c-12.2881 -7.16797 -25.5996 -13.3115 -37.8877 -20.4795c-4.09668 -1.02441 -5.12012 -3.07227 -5.12012 -7.16797v-102.4c0 -6.14453 0 -6.14453 6.14355 -3.07227
c11.2646 6.14453 23.5527 11.2646 34.8164 17.4082c30.7197 15.3604 61.4395 30.7197 92.1602 47.1045c65.5361 32.7676 130.048 65.5352 195.584 99.3271c17.4072 8.19238 33.792 17.4082 51.1992 26.624c6.14453 3.07227 6.14453 3.07227 10.2402 -2.04785
c40.96 -45.0557 81.9199 -91.1357 123.904 -136.191c36.8643 -40.96 74.752 -81.9199 111.616 -122.881l3.07129 -3.07129c4.09668 -4.09668 4.09668 -4.09668 9.2168 -1.02441c15.3594 8.19238 31.7441 15.3604 47.1035 23.5518
c39.9365 20.4805 79.8721 39.9365 119.809 60.416c36.8633 18.4326 74.752 37.8887 111.615 56.3203c4.09668 2.04785 6.14453 5.12012 6.14453 10.2402v98.3037v1.02441c0 5.12012 0 6.14355 -6.14453 3.07129c-11.2637 -6.14355 -22.5273 -11.2637 -34.8154 -17.4072
c-2.04785 -1.02441 -4.09668 -2.04883 -6.14453 -3.07227c-4.0957 -1.02441 -5.12012 -1.02441 -5.12012 3.07227v7.16797v368.64v6.14355c1.02441 5.12012 -2.04785 7.16895 -6.14355 9.2168l-86.0156 43.0078c-78.8486 39.9355 -157.696 79.8721 -236.544 119.808
c-24.5762 12.2881 -49.1523 24.5762 -72.7041 36.8643c-5.12012 3.07227 -9.2168 3.07227 -15.3604 0c-66.5596 -33.792 -134.144 -67.584 -200.704 -101.376c-64.5117 -32.7676 -128 -64.5117 -192.512 -97.2803c-2.04785 -1.02344 -3.07227 -2.04785 -5.12012 -2.04785
c-2.04785 -1.02344 -3.07227 -3.07227 -3.07227 -5.12012v-6.14355v-197.632zM748.544 468.28c1.02441 2.04785 1.02441 5.12012 1.02441 7.16797v167.936c0 8.19238 1.02344 9.21582 8.19141 5.12012c27.6484 -13.3115 54.2725 -27.6475 81.9199 -40.96
c1.02441 0 1.02441 -1.02441 2.04785 -1.02441c4.09668 -2.04785 6.14453 -4.0957 6.14453 -9.21582v-6.14355v-189.44v-147.456c0 -6.14355 -2.04785 -9.21582 -7.16797 -12.2881c-41.9844 -21.5039 -83.9678 -43.0078 -125.952 -63.4873
c-1.02441 0 -2.04785 -1.02441 -3.07227 -1.02441c-4.0957 -1.02344 -5.12012 -1.02344 -7.16797 0c-1.02344 1.02441 -2.04785 2.04785 -3.07129 3.07227c-36.8643 39.9355 -73.7285 79.8721 -109.568 119.808c-41.9844 46.0801 -84.9922 93.1846 -126.976 139.265
c-5.12012 5.11914 -5.12012 5.11914 -11.2646 2.04785c-31.7441 -16.3838 -63.4883 -31.7441 -95.2314 -48.1279c-48.1279 -24.5762 -97.2803 -49.1523 -145.408 -73.7285c-10.2402 -5.12012 -10.2402 -5.12012 -10.2402 6.14453v278.527v5.12012
c0 3.07227 1.02441 5.12012 4.0957 6.14453c1.02441 1.02344 3.07227 1.02344 4.09668 2.04785c84.9912 43.0078 171.008 84.9922 256 128c12.2881 6.14355 25.5996 12.2881 37.8877 19.4561c5.12012 3.07129 9.21582 3.07129 14.3359 0
c12.2881 -6.14453 24.5762 -12.2881 36.8643 -18.4326l86.0156 -43.0078c5.12012 -2.04785 7.16797 -5.12012 6.14453 -10.2402v-6.14355v-164.864c0 -5.12012 2.04785 -8.19141 6.14355 -10.2402c28.6719 -14.3359 58.3682 -28.6719 87.04 -43.0078
c3.07227 0 5.12012 -2.04785 7.16797 -1.02344zM228.352 -7.87988v-53.248c0 -4.0957 1.02441 -8.19238 4.09668 -11.2637c19.4561 -21.5049 38.9121 -43.0088 59.3916 -65.5361c4.0957 -4.09668 4.0957 -4.09668 9.21582 -2.04785
c32.7686 16.3838 64.5127 32.7676 97.2803 49.1514c4.0957 2.04785 5.12012 4.09668 5.12012 8.19238v94.208c0 4.0957 -2.04785 7.16797 -4.0957 10.2402c-20.4805 22.5273 -40.96 46.0801 -61.4404 68.6074c-2.04785 2.04785 -4.0957 5.12012 -6.14355 7.16797
c-4.09668 4.09668 -4.09668 4.09668 -9.2168 2.04785c-13.3115 -6.14355 -25.5996 -13.3115 -38.9111 -19.4561c-16.3848 -8.19141 -31.7441 -16.3838 -48.1289 -23.5518c-5.11914 -2.04785 -6.14355 -5.12012 -6.14355 -10.2402
c-1.02441 -18.4316 -1.02441 -36.8633 -1.02441 -54.2715z" />
</svg>
