<?xml version="1.0" encoding="UTF-8"?>
<svg width="1026px" height="824px" viewBox="0 0 1026 824" version="1.1" xmlns="http://www.w3.org/2000/svg" xmlns:xlink="http://www.w3.org/1999/xlink">
  <g id="HomeAdvisor" transform="translate(0.1653, 0)" fill="currentColor" fill-rule="nonzero">
    <path d="M168.295867,471.03976 L168.295867,379.90406 C168.295867,365.56816 172.391567,354.30346 182.631767,344.06326 C248.167867,278.52806 313.703767,212.99226 379.239767,146.43126 C392.551267,133.11976 398.694867,143.35997 406.887267,150.52794 C485.734967,229.37564 565.607267,308.22294 643.431267,388.09494 C656.743767,401.40744 670.055267,408.57544 689.511367,407.55104 C736.615867,406.5276 784.743767,407.55104 831.847367,406.5276 C850.279967,406.5276 856.423567,412.67115 856.423567,431.1028 C855.399157,474.1116 856.423567,517.1194 856.423567,561.1518 C855.399157,608.2553 832.871767,629.7592 786.791767,629.7592 C762.215567,629.7592 736.615967,630.78361 712.039767,629.7592 C691.559267,628.73576 687.463567,636.92717 687.463567,656.3832 C688.487007,706.559 687.463567,756.7362 687.463567,806.9112 C687.463567,813.05475 690.535837,821.2471 683.367867,823.295 C677.223337,825.34285 674.151067,818.17488 670.055367,814.07918 C613.735067,759.80668 558.439367,704.51118 503.143367,648.19018 C490.855267,635.90308 479.591567,630.78298 462.183367,630.78298 C387.431367,631.80642 313.704367,630.78298 238.952367,630.78298 C191.847867,630.78298 169.319567,609.27908 168.296167,562.17458 C167.271757,532.47828 168.296167,501.75858 168.296167,471.03888 L168.295867,471.03976 Z M513.383867,1.02336 L663.911867,1.02336 C678.247767,1.02336 689.511467,5.12004 699.751667,15.36026 C804.199667,118.78426 909.671667,222.20826 1014.11967,326.65626 C1019.23979,330.75196 1028.45557,334.84767 1024.35897,343.04006 C1021.28768,349.18361 1013.09527,346.11233 1006.95177,346.11233 L708.967767,346.11233 C693.607367,346.11233 682.343767,340.99221 671.080067,330.75193 C584.040067,242.68743 495.976067,156.67193 408.935067,69.63193 C395.623567,56.32043 388.455567,53.24813 374.119667,68.60752 C288.103067,154.62412 200.039667,239.61652 114.022667,325.63152 C99.6867666,339.96742 85.3507666,347.13542 64.8712666,345.08762 C50.5353666,344.06321 35.1749666,345.08762 19.8146666,345.08762 C13.6711166,345.08762 3.43086656,348.15989 0.358566559,339.9675 C-1.68928344,333.82395 5.47868656,328.7038 10.5987666,324.6071 C26.9825666,308.2233 44.3907666,292.8639 60.7745666,276.4792 C147.814567,190.4636 234.854567,103.4232 321.894567,17.4082 C334.182667,5.1201 346.470767,0 362.854567,0 C414.054767,1.02344 463.207567,1.02344 513.382567,1.02344 L513.383867,1.02336 Z"></path>
  </g>
</svg>