<?xml version="1.0" encoding="UTF-8"?>
<svg width="923px" height="1028px" viewBox="0 0 923 1028" version="1.1" xmlns="http://www.w3.org/2000/svg" xmlns:xlink="http://www.w3.org/1999/xlink">
  <g id="Homes" transform="translate(0, 0.711)" fill="currentColor" fill-rule="nonzero">
    <path d="M52.22364,614.721382 L52.22364,421.185382 C52.22364,410.945182 52.22364,410.945182 43.00782,405.824982 C30.71972,398.657012 17.40822,392.513482 5.12012,385.345482 C1.02344,384.321072 0,382.273212 0,378.177512 L0,275.777512 C0,269.632982 0,269.632982 6.14355,272.705242 C17.40815,278.849772 29.69625,283.969842 40.95995,290.113442 C71.67965,305.473842 102.39945,320.833142 133.12015,337.217942 C198.65625,369.985542 263.16815,402.753142 328.70415,436.545042 C346.11135,444.737422 362.49615,453.953242 379.90335,463.169042 C386.04788,466.241312 386.04788,466.241312 390.14355,461.121192 C431.10355,416.065492 472.06345,369.985492 514.04755,324.930192 C550.91185,283.970192 588.79955,243.010292 625.66355,202.049192 L628.73484,198.977902 C632.83152,194.881222 632.83152,194.881222 637.95164,197.953492 C653.31104,206.145872 669.69574,213.313892 685.05514,221.505292 C724.99164,241.985792 764.92724,261.441792 804.86414,281.921292 C841.72744,300.353892 879.61614,319.809992 916.47914,338.241592 C920.57582,340.289442 922.62367,343.361712 922.62367,348.481792 L922.62367,446.785492 L922.62367,447.809902 C922.62367,452.930022 922.62367,453.953452 916.47914,450.881192 C905.21544,444.737642 893.95184,439.617492 881.66374,433.473992 C879.61589,432.449582 877.56706,431.425162 875.51921,430.401722 C871.42351,429.377312 870.39909,429.377312 870.39909,433.473992 L870.39909,440.641962 L870.39909,809.281962 L870.39909,815.425512 C871.4235,820.545632 868.35124,822.594462 864.25554,824.642312 L778.23994,867.650112 C699.39134,907.585612 620.54394,947.522212 541.69594,987.458112 C517.11974,999.746212 492.54364,1012.03431 468.99184,1024.32241 C463.87172,1027.39468 459.77504,1027.39468 453.63144,1024.32241 C387.07184,990.530412 319.48744,956.738412 252.92744,922.946412 C188.41574,890.178812 124.92744,858.434712 60.41544,825.666112 C58.36759,824.642672 57.34317,823.618262 55.29532,823.618262 C53.24747,822.594822 52.22305,820.545992 52.22305,818.498142 L52.22305,812.354592 L52.22305,614.722592 L52.22364,614.721382 Z M697.34364,609.601382 C698.36805,611.649232 698.36805,614.721502 698.36805,616.769352 L698.36805,784.705352 C698.36805,792.897732 699.39149,793.921172 706.55946,789.825472 C734.20786,776.513972 760.83196,762.177972 788.47936,748.865472 C789.50377,748.865472 789.50377,747.841062 790.52721,747.841062 C794.62389,745.793212 796.67174,743.745362 796.67174,738.625242 L796.67174,732.481692 L796.67174,543.041692 L796.67174,395.585692 C796.67174,389.442142 794.62389,386.369872 789.50377,383.297592 C747.51937,361.793692 705.53597,340.289792 663.55177,319.810292 C662.52736,319.810292 661.50392,318.785882 660.4795,318.785882 C656.3838,317.762442 655.35938,317.762442 653.31153,318.785882 C652.28809,319.810292 651.26368,320.833732 650.24024,321.858152 C613.37594,361.793652 576.51174,401.730252 540.67224,441.666152 C498.68784,487.746252 455.68004,534.850752 413.69624,580.931152 C408.57612,586.050292 408.57612,586.050292 402.43164,582.979002 C370.68754,566.595202 338.94334,551.234902 307.20024,534.851102 C259.07234,510.274902 209.91994,485.698802 161.79224,461.122602 C151.55204,456.002482 151.55204,456.002482 151.55204,467.267132 L151.55204,745.794132 L151.55204,750.914252 C151.55204,753.986522 152.57645,756.034372 155.64774,757.058782 C156.67215,758.082222 158.72001,758.082222 159.74442,759.106632 C244.73562,802.114432 330.75242,844.098832 415.74442,887.106632 C428.03252,893.250182 441.34402,899.394732 453.63212,906.562732 C458.75224,909.634022 462.84794,909.634022 467.96802,906.562732 C480.25612,900.418202 492.54422,894.274632 504.83232,888.130132 L590.84792,845.122332 C595.96804,843.074482 598.01589,840.002212 596.99245,834.882132 L596.99245,828.738582 L596.99245,663.874582 C596.99245,658.754462 599.0403,655.683172 603.136,653.634382 C631.8079,639.298482 661.5042,624.962482 690.176,610.626582 C693.24827,610.626582 695.29612,608.578732 697.34397,609.603142 L697.34364,609.601382 Z M177.15164,133.441502 L177.15164,80.1935023 C177.15164,76.0978023 178.17605,72.0011223 181.24832,68.9298023 C200.70442,47.4249023 220.16042,25.9210023 240.63992,3.39370235 C244.73562,-0.702977654 244.73562,-0.702977654 249.85574,1.34585235 C282.62434,17.7296523 314.36844,34.1134523 347.13604,50.4972523 C351.23174,52.5451023 352.25616,54.5939323 352.25616,58.6896323 L352.25616,152.897632 C352.25616,156.993332 350.20831,160.065602 348.16046,163.137832 C327.67996,185.665132 307.20046,209.217932 286.72006,231.745232 C284.67221,233.793082 282.62436,236.865352 280.57651,238.913202 C276.47983,243.009882 276.47983,243.009882 271.35971,240.961052 C258.04821,234.817502 245.76011,227.649552 232.44861,221.504952 C216.06381,213.313542 200.70451,205.121152 184.31971,197.953152 C179.20057,195.905302 178.17616,192.833032 178.17616,187.712952 C177.15164,169.281352 177.15164,150.849652 177.15164,133.441452 L177.15164,133.441502 Z"></path>
  </g>
</svg>