<?xml version="1.0" standalone="no"?>
<!DOCTYPE svg PUBLIC "-//W3C//DTD SVG 1.1//EN" "http://www.w3.org/Graphics/SVG/1.1/DTD/svg11.dtd" >
<svg xmlns="http://www.w3.org/2000/svg" xmlns:xlink="http://www.w3.org/1999/xlink" version="1.1" viewBox="-12 0 1046 1024">
   <path fill="currentColor"
d="M166.912 429.368v-91.1357c0 -14.3359 4.0957 -25.6006 14.3359 -35.8408c65.5361 -65.5352 131.072 -131.071 196.608 -197.632c13.3115 -13.3115 19.4551 -3.07129 27.6475 4.09668c78.8477 78.8477 158.72 157.695 236.544 237.567
c13.3125 13.3125 26.624 20.4805 46.0801 19.4561c47.1045 -1.02344 95.2324 0 142.336 -1.02344c18.4326 0 24.5762 6.14355 24.5762 24.5752c-1.02441 43.0088 0 86.0166 0 130.049c-1.02441 47.1035 -23.5518 68.6074 -69.6318 68.6074
c-24.5762 0 -50.1758 1.02441 -74.752 0c-20.4805 -1.02344 -24.5762 7.16797 -24.5762 26.624c1.02344 50.1758 0 100.353 0 150.528c0 6.14355 3.07227 14.3359 -4.0957 16.3838c-6.14453 2.04785 -9.2168 -5.12012 -13.3125 -9.21582
c-56.3203 -54.2725 -111.616 -109.568 -166.912 -165.889c-12.2881 -12.2871 -23.5518 -17.4072 -40.96 -17.4072c-74.752 1.02344 -148.479 0 -223.231 0c-47.1045 0 -69.6328 -21.5039 -70.6562 -68.6084c-1.02441 -29.6963 0 -60.416 0 -91.1357zM512 -40.6484h150.528
c14.3359 0 25.5996 4.09668 35.8398 14.3369c104.448 103.424 209.92 206.848 314.368 311.296c5.12012 4.0957 14.3359 8.19141 10.2393 16.3838c-3.07129 6.14355 -11.2637 3.07227 -17.4072 3.07227h-297.984c-15.3604 0 -26.624 -5.12012 -37.8877 -15.3604
c-87.04 -88.0645 -175.104 -174.08 -262.145 -261.12c-13.3115 -13.3115 -20.4795 -16.3838 -34.8154 -1.02441c-86.0166 86.0166 -174.08 171.009 -260.097 257.024c-14.3359 14.3359 -28.6719 21.5039 -49.1514 19.4561c-14.3359 -1.02441 -29.6963 0 -45.0566 0
c-6.14355 0 -16.3838 3.07227 -19.4561 -5.12012c-2.04785 -6.14355 5.12012 -11.2637 10.2402 -15.3604c16.3838 -16.3838 33.792 -31.7432 50.1758 -48.1279c87.04 -86.0156 174.08 -173.056 261.12 -259.071c12.2881 -12.2881 24.5762 -17.4082 40.96 -17.4082
c51.2002 1.02344 100.353 1.02344 150.528 1.02344z" />
</svg>
