<?xml version="1.0" encoding="UTF-8"?>
<svg width="717px" height="1025px" viewBox="0 0 717 1025" version="1.1" xmlns="http://www.w3.org/2000/svg" xmlns:xlink="http://www.w3.org/1999/xlink">
  <g id="Homefy" transform="translate(0.8771, 0.4253)" fill="currentColor" fill-rule="nonzero">
    <path d="M715.172045,450.56021 L715.172045,452.60806 L715.172045,454.65591 C711.076345,553.98401 713.124195,939.00891 713.124195,959.48791 C713.124195,1005.56801 678.307795,1042.43221 645.540195,1013.76041 L347.556195,778.23941 C279.972195,848.89561 212.388195,919.55141 143.781195,988.15941 C101.796795,1028.09591 68.0047945,931.84011 98.7245945,911.35961 C101.796865,909.31176 193.956995,828.41621 295.332595,738.30361 L75.1725945,564.22361 C55.7164945,548.86321 48.5485945,524.28711 59.8121945,509.95111 C63.9088745,505.85541 69.0289945,504.83197 74.1480945,504.83197 C76.1969245,504.83197 79.2682145,505.85541 81.3160645,506.87982 C148.901065,537.59952 250.277065,613.37582 350.628065,691.19882 C455.076065,599.03962 555.428065,511.99982 568.740065,504.83182 C585.123865,495.61502 589.219565,520.19122 584.099465,526.33572 C578.979345,533.50369 491.939265,625.66382 395.683465,726.01572 C489.891465,799.74322 578.979465,870.39972 635.299465,902.14372 L644.515285,448.51172 C637.347315,441.34375 417.187285,144.38372 393.635285,118.78272 C355.747585,152.57472 156.068285,379.90272 145.827285,389.11872 C190.882985,394.23884 384.419285,405.50352 506.275285,418.81502 C536.994985,421.88729 557.474485,444.41562 491.938385,444.41562 L17.8273845,443.39121 C10.6594145,443.39121 3.49148455,438.27109 1.44358455,432.12751 C-1.62868545,424.95954 0.419174548,417.79161 5.53928455,412.67141 C7.58713455,410.62356 347.555285,31.74241 376.227285,8.19141 C381.347405,3.07129 389.539785,2.84217094e-14 396.707785,2.84217094e-14 C404.900165,1.02344 412.068185,4.0957 417.187285,9.21582 C421.283965,13.31152 600.484285,263.16782 688.547285,385.02382 C709.027785,413.69572 715.172045,433.15172 715.172045,448.51212 L715.172045,450.55997 L715.172045,450.56021 Z"></path>
  </g>
</svg>