<?xml version="1.0" standalone="no"?>
<!DOCTYPE svg PUBLIC "-//W3C//DTD SVG 1.1//EN" "http://www.w3.org/Graphics/SVG/1.1/DTD/svg11.dtd" >
<svg xmlns="http://www.w3.org/2000/svg" xmlns:xlink="http://www.w3.org/1999/xlink" version="1.1" viewBox="-10 0 1034 1024">
   <path fill="currentColor"
d="M690 283c2 -110 100 -128 100 -136c0 -14 -88 -122 -88 -122c0 -168 -14 -70 -78 -68c-22 -28 -124 -98 -124 -98s-90 70 -114 98c-70 10 -78 -122 -78 68c0 0 -88 104 -88 128c0 10 102 12 102 122c-58 6 -84 -30 -112 -50c6 44 52 142 94 162c16 -32 58 -76 100 24
c40 98 2 136 -56 80c-2 40 62 172 102 202c12 -12 38 -112 36 -130c-4 -14 -26 -186 -52 -208c-48 -40 -160 -260 68 -340c228 80 122 294 76 338c-44 42 -42 476 -32 530c32 -30 14 -168 102 -258c-26 2 -106 -10 -46 -180c52 -142 90 -96 118 -34c22 -16 90 -146 94 -190
c-28 18 -64 70 -124 62zM572 189c-10 -26 -66 -78 -66 -78l-8 6c-32 42 -38 34 -62 74c-8 10 8 16 30 52c30 48 36 90 36 90l6 -8c14 -16 18 -44 34 -72c14 -26 34 -50 30 -64z" />
</svg>
