<?xml version="1.0" encoding="UTF-8"?>
<svg width="605px" height="1025px" viewBox="0 0 605 1025" version="1.1" xmlns="http://www.w3.org/2000/svg" xmlns:xlink="http://www.w3.org/1999/xlink">
  <g id="Horde" transform="translate(0.7985, 0.4253)" fill="currentColor" fill-rule="nonzero">
    <path d="M480,424 C482,314 580,296 580,288 C580,274 492,166 492,166 C492,-2 478,96 414,98 C392,70 290,0 290,0 C290,0 200,70 176,98 C106,108 98,-24 98,166 C98,166 10,270 10,294 C10,304 112,306 112,416 C54,422 28,386 0,366 C6,410 52,508 94,528 C110,496 152,452 194,552 C234,650 196,688 138,632 C136,672 200,804 240,834 C252,822 278,722 276,704 C272,690 250,518 224,496 C176,456 64,236 292,156 C520,236 414,450 368,494 C324,536 326,970 336,1024 C368,994 350,856 438,766 C412,768 332,756 392,586 C444,444 482,490 510,552 C532,536 600,406 604,362 C576,380 540,432 480,424 Z M362,330 C352,304 296,252 296,252 L288,258 C256,300 250,292 226,332 C218,342 234,348 256,384 C286,432 292,474 292,474 L298,466 C312,450 316,422 332,394 C346,368 366,344 362,330 Z"></path>
  </g>
</svg>