<?xml version="1.0" encoding="UTF-8"?>
<svg width="512px" height="512px" viewBox="0 0 512 512" version="1.1" xmlns="http://www.w3.org/2000/svg" xmlns:xlink="http://www.w3.org/1999/xlink">
    <g id="Hypixel" stroke="none" stroke-width="1" fill="none" fill-rule="evenodd">
        <path d="M372.092773,34.414928 C331.368164,89.845592 329.576172,129.58485 329.576172,318.476451 L344.414063,323.58778 C326.092448,368.918509 298.712891,397.222871 262.275391,408.500865 L262.06786,324.386086 C262.05255,314.638485 262.043558,305.920248 262.040886,298.231375 L262.056792,275.765835 L262.097783,264.92097 C262.137005,258.411734 262.196207,255.157115 262.275391,255.157115 L258.312452,255.061354 C255.154219,254.991673 252.609456,254.95388 250.678163,254.947975 L249.668336,254.947975 C247.301555,254.956176 246.118164,255.02589 246.118164,255.157115 L246.118164,478.184459 C213.326497,457.846569 185.513997,416.4911 162.680664,354.118053 L176.71582,347.586803 L176.71582,187.23524 C176.71582,132.814342 173.430741,134.04284 139,119.851451 C156.065452,102.325858 197.017862,74.7142939 245.668239,55.3397214 L245.668945,196.255748 L262.668945,196.255748 L262.667292,49.0328725 C298.1288,36.850047 336.505982,29.8246603 372.092773,34.414928 Z M349.833336,48.336803 C325.942768,48.336803 299.888346,53.3007883 271.669742,63.2287588 L271.668945,204.255748 L236.668945,204.255748 L236.66972,77.570944 L231.255562,79.7516758 C211.093889,87.9205811 197.077617,94.411217 166.109375,116.930553 C179.830078,124.930553 187.734375,140.083873 187.734375,165.677623 L187.734375,354.030162 L179.830078,361.002819 C190.859375,396.666881 209.850586,426.645397 236.797768,450.933529 L236.783572,450.881466 C236.632426,450.012551 236.541494,439.191645 236.510776,418.418746 L236.508822,380.900069 C236.519082,369.748104 236.5374,357.264371 236.563776,343.44887 L236.803711,249.507701 L271.020508,249.507701 L271.020508,393.305553 C296.38444,377.495006 314.955404,356.541556 326.733398,330.445201 L319.553711,327.202037 L319.553711,187.214733 L319.558796,183.241391 C319.727255,119.112365 324.195104,92.2884631 349.833336,48.336803 Z" id="Shape" fill="currentColor"></path>
    </g>
</svg>