<?xml version="1.0" encoding="UTF-8"?>
<svg width="1006px" height="1025px" viewBox="0 0 1006 1025" version="1.1" xmlns="http://www.w3.org/2000/svg" xmlns:xlink="http://www.w3.org/1999/xlink">
  <g id="Icq" transform="translate(0.569, 0.6137)" fill="currentColor" fill-rule="nonzero">
    <path d="M984.666667,562.157047 L978.666667,550.157047 C966.666667,534.157047 954.666667,516.157047 938.666667,504.157047 C922.666667,494.157047 906.666667,488.157047 890.666667,480.157047 C934.666667,458.157047 966.666667,428.157047 980.666667,388.157047 C990.666667,358.157047 988.666667,332.157047 974.666667,306.157047 L974.666667,302.157047 C956.666667,274.157047 932.666667,254.157047 896.666667,244.157047 C876.666667,240.157047 850.666667,240.157047 828.666667,242.157047 L782.666667,252.157047 L798.666667,216.157047 C812.666667,170.157047 808.666667,124.157047 782.666667,82.1570465 L778.666667,76.1570465 C756.666667,40.1570465 724.666667,18.1570465 682.666667,6.15704654 C636.666667,-5.84295346 596.666667,0.157046541 554.666667,20.1570465 C514.666667,42.1570465 486.666667,76.1570465 472.666667,118.157047 L472.666667,122.157047 L470.666667,132.157047 L466.666667,122.157047 L450.666667,96.1570465 C428.666667,60.1570465 398.666667,38.1570465 362.666667,28.1570465 C330.666667,20.1570465 304.666667,24.1570465 278.666667,38.1570465 C248.666667,56.1570465 230.666667,86.1570465 222.666667,126.157047 C216.666667,168.157047 222.666667,208.157047 244.666667,248.157047 L254.666667,264.157047 L220.666667,252.157047 C176.666667,242.157047 136.666667,248.157047 96.6666667,270.157047 C54.6666667,290.157047 28.6666667,322.157047 10.6666667,362.157047 C-5.33333333,404.157047 -3.33333333,442.157047 16.6666667,478.157047 C24.6666667,494.157047 38.6666667,508.157047 50.6666667,516.157047 C66.6666667,534.157047 88.6666667,544.157047 114.666667,548.157047 L124.666667,550.157047 L102.666667,570.157047 C82.6666667,586.157047 70.6666667,608.157047 64.6666667,630.157047 C56.6666667,656.157047 60.6666667,682.157047 74.6666667,706.157047 C82.6666667,718.157047 88.6666667,728.157047 100.666667,736.157047 C112.666667,746.157047 126.666667,752.157047 144.666667,754.157047 C174.666667,762.157047 208.666667,762.157047 244.666667,750.157047 L218.666667,794.157047 L210.666667,812.157047 C196.666667,858.157047 200.666667,898.157047 222.666667,940.157047 C232.666667,956.157047 244.666667,970.157047 256.666667,984.157047 C274.666667,1000.15705 294.666667,1010.15705 320.666667,1016.15705 C364.666667,1028.15705 408.666667,1026.15705 450.666667,1006.15705 C490.666667,984.157047 516.666667,948.157047 528.666667,906.157047 L530.666667,898.157047 C558.666667,928.157047 584.666667,948.157047 612.666667,954.157047 C642.666667,964.157047 670.666667,962.157047 696.666667,944.157047 C720.666667,930.157047 738.666667,906.157047 746.666667,876.157047 C754.666667,844.157047 754.666667,812.157047 746.666667,776.157047 C762.666667,786.157047 776.666667,794.157047 792.666667,798.157047 C838.666667,812.157047 880.666667,810.157047 920.666667,788.157047 C958.666667,768.157047 984.666667,732.157047 998.666667,688.157047 C1010.66667,644.157047 1006.66667,602.157047 984.666667,562.157047 Z M776.666667,322.157047 L792.666667,314.157047 C818.666667,302.157047 844.666667,300.157047 870.666667,302.157047 C894.666667,306.157047 912.666667,316.157047 920.666667,334.157047 L926.666667,352.157047 L922.666667,368.157047 C912.666667,394.157047 890.666667,414.157047 854.666667,430.157047 C840.666667,436.157047 824.666667,440.157047 808.666667,442.157047 L630.666667,464.157047 L626.666667,454.157047 L624.666667,450.157047 L630.666667,442.157047 L776.666667,322.157047 Z M530.666667,140.157047 C538.666667,110.157047 558.666667,88.1570465 584.666667,74.1570465 C610.666667,60.1570465 638.666667,56.1570465 666.666667,66.1570465 C696.666667,74.1570465 718.666667,90.1570465 730.666667,114.157047 C738.666667,128.157047 742.666667,146.157047 742.666667,166.157047 L738.666667,196.157047 C732.666667,212.157047 724.666667,228.157047 716.666667,240.157047 L586.666667,398.157047 C574.666667,388.157047 558.666667,382.157047 544.666667,374.157047 L530.666667,212.157047 L528.666667,154.157047 L530.666667,140.157047 Z M284.666667,144.157047 C284.666667,118.157047 294.666667,100.157047 312.666667,90.1570465 C320.666667,82.1570465 334.666667,82.1570465 346.666667,88.1570465 C372.666667,96.1570465 392.666667,114.157047 410.666667,150.157047 C418.666667,166.157047 424.666667,180.157047 428.666667,196.157047 L456.666667,368.157047 L434.666667,374.157047 L306.666667,234.157047 L300.666667,220.157047 C288.666667,194.157047 280.666667,170.157047 284.666667,144.157047 Z M70.6666667,450.157047 C60.6666667,428.157047 60.6666667,406.157047 68.6666667,384.157047 C78.6666667,358.157047 96.6666667,336.157047 124.666667,324.157047 C150.666667,310.157047 176.666667,306.157047 206.666667,312.157047 L244.666667,328.157047 L372.666667,420.157047 C360.666667,436.157047 352.666667,450.157047 348.666667,464.157047 L140.666667,490.157047 L126.666667,488.157047 C100.666667,482.157047 82.6666667,472.157047 70.6666667,450.157047 Z M472.666667,876.157047 L470.666667,890.157047 C460.666667,916.157047 444.666667,938.157047 418.666667,950.157047 C392.666667,964.157047 364.666667,966.157047 338.666667,960.157047 C310.666667,952.157047 288.666667,934.157047 276.666667,912.157047 C268.666667,898.157047 262.666667,880.157047 262.666667,862.157047 L270.666667,830.157047 C274.666667,814.157047 280.666667,800.157047 292.666667,788.157047 L414.666667,644.157047 C428.666667,652.157047 442.666667,658.157047 458.666667,660.157047 C460.666667,710.157047 466.666667,762.157047 472.666667,818.157047 L472.666667,876.157047 Z M424.666667,586.157047 C406.666667,570.157047 396.666667,544.157047 396.666667,518.157047 C396.666667,492.157047 406.666667,472.157047 424.666667,450.157047 C442.666667,436.157047 466.666667,424.157047 492.666667,424.157047 C518.666667,424.157047 544.666667,436.157047 558.666667,450.157047 C580.666667,472.157047 588.666667,492.157047 588.666667,518.157047 C588.666667,544.157047 580.666667,570.157047 558.666667,586.157047 C540.666667,606.157047 518.666667,616.157047 492.666667,616.157047 C466.666667,616.157047 442.666667,606.157047 424.666667,586.157047 Z M692.666667,840.157047 C688.666667,866.157047 680.666667,884.157047 662.666667,892.157047 C652.666667,898.157047 642.666667,898.157047 630.666667,898.157047 C602.666667,890.157047 580.666667,868.157047 564.666667,834.157047 L548.666667,786.157047 L526.666667,660.157047 L550.666667,652.157047 L570.666667,642.157047 L630.666667,704.157047 L668.666667,750.157047 L674.666667,764.157047 C688.666667,788.157047 694.666667,812.157047 692.666667,840.157047 Z M940.666667,670.157047 C932.666667,700.157047 916.666667,720.157047 890.666667,732.157047 C864.666667,746.157047 840.666667,750.157047 810.666667,740.157047 C792.666667,736.157047 782.666667,728.157047 772.666667,716.157047 L620.666667,592.157047 L630.666667,570.157047 L634.666667,552.157047 L798.666667,538.157047 L854.666667,536.157047 L870.666667,538.157047 C890.666667,544.157047 912.666667,558.157047 922.666667,580.157047 C938.666667,596.157047 944.666667,616.157047 944.666667,642.157047 L940.666667,670.157047 Z"></path>
  </g>
</svg>