<?xml version="1.0" standalone="no"?>
<!DOCTYPE svg PUBLIC "-//W3C//DTD SVG 1.1//EN" "http://www.w3.org/Graphics/SVG/1.1/DTD/svg11.dtd" >
<svg xmlns="http://www.w3.org/2000/svg" xmlns:xlink="http://www.w3.org/1999/xlink" version="1.1" viewBox="-10 0 1035 1024">
   <path fill="currentColor"
d="M994 421l-6 -12c-12 -16 -24 -34 -40 -46c-16 -10 -32 -16 -48 -24c44 -22 76 -52 90 -92c10 -30 8 -56 -6 -82v-4c-18 -28 -42 -48 -78 -58c-20 -4 -46 -4 -68 -2l-46 10l16 -36c14 -46 10 -92 -16 -134l-4 -6c-22 -36 -54 -58 -96 -70c-46 -12 -86 -6 -128 14
c-40 22 -68 56 -82 98v4l-2 10l-4 -10l-16 -26c-22 -36 -52 -58 -88 -68c-32 -8 -58 -4 -84 10c-30 18 -48 48 -56 88c-6 42 0 82 22 122l10 16l-34 -12c-44 -10 -84 -4 -124 18c-42 20 -68 52 -86 92c-16 42 -14 80 6 116c8 16 22 30 34 38c16 18 38 28 64 32l10 2l-22 20
c-20 16 -32 38 -38 60c-8 26 -4 52 10 76c8 12 14 22 26 30c12 10 26 16 44 18c30 8 64 8 100 -4l-26 44l-8 18c-14 46 -10 86 12 128c10 16 22 30 34 44c18 16 38 26 64 32c44 12 88 10 130 -10c40 -22 66 -58 78 -100l2 -8c28 30 54 50 82 56c30 10 58 8 84 -10
c24 -14 42 -38 50 -68c8 -32 8 -64 0 -100c16 10 30 18 46 22c46 14 88 12 128 -10c38 -20 64 -56 78 -100c12 -44 8 -86 -14 -126zM786 181l16 -8c26 -12 52 -14 78 -12c24 4 42 14 50 32l6 18l-4 16c-10 26 -32 46 -68 62c-14 6 -30 10 -46 12l-178 22l-4 -10l-2 -4l6 -8z
M540 -1c8 -30 28 -52 54 -66s54 -18 82 -8c30 8 52 24 64 48c8 14 12 32 12 52l-4 30c-6 16 -14 32 -22 44l-130 158c-12 -10 -28 -16 -42 -24l-14 -162l-2 -58zM294 3c0 -26 10 -44 28 -54c8 -8 22 -8 34 -2c26 8 46 26 64 62c8 16 14 30 18 46l28 172l-22 6l-128 -140
l-6 -14c-12 -26 -20 -50 -16 -76zM80 309c-10 -22 -10 -44 -2 -66c10 -26 28 -48 56 -60c26 -14 52 -18 82 -12l38 16l128 92c-12 16 -20 30 -24 44l-208 26l-14 -2c-26 -6 -44 -16 -56 -38zM482 735l-2 14c-10 26 -26 48 -52 60c-26 14 -54 16 -80 10
c-28 -8 -50 -26 -62 -48c-8 -14 -14 -32 -14 -50l8 -32c4 -16 10 -30 22 -42l122 -144c14 8 28 14 44 16c2 50 8 102 14 158v58zM434 445c-18 -16 -28 -42 -28 -68s10 -46 28 -68c18 -14 42 -26 68 -26s52 12 66 26c22 22 30 42 30 68s-8 52 -30 68c-18 20 -40 30 -66 30
s-50 -10 -68 -30zM702 699c-4 26 -12 44 -30 52c-10 6 -20 6 -32 6c-28 -8 -50 -30 -66 -64l-16 -48l-22 -126l24 -8l20 -10l60 62l38 46l6 14c14 24 20 48 18 76zM950 529c-8 30 -24 50 -50 62c-26 14 -50 18 -80 8c-18 -4 -28 -12 -38 -24l-152 -124l10 -22l4 -18l164 -14
l56 -2l16 2c20 6 42 20 52 42c16 16 22 36 22 62z" />
</svg>
