<?xml version="1.0" standalone="no"?>
<!DOCTYPE svg PUBLIC "-//W3C//DTD SVG 1.1//EN" "http://www.w3.org/Graphics/SVG/1.1/DTD/svg11.dtd" >
<svg xmlns="http://www.w3.org/2000/svg" xmlns:xlink="http://www.w3.org/1999/xlink" version="1.1" viewBox="-10 0 1042 1024">
   <path fill="currentColor"
d="M0 165h106v408h-106v-408zM332 165l-24 190l-16 -104c-4 -32 -8 -62 -12 -86h-138v408h94v-270l38 270h66l38 -276v276h92v-408h-138zM636 237c6 2 8 8 10 12c0 6 2 18 2 36v158c0 28 -2 44 -6 50s-14 10 -28 10v-270c10 0 18 2 22 4zM634 573c26 0 44 -2 58 -4
c12 -4 24 -8 32 -14c8 -8 14 -18 18 -30s6 -36 6 -74v-142c0 -40 -2 -64 -4 -78s-8 -26 -18 -36s-24 -18 -40 -24c-20 -4 -48 -6 -100 -6h-80v408h128zM922 473c0 20 -2 32 -4 38s-10 8 -16 8c-8 0 -12 -2 -14 -6c-2 -6 -2 -18 -2 -36v-108c0 -18 0 -30 2 -34s6 -8 14 -8
c6 0 14 4 16 8c2 6 4 16 4 34v104zM784 165v408h94l6 -26c8 10 20 18 30 24c10 4 26 8 38 8c16 0 30 -4 42 -14c12 -8 20 -18 24 -30c2 -12 4 -30 4 -54v-118c0 -24 0 -40 -2 -48c0 -6 -4 -14 -10 -22c-4 -10 -12 -16 -22 -20c-12 -4 -24 -6 -38 -6c-12 0 -28 2 -38 8
c-10 4 -20 12 -28 22v-134h-100v2z" />
</svg>
