<?xml version="1.0" encoding="UTF-8"?>
<svg width="1023px" height="417px" viewBox="0 0 1023 417" version="1.1" xmlns="http://www.w3.org/2000/svg" xmlns:xlink="http://www.w3.org/1999/xlink">
  <g id="IMDb" transform="translate(0.3341, 0.0926)" fill="currentColor" fill-rule="nonzero">
    <path d="M0,2 L106,2 L106,410 L0,410 L0,2 Z M332,2 L308,192 L292,88 C288,56 284,26 280,2 L142,2 L142,410 L236,410 L236,140 L274,410 L340,410 L378,134 L378,410 L470,410 L470,2 L332,2 Z M636,74 C642,76 644,82 646,86 C646,92 648,104 648,122 L648,280 C648,308 646,324 642,330 C638,336 628,340 614,340 L614,70 C624,70 632,72 636,74 Z M634,410 C660,410 678,408 692,406 C704,402 716,398 724,392 C732,384 738,374 742,362 C746,350 748,326 748,288 L748,146 C748,106 746,82 744,68 C742,54 736,42 726,32 C716,22 702,14 686,8 C666,4 638,2 586,2 L506,2 L506,410 L634,410 Z M922,310 C922,330 920,342 918,348 C916,354 908,356 902,356 C894,356 890,354 888,350 C886,344 886,332 886,314 L886,206 C886,188 886,176 888,172 C890,168 894,164 902,164 C908,164 916,168 918,172 C920,178 922,188 922,206 L922,310 Z M784,2 L784,410 L878,410 L884,384 C892,394 904,402 914,408 C924,412 940,416 952,416 C968,416 982,412 994,402 C1006,394 1014,384 1018,372 C1020,360 1022,342 1022,318 L1022,200 C1022,176 1022,160 1020,152 C1020,146 1016,138 1010,130 C1006,120 998,114 988,110 C976,106 964,104 950,104 C938,104 922,106 912,112 C902,116 892,124 884,134 L884,0 L784,0 L784,2 Z"></path>
  </g>
</svg>