<?xml version="1.0" encoding="UTF-8"?>
<svg width="152px" height="152px" viewBox="0 0 152 152" version="1.1" xmlns="http://www.w3.org/2000/svg" xmlns:xlink="http://www.w3.org/1999/xlink">
    <g id="Imgur" stroke="none" stroke-width="1" fill="none" fill-rule="evenodd">
        <path d="M115.095456,26.1317458 L115.123916,26.1319075 C121.167859,26.1758126 126.048254,31.0871162 126.048254,37.1288708 C126.065357,65.1915059 124.62316,88.9989534 121.700528,108.594661 C120.609694,115.908504 111.653141,118.858803 106.429124,113.625078 L92.7749813,99.9457426 L63.206837,129.512463 C60.0927745,132.626262 55.1966317,133.020743 51.6307452,130.485264 L51.3950244,130.311889 C46.2164722,126.373484 41.1189647,121.893273 36.0999062,116.874215 C31.0980281,111.872337 26.4512608,106.612485 22.1613524,101.095943 C19.3752524,97.5132006 19.6927113,92.4165634 22.9018739,89.2072531 L52.4649813,59.6417426 L44.3010336,51.4877448 C42.7980532,49.9870474 41.2744538,48.4658749 39.725102,46.9190979 L38.5581794,45.7541343 C33.3753743,40.580116 36.2125446,31.7121669 43.4361492,30.5073975 C61.7234143,27.4574054 85.5825401,26.0106875 115.095456,26.1317458 Z M115.058539,35.1316701 C86.0123365,35.0125262 62.6317365,36.4302283 44.9167389,39.3847763 C46.8221471,41.2869542 48.7372645,43.1989781 50.6601557,45.1189484 L65.1973611,59.6380353 L29.2659813,95.5710678 C33.3258832,100.791836 37.7251785,105.771565 42.4638672,110.510254 C47.2025559,115.248943 51.9956488,119.461602 56.8431458,123.148232 L92.7792922,87.2151321 C94.6278143,89.065008 96.4706809,90.9096198 98.3062031,92.7473095 L112.79899,107.267027 C115.649595,88.1542402 117.0651,64.7766992 117.048254,37.1344049 C117.048254,36.0337618 116.159155,35.1396653 115.058539,35.1316701 Z" id="Path" fill="currentColor" fill-rule="nonzero"></path>
    </g>
</svg>