<?xml version="1.0" encoding="UTF-8"?>
<svg width="1025px" height="541px" viewBox="0 0 1025 541" version="1.1" xmlns="http://www.w3.org/2000/svg" xmlns:xlink="http://www.w3.org/1999/xlink">
  <g id="IndieDB" transform="translate(0.4367, 0.6046)" fill="currentColor" fill-rule="nonzero">
    <path d="M1020.00684,164.944739 C1013.41211,131.879339 999.14844,100.207439 977.07134,74.678139 C955.36234,48.330439 923.34184,32.755239 891.49514,25.219139 C837.08014,11.590239 779.61314,20.734759 730.25614,44.614639 C728.99637,42.432999 727.91141,40.394909 727.39969,38.501359 C725.69949,32.326559 708.82449,39.371476 694.28349,46.765029 C677.26399,37.109759 655.86359,2.88712896 537.55949,0.0716289561 C410.34749,-2.95962104 267.98249,90.951529 213.46349,142.426629 C158.94589,193.933429 189.22519,233.306529 222.5465,236.328029 C255.8463,239.369049 346.7165,184.830929 395.1925,203.016529 C442.9005,220.906129 472.9445,262.409129 476.7638,367.706529 C445.2042,362.852039 413.0197,358.695789 379.965,357.599129 C312.0021,354.619639 242.554,365.463389 178.278,387.848129 C113.8376,410.407729 52.152,443.431129 -5.68434189e-14,491.529129 L43.2129,536.471529 C129.1162,453.681529 255.5909,406.034529 378.7369,406.946529 C412.3443,406.84399 446.2799,410.468989 480.7579,414.759029 C494.7774,506.909429 545.9561,580.904029 622.3769,515.009029 C648.7958,492.235629 672.7675,461.464129 693.4726,427.498329 C719.0224,425.962199 744.458,423.238559 769.5771,419.315709 C833.1884,409.045209 903.8441,396.471009 956.7951,350.124309 C1010.7189,305.805009 1034.0148,231.022309 1020.007,164.944309 L1020.00602,164.944309 L1020.00684,164.944739 Z M937.72484,327.104739 C891.31764,365.341039 828.20784,375.243439 764.76084,383.241439 C748.33604,385.238509 731.93174,386.691639 715.51674,387.643779 C750.60954,318.084179 771.79604,243.023779 771.79604,196.955779 C771.79604,153.855179 749.73944,113.560279 729.75114,85.831779 C740.09294,72.785879 739.09977,62.760479 735.63884,54.681379 C783.12224,33.873779 837.98884,27.166779 887.11884,41.523179 C948.56904,54.794679 987.60384,109.189179 996.96284,168.961179 C1007.16204,228.496379 984.79784,290.919179 937.72454,327.107179 L937.72454,327.105226 L937.72484,327.104739 Z"></path>
  </g>
</svg>