<?xml version="1.0" standalone="no"?>
<!DOCTYPE svg PUBLIC "-//W3C//DTD SVG 1.1//EN" "http://www.w3.org/Graphics/SVG/1.1/DTD/svg11.dtd" >
<svg xmlns="http://www.w3.org/2000/svg" xmlns:xlink="http://www.w3.org/1999/xlink" version="1.1" viewBox="-11 0 1045 1024">
   <path fill="currentColor"
d="M1020.01 265.856c-6.59473 -33.0654 -20.8584 -64.7373 -42.9355 -90.2666c-21.709 -26.3477 -53.7295 -41.9229 -85.5762 -49.459c-54.415 -13.6289 -111.882 -4.48438 -161.239 19.3955c-1.25977 -2.18164 -2.34473 -4.21973 -2.85645 -6.11328
c-1.7002 -6.1748 -18.5752 0.870117 -33.1162 8.26367c-17.0195 -9.65527 -38.4199 -43.8779 -156.724 -46.6934c-127.212 -3.03125 -269.577 90.8799 -324.096 142.355c-54.5176 51.5068 -24.2383 90.8799 9.08301 93.9014
c33.2998 3.04102 124.17 -51.4971 172.646 -33.3115c47.708 17.8896 77.752 59.3926 81.5713 164.69c-31.5596 -4.85449 -63.7441 -9.01074 -96.7988 -10.1074c-67.9629 -2.97949 -137.411 7.86426 -201.687 30.249c-64.4404 22.5596 -126.126 55.583 -178.278 103.681
l43.2129 44.9424c85.9033 -82.79 212.378 -130.437 335.524 -129.525c33.6074 -0.102539 67.543 3.52246 102.021 7.8125c14.0195 92.1504 65.1982 166.145 141.619 100.25c26.4189 -22.7734 50.3906 -53.5449 71.0957 -87.5107
c25.5498 -1.53613 50.9854 -4.25977 76.1045 -8.18262c63.6113 -10.2705 134.267 -22.8447 187.218 -69.1914c53.9238 -44.3193 77.2197 -119.102 63.2119 -185.18h-0.000976562zM937.728 428.016c-46.4072 38.2363 -109.517 48.1387 -172.964 56.1367
c-16.4248 1.99707 -32.8291 3.4502 -49.2441 4.40234c35.0928 -69.5596 56.2793 -144.62 56.2793 -190.688c0 -43.1006 -22.0566 -83.3955 -42.0449 -111.124c10.3418 -13.0459 9.34863 -23.0713 5.8877 -31.1504c47.4834 -20.8076 102.35 -27.5146 151.48 -13.1582
c61.4502 13.2715 100.485 67.666 109.844 127.438c10.1992 59.5352 -12.165 121.958 -59.2383 158.146v-0.00195312z" />
</svg>
