<?xml version="1.0" encoding="UTF-8"?>
<svg width="164px" height="164px" viewBox="0 0 164 164" version="1.1" xmlns="http://www.w3.org/2000/svg" xmlns:xlink="http://www.w3.org/1999/xlink">
    <title>InkBunny</title>
    <g id="InkBunny" stroke="none" stroke-width="1" fill="none" fill-rule="evenodd">
        <path d="M149.520892,-0.000224077824 C149.381389,6.85412993 147.395471,13.7078449 144.899414,19.3378906 C139.157719,32.2887224 128.512393,41.9423865 122.95752,46.7006836 C118.603349,50.4304603 114.872529,52.6621363 111.825653,53.8571674 C110.786305,54.2648152 108.401339,56.7423114 107.486739,56.942486 L107.253198,56.9913026 L107.417969,57.3139648 C108.577637,60.9248047 105.961426,71.2958984 103.907728,75.8089297 L103.773437,76.378418 C104.616877,77.3278837 106.176505,80.1203983 106.567871,81.0629883 C107.418198,83.110969 107.089892,84.6521283 106.491699,86.6640625 C105.346107,90.5170927 100.351677,93.3436188 97.3525626,95.682569 L97.0932617,95.8876953 C93.34732,98.8966702 86.7756267,102.242799 80.1985567,103.576068 C80.4706069,112.339371 84.5986615,121.117446 92.5813597,129.909488 L93.8120801,131.248843 L94.9573756,132.506375 L95.7010034,133.332837 L96.7856915,134.555296 L97.5155754,135.391302 C98.5999617,136.64243 99.5678343,137.801725 100.431378,138.886066 L120.338504,117.974728 C118.544185,112.85234 120.054071,108.151779 124.868164,103.873047 L124.158203,106.341797 C127.537923,102.702474 131.050618,101.041016 134.696289,101.357422 C134.102865,102.06722 133.939128,102.545166 134.205078,102.79126 C140.626465,100.7229 144.029378,97.0396322 144.413818,91.7414551 C146.219517,98.1543959 146.445851,103.650671 145.092822,108.230279 L145.121656,109.514037 L145.156741,110.753456 C145.290474,115.013837 145.539023,118.459572 145.9021,121.091309 C145.943441,122.310547 145.691813,123.180339 145.147217,123.700684 C146.451117,127.635417 146.05805,129.803792 143.968018,130.205811 C141.215204,130.362084 140.542349,128.262074 141.949452,123.905782 L142.140381,123.337402 C143.60293,119.138141 144.248054,114.993257 144.075752,110.902747 C141.799025,115.706842 137.464906,119.315848 131.07251,121.730225 C131.650865,122.113172 132.372014,122.275179 133.235956,122.216245 L133.529541,122.192871 C130.351003,123.949947 126.989157,123.831904 123.444003,121.83874 L105.409438,146.414384 C107.060194,149.842391 107.408691,152.739449 107.408691,156.426758 C107.408691,159.490298 106.816585,162.015024 105.632372,164.000937 L101.111493,164.000937 C102.804417,161.272931 103.650879,158.748419 103.650879,156.426758 L103.646548,155.950233 L103.632337,155.47197 L103.616475,155.151401 L103.593597,154.81232 L103.563298,154.466016 L103.524595,154.111563 C103.023557,149.95444 100.743242,144.993832 91.8160468,135.119312 L90.7216797,133.92041 C85.3731403,128.114809 81.4746505,122.410204 79.0262102,116.806594 C79.7580847,122.203018 81.3833057,128.732697 84.7717799,135.759464 L85.6482855,137.55782 L86.2562921,138.818668 L86.8476111,140.059537 L87.4207639,141.276931 L88.2466817,143.058548 L89.0483119,144.821577 L89.5710508,145.990991 C93.16298,154.083541 95.3459864,160.209939 96.3208046,164.000937 L92.1641066,164.000937 L91.9903812,163.431258 C90.5021472,158.673546 87.3117424,151.242957 82.4191668,141.139493 L81.1860352,138.609863 C75.1838547,126.374729 73.9179518,117.066129 73.8438318,111.17066 L73.8411517,110.320958 L73.85189,109.585295 L73.8732127,108.892431 C73.9683672,106.430728 74.2368164,104.837646 74.2368164,104.173828 C68.6889648,103.209961 62.949707,100.662923 57.019043,96.5327148 L58.1091655,97.0841081 L59.1747945,97.6109949 C66.5484709,101.213431 72.1218792,103.014648 75.8950195,103.014648 C81.9850003,103.014648 92.483982,97.0767541 96.6255802,93.8360204 L97.8140895,92.8761581 C98.2404969,92.5253256 98.6866803,92.1495226 99.136321,91.7521529 L99.4364146,91.484082 C103.18951,88.0941921 106.930867,83.2591446 101.216797,78.9487305 L101.630265,77.2664634 L102.019108,75.6502373 L102.507018,73.5642279 L102.843238,72.0794026 L103.053236,71.1274628 C104.756058,63.3211104 105.279817,58.6767347 104.624512,57.1943359 C102.644694,53.1923828 99.4996745,49.3097331 95.1894531,45.5463867 L96.0619092,46.2331885 C98.6318018,48.2370068 100.774414,49.731543 102.489746,50.7167969 C105.348633,52.3588867 111.150879,51.3076172 119.738281,43.9516602 L120.820193,43.0121843 L121.571022,42.3449273 L122.079005,41.8861811 L123.110092,40.9363463 L123.902047,40.1892013 C132.490031,32.0017942 145.383515,16.8962547 144.385992,-0.000224077824 L149.520892,-0.000224077824 Z M48.9501953,123.835449 C47.0796511,134.938985 46.1096372,148.326892 46.0401537,163.999171 L43.1295063,164.000148 C42.9450085,148.982556 44.8852381,135.594323 48.9501953,123.835449 Z M52.6894525,-1.44488486e-05 C44.7994927,19.7155653 40.4752742,36.2225688 39.7167969,49.5209961 C33.1565755,62.8354492 33.1772461,75.1933594 39.7788086,86.5947266 C27.118166,102.171703 20.6687497,127.973267 20.4305599,163.99942 L15.3298777,163.99942 C15.640727,128.206007 22.7011297,101.375661 34.7026367,85.1206055 L34.3349231,83.0948415 L34.097876,81.7317627 L33.8694555,80.3597148 L33.6547976,78.998923 C31.8226403,67.0163069 32.6757581,62.0187365 35.5371094,51.3125 C35.5371094,36.481889 39.9216928,19.5612275 47.8542,-1.44488486e-05 L52.6894525,-1.44488486e-05 Z M115.957249,124.875977 L101.68137,140.500262 C102.682071,141.833256 103.51255,143.051201 104.200669,144.192695 L118.034091,126.55584 L115.957249,124.875977 Z M120.936646,119.440455 L116.726399,124.036466 L118.712547,125.690909 L122.428228,120.954154 C122.186899,120.577314 121.698941,120.092433 120.964355,119.499512 L120.936646,119.440455 Z M83.4538106,84.9155593 L83.6256801,85.959287 C84.0558809,88.5718066 85.9010315,90.3652954 88.7564683,92.0318476 C85.7000732,90.9723206 83.645194,89.6427072 82.9074852,87.2665418 L82.8361016,87.0215273 L82.7992623,87.0530949 C80.980696,88.5410803 78.012756,89.2924828 73.9031764,89.3425343 L73.4584961,89.3452148 C68.5484772,89.3452148 64.8180878,88.3835275 62.2752391,86.4376011 C62.0559413,86.2697825 62.0142092,85.9559627 62.1820278,85.7366649 C62.3498464,85.5173671 62.6636663,85.4756349 62.882964,85.6434536 C65.2268341,87.4371106 68.7493744,88.3452148 73.4584961,88.3452148 C78.1381077,88.3452148 81.2331864,87.4478732 82.7563929,85.7108675 L83.4538106,84.9155593 Z M78.8700003,72.7766113 L90.9493356,75.2713848 L85.4703756,78.7766113 L78.8700003,72.7766113 Z M98.5339335,70.5839271 C100.334398,71.4879704 100.769849,73.6310157 99.9566439,76.8716953 C99.8894334,77.1395336 99.6178227,77.3021746 99.3499844,77.2349642 C99.082146,77.1677537 98.919505,76.896143 98.9867155,76.6283047 L99.1170712,76.0805143 C99.6681846,73.617892 99.4151507,72.4502678 98.2250977,71.8527222 C97.1060896,71.2908493 95.9354992,71.9886758 94.7966919,75.7827759 C94.717306,76.0472612 94.2729816,76.3959503 94.0022583,76.3482056 C93.731535,76.3004608 93.6286621,75.8809204 93.6286621,75.5767822 L93.7575684,74.7893006 C95.0242726,70.8640436 96.6663532,69.6461836 98.5339335,70.5839271 Z M63.7631798,61.0481901 C68.8261141,62.0984739 71.1037221,65.4956552 70.3922309,70.8704876 C70.3197547,71.4179962 69.8171577,71.803086 69.2696491,71.7306098 C68.7221405,71.6581336 68.3370507,71.1555366 68.4095269,70.608028 C68.9864472,66.2497876 67.370175,63.8390261 63.3569374,63.0064974 C59.2946361,62.1637906 56.3837506,63.8063204 54.3906626,68.1323152 C54.1595602,68.6339227 53.5655814,68.8532104 53.0639739,68.622108 C52.5623664,68.3910055 52.3430787,67.7970267 52.5741811,67.2954192 C54.9417702,62.1565703 58.7493092,60.0080844 63.7631798,61.0481901 Z M87.3408352,-0.000415698458 C86.8995403,5.98687072 86.010255,11.9403633 84.6423094,17.9249733 L84.5868868,18.1642075 L84.7041016,18.0600586 C87.3303773,15.7733823 90.3390337,14.4442886 95.6316389,11.1628302 L98.4622654,9.39563567 C102.904172,6.62200599 108.569027,3.44026298 115.215097,-0.000415698458 L125.316954,4.72603345e-05 L123.514283,0.87554958 L121.75305,1.7404587 C113.630651,5.7519838 106.861901,9.41746443 101.446801,12.7369006 L99.5019978,13.9454094 L95.8892384,16.2079927 L94.5338791,17.0667638 L93.2470756,17.8929219 L92.4246019,18.4290408 L91.6276404,18.9566751 L90.8698544,19.4679071 L90.1501237,19.9643897 C84.1909749,24.1264905 82.234694,26.8692667 81.1860352,32.7607422 L87.4926273,38.1785516 L89.9721419,40.348928 L90.7604657,41.0629885 L90.9262158,41.2199246 L91.0288086,41.3212891 C85.9724935,37.6796875 82.3901367,35.5491536 80.2817383,34.9296875 C78.855957,39.1907552 75.8766276,42.1980794 71.34375,43.9516602 C77.7596698,29.8744832 81.5545827,15.2239891 82.7284887,0.000177955393 L87.3408352,-0.000415698458 Z" id="Shape" fill="currentColor"></path>
    </g>
</svg>