<?xml version="1.0" encoding="UTF-8"?>
<svg width="911px" height="815px" viewBox="0 0 911 815" version="1.1" xmlns="http://www.w3.org/2000/svg" xmlns:xlink="http://www.w3.org/1999/xlink">
  <g id="Inkblot" transform="translate(0.6125, 0.711)" fill="currentColor" fill-rule="nonzero">
    <path d="M105.23113,812.597897 C72.1608301,815.229737 72.1608301,815.229737 74.3922301,802.651607 C75.6178201,795.733637 78.3404701,775.838107 80.4410601,758.439707 C82.5406701,741.040307 85.9029701,707.934807 87.9127401,684.871307 C90.2291501,658.289307 94.9146901,633.308807 100.71454,616.634007 C105.74481,602.168207 115.42354,581.111507 122.22044,569.841007 C129.01829,558.571507 143.56324,539.397607 154.54274,527.232607 C165.52224,515.067607 179.52614,502.518707 185.66094,499.344907 C196.25274,493.868347 200.35524,494.475767 266.81814,511.363507 C325.84544,526.361507 339.03984,528.596907 350.98124,525.629107 C360.08476,523.366407 366.74294,518.883987 369.62774,513.076407 C373.13165,506.021717 373.12481,501.620307 369.601373,492.984607 C366.733213,485.954337 358.353373,478.164307 346.599373,471.598907 C336.429473,465.918247 290.426473,448.345007 244.370373,432.546207 C198.314673,416.747407 148.484673,398.303007 133.639373,391.559907 C115.695073,383.408537 100.487073,372.974007 88.2731729,360.434907 C78.1667729,350.059907 64.6989729,331.006207 58.3424729,318.095107 C51.9859729,305.184007 44.4293729,284.521907 41.5504729,272.179107 C38.6705929,259.837307 32.8698129,217.235707 28.6588729,177.508207 C24.4479329,137.780707 18.3756729,88.7904073 15.1637729,68.6402073 C11.9518629,48.4908073 6.92549289,25.2017073 3.99087289,16.8863073 C1.05728289,8.57185729 -0.63803711,1.06310729 0.22525289,0.199807292 C1.08854289,-0.663492708 16.3063529,1.35214729 34.0445529,4.67539729 C51.7838529,7.99961729 80.1080529,15.7163973 96.9888529,21.8247973 C113.869753,27.9322173 140.119753,40.2808973 155.321853,49.2632973 C170.523953,58.2476773 196.561153,76.5620973 213.181253,89.9614973 C229.801353,103.361897 255.578753,127.363797 270.467353,143.296497 C285.354053,159.231097 307.144153,184.883397 318.889253,200.304297 C330.634353,215.726197 347.714453,240.009397 356.845353,254.270097 C365.976213,268.529897 384.080753,300.294497 397.075853,324.858997 C410.071953,349.421497 425.281953,374.124597 430.876653,379.753497 C438.645203,387.568927 444.622753,389.988897 456.164753,389.988897 C467.558353,389.988897 473.933353,387.468387 482.061253,379.753497 C487.990943,374.124587 502.500753,351.096297 514.306353,328.579697 C526.111053,306.063097 544.031953,274.309197 554.130553,258.012297 C564.229153,241.716397 583.625653,214.124597 597.235053,196.696897 C610.844453,179.269197 632.853253,153.481097 646.144253,139.393197 C659.434253,125.303397 683.751653,103.017197 700.183353,89.8658973 C716.614053,76.7144973 741.237053,59.3101973 754.901153,51.1881973 C768.566153,43.0661273 792.827953,31.1822973 808.817153,24.7809973 C824.806453,18.3786573 853.604253,9.92939729 872.814253,6.00459729 C892.024253,2.08076729 908.507653,-0.364542708 909.443153,0.571977292 C910.3787,1.50752429 907.771273,18.7496773 903.647253,38.8873773 C899.524203,59.0260773 894.288853,92.2506773 892.016353,112.719377 C889.741943,133.190077 885.536863,173.431277 882.673583,202.148077 C879.407963,234.867777 873.896243,265.652977 867.906983,284.611977 C862.651123,301.250677 851.779983,324.703777 843.748783,336.730177 C835.718513,348.755577 822.305383,364.093477 813.940183,370.816077 C805.575923,377.537757 789.979283,386.918577 779.280983,391.663777 C768.582683,396.408977 744.757583,405.384477 726.334683,411.612977 C707.912783,417.840517 675.253583,429.081777 653.761483,436.592477 C632.268283,444.103217 603.233183,454.693077 589.238083,460.125677 C575.242983,465.559267 558.635583,474.309277 552.330883,479.571977 C543.873853,486.632527 540.868983,492.290777 540.868983,501.151077 C540.868983,507.755567 543.726403,516.010477 547.219573,519.495777 C551.995943,524.262377 559.017473,525.627617 575.569173,525.008477 C587.667773,524.555352 623.681473,517.445977 655.597473,509.207677 C708.467573,495.561177 714.690273,494.673477 725.608173,499.235997 C732.198013,501.989907 746.377673,513.858097 757.118873,525.609997 C767.859073,537.360997 783.217473,558.128597 791.248773,571.759397 C799.280023,585.392197 809.318073,607.430297 813.555373,620.735997 C817.791703,634.040697 824.603273,674.235997 828.690173,710.056297 C832.777083,745.878597 837.147203,782.924497 838.400133,792.381497 C840.678453,809.576797 840.678453,809.576797 828.166733,811.504497 C821.285873,812.566017 801.755633,812.039653 784.764433,810.337507 C767.773233,808.635361 744.326933,804.530867 732.659933,801.217387 C720.992933,797.904887 702.619933,791.958597 691.829833,788.004487 C681.039733,784.050377 663.454833,776.386287 652.751733,770.972287 C642.049633,765.560177 623.642333,754.587487 611.848433,746.590487 C600.054533,738.593487 579.503733,721.854187 566.182433,709.392287 C552.860133,696.929387 533.824033,676.489987 523.881633,663.968487 C513.938273,651.447987 497.928533,628.213587 488.304533,612.334687 C478.680533,596.455787 467.589733,581.742887 463.658033,579.638387 C459.065263,577.180377 454.154123,577.073937 449.920733,579.338582 C446.297683,581.279012 433.318233,599.097382 421.077933,618.938182 C408.838633,638.777982 385.755633,669.002682 369.784033,686.105182 C353.813333,703.206782 329.529133,725.629582 315.819233,735.932282 C302.110233,746.235982 279.697133,760.573882 266.013533,767.793582 C252.328933,775.013312 230.453033,784.941082 217.399233,789.855082 C204.344533,794.769142 181.206833,801.303282 165.983233,804.378482 C150.758633,807.452702 123.419733,811.151922 105.232233,812.598212 L105.23113,812.597897 Z"></path>
  </g>
</svg>