<?xml version="1.0" standalone="no"?>
<!DOCTYPE svg PUBLIC "-//W3C//DTD SVG 1.1//EN" "http://www.w3.org/Graphics/SVG/1.1/DTD/svg11.dtd" >
<svg xmlns="http://www.w3.org/2000/svg" xmlns:xlink="http://www.w3.org/1999/xlink" version="1.1" viewBox="-10 0 1034 1024">
   <path fill="currentColor"
d="M162.415 776.603c-33.0703 2.63184 -33.0703 2.63184 -30.8389 -9.94629c1.22559 -6.91797 3.94824 -26.8135 6.04883 -44.2119c2.09961 -17.3994 5.46191 -50.5049 7.47168 -73.5684c2.31641 -26.582 7.00195 -51.5625 12.8018 -68.2373
c5.03027 -14.4658 14.709 -35.5225 21.5059 -46.793c6.79785 -11.2695 21.3428 -30.4434 32.3223 -42.6084s24.9834 -24.7139 31.1182 -27.8877c10.5918 -5.47656 14.6943 -4.86914 81.1572 12.0186c59.0273 14.998 72.2217 17.2334 84.1631 14.2656
c9.10352 -2.2627 15.7617 -6.74512 18.6465 -12.5527c3.50391 -7.05469 3.49707 -11.4561 -0.0263672 -20.0918c-2.86816 -7.03027 -11.248 -14.8203 -23.002 -21.3857c-10.1699 -5.68066 -56.1729 -23.2539 -102.229 -39.0527
c-46.0557 -15.7988 -95.8857 -34.2432 -110.731 -40.9863c-17.9443 -8.15137 -33.1523 -18.5859 -45.3662 -31.125c-10.1064 -10.375 -23.5742 -29.4287 -29.9307 -42.3398s-13.9131 -33.5732 -16.792 -45.916c-2.87988 -12.3418 -8.68066 -54.9434 -12.8916 -94.6709
s-10.2832 -88.7178 -13.4951 -108.868c-3.21191 -20.1494 -8.23828 -43.4385 -11.1729 -51.7539c-2.93359 -8.31445 -4.62891 -15.8232 -3.76562 -16.6865s16.0811 1.15234 33.8193 4.47559c17.7393 3.32422 46.0635 11.041 62.9443 17.1494
c16.8809 6.10742 43.1309 18.4561 58.333 27.4385c15.2021 8.98438 41.2393 27.2988 57.8594 40.6982c16.6201 13.4004 42.3975 37.4023 57.2861 53.335c14.8867 15.9346 36.6768 41.5869 48.4219 57.0078c11.7451 15.4219 28.8252 39.7051 37.9561 53.9658
c9.13086 14.2598 27.2354 46.0244 40.2305 70.5889c12.9961 24.5625 28.2061 49.2656 33.8008 54.8945c7.76855 7.81543 13.7461 10.2354 25.2881 10.2354c11.3936 0 17.7686 -2.52051 25.8965 -10.2354c5.92969 -5.62891 20.4395 -28.6572 32.2451 -51.1738
c11.8047 -22.5166 29.7256 -54.2705 39.8242 -70.5674c10.0986 -16.2959 29.4951 -43.8877 43.1045 -61.3154s35.6182 -43.2158 48.9092 -57.3037c13.29 -14.0898 37.6074 -36.376 54.0391 -49.5273c16.4307 -13.1514 41.0537 -30.5557 54.7178 -38.6777
c13.665 -8.12207 37.9268 -20.0059 53.916 -26.4072c15.9893 -6.40234 44.7871 -14.8516 63.9971 -18.7764c19.21 -3.92383 35.6934 -6.36914 36.6289 -5.43262c0.935547 0.935547 -1.67188 18.1777 -5.7959 38.3154c-4.12305 20.1387 -9.3584 53.3633 -11.6309 73.832
c-2.27441 20.4707 -6.47949 60.7119 -9.34277 89.4287c-3.26562 32.7197 -8.77734 63.5049 -14.7666 82.4639c-5.25586 16.6387 -16.127 40.0918 -24.1582 52.1182c-8.03027 12.0254 -21.4434 27.3633 -29.8086 34.0859c-8.36426 6.72168 -23.9609 16.1025 -34.6592 20.8477
s-34.5234 13.7207 -52.9463 19.9492c-18.4219 6.22754 -51.0811 17.4688 -72.5732 24.9795c-21.4932 7.51074 -50.5283 18.1006 -64.5234 23.5332c-13.9951 5.43359 -30.6025 14.1836 -36.9072 19.4463c-8.45703 7.06055 -11.4619 12.7188 -11.4619 21.5791
c0 6.60449 2.85742 14.8594 6.35059 18.3447c4.77637 4.7666 11.7979 6.13184 28.3496 5.5127c12.0986 -0.453125 48.1123 -7.5625 80.0283 -15.8008c52.8701 -13.6465 59.0928 -14.5342 70.0107 -9.97168c6.58984 2.75391 20.7695 14.6221 31.5107 26.374
c10.7402 11.751 26.0986 32.5186 34.1299 46.1494c8.03125 13.6328 18.0693 35.6709 22.3066 48.9766c4.23633 13.3047 11.0479 53.5 15.1348 89.3203c4.08691 35.8223 8.45703 72.8682 9.70996 82.3252c2.27832 17.1953 2.27832 17.1953 -10.2334 19.123
c-6.88086 1.06152 -26.4111 0.535156 -43.4023 -1.16699s-40.4375 -5.80664 -52.1045 -9.12012c-11.667 -3.3125 -30.04 -9.25879 -40.8301 -13.2129s-28.375 -11.6182 -39.0781 -17.0322c-10.7021 -5.41211 -29.1094 -16.3848 -40.9033 -24.3818
s-32.3447 -24.7363 -45.666 -37.1982c-13.3223 -12.4629 -32.3584 -32.9023 -42.3008 -45.4238c-9.94336 -12.5205 -25.9531 -35.7549 -35.5771 -51.6338s-20.7148 -30.5918 -24.6465 -32.6963c-4.59277 -2.45801 -9.50391 -2.56445 -13.7373 -0.299805
c-3.62305 1.94043 -16.6025 19.7588 -28.8428 39.5996c-12.2393 19.8398 -35.3223 50.0645 -51.2939 67.167c-15.9707 17.1016 -40.2549 39.5244 -53.9648 49.8271c-13.709 10.3037 -36.1221 24.6416 -49.8057 31.8613c-13.6846 7.21973 -35.5605 17.1475 -48.6143 22.0615
c-13.0547 4.91406 -36.1924 11.4482 -51.416 14.5234c-15.2246 3.07422 -42.5635 6.77344 -60.751 8.21973z" />
</svg>
