<?xml version="1.0" encoding="UTF-8"?>
<svg width="160px" height="160px" viewBox="0 0 160 160" version="1.1" xmlns="http://www.w3.org/2000/svg" xmlns:xlink="http://www.w3.org/1999/xlink">
    <title>Inkitt</title>
    <g id="Inkitt" stroke="none" stroke-width="1" fill="none" fill-rule="evenodd">
        <path d="M64.191361,127.575943 L64.1899281,127.041017 L64.3161583,40.4811776 L63.5722818,40.4857037 C56.3928653,40.560864 49.5614473,41.6041588 44.6182781,48.6 L44.3749996,48.3154595 C43.1438337,46.8253086 37.7838337,39.7033333 41.0282781,32.21 C44.5982781,24.01 51.4182781,21.08 59.7482781,21.09 L81.6482781,21.09 L83.5582887,21.1153053 C91.5655532,21.1932699 99.3321016,20.7360294 104.798278,13 C111.403912,20.6901408 109.455687,26.7958738 108.441159,29.2951041 L108.398278,29.4 C105.265368,37.0974772 98.9952531,40.0416149 91.4197809,40.4097393 L91.4539212,102.260738 C91.4768646,112.494999 91.5164031,119.814249 91.5849392,120.482854 L91.5882781,120.51 C92.0943634,125.204915 94.3281379,127.693237 97.9922491,127.82393 L98.8282781,127.81 C98.8863475,127.808733 98.9491121,127.806133 99.0163683,127.802132 C99.7782883,127.74442 100.592875,127.597532 101.458278,127.36 C111.739345,124.528267 117.308618,117.354674 117.455304,106.915016 L117.458,106.511 L117.458908,111.550122 C122.161583,112.913787 119.620827,129.004197 117.532982,131.477163 L117.458278,131.56 C108.121078,141.204192 97.7471575,144.849496 90.6702252,146.209687 L90.0063385,146.332439 C88.387,146.647241 86.7258162,146.866378 85.0182781,146.98 C83.2228631,147.101017 81.4919952,147.111832 79.8480056,146.981133 L40.4582781,146.98 C39.7321089,144.21668 39.9431292,141.290532 41.0582781,138.66 C44.5519289,130.590159 51.202909,127.672769 59.3527673,127.582187 L62.0377028,127.575891 L64.191361,127.575943 Z" id="Path" fill="#000000" fill-rule="nonzero"></path>
    </g>
</svg>