<?xml version="1.0" standalone="no"?>
<!DOCTYPE svg PUBLIC "-//W3C//DTD SVG 1.1//EN" "http://www.w3.org/Graphics/SVG/1.1/DTD/svg11.dtd" >
<svg xmlns="http://www.w3.org/2000/svg" xmlns:xlink="http://www.w3.org/1999/xlink" version="1.1" viewBox="-10 0 1044 1024">
   <path fill="currentColor"
d="M512 -49c138 0 152 2 206 4c52 2 78 10 96 16c24 10 42 22 58 38c18 18 30 36 38 58c8 20 16 46 18 96c2 56 4 70 4 208s-2 152 -4 206c-2 52 -10 78 -16 96c-10 24 -22 42 -38 58c-18 18 -36 30 -58 38c-20 8 -46 16 -96 18c-56 2 -70 4 -208 4s-152 -2 -206 -4
c-52 -2 -78 -10 -96 -16c-24 -10 -42 -22 -58 -38c-18 -18 -30 -36 -38 -58c-8 -20 -16 -46 -18 -96c-2 -56 -4 -70 -4 -208s2 -152 4 -206c2 -52 10 -78 16 -96c10 -24 22 -42 38 -58c18 -18 36 -30 58 -38c20 -8 46 -16 96 -18c56 -2 70 -4 208 -4zM512 -141
c-140 0 -156 2 -210 4c-56 2 -94 10 -124 22c-34 14 -64 32 -92 60s-46 58 -60 92c-12 32 -20 68 -22 124c-2 54 -4 70 -4 210s2 156 4 210c2 56 10 94 22 124c14 34 32 64 60 92s58 46 92 60c32 12 68 20 124 22c54 2 70 4 210 4s156 -2 210 -4c56 -2 94 -10 124 -22
c34 -14 64 -32 92 -60s46 -58 60 -92c12 -32 20 -68 22 -124c2 -54 4 -70 4 -210s-2 -156 -4 -210c-2 -56 -10 -94 -22 -124c-14 -34 -32 -64 -60 -92s-58 -46 -92 -60c-32 -12 -68 -20 -124 -22c-54 -2 -70 -4 -210 -4zM512 107c-146 0 -264 118 -264 264s118 264 264 264
s264 -118 264 -264s-118 -264 -264 -264zM512 543c-94 0 -172 -78 -172 -172s78 -172 172 -172s172 78 172 172s-78 172 -172 172zM846 97c0 34 -26 62 -60 62s-62 -28 -62 -62s28 -60 62 -60s60 26 60 60z" />
</svg>
