<?xml version="1.0" standalone="no"?>
<!DOCTYPE svg PUBLIC "-//W3C//DTD SVG 1.1//EN" "http://www.w3.org/Graphics/SVG/1.1/DTD/svg11.dtd" >
<svg xmlns="http://www.w3.org/2000/svg" xmlns:xlink="http://www.w3.org/1999/xlink" version="1.1" viewBox="-10 0 1044 1024">
   <path fill="currentColor"
d="M904.059 219.735c-86.1699 7.75195 -203.254 -41.3086 -267.529 -36.8955c101.181 135.26 -67.1855 302.767 -166.053 166.042c-6.34863 -98.6006 37.2227 -147.292 101.489 -175.288c-31.9277 -14.1924 -84.1221 -8.14062 -129.167 -9.21582
c138.127 -39.2695 336.067 20.3164 461.261 55.3574h-0.000976562zM571.965 210.508c16.9883 22.9678 47.4014 32.543 55.3164 64.5732c-3.26758 27.4639 -14.6738 46.8066 -27.6484 64.5732c-51.7432 -6.69727 -85.084 -31.7754 -73.8096 -101.479
c-40.1104 -6.29785 -14.7969 52.8594 -36.9053 64.584c14.0801 55.6855 104.499 89.3037 147.61 36.8955c13.6602 -46.6123 5.09961 -179.661 -64.5635 -129.147zM544.276 256.64c-7.81348 38.5742 24.9746 36.5068 36.9043 55.3477
c13.292 -5.16113 22.5088 -14.3975 27.668 -27.6797c0.717773 -31.4463 -34.1709 -27.3193 -64.5723 -27.668zM811.796 404.229c-56.1562 6.99414 -77.9365 -20.46 -110.705 -36.8838c-1.66895 -197.989 255.416 -85.627 110.705 36.8838zM774.892 265.866
c27.0752 15.9844 34.499 51.6396 64.6045 64.5732c5.38574 -48.4453 -24.2285 -61.8916 -64.6045 -64.5732zM765.676 302.761c-8.33496 -24.9961 -33.9453 7.77246 -36.8945 18.4521c5.27344 25.4873 9.76855 51.7324 46.0996 46.1309
c-10.0762 -9.20605 -34.5908 -50.2988 -9.20605 -64.584zM774.892 311.987c-4.25977 28.877 8.02832 41.1748 36.9053 36.8945c4.30078 -28.877 -8.00781 -41.1748 -36.9053 -36.8945zM313.651 422.702c-10.8135 1.47461 -7.78223 16.8135 -9.22656 27.6475
c206.674 24.709 375.634 88.084 553.523 73.8203c-28.8564 -47.2783 -96.0918 -23.4287 -138.373 -27.668c-127.785 -12.9023 -256.256 -61.6445 -387.472 -64.584c-10.7109 1.48535 -16.4141 -2.04785 -18.4512 -9.21582h-0.000976562zM18.4521 764.021
c25.4873 -90.0518 31.3135 -178.063 15.2578 -271.729c-4.84375 -28.1289 -29.4707 -59.3506 -33.71 -88.0645v-27.668c49.6436 -117.668 61.6553 -101.57 75.5918 -132.238c51.8145 -114.125 97.5264 -237.436 219.617 -264.448
c70.502 -15.5957 191.017 9.76855 267.52 18.4521c128.195 14.541 254.28 50.5547 368.998 73.7998c-5.44727 70.2568 -6.56348 141.65 12.2881 187.576c32.2969 -23.8281 62.126 73.4209 79.9854 126.075l-9.23633 27.6885
c2.31445 79.165 -32.9727 120.75 -73.7891 156.815c2.67383 55.7568 -7.39258 124.252 9.22656 166.042zM304.425 7.55176c-63.2725 198.933 -72.3047 443.32 -83.0156 664.218c225.73 -37.5088 478.085 8.2334 701.092 46.1211
c-30.1357 -223.683 10.7012 -417.188 -18.4424 -627.302c-170.731 -56.832 -390.522 -64.6035 -599.634 -83.0361v-0.000976562zM249.078 44.4463c-62.6689 29.5938 -91.0234 93.4902 -129.157 147.62c46.8994 105.195 84.0195 254.853 9.22656 341.33
c-28.5908 0.900391 -51.1699 -4.18848 -64.5732 -18.4736c-15.8115 58.1436 -23.3164 162.816 -18.4629 239.872c56.3809 -20.5 103.916 -49.8281 147.609 -83.0264c1.69043 -242.084 42.5273 -418.784 55.3574 -627.322zM119.921 256.64
c-88.5352 25.6318 -131.625 236.514 9.22656 239.862c19.5166 -80.9473 6.75781 -183.501 -9.22656 -239.862zM959.416 284.308c-36.0137 63.3457 -31.0273 181.812 -27.6895 258.314c83.7539 -25.4258 80.7832 -199.629 27.6895 -258.314z" />
</svg>
