<?xml version="1.0" encoding="UTF-8"?>
<svg width="1025px" height="790px" viewBox="0 0 1025 790" version="1.1" xmlns="http://www.w3.org/2000/svg" xmlns:xlink="http://www.w3.org/1999/xlink">
  <g id="Instructables" transform="translate(0.8149, 0.0684)" fill="currentColor" fill-rule="nonzero">
    <path d="M904.0601,244.824548 C817.8892,252.576498 700.8051,203.515948 636.5301,207.929048 C737.7111,343.189048 569.3446,510.696048 470.4771,373.971048 C464.12847,275.370448 507.6998,226.679048 571.9661,198.683048 C540.0384,184.490648 487.844,190.542428 442.7991,189.467228 C580.9261,150.197728 778.8661,209.783628 904.0601,244.824628 L904.0601,244.824628 L904.0601,244.824548 Z M571.9651,235.597548 C588.9534,258.565348 619.3665,268.140548 627.2815,300.170748 C624.01392,327.634648 612.6077,346.977348 599.6331,364.743948 C547.8899,358.046678 514.5491,332.968548 525.8235,263.264948 C485.7131,256.967098 511.0266,316.124348 488.9182,327.848948 C502.9983,383.534448 593.4172,417.152648 636.5282,364.744448 C650.1884,318.132148 641.62781,185.083448 571.9647,235.597448 L571.9651,235.597548 Z M544.2761,281.729548 C536.46262,320.303748 569.2507,318.236348 581.1804,337.077248 C594.4724,331.916118 603.6892,322.679748 608.8484,309.397548 C609.566173,277.951248 574.6775,282.078248 544.2761,281.729548 Z M811.7961,429.318548 C755.6399,436.312688 733.8596,408.858548 701.0911,392.434748 C699.42215,194.445748 956.5071,306.807748 811.7961,429.318548 Z M774.8921,290.955548 C801.9673,306.939948 809.3911,342.595148 839.4966,355.528748 C844.88234,307.083448 815.2681,293.637148 774.8921,290.955548 Z M765.6761,327.850548 C757.34114,302.854448 731.7308,335.623008 728.7816,346.302648 C734.05504,371.789948 738.55015,398.035048 774.8812,392.433548 C764.805,383.227498 740.2904,342.134748 765.67515,327.849548 L765.6761,327.850548 Z M774.8921,337.076548 C770.63233,365.953548 782.92042,378.251348 811.7974,373.971048 C816.09818,345.094048 803.78959,332.796248 774.8921,337.076548 Z M313.6511,447.791528 C302.8376,449.266158 305.86887,464.605048 304.42454,475.439048 C511.09854,500.148048 680.05854,563.523048 857.94754,549.259348 C829.09114,501.981048 761.85574,525.830648 719.57454,521.591348 C591.78954,508.689048 463.31854,459.946848 332.10254,457.007348 C321.39164,458.492698 315.68844,454.959498 313.65134,447.791528 L313.650363,447.791528 L313.6511,447.791528 Z M18.4522,789.110548 C43.9395,699.058748 49.7657,611.047548 33.71,517.381548 C28.86625,489.252648 4.2393,458.030948 0,429.317048 L0,401.649048 C49.6436,283.981048 61.6553,300.079048 75.5918,269.411048 C127.4063,155.286048 173.1182,31.9750475 295.2088,4.96304751 C365.7108,-10.6326525 486.2258,14.7315975 562.7288,23.4151475 C690.9238,37.9561475 817.0088,73.9698475 931.7268,97.2149475 C926.27953,167.471748 925.16332,238.864948 944.0149,284.790948 C976.3118,260.962848 1006.1409,358.211848 1024.0003,410.865948 L1014.76397,438.554448 C1017.07842,517.719448 981.79127,559.304448 940.97487,595.369448 C943.6487,651.126248 933.58229,719.621448 950.20143,761.411448 L18.4522,789.110548 Z M304.4251,32.6413075 C241.1526,231.574308 232.1204,475.961308 221.4095,696.859308 C447.1395,659.350508 699.4945,705.092708 922.5015,742.980408 C892.3658,519.297408 933.2027,325.792408 904.0591,115.678408 C733.3281,58.8464075 513.5371,51.0749075 304.4251,32.6413075 L304.4251,32.6413075 L304.4251,32.6413075 Z M249.0781,69.5358475 C186.4092,99.1296475 158.0547,163.026048 119.9211,217.155848 C166.8205,322.350848 203.9406,472.008848 129.14766,558.485848 C100.55686,559.386239 77.97776,554.297368 64.57446,540.012248 C48.76296,598.155848 41.25806,702.828248 46.11156,779.884248 C102.49246,759.384248 150.02756,730.056148 193.72056,696.857848 C195.41099,454.773848 236.24786,278.073848 249.0781,69.5358475 L249.0781,69.5358475 Z M119.9211,281.729548 C31.3859,307.361348 -11.7039,518.243548 129.14766,521.591548 C148.66426,440.644248 135.90547,338.090548 119.9211,281.729548 Z M959.4161,309.397548 C923.4024,372.743248 928.3888,491.209548 931.7266,567.711548 C1015.4805,542.285748 1012.5098,368.082548 959.4161,309.397548 Z"></path>
  </g>
</svg>