<?xml version="1.0" encoding="UTF-8"?>
<svg width="1024px" height="1025px" viewBox="0 0 1024 1025" version="1.1" xmlns="http://www.w3.org/2000/svg" xmlns:xlink="http://www.w3.org/1999/xlink">
  <g id="Instagram" transform="translate(0, 0.0926)" fill="currentColor" fill-rule="nonzero">
    <path d="M512,92 C650,92 664,94 718,96 C770,98 796,106 814,112 C838,122 856,134 872,150 C890,168 902,186 910,208 C918,228 926,254 928,304 C930,360 932,374 932,512 C932,650 930,664 928,718 C926,770 918,796 912,814 C902,838 890,856 874,872 C856,890 838,902 816,910 C796,918 770,926 720,928 C664,930 650,932 512,932 C374,932 360,930 306,928 C254,926 228,918 210,912 C186,902 168,890 152,874 C134,856 122,838 114,816 C106,796 98,770 96,720 C94,664 92,650 92,512 C92,374 94,360 96,306 C98,254 106,228 112,210 C122,186 134,168 150,152 C168,134 186,122 208,114 C228,106 254,98 304,96 C360,94 374,92 512,92 Z M512,0 C372,0 356,2 302,4 C246,6 208,14 178,26 C144,40 114,58 86,86 C58,114 40,144 26,178 C14,210 6,246 4,302 C2,356 0,372 0,512 C0,652 2,668 4,722 C6,778 14,816 26,846 C40,880 58,910 86,938 C114,966 144,984 178,998 C210,1010 246,1018 302,1020 C356,1022 372,1024 512,1024 C652,1024 668,1022 722,1020 C778,1018 816,1010 846,998 C880,984 910,966 938,938 C966,910 984,880 998,846 C1010,814 1018,778 1020,722 C1022,668 1024,652 1024,512 C1024,372 1022,356 1020,302 C1018,246 1010,208 998,178 C984,144 966,114 938,86 C910,58 880,40 846,26 C814,14 778,6 722,4 C668,2 652,0 512,0 Z M512,248 C366,248 248,366 248,512 C248,658 366,776 512,776 C658,776 776,658 776,512 C776,366 658,248 512,248 Z M512,684 C418,684 340,606 340,512 C340,418 418,340 512,340 C606,340 684,418 684,512 C684,606 606,684 512,684 Z M846,238 C846,272 820,300 786,300 C752,300 724,272 724,238 C724,204 752,178 786,178 C820,178 846,204 846,238 Z"></path>
  </g>
</svg>