<?xml version="1.0" standalone="no"?>
<!DOCTYPE svg PUBLIC "-//W3C//DTD SVG 1.1//EN" "http://www.w3.org/Graphics/SVG/1.1/DTD/svg11.dtd" >
<svg xmlns="http://www.w3.org/2000/svg" xmlns:xlink="http://www.w3.org/1999/xlink" version="1.1" viewBox="-10 0 1044 1024">
   <path fill="currentColor"
d="M512 -141c-282.767 0 -512 229.233 -512 512s229.233 512 512 512s512 -229.233 512 -512c-0.378906 -282.614 -229.386 -511.621 -512 -512zM862.003 47.457c-36.1875 15.1035 -73.5029 27.3311 -111.605 36.5879
c-22.8047 -65.9053 -61.1641 -125.348 -111.831 -173.271c85.7695 23.8389 163.164 71.1777 223.437 136.684v0v-0.000976562zM529.254 145.945c67.041 -0.850586 133.847 -8.10059 199.506 -21.627c23.2354 74.5264 35.4824 152.054 36.3623 230.112h-235.868v-208.485z
M529.254 111.436v-216.31c77.3223 9.8916 144.968 84.9102 188.006 196.291c-61.9111 12.4521 -124.855 19.1592 -188.006 20.0186zM494.746 -104.873v216.31c-63.1396 -0.777344 -126.075 -7.40332 -188.006 -19.7939c43.0273 -111.831 110.684 -186.624 188.006 -196.516z
M494.746 145.945v207.104h-235.868c0.880859 -78.0596 13.1279 -155.576 36.3623 -230.113c65.6182 13.998 132.424 21.709 199.506 23.0098zM224.133 353.049h-188.691c3.54297 -101.581 39.5977 -199.342 102.86 -278.896
c39.9463 18.0732 81.3672 32.6953 123.802 43.7246c-24.0225 76.3701 -36.8125 155.822 -37.9697 235.868v-0.696289h-0.000976562zM224.133 387.568c1.08496 80.2812 13.875 159.969 37.9697 236.554c-42.3828 10.4238 -83.7939 24.4326 -123.802 41.8818
c-63.2627 -79.5547 -99.3174 -177.315 -102.86 -278.896l188.691 0.460938h0.000976562zM258.877 387.568h235.868v207.104c-67.041 0.850586 -133.847 8.10059 -199.506 21.627c-23.0303 -73.8711 -35.2773 -150.671 -36.3623 -228.045v-0.685547zM494.746 630.564v216.31
c-77.3223 -9.8916 -144.968 -84.9102 -188.006 -196.291c61.9111 -12.4619 124.855 -19.1592 188.006 -20.0186zM529.254 846.873v-216.31c63.1396 0.777344 126.075 7.40332 188.006 19.7939c-43.0273 111.831 -110.684 186.624 -188.006 196.516zM529.254 596.055
v-207.104h235.868c-0.880859 78.0596 -13.1279 155.576 -36.3623 230.113c-65.6182 -13.998 -132.424 -21.709 -199.506 -23.0098zM799.867 388.951h188.691c-3.54297 101.581 -39.5977 199.342 -102.86 278.896c-39.9463 -18.0732 -81.3672 -32.707 -123.802 -43.7246
c24.0225 -76.3701 36.8125 -155.822 37.9697 -235.868v0.696289h0.000976562zM799.867 354.432c-1.04395 -80.4346 -13.834 -160.287 -37.9697 -237.015c42.3828 -10.4238 83.7939 -24.4326 123.802 -41.8818c63.2627 79.5547 99.3174 177.315 102.86 278.896h-188.691
h-0.000976562zM385.434 -89.2266c-50.6875 47.7695 -89.1289 107.049 -112.066 172.81c-38.1035 -9.25684 -75.418 -21.4844 -111.606 -36.5879c60.4062 -65.3721 137.882 -112.559 223.672 -136.223zM161.772 693.161c36.1875 -15.1045 73.5029 -27.3408 111.605 -36.5879
c22.6709 66.4268 61.1328 126.361 112.067 174.652c-85.8525 -23.7979 -163.328 -71.1367 -223.672 -136.684v-1.38184zM638.566 831.227c50.7188 -47.8408 89.1592 -107.191 112.066 -173.046c38.1035 9.24707 75.418 21.4844 111.606 36.5879
c-60.375 65.4648 -137.852 112.732 -223.672 136.458h-0.000976562z" />
</svg>
