<?xml version="1.0" encoding="UTF-8"?>
<svg width="1024px" height="1025px" viewBox="0 0 1024 1025" version="1.1" xmlns="http://www.w3.org/2000/svg" xmlns:xlink="http://www.w3.org/1999/xlink">
  <g id="Internet" transform="translate(0, 0.0926)" fill="currentColor" fill-rule="nonzero">
    <path d="M512,0 C229.233,0 0,229.233 0,512 C0,794.767 229.233,1024 512,1024 C794.767,1024 1024,794.767 1024,512 C1023.62109,229.386 794.614,0.379 512,0 Z M862.004,188.457 C825.8155,203.5605 788.5001,215.7881 750.398,225.0449 C727.5933,159.1396 689.2339,99.6969 638.567,51.7739 C724.3365,75.6128 801.731,122.9516 862.004,188.4579 L862.004,188.4579 L862.004,188.456923 L862.004,188.457 Z M529.254,286.945 C596.295,286.094414 663.101,278.84441 728.76,265.318 C751.9954,339.8444 764.2424,417.372 765.1223,495.43 L529.254,495.43 L529.254,286.945 L529.254,286.945 Z M529.254,252.436 L529.254,36.126 C606.5763,46.0176 674.222,121.0362 717.26,232.417 C655.3489,244.8691 592.405,251.5762 529.254,252.436 L529.254,252.436 Z M494.746,36.127 L494.746,252.437 C431.6064,251.659656 368.671,245.03368 306.74,232.6431 C349.7673,120.8121 417.424,46.0191 494.746,36.127 L494.746,36.127 Z M494.7463,286.945 L494.7463,494.049 L258.878,494.049 C259.758859,415.9894 272.0059,338.473 295.2403,263.936 C360.8585,277.934 427.6643,285.645 494.7463,286.9458 L494.7463,286.945 Z M224.133,494.049 L35.442,494.049 C38.98497,392.468 75.0397,294.707 138.302,215.153 C178.2483,233.2262 219.6692,247.8483 262.104,258.8776 C238.0815,335.2477 225.2915,414.6996 224.1343,494.7456 L224.1343,494.049311 L224.133323,494.049311 L224.133,494.049 Z M224.133,528.568 C225.21796,608.8492 238.008,688.537 262.1027,765.122 C219.7199,775.5458 178.3088,789.5546 138.3007,807.0038 C75.038,727.4491 38.9833,629.6888 35.4407,528.1078 L224.1317,528.568738 L224.132677,528.568738 L224.133,528.568 Z M258.8767,528.568 L494.745,528.568 L494.745,735.672 C427.704,736.522586 360.898,743.77259 295.239,757.299 C272.2087,683.4279 259.9617,606.628 258.8767,529.254 L258.8767,528.568 L258.8767,528.568 Z M494.746,771.564 L494.746,987.874 C417.4237,977.9824 349.778,902.9638 306.74,791.583 C368.6511,779.1211 431.595,772.4238 494.746,771.564 L494.746,771.564 Z M529.254,987.873 L529.254,771.563 C592.3936,772.340344 655.329,778.96632 717.26,791.3569 C674.2327,903.1879 606.576,977.9809 529.254,987.873 L529.254,987.873 Z M529.2537,737.055 L529.2537,529.951 L765.122,529.951 C764.241141,608.0106 751.9941,685.527 728.7597,760.064 C663.1415,746.066 596.3357,738.355 529.2537,737.0542 L529.2537,737.055 Z M799.867,529.951 L988.558,529.951 C985.01503,631.532 948.9603,729.293 885.698,808.847 C845.7517,790.7738 804.3308,776.14 761.896,765.1224 C785.9185,688.7523 798.7085,609.3004 799.8657,529.2544 L799.8657,529.950689 L799.866677,529.950689 L799.867,529.951 Z M799.867,495.432 C798.82305,414.9974 786.033,335.145 761.8973,258.417 C804.2801,247.9932 845.6912,233.9844 885.6993,216.5352 C948.962,296.0899 985.0167,393.8502 988.5593,495.432 L799.8683,495.432 L799.867323,495.432 L799.867,495.432 Z M385.434,51.7725 C334.7465,99.5429 296.3051,158.8224 273.368,224.5834 C235.2645,215.32656 197.95,203.099 161.762,187.9955 C222.1682,122.6234 299.644,75.4365 385.434,51.7725 L385.434,51.7725 Z M161.772,834.161 C197.9595,819.0565 235.2749,806.8202 273.377,797.5731 C296.0479,863.9999 334.5098,923.9341 385.444,972.2251 C299.5915,948.4272 222.116,901.0884 161.772,835.5411 L161.772,834.15926 L161.772,834.161 Z M638.565023,972.227 C689.2848,924.3862 727.7252,865.036 750.632,799.181 C788.7355,808.42807 826.05,820.6654 862.238,835.7689 C801.863,901.2337 724.386,948.5009 638.565023,972.227 L638.565023,972.227 L638.565023,972.227 Z"></path>
  </g>
</svg>