<?xml version="1.0" encoding="UTF-8"?>
<svg width="1026px" height="1026px" viewBox="0 0 1026 1026" version="1.1" xmlns="http://www.w3.org/2000/svg" xmlns:xlink="http://www.w3.org/1999/xlink">
  <g id="Invision" transform="translate(0.7216, 0.0684)" fill="currentColor" fill-rule="nonzero">
    <path d="M930.8166,0 L93.1836,0 C41.9844,0 -4.26325641e-14,41.9844 -4.26325641e-14,93.1836 L-4.26325641e-14,931.8396 C-4.26325641e-14,983.0398 41.9844,1025.0242 93.1836,1025.0242 L931.8396,1025.0242 C983.0398,1025.0242 1025.0242,983.0398 1025.0242,931.8396 L1025.0242,93.1836 C1023.99979,41.9844 982.0154,0 930.8162,0 L930.8166,0 Z M342.0166,198.6562 C375.8086,198.6562 404.4814,225.2802 404.4814,260.0957 C404.4814,294.9121 375.8085,321.5361 342.0166,321.5361 C308.2247,321.5361 279.5527,294.9121 279.5527,260.0957 C279.5527,225.2803 308.2246,198.6562 342.0166,198.6562 L342.0166,198.6562 Z M760.8326,788.48 C697.3443,788.48 666.6246,750.5913 666.6246,699.3911 C666.6246,685.0552 668.67245,668.6714 672.76815,653.311 L703.48885,544.767 C707.58455,532.4799 707.58455,522.2397 707.58455,511.9994 C707.58455,477.183 686.08065,455.6791 652.28865,455.6791 C609.28085,455.6791 580.60895,486.3998 566.27305,546.8158 L506.88045,783.3598 L404.48145,783.3598 L422.91305,709.6313 C392.19335,759.8071 350.20895,790.5278 299.00905,790.5278 C236.54515,790.5278 206.84885,754.688 206.84885,700.4155 C206.84885,687.103 208.89768,669.6958 211.96897,654.3354 L259.07347,460.7994 L186.36937,460.7994 L208.89767,378.8795 L384.00167,378.8795 L315.39327,652.2875 C311.29757,669.6957 309.24972,684.0316 309.24972,694.2719 C309.24972,711.6791 317.4421,716.7992 331.77802,719.8715 C339.96943,721.91935 405.50552,720.89591 441.34502,641.0238 L484.35282,460.7988 L410.62532,460.7988 L433.15362,378.8789 L590.84862,378.8789 L570.36912,471.0391 C598.01662,419.8389 653.31252,370.6871 707.58512,370.6871 C765.95332,370.6871 813.05712,411.6471 813.05712,491.5181 C813.05712,511.9986 809.98583,533.5025 802.81782,559.1021 L773.12152,664.5751 C770.04925,675.8388 769.02582,685.0546 769.02582,693.247 C769.02582,711.6786 776.19379,720.8954 790.52972,720.8954 C803.84122,720.8954 822.27382,710.6552 841.72892,654.3349 L882.68982,669.6953 C858.11362,753.6631 815.10482,788.4793 760.83382,788.4793 L760.8326,788.48 Z"></path>
  </g>
</svg>