<?xml version="1.0" standalone="no"?>
<!DOCTYPE svg PUBLIC "-//W3C//DTD SVG 1.1//EN" "http://www.w3.org/Graphics/SVG/1.1/DTD/svg11.dtd" >
<svg xmlns="http://www.w3.org/2000/svg" xmlns:xlink="http://www.w3.org/1999/xlink" version="1.1" viewBox="-10 0 1046 1024">
   <path fill="currentColor"
d="M930.816 -141h-837.633c-51.1992 0 -93.1836 41.9844 -93.1836 93.1836v838.656c0 51.2002 41.9844 93.1846 93.1836 93.1846h838.656c51.2002 0 93.1846 -41.9844 93.1846 -93.1846v-838.656c-1.02441 -51.1992 -43.0088 -93.1836 -94.208 -93.1836zM342.016 57.6562
c33.792 0 62.4648 26.624 62.4648 61.4395c0 34.8164 -28.6729 61.4404 -62.4648 61.4404s-62.4639 -26.624 -62.4639 -61.4404c0 -34.8154 28.6719 -61.4395 62.4639 -61.4395zM760.832 647.48c-63.4883 0 -94.208 -37.8887 -94.208 -89.0889
c0 -14.3359 2.04785 -30.7197 6.14355 -46.0801l30.7207 -108.544c4.0957 -12.2871 4.0957 -22.5273 4.0957 -32.7676c0 -34.8164 -21.5039 -56.3203 -55.2959 -56.3203c-43.0078 0 -71.6797 30.7207 -86.0156 91.1367l-59.3926 236.544h-102.399l18.4316 -73.7285
c-30.7197 50.1758 -72.7041 80.8965 -123.904 80.8965c-62.4639 0 -92.1602 -35.8398 -92.1602 -90.1123c0 -13.3125 2.04883 -30.7197 5.12012 -46.0801l47.1045 -193.536h-72.7041l22.5283 -81.9199h175.104l-68.6084 273.408
c-4.0957 17.4082 -6.14355 31.7441 -6.14355 41.9844c0 17.4072 8.19238 22.5273 22.5283 25.5996c8.19141 2.04785 73.7275 1.02441 109.567 -78.8477l43.0078 -180.225h-73.7275l22.5283 -81.9199h157.695l-20.4795 92.1602
c27.6475 -51.2002 82.9434 -100.352 137.216 -100.352c58.3682 0 105.472 40.96 105.472 120.831c0 20.4805 -3.07129 41.9844 -10.2393 67.584l-29.6963 105.473c-3.07227 11.2637 -4.0957 20.4795 -4.0957 28.6719c0 18.4316 7.16797 27.6484 21.5039 27.6484
c13.3115 0 31.7441 -10.2402 51.1992 -66.5605l40.9609 15.3604c-24.5762 83.9678 -67.585 118.784 -121.856 118.784z" />
</svg>
