<?xml version="1.0" standalone="no"?>
<!DOCTYPE svg PUBLIC "-//W3C//DTD SVG 1.1//EN" "http://www.w3.org/Graphics/SVG/1.1/DTD/svg11.dtd" >
<svg xmlns="http://www.w3.org/2000/svg" xmlns:xlink="http://www.w3.org/1999/xlink" version="1.1" viewBox="-10 0 1044 1024">
   <path fill="currentColor"
d="M514 111c-144 -2 -262 114 -264 258c0 144 114 262 258 264c144 0 262 -114 264 -258c2 -146 -114 -264 -258 -264zM510 503c-72 0 -130 -60 -130 -134c0 -72 60 -130 134 -130c72 0 130 60 130 134c0 72 -60 130 -134 130zM512 -141h-2h-466c-24 0 -44 20 -44 44v468
c0 282 230 512 512 512s512 -230 512 -512s-230 -512 -512 -512zM512 723c-196 -2 -354 -164 -352 -360s162 -354 358 -352s354 164 352 358c0 198 -162 356 -358 354z" />
</svg>
