<?xml version="1.0" encoding="UTF-8"?>
<svg width="1024px" height="1025px" viewBox="0 0 1024 1025" version="1.1" xmlns="http://www.w3.org/2000/svg" xmlns:xlink="http://www.w3.org/1999/xlink">
  <g id="Issuu" transform="translate(0, 0.0926)" fill="currentColor" fill-rule="nonzero">
    <path d="M514,252 C370,250 252,366 250,510 C250,654 364,772 508,774 C652,774 770,660 772,516 C774,370 658,252 514,252 Z M510,644 C438,644 380,584 380,510 C380,438 440,380 514,380 C586,380 644,440 644,514 C644,586 584,644 510,644 Z M512,0 L510,0 L44,0 C20,0 0,20 0,44 L0,512 C0,794 230,1024 512,1024 C794,1024 1024,794 1024,512 C1024,230 794,0 512,0 Z M512,864 C316,862 158,700 160,504 C162,308 322,150 518,152 C714,154 872,316 870,510 C870,708 708,866 512,864 Z"></path>
  </g>
</svg>