<?xml version="1.0" encoding="UTF-8"?>
<svg width="957px" height="1025px" viewBox="0 0 957 1025" version="1.1" xmlns="http://www.w3.org/2000/svg" xmlns:xlink="http://www.w3.org/1999/xlink">
  <g id="Istock" transform="translate(0.9221, 0.6137)" fill="currentColor" fill-rule="nonzero">
    <path d="M26,320 L210,320 L210,1006 L26,1006 L26,320 Z M388,742 C444,806 530,850 622,850 C708,850 764,798 764,726 C764,598 580,584 448,504 C368,460 308,392 308,278 C308,102 470,0 636,0 C738,0 828,22 922,94 L824,238 C782,200 718,174 654,174 C584,174 500,204 500,282 C500,440 956,392 956,726 C956,904 798,1024 622,1024 C490,1024 366,968 264,878 L388,742 Z M0,120 C0,52 52,0 120,0 C188,0 240,52 240,120 C240,188 188,240 120,240 C52,240 0,188 0,120 Z"></path>
  </g>
</svg>