<?xml version="1.0" encoding="UTF-8"?>
<svg width="880px" height="318px" viewBox="0 0 880 318" version="1.1" xmlns="http://www.w3.org/2000/svg" xmlns:xlink="http://www.w3.org/1999/xlink">
  <g id="Itaku" transform="translate(0.4216, 0.3376)" fill="currentColor" fill-rule="nonzero">
    <path d="M59.59008,39.04195 C79.50218,75.34465 129.06178,102.11815 208.26608,119.36035 C327.07308,145.22465 361.19708,180.82615 361.19708,180.82615 C361.19708,180.82615 407.38748,170.23145 444.45488,188.2617 C508.63168,135.417 573.71188,102.0566 639.69388,88.1807 C738.66658,67.3682 802.47988,46.9756 879.32888,0 C824.69508,72.9717 763.56588,116.371 695.94288,130.195 C638.44578,155.3083 593.39888,185.2907 560.80088,220.1423 C555.59971,246.7224 582.28718,260.0612 640.86338,260.1599 C633.78818,268.38939 618.71198,275.5046 595.63488,281.5027 C598.05871,287.45778 604.2589,291.7605 614.23738,294.4109 C608.53816,296.20289 597.56258,295.199962 581.31158,291.39918 C581.459041,297.96363 584.75103,306.64328 591.1856,317.43828 C579.045,312.47734 564.3819,304.32008 547.1963,292.96658 C448.3984,296.35818 376.0473,281.86108 330.1453,249.47438 C297.6765,247.17458 281.4539,246.02321 281.4803,246.02321 C287.9305,236.81813 301.6844,223.59941 322.742,206.36601 C284.2137,175.65801 230.2908,155.94511 160.974,147.22931 C56.996,134.15511 23.361,90.43631 -2.84217094e-14,27.77431 C16.3408,40.51061 24.4854,46.86411 24.4346,46.83681 C28.66605,34.56731 30.78226,28.43251 30.78226,28.43251 C46.03026,49.70201 53.64266,60.33681 53.61726,60.33681 C53.5928459,60.33681 55.58308,53.2372 59.59187,39.04091 L59.59008,39.04195 Z"></path>
  </g>
</svg>