<?xml version="1.0" standalone="no"?>
<!DOCTYPE svg PUBLIC "-//W3C//DTD SVG 1.1//EN" "http://www.w3.org/Graphics/SVG/1.1/DTD/svg11.dtd" >
<svg xmlns="http://www.w3.org/2000/svg" xmlns:xlink="http://www.w3.org/1999/xlink" version="1.1" viewBox="-10 0 1034 1024">
   <path fill="currentColor"
d="M131.27 251.322c19.9121 36.3027 69.4717 63.0762 148.676 80.3184c118.807 25.8643 152.931 61.4658 152.931 61.4658s46.1904 -10.5947 83.2578 7.43555c64.1768 -52.8447 129.257 -86.2051 195.239 -100.081c98.9727 -20.8125 162.786 -41.2051 239.635 -88.1807
c-54.6338 72.9717 -115.763 116.371 -183.386 130.195c-57.4971 25.1133 -102.544 55.0957 -135.142 89.9473c-5.20117 26.5801 21.4863 39.9189 80.0625 40.0176c-7.0752 8.22949 -22.1514 15.3447 -45.2285 21.3428c2.42383 5.95508 8.62402 10.2578 18.6025 12.9082
c-5.69922 1.79199 -16.6748 0.789062 -32.9258 -3.01172c0.147461 6.56445 3.43945 15.2441 9.87402 26.0391c-12.1406 -4.96094 -26.8037 -13.1182 -43.9893 -24.4717c-98.7979 3.3916 -171.149 -11.1055 -217.051 -43.4922
c-32.4688 -2.2998 -48.6914 -3.45117 -48.665 -3.45117c6.4502 -9.20508 20.2041 -22.4238 41.2617 -39.6572c-38.5283 -30.708 -92.4512 -50.4209 -161.768 -59.1367c-103.978 -13.0742 -137.613 -56.793 -160.974 -119.455
c16.3408 12.7363 24.4854 19.0898 24.4346 19.0625c4.23145 -12.2695 6.34766 -18.4043 6.34766 -18.4043c15.248 21.2695 22.8604 31.9043 22.835 31.9043c-0.0244141 0 1.96582 -7.09961 5.97461 -21.2959z" />
</svg>
