<?xml version="1.0" encoding="UTF-8"?>
<svg width="1024px" height="922px" viewBox="0 0 1024 922" version="1.1" xmlns="http://www.w3.org/2000/svg" xmlns:xlink="http://www.w3.org/1999/xlink">
  <g id="Itchio" transform="translate(0.3341, 0.0926)" fill="currentColor" fill-rule="nonzero">
    <path d="M133.12,6.14355 C89.0878,32.76755 1.024,133.12055 0,159.74455 L0,203.77575 C0,259.07265 52.2236,308.22375 99.3281,308.22375 C155.6484,308.22375 202.7521,261.12025 202.7521,205.82475 C202.7521,261.12065 248.8322,308.22375 305.1521,308.22375 C361.4714,308.22375 405.5041,261.12025 405.5041,205.82475 C405.5041,261.12065 453.632,308.22375 510.9761,308.22375 L512.00051,308.22375 C568.32081,308.22375 617.47251,261.12025 617.47251,205.82475 C617.47251,261.12065 661.50471,308.22375 717.82551,308.22375 C774.14481,308.22375 820.22451,261.12025 820.22451,205.82475 C820.22451,261.12065 867.32901,308.22375 923.64951,308.22375 C970.75301,308.22375 1022.97661,259.07235 1022.97661,203.77575 L1022.97661,159.74455 C1022.97661,133.12055 934.91311,32.76755 890.88061,6.14355 C751.61661,1.02343 655.36061,0 512.00061,0 C368.64061,0 173.05661,2.04785 133.12061,6.14355 L133.12061,6.14355 L133.12,6.14355 Z M405.504,282.62375 C400.38388,291.83957 393.2159,301.05535 386.0479,308.22335 C364.544,328.70385 334.8477,342.01535 303.1036,342.01535 C270.336,342.01535 241.6641,328.70385 220.1602,308.22335 C211.96782,301.05538 206.8477,292.86395 200.7041,282.62375 L200.7041,282.62375 C195.58398,291.83957 187.3916,300.03195 180.2236,308.22335 C158.7197,328.70385 129.0244,342.01535 97.2802,342.01535 C93.18352,342.01535 89.08782,340.99191 86.0156,339.9675 C81.9199,387.072 79.87205,433.1511 78.84763,465.9195 L78.84763,465.9195 L78.84763,516.0953 C79.87204,615.4234 68.60833,838.6563 122.87983,893.9513 C204.79973,912.3829 358.40083,921.5988 511.99983,921.5988 L511.99983,921.5988 C665.59983,921.5988 819.19983,912.38298 902.14383,892.9269 C956.41633,837.631 945.15263,614.3989 946.17603,515.0719 L946.17603,464.8951 L946.17603,464.8951 C945.15259,432.1275 943.10376,386.0474 939.00806,338.9431 C935.93579,339.96751 931.84009,340.99193 927.74436,340.99193 C894.97576,340.99193 866.30396,327.67943 844.80006,307.19993 C836.60865,300.03196 829.44066,291.83953 824.32056,281.59933 L824.32056,281.59933 C819.20044,290.81515 813.05596,299.00753 804.86446,307.19993 C783.36056,327.67943 753.66426,340.99193 721.92016,340.99193 C689.15256,340.99193 660.48066,327.67943 638.97586,307.19993 C630.78445,300.03196 624.63996,290.81513 619.51976,281.59933 C614.40062,290.81515 607.23266,300.03193 600.06466,307.19993 C578.55976,327.67943 548.86446,340.99193 517.12036,340.99193 L514.04809,340.99193 L514.04809,340.99193 L510.97582,340.99193 C478.20822,340.99193 449.53632,327.67943 428.03242,307.19993 C417.79222,300.03196 410.62422,291.83953 405.50412,282.62373 L405.50412,282.62373 L405.504,282.62375 Z M320.512,393.21575 L320.512,393.21575 L320.512,393.21575 C354.304,393.21575 385.0247,393.21575 421.888,434.17575 C450.5599,430.08005 481.2806,429.05563 512.0003,429.05563 L512.0003,429.05563 C542.72,429.05563 573.4407,430.08004 603.136,433.15133 C640.0003,392.19133 670.72,392.19133 704.512,392.19133 L704.512,392.19133 L704.512,392.19133 C720.8968,392.19133 784.3841,392.19133 829.441,517.12033 L877.5689,689.15133 C913.4087,817.15133 866.3043,820.22333 807.9361,820.22333 C720.897,817.15106 672.7681,753.66373 672.7681,691.20033 C624.6402,699.39174 568.3211,703.48843 513.0251,703.48843 L513.0251,703.48843 C456.7048,703.48843 401.4091,699.39175 353.2811,691.20033 C353.2811,753.66423 305.1532,817.15133 218.1131,820.22333 C159.7449,820.22333 112.6401,817.15106 148.4813,689.15133 L196.6092,517.12033 C240.6404,393.21633 304.1292,393.21633 320.5122,393.21633 L320.5122,393.21633 L320.512,393.21575 Z M512,491.51975 L512,491.51975 C512,491.51975 420.8643,575.48855 404.48,605.18375 L463.8716,603.1359 L463.8716,655.3595 C463.8716,657.40833 487.4234,656.38391 511.9995,655.3595 L511.9995,655.3595 C535.5513,656.38391 560.1274,657.40833 560.1274,655.3595 L560.1274,603.1359 L619.519,605.18375 C603.1352,575.48845 511.999,491.51975 511.999,491.51975 L511.999,491.51975 L511.999,491.51975 L511.999,491.51975 L512,491.51975 Z"></path>
  </g>
</svg>