<?xml version="1.0" standalone="no"?>
<!DOCTYPE svg PUBLIC "-//W3C//DTD SVG 1.1//EN" "http://www.w3.org/Graphics/SVG/1.1/DTD/svg11.dtd" >
<svg xmlns="http://www.w3.org/2000/svg" xmlns:xlink="http://www.w3.org/1999/xlink" version="1.1" viewBox="-10 0 1043 1024">
   <path fill="currentColor"
d="M133.12 -83.6562c-44.0322 26.624 -132.096 126.977 -133.12 153.601v44.0312c0 55.2969 52.2236 104.448 99.3281 104.448c56.3203 0 103.424 -47.1035 103.424 -102.399c0 55.2959 46.0801 102.399 102.4 102.399c56.3193 0 100.352 -47.1035 100.352 -102.399
c0 55.2959 48.1279 102.399 105.472 102.399h1.02441c56.3203 0 105.472 -47.1035 105.472 -102.399c0 55.2959 44.0322 102.399 100.353 102.399c56.3193 0 102.399 -47.1035 102.399 -102.399c0 55.2959 47.1045 102.399 103.425 102.399
c47.1035 0 99.3271 -49.1514 99.3271 -104.448v-44.0312c0 -26.624 -88.0635 -126.977 -132.096 -153.601c-139.264 -5.12012 -235.52 -6.14355 -378.88 -6.14355s-338.944 2.04785 -378.88 6.14355v0zM405.504 192.824c-5.12012 9.21582 -12.2881 18.4316 -19.4561 25.5996
c-21.5039 20.4805 -51.2002 33.792 -82.9443 33.792c-32.7676 0 -61.4395 -13.3115 -82.9434 -33.792c-8.19238 -7.16797 -13.3125 -15.3594 -19.4561 -25.5996v0c-5.12012 9.21582 -13.3125 17.4082 -20.4805 25.5996c-21.5039 20.4805 -51.1992 33.792 -82.9434 33.792
c-4.09668 0 -8.19238 -1.02344 -11.2646 -2.04785c-4.0957 47.1045 -6.14355 93.1836 -7.16797 125.952v0v50.1758c1.02441 99.3281 -10.2393 322.561 44.0322 377.856c81.9199 18.4316 235.521 27.6475 389.12 27.6475v0c153.6 0 307.2 -9.21582 390.144 -28.6719
c54.2725 -55.2959 43.0088 -278.528 44.0322 -377.855v-50.1768v0c-1.02344 -32.7676 -3.07227 -78.8477 -7.16797 -125.952c-3.07227 1.02441 -7.16797 2.04883 -11.2637 2.04883c-32.7686 0 -61.4404 -13.3125 -82.9443 -33.792
c-8.19141 -7.16797 -15.3594 -15.3604 -20.4795 -25.6006v0c-5.12012 9.21582 -11.2646 17.4082 -19.4561 25.6006c-21.5039 20.4795 -51.2002 33.792 -82.9443 33.792c-32.7676 0 -61.4395 -13.3125 -82.9443 -33.792
c-8.19141 -7.16797 -14.3359 -16.3848 -19.4561 -25.6006c-5.11914 9.21582 -12.2871 18.4326 -19.4551 25.6006c-21.5049 20.4795 -51.2002 33.792 -82.9443 33.792h-3.07227v0h-3.07227c-32.7676 0 -61.4395 -13.3125 -82.9434 -33.792
c-10.2402 -7.16797 -17.4082 -15.3604 -22.5283 -24.5762v0zM320.512 303.416v0v0c33.792 0 64.5127 0 101.376 40.96c28.6719 -4.0957 59.3926 -5.12012 90.1123 -5.12012v0c30.7197 0 61.4404 1.02441 91.1357 4.0957c36.8643 -40.96 67.584 -40.96 101.376 -40.96v0v0
c16.3848 0 79.8721 0 124.929 124.929l48.1279 172.031c35.8398 128 -11.2646 131.072 -69.6328 131.072c-87.0391 -3.07227 -135.168 -66.5596 -135.168 -129.023c-48.1279 8.19141 -104.447 12.2881 -159.743 12.2881v0c-56.3203 0 -111.616 -4.09668 -159.744 -12.2881
c0 62.4639 -48.1279 125.951 -135.168 129.023c-58.3682 0 -105.473 -3.07227 -69.6318 -131.072l48.1279 -172.031c44.0312 -123.904 107.52 -123.904 123.903 -123.904v0zM512 401.72v0s-91.1357 83.9688 -107.52 113.664l59.3916 -2.04785v52.2236
c0 2.04883 23.5518 1.02441 48.1279 0v0c23.5518 1.02441 48.1279 2.04883 48.1279 0v-52.2236l59.3916 2.04785c-16.3838 -29.6953 -107.52 -113.664 -107.52 -113.664v0v0v0z" />
</svg>
