<?xml version="1.0" standalone="no"?>
<!DOCTYPE svg PUBLIC "-//W3C//DTD SVG 1.1//EN" "http://www.w3.org/Graphics/SVG/1.1/DTD/svg11.dtd" >
<svg xmlns="http://www.w3.org/2000/svg" xmlns:xlink="http://www.w3.org/1999/xlink" version="1.1" viewBox="-10 0 1034 1024">
   <path fill="currentColor"
d="M916 -95c0 -14 -2 -30 -14 -40c-16 -12 -38 -4 -56 0c-86 16 -174 34 -260 52c-44 10 -88 18 -132 26c-22 6 -44 10 -64 14c-16 4 -30 10 -40 24c-10 16 -6 32 -6 50v68v136v218v2v70c0 20 4 42 0 64c-6 36 -44 38 -74 46c-36 8 -78 14 -110 36c-52 34 -66 106 -32 158
c38 60 118 64 178 42c34 -12 64 -34 82 -66c16 -34 16 -76 16 -114v-272l-2 -136c0 -20 -2 -42 0 -62c4 -34 40 -32 66 -38c88 -18 178 -36 266 -54c22 -4 44 -10 66 -14c14 -4 32 -10 44 -2c14 8 12 28 12 40v68v132v70c0 20 2 42 0 62c-8 38 -46 40 -76 46
c-36 8 -78 16 -108 36c-52 36 -66 108 -34 160c38 58 118 64 180 42c32 -12 64 -34 80 -66c18 -36 16 -76 16 -114v-272v-272c0 -48 2 -94 2 -140z" />
</svg>
