<?xml version="1.0" encoding="UTF-8"?>
<svg width="807px" height="1026px" viewBox="0 0 807 1026" version="1.1" xmlns="http://www.w3.org/2000/svg" xmlns:xlink="http://www.w3.org/1999/xlink">
  <g id="Itunes" transform="translate(0.3872, 0.8284)" fill="currentColor" fill-rule="nonzero">
    <path d="M806.533316,46.3378354 C806.533316,32.3378354 804.533316,16.3378354 792.533316,6.33783537 C776.533316,-5.66216463 754.533316,2.33783537 736.533316,6.33783537 C650.533316,22.3378354 562.533316,40.3378354 476.533316,58.3378354 C432.533316,68.3378354 388.533316,76.3378354 344.533316,84.3378354 C322.533316,90.3378354 300.533316,94.3378354 280.533316,98.3378354 C264.533316,102.337835 250.533316,108.337835 240.533316,122.337835 C230.533316,138.337835 234.533316,154.337835 234.533316,172.337835 L234.533316,240.337835 L234.533316,376.337835 L234.533316,594.337835 L234.533316,596.337835 L234.533316,666.337835 C234.533316,686.337835 238.533316,708.337835 234.533316,730.337835 C228.533316,766.337835 190.533316,768.337835 160.533316,776.337835 C124.533316,784.337835 82.533316,790.337835 50.533316,812.337835 C-1.46668403,846.337835 -15.466684,918.337835 18.533316,970.337835 C56.533316,1030.33784 136.533316,1034.33784 196.533316,1012.33784 C230.533316,1000.33784 260.533316,978.337835 278.533316,946.337835 C294.533316,912.337835 294.533316,870.337835 294.533316,832.337835 L294.533316,560.337835 L292.533316,424.337835 C292.533316,404.337835 290.533316,382.337835 292.533316,362.337835 C296.533316,328.337835 332.533316,330.337835 358.533316,324.337835 C446.533316,306.337835 536.533316,288.337835 624.533316,270.337835 C646.533316,266.337835 668.533316,260.337835 690.533316,256.337835 C704.533316,252.337835 722.533316,246.337835 734.533316,254.337835 C748.533316,262.337835 746.533316,282.337835 746.533316,294.337835 L746.533316,362.337835 L746.533316,494.337835 L746.533316,564.337835 C746.533316,584.337835 748.533316,606.337835 746.533316,626.337835 C738.533316,664.337835 700.533316,666.337835 670.533316,672.337835 C634.533316,680.337835 592.533316,688.337835 562.533316,708.337835 C510.533316,744.337835 496.533316,816.337835 528.533316,868.337835 C566.533316,926.337835 646.533316,932.337835 708.533316,910.337835 C740.533316,898.337835 772.533316,876.337835 788.533316,844.337835 C806.533316,808.337835 804.533316,768.337835 804.533316,730.337835 L804.533316,458.337835 L804.533316,186.337835 C804.533316,138.337835 806.533316,92.3378354 806.533316,46.3378354 Z"></path>
  </g>
</svg>