<?xml version="1.0" standalone="no"?>
<!DOCTYPE svg PUBLIC "-//W3C//DTD SVG 1.1//EN" "http://www.w3.org/Graphics/SVG/1.1/DTD/svg11.dtd" >
<svg xmlns="http://www.w3.org/2000/svg" xmlns:xlink="http://www.w3.org/1999/xlink" version="1.1" viewBox="-10 0 1034 1024">
   <path fill="currentColor"
d="M344.064 326.968c-15.3604 -7.16797 -32.7686 -1.02344 -40.9609 13.3125l-60.415 120.832c-7.16895 15.3594 -1.02441 32.7676 13.3115 40.96c4.0957 2.04785 9.21582 3.07129 13.3115 3.07129c11.2646 0 21.5049 -6.14355 26.624 -16.3838l60.416 -120.832
c9.2168 -15.3594 3.07227 -33.792 -12.2871 -40.96zM766.976 206.136c-15.3594 -7.16797 -32.7676 -1.02344 -40.96 13.3125l-119.808 241.664c-7.16797 15.3594 -1.02441 32.7676 13.3115 40.96c4.09668 2.04785 9.2168 3.07129 13.3125 3.07129
c11.2637 0 21.5039 -6.14355 26.624 -16.3838l120.832 -241.664c8.19238 -15.3594 2.04785 -33.792 -13.3125 -40.96zM646.144 206.136c-15.3594 -7.16797 -32.7676 -1.02344 -40.96 13.3125l-59.3916 120.832c-7.16797 15.3594 -1.02441 32.7676 13.3115 40.96
c4.09668 2.04785 9.2168 3.07129 13.3125 3.07129c11.2637 0 21.5039 -6.14355 26.624 -16.3838l60.416 -120.832c8.19238 -15.3594 2.04785 -33.792 -13.3125 -40.96zM525.312 206.136c-15.3594 -7.16797 -32.7676 -1.02344 -40.96 13.3125l-120.832 241.664
c-7.16797 15.3594 -1.02344 32.7676 13.3125 40.96c4.0957 2.04785 9.21582 3.07129 13.3115 3.07129c11.2646 0 21.5049 -6.14355 26.624 -16.3838l120.832 -241.664c9.2168 -15.3594 3.07227 -33.792 -12.2881 -40.96zM941.056 100.664l-409.6 -236.544
c-11.2637 -7.16797 -26.624 -7.16797 -37.8877 0l-410.624 236.544c-11.2646 7.16797 -19.4561 19.4561 -19.4561 32.7676v474.112c0 13.3125 7.16797 25.5996 19.4561 32.7676l410.624 236.545c6.14355 3.07129 12.2881 5.11914 18.4316 5.11914
s13.3115 -2.04785 19.4561 -5.11914l410.624 -236.545c11.2637 -7.16797 19.4561 -19.4551 19.4561 -32.7676v-473.088c-1.02441 -14.3359 -8.19238 -26.624 -20.4805 -33.792zM892.928 572.728c0 11.2646 -6.14355 22.5283 -16.3838 27.6484l-348.16 201.728
c-5.12012 3.07227 -10.2402 4.09668 -16.3838 4.09668c-5.12012 0 -11.2637 -1.02441 -16.3838 -4.09668l-349.185 -201.728c-10.2393 -6.14355 -16.3838 -16.3838 -16.3838 -27.6484v-403.455c0 -11.2646 6.14453 -22.5283 16.3838 -27.6484l349.185 -201.728
c10.2402 -6.14453 22.5273 -6.14453 31.7441 0l349.184 201.728c10.2402 6.14355 16.3838 16.3838 16.3838 27.6484v403.455z" />
</svg>
