<?xml version="1.0" encoding="UTF-8"?>
<svg width="899px" height="1024px" viewBox="0 0 899 1024" version="1.1" xmlns="http://www.w3.org/2000/svg" xmlns:xlink="http://www.w3.org/1999/xlink">
  <g id="Jamendo" transform="translate(0.2429, 0.3376)" fill="currentColor" fill-rule="nonzero">
    <path d="M280.5758,468.223977 C265.2154,461.056007 247.8072,467.200537 239.6149,481.536477 L179.1999,602.368477 C172.03095,617.727877 178.17549,635.136078 192.5114,643.328477 C196.6071,645.376327 201.72722,646.399767 205.8229,646.399767 C217.0875,646.399767 227.3278,640.256217 232.4469,630.015967 L292.8629,509.183967 C302.0797,493.824567 295.93517,475.391967 280.5758,468.223967 L280.5758,468.223977 Z M703.4878,347.391978 C688.1284,340.224007 670.7202,346.368538 662.5278,360.704478 L542.7198,602.368477 C535.55183,617.727877 541.69539,635.136078 556.0313,643.328477 C560.12798,645.376327 565.2481,646.399768 569.3438,646.399768 C580.6075,646.399768 590.8477,640.256218 595.9678,630.015967 L716.7998,388.351967 C724.99218,372.992567 718.84765,354.559967 703.4873,347.391967 L703.4878,347.391978 Z M582.6558,347.391977 C567.2964,340.224007 549.8882,346.368537 541.6958,360.704477 L482.3042,481.536477 C475.13623,496.895877 481.27979,514.304077 495.6157,522.496477 C499.71238,524.544327 504.8325,525.567767 508.9282,525.567767 C520.1919,525.567767 530.4321,519.424217 535.5522,509.183967 L595.9682,388.351967 C604.16058,372.992567 598.01605,354.559967 582.6557,347.391967 L582.6558,347.391977 Z M461.8238,347.391978 C446.4644,340.224007 429.0562,346.368538 420.8638,360.704478 L300.0318,602.368477 C292.86383,617.727877 299.00836,635.136078 313.3443,643.328477 C317.44,645.376327 322.56012,646.399768 326.6558,646.399768 C337.9204,646.399768 348.1607,640.256218 353.2798,630.015967 L474.1118,388.351967 C483.3286,372.992567 477.18407,354.559967 461.8237,347.391967 L461.8238,347.391978 Z M877.5678,241.919977 L467.9678,5.3759775 C456.7041,-1.7919925 441.3438,-1.7919925 430.0801,5.3759775 L19.4561,241.919977 C8.1915,249.087947 -7.10542736e-15,261.376077 -7.10542736e-15,274.687577 L-7.10542736e-15,748.799577 C-7.10542736e-15,762.112077 7.16797,774.399177 19.4561,781.567177 L430.0801,1018.11218 C436.22365,1021.18347 442.3682,1023.23132 448.5117,1023.23132 C454.6552,1023.23132 461.8232,1021.18347 467.9678,1018.11218 L878.5918,781.567177 C889.8555,774.399207 898.0479,762.112077 898.0479,748.799577 L898.0479,275.711577 C897.02349,261.375677 889.85552,249.087577 877.5674,241.919577 L877.5678,241.919977 Z M829.4403,713.983977 C829.4403,725.248577 823.29625,736.512277 813.056,741.632377 L464.896,943.360377 C459.77588,946.432647 454.6558,947.457057 448.5122,947.457057 C443.39208,947.457057 437.2485,946.432647 432.1284,943.360377 L82.9434,741.632377 C72.7041,735.488827 66.5596,725.248577 66.5596,713.983977 L66.5596,310.528977 C66.5596,299.264377 72.70413,288.000677 82.9434,282.880577 L432.1284,81.1525775 C442.3686,75.0080475 454.6557,75.0080475 463.8725,81.1525775 L813.0565,282.880577 C823.2967,289.024127 829.4403,299.264377 829.4403,310.528977 L829.4403,713.983977 L829.4403,713.983977 Z"></path>
  </g>
</svg>