<?xml version="1.0" encoding="UTF-8"?>
<svg width="110px" height="110px" viewBox="0 0 110 110" version="1.1" xmlns="http://www.w3.org/2000/svg" xmlns:xlink="http://www.w3.org/1999/xlink">
    <title>jsr</title>
    <g id="jsr" stroke="none" stroke-width="1" fill="none" fill-rule="evenodd">
        <path d="M74.2307692,28 L74.2307692,35.6923077 L105,35.6923077 L105,66.4615385 L89.6153846,66.4615385 L89.6153846,81.8461538 L35.7692308,81.8461538 L35.7692308,74.1538462 L5,74.1538462 L5,43.3846154 L20.3846154,43.3846154 L20.3846154,28 L74.2307692,28 Z M66.5384615,35.6923077 L43.4615385,35.6923077 L43.4615385,58.7692308 L58.8461538,58.7692308 L58.8461538,66.4615385 L43.4615385,66.4615385 L43.4615385,74.1538462 L66.5384615,74.1538462 L66.5384615,51.0769231 L51.1538462,51.0769231 L51.1538462,43.3846154 L66.5384615,43.3846154 L66.5384615,35.6923077 Z M97.3076923,43.3846154 L74.2307692,43.3846154 L74.2307692,74.1538462 L81.9230769,74.1538462 L81.9230769,51.0769231 L89.6153846,51.0769231 L89.6153846,58.7692308 L97.3076923,58.7692308 L97.3076923,43.3846154 Z M35.7692308,35.6923077 L28.0769231,35.6923077 L28.0769231,58.7692308 L20.3846154,58.7692308 L20.3846154,51.0769231 L12.6923077,51.0769231 L12.6923077,66.4615385 L35.7692308,66.4615385 L35.7692308,35.6923077 Z" id="Shape" fill="currentColor" fill-rule="nonzero"></path>
    </g>
</svg>