<?xml version="1.0" standalone="no"?>
<!DOCTYPE svg PUBLIC "-//W3C//DTD SVG 1.1//EN" "http://www.w3.org/Graphics/SVG/1.1/DTD/svg11.dtd" >
<svg xmlns="http://www.w3.org/2000/svg" xmlns:xlink="http://www.w3.org/1999/xlink" version="1.1" viewBox="-10 0 1034 1024">
   <path fill="currentColor"
d="M850.944 335.16c-52.2246 -54.2725 -113.664 -93.1846 -181.248 -116.736c-2.04785 -1.02344 -5.12012 -2.04785 -7.16797 -2.04785c1.02344 -2.04785 2.04785 -4.0957 2.04785 -6.14355c17.4082 -45.0566 15.3594 -93.1846 -5.12012 -137.217
c-20.4805 -43.0078 -57.3438 -75.7754 -102.4 -91.1357c-27.6475 -9.21582 -52.2236 -13.3115 -72.7041 -13.3115h-1.02344s-10.2402 -16.3848 20.4795 -82.9443l-47.1035 -26.624c-4.0957 6.14355 -8.19238 11.2637 -12.2881 17.4082
c-15.3604 21.5039 -29.6963 41.9834 -44.0322 61.4395l-1.02344 -1.02344c-13.3125 -15.3604 -31.7441 -23.5518 -51.2002 -24.5762l-59.3926 -4.0957h-4.0957c-38.9121 0 -71.6797 30.7197 -74.752 69.6318l-4.0957 59.3916
c-2.04785 40.96 28.6719 75.7764 69.6318 78.8486l46.0801 3.07129c-4.0957 37.8887 2.04785 73.7285 17.4082 105.473c-58.3682 23.5518 -111.616 60.416 -157.696 106.496c-140.288 142.336 -140.288 297.983 -140.288 423.936v68.6084l54.2725 -57.3447
c11.2637 41.9844 28.6719 80.8965 50.1758 117.761h65.5361c-35.8408 -48.1279 -60.416 -104.448 -71.6807 -164.864l91.1367 -96.2559l-43.0088 135.168l67.584 -49.1523c132.097 -96.2559 289.792 -117.76 468.992 -65.5361
c75.7764 22.5283 149.504 2.04785 188.416 -52.2236c3.07227 -4.0957 6.14453 -8.19238 8.19238 -13.3125c5.12012 23.5527 7.16797 48.1279 7.16797 71.6807c0 66.5596 -11.2637 157.695 -58.3682 235.52h62.4639c33.792 -66.5596 51.2002 -146.432 51.2002 -235.52
c0 -114.688 -48.1279 -228.353 -132.096 -314.368zM363.52 -13l-1.02344 10.2402c-12.2881 22.5273 -22.5283 44.0322 -29.6963 67.584l-54.2715 -3.07227c-11.2646 -1.02441 -19.4561 -10.2402 -18.4326 -20.4795l4.09668 -59.3926
c1.02344 -10.2402 9.21582 -18.4316 19.4561 -18.4316h1.02344l59.3926 4.0957c5.11914 0 10.2393 3.07227 13.3115 6.14453c5.12012 3.07129 7.16797 8.19141 6.14355 13.3115zM646.144 421.176c-2.04785 1.02441 -3.07129 2.04785 -5.11914 3.07227h-3.07227
c-4.0957 0 -7.16797 -2.04785 -10.2402 -5.12012l-13.3115 -15.3604l-45.0566 36.8643c-1.02344 1.02441 -3.07129 2.04785 -6.14355 2.04785s-6.14453 -1.02344 -8.19238 -4.0957l-20.4795 -24.5762c-3.07227 -4.0957 -3.07227 -11.2637 1.02344 -14.3359l45.0566 -36.8643
l-17.4082 -22.5273l-22.5283 18.4316c-2.04785 1.02441 -4.0957 2.04785 -6.14355 2.04785c-3.07227 0 -6.14453 -1.02344 -7.16797 -4.0957l-5.12012 -5.12012c-3.07227 -4.0957 -3.07227 -11.2637 1.02344 -14.3359l21.5039 -18.4316l-45.0557 -55.2959
c-5.12012 -6.14453 -4.0957 -14.3369 2.04785 -18.4326c2.04785 -2.04785 5.12012 -3.07227 8.19238 -3.07227c4.0957 0 7.16797 2.04883 10.2402 5.12012l126.976 155.648c5.12012 5.12012 4.0957 14.3359 -1.02441 18.4316zM445.44 770.36
c0 22.6221 -18.3389 40.96 -40.96 40.96c-22.6221 0 -40.9609 -18.3379 -40.9609 -40.96s18.3389 -40.96 40.9609 -40.96c22.6211 0 40.96 18.3379 40.96 40.96zM698.368 770.36c0 22.6221 -18.3379 40.96 -40.96 40.96s-40.96 -18.3379 -40.96 -40.96
s18.3379 -40.96 40.96 -40.96s40.96 18.3379 40.96 40.96zM293.25 30.6826l2.20605 -35.7715l35.7715 2.20605l-2.20508 35.7715z" />
</svg>
