<?xml version="1.0" encoding="UTF-8"?>
<svg width="943px" height="1027px" viewBox="0 0 943 1027" version="1.1" xmlns="http://www.w3.org/2000/svg" xmlns:xlink="http://www.w3.org/1999/xlink">
  <g id="KeyBase" transform="translate(0.4654, 0.6614)" fill="currentColor" fill-rule="nonzero">
    <path d="M809.98362,476.1599 C757.75902,421.8874 696.31962,382.9753 628.73562,359.4239 C626.68777,358.40046 623.6155,357.37605 621.56765,357.37605 C622.59109,355.3282 623.6155,353.28035 623.6155,351.2325 C641.0237,306.1759 638.9749,258.0479 618.49538,214.0155 C598.01488,171.0077 561.15158,138.2401 516.09538,122.8798 C488.44788,113.66398 463.87178,109.5683 443.39128,109.5683 L442.36784,109.5683 C442.36784,109.5683 432.12764,93.1835 462.84734,26.624 L415.74384,2.84217094e-14 C411.64814,6.14355 407.55146,11.2637 403.45574,17.4082 C388.09534,38.9121 373.75944,59.3916 359.42354,78.8477 L358.4001,77.82426 C345.0876,62.46386 326.656,54.27246 307.1999,53.24806 L247.8073,49.15236 L243.7116,49.15236 C204.7995,49.15236 172.0319,79.87206 168.9596,118.78416 L164.8639,178.17576 C162.81605,219.13576 193.5358,253.95216 234.4957,257.02436 L280.5758,260.09565 C276.4801,297.98435 282.62365,333.82415 297.984,365.56865 C239.6158,389.12045 186.368,425.98465 140.288,472.06465 C-2.84217094e-14,614.40065 -2.84217094e-14,770.04765 -2.84217094e-14,896.00065 L-2.84217094e-14,964.60905 L54.2725,907.26435 C65.5362,949.24875 82.9444,988.16085 104.4483,1025.02535 L169.9844,1025.02535 C134.1436,976.89745 109.5684,920.57735 98.3037,860.16135 L189.4404,763.90545 L146.4316,899.07345 L214.0156,849.92115 C346.1126,753.66525 503.8076,732.16115 683.0076,784.38505 C758.784,806.91335 832.5116,786.4329 871.4236,732.16145 C874.49587,728.06575 877.56813,723.96907 879.61598,718.84895 C884.7361,742.40165 886.78395,766.97685 886.78395,790.52965 C886.78395,857.08925 875.52025,948.22465 828.41575,1026.04965 L890.87965,1026.04965 C924.67165,959.49005 942.07985,879.61765 942.07985,790.52965 C942.07985,675.84165 893.95195,562.17665 809.98385,476.16165 L809.98362,476.1599 Z M322.55962,127.9999 L321.53618,138.2401 C309.24808,160.7674 299.00788,182.2723 291.83988,205.8241 L237.56838,202.75183 C226.30378,201.72742 218.11228,192.51163 219.13578,182.27233 L223.23246,122.87973 C224.2559,112.63953 232.44828,104.44813 242.68856,104.44813 L243.712,104.44813 L303.1046,108.54383 C308.22374,108.54383 313.3439,111.6161 316.4161,114.68836 C321.53622,117.75965 323.58407,122.87977 322.55965,127.99986 L322.55962,127.9999 Z M605.18362,562.1759 C603.13577,563.20031 602.11233,564.22375 600.06448,565.24817 L596.99221,565.24817 C592.89651,565.24817 589.82424,563.20032 586.75201,560.12805 L573.44051,544.76765 L528.38391,581.63195 C527.36047,582.65636 525.31262,583.6798 522.24036,583.6798 C519.1681,583.6798 516.09583,582.65636 514.04798,579.5841 L493.56848,555.0079 C490.49621,550.9122 490.49621,543.7442 494.59192,540.672 L539.64852,503.8077 L522.24032,481.2804 L499.71202,499.712 C497.66417,500.73641 495.61632,501.75985 493.56847,501.75985 C490.4962,501.75985 487.42394,500.73641 486.4005,497.66415 L481.28038,492.54403 C478.20811,488.44833 478.20811,481.28033 482.30382,478.20813 L503.80772,459.77653 L458.75202,404.48063 C453.6319,398.3361 454.65632,390.14373 460.79987,386.04803 C462.84772,384.00018 465.91999,382.97576 468.99225,382.97576 C473.08795,382.97576 476.16022,385.02459 479.23245,388.09588 L606.20845,543.74388 C611.32857,548.864 610.30415,558.07978 605.18404,562.17548 L605.18362,562.1759 Z M404.47962,911.3599 C404.47962,933.982 386.14072,952.3199 363.51962,952.3199 C340.89752,952.3199 322.55872,933.982 322.55872,911.3599 C322.55872,888.7378 340.89762,870.3999 363.51962,870.3999 C386.14072,870.3999 404.47962,888.7378 404.47962,911.3599 Z M657.40762,911.3599 C657.40762,933.982 639.06972,952.3199 616.44762,952.3199 C593.82552,952.3199 575.48762,933.982 575.48762,911.3599 C575.48762,888.7378 593.82552,870.3999 616.44762,870.3999 C639.06972,870.3999 657.40762,888.7378 657.40762,911.3599 Z M252.28962,171.6825 L254.49567,135.911 L290.26717,138.11705 L288.06209,173.88855 L252.28962,171.6825 Z"></path>
  </g>
</svg>