<?xml version="1.0" encoding="UTF-8"?>
<svg width="512px" height="512px" viewBox="0 0 512 512" version="1.1" xmlns="http://www.w3.org/2000/svg" xmlns:xlink="http://www.w3.org/1999/xlink">
    <title>Kickstarter</title>
    <g id="Kickstarter" stroke="none" stroke-width="1" fill="none" fill-rule="evenodd">
        <path d="M455.315682,383.555661 C455.315682,362.042514 449.371199,341.300642 436.73623,322.860801 L389.17801,254.484326 L436.73623,186.107142 C449.371199,168.43669 455.315682,146.924958 455.315682,125.41299 C455.315682,68.5603533 409.983702,24.7682819 356.478645,24.7682819 C325.268931,24.7682819 294.056864,40.9021729 274.735646,68.5603533 L250.955595,102.364605 C242.038164,57.0360426 204.138905,24 155.835625,24 C100.101269,24 57,70.0967708 57,126.949643 L57,384.324578 C57,441.177214 100.844447,487.274457 155.835625,487.274457 C203.395727,487.274457 240.552043,456.541389 250.212652,411.98198 L271.019991,442.712688 C290.341209,471.907923 322.29669,487.274457 353.506404,487.274457 C409.983702,488.041015 455.315682,440.408298 455.315682,383.555661 Z" id="Path" fill="currentColor"></path>
    </g>
</svg>