<?xml version="1.0" standalone="no"?>
<!DOCTYPE svg PUBLIC "-//W3C//DTD SVG 1.1//EN" "http://www.w3.org/Graphics/SVG/1.1/DTD/svg11.dtd" >
<svg xmlns="http://www.w3.org/2000/svg" xmlns:xlink="http://www.w3.org/1999/xlink" version="1.1" viewBox="-10 0 1034 1024">
   <path fill="currentColor"
d="M740.22 97.4463c-29.2803 -10.7646 -60.7148 -17.6543 -93.8711 -18.9473c-54.6855 -2.58398 -106.79 9.47266 -152.433 32.7246c-2.58398 1.29199 -5.59766 2.58398 -8.6123 4.30762v156.738c0 2.15332 0 10.3359 -1.29199 17.2246
c-3.01367 15.9326 -12.4873 30.1426 -25.8359 39.1846c-11.1953 7.75 -24.1123 11.1963 -37.8926 10.7646c-2.58398 0 -5.59863 -0.430664 -8.18164 -0.862305c-6.88965 -1.29199 -14.21 -3.87598 -16.3623 -4.73633c-6.02832 -2.15234 -93.8711 -36.1709 -136.071 -52.5342
c-5.16699 -2.15234 -9.47266 -3.87598 -12.9189 -5.16699c-50.3799 42.6309 -103.344 93.4414 -152.863 153.295c-0.429688 0.429688 -2.58398 3.01367 -3.01367 3.44434c-6.45898 9.04199 -6.88965 21.9609 0 31.8643c5.16699 7.32129 13.3486 11.626 21.5312 12.0566
c5.59766 0.430664 11.626 -1.29199 16.793 -4.73535c0.429688 -0.430664 0.861328 -0.862305 1.72168 -1.29199v0c52.5342 -37.8936 110.233 -68.4668 171.38 -93.0098c4.30762 -2.15234 9.47363 -3.44434 14.21 -3.01367c6.89062 0.429688 13.3496 3.01367 18.5166 8.18066
c9.90332 9.9043 10.335 25.8359 2.15234 36.6016v0c-3.44434 5.16699 -6.45898 10.335 -9.47266 15.502c-32.7256 53.3936 -58.9922 111.526 -78.8008 172.241c-0.430664 1.72168 -0.862305 3.01367 -1.29199 4.73535v0.430664
c-1.72266 7.32031 -0.430664 15.0703 4.30664 21.5303c5.16699 7.32129 13.3486 11.626 21.9609 12.0576c6.02832 0.429688 11.626 -1.29199 16.793 -4.73633c2.15332 -1.72168 4.30664 -3.44531 6.02832 -5.59766v0c0.429688 -0.862305 1.29199 -1.72266 1.72168 -2.58398
v0c21.5312 -30.5732 45.2129 -59.4229 70.6191 -86.1201c113.248 -121.43 263.528 -207.119 431.894 -240.706v0c1.29199 -0.429688 2.58398 -0.429688 3.87598 -0.429688c9.47363 0.429688 16.793 8.61133 16.3633 18.085
c-0.429688 8.18066 -6.02734 14.21 -13.7773 15.9326c-156.309 33.1572 -437.923 218.745 -339.313 488.303c1.72168 4.30762 3.01367 6.89062 5.16699 10.7646c5.16699 7.32031 13.3486 11.626 21.5312 12.0566c4.73535 0 18.085 -1.29199 26.2656 -15.9326
c15.9336 -30.1436 46.0742 -63.7295 133.057 -99.9004c242.43 -100.33 282.475 -243.72 286.781 -334.578v-5.16699c3.87598 -135.209 -80.0918 -253.193 -200.66 -297.976h-0.00488281zM496.931 807.938c-22.3916 -66.7432 -20.2373 -131.333 6.02832 -192.909
c50.3799 81.3828 138.223 88.2734 138.223 88.2734c-89.9951 37.4629 -125.304 74.4941 -144.251 104.637v-0.000976562zM87.4268 106.488c0.430664 0.861328 1.29199 1.72168 1.72266 2.15234v0c22.8213 31.0039 48.6572 58.1328 76.6465 82.2451
c0.429688 0.430664 0.862305 0.430664 0.862305 0.862305c18.085 15.502 52.5342 37.8926 77.5078 46.9346c0 0 155.447 59.8545 163.629 63.2988c3.01367 1.29199 7.32129 2.58398 9.47266 3.01367c6.89062 1.29199 14.21 0 20.6689 -4.30664
c6.45996 -4.30762 10.3359 -10.7646 11.627 -17.6543c0.429688 -2.58398 0.861328 -6.89062 0.861328 -9.9043v-175.686c0.430664 -26.6973 -8.18066 -67.1758 -15.9326 -89.5654c0 -0.429688 -0.430664 -0.862305 -0.430664 -1.29199
c-12.0566 -34.8779 -28.4199 -68.8955 -49.0889 -101.19v0c-0.429688 -0.862305 -0.861328 -1.72266 -1.29199 -2.58496l-0.429688 -0.429688c-8.6123 -12.0566 -25.8359 -15.0713 -38.3232 -6.45898c-2.15234 1.29199 -3.44434 3.01367 -5.16699 4.73633v0
c-1.29199 1.72168 -2.15234 3.01367 -3.44434 4.73535c-27.5596 40.0469 -38.7549 88.7041 -31.4346 136.502c-14.21 7.32031 -29.2812 17.2236 -31.0039 18.5156v0v0c-1.72168 1.29199 -16.793 11.626 -28.4199 22.3916
c-41.7676 -23.6826 -91.7178 -31.0039 -138.653 -19.8076c-1.72168 0.429688 -3.87598 0.862305 -5.59766 1.29199v0c-2.15332 0.862305 -4.30664 1.72168 -6.02832 3.01367c-12.4873 8.6123 -15.9326 25.4062 -7.75 38.3232v0.862305zM360.86 -66.1836
c14.6396 24.5449 27.1279 49.9482 37.0312 76.6465c-19.8076 3.44531 -39.1846 8.6123 -58.1318 15.502c-2.58398 -32.2949 4.73633 -64.1602 21.0996 -92.1475zM218.331 109.502c-13.7783 15.0713 -25.4062 31.4336 -35.7393 48.6582
c-21.0986 -18.5166 -40.4775 -39.6162 -58.1318 -62.0059c32.2949 -5.59863 64.5908 -0.862305 93.8711 13.3486v-0.000976562z" />
</svg>
