<?xml version="1.0" encoding="UTF-8"?>
<svg width="859px" height="961px" viewBox="0 0 859 961" version="1.1" xmlns="http://www.w3.org/2000/svg" xmlns:xlink="http://www.w3.org/1999/xlink">
  <g id="Kitsu" transform="translate(0.7168, 0.8284)" fill="currentColor" fill-rule="nonzero">
    <path d="M657.229215,206.44838 C627.948915,195.68378 596.514415,188.79408 563.358115,187.50108 C508.672615,184.9171 456.568115,196.97374 410.925115,220.22568 C408.341135,221.51767 405.327455,222.80966 402.312815,224.5333 L402.312815,381.2713 C402.312815,383.42462 402.312815,391.6072 401.020825,398.4959 C398.007155,414.4285 388.533525,428.6385 375.184925,437.6805 C363.989625,445.4305 351.072625,448.8768 337.292325,448.4451 C334.708345,448.4451 331.693695,448.014436 329.110685,447.582795 C322.221035,446.290805 314.900685,443.706815 312.748385,442.846465 C306.720065,440.694125 218.877285,406.675565 176.677385,390.312265 C171.510395,388.159925 167.204725,386.436285 163.758485,385.145275 C113.378585,427.776175 60.4144853,478.586675 10.8954853,538.440275 C10.4657973,538.869963 8.31150532,541.453945 7.88181532,541.884615 C1.42283532,550.926605 0.992165315,563.845515 7.88181532,573.748915 C13.0488053,581.070205 21.2304153,585.374915 29.4130153,585.805515 C35.0106753,586.236179 41.0390153,584.513525 46.2060153,581.070165 C46.6357033,580.639501 47.0673433,580.20786 47.9276953,579.778175 L47.9276953,579.778175 C100.461895,541.884575 158.160695,511.311375 219.307695,486.768375 C223.615315,484.616035 228.781325,483.324035 233.517695,483.754705 C240.408315,484.184393 246.867295,486.768375 252.034295,491.935365 C261.937615,501.839665 262.369295,517.771265 254.186635,528.536965 L254.186635,528.536965 C250.742295,533.703955 247.727655,538.871965 244.713975,544.038965 C211.988375,597.432565 185.721775,655.564965 165.913175,716.279965 C165.482511,718.001645 165.05087,719.293635 164.621185,721.015315 L164.621185,721.445979 C162.898525,728.766289 164.190521,736.516279 168.927825,742.976279 C174.094815,750.297569 182.276425,754.602279 190.888725,755.033879 C196.917045,755.463567 202.514725,753.741889 207.681725,750.297549 C209.835045,748.575869 211.988365,746.852239 213.710045,744.699889 L213.710045,744.699889 C214.139733,743.837584 215.002035,742.977229 215.431725,742.115909 L215.431725,742.115909 C236.962925,711.542709 260.644625,682.693009 286.050825,655.995809 C399.298825,534.565809 549.578825,448.876809 717.944825,415.289809 L717.944825,415.289809 C719.236815,414.860121 720.528805,414.860121 721.820805,414.860121 C731.294435,415.289809 738.613805,423.471451 738.184105,432.945121 C737.754417,441.125781 732.156765,447.155121 724.406805,448.877721 C568.097805,482.034921 286.483805,667.622721 385.093805,937.180721 C386.815485,941.488341 388.107475,944.071341 390.260795,947.945321 C395.427785,955.265631 403.609395,959.571321 411.791995,960.001921 C416.527345,960.001921 429.876995,958.709931 438.057595,944.069321 C453.991195,913.925721 484.131795,880.339821 571.114595,844.168921 C813.544595,743.838921 853.589595,600.448921 857.895595,509.590921 L857.895595,504.423931 C861.771575,369.214931 777.803795,251.230931 657.235595,206.447931 L657.230713,206.447931 L657.229215,206.44838 Z M413.940215,916.94148 C391.548615,850.19688 393.702915,785.60708 419.968535,724.03108 C470.348435,805.41388 558.191535,812.30448 558.191535,812.30448 C468.196435,849.76738 432.887535,886.79858 413.940535,916.94148 L413.940535,916.94148 L413.940215,916.94148 Z M4.43601532,215.49008 C4.86667932,216.351408 5.72800532,217.21176 6.15867532,217.64242 L6.15867532,217.64242 C28.9799753,248.64632 54.8158753,275.77522 82.8051753,299.88752 C83.2348633,300.318184 83.6674803,300.318184 83.6674803,300.749825 C101.75248,316.251825 136.20168,338.642425 161.17528,347.684425 C161.17528,347.684425 316.62228,407.538925 324.80428,410.983225 C327.81795,412.275215 332.12557,413.567205 334.27694,413.996895 C341.16756,415.288885 348.48694,413.996895 354.94584,409.690255 C361.4058,405.382635 365.28174,398.925655 366.57284,392.035955 C367.002528,389.451975 367.434168,385.145335 367.434168,382.131655 L367.434168,206.445655 C367.864832,179.748355 359.253508,139.269855 351.501568,116.880255 C351.501568,116.450567 351.070904,116.01795 351.070904,115.588265 C339.014304,80.7103652 322.651004,46.6927652 301.982004,14.3982652 L301.982004,14.3982652 C301.552316,13.5359602 301.120676,12.6756052 300.690014,11.8133052 L300.260326,11.3836172 C291.648026,-0.672982839 274.424426,-3.68768284 261.937126,4.92463716 C259.784786,6.21662716 258.492786,7.93830716 256.770136,9.66096716 L256.770136,9.66096716 C255.478146,11.3826472 254.617796,12.6746372 253.325796,14.3963172 C225.766196,54.4432172 214.570896,103.100417 221.891196,150.898317 C207.681196,158.218627 192.609996,168.121917 190.887296,169.413917 L190.887296,169.413917 L190.887296,169.413917 C189.165616,170.705907 174.094296,181.039917 162.467396,191.805517 C120.699796,168.122917 70.7495963,160.801617 23.8143963,171.997917 C22.0927163,172.427605 19.9384163,172.860222 18.2167363,173.289907 L18.2167363,173.289907 C16.0634163,174.152212 13.9100963,175.011587 12.1884163,176.303577 C-0.298883685,184.915877 -3.74418368,201.709777 4.43841632,214.626777 L4.43841632,215.489082 L4.43601532,215.49008 Z M277.869215,42.8184802 C292.508815,67.3633802 304.997115,92.7666802 314.900415,119.46498 C295.092815,122.91029 275.715815,128.07728 256.768615,134.96698 C254.184635,102.67208 261.504945,70.8067802 277.868215,42.8194802 L277.869215,42.8184802 Z M135.340215,218.50408 C121.561915,233.57538 109.934015,249.93768 99.6009153,267.16228 C78.5023153,248.64568 59.1234153,227.54608 41.4691153,205.15638 C73.7640153,199.55775 106.059915,204.294075 135.340215,218.50498 L135.340215,218.504004 L135.340215,218.50408 Z"></path>
  </g>
</svg>