<?xml version="1.0" encoding="UTF-8"?>
<svg width="1025px" height="653px" viewBox="0 0 1025 653" version="1.1" xmlns="http://www.w3.org/2000/svg" xmlns:xlink="http://www.w3.org/1999/xlink">
  <g id="Ko-Fi" transform="translate(0.5322, 0.0684)" fill="currentColor" fill-rule="nonzero">
    <path d="M1019.15678,196.013 C986.167484,21.68 811.791784,0 811.791784,0 L30.8537843,0 C5.07738429,0 1.87628429,34.0557 1.87628429,34.0557 C1.87628429,34.0557 -1.62371571,346.6187 0.936831292,538.5777 C7.93585129,642.0247 111.298831,652.6077 111.298831,652.6077 C111.298831,652.6077 464.106831,651.627231 621.965831,650.51688 C726.010831,632.33718 736.467831,541.00888 735.400831,491.16288 C921.128831,501.40408 1052.14483,370.34588 1019.15783,196.01188 L1019.15678,196.013 Z M547.070784,345.851 C493.894984,407.8598 375.893784,515.533 375.893784,515.533 C375.893784,515.533 370.729724,520.61112 362.664284,516.514445 C359.420144,514.081825 358.054904,512.673625 358.054904,512.673625 C339.150604,493.853325 214.321904,382.552625 185.898904,343.930625 C155.640104,302.748025 141.472104,228.703625 182.014134,185.600625 C222.599134,142.498125 310.257134,139.253925 368.212134,202.969725 C368.212134,202.969725 435.000234,126.919925 516.214134,161.872025 C597.470034,196.866125 594.397734,290.371025 547.069634,345.851025 L547.070784,345.851 Z M810.512784,366.25 C770.909284,371.19922 738.730584,367.44434 738.730584,367.44434 L738.730584,125.00034 L814.267684,125.00034 C814.267684,125.00034 898.382884,148.51404 898.382884,237.58134 C898.382884,319.22094 856.345784,351.39834 810.511784,366.25134 L810.512784,366.25 Z"></path>
  </g>
</svg>