<?xml version="1.0" standalone="no"?>
<!DOCTYPE svg PUBLIC "-//W3C//DTD SVG 1.1//EN" "http://www.w3.org/Graphics/SVG/1.1/DTD/svg11.dtd" >
<svg xmlns="http://www.w3.org/2000/svg" xmlns:xlink="http://www.w3.org/1999/xlink" version="1.1" viewBox="-11 0 1046 1024">
   <path fill="currentColor"
d="M1019.03 240.708c-32.9893 -174.333 -207.365 -196.013 -207.365 -196.013h-780.938c-25.7764 0 -28.9775 34.0557 -28.9775 34.0557s-3.5 312.563 -0.939453 504.522c6.99902 103.447 110.362 114.03 110.362 114.03s352.808 -0.980469 510.667 -2.09082
c104.045 -18.1797 114.502 -109.508 113.435 -159.354c185.728 10.2412 316.744 -120.817 283.757 -295.151zM546.944 390.546c-53.1758 62.0088 -171.177 169.682 -171.177 169.682s-5.16406 5.07812 -13.2295 0.981445
c-3.24414 -2.43262 -4.60938 -3.84082 -4.60938 -3.84082c-18.9043 -18.8203 -143.733 -130.121 -172.156 -168.743c-30.2588 -41.1826 -44.4268 -115.227 -3.88477 -158.33c40.585 -43.1025 128.243 -46.3467 186.198 17.3691c0 0 66.7881 -76.0498 148.002 -41.0977
c81.2559 34.9941 78.1836 128.499 30.8555 183.979zM810.386 410.945c-39.6035 4.94922 -71.7822 1.19434 -71.7822 1.19434v-242.444h75.5371s84.1152 23.5137 84.1152 112.581c0 81.6396 -42.0371 113.817 -87.8711 128.67z" />
</svg>
