<?xml version="1.0" encoding="UTF-8"?>
<svg width="524px" height="524px" viewBox="0 0 524 524" version="1.1" xmlns="http://www.w3.org/2000/svg" xmlns:xlink="http://www.w3.org/1999/xlink">
    <title>KomiMart</title>
    <g id="KomiMart" stroke="none" stroke-width="1" fill="none" fill-rule="evenodd">
        <path d="M193.04,299.61 C215.85,299.61 235.78,310.94 252.43,326.18 C254.05,327.65 257.43,329.84 260.43,329.84 L260.43,458.66 C253.9,458.66 223.74,435.5 210.27,425.01 L205.062964,420.662177 C191.161863,409.001436 153.5436,376.9371 143.37,362.43 C129.42,342.49 131.24,328.49 137.04,322.61 C152.84,306.54 170.23,299.61 193.04,299.61 Z M327.93,299.61 C350.74,299.61 368.14,306.54 383.93,322.61 C389.73,328.49 391.55,342.49 377.59,362.43 C365.06,380.34 310.65,425.01 310.71,425.01 L306.297705,428.432275 C302.014252,431.739703 296.857534,435.674499 291.551543,439.593612 L289.48257,441.115215 L287.353066,442.666668 L286.501907,443.28227 C283.099533,445.73763 279.729539,448.10377 276.580452,450.213239 L275.01071,451.255332 C268.365127,455.625284 262.903758,458.66 260.54,458.66 L260.54,329.84 C263.54,329.84 266.93,327.65 268.54,326.18 C285.2,310.94 305.12,299.61 327.93,299.61 Z M179.72,416.27 C181.110225,416.274187 182.450992,416.78631 183.49,417.71 C192.93,426.04 204.22,434.14 212.37,440.98 L215.55,443.65 C215.9638,443.986171 216.118837,444.547797 215.936096,445.048643 C215.753355,445.549489 215.273061,445.879306 214.74,445.870376 L120.43,445.870376 L120.43,443.87 L95.71,435.49 L95.71,426.59 L120.43,418.27 L120.43,416.27 L179.72,416.27 Z M421.17,416.269964 C425.701968,416.281027 429.37,419.958018 429.37,424.49 L429.37,437.63 C429.37,439.81008 428.503967,441.900869 426.962418,443.442418 C425.420869,444.983967 423.33008,445.85 421.15,445.85 L301.15,445.85 C300.635754,445.845314 300.185979,445.502603 300.045005,445.008036 C299.90403,444.513469 300.105512,443.985119 300.54,443.71 C302.278242,442.715106 303.948576,441.606005 305.54,440.39 C313.63,433.6 324.77,425.3 331.4,417.74 C332.219424,416.802588 333.404937,416.266372 334.65,416.269964 L421.17,416.269964 Z M395.47,58.41 C399.000635,58.8627876 402.375034,60.1406057 405.32,62.14 C423.29,74.96 430.38,191.83 421.31,246.86 C419.52,257.74 418.68,268.56 414.03,278.6 C409.13,289.2 404.18,299.45 399.34,309.06 C398.71461,310.681459 397.064211,311.667572 395.34,311.45 C394.234994,311.541242 393.14983,311.116773 392.4,310.3 C355.991803,276.662729 299.855097,276.623563 263.4,310.21 C262.685634,310.877304 261.768845,311.279178 260.802219,311.356623 L260.519743,311.370252 L260.4,311.37 C259.345359,311.344314 258.333897,310.932913 257.56,310.21 C221.104903,276.623563 164.968197,276.662729 128.56,310.3 C127.811938,311.11935 126.725456,311.544334 125.62,311.45 C123.893949,311.662468 122.244787,310.672971 121.62,309.05 C116.78,299.44 111.83,289.19 106.93,278.59 C103.285405,270.728649 101.987502,262.381987 100.729944,253.901504 L100.469579,252.145127 C100.295377,250.973089 100.118917,249.798967 99.9341459,248.623683 L99.65,246.86 C90.59,191.83 97.68,74.96 115.65,62.14 C118.594966,60.1406057 121.969365,58.8627876 125.5,58.41 C146.5,58.41 158.6,64.54 201.5,131.41 C227.4479,171.8119 243.153755,217.231912 252.683118,234.883633 L252.97,235.41 C254.252286,237.741429 256.383878,240.365396 260.217317,240.870951 L260.481,240.901 L260.743516,240.870951 C264.586122,240.365396 266.717714,237.741429 268,235.41 C277.5,218.15 293.26,172.22 319.47,131.41 C362.37,64.54 374.47,58.41 395.47,58.41 Z" id="Shape" fill="currentColor" fill-rule="nonzero"></path>
    </g>
</svg>