<?xml version="1.0" encoding="UTF-8"?>
<svg width="552px" height="552px" viewBox="0 0 552 552" version="1.1" xmlns="http://www.w3.org/2000/svg" xmlns:xlink="http://www.w3.org/1999/xlink">
    <title>Koo</title>
    <g id="Koo" stroke="none" stroke-width="1" fill="none" fill-rule="evenodd">
        <path d="M314.157056,31.0498578 C324.970007,39.563739 331.666506,52.8482318 331.666506,68.9900603 L331.669172,78.3834174 C363.922405,88.6578865 386.996517,114.919106 401.643632,153.976505 C411.868453,181.241596 417.739453,213.513633 420.274753,250.208546 C422.301901,250.110758 424.187126,250.60426 425.903754,251.459802 C427.227471,252.119523 428.373416,252.964806 429.471685,253.982604 C430.994386,255.393735 432.498529,257.225657 434.039668,259.456166 C436.872184,263.5557 439.87475,269.09454 442.591325,275.273705 C449.134934,290.157906 453.249625,306.600827 453.249625,321.472482 C453.249625,347.607147 439.555762,365.362192 413.940864,372.73887 L412.451039,373.157345 C407.696773,389.109461 401.007104,403.066464 392.114897,415.184655 C375.830171,437.377283 352.595243,452.479062 321.817713,460.167712 L328.832864,478.86431 C331.77999,482.899957 334.479963,484.91778 336.932782,484.91778 L366.475714,484.91778 C368.584428,484.752021 369.638785,486.306707 369.638785,489.581838 C369.610311,494.884835 359.669542,496.636055 339.816478,494.835498 C351.431656,505.282246 354.845796,512.085708 350.058899,515.245882 C346.155684,517.777214 342.586112,516.271702 339.350183,510.729347 C332.836786,500.230494 324.394393,494.981067 314.023004,494.981067 C298.397584,495.130544 295.35561,492.140525 297.060502,484.743879 L312.783904,484.743879 C314.637765,484.869524 315.794497,484.222951 316.254101,482.804162 L308.788231,462.901536 C296.923248,464.945394 284.063625,466.016317 270.181445,466.099116 L268.153948,466.104318 C257.982,465.820696 248.271354,465.149906 239.004862,464.103511 L249.647663,493.161789 C252.296432,496.688905 254.735204,498.452463 256.96398,498.452463 L285.672476,498.452463 C287.72163,498.286773 288.746207,499.840809 288.746207,503.114572 C288.718537,508.415353 279.058544,510.165842 259.766226,508.366037 L260.498883,509.049268 L261.208442,509.721945 C271.329604,519.39924 274.166574,525.747889 269.719351,528.767892 C265.926382,531.298166 262.457632,529.793283 259.313101,524.253244 C252.983674,513.758778 244.779735,508.511545 234.701285,508.511545 L233.804853,508.516734 L232.954469,508.514453 C219.290317,508.417341 216.626755,505.379404 218.217886,498.278635 L233.497183,498.278635 C235.359814,498.408488 236.498249,497.713173 236.912491,496.192688 L224.423247,462.08888 C201.512395,458.317579 181.554069,452.038682 164.244944,443.456685 C141.650696,432.254283 124.334877,417.606474 110.432444,399.685612 L109.630851,398.644201 L109.463917,398.397015 C105.201045,392.084814 102.25488,386.702439 100.617608,382.052103 C98.3559039,375.628195 98.25473,369.81041 101.671092,364.848982 C104.315422,361.008742 107.965333,358.6507 112.367515,357.603513 C113.167547,357.413202 113.897546,357.270498 114.654173,357.1632 C113.876404,355.384459 113.495764,353.383636 113.6061,351.198625 C114.068348,342.04462 121.867408,320.255127 133.548782,298.9647 L133.903948,298.319702 C140.319652,286.710336 147.682836,275.063809 154.326689,265.86518 L154.967341,264.982715 C158.270653,260.456181 161.268795,256.719838 163.773988,254.036005 C165.241066,252.464314 166.583933,251.199247 167.892686,250.211932 C170.180681,248.485883 172.354588,247.370661 175.161578,247.350056 C175.357727,207.030749 181.541272,169.392245 195.977086,139.089656 C210.250958,109.127 231.80618,88.3668421 261.009341,79.0605391 C260.759558,77.2989349 260.831601,75.4159452 261.26283,73.462273 C262.224734,69.104389 264.347085,65.6394503 267.458579,62.9776542 L267.651459,62.8152356 L267.598352,62.7405089 C264.055733,57.6352585 263.401124,51.5851404 266.542836,46.0237436 L266.732028,45.6971771 C269.210856,41.5230228 273.01697,39.0110766 277.519157,38.093199 L277.744459,38.0482356 L277.745017,37.9655915 C277.781401,33.6122301 279.552306,29.5720752 283.20311,26.5515756 L283.495239,26.3152464 C291.3359,20.112833 304.106932,23.1366105 314.157056,31.0498578 Z M420.87761,260.222391 L420.913314,260.892907 C421.502037,272.496531 421.781363,284.517413 421.781363,296.938303 C421.781363,321.251609 419.796158,342.780515 415.447171,361.746529 C433.982119,355.022409 443.249625,341.598166 443.249625,321.472482 C443.249625,292.654637 425.674481,260.854268 420.87761,260.222391 Z M175.126413,257.480547 L174.987978,257.535049 L174.852614,257.597236 L174.588936,257.739283 L174.311217,257.913206 L174.056305,258.090585 L173.795977,258.286313 L173.697606,258.363648 C173.601201,258.440269 173.50157,258.521937 173.399547,258.607961 C173.180054,258.793025 172.949274,258.998471 172.707883,259.22351 L172.331143,259.582249 L172.197421,259.712983 C172.031033,259.876706 171.860908,260.047921 171.686636,260.22699 L171.131432,260.809027 L170.577972,261.410126 C170.381514,261.626875 170.181553,261.850911 169.977675,262.082668 C169.38157,262.760263 168.751386,263.50459 168.091502,264.310214 L167.412158,265.148177 L167.128757,265.502619 C166.907472,265.78045 166.683294,266.064402 166.456367,266.354299 L166.113932,266.793579 C165.674723,267.359302 165.224703,267.947784 164.76577,268.556615 L163.999062,269.581529 L163.288714,270.544503 L162.494289,271.635991 L161.7096,272.72853 L160.947456,273.802886 C160.38261,274.603834 159.809434,275.426971 159.229332,276.270526 L158.19745,277.781864 L157.277462,279.147325 L155.895762,281.229405 L154.907631,282.741262 L153.865112,284.356911 L153.10991,285.540513 L152.237487,286.921747 L151.301521,288.420336 C150.851781,289.144621 150.401436,289.875971 149.951079,290.613619 L149.204164,291.842794 L148.444277,293.105362 L147.663665,294.415297 L146.782045,295.910911 L145.731589,297.716102 L144.649213,299.603595 L143.799388,301.105984 L143.038579,302.466949 L142.656363,303.156564 C129.263449,327.391355 123.943195,346.501971 123.602187,351.554166 L123.593375,351.702951 C123.587488,351.819526 123.587115,351.93408 123.592255,352.046611 L123.605037,352.223456 L123.630133,352.416235 L123.651163,352.532246 C123.664974,352.600954 123.681195,352.669249 123.699737,352.736693 L123.736831,352.860931 L123.80131,353.040688 L123.877578,353.216547 L123.956694,353.372082 L124.00994,353.465725 C124.08115,353.585991 124.161196,353.702708 124.250229,353.81613 C124.298547,353.877697 124.349766,353.938576 124.403658,353.998474 L124.557772,354.159907 C124.671494,354.272365 124.795267,354.381181 124.92907,354.486335 L125.181636,354.672267 L125.449827,354.846448 L125.590657,354.930047 L125.839703,355.066713 L126.062707,355.178596 L126.544494,355.392487 L126.836782,355.506817 L127.091802,355.598553 C127.289697,355.667074 127.496048,355.732542 127.71079,355.794932 C127.862328,355.838964 128.018421,355.88156 128.178712,355.922616 L128.378659,355.972502 L128.802482,356.070013 L129.090732,356.130495 L129.562132,356.22029 L129.959402,356.288015 L130.558574,356.377944 C132.024611,356.581329 133.721921,356.699898 135.650504,356.73365 C144.122683,356.73365 152.379086,354.984986 159.88094,351.751045 C161.665069,350.983256 163.410568,350.128143 165.10647,349.191719 L166.017618,348.676933 C167.229528,347.980346 168.41419,347.241423 169.569158,346.461898 L170.539946,345.791285 L171.207311,345.314449 L172.032684,344.702747 C174.33318,342.968641 176.498057,341.064056 178.502832,339.001808 L179.212074,338.257961 L179.76195,337.662514 L180.422649,336.921993 C180.782272,336.512028 181.135627,336.096602 181.482708,335.675761 L182.115109,334.893813 C182.64677,334.224441 183.162996,333.54159 183.66313,332.845773 L184.225069,332.0484 L184.775638,331.236171 L184.968222,330.944546 L185.185607,330.609679 C185.659452,329.874492 186.115763,329.126412 186.554006,328.365683 L187.019868,327.539659 C187.293228,327.04496 187.558984,326.544939 187.817015,326.039815 L188.167851,325.340174 L188.322603,325.022851 L188.655413,324.321913 L189.043084,323.469414 L189.4298,322.576247 C189.65319,322.046996 189.868248,321.51304 190.074955,320.974236 C190.27644,320.449045 190.46999,319.919247 190.655438,319.384924 L191.019502,318.297734 L191.255866,317.546449 L191.569914,316.481508 L191.792216,315.673125 L191.968882,314.99218 L192.122367,314.368118 L192.257648,313.789153 L192.334141,313.448288 L192.434359,312.984952 L192.604593,312.14805 L192.804434,311.065342 L192.94544,310.215446 L193.07279,309.364851 L193.222984,308.21789 C193.287661,307.680159 193.344677,307.13943 193.393946,306.595463 L193.428905,306.193319 L193.491102,305.374399 L193.556296,304.264951 L193.591711,303.410526 L193.604577,302.985525 L193.615644,302.48851 C193.622221,302.122633 193.625023,301.754874 193.625023,301.385808 L193.615502,300.385156 L193.605682,299.934331 L193.580963,299.14962 L193.529257,297.866942 L193.482813,296.914528 L193.398069,295.460221 C193.349426,294.702351 193.294331,293.955058 193.232786,293.218351 L193.10994,291.850587 L193.08364,291.580821 C193.051487,291.255332 193.018019,290.932001 192.983235,290.61083 L192.909649,289.951656 L192.824079,289.231019 L192.615761,287.642773 L192.481459,286.718741 L192.387972,286.113246 L192.305143,285.599548 L192.219728,285.090097 C192.177519,284.843138 192.134483,284.598204 192.090532,284.354774 L191.977139,283.740816 L191.823593,282.95094 L191.645746,282.088757 L191.514084,281.482778 L191.304835,280.569677 C191.199315,280.123538 191.090226,279.683018 190.977607,279.248291 L190.876124,278.861707 L190.669528,278.104898 L190.48847,277.472261 L190.215337,276.566569 L189.940853,275.709283 L189.66025,274.881713 L189.413373,274.190399 C189.2404,273.717338 189.062227,273.253092 188.87879,272.797489 L188.577114,272.0672 L188.273898,271.369223 L188.008167,270.784867 L187.811052,270.366781 L187.529244,269.790394 L187.17856,269.105864 C187.067261,268.894087 186.954567,268.684721 186.840442,268.477702 C186.647037,268.126841 186.449258,267.782293 186.247274,267.444361 L185.858195,266.809868 L185.613637,266.427228 L185.39913,266.101347 L185.102787,265.665438 C182.543687,261.970559 179.41148,259.216625 175.706168,257.403635 C175.544937,257.373947 175.351026,257.400412 175.126413,257.480547 Z M321.886719,205.786371 L342.939386,214.796228 C344.462608,215.448118 345.168963,217.211395 344.517073,218.734617 C344.282837,219.281938 343.891053,219.747193 343.391585,220.071165 L322.474004,233.639047 C321.479847,234.283893 320.199264,234.283124 319.205882,233.637085 L298.321588,220.055129 C296.932627,219.151828 296.538922,217.293582 297.442223,215.904621 C297.763504,215.410604 298.223166,215.022149 298.76384,214.787741 L319.513048,205.791958 C320.269856,205.463845 321.128375,205.461825 321.886719,205.786371 Z M279.888785,180.436349 C284.168992,180.436349 287.638785,183.906143 287.638785,188.186349 C287.638785,192.466556 284.168992,195.936349 279.888785,195.936349 C275.608578,195.936349 272.138785,192.466556 272.138785,188.186349 C272.138785,183.906143 275.608578,180.436349 279.888785,180.436349 Z M359.888785,180.436349 C364.168992,180.436349 367.638785,183.906143 367.638785,188.186349 C367.638785,192.466556 364.168992,195.936349 359.888785,195.936349 C355.608578,195.936349 352.138785,192.466556 352.138785,188.186349 C352.138785,183.906143 355.608578,180.436349 359.888785,180.436349 Z M313.308903,84.5012031 L314.467,84.668 L313.196,84.486 L311.069455,84.2175306 C309.90715,84.083747 308.731733,83.9691632 307.54306,83.8741173 L306.349964,83.7855965 C305.137785,83.7026101 303.911975,83.6397579 302.672386,83.5973904 L301.231266,83.5575157 L298.816519,83.5320525 L295.928599,83.562244 L293.152613,83.6495638 C291.737424,83.7090017 290.340337,83.7907768 288.961127,83.8944083 L287.508,84.012 L284.860181,84.2722205 L284.511,84.312 L282.150893,84.6007363 L281.180405,84.7342607 L280.39977,84.8478632 L279.469246,84.9905945 L277.045652,85.40048 C275.757537,85.6332251 274.487009,85.886837 273.233837,86.1608188 L271.841,86.475 L269.541618,87.0393915 C197.920442,105.493957 185.432144,192.576982 185.160944,247.488004 L185.151399,251.460011 C196.984845,260.081994 202.828947,276.30673 203.586898,299.150634 C204.858641,337.479711 173.642899,366.73365 135.650504,366.73365 L135.475519,366.732119 C133.690461,366.700878 132.028452,366.608199 130.478503,366.443726 C119.973364,367.593984 113.545111,365.237363 109.907339,370.520334 C107.482741,374.041469 110.097964,381.468058 117.751103,392.80036 C135.672351,416.198339 165.436402,441.160142 221.498223,451.423884 L223.20513,451.730391 C223.95474,451.862382 224.70899,451.991766 225.467912,452.118504 L223.497058,451.78162 L224.657819,451.981916 L225.467912,452.118504 L226.949749,452.361638 L229.019778,452.686959 L229.963894,452.829878 L231.24162,453.017936 L232.527858,453.201092 L234.070912,453.412781 C244.646803,454.833923 256.073948,455.760879 268.431754,456.104318 C282.724436,456.104318 295.663079,455.035717 307.365363,453.000748 L308.885242,452.729754 L310.244645,452.475864 L310.862807,452.356753 C311.521852,452.228532 312.176844,452.097146 312.827804,451.962614 C313.347675,451.855175 313.865181,451.745685 314.380124,451.634197 L312.827804,451.962614 L313.82272,451.753884 L314.811337,451.54024 L316.053268,451.26289 C365.917176,439.924382 391.352271,409.544486 403.081405,369.438422 L403.529065,367.879488 L403.765,367.027053 L404.184,365.486053 L404.8,363.105053 L405.127744,361.78579 L405.490386,360.268473 L405.959,358.213053 L406.455,355.922053 L406.936,353.561053 L407.356,351.383053 L407.8,348.915053 L408.222,346.413053 L408.515,344.571053 L408.783562,342.78859 C409.171035,340.142378 409.516757,337.467855 409.823093,334.767075 L410.099,332.218053 L410.271,330.505053 L410.442375,328.696491 L410.568,327.262053 L410.756941,324.971543 L410.927,322.671053 L411.097633,320.110995 C411.262044,317.471526 411.394919,314.811795 411.498264,312.133545 L411.570267,310.121413 C411.657319,307.484087 411.716415,304.829347 411.749452,302.158838 L411.775622,299.167697 L411.781363,298.053959 L411.781363,296.938303 C411.781363,294.271144 411.767979,291.567834 411.739218,288.83307 L411.642,282.380053 L411.605515,280.570853 L411.546469,278.086662 L411.514843,276.89097 L411.361,271.945053 L411.311942,270.566277 L411.138,266.265053 L410.99,263.079053 L410.774,258.948053 L410.621128,256.305951 C406.400025,186.465422 388.89971,108.845088 330.487934,88.5852786 L328.477,87.916 L326.557665,87.3275884 L326.389,87.279 L324.475083,86.7437496 C323.409697,86.4592112 322.331626,86.192726 321.240725,85.9446379 L320.145542,85.7026949 L319.872,85.645 L317.867844,85.2443053 L315.531019,84.8350343 L313.308903,84.5012031 Z M289.699332,34.1580291 C285.632057,37.375477 287.902131,43.5089405 296.509553,52.5584197 C285.161029,46.7220482 278.101241,46.1369787 275.330191,50.8032114 C272.559141,55.469444 277.110247,60.5481115 288.983511,66.039214 C278.259119,66.7794484 272.273876,69.9722652 271.027782,75.6176645 C270.966766,75.8940959 270.922742,76.1602298 270.895711,76.4160663 C279.590689,74.5096139 288.894858,73.5320525 298.816519,73.5320525 C306.850593,73.5320525 314.464939,74.289202 321.666638,75.7734614 L321.666638,68.9900603 C321.666638,40.0366098 295.800243,29.3318572 289.699332,34.1580291 Z" id="Shape" fill="#000000" fill-rule="nonzero"></path>
    </g>
</svg>