<?xml version="1.0" encoding="UTF-8"?>
<svg width="954px" height="1024px" viewBox="0 0 954 1024" version="1.1" xmlns="http://www.w3.org/2000/svg" xmlns:xlink="http://www.w3.org/1999/xlink">
  <g id="Lanyrd" transform="translate(0.4659, 0.6614)" fill="currentColor" fill-rule="nonzero">
    <path d="M347.344373,1022.38349 C369.872673,1022.38349 386.256473,1017.26337 402.641273,1012.14329 C534.737273,969.135493 665.809273,927.151093 797.905273,884.143293 C834.769573,871.855193 872.657273,860.591493 908.497273,847.279993 C944.337073,833.967493 956.625173,809.391293 951.505073,771.503593 C946.384953,740.783893 939.216973,711.087593 932.048973,681.391293 C930.001123,672.175473 926.928853,663.983093 922.833153,655.791693 C912.592953,634.287793 897.233553,626.095393 873.680853,630.191093 C860.369353,632.239923 848.081253,636.335623 835.793153,640.431293 L525.522153,741.807293 C515.281953,744.879563 511.186253,742.831703 508.113953,732.591473 C472.274153,619.951473 435.409853,507.311473 399.569953,394.671473 C367.825853,295.343373 341.201753,193.967473 307.409753,94.6394725 C300.241783,72.1111725 293.073853,49.5837725 280.785753,29.1033725 C266.449853,4.52717254 249.041653,-3.66422746 221.394153,1.45587254 C170.193953,10.6716925 122.066053,30.1277725 72.9141533,46.5115725 C55.5059533,50.6072725 39.1221533,57.7752725 23.7618533,66.9920725 C2.25795329,80.3035725 -3.88564671,95.6639725 2.25795329,119.215673 C6.35463329,137.647273 12.4981533,156.079973 18.6427533,173.487173 C57.5538533,285.103173 100.562653,396.719173 138.450753,509.359173 C183.506453,644.527173 226.514253,779.695173 271.570753,915.887173 C279.762163,941.486773 288.978953,967.087373 302.290453,990.639173 C311.506273,1010.09527 326.866653,1023.40777 347.346153,1022.38327 L347.344373,1022.38349 Z"></path>
  </g>
</svg>