<?xml version="1.0" standalone="no"?>
<!DOCTYPE svg PUBLIC "-//W3C//DTD SVG 1.1//EN" "http://www.w3.org/Graphics/SVG/1.1/DTD/svg11.dtd" >
<svg xmlns="http://www.w3.org/2000/svg" xmlns:xlink="http://www.w3.org/1999/xlink" version="1.1" viewBox="-10 0 1034 1024">
   <path fill="currentColor"
d="M382.976 883c22.5283 0 38.9121 -5.12012 55.2969 -10.2402c132.096 -43.0078 263.168 -84.9922 395.264 -128c36.8643 -12.2881 74.752 -23.5518 110.592 -36.8633c35.8398 -13.3125 48.1279 -37.8887 43.0078 -75.7764
c-5.12012 -30.7197 -12.2881 -60.416 -19.4561 -90.1123c-2.04785 -9.21582 -5.12012 -17.4082 -9.21582 -25.5996c-10.2402 -21.5039 -25.5996 -29.6963 -49.1523 -25.6006c-13.3115 2.04883 -25.5996 6.14453 -37.8877 10.2402l-310.271 101.376
c-10.2402 3.07227 -14.3359 1.02441 -17.4082 -9.21582c-35.8398 -112.64 -72.7041 -225.28 -108.544 -337.92c-31.7441 -99.3281 -58.3682 -200.704 -92.1602 -300.032c-7.16797 -22.5283 -14.3359 -45.0557 -26.624 -65.5361
c-14.3359 -24.5762 -31.7441 -32.7676 -59.3916 -27.6475c-51.2002 9.21582 -99.3281 28.6719 -148.48 45.0557c-17.4082 4.0957 -33.792 11.2637 -49.1523 20.4805c-21.5039 13.3115 -27.6475 28.6719 -21.5039 52.2236c4.09668 18.4316 10.2402 36.8643 16.3848 54.2715
c38.9111 111.616 81.9199 223.232 119.808 335.872c45.0557 135.168 88.0635 270.336 133.12 406.528c8.19141 25.5996 17.4082 51.2002 30.7197 74.752c9.21582 19.4561 24.5762 32.7686 45.0557 31.7441z" />
</svg>
