<?xml version="1.0" standalone="no"?>
<!DOCTYPE svg PUBLIC "-//W3C//DTD SVG 1.1//EN" "http://www.w3.org/Graphics/SVG/1.1/DTD/svg11.dtd" >
<svg xmlns="http://www.w3.org/2000/svg" xmlns:xlink="http://www.w3.org/1999/xlink" version="1.1" viewBox="-10 0 1044 1024">
   <path fill="currentColor"
d="M780 655c-202 0 -274 -92 -310 -204l-38 -118c-28 -86 -62 -152 -164 -152c-72 0 -144 52 -144 196c0 112 56 182 138 182c92 0 152 -68 152 -68l38 102s-64 62 -196 62c-164 0 -256 -96 -256 -274c0 -186 92 -294 264 -294c156 0 234 56 284 208l38 118
c28 86 78 148 196 148c80 0 122 -18 122 -62c0 -34 -20 -58 -80 -72l-80 -20c-96 -22 -136 -72 -136 -152c0 -128 104 -168 210 -168c120 0 192 42 202 148l-118 14c-4 -50 -36 -70 -92 -70c-52 0 -82 22 -82 62c0 36 14 56 66 68l76 16c100 24 154 74 154 168
c0 118 -98 162 -244 162z" />
</svg>
