<?xml version="1.0" encoding="UTF-8"?>
<svg width="1024px" height="569px" viewBox="0 0 1024 569" version="1.1" xmlns="http://www.w3.org/2000/svg" xmlns:xlink="http://www.w3.org/1999/xlink">
  <g id="LastFM" transform="translate(0, 0.0926)" fill="currentColor" fill-rule="nonzero">
    <path d="M780,568 C578,568 506,476 470,364 L432,246 C404,160 370,94 268,94 C196,94 124,146 124,290 C124,402 180,472 262,472 C354,472 414,404 414,404 L452,506 C452,506 388,568 256,568 C92,568 0,472 0,294 C0,108 92,0 264,0 C420,0 498,56 548,208 L586,326 C614,412 664,474 782,474 C862,474 904,456 904,412 C904,378 884,354 824,340 L744,320 C648,298 608,248 608,168 C608,40 712,0 818,0 C938,0 1010,42 1020,148 L902,162 C898,112 866,92 810,92 C758,92 728,114 728,154 C728,190 742,210 794,222 L870,238 C970,262 1024,312 1024,406 C1024,524 926,568 780,568 Z"></path>
  </g>
</svg>