<?xml version="1.0" encoding="UTF-8"?>
<svg width="933px" height="742px" viewBox="0 0 933 742" version="1.1" xmlns="http://www.w3.org/2000/svg" xmlns:xlink="http://www.w3.org/1999/xlink">
  <g id="LeprdSpace" transform="translate(0.5047, 0.6614)" fill="currentColor" fill-rule="nonzero">
    <path d="M846.9793,0.028144441 C827.3338,-0.544121559 807.2147,7.58771444 793.1287,26.5193444 C786.46366,35.4714944 775.909,49.6404444 766.4637,62.3269444 C742.4266,54.3093644 716.7127,49.8816444 690.0155,49.8816444 C663.6278,49.8816444 638.2118,54.2058644 614.4012,62.0496444 C605.02913,49.4539444 594.5565,35.4031444 587.9451,26.5193444 C574.1824,8.02134444 553.4705,-0.497255559 533.8162,0.097444441 C501.8601,1.06424144 469.9187,26.2214444 469.9187,65.6296444 L469.9187,192.139644 C456.1326,222.474644 448.1208,256.178744 448.1208,291.810544 C448.1208,301.945344 448.881542,311.854444 450.1374,321.569344 L72.4844,321.569344 C32.4121,321.569344 0,354.083044 0,394.089844 C0,434.119144 32.4336,466.609344 72.4844,466.609344 L180.8474,466.609344 L180.8474,529.360344 C160.0066,550.201144 127.3708,582.837844 109.5447,600.663044 C77.4949,632.712844 77.5115,684.640544 109.5447,716.674044 C141.5935,748.723844 193.5222,748.708244 225.5557,716.674044 C240.2871,701.942644 262.3916,679.838144 284.4815,657.747244 C284.241266,679.053844 292.2149,700.419144 308.4698,716.674044 C340.5196,748.723844 392.4473,748.706244 424.4808,716.674044 C438.3158,702.845944 460.9163,680.264844 479.8265,661.362544 L535.138,716.674044 C567.1868,748.723844 619.1155,748.708244 651.149,716.674044 C666.3004,701.522644 674.2086,681.928944 675.0318,662.092944 C695.4283,682.488444 715.9683,703.028444 729.6129,716.674044 C761.6637,748.723844 813.5914,748.708244 845.6249,716.674044 C877.6737,684.625244 877.6571,632.696544 845.6249,600.663044 C825.7479,580.786044 794.12,549.157144 766.1171,521.155244 C862.3974,489.271444 931.9461,398.807244 931.9461,291.810244 C931.9461,257.057344 924.30938,224.149144 911.1561,194.399144 L911.1561,65.6291444 C911.1561,26.1057444 879.7245,0.980744441 846.9803,0.027544441 L846.9793,0.028144441 Z M534.5813,25.0593634 C546.7356,24.6911994 559.1858,29.6941334 567.9202,41.4333634 L605.5364,91.9812634 C631.5071,80.9851634 660.0374,74.8777634 690.0149,74.8777634 C720.2795,74.8777634 749.0891,81.1336234 775.259,92.3289634 L813.1526,41.4334634 C836.4446,10.1297634 886.1585,26.6102634 886.1585,65.6297634 L886.1585,199.578763 C899.3606,227.598263 906.9485,258.782863 906.9485,291.810163 C906.9485,402.604163 823.7942,493.787163 716.5415,506.901163 L827.9635,618.323163 C850.2447,640.605363 850.2447,676.731363 827.9635,699.013563 C805.6823,721.295763 769.5553,721.294763 747.2731,699.013563 L625.6301,577.369563 L592.5334,577.369563 L633.4865,618.322663 C655.7687,640.604863 655.7687,676.730863 633.4865,699.013063 C611.2053,721.295263 575.0793,721.294263 552.798,699.013063 L479.8253,626.041363 L406.8185,699.013063 C384.5382,721.295263 348.4123,721.294263 326.13,699.013063 C303.8477,676.731863 303.8478,640.604863 326.13,618.322663 L367.0831,577.369563 L329.5372,577.369563 L207.8932,699.013563 C185.611,721.295763 149.485,721.294763 127.2047,699.013563 C104.9225,676.731363 104.9225,640.605363 127.2047,618.323163 L205.8424,539.685463 L205.8424,441.613163 L72.4834,441.613163 C46.2451,441.613163 24.9951,420.327963 24.9951,394.089763 C24.9951,367.850463 46.2451,346.565363 72.4834,346.565363 L480.3464,346.565363 C475.78195,329.044863 473.11495,310.760663 473.11495,291.810463 C473.11495,257.959863 481.08468,226.043863 494.91375,197.493063 L494.91375,65.6300634 C494.91375,41.2423634 514.32195,25.6730634 534.58075,25.0597634 L534.5813,25.0593634 Z M598.3053,193.565333 C594.97327,193.565333 591.74671,193.925715 588.60608,194.573173 C599.56508,199.328053 607.23988,210.233373 607.23988,222.941373 C607.23988,240.018473 593.41178,253.847573 576.33368,253.847573 C565.56028,253.847573 556.10808,248.330973 550.57298,239.976473 C550.557355,240.47159 550.434308,240.937411 550.434308,241.436433 C550.434308,267.876833 571.865008,289.307533 598.305408,289.307533 C624.745808,289.307533 646.176508,267.876833 646.176508,241.436433 C646.176508,214.996033 624.745808,193.565333 598.305408,193.565333 L598.3053,193.565333 Z M778.7703,193.565333 C775.43827,193.565333 772.21171,193.925715 769.07108,194.573173 C780.03008,199.328053 787.70588,210.233373 787.70588,222.941373 C787.70588,240.018473 773.87678,253.847573 756.79968,253.847573 C746.02528,253.847573 736.57308,248.330973 731.03898,239.976473 C731.023355,240.47159 730.899332,240.937411 730.899332,241.436433 C730.899332,267.876833 752.330932,289.307533 778.770432,289.307533 C805.210832,289.307533 826.642532,267.876833 826.641532,241.436433 C826.641532,214.996033 805.210832,193.565333 778.770432,193.565333 L778.7703,193.565333 Z M658.5533,313.64335 C648.3394,313.64335 643.4332,322.710743 650.90389,327.757663 L682.40099,349.068163 L682.40099,382.860163 C670.84919,396.006663 659.60309,401.656063 648.57479,401.076963 C639.40096,400.595518 630.32579,395.993953 621.80619,388.457863 C618.5308,385.559423 615.56986,382.429543 613.01127,379.314313 C612.121622,378.231303 611.36576,377.244973 610.71635,376.359233 C610.345256,375.853374 610.113811,375.525249 610.021038,375.3856 C607.805218,372.06333 603.296428,371.15318 599.974138,373.369 C596.651868,375.5858 595.775898,380.05943 597.991718,383.3817 C598.200702,383.695177 598.53371,384.22838 599.035668,384.911 C599.837426,386.0067 600.788598,387.19811 601.851098,388.49205 C604.870628,392.16881 608.321798,395.86314 612.211498,399.30455 C622.963498,408.81627 634.912698,414.86025 647.845298,415.53895 C662.230998,416.295786 676.312098,410.19129 689.598198,396.66195 C691.615778,399.035 693.648978,401.2264 695.751518,403.16293 C707.812018,414.27133 721.142118,418.10723 734.723218,415.43543 C745.191018,413.37586 755.070918,407.66785 764.273018,399.51253 C768.238838,395.99691 771.793528,392.24398 774.945918,388.49203 C776.054318,387.17367 777.057248,385.92074 777.900998,384.80746 C778.425412,384.115077 778.797482,383.62387 779.013298,383.31234 C781.295528,380.03402 780.483998,375.51156 777.206658,373.23034 C775.567008,372.08972 773.604118,371.72155 771.781858,372.0487 C769.960568,372.375848 768.264278,373.39929 767.124628,375.03796 C767.01623,375.193233 766.762323,375.549679 766.359003,376.08093 C765.656855,377.006711 764.838493,378.04773 763.891233,379.17566 C761.169553,382.41394 758.075803,385.65515 754.678343,388.66687 C737.646143,403.75867 721.259443,406.98817 705.555343,392.52527 C702.623703,389.82507 699.725263,386.43054 696.863933,382.47737 L696.863933,351.18927 C697.884443,350.788879 698.907883,350.337708 699.749673,349.69415 L728.882473,327.40995 C735.678373,322.21561 730.625633,313.64335 720.747703,313.64335 L658.553403,313.64335 L658.5533,313.64335 Z M126.0573,364.991363 C116.62957,364.991363 108.988,372.632963 108.988,382.060663 C108.988,391.488363 116.6296,399.130963 126.0573,399.130963 C135.485,399.130963 143.1276,391.488383 143.1276,382.060663 C143.1276,372.632943 135.48502,364.991363 126.0573,364.991363 Z M434.4233,382.060363 C419.7094,382.060363 407.7583,393.167763 407.7583,406.883563 C407.7583,420.599363 419.7095,431.739063 434.4233,431.739063 C449.1371,431.739063 461.0532,420.598463 461.0532,406.883563 C461.0532,393.168663 449.1372,382.060363 434.4233,382.060363 Z M283.8563,399.130363 C269.1424,399.130363 257.1913,410.236763 257.1913,423.951663 C257.1913,437.667463 269.1425,448.809063 283.8563,448.809063 C298.5701,448.809063 310.4862,437.668463 310.4862,423.951663 C310.4862,410.235863 298.5702,399.130363 283.8563,399.130363 Z M359.5743,469.425363 C351.84285,469.425363 345.5636,475.743723 345.5636,483.538663 C345.5636,491.334563 351.8429,497.653863 359.5743,497.653863 C367.30672,497.653863 373.585,491.334523 373.585,483.538663 C373.585,475.743743 367.3057,469.425363 359.5743,469.425363 Z M472.1783,469.425363 C458.2984,469.425363 447.0426,480.711463 447.0426,494.629463 C447.0426,508.547463 458.2985,519.834563 472.1783,519.834563 C486.0572,519.834563 497.3131,508.548463 497.3131,494.629463 C497.3131,480.710463 486.0572,469.425363 472.1783,469.425363 L472.1783,469.425363 Z M267.5513,528.908363 C252.772,528.908363 240.8169,539.000163 240.8169,551.435663 C240.8169,563.871163 252.772,573.963963 267.5513,573.963963 C282.3306,573.963963 294.3199,563.872163 294.3199,551.435663 C294.3199,539.000163 282.3306,528.908363 267.5513,528.908363 Z M526.4803,562.838363 C519.13753,562.838363 513.2,568.808093 513.2,576.152863 C513.2,583.498563 519.1375,589.434063 526.4803,589.434063 C533.82405,589.434063 539.7957,583.499493 539.7957,576.152863 C539.7957,568.807163 533.82402,562.838363 526.4803,562.838363 Z M191.9723,622.565363 C184.51527,622.565363 178.483,628.552663 178.483,635.913963 C178.483,643.276263 184.51523,649.229363 191.9723,649.229363 C199.42937,649.229363 205.4616,643.276243 205.4616,635.913963 C205.4616,628.552633 199.42937,622.565363 191.9723,622.565363 Z M582.1743,635.914363 C570.6821,635.916317 561.3852,644.348933 561.3852,654.758163 C561.3852,665.167393 570.68208,673.635163 582.1743,673.635163 C593.66652,673.635163 602.9985,665.167393 602.9985,654.758163 C602.9985,644.348933 593.66647,635.914363 582.1743,635.914363 Z"></path>
  </g>
</svg>