<?xml version="1.0" standalone="no"?>
<!DOCTYPE svg PUBLIC "-//W3C//DTD SVG 1.1//EN" "http://www.w3.org/Graphics/SVG/1.1/DTD/svg11.dtd" >
<svg xmlns="http://www.w3.org/2000/svg" xmlns:xlink="http://www.w3.org/1999/xlink" version="1.1" viewBox="-10 0 1034 1024">
   <path fill="currentColor"
d="M893.007 0.675781c-19.6455 -0.572266 -39.7646 7.55957 -53.8506 26.4912c-6.66504 8.95215 -17.2197 23.1211 -26.665 35.8076c-24.0371 -8.01758 -49.751 -12.4453 -76.4482 -12.4453c-26.3877 0 -51.8037 4.32422 -75.6143 12.168
c-9.37207 -12.5957 -19.8447 -26.6465 -26.4561 -35.5303c-13.7627 -18.498 -34.4746 -27.0166 -54.1289 -26.4219c-31.9561 0.966797 -63.8975 26.124 -63.8975 65.5322v126.51c-13.7861 30.335 -21.7979 64.0391 -21.7979 99.6709
c0 10.1348 0.760742 20.0439 2.0166 29.7588h-377.653c-40.0723 0 -72.4844 32.5137 -72.4844 72.5205c0 40.0293 32.4336 72.5195 72.4844 72.5195h108.363v62.751c-20.8408 20.8408 -53.4766 53.4775 -71.3027 71.3027c-32.0498 32.0498 -32.0332 83.9775 0 116.011
c32.0488 32.0498 83.9775 32.0342 116.011 0c14.7314 -14.7314 36.8359 -36.8359 58.9258 -58.9268c-0.240234 21.3066 7.7334 42.6719 23.9883 58.9268c32.0498 32.0498 83.9775 32.0322 116.011 0c13.835 -13.8281 36.4355 -36.4092 55.3457 -55.3115l55.3115 55.3115
c32.0488 32.0498 83.9775 32.0342 116.011 0c15.1514 -15.1514 23.0596 -34.7451 23.8828 -54.5811c20.3965 20.3955 40.9365 40.9355 54.5811 54.5811c32.0508 32.0498 83.9785 32.0342 116.012 0c32.0488 -32.0488 32.0322 -83.9775 0 -116.011
c-19.877 -19.877 -51.5049 -51.5059 -79.5078 -79.5078c96.2803 -31.8838 165.828 -122.348 165.829 -229.345c0 -34.7529 -7.63672 -67.6611 -20.79 -97.4111v-128.77c0 -39.5234 -31.4316 -64.6484 -64.1758 -65.6016zM580.609 25.707
c12.1543 -0.368164 24.6045 4.63477 33.3389 16.374l37.6162 50.5479c25.9707 -10.9961 54.501 -17.1035 84.4785 -17.1035c30.2646 0 59.0742 6.25586 85.2441 17.4512l37.8936 -50.8955c23.292 -31.3037 73.0059 -14.8232 73.0059 24.1963v133.949
c13.2021 28.0195 20.79 59.2041 20.79 92.2314c-0.000976562 110.794 -83.1543 201.977 -190.407 215.091l111.422 111.422c22.2812 22.2822 22.2812 58.4082 0 80.6904s-58.4082 22.2812 -80.6904 0l-121.643 -121.644h-33.0967l40.9531 40.9531
c22.2822 22.2822 22.2822 58.4082 0 80.6904c-22.2812 22.2822 -58.4072 22.2812 -80.6885 0l-72.9727 -72.9717l-73.0068 72.9717c-22.2803 22.2822 -58.4062 22.2812 -80.6885 0s-22.2822 -58.4082 0 -80.6904l40.9531 -40.9531h-37.5459l-121.644 121.644
c-22.2822 22.2822 -58.4082 22.2812 -80.6885 0c-22.2822 -22.2822 -22.2822 -58.4082 0 -80.6904l78.6377 -78.6377v-98.0723h-133.359c-26.2383 0 -47.4883 -21.2852 -47.4883 -47.5234c0 -26.2393 21.25 -47.5244 47.4883 -47.5244h407.863
c-4.56445 -17.5205 -7.23145 -35.8047 -7.23145 -54.7549c0 -33.8506 7.96973 -65.7666 21.7988 -94.3174v-131.863c0 -24.3877 19.4082 -39.957 39.667 -40.5703zM644.333 194.213c-3.33203 0 -6.55859 0.360352 -9.69922 1.00781
c10.959 4.75488 18.6338 15.6602 18.6338 28.3682c0 17.0771 -13.8281 30.9062 -30.9062 30.9062c-10.7734 0 -20.2256 -5.5166 -25.7607 -13.8711c-0.015625 0.495117 -0.138672 0.960938 -0.138672 1.45996c0 26.4404 21.4307 47.8711 47.8711 47.8711
s47.8711 -21.4307 47.8711 -47.8711s-21.4307 -47.8711 -47.8711 -47.8711zM824.798 194.213c-3.33203 0 -6.55859 0.360352 -9.69922 1.00781c10.959 4.75488 18.6348 15.6602 18.6348 28.3682c0 17.0771 -13.8291 30.9062 -30.9062 30.9062
c-10.7744 0 -20.2266 -5.5166 -25.7607 -13.8711c-0.015625 0.495117 -0.139648 0.960938 -0.139648 1.45996c0 26.4404 21.4316 47.8711 47.8711 47.8711c26.4404 0 47.8721 -21.4307 47.8711 -47.8711c0 -26.4404 -21.4307 -47.8711 -47.8711 -47.8711zM704.581 314.291
c-10.2139 0 -15.1201 9.06738 -7.64941 14.1143l31.4971 21.3105v33.792c-11.5518 13.1465 -22.7979 18.7959 -33.8262 18.2168c-9.17383 -0.481445 -18.249 -5.08301 -26.7686 -12.6191c-3.27539 -2.89844 -6.23633 -6.02832 -8.79492 -9.14355
c-0.889648 -1.08301 -1.64551 -2.06934 -2.29492 -2.95508c-0.371094 -0.505859 -0.602539 -0.833984 -0.695312 -0.973633c-2.21582 -3.32227 -6.72461 -4.23242 -10.0469 -2.0166c-3.32227 2.2168 -4.19824 6.69043 -1.98242 10.0127
c0.208984 0.313477 0.541992 0.84668 1.04395 1.5293c0.801758 1.0957 1.75293 2.28711 2.81543 3.58105c3.01953 3.67676 6.4707 7.37109 10.3604 10.8125c10.752 9.51172 22.7012 15.5557 35.6338 16.2344c14.3857 0.756836 28.4668 -5.34766 41.7529 -18.877
c2.01758 2.37305 4.05078 4.56445 6.15332 6.50098c12.0605 11.1084 25.3906 14.9443 38.9717 12.2725c10.4678 -2.05957 20.3477 -7.76758 29.5498 -15.9229c3.96582 -3.51562 7.52051 -7.26855 10.6729 -11.0205c1.1084 -1.31836 2.11133 -2.57129 2.95508 -3.68457
c0.524414 -0.692383 0.896484 -1.18359 1.1123 -1.49512c2.28223 -3.27832 1.4707 -7.80078 -1.80664 -10.082c-1.63965 -1.14062 -3.60254 -1.50879 -5.4248 -1.18164c-1.82129 0.327148 -3.51758 1.35059 -4.65723 2.98926
c-0.108398 0.155273 -0.362305 0.511719 -0.765625 1.04297c-0.702148 0.925781 -1.52051 1.9668 -2.46777 3.09473c-2.72168 3.23828 -5.81543 6.47949 -9.21289 9.49121c-17.0322 15.0918 -33.4189 18.3213 -49.123 3.8584
c-2.93164 -2.7002 -5.83008 -6.09473 -8.69141 -10.0479v-31.2881c1.02051 -0.400391 2.04395 -0.851562 2.88574 -1.49512l29.1328 -22.2842c6.7959 -5.19434 1.74316 -13.7666 -8.13477 -13.7666h-62.1943zM172.085 365.639c-9.42773 0 -17.0693 7.6416 -17.0693 17.0693
s7.6416 17.0703 17.0693 17.0703s17.0703 -7.64258 17.0703 -17.0703s-7.64258 -17.0693 -17.0703 -17.0693zM480.451 382.708c-14.7139 0 -26.665 11.1074 -26.665 24.8232s11.9512 24.8555 26.665 24.8555s26.6299 -11.1406 26.6299 -24.8555
s-11.916 -24.8232 -26.6299 -24.8232zM329.884 399.778c-14.7139 0 -26.665 11.1064 -26.665 24.8213c0 13.7158 11.9512 24.8574 26.665 24.8574s26.6299 -11.1406 26.6299 -24.8574c0 -13.7158 -11.916 -24.8213 -26.6299 -24.8213zM405.602 470.073
c-7.73145 0 -14.0107 6.31836 -14.0107 14.1133c0 7.7959 6.2793 14.1152 14.0107 14.1152c7.73242 0 14.0107 -6.31934 14.0107 -14.1152c0 -7.79492 -6.2793 -14.1133 -14.0107 -14.1133zM518.206 470.073c-13.8799 0 -25.1357 11.2861 -25.1357 25.2041
s11.2559 25.2051 25.1357 25.2051c13.8789 0 25.1348 -11.2861 25.1348 -25.2051s-11.2559 -25.2041 -25.1348 -25.2041zM313.579 529.556c-14.7793 0 -26.7344 10.0918 -26.7344 22.5273s11.9551 22.5283 26.7344 22.5283s26.7686 -10.0918 26.7686 -22.5283
c0 -12.4355 -11.9893 -22.5273 -26.7686 -22.5273zM572.508 563.486c-7.34277 0 -13.2803 5.96973 -13.2803 13.3145c0 7.3457 5.9375 13.2812 13.2803 13.2812c7.34375 0 13.3154 -5.93457 13.3154 -13.2812c0 -7.3457 -5.97168 -13.3145 -13.3154 -13.3145zM238 623.213
c-7.45703 0 -13.4893 5.9873 -13.4893 13.3486c0 7.3623 6.03223 13.3154 13.4893 13.3154s13.4893 -5.95312 13.4893 -13.3154c0 -7.36133 -6.03223 -13.3486 -13.4893 -13.3486zM628.202 636.562c-11.4922 0.00195312 -20.7891 8.43457 -20.7891 18.8438
s9.29688 18.877 20.7891 18.877s20.8242 -8.46777 20.8242 -18.877s-9.33203 -18.8438 -20.8242 -18.8438z" />
</svg>
