<?xml version="1.0" standalone="no"?>
<!DOCTYPE svg PUBLIC "-//W3C//DTD SVG 1.1//EN" "http://www.w3.org/Graphics/SVG/1.1/DTD/svg11.dtd" >
<svg xmlns="http://www.w3.org/2000/svg" xmlns:xlink="http://www.w3.org/1999/xlink" version="1.1" viewBox="-10 0 1044 1024">
   <path fill="currentColor"
d="M512 -141c-282.767 0 -512 229.233 -512 512s229.233 512 512 512s512 -229.233 512 -512s-229.233 -512 -512 -512zM757.76 514.36c-52.1826 0 -97.71 -27.9658 -122.788 -69.6426c-0.0302734 0.0507812 -0.0605469 0.113281 -0.0917969 0.164062
c-0.03125 -0.0507812 -0.0605469 -0.113281 -0.0917969 -0.164062c-25.0781 41.6768 -70.6055 69.6426 -122.788 69.6426s-97.71 -27.9658 -122.788 -69.6426c-0.03125 0.0507812 -0.0605469 0.113281 -0.0917969 0.164062
c-0.03125 -0.0507812 -0.0615234 -0.113281 -0.0917969 -0.164062c-25.0781 41.6768 -70.6055 69.6426 -122.788 69.6426c-79.1758 0 -143.36 -64.1846 -143.36 -143.36s64.1846 -143.36 143.36 -143.36c52.1826 0 97.71 27.9658 122.788 69.6426
c0.0302734 -0.0507812 0.0605469 -0.113281 0.0917969 -0.164062c0.03125 0.0507812 0.0605469 0.113281 0.0917969 0.164062c25.0781 -41.6768 70.6055 -69.6426 122.788 -69.6426s97.71 27.9658 122.788 69.6426
c0.03125 -0.0507812 0.0605469 -0.113281 0.0917969 -0.164062c0.03125 0.0507812 0.0615234 0.113281 0.0917969 0.164062c25.0781 -41.6768 70.6055 -69.6426 122.788 -69.6426c79.1758 0 143.36 64.1846 143.36 143.36s-64.1846 143.36 -143.36 143.36z" />
</svg>
