<?xml version="1.0" encoding="UTF-8"?>
<svg width="1024px" height="1025px" viewBox="0 0 1024 1025" version="1.1" xmlns="http://www.w3.org/2000/svg" xmlns:xlink="http://www.w3.org/1999/xlink">
  <g id="LetterBoxd" transform="translate(0, 0.0926)" fill="currentColor" fill-rule="nonzero">
    <path d="M512,0 C229.233,0 0,229.233 0,512 C0,794.767 229.233,1024 512,1024 C794.767,1024 1024,794.767 1024,512 C1024,229.233 794.767,0 512,0 Z M757.76,655.36 C705.5774,655.36 660.05,627.3942 634.972,585.7174 C634.941727,585.768181 634.911453,585.830681 634.880203,585.881462 C634.848953,585.830681 634.819656,585.768181 634.788406,585.7174 C609.710306,627.3942 564.182906,655.36 512.000406,655.36 C459.817906,655.36 414.290406,627.3942 389.212406,585.7174 C389.181156,585.768181 389.151859,585.830681 389.120609,585.881462 C389.089359,585.830681 389.059086,585.768181 389.028812,585.7174 C363.950712,627.3942 318.423312,655.36 266.240812,655.36 C187.065012,655.36 122.880812,591.1754 122.880812,512 C122.880812,432.8246 187.065412,368.64 266.240812,368.64 C318.423412,368.64 363.950812,396.6058 389.028812,438.2826 C389.059086,438.231819 389.089359,438.169319 389.120609,438.118538 C389.151859,438.169319 389.181156,438.231819 389.212406,438.2826 C414.290506,396.6058 459.817906,368.64 512.000406,368.64 C564.182906,368.64 609.710406,396.6058 634.788406,438.2826 C634.819656,438.231819 634.848953,438.169319 634.880203,438.118538 C634.911453,438.169319 634.941727,438.231819 634.972,438.2826 C660.0501,396.6058 705.5775,368.64 757.76,368.64 C836.9358,368.64 901.12,432.8246 901.12,512 C901.12,591.1754 836.9354,655.36 757.76,655.36 Z"></path>
  </g>
</svg>