<?xml version="1.0" encoding="UTF-8"?>
<svg width="80px" height="80px" viewBox="0 0 80 80" version="1.1" xmlns="http://www.w3.org/2000/svg" xmlns:xlink="http://www.w3.org/1999/xlink">
    <title>LiberaPay</title>
    <g id="LiberaPay" stroke="none" stroke-width="1" fill="none" fill-rule="evenodd">
        <path d="M32.73,56.2651 C30.1433,56.2651 28.1125,55.9275 26.6375,55.2544 C25.1625,54.5813 24.1067,53.6608 23.4667,52.4933 C22.8267,51.3258 22.5209,50 22.5392,48.4783 C22.5575,46.9566 22.7659,45.3549 23.1676,43.6426 L30.1067,14.6283 L38.5767,13.3175 L30.9817,44.7908 C30.8359,45.4458 30.7542,46.0475 30.7359,46.5933 C30.7176,47.1391 30.8176,47.6225 31.0359,48.0408 C31.2542,48.4591 31.6276,48.7974 32.1559,49.0516 C32.6842,49.3058 33.4217,49.4716 34.3692,49.5441 L32.73,56.2651 Z M40.5333,28.0209 C41.9933,27.5842 43.66,27.1925 45.5358,26.8459 C47.4116,26.4993 49.4433,26.3276 51.6291,26.3276 C53.8149,26.3276 55.4276,26.6368 56.9017,27.2559 C58.3758,27.875 59.5881,28.7226 60.5358,29.7968 C61.4835,30.871 62.1833,32.1284 62.6382,33.5668 C63.0931,35.0052 63.3214,36.5451 63.3214,38.1851 C63.3214,40.8434 62.8841,43.2751 62,45.4793 C61.1159,47.6835 59.924,49.5868 58.3763,51.1893 C56.8286,52.7918 54.9704,54.0403 52.8,54.9368 C50.6296,55.8333 48.2765,56.2712 45.7282,56.2712 C44.4891,56.2712 43.2507,56.1608 42.0124,55.9416 L39.5532,65.8328 L31.4667,65.8328 L40.5333,28.0209 Z M43.4867,49.3867 C44.1059,49.5325 44.8709,49.6 45.7817,49.6 C47.2017,49.6 48.495,49.3417 49.6609,48.8125 C50.8268,48.2833 51.8192,47.5475 52.6392,46.6 C53.4592,45.6525 54.0949,44.5158 54.5509,43.185 C55.0069,41.8542 55.2336,40.39 55.2336,38.7867 C55.2336,37.1834 54.8869,35.8909 54.1957,34.7975 C53.5045,33.7041 52.3017,33.1584 50.59,33.1584 C49.4233,33.1584 48.3308,33.2676 47.3108,33.4867 L43.4867,49.3867 Z" id="Shape" fill="currentColor" fill-rule="nonzero"></path>
    </g>
</svg>