<?xml version="1.0" standalone="no"?>
<!DOCTYPE svg PUBLIC "-//W3C//DTD SVG 1.1//EN" "http://www.w3.org/Graphics/SVG/1.1/DTD/svg11.dtd" >
<svg xmlns="http://www.w3.org/2000/svg" xmlns:xlink="http://www.w3.org/1999/xlink" version="1.1" viewBox="-11 0 1045 1024">
   <path fill="currentColor"
d="M1014 217c-20 -86 -70 -154 -138 -210c-106 -86 -228 -122 -364 -124c-46 0 -92 4 -136 14c-112 26 -210 78 -284 164c-56 66 -88 142 -92 228c-2 88 26 166 82 236c78 96 180 150 298 176c24 4 46 8 68 14s28 16 28 38c0 12 -2 20 -2 30c-2 16 -8 32 -8 48
c-2 24 8 34 32 26c16 -6 32 -12 46 -22c78 -44 154 -96 228 -152c64 -48 126 -102 174 -168c68 -88 94 -188 68 -298zM332 419c0 4 -4 10 -10 10h-142c-4 0 -6 -2 -8 -4s-4 -4 -4 -6v-224c0 -6 6 -10 12 -10h36c4 0 10 4 10 10v178h96c6 0 10 4 10 10v36zM420 419
c0 4 -4 10 -10 10h-36c-6 0 -10 -4 -10 -10v-224c0 -6 4 -10 10 -10h36c4 0 10 4 10 10v224zM666 419c0 4 -4 10 -10 10h-36h-2h-2v0l-2 -2l-104 -138v132c0 4 -4 10 -10 10h-36c-4 0 -10 -4 -10 -10v-226c0 -6 4 -10 10 -10h36h2v0h2v0h2v0h2v0h2v2l104 136v-128
c0 -6 4 -10 10 -10h36c4 0 10 4 10 10v224h-4zM864 231c0 4 -4 10 -10 10h-98v38h98c6 0 10 4 10 10v36c0 6 -4 10 -10 10h-98v38h98c6 0 10 4 10 10v36c0 6 -4 10 -10 10h-144c-2 0 -4 0 -6 -2s-4 -4 -4 -8v-224c0 -2 2 -4 4 -6s4 -4 6 -4h144c6 0 10 4 10 10v36z" />
</svg>
