<?xml version="1.0" encoding="UTF-8"?>
<svg width="1025px" height="977px" viewBox="0 0 1025 977" version="1.1" xmlns="http://www.w3.org/2000/svg" xmlns:xlink="http://www.w3.org/1999/xlink">
  <g id="Line" transform="translate(0.7697, 0.0684)" fill="currentColor" fill-rule="nonzero">
    <path d="M1014.10007,334 C994.100074,248 944.100074,180 876.100074,124 C770.100074,38 648.100074,2 512.100074,0 C466.100074,0 420.100074,4 376.100074,14 C264.100074,40 166.100074,92 92.1000742,178 C36.1000742,244 4.1000742,320 0.100074198,406 C-1.8999258,494 26.1000742,572 82.1000742,642 C160.100074,738 262.100074,792 380.100074,818 C404.100074,822 426.100074,826 448.100074,832 C470.100074,838 476.100074,848 476.100074,870 C476.100074,882 474.100074,890 474.100074,900 C472.100074,916 466.100074,932 466.100074,948 C464.100074,972 474.100074,982 498.100074,974 C514.100074,968 530.100074,962 544.100074,952 C622.100074,908 698.100074,856 772.100074,800 C836.100074,752 898.100074,698 946.100074,632 C1014.10007,544 1040.10007,444 1014.10007,334 Z M332.100074,536 C332.100074,540 328.100074,546 322.100074,546 L180.100074,546 C176.100074,546 174.100074,544 172.100074,542 C170.100074,540 168.100074,538 168.100074,536 L168.100074,312 C168.100074,306 174.100074,302 180.100074,302 L216.100074,302 C220.100074,302 226.100074,306 226.100074,312 L226.100074,490 L322.100074,490 C328.100074,490 332.100074,494 332.100074,500 L332.100074,536 Z M420.100074,536 C420.100074,540 416.100074,546 410.100074,546 L374.100074,546 C368.100074,546 364.100074,542 364.100074,536 L364.100074,312 C364.100074,306 368.100074,302 374.100074,302 L410.100074,302 C414.100074,302 420.100074,306 420.100074,312 L420.100074,536 Z M666.100074,536 C666.100074,540 662.100074,546 656.100074,546 L620.100074,546 L618.100074,546 L616.100074,546 L616.100074,546 L614.100074,544 L510.100074,406 L510.100074,538 C510.100074,542 506.100074,548 500.100074,548 L464.100074,548 C460.100074,548 454.100074,544 454.100074,538 L454.100074,312 C454.100074,306 458.100074,302 464.100074,302 L500.100074,302 L502.100074,302 L502.100074,302 L504.100074,302 L504.100074,302 L506.100074,302 L506.100074,302 L508.100074,302 L508.100074,302 L510.100074,302 L510.100074,304 L614.100074,440 L614.100074,312 C614.100074,306 618.100074,302 624.100074,302 L660.100074,302 C664.100074,302 670.100074,306 670.100074,312 L670.100074,536 L666.100074,536 Z M864.100074,348 C864.100074,352 860.100074,358 854.100074,358 L756.100074,358 L756.100074,396 L854.100074,396 C860.100074,396 864.100074,400 864.100074,406 L864.100074,442 C864.100074,448 860.100074,452 854.100074,452 L756.100074,452 L756.100074,490 L854.100074,490 C860.100074,490 864.100074,494 864.100074,500 L864.100074,536 C864.100074,542 860.100074,546 854.100074,546 L710.100074,546 C708.100074,546 706.100074,546 704.100074,544 C702.100074,542 700.100074,540 700.100074,536 L700.100074,312 C700.100074,310 702.100074,308 704.100074,306 C706.100074,304 708.100074,302 710.100074,302 L854.100074,302 C860.100074,302 864.100074,306 864.100074,312 L864.100074,348 Z"></path>
  </g>
</svg>