<?xml version="1.0" standalone="no"?>
<!DOCTYPE svg PUBLIC "-//W3C//DTD SVG 1.1//EN" "http://www.w3.org/Graphics/SVG/1.1/DTD/svg11.dtd" >
<svg xmlns="http://www.w3.org/2000/svg" xmlns:xlink="http://www.w3.org/1999/xlink" version="1.1" viewBox="-10 0 1044 1024">
   <path fill="currentColor"
d="M766 383c-14 -16 -38 -24 -72 -24c-44 0 -74 14 -92 38c-18 26 -26 62 -26 108v350c0 6 -2 12 -8 18c-4 4 -12 8 -18 8h-184c-6 0 -12 -4 -18 -8c-4 -6 -8 -12 -8 -18v-646c0 -6 4 -12 8 -18c6 -4 12 -8 18 -8h178c6 0 12 2 16 4s6 8 8 14c0 6 2 12 2 14v16
c46 -44 108 -64 182 -64c86 0 152 20 200 62c48 44 72 106 72 190v436c0 6 -2 12 -8 18c-4 4 -12 8 -18 8h-188c-6 0 -12 -4 -18 -8c-4 -6 -8 -12 -8 -18v-394c0 -34 -6 -60 -18 -78zM212 73c-24 24 -54 36 -88 36s-64 -12 -88 -36s-36 -52 -36 -88c0 -34 12 -62 36 -86
s54 -38 88 -38s64 14 88 38s36 52 36 86c0 36 -12 64 -36 88zM242 209v646c0 6 -4 12 -8 18c-6 4 -12 8 -18 8h-184c-6 0 -12 -4 -18 -8c-4 -6 -8 -12 -8 -18v-646c0 -6 4 -12 8 -18c6 -4 12 -8 18 -8h184c6 0 12 4 18 8c4 6 8 12 8 18z" />
</svg>
