<?xml version="1.0" encoding="UTF-8"?>
<svg width="835px" height="1025px" viewBox="0 0 835 1025" version="1.1" xmlns="http://www.w3.org/2000/svg" xmlns:xlink="http://www.w3.org/1999/xlink">
  <g id="Linktree" transform="translate(0.1287, 0.8284)" fill="currentColor" fill-rule="nonzero">
    <path d="M491.0974,249.7072 L661.9634,74.0632 L761.1548,175.6432 L581.9268,346.5092 L834.0228,346.5092 L834.0228,487.5102 L580.7318,487.5102 L761.1538,662.7712 L661.9624,762.3464 L417.0334,516.2224 L172.1034,762.3464 L72.912,663.155 L253.334,487.895 L0,487.895 L0,346.509 L252.096,346.509 L72.868,175.643 L172.0594,74.063 L342.9254,249.707 L342.9254,0 L491.0944,0 L491.0944,249.707 L491.096353,249.707 L491.0974,249.7072 Z M342.9284,689.4352 L491.0974,689.4352 L491.0974,1023.9992 L342.9284,1023.9992 L342.9284,689.4352 L342.9284,689.4352 Z"></path>
  </g>
</svg>