<?xml version="1.0" encoding="UTF-8"?>
<svg width="1024px" height="1021px" viewBox="0 0 1024 1021" version="1.1" xmlns="http://www.w3.org/2000/svg" xmlns:xlink="http://www.w3.org/1999/xlink">
  <g id="LinkedIn" transform="translate(0, 0.0926)" fill="currentColor" fill-rule="nonzero">
    <path d="M766,522 C752,506 728,498 694,498 C650,498 620,512 602,536 C584,562 576,598 576,644 L576,994 C576,1000 574,1006 568,1012 C564,1016 556,1020 550,1020 L366,1020 C360,1020 354,1016 348,1012 C344,1006 340,1000 340,994 L340,348 C340,342 344,336 348,330 C354,326 360,322 366,322 L544,322 C550,322 556,324 560,326 C564,328 566,334 568,340 C568,346 570,352 570,354 L570,370 C616,326 678,306 752,306 C838,306 904,326 952,368 C1000,412 1024,474 1024,558 L1024,994 C1024,1000 1022,1006 1016,1012 C1012,1016 1004,1020 998,1020 L810,1020 C804,1020 798,1016 792,1012 C788,1006 784,1000 784,994 L784,600 C784,566 778,540 766,522 Z M212,212 C188,236 158,248 124,248 C90,248 60,236 36,212 C12,188 0,160 0,124 C0,90 12,62 36,38 C60,14 90,0 124,0 C158,0 188,14 212,38 C236,62 248,90 248,124 C248,160 236,188 212,212 Z M242,348 L242,994 C242,1000 238,1006 234,1012 C228,1016 222,1020 216,1020 L32,1020 C26,1020 20,1016 14,1012 C10,1006 6,1000 6,994 L6,348 C6,342 10,336 14,330 C20,326 26,322 32,322 L216,322 C222,322 228,326 234,330 C238,336 242,342 242,348 Z"></path>
  </g>
</svg>