<?xml version="1.0" standalone="no"?>
<!DOCTYPE svg PUBLIC "-//W3C//DTD SVG 1.1//EN" "http://www.w3.org/Graphics/SVG/1.1/DTD/svg11.dtd" >
<svg xmlns="http://www.w3.org/2000/svg" xmlns:xlink="http://www.w3.org/1999/xlink" version="1.1" viewBox="-10 0 1034 1024">
   <path fill="currentColor"
d="M301.864 250.042c55.3496 -85.2803 169.184 -109.49 254.415 -54.1084c75.4258 49.0107 104.35 145.381 68.2988 227.856l-0.945312 2.2832c-8.9082 20.499 -33.042 29.9248 -53.5293 21.0117c-20.4863 -8.91309 -30.0059 -32.9092 -21 -53.5596l0.945312 -2.2832
c20.001 -46.0176 3.91406 -99.7109 -38.1738 -127.059c-47.5176 -30.876 -110.967 -17.3818 -141.825 30.1631l-109.89 169.478c-30.8594 47.5449 -17.3721 111.029 30.1719 142.031c41.9629 27.373 97.5312 20.2393 131.41 -16.7598l1.7002 -1.79297
c15.0664 -16.6045 40.8467 -17.6641 57.4424 -2.58887c16.5967 15.0752 17.7793 40.8438 2.58789 57.4766l-1.69922 1.79297c-60.666 66.375 -160.42 79.1328 -235.846 30.123c-85.2305 -55.3818 -109.428 -169.28 -54.0781 -254.561l110.015 -169.503v-0.000976562z
M543.928 98.0176c60.668 -66.375 160.422 -79.1328 235.851 -30.123c85.2324 55.3818 109.43 169.28 54.0791 254.561l-110.017 169.503c-55.3506 85.2803 -169.187 109.49 -254.42 54.1084c-75.4277 -49.0107 -104.352 -145.381 -68.2734 -227.732l0.944336 -2.2832
c8.9082 -20.499 33.042 -29.9248 53.5303 -21.0117s30.0068 32.9092 21.001 53.5596l-0.945312 2.2832c-20.0273 45.8926 -3.93945 99.5859 38.1494 126.935c47.5186 30.876 110.969 17.3818 141.828 -30.1631l109.864 -169.602
c30.8594 -47.5449 17.373 -111.029 -30.1465 -141.905c-41.9639 -27.374 -97.5332 -20.2402 -131.413 16.7588l-1.7002 1.79297c-15.0664 16.6045 -40.8477 17.6641 -57.4434 2.58887c-16.5967 -15.0752 -17.7793 -40.8438 -2.58887 -57.4766z" />
</svg>
