<?xml version="1.0" encoding="UTF-8"?>
<svg width="702px" height="667px" viewBox="0 0 702 667" version="1.1" xmlns="http://www.w3.org/2000/svg" xmlns:xlink="http://www.w3.org/1999/xlink">
  <g id="Link" transform="translate(0.293, 0.4253)" fill="currentColor" fill-rule="nonzero">
    <path d="M139.731226,211.84272 C195.080826,126.56242 308.915226,102.35272 394.146226,157.73432 C469.572026,206.74502 498.496226,303.11532 462.445026,385.59032 L461.499714,387.87352 C452.591514,408.37252 428.457714,417.79832 407.970414,408.88522 C387.484114,399.97213 377.964514,375.97602 386.970414,355.32562 L387.915726,353.04242 C407.916726,307.02482 391.829786,253.33152 349.741926,225.98342 C302.224326,195.10742 238.774926,208.60162 207.916926,256.14652 L98.0269255,425.62452 C67.1675255,473.16942 80.6548255,536.65352 128.198826,567.65552 C170.161726,595.02852 225.730026,587.89482 259.608826,550.89572 L261.309026,549.10275 C276.375426,532.49825 302.155726,531.43865 318.751426,546.51388 C335.348126,561.58908 336.530726,587.35768 321.339316,603.99048 L319.640096,605.78345 C258.974096,672.15845 159.220096,684.91625 83.7940955,635.90645 C-1.43640449,580.52465 -25.6339045,466.62645 29.7159955,381.34545 L139.730996,211.84245 L139.730996,211.841473 L139.731226,211.84272 Z M381.795226,59.8183196 C442.463226,-6.55668038 542.217226,-19.3144804 617.646226,29.6953196 C702.878626,85.0771196 727.076226,198.97532 671.725326,284.25632 L561.708326,453.75932 C506.357726,539.03962 392.521326,563.24932 307.288326,507.86772 C231.860626,458.85702 202.936326,362.48672 239.014926,280.13572 L239.959262,277.85252 C248.867462,257.35352 273.001262,247.92772 293.489562,256.84082 C313.977862,265.75392 323.496362,289.75002 314.490562,310.40042 L313.54525,312.68362 C293.51795,358.57622 309.6058,412.26952 351.69465,439.61862 C399.21325,470.49462 462.66365,457.00042 493.52265,409.45552 L603.38665,239.85352 C634.24605,192.30862 620.75965,128.82452 573.24015,97.9485196 C531.27625,70.5745196 475.70695,77.7083196 441.82715,114.70732 L440.12695,116.50029 C425.06055,133.10479 399.27925,134.16439 382.68355,119.08916 C366.08685,104.01396 364.90425,78.2453596 380.09468,61.6125596 L381.795226,59.8183196 Z"></path>
  </g>
</svg>