<?xml version="1.0" encoding="UTF-8"?>
<svg width="118px" height="118px" viewBox="0 0 118 118" version="1.1" xmlns="http://www.w3.org/2000/svg" xmlns:xlink="http://www.w3.org/1999/xlink">
    <title>Lioden</title>
    <g id="Lioden" stroke="none" stroke-width="1" fill="none" fill-rule="evenodd">
        <path d="M67.9291992,10 C56.1040039,26.2695313 51.5255534,52.1263021 54.1938477,87.5703125 C67.9291992,86.3500977 79.5947266,76.1640625 102.003906,64.3208008 C102.135254,77.4970703 102.003906,82.0615234 102.003906,93.6567383 C100.058268,86.7150065 96.5112305,85.2573242 91.362793,89.2836914 C72.6749674,103.725749 49.3523763,110.202962 21.3950195,108.715332 C25.8572591,104.840332 27.9412435,99.5924479 27.6469727,92.9716797 C27.2055664,83.0405273 26.5532227,57.7939453 22.0385742,31.809082 C21.6095378,30.2817383 19.5966797,29.1573893 16,28.4360352 C29.1142578,22.0327148 46.4239909,15.8873698 67.9291992,10 Z M57.1264648,20.1855469 C42.0048828,23.6757813 37.2299805,24.628418 28.4169922,29.3432617 C32.7680664,32.3388672 34.0351563,35.8823242 36.4326172,35.3710938 C39.4173177,37.9114583 42.7159831,43.5602214 46.3286133,52.3173828 C44.8484701,50.3974609 41.4088542,47.4946289 36.0097656,43.6088867 C36.0097656,43.6088867 35.266276,44.0048828 33.7792969,44.796875 C32.6025391,44.1861979 30.9549154,42.6944987 28.8364258,40.3217773 C28.8364258,40.3217773 29.0154622,42.7848307 29.3735352,47.7109375 C30.5245768,48.7252604 31.9322917,49.3662109 33.5966797,49.6337891 C36.680013,51.656901 39.6153971,55.5485026 42.402832,61.3085938 C41.3875326,60.1386719 38.5491536,57.9656576 33.8876953,54.7895508 C33.8876953,54.7895508 33.4715169,55.2399089 32.6391602,56.140625 C32.6391602,56.140625 32.5610056,56.0888687 32.4046965,55.9853562 L32.2515775,55.8839561 C31.8496398,55.617781 31.1350841,55.1445808 30.1079102,54.4643555 C30.1079102,54.4643555 30.2591146,57.0069987 30.5615234,62.0922852 C34.3961589,63.4051107 37.3673503,66.4669596 39.4750977,71.277832 C35.6479492,68.340332 32.8982747,67.0110677 31.2260742,67.2900391 C33.0076497,88.6295573 33.313151,100.790365 32.1425781,103.772461 C60.5131972,103.772461 75.9916076,94.5536234 90.1762457,85.392185 L91.130685,84.7747522 C91.2894754,84.6718963 91.4481354,84.569074 91.6066814,84.4662984 L92.5567214,83.8503107 C93.505657,83.2350941 94.4516739,82.622507 95.3983259,82.0153915 C96.3824764,81.3842271 97.5683431,81.046875 98.5063477,83.2871094 C98.5063477,79.5652112 98.4762363,77.4805894 98.465935,75.5188505 L98.4628786,74.6812135 L98.4626198,74.1180664 C98.4637411,72.9814531 98.4752121,71.7672278 98.5063477,70.1928214 C96.0626457,71.5746674 93.4312209,73.1241227 91.2700195,74.644043 C73.2729492,87.300944 59.5286458,93.311849 50.0371094,92.6767578 C46.3909505,65.929362 48.754069,41.765625 57.1264648,20.1855469 Z" id="Combined-Shape" fill="currentColor"></path>
    </g>
</svg>