<?xml version="1.0" encoding="UTF-8"?>
<svg width="1025px" height="1025px" viewBox="0 0 1025 1025" version="1.1" xmlns="http://www.w3.org/2000/svg" xmlns:xlink="http://www.w3.org/1999/xlink">
  <g id="LiveMaster" transform="translate(0.8152, 0.0684)" fill="currentColor" fill-rule="nonzero">
    <path d="M512.00006,353.27963 C423.93556,353.27963 353.28006,424.95933 353.28006,511.99963 C353.28006,599.03993 424.95976,670.71963 512.00006,670.71963 C599.04036,670.71963 670.72006,599.03993 670.72006,511.99963 C670.72006,424.95933 600.06476,353.27963 512.00006,353.27963 Z M512.00006,637.95163 C442.36826,637.95163 386.04806,581.63133 386.04806,511.99963 C386.04806,442.36793 442.36836,386.04763 512.00006,386.04763 C581.63176,386.04763 637.95206,442.36793 637.95206,511.99963 C637.95206,581.63133 581.63176,637.95163 512.00006,637.95163 Z M766.97606,462.84763 C747.51996,455.67966 732.16066,441.34373 723.96826,423.93553 C716.80029,405.50393 716.80029,385.02443 726.01611,365.56833 C739.32861,338.94433 740.35201,317.44043 731.13623,302.08003 C718.84813,282.62393 692.22413,280.57613 657.40873,296.95991 C647.16853,302.08003 635.90483,304.12788 625.66463,304.12788 C595.96833,304.12788 570.36873,285.69628 560.12853,255.99998 C545.79263,215.03998 525.31213,206.84768 512.00063,206.84768 C497.66473,206.84768 478.20863,215.04006 462.84833,255.99998 C452.60903,284.67188 427.00853,304.12788 397.31223,304.12788 C386.04853,304.12788 375.80833,302.08003 365.56903,296.95991 C330.75263,280.57611 304.12863,283.64841 291.84053,302.08003 C282.62471,317.44043 283.64912,337.91983 296.96065,365.56833 C306.17647,385.02443 307.20085,405.50383 299.0085,423.93553 C291.84053,442.36813 276.4812,456.70413 256.0007,462.84763 C215.0407,477.18353 206.8484,497.66403 206.8484,511.99993 C206.8484,526.33583 215.04078,545.79193 256.0007,561.15223 C275.4568,568.3202 290.8171,582.65613 297.9851,600.06433 C305.15307,618.49593 305.15307,638.97543 295.93627,658.43153 C282.62477,685.05553 281.60037,706.55943 290.81713,721.91983 C303.10423,741.37593 329.72823,743.42373 364.54463,727.03995 C374.78483,721.91983 386.04853,719.87198 396.28873,719.87198 C425.98503,719.87198 451.58463,738.30358 461.82483,767.99988 C476.16073,808.95988 496.64023,817.15218 509.95273,817.15218 C523.26423,817.15218 543.74473,808.9598 559.10413,767.99988 C569.34433,739.32798 594.94493,719.87198 624.64023,719.87198 C635.90483,719.87198 646.14413,721.91983 656.38433,727.03995 C691.20073,743.42375 717.82473,740.35145 730.11283,721.91983 C739.32865,706.55943 738.30424,686.08003 724.99271,658.43153 C715.77689,638.97543 714.75251,618.49603 722.94486,600.06433 C730.11283,581.63173 745.47216,567.29573 765.95266,561.15223 C806.91266,546.81633 815.10406,526.33583 815.10406,511.99993 C815.10406,497.66403 807.93609,478.20793 766.97616,462.84763 L766.97606,462.84763 Z M755.71206,528.38363 C727.04016,538.62383 704.51186,559.10333 693.24816,586.75183 C681.98446,614.40033 683.00796,644.09563 696.32043,671.74403 C705.53625,692.22353 704.51184,701.44033 703.4884,702.46373 C703.4884,702.46373 701.44055,703.48814 699.39172,703.48814 C695.29602,703.48814 687.10362,702.46373 672.76772,695.29576 C657.40832,688.12779 642.04802,685.05556 626.68862,685.05556 C582.65642,685.05556 544.76772,712.70396 529.40832,755.71176 C522.24035,776.19226 514.04792,782.33576 513.02452,782.33576 C510.97569,782.33576 503.80772,776.19221 496.63972,755.71176 C481.28032,712.70396 443.39172,685.05556 399.36042,685.05556 C382.97562,685.05556 367.61632,688.12783 353.28032,695.29576 C338.94432,702.46369 330.75202,703.48814 326.65632,703.48814 C323.58405,703.48814 322.55964,702.46373 322.55964,702.46373 C321.5362,701.44029 319.48835,692.22353 329.72761,671.74403 C343.04011,644.09563 344.06451,613.37583 332.79988,586.75183 C321.53618,559.10343 299.00788,538.62393 270.33598,528.38363 C248.83208,521.21566 243.71198,513.02423 243.71198,511.99983 C243.71198,510.97543 248.8321,502.78401 270.33598,495.61603 C299.00788,485.37583 321.53618,464.89633 332.79988,437.24783 C344.06448,409.59943 343.04008,379.90403 329.72761,352.25563 C320.51179,331.77613 321.5362,322.55933 322.55964,321.53593 C322.55964,321.53593 324.60847,320.51152 326.65632,320.51152 C330.75202,320.51152 338.94442,321.53593 353.28032,328.7039 C368.63972,335.87187 384.00002,338.9441 399.36042,338.9441 C443.39162,338.9441 481.28032,311.2957 496.63972,268.2879 C503.80769,246.784 512.00012,241.6639 513.02452,241.6639 C514.04796,241.6639 522.24034,246.78402 529.40832,268.2879 C544.76772,311.2957 582.65632,338.9441 626.68862,338.9441 C643.07242,338.9441 658.43182,334.84742 672.76772,328.7039 C687.10362,321.53593 695.29602,320.51152 699.39172,320.51152 C702.46399,320.51152 703.4884,321.53593 703.4884,321.53593 C704.51184,322.55937 705.53625,331.77613 696.32043,352.25563 C683.00793,379.90403 681.98453,410.62383 693.24816,437.24783 C704.51186,464.89623 727.04016,485.37573 755.71206,495.61603 C777.21596,502.784 782.33606,510.97543 782.33606,511.99983 C782.33606,513.02423 776.19251,521.21565 755.71206,528.38363 Z M858.11206,605.18363 L1024.00006,512.00003 L858.11206,418.81643 L955.39136,256.00043 L764.92736,259.0727 L767.99963,68.6087 L605.18363,165.888 L512.00003,2.84217094e-14 L418.81643,165.888 L256.00043,68.6087 L259.0727,258.0477 L68.6087,255.99985 L165.888,418.81585 L0,511.99945 L165.888,605.18305 L68.6087,767.99905 L259.0727,764.92678 L256.00043,955.39078 L418.81643,858.11148 L512.00003,1023.99948 L605.18363,858.11148 L767.99963,955.39078 L764.92736,764.92678 L955.39136,767.99905 L858.11206,605.18363 Z M734.20806,897.02363 L591.87206,813.05483 L511.99996,956.41483 L431.10346,812.03083 L289.79146,897.02303 L291.83931,732.15903 L126.97531,734.20688 L210.94411,592.89488 L67.58411,511.99838 L211.96811,431.10188 L128.00031,288.76588 L292.86431,290.81471 L290.81646,125.95071 L433.15246,209.91851 L512.00016,67.58251 L592.89666,211.96651 L735.23266,127.99871 L733.18383,292.86271 L898.04783,290.81486 L813.05563,433.15086 L956.41563,511.99856 L812.03163,592.89506 L895.99943,734.20706 L731.13543,732.15921 L734.20806,897.02363 Z"></path>
  </g>
</svg>