<?xml version="1.0" encoding="UTF-8"?>
<svg width="1025px" height="1021px" viewBox="0 0 1025 1021" version="1.1" xmlns="http://www.w3.org/2000/svg" xmlns:xlink="http://www.w3.org/1999/xlink">
  <g id="LiveJournal" transform="translate(0.7227, 0.6046)" fill="currentColor" fill-rule="nonzero">
    <path d="M541.941125,58.2557812 C473.941125,58.2557812 409.941125,72.2557812 351.941125,98.2557812 C355.941125,100.255781 357.941125,102.255781 361.941125,106.255781 L391.941125,136.255781 L393.941125,138.255781 L737.941125,482.255781 C631.941125,544.255781 549.941125,628.255781 489.941125,738.255781 L143.941125,392.255781 L139.941125,388.255781 C129.941125,376.255781 117.941125,366.255781 107.941125,356.255781 C105.941125,354.255781 103.941125,352.255781 101.941125,348.255781 C153.941125,234.255781 235.941125,150.255781 353.941125,100.255781 L351.941125,98.2557812 L351.941125,98.2557812 C321.941125,68.2557812 291.941125,40.2557812 263.941125,10.2557812 C251.941125,0.255781179 241.941125,-3.74421882 227.941125,4.25578118 C209.941125,12.2557812 193.941125,22.2557812 177.941125,32.2557812 C121.941125,70.2557812 75.9411255,116.255781 37.9411255,170.255781 C25.9411255,188.255781 13.9411255,206.255781 3.9411255,228.255781 C-2.0588745,240.255781 -2.0588745,248.255781 9.9411255,258.255781 L99.9411255,348.255781 C73.9411255,406.255781 61.9411255,472.255781 61.9411255,538.255781 C61.9411255,804.255781 277.941125,1020.25578 541.941125,1020.25578 C807.941125,1020.25578 1023.94113,804.255781 1023.94113,538.255781 C1023.94113,274.255781 807.941125,58.2557812 541.941125,58.2557812 Z M591.941125,776.255781 C631.941125,684.255781 695.941125,622.255781 783.941125,580.255781 C799.941125,662.255781 815.941125,740.255781 831.941125,826.255781 C747.941125,808.255781 671.941125,792.255781 591.941125,776.255781 Z"></path>
  </g>
</svg>