<?xml version="1.0" standalone="no"?>
<!DOCTYPE svg PUBLIC "-//W3C//DTD SVG 1.1//EN" "http://www.w3.org/Graphics/SVG/1.1/DTD/svg11.dtd" >
<svg xmlns="http://www.w3.org/2000/svg" xmlns:xlink="http://www.w3.org/1999/xlink" version="1.1" viewBox="-10 0 1044 1024">
   <path fill="currentColor"
d="M352 -41v0v0v0zM542 -81c-68 0 -132 14 -190 40c4 2 6 4 10 8l30 30l2 2l344 344c-106 62 -188 146 -248 256l-346 -346l-4 -4c-10 -12 -22 -22 -32 -32c-2 -2 -4 -4 -6 -8c52 -114 134 -198 252 -248l-2 -2v0c-30 -30 -60 -58 -88 -88c-12 -10 -22 -14 -36 -6
c-18 8 -34 18 -50 28c-56 38 -102 84 -140 138c-12 18 -24 36 -34 58c-6 12 -6 20 6 30l90 90c-26 58 -38 124 -38 190c0 266 216 482 480 482c266 0 482 -216 482 -482c0 -264 -216 -480 -482 -480zM592 637c40 -92 104 -154 192 -196c16 82 32 160 48 246
c-84 -18 -160 -34 -240 -50z" />
</svg>
