<?xml version="1.0" standalone="no"?>
<!DOCTYPE svg PUBLIC "-//W3C//DTD SVG 1.1//EN" "http://www.w3.org/Graphics/SVG/1.1/DTD/svg11.dtd" >
<svg xmlns="http://www.w3.org/2000/svg" xmlns:xlink="http://www.w3.org/1999/xlink" version="1.1" viewBox="-11 0 1045 1024">
   <path fill="currentColor"
d="M512 212.28c-88.0645 0 -158.72 71.6797 -158.72 158.72s71.6797 158.72 158.72 158.72s158.72 -71.6797 158.72 -158.72s-70.6553 -158.72 -158.72 -158.72zM512 496.952c-69.6318 0 -125.952 -56.3203 -125.952 -125.952s56.3203 -125.952 125.952 -125.952
s125.952 56.3203 125.952 125.952s-56.3203 125.952 -125.952 125.952zM766.976 321.848c-19.4561 -7.16797 -34.8154 -21.5039 -43.0078 -38.9121c-7.16797 -18.4316 -7.16797 -38.9111 2.04785 -58.3672c13.3125 -26.624 14.3359 -48.1279 5.12012 -63.4883
c-12.2881 -19.4561 -38.9121 -21.5039 -73.7275 -5.12012c-10.2402 5.12012 -21.5039 7.16797 -31.7441 7.16797c-29.6963 0 -55.2959 -18.4316 -65.5361 -48.1279c-14.3359 -40.96 -34.8164 -49.1523 -48.1279 -49.1523c-14.3359 0 -33.792 8.19238 -49.1523 49.1523
c-10.2393 28.6719 -35.8398 48.1279 -65.5361 48.1279c-11.2637 0 -21.5039 -2.04785 -31.7432 -7.16797c-34.8164 -16.3838 -61.4404 -13.3115 -73.7285 5.12012c-9.21582 15.3604 -8.19141 35.8398 5.12012 63.4883c9.21582 19.4561 10.2402 39.9355 2.04785 58.3672
c-7.16797 18.4326 -22.5273 32.7686 -43.0078 38.9121c-40.96 14.3359 -49.1523 34.8164 -49.1523 49.1523s8.19238 33.792 49.1523 49.1523c19.4561 7.16797 34.8164 21.5039 41.9844 38.9121c7.16797 18.4316 7.16797 38.9111 -2.04883 58.3672
c-13.3115 26.624 -14.3359 48.1279 -5.11914 63.4883c12.2871 19.4561 38.9111 21.5039 73.7275 5.12012c10.2402 -5.12012 21.5039 -7.16797 31.7441 -7.16797c29.6963 0 55.2959 18.4316 65.5361 48.1279c14.3359 40.96 34.8154 49.1523 48.1279 49.1523
c13.3115 0 33.792 -8.19238 49.1514 -49.1523c10.2402 -28.6719 35.8408 -48.1279 65.5361 -48.1279c11.2646 0 21.5039 2.04785 31.7441 7.16797c34.8164 16.3838 61.4404 13.3115 73.7285 -5.12012c9.21582 -15.3604 8.19141 -35.8398 -5.12012 -63.4883
c-9.21582 -19.4561 -10.2402 -39.9355 -2.04785 -58.3672c7.16797 -18.4326 22.5273 -32.7686 43.0078 -38.9121c40.96 -14.3359 49.1514 -34.8164 49.1514 -49.1523s-7.16797 -33.792 -48.1279 -49.1523zM755.712 387.384
c-28.6719 10.2402 -51.2002 30.7197 -62.4639 58.3682s-10.2402 57.3438 3.07227 84.9922c9.21582 20.4795 8.19141 29.6963 7.16797 30.7197c0 0 -2.04785 1.02441 -4.09668 1.02441c-4.0957 0 -12.2881 -1.02441 -26.624 -8.19238
c-15.3594 -7.16797 -30.7197 -10.2402 -46.0791 -10.2402c-44.0322 0 -81.9209 27.6484 -97.2803 70.6562c-7.16797 20.4805 -15.3604 26.624 -16.3838 26.624c-2.04883 0 -9.2168 -6.14355 -16.3848 -26.624c-15.3594 -43.0078 -53.248 -70.6562 -97.2793 -70.6562
c-16.3848 0 -31.7441 3.07227 -46.0801 10.2402s-22.5283 8.19238 -26.624 8.19238c-3.07227 0 -4.09668 -1.02441 -4.09668 -1.02441c-1.02344 -1.02344 -3.07129 -10.2402 7.16797 -30.7197c13.3125 -27.6484 14.3369 -58.3682 3.07227 -84.9922
c-11.2637 -27.6484 -33.792 -48.1279 -62.4639 -58.3682c-21.5039 -7.16797 -26.624 -15.3594 -26.624 -16.3838s5.12012 -9.21582 26.624 -16.3838c28.6719 -10.2402 51.2002 -30.7197 62.4639 -58.3682c11.2646 -27.6484 10.2402 -57.3438 -3.07227 -84.9922
c-9.21582 -20.4795 -8.19141 -29.6963 -7.16797 -30.7197c0 0 2.04883 -1.02441 4.09668 -1.02441c4.0957 0 12.2881 1.02441 26.624 8.19238c15.3594 7.16797 30.7197 10.2402 46.0801 10.2402c44.0312 0 81.9199 -27.6484 97.2793 -70.6562
c7.16797 -21.5039 15.3604 -26.624 16.3848 -26.624c1.02344 0 9.21582 5.12012 16.3838 26.624c15.3594 43.0078 53.248 70.6562 97.2803 70.6562c16.3838 0 31.7432 -4.09668 46.0791 -10.2402c14.3359 -7.16797 22.5283 -8.19238 26.624 -8.19238
c3.07227 0 4.09668 1.02441 4.09668 1.02441c1.02344 1.02344 2.04785 10.2402 -7.16797 30.7197c-13.3125 27.6484 -14.3359 58.3682 -3.07227 84.9922c11.2637 27.6484 33.792 48.1279 62.4639 58.3682c21.5039 7.16797 26.624 15.3594 26.624 16.3838
s-6.14355 9.21582 -26.624 16.3838zM858.112 464.184l165.888 -93.1836l-165.888 -93.1836l97.2793 -162.816l-190.464 3.07227l3.07227 -190.464l-162.816 97.2793l-93.1836 -165.888l-93.1836 165.888l-162.816 -97.2793l3.07227 189.439l-190.464 -2.04785
l97.2793 162.816l-165.888 93.1836l165.888 93.1836l-97.2793 162.816l190.464 -3.07227l-3.07227 190.464l162.816 -97.2793l93.1836 165.888l93.1836 -165.888l162.816 97.2793l-3.07227 -190.464l190.464 3.07227zM734.208 756.024l-142.336 -83.9688l-79.8721 143.36
l-80.8965 -144.384l-141.312 84.9922l2.04785 -164.864l-164.864 2.04785l83.9688 -141.312l-143.36 -80.8965l144.384 -80.8965l-83.9678 -142.336l164.864 2.04883l-2.04785 -164.864l142.336 83.9678l78.8477 -142.336l80.8965 144.384l142.336 -83.9678
l-2.04883 164.864l164.864 -2.04785l-84.9922 142.336l143.36 78.8477l-144.384 80.8965l83.9678 141.312l-164.864 -2.04785z" />
</svg>
