<?xml version="1.0" encoding="UTF-8"?>
<svg width="16px" height="16px" viewBox="0 0 16 16" version="1.1" xmlns="http://www.w3.org/2000/svg" xmlns:xlink="http://www.w3.org/1999/xlink">
    <title>lobsters.rs</title>
    <g id="lobsters.rs" stroke="none" stroke-width="1" fill="none" fill-rule="evenodd">
        <path d="M8.36621094,3.26611328 C8.36621094,3.32958984 8.21606445,3.53100586 7.91577148,3.87036133 C7.61547852,4.2097168 7.43725586,4.49658203 7.38110352,4.73095703 C7.32495117,4.96533203 7.296875,6.0847168 7.296875,8.08911133 C7.296875,10.0935059 7.32495117,11.2006836 7.38110352,11.4106445 C7.43725586,11.6206055 7.55566406,11.7634277 7.73632812,11.8391113 C7.91699219,11.9147949 8.22705078,11.9526367 8.66650391,11.9526367 C9.10595703,11.9526367 9.49047852,11.8720703 9.82006836,11.7109375 C10.1496582,11.5498047 10.5048828,11.2617188 10.8857422,10.8466797 C11.2666016,10.4316406 11.59375,10.2241211 11.8671875,10.2241211 C12.0771484,10.2241211 12.1821289,10.355957 12.1821289,10.6196289 L12.1821289,10.8100586 C12.1821289,11.1762695 12.1235352,11.5827637 12.0063477,12.029541 C11.8891602,12.4763184 11.7963867,12.7314453 11.7280273,12.7949219 C11.5766602,12.9365234 11.2104492,13.0073242 10.6293945,13.0073242 L6.69628906,13.0073242 C5.41210938,13.0073242 4.70166016,12.9951172 4.56494141,12.9707031 C4.33056641,12.9267578 4.21337891,12.7949219 4.21337891,12.5751953 C4.21337891,12.4580078 4.34277344,12.2700195 4.6015625,12.0112305 C4.86035156,11.7524414 5.03857422,11.4155273 5.13623047,11.0004883 C5.17529297,10.8344727 5.19482422,9.74072266 5.19482422,7.71923828 C5.19482422,5.69775391 5.16552734,4.58935547 5.10693359,4.39404297 C5.04833984,4.19873047 4.86035156,4.00097656 4.54296875,3.80078125 C4.22558594,3.60058594 4.06689453,3.37597656 4.06689453,3.12695312 C4.06689453,2.92675781 4.54296875,2.82666016 5.49511719,2.82666016 L7.43603516,2.82666016 C7.81689453,2.82666016 8.06713867,2.85473633 8.18676758,2.91088867 C8.30639648,2.96704102 8.36621094,3.08544922 8.36621094,3.26611328 Z" id="Path" fill="currentColor" fill-rule="nonzero"></path>
    </g>
</svg>