<?xml version="1.0" encoding="UTF-8"?>
<svg width="1026px" height="1003px" viewBox="0 0 1026 1003" version="1.1" xmlns="http://www.w3.org/2000/svg" xmlns:xlink="http://www.w3.org/1999/xlink">
  <g id="LogMeIn" transform="translate(0.7462, 0.0684)" fill="currentColor" fill-rule="nonzero">
    <path d="M354.30421,636.92805 L354.30421,636.92805 C353.28077,653.31185 353.28077,668.67215 353.28077,685.05595 C353.28077,775.16825 352.25636,866.30395 353.28077,956.41595 C353.28077,991.23135 362.49659,1000.44815 397.31197,1001.47165 C430.08057,1002.49466 462.84807,1002.49466 494.59227,1001.47165 C540.67237,1000.44821 549.88817,991.23145 549.88817,944.12785 L549.88817,681.98285 C549.88817,627.71135 548.86473,572.41585 561.15277,518.14285 C578.55997,445.43875 637.95257,406.52685 716.79977,413.69485 C778.24017,418.81497 815.10347,463.87165 822.27277,537.59885 C829.44074,618.49535 825.34406,699.39085 826.36847,780.28685 C827.39191,839.67845 826.36847,899.06985 827.39191,959.48585 C827.39191,990.20655 837.63211,1000.44675 869.37631,1001.47025 C905.21611,1002.49466 941.05601,1002.49466 976.89731,1002.49466 C1015.80841,1001.47025 1024.00081,993.27786 1024.00081,954.36676 C1024.00081,875.51816 1025.02522,796.67076 1024.00081,718.84576 C1022.9764,635.90146 1029.12093,551.93376 1019.90511,468.99076 C1006.59261,361.46976 952.32111,289.79076 858.11311,267.26176 C753.66511,242.68556 654.33711,250.87796 573.44111,333.82226 C558.08071,350.20606 549.88841,347.13376 541.69701,325.62988 C539.64916,320.50976 537.60033,315.38968 537.60033,309.24608 C536.57689,282.62208 519.16873,274.42968 495.61693,273.40628 C462.84833,272.38187 430.08083,272.38187 398.33663,273.40628 C363.52023,274.42972 354.30443,284.66998 354.30443,320.50978 L354.30443,636.92578 L354.30421,636.92805 Z M3.95239397e-14,501.76005 L1.02462,501.76005 L1.02462,956.41605 C1.02462,991.23145 9.21603,999.42385 45.05582,1000.44825 C81.92012,1001.47169 119.80782,1002.4961 156.67182,1002.4961 C206.84762,1002.4961 217.08782,993.2793 217.08782,943.1035 C217.08782,647.1675 217.08782,350.2075 216.06438,54.2715 C216.06438,45.05568 215.03997,34.8154 214.01555,25.5996 C211.9677,10.2402 200.70405,0 183.29585,0 L35.83985,0 C15.36035,0 3.07225,11.2637 2.04785,31.7441 C3.95239397e-14,43.0078 3.95239397e-14,53.248 3.95239397e-14,63.4873 L3.95239397e-14,501.7593 L3.95239397e-14,501.76005 Z"></path>
  </g>
</svg>