<?xml version="1.0" standalone="no"?>
<!DOCTYPE svg PUBLIC "-//W3C//DTD SVG 1.1//EN" "http://www.w3.org/Graphics/SVG/1.1/DTD/svg11.dtd" >
<svg xmlns="http://www.w3.org/2000/svg" xmlns:xlink="http://www.w3.org/1999/xlink" version="1.1" viewBox="-10 0 1046 1024">
   <path fill="currentColor"
d="M354.304 506.168v0c-1.02344 16.3838 -1.02344 31.7441 -1.02344 48.1279c0 90.1123 -1.02441 181.248 0 271.36c0 34.8154 9.21582 44.0322 44.0312 45.0557c32.7686 1.02441 65.5361 1.02441 97.2803 0c46.0801 -1.02344 55.2959 -10.2402 55.2959 -57.3438v-262.145
c0 -54.2715 -1.02344 -109.567 11.2646 -163.84c17.4072 -72.7041 76.7998 -111.616 155.647 -104.448c61.4404 5.12012 98.3037 50.1768 105.473 123.904c7.16797 80.8965 3.07129 161.792 4.0957 242.688c1.02344 59.3916 0 118.783 1.02344 179.199
c0 30.7207 10.2402 40.9609 41.9844 41.9844c35.8398 1.02441 71.6797 1.02441 107.521 1.02441c38.9111 -1.02441 47.1035 -9.2168 47.1035 -48.1279c0 -78.8486 1.02441 -157.696 0 -235.521c-1.02441 -82.9443 5.12012 -166.912 -4.0957 -249.855
c-13.3125 -107.521 -67.584 -179.2 -161.792 -201.729c-104.448 -24.5762 -203.776 -16.3838 -284.672 66.5605c-15.3604 16.3838 -23.5527 13.3115 -31.7441 -8.19238c-2.04785 -5.12012 -4.09668 -10.2402 -4.09668 -16.3838
c-1.02344 -26.624 -18.4316 -34.8164 -41.9834 -35.8398c-32.7686 -1.02441 -65.5361 -1.02441 -97.2803 0c-34.8164 1.02344 -44.0322 11.2637 -44.0322 47.1035v316.416zM0 371h1.02441v454.656c0 34.8154 8.19141 43.0078 44.0312 44.0322
c36.8643 1.02344 74.752 2.04785 111.616 2.04785c50.1758 0 60.416 -9.2168 60.416 -59.3926c0 -295.936 0 -592.896 -1.02344 -888.832c0 -9.21582 -1.02441 -19.4561 -2.04883 -28.6719c-2.04785 -15.3594 -13.3115 -25.5996 -30.7197 -25.5996h-147.456
c-20.4795 0 -32.7676 11.2637 -33.792 31.7441c-2.04785 11.2637 -2.04785 21.5039 -2.04785 31.7432v438.272z" />
</svg>
