<?xml version="1.0" standalone="no"?>
<!DOCTYPE svg PUBLIC "-//W3C//DTD SVG 1.1//EN" "http://www.w3.org/Graphics/SVG/1.1/DTD/svg11.dtd" >
<svg xmlns="http://www.w3.org/2000/svg" xmlns:xlink="http://www.w3.org/1999/xlink" version="1.1" viewBox="-11 0 1047 1024">
   <path fill="currentColor"
d="M961.536 204.088c-18.4326 -30.7197 -39.9365 -59.3916 -66.5605 -83.9678c-9.21582 -9.21582 -13.3115 -18.4316 -12.2871 -31.7441c1.02344 -28.6719 0 -56.3203 0 -84.9922v-79.8721c0 -6.14355 0 -13.3115 -1.02441 -19.4561
c-5.12012 -35.8398 -38.9121 -54.2715 -71.6797 -38.9121c-6.14453 3.07227 -12.2881 7.16797 -19.4561 11.2646c-48.1279 29.6953 -97.2803 58.3682 -145.408 89.0879c-14.3359 9.21582 -27.6484 11.2637 -44.0322 8.19238
c-40.96 -6.14453 -81.9199 -11.2646 -122.88 -5.12012c-22.5283 3.07129 -40.96 -3.07227 -59.3916 -14.3359c-40.96 -26.624 -82.9443 -50.1768 -123.904 -75.7764c-9.21582 -7.16797 -18.4316 -12.2881 -28.6719 -15.3604
c-43.0078 -13.3115 -90.1123 13.3125 -100.353 57.3447c-2.04785 9.21582 -2.04785 18.4316 -2.04785 27.6475c0 38.9121 -1.02344 76.7998 0 115.712c0 17.4082 -4.0957 30.7197 -18.4316 43.0078c-25.6006 21.5039 -47.1045 46.0801 -65.5361 73.7285
c-91.1357 136.191 -106.496 279.552 -34.8164 429.056c48.1279 101.376 128 172.032 229.376 220.16c104.448 50.1758 215.04 62.4639 329.729 45.0557c116.736 -17.4072 218.112 -68.6074 299.008 -154.624c77.8242 -81.9199 120.832 -180.224 121.856 -294.911
c0 -78.8486 -22.5283 -152.576 -63.4883 -221.185zM888.832 605.496c-35.8398 57.3438 -83.9678 100.352 -141.312 134.144c-60.416 34.8164 -145.407 62.4639 -218.111 60.416c-128 0 -228.353 -33.792 -315.393 -105.472
c-61.4395 -51.2002 -104.447 -115.712 -122.88 -193.536c-24.5762 -103.424 -1.02344 -197.632 60.416 -282.624c18.4326 -25.5996 40.96 -49.1514 66.5605 -68.6074c18.4316 -14.3359 26.624 -30.7207 25.5996 -54.2725c-1.02344 -37.8877 0 -76.7998 0 -115.712v-21.5039
c1.02441 -9.21582 5.12012 -12.2881 12.2881 -8.19238c7.16797 4.09668 14.3359 8.19238 21.5039 12.2881c41.9844 25.6006 84.9922 51.2002 126.977 76.7998c14.3359 9.2168 29.6953 13.3125 47.1035 11.2646c32.7676 -3.07227 65.5361 -4.09668 98.3037 -2.04785
c113.664 9.21582 211.969 52.2236 291.84 134.144c60.416 62.4639 94.208 137.216 99.3281 223.232c5.12012 72.7031 -13.3115 139.264 -52.2236 199.68z" />
</svg>
