<?xml version="1.0" encoding="UTF-8"?>
<svg width="1026px" height="1023px" viewBox="0 0 1026 1023" version="1.1" xmlns="http://www.w3.org/2000/svg" xmlns:xlink="http://www.w3.org/1999/xlink">
  <g id="Loomly" transform="translate(0.5102, 0.0684)" fill="currentColor" fill-rule="nonzero">
    <path d="M961.572594,344.432548 C943.139994,313.712848 921.636094,285.040948 895.012094,260.464748 C885.796274,251.248928 881.700594,242.033148 882.724994,228.720648 C883.748434,200.048748 882.724994,172.400348 882.724994,143.728448 L882.724994,63.8563477 C882.724994,57.7127977 882.724994,50.5448477 881.700584,44.4002477 C876.580464,8.56044766 842.788484,-9.87125234 810.020884,5.48814766 C803.876354,8.56041766 797.732784,12.6561177 790.564784,16.7527477 C742.436884,46.4480477 693.284484,75.1209477 645.156784,105.840648 C630.820884,115.056468 617.508384,117.104348 601.124584,114.033028 C560.164584,107.888498 519.204684,102.768428 478.244584,108.912908 C455.716284,111.984198 437.284584,105.840638 418.852984,94.5770077 C377.892984,67.9530077 335.908684,44.4002077 294.948984,18.8006077 C285.733164,11.6326377 276.517384,6.51250766 266.277084,3.44020766 C223.269284,-9.87129234 176.164784,16.7527077 165.924084,60.7849077 C163.876234,70.0007277 163.876234,79.2165077 163.876234,88.4324077 C163.876234,127.344508 162.852794,165.232208 163.876234,204.144408 C163.876234,221.552608 159.780534,234.864108 145.444634,247.152208 C119.844034,268.656108 98.3401336,293.232308 79.9085336,320.880708 C-11.2271664,457.071708 -26.5874664,600.432708 45.0921336,749.936708 C93.2200336,851.312708 173.092134,921.968708 274.468134,970.096708 C378.916134,1020.27251 489.508134,1032.56061 604.197134,1015.15241 C720.933134,997.745208 822.309134,946.545008 903.205134,860.528408 C981.029334,778.608508 1024.03713,680.304408 1025.06113,565.617408 C1025.06113,486.768808 1002.53283,413.041408 961.572834,344.432408 L961.572594,344.432548 Z M888.868594,745.840548 C853.028794,803.184348 804.900794,846.192548 747.556594,879.984548 C687.140594,914.800948 602.149594,942.448448 529.445594,940.400548 C401.445594,940.400548 301.092594,906.608548 214.052594,834.928548 C152.613094,783.728348 109.605594,719.216548 91.1725936,641.392548 C66.5963936,537.968548 90.1491536,443.760548 151.588594,358.768548 C170.021194,333.168948 192.548594,309.617148 218.149094,290.161148 C236.580694,275.825248 244.773094,259.440448 243.748694,235.888648 C242.725254,198.000948 243.748694,159.088848 243.748694,120.176648 L243.748694,98.6727477 C244.773104,89.4569277 248.868814,86.3846477 256.036794,90.4803677 C263.204764,94.5770477 270.372694,98.6727477 277.540694,102.768468 C319.525094,128.369068 362.532894,153.968668 404.517694,179.568268 C418.853594,188.785068 434.212994,192.880768 451.621194,190.832868 C484.388794,187.760598 517.157294,186.736188 549.924894,188.785018 C663.588894,198.000838 761.893894,241.008618 841.764894,322.929018 C902.180894,385.392918 935.972894,460.145018 941.092994,546.161018 C946.213114,618.864118 927.781494,685.425018 888.869394,745.841018 L888.868594,745.840548 Z"></path>
  </g>
</svg>