<?xml version="1.0" encoding="UTF-8"?>
<svg width="1023px" height="721px" viewBox="0 0 1023 721" version="1.1" xmlns="http://www.w3.org/2000/svg" xmlns:xlink="http://www.w3.org/1999/xlink">
  <g id="Lyft" transform="translate(0.3341, 0.0926)" fill="currentColor" fill-rule="nonzero">
    <path d="M128,570 C106,570 76,566 48,542 C18,516 0,474 0,428 L0,14 L144,14 L144,428 C144,500 176,538 194,552 C182,560 156,570 128,570 Z M580,558 L566,558 L566,202 C566,90 656,0 766,0 C860,0 944,68 962,158 L964,162 L1016,162 L1016,306 L968,306 L968,356 C968,386 992,412 1022,414 L1022,556 C916,552 828,464 828,356 L828,200 C828,168 802,140 768,140 C738,140 712,164 710,194 L710,254 L790,254 L790,396 L710,396 L710,416 C710,464 694,506 664,530 C638,550 612,558 580,558 Z M322,720 C292,720 260,716 228,706 L228,578 C248,584 276,592 302,592 L314,592 C358,588 388,566 392,534 L394,514 L380,528 C380,528 352,554 308,554 C294,554 282,552 268,550 C198,530 182,472 182,426 L182,162 L326,162 L326,386 C326,404 338,416 356,416 C372,416 386,402 386,386 L386,164 L528,164 L528,516 C528,618 468,694 378,712 C360,720 342,720 322,720 Z"></path>
  </g>
</svg>