<?xml version="1.0" standalone="no"?>
<!DOCTYPE svg PUBLIC "-//W3C//DTD SVG 1.1//EN" "http://www.w3.org/Graphics/SVG/1.1/DTD/svg11.dtd" >
<svg xmlns="http://www.w3.org/2000/svg" xmlns:xlink="http://www.w3.org/1999/xlink" version="1.1" viewBox="-10 0 1042 1024">
   <path fill="currentColor"
d="M128 579c-22 0 -52 -4 -80 -28c-30 -26 -48 -68 -48 -114v-414h144v414c0 72 32 110 50 124c-12 8 -38 18 -66 18zM580 567h-14v-356c0 -112 90 -202 200 -202c94 0 178 68 196 158l2 4h52v144h-48v50c0 30 24 56 54 58v142c-106 -4 -194 -92 -194 -200v-156
c0 -32 -26 -60 -60 -60c-30 0 -56 24 -58 54v60h80v142h-80v20c0 48 -16 90 -46 114c-26 20 -52 28 -84 28zM322 729c-30 0 -62 -4 -94 -14v-128c20 6 48 14 74 14h12c44 -4 74 -26 78 -58l2 -20l-14 14s-28 26 -72 26c-14 0 -26 -2 -40 -4c-70 -20 -86 -78 -86 -124v-264
h144v224c0 18 12 30 30 30c16 0 30 -14 30 -30v-222h142v352c0 102 -60 178 -150 196c-18 8 -36 8 -56 8z" />
</svg>
