<?xml version="1.0" standalone="no"?>
<!DOCTYPE svg PUBLIC "-//W3C//DTD SVG 1.1//EN" "http://www.w3.org/Graphics/SVG/1.1/DTD/svg11.dtd" >
<svg xmlns="http://www.w3.org/2000/svg" xmlns:xlink="http://www.w3.org/1999/xlink" version="1.1" viewBox="-11 0 1045 1024">
   <path fill="currentColor"
d="M494.592 80.1836c77.8242 1.02441 151.552 33.792 205.824 90.1123v0c-2.04785 -23.5518 15.3604 -44.0322 39.9355 -46.0801h2.04883h6.14355c25.5996 1.02441 46.0801 21.5039 46.0801 48.1279v0v408.576c-2.04785 14.3359 7.16797 27.6484 21.5039 30.7197
c8.19238 1.02441 16.3838 -1.02344 22.5283 -7.16797c64.5117 -67.584 142.336 -347.136 -39.9365 -508.928c-146.432 -128 -358.399 -145.408 -522.239 -40.96c-148.48 109.568 -202.753 307.2 -132.097 477.184c87.04 204.801 337.92 265.217 487.424 204.801
c75.7764 -30.7207 110.593 72.7041 31.7441 106.496c-118.784 51.1992 -447.487 46.0791 -602.111 -224.257c-103.425 -182.271 -97.2803 -502.783 178.176 -668.672c211.968 -126.976 484.352 -92.1602 657.408 84.9922c175.104 185.344 164.863 532.48 -6.14453 667.648
c-52.2236 39.9355 -126.976 30.7197 -166.912 -22.5283c-14.3359 -19.4561 -23.5518 -41.9844 -24.5762 -65.5361l-1.02344 -28.6719c-54.2725 55.2959 -126.977 86.0156 -203.776 86.0156c-161.792 -2.04785 -290.815 -134.144 -290.815 -295.936
s129.023 -292.864 290.815 -295.937v0zM689.152 365.88c-1.02441 -102.399 -83.9688 -184.32 -186.368 -183.296h-5.12012h-4.0957c-116.736 0 -182.272 93.1836 -182.272 198.656c0 118.784 78.8477 193.536 181.248 193.536
c105.472 2.04785 192.512 -80.8965 195.584 -185.345c1.02441 0 1.02441 -23.5518 1.02441 -23.5518z" />
</svg>
