<?xml version="1.0" encoding="UTF-8"?>
<svg width="1025px" height="995px" viewBox="0 0 1025 995" version="1.1" xmlns="http://www.w3.org/2000/svg" xmlns:xlink="http://www.w3.org/1999/xlink">
  <g id="Mailru" transform="translate(0.456, 0.0684)" fill="currentColor" fill-rule="nonzero">
    <path d="M494.86229,206.006531 C572.68649,207.030941 646.41429,239.798531 700.68629,296.118831 L700.68629,296.118831 C698.63844,272.567031 716.04669,252.086631 740.62179,250.038731 L742.67062,250.038731 L748.81417,250.038731 C774.41377,251.063141 794.89427,271.542631 794.89427,298.166631 L794.89427,298.166631 L794.89427,706.742631 C792.84642,721.078531 802.06224,734.391031 816.39817,737.462331 C824.59055,738.486741 832.78197,736.438891 838.92647,730.294361 C903.43817,662.710361 981.26247,383.158361 798.98997,221.366361 C652.55797,93.3663608 440.59097,75.9583608 276.75097,180.406361 C128.27097,289.974361 73.9979695,487.606361 144.65397,657.590361 C231.69397,862.391361 482.57397,922.807361 632.07797,862.391361 C707.85437,831.670661 742.67097,935.095461 663.82207,968.887361 C545.03807,1020.08656 216.33507,1014.96646 61.7110695,744.630361 C-41.7139305,562.359361 -35.5692305,241.847361 239.88707,75.9583608 C451.85507,-51.0176392 724.23907,-16.2018392 897.29507,160.950561 C1072.39907,346.294561 1062.15807,693.430561 891.15054,828.598561 C838.92694,868.534061 764.17454,859.318261 724.23854,806.070261 C709.90264,786.614161 700.68674,764.085861 699.66234,740.534161 L698.6389,711.862261 C644.3664,767.158161 571.6619,797.877861 494.8629,797.877861 C333.0709,795.830011 204.0479,663.733861 204.0479,501.941861 C204.0479,340.149861 333.0709,209.077861 494.8629,206.004861 L494.8629,206.004861 L494.86229,206.006531 Z M689.42288,491.702931 C688.39788,389.303931 605.45349,307.382931 503.05429,308.406931 L497.93417,308.406931 L493.83847,308.406931 C377.10247,308.406931 311.56647,401.590531 311.56647,507.062931 C311.56647,625.846931 390.41417,700.598931 492.81447,700.598931 C598.28647,702.646781 685.32647,619.702431 688.39847,515.253931 C689.42288,515.253931 689.42288,491.702131 689.42288,491.702131 L689.42288,491.702931 Z"></path>
  </g>
</svg>