<?xml version="1.0" encoding="UTF-8"?>
<svg width="1001px" height="1001px" viewBox="0 0 1001 1001" version="1.1" xmlns="http://www.w3.org/2000/svg" xmlns:xlink="http://www.w3.org/1999/xlink">
  <g id="MakeShip" transform="translate(0.6856, 0.6137)" fill="currentColor" fill-rule="nonzero">
    <path d="M499.81,0 C223.774,0 0,223.783 0,499.831 C0,775.878 223.773,999.661 499.81,999.661 C775.847,999.661 999.62,775.879 999.62,499.831 C999.62,223.782 775.848,0 499.81,0 Z M737.5027,718.229 L610.753,718.229 L610.753,502.482 L546.1456,718.229 L448.6251,718.229 L384.0177,502.482 L384.0177,718.229 L260.3207,718.229 L260.3207,283.144 L418.7677,283.144 L499.2277,547.607 L579.6847,283.144 L737.5027,283.144 L737.5027,718.229 L737.5027,718.229 L737.5027,718.229 Z"></path>
  </g>
</svg>