<?xml version="1.0" encoding="UTF-8"?>
<svg width="956px" height="1026px" viewBox="0 0 956 1026" version="1.1" xmlns="http://www.w3.org/2000/svg" xmlns:xlink="http://www.w3.org/1999/xlink">
  <g id="Mastodon" transform="translate(0.4255, 0.6137)" fill="currentColor" fill-rule="nonzero">
    <path d="M954.623494,335.8719 C954.623494,113.6639 809.216494,48.1279 809.216494,48.1279 C736.512394,15.3603 610.560494,1.0244 479.487494,0 L476.415224,0 C345.344224,1.02441 219.392224,15.3604 145.663224,49.1523 C145.663224,49.1523 0.256223793,114.6884 0.256223793,336.8963 C0.256223793,388.0955 -0.768186207,448.5113 1.27966379,513.0243 C6.39978379,730.1123 40.1917638,944.1283 241.920664,997.3763 C334.079864,1021.9525 413.951664,1027.0726 478.464664,1024.0003 C594.176664,1017.85675 659.712664,983.0403 659.712664,983.0403 L655.615984,899.0725 C655.615984,899.0725 572.672584,925.6965 479.487984,921.5998 C387.327784,918.52851 290.048984,911.3605 274.687984,798.7198 C273.663574,788.4805 272.640134,778.2403 272.640134,766.9757 C272.640134,766.9757 363.775834,789.504 478.464134,794.6241 C549.119434,797.69637 614.655134,790.5284 681.216134,782.336 C809.216134,766.9756 920.831134,688.128 935.167134,615.424 C956.672034,499.712 954.623234,335.872 954.623234,335.872 L954.623494,335.8719 Z M783.615944,622.5919 L677.119494,622.5919 L677.119494,361.4719 C677.119494,306.176 653.567694,278.5285 607.487694,278.5285 C556.287494,278.5285 530.687894,311.2961 530.687894,376.8322 L530.687894,520.1922 L424.191894,520.1922 L424.191894,376.8322 C424.191894,311.2961 398.592294,278.5285 347.392094,278.5285 C301.311994,278.5285 277.760294,306.176 277.760294,361.4719 L277.760294,622.5919 L171.264294,622.5919 L171.264294,353.2799 C171.264294,297.984 185.600194,254.9752 213.247694,222.2079 C241.920594,189.4403 279.808194,173.0556 326.911694,173.0556 C381.184194,173.0556 423.167594,193.5361 449.791694,235.5195 L476.415694,279.5517 L503.039694,235.5195 C530.688094,193.5361 571.648094,173.0556 625.920694,173.0556 C673.024194,173.0556 710.911894,189.4404 739.583694,222.2079 C767.232094,254.9755 781.568094,297.9843 781.568094,353.2799 L781.568094,622.5919 L783.615944,622.5919 L783.615944,622.5919 Z"></path>
  </g>
</svg>