<?xml version="1.0" standalone="no"?>
<!DOCTYPE svg PUBLIC "-//W3C//DTD SVG 1.1//EN" "http://www.w3.org/Graphics/SVG/1.1/DTD/svg11.dtd" >
<svg xmlns="http://www.w3.org/2000/svg" xmlns:xlink="http://www.w3.org/1999/xlink" version="1.1" viewBox="-10 0 1034 1024">
   <path fill="currentColor"
d="M989.184 194.872c0 -222.208 -145.407 -287.744 -145.407 -287.744c-72.7041 -32.7676 -198.656 -47.1035 -329.729 -48.1279h-3.07227c-131.071 1.02441 -257.023 15.3604 -330.752 49.1523c0 0 -145.407 65.5361 -145.407 287.744
c0 51.1992 -1.02441 111.615 1.02344 176.128c5.12012 217.088 38.9121 431.104 240.641 484.352c92.1592 24.5762 172.031 29.6963 236.544 26.624c115.712 -6.14355 181.248 -40.96 181.248 -40.96l-4.09668 -83.9678s-82.9434 26.624 -176.128 22.5273
c-92.1602 -3.07129 -189.439 -10.2393 -204.8 -122.88c-1.02441 -10.2393 -2.04785 -20.4795 -2.04785 -31.7441c0 0 91.1357 22.5283 205.824 27.6484c70.6553 3.07227 136.191 -4.0957 202.752 -12.2881c128 -15.3604 239.615 -94.208 253.951 -166.912
c21.5049 -115.712 19.4561 -279.552 19.4561 -279.552zM818.176 481.592h-106.496v-261.12c0 -55.2959 -23.5518 -82.9434 -69.6318 -82.9434c-51.2002 0 -76.7998 32.7676 -76.7998 98.3037v143.36h-106.496v-143.36c0 -65.5361 -25.5996 -98.3037 -76.7998 -98.3037
c-46.0801 0 -69.6318 27.6475 -69.6318 82.9434v261.12h-106.496v-269.312c0 -55.2959 14.3359 -98.3047 41.9834 -131.072c28.6729 -32.7676 66.5605 -49.1523 113.664 -49.1523c54.2725 0 96.2559 20.4805 122.88 62.4639l26.624 44.0322l26.624 -44.0322
c27.6484 -41.9834 68.6084 -62.4639 122.881 -62.4639c47.1035 0 84.9912 16.3848 113.663 49.1523c27.6484 32.7676 41.9844 75.7764 41.9844 131.072v269.312h2.04785z" />
</svg>
