<?xml version="1.0" standalone="no"?>
<!DOCTYPE svg PUBLIC "-//W3C//DTD SVG 1.1//EN" "http://www.w3.org/Graphics/SVG/1.1/DTD/svg11.dtd" >
<svg xmlns="http://www.w3.org/2000/svg" xmlns:xlink="http://www.w3.org/1999/xlink" version="1.1" viewBox="-10 0 1034 1024">
   <path fill="currentColor"
d="M930.572 858.427v-975.878h-70.0713v-23.4209h97.2676v1023.87h-97.2676v-23.4209zM326.807 192.91v49.2734h1.4082c12.3184 -18.0459 28.5723 -32.9561 47.6738 -43.835c18.5586 -10.335 39.9951 -15.5176 63.6719 -15.5176c23.0371 0 44.1543 4.47852 63.0322 13.4375
c19.0381 8.92773 33.5967 24.6699 43.5156 47.3545c10.8145 -15.998 25.4688 -30.1084 44.1533 -42.2354c18.5586 -12.2539 40.6357 -18.3652 65.9121 -18.3652c19.2617 0 37.1152 2.36719 53.4336 7.03809c16.4453 4.73535 30.5234 12.2549 42.2344 22.6211
c11.7109 10.335 20.8936 23.8691 27.4854 40.6357c6.55859 16.7012 9.85449 36.7949 9.85449 60.4717v244.129h-100.146v-206.694c0 -12.2539 -0.480469 -23.7725 -1.4082 -34.5557c-0.668945 -9.82324 -3.2959 -19.4219 -7.74316 -28.2197
c-4.25488 -8.03125 -10.751 -14.6543 -18.6855 -19.0703c-8.22363 -4.6709 -19.3906 -7.03906 -33.5967 -7.03906c-14.0771 0 -25.4688 2.71973 -34.2354 8.09473c-8.70312 5.43945 -15.5186 12.4785 -20.4453 21.1816c-5.08691 9.18262 -8.44727 19.2617 -9.85449 29.6602
c-1.66406 11.1025 -2.49609 22.3008 -2.49609 33.5957v203.175h-100.147v-204.773c0 -10.8154 -0.223633 -21.5332 -0.671875 -31.9961c-0.365234 -10.0479 -2.39746 -19.9346 -6.01465 -29.3086c-3.45605 -8.8623 -9.59961 -16.3818 -17.5986 -21.5332
c-8.25488 -5.375 -20.3486 -8.09473 -36.4746 -8.09473c-6.33496 0.266602 -12.6064 1.34375 -18.6865 3.2002c-8.25488 2.38379 -15.9336 6.46289 -22.5566 11.9668c-7.29492 5.88672 -13.502 14.3662 -18.6855 25.4053
c-5.15137 11.0713 -7.74316 25.5332 -7.74316 43.5146v211.814h-100.147v-364.754zM93.4277 -116.427v975.878h70.0713v23.4209h-97.2676v-1023.87h96.9473v23.4209z" />
</svg>
