<?xml version="1.0" encoding="UTF-8"?>
<svg width="893px" height="1025px" viewBox="0 0 893 1025" version="1.1" xmlns="http://www.w3.org/2000/svg" xmlns:xlink="http://www.w3.org/1999/xlink">
  <g id="Matrix" transform="translate(0.9063, 0.3376)" fill="currentColor" fill-rule="nonzero">
    <path d="M864.3406,999.4251 L864.3406,23.5471 L794.2693,23.5471 L794.2693,0.1262 L891.5369,0.1262 L891.5369,1023.9962 L794.2693,1023.9962 L794.2693,1000.5753 L864.3406,999.4251 Z M260.5756,333.9081 L260.5756,383.1815 L261.9838,383.1815 C274.3022,365.1356 290.5561,350.2254 309.6576,339.3465 C328.2162,329.0115 349.6527,323.8289 373.3295,323.8289 C396.3666,323.8289 417.4838,328.30742 436.3617,337.2664 C455.3998,346.19413 469.9584,361.9363 479.8773,384.6209 C490.6918,368.6229 505.3461,354.5125 524.0306,342.3855 C542.5892,330.1316 564.6663,324.0203 589.9427,324.0203 C609.2044,324.0203 627.0579,326.38749 643.3763,331.05839 C659.8216,335.79374 673.8997,343.31329 685.6107,353.67949 C697.3216,364.01449 706.5043,377.54859 713.0961,394.31519 C719.65469,411.01639 722.95059,431.11009 722.95059,454.78689 L722.95059,698.91589 L622.80459,698.91589 L622.80459,492.22189 C622.80459,479.96799 622.324121,468.44939 621.39639,457.66619 C620.727445,447.84295 618.10049,438.24429 613.65323,429.44649 C609.39835,421.41524 602.90223,414.79219 594.96773,410.37619 C586.7441,405.70529 575.57713,403.33713 561.37103,403.33713 C547.29393,403.33713 535.90223,406.05686 527.13563,411.43186 C518.43251,416.87131 511.61703,423.91036 506.69033,432.61346 C501.60342,441.79608 498.24306,451.87516 496.83584,462.27366 C495.17178,473.37616 494.33975,484.57446 494.33975,495.86936 L494.33975,699.04436 L394.19275,699.04436 L394.19275,494.27136 C394.19275,483.45596 393.969117,472.73816 393.520875,462.27526 C393.155641,452.22736 391.123415,442.34066 387.506225,432.96666 C384.050175,424.10436 377.906615,416.58486 369.907625,411.43346 C361.652745,406.05846 349.559025,403.33873 333.433025,403.33873 C327.098065,403.605332 320.826625,404.68248 314.746525,406.53893 C306.491645,408.92272 298.812925,413.00182 292.189925,418.50573 C284.895005,424.39245 278.687925,432.87193 273.504425,443.91103 C268.353055,454.98233 265.761265,469.44423 265.761265,487.42563 L265.761265,699.23963 L165.614265,699.23963 L165.614265,334.48563 L260.5756,333.9081 Z M27.1963,24.5711 L27.1963,1000.4491 L97.2676,1000.4491 L97.2676,1023.87 L-1.42108547e-14,1023.87 L-1.42108547e-14,0 L96.9473,0 L96.9473,23.4209 L27.1963,24.5711 Z"></path>
  </g>
</svg>