<?xml version="1.0" encoding="UTF-8"?>
<svg width="54px" height="54px" viewBox="0 0 54 54" version="1.1" xmlns="http://www.w3.org/2000/svg" xmlns:xlink="http://www.w3.org/1999/xlink">
    <title>MediaWiki</title>
    <g id="MediaWiki" stroke="none" stroke-width="1" fill="none" fill-rule="evenodd">
        <path d="M26.8935,2 C27.9762045,3.35394289 28.9258747,4.70586244 29.6094958,6.12988843 C30.6711128,4.85698242 31.924363,3.75231901 33.327,2.856 C34.0221317,4.44394075 34.5894097,5.99546747 34.8812481,7.54779513 C36.2357269,6.59434154 37.7324475,5.85193853 39.3195,5.3495 C39.5797718,7.06216914 39.7261784,8.70674145 39.6067101,10.2809007 C41.1611045,9.70988768 42.7976885,9.37979909 44.4595,9.3045 C44.2676964,11.0271347 43.983164,12.6543103 43.459788,14.1444616 C45.1120517,13.9950119 46.7803836,14.0998818 48.407,14.458 C47.7744362,16.0720274 47.0781124,17.5705783 46.1866201,18.8750171 C47.8213355,19.156783 49.406632,19.6898429 50.886,20.457 C49.8580955,21.8537805 48.7978128,23.1213516 47.5990982,24.1505191 C49.101682,24.8463008 50.4925631,25.7706122 51.721,26.893 C50.3674492,27.9752112 49.016021,28.9245093 47.5926415,29.6081521 C48.864444,30.6700635 49.9687885,31.922635 50.865,33.3245 C49.2767183,34.019781 47.724765,34.5871533 46.1720379,34.878936 C47.126928,36.23412 47.8703712,37.7318003 48.3735,39.32 C46.6597432,39.5804371 45.0141698,39.7268643 43.4391004,39.6069822 C44.0103601,41.1611356 44.340325,42.7977134 44.4155,44.4595 C42.6928653,44.2676964 41.0656897,43.983164 39.5755384,43.459788 C39.7250712,45.1117029 39.620148,46.7799625 39.262,48.4065 C37.6483815,47.7740965 36.150181,47.0779652 34.8459744,46.1867977 C34.5636326,47.8202093 34.0307185,49.404507 33.264,50.883 C31.8676108,49.8553834 30.6003585,48.7954068 29.5713458,47.5971055 C28.8759202,49.1004719 27.9515507,50.4917411 26.829,51.7205 C25.7462955,50.3665571 24.7966253,49.0146376 24.1129132,47.5906116 C23.0504966,48.862999 21.7969793,49.9679753 20.394,50.8645 C19.6990176,49.2769002 19.1318339,47.7256988 18.83994,46.1737049 C17.4854711,47.1275048 15.9887024,47.8705121 14.4015,48.3735 C14.1410629,46.6597432 13.9946357,45.0141698 14.1145178,43.4391004 C12.5598955,44.0106123 10.9233115,44.3407009 9.2615,44.416 C9.45334382,42.6930041 9.73795536,41.0655074 10.2615412,39.5751011 C8.61032998,39.7253563 6.94206069,39.62055 5.3155,39.2625 C5.94774325,37.6490656 6.64368193,36.1510918 7.53452485,34.8470493 C5.90052635,34.5638243 4.31504055,34.0307298 2.8355,33.2635 C3.86340449,31.8667195 4.9236872,30.5991484 6.12240179,29.5699809 C4.61935209,28.8739543 3.22846384,27.9497663 2,26.8275 C3.35418548,25.7447814 4.70624641,24.7951004 6.13036096,24.1113864 C4.8572136,23.0500983 3.75209792,21.7962943 2.8555,20.393 C4.44366564,19.6983181 5.9953161,19.1312876 7.54775734,18.8395854 C6.59327672,17.4844932 5.85031144,15.987214 5.3475,14.3995 C7.06089423,14.139118 8.70613396,13.9926977 10.2809,14.1124418 C9.71063823,12.5580028 9.38103145,10.9220864 9.306,9.261 C11.0286122,9.45280109 12.6557677,9.73732859 14.1459031,10.2606914 C13.9966964,8.60876134 14.1019853,6.9404908 14.4605,5.314 C16.0739344,5.94511906 17.5715038,6.64134901 18.8751011,7.53267112 C19.1578037,5.90049368 19.6905954,4.31688777 20.457,2.839 C21.852998,3.86632863 23.1199313,4.92599922 24.1487892,6.12388727 C24.8454609,4.62047833 25.77035,3.22891832 26.8935,2 Z M28.2754595,16.1053109 C28.0399123,16.2802355 27.7880543,16.438614 27.523,16.5785 C27.132583,16.7679329 26.6797184,16.7810383 26.279,16.6145 C25.9848145,16.4683935 25.7055616,16.2981922 25.4436423,16.1064801 C25.2621011,16.335619 25.0598167,16.553783 24.84,16.7575 C24.5118245,17.0414952 24.0776996,17.1712776 23.6475,17.114 C23.325276,17.0490216 23.0112462,16.9568632 22.7084059,16.8394027 C22.592581,17.1076432 22.4536316,17.3707818 22.294,17.6245 C22.0505331,17.9837349 21.6648309,18.2214541 21.2345,18.2775 C20.9067525,18.2980479 20.5798899,18.2902765 20.2572811,18.2552222 C20.2146639,18.5455614 20.1485553,18.8359058 20.06,19.1225 C19.9177889,19.5325423 19.6067107,19.8620048 19.2055,20.0275 C18.8938731,20.1321664 18.5757681,20.2091891 18.2547184,20.2586992 C18.2877913,20.5489711 18.2988475,20.8449054 18.2875,21.143 C18.2566266,21.5762727 18.041444,21.9755075 17.6965,22.2395 C17.4227401,22.4212937 17.135568,22.5780843 16.8384267,22.7090832 C16.9465779,22.9815662 17.0344442,23.2660474 17.101,23.5585 C17.1828012,23.9847075 17.0781442,24.4255411 16.8135,24.7695 C16.5958727,25.0162442 16.3587735,25.2422607 16.105335,25.4458911 C16.2804685,25.6804488 16.4387173,25.9321359 16.5785,26.197 C16.7679329,26.587417 16.7810383,27.0402816 16.6145,27.441 C16.4679998,27.7358878 16.2972884,28.015767 16.104969,28.2782192 C16.3336207,28.4597916 16.5509842,28.6614399 16.754,28.8805 C17.0379952,29.2086755 17.1677776,29.6428004 17.1105,30.073 C17.0455931,30.3948696 16.9535659,30.7085628 16.8362903,31.0110946 C17.1065435,31.1270757 17.3710276,31.2665956 17.626,31.427 C17.9852349,31.6704669 18.2229541,32.0561691 18.279,32.4865 C18.2995692,32.8145861 18.2917604,33.1417854 18.2566135,33.4647187 C18.5463267,33.5073965 18.8365367,33.5734852 19.123,33.662 C19.5330423,33.8042111 19.8625048,34.1152893 20.028,34.5165 C20.1325576,34.827803 20.2095289,35.1455706 20.2590447,35.4662804 C20.3842702,35.4512301 20.5120739,35.4411163 20.6405152,35.4351372 L20.8920918,35.428741 L21.145,35.433 C21.5779153,35.4641523 21.9767337,35.6793067 22.2405,36.024 C22.4222937,36.2977599 22.5790843,36.584932 22.7100832,36.8820733 C22.9822576,36.7742086 23.2664028,36.6864749 23.5585,36.62 C23.9847089,36.538133 24.4255694,36.6427964 24.7695,36.9075 C25.0162442,37.1251273 25.2422607,37.3622265 25.4458911,37.615665 C25.6812027,37.4405066 25.9332431,37.2819929 26.1985,37.142 C26.588917,36.9525671 27.0417816,36.9394617 27.4425,37.106 C27.7368857,37.2522059 28.0163184,37.4225394 28.2783922,37.6144111 C28.4600666,37.3851219 28.6618177,37.1676291 28.881,36.9645 C29.2091755,36.6805048 29.6433004,36.5507224 30.0735,36.608 C30.395724,36.6729784 30.7097538,36.7651368 31.0125941,36.8825973 C31.1280768,36.6135049 31.2671718,36.3500306 31.427,36.096 C31.6704669,35.7367651 32.0561691,35.4990459 32.4865,35.443 C32.8145874,35.4224199 33.1417886,35.4302206 33.4647237,35.4653621 C33.5067458,35.1753351 33.5728842,34.8847899 33.6615,34.598 C33.8035992,34.1880578 34.1144795,33.8586121 34.5155,33.693 C34.8271269,33.5883336 35.1452319,33.5113109 35.4662816,33.4618008 C35.4327008,33.1710132 35.4215922,32.8743414 35.433,32.5755 C35.4641523,32.1425847 35.6793067,31.7437663 36.024,31.48 C36.2980671,31.2980022 36.5855767,31.1410638 36.8830738,31.0099758 C36.7753231,30.7375276 36.6875404,30.4534896 36.621,30.1615 C36.5389925,29.735363 36.6434721,29.2945101 36.908,28.9505 C37.1252077,28.7042315 37.3618123,28.4786109 37.6146992,28.275287 C37.4405315,28.0400512 37.2822827,27.7883641 37.1425,27.5235 C36.9530671,27.133083 36.9399617,26.6802184 37.1065,26.2795 C37.2530784,25.9843643 37.4239075,25.7042579 37.6163781,25.4416051 C37.3874924,25.2603494 37.1703351,25.0588651 36.9675,24.84 C36.6833257,24.5119071 36.5533585,24.077773 36.6105,23.6475 C36.6754784,23.325276 36.7676368,23.0112462 36.8850973,22.7084059 C36.6153013,22.5926074 36.3511555,22.4532214 36.0965,22.293 C35.7368177,22.049947 35.4985396,21.6644061 35.442,21.234 C35.4214096,20.9055753 35.4292558,20.5780392 35.4644954,20.2547815 C35.1746733,20.2131035 34.8844633,20.1470148 34.598,20.0585 C34.1879577,19.9162889 33.8584952,19.6052107 33.693,19.204 C33.5885002,18.8928691 33.5115562,18.5752807 33.4620374,18.2547513 C33.1712769,18.2878805 32.8747203,18.2989396 32.576,18.2875 C32.1430847,18.2563477 31.7442663,18.0411933 31.4805,17.6965 C31.2987063,17.4227401 31.1419157,17.135568 31.0109168,16.8384267 C30.7387424,16.9462914 30.4545972,17.0340251 30.1625,17.1005 C29.7362911,17.182367 29.2954306,17.0777036 28.9515,16.813 C28.7048971,16.5955118 28.4789984,16.358573 28.2754595,16.1053109 Z" id="Shape" fill="currentColor" fill-rule="nonzero"></path>
    </g>
</svg>