<?xml version="1.0" encoding="UTF-8"?>
<svg width="1025px" height="846px" viewBox="0 0 1025 846" version="1.1" xmlns="http://www.w3.org/2000/svg" xmlns:xlink="http://www.w3.org/1999/xlink">
  <g id="Medium" transform="translate(0.8152, 0.0684)" fill="currentColor" fill-rule="nonzero">
    <path d="M1024.00003,845.8241 L633.85603,845.8241 L711.67923,759.8085 C714.7515,756.73623 714.7515,746.496 714.7515,731.1356 L714.7515,195.5836 L458.7515,845.8241 L181.2475,239.6156 C174.07953,224.2552 167.935,203.7758 162.8159,187.392 L162.8159,637.952 C162.8159,656.3836 161.79149,659.4559 175.103,676.8641 L292.864,845.8241 L0,845.8241 L118.784,676.8641 C132.0955,659.4559 130.0477,656.3836 130.0477,637.952 L130.0477,172.032 C130.0477,151.5515 133.11997,149.5037 123.90415,138.24 L32.76745,-2.84217094e-14 L309.24745,-2.84217094e-14 L547.83945,529.408 L755.71145,-2.84217094e-14 L1024.00003,-2.84217094e-14 L952.31975,89.0879 C942.07955,99.3281 942.07955,108.544 942.07955,124.9277 L942.07955,730.1127 C942.07955,745.4721 942.07955,754.6889 946.17525,758.7846 L1024.00003,845.8241 Z"></path>
  </g>
</svg>