<?xml version="1.0" standalone="no"?>
<!DOCTYPE svg PUBLIC "-//W3C//DTD SVG 1.1//EN" "http://www.w3.org/Graphics/SVG/1.1/DTD/svg11.dtd" >
<svg xmlns="http://www.w3.org/2000/svg" xmlns:xlink="http://www.w3.org/1999/xlink" version="1.1" viewBox="-10 0 1044 1024">
   <path fill="currentColor"
d="M1024 793.912h-390.144l77.8232 -86.0156c3.07227 -3.07227 3.07227 -13.3125 3.07227 -28.6729v-535.552l-256 650.24l-277.504 -606.208c-7.16797 -15.3604 -13.3125 -35.8398 -18.4316 -52.2236v450.56c0 18.4316 -1.02441 21.5039 12.2871 38.9121l117.761 168.96
h-292.864l118.784 -168.96c13.3115 -17.4082 11.2637 -20.4805 11.2637 -38.9121v-465.92c0 -20.4805 3.07227 -22.5283 -6.14355 -33.792l-91.1367 -138.24h276.48l238.592 529.408l207.872 -529.408h268.288l-71.6797 89.0879
c-10.2402 10.2402 -10.2402 19.4561 -10.2402 35.8398v605.185c0 15.3594 0 24.5762 4.0957 28.6719z" />
</svg>
