<?xml version="1.0" encoding="UTF-8"?>
<svg width="1025px" height="847px" viewBox="0 0 1025 847" version="1.1" xmlns="http://www.w3.org/2000/svg" xmlns:xlink="http://www.w3.org/1999/xlink">
  <g id="Meetup" transform="translate(0.5194, 0.6046)" fill="currentColor" fill-rule="nonzero">
    <path d="M684.173997,657.772505 C687.347827,732.862305 722.820497,789.049505 790.976997,819.289505 C848.014097,844.592205 909.668997,852.436005 972.245997,840.916505 C1006.161,834.659665 1023.1591,817.189905 1023.9579,789.480005 C1024.85926,757.817905 1011.619,741.547405 975.533097,733.119605 C950.404197,727.251445 924.434497,724.813945 899.500897,718.312005 C861.919797,708.502435 848.382697,689.886205 848.567297,651.619605 C848.638586,639.208505 850.000887,626.612805 852.438387,614.427205 C867.142487,540.914505 899.787987,473.934205 929.105387,405.756205 C960.684487,332.304105 998.787987,261.208205 1011.00479,180.691205 C1020.62002,117.377705 981.390487,55.886205 919.398387,42.277205 C874.003887,32.325055 828.160087,30.624905 786.103387,56.930505 C769.689287,67.202005 754.676587,65.644375 740.627787,52.179525 C733.409037,45.257645 725.462787,39.113125 718.119987,32.313325 C673.206887,-9.31267504 616.538987,-10.878075 568.912987,28.524265 C557.351487,38.098485 546.324087,48.318165 534.936387,58.107265 C509.971587,79.591665 484.309387,86.994965 452.750887,69.095565 C423.832887,52.691265 394.025287,36.706865 361.665887,27.951965 C289.913887,8.56716496 201.491887,55.722465 167.381887,131.231965 C146.410187,177.649965 129.595787,225.727065 113.448287,274.028965 C74.0439867,391.963965 35.8076867,510.347965 4.70928672,630.709965 C-14.2546133,704.109365 25.7112867,770.587965 94.8313867,792.870965 C174.375287,818.511565 233.542387,792.880731 265.839387,716.183465 C295.945787,644.677565 323.746587,572.188465 352.562087,500.120465 C380.446887,430.395865 407.807187,360.445465 436.479087,291.040465 C447.794487,263.638165 473.856087,250.326565 496.229087,257.319765 C520.006387,264.754335 533.677287,291.531665 528.004487,320.757265 C526.263277,329.717225 523.457607,338.563865 520.242767,347.144965 C508.282767,379.185965 496.189067,411.195765 483.706667,443.043365 C460.565067,502.087265 435.967367,560.588365 414.166667,620.103365 C400.117867,658.452965 411.934247,688.793765 441.261367,701.091665 C474.920567,715.232265 517.426367,706.150255 542.770367,679.546765 C556.215667,665.446165 565.001767,648.416865 573.696167,631.254765 C633.324067,513.637765 693.002167,396.051765 752.732167,278.485765 C761.446037,261.334365 770.467567,244.264065 785.530967,231.628365 C798.668667,220.609765 813.700867,216.441865 829.695967,224.368595 C846.048467,232.477975 846.540667,248.002395 844.932267,263.433995 C843.376607,278.589295 836.772107,292.249395 830.360967,305.848095 C787.639267,396.421295 744.733967,486.891095 702.155967,577.525095 C690.348367,602.715495 682.740967,629.072995 684.174567,657.776095 L684.173997,657.772505 Z"></path>
  </g>
</svg>