<?xml version="1.0" standalone="no"?>
<!DOCTYPE svg PUBLIC "-//W3C//DTD SVG 1.1//EN" "http://www.w3.org/Graphics/SVG/1.1/DTD/svg11.dtd" >
<svg xmlns="http://www.w3.org/2000/svg" xmlns:xlink="http://www.w3.org/1999/xlink" version="1.1" viewBox="-11 0 1046 1024">
   <path fill="currentColor"
d="M684.175 605.721c3.17383 75.0898 38.6465 131.277 106.803 161.517c57.0371 25.3027 118.692 33.1465 181.269 21.627c33.915 -6.25684 50.9131 -23.7266 51.7119 -51.4365c0.901367 -31.6621 -12.3389 -47.9326 -48.4248 -56.3604
c-25.1289 -5.86816 -51.0986 -8.30566 -76.0322 -14.8076c-37.5811 -9.80957 -51.1182 -28.4258 -50.9336 -66.6924c0.0712891 -12.4111 1.43359 -25.0068 3.87109 -37.1924c14.7041 -73.5127 47.3496 -140.493 76.667 -208.671
c31.5791 -73.4521 69.6826 -144.548 81.8994 -225.065c9.61523 -63.3135 -29.6143 -124.805 -91.6064 -138.414c-45.3945 -9.95215 -91.2383 -11.6523 -133.295 14.6533c-16.4141 10.2715 -31.4268 8.71387 -45.4756 -4.75098
c-7.21875 -6.92188 -15.165 -13.0664 -22.5078 -19.8662c-44.9131 -41.626 -101.581 -43.1914 -149.207 -3.78906c-11.5615 9.57422 -22.5889 19.7939 -33.9766 29.583c-24.9648 21.4844 -50.627 28.8877 -82.1855 10.9883
c-28.918 -16.4043 -58.7256 -32.3887 -91.085 -41.1436c-71.752 -19.3848 -160.174 27.7705 -194.284 103.28c-20.9717 46.418 -37.7861 94.4951 -53.9336 142.797c-39.4043 117.935 -77.6406 236.319 -108.739 356.681c-18.9639 73.3994 21.002 139.878 90.1221 162.161
c79.5439 25.6406 138.711 0.00976562 171.008 -76.6875c30.1064 -71.5059 57.9072 -143.995 86.7227 -216.063c27.8848 -69.7246 55.2451 -139.675 83.917 -209.08c11.3154 -27.4023 37.377 -40.7139 59.75 -33.7207c23.7773 7.43457 37.4482 34.2119 31.7754 63.4375
c-1.74121 8.95996 -4.54688 17.8066 -7.76172 26.3877c-11.96 32.041 -24.0537 64.0508 -36.5361 95.8984c-23.1416 59.0439 -47.7393 117.545 -69.54 177.06c-14.0488 38.3496 -2.23242 68.6904 27.0947 80.9883c33.6592 14.1406 76.165 5.05859 101.509 -21.5449
c13.4453 -14.1006 22.2314 -31.1299 30.9258 -48.292c59.6279 -117.617 119.306 -235.203 179.036 -352.769c8.71387 -17.1514 17.7354 -34.2217 32.7988 -46.8574c13.1377 -11.0186 28.1699 -15.1865 44.165 -7.25977c16.3525 8.10938 16.8447 23.6338 15.2363 39.0654
c-1.55566 15.1553 -8.16016 28.8154 -14.5713 42.4141c-42.7217 90.5732 -85.627 181.043 -128.205 271.677c-11.8076 25.1904 -19.415 51.5479 -17.9814 80.251z" />
</svg>
