<?xml version="1.0" encoding="UTF-8"?>
<svg width="1024px" height="1025px" viewBox="0 0 1024 1025" version="1.1" xmlns="http://www.w3.org/2000/svg" xmlns:xlink="http://www.w3.org/1999/xlink">
  <g id="Metapop" transform="translate(0, 0.0926)" fill="currentColor" fill-rule="nonzero">
    <path d="M1024,512 C1024,794.778 794.778,1024 512,1024 C229.222,1024 0,794.778 0,512 C0,229.222 229.222,0 512,0 C794.778,0 1024,229.222 1024,512 Z M292.014,750.93 C302.4593,750.93 310.9896,740.7923 310.9896,728.4027 L310.9896,318.3627 C310.9896,305.9721 302.45933,295.8344 292.0453,295.8344 C281.6,295.8344 273.0707,305.9721 273.0707,318.3627 L273.0707,728.3917 C273.0707,740.7823 281.6,750.92 292.0141,750.93 L292.014,750.93 Z M739.564,758.528 C749.9771,758.528 758.5074,748.36 758.5074,735.9997 L758.5074,325.9077 C758.5074,313.5171 749.97713,303.3794 739.564,303.3794 C729.1187,303.3794 720.619692,313.5171 720.619692,325.9077 L720.619692,735.9997 C720.609934,748.3893 729.10896,758.528 739.564,758.528 Z M398.234,568.883 C408.6481,568.883 417.1774,558.2336 417.1774,545.1769 L417.1774,365.0549 C417.1774,352.0305 408.6481,341.3488 398.234,341.3488 C387.7887,341.3488 379.2584,352.0187 379.2584,365.0549 L379.2584,545.1979 C379.2584,558.2536 387.78867,568.904 398.2027,568.904 L398.234,568.883 Z M625.766,568.883 C636.2113,568.883 644.7308,558.2336 644.7308,545.1769 L644.7308,365.0549 C644.7308,352.0305 636.20053,341.3488 625.7865,341.3488 C615.3412,341.3488 606.8226,352.0187 606.8226,365.0549 L606.8226,545.1979 C606.8226,558.2536 615.3519,568.904 625.766,568.904 L625.766,568.883492 L625.766,568.883 Z M512,644.731 C522.4141,644.731 530.9443,634.44 530.9443,621.8443 L530.9443,402.1763 C530.9443,389.5816 522.41403,379.2906 512,379.2906 C501.58597,379.2906 493.0557,389.5816 493.0557,402.1763 L493.0557,621.8753 C493.0557,634.47 501.58597,644.761 512,644.761 L512,644.730727 L512,644.731 Z"></path>
  </g>
</svg>