<?xml version="1.0" standalone="no"?>
<!DOCTYPE svg PUBLIC "-//W3C//DTD SVG 1.1//EN" "http://www.w3.org/Graphics/SVG/1.1/DTD/svg11.dtd" >
<svg xmlns="http://www.w3.org/2000/svg" xmlns:xlink="http://www.w3.org/1999/xlink" version="1.1" viewBox="-10 0 1044 1024">
   <path fill="currentColor"
d="M1024 371c0 282.778 -229.222 512 -512 512s-512 -229.222 -512 -512s229.222 -512 512 -512s512 229.222 512 512zM292.014 609.93c10.4453 0 18.9756 -10.1377 18.9756 -22.5273v-410.04c0 -12.3906 -8.53027 -22.5283 -18.9443 -22.5283
c-10.4453 0 -18.9746 10.1377 -18.9746 22.5283v410.029c0 12.3906 8.5293 22.5283 18.9434 22.5381zM739.564 617.528c10.4131 0 18.9434 -10.168 18.9434 -22.5283v-410.092c0 -12.3906 -8.53027 -22.5283 -18.9434 -22.5283
c-10.4453 0 -18.9443 10.1377 -18.9443 22.5283v410.092c-0.00976562 12.3896 8.48926 22.5283 18.9443 22.5283zM398.234 427.883c10.4141 0 18.9434 -10.6494 18.9434 -23.7061v-180.122c0 -13.0244 -8.5293 -23.7061 -18.9434 -23.7061
c-10.4453 0 -18.9756 10.6699 -18.9756 23.7061v180.143c0 13.0557 8.53027 23.7061 18.9443 23.7061zM625.766 427.883c10.4453 0 18.9648 -10.6494 18.9648 -23.7061v-180.122c0 -13.0244 -8.53027 -23.7061 -18.9443 -23.7061
c-10.4453 0 -18.9639 10.6699 -18.9639 23.7061v180.143c0 13.0557 8.5293 23.7061 18.9434 23.7061v-0.0205078zM512 503.731c10.4141 0 18.9443 -10.291 18.9443 -22.8867v-219.668c0 -12.5947 -8.53027 -22.8857 -18.9443 -22.8857s-18.9443 10.291 -18.9443 22.8857
v219.699c0 12.5947 8.53027 22.8857 18.9443 22.8857v-0.0302734z" />
</svg>
