<?xml version="1.0" encoding="UTF-8"?>
<svg width="1003px" height="1001px" viewBox="0 0 1003 1001" version="1.1" xmlns="http://www.w3.org/2000/svg" xmlns:xlink="http://www.w3.org/1999/xlink">
  <g id="Minecraft" transform="translate(0.8861, 0.6137)" fill="currentColor" fill-rule="nonzero">
    <path d="M1001.82,-2.84217094e-14 L1001.82,999.961 L0,999.961 L0,-2.84217094e-14 L1001.82,-2.84217094e-14 L1001.82,-2.84217094e-14 Z M964.56166,35.4269 L909.0669,35.582173 C602.3209,36.381978 47.0509,37.020653 37.9669,37.464013 L37.9669,958.800013 L963.0099,958.800013 C963.614392,949.463103 964.56166,35.4269 964.56166,35.4269 L964.56166,35.4269 L964.56166,35.4269 Z M618,426.443 L618,519.6266 L738.336,519.6266 L738.336,824.7126 L683.4122,824.612991 L628.4464,824.623733 C625.97863,824.636428 624.31847,824.654006 623.67785,824.674514 C628.68566,823.003614 622.757928,719.396514 622.757928,719.396514 L467.940928,719.489287 C428.334528,719.441436 393.584528,719.292021 380.487828,718.923857 L380.487828,821.824857 L265.408828,822.006498 L265.408828,524.047498 L382.880828,524.047498 L382.880828,426.443 L618.001828,426.443 L618,426.443 Z M859.062,222.4669 L859.062,419.2359 L623.534,419.2359 L623.534,222.4669 L859.062,222.4669 Z M380.259,222.5714 C381.009,255.3468 380.54318,294.7814 380.259,330.5704 L379.91232,371.6358 C379.78439,387.6094 379.686734,403.3985 379.686734,418.7569 L146.814734,418.7569 L146.814734,222.5659 L148.087194,222.570783 C172.645794,222.716291 380.258194,222.570783 380.258194,222.570783 L380.259,222.5714 Z"></path>
  </g>
</svg>