<?xml version="1.0" standalone="no"?>
<!DOCTYPE svg PUBLIC "-//W3C//DTD SVG 1.1//EN" "http://www.w3.org/Graphics/SVG/1.1/DTD/svg11.dtd" >
<svg xmlns="http://www.w3.org/2000/svg" xmlns:xlink="http://www.w3.org/1999/xlink" version="1.1" viewBox="-10 0 1034 1024">
   <path fill="currentColor"
d="M1012.68 -128.588v999.961h-1001.82v-999.961h1001.82zM975.421 -93.1611l-55.4941 0.155273c-306.746 0.799805 -862.016 1.43848 -871.1 1.88184v921.336h925.043c0.604492 -9.33691 1.55176 -923.373 1.55176 -923.373h-0.000976562zM628.86 297.855v93.1836h120.336
v305.086l-54.9238 -0.0996094l-54.9658 0.0107422c-2.46777 0.0126953 -4.12793 0.0302734 -4.76855 0.0507812c5.00781 -1.6709 -0.919922 -105.278 -0.919922 -105.278l-154.817 0.0927734c-39.6064 -0.0478516 -74.3564 -0.197266 -87.4531 -0.56543v102.901
l-115.079 0.181641v-297.959h117.472v-97.6035h235.121zM869.922 93.8789v196.769h-235.528v-196.769h235.528zM391.119 93.9834c0.75 32.7754 0.28418 72.21 0 107.999l-0.34668 41.0654c-0.12793 15.9736 -0.225586 31.7627 -0.225586 47.1211h-232.872v-196.191
l1.27246 0.00488281c24.5586 0.145508 232.171 0 232.171 0z" />
</svg>
