<svg xmlns="http://www.w3.org/2000/svg" fill="currentColor" class="bi h-8 w-8" viewBox="0 0 135.47 135.47"><path d="M16.53 20.26q-2.967 0-5.651.99-4.804 1.694-7.912 6.074Q0 31.562 0 36.79v61.88q0 6.781 4.804 11.726Q9.748 115.2 16.53 115.2q6.922 0 11.726-4.804Q33.2 105.45 33.2 98.67V87.417c.035-2.437 2.545-1.798 3.814 0 2.377 4.115 7.414 7.65 13.28 7.63s10.737-2.92 13.28-7.63c.963-1.136 3.678-3.071 3.956 0V98.67q0 6.781 4.803 11.726Q77.28 115.2 84.06 115.2q6.923 0 11.726-4.804 4.945-4.945 4.945-11.726V36.79q0-5.227-3.108-9.466-2.966-4.38-7.77-6.075-2.826-.99-5.651-.989-7.63 0-12.856 5.934L54.57 45.826c-.377.283-1.625 2.443-4.276 2.443s-3.758-2.16-4.134-2.443L29.245 26.194Q24.159 20.26 16.53 20.26zm104.53 0q-5.934 0-10.172 4.238-4.097 4.098-4.097 10.031t4.097 10.172q4.238 4.098 10.172 4.098t10.172-4.098q4.239-4.238 4.239-10.172 0-5.933-4.239-10.03-4.238-4.239-10.172-4.239m.141 31.364q-5.934 0-10.172 4.238c-4.238 4.238-4.238 6.217-4.238 10.172v34.896q0 5.934 4.238 10.172 4.238 4.098 10.172 4.098c5.934 0 7.3-1.366 10.031-4.098q4.239-4.238 4.239-10.172V66.035q0-5.933-4.239-10.172-4.097-4.238-10.03-4.238"></path></svg>