<?xml version="1.0" standalone="no"?>
<!DOCTYPE svg PUBLIC "-//W3C//DTD SVG 1.1//EN" "http://www.w3.org/Graphics/SVG/1.1/DTD/svg11.dtd" >
<svg xmlns="http://www.w3.org/2000/svg" xmlns:xlink="http://www.w3.org/1999/xlink" version="1.1" viewBox="-10 0 1043 1024">
   <path fill="currentColor"
d="M1017.86 -136.904c-51.2002 0 -99.3281 9.21582 -144.385 26.624c45.0566 -17.4082 93.1846 -26.624 144.385 -26.624h-1017.86v907.265c0 55.2959 46.0801 100.352 102.4 100.352c56.3193 0 102.399 -45.0557 102.399 -100.352v-548.864v3.07227v-94.208v-8.19238
c4.09668 -52.2236 48.1279 -93.1836 102.4 -93.1836c56.3193 0 102.399 45.0557 102.399 100.352v393.216c0 55.2959 46.0801 100.353 102.4 100.353s102.4 -45.0566 102.4 -100.353v-150.527c5.11914 -51.2002 48.1279 -91.1367 101.376 -91.1367
c56.3193 0 102.399 45.0566 102.399 100.353v51.2002c0 55.2959 46.0801 100.352 102.4 100.352s102.399 -45.0557 102.399 -100.352v-569.345h-5.11914z" />
</svg>
