<?xml version="1.0" encoding="UTF-8"?>
<svg width="1023px" height="1009px" viewBox="0 0 1023 1009" version="1.1" xmlns="http://www.w3.org/2000/svg" xmlns:xlink="http://www.w3.org/1999/xlink">
  <g id="Mix" transform="translate(-0, 0.6046)" fill="currentColor" fill-rule="nonzero">
    <path d="M1017.86,0 C966.6598,0 918.5319,9.21582 873.475,26.624 C918.5316,9.2158 966.6596,0 1017.86,0 L0,0 L0,907.265 C0,962.5609 46.0801,1007.617 102.4,1007.617 C158.7193,1007.617 204.799,962.5613 204.799,907.265 L204.799,358.401 L204.799,361.47327 L204.799,267.26527 L204.799,259.07289 C208.89568,206.84929 252.9269,165.88929 307.199,165.88929 C363.5183,165.88929 409.598,210.94499 409.598,266.24129 L409.598,659.45729 C409.598,714.75319 455.6781,759.81029 511.998,759.81029 C568.3179,759.81029 614.398,714.75369 614.398,659.45729 L614.398,508.93029 C619.51714,457.73009 662.5259,417.79359 715.774,417.79359 C772.0933,417.79359 818.173,462.85019 818.173,518.14659 L818.173,569.34679 C818.173,624.64269 864.2531,669.69879 920.573,669.69879 C976.8929,669.69879 1022.972,624.64309 1022.972,569.34679 L1022.972,0 L1017.85286,0 L1017.86,0 Z"></path>
  </g>
</svg>