<?xml version="1.0" standalone="no"?>
<!DOCTYPE svg PUBLIC "-//W3C//DTD SVG 1.1//EN" "http://www.w3.org/Graphics/SVG/1.1/DTD/svg11.dtd" >
<svg xmlns="http://www.w3.org/2000/svg" xmlns:xlink="http://www.w3.org/1999/xlink" version="1.1" viewBox="-10 0 1034 1024">
   <path fill="currentColor"
d="M232.06 14.3604c-31.5195 -42.5801 -93.4395 -49.2207 -133.819 -12.7207c-34.8398 32.0801 -37.6006 86.2607 -9.40039 124.42l181.92 243.841l-183.02 246.06c-28.2002 38.1602 -25.9805 92.3398 9.39941 124.42c40.3604 36.5 102.301 29.8604 133.82 -12.7197
l255.46 -343.38c6.08008 -8.2998 6.08008 -19.9004 0 -28.2002zM792.74 14.3604c31.5195 -42.5801 93.4395 -49.2207 133.819 -12.7207c34.8408 32.0801 37.6006 86.2607 9.40039 124.42l-181.92 243.841l183.02 246.06c28.2002 38.1602 25.9805 92.3398 -9.39941 124.42
c-40.3604 36.5 -102.3 29.8604 -133.82 -12.7197l-254.899 -343.94c-6.08008 -8.2998 -6.08008 -19.8994 0 -28.2002z" />
</svg>
