<?xml version="1.0" encoding="UTF-8"?>
<svg width="889px" height="787px" viewBox="0 0 889 787" version="1.1" xmlns="http://www.w3.org/2000/svg" xmlns:xlink="http://www.w3.org/1999/xlink">
  <g id="Mixer" transform="translate(0.2674, 0.3376)" fill="currentColor" fill-rule="nonzero">
    <path d="M163.661554,36.4581489 C132.142054,-6.1219511 70.2220537,-12.7625511 29.8425537,23.7374489 C-4.99724628,55.8175489 -7.75804628,109.998149 20.4421637,148.157449 L202.362164,391.998449 L19.3421637,638.058449 C-8.85803628,676.218649 -6.63833628,730.398249 28.7415737,762.478449 C69.1019737,798.978449 131.042574,792.338849 162.561574,749.758749 L418.021574,406.378749 C424.101654,398.078949 424.101654,386.478349 418.021574,378.178549 L163.661554,36.4581489 Z M724.341554,36.4581489 C755.861054,-6.1219511 817.781054,-12.7625511 858.160554,23.7374489 C893.001354,55.8175489 895.761154,109.998149 867.560944,148.157449 L685.640944,391.998449 L868.660944,638.058449 C896.861144,676.218649 894.641444,730.398249 859.261534,762.478449 C818.901134,798.978449 756.961534,792.338849 725.441534,749.758749 L470.542534,405.818749 C464.462454,397.518949 464.462454,385.919349 470.542534,377.618549 L724.341554,36.4581489 Z"></path>
  </g>
</svg>