<?xml version="1.0" standalone="no"?>
<!DOCTYPE svg PUBLIC "-//W3C//DTD SVG 1.1//EN" "http://www.w3.org/Graphics/SVG/1.1/DTD/svg11.dtd" >
<svg xmlns="http://www.w3.org/2000/svg" xmlns:xlink="http://www.w3.org/1999/xlink" version="1.1" viewBox="-10 0 1034 1024">
   <path fill="currentColor"
d="M801.874 94.2637c-6.69727 -54.5889 -27.4736 -103.321 -63.0371 -144.876c-38.502 -44.9951 -83.4756 -80.9678 -144.599 -90.3877h-50.4014c-5.41699 6.38965 -4.19824 14.1621 -4.20898 21.5449c-0.101562 67.0518 0.113281 134.104 -0.123047 201.155
c-0.154297 40.9395 4.79199 35.2256 -36.1162 35.625c-21.4121 0.214844 -21.5859 -0.113281 -21.6055 -21.0742c-0.0410156 -71.8945 0.03125 -143.8 -0.0722656 -215.706c0 -7.38281 1.20801 -15.1553 -4.19824 -21.5449h-47.7588
c-10.875 3.23633 -22.3438 3 -33.2393 7.25977c-26.7256 10.4453 -49.9199 26.501 -72.1611 43.9092c-35.7988 28.0166 -61.7363 64.1025 -80.5068 105.196c-14.2129 31.1084 -21.043 64.2559 -23.665 98.3037v47.749c3.19531 6.21582 1.20801 12.9951 1.93555 19.4756
c7.62891 67.9326 37.376 125.298 87.2646 170.64c19.4053 17.6328 24.2998 35.1943 24.1055 59.4834c-0.942383 121.836 -0.666016 243.702 -0.296875 365.549c0.112305 39.3008 13.1572 72.3242 48.5166 94.2383c14.2852 8.84766 30.167 8.5498 45.3936 12.1865h172.432
c3.48145 -2.60156 7.74121 -1.65918 11.5195 -1.94629c27.5977 -2.13965 47.8408 -16.1592 63.6621 -37.96c14.7256 -20.2754 18.668 -43.7041 18.7188 -67.748c0.297852 -128.911 0.236328 -257.823 -0.0195312 -386.734
c-0.0205078 -11.9707 3.65625 -20.3154 12.9023 -28.5078c38.2979 -33.9756 66.8057 -74.8125 83.3428 -123.72c8.24316 -24.4023 11.6836 -49.5508 14.1621 -74.957v-47.749c-3.29688 -6.16406 -1.15723 -12.9434 -1.94629 -19.4053v0.000976562zM629.555 326.63
c-3.22559 2.13965 -7.3623 3.20508 -9.27637 7.0957c0.0195312 13.3535 0.0410156 26.6855 0.0605469 40.0381c0.143555 75.0693 0.328125 150.149 0.419922 225.22c0.0615234 60.5176 0.0205078 121.026 0 181.545c-0.00976562 22.1484 -10.8027 33.3311 -33.1982 33.4336
c-49.459 0.214844 -98.9385 0.214844 -148.397 0c-22.3438 -0.101562 -33.2598 -11.3662 -33.2705 -33.4336c-0.0195312 -132.065 -0.00976562 -264.131 0.0107422 -396.187c0 -3.5332 0.265625 -7.04492 0.410156 -10.5674
c-0.143555 -13.3027 -0.287109 -26.6045 -0.44043 -39.8955c-55.4395 -32.4297 -93.4092 -78.418 -109.711 -141.261c-28.6924 -110.592 34.4268 -229.693 141.558 -264.489v11.5205v186.899c0 25.1396 3.625 28.6924 29.2256 28.7031
c31.3643 0 62.7295 0.0615234 94.1152 -0.03125c18.7803 -0.0507812 22.5596 -3.83984 22.5596 -22.2617c0.0195312 -64.9521 0.236328 -129.905 -0.214844 -194.847c-0.0820312 -11.0088 3 -11.3359 11.6836 -7.46484c82.3809 36.7715 131.441 99.4502 138.568 189.48
c6.9834 88.2891 -29.9521 157.512 -104.101 206.5z" />
</svg>
