<?xml version="1.0" encoding="UTF-8"?>
<svg width="585px" height="1025px" viewBox="0 0 585 1025" version="1.1" xmlns="http://www.w3.org/2000/svg" xmlns:xlink="http://www.w3.org/1999/xlink">
  <g id="Moddb" transform="translate(0.6231, 0.4253)" fill="currentColor" fill-rule="nonzero">
    <path d="M581.692733,235.2639 C574.995463,180.675 554.219133,131.9429 518.655633,90.3879 C480.153633,45.3928 435.180033,9.4201 374.056633,0 L323.655233,0 C318.238243,6.38985 319.456993,14.1623 319.446253,21.5451 C319.344691,88.5969 319.559534,155.6491 319.323206,222.7001 C319.168909,263.6396 324.115196,257.9257 283.207006,258.3251 C261.794906,258.539944 261.621106,258.211819 261.601506,237.2509 C261.56049,165.3564 261.632756,93.4509 261.52924,21.5449 C261.52924,14.16209 262.73725,6.3896 257.331,0 L209.5722,0 C198.6972,3.23633 187.2284,3 176.3329,7.25977 C149.6073,17.70507 126.413,33.76077 104.1718,51.16897 C68.373,79.18557 42.4355,115.27147 23.665,156.36497 C9.4521,187.47337 2.622,220.62087 8.52651283e-14,254.66867 L8.52651283e-14,302.41767 C3.19531,308.63349 1.20801,315.41277 1.93555,321.89327 C9.56446,389.82587 39.31155,447.19127 89.20015,492.53327 C108.60545,510.16607 113.49995,527.72757 113.30565,552.01667 C112.363267,673.85267 112.639634,795.71867 113.008775,917.56567 C113.12108,956.86647 126.165975,989.88987 161.525375,1011.80397 C175.810575,1020.65163 191.692375,1020.35377 206.918975,1023.99047 L379.350975,1023.99047 C382.832425,1021.38891 387.092185,1022.33129 390.870475,1022.04418 C418.468175,1019.90453 438.711275,1005.88498 454.532575,984.08418 C469.258175,963.80878 473.200575,940.38008 473.251375,916.33618 C473.549227,787.42518 473.487703,658.51318 473.231844,529.60218 C473.211336,517.63148 476.888094,509.28678 486.134144,501.09438 C524.432044,467.11878 552.939844,426.28188 569.476944,377.37438 C577.720104,352.97208 581.160544,327.82358 583.639044,302.41738 L583.639044,254.66838 C580.342164,248.50432 582.481814,241.72498 581.692754,235.26308 L581.692754,235.264057 L581.692733,235.2639 Z M409.373733,467.6302 C406.148143,469.76985 402.011433,470.83528 400.097363,474.7259 C400.116894,488.0794 400.138378,501.4114 400.157909,514.764 C400.301464,589.8333 400.486034,664.913 400.577831,739.984 C400.639355,800.5016 400.598339,861.01 400.577831,921.529 C400.568066,943.6774 389.775131,954.8601 367.379631,954.9626 C317.920631,955.177444 268.441131,955.177444 218.982631,954.9626 C196.638831,954.861038 185.722831,943.5964 185.712131,921.529 C185.6926,789.464 185.702366,657.398 185.722874,525.342 C185.722874,521.8088 185.988499,518.29708 186.13303,514.7746 C185.989475,501.4719 185.845921,488.1701 185.6926,474.8791 C130.2531,442.4494 92.2833997,396.4611 75.9815997,333.6181 C47.2891997,223.0261 110.4084,103.9251 217.5396,69.1291 L217.5396,80.6496 L217.5396,267.5486 C217.5396,292.6882 221.1646,296.241 246.7652,296.2517 C278.1295,296.2517 309.4947,296.313223 340.8804,296.22045 C359.6607,296.169669 363.44,292.38061 363.44,273.95875 C363.459531,209.00665 363.676328,144.05375 363.225156,79.11175 C363.143124,68.10295 366.225156,67.77585 374.908756,71.64691 C457.289656,108.41841 506.349756,171.09711 513.476756,261.12691 C520.460156,349.41601 483.524656,418.63891 409.375756,467.62691 L409.373733,467.6302 Z"></path>
  </g>
</svg>