<?xml version="1.0" standalone="no"?>
<!DOCTYPE svg PUBLIC "-//W3C//DTD SVG 1.1//EN" "http://www.w3.org/Graphics/SVG/1.1/DTD/svg11.dtd" >
<svg xmlns="http://www.w3.org/2000/svg" xmlns:xlink="http://www.w3.org/1999/xlink" version="1.1" viewBox="-10 0 1045 1024">
   <path fill="currentColor"
d="M1022 451c-2 -42 -4 -82 -16 -122c-10 -38 -28 -74 -50 -108c-20 -30 -46 -60 -80 -78c-32 -16 -66 -20 -102 -16c-84 10 -148 68 -202 132c-28 32 -54 68 -80 104c-6 12 -14 22 -20 34c-6 8 -10 20 -18 26c-14 14 -22 -34 -24 -42c-24 -88 -46 -180 -86 -264
c-16 -34 -34 -68 -60 -94c-28 -28 -62 -30 -102 -30c-18 4 -34 4 -50 20c-16 14 -32 28 -46 42s-26 32 -44 42c-14 8 -32 6 -38 22c-10 18 2 38 2 58c0 22 4 68 4 68v72v36v30v286s-4 42 6 56c8 14 26 12 40 12c28 2 64 4 68 -30c4 -22 2 -44 2 -66v-74
c0 -96 -16 -194 2 -290c4 -28 20 -92 60 -82c36 8 60 56 72 86c34 88 52 182 72 274c4 24 8 48 16 70c4 16 8 34 24 40c30 18 74 -2 98 -22c34 -26 56 -60 74 -98c22 -42 42 -84 62 -128c18 -36 30 -76 64 -102c28 -20 68 -34 102 -30c92 6 114 130 116 202
c2 48 -4 96 -6 144c-2 24 -2 48 -2 72c0 10 -2 24 4 34c12 20 52 12 70 10c26 -2 36 -14 46 -40c14 -42 20 -84 22 -130c2 -42 4 -84 0 -126z" />
</svg>
