<?xml version="1.0" encoding="UTF-8"?>
<svg width="1025px" height="758px" viewBox="0 0 1025 758" version="1.1" xmlns="http://www.w3.org/2000/svg" xmlns:xlink="http://www.w3.org/1999/xlink">
  <g id="ModelMayhem" transform="translate(0.434, 0.6046)" fill="currentColor" fill-rule="nonzero">
    <path d="M1021.97924,458 C1019.97924,416 1017.97924,376 1005.97924,336 C995.979239,298 977.979239,262 955.979239,228 C935.979239,198 909.979239,168 875.979239,150 C843.979239,134 809.979239,130 773.979239,134 C689.979239,144 625.979239,202 571.979239,266 C543.979239,298 517.979239,334 491.979239,370 C485.979239,382 477.979239,392 471.979239,404 C465.979239,412 461.979239,424 453.979239,430 C439.979239,444 431.979239,396 429.979239,388 C405.979239,300 383.979239,208 343.979239,124 C327.979239,90 309.979239,56 283.979239,30 C255.979239,2 221.979239,0 181.979239,0 C163.979239,4 147.979239,4 131.979239,20 C115.979239,34 99.9792388,48 85.9792388,62 C71.9792388,76 59.9792388,94 41.9792388,104 C27.9792388,112 9.97923875,110 3.97923875,126 C-6.02076125,144 5.97923875,164 5.97923875,184 C5.97923875,206 9.97923875,252 9.97923875,252 L9.97923875,324 L9.97923875,360 L9.97923875,390 L9.97923875,676 C9.97923875,676 5.97923875,718 15.9792388,732 C23.9792388,746 41.9792388,744 55.9792388,744 C83.9792388,746 119.979239,748 123.979239,714 C127.979239,692 125.979239,670 125.979239,648 L125.979239,574 C125.979239,478 109.979239,380 127.979239,284 C131.979239,256 147.979239,192 187.979239,202 C223.979239,210 247.979239,258 259.979239,288 C293.979239,376 311.979239,470 331.979239,562 C335.979239,586 339.979239,610 347.979239,632 C351.979239,648 355.979239,666 371.979239,672 C401.979239,690 445.979239,670 469.979239,650 C503.979239,624 525.979239,590 543.979239,552 C565.979239,510 585.979239,468 605.979239,424 C623.979239,388 635.979239,348 669.979239,322 C697.979239,302 737.979239,288 771.979239,292 C863.979239,298 885.979239,422 887.979239,494 C889.979239,542 883.979239,590 881.979239,638 C879.979239,662 879.979239,686 879.979239,710 C879.979239,720 877.979239,734 883.979239,744 C895.979239,764 935.979239,756 953.979239,754 C979.979239,752 989.979239,740 999.979239,714 C1013.97924,672 1019.97924,630 1021.97924,584 C1023.97924,542 1025.97924,500 1021.97924,458 Z"></path>
  </g>
</svg>