<?xml version="1.0" encoding="UTF-8"?>
<svg width="660px" height="660px" viewBox="0 0 660 660" version="1.1" xmlns="http://www.w3.org/2000/svg" xmlns:xlink="http://www.w3.org/1999/xlink">
    <title>Modrinth</title>
    <g id="Modrinth" stroke="none" stroke-width="1" fill="none" fill-rule="evenodd">
        <path d="M328.92,137.16 C331.56,137.16 334.2,137.21 336.82,137.32 L328.769,188.169 L326.419783,188.191158 C249.012171,189.516675 186.57,252.7851 186.57,330.51 C186.57,348.070404 189.757269,364.892325 195.584321,380.428501 L252.2,346.45 L235.05,300.97 L288.8,245.76 L356.73,231.12 L376.4,255.33 L345.08,287.05 L317.78,295.65 L298.26,315.7 L307.82,342.3 L327.22,362.9 L354.58,355.62 L374.05,334.24 L416.56,320.77 L429.23,349.27 L385.36,403.05 L311.86,426.32 L278.89,389.62 L221.610989,423.995308 C247.716023,453.925145 286.126728,472.85 328.92,472.85 C332.9,472.85 336.85,472.69 340.75,472.36 L354.97,522.12 C346.335393,523.282342 337.632489,523.860017 328.92,523.860017 C267.539733,523.860017 212.801936,495.199472 177.370356,450.544038 L134.082625,476.52257 C178.632472,535.948436 249.632385,574.43 329.55,574.43 C426.06,574.43 509.57,518.31 549.18,436.97 L597.79,453.8 C551.01,555.14 448.44,625.55 329.55,625.55 C231.032256,625.55 143.71265,577.193677 90.0590793,502.941366 C81.1709978,491.501362 70.8351995,475.338492 64.1592621,459.772858 C47.9061088,426.571716 37.7078082,389.876182 35,351.13 L86.28,351.13 C88.7387345,380.151889 96.2839715,407.734508 108.019854,432.981748 L151.305335,407.003138 C141.174439,383.538097 135.56,357.674335 135.56,330.51 C135.56,223.79 222.2,137.16 328.92,137.16 Z M329.56,35 C457.087021,35 565.83985,116.018046 607.111527,229.347179 C611.821384,242.003907 615.3925,254.286878 617.881528,266.355752 C622.440207,286.939767 624.84,308.331833 624.84,330.28 C624.84,356.42 621.44,381.77 615.04,405.91 L566.56,389.13 C571.323644,369.876348 573.724654,350.114192 573.71,330.28 C573.71,317.091539 572.662032,304.145912 570.644898,291.52192 L520.602082,305.023801 C521.70226,313.36416 522.27,321.871337 522.27,330.51 C522.27,410.58 473.5,479.34 404.07,508.69 L389.9,459.14 C437.98,436.29 471.26,387.25 471.26,330.51 C471.26,326.42789 471.087799,322.385695 470.750272,318.390286 C470.54137,317.109748 470.331885,315.839292 470.115071,314.571815 L469.92344,313.463592 C467.760608,301.092701 464.794211,288.794211 457.53,269.47 L457.558516,269.539502 C441.780521,236.339211 413.525146,210.197724 378.87,197.19 L386.97,146.039 L389.315221,146.794657 C442.704778,164.353964 485.853314,204.560749 507.379914,256.02446 L557.438606,242.523587 C522.158532,151.076298 433.383894,86.13 329.56,86.13 C204.98,86.13 102.07,179.63 87.24,300.24 L35.78,300.24 C50.86,151.36 176.73,35 329.56,35 Z" id="Shape" fill="#000000"></path>
    </g>
</svg>