<?xml version="1.0" encoding="UTF-8"?>
<svg width="967px" height="1027px" viewBox="0 0 967 1027" version="1.1" xmlns="http://www.w3.org/2000/svg" xmlns:xlink="http://www.w3.org/1999/xlink">
  <g id="Mumble" transform="translate(0.0694, 0.6137)" fill="currentColor" fill-rule="nonzero">
    <path d="M579.58452,975.349671 C579.58452,947.701271 540.67242,925.173871 492.54452,925.173871 L492.54452,925.173871 C468.99272,925.173871 447.48882,930.293011 431.10502,940.533271 C414.72022,949.749091 405.50442,962.037171 405.50442,975.349671 C405.50442,1002.99717 444.41652,1025.52547 492.54442,1025.52547 L492.54442,1025.52547 C516.09622,1025.52547 537.60102,1020.40535 553.98482,1010.16507 C570.36862,1000.94925 579.58452,988.661171 579.58452,975.349671 L579.58452,975.349671 L579.58452,975.349671 Z M231.42452,375.285671 L231.42452,375.285671 C230.40108,374.262231 229.37667,373.237821 228.35323,373.237821 L228.35323,373.237821 C227.32882,373.237821 227.32882,373.237821 226.3044,372.214381 L226.3044,372.214381 L224.25655,372.214381 L206.84835,372.214381 C200.7048,372.214381 196.60905,376.310081 196.60905,382.453681 L196.60905,912.886681 C196.60905,918.006801 201.72917,923.125981 206.84835,923.125981 L224.25655,923.125981 C230.40108,923.125981 234.49675,919.030281 234.49675,912.886681 L234.49675,382.453681 C234.49675,379.382391 233.47234,377.333561 231.42448,375.285711 L231.42448,375.285711 L231.42452,375.285671 Z M320.51252,79.3498712 L321.53693,79.3498712 L321.53693,80.3733112 L321.53693,162.293211 C321.53693,207.349811 321.53693,253.429911 322.56134,298.485211 C324.60919,326.133611 338.94514,353.781111 361.47244,373.237211 C384.00074,392.693311 412.67264,401.909111 440.32104,399.861211 L479.23314,399.861211 C502.78494,399.861211 528.38454,400.885621 551.93724,397.813361 C606.20874,387.573161 646.14524,333.301661 640.00074,275.957361 L640.00074,78.3253612 L641.02515,78.3253612 C662.52905,76.2775112 681.98515,84.4698912 699.39335,98.8058612 C719.87285,117.237461 733.18535,145.909361 735.23315,172.533361 C736.25659,217.589961 736.25659,263.669061 735.23315,308.725361 L735.23315,366.069161 C737.281,365.044751 738.30444,365.044751 740.35327,365.044751 L757.76047,365.044751 C765.95285,365.044751 772.09637,371.189281 772.09637,378.357251 L772.09637,387.573071 L773.12078,387.573071 L773.12078,373.237171 L775.16863,373.237171 C787.45673,374.261581 800.76923,377.332871 813.05633,381.429551 L813.05633,172.533551 C809.98504,146.933951 805.88836,120.309951 794.62473,98.8060512 C763.90503,36.3421512 689.15273,-3.59394877 613.37673,2.55015123 L613.37673,2.55015123 L613.37673,2.55015123 C592.89723,-0.522118773 571.39333,13.8138512 565.24883,33.2698512 C565.24883,116.214151 566.27324,203.252851 565.24883,291.317851 C564.22539,308.726051 555.00863,325.109851 541.69703,336.373551 C527.36113,348.661651 508.92843,353.781751 490.49683,351.733951 C463.87283,352.758361 436.22533,350.709541 418.81713,329.205651 C400.38453,309.749551 401.40893,284.149951 401.40893,259.573851 L401.40893,238.069951 L401.40893,179.701751 L401.40893,28.1497512 C391.16873,8.69365123 369.66483,-2.56994877 346.11303,0.501351227 L337.92065,0.501351227 C256.00075,-1.54649877 179.20065,53.7493512 159.74465,128.501351 C155.64895,145.909551 153.6011,163.317751 152.57668,183.798251 L152.57668,384.501251 C164.86478,380.405551 176.12848,377.333281 188.41648,376.309841 L190.46433,376.309841 L190.46433,380.405541 C190.46433,373.237571 196.60886,367.094041 203.77683,367.094041 L221.18503,367.094041 C224.25632,367.094041 226.30417,368.117481 229.37644,369.141891 L229.37644,307.701491 L229.37644,172.533491 C234.49656,127.477791 270.33644,78.3254912 320.51214,79.3498912 C319.4887,78.3254812 320.51214,78.3254812 320.51214,79.3498912 L320.51252,79.3498712 Z M911.36052,464.373671 C880.63982,421.365871 839.67982,391.669571 795.64852,381.430271 L794.62411,381.430271 C791.55184,380.405861 789.50399,380.405861 786.43173,379.382421 C783.36044,378.358011 780.28818,378.358011 777.21591,378.358011 L777.21591,919.030011 C828.41611,912.886461 875.52061,882.165711 911.36091,833.014411 C947.20071,782.837611 966.65681,717.302411 966.65681,648.694411 C966.65681,580.086411 947.20071,514.550411 911.36091,464.374411 L911.36052,464.373671 Z M175.10452,383.477671 C174.08011,383.477671 173.05569,383.477671 172.03225,384.501111 C169.9844,385.525521 167.93655,385.525521 164.86428,386.549941 L163.83987,386.549941 C161.79202,387.573381 158.71975,387.573381 156.6719,388.597791 L156.6719,388.597791 L156.6719,388.597791 C117.7598,401.909291 82.9444,428.533291 55.2959,467.445491 C19.4561,517.621291 0,583.157491 0,651.765491 C0,720.372891 19.4561,785.909491 55.2959,836.084491 C90.1123,885.236791 138.2402,915.956591 189.4409,922.101091 L189.4409,380.405091 C186.36863,380.405091 183.29637,381.429501 181.24852,381.429501 C178.17625,382.452941 177.15282,382.452941 175.10497,383.477351 L175.10452,383.477671 Z M758.78452,369.141671 L741.37632,369.141671 L739.32847,369.141671 L738.30406,369.141671 L737.28062,369.141671 C733.18492,370.165111 730.11265,374.261791 730.11265,378.357491 L730.11265,908.789491 C730.11265,913.909611 735.23277,919.029691 741.37635,919.029691 L758.78455,919.029691 C764.9281,919.029691 770.04825,914.933991 770.04825,908.789491 L770.04825,379.382491 C770.04825,373.237961 764.92813,369.141671 758.78455,369.141671 L758.78452,369.141671 Z M776.19252,922.101671 L774.14467,922.101671 L774.14467,904.693471 L773.12026,904.693471 L773.12026,908.789171 C773.12026,915.957141 766.97671,922.101671 758.78436,922.101671 L756.73651,922.101671 C755.7121,923.125111 755.7121,923.125111 754.68866,924.149521 C744.44846,931.317491 735.23256,938.485421 724.99236,945.653421 C715.77654,951.797951 705.53626,957.941521 696.32046,963.061621 C689.15249,966.133891 683.00796,967.157321 683.00796,967.157321 L581.63196,967.157321 C582.65637,970.229591 582.65637,973.301851 582.65637,976.373141 L582.65637,976.373141 C582.65637,982.517671 581.63196,987.637741 578.56067,992.757941 L580.60852,992.757941 L689.15252,992.757941 C691.20037,992.757941 700.41622,989.685671 706.56072,987.637821 C719.87222,981.493291 729.08802,974.325321 744.44842,965.109521 C760.83222,954.869321 791.55192,930.293121 791.55192,930.293121 C795.6486,928.245271 796.67204,924.149571 796.67204,920.053821 C789.50407,921.077261 783.36054,922.101671 776.19254,922.101671 L776.19252,922.101671 Z M366.59252,669.173671 C364.54467,667.124841 360.44897,666.101401 356.35322,666.101401 L339.96842,666.101401 L332.80045,666.101401 L332.80045,737.781101 L334.8483,737.781101 L356.3532,737.781101 C360.4489,737.781101 364.54461,735.733251 368.6403,732.660981 C371.71257,729.589691 374.78483,725.493011 376.83268,720.372881 C378.88053,715.252751 378.88053,709.109181 378.88053,701.941281 L375.80924,681.460781 C373.76041,675.317231 370.68912,671.221481 366.59244,669.173681 L366.59252,669.173671 Z M351.23252,616.949671 C354.30381,616.949671 356.35264,614.901821 359.42393,612.853971 C362.4962,609.781701 364.54405,606.709441 365.56846,601.590271 C366.5919,596.470151 367.61631,591.350071 367.61631,585.205471 C367.61631,581.109771 366.5919,575.989651 365.56846,570.869571 C364.54405,565.749451 362.49619,562.678161 359.42393,560.629371 C356.35264,558.581521 353.28038,557.558081 350.20811,557.558081 L334.84771,557.558081 L331.77642,557.558081 L331.77642,617.974081 L336.89654,617.974081 C344.06451,616.949671 349.18464,616.949671 351.23244,616.949671 L351.23252,616.949671 Z M700.41652,475.637671 L268.28852,475.637671 L268.28852,818.677671 L699.39252,818.677671 L699.39252,475.637671 L700.41652,475.637671 L700.41652,475.637671 Z M414.72052,739.829671 C411.64923,750.069871 407.55255,759.285771 402.43242,766.453671 C396.28887,774.646051 390.14532,780.789571 382.97732,784.886271 C375.80935,787.957561 366.59252,790.006391 356.35332,790.006391 L293.88852,790.006391 L293.88852,504.310391 L349.18542,504.310391 C360.44912,504.310391 369.66492,505.333831 375.80942,506.358241 C381.95297,508.406091 387.07312,511.478361 392.19322,516.598441 C397.31332,521.718521 402.43252,529.909941 404.48132,539.125741 C407.55261,548.342541 408.57702,558.581841 408.57702,570.869841 C408.57702,585.205741 406.52917,597.493841 402.43249,607.734141 C398.33679,618.997841 393.21667,626.165741 387.07309,631.285941 L387.07309,632.310351 C396.28891,636.406051 404.48129,643.574051 410.62489,654.837651 C416.76942,666.102251 419.84071,681.461651 419.84071,700.917751 C418.81727,716.278151 417.79286,728.566151 414.72059,739.829851 L414.72052,739.829671 Z M547.84052,792.053671 L439.29652,792.053671 L439.29652,502.261671 L482.30432,502.261671 L482.30432,732.660671 L547.84052,732.660671 L547.84052,792.053671 L547.84052,792.053671 Z M671.74452,561.653671 L606.20842,561.653671 L606.20842,607.733771 L666.62442,607.733771 L666.62442,665.077571 L606.20842,665.077571 L606.20842,733.685971 L671.74452,733.685971 L671.74452,793.077571 L563.20052,793.077571 L563.20052,502.262571 L671.74452,502.262571 L671.74452,561.654171 L671.74452,561.653671 Z"></path>
  </g>
</svg>