<?xml version="1.0" standalone="no"?>
<!DOCTYPE svg PUBLIC "-//W3C//DTD SVG 1.1//EN" "http://www.w3.org/Graphics/SVG/1.1/DTD/svg11.dtd" >
<svg xmlns="http://www.w3.org/2000/svg" xmlns:xlink="http://www.w3.org/1999/xlink" version="1.1" viewBox="-10 0 1034 1024">
   <path fill="currentColor"
d="M608.256 832.824c0 -27.6484 -38.9121 -50.1758 -87.04 -50.1758v0c-23.5518 0 -45.0557 5.11914 -61.4395 15.3594c-16.3848 9.21582 -25.6006 21.5039 -25.6006 34.8164c0 27.6475 38.9121 50.1758 87.04 50.1758v0c23.5518 0 45.0566 -5.12012 61.4404 -15.3604
c16.3838 -9.21582 25.5996 -21.5039 25.5996 -34.8154v0zM260.096 232.76v0c-1.02344 -1.02344 -2.04785 -2.04785 -3.07129 -2.04785v0c-1.02441 0 -1.02441 0 -2.04883 -1.02344v0h-2.04785h-17.4082c-6.14355 0 -10.2393 4.0957 -10.2393 10.2393v530.433
c0 5.12012 5.12012 10.2393 10.2393 10.2393h17.4082c6.14453 0 10.2402 -4.0957 10.2402 -10.2393v-530.433c0 -3.07129 -1.02441 -5.12012 -3.07227 -7.16797v0zM349.184 -63.1758h1.02441v1.02344v81.9199c0 45.0566 0 91.1367 1.02441 136.192
c2.04785 27.6484 16.3838 55.2959 38.9111 74.752c22.5283 19.4561 51.2002 28.6719 78.8486 26.624h38.9121c23.5518 0 49.1514 1.02441 72.7041 -2.04785c54.2715 -10.2402 94.208 -64.5117 88.0635 -121.856v-197.632h1.02441
c21.5039 -2.04785 40.96 6.14453 58.3682 20.4805c20.4795 18.4316 33.792 47.1035 35.8398 73.7275c1.02344 45.0566 1.02344 91.1357 0 136.192v57.3438c2.04785 -1.02441 3.07129 -1.02441 5.12012 -1.02441h17.4072c8.19238 0 14.3359 6.14453 14.3359 13.3125v9.21582
h1.02441v-14.3359h2.04785c12.2881 1.02441 25.6006 4.0957 37.8877 8.19238v-208.896c-3.07129 -25.5996 -7.16797 -52.2236 -18.4316 -73.7275c-30.7197 -62.4639 -105.472 -102.4 -181.248 -96.2559v0v0c-20.4795 -3.07227 -41.9834 11.2637 -48.1279 30.7197
c0 82.9443 1.02441 169.983 0 258.048c-1.02344 17.4082 -10.2402 33.792 -23.5518 45.0557c-14.3359 12.2881 -32.7686 17.4082 -51.2002 15.3604c-26.624 1.02441 -54.2715 -1.02441 -71.6797 -22.5283c-18.4326 -19.4561 -17.4082 -45.0557 -17.4082 -69.6318v-21.5039
v-58.3682v-151.552c-10.2402 -19.4561 -31.7441 -30.7197 -55.2959 -27.6484h-8.19238c-81.9199 -2.04785 -158.72 53.248 -178.176 128c-4.0957 17.4082 -6.14355 34.8164 -7.16797 55.2969v200.703c12.2881 -4.0957 23.5518 -7.16797 35.8398 -8.19141h2.04785v4.0957
c0 -7.16797 6.14453 -13.3115 13.3125 -13.3115h17.4082c3.07129 0 5.11914 1.02344 8.19141 2.04785v-61.4404v-135.168c5.12012 -45.0557 40.96 -94.208 91.1357 -93.1836c-1.02344 -1.02441 0 -1.02441 0 0zM940.032 321.848
c-30.7207 -43.0078 -71.6807 -72.7041 -115.712 -82.9434h-1.02441c-3.07227 -1.02441 -5.12012 -1.02441 -8.19238 -2.04785c-3.07129 -1.02441 -6.14355 -1.02441 -9.21582 -1.02441v540.672c51.2002 -6.14355 98.3047 -36.8643 134.145 -86.0156
c35.8398 -50.1768 55.2959 -115.712 55.2959 -184.32s-19.4561 -134.144 -55.2959 -184.32zM203.776 240.952c-1.02441 0 -2.04883 0 -3.07227 1.02344c-2.04785 1.02441 -4.0957 1.02441 -7.16797 2.04883h-1.02441c-2.04785 1.02344 -5.12012 1.02344 -7.16797 2.04785v0
v0c-38.9121 13.3115 -73.7275 39.9355 -101.376 78.8477c-35.8398 50.1758 -55.2959 115.712 -55.2959 184.32c0 68.6074 19.4561 134.144 55.2959 184.319c34.8164 49.1523 82.9443 79.8721 134.145 86.0166v-541.696c-3.07227 0 -6.14453 1.02441 -8.19238 1.02441
c-3.07227 1.02344 -4.0957 1.02344 -6.14355 2.04785zM787.456 226.616h-17.4082h-2.04785h-1.02441h-1.02344c-4.0957 1.02344 -7.16797 5.12012 -7.16797 9.21582v530.432c0 5.12012 5.12012 10.2402 11.2637 10.2402h17.4082c6.14355 0 11.2637 -4.0957 11.2637 -10.2402
v-529.407c0 -6.14453 -5.12012 -10.2402 -11.2637 -10.2402zM804.864 779.576h-2.04785v-17.4082h-1.02441v4.0957c0 7.16797 -6.14355 13.3125 -14.3359 13.3125h-2.04785c-1.02441 1.02344 -1.02441 1.02344 -2.04785 2.04785
c-10.2402 7.16797 -19.4561 14.3359 -29.6963 21.5039c-9.21582 6.14453 -19.4561 12.2881 -28.6719 17.4082c-7.16797 3.07227 -13.3125 4.0957 -13.3125 4.0957h-101.376c1.02441 3.07227 1.02441 6.14453 1.02441 9.21582v0c0 6.14453 -1.02441 11.2646 -4.0957 16.3848
h2.04785h108.544c2.04785 0 11.2637 -3.07227 17.4082 -5.12012c13.3115 -6.14453 22.5273 -13.3125 37.8877 -22.5283c16.3838 -10.2402 47.1035 -34.8164 47.1035 -34.8164c4.09668 -2.04785 5.12012 -6.14355 5.12012 -10.2393
c-7.16797 1.02344 -13.3115 2.04785 -20.4795 2.04785zM395.264 526.648c-2.04785 -2.04883 -6.14355 -3.07227 -10.2393 -3.07227h-16.3848h-7.16797v71.6797h2.04785h21.5049c4.0957 0 8.19141 -2.04785 12.2871 -5.12012
c3.07227 -3.07129 6.14453 -7.16797 8.19238 -12.2881s2.04785 -11.2637 2.04785 -18.4316l-3.07129 -20.4805c-2.04883 -6.14355 -5.12012 -10.2393 -9.2168 -12.2871zM379.904 474.424c3.07129 0 5.12012 -2.04785 8.19141 -4.0957
c3.07227 -3.07227 5.12012 -6.14453 6.14453 -11.2637c1.02344 -5.12012 2.04785 -10.2402 2.04785 -16.3848c0 -4.0957 -1.02441 -9.21582 -2.04785 -14.3359c-1.02441 -5.12012 -3.07227 -8.19141 -6.14453 -10.2402
c-3.07129 -2.04785 -6.14355 -3.07129 -9.21582 -3.07129h-15.3604h-3.07129v60.416h5.12012c7.16797 -1.02441 12.2881 -1.02441 14.3359 -1.02441zM729.088 333.112h-432.128v343.04h431.104v-343.04h1.02344zM443.392 597.304
c-3.07129 10.2402 -7.16797 19.4561 -12.2881 26.624c-6.14355 8.19238 -12.2871 14.3359 -19.4551 18.4326c-7.16797 3.07129 -16.3848 5.12012 -26.624 5.12012h-62.4648v-285.696h55.2969c11.2637 0 20.4795 1.02344 26.624 2.04785
c6.14355 2.04785 11.2637 5.12012 16.3838 10.2402s10.2393 13.3115 12.2881 22.5273c3.07129 9.2168 4.0957 19.4561 4.0957 31.7441c0 14.3359 -2.04785 26.624 -6.14453 36.8643c-4.0957 11.2637 -9.21582 18.4316 -15.3594 23.5518v1.02441
c9.21582 4.0957 17.4082 11.2637 23.5518 22.5273c6.14453 11.2646 9.21582 26.624 9.21582 46.0801c-1.02344 15.3604 -2.04785 27.6484 -5.12012 38.9121zM576.512 649.528h-108.544v-289.792h43.0078v230.399h65.5361v59.3926zM700.416 419.128h-65.5361v46.0801h60.416
v57.3438h-60.416v68.6084h65.5361v59.3916h-108.544v-290.815h108.544v59.3916z" />
</svg>
