<?xml version="1.0" encoding="UTF-8"?>
<svg width="1025px" height="445px" viewBox="0 0 1025 445" version="1.1" xmlns="http://www.w3.org/2000/svg" xmlns:xlink="http://www.w3.org/1999/xlink">
  <g id="MyAnimeList" transform="translate(0.8146, 0.0684)" fill="currentColor" fill-rule="nonzero">
    <path d="M361.5332,2.84217094e-14 L264.7041,2.84217094e-14 L179.8037,114.493 L96.8291,2.84217094e-14 L0,2.84217094e-14 L0,389.663 L102.083,389.663 L102.083,154.071 L103.035148,154.071 L179.803748,258.99 L258.508848,154.071 L259.502012,154.071 L259.502012,389.651 L361.544012,389.651 L361.544012,2.84217094e-14 L361.53327,2.84217094e-14 L361.5332,2.84217094e-14 Z M725.0742,99.799 L623.0222,99.799 L623.0222,178.4826 L521.4302,178.4826 C525.19875,166.8605 531.15872,154.091 539.3306,140.1652 C547.54251,126.2394 561.0494,114.1662 579.9429,103.9464 C598.8452,93.7257 626.2271,88.381 662.1089,87.8487 L742.2261,87.8487 L718.4087,0.0919 L668.3042,0.0919 C631.5835,-0.645405 597.3511,3.13292 565.5262,11.5196 C533.7098,19.8448 504.2186,37.3448 477.0731,64.0313 C452.8348,88.8731 435.0985,117.6172 423.7743,150.3536 C412.4384,183.0401 406.8173,216.586 406.91745,251.0026 C407.133644,285.5426 412.51939,319.3346 423.0975,352.2756 C433.6961,385.2492 448.5135,416.01 467.4989,444.6311 L550.4843,389.7747 C539.0966,371.0872 529.8202,351.344 522.7226,330.5159 C515.61615,309.6985 511.8476,288.2659 511.3984,266.26 L623.0034,266.26 L623.0034,389.775 L725.0554,389.775 L725.0554,99.799 L725.0742,99.799 Z M889.9992,2.84217094e-14 L787.9162,2.84217094e-14 L787.9162,389.663 L1000.1812,389.663 L1023.9996,301.9062 L889.9986,301.9062 L889.9986,2.84217094e-14 L889.999577,2.84217094e-14 L889.9992,2.84217094e-14 Z"></path>
  </g>
</svg>