<?xml version="1.0" standalone="no"?>
<!DOCTYPE svg PUBLIC "-//W3C//DTD SVG 1.1//EN" "http://www.w3.org/Graphics/SVG/1.1/DTD/svg11.dtd" >
<svg xmlns="http://www.w3.org/2000/svg" xmlns:xlink="http://www.w3.org/1999/xlink" version="1.1" viewBox="-10 0 1044 1024">
   <path fill="currentColor"
d="M361.533 148.7h-96.8291l-84.9004 114.493l-82.9746 -114.493h-96.8291v389.663h102.083v-235.592h0.952148l76.7686 104.919l78.7051 -104.919h0.993164v235.58h102.042v-389.651h-0.0107422zM725.074 248.499h-102.052v78.6836h-101.592
c3.76855 -11.6221 9.72852 -24.3916 17.9004 -38.3174c8.21191 -13.9258 21.7188 -25.999 40.6123 -36.2188c18.9023 -10.2207 46.2842 -15.5654 82.166 -16.0977h80.1172l-23.8174 -87.7568h-50.1045c-36.7207 -0.737305 -70.9531 3.04102 -102.778 11.4277
c-31.8164 8.3252 -61.3076 25.8252 -88.4531 52.5117c-24.2383 24.8418 -41.9746 53.5859 -53.2988 86.3223c-11.3359 32.6865 -16.957 66.2324 -16.8555 100.649c0.214844 34.54 5.60059 68.332 16.1787 101.273c10.5986 32.9736 25.416 63.7344 44.4014 92.3555
l82.9854 -54.8564c-11.3877 -18.6875 -20.6641 -38.4307 -27.7617 -59.2588c-7.10645 -20.8174 -10.875 -42.25 -11.3242 -64.2559h111.605v123.515h102.052v-289.976zM889.999 148.7h-102.083v389.663h212.265l23.8184 -87.7568h-134.001v-301.906h0.000976562z" />
</svg>
