<?xml version="1.0" standalone="no"?>
<!DOCTYPE svg PUBLIC "-//W3C//DTD SVG 1.1//EN" "http://www.w3.org/Graphics/SVG/1.1/DTD/svg11.dtd" >
<svg xmlns="http://www.w3.org/2000/svg" xmlns:xlink="http://www.w3.org/1999/xlink" version="1.1" viewBox="-10 0 1044 1024">
   <path fill="currentColor"
d="M846 417c98 0 178 78 178 178v90h-358v-90c0 -100 80 -178 180 -178zM682 221c0 -90 72 -164 164 -164c90 0 164 74 164 164c0 92 -74 164 -164 164c-92 0 -164 -72 -164 -164zM476 445c88 0 160 72 160 160v80h-318v-80c0 -88 70 -160 158 -160zM330 267
c0 -82 66 -148 146 -148c82 0 148 66 148 148c0 80 -66 146 -148 146s-146 -66 -146 -146zM142 469c80 0 144 64 144 144v72h-286v-72c0 -80 64 -144 142 -144zM10 309c0 -74 60 -132 132 -132c74 0 132 58 132 132c0 72 -58 132 -132 132c-72 0 -132 -60 -132 -132z" />
</svg>
