<?xml version="1.0" encoding="UTF-8"?>
<svg width="1024px" height="629px" viewBox="0 0 1024 629" version="1.1" xmlns="http://www.w3.org/2000/svg" xmlns:xlink="http://www.w3.org/1999/xlink">
  <g id="MySpace" transform="translate(0, 0.0926)" fill="currentColor" fill-rule="nonzero">
    <path d="M846,360 C944,360 1024,438 1024,538 L1024,628 L666,628 L666,538 C666,438 746,360 846,360 Z M682,164 C682,74 754,0 846,0 C936,0 1010,74 1010,164 C1010,256 936,328 846,328 C754,328 682,256 682,164 Z M476,388 C564,388 636,460 636,548 L636,628 L318,628 L318,548 C318,460 388,388 476,388 Z M330,210 C330,128 396,62 476,62 C558,62 624,128 624,210 C624,290 558,356 476,356 C394,356 330,290 330,210 Z M142,412 C222,412 286,476 286,556 L286,628 L0,628 L0,556 C0,476 64,412 142,412 Z M10,252 C10,178 70,120 142,120 C216,120 274,178 274,252 C274,324 216,384 142,384 C70,384 10,324 10,252 Z"></path>
  </g>
</svg>