<?xml version="1.0" encoding="UTF-8"?>
<svg width="48px" height="48px" viewBox="0 0 48 48" version="1.1" xmlns="http://www.w3.org/2000/svg" xmlns:xlink="http://www.w3.org/1999/xlink">
    <g id="NaNoWriMo" stroke="none" stroke-width="1" fill="none" fill-rule="evenodd">
        <path d="M46.5940557,1.5958301 C46.8050522,1.82413607 46.9393994,2.0748442 47.0197437,2.31839556 L47.0643172,2.47619606 C49.1122445,10.2874739 47.9969796,16.7005528 44.7208899,21.8141323 C44.9343756,23.0102997 45.04503,24.2426736 45.04503,25.5008922 C45.04503,36.4243126 36.7048814,45.399787 26.0450047,46.4068947 L26.0453062,39.984395 L26.0453062,38.981 L26.6448359,38.9641288 L27.548449,38.9131238 L27.9806889,38.8801613 L28.3178761,38.850325 L28.6466157,38.817584 L29.099953,38.7661985 C29.3139856,38.7401652 29.5253323,38.7118901 29.7338223,38.6813334 L30.1949914,38.6092203 L30.4231553,38.5700577 L30.6490253,38.5288842 C30.7934544,38.5017667 30.935822,38.4735134 31.0765051,38.4440267 L31.654829,38.3134871 L31.9313435,38.2440384 L32.4408209,38.1027738 L32.7085328,38.0209609 L33.0725244,37.9003904 L33.3658724,37.7946113 C33.5842429,37.7127995 33.7956382,37.6265182 33.9996586,37.5356748 L34.3001079,37.3959766 L34.6714162,37.2052448 L34.9024522,37.0749156 L34.9817607,37.0278604 C35.1141233,36.9482812 35.2420071,36.8660789 35.3652466,36.7812149 L35.6312737,36.5883278 L35.7181879,36.5207225 C35.8288653,36.4330606 35.9349992,36.3428479 36.0364375,36.2500491 C36.1408384,36.1545401 36.2402656,36.0562917 36.334553,35.9552656 C36.4019786,35.8830273 36.46691,35.8092071 36.5291412,35.7339462 C36.8196528,35.382573 37.0512177,35.0000192 37.2177909,34.5846643 C37.3235534,34.3209555 37.4031311,34.0439511 37.4549097,33.75335 C37.4854263,33.581987 37.5062505,33.4063226 37.5171312,33.2258779 C37.6132357,31.638571 37.4597302,30.083622 37.0830277,28.5644446 L37.0012021,28.2344559 L37.2779946,28.0370377 L37.7798244,27.6714411 L38.2026724,27.3508974 L38.6176997,27.0243626 L39.0472307,26.67308 L39.5946756,26.2040206 L39.4674513,26.3152746 C39.8957083,25.9431261 40.3088794,25.5605477 40.7061895,25.1674269 L41.1715104,24.6945701 L41.480257,24.3662015 L41.8200803,23.9899688 L42.1696266,23.5852463 L42.6091263,23.047902 L42.9890451,22.5544988 L43.2612996,22.1822617 L43.5280505,21.8006252 C43.7382447,21.4928243 43.9400548,21.1799522 44.1332329,20.8619729 L44.4308419,20.3560017 C47.0661755,15.7254099 47.9046197,10.0436335 46.2180316,3.20495701 L46.0891039,2.69593306 C45.9998842,2.3381812 45.7733237,2.05284781 45.3021599,2.00698551 L45.1675155,2.0005378 L45.0202586,2.00672298 C44.5431566,2.04429157 44.3183536,2.32754844 44.3091105,2.9886269 L44.3275642,3.63854662 C44.4649669,7.68515722 43.9818566,10.9812248 42.0080294,14.5256858 L41.7883252,14.9087725 L41.5260594,15.3372117 L41.3346786,15.6357913 L41.0541999,16.0476555 L40.8354421,16.3540414 L40.5899296,16.6810656 L40.2514319,17.1069455 L39.9273697,17.4915815 L39.6432548,17.8116413 L39.3591957,18.117108 L39.0890554,18.395147 L38.772181,18.7070836 L38.3563523,19.0951505 L37.9945405,19.4149145 L37.5501855,19.7869678 L37.0550963,20.1770239 L36.7791884,20.3841407 L36.3167113,20.7161473 L36.0032399,20.9310654 C35.7741641,21.0852823 35.5392775,21.2372471 35.2992162,21.3864491 C35.0222647,21.5585713 34.738837,21.7267838 34.448463,21.8912639 L34.0608603,22.1108183 L33.7981967,21.7510296 C33.3727942,21.168326 32.9402261,20.6287721 32.481027,20.0949399 L32.1663634,19.7343736 C30.0925507,17.3847034 27.4111371,16.0008922 24.0645903,16.0008394 L23.6712099,16.0064906 C20.4843424,16.1048097 17.9199756,17.4742768 15.9250564,19.7345591 C15.3291717,20.409035 14.8099767,21.0429434 14.2797351,21.7708814 L14.0174383,22.1309736 L13.6295905,21.9117931 C10.2963901,20.0281352 7.87788899,17.6503058 6.25448939,14.8789661 L6.04724087,14.5152637 C4.16157298,11.1122158 3.64524331,7.94079221 3.72843716,4.10578714 L3.75800128,3.14716958 L3.75933123,2.99054162 C3.74762083,2.32575106 3.53250734,2.04527391 3.05421246,2.00652647 C2.41800791,1.95415318 2.12056337,2.25326441 2.00332577,2.6650737 L1.87086794,3.18848735 C0.221244851,9.90078564 0.998610659,15.5048698 3.5198206,20.0978842 L3.67525447,20.3758966 L3.93463795,20.8185914 L4.26236612,21.3445324 L4.2049462,21.254851 C4.31129994,21.4218894 4.42005999,21.5874961 4.5311895,21.7516763 L4.26236612,21.3445324 L4.4203321,21.5862379 L4.5311895,21.7516763 C4.84031314,22.2083687 5.1677707,22.6540238 5.51276894,23.0887543 L5.8635847,23.5198476 C6.08972456,23.7909209 6.32281199,24.057616 6.56264468,24.3199618 C6.81664913,24.5978097 7.07821957,24.8707791 7.34711567,25.1389041 L7.82436317,25.6024734 L8.23073089,25.97899 C8.76841054,26.4667696 9.33139069,26.9373429 9.91804444,27.3909414 C10.1012687,27.5326097 10.2868021,27.6726222 10.4745953,27.810986 L11.0837006,28.252693 L11.0031987,28.5794814 C10.6296015,30.0960562 10.4773919,31.6452708 10.5726778,33.2258707 C10.8002159,36.9830914 15.3829811,38.6878196 21.5642333,38.9642471 L22.0000409,38.981 L26.0450047,38.982 L22.0430409,38.982 L22.0440554,46.4068947 C11.3846571,45.3992257 3.04503001,36.4239711 3.04503001,25.5008922 C3.04503001,24.2406918 3.15603326,23.0064177 3.36879555,21.8073139 C0.235033168,16.8970438 -0.916761893,10.7963925 0.78809105,3.41834163 L0.900593995,2.94650238 L1.03764422,2.4057503 C1.24815619,1.66492204 1.79132506,1.05991666 2.75454111,1.0041881 L2.94008788,1 L3.13560752,1.00984477 C4.17343096,1.09391958 4.73906841,1.83142975 4.75923967,2.98547815 L4.74069144,3.67572901 C4.61611709,7.40509994 5.03303386,10.4397031 6.71183837,13.6409979 C10.4953977,8.12201656 16.8473344,4.50089219 24.04503,4.50089219 C31.2319479,4.50089219 37.5756378,8.11118024 41.3614362,13.6170928 C42.9682237,10.5561604 43.4174978,7.64326468 43.3410422,4.13369677 L43.3108634,3.16603433 C43.2734701,1.91328365 43.8346151,1.09698394 44.9396926,1.00997587 C45.6442745,0.951544957 46.203435,1.17316423 46.5940557,1.5958301 Z" id="Path" fill="currentColor"></path>
    </g>
</svg>