<?xml version="1.0" encoding="UTF-8"?>
<svg width="1025px" height="974px" viewBox="0 0 1025 974" version="1.1" xmlns="http://www.w3.org/2000/svg" xmlns:xlink="http://www.w3.org/1999/xlink">
  <g id="Napster" transform="translate(0.495, 0.6046)" fill="currentColor" fill-rule="nonzero">
    <path d="M617.123217,706.7025 C587.919117,734.9242 551.915217,756.3363 512.992217,770.0072 C474.039117,757.3295 438.988317,734.9252 409.814217,706.7025 L617.123217,706.7025 Z M318.299217,294.0105 C277.400817,259.9216 228.740617,233.6257 175.215217,219.0222 L175.215217,552.8872 C175.215217,739.7472 326.091217,889.7222 513.944217,889.7222 C701.828217,889.7222 852.663217,739.7472 852.663217,552.8872 L852.663217,219.0222 C799.138817,233.6247 750.509217,258.9275 709.549217,294.0105 C654.110717,255.0261 587.908217,231.6384 514.928217,231.6384 C440.944817,232.631564 372.818217,255.0359 318.300217,294.0105 L318.29924,294.0105 L318.299217,294.0105 Z M319.262217,196.6288 C376.708517,166.5028 442.890217,149.914 513.946217,149.914 C584.017517,149.914 650.219217,167.4238 707.697217,196.6288 C721.305617,187.90419 735.857417,180.1112 749.527317,173.2509 C687.216817,115.8866 604.498317,80.8144 513.946317,80.8144 C422.461917,80.8144 339.712317,115.8964 277.402317,173.2509 C290.058517,180.10149 305.654317,188.8359 319.262717,196.6288 L319.262217,196.6288 Z M195.644217,142.12 C273.540717,55.5009 386.425217,0 512.993217,0 C639.517217,0 752.445217,54.5078 830.331217,142.12 C863.385917,133.34461 898.458217,127.5184 933.478217,127.5184 L933.478217,270.6324 C987.987017,304.7213 1024.00072,365.0553 1024.00072,434.1034 C1024.00072,503.2235 987.987017,563.5984 932.486117,597.6974 L931.5535,601.53724 C909.159,811.83724 728.0655,972.45024 510.0545,972.45024 C292.0145,972.45024 112.9265,808.85624 90.5225,597.67724 C36.0137,563.59814 -1.42108547e-14,502.28074 -1.42108547e-14,434.09324 C-1.42108547e-14,365.04534 36.0137,304.71124 90.5225,270.62224 L90.5225,127.51824 C127.5186,128.501638 162.5713,133.33465 195.6465,142.11984 L195.644217,142.12 Z M618.106217,552.8985 C674.538817,546.08893 769.012217,547.08307 769.012217,547.08307 C767.036627,563.59967 769.012217,614.21587 714.443817,644.41417 C705.708467,650.2296 683.324717,657.02937 661.912617,658.02257 C609.381417,659.94737 535.387617,660.9923 535.387617,660.9923 C548.997017,602.5734 571.402217,558.7163 618.107317,552.8993 L618.106217,552.8985 Z M407.868217,552.8985 C454.583017,558.71491 476.988317,602.5831 489.633817,660.9915 C489.633817,660.9915 415.639717,659.93681 363.077817,658.02177 C341.675517,657.028606 319.271217,649.2454 310.515317,644.41237 C255.997717,613.27277 257.944017,563.59887 255.997717,547.07157 C255.997717,547.07157 351.403917,547.07157 407.866717,552.89872 L407.867694,552.89872 L407.868217,552.8985 Z M612.290217,820.6125 C584.016817,838.0617 549.927917,847.841 512.993317,847.841 C475.996217,847.841 441.938617,838.0617 413.684717,820.6125 C413.684717,820.6125 415.631007,808.8674 421.477687,801.0646 C428.288237,790.3634 434.124187,787.4562 434.124187,787.4562 C458.474787,794.32632 484.740387,798.1564 512.982587,798.1564 C540.260887,798.1564 567.490387,794.32632 591.809687,787.4562 C591.809687,787.4562 599.602657,791.41909 606.412187,802.1193 C611.295977,812.8205 612.290217,820.6125 612.290217,820.6125 L612.290217,820.6125 Z"></path>
  </g>
</svg>