<?xml version="1.0" standalone="no"?>
<!DOCTYPE svg PUBLIC "-//W3C//DTD SVG 1.1//EN" "http://www.w3.org/Graphics/SVG/1.1/DTD/svg11.dtd" >
<svg xmlns="http://www.w3.org/2000/svg" xmlns:xlink="http://www.w3.org/1999/xlink" version="1.1" viewBox="-10 0 1045 1024">
   <path fill="currentColor"
d="M617.124 591.477c-29.2041 28.2217 -65.208 49.6338 -104.131 63.3047c-38.9531 -12.6777 -74.0039 -35.082 -103.178 -63.3047h207.309zM318.3 178.785c-40.8984 -34.0889 -89.5586 -60.3848 -143.084 -74.9883v333.865c0 186.86 150.876 336.835 338.729 336.835
c187.884 0 338.719 -149.975 338.719 -336.835v-333.865c-53.5244 14.6025 -102.154 39.9053 -143.114 74.9883c-55.4385 -38.9844 -121.641 -62.3721 -194.621 -62.3721c-73.9834 0.993164 -142.11 23.3975 -196.628 62.3721h-0.000976562zM319.263 81.4033
c57.4463 -30.126 123.628 -46.7148 194.684 -46.7148c70.0713 0 136.273 17.5098 193.751 46.7148c13.6084 -8.72461 28.1602 -16.5176 41.8301 -23.3779c-62.3105 -57.3643 -145.029 -92.4365 -235.581 -92.4365c-91.4844 0 -174.234 35.082 -236.544 92.4365
c12.6562 6.85059 28.252 15.585 41.8604 23.3779zM195.645 26.8945c77.8965 -86.6191 190.781 -142.12 317.349 -142.12c126.524 0 239.452 54.5078 317.338 142.12c33.0547 -8.77539 68.127 -14.6016 103.147 -14.6016v143.114
c54.5088 34.0889 90.5225 94.4229 90.5225 163.471c0 69.1201 -36.0137 129.495 -91.5146 163.594l-0.932617 3.83984c-22.3945 210.3 -203.488 370.913 -421.499 370.913c-218.04 0 -397.128 -163.594 -419.532 -374.773
c-54.5088 -34.0791 -90.5225 -95.3965 -90.5225 -163.584c0 -69.0479 36.0137 -129.382 90.5225 -163.471v-143.104c36.9961 0.983398 72.0488 5.81641 105.124 14.6016zM618.107 437.673c56.4326 -6.80957 150.906 -5.81543 150.906 -5.81543
c-1.97559 16.5166 0 67.1328 -54.5684 97.3311c-8.73535 5.81543 -31.1191 12.6152 -52.5312 13.6084c-52.5312 1.9248 -126.525 2.96973 -126.525 2.96973c13.6094 -58.4189 36.0146 -102.276 82.7197 -108.093zM407.869 437.673
c46.7148 5.81641 69.1201 49.6846 81.7656 108.093c0 0 -73.9941 -1.05469 -126.556 -2.96973c-21.4023 -0.993164 -43.8066 -8.77637 -52.5625 -13.6094c-54.5176 -31.1396 -52.5713 -80.8135 -54.5176 -97.3408c0 0 95.4062 0 151.869 5.82715h0.000976562z
M612.291 705.387c-28.2734 17.4492 -62.3623 27.2285 -99.2969 27.2285c-36.9971 0 -71.0547 -9.7793 -99.3086 -27.2285c0 0 1.94629 -11.7451 7.79297 -19.5479c6.81055 -10.7012 12.6465 -13.6084 12.6465 -13.6084c24.3506 6.87012 50.6162 10.7002 78.8584 10.7002
c27.2783 0 54.5078 -3.83008 78.8271 -10.7002c0 0 7.79297 3.96289 14.6025 14.6631c4.88379 10.7012 5.87793 18.4932 5.87793 18.4932z" />
</svg>
