<?xml version="1.0" encoding="UTF-8"?>
<svg width="843px" height="989px" viewBox="0 0 843 989" version="1.1" xmlns="http://www.w3.org/2000/svg" xmlns:xlink="http://www.w3.org/1999/xlink">
  <g id="Nekoweb" transform="translate(0.9808, 0.8284)" fill="currentColor" fill-rule="nonzero">
    <path d="M402.2849,0 L402.2849,182.8571 L621.7139,182.8571 L621.7139,109.7145 L658.2852,109.7145 L658.2852,36.5719 L767.9992,36.5719 L767.9992,182.8569 L804.5705,182.8569 L804.5705,329.1429 L841.1418,329.1429 L841.1418,511.9999 L804.5705,511.9999 L804.5705,621.7139 L767.9992,621.7139 L767.9992,658.2852 L585.1432,658.2852 L585.1432,731.4278 L548.5719,731.4278 L548.5719,841.1418 L512.0006,841.1418 L512.0006,877.7131 L365.7146,877.7131 L365.7146,914.2844 L219.4296,914.2844 L219.4296,950.8547 L146.286,950.8547 L146.286,987.426 L5.68434189e-14,987.426 L5.68434189e-14,914.2834 L36.5713,914.2834 L36.5713,804.5694 L73.1426,804.5694 L73.1426,767.9981 L109.7129,767.9981 L109.7129,694.8545 L146.2842,694.8545 L146.2842,658.2842 L182.8555,658.2842 L182.8555,621.7129 L109.7119,621.7129 L109.7119,548.5703 L73.1416,548.5703 L73.1416,402.2843 L109.7119,402.2843 L109.7119,329.1407 L146.2832,329.1407 L146.2832,255.9981 L182.8545,255.9981 L182.8545,219.4268 L219.4248,219.4268 L219.4248,182.8555 L255.9961,182.8555 L255.9961,146.2852 L292.5674,146.2852 L292.5674,73.1416 L329.1387,73.1416 L329.1387,36.5713 L365.709,36.5713 L365.709,0 L402.2803,0 L402.286159,0 L402.2849,0 Z M438.8569,292.5721 L255.9999,292.5721 L255.9999,365.7147 L219.4296,365.7147 L219.4296,512.0007 L255.9999,512.0007 L255.9999,548.572 L438.8569,548.572 L438.8569,512.0007 L475.4282,512.0007 L475.4282,365.7147 L438.8569,365.7147 L438.8569,292.5721 Z M731.4279,438.8581 L694.8566,438.8581 L694.8566,475.4294 L621.713,475.4294 L621.713,438.8581 L585.1427,438.8581 L585.1427,365.7155 L621.713,365.7155 L621.713,329.1442 L731.428,329.1442 L731.428,292.5739 L585.142,292.5739 L585.142,329.1442 L548.5707,329.1442 L548.5707,365.7155 L511.9994,365.7155 L511.9994,512.0015 L548.5707,512.0015 L548.5707,548.5728 L694.8567,548.5728 L694.8567,512.0015 L731.428,512.0015 L731.428,475.4302 L767.9983,475.4302 L767.9983,329.1442 L731.428,329.1442 L731.428,438.8582 L731.4279,438.8581 Z M402.2849,329.1441 L402.2849,365.7154 L438.8562,365.7154 L438.8562,475.4294 L329.1422,475.4294 L329.1422,438.8581 L292.5709,438.8581 L292.5709,365.7155 L329.1422,365.7155 L329.1422,329.1441 L402.2848,329.1441 L402.2849,329.1441 Z"></path>
  </g>
</svg>