<?xml version="1.0" standalone="no"?>
<!DOCTYPE svg PUBLIC "-//W3C//DTD SVG 1.1//EN" "http://www.w3.org/Graphics/SVG/1.1/DTD/svg11.dtd" >
<svg xmlns="http://www.w3.org/2000/svg" xmlns:xlink="http://www.w3.org/1999/xlink" version="1.1" viewBox="-10 0 1034 1024">
   <path fill="currentColor"
d="M493.714 -122.714v182.856h219.429v-73.1426h36.5713v-73.1426h109.714v146.285h36.5713v146.286h36.5713v182.857h-36.5713v109.714h-36.5713v36.5713h-182.856v73.1426h-36.5713v109.714h-36.5713v36.5713h-146.286v36.5713h-146.285v36.5703h-73.1436v36.5713
h-146.286v-73.1426h36.5713v-109.714h36.5713v-36.5713h36.5703v-73.1436h36.5713v-36.5703h36.5713v-36.5713h-73.1436v-73.1426h-36.5703v-146.286h36.5703v-73.1436h36.5713v-73.1426h36.5713v-36.5713h36.5703v-36.5713h36.5713v-36.5703h36.5713v-73.1436h36.5713
v-36.5703h36.5703v-36.5713h36.5713h0.00585938zM530.286 169.857h-182.857v73.1426h-36.5703v146.286h36.5703v36.5713h182.857v-36.5713h36.5713v-146.286h-36.5713v-73.1426zM822.857 316.143h-36.5713v36.5713h-73.1436v-36.5713h-36.5703v-73.1426h36.5703v-36.5713
h109.715v-36.5703h-146.286v36.5703h-36.5713v36.5713h-36.5713v146.286h36.5713v36.5713h146.286v-36.5713h36.5713v-36.5713h36.5703v-146.286h-36.5703v109.714zM493.714 206.429v36.5713h36.5713v109.714h-109.714v-36.5713h-36.5713v-73.1426h36.5713v-36.5713h73.1426
z" />
</svg>
