<?xml version="1.0" standalone="no"?>
<!DOCTYPE svg PUBLIC "-//W3C//DTD SVG 1.1//EN" "http://www.w3.org/Graphics/SVG/1.1/DTD/svg11.dtd" >
<svg xmlns="http://www.w3.org/2000/svg" xmlns:xlink="http://www.w3.org/1999/xlink" version="1.1" viewBox="-10 0 1034 1024">
   <path fill="currentColor"
d="M807.749 -25.0635c-3.08203 0.670898 -6.05664 2.13965 -8.56055 4.08301c-11.9893 9.10742 -23.4805 19.0596 -33.1943 30.5576c-6.60938 8.0332 -15.3906 13.8271 -21.8604 21.9951c-7.38086 9.38965 -16.9424 16.9268 -23.9727 26.6055
c-7.22852 -4.17676 -13.3037 -9.87012 -20.2812 -14.3555c-9.54395 -6.38867 -19.626 -10.6484 -29.7705 -15.9375c-16.1309 -8.4375 -33.1318 -15.8848 -50.8369 -19.625c-17.6562 -4.17676 -34.8057 -10.6582 -52.8154 -13.4336
c-14.8467 -3.37402 -28.7793 -4.09961 -45.3086 -4.21484c-8.93359 -0.0644531 -17.3877 1.84082 -26.0781 2.50293c-11.9043 -2.77637 -21.2324 -7.08887 -35.5635 -9.08789c-10.8936 -1.53027 -22.0635 -0.761719 -33.0596 -0.131836
c-16.3438 3.3291 -31.9287 10.8809 -44.2549 22.1279c-13.9463 8.77148 -25.6982 21.0078 -41.2256 27.1318c-10.9512 4.65918 -20.2217 12.4072 -31.083 17.2539c-13.5479 6.16309 -23.833 17.0615 -35.8252 25.5518c-6.81836 4.88379 -13.6953 11.9736 -19.7559 17.6494
c-11.5039 11.2979 -23.9873 19.2021 -33.9805 32.0049c-11.3691 14.3115 -23.0566 28.3613 -33.7188 43.2012c-7.44727 9.07324 -11.8965 19.9521 -18.1758 29.7656c-16.5674 -3.92578 -32.46 -10.5391 -49.2588 -13.5664
c-17.7949 -3.35352 -35.8936 -4.30273 -53.6055 -8.16602c-7.61621 -1.08594 -15.8066 -3.12012 -23.3135 -0.658203c-7.10156 4.13867 -9.19727 13.3965 -11.1953 20.415c0.411133 18.6621 5.20605 36.3887 10.4053 54.1328
c11.7803 37.6348 27.2881 73.8721 43.7285 109.713c7.69238 17.8223 24.5508 33.1934 32.0049 51.1055c-0.431641 6.8291 -2.47363 13.4023 -3.4248 20.1514c-1.60645 25.1494 4.71484 49.7637 10.5371 74.0195c4.02344 15.8037 11.0391 30.5293 18.3086 45.0449
c9.45996 22.6221 19.8135 44.9316 33.5859 65.3281c4.09375 6.65039 12.2627 8.8125 18.9668 11.8545c5.4502 3.07812 11.3252 0.255859 16.8594 -0.923828c4.53809 8.36816 7.41895 17.8213 14.2246 24.7627c13.3242 14.5332 27.6123 28.2363 42.6738 40.9609
c22.7764 22.5781 50.7959 39.0449 80.2109 51.501c16.3115 4.52344 32.3066 10.0957 48.4697 15.1484c41.5225 9.78027 84.4814 8.25098 126.839 7.50684c17.7998 -0.677734 35.3242 -4.24512 52.9443 -6.45703c34.998 -0.677734 68.874 -10.4541 102.337 -19.7559
c19.5186 -7.25977 39.3145 -13.7969 59.2725 -19.7559c21.1113 -6.89648 41.248 -16.458 61.9014 -24.498c16.1562 -5.91797 30.0039 -16.1758 44.3887 -25.2881c7.22754 -4.58984 15.4297 -7.82129 22.2598 -13.0391c27.0293 -19.4551 55.6025 -37.8652 77.0488 -63.7451
c20.2188 -22.1885 32.0723 -50.1553 42.2803 -77.9727c3.95312 -15.8574 4.64844 -32.3867 5.79297 -48.6025c1.71777 -25.6162 -4.95801 -50.5215 -8.95605 -75.5996c-4.67969 -16.0088 -6.33105 -32.7949 -12.249 -48.4727
c-3.32031 -22.834 3.77832 -46.1387 -1.70996 -68.8828c-5.15137 -36.0088 -24.2646 -69.1846 -50.4463 -94.1719c-8.54785 -9.81348 -18.3506 -18.4727 -29.3701 -25.4199c-3.3291 -2.37793 -7.95508 -4.18066 -8.69629 -8.69336
c-9.36914 -33.8232 -14.9951 -68.7881 -28.3174 -101.417c-9.72266 -17.9365 -16.1836 -37.4287 -25.6826 -55.4492c-2.75488 -5.0459 -4.45117 -11.5225 -10.1406 -14.0938c-3.05566 -1.21094 -6.26758 -1.3291 -9.35059 -0.657227zM808.409 13.9238
c4.21289 8.21973 8.4707 16.5 11.0596 25.4199c3.89062 14.7881 9.11719 29.248 13.1738 43.9912c6.70312 18.6699 10.4102 38.2129 14.6182 57.5566c-9.20312 -2.03613 -18.8535 -2.41504 -27.9219 -5.00488c-9.83984 -8.47656 -18.3867 -18.1436 -26.7373 -28.0537
c-12.0518 -11.459 -24.6592 -22.5518 -39.1162 -30.9521c12.8057 -17.1006 27.7734 -32.46 40.9609 -49.2588c3.99805 -5.14844 8.95996 -9.55859 13.9629 -13.6982zM448.312 20.1143c8.43262 -1.15723 16.6973 2.0459 25.0254 3.0293
c21.4795 2.46875 42.2168 10.2129 60.3223 21.8643c19.9941 15.2764 42.1045 27.834 60.5869 45.0449c15.2637 14.5312 31.0674 28.6152 44.5186 44.9131c-19.208 0.166992 -37.9551 4.61523 -56.7676 8.03418c-9.90723 1.9541 -19.7021 5.5957 -29.8965 5.53223
c-9.79492 -11.2598 -19.792 -22.252 -28.3164 -34.5078c-19.585 -18.6445 -38.9102 -38.166 -62.6953 -51.6309c-12.6855 -7.10742 -26.9863 -10.8125 -41.3564 -12.3809c-4.20312 -0.609375 -7.74805 1.56738 -10.5371 4.47852
c15.7646 6.6709 32.6182 11.4619 46.2305 22.2588c13.9951 11.5547 28.1465 23.3271 38.5918 38.3281c10.3389 14.4863 22.5566 27.7598 31.7402 43.0693c-45.6182 20.4424 -83.9746 53.4609 -119.855 87.5869c-16.5684 15.0449 -31.6455 31.9229 -43.4639 50.9717
c-8.88281 12.4932 -17.9814 24.9258 -25.0254 38.5928c-7.19824 14.6318 -17.2168 27.7656 -23.1807 43.0654c-5.64941 14.4297 -16.2979 26.0234 -24.7617 38.8564c-4.92285 7.99609 -12.3496 13.8691 -18.5703 20.8105c-17.6162 19.2939 -35.2305 39.1572 -47.415 62.4307
c-13.9141 23.4844 -23.9346 49.0098 -31.4795 75.2051c-8.98438 -24.1748 -20.8877 -47.1533 -30.9521 -70.8574c-6.18164 -17.0723 -6.72559 -35.4199 -7.90234 -53.3447c7.98145 4.58984 15.4336 10.4453 24.1025 13.6992c8.81738 1.79492 19.167 2.11328 26.21 -4.47852
c10.9326 -9.33691 16.3428 -23.1387 24.7607 -34.5088c11.0488 -14.3623 19.333 -30.502 28.8447 -45.834c10.8994 -17.6016 22.2949 -34.9082 33.3223 -52.4199c12.8213 -16.4355 28.0225 -31.2305 38.459 -49.3926
c-0.255859 -0.963867 -0.620117 -1.94629 -0.921875 -2.89844c-9.1709 -7.44824 -20.0264 -12.3301 -30.1621 -18.3066c-16.7236 -9.79395 -33.5703 -19.417 -50.5762 -28.7129c-12.8984 -5.93262 -26.4316 -10.6318 -39.9082 -15.0156
c5.71777 -9.4873 11.3643 -19.0928 16.8584 -28.7129c26.375 -41.6387 64.3682 -75.1768 107.08 -99.5732c15.791 -10.0186 31.7314 -19.7822 48.0742 -28.8438c12.1211 -8.91406 23.2393 -19.2881 35.6943 -27.791c10.2441 -5.5332 21.9404 -7.08887 33.3213 -8.56055z
M553.813 25.3818c18.5303 -0.970703 35.752 6.80859 52.8145 12.9072c22.4971 7.26855 44.7881 15.7832 65.7197 26.8691c19.8594 12.4551 40.5303 23.6719 60.0625 36.6152c10.7012 9.04199 23.4307 15.4092 33.4541 25.2871
c-31.6953 1.73633 -63.6475 0.976562 -95.2256 4.21582c-8.70508 -11.3242 -19.2305 -20.9844 -29.3711 -30.9521c-14.9854 -17.249 -31.6455 -33.1904 -50.0508 -46.7568c-11.3877 -10.8105 -25.5039 -18.0312 -37.4023 -28.1865zM745.184 164.205
c25.0322 -2.30078 49.8857 2.79785 74.8154 4.08301c12.2627 0.540039 23.1611 4.25879 35.4287 8.42969c20.043 6.81934 37.2285 19.46 50.3125 35.4307c18.2979 26.3291 33.8125 56.25 34.9033 88.9033c-8.38574 -5.93164 -16.6328 -12.2861 -26.208 -16.2002
c-10.2705 -4.30566 -19.6523 -10.5098 -30.2959 -13.9609c-27.0244 -8.46387 -55.4131 -11.3975 -83.6357 -12.3809c-19.2979 -0.367188 -38.7666 -2.97266 -57.9531 0.130859c-14.5381 2.30176 -29.29 0.625 -43.7246 3.55664
c-18.4326 1.43848 -36.4648 5.54395 -54.7939 7.63867c-38 7.52637 -74.6982 20.0693 -112.348 28.9756c-37.7705 9.50684 -72.7412 26.9248 -109.187 40.0391c-15.7197 7.95508 -32.7559 13.6133 -47.6787 23.0498c-5.74512 3.53516 -12.0479 5.86816 -18.3086 8.2959
c9.82031 -16.5615 19.0312 -33.5225 30.4248 -49.127c17.0312 -26.2842 41.1582 -46.7041 62.4336 -69.4102c8.43457 -9.20898 18.3242 -17.123 28.7119 -24.1035c20.2051 -12.5059 40.7588 -24.6875 62.9561 -33.4541c19.5176 -7.80859 40.5801 -10.3164 61.1162 -14.2246
c26.4902 -3.88184 52.6982 -9.95801 79.5527 -11.0625c21.1416 -2.31445 42.2891 -2.90723 63.4805 -4.61035zM77.8115 217.679c9.12305 1.10547 17.5537 6.58691 27 7.11328c18.1367 1.94141 35.2227 8.83594 53.2119 11.459
c30.5781 4.47949 56.2285 22.7266 83.7676 35.2979c14.3115 5.57227 27.8955 13.125 42.8057 17.1221c-13.2129 15.6807 -25.6445 31.9961 -37.6689 48.6025c-8.52734 11.7734 -15.7637 25.0859 -22.917 38.3262c-5.52637 10.1943 -9.63184 19.46 -15.9365 28.3174
c-8.14355 10.8447 -14.7969 22.6182 -22.5225 33.7188c-12.3262 -9.53906 -20.4248 -22.7344 -29.8975 -34.7725c-26.7871 -28.3623 -36.9736 -66.9043 -55.4502 -100.362c-11.5742 -19.7295 -14.5723 -42.957 -24.3672 -63.4844
c-3.17383 -6.62598 -5.22559 -13.7373 -7.50684 -20.6777c3.23535 -0.973633 6.44238 -1.02734 9.48438 -0.65918zM763.23 287.88c10.167 -0.594727 20.4053 -0.81543 30.5557 0.527344c27.0869 1.99219 54.5742 3.19043 80.6064 11.5908
c13.541 5.5459 26.9355 12.1074 38.3271 21.3369c9.33691 7.41699 19.3701 14.9824 24.498 26.0781c9.04102 19.8008 11.1816 41.6611 16.9922 62.4307c5.57324 19.3213 8.75391 37.4346 8.69141 57.4287c-12.8105 -10.5176 -25.876 -21.5107 -41.8857 -26.8721
c-10.4141 -4.04297 -21.7969 -4.47852 -32.7949 -5.53223c-7.22754 -0.24707 -16.4531 0.313477 -20.415 7.37598c-1.8125 4.91309 2.70996 9.40527 7.24609 10.4053c11.832 3.31055 24.1221 4.7959 35.8232 8.56055c13.8057 4.66211 24.4355 14.9414 35.4287 23.9727
c5.68555 4.64453 9.95605 10.6973 14.3584 16.4619c-2.67383 8.29199 -7.55566 18.7871 -11.7197 26.4736c-14.8027 -12.0791 -28.3711 -25.916 -46.7588 -32.0049c-14.1152 -5.79688 -31.3135 -10.5801 -45.4385 -2.23926
c-6.74414 3.7334 -5.71582 14.7441 1.84375 16.7266c8.7002 1.63867 17.8584 1.37305 26.208 4.74316c14.7891 5.9502 29.1426 13.6221 38.8574 27.1318c2.33789 3.74707 6.7207 8.29199 3.94727 12.9092c-6.73438 11.3652 -17.1309 19.9619 -26.0771 29.501
c-11.6846 12.0879 -26.5137 20.4111 -39.3828 31.085c-12.3652 10.333 -27.3242 16.5391 -41.0908 24.7598c-10.2656 5.50977 -20.1689 11.9307 -31.085 16.0713c-7.74902 7.12988 -18.0146 10.6699 -27.1318 15.6729c-15.834 8.7002 -32.1621 10.0605 -48.3369 17.9121
c-14.8613 5.25 -31.7852 11.3564 -47.5479 13.3047c-14.21 1.93359 -28.0918 6.02051 -42.4102 6.97656c-15.9326 5.25879 -32.4902 8.20215 -49.2617 8.56055c-40.9834 3.0332 -85.0996 13.2451 -124.728 6.0625c-20.7725 -3.76855 -40.668 -7.09375 -61.2461 -11.8545
c-3.2168 -0.730469 -6.0459 -2.47656 -8.16602 -5.00684c-1.05957 -12.5225 0.564453 -25.3545 3.95117 -37.4023c8.1748 -22.085 23.5137 -40.5029 39.6455 -57.293c6.99121 -7.09863 19.1123 -10.2529 21.3369 -21.0752
c-1.54297 -5.74805 -7.97266 -7.41211 -13.1709 -6.19238c-14.6729 2.86328 -27.3037 14.4434 -37.6689 24.2344c-14.6982 13.793 -26.9795 30.165 -35.167 48.6016c-5.52734 12.6045 -6.5791 26.5537 -8.43066 40.041c-14.248 -5.8418 -24.3877 -15.0449 -37.5371 -22.9189
c7.27637 -30.1514 20.624 -59.7246 43.7285 -81.1318c7.93066 -9.75 18.0576 -17.3691 26.8691 -26.208c5.38574 -6.52441 -3.0918 -14.627 -9.87793 -14.4883c-9.57617 1.07715 -17.21 5.47949 -24.2354 11.4551c-14.2295 13.7617 -28.6973 27.6445 -38.459 45.0479
c-9.64648 14.9463 -14.3994 32.1768 -20.415 48.7324c-16.9922 -12.2627 -31.5811 -25.2158 -43.4639 -42.4102c-8.31641 -11.3467 -16.9316 -23 -21.7324 -36.3525c3.69824 -15.0039 8.32422 -29.7666 13.6982 -44.2539
c11.3691 -20.7383 23.2949 -41.6162 39.9082 -58.7422c12.1592 -12.0469 22.7432 -25.7236 36.4834 -36.0879c11.9287 -10.9355 26.001 -19.208 37.8018 -30.2959c10.0449 -8.85742 22.709 -13.8828 33.7178 -21.3359c24.6074 -16.6455 50.8359 -24.2373 76.7852 -35.168
c11.0059 -3.87695 23.2236 -8.0625 34.248 -11.9844c29.7344 -9.8584 51.3525 -15.9824 77.9688 -23.5791c12.8096 -5.35352 26.3379 -8.8623 39.9111 -11.5898c38.1748 -8.4248 76.9365 -14.2002 115.771 -18.5703c10.1719 -0.0673828 20.2578 -0.985352 30.4268 -1.58008
v-0.00195312zM704.38 365.831c-3.00195 0.147461 -5.93555 0.896484 -8.71777 2.40918c-6.63184 3.18555 -12.1914 8.72656 -15.1387 15.4834c-2.85449 8.83496 -1.31055 18.248 -0.861328 27.2988c0.591797 13.959 12.6533 24.1309 24.1436 30.1602
c8.74512 4.55469 19.5674 0.592773 24.0273 -7.90918c5.21387 -9.42285 7.26855 -20.4473 7.45703 -31.085c-1.26465 -8.31055 -3.83594 -16.5938 -7.91504 -23.9697c-4.7793 -7.67285 -13.9902 -12.833 -22.9951 -12.3877zM527.691 402.018
c-2.81348 -0.313477 -5.68555 -0.147461 -8.60156 0.686523c-10.8037 4.71973 -19.7236 15.4658 -20.1328 27.585c-1.32422 15.1074 -0.0576172 32.0449 10.5527 43.873c12.29 11.1191 34.1865 5.33496 42.6123 -7.85742
c6.70801 -16.4355 3.86816 -35.2178 -2.98438 -51.1543c-5.26758 -6.63672 -13.0078 -12.1865 -21.4463 -13.1338v0.000976562zM683.153 501.38c-4.60449 0.470703 -9.72363 0.404297 -13.5684 3.29297c-5.87305 5.90039 -1.75391 13.7256 -4.34766 21.7354
c-4.89551 15.0312 -11.3789 30.1377 -21.7305 42.4102c-10.4102 10.791 -26.042 7.46191 -38.9873 5.39746c-9.35059 -1.49414 -20.5137 -11.7383 -28.9756 -3.15918c-5.38379 8.05469 0.0126953 18.1855 5.79688 24.498c19.3564 10.9395 42.0869 8.89844 63.4814 9.22168
c-0.00390625 15.5518 8.45801 29.4473 18.5703 40.6953c8.30566 9.08594 21.5107 9.76367 33.0596 9.87988c14.0713 -0.515625 23.3984 -12.46 30.5596 -23.0488c4.80566 -12.2578 6.30469 -25.5752 4.34375 -38.5918c14.7383 2.75 29.2002 -4.06445 39.7754 -13.9629
c6.78906 -6.37988 18.9297 -10.4814 18.3076 -21.5996c-1.50391 -5.52832 -2.98438 -15.7588 -10.8008 -14.4883c-10.8848 7.44824 -18.8721 18.4951 -31.3447 22.9189c-10.6787 3.77832 -22.8652 -6.04785 -28.7119 -15.2783
c-7.61035 -11.8721 -17.207 -23.0176 -20.2852 -37.1426c-1.20215 -6.91406 -7.60059 -13.8652 -15.1426 -12.7793v0.000976562zM685.917 554.46c5.90039 9.02344 12.1104 17.9209 17.5166 27.2666c2.5752 3.98926 2.49023 8.84473 2.76855 13.4346
c0.336914 8.12109 0.712891 16.8887 -3.42773 24.2334c-4.70215 6.94629 -16.373 9.17676 -22.3906 2.63477c-5.41113 -5.87305 -9.77637 -13.1201 -11.5898 -20.9404c-1.8623 -5.7793 2.44531 -10.5938 4.87305 -15.4121c5.7207 -9.72266 9.26465 -20.4238 12.249 -31.2148
z" />
</svg>
