<?xml version="1.0" encoding="UTF-8"?>
<svg width="963px" height="794px" viewBox="0 0 963 794" version="1.1" xmlns="http://www.w3.org/2000/svg" xmlns:xlink="http://www.w3.org/1999/xlink">
  <g id="Neocities" transform="translate(0.8378, 0.6137)" fill="currentColor" fill-rule="nonzero">
    <path d="M776.69455,0.404970764 C773.61252,1.07586876 770.63791,2.54462076 768.134,4.48798076 C756.1447,13.5954008 744.6535,23.5475808 734.9397,35.0455808 C728.33032,43.0787808 719.5491,48.8726808 713.0793,57.0406808 C705.69844,66.4303308 696.1369,73.9674808 689.1066,83.6461808 C681.87808,79.4694208 675.8029,73.7760608 668.8254,69.2906808 C659.28145,62.9020108 649.1994,58.6422808 639.0549,53.3531808 C622.924,44.9156808 605.9231,37.4683808 588.218,33.7281808 C570.5618,29.5514208 553.4123,23.0699808 535.4026,20.2945808 C520.5559,16.9205608 506.6233,16.1949708 490.094,16.0797408 C481.16041,16.0152877 472.7063,17.9205608 464.0159,18.5826708 C452.1116,15.8063008 442.7835,11.4938008 428.4524,9.49478076 C417.5588,7.96451076 406.3889,8.73306176 395.3928,9.36294476 C379.049,12.6920448 363.4641,20.2438448 351.1379,31.4908448 C337.1916,40.2623248 325.4397,52.4986448 309.9123,58.6226448 C298.9611,63.2818248 289.6906,71.0298448 278.8293,75.8765448 C265.2814,82.0396348 254.9963,92.9380448 243.0041,101.428345 C236.18574,106.312135 229.3088,113.401945 223.2482,119.077745 C211.7443,130.375645 199.2609,138.279845 189.2677,151.082645 C177.8986,165.394145 166.2111,179.443945 155.5489,194.283845 C148.10163,203.357085 143.6524,214.235945 137.3731,224.049445 C120.8057,220.123665 104.9131,213.510345 88.1143,210.483045 C70.3194,207.129525 52.2207,206.180315 34.5088,202.317025 C26.89259,201.231085 18.7022,199.196905 11.1953,201.658822 C4.09374,205.797492 1.99803,215.055322 -5.68434189e-14,222.073822 C0.411133,240.735922 5.20605,258.462522 10.4053,276.206622 C22.1856,313.841422 37.6934,350.078722 54.1338,385.919622 C61.82618,403.741922 78.6846,419.113022 86.1387,437.025122 C85.707059,443.854222 83.66507,450.427422 82.7139,457.176522 C81.10745,482.325922 87.42874,506.940222 93.251,531.196022 C97.27444,546.999722 104.2901,561.725322 111.5596,576.240922 C121.01956,598.863022 131.3731,621.172522 145.1455,641.569022 C149.23925,648.219412 157.4082,650.381522 164.1123,653.423522 C169.5625,656.501642 175.4375,653.679381 180.9717,652.499694 C185.50979,660.867854 188.39065,670.320994 195.1963,677.262394 C208.5205,691.795594 222.8086,705.498694 237.8701,718.223294 C260.6465,740.801394 288.666,757.268194 318.081,769.724294 C334.3925,774.247734 350.3876,779.819994 366.5507,784.872694 C408.0732,794.652964 451.0321,793.123674 493.3897,792.379534 C511.1895,791.7018 528.7139,788.134414 546.334,785.922504 C581.332,785.24477 615.208,775.468404 648.671,766.166604 C668.1896,758.906834 687.9855,752.369704 707.9435,746.410704 C729.0548,739.514224 749.1915,729.952704 769.8449,721.912704 C786.0011,715.994734 799.8488,705.736904 814.2336,696.624604 C821.46114,692.034764 829.6633,688.803314 836.4934,683.585504 C863.5227,664.130404 892.0959,645.720304 913.5422,619.840404 C933.761,597.651904 945.6145,569.685104 955.8225,541.867704 C959.77562,526.010304 960.47094,509.481004 961.61547,493.265204 C963.33324,467.649004 956.65746,442.743704 952.65942,417.665604 C947.97973,401.656804 946.32837,384.870704 940.41042,369.192904 C937.09011,346.358904 944.18874,323.054204 938.70046,300.310104 C933.54909,264.301304 914.43586,231.125504 888.25416,206.138204 C879.70631,196.324724 869.90356,187.665504 858.88406,180.718304 C855.55496,178.340374 850.92898,176.537644 850.18777,172.024944 C840.81863,138.201744 835.19267,103.236844 821.87037,70.6079438 C812.14771,52.6714438 805.68677,33.1792438 796.18777,15.1587438 C793.43289,10.1128438 791.7366,3.63624376 786.04717,1.06494376 C782.99151,-0.145996236 779.77959,-0.264156236 776.69658,0.407716764 L776.69455,0.404970764 Z M777.35455,39.3922708 C781.56744,47.6120008 785.82525,55.8922708 788.41415,64.8121708 C792.30477,79.6002708 797.53134,94.0601708 801.58795,108.803371 C808.29107,127.473271 811.99815,147.016271 816.20615,166.359971 C807.00303,164.323841 797.35265,163.944931 788.28425,161.355091 C778.44441,152.878531 769.89755,143.211491 761.54695,133.301391 C749.49515,121.842391 736.88775,110.749591 722.43075,102.349291 C735.23645,85.2486908 750.20415,69.8892908 763.39165,53.0904908 C767.3897,47.9420508 772.35161,43.5319008 777.35455,39.3922708 L777.35455,39.3922708 Z M417.25755,45.5827708 C425.69017,44.4255408 433.95485,47.6286708 442.28295,48.6120708 C463.76245,51.0808208 484.49975,58.8249708 502.60525,70.4763708 C522.59935,85.7527708 544.70975,98.3103708 563.19215,115.521271 C578.45585,130.052471 594.25955,144.136471 607.71075,160.434371 C588.50275,160.601363 569.75565,165.049601 550.94315,168.468551 C541.03592,170.422651 531.24105,174.064251 521.04665,174.000781 C511.25173,162.740981 501.25465,151.748781 492.73025,139.492981 C473.14525,120.848481 453.82005,101.326981 430.03495,87.8620808 C417.34945,80.7546608 403.04865,77.0495808 388.67855,75.4811808 C384.47543,74.8718058 380.9305,77.0485608 378.14145,79.9597008 C393.90605,86.6306008 410.75965,91.4216008 424.37195,102.218501 C438.36705,113.773201 452.51845,125.545601 462.96375,140.546601 C473.30265,155.032901 485.52035,168.306401 494.70395,183.615901 C449.08575,204.058301 410.72935,237.076801 374.84895,271.202801 C358.28055,286.247701 343.20345,303.125701 331.38505,322.174501 C322.50224,334.667701 313.40365,347.100301 306.35965,360.767301 C299.16141,375.399101 289.14285,388.532901 283.17895,403.832701 C277.52954,418.262401 266.88105,429.856101 258.41725,442.689101 C253.4944,450.685191 246.06765,456.558201 239.84695,463.499601 C222.23075,482.793501 204.61645,502.656801 192.43195,525.930301 C178.51785,549.414701 168.49735,574.940101 160.95245,601.135401 C151.96807,576.960601 140.06475,553.982101 130.00035,530.278001 C123.81871,513.205701 123.27476,494.858101 122.09801,476.933301 C130.07946,481.523141 137.53161,487.378601 146.20051,490.632501 C155.01789,492.427421 165.36751,492.745781 172.41051,486.153981 C183.34311,476.817071 188.75331,463.015281 197.17121,451.645181 C208.22001,437.282881 216.50421,421.143181 226.01591,405.811181 C236.91531,388.209581 248.31081,370.902981 259.33821,353.391281 C272.15951,336.955781 287.36071,322.160781 297.79721,303.998681 C297.541351,303.034814 297.177093,302.052391 296.875335,301.100241 C287.704435,293.652001 276.848935,288.770141 266.713235,282.793641 C249.989635,272.999691 233.142935,263.376641 216.137035,254.080741 C203.238635,248.148121 189.705435,243.448941 176.228835,239.065141 C181.946605,229.577841 187.593135,219.972341 193.087235,210.352241 C219.462235,168.713541 257.455435,135.175441 300.167235,110.779041 C315.958235,100.760441 331.898635,90.9968408 348.241435,81.9352408 C360.362535,73.0211808 371.480735,62.6471408 383.935735,54.1442408 C394.179835,48.6110408 405.876135,47.0553708 417.257035,45.5836908 L417.25755,45.5827708 Z M522.75855,50.8502708 C541.28885,49.8795678 558.51055,57.6588608 575.57305,63.7574708 C598.07015,71.0260208 620.36115,79.5406708 641.29275,90.6265708 C661.15215,103.081671 681.82305,114.298471 701.35525,127.241771 C712.05645,136.283761 724.78595,142.650971 734.80935,152.528871 C703.11405,154.265201 671.16185,153.505433 639.58375,156.744691 C630.87867,145.420491 620.35325,135.760291 610.21265,125.792591 C595.22725,108.543591 578.56715,92.6021908 560.16185,79.0357908 C548.77415,68.2252908 534.65795,61.0045908 522.75855,50.8492908 L522.75855,50.8502708 Z M714.12955,189.673471 C739.16175,187.372691 764.01525,192.471321 788.94495,193.756481 C801.20765,194.29652 812.10605,198.015271 824.37365,202.186171 C844.41665,209.005511 861.60215,221.646171 874.68615,237.616871 C892.98405,263.945971 908.49865,293.866871 909.58945,326.520171 C901.20371,320.588531 892.95665,314.234071 883.38145,310.319971 C873.11095,306.014311 863.72915,299.810171 853.08555,296.359071 C826.06115,287.895201 797.67245,284.961571 769.44985,283.978171 C750.15195,283.610983 730.68325,281.005511 711.49675,284.10903 C696.95865,286.41079 682.20675,284.73403 667.77215,287.66567 C649.33955,289.10415 631.30735,293.20962 612.97825,295.30434 C574.97825,302.83071 538.28005,315.37364 500.63025,324.27994 C462.85975,333.78678 427.88905,351.20474 391.44325,364.31904 C375.72355,372.27412 358.68735,377.93234 343.76455,387.36884 C338.01943,390.904 331.71665,393.237 325.45595,395.66474 C335.27626,379.10324 344.48715,362.14224 355.88075,346.53774 C372.91195,320.25354 397.03895,299.83364 418.31435,277.12754 C426.74892,267.91856 436.63855,260.00454 447.02625,253.02404 C467.23135,240.51814 487.78505,228.33654 509.98235,219.56994 C529.49995,211.76135 550.56245,209.25354 571.09855,205.34534 C597.58875,201.4635 623.79675,195.38733 650.65125,194.28284 C671.79285,191.96839 692.94035,191.37561 714.13175,189.67249 L714.12955,189.673471 Z M46.75705,243.147471 C55.8801,244.252941 64.31075,249.734381 73.75705,250.260751 C91.89375,252.202161 108.97975,259.096691 126.96895,261.719751 C157.54705,266.199241 183.19745,284.446351 210.73655,297.017651 C225.04805,302.589921 238.63205,310.142651 253.54225,314.139751 C240.32935,329.820451 227.89775,346.135851 215.87335,362.742251 C207.34601,374.515651 200.10965,387.828151 192.95635,401.068451 C187.42998,411.262751 183.32451,420.528451 177.01985,429.385851 C168.8763,440.230551 162.22295,452.004051 154.49735,463.104651 C142.17115,453.565591 134.07255,440.370251 124.59985,428.332151 C97.81275,399.969851 87.62625,361.427851 69.14965,327.970151 C57.57545,308.240651 54.57735,285.013151 44.78245,264.485751 C41.60862,257.859771 39.55686,250.748451 37.27561,243.808051 C40.51096,242.834418 43.71799,242.780711 46.75999,243.148871 L46.75705,243.147471 Z M732.17555,313.348471 C742.34255,312.753744 752.58085,312.533041 762.73125,313.875815 C789.81815,315.868005 817.30545,317.066245 843.33765,325.466615 C856.87865,331.012515 870.27315,337.574015 881.66475,346.803515 C891.00166,354.220505 901.03485,361.785915 906.16275,372.881615 C915.20377,392.682415 917.34435,414.542715 923.15495,435.312315 C928.72819,454.633615 931.90886,472.746915 931.847264,492.741015 C919.03586,482.223415 905.97036,471.230315 889.96066,465.868915 C879.54656,461.825945 868.16376,461.390395 857.16576,460.336685 C849.93822,460.089615 840.71266,460.650162 836.75076,467.712665 C834.93826,472.625755 839.46072,477.117935 843.99685,478.117965 C855.82885,481.428515 868.11895,482.913865 879.82005,486.678515 C893.62575,491.340625 904.25555,501.619915 915.24875,510.651215 C920.9343,515.295745 925.2048,521.348515 929.60715,527.113115 C926.93332,535.405105 922.05149,545.900215 917.88745,553.586715 C903.08475,541.507615 889.51635,527.670715 871.12865,521.581815 C857.01345,515.784935 839.81515,511.001715 825.69015,519.342555 C818.94601,523.075955 819.97433,534.086655 827.5339,536.069155 C836.2341,537.707825 845.3923,537.442205 853.7419,540.812315 C868.531,546.762515 882.8845,554.434415 892.5993,567.944115 C894.93719,571.691185 899.32,576.236105 896.54657,580.853315 C889.81219,592.218515 879.41567,600.815215 870.46947,610.354315 C858.78487,622.442215 843.95577,630.765415 831.08667,641.439315 C818.72147,651.772315 803.76247,657.978415 789.99587,666.199115 C779.73027,671.708885 769.82697,678.129815 758.91087,682.270415 C751.16185,689.400295 740.89627,692.940315 731.77907,697.943315 C715.94507,706.643515 699.61697,708.003815 683.44217,715.855415 C668.58087,721.105415 651.65697,727.211815 635.89427,729.160115 C621.68427,731.093705 607.80247,735.180625 593.48407,736.136675 C577.55147,741.395465 560.99387,744.338825 544.22237,744.697225 C503.23897,747.730425 459.12277,757.942325 419.49437,750.759725 C398.72187,746.991175 378.82637,743.665975 358.24827,738.905225 C355.03147,738.174756 352.20237,736.428665 350.08225,733.898385 C349.02268,721.375885 350.646703,708.543885 354.03342,696.496085 C362.20822,674.411085 377.54712,655.993185 393.67892,639.203085 C400.67013,632.104455 412.79122,628.950185 415.01582,618.127885 C413.47285,612.379835 407.04316,610.715775 401.84492,611.935505 C387.17202,614.798785 374.54122,626.378905 364.17602,636.169905 C349.47782,649.962905 337.19652,666.334905 329.00902,684.771505 C323.48168,697.376005 322.42992,711.325205 320.57836,724.812505 C306.33036,718.970705 296.19066,709.767605 283.04126,701.893605 C290.31763,671.742205 303.66526,642.169005 326.76976,620.761805 C334.70042,611.011805 344.82736,603.392705 353.63886,594.553805 C359.0246,588.029395 350.54706,579.926805 343.76093,580.065505 C334.18476,581.142655 326.55093,585.544995 319.52553,591.520605 C305.29603,605.282305 290.82823,619.165105 281.06653,636.568505 C271.42005,651.514805 266.66713,668.745305 260.65153,685.300905 C243.65933,673.038205 229.07043,660.085105 217.18763,642.890705 C208.87122,631.544005 200.25603,619.890705 195.45523,606.538205 C199.15347,591.534305 203.77945,576.771605 209.15343,562.284305 C220.52253,541.546005 232.44833,520.668105 249.06163,503.542105 C261.22083,491.495205 271.80483,477.818505 285.54503,467.454205 C297.47373,456.518705 311.54603,448.246205 323.34683,437.158305 C333.39173,428.300885 346.05583,423.275505 357.06463,415.822405 C381.67203,399.176905 407.90053,391.585105 433.84983,380.654405 C444.85573,376.777455 457.07343,372.591905 468.09783,368.670005 C497.83223,358.811605 519.45033,352.687605 546.06663,345.090905 C558.87623,339.737385 572.40453,336.228605 585.97773,333.501105 C624.15253,325.076305 662.91423,319.300905 701.74873,314.930805 C711.92063,314.863422 722.00653,313.945453 732.17553,313.350725 L732.17553,313.348772 L732.17555,313.348471 Z M673.32555,391.299471 C670.3236,391.446932 667.39,392.195955 664.60778,393.708651 C657.97594,396.894201 652.41638,402.435211 649.46908,409.192051 C646.61459,418.027011 648.15853,427.440051 648.607752,436.490851 C649.199549,450.449851 661.261052,460.621751 672.751352,466.651051 C681.496472,471.205741 692.318752,467.243824 696.778652,458.741871 C701.992522,449.319021 704.047202,438.294571 704.235682,427.656871 C702.971032,419.346321 700.399742,411.063071 696.320642,403.687171 C691.541342,396.014321 682.330442,390.854171 673.325542,391.299471 L673.32555,391.299471 Z M496.63655,427.486471 C493.82307,427.172994 490.951,427.338785 488.03499,428.172994 C477.23129,432.892724 468.31139,443.638794 467.90219,455.757994 C466.57797,470.865394 467.844573,487.802894 478.45489,499.630994 C490.74489,510.750094 512.64139,504.965954 521.06719,491.773574 C527.7752,475.338074 524.93535,456.555774 518.08281,440.619274 C512.81523,433.982554 505.07501,428.432774 496.63651,427.485474 L496.63651,427.48645 L496.63655,427.486471 Z M652.09855,526.848471 C647.49406,527.319174 642.37492,527.252768 638.53015,530.141441 C632.6571,536.041831 636.77624,543.867041 634.18249,551.876841 C629.28698,566.908041 622.80359,582.014541 612.45199,594.287041 C602.04179,605.078041 586.40999,601.748951 573.46469,599.684501 C564.1141,598.190361 552.95099,587.946201 544.48909,596.525321 C539.1053,604.580011 544.501785,614.710821 550.28597,621.023321 C569.64237,631.962821 592.37287,629.921761 613.76737,630.245001 C613.763464,645.796801 622.22538,659.692301 632.33767,670.940301 C640.64333,680.026241 653.84837,680.703971 665.39727,680.820181 C679.46857,680.304556 688.79567,668.360181 695.95687,657.771381 C700.76253,645.513581 702.26156,632.196181 700.30062,619.179581 C715.03892,621.929581 729.50082,615.115131 740.07602,605.216681 C746.86508,598.836801 759.00572,594.735281 758.38362,583.617081 C756.87971,578.088761 755.39924,567.858281 747.58282,569.128781 C736.69802,576.577021 728.71072,587.623881 716.23812,592.047681 C705.55942,595.826001 693.37292,585.999831 687.52622,576.769381 C679.91587,564.897281 670.31922,553.751781 667.24102,539.626781 C666.03887,532.712721 659.64043,525.761581 652.09842,526.847481 L652.09842,526.848457 L652.09855,526.848471 Z M654.86255,579.928471 C660.76294,588.951911 666.97295,597.849371 672.37915,607.195071 C674.95435,611.184331 674.86938,616.039801 675.1477,620.629671 C675.484614,628.750761 675.860591,637.518371 671.71997,644.863071 C667.01782,651.809361 655.34697,654.039831 649.32937,647.497841 C643.91824,641.624791 639.553,634.377741 637.73957,626.557441 C635.87727,620.778141 640.18488,615.963641 642.61262,611.145341 C648.33332,601.422681 651.87727,590.721541 654.86162,579.930541 L654.86255,579.928471 Z"></path>
  </g>
</svg>