<?xml version="1.0" standalone="no"?>
<!DOCTYPE svg PUBLIC "-//W3C//DTD SVG 1.1//EN" "http://www.w3.org/Graphics/SVG/1.1/DTD/svg11.dtd" >
<svg xmlns="http://www.w3.org/2000/svg" xmlns:xlink="http://www.w3.org/1999/xlink" version="1.1" viewBox="-11 0 1046 1024">
   <path fill="currentColor"
d="M924.759 -31.96c-16.5859 3.53906 -20.833 6.16895 -56.1279 34.8896c-13.3496 10.8213 -33.2715 26.9014 -44.1943 35.5986c-22.4502 18.001 -28.3164 23.9678 -33.4736 34.3838l-3.53906 7.38281l-48.8467 34.2842c-26.9014 18.9111 -51.8799 36.5088 -55.6221 39.1377
l-6.67383 4.75391l-6.47363 -4.34766l-6.47266 -4.4502l-107.704 -15.8779c-59.2627 -8.69727 -108.716 -16.0801 -109.829 -16.3828c-1.71875 -0.302734 -3.03418 -2.52832 -5.46094 -9.20312c-4.04492 -11.0244 -13.6523 -29.7334 -16.5859 -32.3623
c-2.93262 -2.73047 -25.9912 -16.3828 -27.6084 -16.3828c-1.61816 0 -1.61816 0.101562 -0.203125 -4.04492c0.90918 -2.52832 2.3252 -3.74219 6.47266 -5.56152c5.9668 -2.73145 6.47266 -3.74219 8.5957 -19.5186c1.0127 -7.28125 0.910156 -8.79883 -0.40332 -10.9219
c-1.31543 -1.92188 -1.51758 -4.04492 -1.0127 -10.9219l0.708008 -8.5957l-3.64062 -1.71973c-2.32617 -1.1123 -4.14648 -3.0332 -5.36035 -5.66406c-2.83203 -6.37109 -11.5283 -14.5625 -19.3154 -18.3047c-6.67383 -3.13477 -7.28125 -3.23633 -20.0244 -3.23633
c-12.1348 0 -13.5508 0.203125 -19.0117 2.73145c-10.9219 5.1582 -20.9346 17.0908 -22.5518 26.7998c-0.506836 3.33789 -1.21387 4.4502 -3.43848 5.36035c-6.06836 2.52734 -6.57422 4.04492 -6.57422 18.5068c0 15.1699 0.505859 16.7881 6.57422 19.6201
c2.22461 1.01172 4.04492 2.32617 4.04492 3.03418c0 0.606445 0.203125 1.81934 0.505859 2.52734c0.404297 1.11328 -3.23535 2.52832 -15.5732 5.76465c-8.89941 2.42676 -17.3955 5.15723 -19.0127 6.16895c-2.22461 1.31445 -3.94336 4.34766 -7.58496 13.7539
c-6.97754 17.3945 -10.416 30.1367 -12.9443 47.835c-3.23633 22.249 -1.92285 31.7549 6.16895 43.9922c1.71875 2.62891 3.0332 4.85352 2.83203 5.05664c-0.202148 0.203125 -10.6191 7.28125 -23.1592 15.7764c-30.0361 20.4277 -80.1973 57.9473 -82.8262 61.9941
c-3.53906 5.46094 -9.40527 78.5781 -10.8213 136.932l-0.708008 26.5977l-16.7881 14.9668c-25.3838 22.4512 -46.4189 42.6777 -74.9375 71.6016c-32.5645 33.0703 -33.0703 33.6768 -34.8906 42.4746c-1.71875 8.29297 -3.94336 33.4746 -3.33789 38.7334
c0.404297 3.13477 -0.40332 4.85352 -5.9668 12.9453c-19.6201 28.2158 -26.0918 61.791 -19.9229 102.143c5.86621 38.126 30.9463 72.6123 56.8359 78.0732c3.84277 0.808594 110.233 1.1123 382.883 1.1123h377.422l7.0791 -4.14551
c16.4854 -9.91113 39.7451 -30.542 54.8145 -48.543c22.957 -27.5078 44.9014 -70.5898 56.1279 -110.132c10.416 -36.6104 14.8662 -69.2754 15.3721 -113.773l0.40332 -26.2939l14.4629 -10.416c17.1914 -12.4385 18.709 -13.7539 19.5176 -17.3945
c0.910156 -4.34863 -1.01172 -10.0127 -9.10156 -27.002c-18.8115 -39.3408 -41.2617 -63.5107 -69.377 -74.8389c-15.4727 -6.26953 -66.2402 -13.2471 -108.816 -15.0684c-18.8115 -0.80957 -17.3955 0.203125 -17.5967 -12.54
c-0.101562 -9.91113 -1.71973 -15.9795 -4.95508 -18.3047c-1.82031 -1.31543 -6.57422 -2.32617 -16.1816 -3.53906c-7.4834 -0.910156 -13.7539 -1.71973 -13.9561 -1.82031c-0.100586 -0.203125 -0.708008 -4.14648 -1.21289 -8.79883
c-1.41602 -11.3271 -5.46094 -28.0137 -10.2148 -42.2734c-2.22461 -6.37109 -3.94434 -11.7305 -3.94434 -11.832c0 -0.203125 4.85449 -2.93262 10.9229 -6.06738c5.9668 -3.23633 31.0469 -16.6865 55.7236 -29.9355l45.0029 -24.0684h8.49512
c4.65234 0 11.2246 -0.708008 14.6641 -1.61816c4.95508 -1.31543 36.0029 -14.1582 110.435 -45.7119c5.46094 -2.32617 15.0693 -8.69727 21.541 -14.1582c10.5186 -9 19.8213 -24.0693 23.665 -38.5312c2.62891 -10.0117 2.93359 -29.833 0.505859 -39.7451
c-7.68555 -31.5527 -35.4971 -57.0381 -66.8477 -61.3867c-10.416 -1.51758 -22.8564 -1.31543 -30.9463 0.505859zM954.087 -16.2842c18.3047 2.93359 35.0928 14.6641 45.3057 31.4521c9.10254 15.2705 11.5293 37.1152 5.76465 53.3984
c-6.37109 18.1016 -23.3623 34.6875 -40.958 39.9463c-7.68652 2.32617 -24.5752 3.13574 -32.5645 1.61816c-21.9453 -4.34766 -42.374 -22.249 -49.4531 -43.2842c-1.21289 -3.84277 -2.42676 -10.7197 -2.83203 -16.3828l-0.606445 -9.70898l-2.42676 6.06836
c-1.31543 3.33789 -2.73145 8.89844 -3.03418 12.4385l-0.607422 6.27051l-35.3955 24.3721l-35.3965 24.2715l-0.808594 -4.34766c-2.32617 -12.4395 1.61816 -28.2158 9.70898 -37.9248c6.77539 -8.19238 57.0381 -50.4639 86.1641 -72.4102
c19.5176 -14.8662 35.7002 -19.3164 57.1387 -15.7764zM382.999 -1.11426c10.1133 1.51758 19.3164 3.94434 20.125 5.25781c1.31543 2.02344 0.910156 10.2158 -0.808594 15.7764c-1.51758 5.25781 -1.51758 5.25781 -5.25879 4.95508
c-3.33789 -0.302734 -3.84277 -0.708008 -5.35938 -4.85352c-1.61816 -4.24805 -2.02344 -4.65234 -6.37109 -5.46191c-6.16895 -1.1123 -8.89941 -0.302734 -11.125 3.43848c-1.01172 1.71875 -2.93359 3.53906 -4.34863 4.14551
c-2.83105 1.0127 -14.0566 1.21387 -19.7207 0.303711c-3.33789 -0.607422 -3.94336 -1.11328 -4.85352 -4.34863c-0.505859 -2.02246 -1.0127 -6.67383 -1.0127 -10.416c0 -9.80859 0.203125 -9.91016 17.293 -9.91016c7.78711 0 17.4961 0.505859 21.4404 1.1123
v0.000976562zM387.246 27.1006c0.808594 2.42773 2.12305 4.0459 4.34766 4.95508c3.84277 1.71973 3.84277 1.92188 1.11328 10.7207c-1.92188 6.16895 -2.42676 6.87695 -6.27051 8.69629c-5.66309 2.52832 -12.8438 2.42773 -19.0117 -0.203125
c-5.86621 -2.52734 -7.88867 -5.66309 -8.69727 -13.5508l-0.606445 -5.25781l6.47266 -0.708008c8.19238 -1.01172 12.1348 -2.62891 13.9561 -6.06836c1.21289 -2.12305 2.12305 -2.62891 4.55078 -2.42676c2.42871 0.202148 3.23633 1.01172 4.14648 3.84277
h-0.000976562zM333.95 74.3301c20.6309 20.5303 53.5986 24.3721 63.915 7.58496c3.03418 -4.95508 3.23535 -5.05664 6.37109 -4.14648c8.69629 2.42773 8.79883 2.52832 8.79883 9.91113c0 6.27051 1.31445 17.7988 2.62891 22.8564
c0.505859 2.22461 0.302734 2.22461 -11.4277 2.83203c-7.58496 0.404297 -14.6641 1.41602 -19.5186 2.83203c-4.14551 1.21289 -20.125 8.29297 -35.2939 15.6758c-22.0469 10.7197 -28.0127 13.3496 -28.9229 12.3379
c-2.02344 -2.22461 -12.9453 -20.125 -12.54 -20.5303c0.302734 -0.202148 2.93262 1.21387 5.9668 3.13574l5.5625 3.53906l0.302734 -9.40527c0.505859 -11.832 -1.21289 -26.7998 -4.4502 -39.1377c-1.31445 -5.25879 -2.22461 -9.80957 -1.92188 -10.1133
c0.404297 -0.302734 3.64062 -1.11328 7.38281 -1.71875c3.74219 -0.708008 6.87695 -1.21387 7.0791 -1.31543c0.101562 0 2.83203 2.52832 6.06836 5.66406zM791.265 103.151c0 7.28027 2.42773 17.7988 5.36035 23.9678l2.32617 5.05664l-97.0859 59.1621
c-53.498 32.4629 -97.5918 58.7568 -97.9961 58.252c-0.505859 -0.404297 -1.11328 -3.53906 -1.41602 -6.97754c-0.708008 -7.28125 1.31445 -13.5518 5.66406 -17.6982c2.93262 -2.83203 181.126 -126.818 182.44 -126.92
c0.404297 -0.101562 0.708008 2.32617 0.708008 5.1582zM537.426 148.964c64.2178 9.20312 117.716 16.8887 118.829 17.1924c1.11328 0.203125 2.83203 1.01172 3.84277 1.71875c1.61816 1.21289 0.303711 2.42676 -12.9443 11.7314l-14.6641 10.416l-66.7461 -9.20312
c-42.0713 -5.76465 -68.1621 -8.89941 -70.3867 -8.49512c-3.94434 0.708008 -12.0352 5.76367 -12.9453 8.08984c-0.302734 0.808594 0.808594 6.67383 2.42676 13.0459c3.94434 15.2705 6.87695 36.0029 7.68652 54.3076
c0.708008 14.2607 0.606445 14.9678 -1.21387 14.9678c-3.33789 0 -56.3291 -7.0791 -56.8359 -7.48438c-0.202148 -0.302734 -1.01172 -6.77637 -1.81934 -14.3604c-2.62891 -27.002 -8.89941 -53.8018 -19.3164 -83.2305
c-3.03418 -8.69727 -5.76367 -17.0908 -6.06738 -18.6084c-0.80957 -4.4502 1.92188 -6.77539 8.19141 -6.77539c2.83203 0 57.7461 7.4834 121.964 16.6855zM565.237 195.485c26.5977 3.64062 48.543 6.77539 48.7451 6.97754
c0.201172 0.202148 -4.14648 3.43848 -9.6084 7.17969c-5.76367 3.94434 -10.6191 7.88965 -11.3271 9.50684c-2.52832 5.35938 -7.98926 21.2363 -12.6406 36.5088c-2.62891 8.5957 -5.05762 15.9785 -5.46094 16.3828
c-0.303711 0.404297 -13.248 -0.708008 -28.7217 -2.42676c-24.3721 -2.83203 -28.0127 -3.43848 -27.4062 -4.75391c0.40332 -0.910156 2.22461 -5.96777 4.14551 -11.3271c7.17969 -20.9346 5.25781 -40.3516 -5.76367 -57.4434
c-2.22559 -3.4375 -4.04492 -6.47266 -4.04492 -6.67383c0 -0.910156 3.84277 -0.505859 52.083 6.06836v0.000976562zM718.856 243.421c3.74121 9.50586 8.29297 28.1143 9.70898 39.3398c0.606445 5.1582 1.01172 9.6084 0.808594 9.70898
c-0.302734 0.404297 -29.3281 -3.13477 -32.8682 -3.94336c-2.12305 -0.506836 -2.12305 -0.607422 -0.505859 -5.25879c1.21289 -3.53906 1.61816 -9.20215 1.71875 -21.4395l0.101562 -16.4854l8.08984 -4.4502c4.34766 -2.42676 8.49512 -4.44922 9.20312 -4.44922
c0.606445 0 2.32617 3.13477 3.74219 6.97754h0.000976562zM682.044 269.513c-0.505859 4.55176 -1.41602 10.2148 -2.12305 12.4395c-1.01172 3.33789 -1.61816 4.04492 -3.84277 4.04492c-4.55078 -0.100586 -38.6318 -4.85449 -39.3398 -5.5625
c-1.61816 -1.5166 2.73047 -4.34766 23.0576 -15.0684l21.7432 -11.4277l0.708008 3.64062c0.404297 2.02246 0.302734 7.38281 -0.203125 11.9336zM600.027 292.57c89.1973 10.8203 162.619 19.7207 163.125 19.7207c0.40332 0 0.808594 2.93262 0.808594 6.57422v6.57422
h-11.4277c-14.3604 0 -17.293 1.41602 -25.4854 11.832c-4.04492 5.25781 -6.37109 7.38281 -7.88867 7.38281c-1.21289 0 -34.1826 -3.33789 -73.1182 -7.48438l-70.9941 -7.38281l-5.86621 -5.25781c-18.1016 -16.1816 -39.8447 -26.1934 -67.0498 -30.9463
c-18.4062 -3.13477 -59.8691 -7.58496 -71.0947 -7.58496c-1.61816 0 -1.82031 -1.01172 -1.82031 -7.17969v-7.0791l4.34863 0.606445c2.3252 0.303711 77.2637 9.40527 166.462 20.2275zM430.227 303.594c50.2637 3.43848 64.3203 5.1582 84.1416 10.2148
c13.8545 3.43848 19.9229 6.06836 28.2158 11.832c15.5742 10.8213 31.1494 29.9355 40.3506 49.5547c3.74219 7.98828 8.19238 20.2266 7.68652 20.7314c-0.607422 0.708008 -163.833 -13.8545 -164.44 -14.5625c-0.40332 -0.404297 -1.92188 -4.4502 -3.53906 -8.89941
c-8.19141 -23.665 -22.1465 -42.1709 -38.0244 -50.5654c-8.39453 -4.34863 -8.29297 -4.34863 -27.2041 1.71875c-24.5752 7.98926 -60.6787 23.4619 -94.0518 40.3506c-15.2705 7.68652 -23.9688 12.2373 -55.6221 29.3281
c-5.36035 2.93359 -5.46094 2.93359 -2.52832 0.404297c3.74219 -3.23633 32.0586 -22.3506 45.0029 -30.542c38.835 -24.2725 81.5117 -45.0029 118.829 -57.6455l13.1475 -4.44922l12.6406 0.505859c6.97754 0.302734 22.8555 1.21289 35.3955 2.02246v0.000976562z
M801.379 344.653c33.9805 1.81934 82.1191 8.19141 96.5811 12.8438c18.6084 5.9668 35.9014 20.2266 49.959 41.1611c5.25781 7.88867 15.5742 25.9912 17.1924 30.2393c1.01172 2.52734 0.910156 2.73047 -1.71973 2.73047
c-3.64062 0 -128.841 -12.0352 -129.043 -12.3379c-0.100586 -0.203125 -1.21289 -4.34766 -2.42676 -9.40527c-6.87695 -27.5078 -25.6875 -49.7568 -53.0938 -62.8018c-4.24805 -2.02344 -7.78711 -3.74219 -7.78711 -3.94434
c0 -0.100586 2.12305 -0.100586 4.85352 0.101562c2.62988 0.203125 14.0576 0.808594 25.4854 1.41602zM656.458 355.777c68.5674 6.57324 71.0947 6.97754 87.0742 14.8652c19.7207 9.6084 34.5869 23.4629 42.0703 39.0361
c5.96777 12.4395 7.88965 21.2373 8.49512 39.542l0.505859 15.0693l-4.44922 -0.607422c-2.42773 -0.302734 -50.5664 -4.75391 -106.794 -9.91016l-102.446 -9.40527v-13.3506l14.1582 -13.4492c12.8438 -12.1357 14.1582 -13.7539 14.1582 -16.8896
c0 -7.58496 -10.5186 -34.9912 -18.4062 -47.7334l-2.02344 -3.23633h2.52832c1.41602 0 30.7441 2.73145 65.1289 6.06836v0.000976562zM385.628 408.265c15.8779 30.9463 20.2275 70.791 12.1348 110.839c-7.28027 35.9014 -27.3047 69.2754 -51.1729 85.0518
c-12.8438 8.5957 -20.3271 10.9219 -35.1934 11.0234c-10.0127 0 -13.248 -0.40332 -18.8115 -2.32617c-13.3496 -4.55078 -25.8887 -15.0684 -35.9014 -30.1367c-13.5508 -20.3271 -20.4277 -42.6768 -22.1465 -71.9043l-0.708008 -10.9219l5.86621 -4.04492
c3.23535 -2.22461 6.26953 -4.24805 6.67383 -4.34766c0.404297 -0.203125 0.808594 4.4502 0.808594 10.2148c0 5.86621 0.303711 11.3271 0.607422 12.2373c0.505859 1.31445 2.32617 1.61816 9 1.61816c4.55078 0 10.416 0.302734 12.9453 0.606445l4.55078 0.607422
l1.61816 6.77539c0.808594 3.6416 1.92188 7.78711 2.22461 9.10254l0.708008 2.42676l-13.248 -0.505859c-14.8662 -0.607422 -14.3604 -0.910156 -12.1348 6.37109l1.1123 3.94336h27.9131l3.6416 7.18066c6.87695 13.7539 16.2822 24.6758 26.1924 30.2393
l4.95508 2.93262l-3.94336 0.808594c-5.76465 1.21289 -20.5303 0.910156 -24.6768 -0.505859c-3.23535 -1.11328 -3.33789 -1.01172 -1.61719 0.302734c3.74121 2.83203 13.248 5.86621 20.3262 6.27051c8.29395 0.607422 20.4287 -2.22461 27.6094 -6.37109
c6.06836 -3.53906 16.4854 -13.5508 22.3496 -21.4404c22.957 -31.0469 31.4521 -80.6016 20.7324 -120.649c-2.42676 -9 -9.10156 -24.2725 -13.4502 -30.8447l-2.12305 -3.13574l7.88965 -5.66406c4.24805 -3.13477 8.29297 -5.66406 9 -5.76367
c0.606445 0 3.4375 4.55078 6.26953 10.0117zM502.536 430.615c34.2842 2.22461 63.207 4.04492 64.3203 4.04492c1.81934 0 1.92188 0.910156 1.92188 20.7314v20.833l-4.75391 -0.606445c-2.73145 -0.302734 -11.832 -1.01172 -20.4287 -1.61816
c-12.54 -0.910156 -15.6758 -0.808594 -16.3828 0.203125c-0.404297 0.708008 -1.11328 4.65234 -1.5166 8.79883c-0.505859 5.76367 -0.303711 7.78711 0.708008 8.79883c1.21289 1.0127 29.2266 3.53906 39.7451 3.53906c1.81934 0 1.92188 0.607422 1.31445 12.3379
c-0.708008 11.7314 -4.55078 46.3184 -5.36035 47.2285c-0.202148 0.203125 -9.30371 -0.203125 -20.2266 -0.80957c-16.2822 -1.01172 -20.2266 -1.01172 -21.2373 0.101562c-0.708008 0.708008 -1.92188 4.65137 -2.62891 8.5957
c-1.01172 5.86621 -1.01172 7.58496 0 8.5957c0.910156 0.910156 7.78711 1.71973 20.4287 2.42773c10.6182 0.606445 19.417 1.31445 19.6191 1.5166c0.80957 0.808594 -6.47266 29.7334 -11.125 44.0928l-4.75391 14.4619l-6.16895 -0.100586
c-3.33789 0 -12.7432 -0.404297 -20.833 -0.910156c-10.8203 -0.606445 -15.1699 -0.505859 -16.4844 0.302734c-2.32617 1.51758 -7.88965 14.3604 -7.18066 16.3838c0.80957 2.02246 3.53906 2.3252 23.9688 3.13477c9.80859 0.302734 17.9004 1.01172 17.9004 1.41602
c0 2.32617 -15.3721 30.8447 -22.0469 40.958l-7.88867 11.9336l-46.4189 -0.404297l-5.05762 6.27051c-9.80859 12.1348 -9.50586 12.9453 3.94434 13.1465c5.05664 0.101562 13.7539 0.404297 19.2148 0.80957l10.1133 0.606445l-7.38281 6.37109
c-8.59668 7.38379 -18.8115 14.3604 -29.5303 20.3271l-7.68652 4.14648l-139.864 -0.505859l9 -6.87695c51.5771 -39.1387 93.9502 -116.2 111.245 -202.466c5.56152 -27.71 7.88867 -49.5537 9.4043 -89.8047l1.21289 -32.0586h4.24805
c2.42773 0 32.3623 1.81934 66.6465 4.04492zM879.452 465.606l54.3076 4.85352l0.505859 4.04492c0.303711 2.32617 0.708008 8.79883 1.0127 14.4619l0.40332 10.416h-4.65137c-2.62891 0 -11.125 -0.505859 -18.8115 -1.11328
c-11.3271 -0.808594 -14.3594 -0.808594 -15.2695 0.303711c-1.92188 2.02246 -2.83203 15.4727 -1.21289 16.8887c0.708008 0.505859 9.91113 1.61816 20.4277 2.32617l19.0117 1.21289l-0.708008 11.4277c-0.606445 11.5293 -2.73047 29.2275 -4.85352 39.9473
l-1.11328 5.86621h-7.17969c-3.94434 -0.101562 -13.248 -0.505859 -20.7324 -1.01172c-7.4834 -0.404297 -14.1582 -0.607422 -14.8662 -0.303711c-1.71875 0.607422 -5.35938 14.5635 -4.34766 16.5859c0.808594 1.71973 2.93262 1.92188 31.0469 3.53906
c8.69727 0.505859 11.3271 1.0127 11.3271 2.12305c0 2.42676 -11.6299 36.8125 -14.8662 43.79l-2.93262 6.57422l-12.6416 -0.708008c-6.87695 -0.302734 -16.9893 -0.708008 -22.4502 -0.708008l-9.80957 -0.100586l-3.74219 7.4834
c-2.02246 4.04492 -3.33789 8.08984 -3.0332 9c0.606445 1.61816 4.14551 2.12305 29.2266 3.43848l13.7539 0.808594l-7.0791 12.1348c-3.84277 6.67383 -10.5176 17.0908 -14.7656 23.1592l-7.78711 10.9219l-46.5215 -0.203125l-5.86523 7.28125
c-3.23633 3.94434 -5.76465 7.88867 -5.5625 8.79883c0.302734 1.31543 2.83203 1.71973 15.9795 2.32617c8.5957 0.404297 17.4961 0.910156 19.6201 1.01172l4.04492 0.303711l-8.59668 7.17969c-4.65137 4.04492 -12.0352 9.80859 -16.4844 12.9453l-7.88965 5.66406
h-110.94l17.4961 -17.4961c18.6074 -18.5068 29.833 -32.4629 41.666 -51.9824c26.2939 -43.1826 44.9014 -99.4121 52.3857 -158.067c2.22461 -17.3955 3.94434 -45.7129 3.53906 -59.0605l-0.404297 -11.832l2.52832 0.505859
c1.41602 0.303711 27.002 2.62891 56.8359 5.25781zM213.2 544.893c0.910156 4.0459 1.41602 7.68652 1.21289 7.98926c-0.404297 0.607422 -12.9453 9.20312 -57.1387 39.1377l-18.1025 12.2373l-5.1582 -6.87695c-2.83203 -3.84277 -7.28027 -8.5957 -10.0117 -10.7197
c-2.62891 -2.12305 -4.85352 -4.34863 -4.95508 -4.85449c-0.100586 -0.606445 20.4277 -15.4727 45.5088 -33.0693l45.7119 -32.0596l0.708008 10.416c0.404297 5.76465 1.41602 13.7539 2.22559 17.7988zM107.821 604.965
c5.46094 6.87695 12.4385 21.4404 15.0684 31.4521c4.34863 17.0908 3.43848 43.4863 -2.22461 62.5996c-6.06836 20.3271 -21.4404 40.7559 -36.0029 47.7344c-4.75391 2.22461 -7.68652 2.93262 -14.9668 3.23633
c-5.05762 0.203125 -11.0244 -0.101562 -13.3506 -0.708008c-6.57324 -1.82031 -15.8779 -8.59668 -21.1367 -15.5742c-10.2148 -13.5508 -16.1807 -30.542 -17.293 -49.251c-0.505859 -9.30371 0.910156 -30.1367 2.32617 -33.6768
c0.40332 -1.21289 8.69727 -6.87695 9.20312 -6.37109c0.203125 0.203125 -0.303711 3.23535 -1.21289 6.77539c-1.71973 7.38379 -3.13574 28.6201 -2.12305 32.665c0.606445 2.52832 0.808594 2.62891 9 2.62891h8.29297l3.23535 12.1357h-9
c-8.89844 0 -9 0 -8.39355 2.22461c1.11328 3.64062 1.71875 3.84277 10.9219 4.55078l8.79883 0.607422l3.13477 5.66406c3.53906 6.16895 13.248 16.8887 16.1816 17.7988c1.1123 0.404297 1.92188 1.01172 1.92188 1.5166c0 1.41602 -10.9219 2.32617 -15.1699 1.21289
c-5.66406 -1.41504 -4.04492 0.303711 2.12305 2.32617c6.77539 2.32617 17.1914 1.61816 23.5625 -1.41602c5.76465 -2.83203 14.7666 -11.7305 19.9229 -19.5176c15.4736 -24.0693 17.7998 -61.6904 5.25879 -87.6797
c-3.43848 -7.18066 -12.7432 -18.001 -17.9014 -20.833c-1.61816 -0.910156 -1.21289 -1.51758 4.04492 -5.25879l5.9668 -4.14551l2.83203 2.02246c1.61816 1.11328 4.75391 4.34863 6.97852 7.28125zM201.063 605.875l4.75391 5.86621l-14.8662 7.0791
c-8.19238 3.84277 -15.0693 6.87695 -15.1699 6.67383c-1.0127 -0.910156 -2.32617 -11.3271 -1.61816 -12.0352c1.01172 -1.01172 21.8438 -13.8555 22.0469 -13.6533c0.100586 0.101562 2.22461 2.83203 4.85449 6.06836zM285.205 639.754
c8.08984 4.14648 15.7764 15.9795 19.2148 29.5303c2.52832 9.60742 2.22461 27.4072 -0.505859 38.9346c-4.85449 20.3271 -17.1924 38.3291 -31.0469 45.1055c-5.76465 2.83203 -7.0791 3.13477 -14.3604 2.83203c-10.5176 -0.505859 -15.9785 -3.74219 -22.5518 -13.3506
c-7.48438 -10.8203 -9.50586 -18.5068 -9.50586 -36.1035c0 -17.9014 1.81934 -26.6982 8.08984 -39.2393c7.78711 -15.3721 17.6982 -25.4854 28.7207 -29.0234c6.37109 -2.02344 16.5859 -1.41602 21.9463 1.31445h-0.000976562zM187.613 662.408
c10.6191 5.9668 17.0908 20.7314 17.0908 38.9346c0 18.5068 -5.1582 33.8789 -15.3721 45.2061c-11.7314 13.1475 -28.1143 14.5635 -38.0254 3.13477c-7.4834 -8.39355 -11.3262 -20.3262 -11.3262 -34.4854c0 -19.1143 5.66309 -34.2842 17.1914 -46.1162
c7.38281 -7.48438 10.1133 -8.69727 20.125 -8.79883c4.85449 -0.101562 7.38281 0.40332 10.3154 2.12305zM933.861 -5.66504c-20.3271 5.36035 -35.4971 22.3496 -38.5312 43.082c-0.910156 6.47266 -0.808594 9.10156 0.606445 16.0801
c2.32617 11.6299 5.66406 18.2041 13.7549 26.6982c11.3262 11.9336 22.3496 16.6855 38.9346 16.6855c15.5742 0 26.7998 -4.85352 38.3291 -16.6855c4.55078 -4.65234 9.10156 -11.5293 8.08984 -12.4395c-0.100586 -0.203125 -13.4502 3.53906 -29.5303 8.29297
s-30.0361 8.69727 -31.0469 8.69727c-0.910156 0 -3.64062 -1.01172 -5.9668 -2.12305l-4.24805 -2.22461l4.04492 -1.92285c2.22559 -1.01172 19.3164 -9.10156 37.9248 -17.9004l33.8789 -15.9795l0.303711 -3.4375
c0.302734 -4.04492 -1.92188 -11.0244 -3.94434 -12.3379c-1.01172 -0.607422 -12.6406 5.66406 -40.251 21.541c-21.3389 12.3379 -39.3398 22.1465 -40.0479 21.9453c-1.92188 -0.808594 -6.77637 -9.70898 -6.97852 -12.8438
c-0.100586 -2.32617 3.94434 -6.47266 28.9238 -29.6318c18.4053 -17.0908 29.7324 -27.002 31.0469 -27.002c1.21289 0 4.44922 0.910156 7.38281 2.02246l5.36035 1.92285l-3.43848 -2.93359c-4.95508 -4.24805 -13.9561 -8.69727 -20.125 -10.0117
c-7.28125 -1.51758 -17.6982 -1.31543 -24.4736 0.505859h0.000976562zM438.925 149.571c-3.33789 2.62891 -3.53906 7.58496 -0.505859 11.4277c4.34766 5.46094 12.0352 2.12305 12.0352 -5.25781c0 -7.28125 -5.9668 -10.5186 -11.5293 -6.16895v-0.000976562z
M449.442 193.159c-2.52832 4.04492 -1.92285 7.4834 1.61719 10.6191c3.23633 3.0332 5.96777 2.93262 9 -0.203125c5.1582 -5.05762 2.02344 -13.6533 -4.9541 -13.6533c-3.03418 0 -4.0459 0.607422 -5.66406 3.23633zM456.724 237.454
c-3.23535 3.03418 -3.74121 6.47266 -1.5166 10.3145c4.24805 7.38379 14.4619 3.23633 13.0459 -5.25781c-1.01172 -6.37109 -7.17969 -9.10156 -11.5293 -5.05664zM605.69 421.715c-4.95508 2.83203 -5.96777 7.88867 -2.42773 12.3379
c4.4502 5.66406 14.1582 2.02344 14.0576 -5.35938c-0.101562 -3.03418 -1.61816 -5.36035 -4.75391 -6.97852c-2.73145 -1.5166 -4.24805 -1.5166 -6.87695 0h0.000976562zM659.39 428.693c-2.02246 1.61719 -2.62891 2.93262 -2.62891 5.9668
c0 7.28125 8.49512 10.7197 13.6533 5.56152c7.38281 -7.28027 -2.83203 -18.001 -11.0244 -11.5283zM714.406 434.863c-5.46094 5.86523 0.708008 15.6758 8.29297 13.0459c9.10156 -3.23633 7.38281 -15.2705 -2.22559 -15.2705
c-2.73047 0 -4.55078 0.708008 -6.06738 2.22559v-0.000976562zM765.578 439.312c-4.34766 4.24805 -4.24805 9.10254 0.100586 12.54c3.43848 2.62988 6.67383 2.52832 9.80957 -0.302734c3.53906 -3.13477 4.14551 -6.57422 1.61816 -10.6191
c-1.71973 -2.73047 -2.52832 -3.23535 -5.96777 -3.23535c-2.3252 0 -4.65137 0.708008 -5.56152 1.61719h0.000976562zM259.72 654.519c-12.1348 5.36035 -22.957 25.2822 -24.3721 44.7002l-0.606445 8.49512h5.56152c5.9668 0 6.87695 0.708008 6.87695 5.66406
c0 2.22461 -0.40332 2.42676 -5.46094 2.42676c-4.95508 0 -5.46094 0.203125 -4.95508 2.02344c0.505859 1.71875 1.41602 2.02246 6.47363 2.02246c5.46094 0 6.06738 0.203125 6.97754 2.52832c1.61816 4.24805 5.5625 9.50586 9.10254 12.1348l3.33789 2.42773
l-12.9453 0.606445l4.4502 1.31543c8.69727 2.62891 18.9111 -1.71973 26.2939 -11.3271c13.248 -17.0908 16.0801 -43.79 6.77637 -62.0947c-2.93359 -5.66406 -5.96777 -8.69727 -10.9229 -10.8213c-4.65137 -1.82031 -12.3379 -1.92188 -16.5859 -0.101562h-0.00195312z
M167.893 673.734c-11.2246 4.14551 -22.0469 25.1816 -20.6309 40.1484c0.303711 3.23633 0.505859 3.43848 4.75391 3.94434c3.84375 0.404297 4.65234 0.910156 5.25879 3.23633c0.708008 2.73047 0.606445 2.83105 -3.84375 2.83105
c-3.74121 0 -4.44922 0.303711 -4.14551 1.71973c0.203125 1.41602 1.5166 1.92188 5.05664 2.12305c4.34863 0.302734 4.95508 0.606445 7.28125 4.75391c1.41602 2.42676 3.84277 5.35938 5.25781 6.47266l2.73145 2.12305h-4.95508
c-4.04492 0.101562 -4.65234 0.302734 -3.03418 1.21289c2.93262 1.61816 13.1465 0.404297 16.6855 -2.12305c4.04492 -2.93262 9.6084 -10.7197 12.1357 -16.8887c3.0332 -7.98926 4.55078 -20.125 3.23535 -27.3047
c-3.13477 -16.9902 -14.0566 -26.3955 -25.7881 -22.249h0.000976562z" />
</svg>
