<?xml version="1.0" encoding="UTF-8"?>
<svg width="1026px" height="810px" viewBox="0 0 1026 810" version="1.1" xmlns="http://www.w3.org/2000/svg" xmlns:xlink="http://www.w3.org/1999/xlink">
  <g id="Newgrounds" transform="translate(0.7933, 0.0684)" fill="currentColor" fill-rule="nonzero">
    <path d="M924.970045,1.51501646 C908.384145,5.05407646 904.137045,7.68396646 868.842145,36.4046165 C855.492545,47.2259165 835.570645,63.3060165 824.647845,72.0032165 C802.197645,90.0042165 796.331445,95.9710165 791.174245,106.387016 L787.635185,113.769826 L738.788485,148.054026 C711.887085,166.965126 686.908585,184.562826 683.166385,187.191726 L676.492555,191.945636 L670.018925,187.597976 L663.546265,183.147776 L555.842265,167.269876 C496.579565,158.572606 447.126265,151.189776 446.013265,150.887076 C444.294515,150.584342 442.979085,148.358756 440.552325,141.683956 C436.507405,130.659556 426.900025,111.950556 423.966425,109.321656 C421.033805,106.591186 397.975225,92.9388565 396.358025,92.9388565 C394.739865,92.9388565 394.739865,93.0404185 396.1549,88.8939365 C397.06408,86.3656165 398.4801,85.1517465 402.62756,83.3324165 C408.59436,80.6009665 409.10022,79.5902265 411.22326,63.8138165 C412.23596,56.5325665 412.133416,55.0149865 410.81994,52.8919165 C409.50451,50.9700365 409.30236,48.8469965 409.80724,41.9700165 L410.515248,33.3743165 L406.874628,31.6545865 C404.548458,30.5422865 402.728148,28.6213865 401.514278,25.9905265 C398.682248,19.6194365 389.985978,11.4280265 382.198878,7.68582646 C375.525048,4.55105646 374.917628,4.44949646 362.174478,4.44949646 C350.039678,4.44949646 348.623678,4.65262146 343.162778,7.18094646 C332.240878,12.3391465 322.228178,24.2717465 320.610978,33.9807465 C320.104142,37.3186365 319.397108,38.4309465 317.172498,39.3410965 C311.104138,41.8684365 310.598278,43.3860165 310.598278,57.8478965 C310.598278,73.0177965 311.104137,74.6359965 317.172498,77.4679965 C319.397108,78.4797165 321.217418,79.7941665 321.217418,80.5021765 C321.217418,81.1086215 321.420543,82.3215165 321.723277,83.0295165 C322.127574,84.1427965 318.487927,85.5578365 306.150077,88.7941665 C297.250667,91.2209265 288.754577,93.9513965 287.137377,94.9631165 C284.912767,96.2775665 283.194017,99.3107765 279.552417,108.717016 C272.574877,126.111516 269.136417,138.853716 266.608117,156.552016 C263.371787,178.801016 264.685267,188.306916 272.777067,200.544216 C274.495817,203.173126 275.810267,205.397736 275.609097,205.600856 C275.406949,205.803981 264.989997,212.882106 252.449897,221.377256 C222.413797,241.804956 172.252597,279.324556 169.623697,283.371356 C166.084637,288.832296 160.218427,361.949456 158.802397,420.303356 L158.094389,446.901056 L141.306289,461.867856 C115.922489,484.319056 94.8873885,504.545556 66.3687885,533.469456 C33.8042885,566.539756 33.2984885,567.146256 31.4781885,575.944056 C29.7594385,584.237026 27.5348285,609.418656 28.1402985,614.677456 C28.5445955,617.812226 27.7369785,619.530976 22.1734985,627.622756 C2.5533985,655.838556 -3.9183015,689.413756 2.2505985,729.765756 C8.1168085,767.891756 33.1968985,802.378056 59.0864985,807.838956 C62.9292685,808.64755 169.319499,808.951256 441.969499,808.951256 L819.391499,808.951256 L826.470599,804.805746 C842.955999,794.894616 866.215699,774.263746 881.285099,756.262746 C904.242099,728.754946 926.186499,685.672946 937.412999,646.130746 C947.828999,609.520346 952.279199,576.855346 952.785099,532.357746 L953.188419,506.063846 L967.651319,495.647846 C984.842719,483.209346 986.360319,481.893946 987.168919,478.253346 C988.079075,473.904716 986.157199,468.240646 978.067359,451.251346 C959.255859,411.910546 936.805659,387.740646 908.690359,376.412446 C893.217659,370.142916 842.450159,363.165346 799.874359,361.344046 C781.062859,360.534476 782.478859,361.547171 782.277659,348.804046 C782.176097,338.892916 780.557929,332.824546 777.322579,330.499346 C775.502269,329.183916 770.748359,328.173176 761.140979,326.960286 C753.657579,326.05013 747.387079,325.240556 747.184879,325.139976 C747.084293,324.936851 746.476871,320.993496 745.971989,316.341146 C744.555969,305.014046 740.511049,288.327446 735.757189,274.067746 C733.532579,267.696656 731.812849,262.337246 731.812849,262.235746 C731.812849,262.032621 736.667339,259.303126 742.735749,256.168366 C748.702549,252.932036 773.782649,239.481866 798.459349,226.232866 L843.462249,202.164466 L851.957369,202.164466 C856.609709,202.164466 863.181969,201.456458 866.621469,200.546306 C871.576549,199.230876 902.624369,186.388106 977.056469,154.834406 C982.517409,152.508236 992.125769,146.137136 998.597469,140.676206 C1009.11607,131.676206 1018.41877,116.606906 1022.26247,102.145006 C1024.89138,92.1333065 1025.19606,72.3120065 1022.76833,62.3999065 C1015.08278,30.8472065 987.271228,5.36180646 955.920628,1.01320646 C945.504628,-0.504373542 933.064228,-0.302223542 924.974328,1.51906546 L924.970045,1.51501646 Z M954.298045,17.1908165 C972.602745,20.1244065 989.390845,31.8549165 999.603745,48.6429165 C1008.70628,63.9134165 1011.13304,85.7581165 1005.36839,102.041316 C998.997305,120.142916 982.006095,136.728816 964.410395,141.987616 C956.723875,144.313786 939.835195,145.123356 931.845895,143.605776 C909.900595,139.258116 889.471895,121.356776 882.392795,100.321576 C881.179905,96.4788065 879.966035,89.6018765 879.560765,83.9387765 L878.95432,74.2297965 L876.52756,80.2981565 C875.21213,83.6360465 873.79611,89.1965965 873.49338,92.7366565 L872.885958,99.0071665 L837.490458,123.379266 L802.093958,147.650766 L801.285364,143.303106 C798.959194,130.863606 802.903524,115.087306 810.994344,105.378306 C817.769734,97.1859265 868.032444,54.9144065 897.158444,32.9681065 C916.676044,18.1019065 932.858644,13.6517065 954.297144,17.1917065 L954.298045,17.1908165 Z M383.210045,32.3607565 C393.323345,33.8783365 402.526445,36.3050965 403.335045,37.6185665 C404.650475,39.6420065 404.245201,47.8343665 402.526451,53.3949665 C401.008871,58.6527765 401.008871,58.6527765 397.267661,58.3500465 C393.929771,58.0473125 393.424891,57.6420385 391.908281,53.4965265 C390.290121,49.2484765 389.884841,48.8441865 385.537191,48.0346165 C379.368241,46.9223165 376.637781,47.7318825 374.412191,51.4730965 C373.400471,53.1918465 371.478601,55.0121565 370.063561,55.6186065 C367.232511,56.6313065 356.006961,56.8324765 350.342861,55.9223175 C347.004971,55.3148955 346.399501,54.8090375 345.489341,51.5736875 C344.983482,49.5512275 344.476641,44.8998575 344.476641,41.1576875 C344.476641,31.3490975 344.679766,31.2475275 361.769641,31.2475275 C369.556751,31.2475275 379.265741,31.7533865 383.210041,32.3598275 L383.210041,32.360804 L383.210045,32.3607565 Z M387.457045,60.5756165 C388.265639,63.0033465 389.580095,64.6215165 391.804705,65.5306965 C395.647475,67.2504265 395.647475,67.4525765 392.917985,76.2513965 C390.996105,82.4203465 390.491225,83.1283465 386.647475,84.9476865 C380.984385,87.4760065 373.803675,87.3754165 367.635775,84.7445615 C361.769565,82.2172215 359.747105,79.0814715 358.938505,71.1937615 L358.33206,65.9359515 L364.80472,65.2279435 C372.9971,64.2162235 376.93952,62.5990335 378.76082,59.1595835 C379.97371,57.0365335 380.88387,56.5306735 383.3116,56.7328235 C385.74031,56.9349715 386.54793,57.7445435 387.45808,60.5755935 L387.457103,60.5755935 L387.457045,60.5756165 Z M334.161045,107.805116 C354.791945,128.335416 387.759645,132.177216 398.076045,115.390076 C401.110225,110.434996 401.311395,110.333436 404.447135,111.243596 C413.143425,113.671326 413.245965,113.771916 413.245965,121.154726 C413.245965,127.425236 414.560415,138.953526 415.874875,144.011126 C416.380734,146.235736 416.177609,146.235736 404.447175,146.843156 C396.862215,147.247453 389.783075,148.259176 384.928575,149.675186 C380.783065,150.888076 364.803575,157.968156 349.634675,165.350986 C327.587775,176.070686 321.621975,178.700586 320.711775,177.688886 C318.688335,175.464276 307.766475,157.563886 308.171775,157.158586 C308.474509,156.956438 311.104395,158.372456 314.138575,160.294326 L319.701075,163.833386 L320.003809,154.428116 C320.509668,142.596116 318.790919,127.628316 315.553609,115.290416 C314.239159,110.031626 313.328999,105.480846 313.631729,105.177116 C314.036026,104.874382 317.272349,104.063836 321.014539,103.458366 C324.756729,102.750358 327.891489,102.244496 328.093639,102.142936 C328.195201,102.142936 330.925669,104.671256 334.161999,107.806996 L334.161045,107.805116 Z M791.476045,136.626016 C791.476045,143.906286 793.903775,154.424816 796.836395,160.593816 L799.162565,165.650456 L702.076665,224.812556 C648.578665,257.275456 604.484865,283.569356 604.080565,283.064556 C603.574706,282.660259 602.967285,279.525496 602.664545,276.087016 C601.956537,268.805766 603.978995,262.535216 608.328605,258.388816 C611.261225,255.556786 789.454605,131.570816 790.768605,131.468816 C791.172902,131.367254 791.476613,133.794986 791.476613,136.627016 L791.476045,136.626016 Z M537.637045,182.439016 C601.854845,191.642136 655.353045,199.327716 656.466045,199.631416 C657.579325,199.834541 659.298075,200.643136 660.308815,201.350166 C661.926975,202.563056 660.612526,203.776926 647.364515,213.081566 L632.700415,223.497566 L565.954315,214.294446 C523.883015,208.529796 497.792215,205.395036 495.567615,205.799326 C491.623275,206.507334 483.532415,211.562996 482.622315,213.889166 C482.319581,214.69776 483.430909,220.562996 485.049075,226.935066 C488.993415,242.205566 491.926025,262.937966 492.735595,281.242666 C493.443603,295.503366 493.34204,296.210466 491.521725,296.210466 C488.183835,296.210466 435.192625,289.131366 434.685825,288.726086 C434.483677,288.423352 433.674105,281.949716 432.866485,274.365686 C430.237575,247.363686 423.967075,220.563886 413.550085,191.135186 C410.515905,182.437916 407.786415,174.044386 407.482705,172.526786 C406.673135,168.076586 409.404585,165.751396 415.674115,165.751396 C418.506145,165.751396 473.420215,173.234796 537.638115,182.436896 L537.637045,182.439016 Z M565.448045,228.960016 C592.045745,232.600636 613.991045,235.735406 614.193145,235.937556 C614.394317,236.139704 610.046665,239.376036 604.584745,243.117246 C598.821075,247.061586 593.965645,251.006896 593.257645,252.624086 C590.729325,257.983466 585.268385,273.860386 580.617045,289.132886 C577.988135,297.728586 575.559425,305.111386 575.156105,305.515686 C574.852394,305.919983 561.908105,304.807678 546.434405,303.088926 C522.062305,300.256896 518.421705,299.650446 519.028205,298.335016 C519.431525,297.42486 521.252815,292.367246 523.173715,287.007916 C530.353405,266.073316 528.431525,246.656316 517.410045,229.564516 C515.184455,226.127016 513.365125,223.091856 513.365125,222.890686 C513.365125,221.98053 517.207895,222.384827 565.448125,228.959046 L565.448125,228.960023 L565.448045,228.960016 Z M719.067045,276.896016 C722.808255,286.401876 727.360015,305.010316 728.776025,316.235816 C729.38247,321.394016 729.787745,325.844216 729.584619,325.944796 C729.281885,326.349093 700.256519,322.810026 696.716419,322.001436 C694.593369,321.4946 694.593369,321.394014 696.21056,316.742646 C697.42345,313.203586 697.82872,307.540496 697.92931,295.303146 L698.030872,278.817746 L706.120712,274.367546 C710.468372,271.940786 714.615832,269.918326 715.323832,269.918326 C715.930277,269.918326 717.650002,273.053096 719.066022,276.895866 L719.066998,276.895866 L719.067045,276.896016 Z M682.255045,302.988016 C681.749186,307.539776 680.839025,313.202816 680.131995,315.427516 C679.120275,318.765406 678.513835,319.472436 676.289225,319.472436 C671.738445,319.37185 637.657425,314.617946 636.949425,313.909936 C635.331265,312.393336 639.679895,309.562276 660.007025,298.841536 L681.750225,287.413836 L682.458233,291.054456 C682.86253,293.076916 682.760967,298.437266 682.255108,302.988056 L682.255045,302.988016 Z M600.238045,326.045016 C689.435345,336.865316 762.857045,345.765716 763.363045,345.765716 C763.766365,345.765716 764.171639,348.698336 764.171639,352.339936 L764.171639,358.914156 L752.743939,358.914156 C738.383539,358.914156 735.450939,360.330176 727.258539,370.746156 C723.213619,376.003966 720.887449,378.128966 719.369869,378.128966 C718.156979,378.128966 685.187269,374.791076 646.251669,370.644586 L575.257569,363.261776 L569.391359,358.003966 C551.289759,341.822366 529.546659,331.810566 502.341559,327.057666 C483.935359,323.922896 442.472459,319.472706 431.246859,319.472706 C429.628699,319.472706 429.426549,318.460986 429.426549,312.293016 L429.426549,305.213916 L433.775179,305.820361 C436.100379,306.124072 511.038879,315.225631 600.237179,326.047861 L600.238045,326.045016 Z M430.438045,337.069016 C480.701745,340.507496 494.758345,342.227216 514.579645,347.283816 C528.434145,350.722296 534.502545,353.352176 542.795445,359.115816 C558.369645,369.937116 573.944845,389.051316 583.146045,408.670516 C586.888235,416.658796 591.338425,428.897116 590.832565,429.401916 C590.225143,430.109924 426.999565,415.547416 426.392565,414.839416 C425.989245,414.435119 424.470685,410.389216 422.853505,405.940006 C414.662095,382.275006 400.707005,363.769106 384.829105,355.374606 C376.434575,351.025976 376.536135,351.025976 357.625005,357.093356 C333.049805,365.082616 296.946305,380.555256 263.573205,397.443956 C248.302705,405.130476 239.604405,409.681256 207.951105,426.772056 C202.590755,429.705646 202.490165,429.705646 205.422785,427.176353 C209.164975,423.940023 237.481385,404.825753 250.425685,396.634353 C289.260685,372.361853 331.937385,351.631453 369.254685,338.988853 L382.402185,334.539633 L395.042785,335.045492 C402.020325,335.348226 417.898285,336.258382 430.438285,337.067952 L430.438285,337.068929 L430.438045,337.069016 Z M801.590045,378.128016 C835.570545,379.947356 883.709145,386.319426 898.171145,390.971816 C916.779545,396.938616 934.072545,411.198416 948.130145,432.132916 C953.387955,440.021586 963.704345,458.124116 965.322545,462.372216 C966.334265,464.899556 966.232701,465.102686 963.602815,465.102686 C959.962195,465.102686 834.761815,453.067486 834.559815,452.764786 C834.459229,452.561661 833.346925,448.417126 832.133055,443.359516 C825.256105,415.851716 806.445555,393.602716 779.039255,380.557716 C774.791205,378.534276 771.252145,376.815526 771.252145,376.613376 C771.252145,376.51279 773.375195,376.51279 776.105665,376.714938 C778.735545,376.918063 790.163265,377.523532 801.591065,378.130958 L801.590045,378.128016 Z M656.669045,389.252016 C725.236445,395.825256 727.763745,396.229556 743.743245,404.117216 C763.463945,413.725616 778.330145,427.580116 785.813545,443.153316 C791.781315,455.592816 793.703195,464.390616 794.308665,482.695316 L794.814524,497.764616 L790.365304,497.157194 C787.937574,496.85446 739.798904,492.403284 683.571304,487.247034 L581.125304,477.841764 L581.125304,464.491164 L595.283504,451.041964 C608.127304,438.906264 609.441704,437.288064 609.441704,434.152364 C609.441704,426.567404 598.923104,399.161164 591.035504,386.418964 L589.012064,383.182634 L591.540384,383.182634 C592.956404,383.182634 622.284484,385.914084 656.669284,389.250994 L656.669284,389.251971 L656.669045,389.252016 Z M385.839045,441.740016 C401.716945,472.686316 406.066545,512.531016 397.973845,552.579016 C390.693575,588.480416 370.669145,621.854416 346.800945,637.630816 C333.957145,646.226516 326.473845,648.552716 311.607545,648.654216 C301.594845,648.654216 298.359545,648.250896 292.796045,646.328046 C279.446445,641.777266 266.907345,631.259646 256.894645,616.191346 C243.343845,595.864246 236.466945,573.514546 234.748145,544.287046 L234.040137,533.365146 L239.906347,529.320226 C243.141697,527.095616 246.175877,525.072176 246.580177,524.972566 C246.984474,524.769441 247.388771,529.422766 247.388771,535.187366 C247.388771,541.053576 247.692482,546.514466 247.996193,547.424666 C248.502052,548.739116 250.322363,549.042826 256.996193,549.042826 C261.546973,549.042826 267.412193,549.34556 269.941493,549.649271 L274.492273,550.256693 L276.110433,557.032083 C276.919027,560.673683 278.032313,564.819193 278.335043,566.134623 L279.043051,568.561383 L265.795051,568.055524 C250.928851,567.448102 251.434651,567.145368 253.660251,574.426614 L254.772551,578.369974 L282.685651,578.369974 L286.327251,585.550634 C293.204201,599.304534 302.609451,610.226434 312.519651,615.789934 L317.474731,618.722554 L313.531371,619.531148 C307.766721,620.744038 293.001071,620.441304 288.854571,619.025289 C285.619221,617.912009 285.516681,618.013569 287.237381,619.328023 C290.978591,622.160053 300.485381,625.194233 307.563581,625.598533 C315.857531,626.205955 327.992281,623.373923 335.172981,619.227443 C341.241341,615.688383 351.658381,605.676643 357.522581,597.787043 C380.479581,566.740143 388.974681,517.185443 378.254981,477.138043 C375.828221,468.138043 369.153421,452.865543 364.804781,446.293343 L362.681731,443.157603 L370.571381,437.493543 C374.819431,434.358773 378.864351,431.829483 379.571381,431.729873 C380.177826,431.729873 383.008881,436.280653 385.840911,441.741573 L385.839045,441.740016 Z M502.747045,464.090016 C537.031245,466.314626 565.954045,468.134936 567.067345,468.134936 C568.886685,468.134936 568.989225,469.045092 568.989225,488.866336 L568.989225,509.699336 L564.235315,509.092891 C561.503865,508.790157 552.403315,508.081171 543.806615,507.474731 C531.266615,506.564575 528.130815,506.666137 527.423815,507.677856 C527.019518,508.385864 526.310535,512.330196 525.907215,516.476686 C525.401356,522.240356 525.603504,524.263796 526.615223,525.275516 C527.828113,526.288216 555.841823,528.814576 566.360323,528.814576 C568.179663,528.814576 568.282203,529.421998 567.674773,541.152476 C566.966765,552.883876 563.123993,587.470876 562.314423,588.380976 C562.112275,588.584101 553.010713,588.177851 542.087823,587.571406 C525.805623,586.559686 521.861223,586.559686 520.850523,587.672968 C520.142515,588.380976 518.928643,592.324338 518.221613,596.268668 C517.209893,602.134878 517.209893,603.853628 518.221613,604.864368 C519.131769,605.774524 526.008723,606.584098 538.650313,607.292098 C549.268513,607.898543 558.067313,608.606548 558.269413,608.808698 C559.078983,609.617292 551.796753,638.542098 547.144413,652.901498 L542.390503,667.363398 L536.221553,667.262812 C532.883663,667.262812 523.478353,666.858515 515.388553,666.352656 C504.568253,665.746211 500.218653,665.846797 498.904153,666.65539 C496.577983,668.17297 491.014503,681.01579 491.723493,683.03919 C492.533063,685.06165 495.262553,685.36439 515.692293,686.17396 C525.500883,686.476694 533.592693,687.18568 533.592693,687.58998 C533.592693,689.91615 518.220593,718.43468 511.545793,728.54798 L503.657123,740.48158 L457.238223,740.077283 L452.180603,746.347793 C442.372013,758.482593 442.674743,759.293093 456.124943,759.494293 C461.181583,759.595855 469.878843,759.89859 475.339743,760.303863 L485.453043,760.910308 L478.070233,767.281398 C469.473553,774.665188 459.258733,781.641798 448.539933,787.608498 L440.853413,791.754978 L300.989413,791.249119 L309.989413,784.372169 C361.566513,745.233469 403.939613,668.172169 421.234413,581.906169 C426.795933,554.196169 429.123083,532.352469 430.638713,492.101469 L431.851603,460.042869 L436.099653,460.042869 C438.527383,460.042869 468.461953,461.862209 502.746153,464.087789 L502.747045,464.090016 Z M879.663045,499.081016 L933.970645,503.934536 L934.476504,507.979456 C934.780215,510.305626 935.184512,516.778286 935.489204,522.441356 L935.892524,532.857356 L931.241154,532.857356 C928.612244,532.857356 920.116154,532.351497 912.429654,531.744076 C901.102554,530.935482 898.070254,530.935482 897.160154,532.047787 C895.238274,534.070247 894.328124,547.520487 895.947264,548.936487 C896.655272,549.442346 905.858394,550.554647 916.374964,551.262657 L935.386664,552.475547 L934.678656,563.903247 C934.072211,575.432547 931.948186,593.130747 929.825136,603.850547 L928.711856,609.716757 L921.532166,609.716757 C917.587826,609.615195 908.284166,609.210898 900.799766,608.705037 C893.316366,608.30074 886.641566,608.097615 885.933566,608.401326 C884.214816,609.008748 880.574186,622.964826 881.585906,624.987226 C882.3945,626.706956 884.518526,626.909106 912.632806,628.526286 C921.330076,629.032145 923.959906,629.538986 923.959906,630.649336 C923.959906,633.076096 912.330006,667.461836 909.093706,674.439336 L906.161086,681.013556 L893.519486,680.305548 C886.642536,680.002814 876.530186,679.59754 871.069286,679.59754 L861.259716,679.496954 L857.517526,686.980354 C855.495066,691.025274 854.179636,695.070194 854.484326,695.980354 C855.090771,697.598514 858.629836,698.103404 883.710926,699.418834 L897.464826,700.227428 L890.385726,712.362228 C886.542956,719.036058 879.868126,729.453028 875.620126,735.521428 L867.833016,746.443328 L821.311516,746.240203 L815.446286,753.521453 C812.209956,757.465793 809.681636,761.410123 809.883786,762.320283 C810.18652,763.635713 812.715816,764.040013 825.863286,764.646453 C834.458986,765.05075 843.359386,765.556609 845.483386,765.658173 L849.528306,765.961884 L840.931626,773.141574 C836.280256,777.186494 828.896426,782.950164 824.447226,786.086874 L816.557576,791.750934 L705.617576,791.750934 L723.113676,774.254834 C741.721076,755.748034 752.946676,741.791934 764.779676,722.272434 C791.073576,679.089834 809.681076,622.860334 817.165376,564.205434 C819.389986,546.809934 821.109716,518.492534 820.704436,505.144934 L820.300139,493.312934 L822.828459,493.818793 C824.244479,494.122504 849.830459,496.447703 879.664359,499.076603 L879.663045,499.081016 Z M213.411045,578.368016 C214.321201,582.413916 214.827065,586.054536 214.623935,586.357276 C214.219638,586.964698 201.678635,595.560396 157.485235,625.494976 L139.382735,637.732276 L134.224535,630.855326 C131.392505,627.012556 126.944265,622.259626 124.212835,620.135626 C121.583925,618.012576 119.359315,615.786996 119.257386,615.281136 C119.157169,614.674691 139.685455,599.808436 164.766555,582.211836 L210.478455,550.152236 L211.186463,560.568236 C211.59076,566.332886 212.602483,574.322136 213.412053,578.367036 L213.411045,578.368016 Z M108.032045,638.440016 C113.492985,645.316966 120.470545,659.880416 123.100445,669.892116 C127.449075,686.982916 126.538925,713.378416 120.875835,732.491716 C114.807475,752.818816 99.4354345,773.247616 84.8729345,780.226116 C80.1190245,782.450726 77.1864145,783.158736 69.9061345,783.462446 C64.8485145,783.665571 58.8817345,783.360884 56.5555345,782.754438 C49.9822945,780.934128 40.6776345,774.157758 35.4188345,767.180238 C25.2040345,753.629438 19.2381345,736.638238 18.1258345,717.929238 C17.6199755,708.625528 19.0359905,687.792538 20.4520045,684.252438 C20.8553245,683.039548 29.1492745,677.375488 29.6551245,677.881348 C29.8582495,678.084473 29.3514135,681.116698 28.4422345,684.656738 C26.7225045,692.040528 25.3064945,713.276838 26.3191845,717.321738 C26.9256295,719.850058 27.1277785,719.950648 35.3191845,719.950648 L43.6121545,719.950648 L46.8475045,732.086348 L37.8475045,732.086348 C28.9490645,732.086348 28.8475045,732.086348 29.4539545,734.310958 C30.5672345,737.951578 31.1727045,738.153728 40.3758545,738.861738 L49.1746845,739.46916 L52.3094545,745.13322 C55.8485145,751.30217 65.5574545,762.02192 68.4910545,762.93202 C69.6033545,763.336317 70.4129345,763.94374 70.4129345,764.44862 C70.4129345,765.86464 59.4910345,766.77479 55.2430345,765.66151 C49.5789745,764.24647 51.1981145,765.965221 57.3660845,767.98768 C64.1414745,770.31385 74.5574845,769.60584 80.9285845,766.57166 C86.6932345,763.73963 95.6951845,754.84116 100.851485,747.05406 C116.325085,722.98476 118.651285,685.36366 106.110275,659.37436 C102.671795,652.1937 93.3670745,641.37336 88.2088745,638.54136 C86.5907145,637.631204 86.9959845,637.02378 92.2537945,633.28257 L98.2205945,629.13706 L101.052625,631.15952 C102.670785,632.2728 105.806535,635.50815 108.031145,638.44077 L108.032045,638.440016 Z M201.274045,639.350016 L206.027955,645.216226 L191.161755,652.295326 C182.969375,656.138096 176.092455,659.172276 175.991855,658.969156 C174.979155,658.059 173.665685,647.642056 174.373695,646.933956 C175.385415,645.922236 196.217495,633.078456 196.420595,633.280656 C196.521181,633.382218 198.645205,636.112686 201.275085,639.349016 L201.274045,639.350016 Z M285.416045,673.229016 C293.505885,677.375496 301.192445,689.208516 304.630845,702.759316 C307.159165,712.366736 306.855455,730.166516 304.124986,741.693916 C299.270496,762.021016 286.932586,780.023016 273.078086,786.799416 C267.313436,789.631446 265.998986,789.934186 258.717686,789.631446 C248.200086,789.125587 242.739186,785.889256 236.165886,776.280846 C228.681506,765.460546 226.660026,757.774046 226.660026,740.177346 C226.660026,722.275946 228.479366,713.479146 234.749866,700.938046 C242.536976,685.565946 252.448066,675.452646 263.470566,671.914646 C269.841656,669.891206 280.056466,670.498626 285.416866,673.229096 L285.415889,673.229096 L285.416045,673.229016 Z M187.824045,695.883016 C198.443145,701.849816 204.914845,716.614416 204.914845,734.817616 C204.914845,753.324416 199.756645,768.696516 189.542745,780.023716 C177.811345,793.171216 161.428445,794.587216 151.517345,783.158486 C144.033945,774.764936 140.191145,762.832286 140.191145,748.673086 C140.191145,729.558786 145.854235,714.388886 157.382545,702.556886 C164.765355,695.072506 167.495845,693.859616 177.507545,693.758056 C182.362035,693.656494 184.890355,694.161376 187.822945,695.881106 L187.824045,695.883016 Z M934.072045,27.8099765 C913.744945,33.1703265 898.574945,50.1595765 895.540845,70.8919765 C894.630689,77.3646365 894.732251,79.9935365 896.14729,86.9720765 C898.47346,98.6019765 901.81135,105.176176 909.90219,113.670276 C921.22839,125.603876 932.25179,130.355776 948.83679,130.355776 C964.41099,130.355776 975.63659,125.502256 987.16589,113.670276 C991.71667,109.017936 996.26745,102.140976 995.25573,101.230776 C995.155144,101.027651 981.80553,104.769836 965.72543,109.523746 C949.64533,114.277656 935.68933,118.221016 934.67853,118.221016 C933.768374,118.221016 931.03791,117.209296 928.71173,116.097966 L924.46368,113.873356 L928.5086,111.950506 C930.73419,110.938786 947.825,102.848946 966.4334,94.0501065 L1000.3123,78.0706065 L1000.61601,74.6331065 C1000.91874,70.5881865 998.694131,63.6087065 996.671671,62.2952065 C995.659951,61.6877845 984.031071,67.9592665 956.420671,83.8362065 C935.081771,96.1741065 917.080871,105.982706 916.372771,105.781506 C914.450891,104.972912 909.596401,96.0725265 909.394251,92.9377065 C909.293665,90.6115365 913.338591,86.4650465 938.318051,63.3059065 C956.723351,46.2151065 968.050451,36.3039065 969.364951,36.3039065 C970.577841,36.3039065 973.814171,37.2140625 976.747761,38.3263665 L982.108111,40.2492165 L978.669631,37.3156265 C973.714551,33.0675765 964.713531,28.6183565 958.544631,27.3039265 C951.263381,25.7863465 940.846431,25.9884965 934.071031,27.8097855 L934.072007,27.8097855 L934.072045,27.8099765 Z M439.136045,183.046016 C435.798155,185.674926 435.596985,190.630976 438.630186,194.473716 C442.977846,199.934656 450.665386,196.596766 450.665386,189.215906 C450.665386,181.934656 444.698586,178.697306 439.136086,183.046956 L439.136086,183.04598 L439.136045,183.046016 Z M449.653045,226.634016 C447.124725,230.678936 447.730195,234.117416 451.270235,237.253116 C454.506565,240.286316 457.238005,240.185736 460.270235,237.049991 C465.428435,231.992371 462.293675,223.396691 455.316135,223.396691 C452.281955,223.396691 451.270235,224.004113 449.652075,226.633021 L449.653045,226.634016 Z M456.935045,270.929016 C453.699695,273.963196 453.193835,277.401676 455.418445,281.243516 C459.666495,288.627306 469.880345,284.479846 468.464345,275.985706 C467.452625,269.614616 461.284655,266.884146 456.935045,270.929066 L456.935045,270.929016 Z M605.901045,455.190016 C600.945965,458.022046 599.933275,463.078686 603.473315,467.527916 C607.923515,473.191976 617.631515,469.551356 617.530915,462.168536 C617.429353,459.134356 615.912755,456.808186 612.777005,455.190016 C610.045555,453.673416 608.528955,453.673416 605.900055,455.190016 L605.901031,455.190016 L605.901045,455.190016 Z M659.601045,462.168016 C657.578585,463.785206 656.972135,465.100636 656.972135,468.134816 C656.972135,475.416066 665.467255,478.854516 670.625435,473.696336 C678.008245,466.416066 667.793405,455.695336 659.601035,462.168036 L659.601045,462.168016 Z M714.617045,468.338016 C709.156105,474.203246 715.325053,484.013816 722.910015,481.383916 C732.011575,478.147586 730.292825,466.113416 720.684425,466.113416 C717.953955,466.113416 716.133645,466.821424 714.617045,468.339006 L714.617045,468.33803 L714.617045,468.338016 Z M765.789045,472.787016 C761.441385,477.035066 761.540995,481.889556 765.889631,485.327016 C769.328111,487.956896 772.563461,487.855336 775.699201,485.024282 C779.238261,481.889512 779.844711,478.450062 777.317361,474.405182 C775.597631,471.674712 774.789041,471.169832 771.349591,471.169832 C769.024391,471.169832 766.698221,471.87784 765.788071,472.787022 L765.789047,472.787022 L765.789045,472.787016 Z M259.931045,687.994016 C247.796245,693.354366 236.974045,713.276216 235.558945,732.694216 L234.9525,741.189336 L240.51402,741.189336 C246.48082,741.189336 247.39097,741.897344 247.39097,746.853396 C247.39097,749.078006 246.98765,749.280156 241.93003,749.280156 C236.97495,749.280156 236.46909,749.483281 236.97495,751.303596 C237.480809,753.022346 238.39097,753.326056 243.44858,753.326056 C248.90952,753.326056 249.51596,753.529181 250.42612,755.854376 C252.04428,760.102426 255.98862,765.360236 259.52866,767.989176 L262.86655,770.416906 L249.92125,771.023351 L254.37145,772.338781 C263.06872,774.967691 273.28255,770.619051 280.66535,761.011681 C293.91335,743.920881 296.74545,717.221681 287.44172,698.916981 C284.50813,693.252921 281.47395,690.219711 276.51882,688.095681 C271.86745,686.275371 264.18092,686.173801 259.93292,687.994119 L259.930966,687.994119 L259.931045,687.994016 Z M168.104045,707.209016 C156.879445,711.354526 146.057145,732.390616 147.473145,747.357416 C147.776856,750.593746 147.979004,750.795896 152.227055,751.301756 C156.070805,751.706053 156.879395,752.211912 157.485845,754.538086 C158.193853,757.268556 158.09229,757.369136 153.642095,757.369136 C149.900885,757.369136 149.192875,757.672847 149.496585,759.088866 C149.69971,760.504886 151.013185,761.010746 154.553225,761.211916 C158.901855,761.51465 159.508305,761.818361 161.834475,765.965826 C163.250495,768.392586 165.677245,771.325206 167.092285,772.438486 L169.823735,774.561536 L164.868655,774.561536 C160.823735,774.663098 160.216315,774.86427 161.834475,775.774426 C164.767095,777.392586 174.980975,776.178723 178.519975,773.651376 C182.564895,770.718756 188.128375,762.931676 190.655675,756.762676 C193.688875,748.773416 195.206455,736.637676 193.891025,729.457976 C190.756255,712.467776 179.834425,703.062476 168.102925,707.208976 L168.103901,707.208976 L168.104045,707.209016 Z"></path>
  </g>
</svg>