<?xml version="1.0" encoding="UTF-8"?>
<svg width="541px" height="1025px" viewBox="0 0 541 1025" version="1.1" xmlns="http://www.w3.org/2000/svg" xmlns:xlink="http://www.w3.org/1999/xlink">
  <g id="NewsVine" transform="translate(0.8407, 0.4253)" fill="currentColor" fill-rule="nonzero">
    <path d="M306,876 L394,812 L394,804 C394,764 426,730 466,730 C506,730 540,764 540,804 C540,844 506,876 466,876 C452,876 438,872 428,864 L306,952 L306,1024 L234,1024 L234,808 L110,718 C98,724 86,728 74,728 C34,728 0,694 0,654 C0,614 34,582 74,582 C114,582 146,614 146,654 C146,658 146,662 144,666 L234,732 L234,516 L110,426 C98,432 86,436 74,436 C34,436 0,402 0,362 C0,322 34,290 74,290 C114,290 146,322 146,362 C146,366 146,372 144,376 L234,440 L234,238 L108,146 C98,152 86,156 74,156 C34,156 0,124 0,84 C0,44 34,10 74,10 C114,10 146,44 146,84 C146,88 146,92 144,96 L234,162 L234,0 L306,0 L306,306 L394,242 L394,232 C394,192 426,158 466,158 C506,158 540,192 540,232 C540,272 506,304 466,304 C452,304 440,300 428,294 L306,382 L306,584 L394,520 L394,512 C394,470 426,438 466,438 C506,438 540,470 540,512 C540,552 506,584 466,584 C452,584 440,580 428,572 L306,662 L306,876 Z"></path>
  </g>
</svg>