<?xml version="1.0" standalone="no"?>
<!DOCTYPE svg PUBLIC "-//W3C//DTD SVG 1.1//EN" "http://www.w3.org/Graphics/SVG/1.1/DTD/svg11.dtd" >
<svg xmlns="http://www.w3.org/2000/svg" xmlns:xlink="http://www.w3.org/1999/xlink" version="1.1" viewBox="-10 0 1034 1024">
   <path fill="currentColor"
d="M548 735l88 -64v-8c0 -40 32 -74 72 -74s74 34 74 74s-34 72 -74 72c-14 0 -28 -4 -38 -12l-122 88v72h-72v-216l-124 -90c-12 6 -24 10 -36 10c-40 0 -74 -34 -74 -74s34 -72 74 -72s72 32 72 72c0 4 0 8 -2 12l90 66v-216l-124 -90c-12 6 -24 10 -36 10
c-40 0 -74 -34 -74 -74s34 -72 74 -72s72 32 72 72c0 4 0 10 -2 14l90 64v-202l-126 -92c-10 6 -22 10 -34 10c-40 0 -74 -32 -74 -72s34 -74 74 -74s72 34 72 74c0 4 0 8 -2 12l90 66v-162h72v306l88 -64v-10c0 -40 32 -74 72 -74s74 34 74 74s-34 72 -74 72
c-14 0 -26 -4 -38 -10l-122 88v202l88 -64v-8c0 -42 32 -74 72 -74s74 32 74 74c0 40 -34 72 -74 72c-14 0 -26 -4 -38 -12l-122 90v214z" />
</svg>
