<?xml version="1.0" standalone="no"?>
<!DOCTYPE svg PUBLIC "-//W3C//DTD SVG 1.1//EN" "http://www.w3.org/Graphics/SVG/1.1/DTD/svg11.dtd" >
<svg xmlns="http://www.w3.org/2000/svg" xmlns:xlink="http://www.w3.org/1999/xlink" version="1.1" viewBox="-10 0 1034 1024">
   <path fill="currentColor"
d="M710.078 -43.208c7.67969 1.02441 14.8477 2.55957 23.04 5.12012c14.3359 4.60742 26.624 11.2637 35.3281 16.3838c19.4561 11.2637 39.4238 25.0879 60.416 42.4961c9.21582 7.67969 18.4316 15.8721 27.1357 24.0645l7.16797 7.16797
c3.58398 3.07129 7.16797 6.65527 9.72754 10.752c9.2168 11.7754 16.3848 28.6719 16.8965 52.2236c0.511719 8.19238 0.511719 16.8965 0 25.5996c-1.02441 18.9443 -3.58398 36.8643 -8.19238 53.248c-3.58398 12.2881 -7.67969 24.5762 -12.2881 36.8643
c9.2168 23.04 15.8721 46.5918 20.4805 70.6562c9.21582 50.6875 8.19238 102.912 -3.07227 153.088c6.65625 9.72754 12.7998 18.9443 17.9199 28.1602c8.03418 14.1777 14.7607 28.793 19.7744 43.8438l1.875 5.81152c2.21094 7.12598 5.70117 21.4463 2.92676 39.9443
c-1.02344 7.16797 -3.07227 13.8242 -5.63184 21.5039c-9.21582 26.1123 -23.5518 47.6162 -36.3516 65.5361c-13.8242 19.4561 -29.6963 38.4004 -46.0801 55.8086l-6.14453 6.14355c-3.58398 4.0957 -7.67969 7.67969 -12.2881 11.2637
c-10.2402 7.68066 -24.5762 13.8242 -44.0322 14.8486c-5.11914 0.426758 -10.5957 0.852539 -16.1299 0.983398l-3.83789 0.0400391c-12.4414 0 -24.8828 -0.829102 -37.6982 -2.86133l-4.28516 -0.722656c-23.04 -3.58398 -43.5205 -10.752 -61.9521 -17.9199
c-9.72852 4.0957 -19.9678 7.67969 -29.6963 10.752c-27.0791 8.21973 -55.5283 13.7012 -84.0537 15.5781l-5.03418 0.293945c-31.2324 2.04785 -62.9756 -0.511719 -93.6963 -6.14355c-3.58398 -0.512695 -7.67969 -1.53613 -11.2637 -2.04785
c-26.624 18.9434 -50.1758 31.2314 -74.752 39.4238h-0.511719c-5.12012 -0.512695 -16.3848 3.58398 -31.2324 3.58398c-3.07227 0 -6.65625 0 -9.72754 -0.512695c-7.68066 -1.02344 -14.8486 -2.55957 -23.04 -5.11914
c-14.3359 -4.6084 -26.624 -11.2646 -35.3281 -16.3848c-19.4561 -11.2637 -39.4238 -25.0879 -60.416 -42.4961c-9.21582 -7.67969 -18.4326 -15.8711 -27.1367 -24.0635l-7.16797 -7.16797c-5.11914 -4.6084 -9.72754 -9.72852 -13.3115 -15.3604
c-6.65625 -10.2402 -12.2881 -23.5518 -12.7998 -40.96c-0.512695 -5.63184 -1.02441 -11.2637 -1.02441 -17.4082c0 -12.2881 0.511719 -25.5996 2.56055 -38.3994c3.58398 -26.624 12.2881 -50.1758 18.9434 -68.0967l1.53613 -4.60742
c-2.04785 -4.6084 -3.58398 -9.72852 -5.63184 -14.8477c-9.21582 -26.624 -15.3604 -56.3203 -18.4316 -86.0166c-3.07227 -31.2314 -2.04883 -62.9756 2.55957 -94.208c1.02441 -6.65625 2.04785 -13.3115 3.58398 -19.4561
c-12.2881 -17.9199 -27.6484 -43.5195 -37.376 -73.2158v-0.511719l-1.18262 -3.6709c-2.21484 -7.24512 -5.24512 -19.9473 -3.18555 -35.4189l0.272461 -1.87012c1.02344 -7.16797 2.55957 -14.3359 5.12012 -22.0166c4.31934 -13.4395 10.4395 -24.6299 15.4062 -33.1475
l0.977539 -1.66797c11.2637 -19.4561 25.0879 -38.9121 41.9834 -59.9043c7.68066 -9.21582 15.3604 -18.4316 23.5527 -26.624l7.16797 -7.16797c3.58398 -4.0957 7.67969 -7.67969 12.2881 -10.752c10.2393 -7.67969 24.5752 -14.3359 44.0312 -14.8477
c5.12012 -0.427734 10.5967 -0.853516 16.1309 -0.984375l3.83789 -0.0400391c12.7998 0 26.624 1.02441 39.9355 3.07227c20.4805 3.07227 38.9121 8.7041 55.2959 14.8477c10.752 -4.60742 22.0166 -8.7041 33.792 -12.7998
c26.1934 -8.73145 54.2246 -14.7051 82.3516 -17.0508l4.68848 -0.357422c31.2324 -2.55957 62.9766 -1.02344 93.1846 4.0957c7.16797 1.02441 14.3359 2.56055 21.5039 4.09668c24.0635 -16.3838 46.0801 -28.1602 69.1201 -35.3281h0.511719l1.40723 -0.541016
c5.61523 -2.0791 16.2148 -5.09082 29.8242 -5.09082c3.07227 0 6.65625 0 9.72852 0.511719zM489.406 411.448l-134.656 51.2002l40.4482 22.0156c-8.19238 17.9199 -16.3838 31.2324 -26.1123 44.5439c-14.3359 20.4805 -30.208 39.4238 -47.1035 55.2959
c-39.4248 38.9121 -79.8721 59.3926 -113.152 53.7598l12.2881 11.7764c29.6963 28.1602 81.9199 65.5361 104.448 66.0479l2.55957 -0.511719c17.4082 -5.12012 34.8164 -13.3125 51.7119 -25.0879h0.511719l4.59375 -2.93945l2.27344 -1.51465
c24.8965 -16.8359 62.3125 -50.5986 105.261 -148.634l35.8408 18.9434zM697.79 353.08l-144.896 38.9121l52.2246 134.144l20.9922 -39.9355c17.9199 8.19141 31.2314 16.3838 44.5439 26.1113c20.4795 14.3369 39.4238 30.208 55.2959 47.1045
c38.9121 39.4238 59.3916 79.8721 53.7598 113.152l11.7764 -12.2881l2.84473 -3.04297l2.84668 -3.12598c27.248 -30.3018 59.8779 -77.2402 60.3564 -98.2793l-0.511719 -2.55957c-5.12012 -17.4082 -13.3125 -34.8164 -25.0889 -51.7129v-0.511719l-2.93848 -4.59277
l-1.51465 -2.27441c-16.8369 -24.8955 -50.5986 -62.3115 -148.635 -105.261zM247.23 74.5518l-11.7764 12.7998c-28.1602 29.6963 -65.5361 81.9209 -66.0479 104.448l0.511719 2.56055c5.12012 17.4072 13.3125 34.8154 25.0879 51.7119v0.511719l2.42285 3.80371
l2.01953 3.0459c16.833 24.8965 50.5869 62.3193 148.645 105.277l-18.9434 35.8398l144.896 -38.9121l-51.7119 -135.68l-21.5039 40.96c-17.9199 -8.19238 -31.2324 -16.3838 -44.5439 -26.1123c-20.4805 -14.3359 -39.4238 -30.208 -55.2959 -47.1035
c-38.9121 -39.4238 -59.3926 -79.8721 -53.7607 -113.152zM699.326 28.4717l-2.56055 0.512695c-17.4072 5.11914 -34.8154 13.3115 -51.7119 25.0879h-0.511719l-3.02539 1.91797l-3.04395 1.99805c-24.8906 16.6543 -62.6475 50.0811 -106.059 149.171l-35.8398 -18.9443
l38.9121 144.896l135.168 -51.2002l-40.96 -22.0166c8.19141 -17.9199 16.3838 -31.2314 26.1113 -44.5439c14.3359 -20.4795 30.208 -39.4238 47.1045 -55.2959c39.4238 -38.9121 79.8721 -59.3916 113.151 -53.7598l-12.2871 -11.7764l-3.04297 -2.84473
c-30.1025 -27.7656 -79.6289 -62.708 -101.405 -63.2031v0.000976562z" />
</svg>
