<?xml version="1.0" encoding="UTF-8"?>
<svg width="834px" height="833px" viewBox="0 0 834 833" version="1.1" xmlns="http://www.w3.org/2000/svg" xmlns:xlink="http://www.w3.org/1999/xlink">
  <g id="NexusMods" transform="translate(0.9251, 0.8284)" fill="currentColor" fill-rule="nonzero">
    <path d="M612.797682,0.51179 C620.477372,1.5362 627.645382,3.07136 635.837682,5.63191 C650.173582,10.23933 662.461682,16.89561 671.165782,22.01571 C690.621882,33.27941 710.589582,47.10361 731.581782,64.51181 C740.797602,72.1915 750.013382,80.38391 758.717482,88.57631 L765.885452,95.74428 C769.469432,98.81557 773.053422,102.39955 775.612992,106.49628 C784.829792,118.27168 791.997792,135.16818 792.509492,158.71988 C793.021211,166.91226 793.021211,175.61638 792.509492,184.31948 C791.485082,203.26378 788.925512,221.18378 784.317112,237.56748 C780.733132,249.85558 776.637422,262.14368 772.029012,274.43178 C781.245812,297.47178 787.901112,321.02358 792.509512,345.08798 C801.725332,395.77548 800.701892,447.99998 789.437242,498.17598 C796.093492,507.90352 802.237042,517.12028 807.357142,526.33618 C815.391322,540.51388 822.117842,555.12918 827.131542,570.17998 L829.006542,575.9915 C831.217482,583.11748 834.707712,597.4378 831.933302,615.9358 C830.909862,623.10377 828.861032,629.76 826.301462,637.4397 C817.085642,663.552 802.749662,685.0559 789.949862,702.9758 C776.125662,722.4319 760.253562,741.3762 743.869762,758.7844 L737.725232,764.92795 C734.141252,769.02365 730.045542,772.60764 725.437132,776.19165 C715.196932,783.87231 700.860932,790.01585 681.404932,791.04025 C676.285792,791.467008 670.809232,791.892789 665.275032,792.023648 L661.437142,792.063687 C648.995742,792.063687 636.554342,791.234585 623.738942,789.202357 L619.453782,788.479701 C596.413782,784.895721 575.933282,777.727701 557.501682,770.559801 C547.773162,774.655501 537.533882,778.239491 527.805382,781.311801 C500.726282,789.531531 472.277082,795.013001 443.751682,796.889901 L438.717502,797.183846 C407.485102,799.231696 375.741902,796.672127 345.021202,791.040296 C341.437222,790.527601 337.341512,789.504166 333.757502,788.992446 C307.133502,807.935846 283.581702,820.223846 259.005502,828.416246 L258.493783,828.416246 C253.373663,827.903551 242.108983,832.000226 227.261383,832.000226 C224.189113,832.000226 220.605133,832.000226 217.533843,831.487531 C209.853183,830.464091 202.685243,828.927961 194.493843,826.368391 C180.157943,821.759991 167.869843,815.103791 159.165743,809.983591 C139.709643,798.719891 119.741943,784.895691 98.7497427,767.487491 C89.5339227,759.807801 80.3171427,751.616391 71.6130427,743.423991 L64.4450727,736.256021 C59.3259327,731.647621 54.7175327,726.527501 51.1335727,720.895621 C44.4773227,710.655421 38.8454727,697.343821 38.3337727,679.935621 C37.8210777,674.303781 37.3093627,668.671921 37.3093627,662.527421 C37.3093627,650.239321 37.8210817,636.927821 39.8699127,624.128021 C43.4538927,597.504021 52.1580127,573.952221 58.8133127,556.031321 L60.3494427,551.423901 C58.3015927,546.815501 56.7654627,541.695381 54.7176027,536.576201 C45.5017827,509.952201 39.3572027,480.255901 36.2860027,450.559601 C33.2137327,419.328201 34.2371727,387.584001 38.8455727,356.351601 C39.8699827,349.695351 40.8934227,343.040101 42.4295527,336.895501 C30.1414527,318.975601 14.7811527,293.376001 5.05355273,263.679701 L5.05355273,263.167982 L3.87093273,259.497082 C1.65609273,252.251962 -1.37418727,239.549782 0.685382727,224.078182 L0.957843727,222.208062 C1.98128373,215.040092 3.51741373,207.872162 6.07796373,200.191462 C10.3973037,186.751962 16.5174637,175.561562 21.4841637,167.043962 L22.4617027,165.375992 C33.7254027,145.919892 47.5496027,126.463892 64.4451027,105.471692 C72.1257627,96.2558721 79.8055027,87.0400921 87.9978027,78.8476921 L95.1657727,71.6797221 C98.7497527,67.5840221 102.845463,64.0000321 107.453873,60.9277221 C117.693173,53.2480321 132.029073,46.5918221 151.485073,46.0800221 C156.605193,45.6522881 162.081773,45.2265061 167.615973,45.0956471 L171.453863,45.055608 C184.253663,45.055608 198.077863,46.080018 211.389363,48.127878 C231.869863,51.200148 250.301463,56.831978 266.685263,62.975578 C277.437263,58.368158 288.701863,54.271478 300.477263,50.175778 C326.670663,41.444328 354.701863,35.470678 382.828863,33.124978 L387.517343,32.767556 C418.749743,30.207986 450.493943,31.744116 480.701943,36.863256 C487.869913,37.887666 495.037843,39.423806 502.205843,40.959936 C526.269343,24.576136 548.285943,12.799736 571.325943,5.631836 L571.837662,5.631836 L573.244892,5.09082 C578.860122,3.01172 589.459692,0 603.069092,0 C606.141362,0 609.725342,0 612.797612,0.511719 L612.797682,0.51179 Z M392.125682,455.16779 L257.469682,506.36799 L297.917882,528.38359 C289.725502,546.30349 281.534082,559.61599 271.805582,572.92749 C257.469682,593.40799 241.597582,612.35129 224.702082,628.22339 C185.277282,667.13549 144.829982,687.61599 111.550082,681.98319 L123.838182,693.75959 C153.534482,721.91979 205.758082,759.29569 228.286182,759.80749 L230.845752,759.295771 C248.253952,754.175651 265.662152,745.983271 282.557652,734.207871 L283.069371,734.207871 L287.663121,731.268421 L289.936561,729.753771 C314.833061,712.917871 352.249061,679.155171 395.197561,581.119771 L431.038361,600.063171 L392.125682,455.16779 Z M600.509682,396.79979 L455.613682,435.71189 L507.838282,569.85589 L528.830482,529.92039 C546.750382,538.1118 560.061882,546.30419 573.374382,556.03169 C593.853882,570.36859 612.798182,586.23969 628.670282,603.13619 C667.582382,642.55999 688.061882,683.00829 682.430082,716.28819 L694.206482,704.00009 L697.051212,700.95712 L699.897892,697.83114 C727.145892,667.52934 759.775792,620.59094 760.254292,599.55184 L759.742573,596.99227 C754.622453,579.58407 746.430073,562.17587 734.653673,545.27937 L734.653673,544.767651 L731.715193,540.174881 L730.200543,537.900471 C713.363643,513.004971 679.601943,475.588971 581.565543,432.639471 L600.509682,396.79979 Z M149.949682,118.270069 L138.173282,131.07139 C110.013082,160.76769 72.6371817,212.99229 72.1253817,235.51939 L72.6371007,238.07994 C77.7572207,255.48714 85.9496007,272.89534 97.7250007,289.79184 L97.7250007,290.303559 L100.147851,294.107269 L102.167381,297.153169 C119.000381,322.049669 152.754281,359.472469 250.812381,402.430169 L231.868981,438.269969 L376.764981,399.357869 L325.053081,263.677869 L303.549181,304.637869 C285.629281,296.445489 272.316781,288.254069 259.005281,278.525569 C238.524781,264.189669 219.581481,248.317569 203.709381,231.422069 C164.797281,191.998269 144.316781,151.549969 149.948681,118.270069 L149.949682,118.270069 Z M602.045682,72.190175 L599.485132,72.704185 C582.077932,77.823325 564.669732,86.015685 547.773232,97.792085 L547.261513,97.792085 L544.236123,99.710055 L541.192173,101.708105 C516.301573,118.362405 478.544673,151.789205 435.133173,250.879105 L399.293373,231.934805 L438.205473,376.830805 L573.373473,325.630605 L532.413473,303.614005 C540.604883,285.694105 548.797273,272.382605 558.524773,259.070105 C572.860673,238.590605 588.732773,219.646305 605.629273,203.774205 C645.053073,164.862105 685.501373,144.382605 718.780273,150.014405 L706.493173,138.238005 L703.450203,135.393275 C673.347703,107.627675 623.821303,72.685275 602.045203,72.190175 L602.045203,72.190175 L602.045682,72.190175 Z"></path>
  </g>
</svg>