<?xml version="1.0" encoding="UTF-8"?>
<svg width="989px" height="1024px" viewBox="0 0 989 1024" version="1.1" xmlns="http://www.w3.org/2000/svg" xmlns:xlink="http://www.w3.org/1999/xlink">
  <g id="Niconico" transform="translate(0.8421, 0.6137)" fill="currentColor" fill-rule="nonzero">
    <path d="M918.5288,231.16789 L576.5128,231.16789 L753.6648,54.01689 C758.78492,48.89677 758.78492,39.67999 753.6648,33.53639 L723.9685,3.84009 C718.84838,-1.28003 709.6326,-1.28003 703.489,3.84009 L491.52,215.80909 L279.552,3.84009 C274.43188,-1.28003 265.2161,-1.28003 259.0725,3.84009 L229.3762,33.53639 C224.25608,38.65651 224.25608,47.87229 229.3762,54.01689 L406.5272,231.16789 L70.6562,231.16789 C31.7441,231.16789 1.42108547e-14,262.91199 1.42108547e-14,301.82409 L1.42108547e-14,845.56809 C1.42108547e-14,884.48019 31.7441,916.22429 70.6562,916.22429 L161.7919,916.22429 C161.7919,917.24773 162.81534,918.27214 163.83975,918.27214 L247.80755,1017.60024 C250.87982,1020.67153 253.95208,1022.71938 258.04775,1022.71938 L258.04775,1022.71938 C262.14345,1022.71938 265.21572,1020.67153 268.28795,1018.62368 L362.49595,919.29558 C363.51939,918.27214 364.5438,917.24773 364.5438,916.22429 L617.4718,916.22429 C617.4718,917.24773 618.49621,918.27214 619.51965,918.27214 L703.48845,1017.60024 C706.55974,1020.67153 709.632,1022.71938 713.72775,1022.71938 L713.72775,1022.71938 C717.82443,1022.71938 720.89572,1020.67153 723.96795,1018.62368 L818.17595,919.29558 C819.20036,918.27214 820.2238,917.24773 820.2238,916.22429 L916.4797,916.22429 C955.3918,916.22429 987.1359,884.48019 987.1359,845.56809 L987.1359,301.82409 C989.18375,262.91199 957.4396,231.16789 918.5275,231.16789 L918.5288,231.16789 Z M365.5688,392.96009 C365.5688,392.96009 174.0818,412.41619 169.9848,603.90409 L169.9848,632.57599 C169.9848,671.48809 132.0971,702.20779 93.185,702.20779 L93.185,702.20779 L93.185,702.20779 L93.185,702.20779 C54.2729,702.20779 36.8657,670.46369 36.8657,631.55159 L36.8657,338.68859 C36.8657,299.77649 68.6089,268.03239 107.521,268.03239 L365.569,268.03239 C404.4811,268.03239 436.2252,273.15251 436.2252,319.23259 C437.24961,358.14469 424.9615,389.88789 365.569,392.96009 L365.5688,392.96009 Z"></path>
  </g>
</svg>