<?xml version="1.0" standalone="no"?>
<!DOCTYPE svg PUBLIC "-//W3C//DTD SVG 1.1//EN" "http://www.w3.org/Graphics/SVG/1.1/DTD/svg11.dtd" >
<svg xmlns="http://www.w3.org/2000/svg" xmlns:xlink="http://www.w3.org/1999/xlink" version="1.1" viewBox="-10 0 1034 1024">
   <path fill="currentColor"
d="M935.936 90.4238h-342.016l177.152 -177.151c5.12012 -5.12012 5.12012 -14.3369 0 -20.4805l-29.6963 -29.6963c-5.12012 -5.12012 -14.3359 -5.12012 -20.4795 0l-211.969 211.969l-211.968 -211.969c-5.12012 -5.12012 -14.3359 -5.12012 -20.4795 0l-29.6963 29.6963
c-5.12012 5.12012 -5.12012 14.3359 0 20.4805l177.151 177.151h-335.871c-38.9121 0 -70.6562 31.7441 -70.6562 70.6562v543.744c0 38.9121 31.7441 70.6562 70.6562 70.6562h91.1357c0 1.02344 1.02344 2.04785 2.04785 2.04785l83.9678 99.3281
c3.07227 3.07129 6.14453 5.11914 10.2402 5.11914v0c4.0957 0 7.16797 -2.04785 10.2402 -4.0957l94.208 -99.3281c1.02344 -1.02344 2.04785 -2.04785 2.04785 -3.07129h252.928c0 1.02344 1.02441 2.04785 2.04785 2.04785l83.9688 99.3281
c3.07129 3.07129 6.14355 5.11914 10.2393 5.11914v0c4.09668 0 7.16797 -2.04785 10.2402 -4.0957l94.208 -99.3281c1.02441 -1.02344 2.04785 -2.04785 2.04785 -3.07129h96.2559c38.9121 0 70.6562 -31.7441 70.6562 -70.6562v-543.744
c2.04785 -38.9121 -29.6963 -70.6562 -68.6084 -70.6562zM382.976 252.216c0 0 -191.487 19.4561 -195.584 210.944v28.6719c0 38.9121 -37.8877 69.6318 -76.7998 69.6318v0v0v0c-38.9121 0 -56.3193 -31.7441 -56.3193 -70.6562v-292.863
c0 -38.9121 31.7432 -70.6562 70.6553 -70.6562h258.048c38.9121 0 70.6562 5.12012 70.6562 51.2002c1.02441 38.9121 -11.2637 70.6553 -70.6562 73.7275z" />
</svg>
