<?xml version="1.0" encoding="UTF-8"?>
<svg width="943px" height="1025px" viewBox="0 0 943 1025" version="1.1" xmlns="http://www.w3.org/2000/svg" xmlns:xlink="http://www.w3.org/1999/xlink">
  <g id="Nintendo" transform="translate(0.2154, 0.6614)" fill="currentColor" fill-rule="nonzero">
    <path d="M392,270 C308,270 230,296 164,338 C156,344 150,348 142,348 L42,348 C20,348 2,366 2,386 L0,386 L0,986 C0,1006 18,1022 40,1022 L168,1022 C190,1022 208,1006 208,986 L208,644 C208,546 290,468 392,468 C492,468 574,546 574,644 L574,986 C574,1006 592,1024 614,1024 L742,1024 C762,1024 782,1006 782,986 L782,644 C780,438 608,270 392,270 Z M936,272 C818,108 618,0 392,0 C292,0 198,20 112,58 C98,64 92,80 98,96 C106,110 122,116 136,110 C214,74 300,56 392,56 C598,56 782,154 892,306 C900,318 918,320 930,312 C944,302 946,284 936,272 Z M392,126 C314,126 238,142 168,172 C154,180 148,194 154,208 C162,224 178,230 192,224 C254,196 322,182 394,182 C550,182 700,254 790,376 C794,384 804,388 812,388 C818,388 824,386 828,382 C840,372 842,356 834,344 C732,208 566,126 392,126 Z"></path>
  </g>
</svg>