<?xml version="1.0" standalone="no"?>
<!DOCTYPE svg PUBLIC "-//W3C//DTD SVG 1.1//EN" "http://www.w3.org/Graphics/SVG/1.1/DTD/svg11.dtd" >
<svg xmlns="http://www.w3.org/2000/svg" xmlns:xlink="http://www.w3.org/1999/xlink" version="1.1" viewBox="-10 0 1034 1024">
   <path fill="currentColor"
d="M432 129c-84 0 -162 26 -228 68c-8 6 -14 10 -22 10h-100c-22 0 -40 18 -40 38h-2v600c0 20 18 36 40 36h128c22 0 40 -16 40 -36v-342c0 -98 82 -176 184 -176c100 0 182 78 182 176v342c0 20 18 38 40 38h128c20 0 40 -18 40 -38v-342c-2 -206 -174 -374 -390 -374z
M976 131c-118 -164 -318 -272 -544 -272c-100 0 -194 20 -280 58c-14 6 -20 22 -14 38c8 14 24 20 38 14c78 -36 164 -54 256 -54c206 0 390 98 500 250c8 12 26 14 38 6c14 -10 16 -28 6 -40zM432 -15c-78 0 -154 16 -224 46c-14 8 -20 22 -14 36c8 16 24 22 38 16
c62 -28 130 -42 202 -42c156 0 306 72 396 194c4 8 14 12 22 12c6 0 12 -2 16 -6c12 -10 14 -26 6 -38c-102 -136 -268 -218 -442 -218z" />
</svg>
