<?xml version="1.0" standalone="no"?>
<!DOCTYPE svg PUBLIC "-//W3C//DTD SVG 1.1//EN" "http://www.w3.org/Graphics/SVG/1.1/DTD/svg11.dtd" >
<svg xmlns="http://www.w3.org/2000/svg" xmlns:xlink="http://www.w3.org/1999/xlink" version="1.1" viewBox="-10 0 1034 1024">
   <path fill="currentColor"
d="M512 377c144 0 260 -116 260 -258c0 -144 -116 -260 -260 -260s-260 116 -260 260c0 142 116 258 260 258zM512 -9c70 0 128 56 128 128c0 70 -58 126 -128 126s-128 -56 -128 -126c0 -72 58 -128 128 -128zM810 409c-14 -30 -54 -54 -108 -12c-74 58 -190 58 -190 58
s-116 0 -190 -58c-54 -42 -94 -18 -108 12c-26 52 2 76 68 118c56 36 132 48 180 54l-40 42c-58 56 -114 112 -154 152c-22 22 -22 60 0 84l8 6c24 24 60 24 84 0l152 -152c58 58 114 114 154 152c22 24 60 24 84 0l6 -6c24 -24 24 -62 0 -84l-194 -194
c50 -6 126 -18 180 -54c66 -42 94 -66 68 -118z" />
</svg>
