<?xml version="1.0" encoding="UTF-8"?>
<svg width="616px" height="1025px" viewBox="0 0 616 1025" version="1.1" xmlns="http://www.w3.org/2000/svg" xmlns:xlink="http://www.w3.org/1999/xlink">
  <g id="Odnoklassniki" transform="translate(0.1094, 0.4253)" fill="currentColor" fill-rule="nonzero">
    <path d="M307.625,518 C451.625,518 567.625,402 567.625,260 C567.625,116 451.625,0 307.625,0 C163.625,0 47.625,116 47.625,260 C47.625,402 163.625,518 307.625,518 Z M307.625,132 C377.625,132 435.625,188 435.625,260 C435.625,330 377.625,386 307.625,386 C237.625,386 179.625,330 179.625,260 C179.625,188 237.625,132 307.625,132 Z M605.625,550 C591.625,520 551.625,496 497.625,538 C423.625,596 307.625,596 307.625,596 C307.625,596 191.625,596 117.625,538 C63.625,496 23.625,520 9.625,550 C-16.375,602 11.625,626 77.625,668 C133.625,704 209.625,716 257.625,722 L217.625,764 C159.625,820 103.625,876 63.625,916 C41.625,938 41.625,976 63.625,1000 L71.625,1006 C95.625,1030 131.625,1030 155.625,1006 L307.625,854 C365.625,912 421.625,968 461.625,1006 C483.625,1030 521.625,1030 545.625,1006 L551.625,1000 C575.625,976 575.625,938 551.625,916 L357.625,722 C407.625,716 483.625,704 537.625,668 C603.625,626 631.625,602 605.625,550 Z"></path>
  </g>
</svg>