<?xml version="1.0" encoding="UTF-8"?>
<svg width="700px" height="700px" viewBox="0 0 700 700" version="1.1" xmlns="http://www.w3.org/2000/svg" xmlns:xlink="http://www.w3.org/1999/xlink">
    <title>onedev</title>
    <g id="onedev" stroke="none" stroke-width="1" fill="none" fill-rule="evenodd">
        <path d="M351.867143,93 C398.199296,93 441.67144,105.366745 479.219051,126.952626 C490.556831,116.19963 505.754826,109.508166 522.617697,109.508166 C557.615266,109.508166 585.998063,137.881378 585.998063,172.882142 C585.998063,188.98767 579.875406,203.581707 569.962837,214.762906 C573.676056,220.75135 577.124045,226.921941 580.351542,233.220353 C592.548923,236.061189 601.649825,246.977158 601.649825,260.040531 C601.649825,275.264089 589.31184,287.602074 574.088281,287.602074 C558.864722,287.602074 546.526737,275.264089 546.526737,260.040531 C546.526737,252.588528 549.498591,245.839545 554.304685,240.876869 C517.466485,179.126229 448.561027,137.510695 369.480967,137.510695 C283.476168,137.510695 209.406716,186.709249 175.645822,257.535226 C161.221149,285.058424 153.008608,316.336382 153.008608,349.515687 C153.008608,357.114684 153.478352,364.605033 154.312388,371.983538 C155.625756,371.93241 156.942319,371.884476 158.268469,371.884476 C210.330227,371.884476 252.536937,414.091186 252.536937,466.152945 C252.536937,483.463192 247.849078,499.670978 239.703643,513.61632 C271.655861,535.521756 310.283564,548.371027 351.867143,548.371027 C435.325095,548.371027 506.831723,496.663973 536.246681,423.610704 C521.627079,412.285705 512.174668,394.604775 512.174668,374.680575 C512.174668,340.485088 539.895989,312.766962 574.088281,312.766962 C608.280573,312.766962 636.001894,340.485088 636.001894,374.680575 C636.001894,401.823503 618.50311,424.834596 594.194627,433.190936 C559.433529,533.655559 464.001883,606.031374 351.867143,606.031374 C293.085161,606.031374 238.895171,586.11037 195.592391,552.729746 C184.142766,557.673248 171.529965,560.421413 158.268469,560.421413 C106.20671,560.421413 64,518.214704 64,466.152945 C64,436.517495 77.689699,410.087173 99.0774569,392.805685 C96.6712143,378.722935 95.3514558,364.272697 95.3514558,349.515687 C95.3514558,298.994179 110.092488,251.885509 135.401175,212.139367 C126.853102,201.354415 121.746627,187.71904 121.746627,172.882142 C121.746627,137.881378 150.116643,109.508166 185.126993,109.508166 C201.251695,109.508166 215.903252,115.579695 227.078059,125.514633 C264.03769,104.839481 306.589518,93 351.867143,93 Z M351.364651,426.736696 L358.22316,426.736696 L363.055137,426.747295 C387.932913,426.85905 406.95508,428.092539 406.95508,441.637074 C406.95508,456.633749 383.595673,468.808762 354.794259,468.808762 C325.986454,468.808762 302.633438,456.633749 302.633438,441.637074 C302.633438,427.227995 324.155578,426.751741 351.364651,426.736696 Z M228.955119,319.496772 C240.289704,283.735469 267.052362,260.302565 288.753283,267.17937 C306.987042,272.956909 315.771585,298.323115 311.40328,327.51119 C311.086922,326.693131 310.837669,325.871877 310.431836,325.085774 C304.526475,313.703256 290.494853,309.258258 279.115531,315.163618 C267.726622,321.07537 263.288015,335.1006 269.193375,346.486314 C275.105126,357.878419 289.123966,362.310635 300.512875,356.398883 C301.698421,355.785339 302.778514,355.034387 303.810674,354.245088 C291.060464,384.311936 267.33357,402.916378 247.722533,396.704246 C226.031199,389.837027 217.623729,355.270857 228.955119,319.496772 Z M420.832997,267.181288 C442.533918,260.301288 469.296576,283.734192 480.631161,319.49869 C491.965746,355.26958 483.558277,389.838945 461.863747,396.702968 C442.25271,402.915101 418.52262,384.310659 405.778802,354.247006 C406.807766,355.03311 407.887859,355.784062 409.073405,356.400801 C420.46551,362.309357 434.484349,357.880337 440.392905,346.485037 C446.298265,335.102518 441.859659,321.074092 430.470749,315.162341 C419.091427,309.260176 405.063,313.701978 399.15764,325.087692 C398.751806,325.8706 398.502554,326.695049 398.183,327.513108 C393.814695,298.325034 402.602434,272.955631 420.832997,267.181288 Z" id="Shape" fill="currentColor" fill-rule="nonzero"></path>
    </g>
</svg>