<?xml version="1.0" encoding="UTF-8"?>
<svg width="280px" height="280px" viewBox="0 0 280 280" version="1.1" xmlns="http://www.w3.org/2000/svg" xmlns:xlink="http://www.w3.org/1999/xlink">
    <title>OpenCollective</title>
    <g id="OpenCollective" stroke="none" stroke-width="1" fill="none" fill-rule="evenodd">
        <path d="M140.965083,262.122801 C137.495593,262.301115 132.254947,262.302443 129.319217,262.125761 C126.383487,261.94908 120.924495,261.33795 117.188113,260.767698 C113.451732,260.197447 106.703128,258.823698 102.191211,257.714903 C97.0963316,256.462858 91.9477796,254.399 88.6043726,252.268477 C85.6435186,250.381727 81.6430456,247.706602 79.7144266,246.323774 C77.7858076,244.940931 74.0736906,242.071791 71.4652736,239.947889 C68.8568556,237.823988 63.0105806,232.064009 58.4735476,227.147917 C53.9365106,222.23184 48.2591506,215.644987 45.8571916,212.510496 C43.4552336,209.375975 39.7862616,204.814482 37.7039226,202.373808 C35.6215806,199.933134 33.1342396,195.871885 32.1764956,193.348799 C31.2187506,190.825712 29.6717246,187.917814 28.7386596,186.886778 C27.8055936,185.855757 26.5423376,183.611479 25.9314266,181.899489 C25.3205146,180.187498 23.9209076,177.0399 22.8211896,174.904829 C21.7214716,172.769758 19.9094486,168.184202 18.7944736,164.714689 C17.2611496,159.943419 16.6269096,154.741606 16.1912366,143.363951 C15.8098136,133.403029 15.9999185,126.518202 16.7529006,122.983687 C17.3786216,120.047957 18.9772616,115.244032 20.3054336,112.308302 C21.6336066,109.372587 23.7290096,104.787016 24.9618846,102.118178 C26.1947576,99.449339 27.9358986,94.991026 28.8310836,92.210814 C29.7262696,89.430616 31.5764856,85.500136 32.9426716,83.476423 C34.3088576,81.452711 36.7908996,78.231382 38.4583216,76.31793 C40.1257406,74.404478 42.1923626,71.565809 43.0508126,70.009764 C43.9092626,68.453718 47.4030216,64.194227 50.8147226,60.544249 C54.2264196,56.894255 59.6381326,52.002791 62.8407466,49.674315 C66.0433566,47.345839 72.3757956,42.89279 76.9128286,39.778669 C81.4498696,36.664549 88.2190276,32.864042 91.9554086,31.333113 C95.6917826,29.802183 100.945582,27.557188 103.630519,26.344236 C106.31544,25.131285 113.958041,22.536406 120.61407,20.577849 C127.270091,18.619291 135.991328,16.697111 139.994594,16.306349 C145.871501,15.732664 148.020869,15.917341 151.155208,17.265287 C153.659999,18.342512 158.652263,19.097426 165.227305,19.393278 C173.521556,19.766462 176.320232,20.299696 180.269877,22.259352 C182.938716,23.58351 188.397716,26.134001 192.400981,27.927092 C196.404246,29.720183 201.970851,32.857084 204.771205,34.898008 C207.571559,36.938917 210.61935,39.763472 211.544093,41.174772 C212.893046,43.233549 212.965678,43.827376 211.911525,44.17877 C211.188884,44.41963 209.846049,45.36833 208.927424,46.28694 C208.0088,47.20558 205.933391,49.880491 204.31541,52.231184 C202.697429,54.581892 199.027247,58.688292 196.159434,61.356505 C193.291637,64.024702 189.032542,68.541182 186.694804,71.39308 C183.453334,75.347456 181.955867,76.474348 180.386622,76.14012 C179.254878,75.899077 176.145305,74.604689 173.476451,73.263701 C170.807612,71.922728 166.44041,70.068419 163.771571,69.143034 C161.102717,68.21765 158.045695,67.082274 156.978145,66.619963 C155.910609,66.157667 152.35197,65.497374 149.070079,65.152662 C145.788158,64.807966 139.237361,65.040587 134.512736,65.669615 C129.788119,66.298643 123.661662,67.247801 120.89841,67.778883 C118.13515,68.30995 114.204677,69.923628 112.164004,71.364836 C110.123347,72.806044 107.224452,74.617521 105.722026,75.390349 C104.2196,76.163176 101.978496,78.492262 100.741801,80.566099 C99.5051066,82.639967 97.1236066,85.169691 95.4495566,86.187727 C93.7755076,87.205778 90.9943266,90.048018 89.2691526,92.503828 C87.5439786,94.959623 84.9291106,97.594038 83.4583456,98.358091 C81.9875816,99.122145 79.7475456,101.372526 78.4805016,103.358931 C77.2134656,105.345366 75.0719286,107.915846 73.7215446,109.071119 C72.0699636,110.484053 70.9281946,112.866575 70.2333816,116.349775 C69.6652816,119.197783 68.9891456,123.711546 68.7308566,126.3804 C68.4725706,129.049238 67.8417006,133.198073 67.3289176,135.600035 C66.8161416,138.001997 66.5764836,142.671385 66.7963546,145.976454 C67.0162186,149.281523 67.9630306,153.880537 68.9003816,156.196486 C69.8377296,158.512449 72.3515346,163.387114 74.4866096,167.029127 C76.6216836,170.671126 78.9706596,174.76486 79.7065536,176.12631 C80.4424536,177.487761 85.4333446,182.923475 90.7974266,188.205671 C96.1615016,193.487867 103.202006,199.331694 106.442981,201.191954 C109.683955,203.052229 113.42747,205.431501 114.76189,206.479246 C116.586902,207.912169 119.713199,208.611372 127.378245,209.300963 C132.982814,209.805174 142.609721,210.473219 148.771358,210.785521 C157.120784,211.208723 160.957347,211.006529 163.833507,209.991774 C165.95605,209.242888 170.069072,208.303343 172.973537,207.903868 C176.675563,207.394713 179.353511,206.29431 181.930614,204.223295 C183.952525,202.598448 185.798076,201.45114 186.031856,201.673765 C186.26562,201.896376 190.082377,205.353911 194.513515,209.357176 C198.944667,213.360441 205.741084,219.657499 209.616679,223.350645 C214.910945,228.395689 216.663203,230.70645 216.663203,232.64311 C216.663203,234.06082 215.7503,236.06143 214.634547,237.088926 C213.518764,238.116407 211.00764,240.53491 209.054225,242.463362 C207.10081,244.391813 202.227183,248.103926 198.223918,250.712507 C194.220653,253.321089 189.750804,255.999876 188.290919,256.665358 C186.831035,257.330839 181.372035,258.493589 176.159816,259.249251 C170.947581,260.004912 162.315837,260.887648 156.978145,261.21089 C151.640452,261.534132 144.434581,261.944487 140.965083,262.122801 Z M235.649287,204.504728 C234.945491,204.504728 233.883266,203.918654 233.288753,203.20233 C232.69427,202.486006 232.495219,201.612578 232.846431,201.261351 C233.197642,200.910139 232.700893,200.62277 231.742534,200.62277 C230.78416,200.62277 228.200236,199.056913 226.000468,197.14308 C223.8007,195.229246 221.127452,192.913603 220.059917,191.997191 C218.992366,191.080778 216.590419,189.295866 214.722224,188.030714 C212.85403,186.765562 210.358592,184.604826 209.176814,183.229094 C207.995021,181.853361 207.012416,179.776838 206.99298,178.614592 C206.973888,177.445021 208.127635,175.581633 209.577037,174.441557 C211.017314,173.308622 213.105632,170.765776 214.217723,168.7908 C215.329814,166.81584 216.842143,163.234709 217.578471,160.832747 C218.314784,158.430784 219.012385,155.810454 219.128673,155.00981 C219.244975,154.209166 219.893596,149.460997 220.570079,144.458342 C221.336162,138.792921 221.581416,131.10684 221.220393,124.078077 C220.901591,117.871595 220.106319,111.278151 219.45312,109.426008 C218.799922,107.573851 216.813167,104.155806 215.038112,101.830381 C213.263072,99.504942 211.810756,96.547331 211.810756,95.257917 C211.810756,93.919493 212.955974,91.900831 214.479594,90.553511 C215.947459,89.255507 219.892818,86.367384 223.24705,84.135466 C226.601283,81.903563 229.876674,79.574858 230.525722,78.960554 C231.174739,78.346266 233.158626,76.64546 234.934321,75.180967 C236.710017,73.71649 239.049144,72.518278 240.13235,72.518278 C241.215571,72.518278 243.746471,73.82086 245.756602,75.412901 C247.766719,77.004942 250.551372,80.607878 251.944713,83.419432 C253.338069,86.23097 255.79594,92.164061 257.406642,96.604078 C259.177257,101.484892 260.335185,106.569273 260.335185,109.463057 C260.335185,112.708555 260.735667,114.249281 261.579249,114.249281 C262.263499,114.249281 263.02296,115.45027 263.266994,116.918135 C263.510997,118.385985 263.67538,123.735808 263.632258,128.806624 C263.589152,133.877424 263.035731,142.171812 262.402446,147.238585 C261.758082,152.393919 260.357234,158.297178 259.221538,160.643263 C258.105311,162.949034 256.875178,166.240599 256.48788,167.957823 C256.100581,169.675047 254.631297,173.687498 253.222789,176.874388 C251.814296,180.061277 250.039287,185.119719 249.2783,188.115355 C248.517329,191.110991 246.989024,195.337248 245.882075,197.507048 C244.775127,199.676848 242.988673,201.731688 241.912181,202.073347 C240.835689,202.415007 239.948237,203.211027 239.940059,203.842268 C239.930278,204.598784 239.640819,204.541166 239.090877,203.673246 C238.509288,202.755369 238.055507,202.681883 237.592738,203.430632 C237.227641,204.021391 236.353084,204.504728 235.649287,204.504728 Z" id="Shape" fill="currentColor"></path>
    </g>
</svg>