<?xml version="1.0" encoding="UTF-8"?>
<svg width="1024px" height="1025px" viewBox="0 0 1024 1025" version="1.1" xmlns="http://www.w3.org/2000/svg" xmlns:xlink="http://www.w3.org/1999/xlink">
  <g id="Opera" transform="translate(0, 0.0926)" fill="currentColor" fill-rule="nonzero">
    <path d="M852,130 C762,50 644,0 514,0 L512,0 C230,0 0,230 0,512 C0,786 216,1010 488,1022 C496,1022 504,1024 512,1024 C644,1024 762,974 852,894 C958,800 1024,664 1024,512 C1024,360 958,224 852,130 Z M248,524 L248,500 C250,390 286,290 344,224 C392,168 452,134 518,134 C668,134 788,304 788,512 C788,720 668,890 518,890 C452,890 392,856 344,800 C286,734 250,634 248,524 Z"></path>
  </g>
</svg>