<?xml version="1.0" standalone="no"?>
<!DOCTYPE svg PUBLIC "-//W3C//DTD SVG 1.1//EN" "http://www.w3.org/Graphics/SVG/1.1/DTD/svg11.dtd" >
<svg xmlns="http://www.w3.org/2000/svg" xmlns:xlink="http://www.w3.org/1999/xlink" version="1.1" viewBox="-10 0 1044 1024">
   <path fill="currentColor"
d="M852 -11c-90 -80 -208 -130 -338 -130h-2c-282 0 -512 230 -512 512c0 274 216 498 488 510c8 0 16 2 24 2c132 0 250 -50 340 -130c106 -94 172 -230 172 -382s-66 -288 -172 -382zM248 383v-24c2 -110 38 -210 96 -276c48 -56 108 -90 174 -90c150 0 270 170 270 378
s-120 378 -270 378c-66 0 -126 -34 -174 -90c-58 -66 -94 -166 -96 -276z" />
</svg>
