<?xml version="1.0" standalone="no"?>
<!DOCTYPE svg PUBLIC "-//W3C//DTD SVG 1.1//EN" "http://www.w3.org/Graphics/SVG/1.1/DTD/svg11.dtd" >
<svg xmlns="http://www.w3.org/2000/svg" xmlns:xlink="http://www.w3.org/1999/xlink" version="1.1" viewBox="-10 0 1034 1024">
   <path fill="currentColor"
d="M121.856 368.952c0 -23.5518 2.04785 -47.1045 5.11914 -70.6562c7.16797 -54.2715 23.5527 -106.496 49.1523 -155.647c19.4561 -36.8643 43.0078 -70.6562 70.6562 -102.4c45.0557 -51.2002 98.3037 -92.1602 155.647 -128
c27.6484 -16.3838 56.3203 -31.7441 83.9688 -47.1045c3.07129 -2.04785 6.14355 -4.0957 9.21582 -5.11914c5.12012 -2.04883 9.21582 -2.04883 12.2881 2.04785c3.07129 3.07129 3.07129 8.19141 0 12.2881c-15.3604 23.5518 -28.6719 49.1514 -36.8643 76.7998
c-3.07227 9.21582 -5.12012 19.4561 -6.14355 28.6719c0 3.07227 0 4.0957 4.0957 4.0957c15.3594 -2.04785 30.7197 -3.07129 46.0801 -3.07129c53.248 1.02344 104.447 11.2637 152.576 32.7676c90.1113 39.9355 155.647 104.448 197.632 192.512
c15.3594 31.7441 25.5996 64.5127 30.7197 99.3281c3.07227 18.4326 4.0957 36.8643 5.12012 55.2959c1.02344 14.3359 0 27.6484 0 41.9844c-1.02441 18.4316 -3.07227 36.8643 -6.14453 54.2715c-6.14355 37.8887 -16.3838 75.7764 -31.7432 110.593
c-18.4326 43.0078 -43.0088 82.9434 -72.7041 118.783c-47.1045 58.3682 -104.448 103.425 -167.937 142.336c-28.6719 17.4082 -59.3916 32.7686 -89.0879 49.1523c-2.04785 1.02441 -4.0957 2.04785 -6.14355 3.07227c-4.09668 2.04785 -9.2168 1.02344 -12.2881 -2.04785
c-3.07227 -3.07227 -3.07227 -7.16797 0 -11.2646c6.14355 -9.21582 11.2637 -17.4072 16.3838 -27.6475c11.2637 -20.4805 20.4795 -41.9844 25.5996 -64.5117c1.02441 -5.12012 2.04785 -10.2402 2.04785 -14.3369c0 -3.07129 0 -4.0957 -3.07129 -3.07129
c-9.21582 1.02344 -19.4561 2.04785 -28.6719 2.04785c-9.2168 1.02344 -18.4326 1.02344 -26.624 0c-9.2168 0 -17.4082 -1.02441 -26.624 -2.04785c-21.5039 -2.04785 -41.9844 -6.14453 -62.4639 -11.2646c-78.8486 -21.5039 -144.385 -63.4873 -196.608 -125.951
c-37.8877 -45.0566 -64.5117 -97.2803 -78.8477 -154.624c-5.12012 -18.4326 -8.19238 -37.8887 -10.2402 -57.3447c-3.07227 -12.2881 -4.0957 -25.5996 -4.0957 -39.9355zM512 518.456c79.8721 1.02441 146.432 -65.5361 147.456 -145.408
c1.02441 -81.9199 -66.5596 -147.456 -146.432 -148.479c-80.8965 0 -147.456 66.5596 -147.456 146.432c-1.02441 80.8965 65.5352 147.456 146.432 147.456z" />
</svg>
