<?xml version="1.0" encoding="UTF-8"?>
<svg width="781px" height="1024px" viewBox="0 0 781 1024" version="1.1" xmlns="http://www.w3.org/2000/svg" xmlns:xlink="http://www.w3.org/1999/xlink">
  <g id="Origin" transform="translate(0.4546, 0.4253)" fill="currentColor" fill-rule="nonzero">
    <path d="M0,510.272692 C0,486.720892 2.04854,463.168192 5.11983,439.616492 C12.2878,385.344992 28.67253,333.120492 54.27213,283.969492 C73.72823,247.105192 97.27993,213.313292 124.92833,181.569492 C169.98403,130.369292 223.23203,89.4092923 280.57533,53.5694923 C308.22373,37.1856923 336.89563,21.8253923 364.54413,6.46499235 C367.61542,4.41714235 370.68768,2.36929235 373.75995,1.34585235 C378.88007,-0.702977654 382.97577,-0.702977654 386.04805,3.39370235 C389.11934,6.46499235 389.11934,11.5851123 386.04805,15.6818023 C370.68765,39.2336023 357.37615,64.8332023 349.18375,92.4816023 C346.11148,101.697422 344.06363,111.937702 343.0402,121.153502 C343.0402,124.225772 343.0402,125.249202 347.1359,125.249202 C362.4953,123.201352 377.8556,122.177912 393.216,122.177912 C446.464,123.201352 497.663,133.441612 545.792,154.945512 C635.9033,194.881012 701.439,259.393512 743.424,347.457512 C758.7834,379.201612 769.0236,411.970212 774.1437,446.785612 C777.21597,465.218212 778.2394,483.649912 779.26382,502.081512 C780.28726,516.417412 779.26382,529.729912 779.26382,544.065912 C778.23941,562.497512 776.19155,580.930212 773.11929,598.337412 C766.97574,636.226112 756.73549,674.113812 741.37609,708.930412 C722.94349,751.938212 698.36729,791.873812 668.67199,827.713412 C621.56749,886.081612 564.22399,931.138412 500.73499,970.049412 C472.06309,987.457612 441.34339,1002.81801 411.64709,1019.20171 C409.59924,1020.22612 407.55139,1021.24956 405.50354,1022.27398 C401.40686,1024.32183 396.28674,1023.29742 393.21544,1020.22613 C390.14317,1017.15386 390.14317,1013.05816 393.21544,1008.96153 C399.35899,999.745712 404.47914,991.554332 409.59924,981.314032 C420.86294,960.833532 430.07874,939.329632 435.19884,916.802332 C436.22325,911.682212 437.24669,906.562132 437.24669,902.465432 C437.24669,899.394142 437.24669,898.369732 434.1754,899.394142 C424.95958,900.417582 414.7193,901.441992 405.5035,901.441992 C396.2867,902.465432 387.0709,902.465432 378.8795,901.441992 C369.6627,901.441992 361.4713,900.417582 352.2555,899.394142 C330.7516,897.346292 310.2711,893.249612 289.7916,888.129542 C210.943,866.625642 145.4066,824.642242 93.1836,762.178542 C55.2959,717.121942 28.6719,664.898242 14.3359,607.554542 C9.21578,589.121942 6.14352,569.665842 4.0957,550.209842 C1.02343,537.921742 0,524.610242 0,510.274342 L0,510.272692 Z M390.14469,659.776692 C470.01679,660.801102 536.57669,594.240592 537.60069,514.368692 C538.6251,432.448792 471.04109,366.912692 391.16869,365.889692 C310.27219,365.889692 243.71269,432.449292 243.71269,512.321692 C242.68828,593.218192 309.24789,659.777692 390.14469,659.777692 L390.14469,659.776692 Z"></path>
  </g>
</svg>