<?xml version="1.0" standalone="no"?>
<!DOCTYPE svg PUBLIC "-//W3C//DTD SVG 1.1//EN" "http://www.w3.org/Graphics/SVG/1.1/DTD/svg11.dtd" >
<svg xmlns="http://www.w3.org/2000/svg" xmlns:xlink="http://www.w3.org/1999/xlink" version="1.1" viewBox="-10 0 1038 1024">
   <path fill="currentColor"
d="M640 77v200l70 44h8l300 -204c0 -24 -22 -40 -34 -40h-344zM640 351l64 44c8 6 20 0 20 0c-12 6 294 -196 294 -196v368c0 40 -26 56 -54 56h-324v-272zM308 259c-22 0 -38 10 -52 30c-12 20 -18 48 -18 82s6 60 18 80c14 20 30 30 52 30c20 0 38 -10 50 -28
c12 -20 18 -46 18 -82c0 -34 -6 -62 -18 -82s-28 -30 -50 -30zM6 -25v784l596 124v-1024zM404 499c-24 32 -58 50 -98 50s-72 -16 -96 -48c-26 -32 -38 -74 -38 -126c0 -54 12 -98 38 -132s58 -52 100 -52c40 0 72 16 96 50c24 32 36 74 36 126c0 54 -12 98 -38 132z" />
</svg>
