<?xml version="1.0" encoding="UTF-8"?>
<svg width="1013px" height="1025px" viewBox="0 0 1013 1025" version="1.1" xmlns="http://www.w3.org/2000/svg" xmlns:xlink="http://www.w3.org/1999/xlink">
  <g id="Outlook" transform="translate(0.569, 0.6137)" fill="currentColor" fill-rule="nonzero">
    <path d="M634,218 L634,418 L704,462 L712,462 L1012,258 C1012,234 990,218 978,218 L634,218 Z M634,492 L698,536 C706,542 718,536 718,536 C706,542 1012,340 1012,340 L1012,708 C1012,748 986,764 958,764 L634,764 L634,492 Z M302,400 C280,400 264,410 250,430 C238,450 232,478 232,512 C232,546 238,572 250,592 C264,612 280,622 302,622 C322,622 340,612 352,594 C364,574 370,548 370,512 C370,478 364,450 352,430 C340,410 324,400 302,400 Z M0,116 L0,900 L596,1024 L596,0 L0,116 Z M398,640 C374,672 340,690 300,690 C260,690 228,674 204,642 C178,610 166,568 166,516 C166,462 178,418 204,384 C230,350 262,332 304,332 C344,332 376,348 400,382 C424,414 436,456 436,508 C436,562 424,606 398,640 Z"></path>
  </g>
</svg>