<?xml version="1.0" encoding="UTF-8"?>
<svg width="1037px" height="1024px" viewBox="0 0 1037 1024" version="1.1" xmlns="http://www.w3.org/2000/svg" xmlns:xlink="http://www.w3.org/1999/xlink">
  <g id="Overwatch" transform="translate(0.3973, 0)" fill="currentColor" fill-rule="nonzero">
    <path d="M206,102 C296,34 402,0 512,0 L524,0 C634,0 740,34 830,102 L750,196 C684,148 606,120 524,120 L514,120 C432,120 354,148 288,196 L206,102 Z M518,1024 L512,1024 L494,1024 L488,1024 C484,1024 468,1022 468,1022 L458,1022 C454,1022 450,1020 446,1020 L436,1020 C432,1018 422,1018 422,1018 C422,1018 410,1014 406,1012 L402,1012 C382,1008 364,1002 346,996 C344,996 340,994 336,992 L332,990 C326,988 322,986 318,986 C256,960 202,924 156,880 L150,874 C54,778 0,648 0,512 C0,372 60,238 160,142 L242,240 C170,312 128,410 128,512 C128,580 146,646 180,704 L186,716 L402,502 L470,334 L470,608 L264,812 L278,820 C288,828 300,836 312,842 L320,846 L320,848 C378,882 444,902 512,902 L522,902 C590,902 656,882 714,848 L714,846 L720,842 C732,836 742,828 754,820 L758,812 L540,606 L540,334 L620,502 L846,716 L854,704 C888,646 908,580 908,512 C908,410 866,312 794,238 L874,140 C976,236 1036,372 1036,512 C1036,648 982,778 886,874 L876,882 C832,926 778,960 720,984 C714,988 708,988 704,990 L700,994 C696,994 692,996 690,998 C672,1004 654,1008 634,1012 C634,1012 622,1014 620,1016 L614,1016 C610,1018 606,1018 602,1018 C598,1020 594,1020 592,1020 C588,1020 584,1020 578,1022 L568,1022 C568,1022 552,1024 548,1024 L542,1024 L524,1024 L518,1024 Z"></path>
  </g>
</svg>