<?xml version="1.0" standalone="no"?>
<!DOCTYPE svg PUBLIC "-//W3C//DTD SVG 1.1//EN" "http://www.w3.org/Graphics/SVG/1.1/DTD/svg11.dtd" >
<svg xmlns="http://www.w3.org/2000/svg" xmlns:xlink="http://www.w3.org/1999/xlink" version="1.1" viewBox="-10 0 1034 1024">
   <path fill="currentColor"
d="M79.8721 371v-496.64c0 -15.3604 0 -15.3604 14.3359 -15.3604h454.656c63.4873 0 125.952 11.2637 184.319 35.8398c83.9688 34.8164 145.408 91.1357 181.248 175.104c16.3848 37.8877 24.5762 77.8232 27.6484 118.783
c4.0957 47.1045 1.02344 94.208 -8.19238 140.288c-16.3838 78.8486 -54.2715 145.408 -114.688 198.656c-40.96 35.8398 -88.0645 59.3926 -138.24 76.7998c-54.2715 17.4082 -109.568 26.624 -166.912 29.6963c-32.7676 2.04785 -64.5117 1.02441 -97.2803 1.02441
c-12.2871 0 -12.2871 0 -12.2871 12.2881v183.296c0 15.3594 -4.09668 28.6719 -15.3604 38.9121c-8.19238 8.19141 -18.4316 12.2871 -30.7197 12.2871h-266.24c-12.2881 0 -12.2881 0 -12.2881 -12.2871v-498.688z" />
</svg>
