<?xml version="1.0" encoding="UTF-8"?>
<svg width="865px" height="1024px" viewBox="0 0 865 1024" version="1.1" xmlns="http://www.w3.org/2000/svg" xmlns:xlink="http://www.w3.org/1999/xlink">
  <g id="Pandora" transform="translate(0.6555, 0.8284)" fill="currentColor" fill-rule="nonzero">
    <path d="M-1.42108547e-14,512.0004 L-1.42108547e-14,15.3604 C-1.42108547e-14,2.84217094e-14 -1.42108547e-14,2.84217094e-14 14.33658,2.84217094e-14 L468.99258,2.84217094e-14 C532.47988,2.84217094e-14 594.94458,11.2637 653.31158,35.8398 C737.28038,70.6562 798.71958,126.9755 834.55958,210.9438 C850.94438,248.8315 859.13578,288.767 862.20798,329.7268 C866.30368,376.8313 863.23142,423.9348 854.0156,470.0148 C837.6318,548.8634 799.7441,615.4228 739.3276,668.6708 C698.3676,704.5106 651.2631,728.0634 601.0876,745.4706 C546.8161,762.8788 491.5196,772.0946 434.1756,775.1669 C401.408,777.21475 369.6639,776.19131 336.8953,776.19131 C324.6082,776.19131 324.6082,776.19131 324.6082,788.47941 L324.6082,971.77541 C324.6082,987.13481 320.51152,1000.44731 309.2478,1010.68751 C301.05542,1018.87892 290.8162,1022.97461 278.5281,1022.97461 L12.2881,1022.97461 C-1.42108547e-14,1022.97461 -1.42108547e-14,1022.97461 -1.42108547e-14,1010.68751 L-1.42108547e-14,511.99951 L-1.42108547e-14,512.0004 Z"></path>
  </g>
</svg>