<?xml version="1.0" standalone="no"?>
<!DOCTYPE svg PUBLIC "-//W3C//DTD SVG 1.1//EN" "http://www.w3.org/Graphics/SVG/1.1/DTD/svg11.dtd" >
<svg xmlns="http://www.w3.org/2000/svg" xmlns:xlink="http://www.w3.org/1999/xlink" version="1.1" viewBox="-10 0 1034 1024">
   <path fill="currentColor"
d="M825.177 -77c49.0625 0 149.788 30.4717 149.788 153.756c0 82.1904 -47.4941 151.924 -142.482 209.203c31.5059 7.41895 48.668 30.4805 51.4854 69.1836c-3.03125 41.6338 -26.5586 62.4502 -70.584 62.4502c-44.0244 0 -58.8477 -22.7676 -44.4688 -68.3027
c11.4219 -18.7061 59.2002 -12.7939 43.5088 7.23438c-10.46 13.3516 -9.35059 21.6436 3.32715 24.875c0 0 25.0703 6.7334 25.0703 -26.2568c0 -21.9932 -15.7578 -33.1592 -47.2754 -33.5c0 0 -98.1943 15 -98.1943 138.775c0 82.5166 40.1338 128.964 120.399 139.341
c65.083 0 85.9795 -49.4385 85.5293 -59.75c-0.65918 -15.0996 -5.69434 -40.3584 -31.4502 -40.3584c-29.0801 0 -51.4258 41.2188 -25.3203 48.5811c26.1064 7.36133 20.5371 -15.9277 13.5898 -26.0176c21.208 3.52246 19.0498 26.6348 4.6377 35.8711
c-3.93652 2.52246 -9.07812 3.97559 -14.4727 3.97559c-27.1318 0 -29.04 -25.7617 -29.1182 -31.707l0.000976562 -0.897461c0.00390625 -0.207031 0.00878906 -0.316406 0.00878906 -0.316406s5.71387 -44.4766 51.248 -44.4766
c40.2363 0 47.6074 41.4805 47.6074 57.2217c0 45.9961 -117.96 123.838 -221.117 15.7412c-129.734 26.3848 -198.902 134.543 -207.503 324.472c-6.74512 -96.3115 -18.4072 -171.255 -34.9873 -224.828c5.87305 -15.6787 12.4766 -29.9561 19.8115 -42.834
c0.0498047 0 -9.85059 6.23926 -29.7031 18.7168c-5.25781 -16.1426 -11.7021 -30.1328 -19.3311 -41.9727l0.171875 -0.175781c1.56641 -1.60449 13.8379 -14.1797 36.8125 -37.7236c0.115234 0.0244141 -12.9229 3.5166 -39.1123 10.4746
c-0.0878906 -0.0136719 1.19531 -4.01172 3.84766 -11.9932l1.43945 -4.32227c0.00585938 -0.0175781 -0.0273438 -0.0107422 -0.102539 0.0214844l-0.344727 0.168945c-1.86035 0.96875 -9.52539 5.46191 -22.9932 13.4785
c-21.0527 -20.625 -39.8975 -29.8203 -56.5342 -27.584c-60.2656 7.22852 -100.531 45.1787 -120.8 113.85c0 0 -9.53418 -23.3125 15.5654 -76.6406c16.7334 -35.5527 29.9463 -67.5859 39.6377 -96.1035c0.0175781 0 10.9365 -8.09082 32.7598 -24.2715
l-0.125977 -0.00195312c-1.13477 -0.0175781 -9.8877 -0.141602 -26.2617 -0.373047c3.91699 -95.1602 -41.4277 -119.974 -136.033 -74.4385c85.958 -87.7725 119.256 -152.646 99.8936 -194.622c0 0 5 -5.04297 15 -15.1279
c0.0878906 -0.0693359 -6.77441 1.01855 -20.584 3.25879c0 0 9.1582 -8.62012 27.4746 -25.8584l-34.9248 15.9023c-31.7881 -23.7959 -56.3838 -34.0791 -73.791 -30.8496c-44.8896 0 -76.3359 25.3486 -94.3408 76.0469c-2.6084 18.1328 7.04102 30.1689 28.9473 36.1064
c28.4033 -8.74219 25.7393 -19.665 -7.99707 -32.7695c72.0752 -22.5117 57.9805 89.2031 1.35547 75.4785c-41.3223 -18.2314 -56.6904 -38.8281 -46.1025 -61.791c48.1719 -150.017 233.466 -233.031 392.355 -233.031c105.928 0 193.113 30.1855 261.557 90.5586
c-4.89258 -8.82227 -7.0918 -21.1348 -6.60059 -36.9375c0 -73.3662 80.7627 -118.909 129.825 -118.909h0.000976562zM825.267 -58.9189c-72.1582 7.63281 -110.022 41.2578 -113.591 100.873c5.43652 50.5234 31.5967 76.4844 78.4785 77.8809
c45.5771 -10.1016 68.3652 -31.3213 68.3652 -63.6582c-2.98438 -29.7617 -17.0928 -44.6436 -42.3213 -44.6436c-26.6123 6.42188 -35.5713 18.7666 -26.877 37.0342c7.30664 1.99023 10.9941 -3.70801 11.0586 -17.0957c20.293 -16.7031 33.3574 -8.81055 39.1943 23.6758
c-1.58008 27.8789 -17.9971 43.1934 -49.25 45.9434c-38.626 -5.10547 -57.9395 -23.1582 -57.9395 -54.1562c1.10645 -54.6797 31.4395 -82.0195 90.9971 -82.0195c74.3066 1.74414 111.459 42.5889 111.459 122.534c-0.365234 64.3164 -38.6348 117.803 -114.812 160.458
l-1.60742 0.90918c-25.1738 -104.335 -178.561 -247.578 -377.343 -247.578c-187.354 0 -300.097 104.545 -314.963 119.181l-1.13184 1.12891c-0.183594 0.186523 -0.321289 0.327148 -0.413086 0.421875l-0.138672 0.143555s137.02 -87.8525 285.056 -87.8525
c208.613 0 289.13 71.6846 385.477 214.127c-8.56055 10.3252 -16.8721 19.998 -24.9316 29.0186c-42.2285 26.7188 -58.5781 43.71 -70.2773 62.9297l-1.29102 2.16113c-0.848633 1.44824 -1.67676 2.91016 -2.49219 4.39258l-1.21387 2.23926
c-3.21875 6.01367 -6.30469 12.3848 -9.82422 19.4316l-1.34082 2.67578c-0.681641 1.35352 -1.38086 2.73242 -2.10156 4.13867c-41.5908 111.297 21.7529 171.947 21.7529 171.947s-72.1113 -209.643 88.8232 -236.231c39.6406 -1.22168 59.4609 13.9014 59.4609 45.3691
c-2.35156 24.1191 -13.168 36.1777 -32.4502 36.1777c-24.958 -5.0166 -31.0234 -18.8057 -18.1943 -41.3691c-14.6406 -4.97168 -23.3926 3.06445 -26.2559 24.1064c0.954102 20.623 15.0361 30.9336 42.2471 30.9336c36.4961 -4.69531 54.7441 -22.7061 54.7441 -54.0303
c-5.59375 -44.1191 -30.7383 -62.8027 -75.4336 -56.0479c106.586 -59.9668 161.992 -133.024 166.221 -219.178c-3.93359 -87.5381 -49.6465 -132.86 -137.14 -135.972h-0.000976562zM950.576 250.4c3.38086 5.64258 -2.71875 13.0439 -18.0381 24.041l-1.30176 0.922852
l0.754883 0.09375c30.3203 3.70215 45.1992 8.43945 46.1299 16.3154l0.0429688 0.582031c0 6.1123 -7.85449 7.38379 -23.9004 7.38574c-2.2959 0 -4.6709 -0.0390625 -7.08496 -0.111328l-3.59668 -0.137695l1.62695 1.31641
c2.96387 2.41016 5.86621 4.84082 8.62891 7.24219l2.71387 2.3916c14.9014 13.3096 21.3623 21.3994 15.9775 26.6992c-6.19531 5.26855 -22.5068 -1.20801 -49.1152 -16.2373c-3.17578 -1.79395 -6.44922 -3.69043 -9.80371 -5.67578
c-8.64648 -5.11621 -17.4492 -10.5967 -25.9473 -16.0752c-2.97363 -1.91797 -5.69922 -3.69824 -8.11523 -5.29688c-1.45215 -0.961914 -2.48047 -1.64941 -3.02832 -2.01855l-3.59277 -2.42383l3.375 -2.71973c0.390625 -0.314453 1.12012 -0.896484 2.15234 -1.70801
c1.71484 -1.35059 3.65332 -2.85449 5.77344 -4.47266c6.06055 -4.625 12.3789 -9.25098 18.6406 -13.5713c3.04004 -2.09863 5.99902 -4.07617 8.85645 -5.91406c20.9736 -13.4922 34.0781 -18.5947 38.8535 -10.625zM915.185 266.408
c-2.79688 1.79883 -5.69824 3.73926 -8.68457 5.79883c-6.1709 4.25781 -12.4082 8.8252 -18.3916 13.3916c-1.04785 0.799805 -2.0498 1.57031 -3.00098 2.30762l-1.36035 1.05078l1.18262 0.78125c1.27344 0.836914 2.61914 1.71582 4.03223 2.63184l2.16699 1.40137
c8.43555 5.4375 17.1699 10.876 25.7393 15.9463c3.31836 1.96387 6.55469 3.83887 9.69043 5.61035c21.2451 12 37.1475 18.5176 41.0684 17.3848l0.228516 -0.0898438l-0.0390625 -0.0566406l-0.0947266 -0.225586
c-0.408203 -1.07812 -1.36621 -2.58887 -2.82129 -4.41113c-2.75977 -3.45508 -7.09766 -7.78906 -12.6143 -12.7178c-4.33691 -3.87402 -9.14453 -7.88672 -14.0518 -11.8037c-1.71973 -1.37207 -3.32812 -2.63281 -4.78027 -3.75488
c-0.869141 -0.670898 -1.49023 -1.14551 -1.81934 -1.39355l-8.79688 -6.63086l10.9805 0.885742c0.0585938 0.00488281 0.0585938 0.00488281 0.110352 0.00976562c0.131836 0.00976562 0.131836 0.00976562 0.336914 0.0253906
c0.516602 0.0380859 0.516602 0.0380859 1.29395 0.0927734c1.39941 0.0976562 2.95996 0.194336 4.6416 0.28418c4.79883 0.257812 9.59473 0.412109 14.0596 0.412109c5.66504 -0.000976562 10.3672 -0.254883 13.7217 -0.797852
c1.74023 -0.282227 3.04395 -0.632812 3.80371 -1.00195l-0.329102 0.129883l-0.214844 -0.253906c-3.02148 -3.22363 -19.1328 -7.33789 -46.9033 -10.3984l-2.34082 -0.25293l-8.81641 -0.930664l7.37793 -4.91504c9.55859 -6.36719 16.3936 -11.6182 20.4629 -15.6943
c3.28711 -3.29395 4.22949 -5.25391 4.06055 -5.53711c-1.52441 -2.54395 -13.3105 2.04688 -29.9014 12.7188zM60.3438 224.209c15.7197 19.0986 29.0303 28.4668 39.9336 28.1055c10.9023 -0.362305 21.1621 -6.45117 30.7773 -18.2666
c0.870117 24.9746 -8.43457 37.6807 -27.916 38.1221c-33.626 -9.72656 -47.8906 -25.7139 -42.7949 -47.9609zM824.163 -23.2744c-52.9131 2.6123 -79.3691 25.291 -79.3691 68.0381c4.44727 30.1084 19.6475 45.1621 45.5996 45.1621
c25.3945 -4.39844 38.0918 -15.2432 38.0918 -32.5332s-5.54883 -24.0859 -16.6445 -20.3887c-1.70703 16.4512 -8.85547 24.6768 -21.4473 24.6768c-12.5908 0 -18.5713 -8.22559 -17.9443 -24.6768c6.41211 -25.5361 21.0205 -38.3047 43.8252 -38.3047
c37.1396 3.79883 55.709 22.0576 55.709 54.7773c0 83.4043 -99.5264 81.6914 -103.508 81.5898l-0.123047 -0.00292969l0.350586 0.399414c0.229492 0.265625 0.570312 0.662109 1.00977 1.1875l0.734375 0.881836c7.7998 9.44629 35.6465 45.4062 53.7158 97.6338
c65.1396 -41.6201 97.709 -89.5781 97.709 -143.873c0 -81.4443 -41.5391 -114.568 -97.709 -114.568v0.000976562z" />
</svg>
