<?xml version="1.0" encoding="UTF-8"?>
<svg width="512px" height="512px" viewBox="0 0 512 512" version="1.1" xmlns="http://www.w3.org/2000/svg" xmlns:xlink="http://www.w3.org/1999/xlink">
    <g id="PaperMC" stroke="none" stroke-width="1" fill="none" fill-rule="evenodd">
        <path d="M254.36586,14.6553064 L273.624306,33.2533064 L296.596604,16.8679056 L311.714306,38.0623064 L336.572426,26.2063562 L350.192306,54.7603064 L379.502617,47.4535483 L389.611306,87.9993064 L424,88 L423.999306,178.468306 L495.344694,247.36586 L475.595306,267.816306 L491.132094,289.596604 L469.546306,304.992306 L480.793644,328.572426 L452.909306,341.872306 L460.546452,372.502617 L423.999306,381.614306 L424,423 L325.736306,422.999306 L262.63414,488.344694 L241.333306,467.775306 L218.403396,484.132094 L202.220306,461.444306 L178.427574,472.793644 L165.660306,446.026306 L135.497383,453.546452 L127.881306,422.999306 L89,423 L88.9993064,320.667306 L21.6553064,255.63414 L41.0733064,235.525306 L23.8679056,211.403396 L46.1643064,195.498306 L34.2063562,170.427574 L61.6453064,157.339306 L54.4535483,128.497383 L88.9993064,119.884306 L89,88 L183.537306,87.9993064 L254.36586,14.6553064 Z M365.821698,148.615245 C363.895036,145.263547 359.61608,144.108327 356.264383,146.034989 L149.079962,265.131157 C147.736315,265.903528 146.68698,267.099971 146.096487,268.532893 C144.623517,272.107282 146.327053,276.198976 149.901443,277.671947 L202.014655,299.147594 L308.505859,214.024414 L228.21592,310.674368 C228.075429,311.135982 228,311.625359 228,312.131488 L228,362.453136 C228,363.754045 228.507026,365.003734 229.413436,365.936893 C231.337462,367.917697 234.502952,367.963726 236.483757,366.0397 L274.568655,329.045594 L325.716824,350.123737 C326.210442,350.327152 326.725712,350.473428 327.252582,350.559712 C331.067753,351.184507 334.667058,348.598196 335.291853,344.783024 L366.660892,153.235067 C366.921383,151.644436 366.624967,150.012642 365.821698,148.615245 Z" id="Shape" fill="currentColor"></path>
    </g>
</svg>