<?xml version="1.0" encoding="UTF-8"?>
<svg width="934px" height="960px" viewBox="0 0 934 960" version="1.1" xmlns="http://www.w3.org/2000/svg" xmlns:xlink="http://www.w3.org/1999/xlink">
  <g id="PaperDemon" transform="translate(0.1408, 0.6614)" fill="currentColor" fill-rule="nonzero">
    <path d="M780.376998,0 C829.439498,0 930.164998,30.4717 930.164998,153.756 C930.164998,235.9464 882.670898,305.68 787.682998,362.959 C819.188898,370.37795 836.350998,393.4395 839.168398,432.1426 C836.137148,473.7764 812.609798,494.5928 768.584398,494.5928 C724.559998,494.5928 709.736698,471.8252 724.115598,426.2901 C735.537498,407.584 783.315798,413.4962 767.624398,433.52448 C757.164398,446.87608 758.273808,455.16808 770.951548,458.39948 C770.951548,458.39948 796.021848,465.13288 796.021848,432.14268 C796.021848,410.14948 780.264048,398.98348 748.746448,398.64268 C748.746448,398.64268 650.552148,413.64268 650.552148,537.41768 C650.552148,619.93428 690.685948,666.38168 770.951148,676.75868 C836.034148,676.75868 856.930648,627.32018 856.480448,617.00868 C855.821268,601.90908 850.786108,576.65028 825.030248,576.65028 C795.950148,576.65028 773.604448,617.86908 799.709948,625.23138 C825.816348,632.59271 820.247048,609.30368 813.299748,599.21378 C834.507748,602.73624 832.349548,625.84858 817.937448,635.08488 C814.000928,637.60734 808.859328,639.06047 803.464748,639.06047 C776.332948,639.06047 774.424748,613.29877 774.346548,607.35347 L774.347524,606.456009 C774.351431,606.248978 774.356314,606.139603 774.356314,606.139603 C774.356314,606.139603 780.070184,561.663003 825.604314,561.663003 C865.840614,561.663003 873.211714,603.143503 873.211714,618.884703 C873.211714,664.880803 755.251714,742.722703 652.094714,634.625903 C522.360714,661.010703 453.192714,769.168903 444.591714,959.097903 C437.846594,862.786403 426.184514,787.842903 409.604414,734.269903 C415.477464,718.591203 422.081014,704.313803 429.415914,691.435903 C429.465718,691.435903 419.565324,697.675163 399.712814,710.152703 C394.455004,694.010103 388.010714,680.019903 380.381714,668.180003 L380.553589,668.004222 C382.119999,666.399732 394.391489,653.824522 417.366089,630.280622 C417.481323,630.305036 404.443189,633.797222 378.253789,640.755222 C378.165898,640.74155 379.449099,636.743502 382.101449,628.762022 L383.540899,624.439752 C383.546758,624.422174 383.513555,624.42901 383.43836,624.461236 L383.093633,624.630181 C381.233283,625.598931 373.568243,630.092091 360.100433,638.108681 C339.047733,617.483681 320.202933,608.288381 303.566233,610.524681 C243.300633,617.753201 203.035233,655.703381 182.766233,724.374681 C182.766233,724.374681 173.232053,701.062181 198.331633,647.734081 C215.065033,612.181381 228.277933,580.148181 237.969333,551.630581 C237.986911,551.630581 248.905833,543.539761 270.729133,527.359081 L270.603156,527.357128 C269.468386,527.33955 260.715456,527.215526 244.341456,526.984081 C248.258446,431.823881 202.913756,407.010081 108.308456,452.545581 C194.266456,364.773081 227.564456,299.899581 208.202056,257.923581 C208.202056,257.923581 213.202056,252.880611 223.202056,242.795681 C223.289946,242.726345 216.427646,243.814231 202.618056,246.054471 C202.618056,246.054471 211.776256,237.434351 230.092656,220.196071 L195.167856,236.098371 C163.379756,212.302471 138.784056,202.019271 121.376856,205.248771 C76.4872555,205.248771 45.0409555,230.597371 27.0360555,281.295671 C24.4276555,299.428471 34.0770755,311.464571 55.9833555,317.402071 C84.3866555,308.659881 81.7226555,297.737071 47.9862855,284.632571 C120.061486,262.120871 105.966786,373.835671 49.3417555,360.111071 C8.01945552,341.879671 -7.34864448,321.282971 3.23925552,298.320071 C51.4111555,148.303071 236.705256,65.2890713 395.594256,65.2890713 C501.522256,65.2890713 588.707256,95.4745713 657.151256,155.847671 C652.258676,147.025401 650.059456,134.712871 650.550666,118.910171 C650.550666,45.5439713 731.313366,0 780.375666,0 L780.376642,0 L780.376998,0 Z M780.466998,18.08104 C708.308798,25.71391 670.444998,59.3389 666.875998,118.9541 C672.312518,169.4775 698.472698,195.4385 745.354498,196.835 C790.931598,186.7334 813.719698,165.5137 813.719698,133.1768 C810.735318,103.4151 796.626898,88.5332 771.398398,88.5332 C744.786098,94.95508 735.827098,107.2998 744.521398,125.5674 C751.828038,127.55763 755.515498,121.85939 755.579998,108.4717 C775.872998,91.7686 788.937398,99.66115 794.774298,132.1475 C793.194218,160.0264 776.777198,175.3409 745.524298,178.0909 C706.898298,172.98543 687.584798,154.9327 687.584798,123.9347 C688.691248,69.255 719.024298,41.9152 778.581898,41.9152 C852.888498,43.65934 890.040898,84.5041 890.040898,164.4492 C889.675664,228.7656 851.406098,282.2522 775.228898,324.9072 L773.621478,325.81638 C748.447678,221.48138 595.060478,78.23838 396.278478,78.23838 C208.924478,78.23838 96.1814779,182.78338 81.3154779,197.41938 L80.1836379,198.54829 C80.0000439,198.734813 79.8623489,198.875438 79.7705519,198.970165 L79.6318799,199.11372 C79.6318799,199.11372 216.65188,111.26122 364.68788,111.26122 C573.30088,111.26122 653.81788,182.94582 750.16488,325.38822 C741.60433,335.71342 733.29278,345.38622 725.23328,354.40682 C683.00478,381.12562 666.65518,398.11682 654.95598,417.33652 L653.66496,419.49765 C652.816327,420.94589 651.9882,422.40781 651.17277,423.89023 L649.9589,426.12949 C646.74015,432.14316 643.65421,438.51429 640.13468,445.56109 L638.79386,448.23687 C638.112219,449.59039 637.413,450.96929 636.6923,452.37554 C595.1015,563.67254 658.4452,624.32254 658.4452,624.32254 C658.4452,624.32254 586.3339,414.67954 747.2684,388.09154 C786.909,386.86986 806.7293,401.99294 806.7293,433.46064 C804.37774,457.57974 793.5613,469.63834 774.2791,469.63834 C749.3211,464.62174 743.2557,450.83264 756.0848,428.26924 C741.4442,423.29756 732.6922,431.33369 729.8289,452.37564 C730.783002,472.99864 744.865,483.30924 772.076,483.30924 C808.5721,478.61393 826.8201,460.60314 826.8201,429.27894 C821.22635,385.15984 796.0818,366.47624 751.3865,373.23104 C857.9725,313.26424 913.3785,240.20704 917.6075,154.05304 C913.67391,66.51494 867.961,21.19304 780.4675,18.08104 L780.466523,18.08104 L780.466998,18.08104 Z M905.775998,327.4 C909.156858,333.04258 903.057248,340.4439 887.737898,351.441 L886.436138,352.363852 L887.191021,352.457602 C917.511321,356.159752 932.390221,360.897052 933.320921,368.773002 L933.36389,369.355033 C933.36389,375.467333 925.5094,376.738823 909.46349,376.740773 C907.16759,376.740773 904.79259,376.70171 902.37853,376.629445 L898.78185,376.49175 L900.4088,377.80816 C903.37267,380.21832 906.27501,382.64898 909.03771,385.05035 L911.75158,387.44195 C926.65298,400.75155 933.11388,408.84135 927.72908,414.14115 C921.53377,419.4097 905.22228,412.93314 878.61388,397.90385 C875.4381,396.1099 872.16466,394.21342 868.81017,392.22807 C860.16369,387.11186 851.36097,381.63137 842.86287,376.15287 C839.88924,374.2349 837.16365,372.45463 834.74764,370.85599 C833.29549,369.894076 832.26717,369.20658 831.71932,368.83744 L828.12655,366.41361 L831.50155,363.69388 C831.892175,363.379427 832.62167,362.797396 833.65389,361.98587 C835.36873,360.63528 837.30721,359.13138 839.42733,357.51321 C845.48788,352.88821 851.80623,348.26223 858.06793,343.94191 C861.10797,341.84328 864.06695,339.86574 866.92438,338.02785 C887.89798,324.53565 901.00248,319.43315 905.77788,327.40285 L905.775998,327.4 Z M870.384998,343.408 C867.588118,345.20683 864.686758,347.14726 861.700428,349.20683 C855.529528,353.46464 849.292228,358.03203 843.308828,362.59843 C842.260978,363.398235 841.259028,364.16874 840.307848,364.90605 L838.947498,365.95683 L840.130118,366.73808 C841.403558,367.574994 842.749258,368.4539 844.162348,369.36992 L846.329338,370.77129 C854.764888,376.20879 863.499238,381.64729 872.068638,386.71759 C875.386998,388.68146 878.623328,390.55646 881.759068,392.32794 C903.004168,404.32794 918.906568,410.84554 922.827468,409.71274 L923.055984,409.622896 L923.016921,409.566256 L922.922195,409.34067 C922.513992,408.26255 921.555985,406.7518 920.100905,404.92954 C917.341135,401.47446 913.003245,397.14048 907.486605,392.21174 C903.149695,388.33772 898.342075,384.32502 893.434805,380.40804 C891.715075,379.03597 890.106685,377.77523 888.654535,376.65316 C887.785394,375.982262 887.164305,375.50765 886.835195,375.25961 L878.038315,368.62875 L889.018815,369.514492 C889.077409,369.519374 889.077409,369.519374 889.129167,369.524257 C889.261003,369.534023 889.261003,369.534023 889.466081,369.549648 C889.982683,369.587734 889.982683,369.587734 890.760031,369.642421 C892.159441,369.740077 893.719991,369.836757 895.401631,369.926601 C900.200461,370.184413 904.996361,370.33871 909.461231,370.33871 C915.126271,370.337734 919.828431,370.083827 923.182931,369.540858 C924.923161,369.258631 926.226881,368.908046 926.986641,368.538908 L926.657539,368.668791 L926.442695,368.414885 C923.421215,365.191255 907.309895,361.076995 879.539395,358.016485 L877.198575,357.763555 L868.382165,356.832891 L875.760095,351.917851 C885.318685,345.550661 892.153695,340.299651 896.222995,336.223551 C899.510105,332.929601 900.452485,330.969641 900.283545,330.686441 C898.759135,328.142491 886.973045,332.733321 870.382145,343.405241 L870.384998,343.408 Z M15.5437979,301.209 C31.2634979,320.3076 44.5740979,329.6758 55.4773979,329.3145 C66.3796979,328.952195 76.6394979,322.86333 86.2546979,311.0479 C87.1248149,336.0225 77.8201279,348.7286 58.3386979,349.17 C24.7126979,339.44344 10.4480979,323.4561 15.5437979,301.209 L15.5437979,301.209 Z M779.362998,53.7249203 C726.449898,56.3379 699.993898,79.0166 699.993898,121.7637 C704.441168,151.8721 719.641398,166.9258 745.593498,166.9258 C770.987998,162.52736 783.685298,151.6826 783.685298,134.3926 C783.685298,117.1026 778.136468,110.3067 767.040798,114.0039 C765.333768,130.4551 758.185328,138.6807 745.593498,138.6807 C733.002698,138.6807 727.022198,130.45511 727.649198,114.0039 C734.061308,88.4678 748.669698,75.6992 771.474398,75.6992 C808.613998,79.49803 827.183398,97.7568 827.183398,130.4765 C827.183398,213.8808 727.656998,212.1679 723.675398,212.0663 L723.552351,212.06337 L723.902937,212.462784 C724.132429,212.728409 724.473249,213.124893 724.912707,213.650284 L725.647082,214.53212 C733.446882,223.97841 761.293582,259.93832 779.362882,312.16592 C844.502482,270.54582 877.071882,222.58782 877.071882,168.29292 C877.071882,86.8486203 835.532782,53.7249203 779.362882,53.7249203 L779.362882,53.7249203 L779.362998,53.7249203 Z"></path>
  </g>
</svg>