<?xml version="1.0" encoding="UTF-8"?>
<svg width="878px" height="976px" viewBox="0 0 878 976" version="1.1" xmlns="http://www.w3.org/2000/svg" xmlns:xlink="http://www.w3.org/1999/xlink">
  <g id="Patreon" transform="translate(0.1061, 0.3376)" fill="currentColor" fill-rule="nonzero">
    <path d="M877.108566,277.744219 C877.108566,285.351639 877.620285,293.031319 877.010909,300.589919 C876.279464,309.391679 875.011889,318.192419 873.377119,326.921019 C870.470869,342.918119 867.669109,355.347819 864.455239,367.609519 L865.307778,363.784319 C862.574378,374.286319 859.581218,383.086119 856.043128,391.600719 L856.554847,390.213999 C848.923987,408.913199 840.464047,427.223799 829.320447,444.095799 C822.445447,454.506899 815.423947,464.794999 808.255947,474.961999 C805.351647,478.837979 802.395597,482.265709 799.223717,485.481499 L799.23446,485.470757 C793.74813,491.273487 788.45806,497.246157 782.50986,502.415057 C774.28525,509.828147 765.36336,517.064457 756.07336,523.825257 L755.130001,524.479554 C746.449341,530.574284 736.697401,534.987354 727.822401,540.912154 C717.972791,547.446334 706.708101,550.274454 696.224701,555.224654 C686.862401,559.613324 676.841901,561.075244 667.308701,564.489304 C655.166101,568.878954 642.415101,569.902394 629.981601,572.559614 C616.718901,575.412154 603.235501,577.508834 589.924001,580.239304 C578.976701,582.433644 568.126101,585.066454 557.253101,587.505904 C551.060721,588.870164 544.819501,589.894574 538.821501,591.723674 C531.409391,593.990274 524.192601,596.941444 516.976801,599.622114 C512.075431,601.377974 506.931901,602.694384 502.250201,604.961954 C495.424031,608.374064 488.987501,612.641644 482.184801,616.274454 C471.042201,622.174844 461.753201,630.537154 453.317601,639.680654 C446.198461,647.482414 440.006101,656.283154 433.812701,664.939454 C423.621301,679.251954 416.599801,695.269554 410.309801,711.653354 C404.116441,727.671954 398.435801,743.885754 392.634001,760.074254 C387.245331,775.312554 382.149601,790.599654 376.663301,805.788154 C368.197481,829.648554 363.103701,842.669054 357.841001,855.601654 L361.596861,845.163154 C353.306821,865.985454 344.140761,883.757854 333.498261,900.499054 L334.289277,899.168004 C326.219937,912.113304 317.589077,924.743204 306.446477,935.202204 C297.523627,943.565484 288.892777,952.366304 277.920077,958.218804 C267.047077,964.069394 255.831177,969.141704 243.787277,971.798904 C233.735477,974.019604 222.190577,975.293044 210.348777,975.293044 C206.612447,975.293044 202.906397,975.165114 199.234477,974.917067 L199.731547,974.943434 C194.148537,974.650465 188.638747,973.114334 183.054747,972.090894 C179.714907,971.456128 176.325257,970.944414 173.082087,969.920974 C170.351617,969.067458 167.840877,967.555744 165.231497,966.238354 C157.868217,962.654374 150.017597,959.801834 143.288097,955.315454 C134.568367,949.190454 126.933597,942.978554 119.757797,936.280254 L119.882797,936.396465 C106.374997,924.401365 96.2323966,909.504865 87.1630966,893.973565 C81.8671966,885.237235 76.3212966,874.686465 71.3710966,863.807565 L70.5595736,861.815375 C65.8779336,851.185475 62.3671936,840.043875 58.5644736,829.023375 C56.8593936,824.740175 54.0322436,816.116175 51.3955236,807.409075 L50.2754036,803.106345 C48.0322436,795.377825 46.2519636,787.478445 44.3506036,779.627845 C42.5703336,772.361245 40.6933736,765.145445 39.1816536,757.806545 C36.4502036,744.738145 33.9394636,731.645445 31.3798936,718.577045 C31.2070416,718.693256 30.0791136,713.086815 29.0048936,707.459845 L28.1367296,701.997935 C26.6738396,693.708875 25.3574296,685.395435 23.9677796,677.080935 C22.8945396,670.888555 21.7246196,664.744035 20.7978596,658.551635 C19.7246196,651.724485 18.8476596,644.898335 17.7744196,638.095535 C16.8964896,632.195145 15.8720796,626.319135 15.0429696,620.419735 C14.2636726,614.908995 13.5800796,609.399235 12.8730496,603.889435 C13.0429716,606.735135 12.2353546,600.646275 11.4589896,594.547635 L10.5810596,586.091585 C9.85059056,580.337675 9.24023956,574.608185 8.58203956,568.854285 L6.24121956,548.909985 C5.97364156,546.521315 5.68067256,544.203935 5.51075056,541.815255 C4.68164856,532.037915 3.85255056,522.213655 3.07227056,512.363155 C2.65430156,507.966675 2.21875456,501.632655 1.90039056,495.267455 L1.85351556,494.077025 C1.34179656,484.568235 0.829105562,475.133625 0.634765562,465.649325 C0.288085562,452.121025 0.059570562,435.723525 -2.84217094e-14,419.285025 L-2.84217094e-14,418.862173 C-2.84217094e-14,409.646353 0.0498047,400.453973 0.658203,391.312373 C1.291992,381.755733 2.608403,372.197173 3.632813,362.640473 C4.460938,355.033053 5.192383,347.475473 6.192383,339.867973 C6.75293,335.601373 7.751953,331.383593 8.630863,327.190273 C10.873053,316.657073 12.921883,306.149273 15.481453,295.690273 C17.333993,288.132653 19.894543,280.818173 21.966803,273.357273 C25.793953,259.435373 31.548833,246.294773 37.180703,233.055473 C39.740273,226.960743 42.910193,221.108173 46.127973,215.379673 C50.663133,207.358193 55.051803,199.287873 60.171873,191.729273 C66.486323,182.513453 73.165973,173.590573 80.237273,164.959773 C87.245083,156.411923 94.203073,148.743973 101.519473,141.434373 L101.521426,141.43242 C107.372016,135.58086 114.004826,130.50952 120.293926,125.21952 C126.487286,120.05057 132.509726,114.66192 139.067326,110.00562 C149.112226,102.78785 159.425726,95.9626197 169.860326,89.3064197 C175.931616,85.4538797 182.392526,82.1384497 188.731426,78.7253197 C198.605446,73.3864497 208.480426,67.9968197 218.476526,62.9265197 C224.815396,59.7565997 231.325126,56.9772997 237.833926,54.2956597 C254.486226,47.5417497 271.090726,40.7155597 287.937426,34.4001597 C299.152226,30.2556297 310.660126,27.0134397 322.046826,23.3806597 C327.897416,21.5037097 333.626926,19.4548797 339.527326,17.7976497 C344.403306,16.4324197 349.328106,15.6999897 354.252926,14.5544897 C359.617186,13.3357397 364.834026,11.6531197 370.247026,10.6531197 C377.537066,9.21561966 384.949126,8.21561966 392.361326,7.06913966 C400.651366,5.80155966 408.916026,4.50956966 417.230426,3.36308966 C420.619096,2.90019866 424.130816,2.87578466 427.592726,2.63262066 C439.051726,1.99785466 450.608326,1.31524066 462.067326,0.75567066 C466.651306,0.51152966 471.381776,-0.48748934 475.842726,0.29277966 C486.643526,2.24199966 497.517526,0.70586566 508.317326,1.51152966 C518.751926,2.24199866 529.114226,3.36406966 539.476526,4.60722966 C546.937466,5.53301066 554.300726,7.11796966 561.760726,8.26445966 C568.293926,9.23906866 574.804626,9.84941966 581.314426,10.8728597 C586.556616,11.7263757 591.798826,12.8484497 597.040026,13.9939497 C608.255826,16.5056697 619.446226,18.7732497 630.539026,21.7234397 C640.389616,24.4050797 649.971626,28.4285197 659.894526,30.7439497 C671.329126,33.4988297 681.812526,38.8386797 692.833026,42.4226497 C704.097626,46.0554597 713.801826,52.7605497 724.528326,57.2458497 C737.084026,62.5368697 747.934526,70.5583497 759.100626,78.1647497 C767.560586,83.9684597 775.801826,90.1598497 783.481526,96.9381497 C794.867226,106.93424 805.911226,117.31995 816.542026,128.14615 C822.832066,134.48502 828.196326,141.89715 833.926826,148.86975 C843.191476,160.18325 849.969826,173.07975 856.552826,186.00255 C861.794036,196.34045 866.134856,207.31115 869.645626,218.40395 C872.571406,227.4977 873.448356,237.27505 875.618286,246.58855 C878.007936,256.82785 877.959106,267.16665 877.398556,277.55245 L877.105587,277.746786 L877.108566,277.744219 Z"></path>
  </g>
</svg>