<?xml version="1.0" standalone="no"?>
<!DOCTYPE svg PUBLIC "-//W3C//DTD SVG 1.1//EN" "http://www.w3.org/Graphics/SVG/1.1/DTD/svg11.dtd" >
<svg xmlns="http://www.w3.org/2000/svg" xmlns:xlink="http://www.w3.org/1999/xlink" version="1.1" viewBox="-10 0 1034 1024">
   <path fill="currentColor"
d="M950.25 161.099c0 7.60742 0.511719 15.2871 -0.0976562 22.8457c-0.731445 8.80176 -1.99902 17.6025 -3.63379 26.3311c-2.90625 15.9971 -5.70801 28.4268 -8.92188 40.6885l0.852539 -3.8252c-2.7334 10.502 -5.72656 19.3018 -9.26465 27.8164l0.511719 -1.38672
c-7.63086 18.6992 -16.0908 37.0098 -27.2344 53.8818c-6.875 10.4111 -13.8965 20.6992 -21.0645 30.8662c-2.9043 3.87598 -5.86035 7.30371 -9.03223 10.5195l0.0107422 -0.0107422c-5.48633 5.80273 -10.7764 11.7754 -16.7246 16.9443
c-8.22461 7.41309 -17.1465 14.6494 -26.4365 21.4102l-0.943359 0.654297c-8.68066 6.09473 -18.4326 10.5078 -27.3076 16.4326c-9.84961 6.53418 -21.1143 9.3623 -31.5977 14.3125c-9.3623 4.38867 -19.3828 5.85059 -28.916 9.26465
c-12.1426 4.38965 -24.8936 5.41309 -37.3271 8.07031c-13.2627 2.85254 -26.7461 4.94922 -40.0576 7.67969c-10.9473 2.19434 -21.7979 4.82715 -32.6709 7.2666c-6.19238 1.36426 -12.4336 2.38867 -18.4316 4.21777c-7.41211 2.2666 -14.6289 5.21777 -21.8447 7.89844
c-4.90137 1.75586 -10.0449 3.07227 -14.7266 5.33984c-6.82617 3.41211 -13.2627 7.67969 -20.0654 11.3125c-11.1426 5.90039 -20.4316 14.2627 -28.8672 23.4062c-7.11914 7.80176 -13.3115 16.6025 -19.5049 25.2588
c-10.1914 14.3125 -17.2129 30.3301 -23.5029 46.7139c-6.19336 16.0186 -11.874 32.2324 -17.6758 48.4209c-5.38867 15.2383 -10.4844 30.5254 -15.9707 45.7139c-8.46582 23.8604 -13.5596 36.8809 -18.8223 49.8135l3.75586 -10.4385
c-8.29004 20.8223 -17.4561 38.5947 -28.0986 55.3359l0.791016 -1.33105c-8.06934 12.9453 -16.7002 25.5752 -27.8428 36.0342c-8.92285 8.36328 -17.5537 17.1641 -28.5264 23.0166c-10.873 5.85059 -22.0889 10.9229 -34.1328 13.5801
c-10.0518 2.2207 -21.5967 3.49414 -33.4385 3.49414c-3.73633 0 -7.44238 -0.12793 -11.1143 -0.375977l0.49707 0.0263672c-5.58301 -0.292969 -11.0928 -1.8291 -16.6768 -2.85254c-3.33984 -0.634766 -6.72949 -1.14648 -9.97266 -2.16992
c-2.73047 -0.853516 -5.24121 -2.36523 -7.85059 -3.68262c-7.36328 -3.58398 -15.2139 -6.43652 -21.9434 -10.9229c-8.71973 -6.125 -16.3545 -12.3369 -23.5303 -19.0352l0.125 0.116211c-13.5078 -11.9951 -23.6504 -26.8916 -32.7197 -42.4229
c-5.2959 -8.73633 -10.8418 -19.2871 -15.792 -30.166l-0.811523 -1.99219c-4.68164 -10.6299 -8.19238 -21.7715 -11.9951 -32.792c-1.70508 -4.2832 -4.53223 -12.9072 -7.16895 -21.6143l-1.12012 -4.30273c-2.24316 -7.72852 -4.02344 -15.6279 -5.9248 -23.4785
c-1.78027 -7.2666 -3.65723 -14.4824 -5.16895 -21.8213c-2.73145 -13.0684 -5.24219 -26.1611 -7.80176 -39.2295c-0.172852 0.116211 -1.30078 -5.49023 -2.375 -11.1172l-0.868164 -5.46191c-1.46289 -8.28906 -2.7793 -16.6025 -4.16895 -24.917
c-1.07324 -6.19238 -2.24316 -12.3369 -3.16992 -18.5293c-1.07324 -6.82715 -1.9502 -13.6533 -3.02344 -20.4561c-0.87793 -5.90039 -1.90234 -11.7764 -2.73145 -17.6758c-0.779297 -5.51074 -1.46289 -11.0205 -2.16992 -16.5303
c0.169922 2.8457 -0.637695 -3.24316 -1.41406 -9.3418l-0.87793 -8.45605c-0.730469 -5.75391 -1.34082 -11.4834 -1.99902 -17.2373l-2.34082 -19.9443c-0.267578 -2.38867 -0.560547 -4.70605 -0.730469 -7.09473c-0.829102 -9.77734 -1.6582 -19.6016 -2.43848 -29.4521
c-0.417969 -4.39648 -0.853516 -10.7305 -1.17188 -17.0957l-0.046875 -1.19043c-0.511719 -9.50879 -1.02441 -18.9434 -1.21875 -28.4277c-0.34668 -13.5283 -0.575195 -29.9258 -0.633789 -46.3643l-0.000976562 -0.422852
c0 -9.21582 0.0498047 -18.4082 0.658203 -27.5498c0.633789 -9.55664 1.9502 -19.1152 2.97461 -28.6719c0.828125 -7.60742 1.55957 -15.165 2.55957 -22.7725c0.560547 -4.2666 1.55957 -8.48438 2.43848 -12.6777c2.24219 -10.5332 4.29102 -21.041 6.85059 -31.5
c1.85254 -7.55762 4.41309 -14.8721 6.48535 -22.333c3.82715 -13.9219 9.58203 -27.0625 15.2139 -40.3018c2.55957 -6.09473 5.72949 -11.9473 8.94727 -17.6758c4.53516 -8.02148 8.92383 -16.0918 14.0439 -23.6504c6.31445 -9.21582 12.9941 -18.1387 20.0654 -26.7695
c7.00781 -8.54785 13.9658 -16.2158 21.2822 -23.5254l0.00195312 -0.00195312c5.85059 -5.85156 12.4834 -10.9229 18.7725 -16.2129c6.19336 -5.16895 12.2158 -10.5576 18.7734 -15.2139c10.0449 -7.21777 20.3584 -14.043 30.793 -20.6992
c6.07129 -3.85254 12.5322 -7.16797 18.8711 -10.5811c9.87402 -5.33887 19.749 -10.7285 29.7451 -15.7988c6.33887 -3.16992 12.8486 -5.94922 19.3574 -8.63086c16.6523 -6.75391 33.2568 -13.5801 50.1035 -19.8955c11.2148 -4.14453 22.7227 -7.38672 34.1094 -11.0195
c5.85059 -1.87695 11.5801 -3.92578 17.4805 -5.58301c4.87598 -1.36523 9.80078 -2.09766 14.7256 -3.24316c5.36426 -1.21875 10.5811 -2.90137 15.9941 -3.90137c7.29004 -1.4375 14.7021 -2.4375 22.1143 -3.58398c8.29004 -1.26758 16.5547 -2.55957 24.8691 -3.70605
c3.38867 -0.462891 6.90039 -0.487305 10.3623 -0.730469c11.459 -0.634766 23.0156 -1.31738 34.4746 -1.87695c4.58398 -0.244141 9.31445 -1.24316 13.7754 -0.462891c10.8008 1.94922 21.6748 0.413086 32.4746 1.21875
c10.4346 0.730469 20.7969 1.85254 31.1592 3.0957c7.46094 0.925781 14.8242 2.51074 22.2842 3.65723c6.5332 0.974609 13.0439 1.58496 19.5537 2.6084c5.24219 0.853516 10.4844 1.97559 15.7256 3.12109c11.2158 2.51172 22.4062 4.7793 33.499 7.72949
c9.85059 2.68164 19.4326 6.70508 29.3555 9.02051c11.4346 2.75488 21.918 8.09473 32.9385 11.6787c11.2646 3.63281 20.9688 10.3379 31.6953 14.8232c12.5557 5.29102 23.4062 13.3125 34.5723 20.9189c8.45996 5.80371 16.7012 11.9951 24.3809 18.7734
c11.3857 9.99609 22.4297 20.3818 33.0605 31.208c6.29004 6.33887 11.6543 13.751 17.3848 20.7236c9.26465 11.3135 16.043 24.21 22.626 37.1328c5.24121 10.3379 9.58203 21.3086 13.0928 32.4014c2.92578 9.09375 3.80273 18.8711 5.97266 28.1846
c2.38965 10.2393 2.34082 20.5781 1.78027 30.9639l-0.292969 0.194336z" />
</svg>
