<?xml version="1.0" encoding="UTF-8"?>
<svg width="680px" height="833px" viewBox="0 0 680 833" version="1.1" xmlns="http://www.w3.org/2000/svg" xmlns:xlink="http://www.w3.org/1999/xlink">
  <g id="Paypal" transform="translate(0.0381, 0.4253)" fill="currentColor" fill-rule="nonzero">
    <path d="M364.269118,0 C478.192118,0 561.582118,81.51634 562.511118,181.32674 L562.484751,186.5074 C562.302134,194.98885 561.567759,203.4517 560.264051,211.8394 C542.659551,324.0354 446.341051,406.8434 332.842051,406.8434 L220.040051,406.8434 C208.513651,406.84633 198.698251,415.22817 196.892551,426.612 L161.980451,647.944 L161.480451,650.92935 L19.0504507,650.92935 C13.4762307,650.92935 8.17935066,648.4938 4.56115066,644.2565 C0.942990656,640.01822 -0.640019344,634.40591 0.236930656,628.9001 L96.2789307,19.7891 C98.0797107,8.3907 107.905931,0 119.443931,0 L364.266931,0 L364.269118,0 Z M215.249118,444.96814 L179.876118,669.28714 L157.665218,809.97414 C156.795101,815.48 158.380062,821.09424 162.002128,825.33054 C165.624198,829.56784 170.922048,832.00242 176.497228,832.00242 L298.936228,832.00242 C310.474328,831.990701 320.288728,823.59226 322.083728,812.19672 L354.355228,607.70272 C356.153078,596.30912 365.970428,587.91852 377.502728,587.91362 L449.589628,587.91362 C563.088628,587.91362 659.388628,505.12362 676.991628,392.90962 C689.475028,313.26022 649.385228,240.80562 580.838328,204.86362 C580.654734,213.34604 579.921336,221.80892 578.616648,230.19562 C561.013148,342.39262 464.693648,425.19962 351.194648,425.19962 L238.392648,425.19962 C226.866248,425.20255 217.051848,433.58439 215.246148,444.96912 L215.246148,444.96912 L215.249118,444.96814 Z"></path>
  </g>
</svg>