<?xml version="1.0" standalone="no"?>
<!DOCTYPE svg PUBLIC "-//W3C//DTD SVG 1.1//EN" "http://www.w3.org/Graphics/SVG/1.1/DTD/svg11.dtd" >
<svg xmlns="http://www.w3.org/2000/svg" xmlns:xlink="http://www.w3.org/1999/xlink" version="1.1" viewBox="-10 0 1034 1024">
   <path fill="currentColor"
d="M542.086 -41.8154c113.923 0 197.313 81.5156 198.242 181.326l-0.0263672 5.18066c-0.182617 8.48145 -0.916992 16.9443 -2.2207 25.332c-17.6045 112.196 -113.923 195.004 -227.422 195.004h-112.802c-11.5264 0.00292969 -21.3418 8.38477 -23.1475 19.7686
l-34.9121 221.332l-0.5 2.98535h-142.43c-5.57422 0 -10.8711 -2.43555 -14.4893 -6.67285c-3.61816 -4.23828 -5.20117 -9.85059 -4.32422 -15.3564l96.042 -609.111c1.80078 -11.3984 11.627 -19.7891 23.165 -19.7891h244.823zM393.066 403.152l-35.373 224.319
l-22.2109 140.687c-0.870117 5.50586 0.714844 11.1201 4.33691 15.3564c3.62207 4.2373 8.91992 6.67188 14.4951 6.67188h122.439c11.5381 -0.0117188 21.3525 -8.41016 23.1475 -19.8057l32.2715 -204.494c1.79785 -11.3936 11.6152 -19.7842 23.1475 -19.7891h72.0869
c113.499 0 209.799 -82.79 227.402 -195.004c12.4834 -79.6494 -27.6064 -152.104 -96.1533 -188.046c-0.183594 8.48242 -0.916992 16.9453 -2.22168 25.332c-17.6035 112.197 -113.923 195.004 -227.422 195.004h-112.802
c-11.5264 0.00292969 -21.3408 8.38477 -23.1465 19.7695v0z" />
</svg>
