<?xml version="1.0" encoding="UTF-8"?>
<svg width="821px" height="1025px" viewBox="0 0 821 1025" version="1.1" xmlns="http://www.w3.org/2000/svg" xmlns:xlink="http://www.w3.org/1999/xlink">
  <g id="Periscope" transform="translate(0.9331, 0.8284)" fill="currentColor" fill-rule="nonzero">
    <path d="M702,128 C624,46 522,0 416,0 C186,0 0,192 0,428 C0,580 114,748 164,814 C238,912 348,1024 416,1024 C498,1024 642,836 656,814 C706,748 820,578 820,428 C820,316 778,208 702,128 Z M416,988 C330,988 36,654 36,428 C36,214 204,36 416,36 C616,36 784,214 784,428 C784,654 490,988 416,988 Z M416,182 C396,182 376,184 356,188 C388,202 410,234 410,270 C410,320 370,358 320,358 C270,358 230,320 230,270 L230,270 C200,308 182,358 182,414 C182,532 284,632 416,632 C536,632 638,532 638,414 C638,282 536,182 416,182 Z"></path>
  </g>
</svg>