<?xml version="1.0" standalone="no"?>
<!DOCTYPE svg PUBLIC "-//W3C//DTD SVG 1.1//EN" "http://www.w3.org/Graphics/SVG/1.1/DTD/svg11.dtd" >
<svg xmlns="http://www.w3.org/2000/svg" xmlns:xlink="http://www.w3.org/1999/xlink" version="1.1" viewBox="-10 0 1034 1024">
   <path fill="currentColor"
d="M804 -13c-78 -82 -180 -128 -286 -128c-230 0 -416 192 -416 428c0 152 114 320 164 386c74 98 184 210 252 210c82 0 226 -188 240 -210c50 -66 164 -236 164 -386c0 -112 -42 -220 -118 -300zM518 847c-86 0 -380 -334 -380 -560c0 -214 168 -392 380 -392
c200 0 368 178 368 392c0 226 -294 560 -368 560zM518 41c-20 0 -40 2 -60 6c32 14 54 46 54 82c0 50 -40 88 -90 88s-90 -38 -90 -88v0c-30 38 -48 88 -48 144c0 118 102 218 234 218c120 0 222 -100 222 -218c0 -132 -102 -232 -222 -232z" />
</svg>
