<?xml version="1.0" encoding="UTF-8"?>
<svg width="1024px" height="785px" viewBox="0 0 1024 785" version="1.1" xmlns="http://www.w3.org/2000/svg" xmlns:xlink="http://www.w3.org/1999/xlink">
  <g id="Persona" transform="translate(0, 0.0926)" fill="currentColor" fill-rule="nonzero">
    <path d="M688,0 L38,0 C16,0 0,16 0,36 L0,748 C0,768 16,784 38,784 L688,784 L1024,392 L688,0 Z M414,628 C256,628 204,622 204,622 C204,622 212,496 270,474 C326,452 340,454 360,442 L362,442 L362,408 C342,392 328,366 318,338 C308,326 302,314 302,300 C302,290 306,280 310,272 C314,202 358,156 414,156 C468,156 514,202 516,272 C522,280 524,290 524,300 C524,314 518,326 508,338 C500,366 484,392 466,408 L466,442 L466,442 C486,454 500,452 558,474 C616,496 624,622 624,622 C624,622 570,628 414,628 Z"></path>
  </g>
</svg>