<?xml version="1.0" encoding="UTF-8"?>
<svg width="180px" height="180px" viewBox="0 0 180 180" version="1.1" xmlns="http://www.w3.org/2000/svg" xmlns:xlink="http://www.w3.org/1999/xlink">
    <title>Picarto</title>
    <g id="Picarto" stroke="none" stroke-width="1" fill="none" fill-rule="evenodd">
        <path d="M38.5517241,19 L62.4482759,19 C64.9621237,19 67,21.048745 67,23.576 L67,157.424 C67,159.951255 64.9621237,162 62.4482759,162 L38.5517241,162 C36.0378763,162 34,159.951255 34,157.424 L34,23.576 C34,21.048745 36.0378763,19 38.5517241,19 Z M80.7445574,20 C81.7659557,20 82.7688843,20.2704613 83.6500094,20.7835178 L156.159971,63.0041998 C158.896891,64.5978378 159.814788,68.0932407 158.210151,70.8114007 C157.724885,71.6334136 157.040037,72.3216238 156.218122,72.8132098 L83.7081601,116.181311 C80.9903243,117.806844 77.4602329,116.93646 75.8234804,114.237254 C75.2846998,113.348738 75,112.331162 75,111.293965 L75,93.9078319 C75,87.9764485 84.8390506,80.2324812 92.3122112,77.7728644 C103.338186,74.1439216 108.768413,71.3235226 108.94349,68.6992951 L108.950607,68.1812998 L108.950699,67.8870377 L108.94116,67.6033037 L108.930538,67.4645003 C108.756448,65.6198791 107.215838,64.1964637 94.6713028,59.3886714 L92.3122112,58.4933611 C80.7707371,54.1520743 75,48.2634055 75,40.8273546 L75,25.7051819 C75,22.5542969 77.571926,20 80.7445574,20 Z" id="Shape" fill="currentColor"></path>
    </g>
</svg>