<?xml version="1.0" encoding="UTF-8"?>
<svg width="861px" height="917px" viewBox="0 0 861 917" version="1.1" xmlns="http://www.w3.org/2000/svg" xmlns:xlink="http://www.w3.org/1999/xlink">
  <g id="PillowFort" transform="translate(0.5247, 0.8284)" fill="currentColor" fill-rule="nonzero">
    <path d="M102.774434,915.80338 C94.479514,917.40006 85.165034,912.11881 82.075234,904.06408 C78.984414,896.01037 78.924844,854.64028 81.941445,812.12948 C84.959025,769.61878 97.490245,687.18548 109.786145,628.94348 C122.082045,570.70128 149.454145,472.52248 170.610345,410.76748 C191.767545,349.01258 223.137645,267.64148 240.323245,229.94348 C270.167045,164.47178 270.693345,161.66318 252.083945,167.27748 C241.368145,170.5099 213.111245,184.97178 189.293945,199.41618 C165.475545,213.86048 132.612345,236.13398 116.265645,248.91418 C99.917945,261.69448 76.936545,288.29898 65.196345,308.03718 C53.457045,327.77448 43.726645,355.42878 43.577245,369.49028 C43.302831,395.05568 43.302831,395.05568 21.673945,359.9395 C6.61734502,335.4932 0.0323450223,312.0479 7.23112666e-05,282.7735 C-0.0262221777,258.3253 7.12123502,226.6768 17.076345,207.1641 C26.493335,188.7061 53.590945,156.167 77.294145,134.8555 C100.997245,113.545 151.563645,81.4815 189.664145,63.6055 C227.763745,45.7295 286.589945,24.1055 320.390145,15.5518 C359.926245,5.5469 414.796345,0 474.238145,0 C539.261545,0 581.738145,4.75195 617.622145,16.04 C647.023545,25.28902 682.953245,45.038 702.489345,62.6875 C721.124145,79.5215 742.983445,110.6152 751.067445,131.7832 C761.625045,159.4258 764.612345,187.0957 761.671945,229.9893 C759.419995,262.835 750.158245,305.5108 741.089945,324.8243 C732.021585,344.1368 723.201245,362.9034 721.487445,366.5235 C719.774555,370.14459 735.035345,373.10748 755.397645,373.10748 C775.760945,373.10748 807.694545,377.68365 826.361545,383.27738 C845.028545,388.87015 860.301945,397.32328 860.301945,402.06158 C860.301945,406.80084 853.390815,415.73148 844.943545,421.90828 C833.890845,429.99031 808.080245,431.74422 752.861545,428.16707 C676.137945,423.19637 676.137945,423.19637 632.965545,463.57917 C609.220445,485.78917 566.707745,518.78227 538.492845,536.89557 C510.277045,555.00987 462.320945,578.90147 431.923845,589.98637 C401.525445,601.07227 359.590845,610.14167 338.732445,610.14167 C313.661145,610.14167 292.971745,603.97565 277.678745,591.94737 C260.073245,578.09877 254.547845,565.92587 254.547845,540.99527 C254.547845,515.45327 260.832025,502.26677 283.080045,481.12517 C298.772445,466.21307 327.756845,445.93377 347.488245,436.06067 C367.220645,426.18762 414.627845,410.24137 452.837245,400.62417 C491.046645,391.00697 540.832345,380.46887 563.473245,377.20717 C601.660745,371.70522 605.983045,368.41322 623.242745,331.69647 C633.754445,309.33317 641.986845,273.96507 642.170445,250.38787 C642.348179,227.43667 636.597205,197.25607 629.390145,183.32047 C622.183115,169.38397 608.969245,151.37317 600.023945,143.29797 C591.080585,135.2218 565.801245,124.10067 543.849145,118.58407 C521.897045,113.06747 486.561045,109.8077 465.326645,111.33993 C428.882345,113.97079 425.089345,116.83602 397.725045,162.41223 C381.779745,188.96883 351.444745,250.20223 330.314845,298.48723 C309.184945,346.77143 277.701545,424.26123 260.352945,470.68823 C243.005245,517.11503 215.191845,607.97723 198.546345,672.60623 C181.899845,737.23613 165.867645,804.48723 162.916445,822.05323 C159.965275,839.62063 148.620545,867.24753 137.703545,883.44583 C126.786545,899.64313 111.068745,914.20463 102.773845,915.80223 L102.776775,915.80223 L102.774434,915.80338 Z M539.866434,442.38038 C492.240434,451.39405 457.393734,461.28658 431.705434,470.17728 C406.015934,479.06888 372.449534,493.67138 357.111634,502.62848 C341.774734,511.58551 327.935834,525.61478 326.358734,533.80228 C324.147794,545.28368 329.888034,548.68998 351.438834,548.68998 C366.809934,548.68998 401.667334,536.70168 428.898834,522.04938 C456.131234,507.39708 492.239634,483.47618 509.139034,468.89408 L539.866434,442.38038 Z"></path>
  </g>
</svg>