<?xml version="1.0" standalone="no"?>
<!DOCTYPE svg PUBLIC "-//W3C//DTD SVG 1.1//EN" "http://www.w3.org/Graphics/SVG/1.1/DTD/svg11.dtd" >
<svg xmlns="http://www.w3.org/2000/svg" xmlns:xlink="http://www.w3.org/1999/xlink" version="1.1" viewBox="-10 0 1034 1024">
   <path fill="currentColor"
d="M184.64 833.132c-8.29492 1.59668 -17.6094 -3.68457 -20.6992 -11.7393c-3.09082 -8.05371 -3.15039 -49.4238 -0.133789 -91.9346c3.01758 -42.5107 15.5488 -124.944 27.8447 -183.186c12.2959 -58.2422 39.668 -156.421 60.8242 -218.176
c21.1572 -61.7549 52.5273 -143.126 69.7129 -180.824c29.8438 -65.4717 30.3701 -68.2803 11.7607 -62.666c-10.7158 3.23242 -38.9727 17.6943 -62.79 32.1387c-23.8184 14.4443 -56.6816 36.7178 -73.0283 49.498c-16.3477 12.7803 -39.3291 39.3848 -51.0693 59.123
c-11.7393 19.7373 -21.4697 47.3916 -21.6191 61.4531c-0.274414 25.5654 -0.274414 25.5654 -21.9033 -9.55078c-15.0566 -24.4463 -21.6416 -47.8916 -21.6738 -77.166c-0.0263672 -24.4482 7.12109 -56.0967 17.0762 -75.6094
c9.41699 -18.458 36.5146 -50.9971 60.2178 -72.3086c23.7031 -21.3105 74.2695 -53.374 112.37 -71.25c38.0996 -17.876 96.9258 -39.5 130.726 -48.0537c39.5361 -10.0049 94.4062 -15.5518 153.848 -15.5518c65.0234 0 107.5 4.75195 143.384 16.04
c29.4014 9.24902 65.3311 28.998 84.8672 46.6475c18.6348 16.834 40.4941 47.9277 48.5781 69.0957c10.5576 27.6426 13.5449 55.3125 10.6045 98.2061c-2.25195 32.8457 -11.5137 75.5215 -20.582 94.835c-9.06836 19.3125 -17.8887 38.0791 -19.6025 41.6992
c-1.71289 3.62109 13.5479 6.58398 33.9102 6.58398c20.3633 0 52.2969 4.57617 70.9639 10.1699c18.667 5.59277 33.9404 14.0459 33.9404 18.7842c0 4.73926 -6.91113 13.6699 -15.3584 19.8467c-11.0527 8.08203 -36.8633 9.83594 -92.082 6.25879
c-76.7236 -4.9707 -76.7236 -4.9707 -119.896 35.4121c-23.7451 22.21 -66.2578 55.2031 -94.4727 73.3164c-28.2158 18.1143 -76.1719 42.0059 -106.569 53.0908c-30.3984 11.0859 -72.333 20.1553 -93.1914 20.1553c-25.0713 0 -45.7607 -6.16602 -61.0537 -18.1943
c-17.6055 -13.8486 -23.1309 -26.0215 -23.1309 -50.9521c0 -25.542 6.28418 -38.7285 28.5322 -59.8701c15.6924 -14.9121 44.6768 -35.1914 64.4082 -45.0645c19.7324 -9.87305 67.1396 -25.8193 105.349 -35.4365s87.9951 -20.1553 110.636 -23.417
c38.1875 -5.50195 42.5098 -8.79395 59.7695 -45.5107c10.5117 -22.3633 18.7441 -57.7314 18.9277 -81.3086c0.177734 -22.9512 -5.57324 -53.1318 -12.7803 -67.0674c-7.20703 -13.9365 -20.4209 -31.9473 -29.3662 -40.0225
c-8.94336 -8.07617 -34.2227 -19.1973 -56.1748 -24.7139s-57.2881 -8.77637 -78.5225 -7.24414c-36.4443 2.63086 -40.2373 5.49609 -67.6016 51.0723c-15.9453 26.5566 -46.2803 87.79 -67.4102 136.075c-21.1299 48.2842 -52.6133 125.774 -69.9619 172.201
c-17.3477 46.4268 -45.1611 137.289 -61.8066 201.918c-16.6465 64.6299 -32.6787 131.881 -35.6299 149.447c-2.95117 17.5674 -14.2959 45.1943 -25.2129 61.3926c-10.917 16.1973 -26.6348 30.7588 -34.9297 32.3564h0.00292969zM621.732 359.709
c-47.626 9.01367 -82.4727 18.9062 -108.161 27.7969c-25.6895 8.8916 -59.2559 23.4941 -74.5938 32.4512c-15.3369 8.95703 -29.1758 22.9863 -30.7529 31.1738c-2.21094 11.4814 3.5293 14.8877 25.0801 14.8877c15.3711 0 50.2285 -11.9883 77.46 -26.6406
c27.2324 -14.6523 63.3408 -38.5732 80.2402 -53.1553z" />
</svg>
