<?xml version="1.0" encoding="UTF-8"?>
<svg width="821px" height="1025px" viewBox="0 0 821 1025" version="1.1" xmlns="http://www.w3.org/2000/svg" xmlns:xlink="http://www.w3.org/1999/xlink">
  <g id="Pinterest" transform="translate(0.9331, 0.8284)" fill="currentColor" fill-rule="nonzero">
    <path d="M238,392 C238,348 248,312 272,282 C294,252 322,236 354,236 C380,236 400,244 414,262 C428,280 436,302 436,328 C436,344 432,364 426,386 C420,410 414,438 404,468 C394,500 386,524 382,542 C374,574 380,602 400,626 C420,648 446,660 478,660 C534,660 580,628 616,566 C652,502 670,426 670,336 C670,268 648,212 604,168 C560,126 498,104 418,104 C328,104 256,132 202,190 C146,246 118,314 118,394 C118,442 132,482 158,514 C168,524 170,536 168,548 C164,558 160,574 156,596 C154,604 150,610 144,612 C138,614 132,614 126,612 C84,594 54,566 32,524 C10,482 0,434 0,380 C0,344 6,310 18,274 C30,238 46,204 70,172 C94,138 124,110 156,84 C190,58 230,38 280,22 C328,8 380,0 434,0 C492,0 544,10 592,30 C640,48 682,74 714,106 C748,140 772,176 792,218 C810,260 820,304 820,348 C820,468 790,568 728,646 C666,726 588,764 492,764 C460,764 430,758 402,742 C374,728 354,710 342,688 C320,782 306,838 300,856 C288,902 260,958 214,1024 L172,1024 C164,942 166,874 178,820 L256,490 C244,464 238,432 238,392 Z"></path>
  </g>
</svg>