<?xml version="1.0" standalone="no"?>
<!DOCTYPE svg PUBLIC "-//W3C//DTD SVG 1.1//EN" "http://www.w3.org/Graphics/SVG/1.1/DTD/svg11.dtd" >
<svg xmlns="http://www.w3.org/2000/svg" xmlns:xlink="http://www.w3.org/1999/xlink" version="1.1" viewBox="-10 0 1034 1024">
   <path fill="currentColor"
d="M340 251c0 -44 10 -80 34 -110c22 -30 50 -46 82 -46c26 0 46 8 60 26s22 40 22 66c0 16 -4 36 -10 58c-6 24 -12 52 -22 82c-10 32 -18 56 -22 74c-8 32 -2 60 18 84c20 22 46 34 78 34c56 0 102 -32 138 -94c36 -64 54 -140 54 -230c0 -68 -22 -124 -66 -168
c-44 -42 -106 -64 -186 -64c-90 0 -162 28 -216 86c-56 56 -84 124 -84 204c0 48 14 88 40 120c10 10 12 22 10 34c-4 10 -8 26 -12 48c-2 8 -6 14 -12 16s-12 2 -18 0c-42 -18 -72 -46 -94 -88s-32 -90 -32 -144c0 -36 6 -70 18 -106s28 -70 52 -102c24 -34 54 -62 86 -88
c34 -26 74 -46 124 -62c48 -14 100 -22 154 -22c58 0 110 10 158 30c48 18 90 44 122 76c34 34 58 70 78 112c18 42 28 86 28 130c0 120 -30 220 -92 298c-62 80 -140 118 -236 118c-32 0 -62 -6 -90 -22c-28 -14 -48 -32 -60 -54c-22 94 -36 150 -42 168
c-12 46 -40 102 -86 168h-42c-8 -82 -6 -150 6 -204l78 -330c-12 -26 -18 -58 -18 -98z" />
</svg>
