<?xml version="1.0" standalone="no"?>
<!DOCTYPE svg PUBLIC "-//W3C//DTD SVG 1.1//EN" "http://www.w3.org/Graphics/SVG/1.1/DTD/svg11.dtd" >
<svg xmlns="http://www.w3.org/2000/svg" xmlns:xlink="http://www.w3.org/1999/xlink" version="1.1" viewBox="-10 0 1045 1024">
   <path fill="currentColor"
d="M897.055 21.6934c-80.4561 -69.7959 -193.044 -110.091 -323.912 -110.091c-341.146 0.0107422 -573.143 261.52 -573.143 261.52l65.3623 103.066s36.1973 3.01074 17.0391 -57.6924c16.5381 -31.0371 48.8955 -72.8174 112.097 -121.006v686.541
c-27.249 7.62891 -63.2734 21.9844 -38.7285 46.3672h187.844c24.791 -24.6172 -14.2646 -39.4551 -38.0527 -46.3672v-161.977s128.759 50.2178 267.581 50.2178c121.938 0 232.919 -36.0557 315.465 -101.161c82.5332 -64.7275 135.752 -161.372 135.403 -271.831
c0.246094 -108.473 -46.5 -208.046 -126.966 -277.565l0.00976562 -0.0195312zM797.491 516.92c-57.0684 55.9717 -140.083 91.3516 -235.808 91.2793c-106.834 0.0722656 -196.74 -20.4805 -256.123 -49.5215v-515.052c65.1475 -45.998 170.804 -74.3223 256.123 -74.1582
c103.67 0.0917969 185.048 39.0039 240.108 98.0283c54.9268 59.3916 84.9199 138.301 85.1973 230.001c-0.348633 89.3643 -32.4199 162.979 -89.498 219.402v0.0195312v0.000976562z" />
</svg>
