<?xml version="1.0" encoding="UTF-8"?>
<svg width="1025px" height="919px" viewBox="0 0 1025 919" version="1.1" xmlns="http://www.w3.org/2000/svg" xmlns:xlink="http://www.w3.org/1999/xlink">
  <g id="Pixiv" transform="translate(0.0003, 0.0926)" fill="currentColor" fill-rule="nonzero">
    <path d="M897.055,110.091 C816.5989,40.2951 704.011,0 573.143,0 C231.997,0.0107422 0,261.52 0,261.52 L65.3623,364.586 C65.3623,364.586 101.5596,367.59674 82.4014,306.8936 C98.9395,275.8565 131.2969,234.0762 194.4984,185.8876 L194.4984,872.4286 C167.2494,880.05751 131.225,894.413 155.7699,918.7958 L343.6139,918.7958 C368.4049,894.1786 329.3493,879.3407 305.5612,872.4286 L305.5612,710.4516 C305.5612,710.4516 434.3202,760.6694 573.1422,760.6694 C695.0802,760.6694 806.0612,724.6137 888.6072,659.5084 C971.1404,594.7809 1024.3592,498.1364 1024.01191,387.6774 C1024.25629,279.2044 977.5102,179.6314 897.0442,110.1124 L897.053966,110.092869 L897.055,110.091 Z M797.491,605.3176 C740.4226,661.2893 657.408,696.6692 561.683,696.59709 C454.849,696.669166 364.943,676.1164 305.56,647.0754 L305.56,132.0234 C370.7075,86.0254 476.364,57.7011 561.683,57.8644908 C665.353,57.9569969 746.731,96.8691 801.791,155.8935 C856.7178,215.2851 886.7109,294.1945 886.9883,385.8945 C886.639667,475.2588 854.5684,548.8735 797.4903,605.2965 L797.4903,605.316031 L797.4903,605.317008 L797.491,605.3176 Z"></path>
  </g>
</svg>