<?xml version="1.0" encoding="UTF-8"?>
<svg width="48px" height="48px" viewBox="0 0 48 48" version="1.1" xmlns="http://www.w3.org/2000/svg" xmlns:xlink="http://www.w3.org/1999/xlink">
    <title>Plancke</title>
    <g id="Plancke" stroke="none" stroke-width="1" fill="none" fill-rule="evenodd">
        <path d="M22,1.84529946 C23.2376043,1.13076828 24.7623957,1.13076828 26,1.84529946 L42.1865335,11.1905989 C43.4241378,11.9051301 44.1865335,13.2256382 44.1865335,14.6547005 L44.1865335,33.3452995 C44.1865335,34.7743618 43.4241378,36.0948699 42.1865335,36.8094011 L26,46.1547005 C24.7623957,46.8692317 23.2376043,46.8692317 22,46.1547005 L5.81346652,36.8094011 C4.57586221,36.0948699 3.81346652,34.7743618 3.81346652,33.3452995 L3.81346652,14.6547005 C3.81346652,13.2256382 4.57586221,11.9051301 5.81346652,11.1905989 L22,1.84529946 Z M24,5.30940108 L7.81346652,14.6547005 L7.81346652,33.3452995 L24,42.6905989 L40.1865335,33.3452995 L40.1865335,14.6547005 L24,5.30940108 Z" id="Polygon" fill="currentColor" fill-rule="nonzero"></path>
    </g>
</svg>