<?xml version="1.0" encoding="UTF-8"?>
<svg width="764px" height="1025px" viewBox="0 0 764 1025" version="1.1" xmlns="http://www.w3.org/2000/svg" xmlns:xlink="http://www.w3.org/1999/xlink">
  <g id="Player" transform="translate(0.8334, 0.4253)" fill="currentColor" fill-rule="nonzero">
    <path d="M382,0 C172,0 0,172 0,382 L0,388 L0,390 L0,394 L0,398 L0,398 C10,676 300,1024 300,1024 L300,564 C200,518 156,400 200,302 C246,200 364,156 462,202 C562,246 608,364 562,464 C540,516 496,552 444,572 L444,760 C652,726 792,530 758,320 C730,136 570,0 382,0 Z"></path>
  </g>
</svg>