<?xml version="1.0" encoding="UTF-8"?>
<svg width="1026px" height="779px" viewBox="0 0 1026 779" version="1.1" xmlns="http://www.w3.org/2000/svg" xmlns:xlink="http://www.w3.org/1999/xlink">
  <g id="PlayStation" transform="translate(0.5879, 0.0684)" fill="currentColor" fill-rule="nonzero">
    <path d="M1022.07195,560 C1012.07195,512 936.07195,486 816.07195,476 C732.07195,470 648.07195,490 566.07195,518 L552.07195,522 L552.07195,160 C552.07195,130 616.07195,132 616.07195,166 L616.07195,448 C746.07195,486 812.07195,428 814.07195,284 C814.07195,162 732.07195,90 598.07195,54 L386.07195,0 L386.07195,428 L322.07195,450 L386.07195,470 L386.07195,578 L234.07195,630 C182.07195,648 140.07195,606 186.07195,590 L224.07195,576 L82.0719499,532 C38.0719499,546 -1.92805006,578 0.0719499448,622 C2.07194994,666 106.07195,678 184.07195,690 C258.07195,702 326.07195,696 386.07195,674 L386.07195,628 L386.07195,724 L552.07195,778 L552.07195,774 L554.07195,778 L698.07195,726 L938.07195,642 L782.07195,594 L552.07195,672 L552.07195,618 L698.07195,568 L784.07195,538 C874.07195,522 910.07195,552 824.07195,580 L782.07195,594 L938.07195,642 L940.07195,642 C1002.07195,620 1030.07195,588 1024.07195,560 L1022.07195,560 Z M82.0719499,532 L224.07195,576 L386.07195,518 L386.07195,470 L322.07195,450 L86.0719499,530 C84.0719499,530 84.0719499,532 82.0719499,532 Z"></path>
  </g>
</svg>