<?xml version="1.0" encoding="UTF-8"?>
<svg width="900px" height="1025px" viewBox="0 0 900 1025" version="1.1" xmlns="http://www.w3.org/2000/svg" xmlns:xlink="http://www.w3.org/1999/xlink">
  <g id="Play" transform="translate(0.1426, 0.711)" fill="currentColor" fill-rule="nonzero">
    <path d="M528,490 L660,358 L460,242 C460,242 68,16 46,4 C44,2 42,0 38,0 L528,490 Z M884,488 C866,478 712,388 682,370 L546,506 L684,646 C722,624 862,544 882,532 C906,518 904,498 884,488 Z M8,2 C4,8 0,16 0,26 L0,510 L0,1002 C0,1008 2,1012 4,1016 L512,506 L8,2 Z M528,524 L28,1024 C30,1024 34,1022 36,1020 C56,1008 460,776 460,776 L664,658 L528,524 Z"></path>
  </g>
</svg>