<?xml version="1.0" standalone="no"?>
<!DOCTYPE svg PUBLIC "-//W3C//DTD SVG 1.1//EN" "http://www.w3.org/Graphics/SVG/1.1/DTD/svg11.dtd" >
<svg xmlns="http://www.w3.org/2000/svg" xmlns:xlink="http://www.w3.org/1999/xlink" version="1.1" viewBox="-10 0 1034 1024">
   <path fill="currentColor"
d="M590 349l132 -132l-200 -116s-392 -226 -414 -238c-2 -2 -4 -4 -8 -4zM946 347c-18 -10 -172 -100 -202 -118l-136 136l138 140c38 -22 178 -102 198 -114c24 -14 22 -34 2 -44zM70 -139c-4 6 -8 14 -8 24v484v492c0 6 2 10 4 14l508 -510zM590 383l-500 500
c2 0 6 -2 8 -4c20 -12 424 -244 424 -244l204 -118z" />
</svg>
