<?xml version="1.0" standalone="no"?>
<!DOCTYPE svg PUBLIC "-//W3C//DTD SVG 1.1//EN" "http://www.w3.org/Graphics/SVG/1.1/DTD/svg11.dtd" >
<svg xmlns="http://www.w3.org/2000/svg" xmlns:xlink="http://www.w3.org/1999/xlink" version="1.1" viewBox="-11 0 1046 1024">
   <path fill="currentColor"
d="M1024 35c0 -28 2 -54 -14 -78c-12 -18 -32 -34 -52 -40c-28 -8 -58 -6 -84 -4c-120 0 -242 -2 -362 -2h-40h-50h-178h-90h-48c-14 0 -26 0 -38 4c-42 12 -68 52 -68 96v180c0 58 -2 118 2 178c4 54 20 110 42 160c42 90 110 166 194 220c92 58 202 86 310 78
c106 -8 208 -50 290 -118c78 -62 134 -146 164 -240c16 -54 22 -112 22 -168v-178v-88zM820 267c-6 26 -32 44 -50 62c-46 44 -92 88 -138 130c-24 24 -46 46 -70 68c-18 16 -42 24 -66 18c-28 -6 -48 -32 -66 -50c-24 -22 -46 -44 -68 -64c-46 -44 -92 -88 -138 -134
c-34 -34 -28 -96 20 -116c22 -8 48 -6 66 6c12 10 24 20 34 32c12 10 24 22 34 32c46 44 88 88 134 128c52 -48 104 -98 156 -148c22 -20 42 -48 74 -54c24 -4 50 6 66 24c14 18 20 44 12 66z" />
</svg>
