<?xml version="1.0" encoding="UTF-8"?>
<svg width="1026px" height="918px" viewBox="0 0 1026 918" version="1.1" xmlns="http://www.w3.org/2000/svg" xmlns:xlink="http://www.w3.org/1999/xlink">
  <g id="Pocket" transform="translate(0.9808, 0)" fill="currentColor" fill-rule="nonzero">
    <path d="M1024.5,124 C1024.5,96 1026.5,70 1010.5,46 C998.5,28 978.5,12 958.5,6 C930.5,-2 900.5,0 874.5,2 C754.5,2 632.5,0 512.5,0 L472.5,0 L422.5,0 L244.5,0 L154.5,0 L106.5,0 C92.5,0 80.5,0 68.5,4 C26.5,16 0.5,56 0.5,100 L0.5,280 C0.5,338 -1.5,398 2.5,458 C6.5,512 22.5,568 44.5,618 C86.5,708 154.5,784 238.5,838 C330.5,896 440.5,924 548.5,916 C654.5,908 756.5,866 838.5,798 C916.5,736 972.5,652 1002.5,558 C1018.5,504 1024.5,446 1024.5,390 L1024.5,212 L1024.5,124 Z M820.5,356 C814.5,382 788.5,400 770.5,418 C724.5,462 678.5,506 632.5,548 C608.5,572 586.5,594 562.5,616 C544.5,632 520.5,640 496.5,634 C468.5,628 448.5,602 430.5,584 C406.5,562 384.5,540 362.5,520 C316.5,476 270.5,432 224.5,386 C190.5,352 196.5,290 244.5,270 C266.5,262 292.5,264 310.5,276 C322.5,286 334.5,296 344.5,308 C356.5,318 368.5,330 378.5,340 C424.5,384 466.5,428 512.5,468 C564.5,420 616.5,370 668.5,320 C690.5,300 710.5,272 742.5,266 C766.5,262 792.5,272 808.5,290 C822.5,308 828.5,334 820.5,356 Z"></path>
  </g>
</svg>