<?xml version="1.0" standalone="no"?>
<!DOCTYPE svg PUBLIC "-//W3C//DTD SVG 1.1//EN" "http://www.w3.org/Graphics/SVG/1.1/DTD/svg11.dtd" >
<svg xmlns="http://www.w3.org/2000/svg" xmlns:xlink="http://www.w3.org/1999/xlink" version="1.1" viewBox="-10 0 1034 1024">
   <path fill="currentColor"
d="M156.722 132.076c134.637 -198.902 405.033 -251.003 603.936 -116.357c198.901 134.637 251.003 405.033 116.347 603.936c-134.636 198.892 -405.022 250.993 -603.924 116.356c-198.912 -134.636 -251.003 -405.033 -116.357 -603.935h-0.000976562zM784.511 70.5713
l0.138672 0.225586c63.2129 100.24 78.416 250.595 29.5117 400.848c-43.6377 134.079 -128.588 238.173 -224.606 290.177c104.709 -30.6064 200.135 -106.809 256.729 -217.432c85.4805 -167.078 55.4541 -360.051 -61.7734 -473.818zM417.748 41.0469l-0.868164 0.764648
c-69.2119 60.7725 -126.161 160.698 -151.685 280.351c-41.2646 193.489 13.54 373.404 123.951 431.699c-59.2148 -76.6982 -89.4414 -229.253 -71.1953 -400.141c13.543 -126.839 51.0586 -238.169 99.7969 -312.674zM511.088 18.5869
c-79.5234 1.25977 -141.466 162.263 -138.353 359.608c3.1123 197.345 70.1123 356.311 149.646 355.052c79.5342 -1.25977 141.477 -162.253 138.354 -359.598c-3.11328 -197.356 -70.1133 -356.312 -149.647 -355.062zM647.03 -0.874023l2.20703 3.03711
c56.2275 78.4883 84.458 227.574 66.6816 394.064c-13.7744 129.008 -52.3418 241.967 -102.292 316.462c70.6709 -60.4707 129.004 -161.641 154.925 -283.16c40.96 -192.074 -12.7373 -370.765 -121.521 -430.402v-0.000976562zM435.981 -7.62988l-3.63281 1.16406
c-100.064 32.7314 -190.497 107.314 -244.959 213.786c-86.2168 168.507 -54.9209 363.371 64.8213 476.736c-65.9795 -100.207 -82.5664 -253.15 -32.8213 -405.988c42.4189 -130.335 123.879 -232.335 216.591 -285.698h0.000976562z" />
</svg>
