<?xml version="1.0" encoding="UTF-8"?>
<svg width="871px" height="871px" viewBox="0 0 871 871" version="1.1" xmlns="http://www.w3.org/2000/svg" xmlns:xlink="http://www.w3.org/1999/xlink">
  <g id="Polar" transform="translate(0.8267, 0.8284)" fill="currentColor" fill-rule="nonzero">
    <path d="M74.8002095,191.156567 C209.43721,-7.74543306 479.83321,-59.8464331 678.73621,74.7995669 C877.63721,209.436567 929.73921,479.832567 795.08321,678.735567 C660.44721,877.627567 390.06121,929.728567 191.15921,795.091567 C-7.75279048,660.455567 -59.8437905,390.058567 74.8022095,191.156567 L74.801233,191.156567 L74.8002095,191.156567 Z M702.58921,129.651867 L702.727882,129.877453 C765.940782,230.117453 781.143882,380.472453 732.239582,530.725453 C688.601882,664.804453 603.651582,768.898453 507.633582,820.902453 C612.342582,790.296053 707.768582,714.093453 764.362582,603.470453 C849.843082,436.392453 819.816682,243.419453 702.589182,129.651867 L702.58921,129.651867 Z M335.82621,100.127115 L334.958046,100.892115 C265.746146,161.664615 208.797046,261.590115 183.273046,381.243115 C142.008446,574.732115 196.813046,754.647115 307.224046,812.942115 C248.009246,736.243915 217.782646,583.689115 236.028746,412.801115 C249.571746,285.962115 287.087346,174.632115 335.82621,100.127115 L335.82621,100.127115 Z M429.16621,77.6674669 C349.64281,78.9272369 287.70021,239.930467 290.81321,437.275467 C293.92551,634.620467 360.92551,793.586467 440.45921,792.327467 C519.99341,791.067697 581.93621,630.074467 578.81321,432.729467 C575.69993,235.373467 508.69991,76.4174669 429.16621,77.6674669 Z M565.10821,58.2065439 L567.31524,61.2436539 C623.54274,139.731954 651.77324,288.817654 633.99684,455.307654 C620.22244,584.315654 581.65504,697.274654 531.70484,771.769654 C602.37574,711.298954 660.70884,610.128654 686.62984,488.609654 C727.58984,296.535654 673.89254,117.844654 565.10884,58.2065439 L565.10884,58.2065439 L565.10821,58.2065439 Z M354.059376,51.4506869 L350.4264,52.6147469 C250.3624,85.3461469 159.9294,159.928747 105.4674,266.400747 C19.2505995,434.907747 50.5464995,629.771747 170.2887,743.136747 C104.3092,642.929747 87.7222995,489.986747 137.4674,337.148747 C179.8863,206.813747 261.3464,104.813747 354.059376,51.4506869 L354.059376,51.4506869 L354.059376,51.4506869 Z"></path>
  </g>
</svg>