<?xml version="1.0" encoding="UTF-8"?>
<svg width="64px" height="64px" viewBox="0 0 64 64" version="1.1" xmlns="http://www.w3.org/2000/svg" xmlns:xlink="http://www.w3.org/1999/xlink">
    <title>Pronouny</title>
    <g id="Pronouny" stroke="none" stroke-width="1" fill="none" fill-rule="evenodd">
        <path d="M33.4993086,33.499 L57.450766,33.499 L54.9229258,50.5223518 L33.4993086,62.3804723 L33.4993086,33.499 Z M55.1313086,35.499 L35.4993086,35.499 L35.4993086,58.987 L53.0893086,49.25 L55.1313086,35.499 Z M30.4993086,33.499 L30.4993086,62.3748018 L9.32337308,50.5208597 L6.71221061,33.499 L30.4993086,33.499 Z M28.4993086,35.499 L9.04230859,35.499 L11.1513086,49.252 L28.4993086,58.963 L28.4993086,35.499 Z M30.4993086,1.54347233 L30.4993086,30.499 L6.25299551,30.499 L3.2255477,10.7609727 L30.4993086,1.54347233 Z M28.4993086,4.33 L5.45630859,12.117 L7.96930859,28.499 L28.4993086,28.499 L28.4993086,4.33 Z M33.4993086,30.499 L33.4993086,1.54240269 L60.8278419,10.7591505 L57.895743,30.499 L33.4993086,30.499 Z M35.4993086,4.327 L35.4993086,28.499 L56.1703086,28.499 L58.6033086,12.12 L35.4993086,4.327 Z" id="Shape" fill="currentColor" fill-rule="nonzero"></path>
    </g>
</svg>