<?xml version="1.0" standalone="no"?>
<!DOCTYPE svg PUBLIC "-//W3C//DTD SVG 1.1//EN" "http://www.w3.org/Graphics/SVG/1.1/DTD/svg11.dtd" >
<svg xmlns="http://www.w3.org/2000/svg" xmlns:xlink="http://www.w3.org/1999/xlink" version="1.1" viewBox="-10 0 1034 1024">
   <path fill="currentColor"
d="M626.042 109.485c2.19141 -3.89551 0.34082 -7.05957 -4.12109 -7.05957l-78.2188 0.0478516c-4.46191 0 -9.98145 3.14844 -12.2354 6.99512l-191.652 324.189c-26.7441 44.0586 -64.0684 53.7959 -99.9326 49.4473
c-61.5684 -7.4668 -94.6748 -52.6602 -94.6748 -112.85c0 -60.4502 49.1865 -109.637 109.637 -109.637h121.71c4.46191 0 9.93164 -3.16504 12.1396 -7.04297l43.8643 -76.5977c2.22363 -3.87793 0.373047 -7.04297 -4.08984 -7.04297h-173.64
c-110.448 0 -200.318 89.8555 -200.318 200.318c0 53.374 20.8535 110.935 58.7783 148.552c37.373 37.0654 87.3076 50.6484 140.6 51.751c30.0869 0.341797 112.721 -0.34082 151.457 -69.2607c43.3779 -77.1973 220.701 -391.811 220.701 -391.811h-0.00390625z
M910.714 223.228c-37.373 -37.0645 -87.3076 -50.6475 -140.6 -51.751c-30.0869 -0.34082 -112.721 0.341797 -151.457 69.2617c-43.3613 77.165 -220.701 391.777 -220.701 391.777c-2.19141 3.89551 -0.34082 7.05957 4.12109 7.05957l78.2188 -0.0478516
c4.46191 0 9.98145 -3.14844 12.2354 -6.99512l191.652 -324.189c26.7441 -44.0586 64.0684 -53.7959 99.9326 -49.4463c61.5684 7.46582 94.6748 52.6592 94.6748 112.849c0 60.4502 -49.1875 109.637 -109.637 109.637h-121.71
c-4.46191 0 -9.93164 3.16504 -12.1396 7.04297l-43.8643 76.5977c-2.22363 3.87793 -0.373047 7.04297 4.08984 7.04297h173.64c110.448 0 200.318 -89.8555 200.318 -200.318c0 -53.3408 -20.8535 -110.903 -58.7783 -148.52h0.00390625z" />
</svg>
