<?xml version="1.0" encoding="UTF-8"?>
<svg width="16px" height="16px" viewBox="0 0 16 16" version="1.1" xmlns="http://www.w3.org/2000/svg" xmlns:xlink="http://www.w3.org/1999/xlink">
    <title>Pronouns.cc</title>
    <g id="Pronouns.cc" stroke="none" stroke-width="1" fill="none" fill-rule="evenodd">
        <path d="M5.07740695,9.04813121 C5.22877685,9.04813121 5.36135136,9.14949198 5.40129153,9.2958274 L5.70336005,10.403412 L6.47967615,10.6907127 C6.6115794,10.7393793 6.69884364,10.8652412 6.69884364,11.0051996 C6.69884364,11.1454936 6.6115794,11.2713555 6.47967615,11.3200221 L5.70738763,11.6063159 L5.40296969,12.8219739 C5.36537894,12.9709944 5.23112627,13.0757115 5.07740695,13.0757115 C4.92335201,13.0757115 4.78909933,12.9709944 4.75184422,12.8219739 L4.44742627,11.6063159 L3.67513776,11.3200221 C3.5432345,11.2713555 3.45597027,11.1454936 3.45597027,11.0051996 C3.45597027,10.8652412 3.5432345,10.7393793 3.67513776,10.6907127 L4.45145385,10.403412 L4.75352237,9.2958274 C4.79346255,9.14949198 4.92603706,9.04813121 5.07740695,9.04813121 Z M8.76935553,2 C8.91703347,2 9.04725857,2.09666193 9.09021942,2.23762724 L10.2055235,5.89299196 L13.1923099,6.99856274 C13.3242132,7.04756497 13.4114774,7.17309122 13.4114774,7.31338526 C13.4114774,7.45367931 13.3242132,7.57954119 13.1926456,7.62787216 L10.2068661,8.73310731 L9.09122632,12.4999017 C9.04893673,12.6425452 8.91804037,12.740214 8.76935553,12.740214 C8.62067069,12.740214 8.48977433,12.6425452 8.44748474,12.4999017 L7.33218064,8.73310731 L4.34640114,7.62787216 C4.21449788,7.57954119 4.12723364,7.45367931 4.12723364,7.31338526 C4.12723364,7.17309122 4.21449788,7.04756497 4.34640114,6.99856274 L7.33352317,5.89299196 L8.44849163,2.23762724 C8.49145249,2.09666193 8.62201322,2 8.76935553,2 Z M3.62143669,2.11344351 C3.76173073,2.11344351 3.88725699,2.20070775 3.93625921,2.332611 L4.22993694,3.12637995 L5.02370588,3.42005767 C5.15560914,3.4690599 5.24287338,3.59458615 5.24287338,3.7348802 C5.24287338,3.87517424 5.15560914,4.0007005 5.02370588,4.04970272 L4.22993694,4.34338045 L3.93625921,5.13714939 C3.88725699,5.26905265 3.76173073,5.35631689 3.62143669,5.35631689 C3.48080701,5.35631689 3.35528076,5.26905265 3.30661416,5.13714939 L3.0126008,4.34338045 L2.21916749,4.04970272 C2.08726424,4.0007005 2,3.87517424 2,3.7348802 C2,3.59458615 2.08726424,3.4690599 2.21916749,3.42005767 L3.0126008,3.12637995 L3.30661416,2.332611 C3.35528076,2.20070775 3.48080701,2.11344351 3.62143669,2.11344351 Z" id="Shape" fill="currentColor" fill-rule="nonzero"></path>
    </g>
</svg>