<?xml version="1.0" encoding="UTF-8"?>
<svg width="916px" height="538px" viewBox="0 0 916 538" version="1.1" xmlns="http://www.w3.org/2000/svg" xmlns:xlink="http://www.w3.org/1999/xlink">
  <g id="PronounsPage" transform="translate(0.7057, 0.711)" fill="currentColor" fill-rule="nonzero">
    <path d="M571.53163,7.05957 C573.72304,3.16406 571.87245,0 567.41054,0 L489.19174,0.0478516 C484.72983,0.0478516 479.21029,3.1962916 476.95634,7.0429716 L285.30434,331.231972 C258.56024,375.290572 221.23594,385.027872 185.37174,380.679272 C123.80334,373.212472 90.69694,328.019072 90.69694,267.829272 C90.69694,207.379072 139.88344,158.192272 200.33394,158.192272 L322.04394,158.192272 C326.50585,158.192272 331.97558,155.027232 334.18354,151.149302 L378.04784,74.5516016 C380.27147,70.6736716 378.420887,67.5086316 373.958,67.5086316 L200.318,67.5086316 C89.87,67.5086316 0,157.364132 0,267.826632 C0,321.200632 20.8535,378.761632 58.7783,416.378632 C96.1513,453.444032 146.0859,467.027032 199.3783,468.129632 C229.4652,468.471429 312.0993,467.788812 350.8353,398.868932 C394.2132,321.671632 571.5363,7.0579316 571.5363,7.0579316 L571.532394,7.0579316 L571.53163,7.05957 Z M856.20363,120.80257 C818.83063,83.73807 768.89603,70.15507 715.60363,69.05157 C685.51673,68.71075 602.88263,69.393367 564.14663,138.31327 C520.78533,215.47827 343.44563,530.09027 343.44563,530.09027 C341.25422,533.98578 343.10481,537.14984 347.56672,537.14984 L425.78552,537.101988 C430.24743,537.101988 435.76697,533.953548 438.02092,530.106868 L629.67292,205.917868 C656.41702,161.859268 693.74132,152.121968 729.60552,156.471568 C791.17392,163.937388 824.28032,209.130768 824.28032,269.320568 C824.28032,329.770768 775.09282,378.957568 714.64332,378.957568 L592.93332,378.957568 C588.47141,378.957568 583.00168,382.122608 580.79372,386.000538 L536.92942,462.598238 C534.70579,466.476168 536.556373,469.641208 541.01926,469.641208 L714.65926,469.641208 C825.10726,469.641208 914.97726,379.785708 914.97726,269.323208 C914.97726,215.982408 894.12376,158.420208 856.19896,120.803208 L856.202866,120.803208 L856.20363,120.80257 Z"></path>
  </g>
</svg>