<?xml version="1.0" encoding="UTF-8"?>
<svg width="1025px" height="1025px" viewBox="0 0 1025 1025" version="1.1" xmlns="http://www.w3.org/2000/svg" xmlns:xlink="http://www.w3.org/1999/xlink">
  <g id="Qobuz" transform="translate(0.2781, 0.0926)" fill="currentColor" fill-rule="nonzero">
    <path d="M892.928,854.016 C974.8479,762.8803 1024,643.073 1024,512 C1024,229.376 794.624,0 512,0 C229.376,0 0,229.376 0,512 C0,794.624 229.376,1024 512,1024 C644.096,1024 763.904,973.8242 855.04,892.928 L888.832,925.6966 C893.95212,930.81672 901.1201,933.88801 908.2881,933.88801 C915.4561,933.88801 921.5996,930.81672 927.7442,925.6966 C937.9844,915.4564 937.9844,898.0482 927.7442,887.8079 L892.928,854.016 Z M512,965.632 C261.12,965.632 58.368,762.88 58.368,512 C58.368,261.12 261.12,58.368 512,58.368 C762.88,58.368 965.632,261.12 965.632,512 C965.632,627.712 922.6242,733.184 850.944,813.056 L737.28,700.416 C727.0398,690.1758 709.6316,690.1758 699.3913,700.416 C689.152,710.6562 689.152,728.0644 699.3913,738.3037 L813.0553,851.9677 C733.1832,922.6239 627.7113,965.632 511.9993,965.632 L512,965.632 Z"></path>
  </g>
</svg>