<?xml version="1.0" standalone="no"?>
<!DOCTYPE svg PUBLIC "-//W3C//DTD SVG 1.1//EN" "http://www.w3.org/Graphics/SVG/1.1/DTD/svg11.dtd" >
<svg xmlns="http://www.w3.org/2000/svg" xmlns:xlink="http://www.w3.org/1999/xlink" version="1.1" viewBox="-10 0 1044 1024">
   <path fill="currentColor"
d="M892.928 713.016c81.9199 -91.1357 131.072 -210.943 131.072 -342.016c0 -282.624 -229.376 -512 -512 -512s-512 229.376 -512 512s229.376 512 512 512c132.096 0 251.904 -50.1758 343.04 -131.072l33.792 32.7686c5.12012 5.12012 12.2881 8.19141 19.4561 8.19141
s13.3115 -3.07129 19.4561 -8.19141c10.2402 -10.2402 10.2402 -27.6484 0 -37.8887zM512 824.632c-250.88 0 -453.632 -202.752 -453.632 -453.632s202.752 -453.632 453.632 -453.632s453.632 202.752 453.632 453.632c0 115.712 -43.0078 221.184 -114.688 301.056
l-113.664 -112.64c-10.2402 -10.2402 -27.6484 -10.2402 -37.8887 0c-10.2393 10.2402 -10.2393 27.6484 0 37.8877l113.664 113.664c-79.8721 70.6562 -185.344 113.664 -301.056 113.664z" />
</svg>
