<?xml version="1.0" standalone="no"?>
<!DOCTYPE svg PUBLIC "-//W3C//DTD SVG 1.1//EN" "http://www.w3.org/Graphics/SVG/1.1/DTD/svg11.dtd" >
<svg xmlns="http://www.w3.org/2000/svg" xmlns:xlink="http://www.w3.org/1999/xlink" version="1.1" viewBox="-10 0 1034 1024">
   <path fill="currentColor"
d="M964 451c-30 -72 -72 -124 -102 -136v-14c0 -26 -8 -52 -20 -72v-6c0 -12 -4 -24 -8 -34c-8 -184 -128 -330 -322 -330s-314 146 -322 330c-6 10 -8 22 -8 34v6c-12 20 -20 46 -20 72v14c-30 12 -72 64 -102 136c-38 90 -44 176 -14 192c22 10 56 -14 86 -62
c12 52 44 96 86 134c-44 16 -74 44 -74 76c0 50 80 92 180 92c90 0 164 -34 178 -78h20c14 44 90 78 178 78c100 0 182 -42 182 -92c0 -32 -30 -60 -76 -76c44 -38 74 -82 86 -134c32 48 64 72 86 62c30 -16 24 -102 -14 -192zM420 189c-54 -6 -66 -106 -40 -154
c10 -16 26 -30 46 -30c36 0 58 46 58 90s-20 98 -64 94zM612 189c-6 2 -18 4 -26 0c-52 -14 -62 -110 -34 -154c8 -14 22 -28 40 -30c4 -2 14 -2 20 0c60 24 58 162 0 184zM598 71c-16 -8 -30 4 -34 16c-2 10 -6 26 8 28c6 -6 4 -28 16 -26s4 28 22 24c6 -16 0 -38 -12 -42z
M452 61c-28 4 -28 72 2 74s32 -78 -2 -74z" />
</svg>
