<?xml version="1.0" encoding="UTF-8"?>
<svg width="971px" height="1025px" viewBox="0 0 971 1025" version="1.1" xmlns="http://www.w3.org/2000/svg" xmlns:xlink="http://www.w3.org/1999/xlink">
  <g id="Qq" transform="translate(0.2322, 0.6137)" fill="currentColor" fill-rule="nonzero">
    <path d="M937.049891,592 C907.049891,520 865.049891,468 835.049891,456 L835.049891,442 C835.049891,416 827.049891,390 815.049891,370 L815.049891,364 C815.049891,352 811.049891,340 807.049891,330 C799.049891,146 679.049891,0 485.049891,0 C291.049891,0 171.049891,146 163.049891,330 C157.049891,340 155.049891,352 155.049891,364 L155.049891,370 C143.049891,390 135.049891,416 135.049891,442 L135.049891,456 C105.049891,468 63.0498906,520 33.0498906,592 C-4.95010935,682 -10.9501094,768 19.0498906,784 C41.0498906,794 75.0498906,770 105.049891,722 C117.049891,774 149.049891,818 191.049891,856 C147.049891,872 117.049891,900 117.049891,932 C117.049891,982 197.049891,1024 297.049891,1024 C387.049891,1024 461.049891,990 475.049891,946 L495.049891,946 C509.049891,990 585.049891,1024 673.049891,1024 C773.049891,1024 855.049891,982 855.049891,932 C855.049891,900 825.049891,872 779.049891,856 C823.049891,818 853.049891,774 865.049891,722 C897.049891,770 929.049891,794 951.049891,784 C981.049891,768 975.049891,682 937.049891,592 Z M393.049891,330 C339.049891,324 327.049891,224 353.049891,176 C363.049891,160 379.049891,146 399.049891,146 C435.049891,146 457.049891,192 457.049891,236 C457.049891,280 437.049891,334 393.049891,330 Z M585.049891,330 C579.049891,332 567.049891,334 559.049891,330 C507.049891,316 497.049891,220 525.049891,176 C533.049891,162 547.049891,148 565.049891,146 C569.049891,144 579.049891,144 585.049891,146 C645.049891,170 643.049891,308 585.049891,330 Z M571.049891,212 C555.049891,204 541.049891,216 537.049891,228 C535.049891,238 531.049891,254 545.049891,256 C551.049891,250 549.049891,228 561.049891,230 C573.049891,232 565.049891,258 583.049891,254 C589.049891,238 583.049891,216 571.049891,212 Z M425.049891,202 C397.049891,206 397.049891,274 427.049891,276 C457.049891,278 459.049891,198 425.049891,202 Z"></path>
  </g>
</svg>