<?xml version="1.0" standalone="no"?>
<!DOCTYPE svg PUBLIC "-//W3C//DTD SVG 1.1//EN" "http://www.w3.org/Graphics/SVG/1.1/DTD/svg11.dtd" >
<svg xmlns="http://www.w3.org/2000/svg" xmlns:xlink="http://www.w3.org/1999/xlink" version="1.1" viewBox="-10 0 1045 1024">
   <path fill="currentColor"
d="M645.567 615.871c61.4736 0 111.305 -49.835 111.305 -111.305c0 -61.4707 -49.8301 -111.306 -111.305 -111.306c-61.4707 0 -111.306 49.835 -111.306 111.306c0 61.4697 49.835 111.305 111.306 111.305zM912.693 615.871c61.4697 0 111.305 -49.835 111.305 -111.305
c0 -61.4707 -49.835 -111.306 -111.305 -111.306c-61.4746 0 -111.306 49.835 -111.306 111.306c0 61.4697 49.8301 111.305 111.306 111.305zM645.567 882.994c61.4736 0 111.305 -49.8301 111.305 -111.305c0 -61.4707 -49.8301 -111.306 -111.305 -111.306
c-61.4707 0 -111.306 49.835 -111.306 111.306c0 61.4736 49.835 111.305 111.306 111.305zM912.693 882.994c61.4697 0 111.305 -49.8301 111.305 -111.305c0 -61.4707 -49.835 -111.306 -111.305 -111.306c-61.4746 0 -111.306 49.835 -111.306 111.306
c0 61.4736 49.8301 111.305 111.306 111.305zM286.342 345.198c-51.2334 8.80566 -103.941 1.0752 -150.49 -22.0674c-46.5488 -23.1465 -84.5244 -60.5029 -108.429 -106.667s-32.4961 -98.7373 -24.5322 -150.108c7.96484 -51.3721 32.0713 -98.877 68.8301 -135.636
c36.7598 -36.7588 84.2637 -60.8662 135.636 -68.8301c51.3711 -7.96387 103.944 0.62793 150.108 24.5322s83.5205 61.8789 106.667 108.429c23.1426 46.5498 30.874 99.2568 22.0674 150.49c-8.59766 49.8721 -32.4268 95.8594 -68.2139 131.645
c-35.7852 35.7871 -81.7725 59.6152 -131.645 68.2139v0zM278.496 -64.2217c-36.0596 -7.17773 -73.4697 -2.56836 -106.708 13.1484s-60.54 41.7051 -77.873 74.1289c-17.333 32.4248 -23.7793 69.5625 -18.3857 105.932c5.39258 36.3691 22.3408 70.0381 48.3379 96.0361
c25.998 25.998 59.667 42.9443 96.0352 48.3379c36.3672 5.39258 73.5068 -1.05371 105.931 -18.3867s58.4131 -44.6348 74.1289 -77.873c15.7158 -33.2373 20.3262 -70.6484 13.1494 -106.708c-6.66602 -33.2109 -23.002 -63.71 -46.9541 -87.6611
c-23.9521 -23.9521 -54.4512 -40.2881 -87.6621 -46.9541v0h0.000976562zM244.86 215.177c61.4717 0 111.305 -49.833 111.305 -111.305s-49.833 -111.304 -111.305 -111.304c-61.4727 0 -111.305 49.833 -111.305 111.304s49.833 111.305 111.305 111.305zM820.815 345.207
c-51.2344 8.84863 -103.953 1.16113 -150.528 -21.9482c-46.5752 -23.1123 -84.582 -60.4482 -108.523 -106.601c-23.9404 -46.1533 -32.5664 -98.7305 -24.6357 -150.114c7.93652 -51.3838 32.0215 -98.9092 68.7656 -135.693
c36.7451 -36.7832 84.2451 -60.916 135.62 -68.9023c51.375 -7.9873 103.962 0.585938 150.141 24.4775c46.1777 23.8926 83.5537 61.8623 106.714 108.413c23.1592 46.5498 30.8984 99.2637 22.1006 150.507c-8.61328 49.8311 -32.4219 95.7812 -68.1641 131.559
c-35.7412 35.7764 -81.6641 59.6328 -131.489 68.3027zM811.731 -64.2168c-36.0586 -7.17676 -73.4688 -2.56836 -106.705 13.1484c-33.2422 15.7168 -60.54 41.7061 -77.875 74.1289c-17.335 32.4238 -23.7783 69.5635 -18.3857 105.932
c5.39355 36.3691 22.3408 70.0381 48.3369 96.0361c25.9971 25.998 59.6699 42.9443 96.0342 48.3379c36.3691 5.39258 73.5107 -1.05273 105.934 -18.3857s58.415 -44.6357 74.1289 -77.873c15.7178 -33.2383 20.3262 -70.6494 13.1494 -106.708
c-6.66504 -33.2109 -23.002 -63.71 -46.9551 -87.6621c-23.9521 -23.9521 -54.4502 -40.2881 -87.6621 -46.9541v0zM779.121 215.177c61.4697 0 111.305 -49.833 111.305 -111.305s-49.835 -111.304 -111.305 -111.304s-111.305 49.833 -111.305 111.304
s49.835 111.305 111.305 111.305zM286.351 879.495c-51.2783 8.77148 -104.019 0.980469 -150.573 -22.2344c-46.5557 -23.2188 -84.5049 -60.6631 -108.35 -106.9c-23.8438 -46.2383 -32.3418 -98.8672 -24.2617 -150.26
c8.08008 -51.3916 32.3174 -98.876 69.1992 -135.564c36.8809 -36.6934 84.4902 -60.6855 135.923 -68.4971c51.4326 -7.8125 104.019 0.956055 150.132 25.041c46.1143 24.0811 83.3604 62.2246 106.336 108.902c22.9766 46.6729 30.4941 99.4512 21.4531 150.686
c-8.79395 49.6807 -32.708 95.4414 -68.4766 131.025c-35.7705 35.5879 -81.6523 59.2637 -131.381 67.8018v0h-0.000976562zM278.505 470.071c-36.1074 -7.21484 -73.5801 -2.62402 -106.878 13.0938c-33.2979 15.7227 -60.6553 41.7373 -78.0283 74.2021
c-17.373 32.4688 -23.8398 69.6621 -18.4453 106.086c5.39355 36.4238 22.3643 70.1475 48.4014 96.1875c26.0371 26.0352 59.7607 43.0039 96.1855 48.4014c36.4248 5.39258 73.6191 -1.0752 106.086 -18.4492c32.4658 -17.3701 58.4814 -44.7266 74.2021 -78.0244
c15.7197 -33.3018 20.3105 -70.7715 13.0938 -106.88c-6.66602 -33.2129 -23.002 -63.7109 -46.9541 -87.6631c-23.9521 -23.9531 -54.4512 -40.2861 -87.6621 -46.9551v0zM244.86 749.434c61.4717 0 111.305 -49.835 111.305 -111.305
c0 -61.4736 -49.833 -111.305 -111.305 -111.305c-61.4727 0 -111.305 49.8301 -111.305 111.305c0 61.4697 49.833 111.305 111.305 111.305z" />
</svg>
