<?xml version="1.0" encoding="UTF-8"?>
<svg width="1025px" height="1025px" viewBox="0 0 1025 1025" version="1.1" xmlns="http://www.w3.org/2000/svg" xmlns:xlink="http://www.w3.org/1999/xlink">
  <g id="QRcode" transform="translate(0.4942, 0.6046)" fill="currentColor" fill-rule="nonzero">
    <path d="M645.566973,756.872216 C707.040573,756.872216 756.871973,707.037216 756.871973,645.567216 C756.871973,584.096516 707.041873,534.261216 645.566973,534.261216 C584.096273,534.261216 534.260973,584.096216 534.260973,645.567216 C534.260973,707.036916 584.095973,756.872216 645.566973,756.872216 Z M912.692973,756.872216 C974.162673,756.872216 1023.99797,707.037216 1023.99797,645.567216 C1023.99797,584.096516 974.162973,534.261216 912.692973,534.261216 C851.218373,534.261216 801.386973,584.096216 801.386973,645.567216 C801.386973,707.036916 851.217073,756.872216 912.692973,756.872216 Z M645.566973,1023.99522 C707.040573,1023.99522 756.871973,974.165116 756.871973,912.690216 C756.871973,851.219516 707.041873,801.384216 645.566973,801.384216 C584.096273,801.384216 534.260973,851.219216 534.260973,912.690216 C534.260973,974.163816 584.095973,1023.99522 645.566973,1023.99522 L645.566973,1023.99522 Z M912.692973,1023.99522 C974.162673,1023.99522 1023.99797,974.165116 1023.99797,912.690216 C1023.99797,851.219516 974.162973,801.384216 912.692973,801.384216 C851.218373,801.384216 801.386973,851.219216 801.386973,912.690216 C801.386973,974.163816 851.217073,1023.99522 912.692973,1023.99522 L912.692973,1023.99522 Z M286.341973,486.199216 C235.108573,495.004876 182.400973,487.274416 135.851973,464.131816 C89.3031728,440.985316 51.3275728,403.628916 27.4229728,357.464816 C3.51837277,311.300716 -5.07312723,258.727516 2.89077277,207.356816 C10.8556128,155.984716 34.9620728,108.479816 71.7208728,71.7208161 C108.480673,34.9620161 155.984573,10.8546161 207.356873,2.89071607 C258.727973,-5.07315393 311.300873,3.51864607 357.464873,27.4229161 C403.628873,51.3271861 440.985373,89.3018161 464.131873,135.851916 C487.274473,182.401716 495.005873,235.108716 486.199273,286.341916 C477.601613,336.214016 453.772473,382.201316 417.985373,417.986916 C382.200173,453.774016 336.212873,477.602116 286.340373,486.200816 L286.340373,486.200816 L286.341973,486.199216 Z M278.495973,76.7795161 C242.436373,69.6017861 205.026273,74.2111561 171.787973,89.9279161 C138.549673,105.644676 111.247973,131.633016 93.9149728,164.056816 C76.5819728,196.481616 70.1356728,233.619316 75.5292728,269.988816 C80.9218528,306.357916 97.8700728,340.026916 123.867173,366.024916 C149.865173,392.022916 183.534173,408.969216 219.902373,414.362816 C256.269573,419.755396 293.409173,413.309106 325.833373,395.976116 C358.257573,378.643126 384.246473,351.341316 399.962273,318.103116 C415.678073,284.865816 420.288473,247.454716 413.111673,211.395116 C406.445653,178.184216 390.109673,147.685116 366.157573,123.734016 C342.205473,99.7819161 311.706373,83.4459161 278.495473,76.7799161 L278.495473,76.7799161 L278.496449,76.7799161 L278.495973,76.7795161 Z M244.859973,356.178216 C306.331673,356.178216 356.164973,306.345216 356.164973,244.873216 C356.164973,183.401216 306.331973,133.569216 244.859973,133.569216 C183.387273,133.569216 133.554973,183.402216 133.554973,244.873216 C133.554973,306.344216 183.387973,356.178216 244.859973,356.178216 Z M820.814973,486.208216 C769.580573,495.056846 716.861973,487.369346 670.286973,464.260016 C623.711773,441.147716 585.704973,403.811816 561.763973,357.659016 C537.823573,311.505716 529.197573,258.928516 537.128273,207.545016 C545.064793,156.161216 569.149773,108.635816 605.893873,71.8520161 C642.638973,35.0688161 690.138973,10.9360161 741.513873,2.94971607 C792.888873,-5.03758393 845.475873,3.53565407 891.654873,27.4272161 C937.832573,51.3198161 975.208573,89.2895161 998.368873,135.840216 C1021.52807,182.390016 1029.26727,235.103916 1020.46947,286.347216 C1011.85619,336.178316 988.047573,382.128416 952.305373,417.906216 C916.564173,453.682616 870.641273,477.539016 820.816373,486.208916 L820.814973,486.208216 Z M811.730973,76.7844161 C775.672373,69.6076561 738.262173,74.2160561 705.025973,89.9328161 C671.783773,105.649616 644.485973,131.638916 627.150973,164.061716 C609.815973,196.485516 603.372673,233.625216 608.765273,269.993716 C614.158823,306.362816 631.106073,340.031816 657.102173,366.029816 C683.099273,392.027816 716.772073,408.974116 753.136373,414.367716 C789.505473,419.760296 826.647073,413.314986 859.070373,395.982016 C891.493673,378.649046 917.485373,351.346316 933.199273,318.109016 C948.917073,284.870716 953.525473,247.459616 946.348673,211.401016 C939.683633,178.190116 923.346673,147.691016 899.393573,123.738916 C875.441473,99.7868161 844.943373,83.4508161 811.731473,76.7848161 L811.731473,76.7848161 L811.730973,76.7844161 Z M779.120973,356.178216 C840.590673,356.178216 890.425973,306.345216 890.425973,244.873216 C890.425973,183.401216 840.590973,133.569216 779.120973,133.569216 C717.650973,133.569216 667.815973,183.402216 667.815973,244.873216 C667.815973,306.344216 717.650973,356.178216 779.120973,356.178216 L779.120973,356.178216 Z M286.350973,1020.49622 C235.072673,1029.2677 182.331973,1021.47669 135.777973,998.261816 C89.2222728,975.043016 51.2730728,937.598716 27.4279728,891.361816 C3.58417277,845.123516 -4.91382723,792.494616 3.16627277,741.101816 C11.2463528,689.710216 35.4836728,642.225816 72.3654728,605.537816 C109.246373,568.844416 156.855673,544.852316 208.288473,537.040716 C259.721073,529.228216 312.307473,537.996771 358.420473,562.081716 C404.534773,586.162816 441.780873,624.306316 464.756473,670.983716 C487.733073,717.656616 495.250573,770.434916 486.209573,821.669716 C477.415623,871.350416 453.501573,917.111116 417.732973,952.694716 C381.962473,988.282616 336.080673,1011.95842 286.351973,1020.49652 L286.351973,1020.49652 L286.350996,1020.49652 L286.350973,1020.49622 Z M278.504973,611.072216 C242.397573,603.857376 204.924873,608.448196 171.626973,624.166016 C138.329073,639.888716 110.971673,665.903316 93.5986728,698.368116 C76.2256728,730.836916 69.7588728,768.030216 75.1533728,804.454116 C80.5469228,840.877916 97.5176728,874.601616 123.554773,900.641616 C149.591873,926.676816 183.315473,943.645516 219.740273,949.043016 C256.165073,954.435596 293.359373,947.967816 325.826273,930.593816 C358.292073,913.223716 384.307673,885.867216 400.028373,852.569416 C415.748073,819.267616 420.338873,781.797916 413.122173,745.689416 C406.456153,712.476516 390.120173,681.978516 366.168073,658.026316 C342.215973,634.073216 311.716873,617.740216 278.505973,611.071216 L278.505973,611.071216 L278.504973,611.072216 Z M244.859973,890.435216 C306.331673,890.435216 356.164973,840.600216 356.164973,779.130216 C356.164973,717.656616 306.331973,667.825216 244.859973,667.825216 C183.387273,667.825216 133.554973,717.655316 133.554973,779.130216 C133.554973,840.599916 183.387973,890.435216 244.859973,890.435216 Z"></path>
  </g>
</svg>