<?xml version="1.0" encoding="UTF-8"?>
<svg width="993px" height="1023px" viewBox="0 0 993 1023" version="1.1" xmlns="http://www.w3.org/2000/svg" xmlns:xlink="http://www.w3.org/1999/xlink">
  <g id="Quora" transform="translate(0.4042, 0.6137)" fill="currentColor" fill-rule="nonzero">
    <path d="M528,798 C492,730 450,658 370,658 C354,658 338,662 324,668 L296,612 C330,584 384,562 454,562 C562,562 618,614 662,680 C690,622 702,546 702,450 C702,212 628,90 452,90 C280,90 208,212 208,450 C208,688 280,808 452,808 C480,808 504,804 528,798 Z M570,882 C532,892 492,898 452,898 C224,898 0,714 0,450 C0,182 224,0 452,0 C686,0 906,182 906,450 C906,600 836,720 736,798 C768,848 802,880 850,880 C900,880 920,840 926,810 L992,810 C996,850 976,1022 788,1022 C674,1024 614,958 570,882 Z"></path>
  </g>
</svg>