<?xml version="1.0" encoding="UTF-8"?>
<svg width="20px" height="20px" viewBox="0 0 20 20" version="1.1" xmlns="http://www.w3.org/2000/svg" xmlns:xlink="http://www.w3.org/1999/xlink">
    <title>Quotev</title>
    <g id="Quotev" stroke="none" stroke-width="1" fill="none" fill-rule="evenodd">
        <path d="M15.8045737,17.9852814 C15.4027774,18.0189339 14.7333426,17.9928936 14.3169406,17.9274131 C13.9005386,17.8619324 13.2628376,17.6566445 12.8998273,17.4712167 C12.536818,17.2857909 11.8912837,16.8420979 11.4653072,16.4852327 C11.0393318,16.1283677 10.4045302,15.6164829 10.054637,15.3477105 C9.70474382,15.0789379 9.19668804,14.8022713 8.92562327,14.7328967 C8.6545585,14.6635212 7.99026701,14.539921 7.4494195,14.4582302 C6.82801008,14.3643702 6.17932715,14.1556459 5.6870502,13.8911596 C5.25859401,13.6609633 4.69412819,13.2339463 4.43268089,12.9422338 C4.17123359,12.6505204 3.81480714,12.1021843 3.64062211,11.7237072 C3.46643681,11.34523 3.24970217,10.7041872 3.15898937,10.2991673 C3.06827657,9.8941473 2.99683232,9.01020567 3.00010831,8.33485146 C3.00361663,7.65949818 3.07783626,6.78586052 3.16515671,6.39343473 C3.25247755,6.00101 3.46914711,5.36437487 3.6466448,4.97869008 C3.82414263,4.59300622 4.24882526,3.97628735 4.59038392,3.6082021 C4.93194258,3.24011886 5.51781091,2.79438471 5.89231286,2.61768057 C6.26681548,2.44097845 6.88996783,2.22924888 7.27709601,2.147171 C7.66422419,2.06509299 8.3814801,1.9988789 8.87099827,2.00001439 C9.36051537,2.00117941 10.0915127,2.08055242 10.495437,2.17641262 C10.8993604,2.27227469 11.5484061,2.52547948 11.9377591,2.73909263 C12.3271121,2.95270591 12.8558185,3.37040172 13.1126615,3.66730646 C13.3695055,3.96421321 13.7236914,4.51834335 13.899742,4.8987092 C14.0757927,5.27907505 14.3063914,6.00208568 14.4121837,6.50539891 C14.517977,7.0087132 14.6045345,7.84227119 14.6045345,8.35775053 C14.6045345,8.87322988 14.5161286,9.71569134 14.4080775,10.2298857 C14.3000264,10.7440811 14.0593355,11.4785447 13.8732078,11.8620273 C13.6832273,12.2534489 13.2165426,12.8524659 12.8092072,13.2277335 C12.4055574,13.5996076 11.7860902,14.0080791 11.4130424,14.1483554 C10.7424635,14.40051 10.7424635,14.40051 11.3807603,14.8131585 C11.7318239,15.0401156 12.4972274,15.5949373 13.0816583,16.0460956 C13.7597969,16.5695928 14.401681,16.9427979 14.8557372,17.0775815 C15.3482092,17.2237712 15.7877324,17.2610072 16.2836075,17.1985564 C16.9833826,17.1104229 17,17.1161087 17,17.4436688 C17,17.6461434 16.9079024,17.8077498 16.767556,17.8515519 C16.6397115,17.8914499 16.20637,17.9516288 15.8045737,17.9852814 Z M9.29614167,13.8187451 C9.69793799,13.7805796 10.3092221,13.6289963 10.6545512,13.4818933 C10.9998801,13.3347904 11.5148096,12.9603002 11.7988385,12.649693 C12.0828674,12.3390857 12.4492917,11.7283386 12.613114,11.2924775 C12.8271926,10.7229093 12.931244,10.088449 12.9830406,9.03684244 C13.0226767,8.23210325 12.9931886,7.17044513 12.9175107,6.67760123 C12.8418328,6.18475747 12.61478,5.4106 12.4129481,4.95725175 C12.2111171,4.50390336 11.8337614,3.94515399 11.5743799,3.71558681 C11.3149983,3.48601978 10.8430623,3.18238742 10.5256326,3.04084556 C10.1490531,2.87293041 9.61169157,2.77700488 8.97933311,2.76481011 C8.44629864,2.75453372 7.75261228,2.82391245 7.43780819,2.91898604 C7.12300423,3.01405963 6.63597999,3.24491376 6.35553245,3.43199443 C6.07508531,3.61907497 5.67509541,4.03166325 5.46666739,4.34885714 C5.25823883,4.66605209 4.97366322,5.27605755 4.83427758,5.704427 C4.63378427,6.32059625 4.58084906,6.87481008 4.58084906,8.35775053 C4.58084906,9.85174676 4.63318894,10.3931938 4.83870902,11.0252751 C4.98053148,11.461454 5.28145229,12.0626714 5.50742133,12.3613137 C5.73338984,12.6599561 6.18518048,13.0700467 6.51140023,13.2726256 C6.83761998,13.4752045 7.43326876,13.6965689 7.83506508,13.764544 C8.23686141,13.8325191 8.89434534,13.8569096 9.29614167,13.8187451 Z" id="Shape" fill="currentColor"></path>
    </g>
</svg>