<?xml version="1.0" standalone="no"?>
<!DOCTYPE svg PUBLIC "-//W3C//DTD SVG 1.1//EN" "http://www.w3.org/Graphics/SVG/1.1/DTD/svg11.dtd" >
<svg xmlns="http://www.w3.org/2000/svg" xmlns:xlink="http://www.w3.org/1999/xlink" version="1.1" viewBox="-10 0 1044 1024">
   <path fill="currentColor"
d="M198 287l86 -62c-20 -170 84 -296 84 -296s-22 10 -194 120s-174 154 -174 154v446l156 234h236l-236 -374c-50 -74 -30 -174 42 -222zM786 355c-82 50 -190 30 -248 -50c-56 -78 -42 -188 32 -250c2 -4 6 -6 10 -8c4 -4 6 -6 10 -8l252 -180h-366l-22 14
c-166 122 -204 358 -84 526l24 32c122 168 358 206 526 84l104 -76v-256z" />
</svg>
