<?xml version="1.0" encoding="UTF-8"?>
<svg width="1024px" height="1025px" viewBox="0 0 1024 1025" version="1.1" xmlns="http://www.w3.org/2000/svg" xmlns:xlink="http://www.w3.org/1999/xlink">
  <g id="RaidCall" transform="translate(0, 0.0926)" fill="currentColor" fill-rule="nonzero">
    <path d="M198,428 L284,366 C264,196 368,70 368,70 C368,70 346,80 174,190 C2,300 0,344 0,344 L0,790 L156,1024 L392,1024 L156,650 C106,576 126,476 198,428 Z M786,496 C704,546 596,526 538,446 C482,368 496,258 570,196 C572,192 576,190 580,188 C584,184 586,182 590,180 L842,0 L476,0 L454,14 C288,136 250,372 370,540 L394,572 C516,740 752,778 920,656 L1024,580 L1024,324 L786,496 Z"></path>
  </g>
</svg>