<?xml version="1.0" encoding="UTF-8"?>
<svg width="550px" height="550px" viewBox="0 0 550 550" version="1.1" xmlns="http://www.w3.org/2000/svg" xmlns:xlink="http://www.w3.org/1999/xlink">
    <title>Artboard</title>
    <g id="Artboard" stroke="none" stroke-width="1" fill="none" fill-rule="evenodd">
        <path d="M275,19 C416.384896,19 531,133.615104 531,275 C531,416.384896 416.384896,531 275,531 C133.615104,531 19,416.384896 19,275 C19,133.615104 133.615104,19 275,19 Z M495.367922,315.39155 L494.568359,316.02217 C424.832776,371.197494 372.320407,398.785156 337.03125,398.785156 C313.939134,398.785156 298.68212,392.256968 284.926757,384.348067 L283.93492,383.774006 C282.615723,383.005577 281.309059,382.225473 280.009256,381.438304 L279.035601,380.846674 C278.549329,380.550269 278.063822,380.253032 277.578782,379.955207 L271.034383,375.922535 L269.100377,374.744482 L268.128636,374.158485 C252.875898,364.99698 236.206646,356.785156 209.185547,356.785156 C171.687626,356.785156 133.202308,373.39412 93.7295931,406.612048 C134.445881,462.603395 200.472499,499 275,499 C384.921383,499 476.350281,419.82426 495.367922,315.39155 Z M315.704613,291.167502 C295.221833,299.443083 285.996811,324.416798 295.099949,346.947856 C304.203087,369.478914 328.187213,381.035262 348.669993,372.759682 C369.152774,364.484101 378.377796,339.510386 369.274657,316.979328 C360.171519,294.44827 336.187393,282.891922 315.704613,291.167502 Z M194.109375,76.8847656 C184.059327,76.8847656 174.024428,78.0553682 164.000781,80.3917317 C96.4955143,118.977933 51,191.675943 51,275 C51,295.739917 53.8186541,315.821502 59.0937906,334.882583 C128.743129,275.228135 207.828643,220.130859 273.382813,220.130859 C343.419922,220.130859 349.920008,269.300106 430.248047,262.318359 C456.99433,259.993695 479.237204,254.142524 496.976667,244.764846 C493.968404,222.46641 487.6795,201.209329 478.612938,181.495056 C439.676772,185.546233 368.147798,188.4301 330.544922,174.544922 C312.036293,167.710455 292.578869,149.70609 273.157974,130.989459 L266.895832,124.940298 C265.634592,123.721491 264.373954,122.504426 263.114189,121.291976 L260.198259,118.493514 L258.135079,116.525563 L256.802048,115.260805 C235.037127,94.6587329 213.670167,76.8847656 194.109375,76.8847656 Z" id="RateYourMusic" fill="currentColor"></path>
    </g>
</svg>