<?xml version="1.0" standalone="no"?>
<!DOCTYPE svg PUBLIC "-//W3C//DTD SVG 1.1//EN" "http://www.w3.org/Graphics/SVG/1.1/DTD/svg11.dtd" >
<svg xmlns="http://www.w3.org/2000/svg" xmlns:xlink="http://www.w3.org/1999/xlink" version="1.1" viewBox="-10 0 1045 1024">
   <path fill="currentColor"
d="M928 73c-214 -244 -540 -92 -540 -92c-18 8 -30 14 -40 22s-18 16 -22 24c-14 30 -24 60 -32 88c-38 50 -66 110 -76 176c-38 54 -62 118 -66 184c-92 -24 -152 -54 -152 -54c52 30 102 54 152 70c0 32 4 64 12 96c20 70 62 126 116 170c-32 -36 -56 -78 -70 -124
c-12 -42 -14 -84 -10 -126c10 4 22 6 34 10c46 140 168 244 318 268c54 24 110 30 162 14c26 -10 48 -22 68 -38l18 -18c102 -54 178 -150 204 -266v8s80 -234 -76 -412zM288 139c-8 38 -12 68 -14 88c-16 14 -30 30 -44 48c12 -50 30 -96 58 -136zM274 327
c2 50 12 100 30 152c2 8 4 16 8 22c-26 -2 -52 -4 -76 -8c-6 -26 -12 -52 -14 -78c14 -32 30 -62 52 -88zM202 485c4 -16 8 -34 14 -50c2 18 4 38 10 56zM244 519c28 6 54 12 80 14c46 108 118 190 196 236c-128 -32 -232 -126 -276 -250zM810 727c-2 -6 -22 4 -22 4
c-14 8 -28 16 -42 20c-126 40 -272 -52 -358 -212c220 10 370 -74 370 -74s36 0 30 -50c-8 -50 -44 -12 -44 -12c-122 80 -254 104 -374 102c-10 -22 -18 -44 -26 -66c-18 -54 -26 -106 -28 -158c42 -40 98 -72 160 -90c56 -16 114 -20 168 -12c0 0 10 6 8 -20
c-4 -26 -22 -30 -22 -30c-62 -12 -130 -10 -196 8c-42 14 -80 32 -116 56c4 -30 12 -60 20 -86c0 0 10 -28 54 -50c60 -24 244 -84 362 -34c202 86 242 290 248 396c-10 132 -84 244 -192 308z" />
</svg>
