<?xml version="1.0" encoding="UTF-8"?>
<svg width="1025px" height="874px" viewBox="0 0 1025 874" version="1.1" xmlns="http://www.w3.org/2000/svg" xmlns:xlink="http://www.w3.org/1999/xlink">
  <g id="Ravelry" transform="translate(0.4836, 0.0926)" fill="currentColor" fill-rule="nonzero">
    <path d="M928,138.776706 C714,-105.223294 388,46.7767063 388,46.7767063 C370,54.7767063 358,60.7767063 348,68.7767063 C338,76.7767063 330,84.7767063 326,92.7767063 C312,122.776706 302,152.776706 294,180.776706 C256,230.776706 228,290.776706 218,356.776706 C180,410.776706 156,474.776706 152,540.776706 C60,516.776706 0,486.776706 0,486.776706 C52,516.776706 102,540.776706 152,556.776706 C152,588.776706 156,620.776706 164,652.776706 C184,722.776706 226,778.776706 280,822.776706 C248,786.776706 224,744.776706 210,698.776706 C198,656.776706 196,614.776706 200,572.776706 C210,576.776706 222,578.776706 234,582.776706 C280,722.776706 402,826.776706 552,850.776706 C606,874.776706 662,880.776706 714,864.776706 C740,854.776706 762,842.776706 782,826.776706 L800,808.776706 C902,754.776706 978,658.776706 1004,542.776706 L1004,550.776706 C1004,550.776706 1084,316.776706 928,138.776706 Z M288,204.776706 C280,242.776706 276,272.776706 274,292.776706 C258,306.776706 244,322.776706 230,340.776706 C242,290.776706 260,244.776706 288,204.776706 Z M274,392.776706 C276,442.776706 286,492.776706 304,544.776706 C306,552.776706 308,560.776706 312,566.776706 C286,564.776706 260,562.776706 236,558.776706 C230,532.776706 224,506.776706 222,480.776706 C236,448.776706 252,418.776706 274,392.776706 Z M202,550.776706 C206,534.776706 210,516.776706 216,500.776706 C218,518.776706 220,538.776706 226,556.776706 L202,550.776706 Z M244,584.776706 C272,590.776706 298,596.776706 324,598.776706 C370,706.776706 442,788.776706 520,834.776706 C392,802.776706 288,708.776706 244,584.776706 Z M810,792.776706 C808,786.776706 788,796.776706 788,796.776706 C774,804.776706 760,812.776706 746,816.776706 C620,856.776706 474,764.776706 388,604.776706 C608,614.776706 758,530.776706 758,530.776706 C758,530.776706 794,530.776706 788,480.776706 C780,430.776706 744,468.776706 744,468.776706 C622,548.776706 490,572.776706 370,570.776706 C360,548.776706 352,526.776706 344,504.776706 C326,450.776706 318,398.776706 316,346.776706 C358,306.776706 414,274.776706 476,256.776706 C532,240.776706 590,236.776706 644,244.776706 C644,244.776706 654,250.776706 652,224.776706 C648,198.776706 630,194.776706 630,194.776706 C568,182.776706 500,184.776706 434,202.776706 C392,216.776706 354,234.776706 318,258.776706 C322,228.776706 330,198.776706 338,172.776706 C338,172.776706 348,144.776706 392,122.776706 C452,98.7767063 636,38.7767063 754,88.7767063 C956,174.776706 996,378.776706 1002,484.776706 C992,616.776706 918,728.776706 810,792.776706 Z"></path>
  </g>
</svg>