<?xml version="1.0" standalone="no"?>
<!DOCTYPE svg PUBLIC "-//W3C//DTD SVG 1.1//EN" "http://www.w3.org/Graphics/SVG/1.1/DTD/svg11.dtd" >
<svg xmlns="http://www.w3.org/2000/svg" xmlns:xlink="http://www.w3.org/1999/xlink" version="1.1" viewBox="-10 0 1044 1024">
   <path fill="currentColor"
d="M0 374.072c28.6719 -27.6484 57.3438 -56.3203 84.9922 -83.9688c119.808 -118.783 238.592 -238.592 358.399 -357.376c19.4561 -19.4551 38.9121 -37.8877 57.3447 -57.3438c7.16797 -7.16797 11.2637 -7.16797 18.4316 0c76.7998 77.8242 153.6 154.624 230.4 231.424
c89.0879 89.0889 178.176 178.177 267.264 267.265c2.04785 2.04785 5.12012 5.12012 7.16797 8.19141c-3.07227 3.07227 -6.14355 2.04785 -9.21582 2.04785c-49.1523 0 -98.3037 0 -148.48 -1.02344c-8.19141 0 -10.2393 2.04785 -10.2393 10.2402v466.943
c0 9.2168 -3.07227 12.2881 -12.2881 12.2881h-691.2c-10.2402 0 -11.2646 -4.0957 -11.2646 -12.2881c0 -156.672 0 -314.368 1.02441 -471.04c0 -9.21582 -3.07227 -11.2637 -12.2881 -11.2637h-119.808h-9.21582c0 -2.04785 -1.02441 -3.07227 -1.02441 -4.0957z
M486.4 294.2v-93.1846c0 -19.4561 -4.09668 -24.5752 -23.5527 -24.5752h-194.56c-9.21582 0 -12.2881 3.07129 -12.2881 12.2871c0 11.2646 8.19238 9.2168 14.3359 10.2402c31.7441 4.09668 49.1523 19.4561 54.2725 50.1758
c6.14355 33.792 3.07129 67.584 3.07129 101.376v283.648c0 38.9121 1.02441 77.8242 -8.19141 115.712c-4.09668 17.4082 -13.3125 29.6963 -29.6963 36.8643c-12.2881 5.12012 -23.5518 10.2402 -36.8643 13.3115c-4.0957 1.02441 -7.16797 2.04785 -7.16797 8.19238
c-1.02344 12.2881 0 12.2881 12.2881 12.2881h297.984c4.0957 0 9.21582 1.02344 8.19141 -5.12012c0 -6.14355 3.07227 -13.3125 -6.14355 -15.3604c-10.2402 -2.04785 -19.4561 -7.16797 -29.6963 -10.2393c-24.5762 -8.19238 -36.8643 -24.5762 -40.96 -50.1768
c-4.0957 -23.5518 -5.12012 -48.1279 -5.12012 -71.6797c0 -62.4639 1.02441 -124.928 1.02441 -188.416c0 -23.5518 0 -48.1279 6.14355 -71.6797c11.2646 -45.0566 23.5527 -88.0645 50.1768 -126.977c11.2637 -17.4072 26.624 -31.7441 45.0557 -41.9834
c8.19238 -4.09668 13.3115 -2.04785 16.3838 6.14355c2.04785 6.14453 4.0957 12.2881 6.14453 19.4561c4.0957 13.3125 9.21582 26.624 16.3838 38.9121c28.6719 52.2236 102.399 59.3916 136.191 13.3115c24.5762 -32.7676 22.5283 -92.1592 -5.11914 -122.88
c-25.6006 -29.6953 -60.416 -35.8398 -97.2803 -30.7197c-56.3203 9.21582 -101.376 38.9121 -140.288 80.8965c-11.2637 15.3594 -20.4805 31.7432 -30.7197 50.1758z" />
</svg>
