<?xml version="1.0" encoding="UTF-8"?>
<svg width="1025px" height="1003px" viewBox="0 0 1025 1003" version="1.1" xmlns="http://www.w3.org/2000/svg" xmlns:xlink="http://www.w3.org/1999/xlink">
  <g id="Realtor" transform="translate(0.7465, 0.0684)" fill="currentColor" fill-rule="nonzero">
    <path d="M-1.82076576e-14,504.064577 C28.67217,476.416178 57.34407,447.744278 84.99247,420.095777 C204.80047,301.312777 323.58447,181.503777 443.39147,62.7197775 C462.84757,43.2646775 482.30357,24.8320775 500.73617,5.3759775 C507.90414,-1.7919925 511.99987,-1.7919925 519.16777,5.3759775 C595.96757,83.2001775 672.76777,159.999977 749.56777,236.799978 C838.65567,325.888878 927.74377,414.976978 1016.83177,504.064977 C1018.87962,506.112827 1021.95189,509.185097 1023.99974,512.256388 C1020.92747,515.328657 1017.85619,514.304237 1014.78392,514.304237 C965.63162,514.304237 916.48022,514.304237 866.30392,513.280798 C858.11251,513.280798 856.06462,515.328647 856.06462,523.520998 L856.06462,990.463998 C856.06462,999.680798 852.99235,1002.7521 843.77652,1002.7521 L152.57652,1002.7521 C142.33632,1002.7521 141.31192,998.656398 141.31192,990.463998 C141.31192,833.791997 141.31192,676.095998 142.33633,519.423998 C142.33633,510.208178 139.26406,508.160298 130.04823,508.160298 L10.24023,508.160298 L1.02441,508.160298 C1.02441,506.112448 -1.82076576e-14,505.088028 -1.82076576e-14,504.064597 L-1.82076576e-14,504.064577 Z M486.40027,424.192578 L486.40027,331.007978 C486.40027,311.551878 482.30359,306.432778 462.84757,306.432778 L268.28757,306.432778 C259.07175,306.432778 255.99947,309.504068 255.99947,318.719878 C255.99947,329.984478 264.19185,327.936678 270.33537,328.960078 C302.07947,333.056758 319.48767,348.416178 324.60787,379.135878 C330.75142,412.927878 327.67916,446.719878 327.67916,480.511878 L327.67916,764.159877 C327.67916,803.071978 328.70357,841.984078 319.48775,879.871877 C315.39107,897.280078 306.17525,909.568178 289.79145,916.736177 C277.50335,921.856297 266.23965,926.976377 252.92715,930.047677 C248.83145,931.072087 245.75918,932.095528 245.75918,938.240057 C244.73574,950.528157 245.75918,950.528157 258.04728,950.528157 L556.03128,950.528157 C560.12698,950.528157 565.2471,951.551598 564.22269,945.408037 C564.22269,939.264487 567.29496,932.095537 558.07914,930.047637 C547.83894,927.999787 538.62304,922.879667 528.38284,919.808337 C503.80664,911.615957 491.51854,895.232137 487.42284,869.631537 C483.32714,846.079737 482.30272,821.503637 482.30272,797.951838 C482.30272,735.487938 483.32713,673.023837 483.32713,609.535838 C483.32713,585.984037 483.32713,561.407937 489.47068,537.856138 C500.73528,492.799538 513.02338,449.791638 539.64748,410.879138 C550.91118,393.471938 566.27148,379.135038 584.70318,368.895738 C592.89556,364.799058 598.01468,366.847888 601.08698,375.039288 C603.13483,381.183818 605.18268,387.327388 607.23151,394.495388 C611.32721,407.807888 616.44733,421.119388 623.61531,433.407488 C652.28721,485.631088 726.01431,492.799088 759.80631,446.718988 C784.38251,413.951388 782.33461,354.559788 754.68717,323.838988 C729.08657,294.143688 694.27117,287.999188 657.40687,293.119288 C601.08657,302.335108 556.03087,332.031388 517.11887,374.015788 C505.85517,389.375188 496.63837,405.758988 486.39917,424.191588 L486.40027,424.192578 Z"></path>
  </g>
</svg>