<?xml version="1.0" encoding="UTF-8"?>
<svg width="829px" height="830px" viewBox="0 0 829 830" version="1.1" xmlns="http://www.w3.org/2000/svg" xmlns:xlink="http://www.w3.org/1999/xlink">
  <g id="reCAPTCHA" transform="translate(0.6951, 0.8284)" fill="currentColor" fill-rule="nonzero">
    <path d="M414.119619,-2.13162821e-14 C544.211619,-2.13162821e-14 660.293619,59.9886371 736.213619,153.811337 L828.238019,62.1492371 L828.238019,416.628237 L472.356019,416.628237 L585.188019,304.234237 C549.321819,248.513537 486.974119,211.451037 415.930019,210.831937 L415.930019,1.21093712 L396.552119,1.208984 L396.552119,0.366211 C402.377319,0.123047 408.234719,-2.13162821e-14 414.120519,-2.13162821e-14 L414.119619,-2.13162821e-14 Z M396.551619,0.36753712 L396.550642,1.21031012 L415.927642,1.21226324 L415.927642,357.095263 L303.080642,243.800263 C247.689042,279.985763 211.030842,342.463363 210.824742,413.517263 L0.510742,413.522146 C0.169922,418.501636 -8.52651283e-14,418.700856 -8.52651283e-14,414.119802 C-8.52651283e-14,284.515802 59.5381,168.816802 152.756,92.882802 L61.4464,1.21290205 L382.3194,1.20508955 C387.04108,0.84669155 391.78522,0.56739455 396.5508,0.36753712 L396.551777,0.36753712 L396.551619,0.36753712 Z M356.393619,413.521561 L244.005619,525.471737 C280.324019,580.844737 342.950919,617.413137 414.118619,617.413137 C489.485819,617.413137 555.274619,576.400437 590.384619,515.475137 L743.959619,664.553137 C668.321919,764.019937 548.720619,828.237137 414.118619,828.237137 C284.646619,828.237137 169.053619,768.821137 93.1146186,675.769137 L0.511118562,768.001537 L0.511118562,413.521561 L356.393119,413.521561 L356.393119,413.521561 L356.393619,413.521561 Z"></path>
  </g>
</svg>