<?xml version="1.0" standalone="no"?>
<!DOCTYPE svg PUBLIC "-//W3C//DTD SVG 1.1//EN" "http://www.w3.org/Graphics/SVG/1.1/DTD/svg11.dtd" >
<svg xmlns="http://www.w3.org/2000/svg" xmlns:xlink="http://www.w3.org/1999/xlink" version="1.1" viewBox="-10 0 1034 1024">
   <path fill="currentColor"
d="M514.51 -40.6084c130.092 0 246.174 59.9873 322.094 153.81l92.0244 -91.6621v354.479h-355.882l112.832 -112.394c-35.8662 -55.7207 -98.2139 -92.7832 -169.258 -93.4023v-209.621l-19.3779 -0.00195312v-0.842773
c5.8252 -0.243164 11.6826 -0.366211 17.5684 -0.366211zM496.942 -40.2422l-0.000976562 0.842773l19.377 0.00195312v355.883l-112.847 -113.295c-55.3916 36.1855 -92.0498 98.6631 -92.2559 169.717l-210.314 0.00488281
c-0.34082 4.97949 -0.510742 5.17871 -0.510742 0.597656c0 -129.604 59.5381 -245.303 152.756 -321.237l-91.3096 -91.6699l320.873 -0.0078125c4.72168 -0.358398 9.46582 -0.637695 14.2314 -0.836914h0.000976562zM456.784 372.912l-112.388 111.95
c36.3184 55.373 98.9453 91.9414 170.113 91.9414c75.3672 0 141.156 -41.0127 176.266 -101.938l153.575 149.078c-75.6377 99.4668 -195.239 163.684 -329.841 163.684c-129.472 0 -245.065 -59.416 -321.004 -152.468l-92.6035 92.2324v-354.479h355.882v-0.000976562z
" />
</svg>
