<?xml version="1.0" encoding="UTF-8"?>
<svg width="1024px" height="1025px" viewBox="0 0 1024 1025" version="1.1" xmlns="http://www.w3.org/2000/svg" xmlns:xlink="http://www.w3.org/1999/xlink">
  <g id="RedBubble" transform="translate(0, 0.0926)" fill="currentColor" fill-rule="nonzero">
    <path d="M709.632,696.32 L573.441,696.32 C566.27303,696.32 560.1285,690.17547 560.1285,683.0075 L560.1285,339.9675 C560.1285,332.79953 566.27303,326.656 573.441,326.656 L700.417,326.656 C795.6494,326.656 815.105,382.9753 815.105,429.055 C815.105,456.7034 807.93703,477.1829 793.6011,493.5677 C828.4175,507.9036 846.8491,540.6712 846.8491,587.7757 C846.8491,655.3597 795.6499,696.32 709.6331,696.32 L709.6331,696.32 L709.632,696.32 Z M512,696.32 L228.352,696.32 C221.18403,696.32 215.0405,690.17547 215.0405,683.0075 L215.0405,339.9675 C215.0405,332.79953 221.18405,326.656 228.352,326.656 L360.449,326.656 C443.3924,326.656 492.545,371.7117 492.545,445.44 C492.545,495.6158 467.9688,534.5279 427.0089,549.887 L521.2169,673.791 C529.40928,683.00682 523.26475,696.32 512.00108,696.32 L512.00108,696.32 L512,696.32 Z M512,0 C229.376,0 0,229.376 0,512 C0,794.624 229.376,1024 512,1024 C794.624,1024 1024,794.624 1024,512 C1024,229.376 794.624,0 512,0 L512,0 Z"></path>
  </g>
</svg>