<?xml version="1.0" standalone="no"?>
<!DOCTYPE svg PUBLIC "-//W3C//DTD SVG 1.1//EN" "http://www.w3.org/Graphics/SVG/1.1/DTD/svg11.dtd" >
<svg xmlns="http://www.w3.org/2000/svg" xmlns:xlink="http://www.w3.org/1999/xlink" version="1.1" viewBox="-10 0 1044 1024">
   <path fill="currentColor"
d="M709.632 555.32h-136.191c-7.16797 0 -13.3125 -6.14453 -13.3125 -13.3125v-343.04c0 -7.16797 6.14453 -13.3115 13.3125 -13.3115h126.976c95.2324 0 114.688 56.3193 114.688 102.399c0 27.6484 -7.16797 48.1279 -21.5039 64.5127
c34.8164 14.3359 53.248 47.1035 53.248 94.208c0 67.584 -51.1992 108.544 -137.216 108.544v0zM512 555.32h-283.648c-7.16797 0 -13.3115 -6.14453 -13.3115 -13.3125v-343.04c0 -7.16797 6.14355 -13.3115 13.3115 -13.3115h132.097
c82.9434 0 132.096 45.0557 132.096 118.784c0 50.1758 -24.5762 89.0879 -65.5361 104.447l94.208 123.904c8.19238 9.21582 2.04785 22.5283 -9.21582 22.5283v0zM512 -141c-282.624 0 -512 229.376 -512 512s229.376 512 512 512s512 -229.376 512 -512
s-229.376 -512 -512 -512v0z" />
</svg>
