<?xml version="1.0" encoding="UTF-8"?>
<svg width="1024px" height="857px" viewBox="0 0 1024 857" version="1.1" xmlns="http://www.w3.org/2000/svg" xmlns:xlink="http://www.w3.org/1999/xlink">
  <g id="Reddit" transform="translate(0, 0.0926)" fill="currentColor" fill-rule="nonzero">
    <path d="M1024,420.38763 C1024,364.38763 980,320.38763 924,320.38763 C892,320.38763 864,334.38763 846,358.38763 C766,300.38763 654,264.38763 528,262.38763 L602,42.3876296 L786,86.3876296 L794,86.3876296 C796,128.38763 830,162.38763 874,162.38763 C918,162.38763 952,126.38763 952,82.3876296 C952,38.3876296 918,4.38762959 874,4.38762959 C840,4.38762959 814,22.3876296 800,50.3876296 C800,50.3876296 798,48.3876296 796,48.3876296 L594,0.387629592 C584,-1.61237041 574,4.38762959 572,12.3876296 L486,262.38763 C364,266.38763 256,300.38763 176,356.38763 C158,334.38763 132,320.38763 100,320.38763 C44,320.38763 0,364.38763 0,420.38763 C0,460.38763 24,496.38763 60,512.38763 C56,526.38763 54,542.38763 54,558.38763 C54,722.38763 258,856.38763 510,856.38763 C762,856.38763 966,722.38763 966,558.38763 C966,544.38763 964,528.38763 960,514.38763 C998,498.38763 1024,462.38763 1024,420.38763 Z M278,500.38763 C278,460.38763 312,426.38763 352,426.38763 C392,426.38763 426,460.38763 426,500.38763 C426,540.38763 392,574.38763 352,574.38763 C312,574.38763 278,540.38763 278,500.38763 Z M678,704.38763 C644,738.38763 590,754.38763 512,754.38763 C434,754.38763 380,738.38763 346,704.38763 C342,700.38763 342,692.38763 346,686.38763 C350,682.38763 358,682.38763 362,686.38763 C392,716.38763 440,730.38763 512,730.38763 C582,730.38763 632,716.38763 662,686.38763 C666,682.38763 674,682.38763 678,686.38763 C682,692.38763 682,700.38763 678,704.38763 Z M674,574.38763 C632,574.38763 598,542.38763 598,500.38763 C598,460.38763 632,426.38763 674,426.38763 C714,426.38763 746,460.38763 746,500.38763 C746,542.38763 714,574.38763 674,574.38763 Z"></path>
  </g>
</svg>