<?xml version="1.0" standalone="no"?>
<!DOCTYPE svg PUBLIC "-//W3C//DTD SVG 1.1//EN" "http://www.w3.org/Graphics/SVG/1.1/DTD/svg11.dtd" >
<svg xmlns="http://www.w3.org/2000/svg" xmlns:xlink="http://www.w3.org/1999/xlink" version="1.1" viewBox="-10 0 1044 1024">
   <path fill="currentColor"
d="M1024 363c0 -56 -44 -100 -100 -100c-32 0 -60 14 -78 38c-80 -58 -192 -94 -318 -96l74 -220l184 44h8c2 42 36 76 80 76s78 -36 78 -80s-34 -78 -78 -78c-34 0 -60 18 -74 46c0 0 -2 -2 -4 -2l-202 -48c-10 -2 -20 4 -22 12l-86 250c-122 4 -230 38 -310 94
c-18 -22 -44 -36 -76 -36c-56 0 -100 44 -100 100c0 40 24 76 60 92c-4 14 -6 30 -6 46c0 164 204 298 456 298s456 -134 456 -298c0 -14 -2 -30 -6 -44c38 -16 64 -52 64 -94zM278 443c0 -40 34 -74 74 -74s74 34 74 74s-34 74 -74 74s-74 -34 -74 -74zM678 647
c-34 34 -88 50 -166 50s-132 -16 -166 -50c-4 -4 -4 -12 0 -18c4 -4 12 -4 16 0c30 30 78 44 150 44c70 0 120 -14 150 -44c4 -4 12 -4 16 0c4 6 4 14 0 18zM674 517c-42 0 -76 -32 -76 -74c0 -40 34 -74 76 -74c40 0 72 34 72 74c0 42 -32 74 -72 74z" />
</svg>
