<?xml version="1.0" standalone="no"?>
<!DOCTYPE svg PUBLIC "-//W3C//DTD SVG 1.1//EN" "http://www.w3.org/Graphics/SVG/1.1/DTD/svg11.dtd" >
<svg xmlns="http://www.w3.org/2000/svg" xmlns:xlink="http://www.w3.org/1999/xlink" version="1.1" viewBox="-10 0 1034 1024">
   <path fill="currentColor"
d="M888.832 829.752c-14.3359 -7.16797 -31.7441 -17.4082 -73.7285 -88.0635l-83.9678 -137.217l-99.3281 -161.792l-7.16797 -13.3115c3.07227 0 10.2402 -3.07227 14.3359 -3.07227c112.641 -38.9121 179.2 -140.288 179.2 -288.768
c0 -73.7285 -27.6475 -140.288 -83.9678 -190.464c-7.16797 -7.16797 -17.4082 -14.3369 -24.5762 -21.5049c-77.8242 -49.1514 -179.2 -66.5596 -313.344 -66.5596h-257.024c-14.3359 0 -17.4072 10.2402 -10.2393 17.4082s14.3359 17.4082 14.3359 46.0801v808.96
c-3.07227 31.7441 -10.2402 41.9834 -14.3359 49.1514c-7.16797 7.16797 -3.07227 17.4082 14.3359 17.4082h186.367v-340.992h83.9688l59.3916 102.4l73.7285 126.976l34.8154 63.4883c41.9844 70.6562 80.8965 115.712 147.456 126.977
c7.16797 0 41.9844 7.16797 56.3203 7.16797h14.3359c27.6475 0 56.3203 -10.2402 73.7275 -17.4082c0 0 3.07227 -3.07227 7.16797 -3.07227c25.6006 -15.3604 18.4326 -29.6963 8.19238 -33.792zM449.536 323.896h-119.809v-330.753h119.809
c59.3916 0 105.472 7.16797 137.216 38.9121c14.3359 10.2402 21.5039 24.5762 27.6484 41.9844c7.16797 21.5039 14.3359 46.0801 14.3359 77.8242c0 40.96 -4.09668 172.032 -179.2 172.032z" />
</svg>
