<?xml version="1.0" encoding="UTF-8"?>
<svg width="774px" height="1026px" viewBox="0 0 774 1026" version="1.1" xmlns="http://www.w3.org/2000/svg" xmlns:xlink="http://www.w3.org/1999/xlink">
  <g id="Redfin" transform="translate(0.1733, 0.4253)" fill="currentColor" fill-rule="nonzero">
    <path d="M763.528304,970.75277 C749.192404,963.5848 731.784204,953.34457 689.799804,882.68927 L605.832004,745.47227 L506.503904,583.68027 L499.335934,570.36877 C502.408204,570.36877 509.576134,567.2965 513.671834,567.2965 C626.312834,528.3844 692.871834,427.0085 692.871834,278.5285 C692.871834,204.8 665.224334,138.2405 608.904034,88.0645 C601.736064,80.89653 591.495834,73.7276 584.327834,66.5596 C506.503634,17.4082 405.127834,0 270.983834,0 L13.9598336,0 C-0.37606639,0 -3.44736639,10.2402 3.72053361,17.4082 C10.8884336,24.5762 18.0564336,34.8164 18.0564336,63.4883 L18.0564336,872.4483 C14.9841636,904.1924 7.81623361,914.4317 3.72053361,921.5997 C-3.44743639,928.76767 0.64826361,939.0079 18.0564336,939.0079 L204.423434,939.0079 L204.423434,598.0159 L288.392234,598.0159 L347.783834,700.4159 L421.512334,827.3919 L456.327734,890.8802 C498.312134,961.5364 537.224234,1006.5922 603.783734,1017.8572 C610.951704,1017.8572 645.768134,1025.02517 660.104034,1025.02517 L674.439934,1025.02517 C702.087434,1025.02517 730.760234,1014.78497 748.167434,1007.61697 C748.167434,1007.61697 751.239704,1004.5447 755.335404,1004.5447 C780.936004,989.1843 773.768004,974.8484 763.527784,970.7527 L763.528304,970.75277 Z M324.232304,464.89677 L204.423304,464.89677 L204.423304,134.14377 L324.232304,134.14377 C383.623904,134.14377 429.704304,141.31174 461.448304,173.05587 C475.784204,183.29607 482.952204,197.63207 489.096704,215.04027 C496.264674,236.54417 503.432604,261.12037 503.432604,292.86447 C503.432604,333.82447 499.335924,464.89677 324.232604,464.89677 L324.232304,464.89677 Z"></path>
  </g>
</svg>