<?xml version="1.0" encoding="UTF-8"?>
<svg width="982px" height="787px" viewBox="0 0 982 787" version="1.1" xmlns="http://www.w3.org/2000/svg" xmlns:xlink="http://www.w3.org/1999/xlink">
  <g id="RefSheet" transform="translate(-0.0063, 0.6137)" fill="currentColor" fill-rule="nonzero">
    <path d="M443.209075,0.0838596362 C443.081145,0.339718636 437.705165,0.851437636 431.304775,1.23522964 C384.968875,4.30749964 328.392775,17.6200296 285.384775,35.4120296 L276.041025,39.3797996 L276.041025,164.6918 L275.913095,290.1318 L374.728495,289.620081 C429.128895,289.363245 475.336495,288.851526 477.384495,288.467741 C479.560275,287.956022 483.016335,287.443331 485.064185,287.059541 C545.864985,278.355441 589.512185,243.412041 603.592185,192.083941 C605.128315,186.580031 607.048235,176.723541 607.944725,170.452141 C609.479885,159.443341 609.608785,128.723641 608.072655,120.532241 C607.687889,118.355481 607.048245,114.643571 606.664455,112.211931 C603.720115,94.2920306 596.296255,74.8359306 587.080455,60.3721306 C580.807995,50.5156806 565.192755,34.2598306 556.103855,28.1162306 C542.280655,18.7715006 519.112655,9.17193064 502.984755,5.97173064 C498.760145,5.20415264 494.152725,4.30767064 492.744555,4.05181064 C486.472095,2.77154064 478.792455,2.00396064 463.304155,1.36333064 C454.216265,0.979541636 446.024855,0.467822636 445.128355,0.211960636 C444.360777,-0.0438983638 443.464295,-0.0438983638 443.208435,0.0840306362 L443.209075,0.0838596362 Z M752.329075,74.5799596 C753.224583,77.1395296 753.993135,81.4920696 755.144505,89.8113596 C755.529271,92.6277696 756.168915,96.3396796 756.424775,98.1316696 C759.369115,115.66777 759.369115,164.43537 756.424775,181.97147 C753.993135,195.92357 751.560515,207.57107 749.384735,215.89137 C747.848605,221.13942 746.569305,226.38747 746.312465,227.41187 C745.161095,231.6355 740.040985,244.05147 734.409165,255.57107 C711.497065,302.67557 669.768565,341.84357 614.345165,368.34007 L600.905665,374.74046 L614.600965,394.83616 C622.153695,405.84396 633.929065,423.25216 640.969165,433.49236 C647.881275,443.73166 659.017065,460.11636 665.673265,469.97186 C672.457445,479.82831 683.337365,495.95626 690.121465,505.81166 C696.905645,515.66811 710.728865,536.14756 720.969165,551.25206 C731.337365,566.35556 741.833465,581.97176 744.520965,585.81166 C747.209445,589.6515 750.025845,593.74818 750.665495,594.77162 C751.433073,595.79603 759.369595,607.44352 768.329595,620.62802 C777.289555,633.68372 788.681195,650.45222 793.545395,657.74812 C798.537585,664.91609 807.625495,678.35552 813.896995,687.57132 C820.169455,696.66019 829.257395,710.09962 834.121595,717.39552 L843.081555,730.45212 L852.809095,722.5156 C904.905795,680.0195 946.249495,613.5876 966.473095,539.8596 C970.312935,525.6516 975.177195,503.508 976.585395,493.0119 C976.841254,490.83612 977.737735,485.07635 978.377385,480.0842 C981.449655,458.9641 982.473085,416.0842 980.553165,391.2522 C976.457465,339.6682 959.433065,289.2352 929.609765,240.4682 C924.489645,232.27582 919.881245,224.852 919.369565,224.2123 C918.72894,223.443745 914.761165,218.06777 910.409605,212.0521 C902.473085,200.9164 887.881305,182.8685 880.457505,174.932 C853.833505,146.516 830.665505,125.6517 802.505405,105.0443 C792.777865,97.8763296 767.945805,81.6204996 757.833505,75.7317996 C752.329595,72.5325796 751.688975,72.4036796 752.329595,74.5804296 L752.329075,74.5799596 Z M118.601075,148.94766 C105.801275,162.64296 96.3295749,173.65076 89.5453749,182.73966 C72.2650749,205.52286 63.0492749,219.34706 52.1693749,238.29146 C45.5131249,249.81096 36.4252749,267.98676 31.9457749,278.61076 C30.0258549,283.21916 27.3373749,289.36276 26.0571049,292.30706 C24.7778049,295.2514 23.6254649,298.06683 23.6254649,298.57952 C23.6254649,298.963309 21.7055449,304.59514 19.2729249,311.12342 C11.7211649,331.34702 3.27292488,368.72302 0.969224879,392.14682 C-0.950695121,411.60292 0.201646879,487.12342 2.50535488,491.09112 C2.63328488,491.474909 3.27293288,494.93096 3.65769488,498.89874 C4.16941388,502.86749 4.80906488,507.47491 5.06492488,509.13894 C5.44969088,510.803 6.60105488,517.71511 7.75340488,524.37134 C8.90574488,531.02661 12.4897349,547.41134 15.9457849,560.85084 C39.3695849,653.01104 82.3773849,722.25884 139.465785,759.63484 C153.417885,768.72273 180.937485,779.98644 194.377885,782.16314 C197.065385,782.674859 199.625935,783.18658 200.137655,783.44244 C201.545855,784.338924 220.490155,785.748973 230.729455,785.748973 C263.242155,785.87506 288.841755,779.34674 309.706055,765.65043 C327.242155,754.00293 338.505855,739.41113 347.465855,717.13873 C351.305695,707.28326 357.065465,685.13873 358.345755,674.77053 C358.729544,671.18655 359.370165,666.96291 359.626025,665.17092 C360.393603,660.81838 362.057665,643.02642 363.465865,625.49122 C363.849654,620.24317 364.490275,614.48242 364.746135,612.69042 C365.001995,610.89842 365.513713,606.29101 365.897505,602.32322 C366.921915,592.5947 371.017625,576.85052 374.345745,570.45112 C377.801795,563.66694 383.689495,557.90722 389.578145,555.47452 C395.721695,552.91495 410.057645,552.91495 420.425845,555.730379 C429.002015,557.907139 442.954145,564.818269 448.458045,569.554579 C456.778355,576.722549 465.610345,586.323179 472.137745,595.154179 C481.610405,607.954979 490.570345,622.674679 504.649445,648.531179 C529.866245,694.995079 546.761745,719.954979 566.345745,739.411079 C592.969745,765.907179 622.154345,779.986279 660.937545,784.850579 C667.977585,785.748973 698.570345,785.748973 704.585945,784.850579 C706.377935,784.59472 709.450205,784.33886 711.370125,784.33886 C715.209965,784.21093 719.049815,790.09863 645.322225,681.17086 C634.313425,664.91496 616.521425,638.41886 605.513625,622.29096 C594.633725,606.03506 578.761625,582.48236 570.185525,569.81046 C561.481425,557.13856 547.017525,535.50676 537.801725,521.81046 C528.585905,508.11516 520.649425,496.59466 520.265625,496.21086 C519.242185,495.18645 501.834025,468.94716 501.194325,467.41106 C500.937489,466.770435 500.297841,465.87493 499.914055,465.49114 C499.402336,465.106374 493.769525,457.0429 487.370155,447.57024 C481.097695,438.09856 472.778355,425.68254 468.937555,420.05074 L462.026425,409.81054 L275.786425,409.554681 L275.658495,499.922881 C275.658495,549.586981 275.273729,591.955081 275.01787,594.130881 C273.73857,602.323261 268.87432,616.274481 264.52177,624.210981 C256.20243,639.058681 243.65847,649.042981 226.50617,654.418981 C218.95441,656.722691 197.06577,657.747101 188.10577,656.210971 C177.22587,654.291051 176.20247,653.907261 167.62627,649.682651 C152.90657,642.386751 142.28247,628.434651 138.05787,610.514651 C135.88209,601.426761 135.88209,603.986331 134.85767,219.986651 C134.85767,172.755251 134.218022,133.971051 133.7063,133.971051 C133.194578,133.971051 126.4104,140.755231 118.6018,148.947651 L118.601075,148.94766 Z"></path>
  </g>
</svg>