<?xml version="1.0" standalone="no"?>
<!DOCTYPE svg PUBLIC "-//W3C//DTD SVG 1.1//EN" "http://www.w3.org/Graphics/SVG/1.1/DTD/svg11.dtd" >
<svg xmlns="http://www.w3.org/2000/svg" xmlns:xlink="http://www.w3.org/1999/xlink" version="1.1" viewBox="-10 0 1034 1024">
   <path fill="currentColor"
d="M465.664 -32.9678c-0.12793 0.255859 -5.50391 0.767578 -11.9043 1.15137c-46.3359 3.07227 -102.912 16.3848 -145.92 34.1768l-9.34375 3.96777v125.312l-0.12793 125.44l98.8154 -0.511719c54.4004 -0.256836 100.608 -0.768555 102.656 -1.15234
c2.17578 -0.511719 5.63184 -1.02441 7.67969 -1.4082c60.8008 -8.7041 104.448 -43.6475 118.528 -94.9756c1.53613 -5.50391 3.45605 -15.3604 4.35254 -21.6318c1.53516 -11.0088 1.66406 -41.7285 0.12793 -49.9199
c-0.384766 -2.17676 -1.02441 -5.88867 -1.4082 -8.32031c-2.94434 -17.9199 -10.3682 -37.376 -19.584 -51.8398c-6.27246 -9.85645 -21.8877 -26.1123 -30.9766 -32.2559c-13.8232 -9.34473 -36.9912 -18.9443 -53.1191 -22.1445
c-4.22461 -0.767578 -8.83203 -1.66406 -10.2402 -1.91992c-6.27246 -1.28027 -13.9521 -2.04785 -29.4404 -2.68848c-9.08789 -0.383789 -17.2793 -0.895508 -18.1758 -1.15137c-0.767578 -0.255859 -1.66406 -0.255859 -1.91992 -0.12793zM774.784 41.5283
c0.895508 2.55957 1.66406 6.91211 2.81543 15.2314c0.384766 2.81641 1.02441 6.52832 1.28027 8.32031c2.94434 17.5361 2.94434 66.3037 0 83.8398c-2.43164 13.9521 -4.86426 25.5996 -7.04004 33.9199c-1.53613 5.24805 -2.81543 10.4961 -3.07227 11.5205
c-1.15137 4.22363 -6.27148 16.6396 -11.9033 28.1592c-22.9121 47.1045 -64.6406 86.2725 -120.064 112.769l-13.4395 6.40039l13.6953 20.0957c7.55273 11.0078 19.3281 28.416 26.3682 38.6562c6.91211 10.2393 18.0479 26.624 24.7041 36.4795
c6.78418 9.85645 17.6641 25.9844 24.4482 35.8398c6.78418 9.85645 20.6074 30.3359 30.8477 45.4404c10.3682 15.1035 20.8643 30.7197 23.5518 34.5596c2.68848 3.83984 5.50488 7.93652 6.14453 8.95996c0.767578 1.02441 8.7041 12.6719 17.6641 25.8564
c8.95996 13.0557 20.3516 29.8242 25.2158 37.1201c4.99219 7.16797 14.0801 20.6074 20.3516 29.8232c6.27246 9.08887 15.3604 22.5283 20.2246 29.8242l8.95996 13.0566l9.72754 -7.93652c52.0967 -42.4961 93.4404 -108.928 113.664 -182.656
c3.83984 -14.208 8.7041 -36.3516 10.1123 -46.8477c0.255859 -2.17578 1.15234 -7.93555 1.79199 -12.9277c3.07227 -21.1201 4.0957 -64 2.17578 -88.832c-4.0957 -51.584 -21.1201 -102.017 -50.9434 -150.784c-5.12012 -8.19238 -9.72852 -15.6162 -10.2402 -16.2559
c-0.640625 -0.768555 -4.6084 -6.14453 -8.95996 -12.1602c-7.93652 -11.1357 -22.5283 -29.1836 -29.9521 -37.1201c-26.624 -28.416 -49.792 -49.2803 -77.9521 -69.8877c-9.72754 -7.16797 -34.5596 -23.4238 -44.6719 -29.3125
c-5.50391 -3.19922 -6.14453 -3.32812 -5.50391 -1.15137zM141.056 115.896c-12.7998 13.6953 -22.2715 24.7031 -29.0557 33.792c-17.2803 22.7832 -26.4961 36.6074 -37.376 55.5518c-6.65625 11.5195 -15.7441 29.6953 -20.2236 40.3193
c-1.91992 4.6084 -4.6084 10.752 -5.88867 13.6963c-1.2793 2.94434 -2.43164 5.75977 -2.43164 6.27246c0 0.383789 -1.91992 6.01562 -4.35254 12.5439c-7.55176 20.2236 -16 57.5996 -18.3037 81.0234c-1.91992 19.4561 -0.767578 94.9766 1.53613 98.9443
c0.12793 0.383789 0.767578 3.83984 1.15234 7.80762c0.511719 3.96875 1.15137 8.57617 1.40723 10.2402c0.384766 1.66406 1.53613 8.57617 2.68848 15.2324c1.15234 6.65527 4.73633 23.04 8.19238 36.4795c23.4238 92.1602 66.4316 161.408 123.52 198.784
c13.9521 9.08789 41.4717 20.3516 54.9121 22.5283c2.6875 0.511719 5.24805 1.02344 5.75977 1.2793c1.4082 0.896484 20.3525 2.30469 30.5918 2.30469c32.5127 0.12793 58.1123 -6.40039 78.9766 -20.0967c17.5361 -11.6475 28.7998 -26.2393 37.7598 -48.5117
c3.83984 -9.85547 9.59961 -32 10.8799 -42.3682c0.383789 -3.58398 1.02441 -7.80762 1.28027 -9.59961c0.767578 -4.35254 2.43164 -22.1445 3.83984 -39.6797c0.383789 -5.24805 1.02441 -11.0088 1.28027 -12.8008s0.767578 -6.39941 1.15137 -10.3672
c1.02441 -9.72852 5.12012 -25.4727 8.44824 -31.8721c3.45605 -6.78418 9.34375 -12.5439 15.2324 -14.9766c6.14355 -2.55957 20.4795 -2.55957 30.8477 0.255859c8.57617 2.17676 22.5283 9.08789 28.0322 13.8242c8.32031 7.16797 17.1523 16.7686 23.6797 25.5996
c9.47266 12.8008 18.4326 27.5205 32.5117 53.377c25.2168 46.4639 42.1123 71.4238 61.6963 90.8799c26.624 26.4961 55.8086 40.5752 94.5918 45.4395c7.04004 0.896484 37.6328 0.896484 43.6484 0c1.79199 -0.255859 4.86426 -0.511719 6.78418 -0.511719
c3.83984 -0.12793 7.67969 5.75977 -66.0479 -103.168c-11.0088 -16.2559 -28.8008 -42.752 -39.8086 -58.8799c-10.8799 -16.2559 -26.752 -39.8086 -35.3281 -52.4805c-8.7041 -12.6719 -23.168 -34.3037 -32.3838 -48
c-9.21582 -13.6953 -17.1523 -25.2158 -17.5361 -25.5996c-1.02344 -1.02441 -18.4316 -27.2637 -19.0713 -28.7998c-0.256836 -0.640625 -0.896484 -1.53613 -1.28027 -1.91992c-0.511719 -0.384766 -6.14453 -8.44824 -12.5439 -17.9209
c-6.27246 -9.47168 -14.5918 -21.8877 -18.4326 -27.5195l-6.91113 -10.2402l-186.24 -0.255859l-0.12793 90.3682c0 49.6641 -0.384766 92.0322 -0.640625 94.208c-1.2793 8.19238 -6.14355 22.1436 -10.4961 30.0801c-8.31934 14.8477 -20.8633 24.832 -38.0156 30.208
c-7.55176 2.30371 -29.4404 3.32812 -38.4004 1.79199c-10.8799 -1.91992 -11.9033 -2.30371 -20.4795 -6.52832c-14.7197 -7.2959 -25.3438 -21.248 -29.5684 -39.168c-2.17578 -9.08789 -2.17578 -6.52832 -3.2002 -390.528
c0 -47.2314 -0.639648 -86.0156 -1.15137 -86.0156s-7.2959 6.78418 -15.1045 14.9766z" />
</svg>
