<?xml version="1.0" encoding="UTF-8"?>
<svg width="863px" height="1025px" viewBox="0 0 863 1025" version="1.1" xmlns="http://www.w3.org/2000/svg" xmlns:xlink="http://www.w3.org/1999/xlink">
  <g id="Remote" transform="translate(0.6433, 0.8284)" fill="currentColor" fill-rule="nonzero">
    <path d="M656.578447,727.746367 C778.700447,662.824467 861.881447,534.352367 861.881447,386.406367 C861.881447,176.639367 694.702447,6.041367 486.328447,0.276367 L486.2679,0 L80.6309,0 C36.2813,0 -5.68434189e-14,36.2803 -5.68434189e-14,80.6299 L-5.68434189e-14,943.3699 C-5.68434189e-14,987.7185 36.2803,1023.9998 80.6309,1023.9998 L656.5789,727.7468 L656.578447,727.746367 Z M731.156447,707.583367 C716.422047,719.298167 700.835147,730.152667 684.349847,739.889967 L684.523675,740.60774 L133.519675,1023.99974 L762.736675,1023.99974 C808.990575,1023.99974 875.458675,1023.99974 846.838275,939.89914 C829.962275,899.94304 783.625375,808.44814 731.156275,707.583367 L731.156447,707.583367 Z"></path>
  </g>
</svg>