<?xml version="1.0" encoding="UTF-8"?>
<svg width="88px" height="88px" viewBox="0 0 88 88" version="1.1" xmlns="http://www.w3.org/2000/svg" xmlns:xlink="http://www.w3.org/1999/xlink">
    <title>Renderosity</title>
    <g id="Renderosity" stroke="none" stroke-width="1" fill="none" fill-rule="evenodd">
        <path d="M67,83 L55.3121597,82.8996089 L55.3121597,56.3963494 C55.3121597,49.3355063 51.3327284,45.8050847 43.3738657,45.8050847 L37.9473684,45.8050847 L37.9473684,82.8996089 L26.2595281,83 L26.2595281,45.9054759 L21,45.9054759 L21,39.63103 L26.2595281,39.63103 L26.2595281,6 L45.9618875,6 C59.9872958,6 67,10.7685789 67,20.3057366 L67,31.2985658 C67,33.942199 66.0816697,36.0838766 64.2450091,37.7235984 C62.630974,39.162538 59.6533575,40.7186006 55.3121597,42.3917862 C59.6533575,43.0945241 62.6866304,44.5167319 64.4119782,46.6584094 C66.1373261,48.8000869 67,52.1129944 67,56.5971317 L67,83 Z M44.3756806,11.8728814 L37.9473684,11.8728814 L37.9473684,39.5306389 L43.5408348,39.5306389 C51.3883848,39.5306389 55.3121597,36.619296 55.3121597,30.7966102 L55.3121597,21.4100391 C55.3121597,15.0519339 51.6666667,11.8728814 44.3756806,11.8728814 Z" id="Shape" fill="currentColor" fill-rule="nonzero"></path>
    </g>
</svg>