<?xml version="1.0" encoding="UTF-8"?>
<svg width="1026px" height="581px" viewBox="0 0 1026 581" version="1.1" xmlns="http://www.w3.org/2000/svg" xmlns:xlink="http://www.w3.org/1999/xlink">
  <g id="Renren" transform="translate(0.6517, 0)" fill="currentColor" fill-rule="nonzero">
    <path d="M238.834032,280 C240.834032,266 244.834032,252 246.834032,238 C250.834032,224 248.834032,208 248.834032,194 L248.834032,116 L248.834032,0 C240.834032,0 230.834032,2 224.834032,4 C200.834032,12 180.834032,18 162.834032,28 C88.8340322,64 32.8340322,128 8.83403223,216 C-13.1659678,298 8.83403223,386 42.8340322,440 C50.8340322,452 60.8340322,470 70.8340322,478 C80.8340322,478 88.8340322,470 94.8340322,464 C108.834032,456 122.834032,446 134.834032,436 C140.834032,432 144.834032,426 150.834032,422 C190.834032,388 218.834032,336 238.834032,280 Z M318.834032,426 C312.834032,414 308.834032,402 302.834032,390 L296.834032,372 L296.834032,372 C290.834032,384 284.834032,394 278.834032,404 C268.834032,424 256.834032,442 244.834032,458 C226.834032,480 208.834032,502 188.834032,518 C178.834032,528 166.834032,536 156.834032,546 L156.834032,548 C162.834032,550 168.834032,554 174.834032,556 C188.834032,562 202.834032,568 216.834032,572 C268.834032,586 332.834032,582 380.834032,568 C392.834032,564 420.834032,556 428.834032,548 L428.834032,548 C416.834032,542 406.834032,532 396.834032,524 C366.834032,496 340.834032,464 318.834032,426 Z M1014.83403,216 C992.834032,126 936.834032,64 862.834032,26 C844.834032,18 824.834032,10 800.834032,4 C794.834032,2 784.834032,0 776.834032,0 C776.834032,38 776.834032,76 774.834032,116 L774.834032,192 C774.834032,208 774.834032,224 776.834032,238 C780.834032,252 784.834032,266 786.834032,280 C806.834032,336 834.834032,388 874.834032,422 C880.834032,426 884.834032,430 890.834032,436 C902.834032,446 916.834032,456 930.834032,464 C936.834032,468 944.834032,478 954.834032,478 C964.834032,470 974.834032,452 982.834032,440 C1016.83403,386 1038.83403,298 1014.83403,216 Z M780.834032,458 C768.834032,442 756.834032,424 746.834032,404 C740.834032,394 734.834032,384 728.834032,372 L728.834032,372 L722.834032,390 C716.834032,402 712.834032,414 706.834032,426 C684.834032,464 658.834032,496 628.834032,522 C618.834032,532 608.834032,542 596.834032,548 L596.834032,548 C604.834032,556 632.834032,564 644.834032,568 C692.834032,582 756.834032,586 808.834032,572 C822.834032,568 836.834032,562 850.834032,556 C856.834032,554 862.834032,550 868.834032,548 L868.834032,546 C858.834032,536 846.834032,528 836.834032,518 C816.834032,502 798.834032,480 780.834032,458 Z M676.834032,284 C680.834032,272 682.834032,258 684.834032,244 C688.834032,232 686.834032,214 686.834032,198 L686.834032,112 L686.834032,0 L682.834032,0 C670.834032,2 662.834032,2 644.834032,8 C622.834032,14 600.834032,26 582.834032,36 C562.834032,46 548.834032,62 532.834032,74 C526.834032,78 518.834032,86 512.834032,94 L512.834032,94 L512.834032,96 C520.834032,106 528.834032,116 534.834032,126 C550.834032,148 564.834032,174 572.834032,204 C592.834032,272 584.834032,358 558.834032,412 C548.834032,430 540.834032,446 528.834032,460 C524.834032,468 518.834032,474 512.834032,482 L512.834032,482 L512.834032,484 L514.834032,484 C538.834032,470 558.834032,446 578.834032,430 C592.834032,420 602.834032,406 612.834032,394 C638.834032,362 660.834032,328 676.834032,284 Z M512.834032,482 C506.834032,474 500.834032,468 496.834032,460 C484.834032,446 474.834032,430 466.834032,412 C440.834032,358 430.834032,272 452.834032,202 C460.834032,174 474.834032,148 488.834032,126 L512.834032,96 L512.834032,94 L512.834032,94 C506.834032,86 498.834032,78 492.834032,74 C476.834032,62 460.834032,46 442.834032,36 C424.834032,26 402.834032,14 380.834032,8 C362.834032,2 354.834032,2 342.834032,0 L338.834032,0 L338.834032,112 L338.834032,198 C338.834032,214 336.834032,232 340.834032,244 C342.834032,258 344.834032,272 348.834032,284 C364.834032,328 386.834032,362 412.834032,394 C422.834032,406 432.834032,420 446.834032,430 C466.834032,446 486.834032,470 510.834032,484 L512.834032,484 L512.834032,482 L512.834032,482 Z"></path>
  </g>
</svg>