<?xml version="1.0" standalone="no"?>
<!DOCTYPE svg PUBLIC "-//W3C//DTD SVG 1.1//EN" "http://www.w3.org/Graphics/SVG/1.1/DTD/svg11.dtd" >
<svg xmlns="http://www.w3.org/2000/svg" xmlns:xlink="http://www.w3.org/1999/xlink" version="1.1" viewBox="-11 0 1046 1024">
   <path fill="currentColor"
d="M512 565v0v0zM238 361c2 -14 6 -28 8 -42c4 -14 2 -30 2 -44v-78v-116c-8 0 -18 2 -24 4c-24 8 -44 14 -62 24c-74 36 -130 100 -154 188c-22 82 0 170 34 224c8 12 18 30 28 38c10 0 18 -8 24 -14c14 -8 28 -18 40 -28c6 -4 10 -10 16 -14c40 -34 68 -86 88 -142z
M512 565v0v0zM318 507c-6 -12 -10 -24 -16 -36l-6 -18v0c-6 12 -12 22 -18 32c-10 20 -22 38 -34 54c-18 22 -36 44 -56 60c-10 10 -22 18 -32 28v2c6 2 12 6 18 8c14 6 28 12 42 16c52 14 116 10 164 -4c12 -4 40 -12 48 -20v0c-12 -6 -22 -16 -32 -24
c-30 -28 -56 -60 -78 -98zM1014 297c-22 -90 -78 -152 -152 -190c-18 -8 -38 -16 -62 -22c-6 -2 -16 -4 -24 -4c0 38 0 76 -2 116v76c0 16 0 32 2 46c4 14 8 28 10 42c20 56 48 108 88 142c6 4 10 8 16 14c12 10 26 20 40 28c6 4 14 14 24 14c10 -8 20 -26 28 -38
c34 -54 56 -142 32 -224zM780 539c-12 -16 -24 -34 -34 -54c-6 -10 -12 -20 -18 -32v0l-6 18c-6 12 -10 24 -16 36c-22 38 -48 70 -78 96c-10 10 -20 20 -32 26v0c8 8 36 16 48 20c48 14 112 18 164 4c14 -4 28 -10 42 -16c6 -2 12 -6 18 -8v-2c-10 -10 -22 -18 -32 -28
c-20 -16 -38 -38 -56 -60zM676 365c4 -12 6 -26 8 -40c4 -12 2 -30 2 -46v-86v-112h-4c-12 2 -20 2 -38 8c-22 6 -44 18 -62 28c-20 10 -34 26 -50 38c-6 4 -14 12 -20 20v0v2c8 10 16 20 22 30c16 22 30 48 38 78c20 68 12 154 -14 208c-10 18 -18 34 -30 48
c-4 8 -10 14 -16 22v0v2h2c24 -14 44 -38 64 -54c14 -10 24 -24 34 -36c26 -32 48 -66 64 -110zM512 563c-6 -8 -12 -14 -16 -22c-12 -14 -22 -30 -30 -48c-26 -54 -36 -140 -14 -210c8 -28 22 -54 36 -76l24 -30v-2v0c-6 -8 -14 -16 -20 -20c-16 -12 -32 -28 -50 -38
s-40 -22 -62 -28c-18 -6 -26 -6 -38 -8h-4v112v86c0 16 -2 34 2 46c2 14 4 28 8 40c16 44 38 78 64 110c10 12 20 26 34 36c20 16 40 40 64 54h2v-2v0z" />
</svg>
