<?xml version="1.0" encoding="UTF-8"?>
<svg width="820px" height="820px" viewBox="0 0 820 820" version="1.1" xmlns="http://www.w3.org/2000/svg" xmlns:xlink="http://www.w3.org/1999/xlink">
  <g id="Rentry" transform="translate(0.3326, 0.8284)" fill="currentColor" fill-rule="nonzero">
    <path d="M0,0 L0,819.1105 L391.879,819.1105 L391.879,598.1335 L427.1866,619.1218 L427.1866,819.1105 L819.1096,819.1105 L819.1096,536.0638 L744.466,492.97 L819.1096,492.97 L819.1096,0 L0,0 L0,0 Z M42.961,42.961483 L776.149,42.961483 L776.149,450.01045 L654.921,450.01045 L654.921,490.86685 L776.149,560.85705 L776.149,776.15005 L470.147,776.15005 L470.147,594.68805 L387.9409,545.82085 L348.9184,546.044483 L348.9184,776.15005 L42.961,776.15005 L42.961,42.961483 L42.961,42.961483 Z M348.9175,245.8146 L348.9175,396.2202 L389.1485,396.2202 L470.1465,347.5776 L470.1465,245.8146 L348.9175,245.8146 L348.9175,245.8146 Z M391.879,288.7752 L427.1866,288.7752 L427.1866,323.2772 L391.879,344.4891 L391.879,288.7752 L391.879,288.7752 Z"></path>
  </g>
</svg>