<?xml version="1.0" encoding="UTF-8"?>
<svg width="949px" height="1025px" viewBox="0 0 949 1025" version="1.1" xmlns="http://www.w3.org/2000/svg" xmlns:xlink="http://www.w3.org/1999/xlink">
  <g id="ResearchGate" transform="translate(0.2154, 0.6614)" fill="currentColor" fill-rule="nonzero">
    <path d="M634,1024 C656,1024 678,1020 692,1014 L692,982 C648,982 604,952 572,918 C518,860 446,764 386,658 C486,634 558,542 558,450 C558,312 452,248 312,248 C240,248 182,252 128,252 L0,252 L0,286 L46,294 C78,302 98,316 98,392 L98,872 C98,948 78,962 46,968 L0,976 L0,1014 C34,1012 92,1010 148,1010 C204,1010 274,1012 306,1014 L306,978 L242,970 C208,964 192,950 192,874 L192,670 C222,672 246,672 286,672 C360,804 430,906 470,952 C508,996 564,1024 634,1024 Z M280,616 C238,616 220,616 192,612 L192,306 C220,304 256,304 290,304 C394,304 454,358 454,454 C454,552 388,616 280,616 Z M652,308 C652,302 650,294 650,286 C648,278 648,266 648,254 C648,242 646,228 646,212 C646,196 646,180 648,168 C648,156 648,146 650,138 C650,130 652,122 652,116 L658,98 C668,66 684,42 710,26 C734,8 762,0 798,0 C816,0 832,2 846,6 C862,10 874,16 886,24 C896,30 906,40 914,50 C922,60 928,70 934,80 C936,84 934,88 932,90 L888,108 C884,110 882,108 880,104 C870,86 862,74 846,64 C832,56 820,52 798,52 C774,52 764,56 750,66 C736,76 724,90 718,110 C716,114 716,118 714,122 C712,128 712,134 710,142 L710,170 C710,182 708,194 708,210 C708,226 708,238 710,250 L710,278 C712,284 712,292 714,296 C714,302 716,306 718,310 C724,330 734,340 746,350 C760,358 776,364 798,364 C818,364 838,358 850,350 C862,340 872,328 878,312 C880,306 882,296 884,286 C886,276 886,266 886,250 C886,248 884,246 882,246 L810,246 C806,246 804,244 804,240 L804,198 C804,194 806,192 810,192 L942,192 C946,192 948,194 948,198 L948,236 C948,254 948,272 946,286 C944,302 942,316 938,326 C928,358 914,380 888,398 C864,414 834,422 798,422 C764,422 734,414 710,398 C686,382 670,358 658,326 C656,322 654,314 652,308 Z"></path>
  </g>
</svg>