<?xml version="1.0" standalone="no"?>
<!DOCTYPE svg PUBLIC "-//W3C//DTD SVG 1.1//EN" "http://www.w3.org/Graphics/SVG/1.1/DTD/svg11.dtd" >
<svg xmlns="http://www.w3.org/2000/svg" xmlns:xlink="http://www.w3.org/1999/xlink" version="1.1" viewBox="-10 0 1034 1024">
   <path fill="currentColor"
d="M672 883c22 0 44 -4 58 -10v-32c-44 0 -88 -30 -120 -64c-54 -58 -126 -154 -186 -260c100 -24 172 -116 172 -208c0 -138 -106 -202 -246 -202c-72 0 -130 4 -184 4h-128v34l46 8c32 8 52 22 52 98v480c0 76 -20 90 -52 96l-46 8v38c34 -2 92 -4 148 -4s126 2 158 4v-36
l-64 -8c-34 -6 -50 -20 -50 -96v-204c30 2 54 2 94 2c74 132 144 234 184 280c38 44 94 72 164 72zM318 475c-42 0 -60 0 -88 -4v-306c28 -2 64 -2 98 -2c104 0 164 54 164 150c0 98 -66 162 -174 162zM690 167c0 -6 -2 -14 -2 -22c-2 -8 -2 -20 -2 -32s-2 -26 -2 -42
s0 -32 2 -44c0 -12 0 -22 2 -30c0 -8 2 -16 2 -22l6 -18c10 -32 26 -56 52 -72c24 -18 52 -26 88 -26c18 0 34 2 48 6c16 4 28 10 40 18c10 6 20 16 28 26s14 20 20 30c2 4 0 8 -2 10l-44 18c-4 2 -6 0 -8 -4c-10 -18 -18 -30 -34 -40c-14 -8 -26 -12 -48 -12
c-24 0 -34 4 -48 14s-26 24 -32 44c-2 4 -2 8 -4 12c-2 6 -2 12 -4 20v28c0 12 -2 24 -2 40s0 28 2 40v28c2 6 2 14 4 18c0 6 2 10 4 14c6 20 16 30 28 40c14 8 30 14 52 14c20 0 40 -6 52 -14c12 -10 22 -22 28 -38c2 -6 4 -16 6 -26s2 -20 2 -36c0 -2 -2 -4 -4 -4h-72
c-4 0 -6 -2 -6 -6v-42c0 -4 2 -6 6 -6h132c4 0 6 2 6 6v38c0 18 0 36 -2 50c-2 16 -4 30 -8 40c-10 32 -24 54 -50 72c-24 16 -54 24 -90 24c-34 0 -64 -8 -88 -24s-40 -40 -52 -72c-2 -4 -4 -12 -6 -18z" />
</svg>
