<?xml version="1.0" encoding="UTF-8"?>
<svg width="1024px" height="491px" viewBox="0 0 1024 491" version="1.1" xmlns="http://www.w3.org/2000/svg" xmlns:xlink="http://www.w3.org/1999/xlink">
  <g id="ResidentAdvisor" transform="translate(0, 0.0926)" fill="currentColor" fill-rule="nonzero">
    <path d="M0,308 L0,0 L316,0 C322,2 326,2 330,2 C342,4 354,6 364,8 C388,12 410,22 430,34 C448,44 466,56 482,72 C518,108 552,144 588,180 C590,180 592,182 592,182 C564,212 534,240 506,270 C472,236 438,200 404,168 C390,152 374,142 356,134 C342,128 328,126 312,126 L128,126 L124,126 L124,186 L130,186 L300,186 C304,186 310,186 314,188 C330,190 346,196 358,210 L490,342 L506,358 C516,366 528,370 540,370 L862,370 L866,370 C790,292 714,216 638,140 C668,112 696,84 724,54 C724,54 726,56 728,56 C822,152 918,248 1012,342 C1016,346 1018,348 1020,352 C1022,356 1022,360 1024,366 L1024,370 L1022,372 C1022,382 1018,388 1012,394 L932,474 C924,482 916,486 906,488 C902,490 900,490 894,490 L496,490 C492,490 490,490 488,488 C472,486 458,480 446,468 C398,422 352,372 304,324 C290,312 276,306 258,306 C172,308 86,308 0,308 Z"></path>
  </g>
</svg>