<?xml version="1.0" standalone="no"?>
<!DOCTYPE svg PUBLIC "-//W3C//DTD SVG 1.1//EN" "http://www.w3.org/Graphics/SVG/1.1/DTD/svg11.dtd" >
<svg xmlns="http://www.w3.org/2000/svg" xmlns:xlink="http://www.w3.org/1999/xlink" version="1.1" viewBox="-10 0 1044 1024">
   <path fill="currentColor"
d="M0 433v-308h316c6 2 10 2 14 2c12 2 24 4 34 6c24 4 46 14 66 26c18 10 36 22 52 38c36 36 70 72 106 108c2 0 4 2 4 2c-28 30 -58 58 -86 88c-34 -34 -68 -70 -102 -102c-14 -16 -30 -26 -48 -34c-14 -6 -28 -8 -44 -8h-184h-4v60h6h170c4 0 10 0 14 2c16 2 32 8 44 22
l132 132l16 16c10 8 22 12 34 12h322h4c-76 -78 -152 -154 -228 -230c30 -28 58 -56 86 -86c0 0 2 2 4 2c94 96 190 192 284 286c4 4 6 6 8 10s2 8 4 14v4l-2 2c0 10 -4 16 -10 22l-80 80c-8 8 -16 12 -26 14c-4 2 -6 2 -12 2h-398c-4 0 -6 0 -8 -2c-16 -2 -30 -8 -42 -20
c-48 -46 -94 -96 -142 -144c-14 -12 -28 -18 -46 -18c-86 2 -172 2 -258 2z" />
</svg>
