<?xml version="1.0" encoding="UTF-8"?>
<svg width="954px" height="868px" viewBox="0 0 954 868" version="1.1" xmlns="http://www.w3.org/2000/svg" xmlns:xlink="http://www.w3.org/1999/xlink">
  <g id="Retrospring" transform="translate(0.1012, 0.6137)" fill="currentColor" fill-rule="nonzero">
    <path d="M469.561873,444.145792 C388.703473,444.145792 344.620873,363.741492 342.766873,360.455392 C341.522733,358.191722 340.790313,355.493482 340.790313,352.625312 C340.790313,343.511052 348.178983,336.123312 357.292313,336.123312 C363.537433,336.123312 368.972013,339.592062 371.773713,344.708272 L371.816682,344.79421 C372.410432,345.91237 409.921182,413.34791 472.706682,411.21511 C539.931282,408.87331 563.073882,365.56081 569.892182,347.06761 C572.089452,340.36156 578.290622,335.60181 585.605082,335.60181 C594.718362,335.60181 602.105082,342.98951 602.105082,352.10181 C602.105082,354.39869 601.636332,356.58423 600.788672,358.57154 L600.829687,358.463142 C593.838477,377.795142 563.528887,441.070542 473.860687,444.215142 L469.561873,444.145792 Z M416.599873,268.410792 C416.599873,281.365892 406.097873,291.867792 393.142873,291.867792 C380.187873,291.867792 369.685873,281.365792 369.685873,268.410792 C369.685873,255.455792 380.187873,244.953792 393.142873,244.953792 C406.097873,244.953792 416.599873,255.455792 416.599873,268.410792 Z M575.590873,268.410792 C575.590873,281.365892 565.088873,291.867792 552.133873,291.867792 C539.178873,291.867792 528.676873,281.365792 528.676873,268.410792 C528.676873,255.455792 539.178873,244.953792 552.133873,244.953792 C565.088873,244.953792 575.590873,255.455792 575.590873,268.410792 Z M865.430873,867.318792 L865.256068,867.318792 C860.822478,867.318792 856.445518,867.077581 852.138868,866.607854 L852.672071,866.654729 C815.825371,862.774849 781.985571,842.184029 757.270671,808.239729 C748.821451,809.391099 739.057771,810.047349 729.139771,810.047349 C726.148561,810.047349 723.171021,809.986802 720.208131,809.869615 L720.634889,809.883287 C657.429789,807.611807 593.874889,778.840287 558.811889,736.470187 C553.806029,730.496557 548.999389,723.878387 544.666389,716.935987 L544.234748,716.193799 C458.690848,731.330499 380.454748,716.857861 322.108748,674.768999 C277.550148,642.226999 244.483748,596.306099 228.662448,542.967999 L228.2103,541.192609 C196.7474,545.248269 125.7123,547.240459 63.9053,497.214109 C24.7315,464.368409 7.10542736e-14,415.405509 7.10542736e-14,360.666109 C7.10542736e-14,305.926709 24.7314,256.965109 63.6309,224.343109 L63.906291,224.1185 C125.608391,174.0921 196.748291,176.0853 228.211291,180.141 C259.219091,74.287 356.683291,2.84217094e-14 466.523291,2.84217094e-14 L476.137551,2.84217094e-14 C586.011551,2.84217094e-14 683.406551,74.2871 714.449551,180.28 C745.911451,176.22434 816.947551,174.23215 878.754551,224.2575 C918.678351,257.1061 943.941051,306.5192 943.941051,361.8305 C943.941051,368.11761 943.614879,374.3285 942.97816,380.4477 L943.041637,379.683052 C935.631477,448.445752 886.025037,508.015052 816.632637,531.507052 L806.145337,500.254152 C863.407037,480.886952 904.308437,432.155552 910.322337,376.152152 C910.79011,371.791802 911.057689,366.733202 911.057689,361.612152 C911.057689,316.679552 890.516689,276.541852 858.310589,250.083152 L858.059612,249.882957 C790.171912,195.103657 707.109612,214.924957 706.270612,215.133957 L689.945412,219.190597 L686.205182,202.758997 C663.797982,103.756097 575.876182,33.000997 476.141182,33.000997 L470.967352,33.000997 C369.587352,30.938497 279.186352,102.253897 256.462352,202.724997 L252.722122,219.155697 L236.396922,215.100037 C235.593211,215.100037 151.936922,195.417437 84.8169216,249.849037 C53.1118216,276.593137 33.1099216,316.348037 33.1099216,360.772037 C33.1099216,405.196037 53.1109216,444.948837 84.6001216,471.517037 L84.8169186,471.694771 C152.356919,526.475071 235.557919,506.652771 236.396919,506.443771 L252.722119,502.387131 L256.462349,518.818731 C268.659649,572.295331 299.136149,617.225931 340.828549,647.734731 L341.44476,648.163442 C403.14686,692.665442 477.46876,692.945642 528.85676,685.394842 C503.65166,620.861642 512.35676,543.043842 555.45926,491.654842 C572.66726,470.419442 596.94856,455.510342 624.67606,450.508342 L625.377232,450.40385 C672.991532,443.06303 718.681932,473.96435 731.651232,522.31405 C734.357282,531.56796 735.912952,542.19885 735.912952,553.19295 C735.912952,575.63145 729.428572,596.55625 718.230352,614.19395 L718.506719,613.730083 C688.827019,663.022083 627.614119,694.553283 578.672719,708.571883 C580.385609,710.949813 582.166859,713.255473 584.090689,715.564073 C612.965689,750.347273 668.305489,774.992773 721.757689,776.950773 C727.316279,777.160734 733.258689,776.950773 739.516489,776.776945 C715.045789,718.255445 720.393489,639.460945 771.956889,591.496945 C787.945189,576.273345 809.630689,566.907145 833.503789,566.907145 C841.548709,566.907145 849.346589,567.970625 856.762589,569.964765 L856.137589,569.822187 C884.324089,577.599527 906.148289,599.155187 914.160989,626.602487 L914.307473,627.188425 C926.367073,666.272425 912.209813,710.599525 875.433473,748.809425 C853.368073,772.066225 825.768473,789.855325 794.733273,800.082825 L793.351433,800.478333 C811.110233,819.810333 832.958833,831.590633 856.277233,834.038833 C859.017463,834.311294 862.200083,834.464614 865.418833,834.464614 C890.872933,834.464614 914.066333,824.783954 931.517433,808.902114 L931.438331,808.973403 L953.637531,833.444103 C930.349431,854.396203 899.401231,867.237103 865.452931,867.318792 L865.436329,867.318792 L865.432423,867.318792 L865.430873,867.318792 Z M833.967873,599.711792 C818.650473,599.895386 804.786273,605.974492 794.511773,615.779192 L794.534234,615.757708 C752.025434,655.191308 750.172934,724.444708 773.559634,771.602708 C804.527434,763.566578 831.030334,747.537308 851.624134,725.842908 L851.691517,725.772595 C865.047017,711.789195 894.760817,675.466895 882.840917,636.733495 C878.083107,619.537195 864.805717,606.270595 847.953217,601.613395 L847.602631,601.530387 C843.530361,600.375117 838.854581,599.711792 834.021531,599.711792 L833.928757,599.711792 L833.93364,599.711792 L833.96782,599.711792 L833.967873,599.711792 Z M639.039873,482.425792 C636.017413,482.426769 633.048663,482.655284 630.149253,483.095714 L630.475425,483.054698 C610.246925,486.978529 593.011525,497.707999 580.853325,512.716798 L580.730278,512.873048 C544.582778,555.836949 538.465678,624.461049 561.956878,678.926048 C608.907078,667.179948 665.607878,637.746348 690.324878,596.703348 C698.206718,584.316648 702.887378,569.220948 702.887378,553.033448 C702.887378,545.132078 701.772148,537.492448 699.691088,530.260048 L699.833666,530.840126 C692.282886,502.279626 666.448866,482.423126 639.040666,482.423126 L639.039873,482.425792 Z"></path>
  </g>
</svg>