<?xml version="1.0" standalone="no"?>
<!DOCTYPE svg PUBLIC "-//W3C//DTD SVG 1.1//EN" "http://www.w3.org/Graphics/SVG/1.1/DTD/svg11.dtd" >
<svg xmlns="http://www.w3.org/2000/svg" xmlns:xlink="http://www.w3.org/1999/xlink" version="1.1" viewBox="-10 0 1034 1024">
   <path fill="currentColor"
d="M504.748 381.486c-80.8584 0 -124.941 -80.4043 -126.795 -83.6904c-1.24414 -2.26367 -1.97656 -4.96191 -1.97656 -7.83008c0 -9.11426 7.38867 -16.502 16.502 -16.502c6.24512 0 11.6797 3.46875 14.4814 8.58496l0.0429688 0.0859375
c0.59375 1.11816 38.1045 68.5537 100.89 66.4209c67.2246 -2.3418 90.3672 -45.6543 97.1855 -64.1475c2.19727 -6.70605 8.39844 -11.4658 15.7129 -11.4658c9.11328 0 16.5 7.3877 16.5 16.5c0 2.29688 -0.46875 4.48242 -1.31641 6.46973l0.0410156 -0.108398
c-6.99121 19.332 -37.3008 82.6074 -126.969 85.752zM451.786 205.751c0 12.9551 -10.502 23.457 -23.457 23.457s-23.457 -10.502 -23.457 -23.457s10.502 -23.457 23.457 -23.457s23.457 10.502 23.457 23.457zM610.777 205.751c0 12.9551 -10.502 23.457 -23.457 23.457
s-23.457 -10.502 -23.457 -23.457s10.502 -23.457 23.457 -23.457s23.457 10.502 23.457 23.457zM900.617 804.659h-0.174805c-4.43359 0 -8.81055 -0.241211 -13.1172 -0.710938l0.533203 0.046875c-36.8467 -3.87988 -70.6865 -24.4707 -95.4014 -58.415
c-8.44922 1.15137 -18.2129 1.80762 -28.1309 1.80762c-2.99121 0 -5.96875 -0.0605469 -8.93164 -0.177734l0.426758 0.0136719c-63.2051 -2.27148 -126.76 -31.043 -161.823 -73.4131c-5.00586 -5.97363 -9.8125 -12.5918 -14.1455 -19.5342l-0.431641 -0.742188
c-85.5439 15.1367 -163.78 0.664062 -222.126 -41.4248c-44.5586 -32.542 -77.625 -78.4629 -93.4463 -131.801l-0.452148 -1.77539c-31.4629 4.05566 -102.498 6.04785 -164.305 -43.9785c-39.1738 -32.8457 -63.9053 -81.8086 -63.9053 -136.548
s24.7314 -103.701 63.6309 -136.323l0.275391 -0.224609c61.7021 -50.0264 132.842 -48.0332 164.305 -43.9775c31.0078 -105.854 128.472 -180.141 238.312 -180.141h9.61426c109.874 0 207.269 74.2871 238.312 180.28c31.4619 -4.05566 102.498 -6.04785 164.305 43.9775
c39.9238 32.8486 65.1865 82.2617 65.1865 137.573c0 6.28711 -0.326172 12.498 -0.962891 18.6172l0.0634766 -0.764648c-7.41016 68.7627 -57.0166 128.332 -126.409 151.824l-10.4873 -31.2529c57.2617 -19.3672 98.1631 -68.0986 104.177 -124.102
c0.467773 -4.36035 0.735352 -9.41895 0.735352 -14.54c0 -44.9326 -20.541 -85.0703 -52.7471 -111.529l-0.250977 -0.200195c-67.8877 -54.7793 -150.95 -34.958 -151.789 -34.749l-16.3252 4.05664l-3.74023 -16.4316
c-22.4072 -99.0029 -110.329 -169.758 -210.064 -169.758h-5.17383c-101.38 -2.0625 -191.781 69.2529 -214.505 169.724l-3.74023 16.4307l-16.3252 -4.05566c-0.803711 0 -84.46 -19.6826 -151.58 34.749c-31.7051 26.7441 -51.707 66.499 -51.707 110.923
s20.001 84.1768 51.4902 110.745l0.216797 0.177734c67.54 54.7803 150.741 34.958 151.58 34.749l16.3252 -4.05664l3.74023 16.4316c12.1973 53.4766 42.6738 98.4072 84.3662 128.916l0.616211 0.428711c61.7021 44.502 136.024 44.7822 187.412 37.2314
c-25.2051 -64.5332 -16.5 -142.351 26.6025 -193.74c17.208 -21.2354 41.4893 -36.1445 69.2168 -41.1465l0.701172 -0.104492c47.6143 -7.34082 93.3047 23.5605 106.274 71.9102c2.70605 9.25391 4.26172 19.8848 4.26172 30.8789
c0 22.4385 -6.48438 43.3633 -17.6826 61.001l0.276367 -0.463867c-29.6797 49.292 -90.8926 80.8232 -139.834 94.8418c1.71289 2.37793 3.49414 4.68359 5.41797 6.99219c28.875 34.7832 84.2148 59.4287 137.667 61.3867c5.55859 0.209961 11.501 0 17.7588 -0.173828
c-24.4707 -58.5215 -19.123 -137.316 32.4404 -185.28c15.9883 -15.2236 37.6738 -24.5898 61.5469 -24.5898c8.04492 0 15.8428 1.06348 23.2588 3.05762l-0.625 -0.142578c28.1865 7.77734 50.0107 29.333 58.0234 56.7803l0.146484 0.585938
c12.0596 39.084 -2.09766 83.4111 -38.874 121.621c-22.0654 23.2568 -49.665 41.0459 -80.7002 51.2734l-1.38184 0.395508c17.7588 19.332 39.6074 31.1123 62.9258 33.5605c2.74023 0.272461 5.92285 0.425781 9.1416 0.425781
c25.4541 0 48.6475 -9.68066 66.0986 -25.5625l-0.0791016 0.0712891l22.1992 24.4707c-23.2881 20.9521 -54.2363 33.793 -88.1846 33.874h-0.0166016h-0.00390625zM869.154 537.052c-15.3174 0.183594 -29.1816 6.2627 -39.4561 16.0674l0.0224609 -0.0214844
c-42.5088 39.4336 -44.3613 108.687 -20.9746 155.845c30.9678 -8.03613 57.4707 -24.0654 78.0645 -45.7598l0.0673828 -0.0703125c13.3555 -13.9834 43.0693 -50.3057 31.1494 -89.0391c-4.75781 -17.1963 -18.0352 -30.4629 -34.8877 -35.1201l-0.350586 -0.0830078
c-4.07227 -1.15527 -8.74805 -1.81836 -13.5811 -1.81836h-0.0927734h0.00488281h0.0341797zM674.226 419.766c-3.02246 0.000976562 -5.99121 0.229492 -8.89062 0.669922l0.326172 -0.0410156c-20.2285 3.92383 -37.4639 14.6533 -49.6221 29.6621l-0.123047 0.15625
c-36.1475 42.9639 -42.2646 111.588 -18.7734 166.053c46.9502 -11.7461 103.651 -41.1797 128.368 -82.2227c7.88184 -12.3867 12.5625 -27.4824 12.5625 -43.6699c0 -7.90137 -1.11523 -15.541 -3.19629 -22.7734l0.142578 0.580078
c-7.55078 -28.5605 -33.3848 -48.417 -60.793 -48.417z" />
</svg>
