<?xml version="1.0" encoding="UTF-8"?>
<svg width="1024px" height="981px" viewBox="0 0 1024 981" version="1.1" xmlns="http://www.w3.org/2000/svg" xmlns:xlink="http://www.w3.org/1999/xlink">
  <g id="ReverbNation" transform="translate(0, 0.0926)" fill="currentColor" fill-rule="nonzero">
    <path d="M1012,384 C914,454 818,524 718,596 C708,602 708,608 710,620 C748,734 786,850 824,966 C824,968 826,972 828,978 C822,974 818,970 814,968 C718,898 620,828 524,758 C516,752 508,750 500,758 C400,830 302,902 200,974 C198,976 196,976 192,980 C206,936 220,894 232,852 C258,772 284,694 310,614 C312,606 310,602 302,596 C204,526 108,456 10,384 C6,382 4,378 0,374 L26,374 L372,374 C384,374 390,372 394,360 C430,244 468,128 506,10 C506,8 508,6 510,0 C512,6 514,8 514,12 L628,360 C632,372 636,374 650,374 L1010,374 L1024,374 C1018,380 1016,382 1012,384 Z"></path>
  </g>
</svg>