<?xml version="1.0" standalone="no"?>
<!DOCTYPE svg PUBLIC "-//W3C//DTD SVG 1.1//EN" "http://www.w3.org/Graphics/SVG/1.1/DTD/svg11.dtd" >
<svg xmlns="http://www.w3.org/2000/svg" xmlns:xlink="http://www.w3.org/1999/xlink" version="1.1" viewBox="-10 0 1044 1024">
   <path fill="currentColor"
d="M1012 265c-98 70 -194 140 -294 212c-10 6 -10 12 -8 24c38 114 76 230 114 346c0 2 2 6 4 12c-6 -4 -10 -8 -14 -10c-96 -70 -194 -140 -290 -210c-8 -6 -16 -8 -24 0c-100 72 -198 144 -300 216c-2 2 -4 2 -8 6c14 -44 28 -86 40 -128c26 -80 52 -158 78 -238
c2 -8 0 -12 -8 -18c-98 -70 -194 -140 -292 -212c-4 -2 -6 -6 -10 -10h26h346c12 0 18 -2 22 -14c36 -116 74 -232 112 -350c0 -2 2 -4 4 -10c2 6 4 8 4 12l114 348c4 12 8 14 22 14h360h14c-6 6 -8 8 -12 10z" />
</svg>
