<?xml version="1.0" encoding="UTF-8"?>
<svg width="1021px" height="1025px" viewBox="0 0 1021 1025" version="1.1" xmlns="http://www.w3.org/2000/svg" xmlns:xlink="http://www.w3.org/1999/xlink">
  <g id="RSS" transform="translate(0.1938, 0.6075)" fill="currentColor" fill-rule="nonzero">
    <path d="M272,886 C272,962 212,1022 136,1022 C60,1022 0,962 0,886 C0,812 60,750 136,750 C212,750 272,812 272,886 Z M0,544 C128,544 248,594 338,684 C428,774 478,896 478,1024 L674,1024 C674,652 372,348 0,348 L0,544 Z M0,196 C454,196 824,568 824,1024 L1020,1024 C1020,460 562,0 0,0 L0,196 Z"></path>
  </g>
</svg>