<?xml version="1.0" encoding="UTF-8"?>
<svg width="250px" height="250px" viewBox="0 0 250 250" version="1.1" xmlns="http://www.w3.org/2000/svg" xmlns:xlink="http://www.w3.org/1999/xlink">
    <g stroke="none" stroke-width="1" fill="none" fill-rule="evenodd">
        <path d="M142.812494,16 L143.601073,16 L144.869952,16.0293671 L145.389309,16.0510712 C177.669791,17.4000847 202.744701,44.6621775 201.395687,76.9426598 L199.938656,111.807894 L199.900539,112.596433 L199.862234,113.208 L199.917183,113.316639 C204.778637,123.115965 207.405934,133.997453 207.637026,145.388165 L207.650354,146.328557 L207.653735,147.039117 C207.653735,172.576124 195.338478,195.56224 174.443934,210.242656 C162.168854,218.867074 147.259143,224.308234 132.555445,225.380153 L132.330496,225.52558 C123.6444,231.161939 113.484438,234.47747 102.79203,234.893959 L102.055925,234.918167 L101.385987,234.932063 L100.845877,234.939002 L100.21878,234.939002 L99.462343,234.93166 L98.9394014,234.917701 C66.642248,234.055577 41.1591216,207.174671 42.0212455,174.877518 L42.9929252,138.476151 C43.189368,131.11695 44.7085249,124.017552 47.4140953,117.458401 L47.512234,117.223 L47.5108605,117.209539 C45.8117681,99.0744393 47.2073861,83.4184711 52.5795538,69.1446461 L52.8711576,68.3812928 C62.8429096,42.6587229 85.1422352,25.2004774 112.533913,22.4065127 C113.892725,22.2679132 115.250146,22.1658842 116.605202,22.1005252 L116.955234,22.086 L117.086789,22.0201533 C124.589214,18.3203018 132.883885,16.2337803 141.464313,16.0184667 L142.403014,16.0028523 L142.812494,16 Z M143.815446,49.0141025 L143.198897,49 L142.590125,49.0023218 C136.322687,49.0873816 130.578258,51.4419941 126.167103,55.2984567 L126.016376,55.4319368 L125.96412,55.4239044 C122.71976,54.9529738 119.350284,54.8824629 115.882555,55.236173 C100.876038,56.7668452 89.1383921,66.1259986 83.6400104,80.3093144 C79.8611128,90.0571457 79.0496487,101.643298 80.5250125,115.722993 C80.6640626,117.049977 80.9070466,118.364 81.2517261,119.652959 L81.3970044,120.18441 C81.6435888,121.067125 81.9124101,121.934631 82.2029694,122.786631 L82.2943758,123.047937 L82.0915702,123.277617 C78.4502943,127.480613 76.1510299,132.993545 75.9811745,139.356722 L75.0094948,175.75809 C74.6374552,189.695553 85.5207145,201.319071 99.3985252,201.914784 L100.017309,201.934719 L100.633899,201.939002 L100.83183,201.93646 L101.241231,201.927967 C109.004986,201.705549 115.913235,198.010807 120.446539,192.327495 L120.631376,192.090937 L121.133353,192.161261 C123.192884,192.434947 125.238827,192.57525 127.245689,192.57525 C136.718093,192.57525 147.196344,189.055879 155.472667,183.24097 C167.52515,174.772948 174.653735,161.868498 174.653735,147.039117 L174.650844,146.508293 C174.539099,136.265616 171.19098,127.18231 165.096456,120.001045 L164.853376,119.717937 L164.976129,119.434186 C166.133353,116.689052 166.832304,113.663554 166.967435,110.430014 L168.424466,75.56478 C169.006617,61.6345104 158.299858,49.8482125 144.432608,49.0433132 L143.815446,49.0141025 Z M142.955154,68.9999231 L143.17635,69.0048512 C146.211268,69.1316815 148.568738,71.6947843 148.441907,74.7297014 L146.984876,109.594936 C146.71808,115.979084 137.612512,116.851687 136.138098,110.634402 L135.87891,109.562873 C131.656006,92.447332 125.850595,85.3802743 119.028248,86.076157 C112.638146,86.7279506 109.599668,94.2492045 111.249338,111.428417 L111.309,112.038 L111.38312,112.283469 C112.964512,117.412588 116.568051,120.448507 122.910738,121.749816 L123.310729,121.828892 L125.546097,122.233122 C134.080376,123.80833 139.244438,125.316631 143.867161,128.017357 C150.836613,132.089109 154.653735,138.408026 154.653735,147.039117 C154.653735,155.407926 150.616791,162.20977 143.97493,166.876312 C138.861126,170.469249 132.352658,172.57525 127.245689,172.57525 C121.532739,172.57525 114.301408,170.437889 108.537723,166.299485 C107.971728,165.893093 107.422479,165.470571 106.890472,165.032025 L106.319415,164.549055 L105.998456,176.585293 C105.919379,179.547717 103.511963,181.900375 100.574898,181.93811 L100.353653,181.936573 C97.3171683,181.855519 94.9213188,179.328254 95.0023732,176.291769 L95.9740529,139.890402 C96.1671416,132.656851 106.972094,132.801037 106.972094,140.037164 C106.972094,148.17881 109.878087,153.72007 114.95338,157.364199 C118.767098,160.1025 123.749852,161.57525 127.245689,161.57525 C130.06291,161.57525 134.368738,160.181976 137.651174,157.87575 C141.527939,155.151953 143.653735,151.5702 143.653735,147.039117 C143.653735,138.920212 138.561892,135.781395 122.788321,132.911992 L121.798964,132.734805 C110.637295,130.766082 103.259106,124.531804 100.572848,114.486312 C100.498506,114.208301 100.446097,113.924885 100.416106,113.638673 C99.255733,102.564997 99.8183064,93.9085849 102.2878,87.5384184 C105.112245,80.2526393 110.521556,75.8867694 117.912034,75.1329369 C125.539819,74.3548991 131.802075,77.4372101 136.793483,83.9972559 L137.031415,84.3150548 L137.4515,74.2704081 C137.575237,71.3095134 140.017853,68.9934224 142.955154,68.9999231 Z" fill="currentColor" fill-rule="nonzero"></path>
    </g>
</svg>