<?xml version="1.0" encoding="UTF-8"?>
<svg width="1025px" height="1024px" viewBox="0 0 1025 1024" version="1.1" xmlns="http://www.w3.org/2000/svg" xmlns:xlink="http://www.w3.org/1999/xlink">
  <g id="Seedrs" transform="translate(0.7834, 0.0684)" fill="currentColor" fill-rule="nonzero">
    <path d="M875.630951,151.423447 C871.535251,180.095347 836.719851,398.207447 779.375051,592.768447 C759.918951,646.015547 737.391651,690.047747 712.815451,715.648447 C605.294451,822.144447 429.167451,818.047447 317.551451,706.431647 C205.935451,594.816647 201.838451,418.688647 308.334651,312.192647 C332.910851,287.616447 377.967451,265.088147 431.214651,245.632147 C625.775651,188.288347 843.887651,153.471947 872.559651,149.376247 C672.878651,-50.3037532 349.294651,-49.2797532 149.615651,149.376247 C-31.6323491,330.624247 -48.0163491,614.272247 99.4398509,814.976247 C112.751351,836.481147 129.136151,856.960647 147.567751,875.392247 C165.999351,893.824847 186.479851,910.208647 207.983751,923.521147 L207.983751,923.521147 C408.687751,1072.00015 692.335751,1055.61715 873.583751,873.344347 C1073.26475,674.689347 1074.28775,351.105347 875.631601,151.424347 L875.630951,151.423447 Z"></path>
  </g>
</svg>