<?xml version="1.0" standalone="no"?>
<!DOCTYPE svg PUBLIC "-//W3C//DTD SVG 1.1//EN" "http://www.w3.org/Graphics/SVG/1.1/DTD/svg11.dtd" >
<svg xmlns="http://www.w3.org/2000/svg" xmlns:xlink="http://www.w3.org/1999/xlink" version="1.1" viewBox="-11 0 1045 1024">
   <path fill="currentColor"
d="M875.52 10.5518c-4.0957 28.6719 -38.9111 246.784 -96.2559 441.345c-19.4561 53.2471 -41.9834 97.2793 -66.5596 122.88c-107.521 106.496 -283.648 102.399 -395.264 -9.2168c-111.616 -111.615 -115.713 -287.743 -9.2168 -394.239
c24.5762 -24.5762 69.6328 -47.1045 122.88 -66.5605c194.561 -57.3438 412.673 -92.1602 441.345 -96.2559c-199.681 -199.68 -523.265 -198.656 -722.944 0c-181.248 181.248 -197.632 464.896 -50.1758 665.6c13.3115 21.5049 29.6963 41.9844 48.1279 60.416
c18.4316 18.4326 38.9121 34.8164 60.416 48.1289v0c200.704 148.479 484.352 132.096 665.6 -50.1768c199.681 -198.655 200.704 -522.239 2.04785 -721.92z" />
</svg>
