<?xml version="1.0" standalone="no"?>
<!DOCTYPE svg PUBLIC "-//W3C//DTD SVG 1.1//EN" "http://www.w3.org/Graphics/SVG/1.1/DTD/svg11.dtd" >
<svg xmlns="http://www.w3.org/2000/svg" xmlns:xlink="http://www.w3.org/1999/xlink" version="1.1" viewBox="-10 0 1044 1024">
   <path fill="currentColor"
d="M0 433.464c0 -242.688 195.584 -393.216 411.648 -442.368c44.0312 5.12012 54.2715 62.4639 25.5996 80.8965c-94.208 33.792 -221.184 119.808 -221.184 242.688c0 109.568 80.8955 145.408 143.359 161.792c44.0322 13.3125 77.8242 54.2725 77.8242 114.688
c0 88.0635 -80.8965 161.792 -180.224 161.792c-105.473 -2.04785 -257.024 -93.1846 -257.024 -319.488zM570.368 433.464c0 -242.688 195.584 -393.216 411.647 -442.368c44.0322 5.12012 54.2725 62.4639 25.6006 80.8965
c-94.208 33.792 -221.185 119.808 -221.185 242.688c0 109.568 80.8965 145.408 143.36 161.792c44.0322 13.3125 77.8242 54.2725 77.8242 114.688c0 88.0635 -80.8965 161.792 -180.225 161.792c-105.472 -2.04785 -257.023 -93.1846 -257.023 -319.488z" />
</svg>
