<?xml version="1.0" encoding="UTF-8"?>
<svg width="1024px" height="762px" viewBox="0 0 1024 762" version="1.1" xmlns="http://www.w3.org/2000/svg" xmlns:xlink="http://www.w3.org/1999/xlink">
  <g id="SeenThis" transform="translate(-0.0066, 0.0684)" fill="currentColor" fill-rule="nonzero">
    <path d="M0,442.368 C0,199.68 195.5852,49.152 411.6492,0 C455.6804,5.12012 465.9207,62.4639 437.2488,80.8965 C343.0408,114.6885 216.0648,200.7045 216.0648,323.5845 C216.0648,433.1525 296.9603,468.9925 359.4238,485.3765 C403.456,498.689 437.248,539.649 437.248,600.0645 C437.248,688.128 356.3515,761.8565 257.024,761.8565 C151.551,759.80865 0,668.6719 0,442.3685 L0,442.368 Z M570.368,442.368 C570.368,199.68 765.9532,49.152 982.0162,0 C1026.0484,5.12012 1036.2887,62.4639 1007.6168,80.8965 C913.4088,114.6885 786.4318,200.7045 786.4318,323.5845 C786.4318,433.1525 867.3283,468.9925 929.7918,485.3765 C973.824,498.689 1007.616,539.649 1007.616,600.0645 C1007.616,688.128 926.7195,761.8565 827.391,761.8565 C721.919,759.80865 570.368,668.6719 570.368,442.3685 L570.368,442.368 Z"></path>
  </g>
</svg>