<?xml version="1.0" standalone="no"?>
<!DOCTYPE svg PUBLIC "-//W3C//DTD SVG 1.1//EN" "http://www.w3.org/Graphics/SVG/1.1/DTD/svg11.dtd" >
<svg xmlns="http://www.w3.org/2000/svg" xmlns:xlink="http://www.w3.org/1999/xlink" version="1.1" viewBox="-10 0 1034 1024">
   <path fill="currentColor"
d="M403.159 454.643c-1.07129 -9.9043 -8.9668 -10.9756 -14.4541 -14.1875c-18.2012 -10.5742 -36.8037 -20.6133 -55.2734 -30.7852l-30.1123 -16.4629c-11.376 -6.29102 -22.8867 -12.3145 -34.2617 -18.873c-14.0527 -8.03125 -28.1045 -15.9277 -41.6221 -24.8955
c-25.2949 -16.7314 -45.2354 -38.9502 -61.9648 -64.3818c-11.1074 -16.8643 -19.8066 -34.9336 -25.6953 -54.0732c-8.96777 -29.0449 -14.4541 -59.0273 -10.4395 -89.4102c2.40918 -18.7393 6.15625 -37.4775 12.9824 -55.6816
c10.4385 -27.8398 25.8301 -51.9326 45.7705 -73.3477c13.1162 -14.1875 28.373 -25.5654 44.7002 -35.8711c19.6738 -12.4482 41.0869 -20.6133 63.4365 -25.4307c18.4697 -4.01562 37.6074 -5.75488 56.4785 -5.88965c120.315 -0.53418 240.499 -0.401367 360.814 0
c16.8633 0 34.1289 1.33887 50.4551 5.48828c32.5225 8.29883 61.1621 24.3604 84.3154 49.5244c14.9893 16.3291 27.3018 34.5332 34.5293 55.1445c9.76953 27.7061 16.4619 56.3506 8.9668 86.1982c-2.81152 11.377 -3.61426 23.4229 -8.16406 33.9971
c-6.29004 14.5889 -14.4541 28.376 -23.0195 41.7598c-11.6436 18.0693 -27.4355 32.5254 -46.0381 43.0996c-13.5176 7.62891 -28.1055 13.6514 -42.8271 19.1396c-24.2246 8.96777 -49.7861 6.69238 -75.0811 6.95996c-23.0195 0.267578 -46.1729 0 -69.1924 0.133789
c-2.27441 0 -4.5498 1.60645 -6.82617 2.54297c1.74023 2.40918 2.81152 5.75488 5.2207 7.09375c18.0674 10.4404 36.4023 20.6133 54.6035 30.6514c14.7217 8.03125 29.8447 15.6602 44.4326 23.959c20.3438 11.377 40.418 23.2891 60.6279 34.9336
c25.8291 14.8574 46.5732 35.3369 63.9717 59.2949c12.9814 17.8018 23.0186 37.3428 30.7822 58.2236c8.16406 22.2188 12.3125 45.2402 13.9189 68.6641c0.805664 12.1797 -0.9375 24.7617 -2.54297 36.9414c-1.60645 12.1807 -3.61426 24.6289 -7.49512 36.2734
c-4.41699 13.6523 -9.9043 27.0371 -16.5957 39.6191c-11.2412 21.0137 -26.2305 39.3506 -43.8965 55.4131c-16.9971 15.3916 -35.8672 27.5732 -56.7451 36.9414c-30.6475 13.7861 -62.7676 19.2744 -95.8252 19.4082
c-120.049 0.402344 -240.097 0.268555 -360.146 -0.133789c-16.8633 0 -34.1279 -1.33789 -50.4551 -5.21973c-32.7891 -7.62891 -61.2959 -24.0938 -84.7168 -48.7217c-15.5254 -16.4629 -27.0342 -35.4697 -35.6006 -56.082
c-3.61426 -8.56543 -5.48633 -18.0684 -7.22656 -27.3047c-2.00781 -10.8418 -3.74707 -21.8174 -4.14941 -32.793c-0.799805 -21.0137 3.74707 -41.3594 10.9746 -60.7666c10.9736 -29.4463 29.042 -54.3428 53.8008 -73.8848
c13.3828 -10.5732 28.5068 -18.3369 44.2988 -25.1621c22.2158 -9.6377 45.5029 -10.8428 68.79 -11.3779c29.3096 -0.668945 58.7529 -0.133789 88.1963 -0.133789c2.54297 -0.133789 5.21973 -0.401367 8.29785 -0.535156v0h0.000976562zM532.384 -3.71094v0
c-64.6875 0.133789 -129.375 -0.802734 -194.062 0.668945c-18.0801 0.401367 -36.6963 5.21875 -53.7051 11.6426c-19.9551 7.49414 -37.6338 19.5381 -53.4385 34.5273c-27.0537 25.4268 -43.125 56.4736 -49.8213 92.2051
c-4.82129 25.4268 -1.875 50.9873 5.49023 75.6113c5.49121 18.334 14.0635 35.3301 24.7773 51.3877c19.8213 29.709 47.8125 49.1133 78.2139 65.8418c14.7324 8.16309 29.7324 15.9248 44.4639 24.0879c18.0801 10.0371 36.0273 20.207 54.1074 30.2441
c17.5449 9.76953 35.0889 19.4053 52.5 29.04c12.9912 7.09277 25.9814 14.3193 38.9727 21.5459c3.88379 2.1416 5.49121 0.268555 6.02734 -3.21191c0.401367 -2.67578 0.401367 -5.35254 0.401367 -8.16309v-78.6885c0 -26.6309 0.134766 -53.3965 0 -80.0273
c0 -8.83203 2.27734 -17.1289 10.1797 -21.5459c4.6875 -2.67578 10.9814 -3.74707 16.6064 -3.74707c67.3662 -0.267578 134.866 -0.267578 202.232 -0.133789c26.5176 0 51.2949 -5.88867 73.7949 -20.207c30.9375 -19.8066 48.6162 -48.5781 54.375 -84.1748
c4.55371 -27.835 -1.33887 -54.7344 -16.6074 -78.2871c-23.8389 -36.8027 -58.3926 -57.5439 -102.456 -58.3477c-64.0176 -1.07031 -128.035 -0.267578 -192.054 -0.267578v0zM491.07 745.864c60.3828 0 120.767 -0.267578 181.149 0.135742
c25.3057 0.130859 49.0029 -5.21777 72.165 -14.8457c24.6348 -10.2969 44.9863 -26.4785 61.9902 -46.6699c12.1836 -14.4424 21.6904 -30.623 27.8486 -48.8105c5.62305 -16.582 9.9082 -33.0303 9.77734 -50.6816
c-0.136719 -13.7744 0.264648 -27.4141 -4.55469 -40.7861c-3.48145 -9.62793 -4.55273 -20.3262 -8.56934 -29.5527c-5.22168 -11.9023 -11.916 -23.1357 -18.7441 -34.1006c-17.2705 -27.8145 -42.71 -46.4023 -70.6924 -62.0488
c-14.1924 -7.88965 -28.3848 -15.5117 -42.5762 -23.4023c-13.79 -7.62109 -27.3135 -15.6455 -41.1035 -23.2676c-14.9951 -8.15723 -30.125 -15.9131 -45.1201 -24.0713c-22.2246 -12.1689 -44.3164 -24.6055 -66.6758 -36.7744
c-6.55957 -3.61133 -8.16699 -2.54102 -8.56836 5.21484c-0.134766 2.6748 -0.134766 5.48242 -0.134766 8.15723v153.116c0 19.791 -7.49805 27.2803 -27.3125 27.2803c-63.7305 0.133789 -127.596 -0.133789 -191.325 0.267578
c-14.0576 0.133789 -28.25 1.87207 -42.3076 3.74316c-22.0918 2.94238 -40.8359 13.2393 -57.3047 28.083c-22.7607 20.7285 -36.1494 46.4033 -39.3623 76.8936c-1.47363 14.5762 -0.536133 29.0186 3.88281 43.4609c4.9541 16.4482 12.3174 31.292 23.4297 44.1299
c25.7061 29.5527 58.1074 44.5312 97.3359 44.5312c62.3926 0.135742 124.516 0 186.773 0z" />
</svg>
