<?xml version="1.0" encoding="UTF-8"?>
<svg width="768px" height="853px" viewBox="0 0 768 853" version="1.1" xmlns="http://www.w3.org/2000/svg" xmlns:xlink="http://www.w3.org/1999/xlink">
  <g id="Session" transform="translate(0.834, 0.4253)" fill="currentColor" fill-rule="nonzero">
    <path d="M275.158845,509.64263 C274.087555,499.73833 266.192045,498.66703 260.704745,495.45513 C242.503545,484.88093 223.901045,474.84183 205.431345,464.66993 L175.319045,448.20703 C163.943045,441.91601 152.432345,435.89253 141.057345,429.33403 C127.004645,421.30278 112.952845,413.40633 99.4352447,404.43853 C74.1403447,387.70713 54.1998447,365.48833 37.4704447,340.05673 C26.3630447,323.19243 17.6638447,305.12313 11.7751447,285.98353 C2.8073747,256.93863 -2.6789553,226.95623 1.3356447,196.57333 C3.7448247,177.83403 7.4918947,159.09583 14.3180447,140.89173 C24.7565447,113.05193 40.1481447,88.9591303 60.0885447,67.5440303 C73.2047447,53.3565303 88.4615447,41.9786303 104.788745,31.6729303 C124.462545,19.2247303 145.875645,11.0596303 168.225245,6.24223032 C186.694945,2.22661032 205.832645,0.487350317 224.703745,0.352580317 C345.018745,-0.181599683 465.202745,-0.0487866831 585.517745,0.352580317 C602.381045,0.352580317 619.646645,1.69145032 635.972845,5.84086032 C668.495345,14.1396903 697.134945,30.2012603 720.288245,55.3652603 C735.277545,71.6943603 747.590045,89.8984603 754.817545,110.50976 C764.587075,138.21586 771.279445,166.86036 763.784345,196.70796 C760.972825,208.08496 760.170085,220.13086 755.620285,230.70506 C749.330245,245.29396 741.166185,259.08106 732.600785,272.46486 C720.957185,290.53416 705.165285,304.99026 686.562685,315.56446 C673.045085,323.19337 658.457185,329.21586 643.735585,334.70406 C619.510985,343.67183 593.949485,341.39644 568.654485,341.66402 C545.634985,341.931598 522.481585,341.66402 499.462085,341.797809 C497.187675,341.797809 494.912285,343.404259 492.635915,344.340779 C494.376145,346.749959 495.447435,350.095659 497.856615,351.434529 C515.924015,361.874929 534.258915,372.047829 552.460115,382.085929 C567.181815,390.117179 582.304815,397.746129 596.892715,406.044929 C617.236515,417.421929 637.310715,429.334029 657.520615,440.978529 C683.349715,455.835929 704.093815,476.315429 721.492315,500.273429 C734.473715,518.075229 744.510915,537.616229 752.274515,558.497029 C760.438575,580.715829 764.587015,603.737229 766.193415,627.161129 C766.999317,639.340829 765.255915,651.922829 763.650445,664.102529 C762.043995,676.283229 760.036185,688.731429 756.155325,700.375929 C751.738335,714.028229 746.251025,727.413029 739.559625,739.995029 C728.318425,761.008729 713.329125,779.345629 695.663125,795.408129 C678.666025,810.799729 659.795925,822.981329 638.918025,832.349529 C608.270525,846.135629 576.150425,851.623929 543.092825,851.757729 C423.043825,852.160073 302.995825,852.026284 182.946825,851.62394 C166.083525,851.62394 148.818925,850.28605 132.491725,846.40421 C99.7026247,838.7753 71.1958247,822.31041 47.7749247,797.68251 C32.2495247,781.21961 20.7407247,762.21281 12.1743247,741.60051 C8.5600647,733.03508 6.6879947,723.53211 4.9477647,714.29581 C2.9399547,703.45401 1.2006947,692.47841 0.7983547,681.50281 C0,660.48911 4.5454247,640.14341 11.7729547,620.73621 C22.7465547,591.28991 40.8149547,566.39341 65.5737547,546.85141 C78.9565547,536.27821 94.0805547,528.51451 109.872555,521.68931 C132.088355,512.05161 155.375455,510.84651 178.662555,510.31141 C207.972155,509.642465 237.415455,510.177621 266.858855,510.177621 C269.401825,510.043832 272.078585,509.776254 275.156705,509.642465 L275.156705,509.642465 L275.157681,509.642465 L275.158845,509.64263 Z M404.383845,51.2886903 L404.383845,51.2886903 C339.696345,51.4224793 275.008845,50.4859563 210.321845,51.9576353 C192.241745,52.3590023 173.625545,57.1763853 156.616745,63.6002353 C136.661645,71.0943753 118.982945,83.1383353 103.178245,98.1275353 C76.1245447,123.554335 60.0532447,154.601135 53.3569447,190.332635 C48.5356547,215.759435 51.4819447,241.319935 58.8471747,265.943935 C64.3383847,284.277935 72.9106747,301.274035 83.6244747,317.331635 C103.445775,347.040635 131.436975,366.444935 161.838375,383.173435 C176.570775,391.336525 191.570775,399.098235 206.302275,407.261335 C224.382375,417.298435 242.329575,427.468335 260.409675,437.505435 C277.954575,447.274965 295.498575,456.910735 312.909675,466.545435 C325.900875,473.638205 338.891075,480.864735 351.882375,488.091335 C355.766165,490.232935 357.373585,488.35989 357.909715,484.879425 C358.311082,482.203645 358.311082,479.526885 358.311082,476.716335 L358.311082,398.027835 C358.311082,371.396935 358.445848,344.631335 358.311082,318.000535 C358.311082,309.168505 360.588422,300.871635 368.490782,296.454635 C373.178282,293.778855 379.472182,292.707565 385.097182,292.707565 C452.463382,292.439987 519.963182,292.439987 587.329182,292.573776 C613.846782,292.573776 638.624082,286.685106 661.124082,272.366776 C692.061582,252.560176 709.740282,223.788676 715.499082,188.191976 C720.052792,160.356976 714.160212,133.457576 698.891682,109.904876 C675.052782,73.1021763 640.499082,52.3609763 596.435682,51.5571763 C532.418082,50.4868663 468.400682,51.2895983 404.381682,51.2895983 L404.381682,51.2895983 L404.383845,51.2886903 Z M363.069845,800.86363 C423.452645,800.86363 483.836845,800.596052 544.218845,801.001718 C569.524545,801.130231 593.221745,795.781602 616.383845,786.153672 C641.018645,775.856772 661.370145,759.675172 678.374045,739.483772 C690.557645,725.041372 700.064445,708.860772 706.222645,690.673272 C711.845695,674.091272 716.130845,657.642972 716.002903,639.991672 C715.863266,626.217272 716.264633,612.577572 711.445295,599.205572 C707.963845,589.577642 706.892565,578.879372 702.875955,569.652872 C697.654275,557.750572 690.959955,546.517172 684.131855,535.552272 C666.861355,507.737772 641.421855,489.149972 613.439455,473.503472 C599.247055,465.613822 585.054655,457.991772 570.863255,450.101172 C557.073255,442.480082 543.549755,434.455672 529.759755,426.833572 C514.764655,418.676342 499.634755,410.920472 484.639655,402.762272 C462.415055,390.593372 440.323255,378.156772 417.963855,365.987872 C411.404285,362.376542 409.796865,363.446852 409.395495,371.202712 C409.260729,373.877512 409.260729,376.685132 409.260729,379.359942 L409.260729,532.475942 C409.260729,552.266942 401.762679,559.756242 381.948229,559.756242 C318.217729,559.890031 254.352229,559.622453 190.623229,560.02382 C176.565629,560.157609 162.373229,561.89589 148.315629,563.76698 C126.223829,566.70936 107.479729,577.00628 91.0109287,591.84998 C68.2502287,612.57848 54.8615287,638.25328 51.6486287,668.74358 C50.1749987,683.31978 51.1124957,697.76218 55.5314387,712.20448 C60.4855387,728.65268 67.8488387,743.49648 78.9611387,756.33438 C104.667239,785.88708 137.068539,800.86558 176.297039,800.86558 C238.689639,801.001718 300.813039,800.86558 363.070039,800.86558 L363.069845,800.86363 Z"></path>
  </g>
</svg>