<?xml version="1.0" encoding="UTF-8"?>
<svg width="1024px" height="961px" viewBox="0 0 1024 961" version="1.1" xmlns="http://www.w3.org/2000/svg" xmlns:xlink="http://www.w3.org/1999/xlink">
  <g id="SharePoint" transform="translate(0, 0.0926)" fill="currentColor" fill-rule="nonzero">
    <path d="M926.72,380.929 C919.55203,380.929 913.4085,381.95341 907.2639,382.97685 C882.6887,319.48955 834.5598,268.28885 773.1199,239.61785 C773.1199,235.52117 774.14334,231.42547 774.14334,227.32975 C774.14334,174.08175 731.13554,130.04945 676.86404,130.04945 C654.33574,130.04945 632.83184,138.24183 616.44804,150.52995 L616.44804,303.10495 C632.83184,316.41745 654.33574,323.58545 676.86404,323.58545 C709.63164,323.58545 739.32794,307.20165 756.73614,281.60105 C806.91194,306.17725 845.82404,349.18505 865.28014,402.43305 C843.77624,419.84125 829.44034,447.48965 829.44034,477.18505 C829.44034,507.90575 843.77624,535.55325 866.30364,552.96145 C846.84754,606.20945 806.91204,650.24175 756.73664,675.84145 C739.32844,650.24185 709.63214,633.85705 676.86454,633.85705 C654.33624,633.85705 632.83234,642.04943 616.44804,654.33755 L616.44804,806.91355 C632.83234,820.22505 654.33624,827.39305 676.86454,827.39305 C730.11254,827.39305 774.14384,784.38525 774.14384,730.11375 C774.14384,726.01707 774.14384,721.92137 773.1204,717.82565 C834.5599,688.12935 883.7124,635.90575 908.2884,571.39265 C914.43195,572.41706 920.5765,573.4405 926.72,573.4405 C979.968,573.4405 1024.0003,530.4327 1024.0003,476.1612 C1024.0003,423.9366 980.9925,380.9288 926.72,380.9288 L926.72,380.929 Z M0,858.113 L563.2,960.512 L563.2,0 L1.024,102.399 L0,858.113 Z M210.944,304.129 C250.8795,279.5528 299.0075,286.7208 343.04,292.8653 C344.06441,319.4893 344.06441,346.1133 345.08785,372.7374 C308.22355,361.4728 262.14355,337.921 232.44785,374.78525 C211.96735,429.05675 277.50355,449.53725 309.24765,478.20925 C371.71155,518.14475 376.83165,621.56825 318.46347,667.64825 C272.38337,701.44025 211.96747,687.10435 163.83947,666.62481 C162.81603,638.97641 162.81603,610.30451 161.79162,581.63261 C192.51132,604.16091 238.59142,637.95291 275.45562,607.23221 C304.12752,559.10431 247.80722,528.38451 215.03962,504.83321 C146.43122,464.89671 143.35992,349.18521 210.94392,304.12921 L210.944,304.129 Z"></path>
  </g>
</svg>