<?xml version="1.0" standalone="no"?>
<!DOCTYPE svg PUBLIC "-//W3C//DTD SVG 1.1//EN" "http://www.w3.org/Graphics/SVG/1.1/DTD/svg11.dtd" >
<svg xmlns="http://www.w3.org/2000/svg" xmlns:xlink="http://www.w3.org/1999/xlink" version="1.1" viewBox="-10 0 1044 1024">
   <path fill="currentColor"
d="M926.72 271.672c-7.16797 0 -13.3115 1.02441 -19.4561 2.04785c-24.5752 -63.4873 -72.7041 -114.688 -134.144 -143.359c0 -4.09668 1.02344 -8.19238 1.02344 -12.2881c0 -53.248 -43.0078 -97.2803 -97.2793 -97.2803c-22.5283 0 -44.0322 8.19238 -60.416 20.4805
v152.575c16.3838 13.3125 37.8877 20.4805 60.416 20.4805c32.7676 0 62.4639 -16.3838 79.8721 -41.9844c50.1758 24.5762 89.0879 67.584 108.544 120.832c-21.5039 17.4082 -35.8398 45.0566 -35.8398 74.752c0 30.7207 14.3359 58.3682 36.8633 75.7764
c-19.4561 53.248 -59.3916 97.2803 -109.567 122.88c-17.4082 -25.5996 -47.1045 -41.9844 -79.8721 -41.9844c-22.5283 0 -44.0322 8.19238 -60.416 20.4805v152.576c16.3838 13.3115 37.8877 20.4795 60.416 20.4795c53.248 0 97.2793 -43.0078 97.2793 -97.2793
c0 -4.09668 0 -8.19238 -1.02344 -12.2881c61.4395 -29.6963 110.592 -81.9199 135.168 -146.433c6.14355 1.02441 12.2881 2.04785 18.4316 2.04785c53.248 0 97.2803 -43.0078 97.2803 -97.2793c0 -52.2246 -43.0078 -95.2324 -97.2803 -95.2324zM0 748.856l563.2 102.399
v-960.512l-562.176 102.399zM210.944 194.872c39.9355 -24.5762 88.0635 -17.4082 132.096 -11.2637c1.02441 26.624 1.02441 53.248 2.04785 79.8721c-36.8643 -11.2646 -82.9443 -34.8164 -112.64 2.04785c-20.4805 54.2715 45.0557 74.752 76.7998 103.424
c62.4639 39.9355 67.584 143.359 9.21582 189.439c-46.0801 33.792 -106.496 19.4561 -154.624 -1.02344c-1.02344 -27.6484 -1.02344 -56.3203 -2.04785 -84.9922c30.7197 22.5283 76.7998 56.3203 113.664 25.5996c28.6719 -48.1279 -27.6484 -78.8477 -60.416 -102.399
c-68.6084 -39.9365 -71.6797 -155.648 -4.0957 -200.704z" />
</svg>
