<?xml version="1.0" standalone="no"?>
<!DOCTYPE svg PUBLIC "-//W3C//DTD SVG 1.1//EN" "http://www.w3.org/Graphics/SVG/1.1/DTD/svg11.dtd" >
<svg xmlns="http://www.w3.org/2000/svg" xmlns:xlink="http://www.w3.org/1999/xlink" version="1.1" viewBox="-10 0 1044 1024">
   <path fill="currentColor"
d="M362 371c0 4 -2 8 -2 10l368 184c30 -28 70 -44 114 -44c100 0 180 82 180 180c0 102 -80 182 -180 182s-180 -80 -180 -182c0 -4 2 -6 2 -10l-368 -182c-30 26 -70 42 -114 42c-102 0 -182 -80 -182 -180s80 -182 180 -182c44 0 86 18 116 44l366 -184v-10
c0 -100 82 -180 182 -180s180 80 180 180s-80 182 -180 182c-44 0 -86 -16 -116 -44l-368 184c0 2 2 6 2 10z" />
</svg>
