<?xml version="1.0" encoding="UTF-8"?>
<svg width="1025px" height="1025px" viewBox="0 0 1025 1025" version="1.1" xmlns="http://www.w3.org/2000/svg" xmlns:xlink="http://www.w3.org/1999/xlink">
  <g id="SheezyArt" transform="translate(0.7458, 0.0684)" fill="currentColor" fill-rule="nonzero">
    <path d="M870.4004,921.6 L716.7994,921.6 L716.7994,972.8002 C716.7994,1001.0775 739.7223,1024.0004 767.9996,1024.0004 L819.1998,1024.0004 C847.4762,1024.0004 870.4004,1001.0775 870.4004,972.8002 L870.4004,921.6 L870.4004,921.6 Z M307.2004,358.3994 L153.5994,358.3994 L153.5994,768 C153.5994,824.5537 199.4461,870.4 255.9994,870.4 L665.5994,870.4 L665.5994,716.799 L332.7994,716.799 C318.6607,716.799 307.1998,705.3381 307.1998,691.1994 L307.1998,358.3994 L307.2004,358.3994 Z M1024.0004,768 C1024.0004,739.7227 1001.0775,716.7998 972.8002,716.7998 L921.6,716.7998 L921.6,870.4008 L972.8002,870.4008 C1001.0775,870.4008 1024.0004,847.477 1024.0004,819.2006 L1024.0004,768.0004 L1024.0004,768 Z M870.401,256 C870.401,199.4463 824.5537,153.6 768.0004,153.6 L358.4004,153.6 L358.4004,307.201 L691.2004,307.201 C705.3391,307.201 716.8,318.6619 716.8,332.8006 L716.8,665.6006 L870.401,665.6006 L870.401,256.0006 L870.401,256 Z M102.4004,153.5992 L51.2002,153.5992 C22.9229,153.5992 1.42108547e-14,176.5234 1.42108547e-14,204.7998 L1.42108547e-14,256 C1.42108547e-14,284.2773 22.9229,307.2002 51.2002,307.2002 L102.4004,307.2002 L102.4004,153.5992 L102.4004,153.5992 Z M307.2008,51.2002 C307.2008,22.9229 284.2775,0 256.0002,0 L204.8,0 C176.5236,0 153.5998,22.9229 153.5998,51.2002 L153.5998,102.4004 L307.2008,102.4004 L307.2008,51.2002 L307.2008,51.2002 Z M153.6004,153.5996 L307.2014,153.5996 L307.2014,307.2006 L153.6004,307.2006 L153.6004,153.5996 L153.6004,153.5996 Z M716.8004,716.8 L870.4014,716.8 L870.4014,870.401 L716.8004,870.401 L716.8004,716.8 Z M870.4004,921.6 L716.7994,921.6 L716.7994,931.8402 L870.4004,931.8402 L870.4004,921.6 Z M665.6004,727.04 L665.6004,716.7998 L332.8004,716.7998 C318.6617,716.7998 307.2008,705.3389 307.2008,691.2002 L307.2008,701.4404 C307.2008,715.5791 318.6617,727.04 332.8004,727.04 L665.6004,727.04 Z M307.2004,368.64 L307.2004,358.4007 L153.5994,358.4007 L153.5994,368.64 L307.2004,368.64 Z M972.8004,716.8 L921.6002,716.8 L921.6002,727.0402 L972.8004,727.0402 C1001.0777,727.0402 1024.0006,749.9631 1024.0006,778.2404 L1024.0006,768.0002 C1024.0006,739.7229 1001.0777,716.8 972.8004,716.8 Z M870.4004,266.24 L870.4004,255.9998 C870.4004,199.4461 824.5537,153.5998 768.0004,153.5998 L358.4004,153.5998 L358.4004,163.84 L768.0004,163.84 C824.5541,163.84 870.4004,209.6857 870.4004,266.24 Z M102.4004,163.8398 L102.4004,153.5996 L51.2002,153.5996 C22.9229,153.5996 1.42108547e-14,176.5234 1.42108547e-14,204.7998 L1.42108547e-14,215.04 C1.42108547e-14,186.7627 22.9229,163.8398 51.2002,163.8398 L102.4004,163.8398 Z M307.2004,61.4404 L307.2004,51.2002 C307.2004,22.9229 284.2775,0 256.0002,0 L204.8,0 C176.5236,0 153.5998,22.9229 153.5998,51.2002 L153.5998,61.4404 C153.5998,33.1631 176.5236,10.2402 204.8,10.2402 L256.0002,10.2402 C284.2775,10.2402 307.2004,33.1631 307.2004,61.4404 L307.2004,61.4404 Z M153.6004,153.5996 L153.6004,163.8398 L307.2014,163.8398 L307.2014,153.5996 L153.6004,153.5996 L153.6004,153.5996 Z M716.8004,716.8 L716.8004,727.0402 L870.4014,727.0402 L870.4014,716.8 L716.8004,716.8 Z"></path>
  </g>
</svg>