<?xml version="1.0" standalone="no"?>
<!DOCTYPE svg PUBLIC "-//W3C//DTD SVG 1.1//EN" "http://www.w3.org/Graphics/SVG/1.1/DTD/svg11.dtd" >
<svg xmlns="http://www.w3.org/2000/svg" xmlns:xlink="http://www.w3.org/1999/xlink" version="1.1" viewBox="-10 0 1044 1024">
   <path fill="currentColor"
d="M870.4 780.6h-153.601v51.2002c0 28.2773 22.9229 51.2002 51.2002 51.2002h51.2002c28.2764 0 51.2002 -22.9229 51.2002 -51.2002v-51.2002zM307.2 217.4h-153.601v409.6c0 56.5537 45.8467 102.4 102.4 102.4h409.6v-153.601h-332.8
c-14.1387 0 -25.5996 -11.4609 -25.5996 -25.5996v-332.8zM1024 627c0 -28.2773 -22.9229 -51.2002 -51.2002 -51.2002h-51.2002v153.601h51.2002c28.2773 0 51.2002 -22.9238 51.2002 -51.2002v-51.2002zM870.4 115c0 -56.5537 -45.8467 -102.4 -102.4 -102.4h-409.6
v153.601h332.8c14.1387 0 25.5996 11.4609 25.5996 25.5996v332.8h153.601v-409.6zM102.4 12.5996h-51.2002c-28.2773 0 -51.2002 22.9238 -51.2002 51.2002v51.2002c0 28.2773 22.9229 51.2002 51.2002 51.2002h51.2002v-153.601zM307.2 -89.7998
c0 -28.2773 -22.9229 -51.2002 -51.2002 -51.2002h-51.2002c-28.2764 0 -51.2002 22.9229 -51.2002 51.2002v51.2002h153.601v-51.2002zM153.6 12.5996h153.601v153.601h-153.601v-153.601zM716.8 575.8h153.601v153.601h-153.601v-153.601zM870.4 780.6h-153.601v10.2402
h153.601v-10.2402zM665.6 586.04v-10.2402h-332.8c-14.1387 0 -25.5996 -11.4609 -25.5996 -25.5996v10.2402c0 14.1387 11.4609 25.5996 25.5996 25.5996h332.8zM307.2 227.64v-10.2393h-153.601v10.2393h153.601zM972.8 575.8h-51.2002v10.2402h51.2002
c28.2773 0 51.2002 22.9229 51.2002 51.2002v-10.2402c0 -28.2773 -22.9229 -51.2002 -51.2002 -51.2002zM870.4 125.24v-10.2402c0 -56.5537 -45.8467 -102.4 -102.4 -102.4h-409.6v10.2402h409.6c56.5537 0 102.4 45.8457 102.4 102.4zM102.4 22.8398v-10.2402h-51.2002
c-28.2773 0 -51.2002 22.9238 -51.2002 51.2002v10.2402c0 -28.2773 22.9229 -51.2002 51.2002 -51.2002h51.2002zM307.2 -79.5596v-10.2402c0 -28.2773 -22.9229 -51.2002 -51.2002 -51.2002h-51.2002c-28.2764 0 -51.2002 22.9229 -51.2002 51.2002v10.2402
c0 -28.2773 22.9238 -51.2002 51.2002 -51.2002h51.2002c28.2773 0 51.2002 22.9229 51.2002 51.2002zM153.6 12.5996v10.2402h153.601v-10.2402h-153.601zM716.8 575.8v10.2402h153.601v-10.2402h-153.601z" />
</svg>
