<?xml version="1.0" standalone="no"?>
<!DOCTYPE svg PUBLIC "-//W3C//DTD SVG 1.1//EN" "http://www.w3.org/Graphics/SVG/1.1/DTD/svg11.dtd" >
<svg xmlns="http://www.w3.org/2000/svg" xmlns:xlink="http://www.w3.org/1999/xlink" version="1.1" viewBox="-10 0 1034 1024">
   <path fill="currentColor"
d="M654.336 883l308.224 -67.584s-110.592 -752.64 -112.64 -756.736c-1.02344 -5.12012 -5.12012 -8.19141 -9.21582 -8.19141c-3.07227 0 -82.9443 -6.14453 -82.9443 -6.14453l-60.416 -60.416c-1.02344 -1.02344 -3.07129 -2.04785 -5.12012 -3.07129
c1.02441 0 -37.8877 902.144 -37.8877 902.144zM678.912 -19.1436c-1.02441 0 -2.04785 0 -3.07227 1.02344c-1.02344 0 -12.2881 3.07227 -30.7197 9.21582c-17.4082 -53.248 -51.2002 -100.352 -107.521 -100.352h-5.11914
c-15.3604 -22.5283 -34.8164 -31.7441 -52.2246 -31.7441c-132.096 0 -195.584 164.864 -214.016 248.832c-51.2002 15.3604 -87.04 27.6484 -92.1602 28.6719c-28.6719 9.21582 -29.6963 9.21582 -32.7686 36.8643c-4.0957 21.5039 -79.8711 601.088 -79.8711 601.088
l578.56 108.544zM529.408 20.792v6.14355c-31.7441 9.2168 -67.584 21.5049 -102.4 31.7441c20.4805 -75.7754 56.3203 -112.64 89.0879 -125.952c8.19238 19.4561 13.3125 49.1523 13.3125 88.0645zM477.184 -105.16c6.14453 0 12.2881 2.04785 16.3848 6.14453
c-43.0088 20.4795 -87.04 69.6318 -107.521 169.983c-28.6719 8.19238 -55.2959 17.4082 -79.8721 24.5762c22.5283 -75.7764 75.7764 -200.704 171.008 -200.704zM499.712 342.328c0 0 -33.792 -17.4082 -75.7764 -17.4082c-61.4395 0 -64.5117 38.9121 -64.5117 48.1279
c0 53.248 138.24 73.7285 138.24 197.632c0 98.3047 -62.4639 160.769 -145.408 160.769c-100.352 0 -151.552 -62.4639 -151.552 -62.4639l27.6475 -89.0879s53.248 45.0557 97.2803 45.0557c29.6963 0 40.96 -22.5283 40.96 -39.9365
c0 -69.6318 -113.664 -71.6797 -113.664 -186.367c0 -95.2324 68.6084 -189.44 207.872 -189.44c53.248 0 79.8721 15.3604 79.8721 15.3604zM552.96 -74.4404c29.6963 3.07227 48.1279 36.8643 61.4404 75.7764c-14.3359 5.12012 -31.7441 9.21582 -49.1523 15.3604
v-10.2402c-1.02441 -33.792 -5.12012 -60.416 -12.2881 -80.8965z" />
</svg>
