<?xml version="1.0" encoding="UTF-8"?>
<svg width="902px" height="1025px" viewBox="0 0 902 1025" version="1.1" xmlns="http://www.w3.org/2000/svg" xmlns:xlink="http://www.w3.org/1999/xlink">
  <g id="Shopify" transform="translate(0.3421, 0.711)" fill="currentColor" fill-rule="nonzero">
    <path d="M592.89661,1024.00121 L901.12061,956.41644 C901.12061,956.41644 790.52861,203.77644 788.48061,199.68044 C787.45717,194.56032 783.36049,191.48903 779.26479,191.48903 C776.19252,191.48903 696.32049,185.3445 696.32049,185.3445 L635.90449,124.9285 C634.88105,123.90506 632.8332,122.88065 630.78437,121.85721 C631.80878,121.85721 592.89661,1024.00121 592.89661,1024.00121 L592.89661,1024.00121 Z M617.47261,121.85684 C616.4482,121.85684 615.42476,121.85684 614.40034,122.88028 C613.3769,122.88028 602.11224,125.95255 583.68064,132.0961 C566.27244,78.8481 532.48044,31.7441 476.15964,31.7441 L471.0405,31.7441 C455.6801,9.2158 436.2241,2.84217094e-14 418.8159,2.84217094e-14 C286.7199,2.84217094e-14 223.2319,164.864 204.7999,248.832 C153.5997,264.1924 117.7599,276.4804 112.6397,277.5039 C83.9678,286.71972 82.9434,286.71972 79.8711,314.3682 C75.7754,335.8721 -1.42108547e-14,915.4562 -1.42108547e-14,915.4562 L578.56,1024.0002 L617.47261,121.85684 Z M467.96901,161.79244 L467.96901,167.93599 C436.22451,177.15279 400.38461,189.44089 365.56861,199.68009 C386.04911,123.90469 421.88891,87.04009 454.65651,73.72809 C462.84889,93.18419 467.96901,122.88039 467.96901,161.79259 L467.96901,161.79244 Z M415.74461,35.84017 C421.88914,35.84017 428.03271,37.88829 432.12941,41.98497 C389.12061,62.46447 345.08941,111.61677 324.60841,211.96797 C295.93651,220.16035 269.31251,229.37617 244.73631,236.54417 C267.26461,160.76777 320.51271,35.84017 415.74431,35.84017 L415.74461,35.84017 Z M438.27261,483.32844 C438.27261,483.32844 404.48061,465.92024 362.49621,465.92024 C301.05671,465.92024 297.98451,504.83234 297.98451,514.04814 C297.98451,567.29614 436.22451,587.77664 436.22451,711.68014 C436.22451,809.98484 373.76061,872.44914 290.81651,872.44914 C190.46451,872.44914 139.26451,809.98524 139.26451,809.98524 L166.91201,720.89734 C166.91201,720.89734 220.16001,765.95304 264.19231,765.95304 C293.88861,765.95304 305.15231,743.42474 305.15231,726.01654 C305.15231,656.38474 191.48831,654.33684 191.48831,539.64954 C191.48831,444.41714 260.09671,350.20954 399.36031,350.20954 C452.60831,350.20954 479.23241,365.56994 479.23241,365.56994 L438.27261,483.32844 Z M491.52061,66.56004 C521.21691,69.63231 539.64851,103.42434 552.96101,142.33644 C538.62511,147.45656 521.21691,151.55226 503.80871,157.69684 L503.80871,147.45664 C502.7843,113.66464 498.68859,87.04064 491.52061,66.56004 L491.52061,66.56004 Z"></path>
  </g>
</svg>