<?xml version="1.0" encoding="UTF-8"?>
<svg width="827px" height="826px" viewBox="0 0 827 826" version="1.1" xmlns="http://www.w3.org/2000/svg" xmlns:xlink="http://www.w3.org/1999/xlink">
    <title>Side7</title>
    <g id="Side7" stroke="none" stroke-width="1" fill="none" fill-rule="evenodd">
        <path d="M710.943,202.392 C727.873,202.392 742.12,204.976 753.688,210.136 C765.245,215.305 774.953,222.428 782.803,231.508 C789.821,239.358 795.193,248.137 798.909,257.836 C802.625,267.544 804.484,277.969 804.484,289.12 C804.484,297.386 802.935,306.156 799.838,315.448 C796.796304,324.574071 790.467235,336.193646 780.852688,350.297249 L607.49,605.057 C605.011,608.368 603.153,611.25 601.914,613.729 C600.675,616.208 599.64,618.686 598.817,621.163 L457.575,621.163 C458.814,618.278 460.149,615.491 461.601,612.802 C463.043,610.12 464.795,607.13 466.867,603.82 L657.667,333.724 C659.313,331.662 660.349,329.804 660.766,328.149 C661.172,326.503 661.384,324.849 661.384,323.193 C661.384,320.715 660.659,318.45 659.217,316.379 C657.765,314.317 654.774,313.281 650.235,313.281 L329.962,313.281 L181.288,313.28 C174.261,313.28 168.792,314.006 164.871,315.448 C160.941,316.9 157.748,318.856 155.269,321.333 C149.481,327.122 146.596,334.342 146.596,343.015 C146.596,352.104 150.1,359.538 157.127,365.316 C159.605,367.388 162.596,368.936 166.109,369.962 C169.4962,370.963467 174.339264,371.476219 180.630967,371.50929 L365.274,371.511 C388.813,371.511 408.734,374.918 425.053,381.732 C441.363,388.547 455.098,397.741 466.248,409.299 C477.398,420.867 486.168,434.08 492.576,448.947 C498.973,463.814 502.178,479.513 502.178,496.027 C502.178,511.31 499.391,525.974 493.815,540.011 C488.24,554.054 480.7,566.648 471.205,577.798 C459.638,591.021 445.283,601.552 428.15,609.392 C411.008,617.242 390.052,621.163 365.274,621.163 L40.665,621.163 L40.665,513.992 L345.451,513.992 C354.124,513.992 360.832,513.064 365.584,511.205 C370.327,509.348 374.15,506.771 377.045,503.461 C381.584,498.1 383.858,491.691 383.858,484.258 C383.858,475.178 380.964,467.744 375.185,461.955 C372.291,458.656 368.681,456.283 364.345,454.832 C360.008,453.389 353.706,452.664 345.45,452.664 L175.093,452.664 C147.003,452.664 124.393,449.256 107.26,442.441 C90.117,435.627 75.976,426.441 64.825,414.875 C53.674,403.318 45.002,390.202 38.806,375.538 C32.612,360.884 29.514,344.874 29.514,327.529 C29.514,310.599 32.707,294.696 39.116,279.828 C45.514,264.96 54.294,251.748 65.444,240.181 C76.596,228.624 90.63,219.428 107.569,212.614 C124.498,205.8 147.003,202.392 175.092,202.392 L710.943,202.392 Z" id="Path" fill="currentColor" fill-rule="nonzero"></path>
    </g>
</svg>