<?xml version="1.0" standalone="no"?>
<!DOCTYPE svg PUBLIC "-//W3C//DTD SVG 1.1//EN" "http://www.w3.org/Graphics/SVG/1.1/DTD/svg11.dtd" >
<svg xmlns="http://www.w3.org/2000/svg" xmlns:xlink="http://www.w3.org/1999/xlink" version="1.1" viewBox="-10 0 1035 1024">
   <path fill="currentColor"
d="M881.363 109.907c20.9873 0 38.6494 3.20312 52.9902 9.59961c14.3271 6.4082 26.3623 15.2393 36.0947 26.4951c8.7002 9.73242 15.3594 20.6152 19.9668 32.6387c4.60742 12.0352 6.91113 24.959 6.91113 38.7832c0 10.2471 -1.91992 21.1201 -5.75977 32.6396
c-3.77148 11.3135 -11.6172 25.7188 -23.5361 43.2021l-214.919 315.828c-3.07324 4.10547 -5.37695 7.67871 -6.91309 10.751c-1.53613 3.07324 -2.81934 6.14551 -3.83887 9.21582h-175.1c1.53613 -3.57617 3.19141 -7.03125 4.99121 -10.3643
c1.78809 -3.3252 3.95996 -7.03223 6.52832 -11.1357l236.537 -334.841c2.04102 -2.55566 3.32422 -4.85938 3.8418 -6.91113c0.50293 -2.04102 0.765625 -4.09082 0.765625 -6.14355c0 -3.07227 -0.898438 -5.87988 -2.68555 -8.44727
c-1.7998 -2.55566 -5.50781 -3.84082 -11.1357 -3.84082l-581.357 -0.000976562c-8.71094 0 -15.4912 0.900391 -20.3525 2.68848c-4.87109 1.7998 -8.8291 4.22461 -11.9033 7.2959c-7.1748 7.17676 -10.752 16.127 -10.752 26.8789
c0 11.2676 4.34375 20.4834 13.0547 27.6465c3.07227 2.56934 6.78027 4.48828 11.1348 5.76074c4.19922 1.24121 10.2031 1.87695 18.0029 1.91797l228.904 0.00195312c29.1816 0 53.8779 4.22363 74.1094 12.6709c20.2197 8.44824 37.2471 19.8467 51.0693 34.1748
c13.8232 14.3408 24.6953 30.7207 32.6396 49.1523c7.92969 18.4307 11.9033 37.8926 11.9033 58.3652c0 18.9463 -3.45508 37.126 -10.3672 54.5273c-6.91113 17.4092 -16.2598 33.0215 -28.0303 46.8447c-14.3398 16.3936 -32.1357 29.4482 -53.376 39.167
c-21.251 9.73242 -47.2305 14.5928 -77.9482 14.5928h-402.421v-132.86h377.846c10.752 0 19.0684 -1.15039 24.959 -3.45508c5.87988 -2.30176 10.6191 -5.49707 14.208 -9.59961c5.62695 -6.64648 8.44629 -14.5918 8.44629 -23.8066
c0 -11.2568 -3.58789 -20.4727 -10.752 -27.6484c-3.58789 -4.09082 -8.06348 -7.03223 -13.4385 -8.83008c-5.37695 -1.78906 -13.1885 -2.68848 -23.4238 -2.68848h-211.192c-34.8232 0 -62.8535 -4.22461 -84.0938 -12.6738
c-21.252 -8.44727 -38.7822 -19.835 -52.6064 -34.1738c-13.8242 -14.3271 -24.5752 -30.5869 -32.2559 -48.7666c-7.67969 -18.167 -11.5195 -38.0137 -11.5195 -59.5166c0 -20.9883 3.95801 -40.7031 11.9043 -59.1348
c7.93164 -18.4326 18.8154 -34.8115 32.6387 -49.1514c13.8252 -14.3271 31.2236 -25.7275 52.2236 -34.1748c20.9863 -8.44727 48.8867 -12.6719 83.709 -12.6719h664.3z" />
</svg>
