<?xml version="1.0" encoding="UTF-8"?>
<svg width="961px" height="520px" viewBox="0 0 961 520" version="1.1" xmlns="http://www.w3.org/2000/svg" xmlns:xlink="http://www.w3.org/1999/xlink">
  <g id="Side7" transform="translate(0.0518, 0.6614)" fill="currentColor" fill-rule="nonzero">
    <path d="M844.773405,1.42108547e-14 C865.760705,1.42108547e-14 883.422805,3.20312 897.763605,9.59961 C912.090705,16.00781 924.125905,24.83891 933.858305,36.09471 C942.558505,45.82713 949.217705,56.70991 953.825105,68.73341 C958.432525,80.76861 960.736235,93.69241 960.736235,107.51661 C960.736235,117.76371 958.816315,128.63671 954.976465,140.15621 C951.204985,151.46971 943.359265,165.87501 931.440365,183.35831 L716.521365,499.18631 C713.448125,503.29178 711.144415,506.86502 709.608275,509.93731 C708.072145,513.01055 706.788935,516.08282 705.769405,519.153827 L530.669405,519.153827 C532.205535,515.57696 533.860815,512.12188 535.660615,508.78883 C537.448705,505.46363 539.620575,501.7566 542.188935,497.65313 L778.725935,162.81213 C780.766955,160.25647 782.050155,157.95275 782.567735,155.901 C783.070665,153.85998 783.33336,151.81018 783.33336,149.75745 C783.33336,146.68518 782.434922,143.87757 780.64781,141.31018 C778.84801,138.75452 775.14,137.46936 769.51211,137.46936 L188.15511,137.468383 C179.44417,137.468383 172.66391,138.368774 167.80261,140.156863 C162.93152,141.956663 158.97351,144.381473 155.89931,147.452763 C148.72451,154.629523 145.14731,163.579763 145.14731,174.331663 C145.14731,185.599263 149.49106,194.815063 158.20201,201.978163 C161.27428,204.547503 164.98228,206.466443 169.33681,207.738903 C173.53603,208.980113 179.53991,209.615853 187.33971,209.656873 L416.24371,209.658827 C445.42531,209.658827 470.12161,213.882457 490.35311,222.329727 C510.57281,230.777967 527.60021,242.176427 541.42241,256.504527 C555.24561,270.845327 566.11771,287.225227 574.06201,305.656827 C581.9917,324.087527 585.96531,343.549427 585.96531,364.022027 C585.96531,382.968327 582.51023,401.148027 575.59811,418.549327 C568.68698,435.958527 559.33831,451.570827 547.56781,465.394027 C533.22801,481.787627 515.43211,494.842227 494.19181,504.561027 C472.94081,514.293447 446.96131,519.153827 416.24361,519.153827 L13.82261,519.153827 L13.82261,386.293827 L391.66861,386.293827 C402.42061,386.293827 410.73701,385.143437 416.62761,382.838747 C422.50749,380.536987 427.24671,377.341677 430.83561,373.239137 C436.46256,366.592657 439.2819,358.647337 439.2819,349.432537 C439.2819,338.175737 435.69401,328.959837 428.5299,321.784137 C424.94201,317.693317 420.46642,314.751907 415.0914,312.954057 C409.71445,311.164997 401.9029,310.265577 391.6676,310.265577 L180.4756,310.265577 C145.6524,310.265577 117.6221,306.040967 96.3818,297.591777 C75.1298,289.144507 57.5996,277.756777 43.7754,263.417977 C29.9512,249.090877 19.2002,232.831077 11.5195,214.651377 C3.83981,196.484377 -7.10542736e-15,176.637677 -7.10542736e-15,155.134777 C-7.10542736e-15,134.146477 3.95801,114.431677 11.9043,95.9999766 C19.83594,77.5673766 30.7197,61.1884766 44.543,46.8485766 C58.3682,32.5214766 75.7666,21.1210766 96.7666,12.6737766 C117.7529,4.22650656 145.6533,1.42108547e-14 180.4756,1.42108547e-14 L844.7756,1.42108547e-14 L844.773405,1.42108547e-14 Z"></path>
  </g>
</svg>