<?xml version="1.0" standalone="no"?>
<!DOCTYPE svg PUBLIC "-//W3C//DTD SVG 1.1//EN" "http://www.w3.org/Graphics/SVG/1.1/DTD/svg11.dtd" >
<svg xmlns="http://www.w3.org/2000/svg" xmlns:xlink="http://www.w3.org/1999/xlink" version="1.1" viewBox="-10 0 1034 1024">
   <path fill="currentColor"
d="M404.487 -63.876l10.0791 40.7363c-42.6533 10.668 -80.1582 26.6484 -114.324 47.5537l1.77148 -1.00781l-21.5576 -35.9775c35.6963 -21.9287 77.0254 -39.543 120.948 -50.6445l3.08301 -0.661133v0.000976562zM619.513 -63.876l-10.0791 40.7363
c42.6533 10.668 80.1582 26.6484 114.324 47.5537l-1.77148 -1.00781l21.6973 -35.9775c-35.7354 -21.9404 -77.1143 -39.5566 -121.09 -50.6475l-3.08105 -0.658203v0.000976562zM128.429 139.458c-21.9287 35.6963 -39.543 77.0254 -50.6445 120.948l-0.661133 3.08301
l40.7363 10.0791c10.668 -42.6533 26.6484 -80.1582 47.5537 -114.324l-1.00781 1.77148zM106.031 371v-0.269531c0 -21.3711 1.6543 -42.3574 4.8418 -62.834l-0.291992 2.27637l-41.5059 -6.29883c-3.20801 20.1738 -5.04004 43.4346 -5.04004 67.124
c0 23.6885 1.83203 46.9502 5.36328 69.6514l-0.324219 -2.52734l41.5059 -6.29883c-2.89551 -18.2002 -4.5498 -39.1855 -4.5498 -60.5576v-0.28418v0.0146484zM743.542 754.571l-21.5576 -35.9775c-32.3516 19.8848 -69.8096 35.8633 -109.613 45.9463l-2.79688 0.599609
l10.0791 40.7363c46.9551 -11.7783 88.2344 -29.3906 125.841 -52.417zM917.969 371v0.269531c0 21.3711 -1.6543 42.3574 -4.8418 62.834l0.291992 -2.27637l41.5059 6.29883c3.20801 -20.1738 5.04004 -43.4346 5.04004 -67.124
c0 -23.6885 -1.83203 -46.9502 -5.36328 -69.6514l0.324219 2.52734l-41.5059 6.29883c2.89551 18.2002 4.5498 39.1855 4.5498 60.5576v0.28418v-0.0146484zM946.876 478.513l-40.7363 -10.0791c-10.668 42.6533 -26.6484 80.1582 -47.5537 114.324l1.00781 -1.77148
l35.9775 21.6973c21.9404 -35.7354 39.5566 -77.1143 50.6475 -121.09l0.658203 -3.08105h-0.000976562zM572.825 772.489c-18.2803 2.89551 -39.3613 4.5498 -60.8252 4.5498s-42.5439 -1.65527 -63.1182 -4.84277l2.29102 0.291992l-6.29883 41.5059
c20.1738 3.20801 43.4346 5.04004 67.124 5.04004c23.6885 0 46.9502 -1.83203 69.6514 -5.36328l-2.52734 0.324219zM838.806 611.851c-24.5723 33.0479 -52.9502 61.4033 -84.9346 85.1816l-1.08789 0.773438l24.918 33.8076
c36.4922 -27.0234 67.8027 -58.2441 94.0674 -93.4482l0.84668 -1.18359zM752.781 44.1943c33.0752 24.5684 61.4531 52.9473 85.252 84.9365l0.772461 1.08594l33.8076 -25.1982c-27.0342 -36.3799 -58.252 -67.5986 -93.4395 -93.7822l-1.19531 -0.849609z
M185.194 130.219c24.5684 -33.0752 52.9473 -61.4531 84.9365 -85.252l1.08594 -0.772461l-25.1982 -33.8076c-36.3799 27.0342 -67.5986 58.252 -93.7822 93.4395l-0.849609 1.19531zM895.571 139.458l-35.9775 21.5576c19.8848 32.3516 35.8633 69.8096 45.9463 109.613
l0.599609 2.79688l40.7363 -10.0791c-11.7783 -46.9551 -29.3906 -88.2344 -52.417 -125.841zM451.175 -30.4189c18.2803 -2.89648 39.3613 -4.5498 60.8252 -4.5498s42.5439 1.6543 63.1182 4.84277l-2.29102 -0.291992l6.29883 -41.5059
c-20.1738 -3.20801 -43.4346 -5.04004 -67.124 -5.04004c-23.6885 0 -46.9502 1.83203 -69.6514 5.36328l2.52734 -0.324219zM206.753 742.742l-86.7227 20.2275l20.2275 -86.7227l-40.876 -9.58887l-20.2275 86.7227c-0.703125 2.87695 -1.10645 6.17871 -1.10645 9.5752
c0 23.1943 18.8018 41.9961 41.9961 41.9961c3.39648 0 6.69922 -0.40332 9.86328 -1.16504l-0.287109 0.0585938l86.6533 -19.8779zM108.131 629.21l40.876 9.51855l13.999 -60.125c-19.2119 -31.7158 -34.709 -68.4219 -44.5488 -107.38l-0.59668 -2.79297
l-40.7363 10.0791c10.0928 40.3984 24.25 75.8477 42.4551 108.745l-1.1582 -2.2832zM304.116 720.204l-60.125 13.999l9.51855 40.876l44.2363 -10.2891c30.6133 17.0469 66.0615 31.2031 103.391 40.6377l3.07227 0.658203l10.0791 -40.7363
c-41.6582 -10.5605 -78.2607 -26.1445 -111.687 -46.4385l1.79688 1.0127zM512 7.02832c-200.935 0.106445 -363.783 163.022 -363.783 363.972c0 71.8037 20.793 138.752 56.6855 195.152l-0.876953 -1.47754l-34.9971 149.299l149.299 -34.9971
c54.9902 35.1328 122.045 55.9951 193.975 55.9951c201.017 0 363.973 -162.956 363.973 -363.972s-162.956 -363.972 -363.973 -363.972h-0.314453h0.015625h-0.00292969z" />
</svg>
