<?xml version="1.0" encoding="UTF-8"?>
<svg width="897px" height="897px" viewBox="0 0 897 897" version="1.1" xmlns="http://www.w3.org/2000/svg" xmlns:xlink="http://www.w3.org/1999/xlink">
  <g id="Signal" transform="translate(0.2908, 0.3376)" fill="currentColor" fill-rule="nonzero">
    <path d="M340.452132,13.087862 L350.531232,53.824162 C307.877932,64.492162 270.373032,80.472562 236.207232,101.377862 L237.978712,100.370052 L216.421112,64.392552 C252.117412,42.463852 293.446512,24.849552 337.369112,13.748052 L340.452122,13.086919 L340.452122,13.0878956 L340.452132,13.087862 Z M555.478132,13.087862 L545.399032,53.824162 C588.052332,64.492162 625.557232,80.472562 659.723032,101.377862 L657.951552,100.370052 L679.648852,64.392552 C643.913452,42.452152 602.534552,24.835952 558.558852,13.745052 L555.477802,13.086849 L555.477802,13.0878256 L555.478132,13.087862 Z M64.394132,216.421862 C42.465432,252.118162 24.851132,293.447262 13.749632,337.369862 L13.088499,340.452872 L53.824799,350.531972 C64.492799,307.878672 80.473199,270.373772 101.378499,236.207972 L100.370689,237.979452 L64.394132,216.421862 Z M41.996132,447.963862 L41.996132,447.694331 C41.996132,426.323231 43.650432,405.336931 46.837932,384.860331 L46.54594,387.136701 L5.04004,380.837871 C1.83203,401.011671 5.68434189e-14,424.272471 5.68434189e-14,447.961871 C5.68434189e-14,471.650371 1.83203,494.912071 5.36328,517.613271 L5.039061,515.085931 L46.544961,508.787101 C43.649451,490.586901 41.995161,469.601601 41.995161,448.229501 L41.995161,447.945321 L41.995161,447.959969 L41.996132,447.963862 Z M679.507132,831.534862 L657.949532,795.557362 C625.597932,815.442162 588.139932,831.420662 548.336532,841.503662 L545.539652,842.103271 L555.618752,882.839571 C602.573852,871.061271 643.853152,853.448971 681.459752,830.422571 L679.507132,831.534862 Z M853.934132,447.963862 L853.934132,448.233393 C853.934132,469.604493 852.279832,490.590793 849.092332,511.067393 L849.384324,508.791023 L890.890224,515.089853 C894.098234,494.916053 895.930264,471.655253 895.930264,447.965853 C895.930264,424.277353 894.098234,401.015653 890.566984,378.314453 L890.891203,380.841793 L849.385303,387.140623 C852.280813,405.340823 853.935103,426.326123 853.935103,447.698223 L853.935103,447.982403 L853.935103,447.967755 L853.934132,447.963862 Z M882.841132,555.476862 L842.104832,545.397762 C831.436832,588.051062 815.456432,625.555962 794.551132,659.721762 L795.558942,657.950282 L831.536442,679.647582 C853.476842,643.912182 871.093042,602.533282 882.183942,558.557582 L882.842145,555.476532 L882.841168,555.476532 L882.841132,555.476862 Z M508.790132,849.452862 C490.509832,852.348372 469.428832,854.002662 447.964932,854.002662 C426.501032,854.002662 405.421032,852.347392 384.846732,849.159892 L387.137752,849.451884 L380.838922,890.957784 C401.012722,894.165794 424.273522,895.997824 447.962922,895.997824 C471.651422,895.997824 494.913122,894.165794 517.614322,890.634544 L515.086982,890.958763 L508.790132,849.452862 Z M774.771132,688.814862 C750.198832,721.862762 721.820932,750.218162 689.836532,773.996462 L688.748642,774.7699 L713.666642,808.5775 C750.158842,781.5541 781.469342,750.3334 807.734042,715.1293 L808.580722,713.94571 L774.771132,688.814862 Z M688.746132,121.158162 C721.821332,145.726562 750.199232,174.105462 773.998132,206.094662 L774.770593,207.180602 L808.578193,181.982402 C781.543993,145.602502 750.326193,114.383802 715.138693,88.200202 L713.943383,87.350593 L688.746132,121.158162 Z M121.159132,207.182862 C145.727532,174.107662 174.106432,145.729762 206.095632,121.930862 L207.181572,121.158401 L181.983372,87.350801 C145.603472,114.385001 114.384772,145.602801 88.201172,180.790301 L87.351563,181.985611 L121.159132,207.182862 Z M831.536132,216.421862 L795.558632,237.979462 C815.443432,270.331062 831.421932,307.789062 841.504932,347.592462 L842.104541,350.389342 L882.840841,340.310242 C871.062541,293.355142 853.450241,252.075842 830.423841,214.469242 L831.536132,216.421862 Z M387.140132,46.544962 C405.420432,43.648482 426.501432,41.995162 447.965332,41.995162 C469.429232,41.995162 490.509232,43.649462 511.083532,46.837932 L508.792512,46.54594 L515.091342,5.04004 C494.917542,1.83203 471.656742,0 447.967342,0 C424.278842,0 401.017142,1.83203 378.315942,5.36328 L380.843282,5.039061 L387.140132,46.544962 Z M142.718132,819.705862 L55.995432,839.933362 L76.222932,753.210662 L35.346932,743.621792 L15.119432,830.344492 C14.416307,833.221442 14.012982,836.523202 14.012982,839.919692 C14.012982,863.113992 32.814782,881.915792 56.009082,881.915792 C59.405562,881.915792 62.708302,881.512472 65.872362,880.750752 L65.585253,880.809346 L152.238553,860.931446 L142.718132,819.705862 Z M44.096132,706.173862 L84.972132,715.692412 L98.971132,655.567412 C79.759232,623.851612 64.262132,587.145512 54.422332,548.187412 L53.825652,545.394442 L13.089352,555.473542 C23.182152,595.871942 37.339352,631.321242 55.544452,664.218542 L54.386252,661.935342 L44.096132,706.173862 Z M240.081132,797.167862 L179.956132,811.166862 L189.474682,852.042862 L233.710982,841.753762 C264.324282,858.800662 299.772482,872.956862 337.101982,882.391462 L340.174252,883.049665 L350.253352,842.313365 C308.595152,831.752865 271.992652,816.168865 238.566352,795.874865 L240.363232,796.887565 L240.081132,797.167862 Z M447.965132,83.991642 C247.030132,84.098627 84.182132,247.014182 84.182132,447.964182 C84.182132,519.767882 104.975132,586.716182 140.867632,643.116182 L139.990679,641.638642 L104.993579,790.937642 L254.292579,755.940542 C309.282779,791.073342 376.337579,811.935642 448.267579,811.935642 C649.284579,811.935642 812.240579,648.979642 812.240579,447.963642 C812.240579,246.947642 649.284579,83.991642 448.267579,83.991642 L447.953126,83.991642 L447.968751,83.991642 L447.965821,83.991642 L447.965132,83.991642 Z"></path>
  </g>
</svg>