<?xml version="1.0" encoding="UTF-8"?>
<svg width="44px" height="44px" viewBox="0 0 44 44" version="1.1" xmlns="http://www.w3.org/2000/svg" xmlns:xlink="http://www.w3.org/1999/xlink">
    <title>Skeb</title>
    <g id="Skeb" stroke="none" stroke-width="1" fill="none" fill-rule="evenodd">
        <path d="M21.98125,2 C33.015625,2 41.9625,10.946875 41.9625,21.98125 C41.9625,33.015625 33.015625,41.9625 21.98125,41.9625 C10.946875,41.9625 2,33.015625 2,21.98125 C2,10.946875 10.946875,2 21.98125,2 Z M21.98125,4.228125 C12.175,4.228125 4.228125,12.175 4.228125,21.98125 C4.228125,31.2819564 11.3767469,38.9100595 20.4802784,39.6718471 C18.6687411,39.5174145 16.9359334,39.089592 15.31875,38.434375 L24.921875,10.3 L38.246875,14.859375 C38.438125,15.295 38.6125,15.73975 38.7691,16.192825 L38.9069672,16.6078821 C36.6306503,9.42905923 29.9143961,4.228125 21.98125,4.228125 Z M17.925,7.809375 L22.98125,9.5375 L22.603125,10.6375 L20.834375,15.821875 L20.775,15.98125 L13.415625,37.53125 C12.603125,37.084375 11.834375,36.571875 11.10625,36.00625 L12.240625,32.7375 L9.7125,31.86875 L10.571875,29.3 L13.1,30.16875 L14.828125,25.1125 L12.3,24.24375 L13.16875,21.70625 L15.696875,22.575 L17.425,17.51875 L14.896875,16.65 L15.765625,14.1125 L18.29375,14.98125 L19.98125,9.9875 L17.484375,9.078125 L17.925,7.809375 Z M7.775,32.625 L10.5125,33.55625 L9.99375,35.071875 C9.18125,34.328125 8.4375,33.509375 7.775,32.625 Z M9.34375,24.6625 L13.14375,25.959375 L12.278125,28.49375 L8.478125,27.196875 L9.34375,24.6625 Z M11.934375,17.071875 L15.734375,18.36875 L14.86875,20.903125 L11.06875,19.60625 L11.934375,17.071875 Z M14.53125,9.471875 L18.33125,10.76875 L17.465625,13.303125 L13.665625,12.00625 L14.53125,9.471875 Z" id="Shape" fill="currentColor" fill-rule="nonzero"></path>
    </g>
</svg>