<?xml version="1.0" standalone="no"?>
<!DOCTYPE svg PUBLIC "-//W3C//DTD SVG 1.1//EN" "http://www.w3.org/Graphics/SVG/1.1/DTD/svg11.dtd" >
<svg xmlns="http://www.w3.org/2000/svg" xmlns:xlink="http://www.w3.org/1999/xlink" version="1.1" viewBox="-10 0 1036 1024">
   <path fill="currentColor"
d="M988 479c8 -32 10 -68 10 -102c0 -266 -214 -482 -480 -482c-28 0 -56 2 -82 6c-44 -26 -94 -42 -150 -42c-154 0 -278 126 -278 280c0 50 14 100 38 140c-6 32 -10 64 -10 98c0 266 216 480 482 480c30 0 58 -2 88 -8c38 22 84 34 132 34c154 0 278 -126 278 -280
c0 -44 -10 -86 -28 -124zM760 605c-22 32 -54 56 -98 74c-42 18 -92 26 -150 26c-68 0 -126 -12 -172 -36c-32 -16 -60 -40 -80 -70s-30 -58 -30 -86c0 -18 6 -34 20 -46s30 -18 50 -18c16 0 30 4 42 14s22 24 28 42c10 18 18 36 28 48s24 24 40 32c18 8 42 12 70 12
c40 0 74 -8 98 -26c24 -16 36 -36 36 -60c0 -18 -6 -34 -20 -46c-12 -12 -30 -20 -50 -28c-22 -6 -52 -14 -88 -22c-50 -10 -94 -22 -128 -38c-34 -14 -62 -34 -82 -60s-32 -58 -32 -96c0 -36 12 -70 34 -98s52 -50 94 -64c40 -16 86 -22 140 -22c44 0 82 4 112 14
c32 10 60 24 80 40c22 16 38 34 48 52s14 38 14 56c0 16 -6 32 -20 46c-12 14 -30 20 -50 20c-16 0 -30 -4 -40 -12s-18 -22 -30 -38c-12 -24 -26 -42 -42 -54s-44 -18 -80 -18s-64 6 -84 20c-20 12 -30 28 -30 46c0 10 2 20 10 28c6 8 16 16 28 22s26 12 38 14
c14 4 36 10 68 18c38 8 74 16 106 26c32 12 60 24 82 38c24 16 42 34 54 58c14 22 20 52 20 84c0 40 -12 76 -34 108z" />
</svg>
