<?xml version="1.0" encoding="UTF-8"?>
<svg width="1009px" height="1025px" viewBox="0 0 1009 1025" version="1.1" xmlns="http://www.w3.org/2000/svg" xmlns:xlink="http://www.w3.org/1999/xlink">
  <g id="Skype" transform="translate(0.569, 0.6137)" fill="currentColor" fill-rule="nonzero">
    <path d="M980,620 C988,588 990,552 990,518 C990,252 776,36 510,36 C482,36 454,38 428,42 C384,16 334,0 278,0 C124,0 0,126 0,280 C0,330 14,380 38,420 C32,452 28,484 28,518 C28,784 244,998 510,998 C540,998 568,996 598,990 C636,1012 682,1024 730,1024 C884,1024 1008,898 1008,744 C1008,700 998,658 980,620 Z M752,746 C730,778 698,802 654,820 C612,838 562,846 504,846 C436,846 378,834 332,810 C300,794 272,770 252,740 C232,710 222,682 222,654 C222,636 228,620 242,608 C256,596 272,590 292,590 C308,590 322,594 334,604 C346,614 356,628 362,646 C372,664 380,682 390,694 C400,706 414,718 430,726 C448,734 472,738 500,738 C540,738 574,730 598,712 C622,696 634,676 634,652 C634,634 628,618 614,606 C602,594 584,586 564,578 C542,572 512,564 476,556 C426,546 382,534 348,518 C314,504 286,484 266,458 C246,432 234,400 234,362 C234,326 246,292 268,264 C290,236 320,214 362,200 C402,184 448,178 502,178 C546,178 584,182 614,192 C646,202 674,216 694,232 C716,248 732,266 742,284 C752,302 756,322 756,340 C756,356 750,372 736,386 C724,400 706,406 686,406 C670,406 656,402 646,394 C636,386 628,372 616,356 C604,332 590,314 574,302 C558,290 530,284 494,284 C458,284 430,290 410,304 C390,316 380,332 380,350 C380,360 382,370 390,378 C396,386 406,394 418,400 C430,406 444,412 456,414 C470,418 492,424 524,432 C562,440 598,448 630,458 C662,470 690,482 712,496 C736,512 754,530 766,554 C780,576 786,606 786,638 C786,678 774,714 752,746 Z"></path>
  </g>
</svg>