<?xml version="1.0" encoding="UTF-8"?>
<svg width="1025px" height="1021px" viewBox="0 0 1025 1021" version="1.1" xmlns="http://www.w3.org/2000/svg" xmlns:xlink="http://www.w3.org/1999/xlink">
  <g id="Slack" transform="translate(0.5149, 0.6046)" fill="currentColor" fill-rule="nonzero">
    <path d="M1019.79544,546.145594 C1003.41064,498.017694 952.211442,472.417094 905.107442,487.777394 L811.923842,518.497094 C791.443342,456.033194 769.939442,389.474094 749.459942,327.009094 L749.459942,327.009094 L749.459942,327.009094 C804.755842,308.577494 841.619142,297.313794 841.619142,297.313794 C889.748042,280.929994 915.347642,229.729794 899.987342,182.625794 C883.603542,134.497894 832.403342,108.898294 785.299342,124.257594 L693.139142,153.953894 C674.707542,98.6579938 663.442842,62.8181938 663.442842,62.8181938 C647.059042,14.6902938 595.858842,-10.9103062 548.754842,4.44999383 C500.626942,17.7624938 475.026342,68.9616938 489.362242,117.089994 L519.058542,208.226694 L327.570542,270.690594 C309.138942,215.394694 297.875242,179.554894 297.875242,179.554894 C281.490442,131.425994 230.291242,105.826394 183.187242,121.186694 C135.059342,137.570494 109.459742,188.770694 124.819042,235.874694 L154.515342,328.034894 L60.3073418,358.754594 C15.2516418,373.090494 -10.3488582,422.242894 3.98704179,468.322594 C18.3229418,517.474894 69.5231418,546.146794 116.628042,530.786494 C116.628042,530.786494 154.515742,518.498394 210.836042,500.066794 L273.299942,692.578794 L178.067542,723.298494 C134.035342,739.683294 108.435742,787.811194 121.748242,833.891494 C136.084142,883.042894 187.283442,911.714694 234.388242,896.355394 C234.388242,896.355394 272.275942,884.067294 329.619642,865.634694 L329.619642,865.634694 L329.619642,865.634694 L360.340342,959.842694 C376.724142,1003.87489 424.852042,1029.47549 470.932342,1016.16299 C520.084642,1001.82709 548.756542,950.626894 533.396242,903.522994 C533.396242,903.522994 521.108142,866.658694 502.676542,809.314994 L502.676542,809.314994 L502.676542,808.290584 C565.140442,787.811084 631.699542,766.307184 694.164542,745.826684 L724.884242,841.059084 C741.268042,885.090284 789.395942,910.690884 835.476242,897.378384 C884.628542,883.042484 913.300442,831.842284 897.940142,784.738384 C897.940142,784.738384 885.652042,746.850684 867.220442,690.530384 L868.243882,690.530384 L868.243882,690.530384 C923.540782,672.098784 960.404082,660.834084 960.404082,660.834084 C1008.53198,644.450284 1035.15608,593.250084 1019.79668,546.146084 L1019.79544,546.145594 Z M446.359442,636.257594 C425.879942,573.793694 404.376042,507.234594 383.895542,444.770594 L383.895542,444.770594 L383.895542,444.770594 C446.359442,424.290094 512.919542,402.786194 575.383542,382.306694 L637.847442,573.793694 L446.359442,636.257594 Z"></path>
  </g>
</svg>