<?xml version="1.0" standalone="no"?>
<!DOCTYPE svg PUBLIC "-//W3C//DTD SVG 1.1//EN" "http://www.w3.org/Graphics/SVG/1.1/DTD/svg11.dtd" >
<svg xmlns="http://www.w3.org/2000/svg" xmlns:xlink="http://www.w3.org/1999/xlink" version="1.1" viewBox="-10 0 1045 1024">
   <path fill="currentColor"
d="M1019.9 407.864c-16.3848 -48.1279 -67.584 -73.7285 -114.688 -58.3682l-93.1836 30.7197c-20.4805 -62.4639 -41.9844 -129.023 -62.4639 -191.488v0v0c55.2959 -18.4316 92.1592 -29.6953 92.1592 -29.6953c48.1289 -16.3838 73.7285 -67.584 58.3682 -114.688
c-16.3838 -48.1279 -67.584 -73.7275 -114.688 -58.3682l-92.1602 29.6963c-18.4316 -55.2959 -29.6963 -91.1357 -29.6963 -91.1357c-16.3838 -48.1279 -67.584 -73.7285 -114.688 -58.3682c-48.1279 13.3125 -73.7285 64.5117 -59.3926 112.64l29.6963 91.1367
l-191.488 62.4639c-18.4316 -55.2959 -29.6953 -91.1357 -29.6953 -91.1357c-16.3848 -48.1289 -67.584 -73.7285 -114.688 -58.3682c-48.1279 16.3838 -73.7275 67.584 -58.3682 114.688l29.6963 92.1602l-94.208 30.7197
c-45.0557 14.3359 -70.6562 63.4883 -56.3203 109.568c14.3359 49.1523 65.5361 77.8242 112.641 62.4639c0 0 37.8877 -12.2881 94.208 -30.7197l62.4639 192.512l-95.2324 30.7197c-44.0322 16.3848 -69.6318 64.5127 -56.3193 110.593
c14.3359 49.1514 65.5352 77.8232 112.64 62.4639c0 0 37.8877 -12.2881 95.2314 -30.7207v0v0l30.7207 94.208c16.3838 44.0322 64.5117 69.6328 110.592 56.3203c49.1523 -14.3359 77.8242 -65.5361 62.4639 -112.64c0 0 -12.2881 -36.8643 -30.7197 -94.208v0v-1.02441
c62.4639 -20.4795 129.023 -41.9834 191.488 -62.4639l30.7197 95.2324c16.3838 44.0312 64.5117 69.6318 110.592 56.3193c49.1523 -14.3359 77.8242 -65.5361 62.4639 -112.64c0 0 -12.2881 -37.8877 -30.7197 -94.208h1.02344v0
c55.2969 -18.4316 92.1602 -29.6963 92.1602 -29.6963c48.1279 -16.3838 74.752 -67.584 59.3926 -114.688zM446.464 497.976c-20.4795 -62.4639 -41.9834 -129.023 -62.4639 -191.487v0v0c62.4639 -20.4805 129.024 -41.9844 191.488 -62.4639l62.4639 191.487z" />
</svg>
