<?xml version="1.0" standalone="no"?>
<!DOCTYPE svg PUBLIC "-//W3C//DTD SVG 1.1//EN" "http://www.w3.org/Graphics/SVG/1.1/DTD/svg11.dtd" >
<svg xmlns="http://www.w3.org/2000/svg" xmlns:xlink="http://www.w3.org/1999/xlink" version="1.1" viewBox="-10 0 1038 1024">
   <path fill="currentColor"
d="M378 171c-66 0 -120 50 -120 112s54 112 120 112s120 -50 120 -112s-54 -112 -120 -112zM662 169c-66 0 -120 50 -120 112c0 64 54 114 120 114c68 0 122 -50 122 -114c0 -62 -54 -112 -122 -112zM978 347c-4 2 -6 6 -16 8v-396c0 -56 -36 -100 -86 -100h-718
c-50 0 -96 44 -96 100v396c0 -2 -6 -6 -10 -8c-32 -22 -50 8 -32 36c38 44 106 100 214 144c-114 382 274 444 268 246c0 4 0 -110 0 -192c12 2 20 4 28 6c0 82 0 190 0 186c-6 198 382 136 270 -246c106 -44 174 -100 210 -144c20 -28 -2 -58 -32 -36zM912 385
c-134 74 -254 62 -318 60c-48 -4 -64 18 -66 48c-10 -8 -22 -18 -34 -28c-2 -2 -2 -4 -4 -6c-12 -10 -26 -16 -54 -14c-62 2 -190 14 -314 -58v-384c0 -70 16 -92 80 -92h636c60 0 74 28 74 92v382z" />
</svg>
