<?xml version="1.0" encoding="UTF-8"?>
<svg width="1005px" height="1025px" viewBox="0 0 1005 1025" version="1.1" xmlns="http://www.w3.org/2000/svg" xmlns:xlink="http://www.w3.org/1999/xlink">
  <g id="SlideShare" transform="translate(0.094, 0.6137)" fill="currentColor" fill-rule="nonzero">
    <path d="M365.140496,312 C299.140496,312 245.140496,362 245.140496,424 C245.140496,486 299.140496,536 365.140496,536 C431.140496,536 485.140496,486 485.140496,424 C485.140496,362 431.140496,312 365.140496,312 Z M649.140496,310 C583.140496,310 529.140496,360 529.140496,422 C529.140496,486 583.140496,536 649.140496,536 C717.140496,536 771.140496,486 771.140496,422 C771.140496,360 717.140496,310 649.140496,310 Z M965.140496,488 C961.140496,490 959.140496,494 949.140496,496 L949.140496,100 C949.140496,44 913.140496,0 863.140496,0 L145.140496,0 C95.1404959,0 49.1404959,44 49.1404959,100 L49.1404959,496 C49.1404959,494 43.1404959,490 39.1404959,488 C7.14049587,466 -10.8595041,496 7.14049587,524 C45.1404959,568 113.140496,624 221.140496,668 C107.140496,1050 495.140496,1112 489.140496,914 C489.140496,918 489.140496,804 489.140496,722 C501.140496,724 509.140496,726 517.140496,728 C517.140496,810 517.140496,918 517.140496,914 C511.140496,1112 899.140496,1050 787.140496,668 C893.140496,624 961.140496,568 997.140496,524 C1017.1405,496 995.140496,466 965.140496,488 Z M899.140496,526 C765.140496,600 645.140496,588 581.140496,586 C533.140496,582 517.140496,604 515.140496,634 C505.140496,626 493.140496,616 481.140496,606 C479.140496,604 479.140496,602 477.140496,600 C465.140496,590 451.140496,584 423.140496,586 C361.140496,588 233.140496,600 109.140496,528 L109.140496,144 C109.140496,74 125.140496,52 189.140496,52 L825.140496,52 C885.140496,52 899.140496,80 899.140496,144 L899.140496,526 Z"></path>
  </g>
</svg>