<?xml version="1.0" encoding="UTF-8"?>
<svg width="958px" height="1025px" viewBox="0 0 958 1025" version="1.1" xmlns="http://www.w3.org/2000/svg" xmlns:xlink="http://www.w3.org/1999/xlink">
  <g id="SmashCast" transform="translate(0.7075, 0.6137)" fill="currentColor" fill-rule="nonzero">
    <path d="M227.990849,406.166969 C220.822879,406.166969 212.631449,406.166969 205.463549,402.070269 L54.9355488,338.582969 C24.2158488,327.318369 12.9511488,293.526369 24.2158488,262.806569 C35.4795488,232.086869 69.2715488,220.822169 99.9912488,232.086869 L251.544249,296.598569 C282.263949,307.862269 293.527649,341.654269 282.263949,372.374969 C274.071569,390.806569 251.544249,406.166969 227.991449,406.166969 L227.990849,406.166969 Z M878.230849,685.718949 C871.062879,685.718949 862.871449,685.718949 855.703549,681.623249 L712.343549,617.110549 C681.623849,605.846849 670.359149,572.054849 681.623849,541.335149 C692.887549,510.614449 726.679549,499.350749 757.399249,510.614449 L900.759249,575.127149 C931.478949,586.390849 942.743649,620.182849 931.478949,650.902549 C920.215249,674.455249 900.759249,685.718949 878.230949,685.718949 L878.230849,685.718949 Z M289.430849,965.270949 C282.262879,965.270949 274.070449,965.270949 266.902549,961.175249 C236.182849,949.911549 224.919149,916.119549 236.182849,885.398849 L323.222849,685.718849 C334.486549,654.999149 368.278549,643.734449 398.999249,654.999149 C429.718949,666.262849 440.982649,700.054849 429.718949,730.774549 L341.654449,931.478549 C330.390749,949.911149 307.862449,965.270949 289.430849,965.270949 L289.430849,965.270949 Z M591.510849,262.806949 C584.342879,262.806949 576.150449,262.806949 568.982549,258.711249 C538.262849,247.446649 526.999149,213.654649 538.262849,182.934849 L576.150549,91.7991488 C587.415149,61.0794488 621.207149,49.8147488 651.926949,61.0794488 C682.646649,72.3431488 693.911349,106.135149 682.646649,136.854849 L644.758949,227.990549 C632.470849,247.446649 614.039249,262.806949 591.510949,262.806949 L591.510849,262.806949 Z M627.350849,1023.63895 C604.822549,1023.63895 582.295149,1008.27855 574.102849,989.846949 L495.255149,789.142949 C483.990549,758.423249 499.350849,728.726949 525.974849,713.366549 C556.694549,702.102849 586.390849,717.463229 601.751249,744.087249 L680.598949,944.791249 C691.862649,975.510949 676.503249,1005.20725 649.879249,1020.56665 C642.711279,1023.63895 634.518849,1023.63895 627.350949,1023.63895 L627.350849,1023.63895 Z M699.030849,464.534949 C676.503549,464.534949 653.975149,449.174549 645.782849,430.741949 C634.519149,400.022249 649.879529,370.326949 676.503549,354.966549 L877.207549,276.118849 C907.927249,264.854249 937.623549,280.214549 952.982949,306.838549 C964.247549,337.558249 948.887249,367.254549 922.263249,382.613949 L721.559249,460.438149 C714.391279,464.534949 706.198849,464.534949 699.030949,464.534949 L699.030849,464.534949 Z M343.702849,312.982949 C321.174549,312.982949 298.646249,297.623549 290.454849,279.190949 L211.606249,79.5109488 C200.342549,48.7912488 215.702929,19.0949488 242.326949,3.73454883 C273.046649,-7.52915117 302.742949,7.83122883 318.102349,34.4552488 L396.950049,235.158249 C408.214649,265.878949 392.854349,295.574249 366.230349,310.934649 C359.062379,312.982949 350.870949,312.982949 343.703049,312.982949 L343.702849,312.982949 Z M56.9825488,721.558949 C34.4552488,721.558949 11.9268488,706.198549 3.73454883,687.766949 C-7.52915117,657.047249 7.83122883,627.350949 34.4552488,611.990549 L166.551249,558.742549 C197.270949,547.478849 231.062949,562.839229 242.327649,589.463249 C253.591349,620.182949 238.230969,649.879249 211.606949,665.238649 L79.5109488,718.486649 C71.3185688,721.558949 64.1505488,721.558949 56.9826488,721.558949 L56.9825488,721.558949 Z"></path>
  </g>
</svg>