<?xml version="1.0" standalone="no"?>
<!DOCTYPE svg PUBLIC "-//W3C//DTD SVG 1.1//EN" "http://www.w3.org/Graphics/SVG/1.1/DTD/svg11.dtd" >
<svg xmlns="http://www.w3.org/2000/svg" xmlns:xlink="http://www.w3.org/1999/xlink" version="1.1" viewBox="-10 0 1034 1024">
   <path fill="currentColor"
d="M668.672 -137.928c6.14453 -2.04785 12.2881 -4.09668 18.4316 -3.07227c7.16895 2.04785 9.2168 9.21582 9.2168 15.3604c0 14.3359 -11.2646 24.5752 -13.3125 37.8877c-5.12012 22.5283 -9.21582 44.0322 -15.3594 66.5596
c-3.07227 10.2402 -17.4082 12.2881 -23.5527 5.12012c-7.16797 -8.19141 0 -19.4561 0 -29.6953c-3.07129 -20.4805 3.07227 -39.9365 4.09668 -60.416c0 -13.3125 7.16797 -27.6484 20.4795 -31.7441v0zM307.2 -121.544c10.2402 -4.0957 20.4795 1.02441 27.6475 8.19238
c9.2168 8.19141 9.2168 20.4795 11.2646 30.7197c7.16797 13.3115 19.4561 23.5518 24.5762 37.8877c3.07129 8.19238 1.02344 17.4082 -1.02441 26.624c-2.04785 8.19238 -11.2637 11.2637 -19.4561 10.2402c-10.2402 -8.19238 -15.3604 -19.4561 -21.5039 -30.7197
c-10.2402 -19.4561 -20.4805 -38.9121 -28.6719 -59.3926c-3.07227 -7.16797 -2.04785 -19.4561 7.16797 -23.5518v0zM910.336 41.2725c11.2637 -9.2168 23.5518 -18.4326 37.8877 -21.5049c15.3604 -4.0957 21.5039 21.5049 9.2168 28.6729
c-17.4082 15.3594 -38.9121 26.624 -57.3447 40.96c-7.16797 4.0957 -14.3359 12.2881 -23.5518 12.2881c-8.19238 0 -15.3604 5.11914 -22.5283 9.21582c-3.07129 -2.04785 -5.11914 -4.09668 -8.19141 -6.14453c7.16797 -7.16797 14.3359 -14.3359 20.4795 -22.5273
c2.04785 -4.09668 6.14453 -6.14453 10.2402 -9.2168c11.2637 -9.21582 20.4805 -22.5273 33.792 -31.7432v0zM79.8721 23.8643c7.16797 -3.07227 15.3604 -1.02441 21.5039 3.07129c12.2881 7.16797 18.4316 19.4561 28.6719 28.6729
c8.19238 7.16797 15.3604 15.3594 23.5518 23.5518c6.14453 6.14355 14.3359 10.2402 20.4805 15.3594c7.16797 6.14453 4.0957 19.4561 -4.0957 22.5283c-8.19238 3.07227 -15.3604 -3.07227 -22.5283 -5.12012c-10.2402 -3.07129 -18.4316 -9.21582 -27.6484 -13.3115
c-10.2393 -2.04785 -17.4072 -8.19238 -27.6475 -10.2402c-11.2637 -2.04785 -20.4805 -8.19238 -27.6484 -17.4082c-9.21582 -16.3838 -2.04785 -40.96 15.3604 -47.1035v0zM878.592 175.416c-184.319 -2.04785 -369.664 -5.12012 -553.983 -4.0957
c-15.3604 -1.02441 -27.6484 10.2393 -32.7686 24.5762c-34.8154 -2.04883 -70.6562 -2.04883 -105.472 -4.09668c0 6.14453 1.02344 13.3125 1.02344 19.4561c-9.21582 0 -18.4316 -1.02344 -27.6475 1.02441c-8.19238 2.04785 -15.3604 10.2393 -13.3125 18.4316
c11.2646 129.024 22.5283 258.048 33.792 387.072c1.02441 16.3838 11.2646 32.7676 27.6484 38.9121c23.5518 8.19141 49.1523 9.21582 73.7275 4.0957c27.6484 -1.02441 55.2969 -1.02441 82.9443 -2.04785c8.19238 18.4316 17.4082 35.8398 26.624 53.248
c13.3125 25.5996 37.8877 40.96 59.3916 58.3682c6.14453 5.12012 13.3125 10.2393 17.4082 17.4072c2.04785 9.2168 2.04785 18.4326 0 27.6484c-4.0957 18.4316 -7.16797 37.8877 -11.2637 56.3203c12.2881 3.07129 24.5762 7.16797 35.8398 10.2393
c1.02441 -25.5996 3.07227 -51.1992 5.12012 -76.7998c0 -13.3115 0 -27.6475 -9.21582 -36.8643c-17.4082 -19.4551 -40.96 -32.7676 -59.3926 -51.1992c-15.3594 -15.3604 -22.5273 -36.8643 -32.7676 -56.3203c20.4795 -1.02441 39.9355 -1.02441 60.416 0
c-1.02441 2.04785 -3.07227 4.0957 -4.0957 6.14355c3.07129 3.07227 6.14355 6.14453 9.21582 9.2168c9.21582 -7.16797 18.4316 -13.3125 28.6719 -20.4805s14.3359 -20.4795 16.3838 -31.7441c6.14453 -30.7197 7.16797 -61.4395 8.19238 -92.1602
c1.02344 -36.8633 -6.14453 -73.7275 -8.19238 -110.592c0 -6.14355 0 -14.3359 5.12012 -19.4561c8.19238 -6.14355 19.4561 -7.16797 29.6963 -9.21582c4.0957 18.4316 8.19141 37.8877 12.2881 56.3203c6.14355 47.1035 10.2393 94.208 12.2881 142.336
c5.11914 0 11.2637 0 17.4072 -1.02441c2.04785 -8.19141 2.04785 -16.3838 2.04785 -25.5996c-1.02344 -30.7197 -4.0957 -61.4404 -7.16797 -91.1357c-1.02344 -24.5762 -4.0957 -49.1523 -4.0957 -74.752c0 -10.2402 -1.02344 -23.5527 7.16797 -30.7207
c7.16797 -6.14355 18.4326 -6.14355 27.6484 -5.12012c3.07129 21.5039 7.16797 41.9844 10.2393 63.4883c4.09668 53.248 1.02441 107.521 0 160.769h18.4326c4.0957 -17.4082 2.04785 -35.8408 3.07227 -53.248c0 -36.8643 2.04785 -73.7285 -3.07227 -110.593
c-3.07227 -11.2637 -2.04785 -25.5996 7.16797 -34.8154c7.16797 -6.14453 16.3838 -3.07227 24.5762 -2.04785c2.04785 46.0801 2.04785 92.1592 1.02344 138.239c0 20.4805 -2.04785 40.96 -5.12012 61.4404c6.14453 1.02441 11.2646 1.02441 17.4082 2.04785
c11.2646 -46.0801 10.2402 -95.2314 19.4561 -141.312c6.14453 -3.07227 12.2881 -1.02441 18.4326 -1.02441c0 61.4404 -6.14453 122.88 -10.2402 184.32c-2.04785 13.3115 -6.14453 26.624 -9.21582 40.96c-1.02441 8.19141 -8.19238 12.2881 -13.3125 18.4316
c-12.2881 13.3125 -25.5996 25.6006 -37.8877 38.9121c-12.2881 16.3838 -26.624 30.7197 -39.9365 45.0557c4.09668 2.04883 8.19238 6.14453 13.3125 4.09668c-6.14453 34.8154 -6.14453 69.6318 -8.19238 104.447c11.2646 -3.07129 23.5518 -6.14355 34.8164 -9.21582
c-1.02441 -34.8154 -8.19238 -70.6562 4.0957 -104.448c17.4082 -27.6475 44.0322 -48.1279 64.5117 -73.7275c9.2168 -12.2881 10.2402 -27.6484 14.3359 -41.9844c30.7207 0 60.416 -1.02344 91.1367 -1.02344c11.2637 0 22.5273 -2.04785 30.7197 -8.19238
c15.3604 -11.2637 21.5039 -31.7441 21.5039 -50.1758c8.19238 -131.072 15.3604 -262.144 23.5518 -392.192c3.07227 -13.3115 -8.19141 -27.6475 -21.5039 -25.5996zM274.432 588.088c-6.14355 17.4082 -30.7197 18.4316 -46.0801 11.2637
c-8.19141 -119.808 -16.3838 -239.615 -24.5752 -359.424h11.2637c7.16797 67.584 13.3115 135.168 20.4795 202.752c1.02441 11.2646 1.02441 22.5283 4.09668 33.792c2.04785 -17.4072 0 -35.8398 0 -53.248c0 -66.5596 -2.04785 -134.144 -2.04785 -200.704
c7.16797 0 14.3359 1.02441 21.5039 1.02441c2.04785 55.2959 3.07129 110.592 5.12012 166.912c0 10.2402 0 19.4561 2.04785 29.6963c1.02344 -4.09668 2.04785 -8.19238 2.04785 -12.2881c5.12012 -60.416 10.2402 -121.856 15.3604 -182.272
c6.14355 0 12.2871 0 18.4316 1.02441c-8.19238 118.784 -17.4082 239.616 -27.6484 361.472z" />
</svg>
