<?xml version="1.0" standalone="no"?>
<!DOCTYPE svg PUBLIC "-//W3C//DTD SVG 1.1//EN" "http://www.w3.org/Graphics/SVG/1.1/DTD/svg11.dtd" >
<svg xmlns="http://www.w3.org/2000/svg" xmlns:xlink="http://www.w3.org/1999/xlink" version="1.1" viewBox="-10 0 1034 1024">
   <path fill="currentColor"
d="M262.144 265.528c-7.16797 0 -15.3594 0 -22.5273 -4.09668l-150.528 -63.4873c-30.7197 -11.2646 -41.9844 -45.0566 -30.7197 -75.7764c11.2637 -30.7197 45.0557 -41.9844 75.7754 -30.7197l151.553 64.5117c30.7197 11.2637 41.9834 45.0557 30.7197 75.7764
c-8.19238 18.4316 -30.7197 33.792 -54.2725 33.792zM912.384 545.08c-7.16797 0 -15.3594 0 -22.5273 -4.0957l-143.36 -64.5127c-30.7197 -11.2637 -41.9844 -45.0557 -30.7197 -75.7754c11.2637 -30.7207 45.0557 -41.9844 75.7754 -30.7207l143.36 64.5127
c30.7197 11.2637 41.9844 45.0557 30.7197 75.7754c-11.2637 23.5527 -30.7197 34.8164 -53.248 34.8164zM323.584 824.632c-7.16797 0 -15.3604 0 -22.5283 -4.0957c-30.7197 -11.2637 -41.9834 -45.0557 -30.7197 -75.7764l87.04 -199.68
c11.2637 -30.7197 45.0557 -41.9844 75.7764 -30.7197c30.7197 11.2637 41.9834 45.0557 30.7197 75.7754l-88.0645 200.704c-11.2637 18.4326 -33.792 33.792 -52.2236 33.792zM625.664 122.168c-7.16797 0 -15.3604 0 -22.5283 -4.0957
c-30.7197 -11.2646 -41.9834 -45.0566 -30.7197 -75.7764l37.8877 -91.1357c11.2646 -30.7197 45.0566 -41.9844 75.7764 -30.7197c30.7197 11.2637 41.9844 45.0557 30.7197 75.7754l-37.8877 91.1357c-12.2881 19.4561 -30.7197 34.8164 -53.248 34.8164zM661.504 883
c-22.5283 0 -45.0557 -15.3604 -53.248 -33.792l-78.8477 -200.704c-11.2646 -30.7197 4.0957 -60.416 30.7197 -75.7764c30.7197 -11.2637 60.416 4.09668 75.7764 30.7207l78.8477 200.704c11.2637 30.7197 -4.0957 60.416 -30.7197 75.7754
c-7.16797 3.07227 -15.3604 3.07227 -22.5283 3.07227zM733.184 323.896c-22.5273 0 -45.0557 -15.3604 -53.248 -33.793c-11.2637 -30.7197 4.09668 -60.415 30.7207 -75.7754l200.704 -78.8477c30.7197 -11.2646 60.416 4.0957 75.7754 30.7197
c11.2646 30.7197 -4.0957 60.416 -30.7197 75.7754l-200.704 77.8242c-7.16797 4.09668 -15.3604 4.09668 -22.5283 4.09668zM377.856 172.344c-22.5283 0 -45.0566 -15.3594 -53.248 -33.792l-78.8486 -199.68c-11.2637 -30.7197 4.09668 -60.416 30.7207 -75.7764
c30.7197 -11.2637 60.416 4.09668 75.7754 30.7207l78.8477 200.703c11.2646 30.7207 -4.0957 60.416 -30.7197 75.7764c-7.16797 2.04785 -15.3594 2.04785 -22.5273 2.04785zM91.1357 580.92c-22.5273 0 -45.0557 -15.3604 -53.248 -33.792
c-11.2637 -30.7197 4.09668 -60.416 30.7207 -75.7764l132.096 -53.248c30.7197 -11.2637 64.5117 4.09668 75.7764 30.7207c11.2637 30.7197 -4.09668 60.416 -30.7207 75.7754l-132.096 53.248c-8.19238 3.07227 -15.3604 3.07227 -22.5283 3.07227z" />
</svg>
