<?xml version="1.0" encoding="UTF-8"?>
<svg width="905px" height="1024px" viewBox="0 0 905 1024" version="1.1" xmlns="http://www.w3.org/2000/svg" xmlns:xlink="http://www.w3.org/1999/xlink">
  <g id="SmashWords" transform="translate(0.6833, 0.711)" fill="currentColor" fill-rule="nonzero">
    <path d="M608.196785,3.34475416 C614.341315,1.29690416 620.484885,-0.751925843 626.628385,0.272484157 C633.797335,2.32033416 635.845185,9.48830416 635.845185,15.6328842 C635.845185,29.9687842 624.580585,40.2080842 622.532685,53.5205842 C617.412565,76.0488842 613.316865,97.5527842 607.173285,120.080184 C604.101015,130.320384 589.765085,132.368284 583.620585,125.200304 C576.452615,117.008894 583.620585,105.744204 583.620585,95.5050042 C580.549295,75.0245042 586.692855,55.5685042 587.717265,35.0890042 C587.717265,21.7765042 594.885235,7.44060416 608.196765,3.34490416 L608.196765,3.34490416 L608.196785,3.34475416 Z M246.724785,19.7287542 C256.964985,15.6330542 267.204285,20.7531642 274.372285,27.9211342 C283.589085,36.1125442 283.589085,48.4006342 285.636885,58.6408342 C292.804855,71.9523342 305.092985,82.1926342 310.213085,96.5285342 C313.284375,104.720914 311.236525,113.936734 309.188675,123.152534 C307.140825,131.344914 297.924975,134.416234 289.732575,133.392734 C279.492375,125.200354 274.372175,113.936634 268.228675,102.673034 C257.988475,83.2169342 247.748175,63.7609342 239.556775,43.2804342 C236.484505,36.1124642 237.508925,23.8243342 246.724745,19.7286342 L246.724745,19.7286342 L246.724785,19.7287542 Z M849.860785,182.545254 C861.124485,173.328454 873.412585,164.112654 887.748485,161.040354 C903.108885,156.944654 909.252385,182.545254 896.965285,189.713254 C879.557085,205.072654 858.053185,216.337254 839.620585,230.673254 C832.452615,234.768954 825.284685,242.961354 816.068785,242.961354 C807.876405,242.961354 800.708385,248.080494 793.540485,252.177174 C790.469195,250.129324 788.421345,248.080494 785.349075,246.032644 C792.517045,238.864674 799.684975,231.696744 805.828575,223.505344 C807.876425,219.408664 811.973105,217.360814 816.068775,214.288544 C827.332475,205.072724 836.549275,191.761244 849.860775,182.545344 L849.860775,182.545344 L849.860785,182.545254 Z M19.3968847,165.137054 C26.5648547,162.064784 34.7572847,164.112644 40.9007847,168.208344 C53.1888847,175.376314 59.3323847,187.664444 69.5726847,196.881244 C77.7650647,204.049214 84.9330847,212.240644 93.1244847,220.433044 C99.2690147,226.576594 107.460385,230.673244 113.604985,235.792444 C120.772955,241.936974 117.700685,255.248544 109.509285,258.320744 C101.316905,261.393014 94.1488847,255.248474 86.9809847,253.200624 C76.7407847,250.129334 68.5493847,243.984804 59.3325847,239.889124 C49.0932847,237.841274 41.9253847,231.696744 31.6850847,229.648924 C20.4213847,227.601074 11.2045847,221.456544 4.03668474,212.240724 C-5.17913526,195.856924 1.98883474,171.280724 19.3970847,165.137224 L19.3970847,165.137224 L19.3968847,165.137054 Z M818.116785,316.688754 C633.797785,314.640904 448.452785,311.568634 264.133785,312.593054 C248.773385,311.568644 236.485385,322.832354 231.365185,337.169254 C196.549785,335.120424 160.708985,335.120424 125.893185,333.072574 C125.893185,339.217104 126.916625,346.385074 126.916625,352.528674 C117.700805,352.528674 108.485025,351.505234 99.2691247,353.553084 C91.0767447,355.600934 83.9087247,363.792384 85.9566247,371.984684 C97.2212247,501.008684 108.484925,630.032684 119.748625,759.056684 C120.773035,775.440484 131.013225,791.824284 147.397025,797.968784 C170.948825,806.160194 196.549325,807.184604 221.124525,802.064484 C248.772925,801.040074 276.421425,801.040074 304.068825,800.016634 C312.261205,818.448234 321.477025,835.856434 330.692825,853.264634 C344.005325,878.864234 368.580525,894.224634 390.084425,911.632834 C396.228955,916.752954 403.396925,921.872134 407.492625,929.040034 C409.540475,938.256834 409.540475,947.472634 407.492625,956.688434 C403.396925,975.120034 400.324655,994.576134 396.228925,1013.00873 C408.517025,1016.08002 420.805125,1020.1767 432.068725,1023.24803 C433.093135,997.648434 435.140995,972.048834 437.188845,946.448234 C437.188845,933.136734 437.188845,918.800734 427.973025,909.583934 C410.564825,890.128834 387.013025,876.816334 368.580425,858.384734 C353.221025,843.024334 346.053125,821.520434 335.812825,802.064434 C356.292325,801.040024 375.748325,801.040024 396.228825,802.064434 C395.204415,804.112284 393.156555,806.160134 392.133125,808.207984 C395.204415,811.280254 398.276675,814.352514 401.348945,817.424784 C410.564765,810.256814 419.780545,804.112284 430.020845,796.944284 C440.261145,789.776284 444.356745,776.464784 446.404645,765.200184 C452.549175,734.480484 453.572615,703.760684 454.597025,673.039984 C455.620465,636.176684 448.452495,599.312484 446.404645,562.447984 C446.404645,556.304434 446.404645,548.112084 451.524765,542.991884 C459.717145,536.848334 470.980865,535.823914 481.221065,533.776064 C485.316765,552.207664 489.412475,571.663764 493.509165,590.096364 C499.652715,637.199864 503.748465,684.304364 505.797265,732.432364 C510.916405,732.432364 517.060965,732.432364 523.204465,731.407954 C525.252315,723.216544 525.252315,715.024154 525.252315,705.808354 C524.228875,675.088654 521.156615,644.367954 518.084345,614.672654 C517.060905,590.096454 513.988645,565.520354 513.988645,539.920654 C513.988645,529.680454 512.965205,516.367954 521.156615,509.199954 C528.324585,503.056404 539.589215,503.056404 548.805015,504.079834 C551.876305,525.583734 555.972985,546.064234 559.044315,567.568134 C563.140995,620.816134 560.068725,675.089134 559.044315,728.337134 L577.476915,728.337134 C581.572615,710.928934 579.524765,692.496334 580.549185,675.089134 C580.549185,638.224834 582.597035,601.360634 577.476915,564.496134 C574.404645,553.232434 575.429065,538.896534 584.644885,529.680734 C591.812855,523.536204 601.028685,526.608464 609.221085,527.632884 C611.268935,573.712984 611.268935,619.792084 610.244525,665.871884 C610.244525,686.352384 608.196675,706.831884 605.124405,727.312284 C611.268935,728.336694 616.389005,728.336694 622.532605,729.360134 C633.797205,683.280034 632.772805,634.128734 641.988705,588.048134 C648.133235,584.975864 654.276805,587.023724 660.421305,587.023724 C660.421305,648.464124 654.276775,709.903724 650.181105,771.343724 C648.133255,784.655224 644.036575,797.967724 640.965285,812.303724 C639.940875,820.495134 632.772905,824.591824 627.652785,830.735324 C615.364685,844.047824 602.053185,856.335924 589.765085,869.647424 C577.476985,886.031224 563.141085,900.367124 549.828585,914.703124 C553.925265,916.751954 558.020965,920.847654 563.141085,918.799804 C556.996555,953.615204 556.996555,988.431604 554.948705,1023.24803 C566.213305,1020.17551 578.500505,1017.10325 589.765105,1014.03098 C588.740695,979.215584 581.572725,943.374784 593.860805,909.582984 C611.269005,881.935484 637.893005,861.455084 658.372505,835.855484 C667.589305,823.567384 668.612705,808.207084 672.708405,793.871084 C703.429105,793.871084 733.124405,792.847644 763.845105,792.847644 C775.108805,792.847644 786.372405,790.799794 794.564805,784.655264 C809.925205,773.391564 816.068705,752.911164 816.068705,734.479464 C824.261085,603.407464 831.429105,472.335464 839.620505,342.287464 C842.692775,328.975964 831.429095,314.639964 818.116605,316.687864 L818.116785,316.688754 Z M213.956785,729.360754 C207.813235,746.768954 183.237085,747.792354 167.876685,740.624454 C159.685275,620.816454 151.492885,501.009454 143.301485,381.200454 L154.565185,381.200454 C161.733155,448.784454 167.876685,516.368454 175.044685,583.952454 C176.069095,595.217054 176.069095,606.480754 179.141365,617.744454 C181.189215,600.337254 179.141365,581.904654 179.141365,564.496454 C179.141365,497.936854 177.093515,430.352454 177.093515,363.792454 C184.261485,363.792454 191.429415,364.816864 198.597415,364.816864 C200.645265,420.112764 201.668705,475.408864 203.717535,531.728864 C203.717535,541.969064 203.717535,551.184964 205.765385,561.425164 C206.788825,557.328484 207.813235,553.232784 207.813235,549.137064 C212.933355,488.721064 218.053435,427.281064 223.173635,366.865064 C229.317185,366.865064 235.460735,366.865064 241.605235,367.889474 C233.412855,486.673474 224.197035,607.505474 213.956835,729.361474 L213.956785,729.360754 Z"></path>
  </g>
</svg>