<?xml version="1.0" standalone="no"?>
<!DOCTYPE svg PUBLIC "-//W3C//DTD SVG 1.1//EN" "http://www.w3.org/Graphics/SVG/1.1/DTD/svg11.dtd" >
<svg xmlns="http://www.w3.org/2000/svg" xmlns:xlink="http://www.w3.org/1999/xlink" version="1.1" viewBox="-10 0 1034 1024">
   <path fill="currentColor"
d="M288 61c94 0 140 -56 134 -106c-6 -42 -46 -80 -124 -82c-64 0 -106 48 -112 94c-6 48 24 96 102 94zM760 49c90 -4 128 -50 130 -94c0 -52 -48 -102 -130 -96c-64 6 -104 50 -108 96c-8 50 26 100 108 94zM816 251c-224 22 -236 24 -650 34c-174 0 -136 598 236 598
c354 0 784 -670 414 -632zM412 777c-326 0 -282 -388 -226 -390c376 -14 474 -30 608 -30c138 0 -124 420 -382 420z" />
</svg>
