<?xml version="1.0" encoding="UTF-8"?>
<svg width="892px" height="1025px" viewBox="0 0 892 1025" version="1.1" xmlns="http://www.w3.org/2000/svg" xmlns:xlink="http://www.w3.org/1999/xlink">
  <g id="SmugMug" transform="translate(0.0269, 0.3376)" fill="currentColor" fill-rule="nonzero">
    <path d="M221.892444,202.490784 C315.892444,202.490784 361.892444,146.490784 355.892444,96.4907844 C349.892444,54.4907844 309.892444,16.4907844 231.892444,14.4907844 C167.892444,14.4907844 125.892444,62.4907844 119.892444,108.490784 C113.892444,156.490784 143.892444,204.490784 221.892444,202.490784 Z M693.892444,190.490784 C783.892444,186.490784 821.892444,140.490784 823.892444,96.4907844 C823.892444,44.4907844 775.892444,-5.50921559 693.892444,0.490784409 C629.892444,6.49078441 589.892444,50.4907844 585.892444,96.4907844 C577.892444,146.490784 611.892444,196.490784 693.892444,190.490784 Z M749.892444,392.490784 C525.892444,414.490784 513.892444,416.490784 99.892444,426.490784 C-74.107556,426.490784 -36.107556,1024.49078 335.892444,1024.49078 C689.892444,1024.49078 1119.89244,354.490784 749.892444,392.490784 Z M345.892444,918.490784 C19.892444,918.490784 63.892444,530.490784 119.892444,528.490784 C495.892444,514.490784 593.892444,498.490784 727.892444,498.490784 C865.892444,498.490784 603.892444,918.490784 345.892444,918.490784 Z"></path>
  </g>
</svg>