<?xml version="1.0" encoding="UTF-8"?>
<svg width="1028px" height="964px" viewBox="0 0 1028 964" version="1.1" xmlns="http://www.w3.org/2000/svg" xmlns:xlink="http://www.w3.org/1999/xlink">
  <g id="SnapChat" transform="translate(0.5923, 0)" fill="currentColor" fill-rule="nonzero">
    <path d="M1005.82946,718.84708 C869.638457,696.31978 807.174457,555.00708 805.126457,548.86408 C796.934077,534.52818 794.886257,523.26348 798.981927,513.02328 C807.174307,496.63948 834.821727,487.42368 855.302227,481.28008 C859.397927,479.23125 865.542427,477.1834 869.638127,475.13555 C888.069727,468.992 901.382227,460.79965 911.621527,451.58375 C921.861727,441.34355 923.909627,431.10325 923.909627,423.93535 C923.909627,407.55155 909.573727,394.24005 890.117627,386.04765 C883.974077,383.9998 875.781727,381.95195 867.590327,381.95195 C861.445797,381.95195 853.254427,381.95195 847.109827,386.04765 C830.726027,394.24003 817.413527,398.33575 803.077627,398.33575 C796.934077,398.33575 792.838327,396.2879 788.741727,396.2879 C790.790557,388.09552 790.790557,381.952 790.790557,375.8074 L790.790557,371.7117 C794.886257,303.1033 801.029857,215.0397 778.502457,165.8877 C762.117657,130.0479 740.613757,99.3281 713.989757,75.7754 C693.510257,53.2481 667.909657,37.8877 640.262257,25.5996 C592.134357,3.0723 546.054257,-1.42108547e-14 524.550257,-1.42108547e-14 L522.502407,-1.42108547e-14 L504.069807,-1.42108547e-14 C481.542507,-1.42108547e-14 435.462407,4.0957 386.309807,25.5996 C358.661407,37.8877 334.086207,53.248 312.582307,75.7754 C286.981707,99.3281 266.502207,130.0479 250.117507,163.8399 C226.565707,216.0635 231.685907,302.0799 235.781607,371.7119 C235.781607,379.90428 237.829457,388.0957 237.829457,394.2402 C233.733757,396.28805 227.590157,398.3359 219.397857,398.3359 C207.109757,398.3359 191.750357,394.2402 175.365657,386.0478 C169.222107,383.99995 163.077557,381.9521 156.934057,381.9521 C146.693857,381.9521 134.405757,386.0478 127.237757,390.14351 C114.949657,398.33589 106.758257,408.57611 104.710457,417.79191 C102.661627,425.98332 102.661627,440.32021 119.046357,453.63171 C127.237767,461.82409 141.573657,470.01551 156.934057,476.16001 C161.029757,478.20786 167.174257,480.25571 173.317857,482.30356 C191.750457,488.44809 219.397957,496.63946 227.590357,514.04766 C231.686057,524.28786 229.638207,536.57596 223.493677,549.88746 L221.445827,549.88746 C219.397977,553.98316 203.014227,591.87186 169.222227,629.75956 C150.790627,652.28786 131.334527,671.74396 106.758327,686.07986 C81.1577272,704.51146 50.4380272,713.72736 20.7417272,719.87186 C8.45362723,721.91971 -1.78557277,732.15996 0.262227233,743.42366 C0.262227233,747.51936 0.262227233,751.61604 2.31007723,755.71176 C6.40577723,765.95196 18.6938772,776.19126 36.1020772,785.40806 C58.6303772,795.64736 92.4223772,803.83966 136.454077,811.00766 C138.502907,815.10336 140.550757,825.34356 142.598607,833.53596 C144.646457,841.72737 146.694307,849.91976 148.742157,857.08776 C152.838837,865.28014 158.982357,877.56726 176.390557,877.56726 C182.534107,877.56726 190.726457,875.51941 199.942357,873.47156 C212.230457,871.42371 229.638657,867.32801 254.214857,867.32801 C266.502957,867.32801 277.766657,869.37586 292.102557,871.42371 C315.654357,875.51941 338.182657,889.85531 363.782257,907.26351 C399.622057,932.86411 441.606457,963.58381 504.070257,963.58381 L510.214787,963.58381 L518.406197,963.58381 C580.870097,963.58381 622.854197,933.88751 658.694197,907.26351 C684.294797,888.83191 706.822097,875.51941 730.374897,871.42371 C744.710797,869.37586 755.974497,867.32801 770.310397,867.32801 C790.790897,867.32801 808.198097,869.37586 822.533997,873.47156 C832.774197,875.51941 840.966597,875.51941 846.086697,875.51941 L852.230247,875.51941 C864.518347,875.51941 874.758547,869.37586 877.829847,857.08781 C879.878677,848.89543 881.926527,840.70401 883.974377,833.53601 C886.022227,825.34363 888.070077,815.10341 890.117927,811.00771 C934.150127,802.81533 967.942127,794.62391 990.470927,785.40811 C1008.90253,775.16791 1020.16723,766.97551 1024.26293,755.71181 C1026.31078,751.61611 1026.31078,747.51943 1026.31078,743.42371 C1028.35863,730.11221 1018.1184,720.89541 1005.83028,718.84751 L1005.82946,718.84708 Z"></path>
  </g>
</svg>