<?xml version="1.0" standalone="no"?>
<!DOCTYPE svg PUBLIC "-//W3C//DTD SVG 1.1//EN" "http://www.w3.org/Graphics/SVG/1.1/DTD/svg11.dtd" >
<svg xmlns="http://www.w3.org/2000/svg" xmlns:xlink="http://www.w3.org/1999/xlink" version="1.1" viewBox="-13 0 1048 1024">
   <path fill="currentColor"
d="M1003.52 609.592c-136.191 -22.5273 -198.655 -163.84 -200.703 -169.983c-8.19238 -14.3359 -10.2402 -25.6006 -6.14453 -35.8408c8.19238 -16.3838 35.8398 -25.5996 56.3203 -31.7432c4.0957 -2.04883 10.2402 -4.09668 14.3359 -6.14453
c18.4316 -6.14355 31.7441 -14.3359 41.9834 -23.5518c10.2402 -10.2402 12.2881 -20.4805 12.2881 -27.6484c0 -16.3838 -14.3359 -29.6953 -33.792 -37.8877c-6.14355 -2.04785 -14.3359 -4.0957 -22.5273 -4.0957c-6.14453 0 -14.3359 0 -20.4805 4.0957
c-16.3838 8.19238 -29.6963 12.2881 -44.0322 12.2881c-6.14355 0 -10.2393 -2.04785 -14.3359 -2.04785c2.04883 -8.19238 2.04883 -14.3359 2.04883 -20.4805v-4.0957c4.0957 -68.6084 10.2393 -156.672 -12.2881 -205.824
c-16.3848 -35.8398 -37.8887 -66.5596 -64.5127 -90.1123c-20.4795 -22.5273 -46.0801 -37.8877 -73.7275 -50.1758c-48.1279 -22.5273 -94.208 -25.5996 -115.712 -25.5996h-2.04785h-18.4326c-22.5273 0 -68.6074 4.0957 -117.76 25.5996
c-27.6484 12.2881 -52.2236 27.6484 -73.7275 50.1758c-25.6006 23.5527 -46.0801 54.2725 -62.4648 88.0645c-23.5518 52.2236 -18.4316 138.24 -14.3359 207.872c0 8.19238 2.04785 16.3838 2.04785 22.5283c-4.0957 2.04785 -10.2393 4.0957 -18.4316 4.0957
c-12.2881 0 -27.6475 -4.0957 -44.0322 -12.2881c-6.14355 -2.04785 -12.2881 -4.0957 -18.4316 -4.0957c-10.2402 0 -22.5283 4.0957 -29.6963 8.19141c-12.2881 8.19238 -20.4795 18.4326 -22.5273 27.6484c-2.04883 8.19141 -2.04883 22.5283 14.3359 35.8398
c8.19141 8.19238 22.5273 16.3838 37.8877 22.5283c4.0957 2.04785 10.2402 4.0957 16.3838 6.14355c18.4326 6.14453 46.0801 14.3359 54.2725 31.7441c4.0957 10.2402 2.04785 22.5283 -4.09668 35.8398h-2.04785c-2.04785 4.0957 -18.4316 41.9844 -52.2236 79.8721
c-18.4316 22.5283 -37.8877 41.9844 -62.4639 56.3203c-25.6006 18.4316 -56.3203 27.6475 -86.0166 33.792c-12.2881 2.04785 -22.5273 12.2881 -20.4795 23.5518c0 4.0957 0 8.19238 2.04785 12.2881c4.0957 10.2402 16.3838 20.4795 33.792 29.6963
c22.5283 10.2393 56.3203 18.4316 100.352 25.5996c2.04883 4.0957 4.09668 14.3359 6.14453 22.5283c2.04785 8.19141 4.0957 16.3838 6.14355 23.5518c4.09668 8.19238 10.2402 20.4795 27.6484 20.4795c6.14355 0 14.3359 -2.04785 23.5518 -4.0957
c12.2881 -2.04785 29.6963 -6.14355 54.2725 -6.14355c12.2881 0 23.5518 2.04785 37.8877 4.0957c23.5518 4.0957 46.0801 18.4316 71.6797 35.8398c35.8398 25.6006 77.8242 56.3203 140.288 56.3203h6.14453h8.19141c62.4639 0 104.448 -29.6963 140.288 -56.3203
c25.6006 -18.4316 48.1279 -31.7441 71.6807 -35.8398c14.3359 -2.04785 25.5996 -4.0957 39.9355 -4.0957c20.4805 0 37.8877 2.04785 52.2236 6.14355c10.2402 2.04785 18.4326 2.04785 23.5527 2.04785h6.14355c12.2881 0 22.5283 -6.14355 25.5996 -18.4316
c2.04883 -8.19238 4.09668 -16.3838 6.14453 -23.5518c2.04785 -8.19238 4.0957 -18.4326 6.14355 -22.5283c44.0322 -8.19238 77.8242 -16.3838 100.353 -25.5996c18.4316 -10.2402 29.6963 -18.4326 33.792 -29.6963c2.04785 -4.0957 2.04785 -8.19238 2.04785 -12.2881
c2.04785 -13.3115 -8.19238 -22.5283 -20.4805 -24.5762z" />
</svg>
