<?xml version="1.0" encoding="UTF-8"?>
<svg width="1025px" height="735px" viewBox="0 0 1025 735" version="1.1" xmlns="http://www.w3.org/2000/svg" xmlns:xlink="http://www.w3.org/1999/xlink">
  <g id="Society6" transform="translate(-0, 0.0684)" fill="currentColor" fill-rule="nonzero">
    <path d="M896.495538,272.623147 C859.631238,263.407327 822.768038,266.479597 785.903538,272.623147 C744.943538,279.791117 709.103738,300.271547 669.167538,323.823347 C716.272038,156.911347 844.271538,68.846347 970.223538,52.463347 C998.896438,48.367647 992.751838,31.983847 991.728438,15.599047 C990.704028,-6.928253 974.320238,1.263147 964.080038,2.287547 C883.184538,14.575647 803.312038,35.055147 731.632038,74.991647 C623.088038,135.407647 541.168038,212.207647 495.088038,313.583647 C495.088038,290.031847 482.799938,264.431347 459.248238,249.071947 C445.936738,239.856127 431.599838,232.688147 415.216038,229.615847 C340.464038,212.207647 266.737038,212.207647 193.008038,233.711547 C158.192638,243.951747 127.471938,260.335547 102.896738,286.959547 C48.6242384,343.279847 53.7444384,429.295547 114.160438,479.471547 C137.712238,498.927647 165.360638,512.240147 194.032538,522.480347 C219.632138,531.696167 247.280538,539.887547 270.832338,554.223547 C303.599938,573.679647 312.816738,600.303647 301.552038,636.143447 C290.288338,671.984247 262.639938,686.320247 227.824538,694.511647 C205.296238,699.631767 189.936838,697.583917 183.792338,669.935447 C175.599958,634.095647 160.240538,601.328047 130.544338,576.751847 C95.7289384,547.055547 41.4564384,553.200047 14.8323384,586.992047 C-11.7917616,620.784047 -1.55146158,665.839747 37.3606384,694.512047 C54.7688384,706.800147 74.2239384,714.992547 94.7044384,720.112647 C167.408538,737.520847 240.112438,738.544247 312.816438,722.160497 C390.639638,704.752297 449.007438,663.792297 463.343438,572.656497 C466.415708,583.920197 470.511408,595.183797 474.608038,606.448497 C482.799448,626.927997 494.064138,644.336197 507.375638,659.696497 L507.375638,658.672087 C530.927438,685.296087 560.623638,705.776587 597.487938,719.088087 C647.663738,736.496287 699.886938,737.520687 752.111938,731.376187 C885.231938,714.992387 1000.94394,608.496187 1021.42394,480.496187 C1037.80774,380.143187 986.608538,295.152187 896.495938,272.624187 L896.495538,272.623147 Z M335.343538,422.127147 C309.743938,412.911327 284.144338,404.718947 260.591538,392.430847 C219.631538,371.951347 210.415738,323.823447 240.112038,287.983847 C252.400138,273.647947 267.759538,264.431147 286.192138,257.263147 C304.623738,250.095177 315.887438,252.143027 322.031938,275.695747 C330.223348,310.511147 344.560238,343.279747 374.255538,365.807047 C405.999638,390.383247 454.127638,385.263147 479.728538,357.615637 C465.392638,401.647837 457.200238,449.775837 456.175838,503.023637 L456.175838,509.167187 C456.175838,510.191597 455.152398,510.191597 455.152398,511.215037 C423.408298,465.134937 395.759798,444.655437 335.343398,422.127137 L335.343538,422.127147 Z M781.807538,647.407147 C772.591718,660.718647 761.328038,671.983347 746.992138,680.174747 C708.080038,702.703047 670.192338,693.487247 648.688438,653.550747 C629.232338,618.735347 628.207938,579.823247 629.232338,535.790747 C627.184488,493.806347 636.400308,448.750747 646.639538,402.670747 C652.784068,372.974447 696.816338,340.206847 736.751838,335.086747 C789.999838,327.918777 828.912038,353.519347 837.104838,406.766447 C849.392938,493.806447 833.008158,574.703447 781.807938,647.407447 L781.807538,647.407147 Z"></path>
  </g>
</svg>