<?xml version="1.0" standalone="no"?>
<!DOCTYPE svg PUBLIC "-//W3C//DTD SVG 1.1//EN" "http://www.w3.org/Graphics/SVG/1.1/DTD/svg11.dtd" >
<svg xmlns="http://www.w3.org/2000/svg" xmlns:xlink="http://www.w3.org/1999/xlink" version="1.1" viewBox="-11 0 1045 1024">
   <path fill="currentColor"
d="M896 276.792c-36.8643 -9.21582 -73.7275 -6.14355 -110.592 0c-40.96 7.16797 -76.7998 27.6484 -116.736 51.2002c47.1045 -166.912 175.104 -254.977 301.056 -271.36c28.6729 -4.0957 22.5283 -20.4795 21.5049 -36.8643
c-1.02441 -22.5273 -17.4082 -14.3359 -27.6484 -13.3115c-80.8955 12.2881 -160.768 32.7676 -232.448 72.7041c-108.544 60.416 -190.464 137.216 -236.544 238.592c0 -23.5518 -12.2881 -49.1523 -35.8398 -64.5117
c-13.3115 -9.21582 -27.6484 -16.3838 -44.0322 -19.4561c-74.752 -17.4082 -148.479 -17.4082 -222.208 4.0957c-34.8154 10.2402 -65.5361 26.624 -90.1113 53.248c-54.2725 56.3203 -49.1523 142.336 11.2637 192.512c23.5518 19.4561 51.2002 32.7686 79.8721 43.0088
c25.5996 9.21582 53.248 17.4072 76.7998 31.7432c32.7676 19.4561 41.9844 46.0801 30.7197 81.9199c-11.2637 35.8408 -38.9121 50.1768 -73.7275 58.3682c-22.5283 5.12012 -37.8877 3.07227 -44.0322 -24.5762c-8.19238 -35.8398 -23.5518 -68.6074 -53.248 -93.1836
c-34.8154 -29.6963 -89.0879 -23.5518 -115.712 10.2402s-16.3838 78.8477 22.5283 107.52c17.4082 12.2881 36.8633 20.4805 57.3438 25.6006c72.7041 17.4082 145.408 18.4316 218.112 2.04785c77.8232 -17.4082 136.191 -58.3682 150.527 -149.504
c3.07227 11.2637 7.16797 22.5273 11.2646 33.792c8.19141 20.4795 19.4561 37.8877 32.7676 53.248v-1.02441c23.5518 26.624 53.248 47.1045 90.1123 60.416c50.1758 17.4082 102.399 18.4326 154.624 12.2881c133.12 -16.3838 248.832 -122.88 269.312 -250.88
c16.3838 -100.353 -34.8154 -185.344 -124.928 -207.872zM334.848 426.296c-25.5996 -9.21582 -51.1992 -17.4082 -74.752 -29.6963c-40.96 -20.4795 -50.1758 -68.6074 -20.4795 -104.447c12.2881 -14.3359 27.6475 -23.5527 46.0801 -30.7207
c18.4316 -7.16797 29.6953 -5.12012 35.8398 18.4326c8.19141 34.8154 22.5283 67.584 52.2236 90.1113c31.7441 24.5762 79.8721 19.4561 105.473 -8.19141c-14.3359 44.0322 -22.5283 92.1602 -23.5527 145.408v6.14355c0 1.02441 -1.02344 1.02441 -1.02344 2.04785
c-31.7441 -46.0801 -59.3926 -66.5596 -119.809 -89.0879zM781.312 651.576c-9.21582 13.3115 -20.4795 24.5762 -34.8154 32.7676c-38.9121 22.5283 -76.7998 13.3125 -98.3037 -26.624c-19.4561 -34.8154 -20.4805 -73.7275 -19.4561 -117.76
c-2.04785 -41.9844 7.16797 -87.04 17.4072 -133.12c6.14453 -29.6963 50.1768 -62.4639 90.1123 -67.584c53.248 -7.16797 92.1602 18.4326 100.353 71.6797c12.2881 87.04 -4.09668 167.937 -55.2969 240.641z" />
</svg>
