<?xml version="1.0" encoding="UTF-8"?>
<svg width="141px" height="141px" viewBox="0 0 141 141" version="1.1" xmlns="http://www.w3.org/2000/svg" xmlns:xlink="http://www.w3.org/1999/xlink">
    <title>SoFurry</title>
    <g id="SoFurry" stroke="none" stroke-width="1" fill="none" fill-rule="evenodd">
        <path d="M100.351429,40 L101.946782,42.9021303 L104.213744,40.4879238 L105.432783,43.5671207 L107.98445,41.4560766 L108.807951,44.6637792 L111.604081,42.88919 L112.019057,46.1748109 L115.015554,44.7646629 L115.01546,48.076386 L118.165067,47.0529181 L117.749905,50.3385155 L121.00295,49.7178683 L120.179268,52.9255242 L123.48445,52.7174858 L122.265236,55.7966135 L125.57043,56.0044647 L123.974913,58.9065046 L127.227994,59.5269674 L125.281336,62.2061526 L128.431001,63.2294421 L126.163902,65.6435201 L129.160479,67.0534983 L126.608692,69.1643978 L129.404923,70.9388286 L126.608692,72.7132593 L129.160479,74.8241588 L126.163902,76.234137 L128.431001,78.6482151 L125.281336,79.6715046 L127.227994,82.3506897 L123.974913,82.9711526 L125.57043,85.8731925 L122.265236,86.0810436 L123.48445,89.1601714 L120.179268,88.9521329 L121.00295,92.1597889 L117.749905,91.5391416 L118.165067,94.8247391 L115.01546,93.8012711 L115.015554,97.1129943 L112.019057,95.7028462 L111.604081,98.9884672 L108.807951,97.213878 L107.98445,100.421581 L105.432783,98.3105365 L104.213744,101.389733 L101.946782,98.9755268 L100.351429,101.877657 L98.404923,99.1983617 L96.4584169,101.877657 L94.8630643,98.9755268 L92.5961023,101.389733 L91.3770629,98.3105365 L88.8253962,100.421581 L88.001895,97.213878 L85.205765,98.9884672 L84.7907891,95.7028462 L81.7942924,97.1129943 L81.7943862,93.8012711 L78.6447793,94.8247391 L79.0599414,91.5391416 L75.8068956,92.1597889 L76.6305785,88.9521329 L73.3253962,89.1601714 L74.54461,86.0810436 L71.2394159,85.8731925 L72.834933,82.9711526 L69.5818519,82.3506897 L71.5285099,79.6715046 L68.378845,78.6482151 L70.6459439,76.234137 L67.6493673,74.8241588 L70.2011536,72.7132593 L67.404923,70.9388286 L70.2011536,69.1643978 L67.6493673,67.0534983 L70.6459439,65.6435201 L68.378845,63.2294421 L71.5285099,62.2061526 L69.5818519,59.5269674 L72.834933,58.9065046 L71.2394159,56.0044647 L73.3982668,55.8669332 C70.0050813,52.7305381 66.7996851,51.3443469 63.7820782,51.7083598 C58.9741355,51.7083598 57.7885886,54.0957296 60.2254376,58.8704692 C62.5477032,65.2090109 63.7332501,72.8857687 63.7820782,81.9007426 C63.7820782,95.3266508 51.5384852,101.680334 35.0382624,100.367672 L34.536961,100.325547 C24.1228985,99.4498963 18.8615053,95.4785421 18.7527813,88.4114848 C15.1974428,86.8763286 13.6958152,84.7060812 14.2478985,81.9007426 C12.4627422,80.3362895 12.341974,78.9306906 13.8855938,77.6839458 L13.509823,77.2388838 C12.2770838,75.7247983 8.68823662,70.8365947 13.2439922,70.2845317 C11.2055808,68.7461202 11.419448,67.7210551 13.8855938,67.2093364 C13.6004376,63.7874614 14.5747214,62.75849 16.8084454,64.1224223 L16.7915436,64.0018543 C16.7042661,63.1562143 16.7923726,58.5430618 32.0480613,72.4196781 L33.0877422,73.3724223 C50.7957501,89.7161723 46.5193829,68.0423442 45.6961407,58.8704692 C44.8728985,49.6985942 48.6756329,40.6849223 58.3768047,40.6849223 C63.6392596,40.6849223 69.6877196,43.7412262 76.5221849,49.8538339 L79.0599414,50.3385155 L78.6447793,47.0529181 L81.7943862,48.076386 L81.7942924,44.7646629 L84.7907891,46.1748109 L85.205765,42.88919 L88.001895,44.6637792 L88.8253962,41.4560766 L91.3770629,43.5671207 L92.5961023,40.4879238 L94.8630643,42.9021303 L96.4584169,40 L98.404923,42.6792955 L100.351429,40 Z" id="Path" fill="currentColor"></path>
    </g>
</svg>