<?xml version="1.0" standalone="no"?>
<!DOCTYPE svg PUBLIC "-//W3C//DTD SVG 1.1//EN" "http://www.w3.org/Graphics/SVG/1.1/DTD/svg11.dtd" >
<svg xmlns="http://www.w3.org/2000/svg" xmlns:xlink="http://www.w3.org/1999/xlink" version="1.1" viewBox="-11 0 1046 1024">
   <path fill="currentColor"
d="M888 -29c-70 -50 -146 -86 -244 -102v464l140 -194h152l-176 244s40 64 64 102c24 40 48 50 84 50h24v120h-36c-76 0 -124 -14 -158 -68c-22 -34 -94 -146 -94 -146v212h-126v-794h-6c-164 0 -278 40 -376 112c-142 108 -136 248 -136 400s-6 292 136 400
c98 74 212 112 376 112s278 -40 376 -112c142 -108 136 -248 136 -400s6 -292 -136 -400zM280 661c-80 0 -144 -14 -198 -68l82 -82c26 26 74 36 116 36c50 0 74 -16 74 -46c0 -12 -4 -22 -10 -30c-8 -6 -18 -12 -34 -14l-64 -8c-46 -6 -80 -22 -102 -46
c-24 -24 -36 -60 -36 -104c0 -94 70 -164 188 -164c74 0 130 18 174 62l-80 80c-32 -32 -76 -30 -98 -30c-44 0 -62 24 -62 48c0 6 2 16 10 22c6 6 18 14 36 16l62 10c46 6 80 20 102 42c26 26 38 66 38 114c2 104 -90 162 -198 162z" />
</svg>
