<?xml version="1.0" encoding="UTF-8"?>
<svg width="1025px" height="1025px" viewBox="0 0 1025 1025" version="1.1" xmlns="http://www.w3.org/2000/svg" xmlns:xlink="http://www.w3.org/1999/xlink">
  <g id="SongKick" transform="translate(0.5713, 0.0684)" fill="currentColor" fill-rule="nonzero">
    <path d="M888.036431,112 C818.036431,62 742.036431,26 644.036431,10 L644.036431,474 L784.036431,280 L936.036431,280 L760.036431,524 C760.036431,524 800.036431,588 824.036431,626 C848.036431,666 872.036431,676 908.036431,676 L932.036431,676 L932.036431,796 L896.036431,796 C820.036431,796 772.036431,782 738.036431,728 C716.036431,694 644.036431,582 644.036431,582 L644.036431,794 L518.036431,794 L518.036431,0 L512.036431,0 C348.036431,0 234.036431,40 136.036431,112 C-5.9635689,220 0.0364311014,360 0.0364311014,512 C0.0364311014,664 -5.9635689,804 136.036431,912 C234.036431,986 348.036431,1024 512.036431,1024 C676.036431,1024 790.036431,984 888.036431,912 C1030.03643,804 1024.03643,664 1024.03643,512 C1024.03643,360 1030.03643,220 888.036431,112 Z M280.036431,802 C200.036431,802 136.036431,788 82.0364311,734 L164.036431,652 C190.036431,678 238.036431,688 280.036431,688 C330.036431,688 354.036431,672 354.036431,642 C354.036431,630 350.036431,620 344.036431,612 C336.036431,606 326.036431,600 310.036431,598 L246.036431,590 C200.036431,584 166.036431,568 144.036431,544 C120.036431,520 108.036431,484 108.036431,440 C108.036431,346 178.036431,276 296.036431,276 C370.036431,276 426.036431,294 470.036431,338 L390.036431,418 C358.036431,386 314.036431,388 292.036431,388 C248.036431,388 230.036431,412 230.036431,436 C230.036431,442 232.036431,452 240.036431,458 C246.036431,464 258.036431,472 276.036431,474 L338.036431,484 C384.036431,490 418.036431,504 440.036431,526 C466.036431,552 478.036431,592 478.036431,640 C480.036431,744 388.036431,802 280.036431,802 Z"></path>
  </g>
</svg>