<?xml version="1.0" standalone="no"?>
<!DOCTYPE svg PUBLIC "-//W3C//DTD SVG 1.1//EN" "http://www.w3.org/Graphics/SVG/1.1/DTD/svg11.dtd" >
<svg xmlns="http://www.w3.org/2000/svg" xmlns:xlink="http://www.w3.org/1999/xlink" version="1.1" viewBox="-10 0 1034 1024">
   <path fill="currentColor"
d="M1008.64 302.392c-3.07129 -28.6719 -9.21582 -58.3672 -17.4072 -86.0156c-8.19238 -28.6719 -19.4561 -55.2959 -32.7686 -81.9199c-16.3838 -31.7441 -35.8398 -62.4639 -58.3682 -90.1123c-19.4561 -24.5762 -41.9834 -47.1035 -66.5596 -67.584
c-24.5762 -20.4795 -50.1758 -38.9121 -77.8242 -54.2715c-22.5283 -12.2881 -47.1035 -24.5762 -72.7041 -32.7686c-22.5273 -8.19141 -46.0801 -15.3594 -69.6318 -19.4561c-23.5518 -5.12012 -48.1279 -7.16797 -72.7041 -10.2393h-56.3203
c-8.19141 1.02344 -16.3838 2.04785 -23.5518 3.07129c-95.2314 9.21582 -187.392 47.1045 -262.144 107.521c-14.3359 11.2637 -26.624 22.5273 -38.9121 34.8154c-27.6484 27.6484 -52.2246 58.3682 -72.7041 91.1367c-14.3359 23.5518 -27.6484 48.1279 -37.8877 74.752
c-11.2646 26.624 -19.4561 54.2715 -25.6006 81.9199c-5.12012 22.5273 -8.19141 46.0801 -10.2402 68.6074c-2.04785 37.8887 -1.02344 76.8008 5.12012 114.688c5.12012 33.792 14.3359 66.5596 25.6006 98.3037c12.2881 33.792 29.6953 66.5605 49.1514 97.2803
c25.6006 38.9121 57.3447 74.752 93.1846 105.472c64.5117 56.3203 144.384 95.2324 229.376 110.592c95.2314 19.4561 196.607 9.2168 286.72 -28.6719c38.9121 20.4805 77.8242 43.0078 117.76 63.4883h8.19238c2.04785 -3.07227 3.07227 -5.12012 4.0957 -8.19238
c2.04785 -45.0557 1.02441 -89.0879 1.02441 -134.144c60.416 -50.1758 108.544 -114.688 139.264 -186.368c16.3838 -37.8877 28.6719 -78.8477 33.792 -119.808c6.14453 -44.0322 7.16797 -88.0645 2.04785 -132.097zM315.392 627
c-20.4795 -17.4082 -43.0078 -35.8398 -56.3193 -59.3916c10.2393 2.04785 19.4561 8.19141 28.6719 11.2637c45.0557 15.3604 98.3037 7.16797 135.168 -24.5762c25.5996 -20.4795 44.0322 -50.1758 51.2002 -82.9443c6.14355 -29.6953 2.04785 -61.4395 -7.16797 -90.1113
c-7.16797 -27.6484 -18.4326 -55.2959 -23.5527 -82.9443c-4.0957 -26.624 -5.11914 -54.2715 1.02441 -80.8955c7.16797 -33.792 22.5283 -66.5605 45.0557 -93.1846c40.96 -46.0801 103.425 -74.752 165.889 -68.6074c1.02344 0 2.04785 1.02344 2.04785 2.04785
c-29.6963 22.5273 -46.0801 64.5117 -32.7686 100.352c8.19238 25.6006 23.5527 48.1279 38.9121 69.6318c17.4082 24.5762 35.8398 47.1045 52.2246 71.6807c14.3359 23.5518 25.5996 48.1279 33.792 74.752c9.21582 33.792 13.3115 69.6318 9.21582 104.447
c-3.07227 26.624 -12.2881 53.248 -25.6006 76.8008c-33.792 57.3438 -91.1357 98.3037 -154.624 117.76c-87.04 28.6719 -189.439 11.2637 -263.168 -46.0801z" />
</svg>
