<?xml version="1.0" encoding="UTF-8"?>
<svg width="1001px" height="1024px" viewBox="0 0 1001 1024" version="1.1" xmlns="http://www.w3.org/2000/svg" xmlns:xlink="http://www.w3.org/1999/xlink">
  <g id="Soroush" transform="translate(0.5281, 0.6137)" fill="currentColor" fill-rule="nonzero">
    <path d="M996.286972,442.3673 C993.215682,413.6954 987.071152,384.0001 978.879772,356.3517 C970.687392,327.6798 959.423672,301.0558 946.111172,274.4318 C929.727372,242.6877 910.271372,211.9679 887.742972,184.3195 C868.286872,159.7433 845.759572,137.216 821.183372,116.7355 C796.607172,96.256 771.007572,77.8234 743.359172,62.464 C720.830872,50.1759 696.255672,37.8878 670.655072,29.6954 C648.127772,21.50399 624.574972,14.336 601.023272,10.2393 C577.471472,5.11918 552.895372,3.07133 528.319172,0 L471.998872,0 C463.807462,1.02344 455.615072,2.04785 448.447072,3.07129 C353.215672,12.28711 261.055072,50.17579 186.303072,110.59229 C171.967172,121.85599 159.679072,133.11959 147.390972,145.40769 C119.742572,173.05609 95.1663724,203.77589 74.6868724,236.54439 C60.3509724,260.09619 47.0384724,284.67229 36.7991724,311.29639 C25.5345724,337.92039 17.3430724,365.56789 11.1985724,393.21629 C6.07845235,415.74359 3.00716235,439.29639 0.958372354,461.82369 C-1.08947765,499.71239 -0.0650676464,538.62449 6.07849235,576.51169 C11.1986124,610.30369 20.4143924,643.07129 31.6790924,674.81539 C43.9671924,708.60739 61.3743924,741.37589 80.8304924,772.09569 C106.431092,811.00779 138.175192,846.84769 174.015092,877.56769 C238.526792,933.88799 318.399092,972.80009 403.391092,988.15969 C498.622492,1007.61579 599.998092,997.37649 690.111092,959.48779 C729.023192,979.96829 767.935292,1002.49559 807.871092,1022.97609 L816.063472,1022.97609 C818.111322,1019.90382 819.135742,1017.85597 820.159172,1014.78371 C822.207022,969.72801 821.183582,925.69581 821.183582,880.63971 C881.599582,830.46391 929.727582,765.95171 960.447582,694.27171 C976.831382,656.38401 989.119482,615.42401 994.239582,574.46371 C1000.38411,530.43151 1001.40755,486.39921 996.287432,442.36671 L996.286972,442.3673 Z M303.038972,766.9753 C282.559472,749.5671 260.031172,731.1355 246.719672,707.5837 C256.958972,709.63155 266.175772,715.77511 275.391572,718.8474 C320.447272,734.2078 373.695272,726.01537 410.559572,694.2712 C436.159172,673.7917 454.591772,644.0954 461.759772,611.3269 C467.903322,581.6316 463.807622,549.8874 454.591802,521.2156 C447.423832,493.5672 436.159202,465.9197 431.039102,438.2713 C426.943402,411.6473 425.919962,383.9998 432.063512,357.3758 C439.231482,323.5838 454.591812,290.8153 477.119212,264.1912 C518.079212,218.1111 580.544212,189.4392 643.008212,195.5838 C644.031652,195.5838 645.056062,196.60724 645.056062,197.63165 C615.359762,220.15895 598.975962,262.14335 612.287462,297.98365 C620.479842,323.58425 635.840162,346.11155 651.199562,367.61545 C668.607762,392.19165 687.039362,414.71995 703.424162,439.29615 C717.760062,462.84795 729.023762,487.42405 737.216162,514.04815 C746.431982,547.84015 750.527662,583.67995 746.431982,618.49515 C743.359712,645.11915 734.143882,671.74315 720.831382,695.29595 C687.039382,752.63975 629.695682,793.59965 566.207382,813.05595 C479.167382,841.72785 376.768382,824.31965 303.039382,766.97585 L303.038972,766.9753 Z"></path>
  </g>
</svg>