<?xml version="1.0" encoding="UTF-8"?>
<svg width="1024px" height="449px" viewBox="0 0 1024 449" version="1.1" xmlns="http://www.w3.org/2000/svg" xmlns:xlink="http://www.w3.org/1999/xlink">
  <g id="SoundCloud" transform="translate(0, 0.0926)" fill="currentColor" fill-rule="nonzero">
    <path d="M20,386 L0,386 L0,262 L20,262 L20,386 Z M72,426 L52,426 L52,232 L72,232 L72,426 Z M112,438 L92,438 L92,212 L112,212 L112,438 Z M154,448 L134,448 L134,222 L154,222 L154,448 Z M204,448 L184,448 L184,150 L204,150 L204,448 Z M246,448 L226,448 L226,110 L246,110 L246,448 Z M296,448 L276,448 L276,88 L296,88 L296,448 Z M338,448 L318,448 L318,78 L338,78 L338,448 Z M390,448 L368,448 L368,88 L390,88 L390,448 Z M430,448 L410,448 L410,100 L430,100 L430,448 Z M472,448 L450,448 L450,58 L472,58 L472,448 Z M522,448 L502,448 L502,28 L522,28 L522,448 Z M898,444 L548,444 C540,444 532,438 532,430 L532,30 C532,22 536,18 546,14 C570,4 598,0 626,0 C742,0 838,88 848,202 C864,196 880,192 898,192 C968,192 1024,248 1024,318 C1024,388 968,444 898,444 Z"></path>
  </g>
</svg>