<?xml version="1.0" encoding="UTF-8"?>
<svg width="300px" height="300px" viewBox="0 0 300 300" version="1.1" xmlns="http://www.w3.org/2000/svg" xmlns:xlink="http://www.w3.org/1999/xlink">
    <title>SpaceHey</title>
    <g id="SpaceHey" stroke="none" stroke-width="1" fill="none" fill-rule="evenodd">
        <path d="M167.175,177 L167.143,177 L167.143,283.636 L291.143,283.636 L291.143,177 L291.111,177 C290.054,143.705 262.693,117 229.143,117 C195.593,117 168.232,143.705 167.175,177 L167.175,177 Z" id="Path" fill="currentColor" fill-rule="nonzero"></path>
        <path d="M184.143,62 C184.143,37.164 204.307,17 229.143,17 C253.979,17 274.143,37.164 274.143,62 C274.143,86.836 253.979,107 229.143,107 C204.307,107 184.143,86.836 184.143,62 Z" id="Path" fill="currentColor" fill-rule="nonzero"></path>
        <path d="M159,76.571 L159,134.259 C159,170.306 129.734,199.571 93.687,199.571 L73.313,199.571 C37.266,199.571 8,172.014 8,138.071 C8,104.129 37.266,76.571 73.313,76.571 L159,76.571 Z M131.705,121.345 C130.865,121.345 130.215667,121.491333 129.757,121.784 C129.298333,122.077333 128.863667,122.644 128.453,123.484 C128.043,124.323333 127.584,125.485333 127.076,126.97 L120.66,145.28 L113.893,125.593 C113.443667,124.225667 112.926,123.175667 112.34,122.443 C111.754,121.711 110.885,121.345 109.733,121.345 C109.068333,121.345 108.428667,121.520667 107.814,121.872 C107.198667,122.224 106.715,122.692667 106.363,123.278 C106.011667,123.864 105.836,124.499 105.836,125.183 C105.836,125.827667 106.138667,126.862667 106.744,128.288 L116.588,153.073 L115.856,154.86 L115.708306,155.209041 L115.422388,155.859917 C115.049584,156.685791 114.710455,157.343818 114.405,157.834 C113.985667,158.508 113.512333,158.981667 112.985,159.255 C112.457667,159.528333 111.735,159.665 110.817,159.665 C110.445667,159.665 110.006,159.606333 109.498,159.489 C109.088,159.372333 108.668,159.314 108.238,159.314 C107.144667,159.314 106.319667,159.563 105.763,160.061 C105.206333,160.559 104.928,161.267 104.928,162.185 C104.928,163.532333 105.514,164.46 106.686,164.968 C107.858,165.476 109.615667,165.73 111.959,165.73 C114.361667,165.73 116.271,165.363667 117.687,164.631 C119.103,163.898333 120.240667,162.848667 121.1,161.482 C121.902044,160.205822 122.72093,158.478699 123.556658,156.300631 L134.166,128.523 C134.42,127.819667 134.635,127.126333 134.811,126.443 L135.083109,125.343703 C135.126203,125.160484 135.1625,124.99925 135.192,124.86 C135.192,124.254667 135.040333,123.678667 134.737,123.132 C134.434333,122.585333 134.004667,122.150667 133.448,121.828 C132.891333,121.506 132.310333,121.345 131.705,121.345 Z M41.91,109.45 C40.66,109.45 39.6883333,109.855333 38.995,110.666 C38.3016667,111.476667 37.955,112.692667 37.955,114.314 L37.955,149.001 C37.955,152.243 39.2733333,153.864 41.91,153.864 C43.18,153.864 44.1713333,153.449 44.884,152.619 C45.5966667,151.789 45.953,150.583 45.953,149.001 L45.953,138.425 C45.953,135.378333 46.168,133.259333 46.598,132.068 C47.164,130.661333 48.0183333,129.552667 49.161,128.742 C50.3036667,127.932 51.588,127.527 53.014,127.527 C55.1426667,127.527 56.588,128.215333 57.35,129.592 C58.1113333,130.968667 58.492,132.936333 58.492,135.495 L58.492,149.001 C58.492,152.243 59.8103333,153.864 62.447,153.864 C63.6583333,153.864 64.63,153.454 65.362,152.634 C66.0946667,151.813333 66.461,150.602333 66.461,149.001 L66.461,133.679 C66.461,132.135667 66.3633333,130.773333 66.168,129.592 C65.9726667,128.41 65.592,127.340667 65.026,126.384 C64.1273333,124.743333 62.8916667,123.493333 61.319,122.634 C59.747,121.774667 57.9453333,121.345 55.914,121.345 C54.5666667,121.345 53.307,121.516 52.135,121.858 C50.963,122.199333 49.8936667,122.712 48.927,123.396 C47.9603333,124.079333 46.969,125.007 45.953,126.179 L45.953,114.314 C45.953,112.712 45.5966667,111.501 44.884,110.681 C44.1713333,109.860333 43.18,109.45 41.91,109.45 Z M88.551,121.286 C86.1483333,121.286 83.9606667,121.671667 81.988,122.443 C80.0153333,123.215 78.3553333,124.323667 77.008,125.769 C75.66,127.214333 74.6346667,128.947667 73.932,130.969 C73.2286667,132.990333 72.877,135.182667 72.877,137.546 C72.877,142.565333 74.3026667,146.54 77.154,149.47 C80.006,152.399333 84.0003333,153.864 89.137,153.864 C91.383,153.864 93.3703333,153.571 95.099,152.985 C96.8276667,152.399667 98.263,151.662667 99.405,150.774 C100.547667,149.885333 101.402333,148.957333 101.969,147.99 C102.535667,147.023333 102.819,146.178667 102.819,145.456 C102.819,144.636 102.565,144.001333 102.057,143.552 C101.549,143.102667 100.885,142.878 100.065,142.878 C99.303,142.878 98.717,143.053667 98.307,143.405 L97.46064,144.19637 C96.84128,144.77079 96.3127333,145.249333 95.875,145.632 C95.2503333,146.178667 94.5666667,146.691333 93.824,147.17 C93.082,147.648667 92.3156667,148.000333 91.525,148.225 C90.7336667,148.449667 89.8593333,148.562 88.902,148.562 C87.4766667,148.562 86.173,148.210333 84.991,147.507 C83.8096667,146.803667 82.8626667,145.758667 82.15,144.372 C81.4366667,142.985333 81.0703333,141.384 81.051,139.568 L96.695,139.568 C98.785,139.568 100.406333,139.27 101.559,138.674 C102.711,138.078 103.287,136.774333 103.287,134.763 C103.287,132.595 102.730333,130.466 101.617,128.376 C100.503667,126.286 98.829,124.582 96.593,123.264 C94.3563333,121.945333 91.6756667,121.286 88.551,121.286 Z M88.287,126.853 C90.377,126.853 92.0616667,127.531667 93.341,128.889 C94.6203333,130.246333 95.3576667,132.292333 95.553,135.027 L81.051,135.027 C81.3243333,132.331667 82.1006667,130.295333 83.38,128.918 C84.6593333,127.541333 86.295,126.853 88.287,126.853 Z" id="Shape" fill="currentColor" fill-rule="nonzero"></path>
    </g>
</svg>