<?xml version="1.0" encoding="UTF-8"?>
<svg width="20px" height="20px" viewBox="0 0 20 20" version="1.1" xmlns="http://www.w3.org/2000/svg" xmlns:xlink="http://www.w3.org/1999/xlink">
    <title>Spigot</title>
    <g id="Spigot" stroke="none" stroke-width="1" fill="none" fill-rule="evenodd">
        <path d="M18,11 L18,15 L17,15 L17,18 L15,18 L15,15 L14,15 L14,13 L15,13 L15,14 L17,14 L17,11 L18,11 Z M12,12 L12,14 L7,14 L7,13 L11,13 L11,12 L12,12 Z M14,12 L14,13 L13,13 L13,12 L14,12 Z M7,12 L7,13 L6,13 L6,12 L7,12 Z M13,11 L13,12 L12,12 L12,11 L13,11 Z M6,11 L6,12 L2,12 L2,11 L6,11 Z M17,10 L17,11 L16,11 L16,10 L17,10 Z M8,8 L8,9 L7,9 L7,10 L2,10 L2,9 L6,9 L6,8 L8,8 Z M14,8 L14,9 L16,9 L16,10 L13,10 L13,8 L14,8 Z M15,2 L15,3 L12,3 L12,5 L13,5 L13,8 L12,8 L12,6 L11,6 L11,4 L10,4 L10,6 L9,6 L9,8 L8,8 L8,5 L9,5 L9,3 L6,3 L6,2 L15,2 Z" id="Shape" fill="#000000"></path>
    </g>
</svg>