<?xml version="1.0" standalone="no"?>
<!DOCTYPE svg PUBLIC "-//W3C//DTD SVG 1.1//EN" "http://www.w3.org/Graphics/SVG/1.1/DTD/svg11.dtd" >
<svg xmlns="http://www.w3.org/2000/svg" xmlns:xlink="http://www.w3.org/1999/xlink" version="1.1" viewBox="-10 0 1034 1024">
   <path fill="currentColor"
d="M806.912 667.847c-3.02148 0 -3.02148 0 0 0c-47.2881 -185.211 -239.575 -166.083 -270.766 -291.9c-21.125 -88.5762 36.2383 -156.006 124.805 -177.172c52.3564 -13.0664 103.68 0 142.939 34.2314c5.02832 5.03809 13.0869 10.0664 18.1357 18.1348v0v0
c0 3.02148 3 3.02148 3 5.03809l3.03027 3.02148l3.02148 3c8.05859 10.0654 13.0654 18.1348 21.125 16.1279c5.03809 -3.02148 10.0762 -16.1279 10.0762 -23.1631c5.02734 -41.2773 3.02051 -83.5381 -8.06934 -127.836
c-47.2988 -190.249 -236.544 -304.988 -426.783 -257.69c-190.238 47.3291 -304.978 236.544 -257.679 426.783c62.4033 254.659 301.978 296.95 429.813 361.359c28.1807 13.0869 49.3066 39.2598 57.375 70.4609c13.0977 57.375 -21.125 114.77 -78.5 127.836v0h-5.03711
c-10.0664 3 -13.0879 0 -13.0879 5.02832c0 3 8.05957 8.03711 13.0879 10.0654c31.2119 13.0664 67.4404 16.0967 103.68 5.03809c93.6035 -20.1318 149.975 -113.746 129.833 -208.364v0v0v0v0.000976562z" />
</svg>
