<?xml version="1.0" encoding="UTF-8"?>
<svg width="706px" height="1025px" viewBox="0 0 706 1025" version="1.1" xmlns="http://www.w3.org/2000/svg" xmlns:xlink="http://www.w3.org/1999/xlink">
  <g id="Spip" transform="translate(0.0491, 0.4253)" fill="currentColor" fill-rule="nonzero">
    <path d="M647.80571,808.848083 C644.78423,808.848083 644.78423,808.848083 647.80571,808.848083 C600.51761,623.637083 408.23071,642.765083 377.03971,516.948083 C355.91471,428.371883 413.27801,360.942083 501.84471,339.776083 C554.20111,326.709683 605.52471,339.776083 644.78371,374.007483 C649.81203,379.045573 657.87061,384.073883 662.91941,392.142283 L662.91941,392.142283 L662.91941,392.142283 C662.91941,395.163763 665.91941,395.163763 665.91941,397.180373 L668.94968,400.201853 L671.97116,403.201853 C680.02975,413.267253 685.03656,421.336653 693.09616,419.329753 C698.13425,416.308273 703.17236,403.201853 703.17236,396.166653 C708.1997,354.889353 706.19287,312.628553 695.10302,268.330653 C647.80422,78.0816529 458.55902,-36.6573471 268.32002,10.6406529 C78.0820197,57.9697529 -36.6579803,247.184653 10.6410197,437.423653 C73.0443197,692.082653 312.61902,734.373653 440.45402,798.782653 C468.63472,811.869553 489.76062,838.042453 497.82902,869.243553 C510.92672,926.618553 476.70402,984.013553 419.32902,997.079553 L419.32902,997.079553 L414.29191,997.079553 C404.22551,1000.07955 401.20401,997.079553 401.20401,1002.10787 C401.20401,1005.10787 409.26358,1010.14498 414.29191,1012.17327 C445.50381,1025.23967 481.73231,1028.26997 517.97191,1017.21136 C611.57541,997.079563 667.94691,903.465363 647.80491,808.847363 L647.80491,808.847363 L647.80491,808.847363 L647.80491,808.847363 L647.80491,808.848339 L647.80571,808.848083 Z"></path>
  </g>
</svg>