<?xml version="1.0" encoding="UTF-8"?>
<svg width="725px" height="1025px" viewBox="0 0 725 1025" version="1.1" xmlns="http://www.w3.org/2000/svg" xmlns:xlink="http://www.w3.org/1999/xlink">
  <g id="Splice" transform="translate(0, 0.4253)" fill="currentColor" fill-rule="nonzero">
    <path d="M242.412614,650.431973 C247.972184,649.357753 251.618664,643.971033 250.531754,638.410473 C250.204606,636.720043 249.457534,635.133133 248.360854,633.812813 L236.462454,621.913413 C207.851154,593.313813 207.831554,546.925113 236.431204,518.315413 C236.44097,518.304671 236.450735,518.294906 236.462454,518.284163 L504.555454,250.191163 C561.756654,192.877663 561.663854,100.042163 504.350376,42.8401634 C447.037876,-14.3610366 354.201376,-14.2672366 297.000376,43.0452414 L63.7833762,277.172241 C-21.6893238,363.260141 -21.1980238,502.339241 64.8898262,587.823241 C111.676926,634.272441 176.843826,657.250041 242.410826,650.429641 L242.412614,650.431973 Z M504.556614,341.193223 C496.774384,341.224247 489.001914,341.664676 481.270514,342.525023 C475.956064,342.841429 471.900394,347.419553 472.228524,352.734023 C472.382821,355.221323 473.488294,357.556293 475.320324,359.246723 L487.321324,371.247723 C515.819324,399.868823 515.819324,446.143223 487.321324,474.773723 L194.396324,768.005723 C133.878724,821.632723 128.287924,914.161723 181.913924,974.679723 C235.539924,1035.19832 328.068924,1040.78912 388.587924,987.163123 C392.939484,983.302773 397.066444,979.186563 400.926824,974.843823 L659.885824,716.293823 C745.676824,630.431523 745.614324,491.289823 659.762777,405.499823 C618.578177,364.356223 562.758877,341.223423 504.554777,341.193223 L504.55673,341.193223 L504.556614,341.193223 Z"></path>
  </g>
</svg>