<?xml version="1.0" standalone="no"?>
<!DOCTYPE svg PUBLIC "-//W3C//DTD SVG 1.1//EN" "http://www.w3.org/Graphics/SVG/1.1/DTD/svg11.dtd" >
<svg xmlns="http://www.w3.org/2000/svg" xmlns:xlink="http://www.w3.org/1999/xlink" version="1.1" viewBox="-10 0 1034 1024">
   <path fill="currentColor"
d="M392.315 509.435c5.55957 -1.07422 9.20605 -6.46094 8.11914 -12.0215c-0.327148 -1.69043 -1.07422 -3.27734 -2.1709 -4.59766l-11.8984 -11.8994c-28.6113 -28.5996 -28.6309 -74.9883 -0.03125 -103.598
c0.00976562 -0.0107422 0.0195312 -0.0205078 0.03125 -0.03125l268.093 -268.093c57.2012 -57.3135 57.1084 -150.149 -0.205078 -207.351c-57.3125 -57.2012 -150.149 -57.1074 -207.35 0.205078l-233.217 234.127c-85.4727 86.0879 -84.9814 225.167 1.10645 310.651
c46.7871 46.4492 111.954 69.4268 177.521 62.6064zM654.459 200.197c-7.78223 0.0302734 -15.5547 0.470703 -23.2861 1.33105c-5.31445 0.316406 -9.37012 4.89453 -9.04199 10.209c0.154297 2.4873 1.25977 4.82227 3.0918 6.5127l12.001 12.001
c28.498 28.6211 28.498 74.8955 0 103.526l-292.925 293.232c-60.5176 53.627 -66.1084 146.156 -12.4824 206.674c53.626 60.5186 146.155 66.1094 206.674 12.4834c4.35156 -3.86035 8.47852 -7.97656 12.3389 -12.3193l258.959 -258.55
c85.791 -85.8623 85.7285 -225.004 -0.123047 -310.794c-41.1846 -41.1436 -97.0039 -64.2764 -155.208 -64.3066h0.00195312z" />
</svg>
