<?xml version="1.0" encoding="UTF-8"?>
<svg width="54px" height="54px" viewBox="0 0 54 54" version="1.1" xmlns="http://www.w3.org/2000/svg" xmlns:xlink="http://www.w3.org/1999/xlink">
    <title>Sporcle</title>
    <g id="Sporcle" stroke="none" stroke-width="1" fill="none" fill-rule="evenodd">
        <path d="M27.2,7 C35.6,7 42.4,13.8 42.4,22.2 C42.4,29.6170875 36.9697536,35.9161831 29.8200757,37.1723866 C29.81536,37.18336 29.808,37.192 29.8,37.2 L29.7551451,37.3471128 L29.7021175,37.5569168 C29.5948131,38.0315235 29.500782,38.813045 29.793879,39.4860872 C34.9406821,39.8273027 39.5,41.1988896 39.5,43.6 C39.5,46.4 33.3,47.8 27.2,47.8 L26.5577975,47.7948292 C20.6725454,47.7000308 14.9,46.3017544 14.9,43.6 C14.9,41.1673329 19.5799476,39.7914281 24.8082787,39.4722858 L24.8529291,39.3199 C25.0711806,38.4699579 24.8981077,37.5060122 24.8037375,37.2114414 C17.5440289,36.0648935 12,29.7846854 12,22.2 C12,13.8 18.8,7 27.2,7 Z M27.2,8.3 C19.5,8.3 13.3,14.5 13.3,22.2 C13.3,29.7461478 19.2547133,35.8516392 26.7402775,36.0926118 C27.0843325,36.0709943 27.4421785,36.069684 27.7882358,36.0872895 C35.2134805,35.7764793 41.1,29.6053747 41.1,22.2 C41.1,14.6 34.9,8.3 27.2,8.3 Z M32.5,12.4 C34.2,13.3 35.6,14.7 36.6,16.3 C36.9,16.8 36.7,17.3 36.3,17.6 L36.0952,17.7136 C36.004,17.764 35.92,17.8 35.8,17.8 C35.5,17.8 35.2,17.6 35,17.3 C34.2,16 33,14.8 31.6,14.1 C31.1,13.9 30.9,13.3 31.2,12.8 C31.5,12.3 32,12.2 32.5,12.4 Z" id="Shape" fill="#000000" fill-rule="nonzero"></path>
    </g>
</svg>