<?xml version="1.0" standalone="no"?>
<!DOCTYPE svg PUBLIC "-//W3C//DTD SVG 1.1//EN" "http://www.w3.org/Graphics/SVG/1.1/DTD/svg11.dtd" >
<svg xmlns="http://www.w3.org/2000/svg" xmlns:xlink="http://www.w3.org/1999/xlink" version="1.1" viewBox="-11 0 1046 1024">
   <path fill="currentColor"
d="M826 689c-12 20 -40 28 -60 14c-170 -102 -382 -126 -632 -68c-24 4 -48 -10 -54 -34s10 -48 34 -54c274 -62 508 -36 698 80c22 12 28 40 14 62zM914 493c-16 26 -50 34 -76 18c-194 -118 -488 -152 -718 -84c-28 10 -60 -8 -70 -36c-8 -30 8 -62 38 -70
c262 -80 586 -42 808 94c26 18 36 52 18 78zM1014 265c-18 32 -60 42 -92 24c-232 -138 -614 -150 -836 -84c-34 12 -72 -8 -84 -44c-10 -36 10 -74 46 -84c254 -78 676 -62 944 96c32 20 42 60 22 92z" />
</svg>
