<?xml version="1.0" encoding="UTF-8"?>
<svg width="1026px" height="679px" viewBox="0 0 1026 679" version="1.1" xmlns="http://www.w3.org/2000/svg" xmlns:xlink="http://www.w3.org/1999/xlink">
  <g id="Spotify" transform="translate(0.4392, 0)" fill="currentColor" fill-rule="nonzero">
    <path d="M826.568919,657.566265 C814.568919,677.566265 786.568919,685.566265 766.568919,671.566265 C596.568919,569.566265 384.568919,545.566265 134.568919,603.566265 C110.568919,607.566265 86.5689194,593.566265 80.5689194,569.566265 C74.5689194,545.566265 90.5689194,521.566265 114.568919,515.566265 C388.568919,453.566265 622.568919,479.566265 812.568919,595.566265 C834.568919,607.566265 840.568919,635.566265 826.568919,657.566265 Z M914.568919,461.566265 C898.568919,487.566265 864.568919,495.566265 838.568919,479.566265 C644.568919,361.566265 350.568919,327.566265 120.568919,395.566265 C92.5689194,405.566265 60.5689194,387.566265 50.5689194,359.566265 C42.5689194,329.566265 58.5689194,297.566265 88.5689194,289.566265 C350.568919,209.566265 674.568919,247.566265 896.568919,383.566265 C922.568919,401.566265 932.568919,435.566265 914.568919,461.566265 Z M1014.56892,233.566265 C996.568919,265.566265 954.568919,275.566265 922.568919,257.566265 C690.568919,119.566265 308.568919,107.566265 86.5689194,173.566265 C52.5689194,185.566265 14.5689194,165.566265 2.56891942,129.566265 C-7.43108058,93.5662649 12.5689194,55.5662649 48.5689194,45.5662649 C302.568919,-32.4337351 724.568919,-16.4337351 992.568919,141.566265 C1024.56892,161.566265 1034.56892,201.566265 1014.56892,233.566265 Z"></path>
  </g>
</svg>