<?xml version="1.0" encoding="UTF-8"?>
<svg width="1024px" height="846px" viewBox="0 0 1024 846" version="1.1" xmlns="http://www.w3.org/2000/svg" xmlns:xlink="http://www.w3.org/1999/xlink">
  <g id="SpreadShirt" transform="translate(0, 0.0926)" fill="currentColor" fill-rule="nonzero">
    <path d="M334.264,0.389 C393.5023,59.638 453.017,119.154 512.993,179.128 C572.3534,119.1417 631.47,59.402 690.258,0 C801.814,111.575 913.06,222.822 1024,333.752 C853.821,503.92 683.305,674.447 512.502,845.24 C341.75,675.123 170.67,504.688 0,334.642 C111.503,223.139 222.74,111.903 334.264,0.388 L334.264,0.389 Z M690.34,154.7773 C631.5216,214.2099 572.406,273.9503 512.401,334.5813 C452.3014,274.4622 392.602,214.7633 332.822,154.9713 C274.0847,214.3326 215.175,273.8683 157.144,332.5333 C276.471,451.8703 395.409,570.7873 514.182,689.5713 C632.363,571.3903 751.136,452.6073 869.654,334.0993 C810.0563,274.5026 750.317,214.7623 690.341,154.7773 L690.34,154.7773 Z"></path>
  </g>
</svg>