<?xml version="1.0" standalone="no"?>
<!DOCTYPE svg PUBLIC "-//W3C//DTD SVG 1.1//EN" "http://www.w3.org/Graphics/SVG/1.1/DTD/svg11.dtd" >
<svg xmlns="http://www.w3.org/2000/svg" xmlns:xlink="http://www.w3.org/1999/xlink" version="1.1" viewBox="-10 0 1044 1024">
   <path fill="currentColor"
d="M334.264 -51.2363c59.2383 59.249 118.753 118.765 178.729 178.739c59.3604 -59.9863 118.477 -119.726 177.265 -179.128c111.556 111.575 222.802 222.822 333.742 333.752c-170.179 170.168 -340.695 340.695 -511.498 511.488
c-170.752 -170.117 -341.832 -340.552 -512.502 -510.598c111.503 -111.503 222.74 -222.739 334.264 -334.254zM690.34 103.152c-58.8184 59.4326 -117.934 119.173 -177.939 179.804c-60.0996 -60.1191 -119.799 -119.818 -179.579 -179.61
c-58.7373 59.3613 -117.647 118.897 -175.678 177.562c119.327 119.337 238.265 238.254 357.038 357.038c118.181 -118.181 236.954 -236.964 355.472 -355.472c-59.5977 -59.5967 -119.337 -119.337 -179.313 -179.322z" />
</svg>
