<?xml version="1.0" encoding="UTF-8"?>
<svg width="1023px" height="809px" viewBox="0 0 1023 809" version="1.1" xmlns="http://www.w3.org/2000/svg" xmlns:xlink="http://www.w3.org/1999/xlink">
  <g id="SquareSpace" transform="translate(0.201, 0.6075)" fill="currentColor" fill-rule="nonzero">
    <path d="M644.351675,212.223475 C657.663175,198.911975 657.663175,176.383675 644.351675,163.072075 C631.039175,149.759575 608.511875,149.759575 595.199375,163.072075 L270.592375,487.679075 C224.512275,533.759175 149.760375,533.759175 103.680375,487.679075 C57.600375,441.598975 57.600275,366.847075 103.680375,320.767075 L364.800375,59.647075 C378.111875,46.335575 378.111875,23.807275 364.800375,10.495675 C351.487875,-2.816825 328.959575,-2.816825 315.648075,10.495675 L54.528075,270.591675 C-18.176025,343.295775 -18.176025,463.103675 54.528075,535.807675 C127.232175,608.511675 247.040075,608.511775 319.744075,535.807675 L644.351675,212.223475 Z M162.047675,428.287475 C175.359175,441.598975 197.887475,441.598975 211.199075,428.287475 L535.807075,103.679475 C581.887175,57.599375 656.639075,57.599375 702.719075,103.679475 C716.030575,116.991975 738.558875,116.991975 751.870475,103.679475 C765.182975,90.367975 765.182975,67.839675 751.870475,54.528075 C679.166375,-18.176025 559.358475,-18.176025 486.654475,54.528075 L162.047475,379.135075 C148.734975,392.447575 148.734975,414.974875 162.047475,428.287375 L162.047675,428.287475 Z M860.415675,379.135475 C847.104175,365.823975 824.575875,365.823975 811.264275,379.135475 L486.656275,703.743475 C440.576175,749.823575 365.824275,749.823575 319.744275,703.743475 C306.432775,690.430975 283.904475,690.430975 270.592875,703.743475 C257.280375,717.054975 257.280375,739.583275 270.592875,752.894875 C343.296975,825.598975 463.104875,825.598975 535.808875,752.894875 L860.415875,428.287875 C873.728375,414.975375 873.728375,392.448075 860.415875,379.135575 L860.415675,379.135475 Z M702.719675,270.591475 L378.111675,595.199475 C364.800175,608.510975 364.800175,631.039275 378.111675,644.350875 C391.424175,657.663375 413.951475,657.663375 427.263975,644.350875 L751.870975,319.743875 C797.951075,273.663775 872.702975,273.663775 918.782975,319.743875 C964.862975,365.823975 964.863075,440.575875 918.782975,486.655875 L658.686975,747.775875 C645.374475,761.087375 645.374475,783.615675 658.686975,796.927275 C671.998475,810.239775 694.526775,810.239775 707.839275,796.927275 L967.935275,536.831275 C1040.63937,464.127175 1040.63937,344.319275 967.935275,271.615275 C895.231175,197.886775 776.447275,197.886775 702.719275,270.590865 L702.719675,270.591475 Z"></path>
  </g>
</svg>