<?xml version="1.0" standalone="no"?>
<!DOCTYPE svg PUBLIC "-//W3C//DTD SVG 1.1//EN" "http://www.w3.org/Graphics/SVG/1.1/DTD/svg11.dtd" >
<svg xmlns="http://www.w3.org/2000/svg" xmlns:xlink="http://www.w3.org/1999/xlink" version="1.1" viewBox="-10 0 1044 1024">
   <path fill="currentColor"
d="M645.12 179.512c13.3115 -13.3115 13.3115 -35.8398 0 -49.1514c-13.3125 -13.3125 -35.8398 -13.3125 -49.1523 0l-324.607 324.607c-46.0801 46.0801 -120.832 46.0801 -166.912 0s-46.0801 -120.832 0 -166.912l261.12 -261.12
c13.3115 -13.3115 13.3115 -35.8398 0 -49.1514c-13.3125 -13.3125 -35.8408 -13.3125 -49.1523 0l-261.12 260.096c-72.7041 72.7041 -72.7041 192.512 0 265.216s192.512 72.7041 265.216 0zM162.816 395.576c13.3115 13.3115 35.8398 13.3115 49.1514 0l324.608 -324.608
c46.0801 -46.0801 120.832 -46.0801 166.912 0c13.3115 13.3125 35.8398 13.3125 49.1514 0c13.3125 -13.3115 13.3125 -35.8398 0 -49.1514c-72.7041 -72.7041 -192.512 -72.7041 -265.216 0l-324.607 324.607c-13.3125 13.3125 -13.3125 35.8398 0 49.1523z
M861.184 346.424c-13.3115 -13.3115 -35.8398 -13.3115 -49.1514 0l-324.608 324.608c-46.0801 46.0801 -120.832 46.0801 -166.912 0c-13.3115 -13.3125 -35.8398 -13.3125 -49.1514 0c-13.3125 13.3115 -13.3125 35.8398 0 49.1514
c72.7041 72.7041 192.512 72.7041 265.216 0l324.607 -324.607c13.3125 -13.3125 13.3125 -35.8398 0 -49.1523zM703.488 237.88l-324.608 324.608c-13.3115 13.3115 -13.3115 35.8398 0 49.1514c13.3125 13.3125 35.8398 13.3125 49.1523 0l324.607 -324.607
c46.0801 -46.0801 120.832 -46.0801 166.912 0s46.0801 120.832 0 166.912l-260.096 261.12c-13.3125 13.3115 -13.3125 35.8398 0 49.1514c13.3115 13.3125 35.8398 13.3125 49.1523 0l260.096 -260.096c72.7041 -72.7041 72.7041 -192.512 0 -265.216
c-72.7041 -73.7285 -191.488 -73.7285 -265.216 -1.02441z" />
</svg>
