<?xml version="1.0" standalone="no"?>
<!DOCTYPE svg PUBLIC "-//W3C//DTD SVG 1.1//EN" "http://www.w3.org/Graphics/SVG/1.1/DTD/svg11.dtd" >
<svg xmlns="http://www.w3.org/2000/svg" xmlns:xlink="http://www.w3.org/1999/xlink" version="1.1" viewBox="-10 0 1034 1024">
   <path fill="currentColor"
d="M238.726 695.739c-12.2471 1.44141 -24.9863 -0.494141 -40.1768 -6.10547c-12.2334 -4.51855 -29.4434 -13.2061 -38.2441 -19.3047c-8.7998 -6.09863 -21.5635 -19.1729 -28.3604 -29.0537c-6.79785 -9.88086 -16.0996 -28.4111 -20.6699 -41.1807
c-4.57129 -12.7686 -9.25977 -37.04 -10.418 -53.9355c-1.1875 -17.3027 0.0849609 -41.3398 2.91211 -55.0371c2.76172 -13.374 9.58496 -33.3242 15.1641 -44.334c7.27051 -14.3467 14.126 -21.6807 24.2041 -25.8916c10.4834 -4.38086 18.3994 -4.90039 31.1113 -2.04492
c9.37695 2.10742 20.9092 7.69043 25.626 12.4072c7.8457 7.84668 8.05566 9.38867 2.45996 18.1113c-3.36426 5.24414 -12.0059 18.3086 -19.2041 29.0322c-7.19824 10.7227 -16.875 30.7139 -21.5039 44.4219s-8.41699 34.3457 -8.41699 45.8613
c0 11.5166 3.70117 31.8945 8.22461 45.2852c4.52441 13.3916 12.0088 30.5654 16.6318 38.1641c7.95996 13.084 9.38574 13.7061 26.8994 11.7324c12.2178 -1.37695 25.958 -7.22656 40.4912 -17.2344c12.0977 -8.33203 26.7471 -21.377 32.5527 -28.9893
c5.80664 -7.61133 15.2266 -23.1367 20.9346 -34.502c5.70801 -11.3633 13.2373 -35.8242 16.7324 -54.3564c5.13574 -27.2324 5.48535 -38.9648 1.81738 -61.1748c-2.49609 -15.1143 -9.48633 -40.8281 -15.5322 -57.1416c-7.05078 -19.0215 -16.334 -35 -25.8838 -44.5498
c-9.25684 -9.25684 -22.3311 -16.9736 -34.5596 -20.3965c-16.5938 -4.64648 -25.5117 -4.60254 -57.0586 0.28418c-20.5654 3.18555 -55.1836 5.79102 -76.9307 5.79102c-37.5996 0 -40.4141 -0.620117 -57.3447 -12.6377
c-10.8564 -7.70703 -21.7861 -20.4932 -28.0117 -32.7676c-6.26855 -12.3623 -10.0752 -26.5684 -9.87305 -36.8164c0.214844 -10.0508 4.98828 -25.2041 12.0098 -38.1074c6.41211 -11.7803 18.8662 -27.9316 27.6758 -35.8896
c8.80859 -7.95801 28.916 -20.6514 44.6826 -28.207s38.2666 -14.9375 50.001 -16.4043c12.4893 -1.55957 28.8818 -0.646484 39.5391 2.20312c12.3545 3.30469 23.7734 10.6592 35.5312 22.8887c9.5293 9.90918 18.5186 22.7666 19.9746 28.5703
c1.50879 6.0127 0.637695 12.5635 -2.02344 15.2256c-3.49902 3.49902 -8 3.24609 -17.9277 -1.00684c-7.29004 -3.12402 -25.8623 -6.44141 -41.2715 -7.37109c-18.96 -1.14551 -34.8506 0.499023 -49.1523 5.08301c-11.624 3.72559 -30.7686 13.0908 -42.5449 20.8096
c-13.3965 8.78223 -24.5117 20.1152 -29.6963 30.2773c-4.55664 8.93262 -8.28613 21.0059 -8.28613 26.8301c0 5.92773 4.66211 15.252 10.5918 21.1797c9.45703 9.45703 12.8535 10.3447 31.7441 8.29785c11.6338 -1.26074 33.2314 -5.14453 47.9941 -8.63086
c14.7637 -3.48633 39.4189 -8.12012 54.792 -10.2969c18.6133 -2.63574 35.6455 -2.54102 50.9824 0.28418c12.667 2.33398 32.6104 8.76562 44.3174 14.2949c12.7832 6.03711 27.7021 17.7441 37.3545 29.3135c8.83789 10.5947 21.8564 30.7637 28.9287 44.8203
c7.07324 14.0566 15.5801 37.0967 18.9053 51.2002c3.3252 14.1025 6.0459 38.5439 6.0459 54.3135c0 15.7705 -2.71777 40.1992 -6.03906 54.2871s-12.6484 38.7402 -20.7275 54.7832c-9.91309 19.6846 -13.3398 30.5156 -10.542 33.3154
c2.28125 2.28027 12.4219 3.21387 22.5352 2.07422c10.6045 -1.19434 27.5488 -7.70996 40.0312 -15.3906c11.9043 -7.3252 28.7236 -19.0869 37.375 -26.1367c8.65234 -7.05078 27.1572 -24.4482 41.1211 -38.6621c13.9648 -14.2129 26.0225 -28.6826 26.7939 -32.1533
c0.772461 -3.4707 -4.75586 -11.4531 -12.2832 -17.7373c-13.2646 -11.0723 -13.7266 -12.4834 -14.9395 -45.6709c-0.942383 -25.7822 1.76172 -48.9199 10.9443 -93.6357c6.70801 -32.666 18.0176 -84.2754 25.1328 -114.688
c7.73633 -33.0664 13.8691 -72.3047 15.2559 -97.6035c1.875 -34.1982 1.03613 -44.998 -4.37695 -56.3477c-3.68262 -7.72363 -12.71 -17.708 -20.0615 -22.1904c-7.35059 -4.48145 -19.0205 -8.15625 -25.9326 -8.16406
c-6.91309 -0.0078125 -21.6582 2.75391 -32.7676 6.13965c-11.1104 3.38477 -24.7607 9.69434 -30.334 14.0225c-10.041 7.7959 -10.0625 7.94922 -2.2627 16.5684c6.81836 7.53418 10.7109 8.34375 29.0703 6.05078c19.4238 -2.42676 22.3037 -1.66016 34.416 9.16211
c10.2363 9.14551 13.1641 15.0117 12.9775 26.0068c-0.131836 7.80762 -7.86328 50.1387 -17.1816 94.0693c-14.3193 67.5039 -17.2246 89.3857 -18.7656 141.312c-1.00195 33.792 -3.31738 64.2051 -5.14453 67.584s-8.08203 6.71484 -13.9004 7.41406
c-5.81836 0.698242 -16.3008 -1.68848 -23.293 -5.30469c-6.99316 -3.61621 -15.6797 -12.792 -19.3037 -20.3926c-4.83203 -10.1338 -5.94629 -20.1836 -4.18066 -37.7021c1.32422 -13.1377 4.98828 -36.8389 8.14062 -52.6699
c3.15332 -15.8301 4.57812 -32.0732 3.16699 -36.0977c-2.41504 -6.88574 -3.19043 -6.82422 -13.2031 1.05273c-5.85156 4.60254 -15.6035 10.2568 -21.6729 12.5635c-8.0957 3.07812 -18.2852 2.5127 -38.2715 -2.12207
c-15.0312 -3.48633 -31.4434 -10.2676 -36.6211 -15.1318c-5.16113 -4.84863 -11.459 -15.7432 -13.9961 -24.21c-2.55762 -8.53809 -3.4541 -23.8486 -2.01074 -34.374c1.43066 -10.4385 10.3506 -34.0332 19.8232 -52.4346
c13.6533 -26.5234 25.7529 -41.9512 58.3994 -74.4697c33.7012 -33.5684 47.5 -44.1689 75.9941 -58.3857c22.3926 -11.1729 42.8535 -18.252 57.3438 -19.8398c12.5049 -1.37012 30.1904 -0.40332 39.75 2.17383c9.47266 2.55273 23.1426 9.62402 30.3779 15.7129
c7.23633 6.08887 18.6982 23.0898 25.4727 37.7803c10.0752 21.8525 12.6084 33.4121 13.9307 63.5732c1.30664 29.8193 -0.780273 48.2158 -10.918 96.2568c-6.89355 32.666 -16.9678 78.7451 -22.3867 102.399s-12.1533 57.3926 -14.9648 74.9736
c-3.88574 24.291 -3.96973 33.1084 -0.350586 36.7275s8.08008 1.35254 18.582 -9.43652c7.60156 -7.81055 27.6104 -32.9082 44.4648 -55.7744c16.8555 -22.8662 39.8965 -56.9648 51.2021 -75.7764c11.3057 -18.8105 33.9355 -60.9277 50.2881 -93.5938
s37.8574 -78.7461 47.7881 -102.4c9.93066 -23.6533 20.8213 -47.2539 24.2012 -52.4434c3.37988 -5.19043 8.96973 -10.5205 12.4219 -11.8447c3.45312 -1.3252 12.5811 0.59668 20.2861 4.27051c8.01465 3.82227 16.749 12.4277 20.4141 20.1133
c5.71289 11.9795 5.74902 15.1963 0.334961 29.7412c-3.33887 8.96875 -13.7422 37.5049 -23.1172 63.4111c-9.375 25.9072 -23.2305 69.2227 -30.7891 96.2568c-7.55762 27.0332 -18.8965 74.957 -25.1953 106.495c-9.87695 49.4551 -11.4697 67.2383 -11.5752 129.262
c-0.078125 46.4053 1.77246 79.0977 5.21777 92.1602c2.93652 11.1328 7.97266 22.9092 11.1924 26.1689c5.09766 5.15918 8.16895 3.51074 23.7441 -12.7441c9.83984 -10.2695 31.3672 -38.7412 47.8398 -63.2715c16.4736 -24.5293 39.6123 -64.875 51.4219 -89.6553
c11.8105 -24.7812 27.1406 -63.4883 34.0684 -86.0166s14.4619 -57.5488 16.7432 -77.8242c2.96582 -26.3662 2.82227 -43.6514 -0.505859 -60.7041c-4.01367 -20.5576 -3.74805 -24.7451 1.92871 -30.4219c5.2793 -5.27832 8.55664 -5.68164 16.5537 -2.03906
c5.48535 2.49902 14.0107 8.81641 18.9473 14.0381c4.9375 5.22266 13.8389 18.7109 19.7842 29.9756c9.49316 17.9863 10.7119 24.6982 10.0127 55.1367c-0.486328 21.1982 -4.14453 45.8525 -9.41895 63.4883c-4.74219 15.8564 -18.6074 49.1064 -30.8125 73.8867
s-33.2441 60.3447 -46.7529 79.0332c-13.5098 18.6865 -43.0791 55.9688 -65.7109 82.8477c-24.9551 29.6406 -48.2285 53.0215 -59.1387 59.4141c-9.89355 5.79785 -24.1201 11.459 -31.6113 12.5791c-9.34277 1.39746 -17.7666 -0.555664 -26.8066 -6.21191
c-8.08203 -5.05664 -17.9717 -17.7363 -25.5586 -32.7656c-12.376 -24.5176 -12.376 -24.5176 -35.3613 -12.4277c-15.3018 8.04883 -28.9785 12.0908 -40.918 12.0908c-9.86328 0 -25.4238 -2.99609 -34.5811 -6.66016
c-11.9951 -4.7998 -18.9189 -11.1133 -24.7734 -22.5908c-4.46973 -8.76074 -9.24121 -21.5029 -10.6035 -28.3145c-1.3623 -6.8125 -3.93945 -11.8535 -5.72656 -11.2021s-22.2793 20.8135 -45.5361 44.8037c-28.71 29.6172 -49.5186 47.2842 -64.8145 55.0332
c-16.1416 8.17676 -28.9141 11.4873 -45.0557 11.6758c-12.3896 0.145508 -30.707 -2.44922 -40.7041 -5.76562s-24.6201 -10.4023 -32.4971 -15.748c-14.3213 -9.71875 -14.3213 -9.71875 -45.8096 7.05859c-17.3193 9.22852 -39.5596 17.7285 -49.4238 18.8896
h-0.00195312zM670.891 605.94c8.75879 -0.995117 18.4756 -4.36035 21.5938 -7.47949c4.72949 -4.72949 4.86035 -12.084 0.794922 -44.3457c-3.17578 -25.1904 -3.99023 -65.0996 -2.33691 -114.452c2.49219 -74.4072 2.39941 -75.6094 -5.11816 -66.5215
c-4.21094 5.09082 -19.1885 29.9736 -33.2822 55.2969c-14.0938 25.3223 -36.5576 63.1123 -49.9199 83.9785c-18.7227 29.2373 -23.7188 40.2324 -21.7832 47.9443c1.38086 5.50391 9.10059 15.0312 17.1533 21.1738c8.05273 6.1416 24.167 14.5527 35.8076 18.6904
c12.5723 4.46973 27.6318 6.78906 37.0898 5.71484h0.000976562zM368.325 284.015c2.87012 0 10.748 -6.29785 17.5059 -13.9951c6.75781 -7.69629 18.2969 -26.2012 25.6416 -41.1211c7.3457 -14.9209 15.8164 -36.6162 18.8242 -48.2139
c4.73438 -18.251 4.63477 -22.3594 -0.736328 -30.5576c-4.10156 -6.26074 -10.1953 -9.47168 -17.9746 -9.47168c-8.18164 0 -15.3799 4.11133 -23.6133 13.4883c-6.51367 7.41992 -16.2002 23.5479 -21.5264 35.8408c-5.99512 13.8359 -10.4316 33.6475 -11.6455 52.0049
c-1.34375 20.3184 -0.344727 31.6016 3.17188 35.8398c2.82324 3.40234 7.48242 6.18555 10.3525 6.18555z" />
</svg>
