<?xml version="1.0" encoding="UTF-8"?>
<svg width="999px" height="654px" viewBox="0 0 999 654" version="1.1" xmlns="http://www.w3.org/2000/svg" xmlns:xlink="http://www.w3.org/1999/xlink">
  <g id="SquidgeWorld" transform="translate(0.3056, 0.6137)" fill="currentColor" fill-rule="nonzero">
    <path d="M226.441662,652.416841 C214.194562,653.858251 201.455362,651.9227 186.264862,646.311371 C174.031462,641.792821 156.821462,633.105271 148.020762,627.006671 C139.220962,620.908041 126.457262,607.833771 119.660362,597.952971 C112.862512,588.072111 103.560762,569.541871 98.9904622,556.772271 C94.4191722,544.003671 89.7306922,519.732271 88.5724622,502.836771 C87.3849622,485.534071 88.6574231,461.496971 91.4845722,447.799671 C94.2462922,434.425671 101.069532,414.475471 106.648672,403.465671 C113.919182,389.118971 120.774672,381.784971 130.852772,377.574071 C141.336172,373.193211 149.252172,372.673681 161.964072,375.529151 C171.341022,377.636571 182.873272,383.219581 187.590072,387.936351 C195.435772,395.783031 195.645732,397.325021 190.050032,406.047651 C186.685772,411.291791 178.044132,424.356251 170.845932,435.079851 C163.647692,445.802551 153.970932,465.793751 149.342032,479.501751 C144.713132,493.209751 140.925042,513.847451 140.925042,525.363051 C140.925042,536.879651 144.626212,557.257551 149.149652,570.648251 C153.674062,584.039851 161.158452,601.213651 165.781452,608.812351 C173.741412,621.896351 175.167192,622.518451 192.680852,620.544751 C204.898652,619.167801 218.638852,613.318191 233.172052,603.310351 C245.269752,594.978321 259.919152,581.933351 265.724752,574.321051 C271.531392,566.709721 280.951352,551.184351 286.659352,539.819051 C292.367362,528.455751 299.896652,503.994851 303.391752,485.462651 C308.527492,458.230251 308.877102,446.497851 305.209132,424.287851 C302.713042,409.173551 295.722802,383.459751 289.676932,367.146251 C282.626152,348.124751 273.342932,332.146251 263.793132,322.596451 C254.536292,313.339611 241.462032,305.622851 229.233532,302.199951 C212.639732,297.553471 203.721832,297.597411 172.174932,302.484131 C151.609532,305.669681 116.991332,308.275151 95.2442322,308.275151 C57.6446322,308.275151 54.8301322,307.655034 37.8995322,295.637451 C27.0431322,287.930421 16.1134322,275.144251 9.88783222,262.869851 C3.61928222,250.507551 -0.187367784,236.301451 0.00711194198,226.053451 C0.229626216,216.002651 5.00306222,200.849351 12.0245822,187.946051 C18.4366922,176.165751 30.8907822,160.014451 39.7003822,152.056451 C48.5089722,144.098441 68.6163822,131.405051 84.3829822,123.849451 C100.149582,116.293851 122.649582,108.911951 134.383982,107.445151 C146.873282,105.885581 163.265782,106.798667 173.923082,109.648271 C186.277582,112.952961 197.696482,120.307471 209.454282,132.536971 C218.983582,142.446151 227.972882,155.303571 229.428882,161.107271 C230.937672,167.119971 230.066577,173.670771 227.405442,176.332871 C223.906422,179.831891 219.405442,179.578961 209.477742,175.326031 C202.187702,172.202011 183.615442,168.884621 168.206242,167.954941 C149.246242,166.809431 133.355642,168.453964 119.053942,173.037951 C107.429942,176.763541 88.2853422,186.128751 76.5090422,193.847551 C63.1125422,202.629781 51.9973422,213.962751 46.8127422,224.124851 C42.2561022,233.057471 38.5266122,245.130751 38.5266122,250.954951 C38.5266122,256.882681 43.1887222,266.206951 49.1184122,272.134651 C58.5754422,281.591681 61.9719122,282.479351 80.8625122,280.432501 C92.4963122,279.171761 114.093912,275.287971 128.856612,271.801641 C143.620312,268.315311 168.275512,263.681521 183.648612,261.504741 C202.261912,258.869001 219.294112,258.963721 234.631012,261.788921 C247.298012,264.122901 267.241412,270.554541 278.948412,276.083821 C291.731612,282.120931 306.650512,293.827921 316.302912,305.397321 C325.140802,315.992021 338.159312,336.161021 345.231612,350.217621 C352.304852,364.274221 360.811712,387.314321 364.136912,401.417821 C367.462112,415.520321 370.182812,439.961721 370.182812,455.731321 C370.182812,471.501821 367.465042,495.930521 364.143752,510.018421 C360.822462,524.106321 351.495352,548.758621 343.416252,564.801621 C333.503162,584.486221 330.076452,595.317221 332.874252,598.117021 C335.155502,600.397291 345.296152,601.330891 355.409452,600.191241 C366.013952,598.996901 382.958252,592.481281 395.440652,584.800641 C407.344952,577.475441 424.164252,565.713741 432.815652,558.663941 C441.467992,551.613161 459.972852,534.215741 473.936752,520.001841 C487.901552,505.788941 499.959252,491.319241 500.730652,487.848541 C501.503113,484.377841 495.974792,476.395441 488.447452,470.111241 C475.182852,459.038941 474.720852,457.627841 473.507952,424.440341 C472.565569,398.658141 475.269672,375.520441 484.452252,330.804641 C491.160262,298.138641 502.469852,246.529241 509.585052,216.116641 C517.321382,183.050241 523.454152,143.811941 524.840952,118.513141 C526.715952,84.3149412 525.877082,73.5151412 520.464002,62.1654412 C516.781382,54.4418112 507.754002,44.4574412 500.402502,39.9750412 C493.051912,35.4935912 481.382002,31.8187912 474.469902,31.8109812 C467.556812,31.8031687 452.811702,34.5648912 441.702302,37.9506312 C430.591902,41.3354012 416.941602,47.6449712 411.368302,51.9731312 C401.327302,59.7690312 401.305802,59.9223512 409.105602,68.5415312 C415.923962,76.0757112 419.816502,76.8852812 438.175902,74.5923112 C457.599702,72.1655512 460.479602,72.9321512 472.591902,83.7544212 C482.828202,92.8999312 485.756002,98.7661212 485.569402,109.761221 C485.437566,117.568841 477.706122,159.899921 468.387802,203.830521 C454.068502,271.334421 451.163202,293.216221 449.622202,345.142521 C448.620252,378.934521 446.304822,409.347621 444.477672,412.726521 C442.650522,416.105421 436.395642,419.441361 430.577272,420.140581 C424.758912,420.838823 414.276472,418.452101 407.284272,414.835891 C400.291112,411.219681 391.604572,402.043891 387.980572,394.443291 C383.148542,384.309491 382.034282,374.259691 383.799912,356.741191 C385.124132,343.603491 388.788192,319.902291 391.940532,304.071291 C395.093852,288.241191 396.518652,271.998091 395.107522,267.973591 C392.692482,261.087851 391.917092,261.149371 381.904422,269.026321 C376.052862,273.628861 366.300922,279.283121 360.231522,281.589821 C352.135822,284.667941 341.946322,284.102521 321.960022,279.467751 C306.928822,275.981421 290.516622,269.200151 285.338922,264.335951 C280.177792,259.487321 273.879922,248.592751 271.342822,240.125951 C268.785202,231.587861 267.888722,216.277351 269.332082,205.751951 C270.762742,195.313451 279.682682,171.718751 289.155282,153.317351 C302.808582,126.793951 314.908182,111.366151 347.554682,78.8476512 C381.255882,45.2792512 395.054682,34.6787512 423.548782,20.4619512 C445.941382,9.28905123 466.402282,2.20995123 480.892582,0.622151235 C493.397482,-0.747968765 511.082982,0.218831235 520.642582,2.79598123 C530.115242,5.34871123 543.785182,12.4200012 551.020482,18.5088812 C558.256812,24.5977512 569.718682,41.5986812 576.493182,56.2891812 C586.568382,78.1416812 589.101582,89.7012812 590.423882,119.862381 C591.730522,149.681681 589.643609,168.078181 579.505882,216.119181 C572.612332,248.785181 562.538082,294.864281 557.119182,318.518181 C551.700282,342.172081 544.965882,375.910781 542.154382,393.491781 C538.268642,417.782781 538.184652,426.600181 541.803796,430.219281 C545.42294,433.838381 549.883876,431.571821 560.385796,420.782761 C567.987356,412.972211 587.996196,387.874561 604.850596,365.008361 C621.706096,342.142161 644.747096,308.043561 656.052696,289.231961 C667.358396,270.421461 689.988196,228.304261 706.340796,195.638161 C722.693396,162.972061 744.198196,116.892061 754.128896,93.2381612 C764.059556,69.5848612 774.950196,45.9842612 778.330096,40.7947612 C781.709976,35.6043312 787.299826,30.2742612 790.751996,28.9500612 C794.205116,27.6248612 803.333096,29.5467412 811.038096,33.2205712 C819.052746,37.0428412 827.787096,45.6482712 831.452196,53.3338712 C837.165086,65.3133712 837.201216,68.5301712 831.787157,83.0750712 C828.448287,92.0438212 818.044957,120.579971 808.669957,146.486171 C799.294957,172.393371 785.439457,215.708871 777.880857,242.742971 C770.323237,269.776171 758.984357,317.699971 752.685557,349.237971 C742.808607,398.693071 741.215857,416.476271 741.110357,478.499971 C741.032232,524.905271 742.882817,557.597671 746.328127,570.660171 C749.264647,581.792971 754.300787,593.569371 757.520527,596.829071 C762.618187,601.988251 765.689477,600.339811 781.264627,584.084971 C791.104467,573.815471 812.631827,545.343771 829.104427,520.813471 C845.578027,496.284171 868.716727,455.938471 880.526327,431.158171 C892.336827,406.376971 907.666927,367.669871 914.594727,345.141571 C921.522527,322.613271 929.056627,287.592771 931.337927,267.317371 C934.303747,240.951171 934.160197,223.665971 930.832068,206.613271 C926.818398,186.055671 927.084018,181.868171 932.760778,176.191371 C938.040078,170.913051 941.317418,170.509731 949.314478,174.152311 C954.799828,176.651331 963.325178,182.968721 968.261778,188.190411 C973.199278,193.413071 982.100678,206.901311 988.045978,218.166011 C997.539138,236.152311 998.757878,242.864211 998.058678,273.302711 C997.57235,294.500911 993.914148,319.155211 988.639728,336.791011 C983.897538,352.647411 970.032328,385.897411 957.827228,410.677711 C945.622128,435.458011 924.583128,471.022411 911.074328,489.710911 C897.564528,508.397411 867.995228,545.679711 845.363428,572.558611 C820.408328,602.199211 797.134928,625.580111 786.224728,631.972711 C776.331178,637.770561 762.104628,643.431711 754.613428,644.551811 C745.270658,645.949271 736.846828,643.996147 727.806828,638.339901 C719.724798,633.283261 709.835128,620.603601 702.248228,605.574301 C689.872228,581.056701 689.872228,581.056701 666.886928,593.146601 C651.585128,601.195431 637.908428,605.237401 625.968928,605.237401 C616.105648,605.237401 600.545128,602.241311 591.387828,598.577241 C579.392728,593.777441 572.468928,587.463941 566.614428,575.986441 C562.144698,567.225701 557.373218,554.483541 556.010928,547.671941 C554.648628,540.859441 552.071478,535.818441 550.284368,536.469841 C548.497258,537.121241 528.005068,557.283341 504.748268,581.273541 C476.038268,610.890741 455.229668,628.557741 439.933768,636.306741 C423.792168,644.483501 411.019668,647.794041 394.878068,647.982541 C382.488468,648.128049 364.171068,645.533321 354.173968,642.216921 C344.176868,638.900521 329.553868,631.814621 321.676868,626.468921 C307.355568,616.750171 307.355568,616.750171 275.867268,633.527511 C258.547968,642.756031 236.307668,651.256011 226.443468,652.417111 L226.441515,652.417111 L226.441662,652.416841 Z M658.606662,562.617841 C667.365452,561.622724 677.082262,558.257491 680.200462,555.138351 C684.929952,550.408861 685.060812,543.054351 680.995384,510.792651 C677.819604,485.602251 677.005154,445.693051 678.658474,396.340651 C681.150664,321.933451 681.057884,320.731251 673.540314,329.819151 C669.329374,334.909971 654.351814,359.792751 640.258114,385.116051 C626.164314,410.438351 603.700514,448.228351 590.338214,469.094551 C571.615514,498.331851 566.619414,509.326951 568.555014,517.038851 C569.935874,522.542761 577.655604,532.070051 585.708314,538.212651 C593.761044,544.354251 609.875314,552.765351 621.515914,556.903051 C634.088214,561.372781 649.147714,563.692111 658.605714,562.617891 L658.606691,562.617891 L658.606662,562.617841 Z M356.040662,240.692841 C358.910782,240.692841 366.788662,234.394991 373.546562,226.697741 C380.304372,219.001451 391.843462,200.496541 399.188162,185.576641 C406.533862,170.655741 415.004562,148.960441 418.012362,137.362741 C422.746742,119.111741 422.647132,115.003341 417.276034,106.805141 C413.174474,100.544401 407.080734,97.3334612 399.301434,97.3334612 C391.119794,97.3334612 383.921534,101.444791 375.688134,110.821761 C369.174464,118.241681 359.487934,134.369661 354.161734,146.662561 C348.166614,160.498461 343.730134,180.310061 342.516234,198.667461 C341.172484,218.985861 342.171507,230.269061 345.688114,234.507261 C348.511354,237.909601 353.170534,240.692841 356.040614,240.692841 L356.040662,240.692841 Z"></path>
  </g>
</svg>