<?xml version="1.0" encoding="UTF-8"?>
<svg width="825px" height="1025px" viewBox="0 0 825 1025" version="1.1" xmlns="http://www.w3.org/2000/svg" xmlns:xlink="http://www.w3.org/1999/xlink">
  <g id="StackExchange" transform="translate(0.1428, 0.8284)" fill="currentColor" fill-rule="nonzero">
    <path d="M694,0 L130,0 C58,0 0,60 0,136 L0,180 L824,180 L824,136 C824,60 766,0 694,0 Z M0,664 L0,708 C0,784 58,844 130,844 L482,844 L482,1024 L656,844 L694,844 C766,844 824,784 824,710 L824,666 L0,666 L0,664 Z M0,228 L0,398 L824,398 L824,228 L0,228 Z M0,448 L0,618 L824,618 L824,448 L0,448 Z"></path>
  </g>
</svg>