<?xml version="1.0" standalone="no"?>
<!DOCTYPE svg PUBLIC "-//W3C//DTD SVG 1.1//EN" "http://www.w3.org/Graphics/SVG/1.1/DTD/svg11.dtd" >
<svg xmlns="http://www.w3.org/2000/svg" xmlns:xlink="http://www.w3.org/1999/xlink" version="1.1" viewBox="-10 0 1047 1024">
   <path fill="currentColor"
d="M1020.93 -137.928h-1018.88v1020.93c0 3.07227 1.02441 3.07227 3.07227 3.07227h1020.93v-1018.88c-1.02344 -5.12012 -1.02344 -5.12012 -5.12012 -5.12012zM732.16 25.9121h103.424c3.07227 0 4.0957 0 4.0957 3.07227v16.3838
c0 3.07227 -1.02344 4.0957 -4.0957 4.0957h-76.7998c-3.07227 0 -4.0957 1.02441 -4.0957 4.0957v33.792c0 3.07227 1.02344 4.09668 3.07129 4.09668h70.6562c3.07227 0 4.0957 1.02344 4.0957 4.0957v14.3359c0 3.07227 -1.02344 4.0957 -4.0957 4.0957h-70.6562
c-3.07129 0 -4.0957 1.02441 -4.0957 4.09668v37.8877c0 3.07227 1.02441 3.07227 3.07227 3.07227h77.8232c3.07227 0 4.09668 1.02344 4.09668 4.0957v16.3838c0 2.04785 0 3.07227 -3.07227 3.07227h-107.52c-3.07227 0 -2.04883 -2.04785 -2.04883 -3.07227v-73.7275
v-73.7285c2.04883 -5.12012 3.07227 -6.14355 6.14453 -6.14355zM569.344 56.6318c15.3604 -25.5996 38.9121 -34.8154 67.584 -32.7676c14.3359 1.02344 27.6484 5.12012 39.9365 14.3359c11.2637 9.21582 17.4082 21.5039 19.4561 34.8154
c0 2.04883 0 2.04883 -2.04785 2.04883h-21.5049c-1.02344 0 -2.04785 0 -2.04785 -2.04883c-2.04785 -16.3838 -17.4082 -27.6475 -36.8633 -28.6719c-21.5049 -1.02344 -36.8643 9.21582 -44.0322 29.6963c-7.16797 19.4561 -7.16797 39.9355 1.02344 59.3916
c9.2168 21.5039 26.624 30.7207 49.1523 27.6484c20.4805 -2.04785 32.7676 -15.3604 34.8164 -37.8877c0 -4.09668 0 -4.09668 -4.09668 -4.09668h-33.792c-3.07129 0 -4.0957 -1.02344 -4.0957 -3.07129v-14.3359c0 -2.04883 1.02441 -2.04883 2.04785 -2.04883h61.4404
c2.04785 0 2.04785 1.02441 2.04785 2.04883v76.7998c0 2.04785 -1.02441 2.04785 -2.04785 2.04785h-12.2881c-2.04785 0 -3.07227 -1.02441 -4.09668 -3.07227c-1.02344 -5.12012 -2.04785 -10.2402 -3.07129 -15.3604h-1.02441
c-2.04785 3.07227 -5.12012 5.12012 -7.16797 8.19238c-9.21582 8.19238 -19.4561 12.2881 -31.7441 13.3125c-22.5273 1.02344 -41.9834 -4.09668 -58.3682 -21.5049c-11.2637 -11.2637 -17.4072 -25.5996 -20.4795 -40.96
c-3.07227 -22.5273 -1.02441 -44.0312 11.2637 -64.5117zM296.96 30.0078c0 -2.04785 1.02441 -3.07227 3.07227 -3.07227h21.5039h96.2559c3.07227 0 4.0957 0 4.0957 3.07227v16.3838c0 3.07227 -1.02344 3.07227 -3.07129 3.07227h-41.9844
c-3.07227 0 -3.07227 1.02441 -3.07227 3.07227v62.4639v62.4639c0 3.07227 -1.02344 3.07227 -3.07129 3.07227h-20.4805c-3.07227 0 -4.0957 -1.02441 -4.0957 -4.0957v-121.856c0 -6.14355 0 -6.14355 -6.14453 -6.14355h-38.9121
c-3.07129 0 -4.0957 0 -3.07129 -3.07227c-1.02441 -4.0957 -1.02441 -10.2402 -1.02441 -15.3604zM164.864 129.336h21.5039c1.02344 0 2.04785 0 3.07227 2.04785c1.02344 16.3838 10.2393 26.624 28.6719 29.6963c9.21582 1.02344 17.4072 1.02344 25.5996 -1.02441
c13.3125 -4.0957 19.4561 -14.3359 16.3838 -27.6475c-2.04785 -7.16797 -6.14355 -10.2402 -12.2881 -13.3125c-10.2393 -4.0957 -21.5039 -6.14355 -31.7432 -9.21582c-8.19238 -2.04785 -15.3604 -4.0957 -22.5283 -7.16797
c-13.3125 -6.14355 -23.5518 -15.3604 -24.5762 -30.7197c-2.04785 -16.3838 4.0957 -30.7197 18.4316 -39.9365c13.3125 -9.21582 28.6729 -11.2637 44.0322 -10.2393c13.3125 1.02344 25.6006 4.0957 35.8398 12.2871c11.2646 8.19238 16.3848 19.4561 17.4082 33.793
c0 2.04785 0 3.07129 -3.07227 3.07129h-10.2393h-11.2646c-2.04785 0 -2.04785 0 -3.07129 -2.04785c-2.04883 -16.3838 -13.3125 -23.5518 -28.6729 -24.5762c-8.19141 -1.02344 -15.3594 0 -22.5273 3.07227c-6.14453 3.07227 -10.2402 8.19238 -10.2402 15.3604
s3.07227 13.3115 9.21582 17.4072c6.14453 4.09668 12.2881 5.12012 19.4561 6.14453c11.2637 3.07227 22.5283 6.14355 32.7686 9.21582c17.4072 5.12012 28.6719 16.3838 31.7432 33.792c3.07227 17.4082 -5.11914 34.8164 -20.4795 44.0322
c-14.3359 9.21582 -30.7197 11.2637 -47.1045 10.2402c-11.2637 -1.02441 -22.5273 -3.07227 -32.7676 -9.2168c-16.3838 -9.21582 -23.5518 -24.5752 -24.5762 -43.0078c-2.04785 -1.02344 -1.02344 -2.04785 1.02441 -2.04785zM417.792 703.8
c-21.5039 11.2646 -45.0557 18.4326 -68.6084 20.4805c-33.792 3.07129 -65.5352 0 -97.2793 -12.2881c-47.1045 -19.4561 -75.7764 -55.2959 -86.0166 -105.473c-3.07129 -13.3115 -4.0957 -26.623 -4.0957 -39.9355c0 -3.07227 1.02441 -3.07227 3.07227 -3.07227h39.9355
h38.9121c3.07227 0 4.0957 1.02441 4.0957 4.09668c1.02441 18.4316 5.12012 34.8154 14.3359 50.1758c12.2881 19.4561 30.7207 30.7197 54.2725 32.7676c18.4316 2.04785 35.8398 -1.02344 51.2002 -11.2637c19.4561 -12.2881 29.6953 -30.7197 30.7197 -54.2725
c1.02441 -11.2637 0 -22.5273 -5.12012 -32.7676c-6.14355 -16.3838 -19.4561 -26.624 -35.8398 -31.7441c-13.3115 -4.0957 -26.624 -5.12012 -40.96 -6.14355h-20.4805c-2.04785 0 -3.07129 -1.02441 -3.07129 -3.07227v-58.3682
c0 -2.04785 1.02344 -3.07227 3.07129 -3.07227c19.4561 1.02441 38.9121 0 58.3682 -7.16797c16.3848 -6.14355 28.6719 -16.3838 32.7686 -33.792c7.16797 -30.7197 -7.16797 -63.4873 -44.0322 -71.6797c-21.5039 -5.12012 -41.9844 -2.04785 -60.416 12.2881
c-13.3125 10.2402 -20.4805 25.5996 -23.5518 41.9844c-1.02441 7.16797 -2.04785 14.3359 -2.04785 21.5039c0 2.04785 0 2.04785 -2.04883 2.04785h-80.8955c-1.02441 0 -2.04785 0 -2.04785 -2.04785c3.07129 -54.2725 22.5273 -99.3281 69.6318 -130.049
c19.4561 -12.2871 40.96 -19.4551 64.5117 -21.5039c37.8887 -4.0957 74.752 3.07227 107.521 21.5039c24.5762 14.3369 44.0312 32.7686 54.2715 60.416c13.3125 34.8164 11.2646 67.584 -9.21582 99.3281c-10.2402 16.3848 -25.5996 26.624 -43.0078 31.7441
c-1.02441 0 -3.07227 0 -2.04785 2.04785c0 1.02441 2.04785 1.02441 3.07129 1.02441c38.9121 9.21582 68.6084 40.96 74.752 79.8721c10.2402 62.4639 -18.4316 117.76 -73.7275 146.432zM502.784 140.6h-56.3203c-2.04785 0 -3.07227 1.02441 -4.0957 3.07227
c-4.0957 12.2881 -8.19238 23.5518 -12.2881 35.8398c0 1.02441 -1.02441 2.04785 -3.07227 2.04785h-25.5996c5.12012 -13.3115 10.2402 -26.624 15.3594 -39.9355c14.3359 -36.8643 28.6729 -74.752 43.0088 -111.616c1.02344 -2.04785 2.04785 -3.07227 4.0957 -3.07227
h22.5283c2.04785 0 3.07129 0 4.0957 2.04883c19.4561 50.1758 37.8877 100.352 57.3438 149.504c0 1.02344 0 1.02344 1.02441 2.04785h-27.6484c-2.04785 0 -2.04785 -1.02441 -2.04785 -3.07227c-4.0957 -12.2881 -8.19238 -23.5518 -12.2881 -35.8398
c0 -1.02441 -1.02344 -1.02441 -4.0957 -1.02441zM847.872 714.04c0 3.07227 -1.02441 3.07227 -3.07227 3.07227h-321.536c-2.04785 0 -3.07129 0 -3.07129 -3.07227c1.02344 -43.0078 13.3115 -80.8965 39.9355 -114.688
c16.3838 -19.4551 34.8164 -35.8398 55.2959 -51.1992c24.5762 -18.4326 50.1758 -34.8164 75.7764 -52.2246c14.3359 -9.21582 27.6475 -19.4561 39.9355 -32.7676c11.2646 -12.2881 20.4805 -27.6484 22.5283 -44.0322
c3.07227 -23.5518 -1.02441 -46.0801 -19.4561 -63.4883c-11.2637 -11.2637 -25.5996 -16.3838 -41.9844 -17.4072c-30.7197 -1.02441 -52.2236 12.2871 -64.5117 41.9834c-8.19238 18.4326 -11.2637 37.8877 -11.2637 57.3438c0 3.07227 -1.02441 4.09668 -4.09668 4.09668
h-79.8711c-1.02441 0 -3.07227 1.02344 -3.07227 -2.04785c-1.02441 -35.8408 5.12012 -70.6562 23.5518 -102.4c22.5283 -39.9355 57.3438 -64.5117 103.424 -72.7041c34.8164 -6.14355 69.6318 -4.0957 102.4 9.21582c39.9355 16.3838 68.6074 43.0078 80.8955 84.9922
c15.3604 55.2959 4.09668 104.448 -35.8398 146.432c-16.3838 16.3848 -35.8398 29.6963 -55.2959 43.0088c-21.5039 14.3359 -43.0078 26.624 -62.4639 41.9834c-17.4082 13.3125 -32.7686 27.6484 -46.0801 45.0566c-1.02441 1.02344 -1.02441 2.04785 -2.04785 3.07129
h4.0957h202.752c3.07227 0 4.09668 1.02441 4.09668 4.09668c-1.02441 23.5518 -1.02441 48.1279 -1.02441 71.6797zM463.872 86.3281c-4.0957 10.2402 -7.16797 20.4795 -11.2637 30.7197c-1.02441 1.02441 -1.02441 2.04785 1.02344 2.04785h45.0566
c-8.19238 -22.5273 -15.3604 -45.0557 -23.5527 -66.5596c-4.0957 11.2637 -8.19141 22.5283 -11.2637 33.792z" />
</svg>
