<?xml version="1.0" encoding="UTF-8"?>
<svg width="1025px" height="1025px" viewBox="0 0 1025 1025" version="1.1" xmlns="http://www.w3.org/2000/svg" xmlns:xlink="http://www.w3.org/1999/xlink">
  <g id="Stage32" transform="translate(0.1938, 0.6075)" fill="currentColor" fill-rule="nonzero">
    <path d="M1018.88,0 L0,0 L0,1020.93 C0,1024.00227 1.02441,1024.00227 3.07227,1024.00227 L1024.00227,1024.00227 L1024.00227,5.12227 C1022.97883,0 1022.97883,0 1018.88215,0 L1018.88,0 Z M730.11,163.8401 L833.534,163.8401 C836.60627,163.8401 837.6297,163.8401 837.6297,166.91237 L837.6297,183.29617 C837.6297,186.36844 836.60626,187.39187 833.534,187.39187 L756.7342,187.39187 C753.66193,187.39187 752.6385,188.41628 752.6385,191.48757 L752.6385,225.27957 C752.6385,228.35184 753.66194,229.37625 755.70979,229.37625 L826.36599,229.37625 C829.43826,229.37625 830.46169,230.39969 830.46169,233.47195 L830.46169,247.80785 C830.46169,250.88012 829.43825,251.90355 826.36599,251.90355 L755.70979,251.90355 C752.6385,251.90355 751.61409,252.92796 751.61409,256.00023 L751.61409,293.88793 C751.61409,296.9602 752.6385,296.9602 754.68636,296.9602 L832.50956,296.9602 C835.58183,296.9602 836.60624,297.98364 836.60624,301.0559 L836.60624,317.4397 C836.60624,319.48755 836.60624,320.51197 833.53397,320.51197 L726.01397,320.51197 C722.9417,320.51197 723.96514,318.46412 723.96514,317.4397 L723.96514,243.7122 L723.96514,169.9837 C726.01397,164.86358 727.03741,163.8401 730.10967,163.8401 L730.11,163.8401 Z M567.294,194.5598 C582.6544,168.9602 606.2061,159.7444 634.878,161.7922 C649.2139,162.81564 662.5264,166.91232 674.8145,176.1281 C686.0782,185.34392 692.2227,197.632 694.2706,210.9435 C694.2706,212.99233 694.2706,212.99233 692.22275,212.99233 L670.71785,212.99233 C669.69441,212.99233 668.67,212.99233 668.67,210.9435 C666.62215,194.5597 651.2618,183.296 631.8067,182.2716 C610.3018,181.24816 594.9424,191.48742 587.7745,211.9679 C580.60653,231.424 580.60653,251.9034 588.79794,271.3595 C598.01474,292.8634 615.42194,302.0802 637.95024,299.0079 C658.43074,296.96005 670.71784,283.6475 672.76664,261.1202 C672.76664,257.02352 672.76664,257.02352 668.66996,257.02352 L634.87796,257.02352 C631.80667,257.02352 630.78226,256.00008 630.78226,253.95223 L630.78226,239.61633 C630.78226,237.5675 631.80667,237.5675 632.83011,237.5675 L694.27051,237.5675 C696.31836,237.5675 696.31836,238.59191 696.31836,239.61633 L696.31836,316.41613 C696.31836,318.46398 695.29395,318.46398 694.27051,318.46398 L681.98241,318.46398 C679.93456,318.46398 678.91014,317.43957 677.88573,315.39171 C676.86229,310.27159 675.83788,305.15151 674.81444,300.03131 L673.79003,300.03131 C671.74218,303.10358 668.66991,305.15143 666.62206,308.22369 C657.40624,316.41607 647.16596,320.51179 634.87796,321.53619 C612.35066,322.55963 592.89456,317.43951 576.50976,300.03129 C565.24606,288.76759 559.10256,274.43169 556.03026,259.07129 C552.95799,236.54399 555.00585,215.04009 567.29396,194.55959 L567.294,194.5598 Z M294.90999,167.9358 C294.90999,165.88795 295.93441,164.86353 297.98227,164.86353 L319.48617,164.86353 L415.74207,164.86353 C418.81434,164.86353 419.83777,164.86353 419.83777,167.9358 L419.83777,184.3196 C419.83777,187.39187 418.81433,187.39187 416.76648,187.39187 L374.78208,187.39187 C371.70981,187.39187 371.70981,188.41628 371.70981,190.46414 L371.70981,252.92804 L371.70981,315.39194 C371.70981,318.46421 370.68637,318.46421 368.63852,318.46421 L348.15802,318.46421 C345.08575,318.46421 344.06232,317.4398 344.06232,314.36851 L344.06232,192.51251 C344.06232,186.36896 344.06232,186.36896 337.91779,186.36896 L299.00569,186.36896 C295.9344,186.36896 294.90999,186.36896 295.9344,183.29669 C294.90999,179.20099 294.90999,173.05649 294.90999,167.93629 L294.90999,167.9358 Z M162.814,267.264 L184.3179,267.264 C185.34134,267.264 186.36575,267.264 187.39017,269.31185 C188.41361,285.69565 197.62947,295.93585 216.06207,299.00815 C225.27789,300.03159 233.46927,300.03159 241.66167,297.98374 C254.97417,293.88804 261.11777,283.64784 258.04547,270.33624 C255.99762,263.16827 251.90192,260.09604 245.75737,257.02374 C235.51807,252.92804 224.25347,250.88019 214.01417,247.80792 C205.82179,245.76007 198.65377,243.71222 191.48587,240.63995 C178.17337,234.4964 167.93407,225.27955 166.90967,209.92025 C164.86182,193.53645 171.00537,179.20055 185.34127,169.98375 C198.65377,160.76793 214.01417,158.72005 229.37347,159.74445 C242.68597,160.76789 254.97407,163.84015 265.21327,172.03155 C276.47787,180.22393 281.59807,191.48765 282.62147,205.82455 C282.62147,207.8724 282.62147,208.89584 279.5492,208.89584 L269.3099,208.89584 L258.0453,208.89584 C255.99745,208.89584 255.99745,208.89584 254.97401,206.84799 C252.92518,190.46419 241.66151,183.29619 226.30111,182.27179 C218.1097,181.24835 210.94171,182.27179 203.77381,185.34406 C197.62928,188.41633 193.53361,193.53644 193.53361,200.70446 C193.53361,207.87248 196.60588,214.01596 202.74943,218.11166 C208.89396,222.20834 215.03753,223.23178 222.20553,224.25619 C233.46923,227.32846 244.73383,230.39974 254.97413,233.47201 C272.38133,238.59213 283.64603,249.85581 286.71733,267.26401 C289.7896,284.67221 281.59819,302.08041 266.23783,311.29621 C251.90193,320.51203 235.51813,322.55991 219.13333,321.53641 C207.86963,320.512 196.60603,318.46414 186.36573,312.31961 C169.98193,303.10379 162.81393,287.74441 161.78953,269.31181 C159.74168,268.28837 160.76609,267.26396 162.81394,267.26396 L162.814,267.264 Z M415.742,841.728 C394.2381,852.9926 370.6863,860.1606 347.1336,862.2085 C313.3416,865.27979 281.5984,862.2085 249.8543,849.9204 C202.7498,830.4643 174.0779,794.6245 163.8377,744.4474 C160.76641,731.1359 159.742,717.8244 159.742,704.5119 C159.742,701.43963 160.76641,701.43963 162.81427,701.43963 L202.74977,701.43963 L241.66187,701.43963 C244.73414,701.43963 245.75757,702.46404 245.75757,705.53631 C246.78198,723.96791 250.87769,740.35171 260.09347,755.71211 C272.38157,775.16821 290.81417,786.43181 314.36597,788.47971 C332.79757,790.52756 350.20577,787.45627 365.56617,777.21601 C385.02227,764.92791 395.26147,746.49631 396.28587,722.94351 C397.31028,711.67981 396.28587,700.41621 391.16575,690.17591 C385.0222,673.79211 371.70965,663.55191 355.32595,658.43181 C342.01445,654.33611 328.70195,653.31169 314.36595,652.28826 L293.88545,652.28826 C291.8376,652.28826 290.81416,651.26385 290.81416,649.21599 L290.81416,590.84779 C290.81416,588.79994 291.8376,587.77552 293.88545,587.77552 C313.34155,588.79993 332.79755,587.77552 352.25365,580.60755 C368.63845,574.464 380.92555,564.22375 385.02225,546.81555 C392.19022,516.09585 377.85428,483.32825 340.99005,475.13585 C319.48615,470.01573 299.00565,473.088 280.57405,487.42395 C267.26155,497.66415 260.09355,513.02355 257.02225,529.40835 C255.99784,536.57632 254.9744,543.74425 254.9744,550.91225 C254.9744,552.9601 254.9744,552.9601 252.92557,552.9601 L172.03007,552.9601 C171.00566,552.9601 169.98222,552.9601 169.98222,550.91225 C173.05351,496.63975 192.50952,451.58415 239.61402,420.86325 C259.07012,408.57615 280.57402,401.40815 304.12572,399.35935 C342.01442,395.26365 378.87772,402.43162 411.64672,420.86325 C436.22292,435.20015 455.67792,453.63185 465.91822,481.27925 C479.23072,516.09565 477.18282,548.86325 456.7024,580.60735 C446.4622,596.99215 431.1028,607.23135 413.6946,612.35145 C412.67019,612.35145 410.62233,612.35145 411.64675,614.3993 C411.64675,615.42371 413.6946,615.42371 414.71804,615.42371 C453.63014,624.63953 483.32644,656.38371 489.47004,695.29581 C499.71024,757.75971 471.03844,813.05581 415.74254,841.72781 L415.742,841.728 Z M500.734,278.528 L444.4137,278.528 C442.36585,278.528 441.34143,279.55241 440.318,281.60027 C436.2223,293.88837 432.12562,305.15207 428.0299,317.44007 C428.0299,318.46448 427.00549,319.48792 424.95763,319.48792 L399.35803,319.48792 C404.47815,306.17642 409.59823,292.86392 414.71743,279.55242 C429.05333,242.68812 443.39033,204.80042 457.72623,167.93642 C458.74967,165.88857 459.77408,164.86415 461.82193,164.86415 L484.35023,164.86415 C486.39808,164.86415 487.42152,164.86415 488.44593,166.91298 C507.90203,217.08878 526.33363,267.26498 545.78973,316.41698 C545.78973,317.44042 545.78973,317.44042 546.81414,318.46483 L519.16574,318.46483 C517.11789,318.46483 517.11789,317.44042 517.11789,315.39256 C513.02219,303.10446 508.92551,291.84076 504.82979,279.55276 C504.82979,278.52835 503.80635,278.52835 500.73409,278.52835 L500.734,278.528 Z M845.822,851.968 C845.822,855.04027 844.79759,855.04027 842.74973,855.04027 L521.21373,855.04027 C519.16588,855.04027 518.14244,855.04027 518.14244,851.968 C519.16588,808.9602 531.45394,771.0715 558.07794,737.28 C574.46174,717.8249 592.89434,701.4402 613.37384,686.0808 C637.95004,667.6482 663.54964,651.2644 689.15024,633.8562 C703.48614,624.64038 716.79774,614.4001 729.08574,601.0886 C740.35034,588.8005 749.56624,573.4402 751.61404,557.0564 C754.68631,533.5046 750.58963,510.9763 732.15794,493.5681 C720.89424,482.3044 706.55834,477.1843 690.17354,476.1609 C659.45384,475.13649 637.94994,488.448 625.66184,518.1443 C617.46946,536.5769 614.39814,556.032 614.39814,575.4881 C614.39814,578.56037 613.37373,579.58478 610.30146,579.58478 L530.43036,579.58478 C529.40595,579.58478 527.35809,580.60822 527.35809,577.53693 C526.33368,541.69613 532.47821,506.88073 550.90989,475.13693 C573.43819,435.20143 608.25369,410.62523 654.33389,402.43283 C689.15029,396.28928 723.96569,398.33713 756.73389,411.64865 C796.66939,428.03245 825.34129,454.65645 837.62939,496.64085 C852.98979,551.93675 841.72607,601.08885 801.78959,643.07285 C785.40579,659.45765 765.94979,672.76915 746.49369,686.08165 C724.98979,700.41755 703.48589,712.70565 684.02979,728.06505 C666.62159,741.37755 651.26119,755.71345 637.94969,773.12165 C636.92528,774.14509 636.92528,775.1695 635.90184,776.19294 L639.99754,776.19294 L842.74954,776.19294 C845.82181,776.19294 846.84622,777.21735 846.84622,780.28962 C845.82181,803.84142 845.82181,828.41752 845.82181,851.96932 L845.822,851.968 Z M461.822,224.2561 C457.7263,234.4963 454.65403,244.7356 450.5583,254.9758 C449.53389,256.00021 449.53389,257.02365 451.58174,257.02365 L496.63834,257.02365 C488.44596,234.49635 481.27794,211.96795 473.08564,190.46405 C468.98994,201.72775 464.89423,212.99235 461.82194,224.25605 L461.822,224.2561 Z"></path>
  </g>
</svg>