<?xml version="1.0" encoding="UTF-8"?>
<svg width="1025px" height="931px" viewBox="0 0 1025 931" version="1.1" xmlns="http://www.w3.org/2000/svg" xmlns:xlink="http://www.w3.org/1999/xlink">
  <g id="StarCraft" transform="translate(0.1315, 0.0926)" fill="currentColor" fill-rule="nonzero">
    <path d="M306,728 C304,780 304,722 304,736 L304,738 C324,794 394,880 480,928 C482,928 482,930 484,930 C484,930 486,930 486,928 C488,928 490,926 490,924 L490,730 C480,736 306,728 306,728 Z M534,706 L534,924 C534,926 534,928 536,928 C538,928 538,930 540,930 C540,930 542,930 542,928 C630,880 696,804 716,748 C716,748 650,752 564,672 C548,700 546,698 534,706 Z M486,66 L316,0 L312,0 L136,32 C134,32 132,34 132,36 C132,40 132,42 134,42 C134,42 162,54 194,70 C226,88 262,112 274,134 C280,144 276,134 280,150 L488,148 L488,70 C488,68 488,66 486,66 Z M890,32 L714,0 L710,0 L536,66 C534,66 534,68 534,70 L534,158 L556,184 C562,178 578,146 614,146 L746,146 C784,92 892,44 892,44 C894,42 894,40 894,38 C894,34 892,32 890,32 Z M78,280 L362,280 L400,316 L404,316 C404,316 406,316 408,314 L506,204 C508,202 508,200 508,198 C506,196 504,196 502,196 L136,196 C120,196 106,198 94,208 C80,218 74,234 74,262 L74,274 C74,276 76,280 78,280 Z M1018,200 L610,200 L538,270 C536,272 536,274 536,276 C538,278 540,280 542,280 L866,280 L882,302 C884,304 886,304 886,304 L890,304 L1022,210 C1024,208 1026,204 1024,202 C1022,200 1020,200 1018,200 Z M884,630 C874,632 862,632 850,632 C762,632 678,562 670,460 C668,440 668,442 668,426 C668,382 672,348 674,330 L674,326 C672,324 672,324 670,324 L526,324 C524,324 522,324 522,328 C514,348 502,388 502,442 C502,474 506,488 518,526 C546,612 650,694 732,694 C858,694 888,650 888,636 C888,634 888,632 886,632 C886,630 886,628 884,630 Z M278,326 L274,324 L110,324 C108,324 106,326 104,328 C104,330 104,332 106,334 C106,334 326,588 332,596 L332,598 L330,600 L200,600 C176,600 158,590 148,582 C138,574 134,566 134,566 L130,562 C126,562 126,562 124,564 L4,676 C0,680 0,682 0,684 C2,686 4,686 6,686 L460,686 C486,686 504,658 504,630 C504,620 500,610 494,602 C478,580 278,328 278,326 Z M386,374 C390,376 392,376 396,376 L398,376 C414,374 428,368 440,356 L452,342 C444,372 440,406 440,440 L440,446 C422,424 404,398 386,374 Z"></path>
  </g>
</svg>