<?xml version="1.0" standalone="no"?>
<!DOCTYPE svg PUBLIC "-//W3C//DTD SVG 1.1//EN" "http://www.w3.org/Graphics/SVG/1.1/DTD/svg11.dtd" >
<svg xmlns="http://www.w3.org/2000/svg" xmlns:xlink="http://www.w3.org/1999/xlink" version="1.1" viewBox="-10 0 1046 1024">
   <path fill="currentColor"
d="M316 485c0 0 2 -58 14 -76s26 -32 44 -42c18 -8 30 -12 44 -20l8 -4c12 -8 34 -22 36 -36v-22c0 -6 -4 -22 -6 -26c-6 -12 -14 -4 -18 -20c0 -4 -2 -26 0 -28c0 -4 4 -6 4 -6v-18c0 -4 0 -28 10 -42c12 -14 16 -24 58 -24c40 2 46 14 54 24c8 14 10 40 10 58
c0 4 4 -4 4 8c2 6 0 20 0 28c-2 16 -12 6 -18 22c-2 8 -2 18 0 30c0 12 0 16 8 26c6 10 16 18 34 26h2c20 8 38 14 54 26s20 16 26 28c4 12 8 42 8 52c2 12 4 26 4 26s4 -24 18 -34c14 -12 16 -14 34 -22c16 -8 14 -4 32 -14s24 -14 28 -20s6 -16 2 -22s-4 -14 -12 -18
c-10 -8 -8 -22 -14 -26s-10 -6 -10 -12c-2 -8 -4 -16 -2 -32c2 -14 2 -8 4 -14s4 -22 6 -30c4 -6 6 -16 12 -22s20 -22 50 -26c18 -2 30 0 44 4c16 6 34 28 38 40s4 18 4 28v16c0 4 4 8 -2 38c-4 10 -4 14 -14 22c-6 4 -8 14 -14 18c-8 6 -6 16 -4 26s8 10 18 16
s60 28 74 48c12 20 30 30 34 88c4 20 2 24 2 46s2 26 2 46h-330s-6 -66 -12 -56c-8 10 -18 58 -18 58h-326s-10 -48 -14 -58c-4 -6 -8 58 -8 58h-318s2 -26 4 -40c2 -22 2 -48 8 -68c6 -22 6 -32 18 -44c14 -10 22 -18 32 -24c18 -8 44 -28 26 -76c-14 -32 2 -80 20 -108
c18 -26 26 -48 64 -48s66 42 74 70c6 30 10 66 2 92c-10 30 0 46 42 68c16 8 22 34 26 42z" />
</svg>
