<?xml version="1.0" encoding="UTF-8"?>
<svg width="1027px" height="501px" viewBox="0 0 1027 501" version="1.1" xmlns="http://www.w3.org/2000/svg" xmlns:xlink="http://www.w3.org/1999/xlink">
  <g id="StayFriends" transform="translate(0.96, 0.0926)" fill="currentColor" fill-rule="nonzero">
    <path d="M316,364 C316,364 318,306 330,288 C342,270 356,256 374,246 C392,238 404,234 418,226 L426,222 C438,214 460,200 462,186 L462,164 C462,158 458,142 456,138 C450,126 442,134 438,118 C438,114 436,92 438,90 C438,86 442,84 442,84 L442,66 C442,62 442,38 452,24 C464,10 468,0 510,0 C550,2 556,14 564,24 C572,38 574,64 574,82 C574,86 578,78 578,90 C580,96 578,110 578,118 C576,134 566,124 560,140 C558,148 558,158 560,170 C560,182 560,186 568,196 C574,206 584,214 602,222 L604,222 C624,230 642,236 658,248 C674,260 678,264 684,276 C688,288 692,318 692,328 C694,340 696,354 696,354 C696,354 700,330 714,320 C728,308 730,306 748,298 C764,290 762,294 780,284 C798,274 804,270 808,264 C812,258 814,248 810,242 C806,236 806,228 798,224 C788,216 790,202 784,198 C778,194 774,192 774,186 C772,178 770,170 772,154 C774,140 774,146 776,140 C778,134 780,118 782,110 C786,104 788,94 794,88 C800,82 814,66 844,62 C862,60 874,62 888,66 C904,72 922,94 926,106 C930,118 930,124 930,134 L930,150 C930,154 934,158 928,188 C924,198 924,202 914,210 C908,214 906,224 900,228 C892,234 894,244 896,254 C898,264 904,264 914,270 C924,276 974,298 988,318 C1000,338 1018,348 1022,406 C1026,426 1024,430 1024,452 C1024,474 1026,478 1026,498 L696,498 C696,498 690,432 684,442 C676,452 666,500 666,500 L340,500 C340,500 330,452 326,442 C322,436 318,500 318,500 L0,500 C0,500 2,474 4,460 C6,438 6,412 12,392 C18,370 18,360 30,348 C44,338 52,330 62,324 C80,316 106,296 88,248 C74,216 90,168 108,140 C126,114 134,92 172,92 C210,92 238,134 246,162 C252,192 256,228 248,254 C238,284 248,300 290,322 C306,330 312,356 316,364 Z"></path>
  </g>
</svg>