<?xml version="1.0" encoding="UTF-8"?>
<svg width="1023px" height="949px" viewBox="0 0 1023 949" version="1.1" xmlns="http://www.w3.org/2000/svg" xmlns:xlink="http://www.w3.org/1999/xlink">
  <g id="Steam" transform="translate(0.3341, 0.0926)" fill="currentColor" fill-rule="nonzero">
    <path d="M892,280 C892,364 824,430 742,430 C658,430 590,364 590,280 C590,198 658,130 742,130 C824,130 892,198 892,280 Z M0,760 L58,782 C78,876 162,948 262,948 C372,948 460,864 472,758 L740,562 C896,562 1022,436 1022,282 C1022,126 896,0 740,0 C586,0 460,124 460,278 L284,530 C278,528 270,528 262,528 C224,528 186,538 156,558 L0,494 L0,760 Z M740,92 C844,92 928,178 928,282 C928,386 844,470 740,470 C636,470 552,386 552,282 C552,178 636,92 740,92 Z M262,584 C348,584 416,652 416,738 C416,824 348,892 262,892 C204,892 152,860 126,810 C152,820 176,830 202,840 C264,866 336,836 362,772 C388,710 356,638 294,614 L230,588 C240,586 252,584 262,584 Z"></path>
  </g>
</svg>