<?xml version="1.0" standalone="no"?>
<!DOCTYPE svg PUBLIC "-//W3C//DTD SVG 1.1//EN" "http://www.w3.org/Graphics/SVG/1.1/DTD/svg11.dtd" >
<svg xmlns="http://www.w3.org/2000/svg" xmlns:xlink="http://www.w3.org/1999/xlink" version="1.1" viewBox="-10 0 1042 1024">
   <path fill="currentColor"
d="M892 177c0 84 -68 150 -150 150c-84 0 -152 -66 -152 -150c0 -82 68 -150 152 -150c82 0 150 68 150 150zM0 657l58 22c20 94 104 166 204 166c110 0 198 -84 210 -190l268 -196c156 0 282 -126 282 -280c0 -156 -126 -282 -282 -282c-154 0 -280 124 -280 278l-176 252
c-6 -2 -14 -2 -22 -2c-38 0 -76 10 -106 30l-156 -64v266zM740 -11c104 0 188 86 188 190s-84 188 -188 188s-188 -84 -188 -188s84 -190 188 -190zM262 481c86 0 154 68 154 154s-68 154 -154 154c-58 0 -110 -32 -136 -82c26 10 50 20 76 30c62 26 134 -4 160 -68
c26 -62 -6 -134 -68 -158l-64 -26c10 -2 22 -4 32 -4z" />
</svg>
