<?xml version="1.0" encoding="UTF-8"?>
<svg width="1026px" height="435px" viewBox="0 0 1026 435" version="1.1" xmlns="http://www.w3.org/2000/svg" xmlns:xlink="http://www.w3.org/1999/xlink">
  <g id="Stitcher" transform="translate(0, 0.6137)" fill="currentColor" fill-rule="nonzero">
    <path d="M-5.68434189e-14,81.92 L188.416,81.92 L188.416,417.792 L-5.68434189e-14,417.792 L-5.68434189e-14,81.92 L-5.68434189e-14,81.92 Z M208.89588,24.576 L397.31188,24.576 L397.31188,394.24 L208.89588,394.24 L208.89588,24.576 Z M418.81588,54.272 L607.23188,54.272 L607.23188,434.175 L418.81588,434.175 L418.81588,54.272 Z M627.71188,-2.84217094e-14 L816.12788,-2.84217094e-14 L816.12788,393.216 L627.71188,393.216 L627.71188,-2.84217094e-14 L627.71188,-2.84217094e-14 Z M836.60788,69.632 L1025.02388,69.632 L1025.02388,365.569 L836.60788,365.569 L836.60788,69.632 Z"></path>
  </g>
</svg>