<?xml version="1.0" encoding="UTF-8"?>
<svg width="375px" height="375px" viewBox="0 0 375 375" version="1.1" xmlns="http://www.w3.org/2000/svg" xmlns:xlink="http://www.w3.org/1999/xlink">
    <g id="StoryGraph" stroke="none" stroke-width="1" fill="none" fill-rule="evenodd">
        <path d="M31,36.9492611 L88,36.9492611 C92.9705627,36.9492611 97,40.9786984 97,45.9492611 L97,295.949261 C97,300.919824 92.9705627,304.949261 88,304.949261 L31,304.949261 C26.0294373,304.949261 22,300.919824 22,295.949261 L22,45.9492611 C22,40.9786984 26.0294373,36.9492611 31,36.9492611 Z M27,317.949261 L348,317.949261 C350.761424,317.949261 353,320.187837 353,322.949261 L353,339.949261 C353,342.710685 350.761424,344.949261 348,344.949261 L27,344.949261 C24.2385763,344.949261 22,342.710685 22,339.949261 L22,322.949261 C22,320.187837 24.2385763,317.949261 27,317.949261 Z M127,36.9492611 L184,36.9492611 C188.970563,36.9492611 193,40.9786984 193,45.9492611 L193,295.949261 C193,300.919824 188.970563,304.949261 184,304.949261 L127,304.949261 C122.029437,304.949261 118,300.919824 118,295.949261 L118,45.9492611 C118,40.9786984 122.029437,36.9492611 127,36.9492611 Z M216.115581,47.561854 L270.768306,31.3729793 C275.53418,29.9612633 280.542106,32.6803452 281.953822,37.4462189 L352.957658,277.151153 C354.369374,281.917026 351.650292,286.924952 346.884419,288.336668 L292.231694,304.525543 C287.46582,305.937259 282.457894,303.218177 281.046178,298.452303 L210.042342,58.7473697 C208.630626,53.9814961 211.349708,48.9735701 216.115581,47.561854 Z" id="Shape" fill="currentColor"></path>
    </g>
</svg>