<?xml version="1.0" standalone="no"?>
<!DOCTYPE svg PUBLIC "-//W3C//DTD SVG 1.1//EN" "http://www.w3.org/Graphics/SVG/1.1/DTD/svg11.dtd" >
<svg xmlns="http://www.w3.org/2000/svg" xmlns:xlink="http://www.w3.org/1999/xlink" version="1.1" viewBox="-10 0 1034 1024">
   <path fill="currentColor"
d="M554.316 739.477c33.8154 0.116211 51.751 -0.691406 62.4639 -2.81348c8.26465 -1.63672 22.4004 -5.77344 31.4121 -9.19043c9.01074 -3.41699 23.7568 -10.0518 32.7676 -14.7441c9.01074 -4.69141 24.3662 -13.4629 34.1221 -19.4922
c9.75586 -6.03027 26.3438 -18.6504 36.8643 -28.0449c10.5195 -9.39551 26.0381 -24.3682 34.4854 -33.2734c8.44824 -8.90527 20.9004 -23.0996 27.6709 -31.5459c6.77148 -8.44629 17.0547 -21.8066 22.8516 -29.6924c5.79688 -7.88477 14.2588 -21.248 18.8047 -29.6953
c4.5459 -8.44824 12.8604 -29.2715 18.4775 -46.2734c5.61621 -17.002 12.6816 -43.9531 15.6992 -59.8906c3.01855 -15.9385 4.97461 -30.3164 4.34766 -31.9502s-4.49414 -3.60156 -8.59375 -4.37012c-5.19141 -0.973633 -8.2666 -0.541992 -10.1318 1.42285
c-1.47266 1.55176 -5.59375 16.4326 -9.15723 33.0674c-3.56445 16.6348 -9.72754 40.5967 -13.6973 53.248c-3.96973 12.6504 -11.8389 31.7568 -17.4883 42.458c-5.64844 10.7012 -15.9043 26.8291 -22.7891 35.8398s-18.6904 23.8301 -26.2344 32.9307
c-7.54395 9.10156 -23.71 26.0107 -35.9238 37.5771c-12.2129 11.5674 -30.0391 26.3018 -39.6123 32.7441c-9.57422 6.44238 -25.2422 15.9492 -34.8164 21.125s-24.5723 12.2549 -33.3281 15.7295c-8.75586 3.47559 -23.8525 7.70312 -33.5479 9.39355
c-11.3643 1.98145 -30.9902 3.07422 -55.2295 3.07422c-32.8857 0 -40.749 -0.676758 -62.6914 -5.38867c-18.6689 -4.00879 -32.6924 -8.75488 -54.8018 -18.5439c-16.3418 -7.23535 -38.9297 -18.2881 -50.1934 -24.5615
c-11.2637 -6.27441 -24.627 -14.2197 -29.6963 -17.6602c-5.06836 -3.43945 -18.4316 -12.7148 -29.6953 -20.6133c-11.2646 -7.89746 -32.9219 -24.6982 -48.1279 -37.333c-22.3086 -18.5361 -32.5938 -29.0312 -53.248 -54.3359
c-14.0801 -17.249 -30.4414 -36.9199 -36.3584 -43.7119s-13.751 -16.71 -17.4082 -22.04c-3.73047 -5.4375 -8.2666 -9.70703 -10.3359 -9.72754c-2.02637 -0.0205078 -6.49805 1.41797 -9.93555 3.19434c-4.72852 2.44531 -6.03906 4.33594 -5.38477 7.7627
c0.475586 2.49023 3.10352 7.77734 5.83984 11.748c2.73535 3.96973 11.4248 14.6592 19.3096 23.7549c7.88477 9.09473 19.4531 22.8584 25.7061 30.5879c6.25293 7.72852 17.1816 21.1641 24.2861 29.8574c7.10254 8.69434 17.1934 19.2363 22.4219 23.4287
c5.22949 4.19141 13.749 11.3623 18.9355 15.9365c5.18555 4.57422 15.3223 13.2002 22.5273 19.1699c7.20508 5.9707 22.9551 17.708 35.001 26.0859s33.7041 22.0342 48.1279 30.3496c14.4238 8.31445 37.9668 20.3076 52.3164 26.6523
c14.3496 6.3457 34.1641 13.9102 44.0322 16.8125c9.86719 2.90137 23.4717 6.51367 30.2295 8.02637c8.20312 1.83691 28.0576 2.80469 59.7246 2.91309zM388.716 405.412c9.38086 -0.604492 9.63477 -0.797852 10.2051 -7.78809
c0.322266 -3.94238 -0.820312 -17.8213 -2.53809 -30.8418c-1.71777 -13.0215 -5.44922 -32.374 -8.29102 -43.0078c-2.8418 -10.6348 -6.9248 -26.707 -9.07227 -35.7188c-2.14648 -9.01074 -7.7373 -26.2305 -12.4229 -38.2656
c-4.68457 -12.0352 -16.3535 -37.3633 -25.9287 -56.2852s-23.9141 -44.0957 -31.8623 -55.9414c-7.94727 -11.8477 -19.252 -27.9902 -25.1191 -35.875c-5.86621 -7.88574 -16.0537 -20.5576 -22.6377 -28.1602c-10.6641 -12.3154 -12.7793 -13.8242 -19.3818 -13.8242
c-4.07715 0 -9.16504 1.28125 -11.3066 2.84766c-3.22559 2.3584 -3.50879 3.67871 -1.65039 7.68066c1.23535 2.65723 8.40234 11.7432 15.9277 20.1914c7.52637 8.44824 23.1816 29.1846 34.7891 46.0801c13.2109 19.2305 27.832 44.125 39.0898 66.5605
c9.89258 19.7119 21.5596 45.0557 25.9287 56.3193c4.36914 11.2646 10.2549 28.7744 13.0801 38.9121c2.82422 10.1377 7.37109 29.0303 10.1025 41.9844c2.73242 12.9541 5.5498 29.542 6.2627 36.8633c0.712891 7.32227 2.17676 16.8174 3.25098 21.1006
c1.94922 7.76562 1.98242 7.78613 11.5752 7.16797h-0.000976562zM681.542 387.52c1.93262 -1.08984 6.17871 -4.16309 9.43555 -6.83105c5.92285 -4.85059 5.92285 -4.85059 1.61621 -18.0215c-2.36914 -7.24414 -6.58105 -23.3076 -9.36035 -35.6992
c-2.78027 -12.3906 -6.58008 -30.8213 -8.44629 -40.96c-1.86621 -10.1377 -5.16992 -24.6104 -7.34375 -32.1621c-2.1748 -7.55078 -5.33984 -21.6826 -7.03418 -31.4023c-1.69531 -9.7207 -6.37695 -27.9648 -10.4053 -40.542
c-4.02832 -12.5781 -11.5098 -34.3896 -16.627 -48.4697s-13.3105 -33.8936 -18.208 -44.0312c-4.89648 -10.1387 -13.5166 -26.7266 -19.1553 -36.8643c-6.97949 -12.5508 -14.0127 -21.8613 -22.0439 -29.1797c-6.48535 -5.91211 -13.4678 -10.75 -15.5137 -10.7529
c-2.0459 -0.00195312 -6.88477 2.41016 -10.752 5.35938c-3.86719 2.9502 -7.03125 7.14453 -7.03125 9.32031c0 2.51855 2.41992 4.98633 6.65625 6.78809c3.66113 1.55664 9.56055 5.42676 13.1113 8.59961c3.5498 3.17285 9.28027 11.499 12.7354 18.5029
c3.4541 7.00391 9.44141 17.6025 13.3027 23.5518c3.8623 5.9502 12.7666 25.1025 19.7861 42.5615c7.02051 17.459 14.4297 38.1953 16.4629 46.0801c2.03418 7.88477 5.66309 19.8662 8.0625 26.624c2.40039 6.75781 6.0791 20.582 8.1748 30.7197
s5.82227 28.5703 8.28027 40.96c2.45703 12.3896 9.08789 41.8818 14.7334 65.5361c5.64648 23.6543 11.5684 45.0967 13.1582 47.6514c2.23145 3.58301 3.69336 4.18945 6.40527 2.66016v0.000976562z" />
</svg>
