<?xml version="1.0" encoding="UTF-8"?>
<svg width="750px" height="728px" viewBox="0 0 750 728" version="1.1" xmlns="http://www.w3.org/2000/svg" xmlns:xlink="http://www.w3.org/1999/xlink">
  <g id="StrawPage" transform="translate(0.7945, 0.4253)" fill="currentColor" fill-rule="nonzero">
    <path d="M408.617095,726.872951 C442.432495,726.989162 460.368095,726.181545 471.080995,724.059471 C479.345645,722.422751 493.481395,718.286031 502.493095,714.869041 C511.503835,711.452051 526.249895,704.817241 535.260695,700.124941 C544.271435,695.433531 559.626895,686.662041 569.382795,680.632741 C579.138655,674.602471 595.726595,661.982341 606.247095,652.587841 C616.766595,643.192331 632.285195,628.219641 640.732495,619.314441 C649.180735,610.409171 661.632895,596.214841 668.403395,587.768541 C675.174875,579.322251 685.458095,565.961941 691.254995,558.076141 C697.051875,550.191371 705.513795,536.828141 710.059695,528.380841 C714.605595,519.932601 722.920095,499.109341 728.537195,482.107441 C734.153405,465.105441 741.218795,438.154341 744.236395,422.216841 C747.254945,406.278341 749.211005,391.900441 748.584055,390.266641 C747.957105,388.632841 744.089915,386.665081 739.990305,385.896521 C734.798895,384.922888 731.723705,385.354529 729.858505,387.319371 C728.385845,388.871131 724.264755,403.751971 720.701275,420.386771 C717.136825,437.021571 710.973735,460.983471 707.003975,473.634771 C703.034245,486.285171 695.165075,505.391571 689.515675,516.092771 C683.867235,526.793971 673.611375,542.921871 666.726575,551.932571 C659.841775,560.943271 648.036175,575.762671 640.492175,584.863271 C632.948225,593.964831 616.782175,610.873971 604.568375,622.440371 C592.355475,634.007771 574.529275,648.742171 564.956075,655.184471 C555.381855,661.626851 539.713875,671.133671 530.139675,676.309471 C520.565475,681.485271 505.567375,688.564371 496.811575,692.038971 C488.055715,695.514561 472.959075,699.742091 463.263675,701.432521 C451.899375,703.413971 432.273475,704.506741 408.034175,704.506741 C375.148475,704.506741 367.285175,703.829983 345.342775,699.118071 C326.673875,695.109281 312.650375,690.363191 290.540975,680.574171 C274.199175,673.338821 251.611275,662.286071 240.347575,656.012671 C229.083875,649.738261 215.720575,641.792971 210.651275,638.352471 C205.582915,634.913021 192.219675,625.637671 180.955975,617.739171 C169.691375,609.841711 148.034075,593.040971 132.828075,580.406171 C110.519475,561.870071 100.234275,551.374971 79.5800746,526.070271 C65.4999746,508.821271 49.1386746,489.150371 43.2216746,482.358371 C37.3046746,475.566371 29.4706746,465.648371 25.8134746,460.318371 C22.0830046,454.880871 17.5468746,450.611341 15.4775746,450.590831 C13.4512046,450.570323 8.97952456,452.008801 5.54202456,453.785171 C0.813504556,456.230481 -0.497035444,458.121111 0.157254556,461.547871 C0.632840556,464.038101 3.26077456,469.325211 5.99709456,473.295871 C8.73244456,477.265601 17.4218946,487.955071 25.3066946,497.050771 C33.1914646,506.145501 44.7597946,519.909171 51.0127946,527.638671 C57.2657246,535.367191 68.1943946,548.802771 75.2988946,557.496071 C82.4014346,566.190411 92.4922946,576.732371 97.7207946,580.924771 C102.950285,585.116181 111.469795,592.287071 116.656295,596.861271 C121.841845,601.435491 131.978595,610.061471 139.183595,616.031171 C146.388675,622.001871 162.138695,633.739171 174.184595,642.117071 C186.230495,650.494971 207.888695,664.151271 222.312495,672.466671 C236.736295,680.781121 260.279295,692.774271 274.628895,699.118971 C288.978495,705.464671 308.792995,713.029171 318.661095,715.931471 C328.528285,718.832841 342.132795,722.445141 348.890595,723.957841 C357.093715,725.794751 376.948195,726.762531 408.615195,726.870931 L408.617095,726.872951 Z M243.017095,392.807951 C252.397955,392.203459 252.651865,392.010099 253.222195,385.019861 C253.544461,381.077481 252.401883,367.198561 250.684105,354.178061 C248.966335,341.156561 245.234885,321.804061 242.393085,311.170261 C239.551285,300.535461 235.468285,284.463261 233.320815,275.451461 C231.174335,266.440721 225.583515,249.220961 220.897915,237.185861 C216.213345,225.150661 204.544415,199.822561 194.969215,180.900661 C185.394015,161.978761 171.055115,136.804961 163.106915,124.959261 C155.159645,113.111561 143.854915,96.9690612 137.987815,89.0842612 C132.121605,81.1985212 121.934115,68.5266612 115.350115,60.9240612 C104.686015,48.6086612 102.570815,47.0998612 95.9683146,47.0998612 C91.8911646,47.0998612 86.8032746,48.3811112 84.6617146,49.9475212 C81.4361246,52.3059212 81.1529246,53.6262312 83.0113246,57.6281812 C84.2466746,60.2854112 91.4136646,69.3713812 98.9390246,77.8195812 C106.465395,86.2678212 122.120625,107.004181 133.728125,123.899681 C146.939025,143.130181 161.560125,168.024681 172.817925,190.460181 C182.710505,210.172081 194.377525,235.515881 198.746625,246.779481 C203.115765,258.044081 209.001525,275.553881 211.826725,285.691581 C214.650945,295.829281 219.197815,314.721881 221.929225,327.675981 C224.661645,340.630081 227.479025,357.217981 228.191925,364.539281 C228.904816,371.861551 230.368685,381.356681 231.442905,385.639881 C233.392125,393.405501 233.425325,393.426011 243.018105,392.807851 L243.017128,392.807851 L243.017095,392.807951 Z M535.843095,374.915951 C537.775715,373.826111 542.021805,370.752861 545.278645,368.084901 C551.201495,363.234311 551.201495,363.234311 546.894855,350.063401 C544.525715,342.819261 540.313805,326.755801 537.534505,314.364201 C534.754235,301.973601 530.954425,283.542901 529.088215,273.404201 C527.222005,263.266501 523.918295,248.793801 521.744465,241.242101 C519.569665,233.691321 516.404625,219.559501 514.710285,209.839801 C513.014975,200.119101 508.333335,181.875001 504.304985,169.297801 C500.276665,156.719701 492.795185,134.908201 487.677985,120.828101 C482.560785,106.748001 474.367485,86.9345012 469.469985,76.7969012 C464.573505,66.6582012 455.953385,50.0703012 450.314685,39.9326012 C443.335195,27.3818012 436.301985,18.0713012 428.270785,10.7529012 C421.785435,4.84079119 414.802985,0 412.757085,0 C410.711185,0 405.872315,2.41016119 402.005085,5.35938119 C398.137895,8.30958119 394.973835,12.5039112 394.973835,14.6796912 C394.973835,17.1982412 397.393755,19.6660212 401.630085,21.4677812 C405.291215,23.0244212 411.190635,26.8945412 414.741385,30.0673912 C418.291185,33.2402412 424.021655,41.5663912 427.476785,48.5702912 C430.930885,55.5742012 436.918195,66.1727912 440.779485,72.1220912 C444.641785,78.0722912 453.546085,97.2245912 460.565585,114.683591 C467.586095,132.142591 474.995285,152.878891 477.028485,160.763691 C479.062665,168.648461 482.691575,180.629891 485.090985,187.387691 C487.491375,194.145501 491.170085,207.969691 493.265785,218.107391 C495.361485,228.245091 499.088055,246.677691 501.546055,259.067391 C504.003085,271.456991 510.633945,300.949191 516.279455,324.603491 C521.925935,348.257791 527.847855,369.700191 529.437655,372.254891 C531.669105,375.837901 533.131015,376.444341 535.842925,374.915051 L535.842925,374.916028 L535.843095,374.915951 Z"></path>
  </g>
</svg>