<?xml version="1.0" encoding="UTF-8"?>
<svg width="791px" height="1023px" viewBox="0 0 791 1023" version="1.1" xmlns="http://www.w3.org/2000/svg" xmlns:xlink="http://www.w3.org/1999/xlink">
  <g id="StreamJar" transform="translate(0.5942, 0.4253)" fill="currentColor" fill-rule="nonzero">
    <path d="M714.969263,117.5 C640.969263,133.5 522.969263,143.5 388.969263,143.5 C254.969263,143.5 134.969263,133.5 62.9692629,117.5 C16.9692629,127.5 -5.0307371,129.5 0.969262897,153.5 C8.9692629,185.5 166.969263,215.5 388.969263,215.5 C610.969263,215.5 780.969263,185.5 788.969263,153.5 C794.969263,129.5 760.969263,127.5 714.969263,117.5 Z M716.969263,105.5 C574.969263,125.5 460.969263,129.5 382.969263,129.5 C330.969263,129.5 278.969263,129.5 208.969263,121.5 C152.969263,115.5 66.9692629,103.5 66.9692629,103.5 C68.9692629,75.5 70.9692629,39.5 106.969263,17.5 C126.969263,5.5 154.969263,1.5 164.969263,1.5 C222.969263,-0.5 566.969263,-0.5 626.969263,1.5 C634.969263,1.5 664.969263,5.5 682.969263,17.5 C720.969263,39.5 720.969263,75.5 724.969263,103.5 C724.969263,103.5 638.969263,115.5 580.969263,121.5 C510.969263,129.5 458.969263,129.5 408.969263,129.5 C330.969263,129.5 214.969263,125.5 74.9692629,105.5 L716.969263,105.5 Z M744.969263,267.5 C740.969263,267.5 734.969263,267.5 726.969263,265.5 C726.969263,265.5 672.969263,259.5 616.969263,285.5 C612.969263,287.5 606.969263,289.5 602.969263,293.5 C602.969263,293.5 594.969263,301.5 588.969263,311.5 C584.969263,319.5 532.969263,533.5 514.969263,563.5 C496.969263,593.5 456.969263,663.5 410.969263,703.5 C342.969263,757.5 240.969263,801.5 192.969263,807.5 C168.969263,811.5 144.969263,815.5 118.969263,817.5 C110.969263,817.5 90.9692629,817.5 66.9692629,823.5 C60.9692629,823.5 48.9692629,841.5 46.9692629,849.5 C44.9692629,857.5 42.9692629,883.5 48.9692629,917.5 C52.9692629,941.5 58.9692629,969.5 80.9692629,993.5 C104.969263,1013.5 130.969263,1019.5 146.969263,1019.5 C152.969263,1021.5 158.969263,1023.5 168.969263,1021.5 L640.969263,1021.5 C698.969263,1021.5 744.969263,975.5 744.969263,919.5 L744.969263,267.5 Z"></path>
  </g>
</svg>