<?xml version="1.0" encoding="UTF-8"?>
<svg width="952px" height="828px" viewBox="0 0 952 828" version="1.1" xmlns="http://www.w3.org/2000/svg" xmlns:xlink="http://www.w3.org/1999/xlink">
  <g id="StrudelCafe" transform="translate(0.788, 0.6614)" fill="currentColor" fill-rule="nonzero">
    <path d="M377.987072,0 C377.605236,0.518733 377.003674,1.367365 376.208752,2.568535 C374.952892,4.467945 373.535902,6.712085 372.061292,9.244315 C367.919692,16.361505 363.803482,24.597815 359.974392,33.931815 C350.511502,56.997215 344.341592,82.840015 342.909892,111.037315 C342.104228,126.899615 342.947978,143.066615 345.359112,159.464115 C342.726302,160.35767 340.166732,161.481695 337.814192,163.058845 L14.1061924,380.154845 C4.12963242,386.845275 -1.23460758,398.569845 0.24189242,410.491745 L48.3531924,799.295745 C50.5475324,817.016445 66.9068924,829.493045 84.5758924,826.907045 L923.212892,704.178045 C939.875992,701.740545 951.747092,686.750345 950.309592,669.970045 L920.052792,316.480045 C918.885802,302.857045 909.163192,291.471245 895.877992,288.236845 L397.617992,166.969845 C400.288892,180.500145 404.326002,194.248145 409.625792,208.169045 C414.127742,206.960065 418.803522,206.115335 423.687292,206.115335 C453.692192,206.115335 478.001792,230.463035 478.001792,260.466935 C478.001792,290.470835 453.692192,314.781435 423.687292,314.781435 C393.683392,314.781435 369.334792,290.471835 369.334792,260.466935 C369.334792,244.578235 376.276202,230.387835 387.149292,220.453235 C377.474492,195.969835 371.692292,171.857535 369.295792,148.286235 C368.920792,144.596785 368.555558,140.926855 368.34755,137.264735 C367.807511,128.864345 367.732316,120.554735 368.149308,112.339935 C368.16298,112.097747 368.215715,111.871185 368.22841,111.628997 C368.239152,111.432708 368.218644,111.233489 368.22841,111.0372 C368.526262,105.18368 369.196183,99.5001 369.88759,93.8546 C372.53212,72.2989 377.79482,52.2101 385.29379,33.9317 C388.52231,26.05768 391.96371,19.1368 395.44519,12.8379 L377.98619,0 L377.987072,0 Z M861.948072,340.694155 C865.006662,340.369936 867.709792,342.649235 867.992022,345.710755 L880.394322,480.645755 L72.2913224,581.173755 L52.9749224,432.177755 C52.5784384,429.109395 54.7952324,426.341815 57.8733624,426.014665 L196.323362,411.321265 C209.255962,416.605445 221.298962,427.515565 226.895662,449.004865 C228.129062,453.736315 228.793122,458.990215 229.582182,464.765565 C232.118312,483.329065 229.19058,513.310465 262.328282,508.018465 C295.465982,502.725495 289.702282,458.919865 289.702282,458.918865 C289.702282,458.917865 279.143682,413.802665 324.146582,397.773365 L462.437582,383.078065 C479.398482,389.172795 500.008882,403.576065 514.065482,437.076065 C532.717782,481.528165 542.545982,505.367065 579.517582,497.787965 C606.082982,492.341675 620.731482,484.036965 625.536182,430.913965 C628.183642,401.637565 623.225632,374.956965 654.963882,362.657165 L861.948072,340.694155 Z M887.821072,561.068155 L896.787872,658.515455 C897.056427,661.448075 894.963652,664.074045 892.047642,664.481275 L102.943642,774.490275 C99.9084824,774.913127 97.0969624,772.751015 96.7034124,769.710005 L82.6809124,661.518005 L887.821072,561.068155 Z"></path>
  </g>
</svg>