<?xml version="1.0" standalone="no"?>
<!DOCTYPE svg PUBLIC "-//W3C//DTD SVG 1.1//EN" "http://www.w3.org/Graphics/SVG/1.1/DTD/svg11.dtd" >
<svg xmlns="http://www.w3.org/2000/svg" xmlns:xlink="http://www.w3.org/1999/xlink" version="1.1" viewBox="-10 0 1034 1024">
   <path fill="currentColor"
d="M414.772 -42.623c-0.381836 0.517578 -0.983398 1.36621 -1.77832 2.56738c-1.25586 1.89941 -2.67285 4.14355 -4.14746 6.67578c-4.1416 7.11719 -8.25781 15.3535 -12.0869 24.6875c-9.46289 23.0654 -15.6328 48.9082 -17.0645 77.1055
c-0.805664 15.8623 0.0380859 32.0293 2.44922 48.4268c-2.63281 0.893555 -5.19238 2.01758 -7.54492 3.59473l-323.708 217.096c-9.97656 6.69043 -15.3408 18.415 -13.8643 30.3369l48.1113 388.804c2.19434 17.7207 18.5537 30.1973 36.2227 27.6113l838.637 -122.729
c16.6631 -2.4375 28.5342 -17.4277 27.0967 -34.208l-30.2568 -353.49c-1.16699 -13.623 -10.8896 -25.0088 -24.1748 -28.2432l-498.26 -121.267c2.6709 13.5303 6.70801 27.2783 12.0078 41.1992c4.50195 -1.20898 9.17773 -2.05371 14.0615 -2.05371
c30.0049 0 54.3145 24.3477 54.3145 54.3516s-24.3096 54.3145 -54.3145 54.3145c-30.0039 0 -54.3525 -24.3096 -54.3525 -54.3145c0 -15.8887 6.94141 -30.0791 17.8145 -40.0137c-9.6748 -24.4834 -15.457 -48.5957 -17.8535 -72.167
c-0.375 -3.68945 -0.740234 -7.35938 -0.948242 -11.0215c-0.540039 -8.40039 -0.615234 -16.71 -0.198242 -24.9248c0.0136719 -0.242188 0.0664062 -0.46875 0.0791016 -0.710938c0.0107422 -0.196289 -0.00976562 -0.395508 0 -0.591797
c0.297852 -5.85352 0.967773 -11.5371 1.65918 -17.1826c2.64453 -21.5557 7.90723 -41.6445 15.4062 -59.9229c3.22852 -7.87402 6.66992 -14.7949 10.1514 -21.0938l-17.459 -12.8379zM898.733 298.07c3.05859 -0.324219 5.76172 1.95508 6.04395 5.0166l12.4023 134.935
l-808.103 100.528l-19.3164 -148.996c-0.396484 -3.06836 1.82031 -5.83594 4.89844 -6.16309l138.45 -14.6934c12.9326 5.28418 24.9756 16.1943 30.5723 37.6836c1.2334 4.73145 1.89746 9.98535 2.68652 15.7607c2.53613 18.5635 -0.391602 48.5449 32.7461 43.2529
c33.1377 -5.29297 27.374 -49.0986 27.374 -49.0996s-10.5586 -45.1162 34.4443 -61.1455l138.291 -14.6953c16.9609 6.09473 37.5713 20.498 51.6279 53.998c18.6523 44.4521 28.4805 68.291 65.4521 60.7119c26.5654 -5.44629 41.2139 -13.751 46.0186 -66.874
c2.64746 -29.2764 -2.31055 -55.957 29.4277 -68.2568zM924.606 518.444l8.9668 97.4473c0.268555 2.93262 -1.82422 5.55859 -4.74023 5.96582l-789.104 110.009c-3.03516 0.422852 -5.84668 -1.73926 -6.24023 -4.78027l-14.0225 -108.192z" />
</svg>
