<?xml version="1.0" standalone="no"?>
<!DOCTYPE svg PUBLIC "-//W3C//DTD SVG 1.1//EN" "http://www.w3.org/Graphics/SVG/1.1/DTD/svg11.dtd" >
<svg xmlns="http://www.w3.org/2000/svg" xmlns:xlink="http://www.w3.org/1999/xlink" version="1.1" viewBox="-10 0 1044 1024">
   <path fill="currentColor"
d="M512 155c-30 0 -54 24 -54 54v328c-2 124 -104 226 -230 226s-228 -104 -228 -230v-142h176v140c0 30 24 54 54 54s54 -24 54 -54v-330c4 -122 104 -220 228 -220s224 98 228 220v74l-104 30l-70 -32v-64c0 -30 -24 -54 -54 -54zM1024 533c0 126 -102 230 -228 230
s-228 -102 -230 -228v-142l70 32l104 -32v144c0 30 24 54 54 54s54 -24 54 -54v-146h176v142z" />
</svg>
