<?xml version="1.0" encoding="UTF-8"?>
<svg width="799px" height="785px" viewBox="0 0 799 785" version="1.1" xmlns="http://www.w3.org/2000/svg" xmlns:xlink="http://www.w3.org/1999/xlink">
  <g id="Subeta" transform="translate(0.9197, 0.4253)" fill="currentColor" fill-rule="nonzero">
    <path d="M798.062401,6.00159401 C796.965221,24.390294 786.398771,50.398094 758.870471,74.733994 C722.282571,107.077794 663.050171,134.444894 576.344471,154.860994 L555.845471,159.448884 C445.585471,182.884384 331.594471,220.462584 262.333471,257.584584 C228.177271,275.891184 207.159671,293.056284 202.111771,304.130484 C200.956501,306.663684 201.895951,308.415644 219.987771,317.825784 C223.888161,319.854104 228.269021,321.886334 233.125471,323.917584 L249.998471,330.401964 C268.030671,336.937124 284.446671,341.665664 317.356871,349.121664 L467.643871,381.107964 C557.091171,400.786664 608.169871,416.721264 648.530871,440.438064 C720.161771,482.531864 733.500571,547.199064 674.999671,617.984064 C598.397171,710.672564 413.609671,777.523064 245.990671,783.546064 C161.762171,786.571454 91.6206714,773.334164 47.0866714,742.209164 C-9.22682858,702.852764 -21.8479286,624.067164 47.0866714,561.705164 C64.1139714,553.018644 66.9733714,560.586024 55.6657714,584.404364 C33.3151714,643.942464 59.6647914,667.711964 86.1930714,686.253364 C116.137371,707.180164 172.753571,717.866664 243.540071,715.321764 C393.522071,709.933094 560.311071,649.593264 622.379071,574.494764 C653.491371,536.849264 650.131071,520.559264 613.944501,499.294564 C579.096801,478.816064 527.400601,463.585564 432.546501,443.364864 L307.870501,416.979164 C279.914401,410.750644 262.388101,406.284864 246.969101,401.471364 L236.910501,398.188164 L216.472001,390.760434 C206.145801,386.828794 196.838201,382.731134 188.487601,378.388334 C141.522801,353.960634 121.439701,316.514334 139.997401,275.811334 C152.948601,247.404134 183.744501,222.252734 230.087201,197.414834 C300.391901,159.733234 408.717201,122.986134 516.747201,98.180434 L541.654401,92.672624 C628.978601,74.111124 684.031401,58.359124 716.395401,35.604224 C755.212801,2.12372401 782.434501,-7.74437599 798.062401,6.00072401 L798.062401,6.00159401 Z"></path>
  </g>
</svg>