<?xml version="1.0" standalone="no"?>
<!DOCTYPE svg PUBLIC "-//W3C//DTD SVG 1.1//EN" "http://www.w3.org/Graphics/SVG/1.1/DTD/svg11.dtd" >
<svg xmlns="http://www.w3.org/2000/svg" xmlns:xlink="http://www.w3.org/1999/xlink" version="1.1" viewBox="-10 0 1034 1024">
   <path fill="currentColor"
d="M934.594 1.53418c-1.09375 18.3887 -11.6602 44.3965 -39.1885 68.7324c-36.5879 32.3438 -95.8203 59.7109 -182.526 80.127l-20.499 4.58789c-110.26 23.4355 -224.251 61.0137 -293.512 98.1357c-34.1562 18.3066 -55.1738 35.4717 -60.2217 46.5459
c-1.15527 2.5332 -0.21582 4.28516 17.876 13.6953c3.90039 2.02832 8.28125 4.06055 13.1377 6.0918l16.873 6.48438c18.0322 6.53516 34.4482 11.2637 67.3584 18.7197l150.287 31.9863c89.4473 19.6787 140.526 35.6133 180.887 59.3301
c71.6309 42.0938 84.9697 106.761 26.4688 177.546c-76.6025 92.6885 -261.39 159.539 -429.009 165.562c-84.2285 3.02539 -154.37 -10.2119 -198.904 -41.3369c-56.3135 -39.3564 -68.9346 -118.142 0 -180.504c17.0273 -8.68652 19.8867 -1.11914 8.5791 22.6992
c-22.3506 59.5381 3.99902 83.3076 30.5273 101.849c29.9443 20.9268 86.5605 31.6133 157.347 29.0684c149.982 -5.38867 316.771 -65.7285 378.839 -140.827c31.1123 -37.6455 27.752 -53.9355 -8.43457 -75.2002c-34.8477 -20.4785 -86.5439 -35.709 -181.398 -55.9297
l-124.676 -26.3857c-27.9561 -6.22852 -45.4824 -10.6943 -60.9014 -15.5078l-10.0586 -3.2832l-20.4385 -7.42773c-10.3262 -3.93164 -19.6338 -8.0293 -27.9844 -12.3721c-46.9648 -24.4277 -67.0479 -61.874 -48.4902 -102.577
c12.9512 -28.4072 43.7471 -53.5586 90.0898 -78.3965c70.3047 -37.6816 178.63 -74.4287 286.66 -99.2344l24.9072 -5.50781c87.3242 -18.5615 142.377 -34.3135 174.741 -57.0684c38.8174 -33.4805 66.0391 -43.3486 81.667 -29.6035z" />
</svg>
