<?xml version="1.0" encoding="UTF-8"?>
<svg width="200px" height="200px" viewBox="0 0 200 200" version="1.1" xmlns="http://www.w3.org/2000/svg" xmlns:xlink="http://www.w3.org/1999/xlink">
    <title>SubscribeStar</title>
    <g id="SubscribeStar" stroke="none" stroke-width="1" fill="none" fill-rule="evenodd">
        <path d="M100.2,12 C148.911515,12 188.4,51.4884851 188.4,100.2 C188.4,135.730752 167.390486,166.354469 137.116796,180.325814 C134.606636,176.30461 131.76708,172.538544 128.6,169.1 C124,164.2 119,159.6 113.6,155.5 C108.7,151.7 104.1,147.9 100,143.9 C96.1,140.3 92.9,136.3 90.3,132 L90.1989986,131.799928 C88.7993324,131.699905 87.39969,131.499952 86.1,131.3 C81.7,130.6 77.7,129.4 74.1,127.8 C68.9,125.5 64.5,122.1 60.9,117.8 C59.1,115.6 57.5,113.2 55.8,110 L55.6,109.9 L54.8562979,107.672746 C54.2334113,111.483127 53.9,115.530426 53.9,119.8 C53.9,129 55.6,137.1 59,144 C62.2,150.5 66.2,156.4 71,161.5 C75.2933333,166.073333 79.9351111,170.385333 84.7627259,174.273393 L85.8,175.1 C90.6,178.9 95.2,182.8 99.3,186.7 C99.8825736,187.282574 100.465147,187.837098 101.032866,188.393284 L100.2,188.4 C51.4884851,188.4 12,148.911515 12,100.2 C12,64.7461815 32.9186298,34.1781708 63.0866821,20.1651751 C65.7121484,24.6247216 68.7500068,28.6684282 72.2,32.3 C77,37.3 81.9,41.8 87.1,45.9 C91.9,49.6 96.4,53.5 100.6,57.5 C104.5,61.2 107.8,65.1 110.3,69.4 C110.331114,69.4622283 110.371909,69.5341374 110.417165,69.6086004 C111.778034,69.7111588 113.136266,69.9055794 114.4,70.1 C118.8,70.8 122.8,72 126.4,73.6 C131.6,75.9 136,79.3 139.6,83.6 C141.4,85.8 143,88.2 144.7,91.4 L144.9,91.5 L145.8,94.2 C145.624784,95.1344835 145.489473,96.068967 145.361807,96.9964628 C146.364633,92.2580713 146.9,87.1020402 146.9,81.8 C146.9,72.6 145.2,64.5 141.8,57.6 C138.6,51.1 134.6,45.2 129.8,40.1 C125.2,35.2 120.2,30.6 114.8,26.4 C109.9,22.6 105.3,18.8 101.2,14.8 C100.272563,13.8725626 99.3451251,12.9451251 98.4467594,12.0176877 L98.7414517,12.0118163 L100.2,12 Z M85.9,65.7 L55.9,65.7 L55.9,81.6 C55.9,87.9 56.3,93.2 57.2,97.9 L57.257,98.246 L57.2,98 L57.0989424,98.3205957 L57.2904218,99.2310488 C57.3526534,99.5253105 57.4179015,99.8126552 57.5,100.1 L57.9426407,101.94317 C58.0172661,102.248637 58.0925304,102.552806 58.1687531,102.855031 L58.2,103 L58.508778,104.160787 L58.4797101,104.031312 L59.1,106.3 L60.6,110 L60.6,110.1 C62.2,113.3 63.8,115.7 65.5,117.9 C68.9,122.2 73.2,125.6 78.3,127.9 C81.58125,129.4 85.2140625,130.548437 89.11604,131.262915 L89.9,131.4 C93.2,132 96.8,132.3 100.6,132.3 C104.754152,132.3 108.244829,131.968263 112.098841,131.250745 L112.1,118.8 C112.1,110.662745 109.889312,105.889581 107.35258,103.632417 L107.2,103.5 C106,102.5 104.3,101.4 100.3,100.9 C101,100.9 101.6,100.8 102.2,100.8 L102.4,100.8 C107,101.3 108.8,102.5 110,103.5 L110.214895,103.680368 L110.355302,103.815408 C112.76263,106.176817 114.8,110.888235 114.8,118.7 L114.8,134.7 L145.8,134.7 L145.8,119.7 C145.8,113.7 145.3,107.9 143.7,102.3 C143.7,102.2 143.7,102.2 143.6,102.1 C142.690909,99.0090909 141.699174,96.0008264 140.399399,93.0752066 L140,92.2 C138.8,89.5 137,86.7 134.5,83.6 C131.5,79.8 127.7,76.7 123.2,74.3 C122.9,74.2 122.7,74 122.4,73.9 C119.105882,72.3 115.546021,71.0543253 111.553674,70.2463464 L110.8,70.1 C107.3,69.4 103.5,69.1 99.5,69.1 C95.7017796,69.1 92.0237298,69.4004264 88.6987253,70.0012793 L88.7,82.8 C88.7,91.1 91,95.9 93.6,98.1 L93.8397736,98.2952353 C94.9514233,99.1777413 96.5337423,100.102004 99.7874612,100.601071 L100,100.6 C100.7,100.6 101.4,100.6 102.1,100.7 L102.2,100.7 C101.616667,100.783333 101.033333,100.797222 100.50787,100.799537 L99.78,100.7992 C99.22,100.796 98.66,100.78 98.1,100.7 L97.8,100.7 C94.2,100.3 91.6,99.1 90,97 C88.8,95.5 87.9,93.6 87.3,91.5 C86.7,89.3 86.1,86.8 85.9,83.9 L85.9,65.7 Z" id="Shape" fill="currentColor" fill-rule="nonzero"></path>
    </g>
</svg>