<svg viewBox="0 0 1024 1024" fill="currentColor" xmlns="http://www.w3.org/2000/svg"><path d="M130.545 95.214c17.965 0 36.529 4.192 57.488 11.977l1.527 0.659 3.57 1.668c5.862 2.792 15.985 7.783 28.639 14.086l5.859 2.922 92.796 46.709 68.217 34.56c2.395-7.186 5.389-13.773 8.982-20.36 17.965-31.738 50.901-49.104 85.034-49.104 16.767 0 33.535 4.192 49.104 13.174l100.005 58.087 154.438-78.45 28.594-14.319c10.793-5.359 18.095-8.901 19.971-9.631 20.959-7.186 39.523-11.378 57.488-11.378 22.157 0 41.918 6.587 61.081 20.36 28.145 20.959 39.523 50.302 39.523 87.429 0 15.57-2.395 32.936-5.988 53.895l-1.238 6.263-1.433 6.747c-3.81 17.321-8.815 35.558-16.378 61.733l-4.904 16.879c-5.389 18.564-71.86 184.44-71.86 184.44 1.198 10.779 4.192 86.83-7.785 113.179 20.36 5.988 34.133 25.75 31.139 47.906 0 1.198-0.599 3.593-1.198 5.988-0.479 3.353-1.341 6.707-2.28 10.060l-0.714 2.515c-3.593 13.174-8.384 26.349-14.971 38.924-6.587 13.174-14.971 25.151-24.552 34.732 0.599 7.785-1.198 15.57-5.389 22.756l-0.867 1.276-2.695 3.692c-2.765 3.729-6.849 9.105-11.212 14.598l-2.012 2.516c-5.326 6.613-10.826 13.056-14.69 16.66l-0.862 0.78c-27.546 25.151-61.081 40.122-98.807 40.122-13.773 0-28.145-1.796-43.116-6.587-53.895 27.546-114.975 41.918-177.254 41.918-63.476 0-124.557-14.971-179.649-43.116-16.168 4.791-31.738 7.186-46.709 7.186-37.726 0-71.261-14.971-98.807-40.122-5.031-4.696-14.196-16.156-21.496-25.539l-9.924-12.859-0.842-1.044c-0.030-0.034-0.055-0.062-0.075-0.081-4.192-7.186-5.389-14.971-5.389-22.756-15.57-8.982-40.122-73.057-43.116-92.819s13.174-44.912 35.93-49.104c-8.384-25.151-8.982-94.016-8.384-101.202l-30.66-76.918-19.929-50.591c-11.025-28.197-20.504-52.902-24.168-63.665l-1.144-3.531-5.062-17.904-2.905-10.517c-7.063-25.845-11.471-44.14-15.537-63.117-4.192-20.959-5.988-38.325-5.988-53.895 0-37.127 11.378-66.47 39.523-87.429 19.163-13.773 38.924-20.36 61.081-20.36zM234.809 218.79l-14.807-6.989c-51.579-24.458-85.789-42.107-102.632-29.757-17.51 12.841 5.371 93.38 19.294 140.145l1.066 3.574c4.545 15.216 13.525 39.367 23.517 64.898l5.53 14.017 3.247 8.138c8.671 21.654 17.364 42.747 24.034 58.76-9.754 29.609-15.008 61.086-15.008 93.719 0 41.664 8.564 81.442 24.123 117.855l-51.67 4.306 0.263 1.597c1.98 11.233 15.912 78.156 68.003 85.832l-2.16 1.476c-9.934 6.587-22.392 12.297-22.392 12.297l0.909 1.568c6.967 11.593 54.016 82.508 141.613 43.943 51.499 29.942 111.382 47.308 176.056 47.308 63.476 0 122.76-16.767 173.661-45.511 87.324 36.056 133.836-37.073 139.037-45.858l0.491-0.851-3.598-1.724c-4.919-2.422-13.934-7.093-20.954-12.049 57.488-8.384 68.267-87.429 68.267-87.429l-46.684-3.964c15.815-36.668 24.527-76.773 24.527-118.796 0-35.251-6.131-69.152-17.45-100.803l9.179-22.279c4.327-10.573 8.91-21.878 13.453-33.263l5.994-15.133c10.081-25.659 19.288-50.247 24.188-66.184l2.478-8.287c3.277-11.046 6.975-23.768 10.495-36.935l2.22-8.464 1.621-6.419c9.552-38.538 15.748-76.952 4.115-85.484-17.404-12.763-53.353 6.508-107.847 32.224l-5.332 2.508c-5.624 2.636-11.477 5.473-17.46 8.446l-8.047 4.039-8.15 4.166c-4.546 2.344-9.116 4.73-13.67 7.134l-10.876 5.789-8.42 4.541c-24.1 13.068-46.007 25.531-59.236 33.152-13.277-6.391-27.067-11.971-41.295-16.67-3.038-8.584-7.002-14.929-11.896-17.661l-103.598-59.883c-25.75-14.971-59.284-5.988-74.255 19.761-8.807 15.658-9.219 34.114-2.208 49.483-25.877 6.083-50.563 15.005-73.657 26.398l-11.897-6.829c-16.953-9.675-41.542-23.477-66.851-36.885l-9.782-5.142-4.101-2.13c-10.756-5.566-21.413-10.913-31.445-15.694zM573.68 744.945c2.994-5.389 9.581-7.186 14.971-4.192s8.384 9.581 4.192 14.971l-5.5 6.017c-4.225 4.57-9.83 10.391-13.064 12.547-15.57 10.779-36.529 16.767-62.278 16.767-26.349 0-46.709-5.988-62.278-16.767-5.988-3.593-17.965-16.767-18.564-18.564-2.844-5.12-1.365-11.321 4.437-14.495l0.952-0.475c5.389-2.994 11.977-1.198 14.971 4.192 0 0.359 2.587 3.306 5.562 6.252l1.51 1.461c1.522 1.437 3.049 2.767 4.306 3.665 11.977 8.384 28.145 13.174 49.703 13.174s37.726-4.791 49.703-13.174l1.192-1.030c3.88-3.449 10.186-9.809 10.186-10.348zM511.401 636.557c22.157 0 33.535 3.593 33.535 3.593 17.965 3.593 27.546 17.965 15.57 31.139l-24.552 26.947c-13.773 14.971-35.331 14.971-49.104 0l-24.552-26.947c-11.716-12.888-2.229-26.349 14.447-30.852l3.2-0.818c4.292-1 15.125-3.062 31.457-3.062zM691.050 532.959c14.971 0 26.947 11.977 26.947 26.947v21.558c0 14.543-11.302 26.261-25.672 26.918l-1.276 0.029c-14.971 0-26.947-11.977-26.947-26.947v-21.558c-0.582-14.555 11.288-26.28 25.706-26.92l1.242-0.028zM331.752 532.959c14.971 0 26.947 11.977 26.947 26.947v21.558c0 14.543-11.302 26.261-25.672 26.918l-1.276 0.029c-14.971 0-26.947-11.977-26.947-26.947v-21.558c-0.582-14.555 11.288-26.28 25.706-26.92l1.242-0.028zM434.146 258.916l0.006 11.156c-19.761 8.384-32.936 27.546-32.936 50.302 0 23.953 15.57 44.912 37.127 52.098-13.174 17.366-15.57 41.918-4.192 61.68 14.971 26.349 47.906 35.331 74.255 20.36l101.801-59.284 4.791 10.18-100.604 58.685c-31.139 18.564-71.261 7.785-89.226-23.953-10.779-19.761-11.378-43.116-1.796-62.278-19.761-11.977-32.337-32.936-32.337-56.889 0-28.132 17.782-52.249 42.118-61.684l0.991-0.373z" /></svg>
