<?xml version="1.0" encoding="UTF-8"?>
<svg width="171px" height="171px" viewBox="0 0 171 171" version="1.1" xmlns="http://www.w3.org/2000/svg" xmlns:xlink="http://www.w3.org/1999/xlink">
    <g id="Sudomemo" stroke="none" stroke-width="1" fill="none" fill-rule="evenodd">
        <path d="M21.8,15.9 C24.8,15.9 27.9,16.6 31.4,17.9 L31.6549946,18.0099918 L32.2512159,18.2885892 C33.230097,18.7548926 34.9205717,19.5882384 37.0336398,20.6408102 L38.0120702,21.1287663 L53.5083268,28.9287834 L64.9,34.7 C65.3,33.5 65.8,32.4 66.4,31.3 C69.4,26 74.9,23.1 80.6,23.1 C83.4,23.1 86.2,23.8 88.8,25.3 L105.5,35 L124.405908,25.3789973 L131.289943,21.8994696 L136.064998,19.5083081 C137.867424,18.613326 139.086681,18.0218462 139.4,17.9 C142.9,16.7 146,16 149,16 C152.7,16 156,17.1 159.2,19.4 C163.9,22.9 165.8,27.8 165.8,34 C165.8,36.6 165.4,39.5 164.8,43 L164.593345,44.0458333 L164.354026,45.1724738 C163.717722,48.0649655 162.882047,51.1103989 161.619005,55.4813272 L160.8,58.3 C159.9,61.4 148.8,89.1 148.8,89.1 C149,90.9 149.5,103.6 147.5,108 C150.9,109 153.2,112.3 152.7,116 C152.7,116.2 152.6,116.6 152.5,117 C152.42,117.56 152.276,118.12 152.1192,118.68 L152,119.1 C151.4,121.3 150.6,123.5 149.5,125.6 C148.4,127.8 147,129.8 145.4,131.4 C145.5,132.7 145.2,134 144.5,135.2 L144.355287,135.413079 L143.905262,136.029629 C143.443482,136.652309 142.761573,137.550136 142.033013,138.46746 L141.697016,138.887642 C140.807695,139.991926 139.889113,141.067957 139.243904,141.669747 L139.1,141.8 C134.5,146 128.9,148.5 122.6,148.5 C120.3,148.5 117.9,148.2 115.4,147.4 C106.4,152 96.2,154.4 85.8,154.4 C75.2,154.4 65,151.9 55.8,147.2 C53.1,148 50.5,148.4 48,148.4 C41.7,148.4 36.1,145.9 31.5,141.7 C30.6597981,140.915812 29.1293447,139.002121 27.9103726,137.435165 L26.2531841,135.287798 L26.1125077,135.113527 C26.1074294,135.107773 26.103252,135.103252 26.1,135.1 C25.4,133.9 25.2,132.6 25.2,131.3 C22.6,129.8 18.5,119.1 18,115.8 C17.5,112.5 20.2,108.3 24,107.6 C22.6,103.4 22.5,91.9 22.6,90.7 L17.4799542,77.8553639 L14.1519274,69.4071265 C12.3107843,64.6983734 10.7279948,60.5728868 10.1159876,58.7756457 L9.92495068,58.1860751 L9.07966365,55.1962243 L8.59461075,53.440011 C7.41507558,49.1241475 6.6790724,46.0690045 6,42.9 C5.3,39.4 5,36.5 5,33.9 C5,27.7 6.9,22.8 11.6,19.3 C14.8,17 18.1,15.9 21.8,15.9 Z M39.2112678,36.5362751 L36.7386719,35.3691162 C28.1253906,31.2847656 22.4125,28.3375 19.6,30.4 C16.6759494,32.5443038 20.4969556,45.9937029 22.8219999,53.8031811 L23,54.4 C23.759,56.941 25.25852,60.97393 26.9271617,65.2374013 L27.8506679,67.5782131 L28.392836,68.9371213 C29.8408486,72.5531186 31.2924799,76.0755955 32.4062453,78.7495864 C30.7773846,83.6940638 29.9,88.9504353 29.9,94.4 C29.9,101.35756 31.3301457,108.000213 33.9284135,114.080935 L25.3,114.8 L25.3439622,115.06667 C25.6745391,116.942575 28.0012048,128.118072 36.7,129.4 L36.3393046,129.646521 C34.6803805,130.746492 32.6,131.7 32.6,131.7 L32.7517312,131.961786 C33.9152,133.89776 41.772,145.74 56.4,139.3 C65,144.3 75,147.2 85.8,147.2 C96.4,147.2 106.3,144.4 114.8,139.6 C129.3824,145.62112 137.149494,133.409084 138.018012,131.942078 L138.1,131.8 L137.4992,131.512055 C136.677765,131.10761 135.172414,130.327586 134,129.5 C143.6,128.1 145.4,114.9 145.4,114.9 L137.604163,114.237991 C140.245103,108.114661 141.7,101.417509 141.7,94.4 C141.7,88.5133872 140.676242,82.852198 138.785907,77.5666894 L140.318671,73.846337 C141.041211,72.0807287 141.806502,70.1928519 142.565218,68.2915978 L143.566149,65.764496 C145.249554,61.4795635 146.787022,57.3736839 147.605296,54.7123458 L148.019089,53.3284613 C148.566295,51.4838463 149.183786,49.3593495 149.771594,47.1605235 L150.142271,45.7470537 L150.412906,44.675112 C152.008062,38.2395022 153.042705,31.8246502 151.1,30.4 C148.19375,28.26875 142.190527,31.4868164 133.090332,35.7811981 L132.2,36.2 C131.26087,36.6402174 130.283459,37.1139296 129.284246,37.6103704 L127.940489,38.2848151 L126.57957,38.9805263 C125.820344,39.3718898 125.057191,39.7704733 124.296809,40.1719011 L122.480638,41.1385486 L121.074596,41.8969167 C117.050135,44.0792309 113.391805,46.160429 111.18259,47.4329699 C108.965396,46.3657615 106.662639,45.4339811 104.28659,44.649197 C103.779287,43.2156966 103.117319,42.156178 102.3,41.7 L85,31.7 C80.7,29.2 75.1,30.7 72.6,35 C71.129222,37.6147164 71.0605102,40.6967883 72.2312346,43.2632486 C67.9099403,44.2790636 63.7876341,45.7689631 59.9310223,47.671441 L57.9442454,46.5309883 C55.11321,44.9152677 51.0070219,42.6105569 46.7806496,40.3715227 L45.1471604,39.5128544 L44.4623243,39.1571125 C42.6662263,38.2276317 40.8864387,37.3347859 39.2112678,36.5362751 Z M95.8,124.4 C96.3,123.5 97.4,123.2 98.3,123.7 C99.2,124.2 99.7,125.3 99,126.2 L98.0816,127.2048 C97.376,127.968 96.44,128.94 95.9,129.3 C93.3,131.1 89.8,132.1 85.5,132.1 C81.1,132.1 77.7,131.1 75.1,129.3 C74.1,128.7 72.1,126.5 72,126.2 C71.525,125.345 71.772,124.3095 72.741,123.7794 L72.9,123.7 C73.8,123.2 74.9,123.5 75.4,124.4 C75.4,124.46 75.832,124.952 76.3288,125.444 L76.5809,125.688 C76.835,125.928 77.09,126.15 77.3,126.3 C79.3,127.7 82,128.5 85.6,128.5 C89.2,128.5 91.9,127.7 93.9,126.3 L94.099,126.128 C94.747,125.552 95.8,124.49 95.8,124.4 Z M85.4,106.3 C89.1,106.3 91,106.9 91,106.9 C94,107.5 95.6,109.9 93.6,112.1 L89.5,116.6 C87.2,119.1 83.6,119.1 81.3,116.6 L77.2,112.1 C75.2434783,109.947826 76.8278355,107.699953 79.6125966,106.947903 L80.1469182,106.811311 C80.8637282,106.644353 82.6727273,106.3 85.4,106.3 Z M115.4,89 C117.9,89 119.9,91 119.9,93.5 L119.9,97.1 C119.9,99.5285714 118.012653,101.485306 115.613026,101.595137 L115.4,101.6 C112.9,101.6 110.9,99.6 110.9,97.1 L110.9,93.5 C110.802778,91.0694444 112.785031,89.1114969 115.192631,89.0045975 L115.4,89 Z M55.4,89 C57.9,89 59.9,91 59.9,93.5 L59.9,97.1 C59.9,99.5285714 58.0126531,101.485306 55.6130262,101.595137 L55.4,101.6 C52.9,101.6 50.9,99.6 50.9,97.1 L50.9,93.5 C50.8027778,91.0694444 52.7850309,89.1114969 55.1926312,89.0045975 L55.4,89 Z M72.499,43.237 L72.5,45.1 C69.2,46.5 67,49.7 67,53.5 C67,57.5 69.6,61 73.2,62.2 C71,65.1 70.6,69.2 72.5,72.5 C75,76.9 80.5,78.4 84.9,75.9 L101.9,66 L102.7,67.7 L85.9,77.5 C80.7,80.6 74,78.8 71,73.5 C69.2,70.2 69.1,66.3 70.7,63.1 C67.4,61.1 65.3,57.6 65.3,53.6 C65.3,48.9021277 68.2694885,44.874785 72.333428,43.2992574 L72.499,43.237 Z" id="Shape" fill="#222222" fill-rule="nonzero"></path>
    </g>
</svg>