<?xml version="1.0" standalone="no"?>
<!DOCTYPE svg PUBLIC "-//W3C//DTD SVG 1.1//EN" "http://www.w3.org/Graphics/SVG/1.1/DTD/svg11.dtd" >
<svg xmlns="http://www.w3.org/2000/svg" xmlns:xlink="http://www.w3.org/1999/xlink" version="1.1" viewBox="-10 0 1045 1024">
   <path fill="currentColor"
d="M382 497c-42 64 -72 128 -94 176c0 2 -16 40 -20 52c-6 14 2 30 16 36c12 4 50 18 52 20c50 16 116 36 190 48c-42 -42 -78 -94 -104 -150s-38 -118 -40 -182zM528 233v0c-2 -4 -6 -14 -8 -16c-144 -296 -464 -284 -514 -152c-40 100 130 342 522 168zM592 205v0
c222 -98 190 -268 134 -290c-78 -30 -218 84 -138 282c2 2 4 6 4 8zM998 421c-32 -74 -94 -128 -166 -154c-6 -2 -14 -4 -22 -4c-36 0 -72 30 -76 70c-4 64 8 128 36 192c28 62 66 114 118 154c12 10 28 14 44 14c30 0 58 -16 70 -42c30 -72 30 -154 -4 -230zM686 563
c-36 -80 -50 -160 -44 -238c2 -22 10 -44 20 -64c-2 2 -6 2 -6 2c-32 8 -64 22 -92 40c-40 28 -76 68 -92 114c-4 12 -8 26 -8 40c-6 62 4 128 32 190c28 60 66 110 114 148c30 22 84 38 126 38c40 0 80 -12 116 -30c12 -6 36 -22 38 -24c-22 -4 -42 -14 -58 -28
c-62 -46 -112 -110 -146 -188z" />
</svg>
