<?xml version="1.0" encoding="UTF-8"?>
<svg width="1025px" height="924px" viewBox="0 0 1025 924" version="1.1" xmlns="http://www.w3.org/2000/svg" xmlns:xlink="http://www.w3.org/1999/xlink">
  <g id="Swarm" transform="translate(0.8518, 0.6046)" fill="currentColor" fill-rule="nonzero">
    <path d="M381.703962,586.757625 C339.703962,650.757625 309.703962,714.757625 287.703962,762.757625 C287.703962,764.757625 271.703962,802.757625 267.703962,814.757625 C261.703962,828.757625 269.703962,844.757625 283.703962,850.757625 C295.703962,854.757625 333.703962,868.757625 335.703962,870.757625 C385.703962,886.757625 451.703962,906.757625 525.703962,918.757625 C483.703962,876.757625 447.703962,824.757625 421.703962,768.757625 C395.703962,712.757625 383.703962,650.757625 381.703962,586.757625 Z M527.703962,322.757625 L527.703962,322.757625 C525.703962,318.757625 521.703962,308.757625 519.703962,306.757625 C375.703962,10.7576254 55.7039617,22.7576254 5.70396174,154.757625 C-34.2960383,254.757625 135.703962,496.757625 527.703962,322.757625 Z M591.703962,294.757625 L591.703962,294.757625 C813.703962,196.757625 781.703962,26.7576254 725.703962,4.75762537 C647.703962,-25.2423746 507.703962,88.7576254 587.703962,286.757625 C589.703962,288.757625 591.703962,292.757625 591.703962,294.757625 Z M997.703962,510.757625 C965.703962,436.757625 903.703962,382.757625 831.703962,356.757625 C825.703962,354.757625 817.703962,352.757625 809.703962,352.757625 C773.703962,352.757625 737.703962,382.757625 733.703962,422.757625 C729.703962,486.757625 741.703962,550.757625 769.703962,614.757625 C797.703962,676.757625 835.703962,728.757625 887.703962,768.757625 C899.703962,778.757625 915.703962,782.757625 931.703962,782.757625 C961.703962,782.757625 989.703962,766.757625 1001.70396,740.757625 C1031.70396,668.757625 1031.70396,586.757625 997.703962,510.757625 Z M685.703962,652.757625 C649.703962,572.757625 635.703962,492.757625 641.703962,414.757625 C643.703962,392.757625 651.703962,370.757625 661.703962,350.757625 C659.703962,352.757625 655.703962,352.757625 655.703962,352.757625 C623.703962,360.757625 591.703962,374.757625 563.703962,392.757625 C523.703962,420.757625 487.703962,460.757625 471.703962,506.757625 C467.703962,518.757625 463.703962,532.757625 463.703962,546.757625 C457.703962,608.757625 467.703962,674.757625 495.703962,736.757625 C523.703962,796.757625 561.703962,846.757625 609.703962,884.757625 C639.703962,906.757625 693.703962,922.757625 735.703962,922.757625 C775.703962,922.757625 815.703962,910.757625 851.703962,892.757625 C863.703962,886.757625 887.703962,870.757625 889.703962,868.757625 C867.703962,864.757625 847.703962,854.757625 831.703962,840.757625 C769.703962,794.757625 719.703962,730.757625 685.703962,652.757625 Z"></path>
  </g>
</svg>