<?xml version="1.0" encoding="UTF-8"?>
<svg width="890px" height="768px" viewBox="0 0 890 768" version="1.1" xmlns="http://www.w3.org/2000/svg" xmlns:xlink="http://www.w3.org/1999/xlink">
  <g id="Tapas" transform="translate(0.1699, 0.711)" fill="currentColor" fill-rule="nonzero">
    <path d="M477.508958,35.9833037 C523.991358,66.1200037 550.840058,106.449104 558.055858,156.970304 C584.050958,165.160734 611.735558,185.859004 641.108558,219.065004 C706.105658,209.297424 754.055558,277.034704 789.736558,321.440004 L798.287338,332.106004 L805.449448,341.255414 C841.365448,387.685114 889.172148,457.767414 889.172148,499.101414 L889.141875,500.702974 L888.97,503.574064 C886.79812,530.285964 865.7337,610.561064 761.097,618.103064 C685.5286,618.103064 617.452,551.171464 556.869,417.310064 C543.8055,482.442864 580.2567,554.664064 666.22,633.972064 C603.6262,722.407564 499.396,766.624064 353.53,766.624064 C134.729,766.624064 0,609.010064 0,507.928064 C0,440.540364 40.2725,394.374064 120.819,369.431064 C175.484,243.912064 242.424,172.988064 321.64,156.656064 C399.4554,232.572064 468.592,192.647264 485.607,180.683364 L488.0738,178.880634 L489.60017,177.670674 L481.00544,176.913838 C444.23394,173.264428 302.86544,154.829838 321.64044,88.4411377 C330.16681,73.1032377 348.14244,66.8786377 375.56724,69.7702377 C354.53204,37.8737377 350.72444,21.1120377 361.95784,8.66083771 C373.48814,-3.51006229 407.78494,-9.22486229 477.50784,35.9801377 L477.508958,35.9833037 Z M247.189958,259.760104 C198.729958,259.760104 183.537658,392.258104 183.537658,392.258104 L179.434138,391.565721 L175.053278,390.948533 C153.671478,388.195603 99.3667784,384.860643 100.800378,422.274733 L100.962487,424.655593 C104.008387,475.541293 128.489787,517.071593 174.405887,549.244593 C270.981087,529.992593 323.700887,504.327593 332.565822,472.249493 C332.78559,441.018993 293.916487,415.738793 215.957887,396.410593 C219.596557,370.585393 229.561387,341.930093 245.853387,310.445793 C262.718587,280.826693 263.163887,263.933093 247.190297,259.760104 L247.190297,259.760104 L247.189958,259.760104 Z M462.837958,283.325104 C408.081158,279.883694 406.284258,438.073104 406.284258,438.073104 L422.571358,441.837754 L455.100658,369.000854 L458.225658,362.544804 C481.252058,314.012604 482.789158,287.606304 462.837958,283.325104 Z"></path>
  </g>
</svg>