<?xml version="1.0" standalone="no"?>
<!DOCTYPE svg PUBLIC "-//W3C//DTD SVG 1.1//EN" "http://www.w3.org/Graphics/SVG/1.1/DTD/svg11.dtd" >
<svg xmlns="http://www.w3.org/2000/svg" xmlns:xlink="http://www.w3.org/1999/xlink" version="1.1" viewBox="-10 0 1024 1024">
   <path fill="currentColor"
d="M538.339 26.7822c46.4824 30.1367 73.3311 70.4658 80.5469 120.987c25.9951 8.19043 53.6797 28.8887 83.0527 62.0947c64.9971 -9.76758 112.947 57.9697 148.628 102.375l8.55078 10.666l7.16211 9.14941c35.916 46.4297 83.7227 116.512 83.7227 157.846
l-0.0302734 1.60156l-0.171875 2.87109c-2.17188 26.7119 -23.2363 106.987 -127.873 114.529c-75.5684 0 -143.645 -66.9316 -204.228 -200.793c-13.0635 65.1328 23.3877 137.354 109.351 216.662c-62.5938 88.4355 -166.824 132.652 -312.69 132.652
c-218.801 0 -353.53 -157.614 -353.53 -258.696c0 -67.3877 40.2725 -113.554 120.819 -138.497c54.665 -125.519 121.605 -196.443 200.821 -212.775c77.8154 75.916 146.952 35.9912 163.967 24.0273l2.4668 -1.80273l1.52637 -1.20996l-8.59473 -0.756836
c-36.7715 -3.64941 -178.14 -22.084 -159.365 -88.4727c8.52637 -15.3379 26.502 -21.5625 53.9268 -18.6709c-21.0352 -31.8965 -24.8428 -48.6582 -13.6094 -61.1094c11.5303 -12.1709 45.8271 -17.8857 115.55 27.3193zM308.02 250.559
c-48.46 0 -63.6523 132.498 -63.6523 132.498l-4.10352 -0.692383l-4.38086 -0.617188c-21.3818 -2.75293 -75.6865 -6.08789 -74.2529 31.3262l0.162109 2.38086c3.0459 50.8857 27.5273 92.416 73.4434 124.589c96.5752 -19.252 149.295 -44.917 158.159 -76.9951
c0.220703 -31.2305 -38.6484 -56.5107 -116.607 -75.8389c3.63867 -25.8252 13.6035 -54.4805 29.8955 -85.9648c16.8652 -29.6191 17.3105 -46.5127 1.33691 -50.6836v-0.00195312zM523.668 274.124c-54.7568 -3.44141 -56.5537 154.748 -56.5537 154.748l16.2871 3.76465
l32.5293 -72.8369l3.125 -6.45605c23.0264 -48.5322 24.5635 -74.9385 4.6123 -79.2197z" />
</svg>
