<?xml version="1.0" encoding="UTF-8"?>
<svg width="1025px" height="1024px" viewBox="0 0 1025 1024" version="1.1" xmlns="http://www.w3.org/2000/svg" xmlns:xlink="http://www.w3.org/1999/xlink">
  <g id="TeamSpeak" transform="translate(0.7876, 0.6075)" fill="currentColor" fill-rule="nonzero">
    <path d="M1.02386,475.501183 C6.14398,444.781483 22.52876,421.228683 51.20066,407.917183 C58.36863,403.821483 62.46436,400.749213 63.48876,392.556783 C75.77686,325.997183 102.39986,264.556783 142.33646,209.260783 C147.45658,203.117233 150.52884,199.020583 144.38431,190.829183 C137.21634,180.588983 142.33646,170.348683 150.52884,162.157283 C205.82474,96.6211828 273.40884,50.5412828 354.30384,25.9652828 C545.79184,-32.4029172 714.75184,7.53368284 859.13584,146.797283 C872.44834,159.085383 889.85554,172.396883 873.47174,195.949583 C870.39947,200.045283 875.51959,203.117553 877.56842,206.188883 C918.52842,262.509183 946.17582,324.972883 958.46392,393.581883 C960.51177,400.749853 964.60747,403.822083 969.72762,405.869983 C1004.54402,423.277183 1020.92782,452.973483 1021.95222,490.861183 C1021.95222,525.677583 1026.04792,559.469583 1019.90437,594.286183 C1011.71199,643.437583 961.53617,678.253983 913.40837,668.013683 C899.07247,664.941413 894.97577,653.677783 894.97577,639.341783 C894.97577,583.021483 897.02362,526.701783 894.97577,470.381783 C890.88007,318.829783 822.27167,205.165783 690.17577,131.437783 C467.96777,9.58278284 183.29577,143.725883 134.14377,393.582783 C121.85567,453.998783 131.07248,489.838683 126.9758,645.485783 C125.95236,659.822683 118.78439,668.014083 103.424,668.014083 C41.9836,671.086353 0,631.149783 0,569.710383 L0,527.725983 L1.02386,475.501183 Z M442.36831,741.741183 C465.92011,733.548803 482.30381,718.188483 487.42401,692.588883 C492.54413,668.012683 463.87221,632.172883 422.91231,595.308583 C380.92791,556.396483 326.65641,517.484383 295.93531,502.124983 C252.92751,478.573183 211.96751,498.029283 203.77611,547.180683 C193.53591,599.405283 203.77611,649.580683 232.44801,694.636683 C252.92751,725.356383 283.64721,739.692383 319.48801,742.764583 C343.03981,744.812433 423.93501,747.884703 442.36801,741.741143 L442.36831,741.741183 Z M702.46431,753.005183 C775.16841,758.125303 821.24831,695.661383 819.20031,632.173183 C815.10363,542.060883 687.10331,599.405583 644.09631,615.789383 C497.66431,672.108683 553.98401,725.356383 600.06411,737.644383 L702.46431,753.005183 Z M898.04831,734.573183 C891.90476,729.453063 883.71241,732.524353 881.66451,739.692323 C865.28071,790.892523 792.57661,964.972323 537.60051,982.380323 C238.59251,1002.85982 698.36951,1069.42032 828.41651,970.092223 C873.47221,935.275823 923.64791,900.460423 921.60011,799.084223 C919.55226,778.603723 911.36081,745.836223 898.04831,734.572523 L898.04831,734.573183 Z"></path>
  </g>
</svg>