<?xml version="1.0" standalone="no"?>
<!DOCTYPE svg PUBLIC "-//W3C//DTD SVG 1.1//EN" "http://www.w3.org/Graphics/SVG/1.1/DTD/svg11.dtd" >
<svg xmlns="http://www.w3.org/2000/svg" xmlns:xlink="http://www.w3.org/1999/xlink" version="1.1" viewBox="-10 0 1049 1024">
   <path fill="currentColor"
d="M6.14355 335.16c5.12012 -30.7197 21.5049 -54.2725 50.1768 -67.584c7.16797 -4.0957 11.2637 -7.16797 12.2881 -15.3604c12.2881 -66.5596 38.9111 -128 78.8477 -183.296c5.12012 -6.14355 8.19238 -10.2402 2.04785 -18.4316
c-7.16797 -10.2402 -2.04785 -20.4805 6.14453 -28.6719c55.2959 -65.5361 122.88 -111.616 203.775 -136.192c191.488 -58.3682 360.448 -18.4316 504.832 120.832c13.3125 12.2881 30.7197 25.5996 14.3359 49.1523c-3.07227 4.0957 2.04785 7.16797 4.09668 10.2393
c40.96 56.3203 68.6074 118.784 80.8955 187.393c2.04785 7.16797 6.14355 10.2402 11.2637 12.2881c34.8164 17.4072 51.2002 47.1035 52.2246 84.9912c0 34.8164 4.0957 68.6084 -2.04785 103.425c-8.19238 49.1514 -58.3682 83.9678 -106.496 73.7275
c-14.3359 -3.07227 -18.4326 -14.3359 -18.4326 -28.6719c0 -56.3203 2.04785 -112.64 0 -168.96c-4.0957 -151.552 -72.7041 -265.216 -204.8 -338.944c-222.208 -121.855 -506.88 12.2881 -556.032 262.145c-12.2881 60.416 -3.07129 96.2559 -7.16797 251.903
c-1.02344 14.3369 -8.19141 22.5283 -23.5518 22.5283c-61.4404 3.07227 -103.424 -36.8643 -103.424 -98.3037v-41.9844zM447.488 601.4c23.5518 -8.19238 39.9355 -23.5527 45.0557 -49.1523c5.12012 -24.5762 -23.5518 -60.416 -64.5117 -97.2803
c-41.9844 -38.9121 -96.2559 -77.8242 -126.977 -93.1836c-43.0078 -23.5518 -83.9678 -4.0957 -92.1592 45.0557c-10.2402 52.2246 0 102.4 28.6719 147.456c20.4795 30.7197 51.1992 45.0557 87.04 48.1279c23.5518 2.04785 104.447 5.12012 122.88 -1.02344z
M707.584 612.664c72.7041 5.12012 118.784 -57.3438 116.736 -120.832c-4.09668 -90.1123 -132.097 -32.7676 -175.104 -16.3838c-146.432 56.3193 -90.1123 109.567 -44.0322 121.855zM903.168 594.232c-6.14355 -5.12012 -14.3359 -2.04883 -16.3838 5.11914
c-16.3838 51.2002 -89.0879 225.28 -344.064 242.688c-299.008 20.4795 160.769 87.04 290.816 -12.2881c45.0557 -34.8164 95.2314 -69.6318 93.1836 -171.008c-2.04785 -20.4805 -10.2393 -53.248 -23.5518 -64.5117z" />
</svg>
