<?xml version="1.0" encoding="UTF-8"?>
<svg width="205px" height="205px" viewBox="0 0 205 205" version="1.1" xmlns="http://www.w3.org/2000/svg" xmlns:xlink="http://www.w3.org/1999/xlink">
    <title>Technic</title>
    <g id="Technic" stroke="none" stroke-width="1" fill="none" fill-rule="evenodd">
        <path d="M117,16 L123.252827,30.8491764 C128.663232,32.3714121 133.828185,34.4740187 138.675214,37.0849991 L153.411688,31.0822151 L173.917785,51.5883118 L168.224552,65.5651314 C171.280047,70.7782808 173.725064,76.388031 175.462299,82.2977206 L189,88 L189,117 L176.08953,122.437176 C174.418038,128.86583 171.915494,134.96251 168.702525,140.60738 L173.917785,153.411688 L153.411688,173.917785 L140.744329,168.758434 C135.029097,172.071028 128.839367,174.663889 122.301046,176.411936 L117,189 L88,189 L82.6979528,176.411668 C76.1600014,174.663624 69.9706112,172.070859 64.2556713,168.758434 L51.5883118,173.917785 L31.0822151,153.411688 L36.2974754,140.60738 C33.0845058,134.96251 30.5819618,128.86583 28.9104697,122.437176 L16,117 L16,88 L29.5377009,82.2977206 C31.2749363,76.388031 33.7199526,70.7782808 36.775448,65.5651314 L31.0822151,51.5883118 L51.5883118,31.0822151 L66.3247863,37.0849991 C71.1715156,34.4741799 76.3361306,32.3716718 81.7461709,30.8494583 L88,16 L117,16 Z M102.5,43.3980263 C69.0867726,43.3980263 42,70.3065965 42,103.5 C42,136.267582 68.3962658,162.910547 101.217244,163.588732 L101.217285,152.395996 C100.99235,148.528483 99.0175781,146.25472 95.2929688,145.574707 C94.5807292,152.240723 91.9291992,155.57373 87.3383789,155.57373 C82.7475586,155.57373 80.1276042,152.240723 79.4785156,145.574707 L79.4784598,135.499343 L76,135.5 L76,124.5 L79.4784598,124.499343 L79.4785156,120.967285 C76.9163411,119.814616 75.6352539,117.703125 75.6352539,114.632813 L75.6352539,108.355957 C72.4708659,102.399902 71.8963216,97.835612 73.9116211,94.6630859 C75.9269206,91.4905599 78.0893555,90.4552409 80.3989258,91.5571289 L80.3989258,69.4306641 C80.4969076,58.6699219 85.8102214,52.9741211 96.3388672,52.3432617 C112.131836,51.3969727 121.597656,60.3061523 125.784668,63.9414063 C127.065267,65.7460938 127.420573,68.124349 126.850586,71.0761719 L96.3388672,71.0761719 L96.3388672,91.5571289 L101.217285,91.5571289 L103.20459,87.7641602 L125.784668,93.7661133 C125.668457,96.0226237 124.702474,97.1508789 122.886719,97.1508789 L121.738958,160.49935 C145.720341,152.514457 163,130.011893 163,103.5 C163,70.3065965 135.913227,43.3980263 102.5,43.3980263 Z M101.5,121.5 L95,121.5 L94.9994598,124.499343 L98,124.5 L98,135.5 L94.9994598,135.499343 L95,139.5 L101.5,139.5 L101.5,121.5 Z" id="Shape" fill="#000000"></path>
    </g>
</svg>