<?xml version="1.0" encoding="UTF-8"?>
<svg width="1029px" height="974px" viewBox="0 0 1029 974" version="1.1" xmlns="http://www.w3.org/2000/svg" xmlns:xlink="http://www.w3.org/1999/xlink">
  <g id="Technorati" transform="translate(0.3973, 0)" fill="currentColor" fill-rule="nonzero">
    <path d="M1028.52814,0 L1028.52814,708 C854.528143,814 646.528143,836 454.528143,800 C358.528143,850 272.528143,920 178.528143,974 C184.528143,900 194.528143,828 202.528143,754 C204.528143,724 214.528143,686 182.528143,668 C64.5281426,574 -15.4718574,420 2.52814257,266 C12.5281426,166 64.5281426,82 126.528143,0 L1028.52814,0 Z M850.528143,130 C772.528143,72 670.528143,46 574.528143,50 C464.528143,52 354.528143,92 280.528143,172 C238.528143,216 206.528143,276 206.528143,338 C202.528143,424 250.528143,506 316.528143,556 C456.528143,662 662.528143,672 814.528143,586 C900.528143,538 968.528143,452 970.528143,352 C972.528143,262 922.528143,180 850.528143,130 Z"></path>
  </g>
</svg>