<?xml version="1.0" standalone="no"?>
<!DOCTYPE svg PUBLIC "-//W3C//DTD SVG 1.1//EN" "http://www.w3.org/Graphics/SVG/1.1/DTD/svg11.dtd" >
<svg xmlns="http://www.w3.org/2000/svg" xmlns:xlink="http://www.w3.org/1999/xlink" version="1.1" viewBox="-10 0 1034 1024">
   <path fill="currentColor"
d="M174.55 326.236c140.787 -59.2314 281.96 -117.548 423.504 -174.949c201.642 -80.3984 229.708 -92.126 256.965 -92.5303c11.7129 0.366211 22.9844 4.54004 32.1104 11.8906c11.4043 9.7041 14.8828 15.8516 15.8525 21.2715
c0.889648 5.41992 0.808594 22.3232 -0.161133 31.9502c-10.9189 110.081 -52.4131 364.296 -76.4355 487.725c-10.1914 52.1689 -30.251 69.6406 -49.6611 71.3389c-42.1387 3.72266 -74.1699 -26.6914 -115.016 -52.4131
c-63.8984 -40.1973 -85.25 -54.998 -147.208 -94.2285c-71.7432 -45.2939 -42.2207 -61.0684 -1.375 -101.75c10.6768 -10.5947 187.809 -172.281 190.48 -187.001c2.26465 -12.9424 3.07324 -14.6406 -2.75 -20.4639c-5.90527 -5.82324 -12.9424 -5.0957 -17.4717 -4.12402
c-6.4707 1.375 -104.015 63.0879 -292.796 185.223c-28.9561 19.1689 -55.1631 28.4697 -78.7002 27.9863c-25.8818 -0.566406 -75.7871 -14.0752 -112.832 -25.6387c-45.5371 -14.2354 -81.6914 -21.6768 -78.4561 -45.7793
c1.61719 -12.5361 19.5742 -25.3975 53.9492 -38.499v0z" />
</svg>
