<?xml version="1.0" encoding="UTF-8"?>
<svg width="784px" height="625px" viewBox="0 0 784 625" version="1.1" xmlns="http://www.w3.org/2000/svg" xmlns:xlink="http://www.w3.org/1999/xlink">
  <g id="Telegram" transform="translate(0.2508, 0.4253)" fill="currentColor" fill-rule="nonzero">
    <path d="M54.1522624,267.4793 C194.939262,208.2479 336.112262,149.9313 477.656262,92.5303 C679.298262,12.1319 707.364262,0.4043 734.621262,1.42108547e-14 C746.334162,0.366211 757.605662,4.54004 766.731662,11.8906 C778.135962,21.5947 781.614462,27.7422 782.584162,33.1621 C783.47381,38.58202 783.392756,55.4853 782.423029,65.1123 C771.504129,175.1933 730.009929,429.4083 705.987529,552.8373 C695.796129,605.0062 675.736529,622.4779 656.326429,624.1762 C614.187729,627.89886 582.156529,597.4848 541.310429,571.7631 C477.412029,531.5658 456.060429,516.7651 394.102429,477.5346 C322.359229,432.2407 351.881729,416.4662 392.727429,375.7846 C403.404229,365.1899 580.536429,203.5036 583.207429,188.7836 C585.472079,175.8412 586.280669,174.143 580.457429,168.3197 C574.552159,162.49646 567.515029,163.224 562.985729,164.19568 C556.515029,165.57068 458.970729,227.28358 270.189729,349.41868 C241.233629,368.58758 215.026629,377.88838 191.489529,377.40498 C165.607729,376.838574 115.702429,363.32978 78.6575294,351.76628 C33.1204294,337.53088 -3.03387056,330.08948 0.201429442,305.98698 C1.81861944,293.45088 19.7756294,280.58948 54.1506294,267.48798 L54.1506294,267.48798 L54.1522624,267.4793 Z"></path>
  </g>
</svg>