<?xml version="1.0" standalone="no"?>
<!DOCTYPE svg PUBLIC "-//W3C//DTD SVG 1.1//EN" "http://www.w3.org/Graphics/SVG/1.1/DTD/svg11.dtd" >
<svg xmlns="http://www.w3.org/2000/svg" xmlns:xlink="http://www.w3.org/1999/xlink" version="1.1" viewBox="-10 0 1034 1024">
   <path fill="currentColor"
d="M741.727 335.943c-4.13477 -1.98242 -8.33496 -3.89062 -12.5898 -5.7168c-7.41016 -136.534 -82.0146 -214.7 -207.286 -215.5c-0.566406 -0.00390625 -1.13184 -0.00390625 -1.69922 -0.00390625c-74.9287 0 -137.244 31.9834 -175.601 90.1826l68.8955 47.2598
c28.6523 -43.4727 73.6211 -52.7402 106.737 -52.7402c0.382812 0 0.767578 0 1.14551 0.00390625c41.2471 0.263672 72.3721 12.2559 92.5166 35.6436c14.6602 17.0264 24.4648 40.5547 29.3203 70.249c-36.5703 -6.21582 -76.1201 -8.12598 -118.4 -5.70312
c-119.102 6.86035 -195.669 76.3232 -190.526 172.843c2.6084 48.96 27.001 91.0801 68.6768 118.595c35.2373 23.2607 80.6201 34.6357 127.787 32.0605c62.2881 -3.41504 111.154 -27.1807 145.243 -70.6348c25.8896 -33 42.2646 -75.7656 49.4951 -129.65
c29.6846 17.915 51.6846 41.4902 63.835 69.8301c20.6592 48.1748 21.8643 127.34 -42.7305 191.88c-56.5947 56.54 -124.625 81 -227.438 81.7549c-114.048 -0.844727 -200.3 -37.4199 -256.377 -108.71c-52.5137 -66.7549 -79.6523 -163.175 -80.6641 -286.585
c1.01172 -123.411 28.1504 -219.832 80.6641 -286.586c56.0771 -71.2891 142.328 -107.863 256.375 -108.711c114.874 0.853516 202.629 37.6035 260.854 109.238c28.5498 35.1279 50.0752 79.3037 64.2646 130.811l80.7354 -21.541
c-17.2002 -63.4004 -44.2646 -118.032 -81.0947 -163.341c-74.6455 -91.8369 -183.815 -138.895 -324.478 -139.87h-0.5625c-140.377 0.97168 -248.324 48.209 -320.843 140.396c-64.5322 82.0352 -97.8203 196.182 -98.9385 339.266l-0.00390625 0.337891
l0.00390625 0.336914c1.11816 143.082 34.4062 257.232 98.9385 339.268c72.5186 92.1846 180.467 139.425 320.843 140.395h0.5625c124.804 -0.865234 212.772 -33.54 285.243 -105.945c94.8154 -94.7246 91.96 -213.46 60.71 -286.35
c-22.4199 -52.2705 -65.165 -94.7236 -123.615 -122.764zM526.244 538.537c-52.2002 2.93945 -106.431 -20.4902 -109.104 -70.6748c-1.98145 -37.21 26.4814 -78.7305 112.309 -83.6768c9.8291 -0.566406 19.4736 -0.84375 28.9492 -0.84375
c31.1748 0 60.3398 3.02832 86.8545 8.8252c-9.88965 123.51 -67.9004 143.565 -119.007 146.37h-0.000976562z" />
</svg>
