<?xml version="1.0" encoding="UTF-8"?>
<svg width="827px" height="961px" viewBox="0 0 827 961" version="1.1" xmlns="http://www.w3.org/2000/svg" xmlns:xlink="http://www.w3.org/1999/xlink">
  <g id="Threads" transform="translate(0.2222, 0.8284)" fill="currentColor" fill-rule="nonzero">
    <path d="M642.687316,444.94142 C638.552546,442.959 634.352356,441.0508 630.097516,439.22462 C622.687356,302.69062 548.082916,224.52462 422.811516,223.72462 C422.24511,223.720714 421.679676,223.720714 421.112296,223.720714 C346.183596,223.720714 283.868296,255.704114 245.511296,313.903314 L314.406796,361.163114 C343.059096,317.690414 388.027896,308.422914 421.143796,308.422914 C421.526608,308.422914 421.911374,308.422914 422.289306,308.42682 C463.536406,308.690492 494.661406,320.68272 514.805906,344.07042 C529.466106,361.09682 539.270706,384.62512 544.126206,414.31942 C507.555906,408.1036 468.006106,406.19344 425.726206,408.6163 C306.624206,415.47665 230.057206,484.9395 235.200206,581.4593 C237.808606,630.4193 262.201206,672.5394 303.877006,700.0543 C339.114306,723.315 384.497106,734.69 431.664006,732.1148 C493.952106,728.69976 542.818006,704.9341 576.907006,661.48 C602.796606,628.48 619.171606,585.7144 626.402106,531.83 C656.086706,549.745 678.086706,573.3202 690.237106,601.6601 C710.896306,649.8349 712.101406,729.0001 647.506606,793.5401 C590.911906,850.0801 522.881606,874.5401 420.068606,875.295 C306.020606,874.450273 219.768606,837.8751 163.691606,766.585 C111.177906,699.8301 84.0393063,603.41 83.0275062,480 C84.0392262,356.589 111.177906,260.168 163.691606,193.414 C219.768706,122.1249 306.019606,85.551 420.066606,84.703 C534.940606,85.556516 622.695606,122.3065 680.920606,193.941 C709.470406,229.0689 730.995806,273.2447 745.185206,324.752 L825.920606,303.211 C808.720406,239.8106 781.656006,185.179 744.825906,139.87 C670.180406,48.0331 561.010906,0.975 420.347906,0 L419.785406,0 C279.408406,0.97168 171.461406,48.209 98.9424063,140.396 C34.4102063,222.4312 1.12210625,336.578 2.84217094e-14,479.662 L2.84217094e-14,479.999891 L2.84217094e-14,480.336805 C1.12206625,623.418805 34.4101063,737.568805 98.9424063,819.604805 C171.461006,911.789405 279.409406,959.029805 419.785406,959.999805 L420.347906,959.999805 C545.151906,959.134571 633.119906,926.459805 705.590906,854.054805 C800.406306,759.330205 797.550906,640.594805 766.300906,567.704805 C743.881006,515.434305 701.135906,472.981205 642.685906,444.940805 L642.687316,444.94142 Z M427.204316,647.53542 C375.004116,650.47487 320.773316,627.04522 318.100316,576.86062 C316.118866,539.65062 344.581716,498.13012 430.409316,493.18382 C440.238416,492.617414 449.882916,492.34007 459.358516,492.34007 C490.533316,492.34007 519.698316,495.36839 546.213016,501.16527 C536.323366,624.67527 478.312616,644.73027 427.206016,647.53527 L427.20504,647.53527 L427.204316,647.53542 Z"></path>
  </g>
</svg>