<?xml version="1.0" standalone="no"?>
<!DOCTYPE svg PUBLIC "-//W3C//DTD SVG 1.1//EN" "http://www.w3.org/Graphics/SVG/1.1/DTD/svg11.dtd" >
<svg xmlns="http://www.w3.org/2000/svg" xmlns:xlink="http://www.w3.org/1999/xlink" version="1.1" viewBox="-10 0 1044 1024">
   <path fill="currentColor"
d="M513.731 737.029c-41.8105 0.00976562 -72.4688 30.6992 -72.4688 72.5293c0 41.2061 31.7539 73.4219 72.3877 73.4316c40.3457 0.00976562 73.4619 -32.8701 73.4512 -72.96c-0.00976562 -41.5645 -31.6104 -73.0117 -73.3691 -73.001h-0.000976562zM247.04 737.029
c-41.7588 -0.0205078 -73.1338 30.9658 -73.1963 72.2842c-0.0605469 40.7852 32.2871 73.5947 72.6533 73.6865c40.5088 0.0917969 73.0615 -32.4707 73.124 -73.1338c0.0605469 -41.5947 -31.0479 -72.8174 -72.5811 -72.8369zM783.421 737.029
c-41.8916 0 -72.5811 30.6787 -72.5908 72.5811c-0.00976562 41.2568 31.8564 73.4619 72.6123 73.3799c40.3965 -0.0820312 73.124 -32.9219 73.165 -73.4111c0.0507812 -41.083 -31.7031 -72.5498 -73.1855 -72.5498h-0.000976562zM564.869 96.7012
c-22.0576 -20.7676 -48.6299 -28.2832 -78.1416 -18.248c-29.2344 9.94336 -46.9395 30.833 -51.6914 61.2861c-4.14746 26.6035 -1.01367 53.5645 -1.75098 80.3525c-0.225586 8.12012 2.70312 11.1309 10.9766 10.9775
c22.1699 -0.419922 44.3496 -0.143555 66.5293 -0.143555c21.627 0 43.2539 0.03125 64.8906 -0.00976562c11.3467 -0.03125 11.9307 -0.634766 11.9502 -12.2568c0.0410156 -22.7236 0.0507812 -45.4453 -0.00976562 -68.168
c-0.0615234 -21.0938 -7.77246 -39.6807 -22.7529 -53.791v0.000976562zM973.691 79.0986c-46.3672 -72.6426 -111.422 -123.709 -188.334 -160.174c-104.079 -49.3359 -214.036 -66.7549 -328.54 -57.5801c-75.2539 6.03125 -147.385 24.0439 -215.695 56.3711
c-70.1543 33.1982 -131.328 78.0703 -177.132 141.568c-58.1846 80.6602 -79.165 169.276 -52.4492 266.608c18.3809 66.918 56.6895 121.651 107.889 167.578c9.73828 8.73535 14.0293 18.3096 13.4551 30.8945c-0.521484 11.3867 -3.61523 22.1182 -7.73047 32.6133
c-10.0156 25.5693 -23.2861 49.541 -36.5264 73.5039c-9.93262 17.9707 -20.2344 35.7373 -30.29 53.6465c-1.12598 2.00684 -3.30762 4.25 -1.16699 6.6875c1.71973 1.95605 4.14746 0.736328 6.21582 0.316406c6.98438 -1.42285 14.0078 -2.69238 20.8789 -4.49512
c59.085 -15.5029 117.515 -33.4023 175.206 -53.3193c44.042 -15.1963 88.2793 -17.3574 133.581 -10.5781c39.5781 5.91895 79.3096 9.68652 125.308 10.3936c12.3389 -0.736328 30.6582 -1.55566 48.9268 -2.95898c75.2734 -5.7959 147.395 -23.9814 215.695 -56.2998
c70.1533 -33.1982 130.959 -78.3359 177.224 -141.507c39.4043 -53.8008 62.2275 -113.797 63.6523 -180.727c1.32031 -62.4736 -16.6094 -119.972 -50.166 -172.544zM671.58 422.886c-0.0410156 16.6914 -11.8477 28.3857 -28.457 28.4258
c-34.5088 0.0927734 -69.0068 0.03125 -103.516 0.03125c-30.3926 0 -60.8057 0.501953 -91.1875 -0.15332c-24.0635 -0.522461 -48.1279 -1.33105 -72.2021 -1.5166c-16.2705 -0.132812 -27.126 -11.6016 -27.1562 -27.7402
c-0.101562 -54.2207 -0.142578 -108.441 -0.12207 -162.661c0 -15.2178 8.37598 -25.5693 23.3672 -27.9141c6.37988 -0.993164 8.17188 -3.91211 8.1416 -9.75977c-0.123047 -22.4561 0.265625 -44.9131 -0.00976562 -67.3584
c-0.77832 -63.1709 39.793 -118.14 101.897 -130.857c39.9775 -8.18164 79.165 -1.34082 111.729 27.0645c30.8115 26.8799 47.3594 60.1396 46.5508 101.611c-0.451172 22.7236 0.142578 45.4551 -0.0205078 68.1787c-0.0507812 6.7373 1.5166 10.3008 9.28809 11.2441
c13.6914 1.66895 21.7598 11.6836 21.7705 25.4668c0.0507812 55.2959 0.0605469 110.611 -0.0722656 165.938h-0.00195312z" />
</svg>
