<?xml version="1.0" encoding="UTF-8"?>
<svg width="1025px" height="1025px" viewBox="0 0 1025 1025" version="1.1" xmlns="http://www.w3.org/2000/svg" xmlns:xlink="http://www.w3.org/1999/xlink">
  <g id="Threema" transform="translate(0.6638, 0.6046)" fill="currentColor" fill-rule="nonzero">
    <path d="M513.655156,878.031722 C471.844656,878.041591 441.186356,908.731025 441.186356,950.561125 C441.186356,991.767225 472.940256,1023.98303 513.574056,1023.99273 C553.919756,1024.00249 587.035956,991.122625 587.025259,951.032725 C587.015491,909.468225 555.414856,878.021025 513.656156,878.031722 L513.65518,878.031722 L513.655156,878.031722 Z M246.964156,878.031815 C205.205356,878.011317 173.830356,908.997625 173.767772,950.316025 C173.70731,991.101225 206.054956,1023.91073 246.421156,1024.00272 C286.929956,1024.09432 319.482656,991.531825 319.545245,950.868725 C319.605703,909.274025 288.497256,878.051325 246.964056,878.031815 L246.964156,878.031815 Z M783.345156,878.031825 C741.453556,878.031825 710.764056,908.710525 710.754354,950.612925 C710.744591,991.869725 742.610756,1024.07483 783.366656,1023.99298 C823.763156,1023.91079 856.490656,991.070925 856.531717,950.581725 C856.582438,909.498725 824.828556,878.031825 783.346156,878.031825 L783.34518,878.031825 L783.345156,878.031825 Z M564.793156,237.704025 C542.735556,216.936425 516.163256,209.420825 486.651556,219.456025 C457.417156,229.399385 439.712056,250.289025 434.960156,280.742125 C430.812696,307.345625 433.946486,334.306625 433.209176,361.094625 C432.98359,369.214745 435.912296,372.225525 444.185776,372.072125 C466.355676,371.652203 488.535376,371.92857 510.715076,371.92857 C532.342076,371.92857 553.968976,371.95982 575.605676,371.918804 C586.952376,371.887554 587.536376,371.284038 587.555876,359.662004 C587.596892,336.938404 587.606658,314.216704 587.546111,291.494004 C587.484587,270.400204 579.773651,251.813304 564.793211,237.703004 L564.793211,237.703981 L564.793156,237.704025 Z M973.615156,220.101425 C927.247956,147.458825 862.193156,96.3924251 785.281156,59.9274251 C681.202156,10.5915251 571.245156,-6.8274749 456.741156,2.3473251 C381.487256,8.3785751 309.356156,26.3912251 241.046156,58.7184251 C170.891856,91.9166251 109.718156,136.788725 63.9141564,200.286425 C5.72955644,280.946625 -15.2508436,369.562425 11.4649564,466.894425 C29.8458564,533.812425 68.1544564,588.545425 119.353956,634.472425 C129.092236,643.207775 133.383256,652.782025 132.809056,665.366925 C132.287572,676.753625 129.193826,687.485125 125.078586,697.980225 C115.062986,723.549525 101.792486,747.521225 88.5521864,771.484125 C78.6195664,789.454825 68.3177864,807.221425 58.2621864,825.130625 C57.1362064,827.137465 54.9545664,829.380625 57.0951964,831.818125 C58.8149264,833.774175 61.2426564,832.554453 63.3110164,832.134531 C70.2953964,830.711681 77.3188164,829.442151 84.1899164,827.639411 C143.274916,812.136511 201.704916,794.237111 259.395916,774.320111 C303.437916,759.123811 347.675216,756.962711 392.976916,763.742011 C432.555016,769.660961 472.286516,773.428531 518.284916,774.135611 C530.623816,773.399283 548.943116,772.579951 567.211716,771.176631 C642.485116,765.380731 714.606716,747.195231 782.906716,714.876831 C853.060016,681.678631 913.865716,636.540931 960.130716,573.369831 C999.535016,519.569031 1022.35822,459.572831 1023.78302,392.642831 C1025.10333,330.169231 1007.17362,272.670831 973.617016,220.098831 L973.615156,220.101425 Z M671.504156,563.888825 C671.463141,580.580225 659.656456,592.274525 643.047156,592.314625 C608.538356,592.407398 574.040356,592.345875 539.531156,592.345875 C509.138556,592.345875 478.725456,592.847828 448.343656,592.192555 C424.280156,591.670094 400.215756,590.861505 376.141556,590.675955 C359.871056,590.543143 349.015556,579.074355 348.985356,562.935755 C348.883794,508.715055 348.842778,454.494755 348.863286,400.274755 C348.863286,385.056955 357.239266,374.705455 372.230486,372.360655 C378.610366,371.367491 380.402366,368.448545 380.372086,362.600885 C380.249039,340.144785 380.637711,317.687785 380.362321,295.242485 C379.584001,232.071585 420.155321,177.102485 482.259321,164.385485 C522.236821,156.203845 561.424321,163.044665 593.988321,191.449985 C624.799821,218.329885 641.347721,251.589585 640.539121,293.060985 C640.087949,315.784585 640.681699,338.516085 640.518613,361.239685 C640.467832,367.976985 642.035213,371.540485 649.806703,372.483785 C663.498103,374.152735 671.566503,384.167385 671.577203,397.950585 C671.627984,453.246485 671.63775,508.561585 671.504937,563.888585 L671.502984,563.888585 L671.504156,563.888825 Z"></path>
  </g>
</svg>