<?xml version="1.0" standalone="no"?>
<!DOCTYPE svg PUBLIC "-//W3C//DTD SVG 1.1//EN" "http://www.w3.org/Graphics/SVG/1.1/DTD/svg11.dtd" >
<svg xmlns="http://www.w3.org/2000/svg" xmlns:xlink="http://www.w3.org/1999/xlink" version="1.1" viewBox="-10 0 1034 1024">
   <path fill="currentColor"
d="M694.925 390.098c-3.12793 6.32617 -7.24219 12.0469 -12.1855 17.0625l-163.554 167.631c-2.83887 3.96289 -7.7207 6.4541 -13.0781 6.4541c-5.36133 0 -10.2734 -2.49121 -13.4307 -6.86816l-163.267 -167.247
c-0.795898 -0.767578 -1.65918 -1.69531 -2.45508 -2.62109c-17.0977 -19.2031 -20.3848 -46.9395 -8.32812 -70.584l172.582 -338.774c3.34766 -5.20801 8.83496 -8.14844 14.8975 -8.14844c6.05957 0 11.5146 2.9082 14.7041 7.79688l172.997 339.636
c9.0918 17.8008 9.50586 38.6338 1.11621 55.665zM511.337 683.753l-432.279 -440.292c-3.18945 -2.55566 -6.8584 -3.86621 -10.8135 -3.86621c-5.77441 0.224609 -10.8457 2.74805 -13.9717 6.90234c-2.93555 3.89941 -3.79688 8.94727 -2.45605 14.3164l125.399 432.305
c2.99902 10.3184 7.84863 19.9072 14.5156 28.4062c0.796875 1.08496 1.69043 2.13965 2.55176 3.16406c14.8965 17.2871 37.3545 26.7773 60.6416 26.7773c9.02832 0 18.1836 -1.4082 27.0508 -4.41113c64.5674 -21.4082 132.164 -33.4229 201.066 -35.6279
c5.83887 -0.448242 11.6445 -0.798828 17.418 -1.08789c4.78516 -0.255859 9.21875 -2.55469 12.0908 -6.29492c2.83887 -3.64258 3.92383 -8.24316 3.0625 -12.6846c-0.542969 -2.65234 -1.97656 -5.20703 -4.24219 -7.57227l-0.0332031 -0.0332031zM953.411 242.311
c-5.45508 -3.73828 -12.4082 -3.51465 -19.6807 0.830078l-1.78711 1.08789l-370.522 378.046c-6.15723 6.26367 -6.1875 16.1045 -0.0634766 22.3662l64.5654 66.1455c7.65723 7.8623 17.4824 13.2295 28.4883 15.5615c29.2842 6.16699 58.3447 14.2822 86.418 24.0928
c6.50781 2.26758 13.3018 3.38672 20.1289 3.38672c8.45312 0 16.9062 -1.72559 24.9775 -5.17578c13.9082 -5.68848 25.9355 -14.666 34.7705 -26.0107c6.60449 -8.46777 11.5166 -18.0527 14.5479 -28.4717l125.43 -432.494
c0.512695 -2.01172 0.704102 -4.02637 0.542969 -5.75195c0 -5.49609 -2.93359 -10.6084 -7.81543 -13.6758v0.0634766z" />
</svg>
