<?xml version="1.0" encoding="UTF-8"?>
<svg width="911px" height="768px" viewBox="0 0 911 768" version="1.1" xmlns="http://www.w3.org/2000/svg" xmlns:xlink="http://www.w3.org/1999/xlink">
  <g id="Throne" transform="translate(0.6237, 0.711)" fill="currentColor" fill-rule="nonzero">
    <path d="M643.724202,403.09509 C640.596272,409.42126 636.482012,415.14199 631.538702,420.15759 L467.984702,587.78859 C465.145832,591.75148 460.264002,594.24269 454.906602,594.24269 C449.545272,594.24269 444.633202,591.75148 441.475902,587.37453 L278.208902,420.12753 C277.413004,419.359952 276.549722,418.43222 275.753822,417.50644 C258.656122,398.30334 255.369022,370.56694 267.425702,346.92244 L440.007702,8.14844 C443.355362,2.94043 448.842662,0 454.905202,0 C460.964772,0 466.419802,2.9082 469.609302,7.79688 L642.606302,347.43288 C651.698102,365.23368 652.112162,386.06668 643.722512,403.09788 L643.724202,403.09509 Z M460.136202,696.75009 L27.8572024,256.45809 C24.6677524,253.90243 20.9988024,252.59188 17.0437024,252.59188 C11.2692924,252.816489 6.19800237,255.33993 3.07200237,259.49422 C0.13645237,263.39363 -0.72487763,268.44149 0.61595237,273.81062 L126.014952,706.11562 C129.013972,716.43402 133.863582,726.02282 140.530552,734.52182 C141.327427,735.60678 142.220982,736.66147 143.082312,737.68588 C157.978812,754.97298 180.436812,764.46318 203.723912,764.46318 C212.752232,764.46318 221.907512,763.05498 230.774712,760.05205 C295.342112,738.64385 362.938712,726.62915 431.840712,724.42415 C437.679582,723.975908 443.485212,723.625322 449.258712,723.33626 C454.043872,723.080401 458.477462,720.78157 461.349512,717.04134 C464.188382,713.39876 465.273342,708.79818 464.412012,704.35674 C463.869043,701.7044 462.435452,699.14971 460.169822,696.78447 L460.136619,696.751267 L460.136202,696.75009 Z M902.210202,255.30809 C896.755122,251.56981 889.802002,251.79344 882.529502,256.138168 L880.742392,257.226058 L510.220392,635.272058 C504.063162,641.535728 504.032892,651.376558 510.156916,657.638258 L574.722316,723.783758 C582.379546,731.646058 592.204716,737.013258 603.210616,739.345258 C632.494816,745.512248 661.555316,753.627458 689.628616,763.438058 C696.136426,765.705638 702.930416,766.824778 709.757516,766.824778 C718.210636,766.824778 726.663716,765.099188 734.735016,761.648998 C748.643216,755.960518 760.670516,746.982998 769.505516,735.638298 C776.110006,727.170528 781.022116,717.585598 784.053416,707.166598 L909.483416,274.672598 C909.996111,272.660878 910.187518,270.646228 910.026385,268.920648 C910.026385,263.424558 907.092795,258.312248 902.210955,255.244848 L902.210955,255.308325 L902.210202,255.30809 Z"></path>
  </g>
</svg>