<?xml version="1.0" encoding="UTF-8"?>
<svg width="566px" height="566px" viewBox="0 0 566 566" version="1.1" xmlns="http://www.w3.org/2000/svg" xmlns:xlink="http://www.w3.org/1999/xlink">
    <title>TiddlyWiki</title>
    <g id="TiddlyWiki" stroke="none" stroke-width="1" fill="none" fill-rule="evenodd">
        <path d="M197.880317,390.67294 L200.690707,391.50204 C204.222217,389.92197 211.321017,392.36401 215.086607,393.55795 C208.152607,385.871 197.706027,374.58286 190.179627,367.4665 C187.709227,358.85104 188.763307,350.1817 189.294817,341.3866 L189.401427,340.659 C186.434707,347.6997 182.669837,354.5437 180.646307,361.95477 C178.278327,371.95294 191.170607,382.74045 196.169707,388.92294 L197.880317,390.67294 Z M412.780307,432.95798 C393.430327,432.411 384.919317,432.45804 375.064727,416.25296 L367.384217,416.473 C358.444337,416.076 362.170017,416.25595 356.205817,415.95901 C346.233917,415.57098 347.831337,406.09604 346.077027,401.09003 C343.270727,384.09698 349.790617,367.01611 349.584937,350.01971 C349.512117,343.98639 340.974617,322.63062 337.924537,314.99548 C328.362917,316.79572 318.749427,317.13895 309.049137,317.62231 C286.689917,317.56754 264.482337,314.8295 242.435317,311.35248 C238.138907,329.10052 225.368307,353.94183 235.924217,371.9793 C248.737127,390.63696 257.728607,395.80597 271.665617,396.93094 C285.602477,398.055 288.749517,413.78998 285.377687,419.40997 C282.393217,423.294 277.147827,423.99902 272.691227,424.94 L263.776827,425.35898 C256.761937,425.12299 250.491917,423.229 244.241307,420.30798 C233.802827,414.48102 223.021807,402.36703 215.011717,393.67001 C216.876527,397.143 217.988837,403.92294 216.297427,407.07803 C211.561527,413.78699 191.078707,413.746 181.698307,409.577 C171.042327,404.84198 145.293337,371.59503 141.312307,346.69455 C151.903307,326.66583 167.332307,309.2196 175.138307,287.41132 C158.123307,276.55438 149.010307,258.88019 150.193317,238.8598 L150.620317,236.5423 C133.878327,239.67648 142.560337,238.51039 124.550341,239.87279 C67.1943372,239.6973 16.7543362,200.80795 45.1563442,140.367004 C47.0033292,136.787964 48.7603332,133.534 51.8913452,135.08801 C54.4043302,136.33496 54.0433532,141.33699 52.7793302,146.88399 C36.5443452,219.10277 115.891327,219.65552 164.667327,206.29181 C169.508307,204.96521 179.136307,196.03061 185.805807,193.0687 C196.707707,188.22757 208.540607,186.2634 220.283817,184.84811 C249.491487,181.51997 284.595527,196.90649 302.431797,197.4089 C320.268277,197.91129 345.641327,193.13808 361.216797,194.14308 C372.518127,194.66016 383.615327,196.70007 394.519317,199.6059 C401.577337,165.215 402.076327,139.867996 418.808317,134 C428.628327,135.550995 436.195277,148.93298 441.796327,156.08301 L441.819307,156.07898 C453.226277,155.62897 464.081337,158.52301 474.874297,161.73497 C494.414337,158.962006 510.811317,147.989 528.067297,139.45299 C528.013337,139.721985 527.731357,139.81297 527.563327,139.99397 C510.581337,153.72798 508.209277,176.952 510.207307,198.42822 C510.950347,209.57237 507.801307,221.67166 503.908357,233.08179 C496.623327,251.67169 482.554297,271.26677 466.225317,270.26176 C460.052337,270.0665 456.466307,266.57117 451.878327,262.83946 C450.988317,270.39809 447.490327,277.14267 444.118317,283.82758 C436.331337,298.64941 415.982337,305.18097 397.140297,321.00763 C378.299537,336.83453 403.169317,393.35904 409.199317,403.65802 C415.228337,413.95798 432.059297,417.72598 425.528327,427.02194 C423.530337,430.09198 420.475317,431.19 417.210297,432.38098 L412.780307,432.95798 Z" id="Shape" fill="currentColor" fill-rule="nonzero"></path>
    </g>
</svg>