<?xml version="1.0" encoding="UTF-8"?>
<svg width="894px" height="1025px" viewBox="0 0 894 1025" version="1.1" xmlns="http://www.w3.org/2000/svg" xmlns:xlink="http://www.w3.org/1999/xlink">
  <g id="Tiktok" transform="translate(0.7779, 0.3376)" fill="currentColor" fill-rule="nonzero">
    <path d="M707.677211,160.481 C670.141811,117.4488 647.579311,61.3384 647.579311,0 L600.541211,0 C612.655511,67.0459 652.566611,124.583 707.677211,160.481 L707.677211,160.481 Z M272.476011,507.1245 C190.995511,507.1245 124.719011,573.4595 124.719011,655.0055 C124.719011,711.8326 157.027611,761.2815 204.060811,786.0055 C186.482711,761.7575 176.030511,732.0407 176.030511,699.7028 C176.030511,618.1569 242.306911,551.8218 323.790511,551.8218 C338.993611,551.8218 353.719211,554.43215 367.500511,558.7134 L367.500511,378.9774 C353.244611,377.07408 338.755411,375.88365 323.790511,375.88365 C321.175281,375.88365 318.800281,376.121931 316.186991,376.121931 L316.186991,514.015931 C302.171391,509.736631 287.680191,507.124331 272.476991,507.124331 L272.476011,507.1245 Z M840.936011,239.4143 L840.936011,376.1226 C749.718211,376.1226 665.152011,346.8804 596.256011,297.4263 L596.256011,655.2423 C596.256011,833.7973 451.115011,979.3023 272.473011,979.3023 C203.583411,979.3023 139.446011,957.4302 86.945011,920.5757 C146.094411,984.0532 230.426011,1023.9997 323.786011,1023.9997 C502.186011,1023.9997 647.569011,878.7287 647.569011,699.9397 L647.569011,342.1237 C716.458611,391.5778 801.026011,420.818 892.249011,420.818 L892.249011,244.885 C874.430611,244.885 857.325211,242.98168 840.935511,239.4143 L840.936488,239.4143 L840.936011,239.4143 Z M596.256011,655.2425 L596.256011,297.4265 C665.150511,346.8806 749.718011,376.1228 840.936011,376.1228 L840.936011,239.4148 C788.200611,228.2429 741.884211,199.7117 707.677011,160.4812 C652.566611,124.5828 612.885011,67.0466 600.295011,0.0002 L471.542011,0.0002 L471.3008,705.4082 C468.4551,784.3428 403.3643,847.8272 323.7848,847.8272 C274.3727,847.8272 230.9,823.3389 203.8198,786.2491 C156.7846,761.2843 124.477,712.0714 124.477,655.2441 C124.477,573.6982 190.7543,507.3631 272.235,507.3631 C287.4381,507.3631 302.1666,509.97833 315.945,514.25861 L315.945,376.36161 C141.106,380.16532 0,523.76661 0,699.94061 C0,785.05491 33.0195,862.56761 86.9443,920.57661 C139.4443,957.42911 203.5833,979.30321 272.4723,979.30321 C450.8733,979.30321 596.2553,833.79821 596.2553,655.24321 L596.256011,655.2425 Z"></path>
  </g>
</svg>