<?xml version="1.0" standalone="no"?>
<!DOCTYPE svg PUBLIC "-//W3C//DTD SVG 1.1//EN" "http://www.w3.org/Graphics/SVG/1.1/DTD/svg11.dtd" >
<svg xmlns="http://www.w3.org/2000/svg" xmlns:xlink="http://www.w3.org/1999/xlink" version="1.1" viewBox="-10 0 1034 1024">
   <path fill="currentColor"
d="M773.552 19.4805c-37.5352 -43.0322 -60.0977 -99.1426 -60.0977 -160.481h-47.0381c12.1143 67.0459 52.0254 124.583 107.136 160.481zM338.351 366.124c-81.4805 0 -147.757 66.335 -147.757 147.881c0 56.8271 32.3086 106.276 79.3418 131
c-17.5781 -24.248 -28.0303 -53.9648 -28.0303 -86.3027c0 -81.5459 66.2764 -147.881 147.76 -147.881c15.2031 0 29.9287 2.61035 43.71 6.8916v-179.736c-14.2559 -1.90332 -28.7451 -3.09375 -43.71 -3.09375c-2.61523 0 -4.99023 0.238281 -7.60352 0.238281v137.894
c-14.0156 -4.2793 -28.5068 -6.8916 -43.71 -6.8916zM906.811 98.4141v136.708c-91.2178 0 -175.784 -29.2422 -244.68 -78.6963v357.816c0 178.555 -145.141 324.06 -323.783 324.06c-68.8896 0 -133.027 -21.8721 -185.528 -58.7266
c59.1494 63.4775 143.481 103.424 236.841 103.424c178.4 0 323.783 -145.271 323.783 -324.06v-357.816c68.8896 49.4541 153.457 78.6943 244.68 78.6943v-175.933c-17.8184 0 -34.9238 -1.90332 -51.3135 -5.4707h0.000976562zM662.131 514.242v-357.816
c68.8945 49.4541 153.462 78.6963 244.68 78.6963v-136.708c-52.7354 -11.1719 -99.0518 -39.7031 -133.259 -78.9336c-55.1104 -35.8984 -94.792 -93.4346 -107.382 -160.481h-128.753l-0.241211 705.408c-2.8457 78.9346 -67.9365 142.419 -147.516 142.419
c-49.4121 0 -92.8848 -24.4883 -119.965 -61.5781c-47.0352 -24.9648 -79.3428 -74.1777 -79.3428 -131.005c0 -81.5459 66.2773 -147.881 147.758 -147.881c15.2031 0 29.9316 2.61523 43.71 6.89551v-137.897c-174.839 3.80371 -315.945 147.405 -315.945 323.579
c0 85.1143 33.0195 162.627 86.9443 220.636c52.5 36.8525 116.639 58.7266 185.528 58.7266c178.401 0 323.783 -145.505 323.783 -324.06z" />
</svg>
