<?xml version="1.0" encoding="UTF-8"?>
<svg width="872px" height="1025px" viewBox="0 0 872 1025" version="1.1" xmlns="http://www.w3.org/2000/svg" xmlns:xlink="http://www.w3.org/1999/xlink">
  <g id="Tinder" transform="translate(0, 0.8284)" fill="currentColor" fill-rule="nonzero">
    <path d="M259.534042,413.20407 C455.118042,345.62007 487.886042,170.51607 463.310042,8.72507014 C463.310042,2.58054014 468.429182,-1.51512986 473.549342,0.532690139 C660.942342,92.6928901 871.885342,292.37269 871.885342,591.38069 C871.885342,820.75669 693.709342,1023.50869 435.661342,1023.50869 C205.261342,1034.77329 10.7013415,856.59769 0.461341511,627.22169 C-6.70662849,475.66869 70.0931415,332.30969 200.142342,253.46069 C205.261482,250.3894 211.406042,253.46069 211.406042,259.60522 C213.453892,290.32492 222.669742,368.14922 256.461742,414.22922 C256.461742,413.20481 259.534012,413.20481 259.534012,413.20481 L259.534042,413.20407 Z"></path>
  </g>
</svg>