<?xml version="1.0" encoding="UTF-8"?>
<svg width="1025px" height="791px" viewBox="0 0 1025 791" version="1.1" xmlns="http://www.w3.org/2000/svg" xmlns:xlink="http://www.w3.org/1999/xlink">
  <g id="ToneDen" transform="translate(0.8375, 0.6075)" fill="currentColor" fill-rule="nonzero">
    <path d="M1020.29188,454.6565 C1017.22059,427.0081 1012.10047,399.3606 1004.93248,372.7366 C985.476377,306.1761 954.755677,245.7596 911.747877,192.5126 C887.171677,161.7919 859.524277,134.1444 827.780077,109.5683 C788.867977,78.8486 745.860177,55.2958 700.804077,35.8398 C640.388077,11.2646 576.900077,0 505.220077,0 C484.739577,0 458.115577,2.04785 431.491577,6.14453 C380.291377,13.3125 332.163477,29.69633 286.083577,52.22463 C195.972277,97.28033 124.291577,162.81663 72.0675773,248.83163 C31.1075773,317.44003 6.53147728,392.19163 1.41137728,473.08763 C-1.66089272,514.04763 0.387937284,556.03193 6.53149728,596.99163 C12.6750473,634.87933 23.9396973,671.74363 38.2755973,706.55963 C44.4191473,721.91903 51.5870973,737.27933 59.7794973,752.63973 C63.8751973,759.8077 67.9718773,765.95123 73.0909973,771.07133 C93.5714973,789.50293 117.123197,792.57523 142.723797,787.45513 C165.251097,782.33501 182.659297,769.02353 193.922997,749.56743 C204.163197,731.13583 206.211097,711.67973 199.043117,691.19923 C195.971827,681.98341 190.851707,672.76763 186.755017,663.55083 C168.323417,622.59083 158.083117,580.60743 155.011817,536.57483 C152.962987,505.85513 155.011817,475.13533 160.130957,445.43913 C169.347757,396.28683 188.803857,351.23113 217.475657,310.27113 C243.075257,273.40683 273.794957,242.68713 310.659257,217.08653 C360.835057,182.27113 416.131257,162.81503 476.547257,156.67053 C507.267957,153.59924 536.963257,154.62268 567.683957,158.71936 C597.379257,162.81506 626.052157,171.00646 653.699557,183.29456 C708.995457,206.84726 754.052557,242.68716 791.939557,288.76756 C813.443457,315.39156 830.851657,344.06346 845.187557,375.80756 C860.546957,410.62296 868.739357,447.48726 871.811557,486.39956 C873.859407,515.07146 872.834997,543.74336 867.714877,572.41516 C862.595737,602.11146 854.403377,630.78336 842.115277,657.40736 C838.019577,665.59974 835.971727,674.81556 830.851577,681.98356 C823.683607,694.27166 821.635757,707.58316 823.683607,720.89566 C828.803727,749.56756 845.187507,770.04706 871.811507,781.31166 C893.315407,789.50307 914.819307,787.45521 936.323207,778.23939 C948.611307,772.09584 956.803707,761.85559 964.995107,751.61539 C967.042957,748.54312 968.067377,745.47184 969.090807,741.37519 C996.739207,685.05589 1014.14741,626.68719 1020.29101,564.22419 C1024.38769,526.33549 1024.38769,490.49569 1020.29101,454.65619 L1020.29188,454.6565 Z M517.505877,489.4725 C446.850577,489.4725 389.505877,546.8163 388.482877,616.4485 C388.482877,686.0803 445.826677,744.4485 516.482877,743.4245 C584.066877,744.44891 643.458877,687.1052 643.458877,617.4735 C644.483287,546.8173 586.115077,489.4725 517.506877,489.4725 L517.505877,489.4725 Z"></path>
  </g>
</svg>