<?xml version="1.0" standalone="no"?>
<!DOCTYPE svg PUBLIC "-//W3C//DTD SVG 1.1//EN" "http://www.w3.org/Graphics/SVG/1.1/DTD/svg11.dtd" >
<svg xmlns="http://www.w3.org/2000/svg" xmlns:xlink="http://www.w3.org/1999/xlink" version="1.1" viewBox="-10 0 1044 1024">
   <path fill="currentColor"
d="M1020.93 431.416c-3.07129 -27.6484 -8.19141 -55.2959 -15.3594 -81.9199c-19.4561 -66.5605 -50.1768 -126.977 -93.1846 -180.224c-24.5762 -30.7207 -52.2236 -58.3682 -83.9678 -82.9443c-38.9121 -30.7197 -81.9199 -54.2725 -126.976 -73.7285
c-60.416 -24.5752 -123.904 -35.8398 -195.584 -35.8398c-20.4805 0 -47.1045 2.04785 -73.7285 6.14453c-51.2002 7.16797 -99.3281 23.5518 -145.408 46.0801c-90.1113 45.0557 -161.792 110.592 -214.016 196.607c-40.96 68.6084 -65.5361 143.36 -70.6562 224.256
c-3.07227 40.96 -1.02344 82.9443 5.12012 123.904c6.14355 37.8877 17.4082 74.752 31.7441 109.568c6.14355 15.3594 13.3115 30.7197 21.5039 46.0801c4.0957 7.16797 8.19238 13.3115 13.3115 18.4316c20.4805 18.4316 44.0322 21.5039 69.6328 16.3838
c22.5273 -5.12012 39.9355 -18.4316 51.1992 -37.8877c10.2402 -18.4316 12.2881 -37.8877 5.12012 -58.3682c-3.07129 -9.21582 -8.19141 -18.4316 -12.2881 -27.6484c-18.4316 -40.96 -28.6719 -82.9434 -31.7432 -126.976c-2.04883 -30.7197 0 -61.4395 5.11914 -91.1357
c9.2168 -49.1523 28.6729 -94.208 57.3447 -135.168c25.5996 -36.8643 56.3193 -67.584 93.1836 -93.1846c50.1758 -34.8154 105.472 -54.2715 165.888 -60.416c30.7207 -3.07129 60.416 -2.04785 91.1367 2.04883c29.6953 4.0957 58.3682 12.2871 86.0156 24.5752
c55.2959 23.5527 100.353 59.3926 138.24 105.473c21.5039 26.624 38.9121 55.2959 53.248 87.04c15.3594 34.8154 23.5518 71.6797 26.624 110.592c2.04785 28.6719 1.02344 57.3438 -4.09668 86.0156c-5.11914 29.6963 -13.3115 58.3682 -25.5996 84.9922
c-4.0957 8.19238 -6.14355 17.4082 -11.2637 24.5762c-7.16797 12.2881 -9.21582 25.5996 -7.16797 38.9121c5.12012 28.6719 21.5039 49.1514 48.1279 60.416c21.5039 8.19141 43.0078 6.14355 64.5117 -3.07227c12.2881 -6.14355 20.4805 -16.3838 28.6719 -26.624
c2.04785 -3.07227 3.07227 -6.14355 4.0957 -10.2402c27.6484 -56.3193 45.0566 -114.688 51.2002 -177.151c4.09668 -37.8887 4.09668 -73.7285 0 -109.568zM518.144 466.232c-70.6553 0 -128 57.3438 -129.023 126.976c0 69.6318 57.3438 128 128 126.976
c67.584 1.02441 126.976 -56.3193 126.976 -125.951c1.02441 -70.6562 -57.3438 -128 -125.952 -128z" />
</svg>
