<?xml version="1.0" standalone="no"?>
<!DOCTYPE svg PUBLIC "-//W3C//DTD SVG 1.1//EN" "http://www.w3.org/Graphics/SVG/1.1/DTD/svg11.dtd" >
<svg xmlns="http://www.w3.org/2000/svg" xmlns:xlink="http://www.w3.org/1999/xlink" version="1.1" viewBox="-10 0 1034 1024">
   <path fill="currentColor"
d="M276.48 -141c-5.12012 26.624 -11.2646 52.2236 -16.3848 78.8477c-13.3115 64.5127 -25.5996 130.049 -38.9121 194.561c-13.3115 58.3682 -25.5996 117.76 -36.8633 177.151c-1.02441 5.12012 -3.07227 14.3369 5.12012 13.3125
c28.6719 -2.04785 57.3438 8.19238 84.9912 -7.16797c53.248 -29.6963 94.208 -71.6797 121.856 -123.904c56.3203 -105.472 91.1357 -220.16 133.12 -331.775c-83.9678 -1.02441 -168.96 -1.02441 -252.928 -1.02441zM836.608 762.168
c-10.2402 -6.14355 -19.4561 0 -25.6006 10.2402c-7.16797 11.2637 -16.3838 20.4795 -27.6475 27.6475c-37.8887 23.5527 -78.8486 6.14453 -88.0645 -36.8633c-3.07227 -15.3604 -5.12012 -29.6963 -5.12012 -45.0566v-352.256
c0 -17.4082 6.14453 -21.5039 22.5283 -20.4795c31.7441 1.02344 64.5117 -1.02441 96.2559 1.02344c20.4805 1.02441 17.4082 -12.2881 17.4082 -24.5762c1.02344 -13.3115 0 -21.5039 -18.4326 -21.5039c-31.7432 1.02441 -64.5117 -1.02344 -96.2559 0
c-15.3594 0 -22.5273 -3.07129 -21.5039 -20.4795c2.04785 -26.624 1.02441 -52.2246 1.02441 -78.8486v-74.752c0 -6.14355 0 -12.2881 -7.16797 -14.3359c-8.19238 -3.07129 -12.2881 2.04785 -15.3604 9.21582c-2.04785 4.09668 -4.0957 9.2168 -6.14355 13.3125
c-19.4561 50.1758 -46.0801 95.2324 -84.9922 133.12c-19.4561 19.4561 -40.96 36.8643 -66.5605 49.1514c-8.19141 4.09668 -18.4316 10.2402 -16.3838 20.4805s13.3125 8.19238 22.5283 8.19238h41.9834c27.6484 0 27.6484 0 27.6484 28.6719v207.872
c4.0957 59.3916 -8.19238 139.264 7.16797 218.111c8.19238 46.0801 49.1523 81.9199 95.2324 83.9688c60.416 2.04785 116.735 -35.8408 144.384 -100.353c3.07227 -6.14355 13.3115 -15.3604 3.07227 -21.5039z" />
</svg>
