<?xml version="1.0" encoding="UTF-8"?>
<svg width="659px" height="1026px" viewBox="0 0 659 1026" version="1.1" xmlns="http://www.w3.org/2000/svg" xmlns:xlink="http://www.w3.org/1999/xlink">
  <g id="Torial" transform="translate(0.5961, 0.4253)" fill="currentColor" fill-rule="nonzero">
    <path d="M93.1602306,0 C88.0401106,26.624 81.8956306,52.2236 76.7754306,78.8477 C63.4639306,143.3604 51.1758306,208.8967 37.8633306,273.4087 C24.5518306,331.7769 12.2637306,391.1687 1.00003062,450.5597 C-0.0243793778,455.67982 -2.07223938,464.8966 6.12015062,463.8722 C34.7920506,461.82435 63.4639506,472.06458 91.1113506,456.70423 C144.359351,427.00793 185.319351,385.02453 212.967351,332.80023 C269.287651,227.32823 304.103051,112.64023 346.087351,1.02523 C262.119551,0 177.127351,0 93.1593506,0 L93.1602306,0 Z M653.288231,903.168 C643.048031,897.02445 633.832131,903.168 627.687631,913.4082 C620.519661,924.6719 611.303831,933.8877 600.040131,941.0557 C562.151431,964.6084 521.191531,947.20023 511.975631,904.1924 C508.903361,888.832 506.855511,874.4961 506.855511,859.1358 L506.855511,506.8798 C506.855511,489.4716 513.000041,485.3759 529.383811,486.4003 C561.127911,487.42374 593.895511,485.37589 625.639711,487.42374 C646.120211,488.44815 643.047911,475.13564 643.047911,462.84754 C644.071351,449.53604 643.047911,441.34364 624.615311,441.34364 C592.872111,442.36805 560.103611,440.3202 528.359411,441.34364 C513.000011,441.34364 505.832111,438.27235 506.855511,420.86414 C508.903361,394.24014 507.879921,368.63954 507.879921,342.01554 L507.879921,267.26354 C507.879921,261.11999 507.879921,254.97544 500.711951,252.92764 C492.519571,249.85635 488.423851,254.97549 485.351551,262.14346 C483.303701,266.24014 481.255851,271.36026 479.208001,275.45596 C459.751901,325.63176 433.127901,370.68836 394.215801,408.57596 C374.759701,428.03206 353.255801,445.44026 327.655301,457.72736 C319.463891,461.82404 309.223701,467.96756 311.271501,478.20786 C313.319301,488.44816 324.584001,486.40024 333.799801,486.40024 L375.783201,486.40024 C403.431601,486.40024 403.431601,486.40024 403.431601,515.07214 L403.431601,722.94414 C407.527301,782.33574 395.239221,862.20814 410.599571,941.05514 C418.791951,987.13524 459.751871,1022.97504 505.831971,1025.02394 C566.247971,1027.07179 622.566971,989.18314 650.215971,924.67094 C653.288241,918.52739 663.527471,909.31054 653.288241,903.16704 L653.288231,903.168 Z"></path>
  </g>
</svg>