<?xml version="1.0" standalone="no"?>
<!DOCTYPE svg PUBLIC "-//W3C//DTD SVG 1.1//EN" "http://www.w3.org/Graphics/SVG/1.1/DTD/svg11.dtd" >
<svg xmlns="http://www.w3.org/2000/svg" xmlns:xlink="http://www.w3.org/1999/xlink" version="1.1" viewBox="-11 0 1045 1024">
   <path fill="currentColor"
d="M512.001 -135.93l158.206 159.772v-84.8438h165.575v206.922l188.218 235.218h-152.079v496.792h-719.842v-496.792h-152.079l512 -517.068h0.000976562zM608.318 472.387h-309.229c-2.59961 0 -4.74316 1.95703 -5.03613 4.47852l-0.0341797 0.59082v55.7617
c0 2.60059 1.95703 4.74316 4.47852 5.03613l0.59082 0.0341797h91.2432l0.00488281 283.881c0 2.59961 1.95703 4.74316 4.47852 5.03613l0.59082 0.0341797h65.9004c2.60059 0 4.74316 -1.95703 5.03613 -4.47852l0.0341797 -0.59082l-0.00488281 -283.881h70.9697
l0.00488281 283.881c0 2.59961 1.95703 4.74316 4.47852 5.03613l0.59082 0.0341797h65.9014c2.59961 0 4.74219 -1.95703 5.03516 -4.47852l0.0341797 -0.59082l-0.00488281 -152.079h116.594l0.00585938 152.079c0 2.60059 1.95703 4.74316 4.47754 5.03613
l0.59082 0.0341797h65.9014c2.59961 0 4.74316 -1.95703 5.03613 -4.47852l0.0341797 -0.59082v-344.713c0 -2.59961 -1.95703 -4.74316 -4.47852 -5.03613l-0.59082 -0.0341797h-65.9014c-2.59961 0 -4.74316 1.95703 -5.03613 4.47852l-0.0332031 0.59082
l-0.00585938 131.802h-116.594l0.00488281 -131.802c0 -2.59961 -1.95703 -4.74316 -4.47754 -5.03613l-0.59082 -0.0341797v-0.000976562z" />
</svg>
