<?xml version="1.0" encoding="UTF-8"?>
<svg width="1025px" height="1014px" viewBox="0 0 1025 1014" version="1.1" xmlns="http://www.w3.org/2000/svg" xmlns:xlink="http://www.w3.org/1999/xlink">
  <g id="ToyHouse" transform="translate(0.8153, 0.0684)" fill="currentColor" fill-rule="nonzero">
    <path d="M512.001,0 L670.207,159.772 L670.207,74.9282 L835.782,74.9282 L835.782,281.8502 L1024,517.0682 L871.921,517.0682 L871.921,1013.8602 L152.079,1013.8602 L152.079,517.0682 L0,517.0682 L512,0 L512.000977,0 L512.001,0 Z M608.318,608.317 L299.089,608.317 C296.48939,608.317 294.34584,610.27403 294.05287,612.79552 L294.01869,613.38634 L294.01869,669.14804 C294.01869,671.74863 295.97572,673.8912 298.49721,674.18417 L299.08803,674.21835 L390.33123,674.21835 L390.336113,958.09935 C390.336113,960.69896 392.293143,962.84251 394.814633,963.13548 L395.405453,963.171599 L461.305853,963.171599 C463.906443,963.171599 466.049013,961.212629 466.341983,958.691139 L466.376163,958.100319 L466.37128,674.219319 L537.34098,674.219319 L537.345863,958.100319 C537.345863,960.699929 539.302893,962.843479 541.824383,963.136449 L542.415203,963.171599 L608.316603,963.171599 C610.916213,963.171599 613.058793,961.213599 613.351763,958.692109 L613.385943,958.101289 L613.38106,806.022289 L729.97506,806.022289 L729.980919,958.101289 C729.980919,960.701879 731.937949,962.844449 734.458459,963.137419 L735.049279,963.171599 L800.950679,963.171599 C803.550289,963.171599 805.693839,961.214569 805.986809,958.693079 L806.020989,958.102259 L806.020989,613.389259 C806.020989,610.789649 804.063959,608.646099 801.542469,608.353129 L800.951649,608.317 L735.050249,608.317 C732.450639,608.317 730.307089,610.275979 730.014119,612.797469 L729.980916,613.388289 L729.975056,745.190289 L613.381056,745.190289 L613.385939,613.388289 C613.385939,610.788679 611.428909,608.645129 608.908399,608.352159 L608.317579,608.317 L608.317579,608.317 L608.318,608.317 Z"></path>
  </g>
</svg>