<?xml version="1.0" standalone="no"?>
<!DOCTYPE svg PUBLIC "-//W3C//DTD SVG 1.1//EN" "http://www.w3.org/Graphics/SVG/1.1/DTD/svg11.dtd" >
<svg xmlns="http://www.w3.org/2000/svg" xmlns:xlink="http://www.w3.org/1999/xlink" version="1.1" viewBox="-10 0 1044 1024">
   <path fill="currentColor"
d="M282 321c-156 0 -282 126 -282 280c0 156 126 282 282 282c154 0 280 -126 280 -282v-80h-100v80c0 50 -20 96 -54 128c-32 32 -76 52 -126 52s-96 -20 -128 -52c-34 -32 -54 -78 -54 -128s20 -94 54 -128c32 -32 78 -52 128 -52h460c156 0 282 -126 282 -280
c0 -156 -126 -282 -282 -282c-154 0 -280 126 -280 282v80h100v-80c0 -50 20 -96 54 -128c32 -32 76 -52 126 -52s96 20 128 52c34 32 54 78 54 128s-20 94 -54 128c-32 32 -78 52 -128 52h-460z" />
</svg>
