<?xml version="1.0" encoding="UTF-8"?>
<svg width="1024px" height="1025px" viewBox="0 0 1024 1025" version="1.1" xmlns="http://www.w3.org/2000/svg" xmlns:xlink="http://www.w3.org/1999/xlink">
  <g id="Tracks" transform="translate(0, 0.0926)" fill="currentColor" fill-rule="nonzero">
    <path d="M282,462 C126,462 0,588 0,742 C0,898 126,1024 282,1024 C436,1024 562,898 562,742 L562,662 L462,662 L462,742 C462,792 442,838 408,870 C376,902 332,922 282,922 C232,922 186,902 154,870 C120,838 100,792 100,742 C100,692 120,648 154,614 C186,582 232,562 282,562 L742,562 C898,562 1024,436 1024,282 C1024,126 898,0 742,0 C588,0 462,126 462,282 L462,362 L562,362 L562,282 C562,232 582,186 616,154 C648,122 692,102 742,102 C792,102 838,122 870,154 C904,186 924,232 924,282 C924,332 904,376 870,410 C838,442 792,462 742,462 L282,462 Z"></path>
  </g>
</svg>