<?xml version="1.0" standalone="no"?>
<!DOCTYPE svg PUBLIC "-//W3C//DTD SVG 1.1//EN" "http://www.w3.org/Graphics/SVG/1.1/DTD/svg11.dtd" >
<svg xmlns="http://www.w3.org/2000/svg" xmlns:xlink="http://www.w3.org/1999/xlink" version="1.1" viewBox="-10 0 1043 1024">
   <path fill="currentColor"
d="M984.207 325.842c2.86719 -19.4863 3.96289 -38.5742 4.35156 -67.707c3.09277 -224.788 -192.194 -397.629 -409.947 -398.879c-53.2891 -0.347656 -79.9443 -0.347656 -133.253 0c-217.825 1.24902 -412.498 171.96 -409.938 398.879
c0.306641 28.5391 1.25977 48.6406 3.95312 68.2598c-27.9453 40.8584 -42.3223 95.2734 -36.2295 153.263l1.80273 17.2334c11.9707 114.033 98.3545 198.461 192.891 188.519l5.01855 -0.532227c64.543 121.037 178.738 197.612 309.053 198.104v0.0195312h0.296875
c10.5879 0 19.1689 -8.57129 19.1689 -19.1797v-68.1885c0 -10.5566 -8.58105 -19.1074 -19.1182 -19.1592v-0.142578c-132.424 0 -251.781 -161.925 -251.781 -324.874c0 -161.044 119.357 -325.693 251.249 -325.693v0.0205078h0.266602
c10.5879 0 19.1592 -8.57129 19.1592 -19.1904v-67.3477c0 -10.4863 -8.43848 -19.0049 -18.8936 -19.1592v-0.173828c-142.131 0.378906 -265.124 91.2588 -325.489 231.639l-34.1602 3.60449c-1.77246 0.194336 -3.47168 0.625 -5.22266 0.880859
c-7.88477 -170.312 149.033 -293.222 317.164 -294.154c42.998 -0.265625 64.4814 -0.265625 107.479 0c167.936 0.932617 312.678 124.211 307.261 294.595c-2.6416 -0.429688 -5.21191 -1.04395 -7.89551 -1.32031l-54.7324 -5.7041
c-0.173828 -0.03125 -0.337891 -0.0820312 -0.522461 -0.123047c-11.8779 -1.24902 -22.5381 7.35156 -23.7764 19.2305l-40.6846 387.277c-1.24902 11.8682 7.35254 22.5283 19.2314 23.7363c0.205078 0.0302734 0.347656 -0.0205078 0.542969 0v0.0820312l54.7119 5.74512
c94.5254 9.94238 180.89 -74.4863 192.87 -188.529l1.82324 -17.2344c6.12402 -58.2451 -8.42871 -112.876 -36.6494 -153.795z" />
</svg>
