<?xml version="1.0" encoding="UTF-8"?>
<svg width="1022px" height="1025px" viewBox="0 0 1022 1025" version="1.1" xmlns="http://www.w3.org/2000/svg" xmlns:xlink="http://www.w3.org/1999/xlink">
  <g id="TraxSource" transform="translate(0.7126, 0.6075)" fill="currentColor" fill-rule="nonzero">
    <path d="M982.446604,466.846742 C985.313794,447.360442 986.409494,428.272542 986.798164,399.139742 C989.890934,174.351742 794.604164,1.510742 576.851164,0.260742 C523.562064,-0.086914 496.906864,-0.086914 443.598164,0.260742 C225.773164,1.509762 31.1001642,172.220742 33.6601642,399.139742 C33.9668052,427.678842 34.9199342,447.780342 37.6132842,467.399542 C9.66798422,508.257942 -4.70901578,562.672942 1.38378422,620.662542 L3.18651422,637.895942 C15.1572142,751.928942 101.541014,836.356942 196.077514,826.414942 L201.096064,825.882715 C265.639064,946.919715 379.834064,1023.49472 510.149064,1023.98672 L510.149064,1024.00625 L510.445939,1024.00625 C521.033839,1024.00625 529.614839,1015.43496 529.614839,1004.82655 L529.614839,936.638046 C529.614839,926.081446 521.033789,917.530646 510.496639,917.478846 L510.496639,917.336268 C378.072639,917.336268 258.715639,755.411268 258.715639,592.462268 C258.715639,431.418268 378.072639,266.769268 509.964639,266.769268 L509.964639,266.789776 L510.231241,266.789776 C520.819141,266.789776 529.390441,258.218486 529.390441,247.599376 L529.390441,180.251676 C529.390441,169.765376 520.951961,161.246776 510.496841,161.092476 L510.496841,160.918648 C368.365841,161.297554 245.372841,252.177448 185.007841,392.557648 L150.847641,396.162138 C149.075181,396.356474 147.375961,396.787138 145.624981,397.042997 C137.740211,226.730997 294.657981,103.820997 462.788981,102.888997 C505.786981,102.623372 527.270381,102.623372 570.267981,102.888997 C738.203981,103.821614 882.945981,227.099997 877.528981,397.483997 C874.887381,397.054309 872.317071,396.440047 869.633471,396.163687 L814.901071,390.459587 C814.727243,390.428337 814.56318,390.377556 814.37861,390.33654 C802.50071,389.08752 791.84051,397.6881 790.60221,409.56704 L749.91761,796.84404 C748.66859,808.71224 757.27015,819.37234 769.14901,820.58034 C769.354088,820.610613 769.496666,820.559832 769.691979,820.58034 L769.691979,820.662371 L824.403879,826.407491 C918.929279,836.349871 1005.29388,751.921191 1017.27388,637.878491 L1019.09712,620.644091 C1025.22114,562.398991 1010.66841,507.768091 982.447719,466.849091 L982.446604,466.846742 Z"></path>
  </g>
</svg>