<?xml version="1.0" standalone="no"?>
<!DOCTYPE svg PUBLIC "-//W3C//DTD SVG 1.1//EN" "http://www.w3.org/Graphics/SVG/1.1/DTD/svg11.dtd" >
<svg xmlns="http://www.w3.org/2000/svg" xmlns:xlink="http://www.w3.org/1999/xlink" version="1.1" viewBox="-10 0 1044 1024">
   <path fill="currentColor"
d="M896 -141h-768c-70.7002 0 -128 57.2998 -128 128v768c0 70.7002 57.2998 128 128 128h768c70.7002 0 128 -57.2998 128 -128v-768c0 -70.7002 -57.2998 -128 -128 -128zM445.4 634.7c0 33.8994 -27.5 61.3994 -61.4004 61.3994h-189.5
c-33.9004 0 -61.4004 -27.5 -61.4004 -61.3994v-581.2c0 -33.9004 27.5 -61.4004 61.4004 -61.4004h189.5c33.9004 0 61.4004 27.5 61.4004 61.4004v581.2zM890.9 378.6c0 34 -27.5 61.5 -61.4004 61.5h-189.5c-33.9004 0 -61.4004 -27.5 -61.4004 -61.5v-325
c0 -34 27.5 -61.5 61.4004 -61.5h189.5c33.9004 0 61.4004 27.5 61.4004 61.5v325z" />
</svg>
