<?xml version="1.0" encoding="UTF-8"?>
<svg width="1024px" height="1025px" viewBox="0 0 1024 1025" version="1.1" xmlns="http://www.w3.org/2000/svg" xmlns:xlink="http://www.w3.org/1999/xlink">
  <g id="Trello" transform="translate(0, 0.0926)" fill="currentColor" fill-rule="nonzero">
    <path d="M896,0 L128,0 C57.2998,0 0,57.2998 0,128 L0,896 C0,966.7002 57.2998,1024 128,1024 L896,1024 C966.7002,1024 1024,966.7002 1024,896 L1024,128 C1024,57.2998 966.7002,0 896,0 Z M445.4,775.7 C445.4,809.5994 417.9,837.0994 383.9996,837.0994 L194.4996,837.0994 C160.5992,837.0994 133.0992,809.5994 133.0992,775.7 L133.0992,194.5 C133.0992,160.5996 160.5992,133.0996 194.4996,133.0996 L383.9996,133.0996 C417.9,133.0996 445.4,160.5996 445.4,194.5 L445.4,775.7 Z M890.9,519.6 C890.9,553.6 863.4,581.1 829.4996,581.1 L639.9996,581.1 C606.0992,581.1 578.5992,553.6 578.5992,519.6 L578.5992,194.6 C578.5992,160.6 606.0992,133.1 639.9996,133.1 L829.4996,133.1 C863.4,133.1 890.9,160.6 890.9,194.6 L890.9,519.6 Z"></path>
  </g>
</svg>