<?xml version="1.0" encoding="UTF-8"?>
<svg width="1024px" height="605px" viewBox="0 0 1024 605" version="1.1" xmlns="http://www.w3.org/2000/svg" xmlns:xlink="http://www.w3.org/1999/xlink">
  <g id="TripAdvisor" transform="translate(0, 0.0926)" fill="currentColor" fill-rule="nonzero">
    <path d="M300,346 C300,368 282,388 258,388 C236,388 216,368 216,346 C216,322 236,304 258,304 C282,304 300,322 300,346 Z M808,346 C808,368 788,388 766,388 C742,388 724,368 724,346 C724,322 742,304 766,304 C788,304 808,322 808,346 Z M258,222 C226,222 194,234 170,258 C148,282 134,312 134,346 C134,378 148,410 170,434 C194,456 226,470 258,470 C328,470 382,414 382,346 C382,278 328,222 258,222 Z M258,432 C236,432 214,422 198,406 C182,390 172,368 172,346 C172,322 182,300 198,284 C214,268 236,260 258,260 C306,260 344,298 344,346 C344,394 306,432 258,432 Z M766,222 C732,222 702,234 678,258 C654,282 642,312 642,346 C642,378 654,410 678,434 C702,456 732,470 766,470 C834,470 890,414 890,346 C890,278 834,222 766,222 Z M766,432 C742,432 720,422 704,406 C688,390 680,368 680,346 C680,322 688,300 704,284 C720,268 742,260 766,260 C812,260 852,298 852,346 C852,394 812,432 766,432 Z M966,182 C976,152 990,118 1010,98 L842,98 C838,98 836,96 832,96 C824,82 760,0 508,0 C230,0 182,98 182,98 L4,98 C26,118 42,160 52,190 C20,234 0,288 0,346 C0,488 116,604 258,604 C338,604 408,568 456,512 L514,594 L566,510 C612,568 684,604 766,604 C908,604 1024,488 1024,346 C1024,284 1002,226 966,182 Z M258,554 C144,554 50,460 50,346 C50,230 144,138 258,138 C374,138 466,230 466,346 C466,460 374,554 258,554 Z M262,102 C262,102 328,26 506,26 L524,26 C700,26 768,102 768,102 C768,102 578,70 514,304 C452,70 262,102 262,102 Z M766,554 C650,554 558,460 558,346 C558,230 650,138 766,138 C880,138 974,230 974,346 C974,460 880,554 766,554 Z"></path>
  </g>
</svg>