<?xml version="1.0" encoding="UTF-8"?>
<svg width="994px" height="1025px" viewBox="0 0 994 1025" version="1.1" xmlns="http://www.w3.org/2000/svg" xmlns:xlink="http://www.w3.org/1999/xlink">
  <g id="TripleJ" transform="translate(0.2472, 0.6137)" fill="currentColor" fill-rule="nonzero">
    <path d="M350.5,85.9790107 C376.5,145.979011 402.5,205.979011 430.5,265.979011 C432.5,271.979011 438.5,295.979011 448.5,291.979011 C468.5,283.979011 464.5,285.979011 458.5,265.979011 C448.5,235.979011 436.5,207.979011 428.5,179.979011 C412.5,135.979011 392.5,91.9790107 378.5,47.9790107 C374.5,35.9790107 360.5,-10.0209893 340.5,1.97901075 C308.5,19.9790107 340.5,61.9790107 350.5,85.9790107 C354.5,93.9790107 346.5,75.9790107 350.5,85.9790107 Z M700.5,389.979011 C678.5,389.979011 668.5,423.979011 686.5,435.979011 C692.5,439.979011 698.5,441.979011 700.5,441.979011 C710.5,441.979011 726.5,425.979011 726.5,413.979011 C726.5,407.979011 736.5,393.979011 762.5,365.979011 C782.5,345.979011 822.5,303.979011 852.5,273.979011 C880.5,243.979011 922.5,199.979011 944.5,175.979011 C996.5,121.979011 996.5,121.979011 990.5,109.979011 C988.5,103.979011 980.5,97.9790107 974.5,97.9790107 C972.5,95.9790107 972.5,95.9790107 970.5,95.9790107 C962.5,97.9790107 952.5,107.979011 916.5,149.979011 C906.5,161.979011 890.5,179.979011 882.5,189.979011 C874.5,197.979011 856.5,217.979011 844.5,233.979011 C830.5,247.979011 810.5,271.979011 800.5,283.979011 C764.5,323.979011 744.5,347.979011 726.5,369.979011 C714.5,383.979011 706.5,389.979011 700.5,389.979011 Z M696.5,585.979011 C752.5,561.979011 820.5,513.979011 842.5,481.979011 C848.5,475.979011 854.5,467.979011 856.5,463.979011 C874.5,443.979011 886.5,395.979011 878.5,367.979011 C874.5,349.979011 854.5,317.979011 846.5,317.979011 C840.5,317.979011 790.5,373.979011 788.5,381.979011 C784.5,397.979011 792.5,401.979011 822.5,401.979011 C852.5,401.979011 850.5,405.979011 816.5,417.979011 C772.5,433.979011 766.5,447.979011 782.5,481.979011 C786.5,491.979011 790.5,499.979011 788.5,499.979011 C788.5,501.979011 778.5,499.979011 768.5,495.979011 C744.5,489.979011 734.5,487.979011 720.5,493.979011 C708.5,499.979011 690.5,533.979011 690.5,547.979011 C690.5,553.979011 688.5,557.979011 686.5,559.979011 C680.5,561.979011 674.5,545.979011 674.5,531.979011 C674.5,527.979011 668.5,515.979011 660.5,507.979011 C646.5,491.979011 646.5,491.979011 620.5,491.979011 C606.5,491.979011 588.5,493.979011 578.5,495.979011 L562.5,497.979011 L586.5,473.979011 C606.5,453.979011 610.5,449.979011 610.5,433.979011 C610.5,413.979011 600.5,399.979011 578.5,381.979011 L566.5,369.979011 L582.5,373.979011 C638.5,383.979011 664.5,367.979011 672.5,315.979011 C672.5,305.979011 676.5,297.979011 676.5,297.979011 C678.5,297.979011 684.5,307.979011 688.5,317.979011 C700.5,343.979011 708.5,349.979011 724.5,337.979011 C736.5,329.979011 770.5,291.979011 772.5,283.979011 C776.5,273.979011 726.5,267.979011 670.5,267.979011 C626.5,267.979011 578.5,271.979011 550.5,277.979011 C490.5,293.979011 476.5,297.979011 478.5,305.979011 C480.5,309.979011 484.5,319.979011 488.5,327.979011 C496.5,353.979011 502.5,365.979011 506.5,365.979011 C512.5,365.979011 528.5,387.979011 528.5,393.979011 C528.5,397.979011 524.5,405.979011 518.5,411.979011 C506.5,423.979011 490.5,425.979011 476.5,413.979011 C470.5,405.979011 468.5,401.979011 470.5,389.979011 C472.5,373.979011 468.5,363.979011 448.5,319.979011 L444.5,311.979011 L414.5,325.979011 C326.5,369.979011 270.5,423.979011 252.5,485.979011 C248.5,493.979011 248.5,503.979011 248.5,503.979011 C250.5,503.979011 282.5,505.979011 320.5,507.979011 C382.5,509.979011 394.5,509.979011 400.5,505.979011 C412.5,495.979011 420.5,493.979011 434.5,499.979011 C448.5,505.979011 450.5,513.979011 448.5,529.979011 C446.5,547.979011 416.5,557.979011 402.5,543.979011 C396.5,537.979011 388.5,537.979011 326.5,539.979011 C290.5,539.979011 258.5,541.979011 256.5,543.979011 C254.5,547.979011 268.5,569.979011 284.5,583.979011 C314.5,609.979011 360.5,627.979011 422.5,633.979011 C498.5,641.979011 610.5,621.979011 696.5,585.979011 Z M934.5,667.979011 C932.5,645.979011 928.5,609.979011 924.5,589.979011 C922.5,569.979011 918.5,537.979011 916.5,521.979011 C914.5,499.979011 912.5,489.979011 910.5,489.979011 C908.5,489.979011 906.5,493.979011 904.5,503.979011 C902.5,523.979011 878.5,643.979011 874.5,649.979011 C874.5,651.979011 870.5,667.979011 868.5,683.979011 C864.5,697.979011 860.5,719.979011 858.5,731.979011 C856.5,741.979011 850.5,769.979011 846.5,791.979011 C836.5,839.979011 830.5,859.979011 826.5,859.979011 C824.5,859.979011 778.5,817.979011 724.5,765.979011 L628.5,669.979011 L620.5,683.979011 C616.5,693.979011 612.5,707.979011 610.5,717.979011 C610.5,727.979011 606.5,737.979011 604.5,741.979011 C602.5,743.979011 596.5,767.979011 588.5,793.979011 C582.5,817.979011 574.5,847.979011 570.5,857.979011 C568.5,869.979011 562.5,889.979011 558.5,905.979011 C550.5,937.979011 544.5,939.979011 524.5,917.979011 C506.5,897.979011 456.5,839.979011 450.5,833.979011 C448.5,831.979011 436.5,819.979011 424.5,805.979011 C412.5,791.979011 398.5,775.979011 394.5,771.979011 C390.5,765.979011 374.5,749.979011 360.5,733.979011 C346.5,717.979011 332.5,701.979011 330.5,699.979011 C328.5,697.979011 316.5,685.979011 306.5,673.979011 C286.5,651.979011 284.5,653.979011 296.5,683.979011 C300.5,693.979011 308.5,709.979011 310.5,717.979011 C314.5,725.979011 318.5,735.979011 322.5,743.979011 C328.5,753.979011 334.5,769.979011 350.5,807.979011 C354.5,815.979011 360.5,827.979011 362.5,833.979011 C366.5,845.979011 378.5,869.979011 388.5,893.979011 C408.5,941.979011 414.5,951.979011 432.5,969.979011 C456.5,991.979011 492.5,1009.97901 530.5,1017.97901 C590.5,1029.97901 672.5,1023.97901 738.5,1001.97901 C804.5,981.979011 846.5,955.979011 888.5,913.979011 C922.5,879.979011 922.5,879.979011 934.5,855.979011 C948.5,829.979011 950.5,805.979011 944.5,753.979011 C942.5,727.979011 936.5,689.979011 934.5,667.979011 Z M214.5,507.979011 C206.5,505.979011 174.5,505.979011 138.5,505.979011 C80.5,505.979011 6.5,507.979011 4.5,509.979011 C-1.5,517.979011 -1.5,535.979011 4.5,541.979011 C8.5,545.979011 30.5,545.979011 118.5,543.979011 C180.5,541.979011 230.5,539.979011 230.5,539.979011 C232.5,539.979011 232.5,531.979011 230.5,523.979011 C228.5,513.979011 226.5,509.979011 214.5,507.979011 Z"></path>
  </g>
</svg>