<?xml version="1.0" standalone="no"?>
<!DOCTYPE svg PUBLIC "-//W3C//DTD SVG 1.1//EN" "http://www.w3.org/Graphics/SVG/1.1/DTD/svg11.dtd" >
<svg xmlns="http://www.w3.org/2000/svg" xmlns:xlink="http://www.w3.org/1999/xlink" version="1.1" viewBox="-10 0 1044 1024">
   <path fill="currentColor"
d="M300 415c0 22 -18 42 -42 42c-22 0 -42 -20 -42 -42c0 -24 20 -42 42 -42c24 0 42 18 42 42zM808 415c0 22 -20 42 -42 42c-24 0 -42 -20 -42 -42c0 -24 18 -42 42 -42c22 0 42 18 42 42zM258 291c-32 0 -64 12 -88 36c-22 24 -36 54 -36 88c0 32 14 64 36 88
c24 22 56 36 88 36c70 0 124 -56 124 -124s-54 -124 -124 -124zM258 501c-22 0 -44 -10 -60 -26s-26 -38 -26 -60c0 -24 10 -46 26 -62s38 -24 60 -24c48 0 86 38 86 86s-38 86 -86 86zM766 291c-34 0 -64 12 -88 36s-36 54 -36 88c0 32 12 64 36 88c24 22 54 36 88 36
c68 0 124 -56 124 -124s-56 -124 -124 -124zM766 501c-24 0 -46 -10 -62 -26s-24 -38 -24 -60c0 -24 8 -46 24 -62s38 -24 62 -24c46 0 86 38 86 86s-40 86 -86 86zM966 251c10 -30 24 -64 44 -84h-168c-4 0 -6 -2 -10 -2c-8 -14 -72 -96 -324 -96c-278 0 -326 98 -326 98
h-178c22 20 38 62 48 92c-32 44 -52 98 -52 156c0 142 116 258 258 258c80 0 150 -36 198 -92l58 82l52 -84c46 58 118 94 200 94c142 0 258 -116 258 -258c0 -62 -22 -120 -58 -164zM258 623c-114 0 -208 -94 -208 -208c0 -116 94 -208 208 -208c116 0 208 92 208 208
c0 114 -92 208 -208 208zM262 171c0 0 66 -76 244 -76h18c176 0 244 76 244 76s-190 -32 -254 202c-62 -234 -252 -202 -252 -202zM766 623c-116 0 -208 -94 -208 -208c0 -116 92 -208 208 -208c114 0 208 92 208 208c0 114 -94 208 -208 208z" />
</svg>
