<?xml version="1.0" standalone="no"?>
<!DOCTYPE svg PUBLIC "-//W3C//DTD SVG 1.1//EN" "http://www.w3.org/Graphics/SVG/1.1/DTD/svg11.dtd" >
<svg xmlns="http://www.w3.org/2000/svg" xmlns:xlink="http://www.w3.org/1999/xlink" version="1.1" viewBox="-11 0 1045 1024">
   <path fill="currentColor"
d="M484 445l-362 -4c-6 0 -10 0 -14 4s-6 8 -10 12s-16 14 -26 18c-22 4 -44 0 -60 -14c-14 -14 -16 -36 -6 -54c16 -30 62 -40 90 -18c8 8 14 16 16 28c0 4 2 4 6 4l368 -4c6 0 4 0 4 4v20c0 4 -2 4 -6 4zM662 445c10 -28 -2 -58 -24 -74c-38 -24 -92 -12 -116 24
c-14 22 -16 48 -2 70c14 20 38 28 62 30c-2 0 -2 0 4 0c10 0 8 0 4 0c32 -2 62 -22 72 -50zM984 383c-24 -2 -46 12 -52 34c-2 4 -2 4 -6 4l-238 -2c-2 0 -2 6 -2 8c0 4 0 8 -2 12c0 4 0 4 4 4l240 -4c4 2 6 12 8 16c4 4 8 10 12 14c10 8 24 10 36 8c22 -2 40 -22 40 -46
s-16 -44 -40 -48zM578 273c4 0 4 2 4 6l-4 56c-2 4 2 6 6 6c6 -2 12 -2 18 0c4 0 4 -2 4 -6c0 -18 -2 -38 -2 -58c0 -6 8 -6 14 -8c4 -4 10 -8 14 -12c8 -8 12 -20 12 -34c2 -22 -12 -42 -34 -50c-20 -8 -44 0 -58 18c-22 28 -10 70 26 82zM830 233c0 2 2 2 2 2s-2 0 -2 -2z
M666 369c2 4 6 8 8 10c2 4 6 2 8 0l122 -78c2 0 4 2 8 4c12 6 28 6 40 -4c28 -22 12 -66 -22 -68c-24 0 -42 22 -38 46c2 4 0 6 -2 6c-44 24 -86 50 -128 76c-4 4 2 6 4 8zM388 531v0zM512 487c-4 -4 -6 -8 -8 -10c-2 -4 -4 -4 -6 -2c-14 10 -28 18 -44 28c-2 2 -4 2 -6 0
c-12 -10 -26 -12 -40 -4c-12 6 -20 18 -20 32c-2 26 24 44 46 38c20 -6 32 -24 28 -42c0 -4 0 -4 4 -6c16 -8 32 -18 48 -28c4 -2 0 -4 -2 -6zM398 317c2 0 4 -2 6 -2c4 0 6 2 8 4l86 68c4 2 4 2 6 -2c4 -4 8 -10 12 -14s-4 -6 -8 -8l-82 -60c-6 -4 -12 -6 -10 -14v-2
c-2 -28 -42 -38 -56 -12c-6 12 -4 28 6 36c8 8 20 12 32 6zM690 491c-8 2 -12 0 -18 -6c-2 0 -2 -2 -4 -2c-2 -4 -4 -4 -8 0c-2 2 -6 6 -10 8c-2 2 -2 2 2 4c4 4 10 6 16 10c4 2 2 6 2 10s0 8 2 12c4 6 10 12 20 12c14 2 24 -10 24 -24v0v0c0 -14 -12 -26 -26 -24z" />
</svg>
