<?xml version="1.0" standalone="no"?>
<!DOCTYPE svg PUBLIC "-//W3C//DTD SVG 1.1//EN" "http://www.w3.org/Graphics/SVG/1.1/DTD/svg11.dtd" >
<svg xmlns="http://www.w3.org/2000/svg" xmlns:xlink="http://www.w3.org/1999/xlink" version="1.1" viewBox="-10 0 1034 1024">
   <path fill="currentColor"
d="M366 -55c26 60 52 120 80 180c2 6 8 30 18 26c20 -8 16 -6 10 -26c-10 -30 -22 -58 -30 -86c-16 -44 -36 -88 -50 -132c-4 -12 -18 -58 -38 -46c-32 18 0 60 10 84c4 8 -4 -10 0 0zM716 249c-22 0 -32 34 -14 46c6 4 12 6 14 6c10 0 26 -16 26 -28c0 -6 10 -20 36 -48
c20 -20 60 -62 90 -92c28 -30 70 -74 92 -98c52 -54 52 -54 46 -66c-2 -6 -10 -12 -16 -12c-2 -2 -2 -2 -4 -2c-8 2 -18 12 -54 54c-10 12 -26 30 -34 40c-8 8 -26 28 -38 44c-14 14 -34 38 -44 50c-36 40 -56 64 -74 86c-12 14 -20 20 -26 20zM712 445
c56 -24 124 -72 146 -104c6 -6 12 -14 14 -18c18 -20 30 -68 22 -96c-4 -18 -24 -50 -32 -50c-6 0 -56 56 -58 64c-4 16 4 20 34 20s28 4 -6 16c-44 16 -50 30 -34 64c4 10 8 18 6 18c0 2 -10 0 -20 -4c-24 -6 -34 -8 -48 -2c-12 6 -30 40 -30 54c0 6 -2 10 -4 12
c-6 2 -12 -14 -12 -28c0 -4 -6 -16 -14 -24c-14 -16 -14 -16 -40 -16c-14 0 -32 2 -42 4l-16 2l24 -24c20 -20 24 -24 24 -40c0 -20 -10 -34 -32 -52l-12 -12l16 4c56 10 82 -6 90 -58c0 -10 4 -18 4 -18c2 0 8 10 12 20c12 26 20 32 36 20c12 -8 46 -46 48 -54
c4 -10 -46 -16 -102 -16c-44 0 -92 4 -120 10c-60 16 -74 20 -72 28c2 4 6 14 10 22c8 26 14 38 18 38c6 0 22 22 22 28c0 4 -4 12 -10 18c-12 12 -28 14 -42 2c-6 -8 -8 -12 -6 -24c2 -16 -2 -26 -22 -70l-4 -8l-30 14c-88 44 -144 98 -162 160c-4 8 -4 18 -4 18
c2 0 34 2 72 4c62 2 74 2 80 -2c12 -10 20 -12 34 -6s16 14 14 30c-2 18 -32 28 -46 14c-6 -6 -14 -6 -76 -4c-36 0 -68 2 -70 4c-2 4 12 26 28 40c30 26 76 44 138 50c76 8 188 -12 274 -48zM950 527c-2 -22 -6 -58 -10 -78c-2 -20 -6 -52 -8 -68c-2 -22 -4 -32 -6 -32
s-4 4 -6 14c-2 20 -26 140 -30 146c0 2 -4 18 -6 34c-4 14 -8 36 -10 48c-2 10 -8 38 -12 60c-10 48 -16 68 -20 68c-2 0 -48 -42 -102 -94l-96 -96l-8 14c-4 10 -8 24 -10 34c0 10 -4 20 -6 24c-2 2 -8 26 -16 52c-6 24 -14 54 -18 64c-2 12 -8 32 -12 48
c-8 32 -14 34 -34 12c-18 -20 -68 -78 -74 -84c-2 -2 -14 -14 -26 -28s-26 -30 -30 -34c-4 -6 -20 -22 -34 -38s-28 -32 -30 -34s-14 -14 -24 -26c-20 -22 -22 -20 -10 10c4 10 12 26 14 34c4 8 8 18 12 26c6 10 12 26 28 64c4 8 10 20 12 26c4 12 16 36 26 60
c20 48 26 58 44 76c24 22 60 40 98 48c60 12 142 6 208 -16c66 -20 108 -46 150 -88c34 -34 34 -34 46 -58c14 -26 16 -50 10 -102c-2 -26 -8 -64 -10 -86zM230 367c-8 -2 -40 -2 -76 -2c-58 0 -132 2 -134 4c-6 8 -6 26 0 32c4 4 26 4 114 2c62 -2 112 -4 112 -4
c2 0 2 -8 0 -16c-2 -10 -4 -14 -16 -16z" />
</svg>
