<svg viewBox="0 0 1024 1024" fill="currentColor" xmlns="http://www.w3.org/2000/svg"><path d="M366 86c26 60 52 120 80 180 2 6 8 30 18 26 20-8 16-6 10-26-10-30-22-58-30-86-16-44-36-88-50-132-4-12-18-58-38-46-32 18 0 60 10 84 4 8-4-10 0 0zM716 390c-22 0-32 34-14 46 6 4 12 6 14 6 10 0 26-16 26-28 0-6 10-20 36-48 20-20 60-62 90-92 28-30 70-74 92-98 52-54 52-54 46-66-2-6-10-12-16-12-2-2-2-2-4-2-8 2-18 12-54 54-10 12-26 30-34 40-8 8-26 28-38 44-14 14-34 38-44 50-36 40-56 64-74 86-12 14-20 20-26 20zM712 586c56-24 124-72 146-104 6-6 12-14 14-18 18-20 30-68 22-96-4-18-24-50-32-50-6 0-56 56-58 64-4 16 4 20 34 20s28 4-6 16c-44 16-50 30-34 64 4 10 8 18 6 18 0 2-10 0-20-4-24-6-34-8-48-2-12 6-30 40-30 54 0 6-2 10-4 12-6 2-12-14-12-28 0-4-6-16-14-24-14-16-14-16-40-16-14 0-32 2-42 4l-16 2 24-24c20-20 24-24 24-40 0-20-10-34-32-52l-12-12 16 4c56 10 82-6 90-58 0-10 4-18 4-18 2 0 8 10 12 20 12 26 20 32 36 20 12-8 46-46 48-54 4-10-46-16-102-16-44 0-92 4-120 10-60 16-74 20-72 28 2 4 6 14 10 22 8 26 14 38 18 38 6 0 22 22 22 28 0 4-4 12-10 18-12 12-28 14-42 2-6-8-8-12-6-24 2-16-2-26-22-70l-4-8-30 14c-88 44-144 98-162 160-4 8-4 18-4 18 2 0 34 2 72 4 62 2 74 2 80-2 12-10 20-12 34-6s16 14 14 30c-2 18-32 28-46 14-6-6-14-6-76-4-36 0-68 2-70 4-2 4 12 26 28 40 30 26 76 44 138 50 76 8 188-12 274-48zM950 668c-2-22-6-58-10-78-2-20-6-52-8-68-2-22-4-32-6-32s-4 4-6 14c-2 20-26 140-30 146 0 2-4 18-6 34-4 14-8 36-10 48-2 10-8 38-12 60-10 48-16 68-20 68-2 0-48-42-102-94l-96-96-8 14c-4 10-8 24-10 34 0 10-4 20-6 24-2 2-8 26-16 52-6 24-14 54-18 64-2 12-8 32-12 48-8 32-14 34-34 12-18-20-68-78-74-84-2-2-14-14-26-28s-26-30-30-34c-4-6-20-22-34-38s-28-32-30-34c-2-2-14-14-24-26-20-22-22-20-10 10 4 10 12 26 14 34 4 8 8 18 12 26 6 10 12 26 28 64 4 8 10 20 12 26 4 12 16 36 26 60 20 48 26 58 44 76 24 22 60 40 98 48 60 12 142 6 208-16 66-20 108-46 150-88 34-34 34-34 46-58 14-26 16-50 10-102-2-26-8-64-10-86zM230 508c-8-2-40-2-76-2-58 0-132 2-134 4-6 8-6 26 0 32 4 4 26 4 114 2 62-2 112-4 112-4 2 0 2-8 0-16-2-10-4-14-16-16z" /></svg>
