<?xml version="1.0" encoding="UTF-8"?>
<svg width="1025px" height="401px" viewBox="0 0 1025 401" version="1.1" xmlns="http://www.w3.org/2000/svg" xmlns:xlink="http://www.w3.org/1999/xlink">
  <g id="Tripit" transform="translate(0.5433, 0.0684)" fill="currentColor" fill-rule="nonzero">
    <path d="M484.25,275.101037 L122.25,271.101037 C116.25,271.101037 112.25,271.101037 108.25,275.101037 C104.25,279.101037 102.25,283.101037 98.25,287.101037 C94.25,291.101037 82.25,301.101037 72.25,305.101037 C50.25,309.101037 28.25,305.101037 12.25,291.101037 C-1.75,277.101037 -3.75,255.101037 6.25,237.101037 C22.25,207.101037 68.25,197.101037 96.25,219.101037 C104.25,227.101037 110.25,235.101037 112.25,247.101037 C112.25,251.101037 114.25,251.101037 118.25,251.101037 L486.25,247.101037 C492.25,247.101037 490.25,247.101037 490.25,251.101037 L490.25,271.101037 C490.25,275.101037 488.25,275.101037 484.25,275.101037 Z M662.25,275.101037 C672.25,247.101037 660.25,217.101037 638.25,201.101037 C600.25,177.101037 546.25,189.101037 522.25,225.101037 C508.25,247.101037 506.25,273.101037 520.25,295.101037 C534.25,315.101037 558.25,323.101037 582.25,325.101037 C580.25,325.101037 580.25,325.101037 586.25,325.101037 C596.25,325.101037 594.25,325.101037 590.25,325.101037 C622.25,323.101037 652.25,303.101037 662.25,275.101037 Z M984.25,213.101037 C960.25,211.101037 938.25,225.101037 932.25,247.101037 C930.25,251.101037 930.25,251.101037 926.25,251.101037 L688.25,249.101037 C686.25,249.101037 686.25,255.101037 686.25,257.101037 C686.25,261.101037 686.25,265.101037 684.25,269.101037 C684.25,273.101037 684.25,273.101037 688.25,273.101037 L928.25,269.101037 C932.25,271.101037 934.25,281.101037 936.25,285.101037 C940.25,289.101037 944.25,295.101037 948.25,299.101037 C958.25,307.101037 972.25,309.101037 984.25,307.101037 C1006.25,305.101037 1024.25,285.101037 1024.25,261.101037 C1024.25,237.101037 1008.25,217.101037 984.25,213.101037 Z M578.25,103.101037 C582.25,103.101037 582.25,105.101037 582.25,109.101037 L578.25,165.101037 C576.25,169.101037 580.25,171.101037 584.25,171.101037 C590.25,169.101037 596.25,169.101037 602.25,171.101037 C606.25,171.101037 606.25,169.101037 606.25,165.101037 C606.25,147.101037 604.25,127.101037 604.25,107.101037 C604.25,101.101037 612.25,101.101037 618.25,99.1010367 C622.25,95.1010367 628.25,91.1010367 632.25,87.1010367 C640.25,79.1010367 644.25,67.1010367 644.25,53.1010367 C646.25,31.1010367 632.25,11.1010367 610.25,3.10103673 C590.25,-4.89896327 566.25,3.10103673 552.25,21.1010367 C530.25,49.1010367 542.25,91.1010367 578.25,103.101037 Z M830.25,63.1010367 C830.25,65.1010367 832.25,65.1010367 832.25,65.1010367 C832.25,65.1010367 830.25,65.1010367 830.25,63.1010367 Z M666.25,199.101037 C668.25,203.101037 672.25,207.101037 674.25,209.101037 C676.25,213.101037 680.25,211.101037 682.25,209.101037 L804.25,131.101037 C806.25,131.101037 808.25,133.101037 812.25,135.101037 C824.25,141.101037 840.25,141.101037 852.25,131.101037 C880.25,109.101037 864.25,65.1010367 830.25,63.1010367 C806.25,63.1010367 788.25,85.1010367 792.25,109.101037 C794.25,113.101037 792.25,115.101037 790.25,115.101037 C746.25,139.101037 704.25,165.101037 662.25,191.101037 C658.25,195.101037 664.25,197.101037 666.25,199.101037 Z M512.25,317.101037 C508.25,313.101037 506.25,309.101037 504.25,307.101037 C502.25,303.101037 500.25,303.101037 498.25,305.101037 C484.25,315.101037 470.25,323.101037 454.25,333.101037 C452.25,335.101037 450.25,335.101037 448.25,333.101037 C436.25,323.101037 422.25,321.101037 408.25,329.101037 C396.25,335.101037 388.25,347.101037 388.25,361.101037 C386.25,387.101037 412.25,405.101037 434.25,399.101037 C454.25,393.101037 466.25,375.101037 462.25,357.101037 C462.25,353.101037 462.25,353.101037 466.25,351.101037 C482.25,343.101037 498.25,333.101037 514.25,323.101037 C518.25,321.101037 514.25,319.101037 512.25,317.101037 Z M398.25,147.101037 C400.25,147.101037 402.25,145.101037 404.25,145.101037 C408.25,145.101037 410.25,147.101037 412.25,149.101037 L498.25,217.101037 C502.25,219.101037 502.25,219.101037 504.25,215.101037 C508.25,211.101037 512.25,205.101037 516.25,201.101037 C520.25,197.101037 512.25,195.101037 508.25,193.101037 L426.25,133.101037 C420.25,129.101037 414.25,127.101037 416.25,119.101037 L416.25,117.101037 C414.25,89.1010367 374.25,79.1010367 360.25,105.101037 C354.25,117.101037 356.25,133.101037 366.25,141.101037 C374.25,149.101037 386.25,153.101037 398.25,147.101037 Z M690.25,321.101037 C682.25,323.101037 678.25,321.101037 672.25,315.101037 C670.25,315.101037 670.25,313.101037 668.25,313.101037 C666.25,309.101037 664.25,309.101037 660.25,313.101037 C658.25,315.101037 654.25,319.101037 650.25,321.101037 C648.25,323.101037 648.25,323.101037 652.25,325.101037 C656.25,329.101037 662.25,331.101037 668.25,335.101037 C672.25,337.101037 670.25,341.101037 670.25,345.101037 C670.25,349.101037 670.25,353.101037 672.25,357.101037 C676.25,363.101037 682.25,369.101037 692.25,369.101037 C706.25,371.101037 716.25,359.101037 716.25,345.101037 L716.25,345.101037 L716.25,345.101037 C716.25,331.101037 704.25,319.101037 690.25,321.101037 Z"></path>
  </g>
</svg>