<?xml version="1.0" encoding="UTF-8"?>
<svg width="538px" height="1026px" viewBox="0 0 538 1026" version="1.1" xmlns="http://www.w3.org/2000/svg" xmlns:xlink="http://www.w3.org/1999/xlink">
  <g id="Trulia" transform="translate(0.8407, 0.4253)" fill="currentColor" fill-rule="nonzero">
    <path d="M267.264,0 C104.448,1.02441 0,109.568 0,275.456 C0,411.648 89.0879,528.384 140.288,706.56 C168.9599,807.936 185.3437,932.865 193.536,1025.025 L343.04,1025.025 C351.23141,932.8648 366.5918,808.961 396.288,706.56 C447.4872,529.409 536.575,412.672 536.575,275.456 C534.52715,109.568 430.08,1.024 267.263,0 L267.264,0 Z M268.288,419.84 C200.704,419.84 145.407,364.5441 145.407,296.96 C145.407,229.3759 200.7039,174.08 268.288,174.08 C335.8721,174.08 391.168,229.3759 391.168,296.96 C391.168,364.5441 335.8721,419.84 268.288,419.84 Z"></path>
  </g>
</svg>