<?xml version="1.0" encoding="UTF-8"?>
<svg width="633px" height="1025px" viewBox="0 0 633 1025" version="1.1" xmlns="http://www.w3.org/2000/svg" xmlns:xlink="http://www.w3.org/1999/xlink">
  <g id="Tumblr" transform="translate(0.3289, 0.4253)" fill="currentColor" fill-rule="nonzero">
    <path d="M0,420 L0,274 C40,262 76,242 104,218 C132,194 156,164 172,130 C190,96 202,52 208,0 L354,0 L354,258 L598,258 L598,420 L354,420 L354,682 C354,742 358,780 364,796 C370,814 382,826 398,836 C422,850 448,858 476,858 C528,858 580,840 632,806 L632,968 C588,988 548,1004 512,1012 C478,1020 438,1024 398,1024 C350,1024 310,1018 274,1006 C238,994 206,978 182,956 C156,934 138,910 128,886 C118,862 114,826 114,778 L114,420 L0,420 Z"></path>
  </g>
</svg>