<?xml version="1.0" standalone="no"?>
<!DOCTYPE svg PUBLIC "-//W3C//DTD SVG 1.1//EN" "http://www.w3.org/Graphics/SVG/1.1/DTD/svg11.dtd" >
<svg xmlns="http://www.w3.org/2000/svg" xmlns:xlink="http://www.w3.org/1999/xlink" version="1.1" viewBox="-10 0 1034 1024">
   <path fill="currentColor"
d="M196 279v-146c40 -12 76 -32 104 -56s52 -54 68 -88c18 -34 30 -78 36 -130h146v258h244v162h-244v262c0 60 4 98 10 114c6 18 18 30 34 40c24 14 50 22 78 22c52 0 104 -18 156 -52v162c-44 20 -84 36 -120 44c-34 8 -74 12 -114 12c-48 0 -88 -6 -124 -18
s-68 -28 -92 -50c-26 -22 -44 -46 -54 -70s-14 -60 -14 -108v-358h-114z" />
</svg>
