<?xml version="1.0" standalone="no"?>
<!DOCTYPE svg PUBLIC "-//W3C//DTD SVG 1.1//EN" "http://www.w3.org/Graphics/SVG/1.1/DTD/svg11.dtd" >
<svg xmlns="http://www.w3.org/2000/svg" xmlns:xlink="http://www.w3.org/1999/xlink" version="1.1" viewBox="-10 0 1034 1024">
   <path fill="currentColor"
d="M34.8164 264.504c0 -9.21582 7.16797 -16.3838 16.3838 -16.3838h453.632c81.9199 0 148.479 66.5596 148.479 148.479v132.097c0 9.21582 -7.16797 16.3838 -16.3838 16.3838h-1.02344h-453.632c-81.9209 0 -148.48 -66.5605 -148.48 -148.48v-132.096h1.02441z
M843.776 248.12h130.048c9.21582 0 16.3838 7.16797 16.3838 16.3838v132.096c0 81.9199 -66.5596 148.48 -148.48 148.48h-130.048c-9.21582 0 -16.3838 -7.16797 -16.3838 -16.3838v-132.097c0 -81.9199 66.5605 -148.479 148.48 -148.479zM636.928 587.064h-262.144
c-9.21582 0 -16.3838 7.16797 -16.3838 16.3838v264.191c0 9.2168 7.16797 16.3848 16.3838 16.3848h130.048c81.9199 0 148.479 -66.5605 148.479 -148.48v-132.096c0 -9.21582 -7.16797 -16.3838 -16.3838 -16.3838zM674.816 27.96
c0 93.1836 -75.7764 168.96 -168.96 168.96c-93.1846 0 -168.96 -75.7764 -168.96 -168.96s75.7754 -168.96 168.96 -168.96c93.1836 0 168.96 75.7764 168.96 168.96z" />
</svg>
