<?xml version="1.0" encoding="UTF-8"?>
<svg width="957px" height="1026px" viewBox="0 0 957 1026" version="1.1" xmlns="http://www.w3.org/2000/svg" xmlns:xlink="http://www.w3.org/1999/xlink">
  <g id="TuneIn" transform="translate(0.5062, 0.6137)" fill="currentColor" fill-rule="nonzero">
    <path d="M1.02444,405.504 C1.02444,396.28818 8.19241,389.1202 17.40824,389.1202 L471.04024,389.1202 C552.96014,389.1202 619.51924,455.6798 619.51924,537.5992 L619.51924,669.6962 C619.51924,678.91202 612.35127,686.08 603.13544,686.08 L602.112,686.08 L148.48,686.08 C66.5591,686.08 0,619.5195 0,537.6 L0,405.504 L1.02441,405.504 L1.02444,405.504 Z M809.98404,389.12 L940.03204,389.12 C949.24786,389.12 956.41584,396.28797 956.41584,405.5038 L956.41584,537.5998 C956.41584,619.5197 889.85624,686.0798 807.93584,686.0798 L677.88784,686.0798 C668.67202,686.0798 661.50404,678.91183 661.50404,669.696 L661.50404,537.599 C661.50404,455.6791 728.06454,389.12 809.98404,389.12 Z M603.13604,728.0638 L340.99204,728.0638 C331.77622,728.0638 324.60824,735.23197 324.60824,744.4478 L324.60824,1008.6388 C324.60824,1017.8556 331.77621,1025.0236 340.99204,1025.0236 L471.04004,1025.0236 C552.95994,1025.0236 619.51904,958.4631 619.51904,876.5436 L619.51904,744.4476 C619.51904,735.23178 612.35107,728.0638 603.13524,728.0638 L603.13604,728.0638 Z M641.02404,168.96 C641.02404,262.1436 565.24764,337.92 472.06404,337.92 C378.87944,337.92 303.10404,262.1436 303.10404,168.96 C303.10404,75.7764 378.87944,0 472.06404,0 C565.24764,0 641.02404,75.7764 641.02404,168.96 Z"></path>
  </g>
</svg>