<?xml version="1.0" encoding="UTF-8"?>
<svg width="972px" height="972px" viewBox="0 0 972 972" version="1.1" xmlns="http://www.w3.org/2000/svg" xmlns:xlink="http://www.w3.org/1999/xlink">
    <title>Twitter</title>
    <g id="Twitter" stroke="none" stroke-width="1" fill="none" fill-rule="evenodd">
        <path d="M886,231.921383 C856.60515,245.3077 824.956383,254.3603 791.75805,258.405083 C825.660733,237.60335 851.6747,204.619117 863.930383,165.32695 C832.187717,184.587817 797.111117,198.6001 759.639733,206.111833 C729.775317,173.416517 687.091733,153 639.853383,153 C549.27405,153 475.786933,228.358133 475.786933,321.2918 C475.786933,334.4855 477.195633,347.293967 480.013033,359.620917 C343.604033,352.5907 222.690733,285.6592 141.69055,183.721083 C127.556617,208.6639 119.480067,237.60335 119.480067,268.420733 C119.480067,326.78115 148.452317,378.303967 192.497617,408.495367 C165.638433,407.676783 140.28185,400.020583 118.118333,387.501017 L118.118333,389.571567 C118.118333,471.141333 174.701067,539.180333 249.831667,554.589017 C236.073367,558.5375 221.563767,560.511733 206.584617,560.511733 C196.019367,560.511733 185.688917,559.50055 175.68715,557.5263 C196.58285,624.3615 257.1569,673.043333 329.000533,674.34345 C272.8404,719.510167 202.029817,746.427233 125.161817,746.427233 C111.92005,746.427233 98.81915,745.6568 86,744.115933 C158.6419,791.786567 244.948167,819.666667 337.593583,819.666667 C639.524683,819.666667 804.577217,563.256417 804.577217,340.841583 C804.577217,333.52245 804.43635,326.203317 804.1546,319.02865 C836.225983,295.289633 864.07125,265.67605 886,231.921383" fill="currentColor" fill-rule="nonzero"></path>
    </g>
</svg>