<?xml version="1.0" encoding="UTF-8"?>
<svg width="980px" height="1025px" viewBox="0 0 980 1025" version="1.1" xmlns="http://www.w3.org/2000/svg" xmlns:xlink="http://www.w3.org/1999/xlink">
  <g id="Twitch" transform="translate(-0.0063, 0.6137)" fill="currentColor" fill-rule="nonzero">
    <path d="M712,890 L512,890 L378,1024 L246,1024 L246,890 L0,890 L0,178 L68,0 L980,0 L980,624 L712,890 Z M890,578 L890,88 L156,88 L156,734 L356,734 L356,868 L490,734 L734,734 L890,578 Z M646,268 L646,534 L734,534 L734,268 L646,268 Z M400,534 L490,534 L490,268 L400,268 L400,534 Z"></path>
  </g>
</svg>