<?xml version="1.0" encoding="UTF-8"?>
<svg width="1024px" height="217px" viewBox="0 0 1024 217" version="1.1" xmlns="http://www.w3.org/2000/svg" xmlns:xlink="http://www.w3.org/1999/xlink">
  <g id="Uber" transform="translate(0, 0.0926)" fill="currentColor" fill-rule="nonzero">
    <path d="M160,6 L160,124 C160,164 144,180 102,180 C62,180 44,164 44,124 L44,2 L6,2 C2,2 0,4 0,6 L0,126 C0,192 42,216 102,216 C162,216 204,192 204,126 L204,2 L166,2 C162,2 160,2 160,6 Z M732,36 C734,36 736,34 738,32 L748,4 C750,2 748,0 746,0 L588,0 C574,0 568,4 568,14 L568,198 C568,206 572,210 584,210 L732,210 C734,210 736,210 738,208 L748,178 C750,176 748,176 746,176 L612,176 L612,138 C612,126 618,120 638,120 L696,120 C700,120 702,120 702,118 L714,90 C714,88 714,88 712,88 L612,88 L612,36 L732,36 Z M452,100 C470,92 478,76 478,54 C478,8 440,2 400,2 L312,2 C296,2 290,6 290,16 L290,200 C290,208 294,212 306,212 L416,212 C458,212 488,196 488,154 C488,128 476,106 452,100 Z M334,36 L404,36 C428,36 434,44 434,62 C434,80 428,88 404,88 L334,88 L334,36 Z M412,178 L334,178 L334,138 C334,126 340,120 360,120 L412,120 C436,120 444,130 444,148 C444,168 436,178 412,178 Z M1024,208 L976,126 C1000,120 1018,104 1018,66 C1018,14 988,2 934,2 L844,2 C830,2 824,6 824,16 L824,206 C824,210 826,212 830,212 L868,212 L868,150 C868,136 876,132 894,132 L934,132 L976,208 C978,210 980,212 984,212 L1022,212 C1024,212 1024,208 1024,208 Z M942,98 L868,98 L868,36 L942,36 C968,36 974,46 974,68 C974,88 968,98 942,98 Z"></path>
  </g>
</svg>