<?xml version="1.0" encoding="UTF-8"?>
<svg width="1024px" height="1025px" viewBox="0 0 1024 1025" version="1.1" xmlns="http://www.w3.org/2000/svg" xmlns:xlink="http://www.w3.org/1999/xlink">
  <g id="Ubuntu" transform="translate(0, 0.0926)" fill="currentColor" fill-rule="nonzero">
    <path d="M512,0 C229.376,0 0,229.376 0,512 C0,794.624 229.376,1024 512,1024 C794.624,1024 1024,794.624 1024,512 C1024,229.376 794.624,0 512,0 Z M620.544,192.5117 C638.9756,160.7676 678.9122,149.5039 710.6563,167.9355 C742.4004,186.3681 753.6641,226.3037 735.2325,258.0478 C716.7999,288.7675 675.8399,300.0322 645.1202,282.624 C613.3761,264.1924 602.1124,224.2558 620.544,192.5117 Z M180.224,577.536 C143.3607,577.536 114.6888,547.8397 114.6888,511.9999 C114.6888,475.1356 144.3841,446.4638 180.224,446.4638 C217.0883,446.4638 245.7601,475.1357 245.7601,511.9999 C245.7601,548.8641 216.0648,577.536 180.224,577.536 Z M238.592,583.68 C260.0959,567.2962 273.4084,541.6966 273.4084,512.0003 C273.4084,483.3284 260.0959,457.7278 238.592,440.3206 C256.0002,371.7122 299.008,314.3686 355.328,276.4806 L404.4803,358.4005 C356.3514,392.1925 324.6082,448.5118 324.6082,512.0005 C324.6082,575.4892 355.3279,631.8085 404.4803,665.6005 L355.328,747.5204 C299.0077,709.6327 255.9999,652.289 238.592,583.6804 L238.592,583.68 Z M710.656,857.088 C678.9119,874.4962 638.9753,864.25597 620.5437,832.5118 C602.1121,800.76763 613.37573,760.8321 645.1199,742.4005 C675.8396,723.9679 716.7996,735.23253 735.2322,766.9757 C752.6394,798.7198 742.40017,838.6564 710.656,857.088 Z M711.68,712.704 C686.0804,702.4638 657.4085,704.51162 631.8079,718.84755 C606.2083,733.18345 590.8479,757.75965 586.7522,784.38365 C562.176,791.55162 537.5999,794.62385 512.0002,794.62385 C467.968,794.62385 424.9602,783.36015 387.0722,764.92755 L433.1523,681.98415 C456.7041,693.24785 483.3281,699.39135 512,699.39135 C610.3037,699.39135 690.176,624.63935 699.392,529.40835 L794.6244,530.43179 C790.5287,601.08799 758.7846,665.59979 711.6801,712.70379 L711.68,712.704 Z M699.392,495.616 C690.17618,399.3601 610.3041,324.608 512,324.608 C483.3281,324.608 456.7041,330.75155 433.1523,343.0396 L387.0722,260.0953 C423.9355,240.6392 466.9443,230.4 512.0002,230.4 C538.6242,230.4 563.2004,234.4957 586.7522,240.6393 C590.8479,267.2633 606.2083,291.8395 631.8079,306.1754 C657.4085,320.5113 686.0804,322.5592 711.68,312.31993 C758.7845,359.42343 790.5286,422.91193 794.6243,494.59093 L699.392,495.616 Z"></path>
  </g>
</svg>