<?xml version="1.0" standalone="no"?>
<!DOCTYPE svg PUBLIC "-//W3C//DTD SVG 1.1//EN" "http://www.w3.org/Graphics/SVG/1.1/DTD/svg11.dtd" >
<svg xmlns="http://www.w3.org/2000/svg" xmlns:xlink="http://www.w3.org/1999/xlink" version="1.1" viewBox="-10 0 1044 1024">
   <path fill="currentColor"
d="M512 -141c-282.624 0 -512 229.376 -512 512s229.376 512 512 512s512 -229.376 512 -512s-229.376 -512 -512 -512zM620.544 51.5117c18.4316 -31.7441 58.3682 -43.0078 90.1123 -24.5762c31.7441 18.4326 43.0078 58.3682 24.5762 90.1123
c-18.4326 30.7197 -59.3926 41.9844 -90.1123 24.5762c-31.7441 -18.4316 -43.0078 -58.3682 -24.5762 -90.1123zM180.224 436.536c-36.8633 0 -65.5352 -29.6963 -65.5352 -65.5361c0 -36.8643 29.6953 -65.5361 65.5352 -65.5361
c36.8643 0 65.5361 28.6719 65.5361 65.5361s-29.6953 65.5361 -65.5361 65.5361zM238.592 442.68c21.5039 -16.3838 34.8164 -41.9834 34.8164 -71.6797c0 -28.6719 -13.3125 -54.2725 -34.8164 -71.6797c17.4082 -68.6084 60.416 -125.952 116.736 -163.84
l49.1523 81.9199c-48.1289 33.792 -79.8721 90.1113 -79.8721 153.6s30.7197 119.808 79.8721 153.6l-49.1523 81.9199c-56.3203 -37.8877 -99.3281 -95.2314 -116.736 -163.84zM710.656 716.088c-31.7441 17.4082 -71.6807 7.16797 -90.1123 -24.5762
s-7.16797 -71.6797 24.5762 -90.1113c30.7197 -18.4326 71.6797 -7.16797 90.1123 24.5752c17.4072 31.7441 7.16797 71.6807 -24.5762 90.1123zM711.68 571.704c-25.5996 -10.2402 -54.2715 -8.19238 -79.8721 6.14355c-25.5996 14.3359 -40.96 38.9121 -45.0557 65.5361
c-24.5762 7.16797 -49.1523 10.2402 -74.752 10.2402c-44.0322 0 -87.04 -11.2637 -124.928 -29.6963l46.0801 -82.9434c23.5518 11.2637 50.1758 17.4072 78.8477 17.4072c98.3037 0 178.176 -74.752 187.392 -169.983l95.2324 1.02344
c-4.0957 70.6562 -35.8398 135.168 -82.9443 182.272zM699.392 354.616c-9.21582 -96.2559 -89.0879 -171.008 -187.392 -171.008c-28.6719 0 -55.2959 6.14355 -78.8477 18.4316l-46.0801 -82.9443c36.8633 -19.4561 79.8721 -29.6953 124.928 -29.6953
c26.624 0 51.2002 4.0957 74.752 10.2393c4.0957 26.624 19.4561 51.2002 45.0557 65.5361c25.6006 14.3359 54.2725 16.3838 79.8721 6.14453c47.1045 47.1035 78.8486 110.592 82.9443 182.271z" />
</svg>
