<?xml version="1.0" standalone="no"?>
<!DOCTYPE svg PUBLIC "-//W3C//DTD SVG 1.1//EN" "http://www.w3.org/Graphics/SVG/1.1/DTD/svg11.dtd" >
<svg xmlns="http://www.w3.org/2000/svg" xmlns:xlink="http://www.w3.org/1999/xlink" version="1.1" viewBox="-10 0 1034 1024">
   <path fill="currentColor"
d="M955.392 -100.04c0 -22.5283 -19.4561 -40.96 -43.0078 -40.96h-5.12012c-57.3438 6.14355 -97.2793 22.5283 -125.952 54.2725c-15.3594 16.3838 -25.5996 36.8633 -33.792 59.3916c-7.16797 23.5518 -12.2871 53.248 -12.2871 86.0156v405.504
c0 37.8887 -4.09668 69.6328 -13.3125 96.2568s-21.5039 48.1279 -39.9355 64.5117c-18.4326 17.4082 -40.96 28.6719 -68.6084 36.8643c-27.6484 8.19141 -61.4404 12.2871 -102.4 12.2871s-74.752 -4.0957 -102.399 -12.2871
c-28.6719 -8.19238 -51.2002 -19.4561 -68.6084 -36.8643c-18.4316 -17.4082 -30.7197 -37.8877 -39.9355 -64.5117s-13.3125 -57.3447 -13.3125 -96.2568v-563.199c0 -21.5039 -19.4561 -40.96 -43.0078 -40.96h-5.12012
c-57.3438 6.14355 -97.2803 22.5273 -125.952 54.2715c-13.3115 15.3604 -24.5752 36.8643 -32.7676 59.3926c-7.16797 23.5518 -12.2881 53.2471 -12.2881 86.0156v411.647c1.02441 123.904 28.6719 217.089 86.0156 283.648c73.7285 86.0156 190.465 128 358.4 128
c168.96 0 284.672 -41.9844 359.424 -128c57.3438 -66.5596 84.9922 -159.744 84.9922 -284.672v-570.368h-1.02441z" />
</svg>
