<?xml version="1.0" encoding="UTF-8"?>
<svg width="890px" height="1025px" viewBox="0 0 890 1025" version="1.1" xmlns="http://www.w3.org/2000/svg" xmlns:xlink="http://www.w3.org/1999/xlink">
  <g id="Udemy" transform="translate(0.4432, 0.3376)" fill="currentColor" fill-rule="nonzero">
    <path d="M887.80644,40.96 C887.80644,18.4317 868.35034,0 844.79864,0 L839.67852,0 C782.33472,6.14355 742.39922,22.5283 713.72652,54.2725 C698.36712,70.6563 688.12692,91.1358 679.93452,113.6641 C672.76655,137.2159 667.64742,166.9121 667.64742,199.6797 L667.64742,605.1837 C667.64742,643.0724 663.55074,674.8165 654.33492,701.4405 C645.1191,728.0645 632.83102,749.5684 614.39942,765.9522 C595.96682,783.3604 573.43942,794.6241 545.79102,802.8165 C518.14262,811.00791 484.35062,815.1036 443.39102,815.1036 C402.43142,815.1036 368.63902,811.0079 340.99202,802.8165 C312.32012,794.62412 289.79182,783.3604 272.38362,765.9522 C253.95202,748.544 241.66392,728.0645 232.44812,701.4405 C223.23232,674.8165 219.13562,644.0958 219.13562,605.1837 L219.13562,41.9847 C219.13562,20.4808 199.67952,1.0247 176.12782,1.0247 L171.0077,1.0247 C113.6639,7.16825 73.7274,23.552 45.0557,55.2962 C31.7442,70.6566 20.4805,92.1605 12.2881,114.6888 C5.12013,138.2406 5.68434189e-14,167.9359 5.68434189e-14,200.7044 L5.68434189e-14,612.3514 C1.02441,736.2554 28.6719,829.4404 86.0156,895.9994 C159.7441,982.015 276.4806,1023.9994 444.4156,1023.9994 C613.3756,1023.9994 729.0876,982.015 803.8396,895.9994 C861.1834,829.4398 888.8318,736.2554 888.8318,611.3274 L888.8318,40.9594 L887.80739,40.9594 L887.80644,40.96 Z"></path>
  </g>
</svg>