<?xml version="1.0" encoding="UTF-8"?>
<svg width="1025px" height="893px" viewBox="0 0 1025 893" version="1.1" xmlns="http://www.w3.org/2000/svg" xmlns:xlink="http://www.w3.org/1999/xlink">
  <g id="UnSplash" transform="translate(0.7464, 0.0684)" fill="currentColor" fill-rule="nonzero">
    <path d="M-3.10862447e-15,762.88119 L-3.10862447e-15,266.24019 C1.02477,264.19234 -3.10862447e-15,263.16792 1.02477,261.12007 C4.09606,229.37597 17.40857,201.72847 39.93587,179.20017 C66.55987,151.55267 99.32847,137.21677 137.21617,137.21677 L253.95217,137.21677 C256.00002,137.21677 257.02444,136.19236 258.04787,134.1445 C265.21584,112.6406 273.40827,91.1367 280.57617,69.6328 C286.71972,49.1523 299.00777,33.792 315.39157,21.5049 C333.82417,8.1924 353.28027,0 375.80757,0 L649.21557,0 C653.31127,0 657.40795,0 660.48017,1.02441 C678.91177,4.09668 696.31997,11.26461 710.65597,22.52831 C727.03977,34.81641 738.30347,50.17671 744.44797,69.63281 C751.61594,92.16011 759.80737,114.68851 766.97527,138.24021 C767.99968,140.28806 769.0241,141.31248 771.07195,141.31248 L885.75995,141.31248 C901.12035,141.31248 916.48065,143.36033 930.81655,148.48045 C980.99235,166.91205 1011.71205,202.75195 1021.95225,254.97645 C1022.97569,260.09657 1022.97569,265.21665 1024.0001,270.33685 L1024.0001,763.90385 C1022.97569,769.02397 1022.97569,774.14405 1021.95225,779.26425 C1010.68855,844.80035 952.32045,892.92825 885.76025,892.92825 L138.24025,892.92825 C119.80765,892.92825 101.37595,889.85598 83.96775,882.68805 C38.91205,862.20755 11.26365,828.41555 2.04785,779.26405 C1.02441,773.11952 1.02441,767.99945 -3.10862447e-15,762.88025 L-3.10862447e-15,762.88119 Z M268.28836,517.12119 C268.28836,649.21819 375.80836,757.76219 507.90436,756.73719 C641.02436,755.71375 748.54436,650.24119 748.54436,517.12119 C748.54436,384.00119 642.04836,277.50619 508.92836,277.50619 C377.85736,277.50619 268.28836,386.05019 268.28836,517.12119 L268.28836,517.12119 Z M510.97636,360.44919 C537.60036,361.4736 564.22436,368.64157 588.80056,382.97749 C624.64036,404.48139 649.21656,435.20109 660.48126,475.13769 C677.88846,537.60159 652.28888,604.16069 599.04086,641.02569 C570.36896,660.48179 538.62486,669.69759 503.80846,667.64969 C433.15316,664.57742 373.76046,611.32939 361.47246,541.69769 C346.11306,459.77779 399.36116,379.90569 481.28146,363.52169 C490.49728,361.47384 500.73756,360.44919 510.97676,360.44919 L510.97636,360.44919 Z"></path>
  </g>
</svg>