<?xml version="1.0" standalone="no"?>
<!DOCTYPE svg PUBLIC "-//W3C//DTD SVG 1.1//EN" "http://www.w3.org/Graphics/SVG/1.1/DTD/svg11.dtd" >
<svg xmlns="http://www.w3.org/2000/svg" xmlns:xlink="http://www.w3.org/1999/xlink" version="1.1" viewBox="-10 0 1045 1024">
   <path fill="currentColor"
d="M0 688.44v-496.641c1.02441 -2.04785 0 -3.07227 1.02441 -5.12012c3.07129 -31.7441 16.3838 -59.3916 38.9111 -81.9199c26.624 -27.6475 59.3926 -41.9834 97.2803 -41.9834h116.736c2.04785 0 3.07227 -1.02441 4.0957 -3.07227
c7.16797 -21.5039 15.3604 -43.0078 22.5283 -64.5117c6.14355 -20.4805 18.4316 -35.8408 34.8154 -48.1279c18.4326 -13.3125 37.8887 -21.5049 60.416 -21.5049h273.408c4.0957 0 8.19238 0 11.2646 1.02441c18.4316 3.07227 35.8398 10.2402 50.1758 21.5039
c16.3838 12.2881 27.6475 27.6484 33.792 47.1045c7.16797 22.5273 15.3594 45.0557 22.5273 68.6074c1.02441 2.04785 2.04883 3.07227 4.09668 3.07227h114.688c15.3604 0 30.7207 2.04785 45.0566 7.16797c50.1758 18.4316 80.8955 54.2715 91.1357 106.496
c1.02344 5.12012 1.02344 10.2402 2.04785 15.3604v493.567c-1.02441 5.12012 -1.02441 10.2402 -2.04785 15.3604c-11.2637 65.5361 -69.6318 113.664 -136.192 113.664h-747.52c-18.4326 0 -36.8643 -3.07227 -54.2725 -10.2402
c-45.0557 -20.4805 -72.7041 -54.2725 -81.9199 -103.424c-1.02344 -6.14453 -1.02344 -11.2646 -2.04785 -16.3838zM268.288 442.68c0 132.097 107.52 240.641 239.616 239.616c133.12 -1.02344 240.64 -106.496 240.64 -239.616s-106.496 -239.615 -239.616 -239.615
c-131.071 0 -240.64 108.544 -240.64 239.615zM510.976 286.008c26.624 1.02441 53.248 8.19238 77.8242 22.5283c35.8398 21.5039 60.416 52.2236 71.6807 92.1602c17.4072 62.4639 -8.19238 129.023 -61.4404 165.888c-28.6719 19.4561 -60.416 28.6719 -95.2324 26.624
c-70.6553 -3.07227 -130.048 -56.3203 -142.336 -125.952c-15.3594 -81.9199 37.8887 -161.792 119.809 -178.176c9.21582 -2.04785 19.4561 -3.07227 29.6953 -3.07227z" />
</svg>
