<?xml version="1.0" standalone="no"?>
<!DOCTYPE svg PUBLIC "-//W3C//DTD SVG 1.1//EN" "http://www.w3.org/Graphics/SVG/1.1/DTD/svg11.dtd" >
<svg xmlns="http://www.w3.org/2000/svg" xmlns:xlink="http://www.w3.org/1999/xlink" version="1.1" viewBox="-10 0 1034 1024">
   <path fill="currentColor"
d="M342.221 330.207l8.17578 15.3223l6.63184 12.3984c7.1377 13.3281 13.8828 25.8721 20.458 38.0488c42.4053 -3.71484 87.2656 -5.68262 133.685 -5.68262c46.6895 0 91.8242 1.99023 134.491 5.74316l5.14746 -9.5459
c9.39258 -17.4346 19.2373 -35.8086 30.1484 -56.2852c65.5889 -122.077 168.569 -104.32 284.218 -104.32l-8.73633 13.9863l-10.4141 16.6201c-30.9111 49.2529 -68.6611 108.715 -109.9 172.494l0.00878906 -0.00292969c93.9561 26.7939 152.783 65.665 152.783 110.708
c0 66.4209 -127.92 126.817 -307.774 150.816l-85.4736 135.603h-169.08l-86.2158 -135.726c-179.178 -24.082 -306.242 -84.3857 -306.242 -150.693c0 -45.1113 58.8115 -84.0322 152.832 -110.83l0.00878906 0.00292969l-8.97266 -13.8965
c-46.5557 -72.1807 -88.2246 -138.146 -119.998 -189.083c115.65 0 218.63 -17.7568 284.218 104.32zM511.526 430.733c-39.3359 0 -77.2422 1.4375 -112.82 4.10156l9.75195 17.9199c18.623 34.1729 38.6904 70.7402 65.1924 119.168
c-185.855 -9.21289 -206.608 -20.3867 -256.226 -96.4355l-5.81055 -8.93457c-44.8281 14.417 -71.2871 32.1875 -71.2871 51.4102c0 48.1758 166.191 87.2305 371.2 87.2305c205.008 0 371.199 -39.0547 371.199 -87.2305c0 -19.208 -26.418 -36.9648 -71.1807 -51.376
l-5.79004 8.90039c-49.6182 76.0488 -70.3701 87.2227 -256.225 96.4355l67.2803 -123.005c2.57129 -4.72168 5.11914 -9.4043 7.65527 -14.0723c-35.6094 -2.67188 -73.5586 -4.1123 -112.939 -4.1123h-0.000976562zM512.259 -83.1631
c-32.04 125.566 -83.7461 179.095 -176.614 210.489c98.7256 29.2354 149.356 94.4551 176.614 210.489c22.6279 -119.441 84.1738 -177.614 174.201 -210.416c-115.455 -51.7627 -136.425 -82.79 -174.201 -210.562v-0.000976562z" />
</svg>
