<?xml version="1.0" encoding="UTF-8"?>
<svg width="956px" height="910px" viewBox="0 0 956 910" version="1.1" xmlns="http://www.w3.org/2000/svg" xmlns:xlink="http://www.w3.org/1999/xlink">
  <g id="UnVale" transform="translate(0.9221, 0.6137)" fill="currentColor" fill-rule="nonzero">
    <path d="M308.088561,413.371077 L316.264341,428.693377 L322.896181,441.091777 C330.033881,454.419877 336.778981,466.963877 343.354181,479.140577 C385.759481,475.425737 430.619781,473.457957 477.039181,473.457957 C523.728681,473.457957 568.863381,475.448187 611.530181,479.201117 L616.677641,469.655217 C626.070221,452.220617 635.914941,433.846617 646.826041,413.370017 C712.414941,291.293017 815.395041,309.050017 931.044041,309.050017 L922.307711,323.036317 L911.893611,339.656417 C880.982511,388.909317 843.232511,448.371417 801.993611,512.150417 L802.0024,512.147487 C895.9585,538.941387 954.7854,577.812487 954.7854,622.855487 C954.7854,689.276387 826.8654,749.672487 647.0114,773.671487 L561.5378,909.274487 L392.4578,909.274487 L306.242,773.548487 C127.064,749.466487 0,689.162787 0,622.855487 C0,577.744187 58.8115,538.823287 152.832,512.025487 L152.840789,512.028417 L143.868129,498.131917 C97.3124291,425.951217 55.6435291,359.985917 23.8701291,309.048917 C139.520129,309.048917 242.500129,291.292117 308.088129,413.368917 L308.088561,413.371077 Z M477.393561,513.896957 C438.057661,513.896957 400.151361,515.334577 364.573561,517.998637 L374.325511,535.918537 C392.948511,570.091437 413.015911,606.658737 439.517911,655.086537 C253.662911,645.873647 232.909911,634.699837 183.291911,558.651037 L177.481361,549.716467 C132.653261,564.133467 106.194261,581.903967 106.194261,601.126667 C106.194261,649.302467 272.385261,688.357167 477.394261,688.357167 C682.402261,688.357167 848.593261,649.302467 848.593261,601.126667 C848.593261,581.918667 822.175261,564.161867 777.412561,549.750667 L771.622521,558.651057 C722.004321,634.699857 701.252421,645.873757 515.397521,655.086557 L582.677821,532.081557 C585.249111,527.359877 587.796961,522.677257 590.333091,518.009257 C554.723691,515.337377 516.774491,513.896957 477.394091,513.896957 L477.393114,513.896957 L477.393561,513.896957 Z M478.126561,0 C446.086561,125.566977 394.380461,179.095977 301.512561,210.489977 C400.238161,239.725377 450.868561,304.945077 478.126561,420.978977 C500.754461,301.537977 562.300361,243.364977 652.327561,210.562977 C536.872561,158.800277 515.902561,127.772977 478.126561,0 L478.126561,0 L478.126561,0 Z"></path>
  </g>
</svg>