<?xml version="1.0" encoding="UTF-8"?>
<svg width="1026px" height="727px" viewBox="0 0 1026 727" version="1.1" xmlns="http://www.w3.org/2000/svg" xmlns:xlink="http://www.w3.org/1999/xlink">
  <g id="UpWork" transform="translate(0.4957, 0.6046)" fill="currentColor" fill-rule="nonzero">
    <path d="M791.551,65.535 C683.007,65.535 599.039,136.1912 565.247,251.903 C513.0234,174.0788 473.0868,79.871 450.559,2.84217094e-14 L333.824,2.84217094e-14 L333.824,303.104 C333.824,362.4956 284.6717,411.648 225.28,411.648 C165.8874,411.648 116.736,362.4957 116.736,303.104 L116.736,1.024 L-2.84217094e-14,1.024 L-2.84217094e-14,304.128 C-2.84217094e-14,428.031 101.376,530.432 225.28,530.432 C349.183,530.432 450.559,428.032 450.559,304.128 L450.559,252.9278 C473.0873,300.0313 500.7358,348.1592 534.5278,390.1438 L462.8471,726.0158 L582.6561,726.0158 L634.8797,483.3278 C679.9354,512.0007 732.16,530.4323 792.5757,530.4323 C920.5757,530.4323 1025.0237,425.9843 1025.0237,297.9843 C1023.99929,169.9843 919.5507,65.5363 791.5507,65.5363 L791.551,65.535 Z M791.551,412.6714 C744.4475,412.6714 700.4153,393.2153 660.48,360.4468 L670.7193,314.3667 L670.7193,312.31885 C679.93512,263.16745 706.5591,182.27085 791.5513,182.27085 C855.0396,182.27085 907.2633,234.49445 907.2633,297.98285 C907.2633,361.47125 856.0641,412.6714 791.5513,412.6714 L791.551,412.6714 Z"></path>
  </g>
</svg>