<?xml version="1.0" standalone="no"?>
<!DOCTYPE svg PUBLIC "-//W3C//DTD SVG 1.1//EN" "http://www.w3.org/Graphics/SVG/1.1/DTD/svg11.dtd" >
<svg xmlns="http://www.w3.org/2000/svg" xmlns:xlink="http://www.w3.org/1999/xlink" version="1.1" viewBox="-10 0 1046 1024">
   <path fill="currentColor"
d="M791.552 73.0156c-108.544 0 -192.512 70.6562 -226.304 186.368c-52.2236 -77.8242 -92.1602 -172.032 -114.688 -251.903h-116.735v303.104c0 59.3916 -49.1523 108.544 -108.544 108.544c-59.3926 0 -108.544 -49.1523 -108.544 -108.544v-302.08h-116.736v303.104
c0 123.903 101.376 226.304 225.28 226.304c123.903 0 225.279 -102.4 225.279 -226.304v-51.2002c22.5283 47.1035 50.1768 95.2314 83.9688 137.216l-71.6807 335.872h119.809l52.2236 -242.688c45.0557 28.6729 97.2803 47.1045 157.696 47.1045
c128 0 232.448 -104.448 232.448 -232.448c-1.02441 -128 -105.473 -232.448 -233.473 -232.448zM791.552 420.152c-47.1035 0 -91.1357 -19.4561 -131.071 -52.2246l10.2393 -46.0801v-2.04785c9.21582 -49.1514 35.8398 -130.048 120.832 -130.048
c63.4883 0 115.712 52.2236 115.712 115.712s-51.1992 114.688 -115.712 114.688z" />
</svg>
