<?xml version="1.0" standalone="no"?>
<!DOCTYPE svg PUBLIC "-//W3C//DTD SVG 1.1//EN" "http://www.w3.org/Graphics/SVG/1.1/DTD/svg11.dtd" >
<svg xmlns="http://www.w3.org/2000/svg" xmlns:xlink="http://www.w3.org/1999/xlink" version="1.1" viewBox="-10 0 1044 1024">
   <path fill="currentColor"
d="M918 183c-18 -72 -48 -136 -98 -188c-72 -70 -174 -106 -308 -106c-132 0 -234 36 -306 106c-50 52 -80 116 -98 186c-60 10 -108 64 -108 128v132c0 72 58 130 130 130v-152l86 50c6 2 12 4 18 4h170c10 0 20 -4 30 -12c0 -2 0 -2 2 -2l52 -64s10 -12 24 -12
c8 0 16 2 24 10l52 66c2 0 2 2 2 2c10 8 20 12 30 12h170c6 0 12 -2 18 -4l86 -50v114l-242 282h-146c-10 0 -18 8 -18 18s8 18 18 18h162l248 -284c62 -10 108 -64 108 -128v-130c0 -62 -46 -116 -106 -126zM498 381l2 -2c0 2 -2 2 -2 2zM524 381c2 0 2 0 0 0zM790 143
h-556c-6 0 -12 0 -18 4l-70 40c16 -64 44 -122 88 -166c64 -62 154 -94 278 -94s216 32 280 94c44 44 70 102 88 166l-72 -42c-6 -2 -12 -2 -18 -2z" />
</svg>
