<?xml version="1.0" encoding="UTF-8"?>
<svg width="1024px" height="963px" viewBox="0 0 1024 963" version="1.1" xmlns="http://www.w3.org/2000/svg" xmlns:xlink="http://www.w3.org/1999/xlink">
  <g id="Ventrilo" transform="translate(0, 0.0926)" fill="currentColor" fill-rule="nonzero">
    <path d="M918,294 C900,222 870,158 820,106 C748,36 646,0 512,0 C380,0 278,36 206,106 C156,158 126,222 108,292 C48,302 0,356 0,420 L0,552 C0,624 58,682 130,682 L130,530 L216,580 C222,582 228,584 234,584 L404,584 C414,584 424,580 434,572 C434,570 434,570 436,570 L488,506 C488,506 498,494 512,494 C520,494 528,496 536,504 L588,570 C590,570 590,572 590,572 C600,580 610,584 620,584 L790,584 C796,584 802,582 808,580 L894,530 L894,644 L652,926 L506,926 C496,926 488,934 488,944 C488,954 496,962 506,962 L668,962 L916,678 C978,668 1024,614 1024,550 L1024,420 C1024,358 978,304 918,294 Z M498,492 L500,490 C500,492 498,492 498,492 Z M790,254 L234,254 C228,254 222,254 216,258 L146,298 C162,234 190,176 234,132 C298,70 388,38 512,38 C636,38 728,70 792,132 C836,176 862,234 880,298 L808,256 C802,254 796,254 790,254 Z"></path>
  </g>
</svg>