<?xml version="1.0" encoding="UTF-8"?>
<svg width="752px" height="359px" viewBox="0 0 752 359" version="1.1" xmlns="http://www.w3.org/2000/svg" xmlns:xlink="http://www.w3.org/1999/xlink">
  <g id="VGen" transform="translate(0.1903, 0.4253)" fill="currentColor" fill-rule="nonzero">
    <path d="M48.3564,116.6229 C21.6503,116.6229 -2.84217094e-14,94.9725 -2.84217094e-14,68.2674 C-2.84217094e-14,41.5613 21.6504,19.911 48.3564,19.911 C75.0624,19.911 96.7119,41.5614 96.7119,68.2674 C96.7119,94.9725 75.0625,116.6229 48.3564,116.6229 Z M702.5784,96.7119 C675.8723,96.7119 654.2229,75.0625 654.2229,48.3564 C654.2229,21.6503 675.8723,5.68434189e-14 702.5784,5.68434189e-14 C729.2845,5.68434189e-14 750.9348,21.6504 750.9348,48.3564 C750.9348,75.0624 729.2844,96.7119 702.5784,96.7119 Z M377.8334,224.6939 C309.5668,149.1871 372.36367,7.6359 479.9864,23.1179 C544.1124,32.34153 588.0874,73.9158 607.8874,141.4859 C611.10127,152.4527 609.44795,164.273 603.34834,173.938 C526.81314,295.208 458.03234,358.131 388.62634,358.131 C358.62734,358.131 327.98864,344.172 294.91444,319.7394 C274.40564,304.588 253.22494,285.4855 231.59704,263.2873 C213.08244,244.2844 195.23574,224.048 178.64294,203.8205 C172.83532,196.7414 167.59024,190.1555 162.98274,184.2209 C160.17122,180.59785 158.16243,177.95235 157.03938,176.4416 C143.91928,158.7902 147.59309,133.8449 165.24348,120.7258 C182.89488,107.6057 207.84018,111.27853 220.95928,128.92892 C221.123342,129.149623 221.515921,129.671108 222.1253,130.47677 C223.18878,131.87716 224.44854,133.51974 225.89581,135.38302 C230.07843,140.77169 234.88214,146.80102 240.22101,153.30982 C255.47101,171.89962 271.85771,190.48172 288.64391,207.70922 C307.49451,227.05882 325.60971,243.39572 342.24061,255.68092 C362.84901,270.90552 379.49451,278.48952 388.62831,278.48952 C397.89882,278.48952 408.72791,274.65358 420.92421,266.87522 L421.262101,266.652564 L379.746501,226.669164 C379.416423,226.351781 379.093181,226.028539 378.773845,225.699437 L377.834392,224.696507 L377.8334,224.6939 Z M468.6474,101.9509 C454.2949,99.88645 441.9843,108.03684 434.4423,125.0368 C426.64054,142.6227 428.24894,161.6989 436.91105,171.2809 L436.301675,170.566056 L478.922775,211.616856 L479.997975,210.320956 C493.918875,193.360956 508.704975,173.169556 524.222575,149.673456 L525.650305,147.491816 L524.929602,145.828726 C513.340702,119.773026 495.891502,106.369726 470.435502,102.226226 L468.646442,101.951812 L468.6474,101.9509 Z"></path>
  </g>
</svg>