<?xml version="1.0" standalone="no"?>
<!DOCTYPE svg PUBLIC "-//W3C//DTD SVG 1.1//EN" "http://www.w3.org/Graphics/SVG/1.1/DTD/svg11.dtd" >
<svg xmlns="http://www.w3.org/2000/svg" xmlns:xlink="http://www.w3.org/1999/xlink" version="1.1" viewBox="-10 0 1034 1024">
   <path fill="currentColor"
d="M201.956 467.711c-26.7061 0 -48.3564 -21.6504 -48.3564 -48.3555c0 -26.7061 21.6504 -48.3564 48.3564 -48.3564s48.3555 21.6504 48.3555 48.3564c0 26.7051 -21.6494 48.3555 -48.3555 48.3555zM856.178 447.8c-26.7061 0 -48.3555 -21.6494 -48.3555 -48.3555
s21.6494 -48.3564 48.3555 -48.3564s48.3564 21.6504 48.3564 48.3564s-21.6504 48.3555 -48.3564 48.3555zM531.433 575.782c-68.2666 -75.5068 -5.46973 -217.058 102.153 -201.576c64.126 9.22363 108.101 50.7979 127.901 118.368
c3.21387 10.9668 1.56055 22.7871 -4.53906 32.4521c-76.5352 121.27 -145.316 184.193 -214.722 184.193c-29.999 0 -60.6377 -13.959 -93.7119 -38.3916c-20.5088 -15.1514 -41.6895 -34.2539 -63.3174 -56.4521c-18.5146 -19.0029 -36.3613 -39.2393 -52.9541 -59.4668
c-5.80762 -7.0791 -11.0527 -13.665 -15.6602 -19.5996c-2.81152 -3.62305 -4.82031 -6.26855 -5.94336 -7.7793c-13.1201 -17.6514 -9.44629 -42.5967 8.2041 -55.7158c17.6514 -13.1201 42.5967 -9.44727 55.7158 8.20312
c0.164062 0.220703 0.556641 0.742188 1.16602 1.54785c1.06348 1.40039 2.32324 3.04297 3.77051 4.90625c4.18262 5.38867 8.98633 11.418 14.3252 17.9268c15.25 18.5898 31.6367 37.1719 48.4229 54.3994c18.8506 19.3496 36.9658 35.6865 53.5967 47.9717
c20.6084 15.2246 37.2539 22.8086 46.3877 22.8086c9.27051 0 20.0996 -3.83594 32.2959 -11.6143l0.337891 -0.222656l-41.5156 -39.9834c-0.330078 -0.317383 -0.65332 -0.640625 -0.972656 -0.969727l-0.939453 -1.00293zM622.247 453.039
c-14.3525 -2.06445 -26.6631 6.08594 -34.2051 23.0859c-7.80176 17.5859 -6.19336 36.6621 2.46875 46.2441l-0.609375 -0.714844l42.6211 41.0508l1.0752 -1.2959c13.9209 -16.96 28.707 -37.1514 44.2246 -60.6475l1.42773 -2.18164l-0.720703 -1.66309
c-11.5889 -26.0557 -29.0381 -39.459 -54.4941 -43.6025l-1.78906 -0.274414z" />
</svg>
