<?xml version="1.0" standalone="no"?>
<!DOCTYPE svg PUBLIC "-//W3C//DTD SVG 1.1//EN" "http://www.w3.org/Graphics/SVG/1.1/DTD/svg11.dtd" >
<svg xmlns="http://www.w3.org/2000/svg" xmlns:xlink="http://www.w3.org/1999/xlink" version="1.1" viewBox="-10 0 1034 1024">
   <path fill="currentColor"
d="M198 659c24 44 58 78 98 102c28 16 58 26 88 32c266 -104 234 -606 232 -632c-10 -30 -56 -158 -142 -302c0 0 120 80 142 300v2c2 4 2 6 2 6c156 416 -182 630 -184 630c50 0 94 -12 134 -36c42 -24 74 -58 100 -102c24 -44 36 -90 36 -142c0 -40 -8 -78 -22 -114
c24 -4 54 -14 84 -34c18 46 28 94 28 146c0 98 -34 184 -102 258c-66 74 -154 110 -258 110c-108 0 -194 -36 -262 -110c-66 -74 -100 -160 -100 -258c0 -96 32 -182 96 -252c70 -80 158 -118 266 -118c44 0 86 6 124 20c-12 24 -24 54 -26 86c-32 -12 -64 -18 -100 -18
c-74 0 -136 28 -190 82c-54 56 -80 124 -80 202c0 52 12 98 36 142zM674 247c0 0 206 -112 214 -208c0 0 -64 142 -238 182c0 0 -62 -98 18 -178c0 0 28 -32 108 -52c0 0 80 -16 124 -108c0 0 90 124 34 290c0 0 -28 74 -84 108c-44 26 -108 34 -176 -34zM434 797h-2v0h2z
" />
</svg>
