<?xml version="1.0" encoding="UTF-8"?>
<svg width="882px" height="1025px" viewBox="0 0 882 1025" version="1.1" xmlns="http://www.w3.org/2000/svg" xmlns:xlink="http://www.w3.org/1999/xlink">
  <g id="Viadeo" transform="translate(0.7504, 0.3376)" fill="currentColor" fill-rule="nonzero">
    <path d="M126,800 C150,844 184,878 224,902 C252,918 282,928 312,934 C578,830 546,328 544,302 C534,272 488,144 402,0 C402,0 522,80 544,300 L544,302 C546,306 546,308 546,308 C702,724 364,938 362,938 C412,938 456,926 496,902 C538,878 570,844 596,800 C620,756 632,710 632,658 C632,618 624,580 610,544 C634,540 664,530 694,510 C712,556 722,604 722,656 C722,754 688,840 620,914 C554,988 466,1024 362,1024 C254,1024 168,988 100,914 C34,840 0,754 0,656 C0,560 32,474 96,404 C166,324 254,286 362,286 C406,286 448,292 486,306 C474,330 462,360 460,392 C428,380 396,374 360,374 C286,374 224,402 170,456 C116,512 90,580 90,658 C90,710 102,756 126,800 Z M602,388 C602,388 808,276 816,180 C816,180 752,322 578,362 C578,362 516,264 596,184 C596,184 624,152 704,132 C704,132 784,116 828,24 C828,24 918,148 862,314 C862,314 834,388 778,422 C734,448 670,456 602,388 Z M362,938 L360,938 L360,938 L362,938 Z"></path>
  </g>
</svg>