<?xml version="1.0" encoding="UTF-8"?>
<svg width="1003px" height="1027px" viewBox="0 0 1003 1027" version="1.1" xmlns="http://www.w3.org/2000/svg" xmlns:xlink="http://www.w3.org/1999/xlink">
  <g id="Viber" transform="translate(0.6856, 0.6137)" fill="currentColor" fill-rule="nonzero">
    <path d="M578,258 C566,256 554,266 554,280 C552,292 562,304 576,306 C656,310 694,350 698,434 C700,446 710,456 724,456 L724,456 C738,456 748,444 748,432 C742,322 684,264 578,258 Z M848,498 C860,498 872,488 872,476 C874,380 846,300 786,236 C728,172 646,136 542,126 C528,126 518,136 516,150 C516,162 526,174 538,176 C632,182 700,212 750,268 C802,322 826,390 824,474 C824,486 834,498 848,498 Z M854,142 C760,50 640,2 498,0 C484,0 474,12 474,24 C474,38 484,50 498,50 C626,50 736,94 822,178 C908,262 952,376 952,526 C952,538 964,550 978,550 C990,550 1002,538 1002,526 C998,364 950,234 854,142 Z M944,802 C944,802 888,756 860,736 C834,716 794,692 772,678 C730,656 688,670 672,694 L636,738 C616,760 582,758 582,758 C332,694 266,440 266,440 C266,440 262,406 284,388 L330,352 C352,334 366,292 344,252 C332,230 306,188 288,162 C266,136 220,80 220,80 C198,54 166,48 130,66 L130,66 C96,84 66,108 38,140 L38,142 C16,166 4,192 0,218 L0,228 C0,240 0,250 4,262 L6,262 C16,300 44,364 102,472 C140,540 178,598 218,646 C238,672 260,698 288,724 C288,726 290,728 290,728 L294,732 L296,734 L300,738 C326,764 352,786 378,806 C426,846 484,884 554,922 C660,982 724,1008 762,1018 L764,1020 C774,1022 784,1026 796,1026 C800,1026 804,1026 808,1024 C832,1020 858,1008 882,988 L884,986 C916,958 940,926 958,894 L958,892 C976,858 970,826 944,802 Z"></path>
  </g>
</svg>