<?xml version="1.0" standalone="no"?>
<!DOCTYPE svg PUBLIC "-//W3C//DTD SVG 1.1//EN" "http://www.w3.org/Graphics/SVG/1.1/DTD/svg11.dtd" >
<svg xmlns="http://www.w3.org/2000/svg" xmlns:xlink="http://www.w3.org/1999/xlink" version="1.1" viewBox="-10 0 1034 1024">
   <path fill="currentColor"
d="M590 117c-12 -2 -24 8 -24 22c-2 12 8 24 22 26c80 4 118 44 122 128c2 12 12 22 26 22v0c14 0 24 -12 24 -24c-6 -110 -64 -168 -170 -174zM860 357c12 0 24 -10 24 -22c2 -96 -26 -176 -86 -240c-58 -64 -140 -100 -244 -110c-14 0 -24 10 -26 24c0 12 10 24 22 26
c94 6 162 36 212 92c52 54 76 122 74 206c0 12 10 24 24 24zM866 1c-94 -92 -214 -140 -356 -142c-14 0 -24 12 -24 24c0 14 10 26 24 26c128 0 238 44 324 128s130 198 130 348c0 12 12 24 26 24c12 0 24 -12 24 -24c-4 -162 -52 -292 -148 -384zM956 661
c0 0 -56 -46 -84 -66c-26 -20 -66 -44 -88 -58c-42 -22 -84 -8 -100 16l-36 44c-20 22 -54 20 -54 20c-250 -64 -316 -318 -316 -318s-4 -34 18 -52l46 -36c22 -18 36 -60 14 -100c-12 -22 -38 -64 -56 -90c-22 -26 -68 -82 -68 -82c-22 -26 -54 -32 -90 -14v0
c-34 18 -64 42 -92 74v2c-22 24 -34 50 -38 76v10c0 12 0 22 4 34h2c10 38 38 102 96 210c38 68 76 126 116 174c20 26 42 52 70 78c0 2 2 4 2 4l4 4l2 2l4 4c26 26 52 48 78 68c48 40 106 78 176 116c106 60 170 86 208 96l2 2c10 2 20 6 32 6c4 0 8 0 12 -2
c24 -4 50 -16 74 -36l2 -2c32 -28 56 -60 74 -92v-2c18 -34 12 -66 -14 -90z" />
</svg>
