<?xml version="1.0" standalone="no"?>
<!DOCTYPE svg PUBLIC "-//W3C//DTD SVG 1.1//EN" "http://www.w3.org/Graphics/SVG/1.1/DTD/svg11.dtd" >
<svg xmlns="http://www.w3.org/2000/svg" xmlns:xlink="http://www.w3.org/1999/xlink" version="1.1" viewBox="-11 0 1045 1024">
   <path fill="currentColor"
d="M908 267c0 0 96 -48 64 -186c-30 -154 -216 -124 -216 -124l-378 66l-74 536l-250 -476l-54 8c-2 0 0 224 0 224l252 472l180 -32l32 -244l38 230s302 -52 398 -70c92 -32 124 -76 124 -76v-268c-32 -48 -116 -60 -116 -60zM558 119c0 -2 146 -28 146 -28s116 -28 124 66
c20 94 -100 102 -100 102l-142 28zM806 561l-166 30l-34 -196c-2 0 166 -30 166 -30s118 -32 136 76c26 110 -102 120 -102 120z" />
</svg>
