<?xml version="1.0" encoding="UTF-8"?>
<svg width="1026px" height="833px" viewBox="0 0 1026 833" version="1.1" xmlns="http://www.w3.org/2000/svg" xmlns:xlink="http://www.w3.org/1999/xlink">
  <g id="ViewBug" transform="translate(0.7628, 0)" fill="currentColor" fill-rule="nonzero">
    <path d="M908.888889,312.358285 C908.888889,312.358285 1004.88889,264.358285 972.888889,126.358285 C942.888889,-27.6417154 756.888889,2.35828457 756.888889,2.35828457 L378.888889,68.3582846 L304.888889,604.358285 L54.8888889,128.358285 L0.888888889,136.358285 C-1.11111111,136.358285 0.888888889,360.358285 0.888888889,360.358285 L252.888889,832.358285 L432.888889,800.358285 L464.888889,556.358285 L502.888889,786.358285 C502.888889,786.358285 804.888889,734.358285 900.888889,716.358285 C992.888889,684.358285 1024.88889,640.358285 1024.88889,640.358285 L1024.88889,372.358285 C992.888889,324.358285 908.888889,312.358285 908.888889,312.358285 Z M558.888889,164.358285 C558.888889,162.358285 704.888889,136.358285 704.888889,136.358285 C704.888889,136.358285 820.888889,108.358285 828.888889,202.358285 C848.888889,296.358285 728.888889,304.358285 728.888889,304.358285 L586.888889,332.358285 L558.888889,164.358285 Z M806.888889,606.358285 L640.888889,636.358285 L606.888889,440.358285 C604.888889,440.358285 772.888889,410.358285 772.888889,410.358285 C772.888889,410.358285 890.888889,378.358285 908.888889,486.358285 C934.888889,596.358285 806.888889,606.358285 806.888889,606.358285 Z"></path>
  </g>
</svg>