<?xml version="1.0" standalone="no"?>
<!DOCTYPE svg PUBLIC "-//W3C//DTD SVG 1.1//EN" "http://www.w3.org/Graphics/SVG/1.1/DTD/svg11.dtd" >
<svg xmlns="http://www.w3.org/2000/svg" xmlns:xlink="http://www.w3.org/1999/xlink" version="1.1" viewBox="-10 0 1045 1024">
   <path fill="currentColor"
d="M662 151c-24 0 -50 6 -76 18c50 -166 146 -246 288 -240c106 2 156 70 150 204c-6 100 -74 236 -210 410c-138 180 -256 272 -352 272c-60 0 -110 -56 -152 -166c-28 -102 -56 -202 -82 -304c-32 -110 -64 -164 -100 -164c-8 0 -34 16 -80 48l-48 -62
c50 -46 100 -90 150 -134c66 -58 118 -88 152 -92c78 -8 128 46 146 164c20 126 34 204 42 234c22 104 48 156 76 156c22 0 54 -34 96 -100c42 -68 66 -120 70 -156c6 -58 -18 -88 -70 -88z" />
</svg>
