<?xml version="1.0" encoding="UTF-8"?>
<svg width="1025px" height="887px" viewBox="0 0 1025 887" version="1.1" xmlns="http://www.w3.org/2000/svg" xmlns:xlink="http://www.w3.org/1999/xlink">
  <g id="Vimeo" transform="translate(0.0014, 0.0926)" fill="currentColor" fill-rule="nonzero">
    <path d="M662,222.313953 C638,222.313953 612,228.313953 586,240.313953 C636,74.3139535 732,-5.68604651 874,0.313953488 C980,2.31395349 1030,70.3139535 1024,204.313953 C1018,304.313953 950,440.313953 814,614.313953 C676,794.313953 558,886.313953 462,886.313953 C402,886.313953 352,830.313953 310,720.313953 C282,618.313953 254,518.313953 228,416.313953 C196,306.313953 164,252.313953 128,252.313953 C120,252.313953 94,268.313953 48,300.313953 L0,238.313953 C50,192.313953 100,148.313953 150,104.313953 C216,46.3139535 268,16.3139535 302,12.3139535 C380,4.31395349 430,58.3139535 448,176.313953 C468,302.313953 482,380.313953 490,410.313953 C512,514.313953 538,566.313953 566,566.313953 C588,566.313953 620,532.313953 662,466.313953 C704,398.313953 728,346.313953 732,310.313953 C738,252.313953 714,222.313953 662,222.313953 Z"></path>
  </g>
</svg>