<?xml version="1.0" encoding="UTF-8"?>
<svg width="1025px" height="591px" viewBox="0 0 1025 591" version="1.1" xmlns="http://www.w3.org/2000/svg" xmlns:xlink="http://www.w3.org/1999/xlink">
  <g id="Vkontakte" transform="translate(0.0139, 0.0926)" fill="currentColor" fill-rule="nonzero">
    <path d="M990,488.177285 C960,448.177285 934,424.177285 896,388.177285 C880,372.177285 858,356.177285 856,334.177285 C854,304.177285 882,276.177285 896,256.177285 L902,250.177285 L906,246.177285 C906,244.177285 908,244.177285 908,242.177285 C910,240.177285 910,238.177285 912,238.177285 C912,236.177285 914,236.177285 914,236.177285 C916,234.177285 916,232.177285 918,230.177285 C944,196.177285 970,166.177285 996,126.177285 C1004,112.177285 1030,62.1772853 1022,42.1772853 C1010,18.1772853 948,26.1772853 914,26.1772853 C872,26.1772853 826,18.1772853 796,30.1772853 C778,36.1772853 766,76.1772853 756,98.1772853 C740,132.177285 726,160.177285 710,186.177285 C710,188.177285 708,190.177285 706,192.177285 L706,192.177285 C706,194.177285 704,196.177285 702,198.177285 L702,198.177285 C700,202.177285 698,206.177285 696,208.177285 C696,210.177285 694,210.177285 694,210.177285 C694,212.177285 692,212.177285 692,214.177285 C690,216.177285 690,216.177285 690,218.177285 C688,218.177285 688,220.177285 686,222.177285 C686,222.177285 684,224.177285 684,226.177285 C682,226.177285 682,228.177285 682,228.177285 C680,230.177285 678,232.177285 676,236.177285 C662,256.177285 648,280.177285 622,284.177285 C620,282.177285 620,282.177285 618,282.177285 L618,280.177285 L616,280.177285 C616,278.177285 614,278.177285 614,278.177285 L612,276.177285 L612,276.177285 C612,276.177285 612,274.177285 610,274.177285 L610,274.177285 C610,272.177285 608,272.177285 608,272.177285 L608,270.177285 C608,270.177285 606,270.177285 606,268.177285 L606,268.177285 C606,266.177285 606,266.177285 604,266.177285 L604,264.177285 L604,262.177285 L602,262.177285 L602,258.177285 L602,258.177285 L600,256.177285 L600,254.177285 L600,252.177285 C600,252.177285 600,250.177285 598,250.177285 L598,248.177285 L598,246.177285 L598,244.177285 L598,244.177285 C598,242.177285 598,242.177285 596,242.177285 L596,240.177285 L596,238.177285 L596,236.177285 L596,234.177285 L596,232.177285 L596,228.177285 L596,228.177285 L596,224.177285 L596,224.177285 L596,220.177285 C596,220.177285 594,220.177285 594,218.177285 L594,216.177285 L594,214.177285 L594,212.177285 L594,210.177285 L594,208.177285 C594,206.177285 596,206.177285 596,206.177285 L596,204.177285 L596,202.177285 L596,198.177285 L596,198.177285 L596,194.177285 L596,194.177285 L596,178.177285 L596,176.177285 C596,172.177285 596,166.177285 598,162.177285 C598,118.177285 612,60.1772853 592,26.1772853 C574,-3.82271468 506,0.177285319 458,0.177285319 C400,0.177285319 354,4.17728532 336,38.1772853 C356,52.1772853 378,52.1772853 388,72.1772853 C400,94.1772853 402,140.177285 400,182.177285 L400,188.177285 C400,224.177285 398,282.177285 374,286.177285 C350,290.177285 330,254.177285 316,236.177285 C314,232.177285 312,230.177285 310,226.177285 L308,224.177285 C306,222.177285 306,220.177285 304,216.177285 L302,214.177285 C300,212.177285 298,210.177285 298,208.177285 C296,206.177285 296,206.177285 296,204.177285 C294,202.177285 292,198.177285 290,196.177285 C272,166.177285 254,136.177285 238,98.1772853 C226,76.1772853 212,38.1772853 200,32.1772853 C176,20.1772853 128,26.1772853 96,26.1772853 C60,26.1772853 22,20.1772853 0,38.1772853 C0,78.1772853 20,112.177285 36,144.177285 C58,188.177285 80,230.177285 104,270.177285 C104,272.177285 106,274.177285 106,276.177285 C110,280.177285 112,286.177285 116,290.177285 C116,292.177285 118,294.177285 118,296.177285 C122,300.177285 124,306.177285 128,310.177285 C128,312.177285 130,314.177285 132,316.177285 L144,334.177285 L144,334.177285 C148,340.177285 152,348.177285 156,354.177285 C158,356.177285 158,358.177285 160,358.177285 C164,364.177285 166,368.177285 170,372.177285 C170,374.177285 172,376.177285 174,378.177285 C176,382.177285 180,388.177285 184,392.177285 C184,394.177285 186,396.177285 188,398.177285 C192,404.177285 196,410.177285 202,416.177285 C264,494.177285 334,568.177285 472,584.177285 C516,588.177285 580,592.177285 594,566.177285 C614,534.177285 592,458.177285 636,452.177285 C666,446.177285 692,492.177285 710,510.177285 C740,544.177285 776,580.177285 828,590.177285 L832,590.177285 C878,570.177285 1016,612.177285 1024,554.177285 C1026,534.177285 1002,502.177285 990,488.177285 Z"></path>
  </g>
</svg>