<?xml version="1.0" standalone="no"?>
<!DOCTYPE svg PUBLIC "-//W3C//DTD SVG 1.1//EN" "http://www.w3.org/Graphics/SVG/1.1/DTD/svg11.dtd" >
<svg xmlns="http://www.w3.org/2000/svg" xmlns:xlink="http://www.w3.org/1999/xlink" version="1.1" viewBox="-10 0 1045 1024">
   <path fill="currentColor"
d="M990 565c-30 -40 -56 -64 -94 -100c-16 -16 -38 -32 -40 -54c-2 -30 26 -58 40 -78l6 -6l4 -4c0 -2 2 -2 2 -4c2 -2 2 -4 4 -4c0 -2 2 -2 2 -2c2 -2 2 -4 4 -6c26 -34 52 -64 78 -104c8 -14 34 -64 26 -84c-12 -24 -74 -16 -108 -16c-42 0 -88 -8 -118 4
c-18 6 -30 46 -40 68c-16 34 -30 62 -46 88c0 2 -2 4 -4 6v0c0 2 -2 4 -4 6v0c-2 4 -4 8 -6 10c0 2 -2 2 -2 2c0 2 -2 2 -2 4c-2 2 -2 2 -2 4c-2 0 -2 2 -4 4c0 0 -2 2 -2 4c-2 0 -2 2 -2 2c-2 2 -4 4 -6 8c-14 20 -28 44 -54 48c-2 -2 -2 -2 -4 -2v-2h-2c0 -2 -2 -2 -2 -2
l-2 -2v0s0 -2 -2 -2v0c0 -2 -2 -2 -2 -2v-2s-2 0 -2 -2v0c0 -2 0 -2 -2 -2v-2v-2h-2v-4v0l-2 -2v-2v-2s0 -2 -2 -2v-2v-2v-2v0c0 -2 0 -2 -2 -2v-2v-2v-2v-2v-2v-4v0v-4v0v-4c0 0 -2 0 -2 -2v-2v-2v-2v-2v-2c0 -2 2 -2 2 -2v-2v-2v-4v0v-4v0v-16v-2c0 -4 0 -10 2 -14
c0 -44 14 -102 -6 -136c-18 -30 -86 -26 -134 -26c-58 0 -104 4 -122 38c20 14 42 14 52 34c12 22 14 68 12 110v6c0 36 -2 94 -26 98s-44 -32 -58 -50c-2 -4 -4 -6 -6 -10l-2 -2c-2 -2 -2 -4 -4 -8l-2 -2c-2 -2 -4 -4 -4 -6c-2 -2 -2 -2 -2 -4c-2 -2 -4 -6 -6 -8
c-18 -30 -36 -60 -52 -98c-12 -22 -26 -60 -38 -66c-24 -12 -72 -6 -104 -6c-36 0 -74 -6 -96 12c0 40 20 74 36 106c22 44 44 86 68 126c0 2 2 4 2 6c4 4 6 10 10 14c0 2 2 4 2 6c4 4 6 10 10 14c0 2 2 4 4 6l12 18v0c4 6 8 14 12 20c2 2 2 4 4 4c4 6 6 10 10 14
c0 2 2 4 4 6c2 4 6 10 10 14c0 2 2 4 4 6c4 6 8 12 14 18c62 78 132 152 270 168c44 4 108 8 122 -18c20 -32 -2 -108 42 -114c30 -6 56 40 74 58c30 34 66 70 118 80h4c46 -20 184 22 192 -36c2 -20 -22 -52 -34 -66z" />
</svg>
