<?xml version="1.0" encoding="UTF-8"?>
<svg width="921px" height="930px" viewBox="0 0 921 930" version="1.1" xmlns="http://www.w3.org/2000/svg" xmlns:xlink="http://www.w3.org/1999/xlink">
  <g id="VRChat" transform="translate(0.0401, 0.6614)" fill="currentColor" fill-rule="nonzero">
    <path d="M807.9998,0 C869.8562,0 919.9998,50.1436 919.9998,112 L919.9998,584 C919.9998,645.8564 869.8562,696 807.9998,696 L819.9998,696 L819.9998,869.115 C819.9998,902.2517 793.1365,929.115 759.9998,929.115 C741.0594,929.115 723.2332,920.17262 711.908,904.992 L556,696.001 L112,696.001 C50.1436,696.001 0,645.8574 0,584.001 L0,112.001 C0,50.1446 50.1436,0 112,0 L808,0 L808,0 L807.9998,0 Z M807.9998,40 L111.9998,40 C72.2352,40 39.9998,72.2354 39.9998,112 L39.9998,580 C39.9998,619.7637 72.2352,652 111.9998,652 L575.9998,652 L751.3188,879.874 C754.34712,883.81052 759.03267,886.11814 763.9995,886.11814 C772.83641,886.11814 779.9995,878.95505 779.9995,870.11814 L779.9995,652.00114 L807.9995,652.00114 C847.7632,652.00114 879.9995,619.76484 879.9995,580.00114 L879.9995,112.00114 C879.9995,72.23654 847.7632,40 807.9995,40 L807.9995,40 L807.9998,40 Z M213.5858,170.2031 C213.5858,170.2031 200.5467,153.9179 173.7342,164.01169 C155.8592,170.74118 147.7557,179.43849 149.4246,190.10149 L250.7016,519.51149 C250.7016,519.51149 260.38129,537.30059 294.1547,537.30059 C326.8559,537.30059 334.3061,520.62289 334.7465,519.56519 L429.3227,210.91119 C429.3227,210.91119 447.0258,173.38779 414.3774,164.01279 C392.6118,157.76279 378.0122,161.70322 370.5805,175.83309 L294.1547,446.96609 L213.5844,170.20409 L213.5858,170.2031 Z M625.9958,160.7111 C665.8112,160.7111 718.9802,193.6055 718.9802,270.6089 C718.9802,321.9448 697.0661,354.4273 653.238,368.0571 L721.571,495.9051 L721.668656,496.233225 L721.831742,496.889475 C722.766312,500.980295 725.125692,517.160975 707.917642,529.839675 C694.680342,539.592605 679.934242,539.592605 663.679342,529.839675 L586.179342,379.862675 L541.652942,379.862675 L541.652942,517.159675 L541.372669,517.9878 C539.964469,521.77979 532.778919,537.3003 509.515269,537.3003 C491.848269,537.3003 480.662769,530.58643 475.956669,517.1597 L475.956669,178.7677 C475.956669,166.7306 483.037719,160.7111 497.198869,160.7111 L625.995869,160.7111 L625.9958,160.7111 Z M607.9998,220 L539.9998,220 L539.9998,328 L603.9998,328 C630.5096,328 651.9998,306.5098 651.9998,280 L651.9998,264 C651.9998,239.6992 632.3006,220 607.9998,220 Z"></path>
  </g>
</svg>