<?xml version="1.0" standalone="no"?>
<!DOCTYPE svg PUBLIC "-//W3C//DTD SVG 1.1//EN" "http://www.w3.org/Graphics/SVG/1.1/DTD/svg11.dtd" >
<svg xmlns="http://www.w3.org/2000/svg" xmlns:xlink="http://www.w3.org/1999/xlink" version="1.1" viewBox="-10 0 1034 1024">
   <path fill="currentColor"
d="M856 -85c61.8564 0 112 50.1436 112 112v472c0 61.8564 -50.1436 112 -112 112h12v173.115c0 33.1367 -26.8633 60 -60 60c-18.9404 0 -36.7666 -8.94238 -48.0918 -24.123l-155.908 -208.991h-444c-61.8564 0 -112 -50.1436 -112 -112v-472
c0 -61.8564 50.1436 -112 112 -112h696v-0.000976562zM856 -45h-696c-39.7646 0 -72 32.2354 -72 72v468c0 39.7637 32.2354 72 72 72h464l175.319 227.874c3.02832 3.93652 7.71387 6.24414 12.6807 6.24414c8.83691 0 16 -7.16309 16 -16v-218.117h28
c39.7637 0 72 -32.2363 72 -72v-468c0 -39.7646 -32.2363 -72 -72 -72v-0.000976562zM261.586 85.2031c0 0 -13.0391 -16.2852 -39.8516 -6.19141c-17.875 6.72949 -25.9785 15.4268 -24.3096 26.0898l101.277 329.41s9.67969 17.7891 43.4531 17.7891
c32.7012 0 40.1514 -16.6777 40.5918 -17.7354l94.5762 -308.654s17.7031 -37.5234 -14.9453 -46.8984c-21.7656 -6.25 -36.3652 -2.30957 -43.7969 11.8203l-76.4258 271.133l-80.5703 -276.762zM673.996 75.7119c39.8154 0 92.9844 32.8936 92.9844 109.897
c0 51.3359 -21.9141 83.8184 -65.7422 97.4482l68.333 127.848l0.0976562 0.328125l0.163086 0.65625c0.93457 4.09082 3.29395 20.2715 -13.9141 32.9502c-13.2373 9.75293 -27.9834 9.75293 -44.2383 0l-77.5 -149.977h-44.5264v137.297l-0.280273 0.828125
c-1.4082 3.79199 -8.59375 19.3125 -31.8574 19.3125c-17.667 0 -28.8525 -6.71387 -33.5586 -20.1406v-338.392c0 -12.0371 7.08105 -18.0566 21.2422 -18.0566h128.797zM656 135h-68v108h64c26.5098 0 48 -21.4902 48 -48v-16c0 -24.3008 -19.6992 -44 -44 -44z" />
</svg>
