<?xml version="1.0" standalone="no"?>
<!DOCTYPE svg PUBLIC "-//W3C//DTD SVG 1.1//EN" "http://www.w3.org/Graphics/SVG/1.1/DTD/svg11.dtd" >
<svg xmlns="http://www.w3.org/2000/svg" xmlns:xlink="http://www.w3.org/1999/xlink" version="1.1" viewBox="-10 0 1044 1024">
   <path fill="currentColor"
d="M512 -141c-282.624 0 -512 229.376 -512 512s229.376 512 512 512s512 -229.376 512 -512s-229.376 -512 -512 -512v0zM800.768 571.704l-75.7754 -58.3682c18.4316 -27.6475 31.7441 -59.3916 38.9121 -94.208l95.2314 12.2881
c-10.2393 52.2236 -29.6953 99.3281 -58.3682 140.288v0zM512 723.256c-10.2402 0 -20.4805 -1.02344 -29.6963 -1.02344l12.2881 -95.2324c6.14453 0 11.2646 1.02441 17.4082 1.02441c28.6719 0 57.3438 -5.12012 82.9443 -14.3359l36.8633 89.0879
c-37.8877 12.2881 -77.8232 20.4795 -119.808 20.4795v0zM310.272 658.744l58.3672 -75.7764c27.6484 18.4326 59.3926 31.7441 94.208 38.9121l-12.2881 95.2324c-51.1992 -9.21582 -99.3271 -28.6719 -140.287 -58.3682v0zM512 595.256
c-123.904 0 -224.256 -100.352 -224.256 -224.256s100.352 -224.256 224.256 -224.256s224.256 100.352 224.256 224.256s-100.352 224.256 -224.256 224.256v0zM224.256 169.272l75.7764 58.3672c-18.4326 27.6484 -31.7441 59.3926 -38.9121 93.1846l-95.2324 -12.2881
c9.21582 -51.2002 29.6963 -98.3037 58.3682 -139.264v0zM159.744 371c0 -10.2402 1.02344 -20.4805 2.04785 -30.7197l95.2324 12.2881c0 6.14355 -1.02441 12.2881 -1.02441 18.4316c0 28.6719 5.12012 56.3203 13.3115 81.9199l-89.0879 36.8643
c-12.2881 -36.8643 -20.4795 -76.7998 -20.4795 -118.784v0zM512 18.7441c10.2402 0 20.4805 1.02344 29.6963 1.02344l-12.2881 95.2324h-17.4082c-28.6719 0 -56.3203 5.12012 -82.9443 14.3359l-36.8633 -89.0879c37.8877 -13.3125 77.8232 -21.5039 119.808 -21.5039v0z
M712.704 82.2324l-58.3682 75.7754c-27.6475 -18.4316 -59.3916 -31.7441 -93.1836 -38.9121l12.2881 -95.2314c51.1992 10.2393 98.3037 29.6953 139.264 58.3682v0zM864.256 371c0 10.2402 -1.02344 19.4561 -1.02344 29.6963l-95.2324 -12.2881
c0 -5.12012 1.02441 -11.2646 1.02441 -16.3838c0 -29.6963 -5.12012 -57.3447 -14.3359 -82.9443l89.0879 -36.8643c12.2881 35.8398 20.4795 76.7998 20.4795 118.784v0zM871.424 237.88c-10.2402 -27.6475 -23.5518 -54.2715 -39.9355 -78.8477l77.8232 -56.3203
c22.5283 32.7686 39.9365 67.584 53.248 105.472zM830.464 221.496l-89.0879 36.8643c-15.3604 -30.7207 -35.8398 -57.3447 -61.4404 -79.8721l58.3682 -75.7764c38.9121 31.7441 69.6318 72.7041 92.1602 118.784v0zM724.992 51.5117
c-24.5762 -16.3838 -51.2002 -29.6953 -78.8486 -39.9355l29.6963 -91.1357c37.8877 13.3115 72.7041 31.7432 105.472 53.248zM615.424 1.33594c-27.6475 -8.19238 -57.3438 -12.2881 -87.04 -13.3115v-96.2568c40.96 1.02441 79.8721 7.16797 116.736 18.4326z
M495.616 -11.9756c-29.6963 1.02344 -59.3926 6.14355 -87.04 13.3115l-29.6963 -91.1357c36.8643 -11.2646 76.7998 -17.4082 116.736 -18.4326v96.2568zM377.856 11.5762c-27.6484 10.2402 -54.2725 23.5518 -78.8486 39.9355l-56.3193 -77.8232
c32.7676 -21.5049 68.6074 -39.9365 105.472 -53.248zM363.52 52.5361l36.8643 89.0879c-30.7197 15.3604 -58.3682 35.8398 -79.8721 61.4404l-75.7754 -58.3682c30.7197 -38.9121 71.6797 -70.6562 118.783 -92.1602v0zM192.512 159.032
c-16.3838 24.5762 -29.6953 51.2002 -39.9355 78.8477l-91.1357 -29.6963c13.3115 -37.8877 30.7197 -72.7031 53.248 -105.472zM142.336 268.6c-8.19238 27.6484 -12.2881 57.3447 -13.3115 87.04h-96.2568c1.02441 -39.9355 7.16797 -79.8721 18.4326 -116.735z
M129.024 387.384c1.02344 29.6963 6.14355 59.3926 13.3115 87.04l-91.1357 29.6963c-11.2646 -36.8643 -17.4082 -76.7998 -18.4326 -116.736h96.2568zM152.576 505.144c10.2402 27.6484 23.5518 54.2725 39.9355 78.8486l-77.8232 56.3193
c-21.5049 -32.7676 -39.9365 -67.584 -53.248 -105.472zM193.536 519.48l89.0879 -36.8643c15.3604 30.7197 35.8398 58.3682 61.4404 80.8955l-58.3682 75.7764c-38.9121 -32.7686 -70.6562 -73.7285 -92.1602 -119.808v0zM300.032 690.488
c24.5762 16.3838 51.2002 29.6953 78.8477 39.9355l-29.6963 91.1357c-37.8877 -13.3115 -72.7031 -31.7432 -105.472 -53.248zM408.576 740.664c27.6475 8.19238 57.3438 12.2881 87.04 13.3115v96.2568c-39.9365 -1.02441 -79.8721 -7.16797 -116.736 -18.4326z
M528.384 753.976c29.6963 -1.02344 59.3926 -6.14355 87.04 -13.3115l29.6963 91.1357c-36.8643 10.2402 -76.7998 17.4082 -116.736 18.4326v-96.2568zM645.12 730.424c27.6475 -10.2402 54.2715 -23.5518 78.8477 -39.9355l56.3203 77.8232
c-32.7686 22.5283 -67.584 39.9365 -105.472 53.248zM661.504 689.464l-36.8643 -89.0879c30.7207 -15.3604 58.3682 -35.8398 80.8965 -61.4404l75.7754 58.3682c-32.7676 38.9121 -73.7275 69.6318 -119.808 92.1602v0zM831.488 583.992
c16.3838 -24.5762 29.6953 -51.2002 39.9355 -78.8486l91.1357 29.6963c-13.3115 37.8877 -31.7432 72.7041 -53.248 105.472zM881.664 474.424c8.19238 -27.6475 12.2881 -57.3438 13.3115 -87.04h96.2568c-1.02441 39.9365 -7.16797 79.8721 -18.4326 116.736z
M894.976 355.64c-1.02344 -29.6953 -6.14355 -59.3916 -13.3115 -87.04l91.1357 -29.6953c10.2402 36.8633 17.4082 76.7998 18.4326 116.735h-96.2568zM890.88 77.1123l-77.8242 56.3193c-18.4316 -23.5518 -38.9121 -44.0312 -62.4639 -62.4639l56.3203 -77.8242
c30.7197 24.5762 59.3916 52.2246 83.9678 83.9688v0zM217.088 -6.85645l56.3203 77.8242c-23.5518 18.4326 -44.0322 38.9121 -62.4639 62.4639l-77.8242 -56.3193c24.5762 -31.7441 53.248 -59.3926 83.9678 -83.9688v0zM134.144 665.912l77.8242 -56.3203
c18.4326 23.5518 38.9121 44.0322 62.4639 62.4639l-56.3193 77.8242c-31.7441 -24.5762 -59.3926 -53.248 -83.9688 -83.9678v0zM805.888 748.856l-56.3193 -77.8242c23.5518 -18.4326 44.0312 -38.9121 62.4639 -62.4639l77.8242 56.3193
c-24.5762 31.7441 -52.2246 60.416 -83.9688 83.9688v0z" />
</svg>
