<?xml version="1.0" encoding="UTF-8"?>
<svg width="1024px" height="1025px" viewBox="0 0 1024 1025" version="1.1" xmlns="http://www.w3.org/2000/svg" xmlns:xlink="http://www.w3.org/1999/xlink">
  <g id="Vsco" transform="translate(0, 0.0926)" fill="currentColor" fill-rule="nonzero">
    <path d="M512,0 C229.376,0 0,229.376 0,512 C0,794.624 229.376,1024 512,1024 C794.624,1024 1024,794.624 1024,512 C1024,229.376 794.624,0 512,0 L512,0 Z M800.768,712.704 L724.9926,654.3358 C743.4242,626.6883 756.7367,594.9442 763.9047,560.1278 L859.1361,572.4159 C848.8968,624.6395 829.4408,671.744 800.7679,712.704 L800.7679,712.704 L800.768,712.704 Z M512,864.25607 C501.7598,864.25607 491.5195,863.23256 482.3037,863.23256 L494.5918,768.00016 C500.73633,768.00016 505.8564,769.02457 512,769.02457 C540.6719,769.02457 569.3438,763.90445 594.9443,754.68867 L631.8076,843.77657 C593.9199,856.06467 553.9844,864.25607 511.9996,864.25607 L511.9996,864.25607 L512,864.25607 Z M310.272,799.744 L368.6392,723.9676 C396.2876,742.4002 428.0318,755.7117 462.8472,762.8797 L450.5591,858.1121 C399.3599,848.89628 351.232,829.4402 310.272,799.7439 L310.272,799.7439 L310.272,799.744 Z M512,736.256 C388.096,736.256 287.744,635.904 287.744,512 C287.744,388.096 388.096,287.744 512,287.744 C635.904,287.744 736.256,388.096 736.256,512 C736.256,635.904 635.904,736.256 512,736.256 L512,736.256 Z M224.256,310.2717 L300.0324,368.6392 C281.5998,396.2876 268.2883,428.0318 261.1203,461.8238 L165.8879,449.5357 C175.10372,398.3355 195.5842,351.232 224.2561,310.2717 L224.2561,310.2717 L224.256,310.2717 Z M159.74394,512 C159.74394,501.7598 160.76744,491.5195 161.79185,481.2803 L257.02425,493.5684 C257.02425,499.71195 255.99984,505.8565 255.99984,512 C255.99984,540.6719 261.11996,568.3203 269.31134,593.9199 L180.22344,630.7842 C167.93534,593.9199 159.74394,553.9844 159.74394,512.0002 L159.74394,512.0002 L159.74394,512 Z M512,159.74404 C522.2402,159.74404 532.4805,160.76754 541.6963,160.76754 L529.4082,255.99994 L512,255.99994 C483.3281,255.99994 455.6797,261.12006 429.0557,270.33584 L392.1924,181.24794 C430.0801,167.93544 470.0156,159.74404 512.0004,159.74404 L512.0004,159.74404 L512,159.74404 Z M712.7043,223.2324 L654.3358,299.0078 C626.6883,280.5762 594.9442,267.2637 561.1522,260.0957 L573.4403,164.8643 C624.6395,175.1036 671.744,194.5596 712.7043,223.2325 L712.7043,223.2325 L712.7043,223.2324 Z M864.25607,512 C864.25607,522.2402 863.23256,531.4561 863.23256,541.6963 L768.00016,529.4082 C768.00016,524.28808 769.02457,518.1436 769.02457,513.0244 C769.02457,483.3281 763.90445,455.6797 754.68867,430.0801 L843.77657,393.2158 C856.06467,429.0556 864.25607,470.0156 864.25607,511.9998 L864.25607,511.9998 L864.25607,512 Z M871.424,378.88 C861.1838,351.2325 847.8722,324.6085 831.4885,300.0323 L909.3117,243.712 C931.84,276.4806 949.2482,311.296 962.5597,349.184 L871.424,378.88 Z M830.4641,362.496 L741.3761,399.3603 C726.0157,368.6396 705.5363,342.0156 679.9357,319.4882 L738.3039,243.7118 C777.216,275.4559 807.9357,316.4159 830.4641,362.4958 L830.4641,362.4958 L830.4641,362.496 Z M724.992,192.5117 C700.4158,176.1279 673.7918,162.8164 646.1434,152.5762 L675.8397,61.4405 C713.7274,74.752 748.5438,93.1837 781.3117,114.6885 L724.992,192.5117 Z M615.424,142.33594 C587.7765,134.14356 558.0802,130.04784 528.384,129.02444 L528.384,32.76764 C569.344,33.79205 608.2561,39.93561 645.12,51.20024 L615.424,142.33594 Z M495.616,129.0244 C465.9197,130.04784 436.2234,135.16795 408.576,142.3359 L378.8797,51.2002 C415.744,39.9356 455.6795,33.792 495.616,32.7676 L495.616,129.0244 L495.616,129.0244 Z M377.856,152.5762 C350.2076,162.8164 323.5835,176.128 299.0074,192.5117 L242.6881,114.6885 C275.4557,93.1836 311.2955,74.752 348.1601,61.4405 L377.856,152.5762 Z M363.52,193.536 L400.3843,282.624 C369.6646,297.9844 342.0161,318.4638 320.5122,344.0644 L244.7368,285.6962 C275.4565,246.7841 316.4165,215.04 363.5198,193.536 L363.5198,193.536 L363.52,193.536 Z M192.512,300.032 C176.1282,324.6082 162.8167,351.2322 152.5765,378.8797 L61.4408,349.1834 C74.7523,311.2957 92.1605,276.4803 114.6888,243.7114 L192.512,300.032 Z M142.336,409.6 C134.14362,437.2484 130.0479,466.9447 129.0245,496.64 L32.7677,496.64 C33.79211,456.7045 39.93567,416.7679 51.2003,379.905 L142.336,409.6 Z M129.024,528.384 C130.04744,558.0803 135.16755,587.7766 142.3355,615.424 L51.1998,645.1203 C39.9352,608.256 33.7916,568.3205 32.7672,528.384 L129.024,528.384 L129.024,528.384 Z M152.576,646.144 C162.8162,673.7924 176.1278,700.4165 192.5115,724.9926 L114.6883,781.3119 C93.1834,748.5443 74.7518,713.7279 61.4403,675.8399 L152.576,646.144 Z M193.5359,660.48 L282.6239,623.6157 C297.9843,654.3354 318.4637,681.9839 344.0643,704.5112 L285.6961,780.2876 C246.784,747.519 215.0399,706.5591 193.5359,660.4796 L193.5359,660.4796 L193.5359,660.48 Z M300.032,831.488 C324.6082,847.8718 351.2322,861.1833 378.8797,871.4235 L349.1834,962.5592 C311.2957,949.2477 276.4803,930.816 243.7114,909.3112 L300.032,831.488 Z M408.576,881.664 C436.2235,889.85638 465.9198,893.9521 495.616,894.9755 L495.616,991.2323 C455.6795,990.20789 415.7439,984.06433 378.88,972.7997 L408.576,881.664 Z M528.384,894.976 C558.0803,893.95256 587.7766,888.83245 615.424,881.6645 L645.1203,972.8002 C608.256,983.0404 568.3205,990.2084 528.384,991.2328 L528.384,894.976 L528.384,894.976 Z M645.12,871.424 C672.7675,861.1838 699.3915,847.8722 723.9677,831.4885 L780.288,909.3117 C747.5194,931.84 712.704,949.2482 674.816,962.5597 L645.12,871.424 Z M661.504,830.4641 L624.6397,741.3761 C655.3604,726.0157 683.0079,705.5363 705.5362,679.9357 L781.3116,738.3039 C748.544,777.216 707.5841,807.9357 661.5036,830.4641 L661.5036,830.4641 L661.504,830.4641 Z M831.488,724.992 C847.8718,700.4158 861.1833,673.7918 871.4235,646.1434 L962.5592,675.8397 C949.2477,713.7274 930.816,748.5438 909.3112,781.3117 L831.488,724.992 Z M881.664,615.424 C889.85638,587.7765 893.9521,558.0802 894.9755,528.384 L991.2323,528.384 C990.20789,568.3205 984.06433,608.2561 972.7997,645.12 L881.664,615.424 Z M894.976,496.64 C893.95256,466.9447 888.83245,437.2484 881.6645,409.6 L972.8002,379.9047 C983.0404,416.768 990.2084,456.7045 991.2328,496.64 L894.976,496.64 L894.976,496.64 Z M890.88,218.1123 L813.0558,274.4316 C794.6242,250.8798 774.1437,230.4004 750.5919,211.9677 L806.9122,134.1435 C837.6319,158.7197 866.3038,186.3681 890.88,218.1123 L890.88,218.1123 Z M217.088,134.14355 L273.4083,211.96775 C249.8565,230.40035 229.3761,250.87985 210.9444,274.43165 L133.1202,218.11235 C157.6964,186.36825 186.3682,158.71975 217.088,134.14355 L217.088,134.14355 L217.088,134.14355 Z M134.144,806.912 L211.9682,750.5917 C230.4008,774.1435 250.8803,794.6239 274.4321,813.0556 L218.1128,890.8798 C186.3687,866.3036 158.7202,837.6318 134.144,806.912 L134.144,806.912 L134.144,806.912 Z M805.888,889.856 L749.5687,812.0318 C773.1205,793.5992 793.5999,773.1197 812.0326,749.5679 L889.8568,805.8872 C865.2806,837.6313 837.6322,866.3032 805.888,889.856 L805.888,889.856 Z"></path>
  </g>
</svg>