<?xml version="1.0" standalone="no"?>
<!DOCTYPE svg PUBLIC "-//W3C//DTD SVG 1.1//EN" "http://www.w3.org/Graphics/SVG/1.1/DTD/svg11.dtd" >
<svg xmlns="http://www.w3.org/2000/svg" xmlns:xlink="http://www.w3.org/1999/xlink" version="1.1" viewBox="-10 0 1044 1024">
   <path fill="currentColor"
d="M512 -51c234 0 422 188 422 422s-188 422 -422 422s-422 -188 -422 -422s188 -422 422 -422zM512 -141c-282 0 -512 230 -512 512s230 512 512 512s512 -230 512 -512s-230 -512 -512 -512zM934 143v-186c0 -2 -2 -4 -2 -6c-2 0 -4 -2 -6 -2h-188c12 66 136 180 196 194z
M92 599v188c0 2 0 4 2 4c0 2 2 2 4 2h188c-10 -66 -134 -178 -194 -194zM738 791h188c2 0 4 0 6 -2c0 0 2 -2 2 -4v-188c-68 10 -180 134 -196 194zM286 -51h-188c-2 0 -4 0 -4 2c-2 2 -2 2 -2 4v188c66 -10 178 -134 194 -194zM238 149h158s-8 36 -6 54c8 68 52 260 52 260
l74 -300l76 294s44 -258 44 -276c0 -16 -16 -34 -16 -34h164s-34 32 -46 76c-16 56 -66 342 -66 360c0 30 20 52 20 52h-154s4 -16 4 -42s-24 -152 -24 -152s-30 130 -30 154c0 22 10 40 10 40h-160s30 -22 30 -42c-4 -60 -86 -364 -92 -388c-10 -40 -38 -56 -38 -56z" />
</svg>
