<?xml version="1.0" encoding="UTF-8"?>
<svg width="1024px" height="1025px" viewBox="0 0 1024 1025" version="1.1" xmlns="http://www.w3.org/2000/svg" xmlns:xlink="http://www.w3.org/1999/xlink">
  <g id="Warcraft" transform="translate(0, 0.0926)" fill="currentColor" fill-rule="nonzero">
    <path d="M512,90 C746,90 934,278 934,512 C934,746 746,934 512,934 C278,934 90,746 90,512 C90,278 278,90 512,90 Z M512,0 C230,0 0,230 0,512 C0,794 230,1024 512,1024 C794,1024 1024,794 1024,512 C1024,230 794,0 512,0 Z M934,284 L934,98 C934,96 932,94 932,92 C930,92 928,90 926,90 L738,90 C750,156 874,270 934,284 Z M92,740 L92,928 C92,930 92,932 94,932 C94,934 96,934 98,934 L286,934 C276,868 152,756 92,740 Z M738,932 L926,932 C928,932 930,932 932,930 C932,930 934,928 934,926 L934,738 C866,748 754,872 738,932 Z M286,90 L98,90 C96,90 94,90 94,92 C92,94 92,94 92,96 L92,284 C158,274 270,150 286,90 Z M238,290 L396,290 C396,290 388,326 390,344 C398,412 442,604 442,604 L516,304 L592,598 C592,598 636,340 636,322 C636,306 620,288 620,288 L784,288 C784,288 750,320 738,364 C722,420 672,706 672,724 C672,754 692,776 692,776 L538,776 C538,776 542,760 542,734 C542,708 518,582 518,582 C518,582 488,712 488,736 C488,758 498,776 498,776 L338,776 C338,776 368,754 368,734 C364,674 282,370 276,346 C266,306 238,290 238,290 Z"></path>
  </g>
</svg>