<?xml version="1.0" encoding="UTF-8"?>
<svg width="871px" height="727px" viewBox="0 0 871 727" version="1.1" xmlns="http://www.w3.org/2000/svg" xmlns:xlink="http://www.w3.org/1999/xlink">
  <g id="Weasyl" transform="translate(0.2853, 0.8284)" fill="currentColor" fill-rule="nonzero">
    <path d="M613.879527,0.0697647604 C491.469527,-2.49273524 360.353527,65.3558648 305.949527,233.465765 C228.150727,110.512765 225.974927,25.6407648 225.974927,25.6407648 L151.440727,71.0684648 C151.440727,71.0684648 149.248347,187.494465 262.426727,268.012465 C-98.8192729,332.753665 -78.6902729,704.337465 270.968717,689.104465 C311.064417,687.378875 227.064417,742.475565 341.150317,720.604465 C548.976317,680.943365 679.003317,607.442465 790.533317,487.751465 C841.999117,432.259265 762.243317,455.653765 794.700307,413.217265 C973.147307,179.278265 804.492297,4.09626476 614.076307,0.28526476 L613.879527,0.0697647604 Z M759.683527,68.6185948 L744.505827,482.095595 L615.022827,584.374595 L470.306827,355.874595 L469.772647,654.557595 L364.227647,688.451195 L140.624647,338.085195 L235.832647,301.525595 L389.253647,543.081595 L392.033917,168.233595 L450.246817,150.279495 L654.264817,466.914495 L656.190597,99.6834948 L759.683527,68.6185948 Z"></path>
  </g>
</svg>