<?xml version="1.0" standalone="no"?>
<!DOCTYPE svg PUBLIC "-//W3C//DTD SVG 1.1//EN" "http://www.w3.org/Graphics/SVG/1.1/DTD/svg11.dtd" >
<svg xmlns="http://www.w3.org/2000/svg" xmlns:xlink="http://www.w3.org/1999/xlink" version="1.1" viewBox="-10 0 1034 1024">
   <path fill="currentColor"
d="M691.536 8.12207c-122.41 -2.5625 -253.526 65.2861 -307.93 233.396c-77.7988 -122.953 -79.9746 -207.825 -79.9746 -207.825l-74.5342 45.4277s-2.19238 116.426 110.986 196.944c-361.246 64.7412 -341.117 436.325 8.54199 421.092
c40.0957 -1.72559 -43.9043 53.3711 70.1816 31.5c207.826 -39.6611 337.853 -113.162 449.383 -232.853c51.4658 -55.4922 -28.29 -32.0977 4.16699 -74.5342c178.447 -233.939 9.79199 -409.121 -180.624 -412.932zM837.34 76.6709l-15.1777 413.477l-129.483 102.279
l-144.716 -228.5l-0.53418 298.683l-105.545 33.8936l-223.603 -350.366l95.208 -36.5596l153.421 241.556l2.78027 -374.848l58.2129 -17.9541l204.018 316.635l1.92578 -367.231z" />
</svg>
