<?xml version="1.0" encoding="UTF-8"?>
<svg width="1025px" height="884px" viewBox="0 0 1025 884" version="1.1" xmlns="http://www.w3.org/2000/svg" xmlns:xlink="http://www.w3.org/1999/xlink">
  <g id="WeChat" transform="translate(0.437, 0.6046)" fill="currentColor" fill-rule="nonzero">
    <path d="M711.754938,290.916409 C615.754938,294.916409 533.754938,324.916409 465.754938,388.916409 C399.754938,454.916409 367.754938,536.916409 375.754938,636.916409 C339.754938,632.916409 305.754938,626.916409 271.754938,624.916409 C259.754938,622.916409 245.754938,624.916409 235.754938,630.916409 C201.754938,648.916409 171.754938,670.916409 133.754938,692.916409 C139.754938,662.916409 143.754938,634.916409 151.754938,608.916409 C157.754938,588.916409 155.754938,578.916409 137.754938,564.916409 C23.7549379,484.916409 -24.2450621,364.916409 11.7549379,240.916409 C45.7549379,124.916409 125.754938,54.9164095 237.754938,18.9164095 C389.754938,-31.0835905 561.754938,20.9164095 653.754938,140.916409 C685.754938,182.916409 705.754938,232.916409 711.754938,290.916409 Z M273.754938,250.916409 C275.754938,228.916409 255.754938,208.916409 231.754938,206.916409 C207.754938,206.916409 187.754938,224.916409 187.754938,248.916409 C187.754938,272.916409 205.754938,290.916409 229.754938,292.916409 C251.754938,292.916409 273.754938,274.916409 273.754938,250.916409 Z M501.754938,206.916409 C479.754938,206.916409 459.754938,228.916409 459.754938,250.916409 C459.754938,274.916409 479.754938,292.916409 503.754938,292.916409 C527.754938,292.916409 545.754938,272.916409 545.754938,248.916409 C545.754938,224.916409 525.754938,206.916409 501.754938,206.916409 Z M925.754938,882.916409 C895.754938,870.916409 867.754938,848.916409 837.754938,846.916409 C807.754938,842.916409 777.754938,860.916409 747.754938,862.916409 C653.754938,872.916409 569.754938,846.916409 501.754938,784.916409 C369.754938,662.916409 389.754938,476.916409 539.754938,376.916409 C675.754938,288.916409 873.754938,318.916409 967.754938,440.916409 C1051.75494,546.916409 1041.75494,688.916409 941.754938,778.916409 C911.754938,804.916409 901.754938,826.916409 919.754938,860.916409 C921.754938,866.916409 923.754938,874.916409 925.754938,882.916409 Z M581.754938,550.916409 C601.754938,550.916409 617.754938,536.916409 617.754938,516.916409 C619.754938,496.916409 603.754938,480.916409 581.754938,480.916409 C563.754938,480.916409 545.754938,498.916409 545.754938,516.916409 C547.754938,536.916409 563.754938,550.916409 581.754938,550.916409 Z M803.754938,480.916409 C785.754938,480.916409 769.754938,496.916409 769.754938,514.916409 C767.754938,534.916409 783.754938,550.916409 803.754938,550.916409 C823.754938,550.916409 837.754938,536.916409 837.754938,516.916409 C837.754938,496.916409 823.754938,480.916409 803.754938,480.916409 Z"></path>
  </g>
</svg>