<?xml version="1.0" standalone="no"?>
<!DOCTYPE svg PUBLIC "-//W3C//DTD SVG 1.1//EN" "http://www.w3.org/Graphics/SVG/1.1/DTD/svg11.dtd" >
<svg xmlns="http://www.w3.org/2000/svg" xmlns:xlink="http://www.w3.org/1999/xlink" version="1.1" viewBox="-10 0 1045 1024">
   <path fill="currentColor"
d="M712 221c-96 4 -178 34 -246 98c-66 66 -98 148 -90 248c-36 -4 -70 -10 -104 -12c-12 -2 -26 0 -36 6c-34 18 -64 40 -102 62c6 -30 10 -58 18 -84c6 -20 4 -30 -14 -44c-114 -80 -162 -200 -126 -324c34 -116 114 -186 226 -222c152 -50 324 2 416 122
c32 42 52 92 58 150zM274 181c2 -22 -18 -42 -42 -44c-24 0 -44 18 -44 42s18 42 42 44c22 0 44 -18 44 -42zM502 137c-22 0 -42 22 -42 44c0 24 20 42 44 42s42 -20 42 -44s-20 -42 -44 -42zM926 813c-30 -12 -58 -34 -88 -36c-30 -4 -60 14 -90 16
c-94 10 -178 -16 -246 -78c-132 -122 -112 -308 38 -408c136 -88 334 -58 428 64c84 106 74 248 -26 338c-30 26 -40 48 -22 82c2 6 4 14 6 22zM582 481c20 0 36 -14 36 -34c2 -20 -14 -36 -36 -36c-18 0 -36 18 -36 36c2 20 18 34 36 34zM804 411c-18 0 -34 16 -34 34
c-2 20 14 36 34 36s34 -14 34 -34s-14 -36 -34 -36z" />
</svg>
