<?xml version="1.0" standalone="no"?>
<!DOCTYPE svg PUBLIC "-//W3C//DTD SVG 1.1//EN" "http://www.w3.org/Graphics/SVG/1.1/DTD/svg11.dtd" >
<svg xmlns="http://www.w3.org/2000/svg" xmlns:xlink="http://www.w3.org/1999/xlink" version="1.1" viewBox="-14 0 1045 1024">
   <path fill="currentColor"
d="M766 357c-14 -4 -24 -8 -18 -26c18 -42 18 -76 2 -102c-34 -48 -124 -46 -230 -2c0 0 -32 14 -24 -12c16 -50 14 -94 -10 -118c-58 -58 -208 2 -336 130c-98 96 -154 200 -154 288c0 170 218 272 430 272c278 0 464 -162 464 -290c0 -78 -66 -122 -124 -140zM426 727
c-170 16 -316 -60 -326 -172c-12 -112 118 -214 286 -232c170 -16 316 60 328 172c10 110 -118 214 -288 232zM950 47c-66 -74 -166 -104 -258 -84c-20 4 -34 26 -30 46c4 22 26 36 46 32c66 -14 136 6 184 58c48 54 62 126 40 190c-6 20 6 42 26 48c20 8 42 -4 50 -24v0
c28 -90 10 -192 -58 -266zM832 291c18 6 36 -4 42 -22c14 -42 6 -92 -26 -128c-34 -38 -82 -50 -126 -42c-18 4 -30 22 -26 40c4 20 22 30 40 26c20 -4 44 2 60 20s20 42 14 64c-6 18 4 36 22 42zM444 409c-82 -20 -172 20 -208 90c-36 72 0 154 80 180
c86 26 184 -14 220 -94c34 -76 -10 -154 -92 -176zM382 595c-16 26 -52 36 -78 24s-34 -42 -18 -66c16 -26 50 -38 76 -26c28 10 36 40 20 68zM436 525c-6 10 -20 14 -30 10s-12 -14 -8 -24c6 -10 20 -16 30 -12s14 16 8 26z" />
</svg>
