<?xml version="1.0" encoding="UTF-8"?>
<svg width="1026px" height="831px" viewBox="0 0 1026 831" version="1.1" xmlns="http://www.w3.org/2000/svg" xmlns:xlink="http://www.w3.org/1999/xlink">
  <g id="Weibo" transform="translate(0.9254, 0)" fill="currentColor" fill-rule="nonzero">
    <path d="M770,400.048885 C756,396.048885 746,392.048885 752,374.048885 C770,332.048885 770,298.048885 754,272.048885 C720,224.048885 630,226.048885 524,270.048885 C524,270.048885 492,284.048885 500,258.048885 C516,208.048885 514,164.048885 490,140.048885 C432,82.0488853 282,142.048885 154,270.048885 C56,366.048885 0,470.048885 0,558.048885 C0,728.048885 218,830.048885 430,830.048885 C708,830.048885 894,668.048885 894,540.048885 C894,462.048885 828,418.048885 770,400.048885 Z M430,770.048885 C260,786.048885 114,710.048885 104,598.048885 C92,486.048885 222,384.048885 390,366.048885 C560,350.048885 706,426.048885 718,538.048885 C728,648.048885 600,752.048885 430,770.048885 Z M954,90.0488853 C888,16.0488853 788,-13.9511147 696,6.04888534 C676,10.0488853 662,32.0488853 666,52.0488853 C670,74.0488853 692,88.0488853 712,84.0488853 C778,70.0488853 848,90.0488853 896,142.048885 C944,196.048885 958,268.048885 936,332.048885 C930,352.048885 942,374.048885 962,380.048885 C982,388.048885 1004,376.048885 1012,356.048885 L1012,356.048885 C1040,266.048885 1022,164.048885 954,90.0488853 Z M836,334.048885 C854,340.048885 872,330.048885 878,312.048885 C892,270.048885 884,220.048885 852,184.048885 C818,146.048885 770,134.048885 726,142.048885 C708,146.048885 696,164.048885 700,182.048885 C704,202.048885 722,212.048885 740,208.048885 C760,204.048885 784,210.048885 800,228.048885 C816,246.048885 820,270.048885 814,292.048885 C808,310.048885 818,328.048885 836,334.048885 Z M448,452.048885 C366,432.048885 276,472.048885 240,542.048885 C204,614.048885 240,696.048885 320,722.048885 C406,748.048885 504,708.048885 540,628.048885 C574,552.048885 530,474.048885 448,452.048885 Z M386,638.048885 C370,664.048885 334,674.048885 308,662.048885 C282,650.048885 274,620.048885 290,596.048885 C306,570.048885 340,558.048885 366,570.048885 C394,580.048885 402,610.048885 386,638.048885 Z M440,568.048885 C434,578.048885 420,582.048885 410,578.048885 C400,574.048885 398,564.048885 402,554.048885 C408,544.048885 422,538.048885 432,542.048885 C442,546.048885 446,558.048885 440,568.048885 Z"></path>
  </g>
</svg>