<?xml version="1.0" standalone="no"?>
<!DOCTYPE svg PUBLIC "-//W3C//DTD SVG 1.1//EN" "http://www.w3.org/Graphics/SVG/1.1/DTD/svg11.dtd" >
<svg xmlns="http://www.w3.org/2000/svg" xmlns:xlink="http://www.w3.org/1999/xlink" version="1.1" viewBox="-10 0 1042 1024">
   <path fill="currentColor"
d="M874 7c-96 -96 -224 -148 -360 -148c-280 0 -508 228 -508 508c0 88 24 176 68 254l-72 262l270 -70c74 40 156 62 242 62v0v0c280 0 508 -228 508 -508c0 -136 -52 -264 -148 -360zM514 789v0c-76 0 -150 -20 -214 -60l-16 -8l-160 42l42 -156l-10 -16
c-42 -68 -64 -144 -64 -224c0 -234 190 -422 422 -422c112 0 218 44 298 124s124 186 124 298c0 232 -190 422 -422 422zM746 473c-14 -6 -76 -38 -88 -42c-10 -4 -20 -6 -28 6c-8 14 -32 42 -40 50s-14 10 -28 4c-12 -6 -52 -20 -102 -64c-36 -32 -62 -74 -70 -88
c-8 -12 0 -18 6 -26c6 -4 12 -14 18 -22c8 -6 10 -12 14 -20s2 -16 -2 -22c-2 -6 -28 -70 -38 -94c-12 -26 -22 -22 -30 -22h-24s-22 2 -34 14c-12 14 -44 44 -44 106c0 64 46 124 52 132s90 136 216 192c30 12 54 20 72 26c32 10 58 8 80 6c26 -4 76 -32 86 -62
c12 -28 12 -54 8 -60c-4 -4 -12 -8 -24 -14z" />
</svg>
