<?xml version="1.0" encoding="UTF-8"?>
<svg width="1021px" height="1025px" viewBox="0 0 1021 1025" version="1.1" xmlns="http://www.w3.org/2000/svg" xmlns:xlink="http://www.w3.org/1999/xlink">
  <g id="WhatsApp" transform="translate(0.1938, 0.6075)" fill="currentColor" fill-rule="nonzero">
    <path d="M872,148 C776,52 648,0 512,0 C232,0 4,228 4,508 C4,596 28,684 72,762 L0,1024 L270,954 C344,994 426,1016 512,1016 L512,1016 L512,1016 C792,1016 1020,788 1020,508 C1020,372 968,244 872,148 Z M512,930 L512,930 C436,930 362,910 298,870 L282,862 L122,904 L164,748 L154,732 C112,664 90,588 90,508 C90,274 280,86 512,86 C624,86 730,130 810,210 C890,290 934,396 934,508 C934,740 744,930 512,930 Z M744,614 C730,608 668,576 656,572 C646,568 636,566 628,578 C620,592 596,620 588,628 C580,636 574,638 560,632 C548,626 508,612 458,568 C422,536 396,494 388,480 C380,468 388,462 394,454 C400,450 406,440 412,432 C420,426 422,420 426,412 C430,404 428,396 424,390 C422,384 396,320 386,296 C374,270 364,274 356,274 L332,274 C332,274 310,276 298,288 C286,302 254,332 254,394 C254,458 300,518 306,526 C312,534 396,662 522,718 C552,730 576,738 594,744 C626,754 652,752 674,750 C700,746 750,718 760,688 C772,660 772,634 768,628 C764,624 756,620 744,614 Z"></path>
  </g>
</svg>