<?xml version="1.0" standalone="no"?>
<!DOCTYPE svg PUBLIC "-//W3C//DTD SVG 1.1//EN" "http://www.w3.org/Graphics/SVG/1.1/DTD/svg11.dtd" >
<svg xmlns="http://www.w3.org/2000/svg" xmlns:xlink="http://www.w3.org/1999/xlink" version="1.1" viewBox="-10 0 1044 1024">
   <path fill="currentColor"
d="M96 159c-24 -38 -62 -76 -92 -88l-4 -2v-36l2 -2h262v36c-36 4 -76 22 -66 60c66 144 126 292 190 438l112 -208c-44 -88 -74 -178 -122 -264c-14 -24 -56 -26 -86 -26v-34h246v34c-22 2 -48 8 -44 34l70 154c22 -48 48 -96 68 -146c10 -40 -36 -42 -64 -44v-32h220v32
c-34 2 -64 12 -82 36c-42 66 -74 142 -108 214c34 78 68 156 102 228l188 -432c-14 -28 -42 -38 -70 -44l-2 -34h208v34c-10 2 -18 4 -26 8c-16 8 -32 24 -42 42l-258 594h-44l-122 -290l-150 290h-44c-88 -182 -150 -372 -242 -552z" />
</svg>
