<?xml version="1.0" encoding="UTF-8"?>
<svg width="1024px" height="681px" viewBox="0 0 1024 681" version="1.1" xmlns="http://www.w3.org/2000/svg" xmlns:xlink="http://www.w3.org/1999/xlink">
  <g id="Wikipedia" transform="translate(0, 0.0926)" fill="currentColor" fill-rule="nonzero">
    <path d="M96,128 C72,90 34,52 4,40 L0,38 L0,2 L2,0 L264,0 L264,36 C228,40 188,58 198,96 C264,240 324,388 388,534 L500,326 C456,238 426,148 378,62 C364,38 322,36 292,36 L292,2 L538,2 L538,36 C516,38 490,44 494,70 L564,224 C586,176 612,128 632,78 C642,38 596,36 568,34 L568,2 L788,2 L788,34 C754,36 724,46 706,70 C664,136 632,212 598,284 C632,362 666,440 700,512 L888,80 C874,52 846,42 818,36 L816,2 L1024,2 L1024,36 C1014,38 1006,40 998,44 C982,52 966,68 956,86 L698,680 L654,680 L532,390 L382,680 L338,680 C250,498 188,308 96,128 Z"></path>
  </g>
</svg>