<?xml version="1.0" standalone="no"?>
<!DOCTYPE svg PUBLIC "-//W3C//DTD SVG 1.1//EN" "http://www.w3.org/Graphics/SVG/1.1/DTD/svg11.dtd" >
<svg xmlns="http://www.w3.org/2000/svg" xmlns:xlink="http://www.w3.org/1999/xlink" version="1.1" viewBox="-11 0 1045 1024">
   <path fill="currentColor"
d="M1019.9 -36.5518c-4.09668 -4.09668 -9.21582 -6.14453 -15.3604 -8.19238c-5.12012 -1.02344 -11.2637 -1.02344 -17.4082 -1.02344h-13.3115v0h-65.5361h-46.0801v0v0c-19.4561 0 -37.8877 7.16797 -54.2725 17.4072
c-16.3838 10.2402 -31.7432 22.5283 -44.0312 33.792c-22.5283 19.4561 -41.9844 43.0088 -60.416 65.5361c-7.16797 -17.4082 -15.3604 -33.792 -23.5527 -49.1514c-14.3359 -26.624 -39.9355 -52.2246 -71.6797 -59.3926c-8.19141 0 -16.3838 -1.02344 -24.5762 -1.02344
h-22.5273h-18.4326h-30.7197h-30.7197h-18.4326h-22.5273c-8.19238 0 -16.3848 0 -24.5762 2.04785c-31.7441 6.14355 -57.3438 32.7676 -71.6797 59.3916v0c-8.19238 15.3604 -16.3848 31.7441 -23.5527 48.1279c-18.4316 -23.5518 -37.8877 -46.0801 -60.416 -65.5361
c-13.3115 -11.2637 -27.6475 -23.5518 -44.0312 -33.792c-16.3848 -10.2393 -34.8164 -17.4072 -54.2725 -17.4072v0h-46.0801h-65.5361v0h-13.3115c-7.16797 0 -15.3604 0 -22.5283 3.07129c-4.0957 2.04785 -7.16797 3.07227 -10.2402 6.14453
c-3.07129 3.07129 -4.0957 8.19141 -4.0957 12.2881c0 3.07129 1.02441 6.14355 1.02441 9.21582c2.04785 4.0957 4.0957 8.19141 7.16797 11.2637c3.07129 3.07227 5.11914 6.14453 7.16797 8.19238c4.0957 6.14355 9.21582 12.2881 12.2881 17.4082v0
c6.14355 10.2393 12.2871 20.4795 18.4316 30.7197c14.3359 24.5762 26.624 51.2002 40.96 76.7998c31.7441 56.3203 64.5117 111.616 105.472 161.792c28.6719 35.8398 63.4883 71.6797 106.496 91.1357c-31.7441 60.416 -64.5117 121.856 -97.2803 182.272
c-28.6719 54.2715 -58.3672 107.52 -89.0879 160.768v0c-1.02344 2.04785 -3.07129 5.12012 -4.0957 8.19238c-2.04785 4.0957 -4.0957 8.19238 -6.14355 13.3115c-2.04883 5.12012 -4.09668 10.2402 -4.09668 16.3848v0v0c0 6.14355 2.04785 11.2637 6.14453 14.3359
c5.12012 5.12012 12.2881 7.16797 19.4561 8.19141c7.16797 1.02441 13.3115 1.02441 18.4316 1.02441h4.0957h35.8408c23.5518 0 46.0791 -1.02441 69.6318 -1.02441h6.14355h10.2402c8.19238 0 17.4082 0 25.5996 -1.02344
c35.8398 -3.07227 69.6318 -21.5039 91.1367 -51.2002c1.02344 -1.02441 3.07129 -4.0957 5.11914 -8.19238c16.3848 -26.624 66.5605 -108.544 89.0889 -144.384c5.11914 -8.19238 14.3359 -23.5518 23.5518 -36.8643c4.0957 -6.14355 8.19141 -12.2881 11.2637 -17.4072
c3.07227 4.0957 7.16797 10.2393 11.2637 17.4072c8.19238 13.3125 18.4326 28.6719 23.5527 36.8643c12.2881 20.4805 33.792 56.3203 53.248 88.0645c10.2393 15.3594 18.4316 30.7197 25.5996 41.9834c3.07227 6.14453 6.14453 10.2402 9.21582 14.3359
c2.04785 4.09668 4.09668 6.14453 5.12012 8.19238c21.5039 29.6963 54.2725 48.1279 91.1357 51.2002c8.19238 1.02344 17.4082 1.02344 25.6006 1.02344h10.2402h6.14355c22.5283 0 46.0801 1.02441 69.6318 1.02441h35.8398h4.09668
c6.14355 0 16.3838 0 25.5996 -3.07227c4.0957 -1.02344 9.21582 -3.07227 12.2881 -7.16797c4.0957 -3.07227 6.14355 -8.19238 6.14355 -14.3359v0c0 -6.14355 -2.04785 -11.2637 -4.0957 -16.3838s-5.12012 -10.2402 -7.16797 -13.3125
c-1.02344 -3.07129 -3.07227 -5.12012 -4.0957 -8.19141v0c-30.7197 -53.248 -59.3926 -107.521 -89.0879 -160.769c-34.8164 -59.3916 -67.584 -120.832 -100.353 -181.248c43.0078 -19.4561 77.8242 -55.2959 106.496 -91.1357
c40.96 -50.1758 74.752 -105.472 105.472 -161.792c14.3369 -25.5996 26.624 -52.2236 40.9609 -76.7998c6.14355 -10.2402 12.2871 -20.4805 18.4316 -30.7197v0c4.0957 -6.14453 8.19141 -12.2881 12.2881 -17.4082v0c2.04785 -2.04785 4.0957 -5.12012 7.16797 -8.19238
s5.12012 -6.14355 7.16797 -11.2637c1.02344 -3.07227 2.04785 -6.14453 2.04785 -9.21582c0 -4.09668 -1.02441 -9.2168 -4.0957 -12.2881zM439.296 84.2803c3.07227 0 5.12012 6.14355 6.14453 20.4795c0 1.02441 -6.14453 0 -12.2881 0
c-3.07227 0 -6.14453 -1.02344 -7.16797 -1.02344c-3.07227 -1.02441 -6.14453 -2.04785 -9.2168 -3.07227c-8.19141 -3.07227 -13.3115 -7.16797 -17.4072 -10.2402c-3.07227 -2.04785 -5.12012 -5.12012 -6.14453 -6.14355c20.4805 1.02344 35.8398 1.02344 46.0801 0z
M446.464 185.656v0v0v0zM453.632 169.272c0 5.11914 -2.04785 11.2637 -6.14355 15.3594c-5.12012 5.12012 -11.2646 7.16797 -17.4082 8.19238c-6.14453 1.02344 -13.3125 2.04785 -19.4561 -1.02441c-7.16797 -4.0957 -10.2402 -12.2881 -11.2637 -19.4561
c-2.04883 -9.21582 -5.12012 -18.4316 -4.09668 -27.6475c0 -5.12012 2.04785 -10.2402 4.09668 -15.3604c2.04785 -5.12012 5.12012 -8.19238 7.16797 -10.2402c9.21582 -6.14355 22.5273 -7.16797 30.7197 1.02441c4.0957 4.0957 6.14355 8.19141 8.19238 13.3115
c5.11914 11.2646 8.19141 23.5527 8.19141 35.8408zM535.552 201.016c-1.02344 1.02441 -2.04785 2.04883 -3.07129 2.04883c-6.14453 4.0957 -13.3125 6.14355 -21.5049 6.14355c-8.19141 0 -15.3594 -2.04785 -21.5039 -6.14355
c-1.02344 -1.02441 -2.04785 -2.04883 -3.07129 -2.04883l-1.02441 -1.02344v-1.02441c1.02441 -1.02344 2.04785 -1.02344 2.04785 0c1.02441 1.02441 2.04785 1.02441 3.07227 2.04785v0c5.12012 4.09668 12.2881 6.14453 19.4561 6.14453
c8.19141 0 14.3359 -2.04785 19.4561 -6.14453v0c1.02344 -1.02344 2.04785 -1.02344 3.07227 -2.04785c1.02344 -1.02344 2.04785 -1.02344 3.07129 0c1.02441 1.02441 1.02441 2.04785 0 2.04785zM574.464 185.656v0v0v0zM622.592 172.344
c-2.04785 7.16797 -5.12012 15.3604 -11.2637 19.4561c-6.14453 3.07227 -13.3125 2.04785 -19.4561 1.02441c-6.14453 -1.02441 -13.3125 -3.07227 -17.4082 -8.19238c-4.0957 -4.0957 -6.14355 -9.21582 -6.14355 -15.3594
c-1.02441 -12.2881 3.07129 -24.5762 7.16797 -35.8408c2.04785 -5.12012 5.12012 -9.21582 8.19141 -13.3115c8.19238 -8.19238 21.5039 -8.19238 30.7207 -1.02441c3.07129 2.04785 5.11914 5.12012 8.19141 10.2402c2.04785 5.12012 4.09668 10.2402 4.09668 15.3604
c0 9.21582 -2.04883 18.4316 -4.09668 27.6475zM621.568 91.4482c-4.09668 3.07129 -9.2168 7.16797 -17.4082 10.2402c-3.07227 1.02344 -6.14453 2.04785 -9.21582 3.07129c-1.02441 0 -4.09668 1.02441 -7.16797 1.02441c-5.12012 1.02344 -12.2881 1.02344 -12.2881 0
c1.02344 -14.3359 3.07129 -21.5039 6.14355 -20.4805c10.2402 1.02441 24.5762 1.02441 45.0566 1.02441c0 0 -2.04883 3.07227 -5.12012 5.12012z" />
</svg>
