<?xml version="1.0" encoding="UTF-8"?>
<svg width="1025px" height="833px" viewBox="0 0 1025 833" version="1.1" xmlns="http://www.w3.org/2000/svg" xmlns:xlink="http://www.w3.org/1999/xlink">
  <g id="Wix" transform="translate(0.7679, 0.0684)" fill="currentColor" fill-rule="nonzero">
    <path d="M1019.904,9.21591 C1015.80732,5.11923 1010.68818,3.07138 1004.5436,1.02353 C999.42348,0 993.2799,0 987.1354,0 L973.8239,0 L973.8239,0 L908.2878,0 L862.2077,0 L862.2077,0 L862.2077,0 C842.7516,0 824.32,7.16806 807.9352,17.40729 C791.5514,27.64749 776.192,39.93559 763.904,51.19929 C741.3757,70.65539 721.9196,94.20809 703.488,116.73539 C696.32003,99.32719 688.1276,82.94339 679.9353,67.58399 C665.5994,40.95999 639.9998,15.35939 608.2556,8.19139 C600.06419,8.19139 591.8718,7.16795 583.6794,7.16795 L561.1521,7.16795 L542.7195,7.16795 L511.9998,7.16795 L481.2801,7.16795 L462.8475,7.16795 L440.3202,7.16795 C432.12782,7.16795 423.9354,7.16795 415.744,9.2158 C383.9999,15.35935 358.4002,41.9834 344.0643,68.6074 L344.0643,68.6074 C335.87192,83.9678 327.6795,100.3515 320.5116,116.7353 C302.08,93.1835 282.6239,70.6552 260.0956,51.1992 C246.7841,39.9355 232.4481,27.6474 216.0644,17.4072 C199.6796,7.1679 181.248,0 161.7919,0 L161.7919,0 L115.7118,0 L50.1757,0 L50.1757,0 L36.8642,0 C29.69623,0 21.5038,0 14.3359,3.07129 C10.2402,5.11914 7.16793,6.14356 4.0957,9.21582 C1.02441,12.28711 1.687539e-14,17.40723 1.687539e-14,21.50392 C1.687539e-14,24.57521 1.02441,27.64747 1.02441,30.71974 C3.07226,34.81544 5.12011,38.91115 8.19238,41.98344 C11.26367,45.05571 13.31152,48.12797 15.36035,50.17582 C19.45605,56.31937 24.57617,62.46392 27.64845,67.58402 L27.64845,67.58402 C33.792,77.82332 39.93555,88.06352 46.08005,98.30372 C60.41595,122.87992 72.70405,149.50392 87.04005,175.10352 C118.78415,231.42382 151.55175,286.71952 192.51205,336.89552 C221.18395,372.73532 256.00035,408.57522 299.00805,428.03122 C267.26395,488.44722 234.49635,549.88722 201.72775,610.30322 C173.05585,664.57472 143.36055,717.82322 112.63985,771.07122 L112.63985,771.07122 C111.61641,773.11907 109.56856,776.19134 108.54415,779.2636 C106.4963,783.3593 104.44845,787.45598 102.4006,792.5751 C100.35177,797.69522 98.30392,802.8153 98.30392,808.9599 L98.30392,808.9599 L98.30392,808.9599 C98.30392,815.10345 100.35177,820.2236 104.44845,823.2958 C109.56857,828.41592 116.73655,830.46377 123.90455,831.48721 C131.07252,832.51162 137.21605,832.51162 142.33615,832.51162 L146.43185,832.51162 L182.27265,832.51162 C205.82445,832.51162 228.35175,831.48721 251.90445,831.48721 L258.048,831.48721 L268.2882,831.48721 C276.48058,831.48721 285.6964,831.48721 293.8878,830.46377 C329.7276,827.3915 363.5196,808.95987 385.0245,779.26357 C386.04794,778.23916 388.09579,775.16787 390.14364,771.07119 C406.52844,744.44719 456.70414,662.52719 479.23254,626.68719 C484.35168,618.49481 493.56844,603.13539 502.78434,589.82289 C506.88004,583.67934 510.97575,577.53479 514.04804,572.41569 C517.12031,576.51139 521.21601,582.65499 525.31174,589.82289 C533.50412,603.13539 543.74434,618.49479 548.86444,626.68719 C561.15254,647.16769 582.65644,683.00749 602.11244,714.75169 C612.35174,730.11109 620.54404,745.47139 627.71204,756.73509 C630.78431,762.87962 633.85657,766.97529 636.92786,771.07099 C638.97571,775.16767 641.02454,777.21552 642.04798,779.26337 C663.55188,808.95967 696.32048,827.39127 733.18368,830.46357 C741.37606,831.48701 750.59188,831.48701 758.78428,831.48701 L769.02448,831.48701 L775.16803,831.48701 C797.69633,831.48701 821.24813,832.51162 844.79983,832.51162 L880.63963,832.51162 L884.73631,832.51162 C890.87986,832.51162 901.12011,832.51162 910.33591,829.43915 C914.43161,828.41571 919.55173,826.36688 922.62401,822.27118 C926.71971,819.19891 928.76756,814.0788 928.76756,807.93528 L928.76756,807.93528 C928.76756,801.79173 926.71971,796.67158 924.67186,791.55148 C922.62401,786.43138 919.55174,781.31128 917.50389,778.23898 C916.48045,775.16769 914.43162,773.11886 913.40819,770.04757 L913.40819,770.04757 C882.68849,716.79957 854.01559,662.52657 824.32029,609.27857 C789.50389,549.88697 756.73629,488.44657 723.96729,428.03057 C766.97509,408.57447 801.79149,372.73467 830.46329,336.89487 C871.42329,286.71907 905.21529,231.42287 935.93529,175.10287 C950.27219,149.50327 962.55929,122.87927 976.89619,98.30307 C983.03974,88.06287 989.18329,77.82257 995.32779,67.58337 L995.32779,67.58337 C999.42349,61.43884 1003.5192,55.29527 1007.61589,50.17517 L1007.61589,50.17517 C1009.66374,48.12732 1011.71159,45.05505 1014.78386,41.98279 C1017.85613,38.91053 1019.90398,35.83924 1021.95183,30.71909 C1022.97527,27.64682 1023.99968,24.57456 1023.99968,21.50327 C1023.99968,17.40659 1022.97527,12.28647 1019.90398,9.21517 L1019.904,9.21591 Z M439.3,130.04801 C442.37227,130.04801 444.42012,136.19156 445.44453,150.52751 C445.44453,151.55192 439.3,150.52751 433.15643,150.52751 C430.08416,150.52751 427.0119,149.50407 425.98846,149.50407 C422.91619,148.47966 419.84393,147.45622 416.77166,146.4318 C408.58025,143.35953 403.46016,139.26383 399.36446,136.1916 C396.29219,134.14375 394.24434,131.07148 393.21993,130.04801 C413.70043,131.07149 429.05973,131.07149 439.30003,130.04801 L439.3,130.04801 Z M453.636,215.03971 C453.636,220.15885 451.58815,226.30341 447.49245,230.39911 C442.37233,235.51923 436.22785,237.56708 430.08425,238.59149 C423.93972,239.615173 416.77175,240.63934 410.62815,237.56708 C403.46018,233.47138 400.38795,225.27898 399.36445,218.11098 C397.31562,208.89516 394.24433,199.67938 395.26777,190.46348 C395.26777,185.34336 397.31562,180.22328 399.36445,175.10308 C401.4123,169.98296 404.48457,166.9107 406.53242,164.86288 C415.74824,158.71933 429.05972,157.69491 437.25212,165.88729 C441.34782,169.98299 443.39567,174.0787 445.4445,179.19879 C450.56364,190.46339 453.636,202.75149 453.636,215.03959 L453.636,215.03971 Z M535.556,246.78371 C534.53256,247.80812 533.50815,248.83254 532.48471,248.83254 C526.34018,252.92824 519.17221,254.97609 510.97981,254.97609 C502.7884,254.97609 495.62041,252.92824 489.47591,248.83254 C488.45247,247.80813 487.42806,246.78371 486.40462,246.78371 L485.38021,245.76027 L485.38021,244.73586 C486.40462,243.71242 487.42806,243.71242 487.42806,244.73586 C488.45247,245.76027 489.47591,245.76027 490.50033,246.78371 L490.50033,246.78371 C495.62045,250.88039 502.78843,252.92824 509.95643,252.92824 C518.14784,252.92824 524.29233,250.88039 529.41253,246.78371 L529.41253,246.78371 C530.43597,245.76027 531.46038,245.76027 532.4848,244.73586 C533.50824,243.71242 534.53265,243.71242 535.55609,244.73586 C536.5805,245.76027 536.5805,246.78371 535.55609,246.78371 L535.556,246.78371 Z M622.596,218.11171 C620.54815,225.27968 617.47588,233.47211 611.3323,237.56781 C605.18777,240.64008 598.0198,239.615906 591.8762,238.59222 C585.73167,237.56781 578.5637,235.51995 574.468,230.39984 C570.3723,226.30414 568.32445,221.18402 568.32445,215.04044 C567.30004,202.75234 571.39574,190.46424 575.49242,179.19964 C577.54027,174.07952 580.61254,169.98382 583.68383,165.88814 C591.87621,157.69576 605.18773,157.69576 614.40453,164.86373 C617.47582,166.91158 619.52367,169.98385 622.59594,175.10393 C624.64379,180.22405 626.69262,185.34413 626.69262,190.46433 C626.69262,199.68015 624.64379,208.89593 622.59594,218.11183 L622.596,218.11171 Z M621.572,137.21591 C617.47532,140.2872 612.3552,144.38388 604.1638,147.45611 C601.09153,148.47955 598.01927,149.50396 594.94798,150.5274 C593.92357,150.5274 590.8513,151.55181 587.78001,151.55181 C582.65989,152.57525 575.49191,152.57525 575.49191,151.55181 C576.51535,137.21591 578.5632,130.04791 581.63546,131.07131 C591.87566,132.09572 606.21166,132.09572 626.69206,132.09572 C626.69206,132.09572 624.64323,135.16799 621.57194,137.21584 L621.572,137.21591 Z"></path>
  </g>
</svg>