<?xml version="1.0" standalone="no"?>
<!DOCTYPE svg PUBLIC "-//W3C//DTD SVG 1.1//EN" "http://www.w3.org/Graphics/SVG/1.1/DTD/svg11.dtd" >
<svg xmlns="http://www.w3.org/2000/svg" xmlns:xlink="http://www.w3.org/1999/xlink" version="1.1" viewBox="-10 0 1044 1024">
   <path fill="currentColor"
d="M512 -141c-282 0 -512 230 -512 512s230 512 512 512s512 -230 512 -512s-230 -512 -512 -512zM52 371c0 -66 14 -130 40 -188l220 602c-154 -74 -260 -232 -260 -414zM512 831c-46 0 -88 -6 -130 -18l138 -402l142 388c0 2 2 4 2 6c-46 18 -98 26 -152 26zM576 155
c28 -2 52 -4 52 -4c24 -4 22 -40 -2 -38c0 0 -76 6 -124 6c-44 0 -120 -6 -120 -6c-26 -2 -28 36 -4 38l48 4l72 196l-100 302l-168 -498c28 -2 52 -4 52 -4c26 -4 22 -40 -2 -38c0 0 -74 6 -122 6h-30c82 -126 224 -208 384 -208c120 0 228 46 310 120h-6
c-44 0 -76 40 -76 82c0 38 22 70 44 108c18 30 38 70 38 126c0 40 -14 86 -34 150l-46 152zM744 769l140 -406c26 -66 36 -118 36 -166c0 -16 -2 -32 -4 -46c36 64 56 140 56 220c0 170 -92 318 -228 398z" />
</svg>
