<?xml version="1.0" encoding="UTF-8"?>
<svg width="1024px" height="1025px" viewBox="0 0 1024 1025" version="1.1" xmlns="http://www.w3.org/2000/svg" xmlns:xlink="http://www.w3.org/1999/xlink">
  <g id="WordPress" transform="translate(0, 0.0926)" fill="currentColor" fill-rule="nonzero">
    <path d="M512,0 C230,0 0,230 0,512 C0,794 230,1024 512,1024 C794,1024 1024,794 1024,512 C1024,230 794,0 512,0 Z M52,512 C52,446 66,382 92,324 L312,926 C158,852 52,694 52,512 Z M512,972 C466,972 424,966 382,954 L520,552 L662,940 C662,942 664,944 664,946 C618,964 566,972 512,972 Z M576,296 C604,294 628,292 628,292 C652,288 650,252 626,254 C626,254 550,260 502,260 C458,260 382,254 382,254 C356,252 354,290 378,292 L426,296 L498,492 L398,794 L230,296 C258,294 282,292 282,292 C308,288 304,252 280,254 C280,254 206,260 158,260 L128,260 C210,134 352,52 512,52 C632,52 740,98 822,172 L816,172 C772,172 740,212 740,254 C740,292 762,324 784,362 C802,392 822,432 822,488 C822,528 808,574 788,638 L742,790 L576,296 Z M744,910 L884,504 C910,438 920,386 920,338 C920,322 918,306 916,292 C952,356 972,432 972,512 C972,682 880,830 744,910 Z"></path>
  </g>
</svg>