<?xml version="1.0" encoding="UTF-8"?>
<svg width="304px" height="305px" viewBox="0 0 304 305" version="1.1" xmlns="http://www.w3.org/2000/svg" xmlns:xlink="http://www.w3.org/1999/xlink">
    <g id="WorldAnvil" stroke="none" stroke-width="1" fill="none" fill-rule="evenodd">
        <path d="M149.033974,35.1748041 L151.603971,35.1748041 L160.250813,35.179823 C163.077128,35.1840153 165.965714,35.1907143 168.9,35.2 L226.5,35.5 L227.1,44.7 L220.6,45.4 C198.5,47.6 179,62.6 179,77.2 C179,80.6 200.3,161.1 201.7,162.9 C201.9,163.2 208.1,161.5 215.5,159.3 L229,155.3 L230.225969,160.197011 C230.611465,161.761612 231.012605,163.493293 231.402616,165.256654 L231.716339,166.692833 L232.080206,168.404039 C233.254047,174.006447 234.151852,179.111111 233.9,179.3 C233.7,179.5 228,181.7 221.3,184.4 L216.756798,186.192711 C209.726643,189.009158 209.138526,189.593881 209.509313,191.399224 L209.6,191.8 C209.876,193.036 210.156,194.27136 210.439622,195.504896 L210.867726,197.353684 L211.519449,200.119794 L211.959897,201.957856 L212.55477,204.402408 C219.006425,230.685518 226.7202,254.78572 231.9,264.8 L235.7,272 L169,272 L173,266.1 C178,258.8 180,254.1 180,249.6 L179.995478,249.247695 C179.917467,246.000495 178.839931,237.77183 177.522525,229.22614 L177.232695,227.365495 L176.686117,223.955401 C175.06559,214.026966 173.330324,204.978811 172.7,204.3 C171.871605,203.546914 164.691251,206.536946 157.907195,210.237652 L156.909947,210.788454 C155.269124,211.706138 153.671601,212.657212 152.215231,213.597707 L151.6,214 C137.567059,223.190588 129.19845,235.213343 129.003484,246.593833 L129,247 C129,252.5 130,254 140.9,265.2 L147.4,272 L79.9,272 L84.5480838,265.843034 C89.4992695,259.222133 90.6972973,255.716216 93,241.9 L94.4206858,234.028252 C95.0627423,230.51928 95.8140312,226.458825 96.6019277,222.249624 L97.4245606,217.872051 C97.8613736,215.55688 98.3016184,213.238675 98.7336692,210.981907 L110.22656,151.763177 L114,132.4 L124.1,80.4 L121.345145,74.1230505 C118.65809,68.08611 117.691,67.831 98,65.6 L96.2814769,65.3968253 C75.500051,62.8543574 59.3802376,57.7431468 49.6944207,50.5949086 L48.5219635,49.7174612 C42.6040693,45.2367436 44.3346736,45.0101826 74.9503599,45.000405 L110,45 L110,40.7 L110.004519,40.1879373 C110.041873,38.0664905 110.306997,36.1329537 110.657535,35.7397094 L110.7,35.7 C110.934,35.388 126.9864,35.19768 149.033974,35.1748041 Z M151.7,129.298926 C151.5,129.2 148.7,143 145.4,160 L142.050984,177.52063 C140.51388,185.65684 139.538,191 139.6,191 C139.8,191 146,187.1 153.4,182.4 L166.8,173.8 L159.4,151.7 C155.3,139.6 151.8,129.5 151.7,129.298926 Z" id="Shape" fill="currentColor" fill-rule="nonzero"></path>
    </g>
</svg>