<?xml version="1.0" encoding="UTF-8"?>
<svg width="1027px" height="896px" viewBox="0 0 1027 896" version="1.1" xmlns="http://www.w3.org/2000/svg" xmlns:xlink="http://www.w3.org/1999/xlink">
  <g id="Wykop" transform="translate(0.1653, 0)" fill="currentColor" fill-rule="nonzero">
    <path d="M646,160 L554,206 C546,210 544,218 548,226 L692,514 C696,522 692,532 684,536 L656,550 C648,554 638,552 634,544 L632,538 L492,254 C488,246 478,244 470,248 L380,292 C372,296 368,306 372,312 L512,596 L516,602 C520,610 516,620 508,622 L480,636 C470,640 462,638 458,630 L456,624 L316,344 C312,336 302,332 294,336 L204,382 C196,386 192,394 196,402 L360,728 C364,736 372,740 380,736 L392,730 L470,690 L556,648 L648,604 L824,516 C832,512 834,504 830,496 L668,168 C664,160 654,156 646,160 Z M766,0 L260,0 C118,0 0,116 0,258 L0,636 C0,778 118,896 260,896 L766,896 C910,896 1026,778 1026,636 L1026,258 C1024,116 908,0 766,0 Z M918,630 C918,716 848,786 762,786 L264,786 C178,786 108,716 108,630 L108,264 C108,178 178,108 264,108 L762,108 C846,108 918,178 918,264 L918,630 Z"></path>
  </g>
</svg>