<?xml version="1.0" standalone="no"?>
<!DOCTYPE svg PUBLIC "-//W3C//DTD SVG 1.1//EN" "http://www.w3.org/Graphics/SVG/1.1/DTD/svg11.dtd" >
<svg xmlns="http://www.w3.org/2000/svg" xmlns:xlink="http://www.w3.org/1999/xlink" version="1.1" viewBox="-12 0 1046 1024">
   <path fill="currentColor"
d="M644 83l-92 46c-8 4 -10 12 -6 20l144 288c4 8 0 18 -8 22l-28 14c-8 4 -18 2 -22 -6l-2 -6l-140 -284c-4 -8 -14 -10 -22 -6l-90 44c-8 4 -12 14 -8 20l140 284l4 6c4 8 0 18 -8 20l-28 14c-10 4 -18 2 -22 -6l-2 -6l-140 -280c-4 -8 -14 -12 -22 -8l-90 46
c-8 4 -12 12 -8 20l164 326c4 8 12 12 20 8l12 -6l78 -40l86 -42l92 -44l176 -88c8 -4 10 -12 6 -20l-162 -328c-4 -8 -14 -12 -22 -8zM764 -77h-506c-142 0 -260 116 -260 258v378c0 142 118 260 260 260h506c144 0 260 -118 260 -260v-378c-2 -142 -118 -258 -260 -258z
M916 553c0 86 -70 156 -156 156h-498c-86 0 -156 -70 -156 -156v-366c0 -86 70 -156 156 -156h498c84 0 156 70 156 156v366z" />
</svg>
