<?xml version="1.0" standalone="no"?>
<!DOCTYPE svg PUBLIC "-//W3C//DTD SVG 1.1//EN" "http://www.w3.org/Graphics/SVG/1.1/DTD/svg11.dtd" >
<svg xmlns="http://www.w3.org/2000/svg" xmlns:xlink="http://www.w3.org/1999/xlink" version="1.1" viewBox="-14 0 1044 1024">
   <path fill="currentColor"
d="M508 51v0v0c204 -148 332 -74 332 -74c-90 -76 -206 -122 -332 -122s-242 46 -332 122c0 0 126 -76 332 74zM374 149c-150 -92 -240 -132 -240 -132c-86 92 -138 214 -138 350c0 120 42 230 112 318c0 0 -70 -188 266 -536zM1020 367c0 -136 -52 -258 -138 -350
c0 0 -88 40 -240 132c336 348 266 536 266 536c70 -88 112 -198 112 -318zM506 261c-284 210 -368 458 -368 458c94 98 224 158 370 158s278 -60 370 -158c0 0 -54 -224 -372 -458z" />
</svg>
