<?xml version="1.0" encoding="UTF-8"?>
<svg width="1025px" height="1022px" viewBox="0 0 1025 1022" version="1.1" xmlns="http://www.w3.org/2000/svg" xmlns:xlink="http://www.w3.org/1999/xlink">
  <g id="Xbox" transform="translate(0.9254, 0)" fill="currentColor" fill-rule="nonzero">
    <path d="M512,196 L512,196 L512,196 C716,48 844,122 844,122 C754,46 638,0 512,0 C386,0 270,46 180,122 C180,122 306,46 512,196 Z M378,294 C228,202 138,162 138,162 C52,254 0,376 0,512 C0,632 42,742 112,830 C112,830 42,642 378,294 Z M1024,512 C1024,376 972,254 886,162 C886,162 798,202 646,294 C982,642 912,830 912,830 C982,742 1024,632 1024,512 Z M510,406 C226,616 142,864 142,864 C236,962 366,1022 512,1022 C658,1022 790,962 882,864 C882,864 828,640 510,406 Z"></path>
  </g>
</svg>