<?xml version="1.0" encoding="UTF-8"?>
<svg width="871px" height="1025px" viewBox="0 0 871 1025" version="1.1" xmlns="http://www.w3.org/2000/svg" xmlns:xlink="http://www.w3.org/1999/xlink">
  <g id="Xing" transform="translate(0.2853, 0.8284)" fill="currentColor" fill-rule="nonzero">
    <path d="M169,718 L21,718 C13,718 7,714 3,708 C-1,702 -1,692 3,684 L159,408 L159,406 L59,234 C55,226 55,218 59,212 C63,206 69,202 79,202 L227,202 C249,202 261,216 267,230 L369,406 C363,418 209,688 209,688 C201,702 191,718 169,718 Z M867,32 L541,610 L541,612 L749,992 C753,1000 753,1008 749,1014 C745,1020 739,1024 729,1024 L581,1024 C559,1024 549,1008 541,996 C541,996 331,612 331,610 C341,592 659,28 659,28 C667,14 677,0 699,0 L849,0 C857,0 865,4 867,10 C871,16 871,24 867,32 Z"></path>
  </g>
</svg>