<?xml version="1.0" standalone="no"?>
<!DOCTYPE svg PUBLIC "-//W3C//DTD SVG 1.1//EN" "http://www.w3.org/Graphics/SVG/1.1/DTD/svg11.dtd" >
<svg xmlns="http://www.w3.org/2000/svg" xmlns:xlink="http://www.w3.org/1999/xlink" version="1.1" viewBox="-10 0 1044 1024">
   <path fill="currentColor"
d="M994 183c-18 0 -92 18 -118 22c-26 8 -270 196 -286 242c-4 16 -6 42 -6 64l-2 38c0 26 8 70 12 92c16 4 132 2 154 4l-4 48c-20 -2 -168 0 -252 0c-42 0 -180 4 -222 2l8 -44c24 -2 118 4 140 -18c10 -12 8 -24 8 -88v-30c0 -14 0 -42 -4 -66
c-10 -26 -224 -294 -280 -338c-16 -4 -116 -16 -140 -20l-2 -42c12 -6 124 2 232 -2c72 -2 234 0 254 2l-4 36c-22 6 -126 8 -152 16c70 102 180 236 216 286c18 -28 190 -146 196 -186c-26 -6 -116 -20 -130 -20l-8 -46c24 -4 152 0 216 0c54 0 170 0 204 4z" />
</svg>
