<?xml version="1.0" encoding="UTF-8"?>
<svg width="1024px" height="650px" viewBox="0 0 1024 650" version="1.1" xmlns="http://www.w3.org/2000/svg" xmlns:xlink="http://www.w3.org/1999/xlink">
  <g id="Yahoo" transform="translate(0, 0.0926)" fill="currentColor" fill-rule="nonzero">
    <path d="M994,136.828427 C976,136.828427 902,154.828427 876,158.828427 C850,166.828427 606,354.828427 590,400.828427 C586,416.828427 584,442.828427 584,464.828427 L582,502.828427 C582,528.828427 590,572.828427 594,594.828427 C610,598.828427 726,596.828427 748,598.828427 L744,646.828427 C724,644.828427 576,646.828427 492,646.828427 C450,646.828427 312,650.828427 270,648.828427 L278,604.828427 C302,602.828427 396,608.828427 418,586.828427 C428,574.828427 426,562.828427 426,498.828427 L426,468.828427 C426,454.828427 426,426.828427 422,402.828427 C412,376.828427 198,108.828427 142,64.8284271 C126,60.8284271 26,48.8284271 2,44.8284271 L0,2.82842712 C12,-3.17157288 124,4.82842712 232,0.828427125 C304,-1.17157288 466,0.828427125 486,2.82842712 L482,38.8284271 C460,44.8284271 356,46.8284271 330,54.8284271 C400,156.828427 510,290.828427 546,340.828427 C564,312.828427 736,194.828427 742,154.828427 C716,148.828427 626,134.828427 612,134.828427 L604,88.8284271 C628,84.8284271 756,88.8284271 820,88.8284271 C874,88.8284271 990,88.8284271 1024,92.8284271 L994,136.828427 Z"></path>
  </g>
</svg>