<?xml version="1.0" encoding="UTF-8"?>
<svg width="1025px" height="813px" viewBox="0 0 1025 813" version="1.1" xmlns="http://www.w3.org/2000/svg" xmlns:xlink="http://www.w3.org/1999/xlink">
  <g id="Yammer" transform="translate(0.3404, 0.6075)" fill="currentColor" fill-rule="nonzero">
    <path d="M496.24599,9.50935943 C470.24599,1.50935943 444.24599,13.5093594 434.24599,39.5093594 C434.24599,39.5093594 434.24599,43.5093594 432.24599,43.5093594 L432.24599,47.5093594 L432.24599,47.5093594 C416.24599,87.5093594 274.24599,467.509359 274.24599,467.509359 L270.24599,467.509359 L102.24599,37.5093594 L102.24599,37.5093594 L100.24599,31.5093594 C88.24599,5.50935943 60.24599,-6.49064057 34.24599,3.50935943 C8.24599004,13.5093594 -5.75400996,43.5093594 2.24599004,69.5093594 C22.24599,121.509359 218.24599,595.509359 218.24599,595.509359 L204.24599,623.509359 C184.24599,681.509359 160.24599,719.509359 94.24599,719.509359 L66.24599,719.509359 C44.24599,717.509359 26.24599,731.509359 20.24599,751.509359 C14.24599,775.509359 28.24599,799.509359 52.24599,807.509359 C68.24599,809.509359 86.24599,811.509359 102.24599,811.509359 C220.24599,811.509359 260.24599,743.509359 298.24599,643.509359 C298.24599,643.509359 514.24599,105.509359 524.24599,83.5093594 C524.24599,79.5093594 526.24599,75.5093594 528.24599,73.5093594 L528.24599,73.5093594 L528.24599,71.5093594 C536.24599,45.5093594 522.24599,17.5093594 496.24599,9.50935943 Z M886.24599,635.509359 C802.24599,589.509359 658.24599,521.509359 606.24599,521.509359 C598.24599,521.509359 594.24599,523.509359 588.24599,527.509359 C584.24599,529.509359 582.24599,533.509359 582.24599,539.509359 C584.24599,579.509359 806.24599,727.509359 824.24599,737.509359 L832.24599,741.509359 C838.24599,743.509359 844.24599,745.509359 850.24599,745.509359 C870.24599,745.509359 888.24599,733.509359 900.24599,717.509359 C916.24599,691.509359 910.24599,657.509359 886.24599,635.509359 Z M588.24599,283.509359 C594.24599,287.509359 598.24599,289.509359 606.24599,289.509359 C658.24599,289.509359 802.24599,221.509359 886.24599,173.509359 C910.24599,153.509359 916.24599,119.509359 900.24599,93.5093594 C888.24599,77.5093594 870.24599,65.5093594 850.24599,65.5093594 C844.24599,65.5093594 838.24599,67.5093594 830.24599,69.5093594 L824.24599,73.5093594 C806.24599,83.5093594 584.24599,231.509359 582.24599,271.509359 C582.24599,277.509359 584.24599,281.509359 588.24599,283.509359 Z M974.24599,343.509359 L968.24599,343.509359 C946.24599,343.509359 682.24599,367.509359 660.24599,401.509359 C658.24599,405.509359 656.24599,413.509359 660.24599,417.509359 C682.24599,463.509359 968.24599,467.509359 974.24599,463.509359 C1004.24599,459.509359 1026.24599,431.509359 1024.24599,399.509359 C1022.24599,373.509359 1002.24599,349.509359 974.24599,343.509359 Z"></path>
  </g>
</svg>