<?xml version="1.0" standalone="no"?>
<!DOCTYPE svg PUBLIC "-//W3C//DTD SVG 1.1//EN" "http://www.w3.org/Graphics/SVG/1.1/DTD/svg11.dtd" >
<svg xmlns="http://www.w3.org/2000/svg" xmlns:xlink="http://www.w3.org/1999/xlink" version="1.1" viewBox="-10 0 1047 1024">
   <path fill="currentColor"
d="M498 -25c-26 -8 -52 4 -62 30c0 0 0 4 -2 4v4v0c-16 40 -158 420 -158 420h-4l-168 -430v0l-2 -6c-12 -26 -40 -38 -66 -28s-40 40 -32 66c20 52 216 526 216 526l-14 28c-20 58 -44 96 -110 96h-28c-22 -2 -40 12 -46 32c-6 24 8 48 32 56c16 2 34 4 50 4
c118 0 158 -68 196 -168c0 0 216 -538 226 -560c0 -4 2 -8 4 -10v0v-2c8 -26 -6 -54 -32 -62zM888 601c-84 -46 -228 -114 -280 -114c-8 0 -12 2 -18 6c-4 2 -6 6 -6 12c2 40 224 188 242 198l8 4c6 2 12 4 18 4c20 0 38 -12 50 -28c16 -26 10 -60 -14 -82zM590 249
c6 4 10 6 18 6c52 0 196 -68 280 -116c24 -20 30 -54 14 -80c-12 -16 -30 -28 -50 -28c-6 0 -12 2 -20 4l-6 4c-18 10 -240 158 -242 198c0 6 2 10 6 12zM976 309h-6c-22 0 -286 24 -308 58c-2 4 -4 12 0 16c22 46 308 50 314 46c30 -4 52 -32 50 -64
c-2 -26 -22 -50 -50 -56z" />
</svg>
