<?xml version="1.0" encoding="UTF-8"?>
<svg width="558px" height="1025px" viewBox="0 0 558 1025" version="1.1" xmlns="http://www.w3.org/2000/svg" xmlns:xlink="http://www.w3.org/1999/xlink">
  <g id="Yandex" transform="translate(0.2622, 0.4253)" fill="currentColor" fill-rule="nonzero">
    <path d="M546.509668,0 L460.509668,0 C452.509668,0 448.509668,4 446.509668,10 C446.509668,14 316.509668,408 308.509668,440 C300.509668,464 278.509668,546 274.509668,566 L228.509668,442 C218.509668,408 114.509668,118 110.509668,106 C108.509668,100 106.509668,92 94.509668,92 L10.509668,92 C2.50966799,92 -1.49033201,100 0.509667992,106 C2.50966799,110 154.509668,518 216.509668,672 L216.509668,1014 C216.509668,1020 220.509668,1024 226.509668,1024 L306.509668,1024 C310.509668,1024 314.509668,1020 314.509668,1014 L314.509668,676 C366.509668,532 554.509668,20 556.509668,14 C558.509668,8 558.509668,0 546.509668,0 Z"></path>
  </g>
</svg>