<?xml version="1.0" standalone="no"?>
<!DOCTYPE svg PUBLIC "-//W3C//DTD SVG 1.1//EN" "http://www.w3.org/Graphics/SVG/1.1/DTD/svg11.dtd" >
<svg xmlns="http://www.w3.org/2000/svg" xmlns:xlink="http://www.w3.org/1999/xlink" version="1.1" viewBox="-10 0 1034 1024">
   <path fill="currentColor"
d="M780 -141h-86c-8 0 -12 4 -14 10c0 4 -130 398 -138 430c-8 24 -30 106 -34 126l-46 -124c-10 -34 -114 -324 -118 -336c-2 -6 -4 -14 -16 -14h-84c-8 0 -12 8 -10 14c2 4 154 412 216 566v342c0 6 4 10 10 10h80c4 0 8 -4 8 -10v-338c52 -144 240 -656 242 -662
s2 -14 -10 -14z" />
</svg>
