<?xml version="1.0" standalone="no"?>
<!DOCTYPE svg PUBLIC "-//W3C//DTD SVG 1.1//EN" "http://www.w3.org/Graphics/SVG/1.1/DTD/svg11.dtd" >
<svg xmlns="http://www.w3.org/2000/svg" xmlns:xlink="http://www.w3.org/1999/xlink" version="1.1" viewBox="-10 0 1034 1024">
   <path fill="currentColor"
d="M210 -39c10 -16 30 -24 30 -24l202 -74c8 -2 18 -12 48 8c18 10 22 54 22 54l2 346s-4 40 -32 48c-26 6 -48 -16 -48 -16l-208 -284s-30 -36 -16 -58zM104 551c-8 -14 -6 -44 -6 -44l14 -174c0 -10 12 -24 24 -30c14 -10 48 4 48 4l216 110s32 16 32 42
c0 36 -18 36 -28 42l-254 56s-36 14 -46 -6zM494 881c-16 4 -36 0 -36 0l-170 -54c-12 -6 -22 -14 -26 -30c-6 -18 16 -46 16 -46l170 -186s26 -24 46 -12c20 10 22 34 22 34l-4 252s4 36 -18 42zM598 363l136 -216s14 -28 38 -26c20 0 30 18 30 18l116 136s10 22 6 40
s-38 32 -38 32l-242 70s-36 8 -48 -14c-10 -20 2 -40 2 -40zM916 645l-102 148s-20 14 -38 14s-40 -28 -40 -28l-130 -218s-14 -32 2 -48s40 -10 40 -10l244 78s34 6 34 30c0 16 -10 34 -10 34z" />
</svg>
