<?xml version="1.0" encoding="UTF-8"?>
<svg width="829px" height="1025px" viewBox="0 0 829 1025" version="1.1" xmlns="http://www.w3.org/2000/svg" xmlns:xlink="http://www.w3.org/1999/xlink">
  <g id="Yelp" transform="translate(0, 0.8284)" fill="currentColor" fill-rule="nonzero">
    <path d="M112.222222,102.266624 C122.222222,86.2666237 142.222222,78.2666237 142.222222,78.2666237 L344.222222,4.26662374 C352.222222,2.26662374 362.222222,-7.73337626 392.222222,12.2666237 C410.222222,22.2666237 414.222222,66.2666237 414.222222,66.2666237 L416.222222,412.266624 C416.222222,412.266624 412.222222,452.266624 384.222222,460.266624 C358.222222,466.266624 336.222222,444.266624 336.222222,444.266624 L128.222222,160.266624 C128.222222,160.266624 98.2222222,124.266624 112.222222,102.266624 Z M6.22222222,692.266624 C-1.77777778,678.266624 0.222222222,648.266624 0.222222222,648.266624 L14.2222222,474.266624 C14.2222222,464.266624 26.2222222,450.266624 38.2222222,444.266624 C52.2222222,434.266624 86.2222222,448.266624 86.2222222,448.266624 L302.222222,558.266624 C302.222222,558.266624 334.222222,574.266624 334.222222,600.266624 C334.222222,636.266624 316.222222,636.266624 306.222222,642.266624 L52.2222222,698.266624 C52.2222222,698.266624 16.2222222,712.266624 6.22222222,692.266624 Z M396.222222,1022.26662 C380.222222,1026.26662 360.222222,1022.26662 360.222222,1022.26662 L190.222222,968.266624 C178.222222,962.266624 168.222222,954.266624 164.222222,938.266624 C158.222222,920.266624 180.222222,892.266624 180.222222,892.266624 L350.222222,706.266624 C350.222222,706.266624 376.222222,682.266624 396.222222,694.266624 C416.222222,704.266624 418.222222,728.266624 418.222222,728.266624 L414.222222,980.266624 C414.222222,980.266624 418.222222,1016.26662 396.222222,1022.26662 Z M500.222222,504.266624 L636.222222,288.266624 C636.222222,288.266624 650.222222,260.266624 674.222222,262.266624 C694.222222,262.266624 704.222222,280.266624 704.222222,280.266624 L820.222222,416.266624 C820.222222,416.266624 830.222222,438.266624 826.222222,456.266624 C822.222222,474.266624 788.222222,488.266624 788.222222,488.266624 L546.222222,558.266624 C546.222222,558.266624 510.222222,566.266624 498.222222,544.266624 C488.222222,524.266624 500.222222,504.266624 500.222222,504.266624 Z M818.222222,786.266624 L716.222222,934.266624 C716.222222,934.266624 696.222222,948.266624 678.222222,948.266624 C660.222222,948.266624 638.222222,920.266624 638.222222,920.266624 L508.222222,702.266624 C508.222222,702.266624 494.222222,670.266624 510.222222,654.266624 C526.222222,638.266624 550.222222,644.266624 550.222222,644.266624 L794.222222,722.266624 C794.222222,722.266624 828.222222,728.266624 828.222222,752.266624 C828.222222,768.266624 818.222222,786.266624 818.222222,786.266624 Z"></path>
  </g>
</svg>