<?xml version="1.0" encoding="UTF-8"?>
<svg width="73px" height="73px" viewBox="0 0 73 73" version="1.1" xmlns="http://www.w3.org/2000/svg" xmlns:xlink="http://www.w3.org/1999/xlink">
    <title>Yooco</title>
    <g id="Yooco" stroke="none" stroke-width="1" fill="none" fill-rule="evenodd">
        <path d="M46,13 C48.874672,13 51.5919519,13.6738758 54.0024883,14.8722761 C53.889258,17.6984567 54.4946065,19.8195764 56.3105469,20.2055664 C57.3013034,20.4161582 58.5147972,20.081008 59.70533,19.3322012 C62.3837773,22.4736159 64,26.5480634 64,31 L64,41 C64,41.1573528 63.9979809,41.314234 63.9939673,41.4706191 L72.9155273,49.3349609 L60.4071733,51.7917327 C58.3432239,54.5431436 55.509587,56.6836975 52.2258685,57.8942208 C51.5732781,55.4584919 50.3058899,53.909668 48.3452148,53.909668 C46.0818011,53.909668 43.9460454,55.9194886 43.0044267,59.0003917 L26,59.0003917 C16.0588745,59.0003917 8,50.9411255 8,41 L8,31 C8,29.242896 8.25176665,27.5445953 8.72119346,25.9392044 C12.8689176,25.6396854 16,24.215229 16,21.5375977 C16,20.2119034 15.2324977,18.7981215 13.9542216,17.6256508 C17.1437883,14.7499604 21.3675316,13 26,13 L46,13 Z M46.1124303,30.2128967 C43.7998358,33.0081747 42.9959496,35.4173367 43.7007715,37.4403826 L43.9221009,37.9251006 C45.4616356,41.4116127 47.2022236,47.7994097 42.6185862,48.1714406 C39.8077269,48.0786789 38.6681835,46.2457866 39.1999562,42.6727638 L34.253518,42.3453802 C33.7506104,46.1774167 34.3168689,49.1400591 35.9522936,51.2333072 C38.4054307,54.3731795 49.5541997,54.8112853 50.4450431,47.1496867 C51.0389388,42.0419543 49.5947345,36.3963576 46.1124303,30.2128967 Z M25.6826172,19.9472656 C20.1992188,19.9472656 10.2783203,28.4628906 17.8320312,33.8818359 C22.8678385,37.4944661 30.2137044,39.832194 39.8696289,40.8950195 C38.7976888,37.3517253 36.8662109,35.235026 34.0751953,34.5449219 L33.7047559,34.4822505 C28.6663651,33.6037744 19.7955292,31.0140887 23.3549805,27.0854492 C25.8370768,24.9275716 28.7902018,25.1580404 32.2143555,27.7768555 L36.7602539,24.0805664 C33.0307617,21.3250326 29.3382161,19.9472656 25.6826172,19.9472656 Z M54.2900391,20.7026367 C51.0584708,17.8673358 47.8259688,17.8043291 44.5925333,20.5136167 L34.8725586,29.0244141 L40.4262695,29.1445312 L41.0189382,28.5617892 C45.8903021,23.8239443 49.073117,22.0445588 50.5673828,23.2236328 C52.1214193,24.4498698 51.6132813,26.2784831 49.0429688,28.7094727 L49.4912109,34.8076172 L49.7296749,34.5064562 C52.6911616,30.8298966 59.1135716,24.9346891 54.2900391,20.7026367 Z" id="Shape" fill="currentColor"></path>
    </g>
</svg>