<?xml version="1.0" standalone="no"?>
<!DOCTYPE svg PUBLIC "-//W3C//DTD SVG 1.1//EN" "http://www.w3.org/Graphics/SVG/1.1/DTD/svg11.dtd" >
<svg xmlns="http://www.w3.org/2000/svg" xmlns:xlink="http://www.w3.org/1999/xlink" version="1.1" viewBox="-10 0 1042 1024">
   <path fill="currentColor"
d="M706 431c2 -36 6 -72 10 -108c2 -28 6 -58 10 -86c4 -32 8 -66 12 -100c2 -10 4 -20 4 -32c0 -2 2 -4 4 -4c36 -10 72 -20 106 -30c4 0 4 0 6 4c12 58 22 116 34 176c10 40 16 76 24 116c0 0 0 2 2 2v-12c-2 -40 0 -80 2 -120c2 -26 2 -54 4 -80c2 -34 4 -68 4 -102
c0 -4 2 -6 6 -6l84 -24h4c0 10 0 18 -2 28c-2 22 -4 44 -6 68c-2 30 -4 60 -8 92c-2 28 -4 54 -6 82c-4 30 -6 62 -8 94c-2 20 -4 42 -6 62c0 2 0 4 -2 4c-38 12 -74 20 -112 30c-2 2 -4 0 -4 -2c-18 -74 -34 -146 -50 -220l-12 -66c0 -2 0 -2 -2 -4c0 16 -2 32 -2 48
c-2 26 -6 52 -8 78c-4 26 -8 54 -10 78c-4 30 -8 60 -12 88c-2 8 -2 18 -4 26c0 2 -2 2 -4 4c-36 10 -74 20 -114 30c-2 2 -2 0 -4 -2l-24 -138s-14 -92 -22 -138c-8 -40 -14 -80 -22 -120c0 -2 0 -2 2 -4c30 -8 58 -14 86 -22c2 -2 4 0 4 2l6 60c4 32 10 66 14 98
c4 46 12 92 14 140c0 4 0 6 2 10c0 2 -2 2 0 4v-4zM184 507c-2 -24 -6 -48 -6 -72c-2 -26 -4 -50 -4 -76c-2 -32 -4 -64 -6 -98c0 -4 0 -4 4 -6c26 -6 52 -14 78 -20c2 -2 4 -2 4 2c0 50 4 98 6 146c0 38 2 76 4 112c2 48 2 94 4 140c0 4 0 8 2 12c0 2 0 4 -2 4
c-30 6 -58 14 -86 24c-2 0 -2 -2 -4 -4c-14 -32 -26 -64 -38 -96c-18 -44 -36 -86 -50 -130c-2 2 -2 4 0 6c0 24 2 44 4 68c0 20 2 44 4 64c2 34 4 68 6 100c0 4 0 6 2 10c0 2 -2 2 -4 4c-22 4 -42 10 -62 18c-6 2 -12 2 -18 4c-4 2 -4 0 -4 -2c0 -30 -2 -60 -2 -92
c-2 -52 -4 -104 -6 -158c0 -34 -2 -70 -4 -106c0 -18 0 -36 -2 -54c0 -2 2 -2 4 -4c28 -6 56 -14 84 -22c2 -2 4 0 6 2l90 228v2v-2c-4 -2 -4 -4 -4 -4zM568 391c-2 -38 -2 -74 -4 -112c-2 -16 -4 -32 -8 -48c-10 -30 -28 -50 -60 -56c-16 -2 -34 -2 -50 0
c-28 4 -54 12 -80 24c-28 16 -46 36 -52 68c-4 18 -4 34 -4 52c0 40 2 82 2 122c2 24 2 44 2 68c2 14 4 30 8 46c8 28 28 48 56 56c16 2 30 4 44 2c32 -4 62 -12 88 -26s42 -32 52 -58c4 -14 6 -30 6 -44c2 -32 0 -62 0 -94zM472 505c-4 20 -14 28 -34 30h-10
c-10 -2 -16 -8 -18 -18c-2 -16 -2 -32 -2 -48v-76v-106c0 -22 20 -38 42 -34c8 2 16 10 18 20v24c4 56 4 112 6 168c0 12 2 26 -2 40z" />
</svg>
