<?xml version="1.0" encoding="UTF-8"?>
<svg width="1019px" height="696px" viewBox="0 0 1019 696" version="1.1" xmlns="http://www.w3.org/2000/svg" xmlns:xlink="http://www.w3.org/1999/xlink">
  <g id="YouNow" transform="translate(0.7876, 0.6075)" fill="currentColor" fill-rule="nonzero">
    <path d="M702,406 C704,370 708,334 712,298 C714,270 718,240 722,212 C726,180 730,146 734,112 C736,102 738,92 738,80 C738,78 740,76 742,76 C778,66 814,56 848,46 C852,46 852,46 854,50 C866,108 876,166 888,226 C898,266 904,302 912,342 C912,342 912,344 914,344 L914,332 C912,292 914,252 916,212 C918,186 918,158 920,132 C922,98 924,64 924,30 C924,26 926,24 930,24 L1014,0 L1018,0 C1018,10 1018,18 1016,28 C1014,50 1012,72 1010,96 C1008,126 1006,156 1002,188 C1000,216 998,242 996,270 C992,300 990,332 988,364 C986,384 984,406 982,426 C982,428 982,430 980,430 C942,442 906,450 868,460 C866,462 864,460 864,458 C846,384 830,312 814,238 L802,172 C802,170 802,170 800,168 C800,184 798,200 798,216 C796,242 792,268 790,294 C786,320 782,348 780,372 C776,402 772,432 768,460 C766,468 766,478 764,486 C764,488 762,488 760,490 C724,500 686,510 646,520 C644,522 644,520 642,518 L618,380 C618,380 604,288 596,242 C588,202 582,162 574,122 C574,120 574,120 576,118 C606,110 634,104 662,96 C664,94 666,96 666,98 L672,158 C676,190 682,224 686,256 C690,302 698,348 700,396 C700,400 700,402 702,406 C702,408 700,408 702,410 L702,406 Z M180,482 C178,458 174,434 174,410 C172,384 170,360 170,334 C168,302 166,270 164,236 C164,232 164,232 168,230 C194,224 220,216 246,210 C248,208 250,208 250,212 C250,262 254,310 256,358 C256,396 258,434 260,470 C262,518 262,564 264,610 C264,614 264,618 266,622 C266,624 266,626 264,626 C234,632 206,640 178,650 C176,650 176,648 174,646 C160,614 148,582 136,550 C118,506 100,464 86,420 C84,422 84,424 86,426 C86,450 88,470 90,494 C90,514 92,538 94,558 C96,592 98,626 100,658 C100,662 100,664 102,668 C102,670 100,670 98,672 C76,676 56,682 36,690 C30,692 24,692 18,694 C14,696 14,694 14,692 C14,662 12,632 12,600 C10,548 8,496 6,442 C6,408 4,372 2,336 C2,318 2,300 0,282 C0,280 2,280 4,278 C32,272 60,264 88,256 C90,254 92,256 94,258 L184,486 L184,488 L184,486 C180,484 180,482 180,482 Z M564,366 C562,328 562,292 560,254 C558,238 556,222 552,206 C542,176 524,156 492,150 C476,148 458,148 442,150 C414,154 388,162 362,174 C334,190 316,210 310,242 C306,260 306,276 306,294 C306,334 308,376 308,416 C310,440 310,460 310,484 C312,498 314,514 318,530 C326,558 346,578 374,586 C390,588 404,590 418,588 C450,584 480,576 506,562 C532,548 548,530 558,504 C562,490 564,474 564,460 C566,428 564,398 564,366 Z M468,480 C464,500 454,508 434,510 L424,510 C414,508 408,502 406,492 C404,476 404,460 404,444 L404,368 L404,262 C404,240 424,224 446,228 C454,230 462,238 464,248 L464,272 C468,328 468,384 470,440 C470,452 472,466 468,480 Z"></path>
  </g>
</svg>