<?xml version="1.0" standalone="no"?>
<!DOCTYPE svg PUBLIC "-//W3C//DTD SVG 1.1//EN" "http://www.w3.org/Graphics/SVG/1.1/DTD/svg11.dtd" >
<svg xmlns="http://www.w3.org/2000/svg" xmlns:xlink="http://www.w3.org/1999/xlink" version="1.1" viewBox="-10 0 1044 1024">
   <path fill="currentColor"
d="M768 38.2002l-256 132.096l-257.024 -133.12c-84.9912 44.0322 -169.983 89.0879 -254.976 132.097v269.312c171.008 88.0645 340.992 177.152 512 265.216c171.008 -88.0635 342.016 -177.151 512 -265.216v-268.288c-84.9922 -44.0322 -171.008 -88.0635 -256 -132.096
zM12.2881 184.632l235.52 121.856l-235.52 121.855v-243.712zM248.832 554.296l-224.256 -116.736l224.256 -116.735v233.472zM248.832 284.984v7.16797l-229.376 -117.761l229.376 -118.783v229.376zM768 291.128v-238.592
c68.6084 44.0322 137.216 88.0635 206.848 132.096l-206.848 108.544v-2.04785zM262.144 284.984v-229.376l235.521 121.855l-235.521 122.88h-1.02344v-15.3594h1.02344zM262.144 317.752v-3.07227h1.02441l231.424 120.832l-232.448 119.809v-237.568zM505.856 686.392
l-235.521 -121.855l235.521 -121.856v243.712zM507.904 427.32l-231.424 -119.809l235.52 -121.855l232.448 119.808zM755.712 320.824v242.688l-237.568 122.88v-249.855l237.568 -122.88v7.16797zM755.712 290.104v6.14453l-230.4 -118.784l229.377 -119.808v232.447
h1.02344zM768 557.368v-238.592l230.4 119.808zM1010.69 429.368l-239.616 -123.904l239.616 -124.928v248.832z" />
</svg>
