<?xml version="1.0" encoding="UTF-8"?>
<svg width="1024px" height="667px" viewBox="0 0 1024 667" version="1.1" xmlns="http://www.w3.org/2000/svg" xmlns:xlink="http://www.w3.org/1999/xlink">
  <g id="YTGaming" transform="translate(0, 0.0926)" fill="currentColor" fill-rule="nonzero">
    <path d="M768,1.024 L512,133.12 L254.976,0 C169.9848,44.0322 84.993,89.0879 0,132.097 L0,401.409 C171.008,489.4735 340.992,578.561 512,666.625 C683.008,578.5615 854.016,489.474 1024,401.409 L1024,133.121 C939.0078,89.0888 852.992,45.0575 768,1.025 L768,1.024 Z M12.2881,147.4548 L247.8081,269.3118 L12.2881,391.1668 L12.2881,147.4548 L12.2881,147.4548 Z M248.832,517.1208 L24.576,400.3838 L248.832,283.6488 L248.832,517.1208 L248.832,517.1208 Z M248.832,247.8078 L248.832,254.97577 L19.456,137.21477 L248.832,18.43177 L248.832,247.80777 L248.832,247.8078 Z M768,253.9518 L768,15.3598 C836.6084,59.392 905.216,103.4233 974.848,147.4558 L768,255.9998 L768,253.95195 L768,253.9518 Z M262.144,247.8078 L262.144,18.4318 L497.665,140.2868 L262.144,263.1668 L261.12056,263.1668 L261.12056,247.8074 L262.144,247.8074 L262.144,247.8078 Z M262.144,280.5758 L262.144,277.50353 L263.16841,277.50353 L494.59241,398.33553 L262.144,518.14453 L262.144,280.57653 L262.144,280.5758 Z M505.856,649.2168 L270.335,527.3608 L505.856,405.5048 L505.856,649.2168 L505.856,649.2168 Z M507.904,390.1438 L276.48,270.3348 L512,148.4798 L744.448,268.2878 L507.904,390.1438 Z M755.712,283.6478 L755.712,526.3358 L518.144,649.2158 L518.144,399.3608 L755.712,276.4808 L755.712,283.64877 L755.712,283.6478 Z M755.71244,252.9278 L755.71244,259.07233 L525.312,140.28833 L754.689,20.48033 L754.689,252.92733 L755.71244,252.92733 L755.71244,252.9278 Z M768,520.1918 L768,281.5998 L998.4,401.4078 L768,520.1918 Z M1010.69,392.1918 L771.074,268.2878 L1010.69,143.3598 L1010.69,392.1918 Z"></path>
  </g>
</svg>