<?xml version="1.0" standalone="no"?>
<!DOCTYPE svg PUBLIC "-//W3C//DTD SVG 1.1//EN" "http://www.w3.org/Graphics/SVG/1.1/DTD/svg11.dtd" >
<svg xmlns="http://www.w3.org/2000/svg" xmlns:xlink="http://www.w3.org/1999/xlink" version="1.1" viewBox="-10 0 1044 1024">
   <path fill="currentColor"
d="M1016 287h-298l212 -212c-16 -24 -36 -46 -56 -66s-42 -40 -66 -56l-212 212v-298c-26 -6 -54 -8 -84 -8c-28 0 -58 2 -84 8v298l-212 -212c-24 16 -46 36 -66 56s-40 42 -56 66l212 210h-298s-8 56 -8 84c0 30 2 58 8 86h298l-212 212c32 48 74 88 122 122l210 -212v300
c28 4 56 8 84 8h2c28 0 58 -4 84 -8v-300l212 212c24 -16 46 -36 66 -56s40 -42 56 -66l-212 -212h298c6 -26 8 -56 8 -84c0 -30 -2 -58 -8 -84zM640 371c0 38 -8 74 -20 108c-34 12 -70 20 -108 20s-74 -8 -108 -20c-12 -34 -20 -70 -20 -108s8 -74 20 -108
c34 -12 70 -20 108 -20s74 8 108 20c12 34 20 70 20 108z" />
</svg>
