<?xml version="1.0" encoding="UTF-8"?>
<svg width="1024px" height="1027px" viewBox="0 0 1024 1027" version="1.1" xmlns="http://www.w3.org/2000/svg" xmlns:xlink="http://www.w3.org/1999/xlink">
  <g id="Zapier" transform="translate(0, 0.0926)" fill="currentColor" fill-rule="nonzero">
    <path d="M1016,428 L718,428 L930,216 C914,192 894,170 874,150 C854,130 832,110 808,94 L596,306 L596,8 C570,2 542,0 512,0 C484,0 454,2 428,8 L428,306 L216,94 C192,110 170,130 150,150 C130,170 110,192 94,216 L306,426 L8,426 C8,426 0,482 0,510 C0,540 2,568 8,596 L306,596 L94,808 C126,856 168,896 216,930 L426,718 L426,1018 C454,1022 482,1026 510,1026 L512,1026 C540,1026 570,1022 596,1018 L596,718 L808,930 C832,914 854,894 874,874 C894,854 914,832 930,808 L718,596 L1016,596 C1022,570 1024,540 1024,512 C1024,482 1022,454 1016,428 Z M640,512 C640,550 632,586 620,620 C586,632 550,640 512,640 C474,640 438,632 404,620 C392,586 384,550 384,512 C384,474 392,438 404,404 C438,392 474,384 512,384 C550,384 586,392 620,404 C632,438 640,474 640,512 Z"></path>
  </g>
</svg>