<?xml version="1.0" encoding="UTF-8"?>
<svg width="1024px" height="1025px" viewBox="0 0 1024 1025" version="1.1" xmlns="http://www.w3.org/2000/svg" xmlns:xlink="http://www.w3.org/1999/xlink">
  <g id="Zazzle" transform="translate(0, 0.0926)" fill="currentColor" fill-rule="nonzero">
    <path d="M0,512 C0,229.376 229.376,0 512,0 C794.624,0 1024,229.376 1024,512 C1024,794.624 794.624,1024 512,1024 C229.376,1024 0,794.624 0,512 L0,512 Z M252.928,775.168 C259.07253,782.33597 271.3606,781.31155 281.5999,773.12015 C304.1282,754.68855 325.6321,741.37605 367.6165,741.37605 C446.4642,741.37605 508.9285,790.52835 602.1125,790.52835 C673.7922,791.55179 718.8475,763.90435 744.4485,727.04005 C763.9046,698.36815 774.1438,659.45605 774.1438,629.75975 C774.1438,586.75195 749.5686,559.10355 706.5598,559.10355 C665.5998,559.10355 648.1926,579.58405 646.1438,610.30375 C645.12036,622.59185 645.12036,646.14355 637.95239,657.40825 C630.78442,669.69635 616.44849,673.79205 599.04029,673.79205 C555.00809,673.79205 501.75999,637.95225 443.39229,637.95225 L435.20088,637.95225 L816.12888,329.72725 C822.27341,324.60811 825.3447,313.34345 818.17673,308.22335 L759.80853,239.61595 C749.56923,230.40013 741.37693,231.42357 731.13663,239.61595 C711.68053,255.99975 692.22453,271.36005 651.26453,271.36005 C584.70493,271.36005 514.04853,229.37565 421.88853,229.37565 C355.32893,229.37565 318.46453,253.95185 292.86553,280.57585 C268.28933,307.19985 250.88113,349.18325 250.88113,390.14285 C250.88113,432.12725 275.45733,457.72685 316.41723,457.72685 C353.28153,457.72685 374.78543,437.24735 374.78543,407.55105 C374.78543,390.14285 375.80887,375.80695 382.97684,364.54325 C389.12137,353.27955 406.52954,343.03935 430.08134,343.03935 C466.94564,343.03935 536.57734,368.63895 580.60934,368.63895 L583.68063,368.63895 L198.65763,674.81595 C191.48966,680.9595 191.48966,693.24755 195.58536,700.41555 L252.928,775.168 Z"></path>
  </g>
</svg>