<?xml version="1.0" standalone="no"?>
<!DOCTYPE svg PUBLIC "-//W3C//DTD SVG 1.1//EN" "http://www.w3.org/Graphics/SVG/1.1/DTD/svg11.dtd" >
<svg xmlns="http://www.w3.org/2000/svg" xmlns:xlink="http://www.w3.org/1999/xlink" version="1.1" viewBox="-10 0 1044 1024">
   <path fill="currentColor"
d="M0 371c0 -282.624 229.376 -512 512 -512s512 229.376 512 512s-229.376 512 -512 512s-512 -229.376 -512 -512v0zM252.928 634.168c6.14453 7.16797 18.4326 6.14355 28.6719 -2.04785c22.5283 -18.4316 44.0322 -31.7441 86.0166 -31.7441
c78.8477 0 141.312 49.1523 234.496 49.1523c71.6797 1.02344 116.735 -26.624 142.336 -63.4883c19.4561 -28.6719 29.6953 -67.584 29.6953 -97.2803c0 -43.0078 -24.5752 -70.6562 -67.584 -70.6562c-40.96 0 -58.3672 20.4805 -60.416 51.2002
c-1.02344 12.2881 -1.02344 35.8398 -8.19141 47.1045c-7.16797 12.2881 -21.5039 16.3838 -38.9121 16.3838c-44.0322 0 -97.2803 -35.8398 -155.648 -35.8398h-8.19141l380.928 -308.225c6.14453 -5.11914 9.21582 -16.3838 2.04785 -21.5039l-58.3682 -68.6074
c-10.2393 -9.21582 -18.4316 -8.19238 -28.6719 0c-19.4561 16.3838 -38.9121 31.7441 -79.8721 31.7441c-66.5596 0 -137.216 -41.9844 -229.376 -41.9844c-66.5596 0 -103.424 24.5762 -129.023 51.2002c-24.5762 26.624 -41.9844 68.6074 -41.9844 109.567
c0 41.9844 24.5762 67.584 65.5361 67.584c36.8643 0 58.3682 -20.4795 58.3682 -50.1758c0 -17.4082 1.02344 -31.7441 8.19141 -43.0078c6.14453 -11.2637 23.5527 -21.5039 47.1045 -21.5039c36.8643 0 106.496 25.5996 150.528 25.5996h3.07129l-385.023 306.177
c-7.16797 6.14355 -7.16797 18.4316 -3.07227 25.5996z" />
</svg>
