<?xml version="1.0" standalone="no"?>
<!DOCTYPE svg PUBLIC "-//W3C//DTD SVG 1.1//EN" "http://www.w3.org/Graphics/SVG/1.1/DTD/svg11.dtd" >
<svg xmlns="http://www.w3.org/2000/svg" xmlns:xlink="http://www.w3.org/1999/xlink" version="1.1" viewBox="-10 0 1034 1024">
   <path fill="currentColor"
d="M550 59c-16 2 -32 6 -46 8c-46 6 -92 10 -138 4c-20 -2 -40 -6 -58 -16c-26 -12 -34 -26 -32 -56c2 -22 6 -46 18 -66c12 -22 26 -42 40 -62c10 -14 20 -16 34 -8c22 14 48 22 74 26c52 10 104 12 156 12c70 0 140 -10 208 -24h8c12 0 18 4 16 16c-4 26 -6 54 -10 80
c0 6 -4 14 -8 18c-148 170 -296 340 -442 510c-12 14 -14 20 -12 38c10 2 18 2 28 2c44 6 84 24 122 46c32 20 62 38 94 56s62 34 96 40c42 10 82 12 122 2c18 -6 36 -14 50 -24c2 -2 4 -2 8 -6c2 18 4 34 4 50c-2 42 -10 80 -32 116c-22 34 -50 56 -90 62
c-28 2 -52 -4 -78 -10c-56 -18 -106 -46 -154 -80c-24 -16 -48 -36 -72 -54c-48 -34 -100 -58 -158 -64c-26 -4 -54 -6 -82 -6c-18 -2 -36 0 -54 0c-12 0 -20 -6 -20 -18c0 -34 0 -66 2 -98c0 -10 4 -20 10 -26l390 -462z" />
</svg>
