<?xml version="1.0" encoding="UTF-8"?>
<svg width="741px" height="1026px" viewBox="0 0 741 1026" version="1.1" xmlns="http://www.w3.org/2000/svg" xmlns:xlink="http://www.w3.org/1999/xlink">
  <g id="Zerply" transform="translate(0.9821, 0.4253)" fill="currentColor" fill-rule="nonzero">
    <path d="M408,200.679118 C392,202.679118 376,206.679118 362,208.679118 C316,214.679118 270,218.679118 224,212.679118 C204,210.679118 184,206.679118 166,196.679118 C140,184.679118 132,170.679118 134,140.679118 C136,118.679118 140,94.6791176 152,74.6791176 C164,52.6791176 178,32.6791176 192,12.6791176 C202,-1.32088237 212,-3.32088237 226,4.67911763 C248,18.6791176 274,26.6791176 300,30.6791176 C352,40.6791176 404,42.6791176 456,42.6791176 C526,42.6791176 596,32.6791176 664,18.6791176 L672,18.6791176 C684,18.6791176 690,22.6791176 688,34.6791176 C684,60.6791176 682,88.6791176 678,114.679118 C678,120.679118 674,128.679118 670,132.679118 C522,302.679118 374,472.679118 228,642.679118 C216,656.679118 214,662.679118 216,680.679118 C226,682.679118 234,682.679118 244,682.679118 C288,688.679118 328,706.679118 366,728.679118 C398,748.679118 428,766.679118 460,784.679118 C492,802.679118 522,818.679118 556,824.679118 C598,834.679118 638,836.679118 678,826.679118 C696,820.679118 714,812.679118 728,802.679118 C730,800.679118 732,800.679118 736,796.679118 C738,814.679118 740,830.679118 740,846.679118 C738,888.679118 730,926.679118 708,962.679118 C686,996.679118 658,1018.67912 618,1024.67912 C590,1026.67912 566,1020.67912 540,1014.67912 C484,996.679118 434,968.679118 386,934.679118 C362,918.679118 338,898.679118 314,880.679118 C266,846.679118 214,822.679118 156,816.679118 C130,812.679118 102,810.679118 74,810.679118 C56,808.679118 38,810.679118 20,810.679118 C8,810.679118 0,804.679118 0,792.679118 C0,758.679118 0,726.679118 2,694.679118 C2,684.679118 6,674.679118 12,668.679118 L402,206.679118 L408,200.679118 Z"></path>
  </g>
</svg>