<?xml version="1.0" encoding="UTF-8"?>
<svg width="1025px" height="818px" viewBox="0 0 1025 818" version="1.1" xmlns="http://www.w3.org/2000/svg" xmlns:xlink="http://www.w3.org/1999/xlink">
  <g id="Zillow" transform="translate(0.7465, 0.0684)" fill="currentColor" fill-rule="nonzero">
    <path d="M558.0803,0 C501.76,26.624 337.9203,153.601 249.8563,220.16 C357.3763,184.3202 615.4233,126.9764 747.5193,123.9041 C705.5359,94.2078 589.8243,15.3601 558.0803,0 L558.0803,0 Z M43.0081,817.1522 C79.8724,800.7684 423.9361,686.0802 741.3761,667.6482 C748.54407,641.0242 783.3605,550.9122 789.504,527.3602 C460.8,549.8875 193.536,648.1922 86.016,697.3432 L43.0081,817.1522 Z M771.0723,141.3116 C771.0723,141.3116 451.5843,462.8482 401.4083,508.9272 C498.6886,474.1118 698.3683,432.1274 824.3203,423.936 C838.6562,378.8794 855.04,346.1118 855.04,346.1118 L1024,328.7036 C1024,329.72801 894.976,225.2796 771.072,141.3116 L771.0723,141.3116 Z M98.304,663.5522 C198.657,559.1052 562.176,224.2562 562.176,224.2562 C373.76,268.2884 176.128,327.6802 106.496,360.4482 L0,468.9922 C88.0645,450.5606 116.736,446.4639 181.248,437.2481 L98.304,663.5522 Z"></path>
  </g>
</svg>