<?xml version="1.0" standalone="no"?>
<!DOCTYPE svg PUBLIC "-//W3C//DTD SVG 1.1//EN" "http://www.w3.org/Graphics/SVG/1.1/DTD/svg11.dtd" >
<svg xmlns="http://www.w3.org/2000/svg" xmlns:xlink="http://www.w3.org/1999/xlink" version="1.1" viewBox="-10 0 1044 1024">
   <path fill="currentColor"
d="M558.08 -37.5762c-56.3203 26.624 -220.16 153.601 -308.224 220.16c107.52 -35.8398 365.567 -93.1836 497.663 -96.2559c-41.9834 -29.6963 -157.695 -108.544 -189.439 -123.904zM43.0078 779.576c36.8643 -16.3838 380.928 -131.072 698.368 -149.504
c7.16797 -26.624 41.9844 -116.736 48.1279 -140.288c-328.704 22.5273 -595.968 120.832 -703.488 169.983zM771.072 103.736c0 0 -319.488 321.536 -369.664 367.615c97.2803 -34.8154 296.96 -76.7998 422.912 -84.9912
c14.3359 -45.0566 30.7197 -77.8242 30.7197 -77.8242l168.96 -17.4082c0 1.02441 -129.024 -103.424 -252.928 -187.392zM98.3037 625.976c100.353 -104.447 463.872 -439.296 463.872 -439.296c-188.416 44.0322 -386.048 103.424 -455.68 136.192l-106.496 108.544
c88.0645 -18.4316 116.736 -22.5283 181.248 -31.7441z" />
</svg>
