<?xml version="1.0" standalone="no"?>
<!DOCTYPE svg PUBLIC "-//W3C//DTD SVG 1.1//EN" "http://www.w3.org/Graphics/SVG/1.1/DTD/svg11.dtd" >
<svg xmlns="http://www.w3.org/2000/svg" xmlns:xlink="http://www.w3.org/1999/xlink" version="1.1" viewBox="-10 0 1044 1024">
   <path fill="currentColor"
d="M814 171c0 0 -172 -64 -302 -28c-132 36 -186 120 -186 120s-60 66 -104 72s-78 8 -222 0v70c144 -6 178 -4 222 2c44 4 104 72 104 72s54 84 186 120s304 -28 304 -28c204 -74 208 -194 208 -194v-12s-4 -120 -210 -194zM614 209c-64 2 -106 20 -134 36v2h-6
c-8 0 -12 -6 -12 -12s2 -10 6 -12c18 -8 36 -14 60 -20c20 -8 46 -10 74 -10c62 0 126 16 160 26c0 0 -74 -14 -148 -10z" />
</svg>
