<?xml version="1.0" encoding="UTF-8"?>
<svg width="1024px" height="479px" viewBox="0 0 1024 479" version="1.1" xmlns="http://www.w3.org/2000/svg" xmlns:xlink="http://www.w3.org/1999/xlink">
  <g id="Zomato" transform="translate(0, 0.0926)" fill="currentColor" fill-rule="nonzero">
    <path d="M814,38.9863177 C814,38.9863177 642,-25.0136823 512,10.9863177 C380,46.9863177 326,130.986318 326,130.986318 C326,130.986318 266,196.986318 222,202.986318 C178,208.986318 144,210.986318 0,202.986318 L0,272.986318 C144,266.986318 178,268.986318 222,274.986318 C266,278.986318 326,346.986318 326,346.986318 C326,346.986318 380,430.986318 512,466.986318 C644,502.986318 816,438.986318 816,438.986318 C1020,364.986318 1024,244.986318 1024,244.986318 L1024,232.986318 C1024,232.986318 1020,112.986318 814,38.9863177 Z M614,76.9863177 C550,78.9863177 508,96.9863177 480,112.986318 L480,114.986318 L474,114.986318 C466,114.986318 462,108.986318 462,102.986318 C462,96.9863177 464,92.9863177 468,90.9863177 C486,82.9863177 504,76.9863177 528,70.9863177 C548,62.9863177 574,60.9863177 602,60.9863177 C664,60.9863177 728,76.9863177 762,86.9863177 C762,86.9863177 688,72.9863177 614,76.9863177 Z"></path>
  </g>
</svg>