<?xml version="1.0" encoding="UTF-8"?>
<svg width="1024px" height="570px" viewBox="0 0 1024 570" version="1.1" xmlns="http://www.w3.org/2000/svg" xmlns:xlink="http://www.w3.org/1999/xlink">
  <g id="Zoom" transform="translate(0.4071, 0.6075)" fill="currentColor" fill-rule="nonzero">
    <path d="M305.606393,0.255448793 L39.3663933,0.255448793 C11.7188933,0.255448793 0.455293333,10.4956488 0.455293333,39.1675488 C0.455293333,156.928549 -0.569116667,273.663549 0.455293333,391.423549 C1.47873333,497.919549 75.2072933,568.575549 181.703293,568.575549 L695.751293,568.575549 C730.566693,568.575549 739.782493,560.384139 739.782493,526.592149 L739.782493,183.552149 C739.782493,72.9591488 668.102793,1.28014879 557.511493,1.28014879 C472.519293,-0.767701207 389.574493,0.255738793 305.607493,0.255738793 L305.606393,0.255448793 Z M1023.43041,284.927849 L1023.43041,284.927849 L1023.43041,38.1438488 C1023.43041,25.8557488 1022.40598,13.5676488 1010.11889,7.42314879 C996.806393,0.255178793 987.590593,10.4954188 978.374793,16.6399488 C977.350383,17.6633888 975.302523,18.6877988 974.278113,19.7112388 C909.766413,71.9358388 846.278113,125.184239 781.766113,177.407239 C772.550293,185.599619 767.430213,193.791039 768.454613,206.079139 L768.454613,369.919139 C768.454613,382.207239 772.550313,389.375239 781.766113,396.543139 C821.702613,427.263839 860.613813,459.007039 899.526113,490.751139 C927.174513,513.279439 954.822013,535.807739 983.494913,556.287239 C1004.99881,571.647639 1021.38261,563.455209 1023.43041,536.831139 L1023.43041,519.422939 L1023.43041,284.927939 L1023.43041,284.927849 Z"></path>
  </g>
</svg>