<?xml version="1.0" standalone="no"?>
<!DOCTYPE svg PUBLIC "-//W3C//DTD SVG 1.1//EN" "http://www.w3.org/Graphics/SVG/1.1/DTD/svg11.dtd" >
<svg xmlns="http://www.w3.org/2000/svg" xmlns:xlink="http://www.w3.org/1999/xlink" version="1.1" viewBox="-10 0 1044 1024">
   <path fill="currentColor"
d="M306.176 87.3516h-266.24c-27.6475 0 -38.9111 10.2402 -38.9111 38.9121c0 117.761 -1.02441 234.496 0 352.256c1.02344 106.496 74.752 177.152 181.248 177.152h514.048c34.8154 0 44.0312 -8.19141 44.0312 -41.9834v-343.04
c0 -110.593 -71.6797 -182.272 -182.271 -182.272c-84.9922 -2.04785 -167.937 -1.02441 -251.904 -1.02441zM1024 372.024v0v-246.784c0 -12.2881 -1.02441 -24.5762 -13.3115 -30.7207c-13.3125 -7.16797 -22.5283 3.07227 -31.7441 9.2168
c-1.02441 1.02344 -3.07227 2.04785 -4.09668 3.07129c-64.5117 52.2246 -128 105.473 -192.512 157.696c-9.21582 8.19238 -14.3359 16.3838 -13.3115 28.6719v163.84c0 12.2881 4.0957 19.4561 13.3115 26.624c39.9365 30.7207 78.8477 62.4639 117.76 94.208
c27.6484 22.5283 55.2959 45.0566 83.9688 65.5361c21.5039 15.3604 37.8877 7.16797 39.9355 -19.4561v-17.4082v-234.495z" />
</svg>
