<?xml version="1.0" standalone="no"?>
<!DOCTYPE svg PUBLIC "-//W3C//DTD SVG 1.1//EN" "http://www.w3.org/Graphics/SVG/1.1/DTD/svg11.dtd" >
<svg xmlns="http://www.w3.org/2000/svg" xmlns:xlink="http://www.w3.org/1999/xlink" version="1.1" viewBox="-10 0 1034 1024">
   <path fill="currentColor"
d="M764 -137c0 0 70 -6 126 30c20 -2 36 8 46 26c10 20 30 66 14 94c-4 4 -16 -18 -16 -18s-6 28 -22 38c2 58 -20 98 -26 112c-4 6 -2 14 2 22c2 6 40 142 38 186c-2 46 -24 98 -42 118c4 36 -14 68 -22 84c-10 14 -28 72 -32 98c-6 28 -8 56 -2 64c6 10 32 36 30 50
c-2 12 -30 28 -44 28c-12 0 -40 -8 -46 -26c-8 -18 -8 -50 -4 -68c6 -18 38 -152 18 -230c-46 22 -124 20 -124 20s-14 70 -30 110c-6 10 -4 74 -4 116c0 40 14 104 14 104s20 16 16 34c-2 18 -26 28 -46 28s-46 -16 -46 -40s4 -82 2 -122c-2 -42 0 -68 -8 -94
c-6 -26 -26 -94 -28 -146c-6 0 -12 -6 -12 -6s-32 38 -54 58c4 14 10 40 10 46s6 10 16 14s40 20 38 36c0 16 -38 20 -70 6c-8 -4 -36 -98 -40 -110s-6 -18 -2 -30c6 -10 18 -44 16 -64s-38 -52 -64 -52c-18 0 -48 30 -68 46c-26 20 -56 50 -64 56c-8 4 -68 114 -78 144
c-6 14 -14 76 -66 74c-22 -2 -44 -28 22 -72c16 -38 38 -78 40 -86s18 -106 48 -198c28 -94 70 -138 78 -144c6 -6 10 -8 4 -12s-74 -62 -62 -186c2 -14 8 -10 14 22c4 34 30 112 88 136c6 2 48 -30 264 -46c0 -38 6 -78 6 -78s-14 -12 -16 -34c-8 10 -12 14 -22 12
c-8 -2 -8 -46 -6 -78c2 -30 38 -44 52 -46c18 -10 38 -8 38 -8s32 -34 126 -18z" />
</svg>
