<?xml version="1.0" encoding="UTF-8"?>
<svg width="889px" height="1025px" viewBox="0 0 889 1025" version="1.1" xmlns="http://www.w3.org/2000/svg" xmlns:xlink="http://www.w3.org/1999/xlink">
  <g id="Zynga" transform="translate(0.275, 0.3376)" fill="currentColor" fill-rule="nonzero">
    <path d="M696,4.28117914 C696,4.28117914 766,-1.71882086 822,34.2811791 C842,32.2811791 858,42.2811791 868,60.2811791 C878,80.2811791 898,126.281179 882,154.281179 C878,158.281179 866,136.281179 866,136.281179 C866,136.281179 860,164.281179 844,174.281179 C846,232.281179 824,272.281179 818,286.281179 C814,292.281179 816,300.281179 820,308.281179 C822,314.281179 860,450.281179 858,494.281179 C856,540.281179 834,592.281179 816,612.281179 C820,648.281179 802,680.281179 794,696.281179 C784,710.281179 766,768.281179 762,794.281179 C756,822.281179 754,850.281179 760,858.281179 C766,868.281179 792,894.281179 790,908.281179 C788,920.281179 760,936.281179 746,936.281179 C734,936.281179 706,928.281179 700,910.281179 C692,892.281179 692,860.281179 696,842.281179 C702,824.281179 734,690.281179 714,612.281179 C668,634.281179 590,632.281179 590,632.281179 C590,632.281179 576,702.281179 560,742.281179 C554,752.281179 556,816.281179 556,858.281179 C556,898.281179 570,962.281179 570,962.281179 C570,962.281179 590,978.281179 586,996.281179 C584,1014.28118 560,1024.28118 540,1024.28118 C520,1024.28118 494,1008.28118 494,984.281179 C494,960.281179 498,902.281179 496,862.281179 C494,820.281179 496,794.281179 488,768.281179 C482,742.281179 462,674.281179 460,622.281179 C454,622.281179 448,616.281179 448,616.281179 C448,616.281179 416,654.281179 394,674.281179 C398,688.281179 404,714.281179 404,720.281179 C404,726.281179 410,730.281179 420,734.281179 C430,738.281179 460,754.281179 458,770.281179 C458,786.281179 420,790.281179 388,776.281179 C380,772.281179 352,678.281179 348,666.281179 C344,654.281179 342,648.281179 346,636.281179 C352,626.281179 364,592.281179 362,572.281179 C360,552.281179 324,520.281179 298,520.281179 C280,520.281179 250,550.281179 230,566.281179 C204,586.281179 174,616.281179 166,622.281179 C158,626.281179 98,736.281179 88,766.281179 C82,780.281179 74,842.281179 22,840.281179 C0,838.281179 -22,812.281179 44,768.281179 C60,730.281179 82,690.281179 84,682.281179 C86,674.281179 102,576.281179 132,484.281179 C160,390.281179 202,346.281179 210,340.281179 C216,334.281179 220,332.281179 214,328.281179 C208,324.281179 140,266.281179 152,142.281179 C154,128.281179 160,132.281179 166,164.281179 C170,198.281179 196,276.281179 254,300.281179 C260,302.281179 302,270.281179 518,254.281179 C518,216.281179 524,176.281179 524,176.281179 C524,176.281179 510,164.281179 508,142.281179 C500,152.281179 496,156.281179 486,154.281179 C478,152.281179 478,108.281179 480,76.2811791 C482,46.2811791 518,32.2811791 532,30.2811791 C550,20.2811791 570,22.2811791 570,22.2811791 C570,22.2811791 602,-11.7188209 696,4.28117914 Z"></path>
  </g>
</svg>